<svg xmlns="http://www.w3.org/2000/svg" stroke="#000" viewBox="0 0 1024 768" font-size="1"><path fill="#FFF" stroke="none" d="M0 0v768h1024V0z"/><path stroke="none" d="M321.813 14.102zm1.185-10.04h2.264v3.864h3.465V4.06h2.28v10.042h-2.28v-4.19h-3.465v4.19h-2.264V4.062zm9.195 10.04zm.723-2.126c0-1.2 1.017-1.88 1.017-1.88 1.016-.676 3.28-.907 3.28-.907-.03-.51-.308-.81-.308-.81-.277-.3-.893-.3-.893-.3-.493 0-.986.18-.986.18-.493.18-1.047.51-1.047.51l-.81-1.5c.74-.45 1.55-.73 1.55-.73.81-.28 1.71-.28 1.71-.28 1.48 0 2.25.84 2.25.84.77.84.77 2.61.77 2.61v4.38h-1.85l-.17-.79h-.05c-.5.43-1.04.7-1.04.7-.55.27-1.2.27-1.2.27-.52 0-.94-.18-.94-.18-.42-.18-.71-.5-.71-.5-.3-.32-.46-.73-.46-.73-.16-.42-.16-.91-.16-.91zm0 0zm2.156-.17c0 .37.24.548.24.548.238.177.638.177.638.177.4 0 .678-.17.678-.17.277-.16.585-.47.585-.47v-1.34c-1.217.17-1.68.5-1.68.5-.46.33-.46.77-.46.77zm5.344 2.296zm.185-7.64h2.28l.99 3.605c.16.57.3 1.162.3 1.162l.3 1.19h.06c.14-.6.29-1.2.29-1.2.15-.6.3-1.17.3-1.17l1-3.61h2.18l-2.49 7.64h-2.61zm7.75 7.64zm.56-3.82c0-.924.31-1.67.31-1.67.31-.748.81-1.263.81-1.263.5-.52 1.15-.8 1.15-.8.65-.28 1.34-.28 1.34-.28.82 0 1.43.28 1.43.28.61.27 1.02.77 1.02.77.41.49.61 1.16.61 1.16.2.67.2 1.45.2 1.45 0 .31-.03.56-.03.56-.03.25-.06.39-.06.39h-4.58c.16.88.69 1.27.69 1.27.53.39 1.3.39 1.3.39.82 0 1.65-.51 1.65-.51l.76 1.37c-.58.4-1.3.63-1.3.63-.71.23-1.41.23-1.41.23-.81 0-1.52-.27-1.52-.27-.71-.27-1.23-.79-1.23-.79-.52-.52-.81-1.26-.81-1.26-.29-.74-.29-1.69-.29-1.69zm0 0zm4.93-.785c0-.662-.29-1.078-.29-1.078-.29-.42-.98-.42-.98-.42-.54 0-.94.36-.94.36-.41.36-.53 1.13-.53 1.13h2.76zm5.7 4.605zm1.17 1.108c.11.03.25.062.25.062.14.03.26.03.26.03.57 0 .88-.276.88-.276.31-.278.46-.724.46-.724l.11-.4-2.94-7.44H362l1.093 3.28c.17.525.308 1.064.308 1.064.14.54.3 1.11.3 1.11h.06c.12-.54.25-1.087.25-1.087.13-.55.27-1.09.27-1.09l.93-3.28h2.17l-2.65 7.71c-.27.72-.57 1.27-.57 1.27-.3.54-.69.91-.69.91-.39.36-.89.54-.89.54-.5.18-1.18.18-1.18.18-.35 0-.6-.04-.6-.04-.24-.04-.48-.12-.48-.12l.4-1.73zm6.73-1.108zm.56-3.82c0-.955.31-1.7.31-1.7.31-.748.83-1.257.83-1.257.52-.508 1.2-.777 1.2-.777.68-.27 1.4-.27 1.4-.27.73 0 1.4.27 1.4.27.67.27 1.19.777 1.19.777.52.51.83 1.256.83 1.256.31.75.31 1.71.31 1.71 0 .96-.3 1.7-.3 1.7-.31.75-.82 1.26-.82 1.26-.52.51-1.18.78-1.18.78-.67.27-1.39.27-1.39.27-.72 0-1.4-.27-1.4-.27-.68-.27-1.19-.77-1.19-.77-.52-.51-.82-1.25-.82-1.25-.31-.74-.31-1.7-.31-1.7zm0 0zm2.33 0c0 1 .35 1.586.35 1.586.35.586 1.06.586 1.06.586.7 0 1.05-.586 1.05-.586.36-.585.36-1.586.36-1.586 0-1-.35-1.586-.35-1.586-.35-.585-1.05-.585-1.05-.585-.71 0-1.05.59-1.05.59-.34.59-.34 1.59-.34 1.59zm5.67 3.82zm.93-7.64h2.27v4.452c0 .83.23 1.14.23 1.14.23.307.73.307.73.307.43 0 .72-.2.72-.2.29-.2.63-.64.63-.64V6.47h2.27v7.63h-1.85l-.17-1.063h-.04c-.49.584-1.05.915-1.05.915-.56.33-1.35.33-1.35.33-1.24 0-1.81-.815-1.81-.815-.56-.816-.56-2.264-.56-2.264v-4.74zm11.03 7.64zm.56-3.82c0-.955.32-1.7.32-1.7.33-.748.87-1.257.87-1.257.55-.508 1.27-.777 1.27-.777.73-.27 1.51-.27 1.51-.27.71 0 1.28.24 1.28.24.57.238.96.638.96.638l-1.03 1.4c-.54-.445-1.06-.445-1.06-.445-.83 0-1.31.59-1.31.59-.48.59-.48 1.59-.48 1.59 0 1 .49 1.59.49 1.59.49.59 1.23.59 1.23.59.41 0 .75-.17.75-.17.34-.17.62-.38.62-.38l.91 1.43c-.55.5-1.23.73-1.23.73-.68.23-1.31.23-1.31.23-.8 0-1.48-.27-1.48-.27-.68-.27-1.19-.77-1.19-.77-.51-.51-.8-1.26-.8-1.26-.29-.75-.29-1.7-.29-1.7zm6.21 3.82zm.56-3.82c0-.955.31-1.7.31-1.7.31-.748.83-1.257.83-1.257.52-.508 1.2-.777 1.2-.777.68-.27 1.4-.27 1.4-.27.72 0 1.39.27 1.39.27.67.27 1.19.777 1.19.777.52.51.82 1.256.82 1.256.31.75.31 1.71.31 1.71 0 .96-.3 1.7-.3 1.7-.31.75-.82 1.26-.82 1.26-.51.51-1.18.78-1.18.78-.67.27-1.39.27-1.39.27-.72 0-1.4-.27-1.4-.27-.68-.27-1.2-.77-1.2-.77-.51-.51-.82-1.25-.82-1.25-.31-.74-.31-1.7-.31-1.7zm0 0zm2.33 0c0 1 .35 1.586.35 1.586.35.586 1.06.586 1.06.586.7 0 1.05-.586 1.05-.586.35-.585.35-1.586.35-1.586 0-1-.35-1.586-.35-1.586-.35-.585-1.05-.585-1.05-.585-.71 0-1.05.59-1.05.59-.35.59-.35 1.59-.35 1.59zm5.67 3.82zm1-7.64h1.85l.16.97h.06c.5-.46 1.08-.807 1.08-.807.59-.347 1.37-.347 1.37-.347 1.25 0 1.81.816 1.81.816.56.817.56 2.264.56 2.264v4.744h-2.26v-4.45c0-.833-.22-1.14-.22-1.14-.22-.31-.71-.31-.71-.31-.43 0-.74.194-.74.194-.3.192-.67.547-.67.547v5.16h-2.27v-7.64zm7.81 7.64zm1.31-5.868h-1.05v-1.68l1.17-.09.26-2.034h1.88v2.033h1.83v1.77h-1.83V11.3c0 .646.27.93.27.93.27.285.72.285.72.285.19 0 .38-.046.38-.046.19-.05.35-.11.35-.11l.36 1.65c-.31.09-.72.18-.72.18-.41.09-.97.09-.97.09-.7 0-1.21-.22-1.21-.22-.5-.22-.81-.6-.81-.6-.31-.39-.46-.94-.46-.94-.14-.55-.14-1.21-.14-1.21V8.23zm4.59 5.868zm1-7.64h1.85l.15 1.34h.07c.42-.785 1-1.154 1-1.154.59-.37 1.17-.37 1.17-.37.33 0 .53.04.53.04.21.037.38.114.38.114l-.37 1.956c-.22-.062-.4-.092-.4-.092-.19-.03-.44-.03-.44-.03-.43 0-.9.307-.9.307-.47.308-.78 1.093-.78 1.093v4.436H419v-7.64zm5.13 7.64zm2.12-8.762c-.57 0-.94-.333-.94-.333-.37-.33-.37-.855-.37-.855 0-.524.37-.847.37-.847.37-.323.94-.323.94-.323.58 0 .95.323.95.323.36.323.36.847.36.847 0 .524-.36.855-.36.855-.36.33-.94.33-.94.33zm0 0zm-1.13 1.122h2.27v7.64h-2.27v-7.64zm3.25 7.64zm1-10.797h2.27v2.65l-.06 1.17c.44-.4.96-.624.96-.624.52-.22 1.06-.22 1.06-.22.69 0 1.24.28 1.24.28.55.28.95.78.95.78.39.5.6 1.22.6 1.22.21.72.21 1.6.21 1.6 0 .99-.27 1.76-.27 1.76-.27.77-.72 1.3-.72 1.3-.45.53-1.03.81-1.03.81-.57.28-1.19.28-1.19.28-.51 0-1.02-.24-1.02-.24-.51-.25-.96-.74-.96-.74h-.06l-.19.8h-1.77V3.31zm0 0zm2.27 8.64c.31.277.62.385.62.385.31.108.6.108.6.108.59 0 1-.53 1-.53.42-.532.42-1.718.42-1.718 0-2.064-1.32-2.064-1.32-2.064-.68 0-1.31.693-1.31.693v3.12zm5.56 2.156zm.92-7.64h2.27v4.46c0 .83.23 1.14.23 1.14.23.31.72.31.72.31.43 0 .73-.2.73-.2.29-.2.63-.64.63-.64V6.47h2.26v7.63h-1.85l-.17-1.063h-.04c-.49.584-1.05.915-1.05.915-.56.33-1.35.33-1.35.33-1.25 0-1.81-.815-1.81-.815-.56-.816-.56-2.264-.56-2.264v-4.74zm7.83 7.64zm1.31-5.86h-1.05V6.56l1.17-.09.26-2.035h1.88v2.03h1.83v1.77h-1.83v3.07c0 .647.27.93.27.93.27.286.71.286.71.286.19 0 .38-.04.38-.04.19-.05.35-.11.35-.11l.36 1.65c-.31.09-.73.18-.73.18-.41.09-.97.09-.97.09-.71 0-1.21-.21-1.21-.21-.5-.21-.81-.6-.81-.6-.31-.38-.46-.93-.46-.93-.14-.54-.14-1.21-.14-1.21v-3.1zm4.43 5.87zm.56-3.82c0-.92.31-1.67.31-1.67.31-.74.81-1.26.81-1.26.5-.51 1.15-.79 1.15-.79.65-.27 1.34-.27 1.34-.27.82 0 1.43.28 1.43.28.61.28 1.02.77 1.02.77.41.5.61 1.17.61 1.17.2.67.2 1.46.2 1.46 0 .31-.03.57-.03.57-.03.25-.06.39-.06.39h-4.58c.15.88.68 1.27.68 1.27.53.4 1.3.4 1.3.4.82 0 1.65-.51 1.65-.51l.76 1.37c-.58.4-1.3.63-1.3.63-.71.23-1.41.23-1.41.23-.81 0-1.52-.27-1.52-.27-.71-.27-1.23-.78-1.23-.78-.52-.51-.82-1.25-.82-1.25-.29-.74-.29-1.69-.29-1.69zm0 0zm4.93-.78c0-.66-.29-1.08-.29-1.08-.29-.42-.98-.42-.98-.42-.54 0-.95.37-.95.37-.41.36-.53 1.13-.53 1.13h2.76zm2.5 4.61zm.6-3.82c0-.94.27-1.67.27-1.67.27-.74.71-1.25.71-1.25.44-.51 1.02-.79 1.02-.79.58-.27 1.18-.27 1.18-.27.65 0 1.06.22 1.06.22.42.22.82.59.82.59l-.09-1.17V3.31h2.27V14.1h-1.85l-.15-.754h-.06c-.4.4-.94.67-.94.67-.54.27-1.09.27-1.09.27-.71 0-1.28-.278-1.28-.278-.57-.278-.98-.794-.98-.794-.4-.516-.63-1.255-.63-1.255-.22-.74-.22-1.68-.22-1.68zm0 0zm2.33-.03c0 1.14.36 1.67.36 1.67.36.53 1.03.53 1.03.53.37 0 .67-.15.67-.15.3-.15.58-.54.58-.54V8.62c-.31-.278-.63-.386-.63-.386-.32-.108-.63-.108-.63-.108-.54 0-.95.516-.95.516-.41.516-.41 1.61-.41 1.61zm9.1 3.85zm1.3-5.86h-1.05v-1.7l1.17-.09.26-2.03h1.88v2.02h1.83v1.77h-1.83v3.07c0 .65.27.93.27.93.27.29.72.29.72.29.19 0 .38-.04.38-.04.19-.05.35-.11.35-.11l.35 1.65c-.31.09-.72.18-.72.18-.41.09-.97.09-.97.09-.71 0-1.21-.22-1.21-.22-.5-.22-.81-.6-.81-.6-.31-.39-.46-.94-.46-.94-.15-.55-.15-1.21-.15-1.21V8.23zm4.44 5.87zm.55-3.82c0-.95.3-1.7.3-1.7.31-.75.83-1.25.83-1.25.51-.51 1.19-.78 1.19-.78.68-.27 1.4-.27 1.4-.27.72 0 1.39.27 1.39.27.67.27 1.18.78 1.18.78.52.51.82 1.26.82 1.26.31.75.31 1.71.31 1.71 0 .96-.31 1.7-.31 1.7-.31.75-.82 1.26-.82 1.26-.51.51-1.18.78-1.18.78-.67.27-1.393.27-1.393.27-.72 0-1.4-.27-1.4-.27-.68-.27-1.19-.78-1.19-.78-.515-.51-.82-1.25-.82-1.25-.3-.74-.3-1.7-.3-1.7zm0 0zm2.32 0c0 1 .35 1.59.35 1.59.34.59 1.05.59 1.05.59.69 0 1.05-.59 1.05-.59.35-.58.35-1.58.35-1.58 0-1-.35-1.58-.35-1.58-.35-.59-1.05-.59-1.05-.59-.71 0-1.05.59-1.05.59-.34.59-.34 1.59-.34 1.59zm8.87 3.82zm.73-2.12c0-1.2 1.01-1.88 1.01-1.88 1.02-.67 3.28-.9 3.28-.9-.03-.51-.31-.81-.31-.81-.28-.3-.89-.3-.89-.3-.49 0-.99.19-.99.19-.49.19-1.05.51-1.05.51l-.8-1.49c.74-.45 1.55-.72 1.55-.72.81-.28 1.72-.28 1.72-.28 1.48 0 2.26.84 2.26.84.78.84.78 2.61.78 2.61v4.37h-1.85l-.17-.79h-.05c-.49.43-1.04.7-1.04.7-.54.27-1.19.27-1.19.27-.52 0-.94-.18-.94-.18-.42-.17-.71-.49-.71-.49-.29-.32-.45-.73-.45-.73-.17-.41-.17-.9-.17-.9zm0 0zm2.15-.17c0 .37.24.55.24.55.24.18.64.18.64.18.4 0 .68-.17.68-.17.28-.17.59-.47.59-.47v-1.34c-1.22.17-1.68.49-1.68.49-.47.33-.47.77-.47.77zm5.35 2.3zm1-7.64h1.85l.15.97h.06c.49-.46 1.08-.81 1.08-.81.59-.35 1.37-.35 1.37-.35 1.25 0 1.81.82 1.81.82.56.82.56 2.27.56 2.27v4.74H503V9.65c0-.832-.227-1.14-.227-1.14-.223-.31-.72-.31-.72-.31-.43 0-.74.195-.74.195-.304.192-.673.547-.673.547v5.16h-2.26v-7.64zm11.01 7.64zm.55-3.82c0-.95.31-1.7.31-1.7.31-.75.83-1.26.83-1.26.52-.51 1.2-.78 1.2-.78.67-.27 1.4-.27 1.4-.27.72 0 1.39.27 1.39.27.67.27 1.18.78 1.18.78.52.51.83 1.26.83 1.26.31.75.31 1.71.31 1.71 0 .96-.305 1.7-.305 1.7-.31.75-.82 1.26-.82 1.26-.52.51-1.19.78-1.19.78-.67.27-1.396.27-1.396.27-.72 0-1.4-.27-1.4-.27-.68-.27-1.19-.78-1.19-.78-.51-.51-.82-1.26-.82-1.26-.31-.74-.31-1.7-.31-1.7zm0 0zm2.33 0c0 1 .34 1.59.34 1.59.35.59 1.06.59 1.06.59.69 0 1.05-.58 1.05-.58.35-.59.35-1.59.35-1.59 0-1-.35-1.58-.35-1.58-.35-.58-1.05-.58-1.05-.58-.71 0-1.05.59-1.05.59-.35.58-.35 1.58-.35 1.58zm5.66 3.82zm3.27.6v2.23h-2.26V6.46h1.85l.15.754h.06c.45-.4 1.01-.67 1.01-.67.56-.27 1.16-.27 1.16-.27.69 0 1.25.277 1.25.277.55.28.94.79.94.79.387.51.595 1.23.595 1.23.2.72.2 1.6.2 1.6 0 .99-.27 1.75-.27 1.75-.27.76-.73 1.3-.73 1.3-.45.54-1.03.81-1.03.81-.576.28-1.19.28-1.19.28-.49 0-.95-.21-.95-.21-.46-.21-.86-.59-.86-.59zm0 0zm0-2.76c.31.28.62.39.62.39.31.11.6.11.6.11.59 0 1-.53 1-.53.42-.53.42-1.72.42-1.72 0-2.06-1.32-2.06-1.32-2.06-.67 0-1.31.7-1.31.7V12zm5.56 2.16zm.56-3.82c0-.92.31-1.67.31-1.67.31-.74.81-1.26.81-1.26.5-.51 1.15-.79 1.15-.79.64-.28 1.34-.28 1.34-.28.81 0 1.42.28 1.42.28.61.28 1.02.77 1.02.77.41.49.61 1.16.61 1.16.2.67.2 1.46.2 1.46 0 .31-.03.56-.03.56-.03.26-.062.39-.062.39h-4.57c.15.88.68 1.27.68 1.27.53.4 1.3.4 1.3.4.82 0 1.65-.5 1.65-.5l.75 1.37c-.59.4-1.3.63-1.3.63-.72.23-1.41.23-1.41.23-.82 0-1.53-.27-1.53-.27-.7-.27-1.23-.79-1.23-.79-.52-.51-.81-1.25-.81-1.25-.29-.74-.29-1.69-.29-1.69zm0 0zm4.93-.78c0-.66-.29-1.07-.29-1.07-.292-.42-.99-.42-.99-.42-.54 0-.95.36-.95.36-.41.37-.53 1.14-.53 1.14h2.76zm2.498 4.61zm1-7.64h1.85l.15.97h.06c.5-.46 1.08-.8 1.08-.8.59-.34 1.37-.34 1.37-.34 1.25 0 1.81.82 1.81.82.56.82.56 2.26.56 2.26v4.73h-2.26v-4.5c0-.83-.22-1.14-.22-1.14-.227-.31-.72-.31-.72-.31-.43 0-.74.2-.74.2-.31.19-.68.55-.68.55v5.16h-2.26V6.47zm11.01 7.64zm1.34-2.29c.53.4 1 .6 1 .6.48.2.97.2.97.2.51 0 .74-.17.74-.17.23-.17.23-.48.23-.48 0-.18-.13-.33-.13-.33-.13-.15-.35-.27-.35-.27-.225-.12-.5-.22-.5-.22-.28-.1-.57-.22-.57-.22-.356-.14-.71-.32-.71-.32-.35-.18-.647-.45-.647-.45-.29-.27-.48-.63-.48-.63-.18-.36-.18-.84-.18-.84 0-.52.21-.97.21-.97.208-.44.59-.75.59-.75.387-.31.926-.48.926-.48.54-.18 1.2-.18 1.2-.18.88 0 1.54.3 1.54.3.66.3 1.16.67 1.16.67l-1.02 1.36c-.417-.31-.82-.48-.82-.48-.4-.17-.8-.17-.8-.17-.86 0-.86.61-.86.61 0 .18.12.31.12.31.124.13.33.24.33.24.21.11.48.21.48.21l.56.21c.37.14.73.31.73.31.36.18.66.44.66.44.3.27.483.64.483.64.184.38.184.9.184.9 0 .53-.2.97-.2.97-.2.45-.6.78-.6.78-.4.33-.98.53-.98.53-.58.19-1.35.19-1.35.19-.755 0-1.55-.29-1.55-.29-.79-.29-1.376-.77-1.376-.77zm5.48 2.29zm.56-3.82c0-.95.31-1.7.31-1.7.304-.75.82-1.25.82-1.25.52-.51 1.195-.78 1.195-.78.68-.27 1.4-.27 1.4-.27.727 0 1.397.27 1.397.27.67.27 1.19.78 1.19.78.513.51.82 1.26.82 1.26.31.75.31 1.7.31 1.7 0 .96-.31 1.7-.31 1.7-.31.75-.822 1.25-.822 1.25-.52.51-1.19.78-1.19.78-.67.27-1.4.27-1.4.27-.72 0-1.4-.27-1.4-.27-.68-.27-1.19-.78-1.19-.78-.52-.51-.83-1.25-.83-1.25-.305-.75-.305-1.7-.305-1.7zm0 0zm2.325 0c0 1 .35 1.59.35 1.59.35.59 1.056.59 1.056.59.69 0 1.045-.58 1.045-.58.356-.59.356-1.59.356-1.59 0-1-.36-1.58-.36-1.58-.36-.58-1.05-.58-1.05-.58-.71 0-1.06.58-1.06.58-.35.58-.35 1.58-.35 1.58zm5.67 3.82zm.92-7.64h2.26v4.45c0 .83.23 1.14.23 1.14.23.31.73.31.73.31.43 0 .727-.2.727-.2.29-.2.63-.64.63-.64V6.48h2.27v7.62h-1.85l-.17-1.063h-.04c-.496.584-1.058.915-1.058.915-.56.33-1.35.33-1.35.33-1.24 0-1.81-.815-1.81-.815-.56-.816-.56-2.264-.56-2.264v-4.74zm7.82 7.64zm1-7.64h1.85l.157 1.34h.06c.42-.78 1-1.15 1-1.15.59-.37 1.17-.37 1.17-.37.33 0 .54.04.54.04.21.04.377.12.377.12l-.37 1.96c-.217-.06-.4-.09-.4-.09-.187-.03-.43-.03-.43-.03-.43 0-.9.31-.9.31-.47.31-.78 1.09-.78 1.09v4.41h-2.27V6.46zm4.98 7.64zm.557-3.82c0-.95.327-1.7.327-1.7.32-.75.87-1.25.87-1.25.543-.51 1.27-.78 1.27-.78.72-.27 1.51-.27 1.51-.27.704 0 1.274.24 1.274.24.57.24.96.64.96.64l-1.03 1.4c-.54-.44-1.06-.44-1.06-.44-.83 0-1.31.59-1.31.59-.48.59-.48 1.59-.48 1.59 0 1 .487 1.59.487 1.59.48.59 1.22.59 1.22.59.415 0 .75-.17.75-.17.34-.17.62-.39.62-.39l.904 1.43c-.55.5-1.23.73-1.23.73-.677.23-1.31.23-1.31.23-.8 0-1.485-.27-1.485-.27-.69-.27-1.194-.78-1.194-.78-.51-.51-.8-1.26-.8-1.26-.3-.74-.3-1.7-.3-1.7zm6.21 3.82zm.555-3.82c0-.92.306-1.67.306-1.67.31-.75.81-1.26.81-1.26.5-.51 1.145-.79 1.145-.79.65-.27 1.34-.27 1.34-.27.82 0 1.43.28 1.43.28.61.28 1.02.77 1.02.77.41.49.61 1.16.61 1.16.2.67.2 1.46.2 1.46 0 .31-.03.57-.03.57-.03.25-.06.39-.06.39h-4.58c.15.88.69 1.27.69 1.27.53.39 1.3.39 1.3.39.82 0 1.65-.51 1.65-.51l.75 1.37c-.59.4-1.3.63-1.3.63-.72.23-1.41.23-1.41.23-.82 0-1.526-.27-1.526-.27-.71-.27-1.23-.78-1.23-.78-.53-.51-.82-1.25-.82-1.25-.29-.74-.29-1.69-.29-1.69zm0 0zm4.926-.78c0-.66-.29-1.08-.29-1.08-.296-.42-.99-.42-.99-.42-.54 0-.946.36-.946.36-.41.36-.53 1.13-.53 1.13h2.75zm5.7 4.6zM596 4.11h2.26v3.86h3.466v-3.9H604v10.04h-2.28V9.92h-3.46v4.19h-2.27V4.06zm9.19 10.04zm.725-2.13c0-1.2 1.02-1.88 1.02-1.88 1.013-.68 3.28-.91 3.28-.91-.03-.51-.31-.81-.31-.81-.28-.3-.89-.3-.89-.3-.5 0-.99.19-.99.19-.5.18-1.05.51-1.05.51l-.8-1.5c.74-.44 1.54-.72 1.54-.72.81-.27 1.716-.27 1.716-.27 1.48 0 2.26.84 2.26.84.78.84.78 2.61.78 2.61v4.36h-1.85l-.17-.78h-.04c-.5.43-1.04.7-1.04.7-.55.27-1.2.27-1.2.27-.52 0-.94-.18-.94-.18-.41-.18-.7-.49-.7-.49-.29-.32-.45-.74-.45-.74-.16-.41-.16-.9-.16-.9zm0 0zm2.154-.17c0 .37.24.55.24.55.24.18.64.18.64.18.4 0 .68-.17.68-.17.27-.17.58-.48.58-.48v-1.34c-1.22.17-1.68.5-1.68.5-.46.32-.46.77-.46.77zm5.34 2.3zm1.34-2.29c.52.4 1 .6 1 .6.48.2.97.2.97.2.51 0 .74-.17.74-.17.23-.17.23-.47.23-.47 0-.18-.13-.33-.13-.33-.13-.15-.35-.27-.35-.27-.23-.12-.5-.22-.5-.22-.28-.1-.57-.22-.57-.22-.36-.14-.71-.32-.71-.32-.36-.183-.65-.453-.65-.453-.3-.27-.48-.63-.48-.63-.18-.36-.18-.84-.18-.84 0-.52.21-.97.21-.97.2-.45.59-.75.59-.75.39-.302.93-.48.93-.48.54-.18 1.2-.18 1.2-.18.87 0 1.54.3 1.54.3.66.3 1.15.67 1.15.67l-1.03 1.35c-.41-.31-.81-.48-.81-.48-.4-.17-.8-.17-.8-.17-.87 0-.87.6-.87.6 0 .18.12.32.12.32.12.13.33.24.33.24.21.1.48.2.48.2l.56.21c.37.14.73.317.73.317.37.18.67.44.67.44.3.27.48.64.48.64.18.38.18.9.18.9 0 .53-.2.97-.2.97-.2.45-.6.78-.6.78-.4.33-.99.53-.99.53-.59.19-1.36.19-1.36.19-.75 0-1.54-.29-1.54-.29-.79-.294-1.38-.77-1.38-.77zm5.48 2.3zm1-10.79h2.2v6.19h.06l2.42-3.03h2.47l-2.68 3.15 2.88 4.5h-2.45l-1.72-2.97-.97 1.09v1.88h-2.2V3.31zm7 10.8zm.55-3.82c0-.92.31-1.67.31-1.67.3-.75.81-1.26.81-1.26.5-.51 1.14-.79 1.14-.79.65-.27 1.34-.27 1.34-.27.82 0 1.422.28 1.422.28.61.28 1.01.77 1.01.77.41.49.61 1.16.61 1.16.2.67.2 1.45.2 1.45 0 .31-.03.57-.03.57-.03.26-.06.39-.06.39h-4.57c.15.88.68 1.27.68 1.27.53.39 1.3.39 1.3.39.82 0 1.65-.5 1.65-.5l.75 1.37c-.58.4-1.3.64-1.3.64-.716.23-1.41.23-1.41.23-.81 0-1.52-.27-1.52-.27-.71-.27-1.23-.79-1.23-.79-.53-.51-.82-1.25-.82-1.25-.29-.74-.29-1.7-.29-1.7zm0 0zm4.93-.78c0-.66-.3-1.08-.3-1.08-.29-.43-.99-.43-.99-.43-.54 0-.94.36-.94.36-.405.36-.53 1.13-.53 1.13h2.76zm2.49 4.6zm1-10.79h2.262v8.52c0 .36.13.5.13.5.13.14.27.14.27.14h.13l.15-.03.27 1.68c-.18.07-.47.13-.47.13-.28.05-.67.05-.67.05-.58 0-.98-.19-.98-.19-.4-.18-.64-.51-.64-.51-.24-.33-.348-.8-.348-.8-.11-.47-.11-1.06-.11-1.06V3.3zm3.402 10.8zm1-10.79h2.26v8.51c0 .36.13.49.13.49.13.14.27.14.27.14h.13l.15-.03.28 1.68c-.18.08-.47.13-.47.13-.28.06-.67.06-.67.06-.58 0-.98-.18-.98-.18-.4-.18-.64-.51-.64-.51-.23-.33-.34-.8-.34-.8-.11-.47-.11-1.06-.11-1.06V3.3zm6.6 10.8zm3.27.6V17h-2.26V6.46h1.842l.16.756h.06c.44-.4 1.01-.67 1.01-.67.56-.27 1.16-.27 1.16-.27.69 0 1.25.277 1.25.277.55.278.93.786.93.786.38.51.59 1.23.59 1.23.2.72.2 1.6.2 1.6 0 .99-.27 1.75-.27 1.75-.27.76-.725 1.3-.725 1.3-.46.53-1.03.81-1.03.81-.58.28-1.2.28-1.2.28-.49 0-.95-.21-.95-.21-.464-.21-.865-.6-.865-.6zm0 0zm0-2.76c.302.28.61.39.61.39.31.11.6.11.6.11.59 0 1.002-.53 1.002-.53.42-.53.42-1.71.42-1.71 0-2.07-1.32-2.07-1.32-2.07-.66 0-1.31.69-1.31.69V12zm5.56 2.16zm1-7.64h1.85l.15 1.34h.06c.414-.78 1-1.15 1-1.15.59-.37 1.17-.37 1.17-.37.323 0 .53.04.53.04.21.04.38.118.38.118l-.37 1.96c-.215-.07-.4-.1-.4-.1-.184-.03-.43-.03-.43-.03-.43 0-.9.306-.9.306-.47.31-.776 1.096-.776 1.096v4.42h-2.26v-7.7zm4.97 7.64zm.56-3.82c0-.95.302-1.7.302-1.7.31-.742.82-1.25.82-1.25.52-.51 1.192-.78 1.192-.78.68-.27 1.4-.27 1.4-.27.73 0 1.4.27 1.4.27.67.27 1.19.77 1.19.77.52.51.826 1.26.826 1.26.31.74.31 1.7.31 1.7 0 .95-.31 1.7-.31 1.7-.31.74-.82 1.25-.82 1.25-.51.5-1.18.77-1.18.77-.67.27-1.39.27-1.39.27-.73 0-1.4-.27-1.4-.27-.68-.27-1.2-.774-1.2-.774-.51-.51-.82-1.254-.82-1.254-.31-.75-.31-1.705-.31-1.705zm0 0zm2.32 0c0 1 .34 1.59.34 1.59.35.59 1.06.59 1.06.59.69 0 1.043-.59 1.043-.59.356-.58.356-1.58.356-1.58 0-1-.35-1.583-.35-1.583-.35-.58-1.04-.58-1.04-.58-.71 0-1.06.58-1.06.58-.345.588-.345 1.59-.345 1.59zm5.663 3.82zm1.016-7.64h2.27v7.59c0 .63-.13 1.18-.13 1.18-.13.56-.45.97-.45.97-.31.42-.84.67-.84.67-.52.245-1.303.245-1.303.245-.48 0-.794-.06-.794-.06-.31-.06-.543-.15-.543-.15l.4-1.667c.15.05.29.08.29.08.14.03.31.03.31.03.445 0 .62-.3.62-.3.18-.29.18-.94.18-.94v-7.7zm0 0zm1.14-1.12c-.57 0-.94-.33-.94-.33-.37-.33-.37-.853-.37-.853 0-.526.37-.85.37-.85.37-.323.94-.323.94-.323.57 0 .94.325.94.325.37.32.37.85.37.85 0 .52-.37.85-.37.85-.37.33-.94.33-.94.33zm2.13 8.76zm.556-3.82c0-.92.31-1.67.31-1.67.31-.743.81-1.26.81-1.26.5-.513 1.14-.79 1.14-.79.65-.28 1.34-.28 1.34-.28.82 0 1.426.28 1.426.28.61.28 1.02.77 1.02.77.41.49.61 1.16.61 1.16.2.67.2 1.46.2 1.46 0 .31-.03.56-.03.56-.03.25-.06.39-.06.39h-4.58c.15.88.68 1.27.68 1.27.53.395 1.3.395 1.3.395.82 0 1.65-.5 1.65-.5l.75 1.37c-.59.4-1.3.63-1.3.63-.72.23-1.41.23-1.41.23-.82 0-1.53-.27-1.53-.27-.71-.27-1.236-.785-1.236-.785-.52-.516-.81-1.255-.81-1.255-.3-.74-.3-1.696-.3-1.696zm0 0zm4.93-.78c0-.66-.29-1.08-.29-1.08-.3-.433-.99-.433-.99-.433-.54 0-.95.36-.95.36-.41.36-.53 1.13-.53 1.13h2.76zm2.49 4.59zm.56-3.82c0-.96.32-1.7.32-1.7.32-.75.87-1.26.87-1.26.55-.51 1.27-.78 1.27-.78.72-.27 1.51-.27 1.51-.27.71 0 1.28.24 1.28.24.57.24.95.64.95.64l-1.03 1.4c-.54-.442-1.06-.442-1.06-.442-.83 0-1.31.58-1.31.58-.48.58-.48 1.58-.48 1.58 0 1 .48 1.59.48 1.59.49.584 1.23.584 1.23.584.42 0 .76-.17.76-.17.34-.17.62-.384.62-.384l.91 1.43c-.55.49-1.23.72-1.23.72-.68.23-1.31.23-1.31.23-.8 0-1.487-.27-1.487-.27-.68-.27-1.19-.77-1.19-.77-.51-.51-.8-1.26-.8-1.26-.29-.75-.29-1.7-.29-1.7zm6.62 3.8zm1.31-5.87h-1.05v-1.7l1.17-.09.26-2.03h1.88V6.5h1.83v1.77h-1.836v3.07c0 .646.27.93.27.93.27.285.71.285.71.285.18 0 .37-.05.37-.05.197-.05.35-.11.35-.11l.357 1.65c-.31.09-.724.18-.724.18-.42.09-.97.09-.97.09-.71 0-1.21-.22-1.21-.22-.5-.22-.82-.6-.82-.6-.32-.39-.46-.94-.46-.94-.15-.55-.15-1.21-.15-1.21v-3.1zm4.59 5.87zm2.37-3.56c-.08-.53.04-.96.04-.96.112-.43.33-.8.33-.8.22-.37.483-.68.483-.68.27-.303.51-.59.51-.59.24-.283.4-.552.4-.552.16-.27.16-.563.16-.563 0-.48-.29-.724-.29-.724-.29-.25-.75-.25-.75-.25-.43 0-.76.2-.76.2-.34.2-.64.51-.64.51L697.52 5c.525-.63 1.233-1.016 1.233-1.016.708-.385 1.57-.385 1.57-.385.648 0 1.21.15 1.21.15.562.15.97.47.97.47.408.32.64.82.64.82.23.5.23 1.18.23 1.18 0 .47-.17.85-.17.85-.17.37-.423.7-.423.7-.254.32-.54.62-.54.62-.284.3-.522.62-.522.62-.24.32-.378.68-.378.68-.138.36-.092.82-.092.82h-1.987zm0 0zm-.37 2.32c0-.612.38-1.02.38-1.02.38-.41.97-.41.97-.41.58 0 .98.41.98.41.39.407.39 1.02.39 1.02 0 .6-.395 1.01-.395 1.01-.39.41-.98.41-.98.41-.59 0-.97-.41-.97-.41-.39-.41-.39-1.01-.39-1.01z"/><path fill="#5C3566" stroke="none" d="M846 394c0 184.463-149.537 334-334 334S178 578.463 178 394c0-58.19 15.203-115.37 44.102-165.877L512 394z"/><path fill="none" stroke="#FFF" stroke-opacity=".1" stroke-miterlimit="10" d="M846 394c0 184.463-149.537 334-334 334S178 578.463 178 394c0-58.19 15.203-115.37 44.102-165.877L512 394z" stroke-linejoin="bevel"/><path fill="none" stroke-miterlimit="10" d="M424.896 721.618l-3.855 14.497h-39.15"/><path stroke="none" d="M381.882 732.722zm2.058-2.668l-2.07-4.223h.936l.893 1.95.32.75c.15.37.33.76.33.76h.04c.17-.39.35-.75.35-.75.17-.36.33-.74.33-.74l.88-1.94h.91l-2.07 4.23v2.67h-.88v-2.67zm2.51 2.668zm.484-2.542c0-.63.194-1.13.194-1.13.195-.498.515-.845.515-.845.32-.347.73-.53.73-.53.41-.184.85-.184.85-.184.484 0 .868.17.868.17.39.17.64.49.64.49.26.32.4.76.4.76.14.44.14.99.14.99 0 .29-.03.48-.03.48h-3.44c.05.83.51 1.32.51 1.32.46.49 1.19.49 1.19.49.37 0 .68-.11.68-.11.31-.11.6-.29.6-.29l.31.57c-.33.21-.74.37-.74.37-.41.16-.93.16-.93.16-.51 0-.96-.18-.96-.18-.44-.18-.77-.52-.77-.52-.33-.35-.52-.84-.52-.84-.19-.49-.19-1.12-.19-1.12zm0 0zm3.572-.39c0-.787-.33-1.2-.33-1.2-.332-.416-.93-.416-.93-.416-.274 0-.52.11-.52.11-.248.11-.447.315-.447.315-.2.2-.34.5-.34.5-.13.3-.18.69-.18.69h2.73zm1.155 2.932zm.73-1.155c.34.273.69.44.69.44.35.17.82.17.82.17.51 0 .76-.232.76-.232.25-.23.25-.568.25-.568 0-.2-.1-.346-.1-.346-.1-.14-.26-.25-.26-.25-.16-.11-.37-.19-.37-.19l-.42-.17c-.27-.09-.54-.21-.54-.21-.27-.12-.49-.29-.49-.29-.22-.17-.35-.4-.35-.4-.14-.23-.14-.55-.14-.55 0-.3.12-.57.12-.57.12-.27.35-.46.35-.46.23-.19.55-.3.55-.3.33-.11.74-.11.74-.11.49 0 .89.17.89.17.4.17.7.41.7.41l-.41.55c-.26-.2-.54-.32-.54-.32-.28-.12-.62-.12-.62-.12-.48 0-.71.22-.71.22-.22.23-.22.52-.22.52 0 .18.1.31.1.31.1.13.25.23.25.23.16.1.36.18.36.18l.43.16c.28.11.55.23.55.23.28.12.5.29.5.29.22.18.37.43.37.43.14.26.14.61.14.61 0 .32-.12.59-.12.59-.12.27-.36.48-.36.48-.23.21-.59.33-.59.33-.35.12-.8.12-.8.12-.54 0-1.04-.2-1.04-.2-.49-.2-.86-.5-.86-.5zm3.68 1.155zm.69-4.317c0-.305.19-.49.19-.49.19-.182.45-.182.45-.182.25 0 .44.183.44.183.19.184.19.49.19.49 0 .282-.18.466-.18.466-.18.184-.43.184-.43.184-.26 0-.44-.184-.44-.184-.18-.184-.18-.467-.18-.467zm0 0zm0 3.792c0-.305.19-.49.19-.49.19-.182.45-.182.45-.182.25 0 .44.183.44.183.19.184.19.49.19.49 0 .282-.18.466-.18.466-.18.184-.43.184-.43.184-.26 0-.44-.184-.44-.184-.18-.184-.18-.467-.18-.467zm4.06.525zm1.86 0c.04-.945.17-1.733.17-1.733.13-.79.36-1.5.36-1.5.23-.71.58-1.37.58-1.37.35-.67.85-1.36.85-1.36h-3.34v-.75h4.32v.53c-.6.75-.97 1.45-.97 1.45-.37.69-.59 1.41-.59 1.41-.22.72-.32 1.52-.32 1.52-.1.8-.14 1.78-.14 1.78h-.89zm3.36 0zm2.62.126c-1.02 0-1.58-.903-1.58-.903-.56-.904-.56-2.595-.56-2.595 0-1.69.57-2.573.57-2.573.57-.883 1.59-.883 1.59-.883 1.01 0 1.58.883 1.58.883.57.882.57 2.573.57 2.573 0 1.69-.57 2.595-.57 2.595-.57.903-1.57.903-1.57.903zm0 0zm0-.693c.3 0 .53-.163.53-.163.24-.163.41-.504.41-.504.18-.342.27-.872.27-.872.1-.53.1-1.266.1-1.266 0-.735-.09-1.26-.09-1.26-.09-.526-.26-.856-.26-.856-.17-.33-.41-.49-.41-.49-.24-.156-.53-.156-.53-.156-.29 0-.54.157-.54.157-.24.158-.41.49-.41.49-.17.33-.26.855-.26.855-.1.525-.1 1.26-.1 1.26 0 1.47.36 2.138.36 2.138.37.667.95.667.95.667zm2.61.567zm1.21-1.796c0 .283.11.514.11.514.11.23.31.405.31.405.2.173.46.268.46.268.27.094.57.094.57.094.59 0 .95-.325.95-.325.37-.326.37-.85.37-.85 0-.327-.15-.558-.15-.558-.14-.23-.4-.404-.4-.404-.25-.174-.58-.315-.58-.315-.33-.142-.69-.29-.69-.29-.4.274-.66.636-.66.636-.26.37-.26.83-.26.83zm0 0zm1.89-1.86c.34-.304.52-.64.52-.64.19-.336.19-.704.19-.704 0-.504-.3-.846-.3-.846-.3-.34-.86-.34-.86-.34-.47 0-.78.293-.78.293-.3.29-.3.78-.3.78 0 .3.13.52.13.52.13.21.34.38.34.38.22.16.5.3.5.3.28.13.59.24.59.24zm0 0zm-2.66 1.944c0-.326.11-.604.11-.604.11-.28.29-.505.29-.505.17-.22.4-.39.4-.39.23-.17.47-.3.47-.3v-.04c-.37-.26-.65-.63-.65-.63-.28-.37-.28-.91-.28-.91 0-.39.15-.7.15-.7.15-.31.4-.54.4-.54.25-.22.6-.35.6-.35.35-.12.76-.12.76-.12.44 0 .79.13.79.13.35.14.6.37.6.37.25.24.38.57.38.57.13.33.13.72.13.72 0 .27-.09.51-.09.51-.09.24-.22.45-.22.45-.13.21-.29.38-.29.38-.16.17-.32.28-.32.28v.05c.22.13.43.29.43.29.21.16.37.37.37.37.16.2.26.47.26.47.1.26.1.6.1.6 0 .38-.15.7-.15.7-.15.33-.44.57-.44.57-.28.24-.68.38-.68.38-.4.14-.88.14-.88.14-.47 0-.88-.14-.88-.14-.4-.14-.69-.38-.69-.38-.29-.24-.45-.58-.45-.58-.17-.33-.17-.73-.17-.73z"/><path fill="#AD7FA8" stroke="none" d="M222.102 228.123c91.61-160.106 295.67-215.632 455.775-124.02C781.85 163.593 846 274.21 846 394H512z"/><path fill="none" stroke="#FFF" stroke-opacity=".1" stroke-miterlimit="10" d="M222.102 228.123c91.61-160.106 295.67-215.632 455.775-124.02C781.85 163.593 846 274.21 846 394H512z" stroke-linejoin="bevel"/><path fill="none" stroke-miterlimit="10" d="M599.105 66.382l3.854-14.497h36.5"/><path stroke="none" d="M607.96 48.492zm.944-6.89h.903l2.49 4.327.746 1.42h.042c-.032-.53-.07-1.09-.07-1.09-.035-.56-.035-1.11-.035-1.11V41.6h.83v6.89h-.904l-2.5-4.337-.746-1.418h-.042c.042.525.08 1.066.08 1.066.036.54.036 1.09.036 1.09v3.6h-.83V41.6zm5.85 6.89zm.484-2.542c0-.64.194-1.14.194-1.14.195-.498.52-.845.52-.845.326-.347.752-.525.752-.525.425-.18.898-.18.898-.18.472 0 .898.18.898.18.425.178.75.525.75.525.326.347.52.846.52.846.195.5.195 1.14.195 1.14 0 .63-.194 1.13-.194 1.13-.19.5-.52.84-.52.84-.32.34-.75.52-.75.52-.42.18-.89.18-.89.18-.47 0-.9-.18-.9-.18-.42-.18-.75-.52-.75-.52-.32-.34-.52-.84-.52-.84-.19-.5-.19-1.13-.19-1.13zm0 0zm.893 0c0 .44.11.8.11.8.11.356.3.613.3.613.2.257.47.4.47.4.28.14.6.14.6.14.33 0 .6-.14.6-.14.28-.143.47-.4.47-.4.2-.257.3-.614.3-.614.11-.36.11-.8.11-.8 0-.44-.1-.81-.1-.81-.1-.37-.3-.63-.3-.63-.19-.27-.47-.41-.47-.41-.27-.14-.6-.14-.6-.14-.32 0-.59.14-.59.14-.27.14-.47.4-.47.4-.19.26-.3.62-.3.62-.1.36-.1.8-.1.8zm4.32 2.542zm.69-4.317c0-.304.19-.488.19-.488.19-.184.45-.184.45-.184.26 0 .44.184.44.184.19.184.19.488.19.488 0 .284-.18.468-.18.468-.18.183-.43.183-.43.183-.26 0-.44-.184-.44-.184-.18-.183-.18-.467-.18-.467zm0 0zm0 3.792c0-.304.19-.488.19-.488.19-.19.45-.19.45-.19.26 0 .44.18.44.18.19.18.19.48.19.48 0 .28-.18.47-.18.47-.18.18-.43.18-.43.18-.26 0-.44-.19-.44-.19-.18-.19-.18-.47-.18-.47zm4.06.525zm.68-1.355c.3.305.7.536.7.536.41.23.99.23.99.23.31 0 .58-.11.58-.11.27-.11.47-.31.47-.31.2-.2.32-.482.32-.482.12-.28.12-.63.12-.63 0-.69-.39-1.08-.39-1.08-.38-.39-1.04-.39-1.04-.39-.34 0-.59.11-.59.11-.24.11-.55.31-.55.31l-.46-.29.22-3.22h3.35v.75H627l-.18 1.99c.243-.12.485-.2.485-.2.24-.07.55-.07.55-.07.43 0 .81.13.81.13.377.13.66.38.66.38.284.26.447.65.447.65.166.4.166.94.166.94 0 .55-.19.97-.19.97-.19.42-.506.71-.506.71-.32.29-.72.44-.72.44-.408.15-.85.15-.85.15-.4 0-.73-.08-.73-.08-.33-.08-.6-.2-.6-.2-.265-.12-.48-.29-.48-.29-.214-.16-.38-.34-.38-.34zm4.54 1.355zm2.62.126c-1.02 0-1.58-.903-1.58-.903-.57-.903-.57-2.595-.57-2.595 0-1.69.57-2.573.57-2.573.57-.882 1.59-.882 1.59-.882 1.01 0 1.58.882 1.58.882.57.882.57 2.574.57 2.574 0 1.7-.57 2.6-.57 2.6-.57.91-1.57.91-1.57.91zm0 0zm0-.693c.3 0 .53-.163.53-.163.24-.162.41-.504.41-.504.18-.34.27-.872.27-.872.1-.53.1-1.265.1-1.265 0-.73-.09-1.26-.09-1.26-.09-.52-.26-.85-.26-.85-.17-.33-.41-.49-.41-.49-.24-.16-.53-.16-.53-.16-.29 0-.54.16-.54.16-.24.16-.41.49-.41.49-.17.33-.26.86-.26.86-.1.53-.1 1.26-.1 1.26 0 1.47.36 2.14.36 2.14.36.67.95.67.95.67zm2.61.567zm1.86 0c.04-.945.17-1.733.17-1.733.13-.79.36-1.5.36-1.5.23-.71.58-1.37.58-1.37.35-.66.85-1.36.85-1.36h-3.34v-.75h4.32v.53c-.6.75-.97 1.45-.97 1.45-.37.69-.59 1.41-.59 1.41-.22.71-.32 1.52-.32 1.52-.1.8-.14 1.78-.14 1.78h-.9z"/></svg>