<svg xmlns="http://www.w3.org/2000/svg" stroke="#000" viewBox="0 0 1024 768" font-size="1"><path fill="#FFF" stroke="none" d="M0 0v768h1024V0z"/><path stroke="none" d="M318.47 14.102zm1.187-10.04h2.264V14.1h-2.26V4.062zm6.653 10.04zm5.313-9.04c-.43-.154-.786-.154-.786-.154-.415 0-.646.254-.646.254-.23.254-.23.84-.23.84v.46h1.37v1.772h-1.37v5.868h-2.26V8.234h-1.01v-1.68l1.02-.076v-.415c0-.6.15-1.14.15-1.14.15-.54.49-.94.49-.94.34-.4.88-.63.88-.63.54-.232 1.31-.232 1.31-.232.48 0 .87.1.87.1.39.09.65.19.65.19zm-.062 9.04zm2.13-8.763c-.57 0-.94-.34-.94-.34-.37-.33-.37-.86-.37-.86 0-.53.37-.85.37-.85.37-.33.94-.33.94-.33.59 0 .95.32.95.32.36.32.36.84.36.84 0 .52-.36.85-.36.85-.36.33-.94.33-.94.33zm0 0zm-1.12 1.12h2.27v7.64h-2.26V6.46zm3.25 7.64zm1-7.64h1.85l.16.97h.06c.5-.46 1.08-.81 1.08-.81.59-.35 1.37-.35 1.37-.35 1.25 0 1.81.81 1.81.81.56.81.56 2.26.56 2.26v4.75h-2.26V9.65c0-.832-.22-1.14-.22-1.14-.22-.31-.71-.31-.71-.31-.43 0-.74.195-.74.195-.3.192-.67.547-.67.547v5.16h-2.26v-7.64zm7.81 7.64zm.6-3.82c0-.94.27-1.68.27-1.68.27-.74.71-1.26.71-1.26.44-.52 1.02-.8 1.02-.8.58-.28 1.18-.28 1.18-.28.65 0 1.07.21 1.07.21.42.21.82.58.82.58l-.09-1.17V3.3h2.27v10.8h-1.85l-.15-.754h-.06c-.4.4-.94.67-.94.67-.53.27-1.09.27-1.09.27-.71 0-1.28-.278-1.28-.278-.58-.278-.98-.794-.98-.794-.4-.516-.63-1.255-.63-1.255-.22-.74-.22-1.68-.22-1.68zm0 0zm2.33-.03c0 1.14.36 1.66.36 1.66.36.52 1.03.52 1.03.52.37 0 .67-.16.67-.16.3-.16.58-.54.58-.54V8.62c-.3-.278-.63-.386-.63-.386-.32-.108-.63-.108-.63-.108-.54 0-.95.516-.95.516-.41.516-.41 1.61-.41 1.61zm9.1 3.85zm1.31-5.87h-1.04V6.55l1.17-.092.27-2.032h1.88V6.46h1.83v1.77h-1.83v3.07c0 .646.27.93.27.93.27.285.72.285.72.285.19 0 .38-.046.38-.046.2-.05.35-.11.35-.11l.36 1.65c-.31.09-.72.18-.72.18-.42.09-.97.09-.97.09-.71 0-1.21-.22-1.21-.22-.5-.22-.82-.6-.82-.6-.31-.39-.46-.94-.46-.94-.14-.55-.14-1.21-.14-1.21V8.23zm4.59 5.87zm1-10.8h2.27v2.65l-.11 1.37c.43-.39 1-.72 1-.72.57-.33 1.36-.33 1.36-.33 1.25 0 1.81.81 1.81.81.57.81.57 2.26.57 2.26v4.75h-2.26V9.65c0-.833-.22-1.14-.22-1.14-.22-.31-.71-.31-.71-.31-.43 0-.74.194-.74.194-.3.192-.67.547-.67.547v5.16h-2.26V3.31zm7.79 10.79zm.73-2.13c0-1.2 1.02-1.88 1.02-1.88 1.02-.68 3.28-.91 3.28-.91-.03-.51-.3-.81-.3-.81-.28-.3-.89-.3-.89-.3-.49 0-.98.18-.98.18-.49.18-1.05.5-1.05.5l-.8-1.49c.74-.45 1.55-.73 1.55-.73.81-.28 1.72-.28 1.72-.28 1.48 0 2.26.84 2.26.84.78.84.78 2.61.78 2.61v4.38h-1.85l-.17-.79h-.04c-.49.43-1.03.7-1.03.7-.54.27-1.19.27-1.19.27-.52 0-.94-.18-.94-.18-.41-.18-.7-.49-.7-.49-.29-.32-.46-.73-.46-.73-.16-.41-.16-.9-.16-.9zm0 0zm2.16-.17c0 .37.24.55.24.55.24.17.64.17.64.17.4 0 .68-.17.68-.17.28-.17.59-.48.59-.48v-1.34c-1.22.17-1.68.49-1.68.49-.46.32-.46.77-.46.77zm5.35 2.29zm1.31-5.87h-1.05V6.55l1.17-.09.26-2.033h1.88v2.03h1.83v1.77h-1.83v3.07c0 .646.27.93.27.93.27.285.72.285.72.285.18 0 .38-.046.38-.046.2-.05.35-.11.35-.11l.36 1.65c-.31.09-.72.18-.72.18-.41.093-.97.093-.97.093-.71 0-1.21-.22-1.21-.22-.5-.22-.81-.6-.81-.6-.31-.39-.46-.94-.46-.94-.15-.55-.15-1.21-.15-1.21V8.23zm7.79 5.87zm1.19-10.04h2.26v3.87h3.47V4.06h2.28v10.042h-2.28v-4.19h-3.46v4.19h-2.26V4.062zm9.19 10.04zm.73-2.13c0-1.2 1.02-1.88 1.02-1.88 1.02-.68 3.28-.91 3.28-.91-.03-.51-.31-.81-.31-.81-.28-.3-.89-.3-.89-.3-.49 0-.98.18-.98.18-.49.18-1.04.51-1.04.51l-.8-1.49c.74-.45 1.55-.73 1.55-.73.81-.28 1.71-.28 1.71-.28 1.48 0 2.26.84 2.26.84.78.84.78 2.61.78 2.61v4.38h-1.85l-.17-.79h-.04c-.49.43-1.04.7-1.04.7-.55.27-1.19.27-1.19.27-.52 0-.94-.18-.94-.18-.41-.18-.71-.5-.71-.5-.29-.32-.45-.73-.45-.73-.16-.41-.16-.9-.16-.9zm0 0zm2.16-.17c0 .37.24.55.24.55.24.17.64.17.64.17.4 0 .68-.17.68-.17.28-.17.59-.48.59-.48v-1.34c-1.22.17-1.68.49-1.68.49-.46.32-.46.77-.46.77zm5.34 2.29zm1.34-2.29c.52.4 1 .6 1 .6.48.2.97.2.97.2.51 0 .74-.17.74-.17.23-.17.23-.48.23-.48 0-.19-.13-.33-.13-.33-.13-.15-.35-.27-.35-.27-.22-.13-.5-.23-.5-.23-.27-.1-.57-.23-.57-.23-.35-.14-.71-.32-.71-.32-.35-.19-.64-.46-.64-.46-.29-.27-.47-.63-.47-.63-.18-.37-.18-.84-.18-.84 0-.53.21-.97.21-.97.21-.45.6-.76.6-.76.38-.31.92-.49.92-.49.54-.18 1.2-.18 1.2-.18.88 0 1.54.3 1.54.3.66.3 1.16.67 1.16.67l-1.02 1.35c-.41-.31-.81-.48-.81-.48-.4-.17-.8-.17-.8-.17-.86 0-.86.6-.86.6 0 .18.12.31.12.31.13.13.33.24.33.24.21.1.48.2.48.2l.56.21c.37.14.74.32.74.32.36.18.66.44.66.44.3.26.49.64.49.64.19.37.19.9.19.9 0 .52-.2.97-.2.97-.2.44-.6.77-.6.77-.4.33-.98.53-.98.53-.58.19-1.35.19-1.35.19-.75 0-1.55-.29-1.55-.29-.79-.296-1.37-.77-1.37-.77zm5.48 2.29zm1-10.8h2.21v6.2h.06l2.42-3.04h2.46l-2.69 3.15 2.88 4.49H420l-1.725-2.97-.97 1.09v1.88h-2.2V3.3zm7 10.79zm.56-3.82c0-.92.31-1.67.31-1.67.31-.75.81-1.26.81-1.26.5-.52 1.15-.8 1.15-.8.64-.28 1.34-.28 1.34-.28.81 0 1.42.28 1.42.28.61.27 1.02.77 1.02.77.41.49.61 1.16.61 1.16.2.67.2 1.45.2 1.45 0 .31-.03.57-.03.57-.03.25-.06.39-.06.39h-4.57c.16.88.69 1.27.69 1.27.53.39 1.3.39 1.3.39.82 0 1.65-.51 1.65-.51l.76 1.37c-.58.4-1.3.63-1.3.63-.72.23-1.41.23-1.41.23-.81 0-1.52-.27-1.52-.27-.7-.27-1.23-.79-1.23-.79-.52-.52-.81-1.25-.81-1.25-.29-.74-.29-1.7-.29-1.7zm0 0zm4.93-.78c0-.66-.29-1.08-.29-1.08-.3-.4-.99-.4-.99-.4-.54 0-.94.36-.94.36-.41.36-.53 1.13-.53 1.13h2.76zm2.49 4.61zm1-10.79h2.27v8.52c0 .35.13.49.13.49.13.14.27.14.27.14h.13l.15-.03.28 1.68c-.19.07-.47.13-.47.13-.28.05-.67.05-.67.05-.59 0-.99-.19-.99-.19-.4-.19-.64-.52-.64-.52-.23-.33-.34-.8-.34-.8-.1-.47-.1-1.06-.1-1.06V3.3zm3.41 10.8zm1-10.8h2.27v8.52c0 .35.13.49.13.49.13.14.27.14.27.14h.13l.15-.04.27 1.68c-.18.08-.47.13-.47.13-.28.05-.67.05-.67.05-.58 0-.98-.18-.98-.18-.4-.18-.64-.51-.64-.51-.24-.33-.35-.8-.35-.8-.1-.47-.1-1.06-.1-1.06V3.3zm6.61 10.79zm1-10.79h2.27v8.52c0 .36.13.5.13.5.13.14.27.14.27.14h.13l.15-.03.28 1.68c-.18.07-.47.13-.47.13-.28.05-.67.05-.67.05-.58 0-.98-.18-.98-.18-.4-.19-.64-.52-.64-.52-.23-.33-.34-.8-.34-.8-.11-.47-.11-1.06-.11-1.06v-8.4zm3.41 10.79zm2.13-8.76c-.57 0-.94-.33-.94-.33-.37-.33-.37-.86-.37-.86 0-.53.37-.85.37-.85.37-.33.94-.33.94-.33.59 0 .95.32.95.32.36.32.36.85.36.85 0 .53-.37.86-.37.86-.36.33-.94.33-.94.33zm0 0zm-1.16 1.15h2.27v7.64h-2.27V6.46zm3.25 7.64zm1-10.8h2.27v2.65l-.06 1.17c.45-.4.97-.63.97-.63.52-.22 1.06-.22 1.06-.22.7 0 1.25.28 1.25.28.56.28.95.78.95.78.4.5.6 1.22.6 1.22.21.72.21 1.6.21 1.6 0 .99-.27 1.76-.27 1.76-.27.77-.72 1.3-.72 1.3-.45.53-1.03.81-1.03.81-.57.28-1.19.28-1.19.28-.5 0-1.02-.24-1.02-.24-.51-.25-.96-.74-.96-.74h-.06l-.18.8h-1.77V3.3zm0 0zm2.27 8.64c.31.28.62.38.62.38.31.11.6.11.6.11.59 0 1-.53 1-.53.42-.53.42-1.72.42-1.72 0-2.07-1.32-2.07-1.32-2.07-.68 0-1.31.69-1.31.69v3.12zm5.56 2.15zm1-7.64h1.85l.16 1.34h.06c.41-.78 1-1.15 1-1.15.58-.37 1.17-.37 1.17-.37.32 0 .53.04.53.04.2.04.37.11.37.11l-.37 1.96c-.22-.06-.4-.09-.4-.09-.19-.03-.43-.03-.43-.03-.44 0-.9.31-.9.31-.47.31-.78 1.1-.78 1.1v4.43h-2.27V6.46zm4.69 7.64zm.72-2.12c0-1.2 1.02-1.88 1.02-1.88 1.01-.67 3.28-.9 3.28-.9-.03-.51-.31-.81-.31-.81-.28-.3-.9-.3-.9-.3-.49 0-.98.18-.98.18-.49.19-1.04.51-1.04.51l-.8-1.49c.74-.45 1.54-.72 1.54-.72.8-.27 1.71-.27 1.71-.27 1.48 0 2.26.84 2.26.84.77.84.77 2.61.77 2.61v4.37h-1.85l-.17-.78h-.05c-.49.43-1.04.7-1.04.7-.55.27-1.19.27-1.19.27-.53 0-.94-.18-.94-.18-.42-.17-.71-.49-.71-.49-.29-.31-.46-.73-.46-.73-.16-.41-.16-.9-.16-.9zm0 0zm2.16-.17c0 .37.24.55.24.55.23.18.64.18.64.18.4 0 .67-.17.67-.17.27-.17.58-.47.58-.47v-1.34c-1.22.17-1.68.5-1.68.5-.47.32-.47.77-.47.77zm5.34 2.3zm1-7.64h1.85l.15 1.34h.06c.41-.78 1-1.15 1-1.15.58-.37 1.17-.37 1.17-.37.32 0 .53.04.53.04.21.04.38.12.38.12l-.37 1.96c-.22-.06-.4-.09-.4-.09-.19-.03-.43-.03-.43-.03-.44 0-.91.31-.91.31-.47.31-.78 1.1-.78 1.1v4.43h-2.27V6.46zm5.13 7.64zm2.12-8.76c-.57 0-.94-.33-.94-.33-.36-.33-.36-.85-.36-.85 0-.52.37-.84.37-.84.37-.32.94-.32.94-.32.58 0 .94.33.94.33.36.33.36.85.36.85 0 .52-.36.85-.36.85-.37.33-.95.33-.95.33zm0 0zm-1.12 1.12h2.27v7.64h-2.27V6.46zm3.25 7.64zm.56-3.82c0-.92.31-1.67.31-1.67.3-.75.81-1.26.81-1.26.5-.52 1.14-.8 1.14-.8.64-.27 1.34-.27 1.34-.27.81 0 1.42.28 1.42.28.61.28 1.02.77 1.02.77.41.5.61 1.17.61 1.17.2.67.2 1.46.2 1.46 0 .31-.03.57-.03.57-.03.25-.07.39-.07.39h-4.58c.15.88.68 1.27.68 1.27.53.39 1.3.39 1.3.39.82 0 1.65-.51 1.65-.51l.75 1.37c-.59.4-1.3.64-1.3.64-.72.23-1.41.23-1.41.23-.82 0-1.53-.27-1.53-.27-.71-.27-1.23-.79-1.23-.79-.52-.51-.81-1.25-.81-1.25-.29-.74-.29-1.7-.29-1.7zm0 0zm4.93-.78c0-.66-.3-1.07-.3-1.07-.3-.42-.99-.42-.99-.42-.54 0-.95.36-.95.36-.41.36-.53 1.13-.53 1.13h2.75zm2.49 4.61zm1.34-2.29c.52.4 1 .6 1 .6.48.2.97.2.97.2.51 0 .74-.17.74-.17.23-.17.23-.47.23-.47 0-.18-.13-.33-.13-.33-.13-.14-.36-.27-.36-.27-.22-.12-.5-.22-.5-.22-.28-.1-.57-.22-.57-.22-.36-.14-.71-.32-.71-.32-.35-.18-.65-.45-.65-.45-.3-.27-.48-.63-.48-.63-.19-.36-.19-.84-.19-.84 0-.53.21-.97.21-.97.21-.45.59-.76.59-.76.38-.31.92-.49.92-.49.54-.18 1.2-.18 1.2-.18.88 0 1.54.3 1.54.3.66.3 1.16.67 1.16.67l-1.02 1.35c-.41-.31-.81-.48-.81-.48-.4-.17-.8-.17-.8-.17-.86 0-.86.6-.86.6 0 .19.13.32.13.32.13.13.33.24.33.24.21.1.48.2.48.2l.56.2c.37.14.73.31.73.31.36.18.66.44.66.44.3.26.49.64.49.64.18.38.18.9.18.9 0 .52-.2.97-.2.97-.2.45-.6.78-.6.78-.4.33-.98.52-.98.52-.59.19-1.36.19-1.36.19-.75 0-1.55-.29-1.55-.29-.79-.3-1.37-.77-1.37-.77zm8.68 2.3zm.37-7.64h2.25l.73 3.54c.09.57.17 1.13.17 1.13.07.56.17 1.14.17 1.14h.06c.11-.58.21-1.15.21-1.15.1-.57.24-1.11.24-1.11l.84-3.54h1.96l.86 3.54c.14.57.24 1.12.24 1.12l.23 1.14h.06c.11-.59.18-1.14.18-1.14.07-.55.18-1.12.18-1.12l.72-3.54h2.1l-1.83 7.64h-2.65l-.69-3.05c-.12-.54-.22-1.08-.22-1.08l-.2-1.15h-.06L507.6 10c-.09.54-.2 1.08-.2 1.08l-.68 3.05h-2.58zm11.45 7.64zm.55-3.82c0-.95.31-1.7.31-1.7.31-.75.82-1.26.82-1.26.52-.5 1.19-.77 1.19-.77.68-.27 1.4-.27 1.4-.27.72 0 1.39.27 1.39.27.67.27 1.19.77 1.19.77.52.51.83 1.25.83 1.25.31.75.31 1.7.31 1.7 0 .96-.31 1.7-.31 1.7-.31.75-.82 1.26-.82 1.26-.51.51-1.18.78-1.18.78-.67.27-1.4.27-1.4.27-.72 0-1.4-.27-1.4-.27-.68-.27-1.19-.78-1.19-.78-.52-.51-.83-1.25-.83-1.25-.31-.75-.31-1.7-.31-1.7zm0 0zm2.33 0c0 1 .35 1.59.35 1.59.34.58 1.05.58 1.05.58.69 0 1.05-.58 1.05-.58.35-.59.35-1.59.35-1.59 0-1-.36-1.59-.36-1.59-.35-.59-1.05-.59-1.05-.59-.71 0-1.05.59-1.05.59-.35.58-.35 1.58-.35 1.58zm5.67 3.82zm1-7.64h1.85l.15 1.34h.06c.41-.78 1-1.15 1-1.15.58-.37 1.17-.37 1.17-.37.32 0 .53.04.53.04.21.03.38.11.38.11L528 8.41c-.212-.06-.4-.09-.4-.09-.182-.03-.43-.03-.43-.03-.43 0-.9.31-.9.31-.47.31-.78 1.09-.78 1.09v4.44h-2.26V6.46zm5.13 7.64zm1-10.8h2.2V9.5h.06l2.41-3.03h2.46l-2.68 3.14 2.88 4.496h-2.45l-1.72-2.973-.97 1.097v1.88h-2.2V3.31zM540 14.13zm.37-7.64h2.244l.74 3.54c.09.57.17 1.125.17 1.125.076.553.17 1.14.17 1.14h.06c.11-.587.21-1.157.21-1.157.1-.57.24-1.11.24-1.11l.85-3.54h1.954L547.9 10c.14.57.244 1.124.244 1.124.107.555.23 1.14.23 1.14h.06c.107-.585.176-1.14.176-1.14.07-.554.18-1.124.18-1.124l.723-3.544h2.092l-1.834 7.64h-2.65l-.69-3.05c-.12-.54-.21-1.08-.21-1.08L546 8.81h-.063c-.11.616-.194 1.155-.194 1.155-.084.54-.192 1.078-.192 1.078l-.67 3.05h-2.58zm11.453 7.64zm.552-3.82c0-.926.304-1.67.304-1.67.31-.75.81-1.265.81-1.265.5-.52 1.14-.796 1.14-.796.65-.28 1.34-.28 1.34-.28.82 0 1.42.27 1.42.27.6.27 1.01.77 1.01.77.41.49.61 1.16.61 1.16.2.67.2 1.45.2 1.45 0 .31-.03.56-.03.56-.03.25-.06.39-.06.39h-4.58c.15.88.68 1.27.68 1.27.53.39 1.3.39 1.3.39.82 0 1.65-.51 1.65-.51l.75 1.37c-.59.4-1.3.63-1.3.63-.72.23-1.41.23-1.41.23-.82 0-1.53-.27-1.53-.27-.71-.27-1.23-.79-1.23-.79-.52-.51-.81-1.25-.81-1.25-.3-.74-.3-1.7-.3-1.7zm0 0zm4.924-.787c0-.664-.29-1.08-.29-1.08-.3-.42-.99-.42-.99-.42-.54 0-.95.36-.95.36-.41.364-.53 1.134-.53 1.134h2.76zm2.49 4.603zm1-10.8h2.26v8.52c0 .355.13.493.13.493.13.14.27.14.27.14h.13l.14-.03.28 1.68c-.19.08-.47.13-.47.13-.29.05-.67.05-.67.05-.59 0-.99-.19-.99-.19-.4-.19-.64-.52-.64-.52-.23-.33-.34-.8-.34-.8-.11-.47-.11-1.06-.11-1.06V3.3zm3.4 10.8zm1-10.796h2.26v8.514c0 .355.13.49.13.49.13.14.27.14.27.14h.13l.15-.03.28 1.68c-.19.077-.47.13-.47.13-.29.054-.67.054-.67.054-.59 0-.99-.18-.99-.18-.4-.184-.64-.515-.64-.515-.24-.33-.35-.8-.35-.8-.11-.47-.11-1.06-.11-1.06V3.3zm6.6 10.8zm.37-7.64h2.25l.74 3.54c.09.57.17 1.122.17 1.122.07.553.17 1.14.17 1.14h.06l.2-1.157c.1-.57.24-1.11.24-1.11l.85-3.54h1.95l.86 3.54c.14.57.25 1.12.25 1.12.1.56.23 1.14.23 1.14h.06c.11-.58.18-1.14.18-1.14.07-.55.17-1.12.17-1.12l.72-3.54h2.09l-1.83 7.64h-2.64l-.7-3.05c-.12-.54-.22-1.08-.22-1.08l-.2-1.152h-.06c-.11.62-.19 1.158-.19 1.158-.09.54-.19 1.08-.19 1.08l-.68 3.05h-2.59zm11.58 7.64zm2.12-8.76c-.57 0-.94-.335-.94-.335-.37-.33-.37-.855-.37-.855 0-.524.37-.85.37-.85.37-.32.94-.32.94-.32.58 0 .95.32.95.32.36.32.36.846.36.846 0 .526-.36.857-.36.857-.36.33-.95.33-.95.33zm0 0zm-1.12 1.12H587v7.64h-2.26V6.46zm3.25 7.64zm1.3-5.87h-1.04v-1.7l1.17-.094.26-2.032h1.88v2.03h1.83v1.77h-1.84v3.07c0 .646.27.93.27.93.27.285.71.285.71.285.19 0 .38-.05.38-.05.19-.05.35-.11.35-.11l.35 1.65c-.31.09-.72.18-.72.18-.41.09-.97.09-.97.09-.71 0-1.21-.22-1.21-.22-.5-.22-.81-.6-.81-.6-.32-.39-.46-.93-.46-.93-.15-.55-.15-1.21-.15-1.21V8.23zm4.59 5.87zm1-10.8h2.26v2.65l-.11 1.37c.43-.387 1-.718 1-.718.57-.336 1.35-.336 1.35-.336 1.24 0 1.81.82 1.81.82.56.813.56 2.26.56 2.26v4.75h-2.26V9.65c0-.832-.22-1.14-.22-1.14-.23-.31-.72-.31-.72-.31-.43 0-.74.195-.74.195-.31.192-.68.547-.68.547v5.16h-2.26V3.305zm10.99 10.8zm.55-3.82c0-.957.31-1.7.31-1.7.31-.75.83-1.26.83-1.26.52-.5 1.2-.77 1.2-.77.67-.27 1.4-.27 1.4-.27.72 0 1.39.27 1.39.27.67.27 1.18.776 1.18.776.52.51.82 1.26.82 1.26.31.747.31 1.7.31 1.7 0 .96-.31 1.707-.31 1.707-.31.75-.83 1.258-.83 1.258-.52.51-1.19.78-1.19.78-.67.27-1.39.27-1.39.27-.72 0-1.4-.27-1.4-.27-.68-.27-1.196-.78-1.196-.78-.514-.51-.82-1.25-.82-1.25-.304-.74-.304-1.7-.304-1.7zm0 0zm2.33 0c0 1 .34 1.584.34 1.584.34.59 1.05.59 1.05.59.69 0 1.04-.58 1.04-.58.35-.588.35-1.59.35-1.59 0-1-.36-1.586-.36-1.586-.36-.584-1.05-.584-1.05-.584-.71 0-1.06.59-1.06.59-.34.587-.34 1.59-.34 1.59zm5.66 3.82zm1.31-5.87h-1.05v-1.7l1.17-.09.26-2.033h1.9v2.03h1.83v1.77H618v3.07c0 .647.27.93.27.93.27.286.71.286.71.286.19 0 .38-.045.38-.045.19-.05.348-.11.348-.11l.354 1.65c-.31.09-.726.18-.726.18-.42.09-.97.09-.97.09-.71 0-1.21-.22-1.21-.22-.5-.22-.82-.6-.82-.6-.316-.39-.46-.94-.46-.94-.14-.55-.14-1.21-.14-1.21V8.23zm4.59 5.87zm1-10.798h2.27v2.65l-.11 1.37c.43-.39 1-.72 1-.72.57-.335 1.35-.335 1.35-.335 1.25 0 1.81.814 1.81.814.56.81.56 2.26.56 2.26v4.75h-2.27V9.65c0-.832-.23-1.14-.23-1.14-.22-.31-.71-.31-.71-.31-.43 0-.74.195-.74.195-.31.192-.68.547-.68.547v5.16h-2.26V3.305zm7.79 10.792zm.55-3.82c0-.93.31-1.67.31-1.67.31-.75.81-1.27.81-1.27.5-.513 1.14-.79 1.14-.79.65-.28 1.34-.28 1.34-.28.82 0 1.43.28 1.43.28.61.28 1.01.77 1.01.77.41.49.61 1.16.61 1.16.2.67.2 1.46.2 1.46 0 .305-.03.56-.03.56-.03.256-.06.39-.06.39h-4.57c.15.88.68 1.27.68 1.27.53.397 1.3.397 1.3.397.82 0 1.65-.51 1.65-.51l.76 1.37c-.59.4-1.3.63-1.3.63-.715.23-1.41.23-1.41.23-.814 0-1.52-.27-1.52-.27-.71-.27-1.235-.78-1.235-.78-.53-.51-.82-1.25-.82-1.25-.29-.74-.29-1.69-.29-1.69zm0 0zm4.93-.79c0-.663-.29-1.08-.29-1.08-.3-.413-.99-.413-.99-.413-.54 0-.95.36-.95.36-.41.36-.53 1.13-.53 1.13h2.75zm2.49 4.604zm1-7.64h1.9l.152 1.34h.06c.415-.79 1-1.16 1-1.16.58-.37 1.17-.37 1.17-.37.32 0 .53.04.53.04.21.04.38.114.38.114l-.37 1.955c-.22-.06-.4-.09-.4-.09-.19-.03-.436-.03-.436-.03-.43 0-.9.308-.9.308-.47.31-.78 1.095-.78 1.095v4.44h-2.26V6.46zm8.335 7.64zm1-10.8h2.264v8.51c0 .35.13.49.13.49.13.14.27.14.27.14h.13l.15-.034.274 1.68c-.18.075-.47.13-.47.13-.28.052-.67.052-.67.052-.58 0-.98-.18-.98-.18-.4-.185-.64-.52-.64-.52-.23-.33-.34-.8-.34-.8-.11-.47-.11-1.06-.11-1.06V3.3zm3.404 10.8zM653 5.33c-.57 0-.94-.335-.94-.335-.37-.33-.37-.854-.37-.854 0-.52.37-.85.37-.85.37-.32.94-.32.94-.32.586 0 .948.33.948.33.36.32.36.85.36.85 0 .53-.36.86-.36.86-.36.33-.946.33-.946.33zm0 0zm-1.135 1.13h2.263v7.64h-2.265V6.46zm3.25 7.64zm1-10.8h2.264v2.65l-.07 1.17c.45-.4.96-.623.96-.623.51-.23 1.05-.23 1.05-.23.69 0 1.25.272 1.25.272.55.28.94.78.94.78.39.5.6 1.22.6 1.22.2.71.2 1.59.2 1.59 0 .98-.27 1.75-.27 1.75-.27.77-.72 1.3-.72 1.3-.46.53-1.04.81-1.04.81-.58.27-1.2.27-1.2.27-.51 0-1.03-.25-1.03-.25-.52-.25-.97-.74-.97-.74h-.06l-.19.8h-1.77V3.31zm0 0zm2.264 8.64c.3.278.61.386.61.386.31.108.6.108.6.108.59 0 1-.53 1-.53.42-.532.42-1.718.42-1.718 0-2.064-1.32-2.064-1.32-2.064-.68 0-1.31.694-1.31.694v3.125zm5.56 2.157zm1-7.64h1.85l.15 1.34h.06c.41-.79 1-1.16 1-1.16.58-.37 1.17-.37 1.17-.37.32 0 .53.04.53.04.2.032.37.11.37.11l-.37 1.956c-.22-.06-.4-.09-.4-.09-.19-.03-.43-.03-.43-.03-.44 0-.91.305-.91.305-.47.31-.78 1.1-.78 1.1v4.44h-2.26V6.46zm4.68 7.64zm.72-2.13c0-1.2 1.01-1.88 1.01-1.88 1.01-.68 3.28-.91 3.28-.91-.03-.51-.31-.81-.31-.81-.27-.3-.89-.3-.89-.3-.49 0-.98.18-.98.18-.49.187-1.05.51-1.05.51l-.8-1.493c.74-.45 1.55-.727 1.55-.727.81-.274 1.71-.274 1.71-.274 1.48 0 2.26.84 2.26.84.78.84.78 2.61.78 2.61v4.38h-1.85l-.17-.788h-.05c-.49.433-1.04.7-1.04.7-.55.27-1.19.27-1.19.27-.53 0-.94-.176-.94-.176-.42-.18-.71-.5-.71-.5-.3-.32-.46-.73-.46-.73-.16-.41-.16-.9-.16-.9zm0 0zm2.15-.17c0 .37.24.55.24.55.24.17.64.17.64.17.4 0 .67-.17.67-.17.28-.17.58-.477.58-.477v-1.34c-1.22.17-1.68.494-1.68.494-.46.323-.46.77-.46.77zm5.34 2.29zm1-7.64h1.85l.15 1.34h.06c.42-.785 1-1.154 1-1.154.58-.37 1.17-.37 1.17-.37.32 0 .53.04.53.04.21.036.37.113.37.113l-.37 1.96c-.22-.066-.4-.096-.4-.096-.19-.03-.43-.03-.43-.03-.43 0-.9.31-.9.31-.47.31-.78 1.092-.78 1.092v4.44h-2.27V6.46zm5.13 7.64zm2.12-8.76c-.57 0-.94-.33-.94-.33-.37-.33-.37-.858-.37-.858 0-.52.37-.84.37-.84.37-.32.94-.32.94-.32.58 0 .94.32.94.32.36.32.36.84.36.84 0 .52-.36.85-.36.85-.36.33-.95.33-.95.33zm0 0zm-1.13 1.12h2.26v7.64h-2.26V6.46zm3.25 7.64zm.55-3.82c0-.92.31-1.67.31-1.67.31-.745.81-1.26.81-1.26.5-.517 1.15-.795 1.15-.795.65-.278 1.34-.278 1.34-.278.82 0 1.43.277 1.43.277.61.28 1.02.77 1.02.77.41.5.61 1.17.61 1.17.2.67.2 1.45.2 1.45 0 .31-.03.56-.03.56-.03.25-.06.39-.06.39h-4.57c.15.88.68 1.27.68 1.27.53.4 1.3.4 1.3.4.81 0 1.65-.5 1.65-.5l.75 1.37c-.59.4-1.31.64-1.31.64-.72.23-1.41.23-1.41.23-.82 0-1.52-.26-1.52-.26-.71-.27-1.24-.79-1.24-.79-.53-.51-.82-1.25-.82-1.25-.29-.74-.29-1.69-.29-1.69zm0 0zm4.93-.784c0-.66-.29-1.078-.29-1.078-.29-.418-.98-.418-.98-.418-.54 0-.95.363-.95.363-.41.36-.53 1.13-.53 1.13h2.75zm2.5 4.605zm1.34-2.293c.52.4 1 .6 1 .6.48.2.97.2.97.2.51 0 .74-.17.74-.17.23-.17.23-.48.23-.48 0-.19-.13-.33-.13-.33-.13-.15-.35-.27-.35-.27-.23-.13-.5-.23-.5-.23-.28-.1-.57-.223-.57-.223-.36-.14-.71-.323-.71-.323-.36-.19-.65-.46-.65-.46-.3-.27-.48-.63-.48-.63-.19-.36-.19-.84-.19-.84 0-.52.21-.97.21-.97.21-.45.59-.75.59-.75.38-.31.92-.49.92-.49.54-.18 1.2-.18 1.2-.18.88 0 1.54.3 1.54.3.66.3 1.15.67 1.15.67l-1.01 1.36c-.42-.31-.82-.48-.82-.48-.4-.17-.8-.17-.8-.17-.86 0-.86.6-.86.6 0 .18.13.31.13.31.12.13.33.24.33.24.2.11.47.21.47.21l.56.2c.37.14.73.31.73.31.36.18.66.44.66.44.3.27.49.64.49.64.19.38.19.9.19.9 0 .53-.2.97-.2.97-.2.45-.6.78-.6.78-.4.33-.98.53-.98.53-.59.19-1.36.19-1.36.19-.76 0-1.55-.29-1.55-.29-.79-.3-1.38-.77-1.38-.77zm5.48 2.29zm.94-1.23c0-.62.39-1.03.39-1.03.4-.41.98-.41.98-.41.59 0 .98.41.98.41.39.407.39 1.023.39 1.023 0 .6-.39 1.008-.39 1.008-.39.41-.98.41-.98.41-.58 0-.97-.404-.97-.404-.39-.406-.39-1.006-.39-1.006z"/><path fill="none" stroke="#D3D3D3" stroke-miterlimit="10" d="M55.425 738h919.573M55.425 503.667h919.573M55.425 269.333h919.573M55.425 35h919.573" stroke-dasharray="5 5"/><g fill="#5C3566" stroke-opacity="0" stroke-width="0" stroke-miterlimit="10" stroke-linejoin="bevel"><defs><clipPath id="a"><path d="M55.425 35v703h919.573V35z"/></clipPath></defs><g clip-path="url(#a)"><path stroke="none" d="M70.425 738v-14.06H224.34V738z"/></g></g><g fill-opacity="0" stroke-miterlimit="10"><defs><clipPath id="b"><path d="M55.425 35v703h919.573V35z"/></clipPath></defs><g clip-path="url(#b)"><path fill="none" d="M70.425 738v-14.06H224.34V738z"/></g></g><g fill="#5C3566" stroke-opacity="0" stroke-width="0" stroke-miterlimit="10" stroke-linejoin="bevel"><defs><clipPath id="c"><path d="M55.425 35v703h919.573V35z"/></clipPath></defs><g clip-path="url(#c)"><path stroke="none" d="M254.34 738v-85.532h153.914V738z"/></g></g><g fill-opacity="0" stroke-miterlimit="10"><defs><clipPath id="d"><path d="M55.425 35v703h919.573V35z"/></clipPath></defs><g clip-path="url(#d)"><path fill="none" d="M254.34 738v-85.532h153.914V738z"/></g></g><g fill="#5C3566" stroke-opacity="0" stroke-width="0" stroke-miterlimit="10" stroke-linejoin="bevel"><defs><clipPath id="e"><path d="M55.425 35v703h919.573V35z"/></clipPath></defs><g clip-path="url(#e)"><path stroke="none" d="M438.254 738V106.472H592.17V738z"/></g></g><g fill-opacity="0" stroke-miterlimit="10"><defs><clipPath id="f"><path d="M55.425 35v703h919.573V35z"/></clipPath></defs><g clip-path="url(#f)"><path fill="none" d="M438.254 738V106.472H592.17V738z"/></g></g><g fill="#5C3566" stroke-opacity="0" stroke-width="0" stroke-miterlimit="10" stroke-linejoin="bevel"><defs><clipPath id="g"><path d="M55.425 35v703h919.573V35z"/></clipPath></defs><g clip-path="url(#g)"><path stroke="none" d="M622.17 738V195.518h153.913V738z"/></g></g><g fill-opacity="0" stroke-miterlimit="10"><defs><clipPath id="h"><path d="M55.425 35v703h919.573V35z"/></clipPath></defs><g clip-path="url(#h)"><path fill="none" d="M622.17 738V195.518h153.913V738z"/></g></g><g fill="#5C3566" stroke-opacity="0" stroke-width="0" stroke-miterlimit="10" stroke-linejoin="bevel"><defs><clipPath id="i"><path d="M55.425 35v703h919.573V35z"/></clipPath></defs><g clip-path="url(#i)"><path stroke="none" d="M806.083 738V626.692h153.915V738z"/></g></g><g fill-opacity="0" stroke-miterlimit="10"><defs><clipPath id="j"><path d="M55.425 35v703h919.573V35z"/></clipPath></defs><g clip-path="url(#j)"><path fill="none" d="M806.083 738V626.692h153.915V738z"/></g></g><path fill="none" stroke-miterlimit="10" d="M55.425 738V35" stroke-linecap="square"/><path fill="none" stroke-miterlimit="10" d="M55.425 738h2m-2-58.583h2m-2-58.584h2m-2-58.583h2m-2-58.583h2m-2-58.584h2m-2-58.583h2m-2-58.583h2m-2-58.584h2m-2-58.583h2m-2-58.583h2m-2-58.584h2m-2-58.583h2m-2 703h5m-5-234.333h5m-5-234.334h5M55.425 35h5"/><path stroke="none" d="M41.13 741.445zm2.615.126c-1.02 0-1.586-.9-1.586-.9-.57-.9-.57-2.59-.57-2.59 0-1.69.57-2.57.57-2.57.56-.88 1.58-.88 1.58-.88 1.01 0 1.57.88 1.57.88.56.89.56 2.58.56 2.58 0 1.69-.57 2.6-.57 2.6-.57.91-1.58.91-1.58.91zm0 0zm0-.69c.294 0 .53-.16.53-.16.236-.16.41-.5.41-.5.173-.34.268-.87.268-.87.094-.53.094-1.26.094-1.26 0-.73-.094-1.26-.094-1.26-.095-.52-.268-.85-.268-.85-.173-.33-.41-.49-.41-.49-.236-.16-.53-.16-.53-.16-.294 0-.536.16-.536.16-.25.16-.42.49-.42.49-.18.33-.27.86-.27.86-.1.53-.1 1.26-.1 1.26 0 1.47.36 2.14.36 2.14.36.67.95.67.95.67zm-13.14-233.77zm.42-.51c.755-.75 1.344-1.36 1.344-1.36.58-.61.98-1.13.98-1.13.4-.52.61-.95.61-.95.21-.43.21-.84.21-.84 0-.57-.32-.94-.32-.94-.32-.37-.96-.37-.96-.37-.42 0-.78.24-.78.24-.36.24-.65.58-.65.58l-.5-.49c.42-.46.89-.74.89-.74.47-.28 1.13-.28 1.13-.28.93 0 1.47.54 1.47.54.53.54.53 1.44.53 1.44 0 .47-.21.95-.21.95-.21.48-.57.99-.57.99-.37.51-.86 1.06-.86 1.06-.5.56-1.1 1.17-1.1 1.17l.57-.04c.29-.02.55-.02.55-.02h1.94v.75H31v-.51zm4.8.52zm2.615.13c-1.02 0-1.586-.9-1.586-.9-.567-.9-.567-2.59-.567-2.59 0-1.69.567-2.57.567-2.57.567-.88 1.586-.88 1.586-.88 1.01 0 1.576.88 1.576.88.567.89.567 2.58.567 2.58 0 1.69-.567 2.6-.567 2.6-.567.9-1.576.9-1.576.9zm0 0zm0-.69c.294 0 .53-.16.53-.16.237-.16.41-.5.41-.5.174-.34.268-.87.268-.87.095-.53.095-1.26.095-1.26 0-.74-.095-1.26-.095-1.26-.094-.53-.268-.86-.268-.86-.173-.33-.41-.49-.41-.49-.236-.15-.53-.15-.53-.15-.294 0-.536.16-.536.16-.24.16-.415.49-.415.49-.18.33-.27.86-.27.86-.1.53-.1 1.26-.1 1.26 0 1.47.36 2.14.36 2.14.36.67.95.67.95.67zm2.605.57zm2.616.13c-1.01 0-1.58-.9-1.58-.9-.57-.9-.57-2.59-.57-2.59 0-1.69.57-2.57.57-2.57.57-.88 1.59-.88 1.59-.88 1.01 0 1.58.89 1.58.89.57.88.57 2.58.57 2.58 0 1.69-.57 2.6-.57 2.6-.57.91-1.57.91-1.57.91zm0 0zm0-.69c.3 0 .53-.16.53-.16.24-.16.41-.5.41-.5.18-.34.27-.87.27-.87.1-.53.1-1.26.1-1.26 0-.73-.09-1.26-.09-1.26-.09-.53-.27-.86-.27-.86-.17-.33-.41-.49-.41-.49-.23-.15-.53-.15-.53-.15-.29 0-.53.16-.53.16-.24.16-.41.49-.41.49-.17.33-.26.86-.26.86-.09.52-.09 1.26-.09 1.26 0 1.47.36 2.14.36 2.14.36.67.95.67.95.67zM30.41 272.78zm3.194-2.543v-1.944c0-.273.016-.646.016-.646.015-.373.036-.646.036-.646h-.04c-.126.25-.262.48-.262.48l-.284.48-1.565 2.29h2.1zm0 0zm1.733.693h-.912v1.85h-.82v-1.85H30.59v-.567l2.868-4.286h.967v4.16h.915v.693zm.296 1.85zm2.615.125c-1.017 0-1.585-.904-1.585-.904-.568-.9-.568-2.59-.568-2.59 0-1.69.57-2.57.57-2.57.567-.88 1.585-.88 1.585-.88 1.01 0 1.577.89 1.577.89.568.89.568 2.58.568 2.58 0 1.69-.567 2.6-.567 2.6-.566.91-1.575.91-1.575.91zm0 0zm0-.693c.296 0 .53-.163.53-.163.238-.17.41-.51.41-.51.175-.34.27-.87.27-.87.094-.53.094-1.27.094-1.27 0-.74-.095-1.26-.095-1.26-.096-.53-.27-.86-.27-.86-.173-.33-.41-.49-.41-.49-.235-.16-.53-.16-.53-.16-.294 0-.535.16-.535.16-.243.15-.416.49-.416.49-.173.33-.268.85-.268.85-.095.52-.095 1.26-.095 1.26 0 1.47.365 2.14.365 2.14.362.66.95.66.95.66zm2.607.567zm2.616.12c-1.01 0-1.58-.91-1.58-.91-.56-.91-.56-2.6-.56-2.6 0-1.69.57-2.58.57-2.58.57-.89 1.59-.89 1.59-.89 1.01 0 1.58.88 1.58.88.57.88.57 2.57.57 2.57 0 1.69-.56 2.59-.56 2.59-.57.9-1.57.9-1.57.9zm0 0zm0-.7c.3 0 .54-.17.54-.17.24-.17.41-.51.41-.51.18-.34.27-.87.27-.87.1-.53.1-1.27.1-1.27 0-.74-.09-1.26-.09-1.26-.09-.53-.27-.86-.27-.86-.17-.33-.41-.49-.41-.49-.23-.16-.53-.16-.53-.16-.29 0-.53.16-.53.16-.24.16-.41.49-.41.49-.17.33-.26.85-.26.85-.09.52-.09 1.26-.09 1.26 0 1.47.37 2.14.37 2.14.36.66.95.66.95.66zM30.73 38.44zm2.815-.553c.252 0 .462-.11.462-.11.21-.11.368-.3.368-.3.158-.2.247-.46.247-.46.09-.27.09-.6.09-.6 0-.67-.305-1.04-.305-1.04-.305-.38-.935-.38-.935-.38-.315 0-.688.2-.688.2-.373.202-.71.674-.71.674.085.99.458 1.5.458 1.5.372.51 1.013.51 1.013.51zm0 0zm1.376-5.03c-.21-.24-.49-.386-.49-.386-.29-.14-.6-.14-.6-.14-.34 0-.66.15-.66.15-.31.15-.56.48-.56.48-.24.34-.39.88-.39.88-.14.54-.15 1.34-.15 1.34.32-.39.74-.61.74-.61.42-.22.83-.22.83-.22.87 0 1.39.52 1.39.52.52.52.52 1.56.52 1.56 0 .49-.15.88-.15.88-.16.4-.43.68-.43.68-.27.29-.63.44-.63.44-.36.16-.77.16-.77.16-.49 0-.91-.2-.91-.2-.42-.2-.73-.6-.73-.6-.31-.41-.48-1.01-.48-1.01-.18-.61-.18-1.41-.18-1.41 0-1.01.21-1.71.21-1.71.21-.71.57-1.15.57-1.15.36-.44.82-.65.82-.65.46-.2.96-.2.96-.2.55 0 .94.21.94.21.4.2.68.51.68.51zm1.03 5.575zm2.62.126c-1.02 0-1.58-.902-1.58-.902-.56-.904-.56-2.596-.56-2.596 0-1.69.57-2.575.57-2.575.57-.88 1.59-.88 1.59-.88 1.01 0 1.58.88 1.58.88.57.88.57 2.572.57 2.572 0 1.69-.56 2.594-.56 2.594-.57.91-1.58.91-1.58.91zm0 0zm0-.692c.3 0 .53-.164.53-.164.24-.16.41-.502.41-.502.18-.34.27-.87.27-.87.1-.53.1-1.263.1-1.263 0-.736-.09-1.26-.09-1.26-.09-.526-.27-.857-.27-.857-.17-.33-.41-.49-.41-.49-.23-.16-.53-.16-.53-.16-.29 0-.53.16-.53.16-.24.157-.41.488-.41.488-.17.33-.26.857-.26.857-.09.525-.09 1.26-.09 1.26 0 1.47.37 2.14.37 2.14.36.67.95.67.95.67zm2.61.566zm2.62.128c-1.02 0-1.58-.9-1.58-.9-.56-.902-.56-2.594-.56-2.594 0-1.69.57-2.572.57-2.572.57-.88 1.59-.88 1.59-.88 1.01 0 1.58.88 1.58.88.57.884.57 2.575.57 2.575 0 1.69-.57 2.59-.57 2.59-.56.9-1.57.9-1.57.9zm0 0zm0-.69c.3 0 .53-.162.53-.162.24-.162.41-.504.41-.504.18-.34.27-.87.27-.87.1-.53.1-1.266.1-1.266 0-.736-.09-1.26-.09-1.26-.09-.526-.27-.857-.27-.857-.17-.33-.41-.49-.41-.49-.23-.16-.53-.16-.53-.16-.29 0-.53.16-.53.16-.24.16-.41.49-.41.49-.17.33-.27.86-.27.86-.09.53-.09 1.26-.09 1.26 0 1.47.36 2.14.36 2.14.36.67.95.67.95.67z"/><path fill="none" stroke-miterlimit="10" d="M55.425 738h919.573" stroke-linecap="square"/><path stroke="none" d="M101.957 758zm.967-1.502c.367.39.866.625.866.625.5.236 1.035.236 1.035.236.683 0 1.06-.31 1.06-.31.38-.31.38-.82.38-.82 0-.26-.09-.45-.09-.45-.09-.19-.242-.32-.242-.32-.152-.13-.362-.24-.362-.24-.21-.11-.45-.22-.45-.22l-.98-.43c-.24-.11-.49-.26-.49-.26-.25-.15-.45-.36-.45-.36-.2-.21-.32-.5-.32-.5-.12-.29-.12-.67-.12-.67 0-.39.17-.73.17-.73.16-.34.45-.59.45-.59.29-.25.69-.39.69-.39.39-.14.87-.14.87-.14.62 0 1.15.23 1.15.23.52.24.89.61.89.61l-.47.56c-.32-.31-.7-.48-.7-.48-.38-.17-.87-.17-.87-.17-.58 0-.93.26-.93.26-.35.27-.35.74-.35.74 0 .25.1.42.1.42.1.17.27.3.27.3.17.14.37.23.37.23.2.1.41.19.41.19l.98.42c.29.13.56.29.56.29.26.16.45.38.45.38.19.21.3.5.3.5.11.29.11.66.11.66 0 .41-.16.76-.16.76-.16.352-.46.62-.46.62-.31.264-.74.42-.74.42-.43.15-.97.15-.97.15-.73 0-1.35-.27-1.35-.27-.62-.27-1.07-.75-1.07-.75zm4.642 1.502zm1.01-4.4h-.757v-.653l.79-.052.1-1.43h.72v1.43h1.37v.704h-1.38v2.83c0 .47.17.73.17.73.17.25.61.25.61.25.13 0 .29-.04.29-.04.15-.05.28-.1.28-.1l.16.65c-.21.07-.46.13-.46.13-.25.05-.49.05-.49.05-.41 0-.69-.13-.69-.13-.28-.13-.45-.35-.45-.35-.17-.22-.25-.54-.25-.54-.08-.32-.08-.7-.08-.7v-2.82zm2.54 4.4zm.862-5.105h.715l.073.924h.032c.262-.49.635-.77.635-.77.373-.29.814-.29.814-.29.305 0 .546.1.546.1l-.168.75c-.126-.04-.23-.07-.23-.07-.106-.02-.263-.02-.263-.02-.326 0-.678.26-.678.26-.352.26-.614.91-.614.91v3.3h-.862v-5.11zm2.68 5.105zm.482-2.542c0-.64.194-1.14.194-1.14.195-.5.52-.845.52-.845.326-.347.75-.525.75-.525.427-.18.9-.18.9-.18.472 0 .898.18.898.18.425.178.75.525.75.525.326.346.52.845.52.845.195.5.195 1.14.195 1.14 0 .63-.194 1.13-.194 1.13-.195.498-.52.84-.52.84-.326.34-.75.52-.75.52-.427.178-.9.178-.9.178-.472 0-.898-.18-.898-.18-.425-.177-.75-.52-.75-.52-.326-.34-.52-.84-.52-.84-.195-.498-.195-1.128-.195-1.128zm0 0zm.893 0c0 .44.105.798.105.798.105.357.3.615.3.615.194.26.467.4.467.4.273.15.598.15.598.15.326 0 .6-.14.6-.14.272-.14.466-.4.466-.4.19-.25.3-.61.3-.61.1-.35.1-.8.1-.8 0-.44-.11-.8-.11-.8-.11-.36-.3-.62-.3-.62-.2-.26-.47-.4-.47-.4-.28-.14-.6-.14-.6-.14-.33 0-.6.14-.6.14-.28.14-.47.41-.47.41-.2.26-.3.63-.3.63-.11.37-.11.81-.11.81zM120.35 758zm.86-5.105h.716l.073.735h.03c.36-.367.77-.614.77-.614.4-.247.94-.247.94-.247.81 0 1.18.5 1.18.5.37.5.37 1.49.37 1.49V758h-.86v-3.12c0-.724-.23-1.045-.23-1.045-.23-.32-.74-.32-.74-.32-.4 0-.71.2-.71.2-.31.2-.69.588-.69.588V758h-.87v-5.105zm4.886 5.105zm1.23.86c0 .41.393.653.393.653.39.24 1.08.24 1.08.24.37 0 .66-.088.66-.088.3-.09.51-.23.51-.23.21-.143.32-.332.32-.332.11-.19.11-.39.11-.39 0-.356-.27-.492-.27-.492-.27-.13-.77-.13-.77-.13h-.89c-.15 0-.32-.01-.32-.01-.18-.01-.34-.07-.34-.07-.28.2-.4.42-.4.42-.13.22-.13.44-.13.44zm0 0zm-.757.117c0-.326.19-.62.19-.62.2-.294.54-.535.54-.535v-.042c-.19-.116-.32-.32-.32-.32-.13-.206-.13-.51-.13-.51 0-.326.17-.568.17-.568.18-.24.38-.378.38-.378v-.042c-.26-.21-.46-.562-.46-.562-.21-.352-.21-.814-.21-.814 0-.42.15-.756.15-.756.15-.336.41-.573.41-.573.26-.236.62-.362.62-.362.35-.126.74-.126.74-.126.21 0 .39.03.39.03.18.03.33.09.33.09h1.77v.66h-1.05c.17.18.3.45.3.45.12.27.12.6.12.6 0 .41-.15.74-.15.74-.15.33-.4.55-.4.55-.25.22-.6.35-.6.35-.34.12-.73.12-.73.12-.19 0-.39-.05-.39-.05-.2-.05-.38-.13-.38-.13-.14.11-.23.25-.23.25-.1.14-.1.35-.1.35 0 .24.19.4.19.4.19.16.71.16.71.16h.99c.89 0 1.34.29 1.34.29.44.28.44.92.44.92 0 .35-.18.67-.18.67-.18.32-.52.56-.52.56-.33.24-.81.38-.81.38-.48.14-1.08.14-1.08.14-.48 0-.86-.09-.86-.09-.39-.09-.67-.27-.67-.27-.28-.18-.43-.43-.43-.43-.16-.25-.16-.59-.16-.59zm0 0zm2.11-3.172c.22 0 .41-.084.41-.084.19-.08.34-.24.34-.24.15-.16.23-.38.23-.38.08-.22.08-.51.08-.51 0-.56-.32-.87-.32-.87-.32-.31-.77-.31-.77-.31-.46 0-.77.31-.77.31-.32.31-.32.88-.32.88 0 .29.08.51.08.51.08.23.23.39.23.39.15.16.34.24.34.24.19.09.41.09.41.09zm2.71 2.195zm.86-7.48h.86v6.514c0 .21.07.294.07.294.07.084.17.084.17.084h.08l.11-.02.11.65c-.09.042-.2.063-.2.063-.12.02-.3.02-.3.02-.49 0-.71-.293-.71-.293-.21-.294-.21-.86-.21-.86v-6.45zm1.82 7.48zm.51 1.408l.19.047.2.026c.44 0 .72-.31.72-.31.28-.31.43-.78.43-.78l.11-.38-2.05-5.11h.89l1.04 2.83c.11.34.24.71.24.71.13.37.24.73.24.73h.04c.11-.34.22-.72.22-.72.1-.38.21-.71.21-.71l.91-2.82h.84l-1.93 5.53c-.14.38-.31.7-.31.7-.17.33-.4.56-.4.56-.23.24-.53.38-.53.38-.3.14-.69.14-.69.14-.18 0-.33-.02-.33-.02-.15-.02-.28-.08-.28-.08l.17-.68zm6.51-1.408zm.49-2.542c0-.62.18-1.12.18-1.12.18-.498.49-.844.49-.844.3-.347.7-.536.7-.536.4-.19.84-.19.84-.19.44 0 .76.158.76.158.32.158.66.43.66.43l-.04-.87v-1.965h.87V758h-.72l-.08-.6h-.04c-.31.295-.7.51-.7.51-.39.216-.85.216-.85.216-.97 0-1.54-.693-1.54-.693-.58-.693-.58-1.975-.58-1.975zm0 0zm.89-.01c0 .924.37 1.44.37 1.44.36.513 1.04.513 1.04.513.35 0 .67-.17.67-.17.31-.17.63-.53.63-.53v-2.67c-.33-.29-.63-.41-.63-.41-.3-.12-.62-.12-.62-.12-.31 0-.58.14-.58.14-.27.15-.47.4-.47.4-.2.26-.32.62-.32.62-.12.36-.12.8-.12.8zm4.45 2.552zm1.3-6.155c-.25 0-.43-.158-.43-.158-.18-.158-.18-.4-.18-.4 0-.25.17-.404.17-.404.17-.152.42-.152.42-.152.25 0 .42.16.42.16.17.16.17.41.17.41 0 .24-.18.4-.18.4-.18.16-.43.16-.43.16zm0 0zm-.44 1.05h.86V758h-.86v-5.105zm1.73 5.105zm.72-1.155c.33.273.69.44.69.44.35.17.81.17.81.17.5 0 .75-.232.75-.232.25-.23.25-.567.25-.567 0-.2-.11-.347-.11-.347-.11-.15-.27-.26-.27-.26-.17-.11-.38-.2-.38-.2l-.42-.17c-.28-.1-.55-.22-.55-.22-.28-.12-.49-.3-.49-.3-.22-.18-.35-.41-.35-.41-.14-.23-.14-.56-.14-.56 0-.31.12-.58.12-.58.12-.27.34-.46.34-.46.23-.19.55-.31.55-.31.32-.11.73-.11.73-.11.48 0 .88.17.88.17.4.16.7.41.7.41l-.41.54c-.26-.2-.55-.33-.55-.33-.29-.13-.62-.13-.62-.13-.49 0-.71.22-.71.22-.23.22-.23.51-.23.51 0 .18.09.31.09.31.09.13.25.23.25.23.15.1.36.18.36.18l.42.16c.27.1.55.22.55.22.28.11.5.29.5.29.22.17.36.42.36.42.15.25.15.61.15.61 0 .31-.12.59-.12.59-.12.27-.36.48-.36.48-.24.21-.59.33-.59.33-.36.12-.81.12-.81.12-.55 0-1.04-.2-1.04-.2-.49-.2-.86-.51-.86-.51zm3.68 1.155zm.61-1.323c0-.84.75-1.287.75-1.287.75-.447 2.39-.625 2.39-.625 0-.242-.05-.473-.05-.473-.05-.23-.17-.41-.17-.41-.12-.178-.32-.29-.32-.29-.2-.11-.52-.11-.52-.11-.45 0-.83.17-.83.17-.38.167-.69.377-.69.377l-.34-.6c.36-.23.87-.45.87-.45.51-.22 1.13-.22 1.13-.22.93 0 1.35.57 1.35.57.42.57.42 1.53.42 1.53V758h-.71l-.08-.61h-.02c-.37.306-.8.52-.8.52-.43.216-.9.216-.9.216-.65 0-1.08-.378-1.08-.378-.43-.378-.43-1.07-.43-1.07zm0 0zm.85-.064c0 .442.26.63.26.63.25.19.63.19.63.19.37 0 .7-.173.7-.173.33-.174.69-.51.69-.51v-1.418c-.64.084-1.08.2-1.08.2-.44.115-.71.273-.71.273-.26.157-.38.362-.38.362-.11.205-.11.446-.11.446zm3.92 1.387zm1.22.86c0 .41.39.653.39.653.39.24 1.08.24 1.08.24.36 0 .66-.088.66-.088.3-.09.51-.23.51-.23.21-.143.32-.332.32-.332.11-.19.11-.39.11-.39 0-.356-.26-.492-.26-.492-.26-.13-.77-.13-.77-.13h-.89c-.15 0-.32-.01-.32-.01-.18-.01-.34-.07-.34-.07-.28.2-.4.42-.4.42-.13.22-.13.44-.13.44zm0 0zm-.76.117c0-.326.2-.62.2-.62.2-.294.54-.535.54-.535v-.042c-.19-.116-.32-.32-.32-.32-.13-.206-.13-.51-.13-.51 0-.326.18-.568.18-.568.17-.24.37-.378.37-.378v-.042c-.25-.21-.46-.562-.46-.562-.21-.352-.21-.814-.21-.814 0-.42.16-.756.16-.756.16-.336.42-.573.42-.573.26-.236.61-.362.61-.362.35-.126.74-.126.74-.126.21 0 .39.03.39.03.18.03.33.09.33.09h1.78v.66h-1.05c.17.18.3.45.3.45.12.27.12.6.12.6 0 .41-.15.74-.15.74-.15.33-.4.55-.4.55-.25.22-.59.35-.59.35-.34.12-.73.12-.73.12-.19 0-.39-.05-.39-.05-.2-.05-.38-.13-.38-.13-.14.11-.23.25-.23.25-.1.14-.1.35-.1.35 0 .24.19.4.19.4.19.16.71.16.71.16h.98c.89 0 1.34.29 1.34.29.45.28.45.92.45.92 0 .35-.18.67-.18.67-.18.32-.52.56-.52.56-.34.24-.81.38-.81.38-.48.14-1.07.14-1.07.14-.47 0-.86-.09-.86-.09-.39-.09-.67-.27-.67-.27-.28-.18-.43-.43-.43-.43-.16-.25-.16-.59-.16-.59zm0 0zm2.11-3.172c.22 0 .41-.084.41-.084.19-.08.34-.24.34-.24.15-.16.23-.38.23-.38.09-.22.09-.51.09-.51 0-.56-.31-.87-.31-.87-.31-.31-.77-.31-.77-.31-.45 0-.77.31-.77.31-.32.31-.32.88-.32.88 0 .29.09.51.09.51.08.23.23.39.23.39.15.16.34.24.34.24.2.09.42.09.42.09zm2.71 2.195zm.86-5.105h.71l.07.924h.03c.26-.49.63-.77.63-.77.37-.29.81-.29.81-.29.3 0 .54.1.54.1l-.17.75-.24-.07c-.11-.02-.26-.02-.26-.02-.33 0-.68.26-.68.26-.35.26-.62.91-.62.91v3.3h-.86v-5.11zm2.68 5.105zm.48-2.542c0-.63.19-1.13.19-1.13.2-.498.52-.845.52-.845.32-.346.73-.53.73-.53.41-.184.85-.184.85-.184.49 0 .87.16.87.16.39.17.64.48.64.48.26.31.4.75.4.75.13.44.13.98.13.98 0 .28-.03.47-.03.47h-3.45c.05.83.51 1.31.51 1.31.46.48 1.19.48 1.19.48.37 0 .68-.11.68-.11.31-.11.59-.29.59-.29l.3.56c-.34.21-.74.37-.74.37-.41.16-.94.16-.94.16-.51 0-.96-.19-.96-.19-.45-.19-.78-.53-.78-.53-.33-.34-.52-.84-.52-.84-.19-.5-.19-1.13-.19-1.13zm0 0zm3.57-.39c0-.786-.33-1.2-.33-1.2-.34-.416-.93-.416-.93-.416-.28 0-.52.11-.52.11-.25.11-.45.315-.45.315-.2.205-.33.504-.33.504-.13.3-.17.69-.17.69h2.73zm1.16 2.932zm.48-2.542c0-.63.19-1.13.19-1.13.2-.498.52-.845.52-.845.32-.346.73-.53.73-.53.41-.184.85-.184.85-.184.49 0 .87.16.87.16.39.17.64.48.64.48.26.31.4.75.4.75.13.44.13.98.13.98 0 .28-.03.47-.03.47h-3.45c.05.83.51 1.31.51 1.31.46.48 1.19.48 1.19.48.37 0 .68-.11.68-.11.31-.11.59-.29.59-.29l.3.56c-.34.21-.75.37-.75.37-.41.16-.94.16-.94.16-.52 0-.96-.19-.96-.19-.45-.19-.78-.53-.78-.53-.33-.34-.52-.84-.52-.84-.19-.5-.19-1.13-.19-1.13zm0 0zm3.57-.39c0-.786-.33-1.2-.33-1.2-.34-.416-.93-.416-.93-.416-.28 0-.52.11-.52.11-.25.11-.45.315-.45.315-.2.205-.33.504-.33.504-.13.3-.17.69-.17.69h2.73zm1.16 2.932zm.68-4.317c0-.305.18-.49.18-.49.18-.182.44-.182.44-.182.25 0 .43.19.43.19.18.19.18.49.18.49 0 .28-.18.47-.18.47-.18.19-.44.19-.44.19-.26 0-.45-.18-.45-.18-.19-.18-.19-.46-.19-.46zm0 0zm0 3.792c0-.305.18-.49.18-.49.18-.182.44-.182.44-.182.25 0 .43.183.43.183.18.184.18.49.18.49 0 .282-.18.466-.18.466-.18.184-.44.184-.44.184-.26 0-.45-.184-.45-.184-.19-.184-.19-.467-.19-.467zm4.05.525zm.83-.714h1.54v-4.937h-1.22v-.56c.46-.09.81-.21.81-.21.34-.12.61-.29.61-.29h.66v5.99h1.38v.72h-3.78v-.72zm4.39.714zm.43-.515c.76-.756 1.35-1.365 1.35-1.365.58-.61.98-1.13.98-1.13.4-.52.61-.955.61-.955.21-.436.21-.846.21-.846 0-.58-.32-.95-.32-.95-.32-.37-.96-.37-.96-.37-.42 0-.78.23-.78.23-.36.23-.65.57-.65.57l-.5-.5c.42-.46.89-.74.89-.74.47-.28 1.13-.28 1.13-.28.94 0 1.47.54 1.47.54.54.54.54 1.43.54 1.43 0 .47-.21.95-.21.95-.21.48-.57.98-.57.98-.36.51-.86 1.06-.86 1.06-.5.55-1.1 1.17-1.1 1.17l.57-.04c.29-.02.56-.02.56-.02h1.95v.75h-4.33v-.52zM305.4 758zm.95-6.89h1.72c1.59 0 2.42.882 2.42.882.83.882.83 2.53.83 2.53 0 .82-.21 1.466-.21 1.466-.21.646-.62 1.093-.62 1.093-.41.45-1.01.69-1.01.69-.6.24-1.374.24-1.374.24h-1.76v-6.89zm0 0zm1.66 6.176c1.21 0 1.81-.725 1.81-.725.6-.72.6-2.03.6-2.03 0-1.31-.6-2-.6-2-.6-.69-1.81-.69-1.81-.69h-.79v5.46h.79zm3.85.714zm1.3-6.155c-.256 0-.43-.158-.43-.158-.172-.158-.172-.4-.172-.4 0-.25.176-.404.176-.404.173-.152.425-.152.425-.152.25 0 .43.16.43.16.17.16.17.41.17.41 0 .24-.17.4-.17.4-.17.16-.42.16-.42.16zm0 0zm-.44 1.05h.86V758h-.86v-5.105zm1.72 5.105zm.72-1.155c.336.273.687.44.687.44.36.17.82.17.82.17.51 0 .76-.232.76-.232.25-.23.25-.567.25-.567 0-.2-.1-.347-.1-.347-.104-.15-.27-.26-.27-.26-.16-.11-.37-.2-.37-.2l-.42-.17c-.273-.1-.546-.22-.546-.22-.27-.12-.49-.3-.49-.3-.21-.18-.35-.41-.35-.41-.13-.23-.13-.56-.13-.56 0-.31.12-.58.12-.58.12-.27.35-.46.35-.46.23-.19.55-.31.55-.31.32-.11.73-.11.73-.11.48 0 .89.17.89.17.41.16.7.41.7.41l-.41.54c-.26-.2-.54-.33-.54-.33-.28-.13-.62-.13-.62-.13-.48 0-.7.22-.7.22-.23.22-.23.51-.23.51 0 .18.1.31.1.31.09.13.25.23.25.23.16.1.36.18.36.18l.43.16c.28.1.56.22.56.22.28.11.5.29.5.29.22.17.36.42.36.42.14.25.14.61.14.61 0 .31-.12.59-.12.59-.12.27-.36.48-.36.48-.23.21-.58.33-.58.33-.35.12-.8.12-.8.12-.54 0-1.04-.2-1.04-.2-.49-.2-.86-.51-.86-.51zm3.68 1.155zm.61-1.323c0-.84.75-1.287.75-1.287.75-.447 2.39-.625 2.39-.625 0-.242-.05-.473-.05-.473-.05-.23-.17-.41-.17-.41-.12-.178-.32-.29-.32-.29-.2-.11-.513-.11-.513-.11-.45 0-.836.17-.836.17-.39.167-.69.377-.69.377l-.35-.6c.36-.23.87-.45.87-.45.52-.22 1.14-.22 1.14-.22.94 0 1.36.57 1.36.57.42.57.42 1.53.42 1.53V758h-.71l-.07-.61h-.02c-.36.306-.79.52-.79.52-.42.216-.89.216-.89.216-.65 0-1.07-.378-1.07-.378-.42-.378-.42-1.07-.42-1.07zm0 0zm.85-.064c0 .442.255.63.255.63.26.19.635.19.635.19.368 0 .7-.173.7-.173.33-.174.7-.51.7-.51v-1.418c-.65.084-1.09.2-1.09.2-.44.115-.71.273-.71.273-.27.157-.38.362-.38.362-.11.205-.11.446-.11.446zm3.92 1.387zm1.23.86c0 .41.393.653.393.653.393.24 1.086.24 1.086.24.37 0 .66-.088.66-.088.3-.09.51-.23.51-.23.21-.143.32-.332.32-.332.11-.19.11-.39.11-.39 0-.356-.26-.492-.26-.492-.26-.13-.76-.13-.76-.13h-.88c-.15 0-.32-.01-.32-.01-.18-.01-.35-.07-.35-.07-.27.2-.4.42-.4.42-.12.22-.12.44-.12.44zm0 0zm-.757.117c0-.326.2-.62.2-.62.2-.294.545-.535.545-.535v-.042c-.19-.116-.32-.32-.32-.32-.13-.206-.13-.51-.13-.51 0-.326.18-.568.18-.568.18-.24.38-.378.38-.378v-.042c-.26-.21-.46-.562-.46-.562-.21-.352-.21-.814-.21-.814 0-.42.15-.756.15-.756.153-.336.415-.573.415-.573.263-.236.615-.362.615-.362.353-.126.74-.126.74-.126.21 0 .395.03.395.03.19.03.34.09.34.09h1.775v.66h-1.05c.176.18.3.45.3.45.12.27.12.6.12.6 0 .41-.15.74-.15.74-.147.33-.4.55-.4.55-.25.22-.593.35-.593.35-.34.12-.73.12-.73.12-.19 0-.39-.05-.39-.05-.19-.05-.37-.13-.37-.13-.13.11-.23.25-.23.25-.09.14-.09.35-.09.35 0 .24.19.4.19.4.186.16.71.16.71.16h.987c.898 0 1.34.29 1.34.29.45.28.45.92.45.92 0 .35-.174.67-.174.67-.18.32-.518.56-.518.56-.333.24-.81.38-.81.38-.48.14-1.08.14-1.08.14-.47 0-.86-.09-.86-.09-.39-.09-.67-.27-.67-.27-.28-.18-.43-.43-.43-.43-.15-.25-.15-.59-.15-.59zm0 0zm2.11-3.172c.22 0 .415-.084.415-.084.19-.08.342-.24.342-.24.15-.16.23-.38.23-.38.083-.22.083-.51.083-.51 0-.56-.318-.87-.318-.87-.316-.31-.768-.31-.768-.31-.45 0-.77.31-.77.31-.314.31-.314.88-.314.88 0 .29.08.51.08.51.085.23.237.39.237.39.15.16.35.24.35.24.19.09.41.09.41.09zm2.71 2.195zm.862-5.105h.71l.07.924h.03c.262-.49.635-.77.635-.77.374-.29.815-.29.815-.29.305 0 .55.1.55.1l-.17.75-.23-.07c-.107-.02-.26-.02-.26-.02-.33 0-.68.26-.68.26-.35.26-.615.91-.615.91v3.3h-.86v-5.11zm2.67 5.105zm.48-2.542c0-.63.194-1.13.194-1.13.19-.498.51-.845.51-.845.32-.346.73-.53.73-.53.41-.184.85-.184.85-.184.48 0 .87.16.87.16.38.17.64.48.64.48.26.31.39.75.39.75.13.44.13.98.13.98 0 .28-.03.47-.03.47h-3.44c.05.83.51 1.31.51 1.31.45.48 1.19.48 1.19.48.36 0 .67-.11.67-.11.31-.11.59-.29.59-.29l.3.56c-.34.21-.75.37-.75.37-.41.16-.94.16-.94.16-.51 0-.96-.19-.96-.19-.45-.19-.78-.53-.78-.53-.33-.34-.52-.84-.52-.84-.19-.5-.19-1.13-.19-1.13zm0 0zm3.57-.39c0-.786-.33-1.2-.33-1.2-.33-.416-.93-.416-.93-.416-.273 0-.52.11-.52.11-.247.11-.446.315-.446.315-.2.205-.33.504-.33.504-.13.3-.17.69-.17.69h2.73zm1.16 2.932zm.484-2.542c0-.63.2-1.13.2-1.13.19-.498.51-.845.51-.845.32-.346.73-.53.73-.53.41-.184.85-.184.85-.184.48 0 .86.16.86.16.38.17.64.48.64.48.26.31.39.75.39.75.13.44.13.98.13.98 0 .28-.03.47-.03.47h-3.44c.05.83.51 1.31.51 1.31.45.48 1.19.48 1.19.48.37 0 .67-.11.67-.11.31-.11.59-.29.59-.29l.3.56c-.34.21-.75.37-.75.37-.41.16-.94.16-.94.16-.52 0-.96-.19-.96-.19-.45-.19-.78-.53-.78-.53-.33-.34-.52-.84-.52-.84-.19-.5-.19-1.13-.19-1.13zm0 0zm3.57-.39c0-.786-.33-1.2-.33-1.2-.33-.416-.93-.416-.93-.416-.27 0-.52.11-.52.11-.24.11-.44.315-.44.315-.2.205-.33.504-.33.504-.13.3-.18.69-.18.69h2.73zm1.16 2.932zm.68-4.317c0-.305.18-.49.18-.49.18-.182.44-.182.44-.182.25 0 .43.19.43.19.18.19.18.49.18.49 0 .28-.18.47-.18.47-.18.19-.43.19-.43.19-.26 0-.44-.18-.44-.18-.18-.18-.18-.46-.18-.46zm0 0zm0 3.792c0-.305.18-.49.18-.49.18-.182.44-.182.44-.182.25 0 .43.183.43.183.18.184.18.49.18.49 0 .282-.18.466-.18.466-.18.184-.43.184-.43.184-.26 0-.44-.184-.44-.184-.18-.184-.18-.467-.18-.467zm4.05.525zm1.86 0c.04-.945.16-1.733.16-1.733.12-.788.35-1.497.35-1.497.22-.71.57-1.37.57-1.37.35-.663.85-1.356.85-1.356h-3.34v-.746H353v.536c-.6.756-.97 1.45-.97 1.45-.37.693-.593 1.412-.593 1.412-.222.72-.32 1.524-.32 1.524-.1.803-.143 1.78-.143 1.78h-.893zm3.36 0zm.71-1.387c.3.315.71.557.71.557.4.242 1 .242 1 .242.61 0 1-.33 1-.33.39-.332.39-.9.39-.9 0-.293-.11-.54-.11-.54-.11-.247-.36-.426-.36-.426-.26-.178-.67-.273-.67-.273-.41-.094-1.01-.094-1.01-.094v-.67c.53 0 .9-.1.9-.1.36-.1.59-.26.59-.26.22-.17.32-.4.32-.4.09-.23.09-.5.09-.5 0-.5-.31-.78-.31-.78-.31-.29-.85-.29-.85-.29-.42 0-.77.19-.77.19-.35.18-.66.49-.66.49l-.47-.55c.39-.37.86-.61.86-.61.46-.24 1.06-.24 1.06-.24.44 0 .81.11.81.11.37.11.64.33.64.33.27.21.41.53.41.53.15.31.15.72.15.72 0 .61-.33 1-.33 1-.34.39-.89.6-.89.6v.04c.3.07.57.21.57.21.26.14.46.35.46.35.2.21.31.5.31.5.11.28.11.63.11.63 0 .44-.18.79-.18.79-.17.35-.47.6-.47.6-.3.25-.7.38-.7.38-.4.13-.86.13-.86.13-.4 0-.73-.08-.73-.08-.33-.08-.6-.21-.6-.21-.28-.13-.49-.3-.49-.3-.22-.17-.39-.36-.39-.36zM489.38 758zm.95-6.89h.91l2.49 4.327.75 1.43h.05c-.03-.527-.07-1.09-.07-1.09-.03-.56-.03-1.107-.03-1.107v-3.56h.83V758h-.9l-2.5-4.338-.74-1.418h-.04l.08 1.066c.04.54.04 1.087.04 1.087V758h-.83v-6.89zm5.85 6.89zm.49-2.542c0-.63.2-1.13.2-1.13.2-.498.52-.845.52-.845.32-.346.73-.53.73-.53.41-.184.85-.184.85-.184.49 0 .87.16.87.16.39.17.64.48.64.48.26.31.4.75.4.75.14.44.14.98.14.98 0 .28-.03.47-.03.47h-3.45c.05.83.51 1.31.51 1.31.46.48 1.19.48 1.19.48.37 0 .68-.11.68-.11.31-.11.59-.29.59-.29l.304.56c-.337.21-.746.37-.746.37-.41.16-.94.16-.94.16-.51 0-.96-.19-.96-.19-.45-.19-.78-.53-.78-.53-.33-.34-.52-.84-.52-.84-.19-.5-.19-1.13-.19-1.13zm0 0zm3.57-.39c0-.786-.33-1.2-.33-1.2-.33-.416-.93-.416-.93-.416-.27 0-.52.11-.52.11-.24.11-.44.315-.44.315-.2.205-.33.504-.33.504-.13.3-.17.69-.17.69h2.73zM501.4 758zm.788-5.105h.875v3.12c0 .724.226 1.045.226 1.045.22.32.73.32.73.32.4 0 .7-.205.7-.205.3-.204.67-.656.67-.656v-3.63h.86V758h-.72l-.08-.798h-.03c-.36.42-.75.672-.75.672-.4.252-.93.252-.93.252-.82 0-1.19-.504-1.19-.504-.38-.504-.38-1.492-.38-1.492v-3.235zm4.93 5.105zm1.01-4.4h-.757v-.653l.8-.052.11-1.43h.72v1.43h1.38v.704H509v2.83c0 .47.173.73.173.73.17.25.613.25.613.25.134 0 .292-.04.292-.04.157-.05.283-.1.283-.1l.17.65c-.21.07-.46.13-.46.13-.24.05-.49.05-.49.05-.41 0-.68-.13-.68-.13-.27-.13-.45-.35-.45-.35-.17-.22-.24-.54-.24-.54-.07-.32-.07-.7-.07-.7v-2.82zm2.54 4.4zm.86-5.105h.717l.07.924h.03c.26-.49.636-.77.636-.77.38-.29.82-.29.82-.29.3 0 .55.1.55.1l-.17.75c-.12-.04-.23-.07-.23-.07-.1-.02-.26-.02-.26-.02-.32 0-.67.26-.67.26-.35.26-.61.91-.61.91v3.3h-.86v-5.11zm2.52 5.105zm.61-1.323c0-.84.75-1.287.75-1.287.753-.447 2.39-.625 2.39-.625 0-.242-.046-.473-.046-.473-.048-.23-.17-.41-.17-.41-.12-.178-.32-.29-.32-.29-.2-.11-.515-.11-.515-.11-.45 0-.834.17-.834.17-.383.167-.69.377-.69.377l-.345-.6c.358-.23.873-.45.873-.45.52-.22 1.14-.22 1.14-.22.94 0 1.36.57 1.36.57.42.57.42 1.53.42 1.53V758h-.71l-.07-.61h-.02c-.37.306-.79.52-.79.52-.42.216-.89.216-.89.216-.65 0-1.07-.378-1.07-.378-.42-.378-.42-1.07-.42-1.07zm0 0zm.85-.064c0 .442.26.63.26.63.256.19.634.19.634.19.367 0 .7-.173.7-.173.33-.174.696-.51.696-.51v-1.418c-.64.084-1.08.2-1.08.2-.44.115-.71.273-.71.273-.267.157-.383.362-.383.362-.114.205-.114.446-.114.446zm3.92 1.387zm.86-7.48h.86v6.514c0 .21.076.294.076.294.073.084.168.084.168.084h.08l.11-.02.114.65c-.082.042-.2.063-.2.063-.113.02-.29.02-.29.02-.495 0-.705-.293-.705-.293-.21-.294-.21-.86-.21-.86v-6.45zM522.1 758zm.683-4.317c0-.305.185-.49.185-.49.183-.182.446-.182.446-.182.253 0 .437.19.437.19.19.19.19.49.19.49 0 .28-.18.47-.18.47-.18.19-.43.19-.43.19-.26 0-.44-.18-.44-.18-.18-.18-.18-.46-.18-.46zm0 0zm0 3.792c0-.305.185-.49.185-.49.183-.182.446-.182.446-.182.253 0 .437.183.437.183.19.184.19.49.19.49 0 .282-.18.466-.18.466-.18.184-.43.184-.43.184-.26 0-.44-.184-.44-.184-.18-.184-.18-.467-.18-.467zm4.056.525zm.68-1.355c.29.305.7.536.7.536.4.24.99.24.99.24.3 0 .57-.11.57-.11.27-.11.47-.31.47-.31.2-.2.31-.48.31-.48.11-.28.11-.63.11-.63 0-.69-.39-1.08-.39-1.08-.39-.39-1.04-.39-1.04-.39-.35 0-.59.11-.59.11-.25.11-.55.31-.55.31l-.47-.29.22-3.22h3.35v.75h-2.59l-.18 1.99c.24-.13.48-.2.48-.2.24-.07.55-.07.55-.07.43 0 .81.13.81.13.38.13.66.39.66.39.28.26.45.65.45.65.16.4.16.94.16.94 0 .55-.19.97-.19.97-.19.42-.51.71-.51.71-.32.29-.72.44-.72.44-.41.15-.85.15-.85.15-.4 0-.73-.08-.73-.08-.33-.08-.6-.2-.6-.2-.27-.12-.49-.28-.49-.28-.22-.16-.38-.34-.38-.34zm4.54 1.355zm.71-1.387c.3.315.7.557.7.557.4.242 1 .242 1 .242.61 0 1-.33 1-.33.39-.332.39-.9.39-.9 0-.293-.11-.54-.11-.54-.11-.247-.37-.426-.37-.426-.25-.178-.66-.273-.66-.273-.41-.094-1.01-.094-1.01-.094v-.67c.53 0 .9-.1.9-.1.36-.1.59-.26.59-.26.22-.17.32-.4.32-.4.09-.23.09-.5.09-.5 0-.5-.31-.78-.31-.78-.31-.29-.85-.29-.85-.29-.42 0-.77.19-.77.19-.36.18-.66.49-.66.49l-.46-.55c.39-.37.85-.61.85-.61.47-.24 1.06-.24 1.06-.24.44 0 .81.11.81.11.37.11.63.33.63.33.26.21.41.53.41.53.15.31.15.72.15.72 0 .61-.34 1-.34 1-.34.39-.89.6-.89.6v.04c.31.07.57.21.57.21.26.14.46.35.46.35.2.21.31.5.31.5.11.28.11.63.11.63 0 .44-.17.79-.17.79-.18.35-.48.6-.48.6-.3.25-.7.38-.7.38-.4.13-.86.13-.86.13-.4 0-.73-.08-.73-.08-.33-.08-.61-.21-.61-.21-.27-.13-.48-.3-.48-.3-.22-.17-.39-.36-.39-.36zm4.5 1.387zm2.46-3.256c.32 0 .7-.205.7-.205.37-.21.71-.69.71-.69-.09-.99-.46-1.49-.46-1.49-.38-.51-1.02-.51-1.02-.51-.24 0-.46.1-.46.1-.22.1-.38.3-.38.3-.16.19-.25.46-.25.46-.09.27-.09.6-.09.6 0 .66.31 1.04.31 1.04.3.37.93.37.93.37zm0 0zm-1.45 2.132c.21.242.5.39.5.39.29.146.6.146.6.146.35 0 .67-.147.67-.147.31-.147.55-.49.55-.49.24-.34.39-.886.39-.886.14-.55.16-1.36.16-1.36-.32.4-.74.63-.74.63-.42.23-.84.23-.84.23-.88 0-1.39-.52-1.39-.52-.52-.52-.52-1.56-.52-1.56 0-.49.16-.88.16-.88.16-.4.42-.68.42-.68.26-.28.63-.44.63-.44.36-.16.76-.16.76-.16.49 0 .92.2.92.2.42.2.73.6.73.6.31.4.49 1.01.49 1.01.17.6.17 1.41.17 1.41 0 1.01-.21 1.72-.21 1.72-.21.71-.57 1.15-.57 1.15-.36.44-.82.65-.82.65-.46.2-.96.2-.96.2-.54 0-.94-.2-.94-.2-.41-.2-.68-.51-.68-.51zM676.72 758zm3.88-2.805l-.325-1.05c-.19-.578-.357-1.15-.357-1.15-.17-.573-.34-1.17-.34-1.17h-.04c-.16.597-.33 1.17-.33 1.17-.17.572-.36 1.15-.36 1.15l-.323 1.05h2.07zm0 0zm.22.704h-2.51l-.66 2.1h-.89l2.33-6.89h.98l2.33 6.89h-.93zm1.62 2.1zm1.23.86c0 .41.4.65.4.65.393.24 1.086.24 1.086.24.37 0 .667-.09.667-.09.3-.09.51-.23.51-.23.21-.15.326-.33.326-.33.11-.19.11-.39.11-.39 0-.36-.27-.49-.27-.49-.26-.14-.77-.14-.77-.14h-.89c-.15 0-.32-.02-.32-.02-.18-.02-.34-.07-.34-.07-.28.2-.4.42-.4.42-.13.22-.13.44-.13.44zm0 0zm-.75.11c0-.33.2-.62.2-.62.2-.3.545-.54.545-.54v-.04c-.19-.12-.33-.32-.33-.32-.13-.21-.13-.51-.13-.51 0-.33.18-.57.18-.57.18-.24.38-.38.38-.38v-.05c-.25-.21-.46-.56-.46-.56-.203-.35-.203-.82-.203-.82 0-.42.15-.76.15-.76.154-.34.416-.57.416-.57.26-.24.614-.36.614-.36.35-.13.74-.13.74-.13.21 0 .393.03.393.03.186.04.33.09.33.09h1.778v.66h-1.05c.18.18.3.45.3.45.12.27.12.6.12.6 0 .41-.145.74-.145.74-.148.33-.4.55-.4.55-.25.22-.59.35-.59.35-.34.12-.73.12-.73.12-.19 0-.39-.05-.39-.05-.2-.05-.38-.13-.38-.13-.134.11-.23.25-.23.25-.093.14-.093.35-.093.35 0 .24.19.4.19.4.186.15.71.15.71.15h.99c.898 0 1.34.29 1.34.29.45.29.45.93.45.93 0 .36-.18.68-.18.68-.18.32-.515.56-.515.56-.335.24-.813.38-.813.38-.48.14-1.08.14-1.08.14-.47 0-.86-.09-.86-.09-.39-.09-.667-.27-.667-.27-.276-.18-.43-.43-.43-.43-.15-.25-.15-.59-.15-.59zm0 0zm2.11-3.17c.22 0 .415-.09.415-.09.19-.09.34-.24.34-.24.15-.16.235-.39.235-.39.084-.23.084-.51.084-.51 0-.57-.315-.88-.315-.88-.32-.31-.77-.31-.77-.31-.45 0-.77.31-.77.31-.31.31-.31.87-.31.87 0 .28.08.51.08.51.08.22.23.38.23.38.15.15.34.24.34.24.19.08.41.08.41.08zm2.71 2.19zm.862-5.11h.714l.073.92h.03c.26-.49.63-.77.63-.77.37-.29.81-.29.81-.29.3 0 .54.1.54.1l-.16.76-.23-.07c-.11-.02-.27-.02-.27-.02-.33 0-.68.26-.68.26-.36.26-.62.91-.62.91v3.3h-.86v-5.11zm2.678 5.1zm.485-2.55c0-.63.195-1.13.195-1.13.193-.5.514-.85.514-.85.32-.35.73-.53.73-.53.41-.19.85-.19.85-.19.483 0 .866.16.866.16.383.16.64.48.64.48.258.31.395.75.395.75.13.44.13.99.13.99 0 .28-.03.47-.03.47h-3.45c.054.83.51 1.31.51 1.31.458.48 1.19.48 1.19.48.37 0 .68-.11.68-.11.31-.11.593-.29.593-.29l.31.57c-.336.21-.746.37-.746.37-.41.16-.933.16-.933.16-.52 0-.96-.19-.96-.19-.45-.19-.78-.53-.78-.53-.33-.34-.52-.84-.52-.84-.19-.49-.19-1.12-.19-1.12zm0 0zm3.57-.39c0-.79-.33-1.2-.33-1.2-.33-.42-.93-.42-.93-.42-.272 0-.52.11-.52.11-.245.11-.445.32-.445.32-.2.2-.33.5-.33.5-.133.3-.175.69-.175.69h2.73zm1.157 2.93zm.483-2.54c0-.63.194-1.13.194-1.13.19-.5.51-.85.51-.85.32-.35.73-.53.73-.53.41-.18.85-.18.85-.18.48 0 .87.16.87.16.38.17.64.48.64.48.25.31.39.76.39.76.13.44.13.99.13.99 0 .28-.03.47-.03.47h-3.45c.05.83.51 1.31.51 1.31.46.48 1.19.48 1.19.48.37 0 .67-.11.67-.11.31-.11.59-.29.59-.29l.3.57c-.34.21-.75.36-.75.36-.41.15-.94.15-.94.15-.52 0-.96-.19-.96-.19-.45-.18-.78-.52-.78-.52-.33-.34-.52-.84-.52-.84-.19-.49-.19-1.12-.19-1.12zm0 0zm3.57-.39c0-.79-.34-1.2-.34-1.2-.33-.42-.93-.42-.93-.42-.272 0-.52.11-.52.11-.245.11-.445.31-.445.31-.2.2-.33.5-.33.5-.13.3-.174.69-.174.69h2.73zm1.15 2.93zm.68-4.32c0-.31.184-.49.184-.49.18-.19.44-.19.44-.19.25 0 .43.18.43.18.18.18.18.49.18.49 0 .28-.19.46-.19.46-.19.18-.44.18-.44.18-.27 0-.45-.18-.45-.18-.19-.19-.19-.47-.19-.47zm0 0zm0 3.79c0-.31.184-.49.184-.49.18-.18.44-.18.44-.18.25 0 .43.18.43.18.18.18.18.49.18.49 0 .28-.19.46-.19.46-.19.18-.44.18-.44.18-.27 0-.45-.19-.45-.19-.19-.19-.19-.47-.19-.47zm4.055.52zm3.193-2.54v-1.94c0-.28.017-.65.017-.65.016-.38.037-.65.037-.65h-.04c-.127.24-.26.47-.26.47l-.29.48-1.564 2.29h2.1zm0 0zm1.734.69h-.91V758h-.82v-1.85h-3.02v-.566l2.868-4.286h.964v4.16h.91v.693zm.294 1.85zm2.82-.56c.26 0 .47-.11.47-.11.21-.11.37-.3.37-.3.16-.2.25-.46.25-.46.09-.27.09-.61.09-.61 0-.66-.3-1.04-.3-1.04-.3-.38-.93-.38-.93-.38-.31 0-.68.2-.68.2-.37.2-.71.68-.71.68.09.99.46 1.5.46 1.5.38.51 1.02.51 1.02.51zm0 0zm1.38-5.02c-.21-.24-.5-.39-.5-.39-.29-.15-.6-.15-.6-.15-.34 0-.66.15-.66.15-.31.15-.56.48-.56.48-.24.33-.39.87-.39.87-.14.54-.15 1.34-.15 1.34.31-.39.73-.62.73-.62.42-.23.83-.23.83-.23.88 0 1.4.52 1.4.52.52.51.52 1.55.52 1.55 0 .48-.16.88-.16.88-.16.39-.43.68-.43.68-.27.28-.63.44-.63.44-.36.16-.77.16-.77.16-.49 0-.91-.2-.91-.2-.42-.2-.73-.61-.73-.61-.31-.41-.49-1.01-.49-1.01-.18-.6-.18-1.41-.18-1.41 0-1.01.21-1.72.21-1.72.21-.71.57-1.16.57-1.16.36-.45.82-.65.82-.65.46-.21.96-.21.96-.21.55 0 .94.2.94.2.4.2.68.51.68.51zm1.03 5.58zm.71-1.39c.31.31.71.55.71.55.41.24 1 .24 1 .24.61 0 1-.33 1-.33.39-.33.39-.9.39-.9 0-.3-.11-.54-.11-.54-.11-.25-.36-.43-.36-.43-.25-.18-.66-.28-.66-.28-.41-.1-1.01-.1-1.01-.1v-.67c.54 0 .9-.1.9-.1.37-.1.59-.26.59-.26.23-.17.32-.4.32-.4.1-.23.1-.5.1-.5 0-.5-.31-.78-.31-.78-.31-.29-.84-.29-.84-.29-.42 0-.78.19-.78.19-.35.19-.66.49-.66.49l-.46-.55c.39-.37.86-.6.86-.6.47-.24 1.06-.24 1.06-.24.44 0 .81.11.81.11.37.11.64.33.64.33.27.21.42.53.42.53.15.31.15.72.15.72 0 .61-.34 1-.34 1-.33.39-.88.6-.88.6v.04c.31.07.57.21.57.21.27.14.47.35.47.35.2.21.31.5.31.5.11.28.11.63.11.63 0 .44-.17.8-.17.8-.17.35-.47.6-.47.6-.3.24-.7.38-.7.38-.4.13-.86.13-.86.13-.4 0-.73-.08-.73-.08-.33-.08-.6-.21-.6-.21-.27-.13-.49-.3-.49-.3-.22-.17-.38-.36-.38-.36zM844.04 758zm.965-1.502c.368.39.867.625.867.625.498.236 1.034.236 1.034.236.683 0 1.06-.31 1.06-.31.38-.31.38-.82.38-.82 0-.26-.09-.45-.09-.45-.09-.19-.242-.32-.242-.32-.152-.13-.362-.24-.362-.24-.21-.11-.452-.22-.452-.22l-.987-.43c-.242-.11-.494-.26-.494-.26-.26-.15-.46-.36-.46-.36-.2-.21-.33-.5-.33-.5-.13-.29-.13-.67-.13-.67 0-.39.16-.73.16-.73.16-.34.45-.59.45-.59.29-.25.68-.39.68-.39.39-.14.87-.14.87-.14.62 0 1.14.23 1.14.23.52.24.89.61.89.61l-.48.56c-.32-.31-.7-.48-.7-.48-.38-.17-.87-.17-.87-.17-.58 0-.93.26-.93.26-.36.27-.36.74-.36.74 0 .25.1.42.1.42.1.17.27.3.27.3.17.14.37.23.37.23.2.1.41.19.41.19l.97.42c.29.13.55.29.55.29.26.16.45.38.45.38.19.21.3.5.3.5.11.29.11.66.11.66 0 .41-.16.76-.16.76-.17.352-.47.62-.47.62-.31.264-.74.42-.74.42-.43.15-.98.15-.98.15-.73 0-1.35-.27-1.35-.27-.62-.27-1.07-.75-1.07-.75zm4.643 1.502zm1.008-4.4h-.756v-.653l.798-.052.105-1.43h.725v1.43h1.376v.704h-1.376v2.83c0 .47.173.73.173.73.18.25.62.25.62.25.14 0 .3-.04.3-.04.16-.05.29-.1.29-.1l.17.65c-.21.07-.45.13-.45.13-.24.05-.49.05-.49.05-.41 0-.68-.13-.68-.13-.28-.13-.45-.35-.45-.35-.17-.22-.25-.54-.25-.54-.07-.32-.07-.7-.07-.7v-2.82zm2.542 4.4zm.862-5.105h.714l.073.924h.032c.26-.49.63-.77.63-.77.37-.29.81-.29.81-.29.3 0 .54.1.54.1l-.17.75-.23-.07c-.11-.02-.27-.02-.27-.02-.33 0-.68.26-.68.26-.35.26-.62.91-.62.91v3.3h-.86v-5.11zm2.678 5.105zm.483-2.542c0-.64.2-1.14.2-1.14.2-.5.52-.845.52-.845.33-.347.75-.525.75-.525.43-.18.9-.18.9-.18.47 0 .9.18.9.18.43.178.75.525.75.525.33.346.52.845.52.845.2.5.2 1.14.2 1.14 0 .63-.19 1.13-.19 1.13-.19.498-.52.84-.52.84-.32.34-.75.52-.75.52-.42.178-.9.178-.9.178-.47 0-.89-.18-.89-.18-.42-.177-.75-.52-.75-.52-.32-.34-.52-.84-.52-.84-.19-.498-.19-1.128-.19-1.128zm0 0zm.9 0c0 .44.11.798.11.798.11.357.3.615.3.615.2.26.47.4.47.4.28.15.6.15.6.15.33 0 .6-.14.6-.14.28-.14.47-.4.47-.4.2-.25.3-.61.3-.61.11-.35.11-.8.11-.8 0-.44-.1-.8-.1-.8-.1-.36-.3-.62-.3-.62-.19-.26-.47-.4-.47-.4-.27-.14-.6-.14-.6-.14-.32 0-.6.14-.6.14-.27.14-.46.41-.46.41-.19.26-.3.63-.3.63-.1.37-.1.81-.1.81zm4.31 2.542zm.87-5.105h.72l.08.735h.04c.37-.367.77-.614.77-.614.41-.247.94-.247.94-.247.81 0 1.18.5 1.18.5.38.5.38 1.49.38 1.49V758h-.86v-3.12c0-.724-.23-1.045-.23-1.045-.23-.32-.73-.32-.73-.32-.39 0-.7.2-.7.2-.3.2-.69.588-.69.588V758h-.86v-5.105zm4.88 5.105zm1.23.86c0 .41.4.653.4.653.4.24 1.09.24 1.09.24.37 0 .67-.088.67-.088.3-.09.51-.23.51-.23.21-.143.33-.332.33-.332.11-.19.11-.39.11-.39 0-.356-.26-.492-.26-.492-.26-.13-.77-.13-.77-.13h-.88c-.15 0-.32-.01-.32-.01-.17-.01-.34-.07-.34-.07-.27.2-.4.42-.4.42-.13.22-.13.44-.13.44zm0 0zm-.75.117c0-.326.2-.62.2-.62.2-.294.55-.535.55-.535v-.042c-.19-.116-.32-.32-.32-.32-.13-.206-.13-.51-.13-.51 0-.326.18-.568.18-.568.18-.24.38-.378.38-.378v-.042c-.25-.21-.45-.562-.45-.562-.2-.352-.2-.814-.2-.814 0-.42.15-.756.15-.756.16-.336.42-.573.42-.573.26-.236.62-.362.62-.362.36-.126.74-.126.74-.126.21 0 .4.03.4.03.19.03.33.09.33.09h1.78v.66h-1.05c.18.18.3.45.3.45.12.27.12.6.12.6 0 .41-.15.74-.15.74-.15.33-.4.55-.4.55-.25.22-.59.35-.59.35-.34.12-.73.12-.73.12-.19 0-.39-.05-.39-.05-.2-.05-.38-.13-.38-.13-.13.11-.23.25-.23.25-.09.14-.09.35-.09.35 0 .24.19.4.19.4.19.16.71.16.71.16h.99c.9 0 1.34.29 1.34.29.45.28.45.92.45.92 0 .35-.18.67-.18.67-.18.32-.51.56-.51.56-.33.24-.81.38-.81.38-.48.14-1.08.14-1.08.14-.47 0-.86-.09-.86-.09-.39-.09-.67-.27-.67-.27-.28-.18-.43-.43-.43-.43-.15-.25-.15-.59-.15-.59zm0 0zm2.11-3.172c.23 0 .42-.084.42-.084.19-.08.35-.24.35-.24.15-.16.24-.38.24-.38.08-.22.08-.51.08-.51 0-.56-.31-.87-.31-.87-.31-.31-.76-.31-.76-.31-.45 0-.76.31-.76.31-.31.31-.31.88-.31.88 0 .29.09.51.09.51.09.23.24.39.24.39.15.16.35.24.35.24.19.09.41.09.41.09zm2.71 2.195zm.87-7.48h.86v6.514c0 .21.08.294.08.294.08.084.17.084.17.084h.08l.11-.02.12.65c-.08.042-.2.063-.2.063-.11.02-.29.02-.29.02-.49 0-.7-.293-.7-.293-.21-.294-.21-.86-.21-.86v-6.45zm1.82 7.48zm.52 1.408l.19.047.2.026c.44 0 .72-.31.72-.31.28-.31.44-.78.44-.78l.11-.38-2.05-5.11h.9l1.04 2.83.25.71c.13.37.25.73.25.73h.04c.12-.34.22-.72.22-.72.11-.38.21-.71.21-.71l.92-2.82h.84l-1.92 5.52c-.14.38-.3.71-.3.71-.17.33-.4.56-.4.56-.23.24-.52.37-.52.37-.29.14-.68.14-.68.14-.18 0-.33-.02-.33-.02-.15-.02-.27-.08-.27-.08l.17-.68zM883.2 758zm.61-1.323c0-.84.75-1.287.75-1.287.75-.447 2.39-.625 2.39-.625 0-.242-.05-.473-.05-.473-.046-.23-.167-.41-.167-.41-.12-.178-.32-.29-.32-.29-.2-.11-.517-.11-.517-.11-.45 0-.834.17-.834.17-.385.167-.69.377-.69.377l-.347-.6c.356-.23.87-.45.87-.45.51-.22 1.13-.22 1.13-.22.934 0 1.354.57 1.354.57.42.57.42 1.53.42 1.53V758h-.71l-.07-.61H887c-.37.306-.797.52-.797.52-.424.216-.9.216-.9.216-.65 0-1.08-.378-1.08-.378-.42-.378-.42-1.07-.42-1.07zm0 0zm.85-.064c0 .442.26.63.26.63.252.19.63.19.63.19.37 0 .7-.173.7-.173.33-.174.7-.51.7-.51v-1.418c-.64.084-1.08.2-1.08.2-.44.115-.71.273-.71.273-.27.157-.385.362-.385.362-.115.205-.115.446-.115.446zm3.92 1.387zm1.23.86c0 .41.39.653.39.653.39.24 1.084.24 1.084.24.37 0 .668-.088.668-.088.3-.09.51-.23.51-.23.21-.143.33-.332.33-.332.114-.19.114-.39.114-.39 0-.356-.264-.492-.264-.492-.26-.13-.765-.13-.765-.13h-.88c-.14 0-.32-.01-.32-.01-.17-.01-.34-.07-.34-.07-.27.2-.4.42-.4.42-.12.22-.12.44-.12.44zm0 0zm-.76.117c0-.326.2-.62.2-.62.2-.294.543-.535.543-.535v-.042c-.19-.116-.32-.32-.32-.32-.134-.206-.134-.51-.134-.51 0-.326.18-.568.18-.568.18-.24.38-.378.38-.378v-.042c-.26-.21-.46-.562-.46-.562-.21-.352-.21-.814-.21-.814 0-.42.15-.756.15-.756.15-.336.41-.573.41-.573.26-.236.61-.362.61-.362.35-.126.74-.126.74-.126.21 0 .39.03.39.03.18.03.33.09.33.09h1.77v.66h-1.05c.18.18.3.45.3.45.12.27.12.6.12.6 0 .41-.15.74-.15.74-.15.33-.4.55-.4.55-.25.22-.59.35-.59.35-.34.12-.73.12-.73.12-.19 0-.39-.05-.39-.05-.2-.05-.38-.13-.38-.13-.14.11-.23.25-.23.25-.09.14-.09.35-.09.35 0 .24.19.4.19.4.19.16.71.16.71.16h.99c.89 0 1.34.29 1.34.29.45.28.45.92.45.92 0 .35-.18.67-.18.67-.18.32-.52.56-.52.56-.34.24-.81.38-.81.38-.48.14-1.08.14-1.08.14-.48 0-.87-.09-.87-.09-.39-.09-.67-.27-.67-.27-.28-.18-.43-.43-.43-.43-.15-.25-.15-.59-.15-.59zm0 0zm2.11-3.172c.22 0 .413-.084.413-.084.193-.08.345-.24.345-.24.16-.16.24-.38.24-.38.088-.22.088-.51.088-.51 0-.56-.312-.87-.312-.87-.314-.31-.766-.31-.766-.31-.45 0-.77.31-.77.31-.313.31-.313.88-.313.88 0 .29.084.51.084.51.08.23.24.39.24.39.15.16.34.24.34.24.19.09.41.09.41.09zm2.71 2.195zm.86-5.105h.713l.07.924h.03c.26-.49.63-.77.63-.77.374-.29.816-.29.816-.29.3 0 .54.1.54.1l-.17.75c-.12-.04-.23-.07-.23-.07-.1-.02-.26-.02-.26-.02-.33 0-.68.26-.68.26-.35.26-.62.91-.62.91v3.3h-.86v-5.11zM897.4 758zm.48-2.542c0-.63.195-1.13.195-1.13.194-.498.515-.845.515-.845.32-.346.73-.53.73-.53.41-.184.85-.184.85-.184.482 0 .865.16.865.16.38.17.64.48.64.48.25.31.39.75.39.75.134.44.134.98.134.98 0 .28-.03.47-.03.47h-3.45c.05.83.51 1.31.51 1.31.45.48 1.19.48 1.19.48.37 0 .68-.11.68-.11.31-.11.59-.29.59-.29l.3.56c-.34.21-.75.37-.75.37-.41.16-.94.16-.94.16-.52 0-.96-.19-.96-.19-.45-.19-.78-.53-.78-.53-.33-.34-.52-.84-.52-.84-.19-.5-.19-1.13-.19-1.13zm0 0zm3.57-.39c0-.786-.33-1.2-.33-1.2-.33-.416-.93-.416-.93-.416-.27 0-.52.11-.52.11-.245.11-.445.315-.445.315-.2.205-.33.504-.33.504-.132.3-.174.69-.174.69h2.73zM902.6 758zm.483-2.542c0-.63.194-1.13.194-1.13.194-.498.515-.845.515-.845.32-.346.73-.53.73-.53.41-.184.85-.184.85-.184.484 0 .867.16.867.16.38.17.64.48.64.48.25.31.39.75.39.75.13.44.13.98.13.98 0 .28-.03.47-.03.47h-3.45c.05.83.51 1.31.51 1.31.45.48 1.19.48 1.19.48.37 0 .68-.11.68-.11.31-.11.59-.29.59-.29l.3.56c-.34.21-.75.37-.75.37-.41.16-.94.16-.94.16-.52 0-.96-.19-.96-.19-.45-.19-.78-.53-.78-.53-.33-.34-.52-.84-.52-.84-.19-.5-.19-1.13-.19-1.13zm0 0zm3.57-.39c0-.786-.33-1.2-.33-1.2-.33-.416-.93-.416-.93-.416-.273 0-.52.11-.52.11-.246.11-.446.315-.446.315-.2.205-.33.504-.33.504-.132.3-.174.69-.174.69h2.73zM907.81 758zm.682-4.317c0-.305.184-.49.184-.49.184-.182.446-.182.446-.182.253 0 .436.19.436.19.184.19.184.49.184.49 0 .28-.184.47-.184.47-.183.19-.435.19-.435.19-.263 0-.447-.18-.447-.18-.184-.18-.184-.46-.184-.46zm0 0zm0 3.792c0-.305.184-.49.184-.49.184-.182.446-.182.446-.182.253 0 .436.183.436.183.184.184.184.49.184.49 0 .282-.184.466-.184.466-.183.184-.435.184-.435.184-.263 0-.447-.184-.447-.184-.184-.184-.184-.467-.184-.467zm4.055.525zm2.468-3.256c.326 0 .7-.205.7-.205.372-.21.708-.69.708-.69-.084-.99-.462-1.49-.462-1.49-.37-.51-1.01-.51-1.01-.51-.24 0-.45.1-.45.1-.21.1-.37.3-.37.3-.16.19-.24.46-.24.46-.09.27-.09.6-.09.6 0 .66.31 1.04.31 1.04.31.37.94.37.94.37zm0 0zm-1.45 2.132c.21.242.5.39.5.39.29.146.604.146.604.146.35 0 .67-.147.67-.147.31-.147.55-.49.55-.49.24-.34.39-.886.39-.886.14-.55.15-1.36.15-1.36-.32.4-.74.63-.74.63-.42.23-.84.23-.84.23-.87 0-1.39-.52-1.39-.52-.52-.52-.52-1.56-.52-1.56 0-.49.16-.88.16-.88.15-.4.42-.68.42-.68.26-.28.63-.44.63-.44.36-.16.76-.16.76-.16.49 0 .92.2.92.2.42.2.73.6.73.6.31.4.48 1.01.48 1.01.17.6.17 1.41.17 1.41 0 1.01-.21 1.72-.21 1.72-.21.71-.57 1.15-.57 1.15-.36.44-.81.65-.81.65-.46.2-.96.2-.96.2-.54 0-.95-.2-.95-.2-.41-.2-.68-.51-.68-.51zm4.202 1.124zm.683-1.355c.294.305.7.536.7.536.403.24.99.24.99.24.306 0 .574-.11.574-.11.268-.11.467-.31.467-.31.2-.2.32-.48.32-.48.12-.28.12-.63.12-.63 0-.69-.39-1.08-.39-1.08-.38-.39-1.04-.39-1.04-.39-.34 0-.59.11-.59.11-.24.11-.55.31-.55.31l-.46-.29.22-3.22h3.35v.75h-2.59l-.18 1.99c.25-.13.49-.2.49-.2.24-.07.55-.07.55-.07.43 0 .81.13.81.13.38.13.66.39.66.39.29.26.45.65.45.65.17.4.17.94.17.94 0 .55-.19.97-.19.97-.19.42-.5.71-.5.71-.31.29-.72.44-.72.44-.4.15-.84.15-.84.15-.4 0-.73-.08-.73-.08-.33-.08-.6-.2-.6-.2-.26-.12-.48-.28-.48-.28-.21-.16-.38-.34-.38-.34z"/></svg>