<svg xmlns="http://www.w3.org/2000/svg" stroke="#000" viewBox="0 0 1024 768" font-size="1"><path fill="#FFF" stroke="none" d="M0 0v768h1024V0z"/><path stroke="none" d="M445.9 14.102zm1.187-10.04h2.834c1.16 0 2.08.29 2.08.29.93.294 1.59.902 1.59.902.67.608 1.02 1.548 1.02 1.548.36.94.36 2.233.36 2.233 0 1.293-.35 2.248-.35 2.248-.35.955-1 1.58-1 1.58-.65.623-1.55.93-1.55.93-.9.31-2.01.31-2.01.31h-2.96V4.06zm0 0zm2.695 8.207c.647 0 1.17-.17 1.17-.17.524-.17.894-.55.894-.55.37-.38.577-1 .577-1 .208-.62.208-1.53.208-1.53 0-.9-.2-1.5-.2-1.5-.21-.61-.57-.97-.57-.97-.37-.37-.89-.52-.89-.52-.52-.16-1.17-.16-1.17-.16h-.43v6.37h.44zm5.9 1.83zm.553-3.82c0-.96.308-1.7.308-1.7.308-.75.824-1.26.824-1.26.516-.51 1.193-.78 1.193-.78.678-.27 1.402-.27 1.402-.27.724 0 1.394.27 1.394.27.67.27 1.185.77 1.185.77.52.51.83 1.25.83 1.25.31.74.31 1.7.31 1.7 0 .95-.31 1.7-.31 1.7-.31.74-.82 1.25-.82 1.25-.51.5-1.18.77-1.18.77-.67.27-1.39.27-1.39.27-.72 0-1.4-.27-1.4-.27-.67-.27-1.19-.78-1.19-.78-.51-.51-.82-1.26-.82-1.26-.3-.75-.3-1.71-.3-1.71zm0 0zm2.326 0c0 1 .35 1.58.35 1.58.35.58 1.06.58 1.06.58.7 0 1.05-.59 1.05-.59.36-.59.36-1.59.36-1.59 0-1-.35-1.59-.35-1.59-.35-.59-1.05-.59-1.05-.59-.7 0-1.05.58-1.05.58-.34.58-.34 1.58-.34 1.58zm8.87 3.82zm1.18 1.11c.11.03.25.06.25.06.14.03.26.03.26.03.57 0 .88-.28.88-.28.31-.28.46-.73.46-.73l.11-.4-2.94-7.44h2.28L471 9.73c.17.525.307 1.064.307 1.064.14.54.294 1.11.294 1.11h.06c.12-.54.26-1.087.26-1.087.13-.55.27-1.09.27-1.09l.93-3.28h2.17l-2.65 7.72c-.27.723-.57 1.27-.57 1.27-.3.546-.69.91-.69.91-.39.36-.89.545-.89.545-.5.184-1.18.184-1.18.184-.35 0-.6-.04-.6-.04-.24-.037-.48-.114-.48-.114l.41-1.724zm6.73-1.11zm.56-3.82c0-.96.31-1.7.31-1.7.31-.75.83-1.26.83-1.26.52-.51 1.2-.78 1.2-.78.68-.27 1.41-.27 1.41-.27.73 0 1.4.27 1.4.27.67.27 1.19.77 1.19.77.52.51.83 1.25.83 1.25.31.74.31 1.7.31 1.7 0 .95-.31 1.7-.31 1.7-.31.74-.82 1.25-.82 1.25-.51.5-1.18.77-1.18.77-.67.27-1.39.27-1.39.27-.72 0-1.4-.27-1.4-.27-.67-.27-1.19-.78-1.19-.78-.51-.51-.82-1.26-.82-1.26-.31-.75-.31-1.71-.31-1.71zm0 0zm2.33 0c0 1 .35 1.58.35 1.58.35.58 1.06.58 1.06.58.7 0 1.05-.59 1.05-.59.36-.59.36-1.59.36-1.59 0-1-.35-1.59-.35-1.59-.35-.59-1.05-.59-1.05-.59-.71 0-1.05.58-1.05.58-.34.58-.34 1.58-.34 1.58zm5.67 3.82zm.93-7.64h2.27v4.45c0 .83.23 1.14.23 1.14.23.3.73.3.73.3.43 0 .73-.2.73-.2.3-.2.63-.65.63-.65V6.46h2.27v7.64h-1.85l-.17-1.063h-.04c-.49.584-1.06.915-1.06.915-.56.33-1.34.33-1.34.33-1.24 0-1.81-.815-1.81-.815-.56-.816-.56-2.264-.56-2.264v-4.74zm11.03 7.64zm.93-7.64h2.27v4.45c0 .83.23 1.14.23 1.14.23.3.73.3.73.3.43 0 .72-.2.72-.2.29-.2.63-.65.63-.65V6.46h2.27v7.64h-1.84l-.17-1.063h-.04c-.49.584-1.05.915-1.05.915-.56.33-1.35.33-1.35.33-1.24 0-1.81-.815-1.81-.815-.56-.816-.56-2.264-.56-2.264v-4.74zm7.83 7.64zm1.34-2.3c.53.4 1 .6 1 .6.48.2.97.2.97.2.51 0 .74-.17.74-.17.23-.17.23-.48.23-.48 0-.19-.13-.33-.13-.33-.13-.15-.35-.27-.35-.27-.22-.13-.5-.23-.5-.23-.28-.1-.57-.23-.57-.23-.35-.14-.71-.33-.71-.33-.35-.19-.64-.46-.64-.46-.29-.27-.48-.63-.48-.63-.18-.37-.18-.84-.18-.84 0-.53.21-.97.21-.97.21-.45.6-.76.6-.76.39-.31.93-.49.93-.49.54-.18 1.2-.18 1.2-.18.88 0 1.54.3 1.54.3.66.3 1.16.67 1.16.67l-1.03 1.36c-.42-.31-.82-.48-.82-.48-.4-.17-.8-.17-.8-.17-.86 0-.86.6-.86.6 0 .18.12.31.12.31.12.13.33.24.33.24.21.1.48.2.48.2l.56.21c.37.13.73.31.73.31.36.17.66.43.66.43.3.26.48.64.48.64.19.38.19.9.19.9 0 .52-.2.97-.2.97-.2.45-.6.78-.6.78-.4.33-.982.52-.982.52-.583.19-1.353.19-1.353.19-.76 0-1.55-.29-1.55-.29-.8-.3-1.38-.77-1.38-.77zm5.48 2.29zm.56-3.82c0-.93.31-1.67.31-1.67.31-.75.81-1.27.81-1.27.5-.52 1.15-.8 1.15-.8.65-.28 1.34-.28 1.34-.28.82 0 1.43.27 1.43.27.61.28 1.02.77 1.02.77.41.49.61 1.16.61 1.16.2.67.2 1.45.2 1.45 0 .31-.03.56-.03.56-.03.25-.06.39-.06.39h-4.58c.16.87.69 1.27.69 1.27.53.39 1.3.39 1.3.39.82 0 1.65-.51 1.65-.51l.76 1.37c-.58.4-1.3.63-1.3.63-.71.23-1.41.23-1.41.23-.81 0-1.52-.27-1.52-.27-.71-.27-1.23-.79-1.23-.79-.52-.52-.82-1.26-.82-1.26-.29-.74-.29-1.7-.29-1.7zm0 0zm4.93-.79c0-.66-.29-1.08-.29-1.08-.29-.42-.99-.42-.99-.42-.54 0-.94.36-.94.36-.41.36-.53 1.13-.53 1.13h2.76zm5.7 4.6zm1.19-10.04h2.27v3.87h3.47V4.06h2.28v10.042h-2.28v-4.19h-3.46v4.19h-2.27V4.062zM533 14.08zm.725-2.13c0-1.2 1.016-1.88 1.016-1.88 1.02-.676 3.28-.907 3.28-.907-.03-.51-.31-.81-.31-.81-.27-.3-.89-.3-.89-.3-.49 0-.98.183-.98.183-.49.183-1.05.506-1.05.506l-.8-1.49c.74-.447 1.55-.725 1.55-.725.81-.28 1.72-.28 1.72-.28 1.48 0 2.26.84 2.26.84.78.84.78 2.61.78 2.61v4.38h-1.85l-.17-.788h-.04c-.5.43-1.04.7-1.04.7-.55.27-1.2.27-1.2.27-.52 0-.94-.18-.94-.18-.41-.18-.71-.5-.71-.5-.29-.32-.45-.73-.45-.73-.16-.41-.16-.9-.16-.9zm0 0zm2.156-.17c0 .37.24.55.24.55.24.176.64.176.64.176.4 0 .68-.17.68-.17.28-.168.59-.476.59-.476v-1.34c-1.21.17-1.67.496-1.67.496-.46.324-.46.77-.46.77zm5.35 2.296zm1.34-2.296c.53.4 1 .6 1 .6.48.2.97.2.97.2.51 0 .74-.17.74-.17.23-.165.23-.473.23-.473 0-.183-.13-.33-.13-.33-.13-.145-.35-.27-.35-.27-.22-.122-.5-.222-.5-.222-.28-.1-.57-.224-.57-.224-.36-.14-.71-.32-.71-.32-.35-.18-.65-.45-.65-.45-.29-.27-.47-.63-.47-.63-.18-.36-.18-.84-.18-.84 0-.52.21-.97.21-.97.21-.45.6-.76.6-.76.39-.31.93-.48.93-.48.54-.18 1.2-.18 1.2-.18.88 0 1.54.3 1.54.3.66.3 1.16.67 1.16.67l-1.02 1.36c-.41-.3-.81-.47-.81-.47-.4-.17-.8-.17-.8-.17-.865 0-.865.6-.865.6 0 .19.13.32.13.32.12.13.33.24.33.24.21.11.48.21.48.21l.56.21c.37.14.73.32.73.32.36.18.66.44.66.44.3.26.487.64.487.64.184.38.184.9.184.9 0 .52-.2.97-.2.97-.2.45-.6.78-.6.78-.4.33-.983.53-.983.53-.59.19-1.36.19-1.36.19-.755 0-1.55-.29-1.55-.29-.79-.29-1.38-.77-1.38-.77zm5.48 2.298zm1-10.795h2.21v6.19h.06l2.42-3.034h2.46l-2.69 3.15 2.88 4.49h-2.45l-1.72-2.97-.97 1.09v1.88h-2.2V3.3zm7.01 10.795zm.56-3.82c0-.922.31-1.67.31-1.67.31-.746.81-1.26.81-1.26.5-.517 1.15-.795 1.15-.795.65-.28 1.34-.28 1.34-.28.82 0 1.43.28 1.43.28.61.276 1.01.77 1.01.77.41.49.61 1.16.61 1.16.2.67.2 1.457.2 1.457 0 .31-.03.568-.03.568-.03.25-.06.39-.06.39h-4.58c.16.88.69 1.27.69 1.27.54.395 1.31.395 1.31.395.82 0 1.65-.51 1.65-.51l.76 1.37c-.59.4-1.3.63-1.3.63-.72.23-1.41.23-1.41.23-.82 0-1.53-.27-1.53-.27-.71-.27-1.23-.786-1.23-.786-.52-.52-.82-1.258-.82-1.258-.29-.74-.29-1.7-.29-1.7zm0 0zm4.92-.78c0-.66-.29-1.08-.29-1.08-.3-.42-.99-.42-.99-.42-.54 0-.95.365-.95.365-.41.362-.53 1.132-.53 1.132h2.76zm2.5 4.606zm1-10.793h2.27v8.52c0 .36.13.5.13.5.13.14.27.14.27.14h.13l.15-.03.28 1.68c-.18.08-.47.13-.47.13-.28.06-.67.06-.67.06-.58 0-.98-.18-.98-.18-.4-.18-.64-.51-.64-.51-.24-.33-.35-.8-.35-.8-.1-.47-.1-1.05-.1-1.05V3.31zm3.4 10.8zm1-10.79h2.26v8.52c0 .36.14.5.14.5.13.14.27.14.27.14h.13l.15-.03.28 1.68c-.18.08-.47.13-.47.13-.28.06-.67.06-.67.06-.58 0-.98-.18-.98-.18-.4-.18-.63-.51-.63-.51-.24-.33-.34-.8-.34-.8-.11-.47-.11-1.06-.11-1.06V3.3zm3.4 10.79zm2.37-3.55c-.07-.52.04-.95.04-.95.12-.43.33-.8.33-.8.22-.37.49-.67.49-.67l.52-.59c.25-.29.41-.55.41-.55.16-.27.16-.56.16-.56 0-.48-.28-.72-.28-.72-.28-.25-.74-.25-.74-.25-.43 0-.76.2-.76.2-.33.2-.64.51-.64.51L573.44 5c.52-.63 1.23-1.015 1.23-1.015.71-.385 1.57-.385 1.57-.385.65 0 1.21.15 1.21.15.56.15.97.47.97.47.41.32.64.82.64.82.23.5.23 1.18.23 1.18 0 .47-.17.85-.17.85-.17.37-.42.7-.42.7-.25.32-.538.62-.538.62-.29.3-.53.62-.53.62-.24.32-.38.68-.38.68-.14.36-.09.82-.09.82h-1.99zm0 0zm-.37 2.33c0-.61.39-1.02.39-1.02.39-.41.97-.41.97-.41.59 0 .98.41.98.41.39.41.39 1.03.39 1.03 0 .6-.39 1.01-.39 1.01-.39.41-.97.41-.97.41-.58 0-.97-.4-.97-.4-.38-.41-.38-1.01-.38-1.01z"/><path fill="none" stroke="#D3D3D3" stroke-miterlimit="10" d="M39.59 738h948.937M39.59 597.4h948.937M39.59 456.8h948.937M39.59 316.2h948.937M39.59 175.6h948.937M39.59 35h948.937" stroke-dasharray="5 5"/><g fill="#5C3566" stroke-opacity="0" stroke-width="0" stroke-miterlimit="10" stroke-linejoin="bevel"><defs><clipPath id="a"><path d="M39.59 35v703h948.937V35z"/></clipPath></defs><g clip-path="url(#a)"><path stroke="none" d="M54.59 738V75.493h286.313V738z"/></g></g><g fill-opacity="0" stroke-miterlimit="10"><defs><clipPath id="b"><path d="M39.59 35v703h948.937V35z"/></clipPath></defs><g clip-path="url(#b)"><path fill="none" d="M54.59 738V75.493h286.313V738z"/></g></g><g fill="#5C3566" stroke-opacity="0" stroke-width="0" stroke-miterlimit="10" stroke-linejoin="bevel"><defs><clipPath id="c"><path d="M39.59 35v703h948.937V35z"/></clipPath></defs><g clip-path="url(#c)"><path stroke="none" d="M370.903 738v-52.303h286.312V738z"/></g></g><g fill-opacity="0" stroke-miterlimit="10"><defs><clipPath id="d"><path d="M39.59 35v703h948.937V35z"/></clipPath></defs><g clip-path="url(#d)"><path fill="none" d="M370.903 738v-52.303h286.312V738z"/></g></g><g fill="#5C3566" stroke-opacity="0" stroke-width="0" stroke-miterlimit="10" stroke-linejoin="bevel"><defs><clipPath id="e"><path d="M39.59 35v703h948.937V35z"/></clipPath></defs><g clip-path="url(#e)"><path stroke="none" d="M687.215 738v-26.995h286.312V738z"/></g></g><g fill-opacity="0" stroke-miterlimit="10"><defs><clipPath id="f"><path d="M39.59 35v703h948.937V35z"/></clipPath></defs><g clip-path="url(#f)"><path fill="none" d="M687.215 738v-26.995h286.312V738z"/></g></g><path fill="none" stroke-miterlimit="10" d="M39.59 738V35" stroke-linecap="square"/><path fill="none" stroke-miterlimit="10" d="M39.59 738h2m-2-112.48h2m-2-112.48h2m-2-112.48h2m-2-112.48h2m-2-112.48h2m-2-112.48h2m-2-112.48h2m-2 787.36h5m-5-140.6h5m-5-140.6h5m-5-140.6h5m-5-140.6h5m-5-140.6h5"/><path stroke="none" d="M25.294 741.445zm2.616.126c-1.02 0-1.586-.9-1.586-.9-.568-.9-.568-2.59-.568-2.59 0-1.69.568-2.57.568-2.57.567-.88 1.586-.88 1.586-.88 1.008 0 1.575.88 1.575.88.568.89.568 2.58.568 2.58 0 1.69-.568 2.6-.568 2.6-.567.91-1.575.91-1.575.91zm0 0zm0-.69c.294 0 .53-.16.53-.16.236-.16.41-.5.41-.5.173-.34.268-.87.268-.87.094-.53.094-1.26.094-1.26 0-.73-.094-1.26-.094-1.26-.095-.52-.268-.85-.268-.85-.173-.33-.41-.49-.41-.49-.236-.16-.53-.16-.53-.16-.294 0-.536.16-.536.16-.242.16-.415.49-.415.49-.18.33-.27.86-.27.86-.1.53-.1 1.26-.1 1.26 0 1.47.36 2.14.36 2.14.36.67.95.67.95.67zM14.77 600.85zm.42-.514c.755-.754 1.344-1.363 1.344-1.363.588-.61.987-1.13.987-1.13.4-.52.61-.955.61-.955.21-.434.21-.844.21-.844 0-.576-.31-.944-.31-.944-.31-.37-.95-.37-.95-.37-.42 0-.77.24-.77.24-.35.235-.65.57-.65.57l-.49-.492c.42-.462.9-.74.9-.74.48-.28 1.14-.28 1.14-.28.94 0 1.47.543 1.47.543.54.54.54 1.44.54 1.44 0 .47-.2.95-.2.95-.2.48-.57.99-.57.99-.36.51-.86 1.06-.86 1.06-.5.56-1.09 1.18-1.09 1.18l.57-.04c.3-.02.56-.02.56-.02h1.95v.75H15.2v-.51zm4.8.517zm.682-1.355c.294.307.7.538.7.538.403.23.99.23.99.23.306 0 .574-.11.574-.11.268-.11.467-.31.467-.31.2-.2.315-.482.315-.482.116-.283.116-.63.116-.63 0-.693-.39-1.082-.39-1.082-.387-.387-1.04-.387-1.04-.387-.345 0-.592.106-.592.106-.247.11-.552.31-.552.31l-.462-.29.22-3.22h3.352v.75h-2.595l-.18 1.99c.243-.12.485-.2.485-.2.24-.07.546-.07.546-.07.43 0 .81.13.81.13.377.13.66.39.66.39.284.26.447.65.447.65.163.4.163.94.163.94 0 .55-.19.97-.19.97-.19.42-.504.71-.504.71-.315.29-.72.44-.72.44-.404.15-.845.15-.845.15-.4 0-.73-.08-.73-.08-.33-.08-.598-.2-.598-.2-.27-.12-.49-.29-.49-.29-.22-.16-.39-.34-.39-.34zm4.538 1.357zm2.616.127c-1.02 0-1.586-.903-1.586-.903-.568-.91-.568-2.6-.568-2.6 0-1.69.567-2.58.567-2.58.56-.88 1.58-.88 1.58-.88 1.01 0 1.57.88 1.57.88.56.88.56 2.57.56 2.57 0 1.69-.57 2.59-.57 2.59-.57.9-1.58.9-1.58.9zm0 0zm0-.693c.294 0 .53-.17.53-.17.236-.16.41-.51.41-.51.173-.34.268-.87.268-.87.094-.53.094-1.27.094-1.27 0-.74-.094-1.26-.094-1.26-.095-.53-.268-.86-.268-.86-.173-.33-.41-.49-.41-.49-.236-.16-.53-.16-.53-.16-.294 0-.536.16-.536.16-.242.15-.415.48-.415.48-.173.33-.268.85-.268.85-.094.52-.094 1.26-.094 1.26 0 1.47.362 2.13.362 2.13.362.67.95.67.95.67zM14.653 460.25zm.683-1.355c.294.308.7.54.7.54.403.23.99.23.99.23.306 0 .574-.11.574-.11.268-.11.467-.31.467-.31.2-.2.315-.483.315-.483.116-.284.116-.63.116-.63 0-.694-.39-1.082-.39-1.082-.388-.39-1.04-.39-1.04-.39-.345 0-.592.106-.592.106-.247.105-.552.304-.552.304l-.462-.294.22-3.226h3.35v.745H16.44l-.18 1.98c.242-.125.483-.2.483-.2.242-.072.547-.072.547-.072.43 0 .808.127.808.127.38.126.662.383.662.383.284.257.447.65.447.65.162.395.162.94.162.94 0 .548-.19.968-.19.968-.19.42-.51.71-.51.71-.32.29-.72.44-.72.44-.41.16-.85.16-.85.16-.4 0-.73-.08-.73-.08-.33-.08-.6-.2-.6-.2-.27-.12-.48-.29-.48-.29-.22-.16-.39-.34-.39-.34zm4.538 1.358zm2.616.127c-1.02 0-1.587-.9-1.587-.9-.567-.903-.567-2.595-.567-2.595 0-1.69.567-2.574.567-2.574.568-.88 1.586-.88 1.586-.88 1 0 1.57.88 1.57.88.56.89.56 2.58.56 2.58 0 1.69-.57 2.6-.57 2.6-.57.91-1.58.91-1.58.91zm0 0zm0-.69c.294 0 .53-.163.53-.163.236-.162.41-.504.41-.504.173-.34.268-.87.268-.87.094-.53.094-1.266.094-1.266 0-.738-.094-1.26-.094-1.26-.095-.528-.268-.86-.268-.86-.174-.33-.41-.49-.41-.49-.236-.16-.53-.16-.53-.16-.295 0-.536.16-.536.16-.242.158-.415.49-.415.49-.18.33-.27.855-.27.855-.1.524-.1 1.26-.1 1.26 0 1.47.36 2.137.36 2.137.36.66.95.66.95.66zm2.605.567zm2.615.126c-1.02 0-1.586-.902-1.586-.902-.567-.9-.567-2.59-.567-2.59 0-1.69.567-2.57.567-2.57.567-.88 1.586-.88 1.586-.88 1.01 0 1.576.89 1.576.89.567.88.567 2.58.567 2.58 0 1.69-.567 2.6-.567 2.6-.567.91-1.576.91-1.576.91zm0 0zm0-.692c.294 0 .53-.16.53-.16.237-.16.41-.5.41-.5.174-.34.268-.87.268-.87.095-.53.095-1.26.095-1.26 0-.73-.095-1.26-.095-1.26-.094-.52-.268-.85-.268-.85-.173-.33-.41-.48-.41-.48-.236-.16-.53-.16-.53-.16-.294 0-.536.16-.536.16-.24.16-.414.49-.414.49-.174.33-.268.86-.268.86-.095.53-.095 1.26-.095 1.26 0 1.47.363 2.14.363 2.14.362.67.95.67.95.67zM14.853 319.65zm1.86 0c.04-.945.167-1.733.167-1.733.126-.788.352-1.497.352-1.497.226-.71.578-1.37.578-1.37.352-.662.846-1.355.846-1.355h-3.34v-.74h4.316v.534c-.598.75-.97 1.45-.97 1.45-.374.69-.595 1.41-.595 1.41-.22.72-.32 1.52-.32 1.52-.1.8-.142 1.78-.142 1.78h-.893zm3.36 0zm.683-1.355c.294.31.7.54.7.54.403.23.99.23.99.23.306 0 .574-.11.574-.11.268-.11.467-.31.467-.31.2-.2.315-.48.315-.48.116-.285.116-.63.116-.63 0-.695-.39-1.083-.39-1.083-.387-.39-1.04-.39-1.04-.39-.345 0-.592.105-.592.105-.247.105-.552.304-.552.304l-.462-.29.22-3.22h3.352v.75H21.86l-.18 1.98c.242-.12.484-.2.484-.2.24-.07.546-.07.546-.07.43 0 .81.13.81.13.377.13.66.38.66.38.284.26.447.65.447.65.163.4.163.94.163.94 0 .55-.19.97-.19.97-.19.42-.504.71-.504.71-.315.29-.72.44-.72.44-.404.16-.845.16-.845.16-.39 0-.73-.08-.73-.08-.33-.08-.59-.2-.59-.2-.27-.12-.48-.29-.48-.29-.21-.16-.38-.34-.38-.34zm4.538 1.36zm2.616.126c-1.02 0-1.586-.9-1.586-.9-.568-.9-.568-2.59-.568-2.59 0-1.69.568-2.57.568-2.57.567-.88 1.586-.88 1.586-.88 1.008 0 1.575.88 1.575.88.568.89.568 2.58.568 2.58 0 1.69-.568 2.6-.568 2.6-.567.9-1.575.9-1.575.9zm0 0zm0-.69c.294 0 .53-.16.53-.16.236-.16.41-.5.41-.5.173-.34.268-.87.268-.87.094-.53.094-1.26.094-1.26 0-.74-.094-1.26-.094-1.26-.095-.53-.268-.86-.268-.86-.173-.33-.41-.49-.41-.49-.236-.16-.53-.16-.53-.16-.294 0-.536.16-.536.16-.242.16-.415.49-.415.49-.18.33-.27.86-.27.86-.1.53-.1 1.26-.1 1.26 0 1.47.36 2.14.36 2.14.36.67.95.67.95.67zM10 179.05zm.83-.715h1.533v-4.93h-1.218v-.553c.462-.085.804-.205.804-.205.34-.12.61-.29.61-.29h.66v5.988h1.38v.716h-3.78v-.71zm4.39.72zm2.616.13c-1.02 0-1.586-.902-1.586-.902-.567-.9-.567-2.593-.567-2.593 0-1.69.567-2.573.567-2.573.567-.882 1.586-.882 1.586-.882 1.01 0 1.576.884 1.576.884.567.88.567 2.57.567 2.57 0 1.69-.57 2.59-.57 2.59-.57.9-1.58.9-1.58.9zm0 0zm0-.692c.294 0 .53-.16.53-.16.237-.16.41-.504.41-.504.174-.34.268-.87.268-.87.095-.53.095-1.27.095-1.27 0-.74-.1-1.26-.1-1.26-.1-.53-.27-.86-.27-.86-.18-.33-.41-.49-.41-.49-.24-.16-.53-.16-.53-.16-.3 0-.54.16-.54.16-.24.15-.42.48-.42.48-.18.33-.27.85-.27.85-.1.53-.1 1.26-.1 1.26 0 1.47.36 2.14.36 2.14.36.67.95.67.95.67zm2.605.57zm2.62.126c-1.02 0-1.58-.91-1.58-.91-.56-.9-.56-2.59-.56-2.59 0-1.69.57-2.57.57-2.57.57-.88 1.59-.88 1.59-.88 1.01 0 1.58.88 1.58.88.57.88.57 2.57.57 2.57 0 1.69-.56 2.59-.56 2.59-.57.9-1.58.9-1.58.9zm0 0zm0-.7c.3 0 .53-.16.53-.16.24-.16.41-.51.41-.51.18-.34.27-.87.27-.87.1-.53.1-1.27.1-1.27 0-.74-.09-1.26-.09-1.26-.09-.53-.27-.86-.27-.86-.17-.33-.41-.49-.41-.49-.23-.16-.53-.16-.53-.16-.29 0-.53.16-.53.16-.24.15-.41.48-.41.48-.17.33-.27.85-.27.85-.09.52-.09 1.26-.09 1.26 0 1.47.36 2.14.36 2.14.36.66.95.66.95.66zm2.61.57zm2.62.12c-1.02 0-1.58-.91-1.58-.91-.56-.91-.56-2.6-.56-2.6 0-1.69.57-2.58.57-2.58.57-.89 1.59-.89 1.59-.89 1.01 0 1.58.88 1.58.88.57.88.57 2.57.57 2.57 0 1.69-.57 2.59-.57 2.59-.56.9-1.57.9-1.57.9zm0 0zm0-.7c.3 0 .53-.17.53-.17.24-.16.41-.5.41-.5.18-.34.27-.87.27-.87.1-.53.1-1.27.1-1.27 0-.74-.09-1.26-.09-1.26-.09-.53-.26-.86-.26-.86-.17-.33-.41-.49-.41-.49-.23-.16-.53-.16-.53-.16-.29 0-.53.16-.53.16-.24.15-.41.48-.41.48-.17.33-.27.86-.27.86-.09.52-.09 1.26-.09 1.26 0 1.47.36 2.14.36 2.14.36.67.95.67.95.67zM10 38.44zm.83-.714h1.533V32.8h-1.218v-.557c.462-.084.804-.204.804-.204.34-.12.61-.29.61-.29h.66v5.98h1.38v.71h-3.78v-.72zm4.39.72zm.42-.52c.757-.76 1.345-1.368 1.345-1.368.59-.61.988-1.13.988-1.13.4-.52.61-.95.61-.95.21-.433.21-.842.21-.842 0-.58-.316-.945-.316-.945-.315-.36-.956-.36-.956-.36-.42 0-.77.24-.77.24-.35.24-.65.57-.65.57l-.49-.49c.42-.46.9-.74.9-.74.47-.28 1.14-.28 1.14-.28.94 0 1.47.54 1.47.54.54.54.54 1.44.54 1.44 0 .47-.2.95-.2.95-.2.48-.57.99-.57.99-.36.51-.86 1.06-.86 1.06-.5.55-1.1 1.17-1.1 1.17l.57-.04c.3-.02.56-.02.56-.02H20v.75h-4.33v-.51zm4.8.512zm.684-1.35c.294.308.698.54.698.54.405.23.993.23.993.23.305 0 .572-.11.572-.11.268-.11.468-.31.468-.31.2-.2.315-.48.315-.48.116-.285.116-.63.116-.63 0-.695-.39-1.08-.39-1.08-.388-.39-1.04-.39-1.04-.39-.346 0-.593.103-.593.103-.246.11-.55.31-.55.31l-.463-.3.22-3.23h3.35v.75h-2.593l-.18 1.99c.243-.12.484-.2.484-.2.25-.07.55-.07.55-.07.43 0 .81.13.81.13.38.12.66.38.66.38.29.26.45.65.45.65.17.39.17.94.17.94 0 .55-.19.97-.19.97-.19.42-.5.71-.5.71-.31.29-.72.44-.72.44-.4.15-.84.15-.84.15-.4 0-.73-.07-.73-.07-.33-.08-.6-.2-.6-.2-.26-.12-.48-.29-.48-.29-.21-.16-.38-.34-.38-.34zm4.538 1.358zm2.615.127c-1.02 0-1.586-.9-1.586-.9-.56-.9-.56-2.595-.56-2.595 0-1.69.57-2.576.57-2.576.57-.88 1.59-.88 1.59-.88 1.01 0 1.58.88 1.58.88.57.883.57 2.574.57 2.574 0 1.69-.56 2.59-.56 2.59-.57.905-1.58.905-1.58.905zm0 0zm0-.69c.294 0 .53-.16.53-.16.237-.16.41-.505.41-.505.174-.34.268-.87.268-.87.095-.53.095-1.27.095-1.27 0-.736-.095-1.26-.095-1.26-.094-.526-.267-.857-.267-.857-.174-.33-.41-.49-.41-.49-.236-.16-.53-.16-.53-.16-.295 0-.536.16-.536.16-.242.16-.415.49-.415.49-.174.33-.268.86-.268.86-.1.53-.1 1.26-.1 1.26 0 1.47.36 2.14.36 2.14.36.67.95.67.95.67z"/><path fill="none" stroke-miterlimit="10" d="M39.59 738h948.937" stroke-linecap="square"/><path stroke="none" d="M178.056 758zm2.06-2.668l-2.07-4.223h.935l.9 1.94.33.74c.16.37.34.75.34.75h.04c.18-.39.36-.76.36-.76.18-.37.34-.75.34-.75l.89-1.95h.91l-2.09 4.25V758h-.88v-2.668zm2.51 2.668zm.483-2.542c0-.63.19-1.13.19-1.13.19-.498.51-.845.51-.845.32-.346.73-.53.73-.53.41-.184.85-.184.85-.184.48 0 .86.16.86.16.38.17.64.48.64.48.26.31.39.75.39.75.13.44.13.98.13.98 0 .28-.03.47-.03.47h-3.45c.05.83.51 1.31.51 1.31.45.48 1.19.48 1.19.48.37 0 .68-.11.68-.11.31-.11.59-.29.59-.29l.31.56c-.34.21-.75.37-.75.37-.41.16-.94.16-.94.16-.52 0-.96-.19-.96-.19-.45-.19-.78-.53-.78-.53-.33-.34-.52-.84-.52-.84-.19-.5-.19-1.13-.19-1.13zm0 0zm3.57-.39c0-.786-.33-1.2-.33-1.2-.34-.416-.93-.416-.93-.416-.28 0-.52.11-.52.11-.25.11-.45.315-.45.315-.2.205-.33.504-.33.504-.13.3-.18.69-.18.69h2.73zm1.15 2.932zm.72-1.155c.33.273.69.44.69.44.35.17.81.17.81.17.5 0 .75-.232.75-.232.25-.23.25-.567.25-.567 0-.2-.11-.347-.11-.347-.11-.15-.27-.26-.27-.26-.17-.11-.38-.2-.38-.2l-.42-.17c-.28-.1-.55-.22-.55-.22-.28-.12-.49-.3-.49-.3-.22-.18-.35-.41-.35-.41-.14-.23-.14-.56-.14-.56 0-.31.12-.58.12-.58.12-.27.34-.46.34-.46.22-.19.55-.31.55-.31.33-.11.73-.11.73-.11.48 0 .89.17.89.17.4.16.7.41.7.41l-.41.54c-.27-.2-.55-.33-.55-.33-.28-.13-.62-.13-.62-.13-.48 0-.71.22-.71.22-.23.22-.23.51-.23.51 0 .18.09.31.09.31.09.13.25.23.25.23.15.1.36.18.36.18l.42.16c.27.1.55.22.55.22.28.11.5.29.5.29.22.17.36.42.36.42.14.25.14.61.14.61 0 .31-.12.59-.12.59-.12.27-.36.48-.36.48-.24.21-.59.33-.59.33-.36.12-.81.12-.81.12-.55 0-1.04-.2-1.04-.2-.5-.2-.86-.51-.86-.51zm3.68 1.155zm.68-4.317c0-.305.18-.49.18-.49.18-.182.44-.182.44-.182.25 0 .43.19.43.19.18.19.18.49.18.49 0 .28-.19.47-.19.47-.19.19-.44.19-.44.19-.26 0-.44-.18-.44-.18-.19-.18-.19-.46-.19-.46zm0 0zm0 3.792c0-.305.18-.49.18-.49.18-.182.44-.182.44-.182.25 0 .43.183.43.183.18.184.18.49.18.49 0 .282-.19.466-.19.466-.19.184-.44.184-.44.184-.26 0-.44-.184-.44-.184-.19-.184-.19-.467-.19-.467zm4.05.525zm.83-.714h1.53v-4.937h-1.22v-.56c.46-.09.8-.21.8-.21.34-.12.61-.29.61-.29h.66v5.99h1.38v.72h-3.78v-.72zm4.39.714zm.83-.714h1.53v-4.937h-1.22v-.56c.46-.09.8-.21.8-.21.34-.12.61-.29.61-.29h.66v5.99h1.38v.72H203v-.72zm4.39.714zm1.86 0c.04-.945.17-1.733.17-1.733.12-.788.35-1.497.35-1.497.22-.71.58-1.37.58-1.37.35-.663.84-1.356.84-1.356h-3.34v-.746h4.31v.536c-.6.756-.97 1.45-.97 1.45-.38.693-.6 1.412-.6 1.412-.22.72-.32 1.524-.32 1.524-.1.803-.14 1.78-.14 1.78h-.9zm3.36 0zm1.21-1.796c0 .283.11.515.11.515.11.23.3.4.3.4.19.17.46.27.46.27.26.09.56.09.56.09.59 0 .95-.33.95-.33.36-.33.36-.85.36-.85 0-.33-.15-.56-.15-.56-.15-.23-.4-.41-.4-.41-.26-.18-.59-.32-.59-.32-.33-.15-.69-.29-.69-.29-.4.27-.67.63-.67.63-.27.36-.27.82-.27.82zm0 0zm1.89-1.86c.33-.304.52-.64.52-.64.18-.336.18-.704.18-.704 0-.504-.31-.846-.31-.846-.31-.34-.86-.34-.86-.34-.48 0-.78.293-.78.293-.31.294-.31.788-.31.788 0 .304.13.52.13.52.12.215.34.383.34.383.22.168.49.3.49.3.28.13.58.246.58.246zm0 0zm-2.67 1.944c0-.326.11-.604.11-.604.11-.28.28-.504.28-.504.17-.226.4-.4.4-.4.22-.173.47-.3.47-.3v-.04c-.37-.264-.65-.637-.65-.637-.29-.372-.29-.908-.29-.908 0-.39.15-.704.15-.704.15-.31.4-.54.4-.54.25-.22.6-.35.6-.35.34-.12.75-.12.75-.12.44 0 .79.13.79.13.34.14.59.37.59.37.24.24.37.57.37.57.13.33.13.72.13.72 0 .26-.09.51-.09.51-.09.24-.22.45-.22.45-.14.21-.3.38-.3.38-.16.17-.32.28-.32.28v.04c.22.13.43.29.43.29.21.16.37.37.37.37.16.21.26.47.26.47.1.27.1.6.1.6 0 .38-.16.71-.16.71-.16.33-.44.57-.44.57-.28.25-.68.38-.68.38-.4.14-.89.14-.89.14-.47 0-.88-.14-.88-.14-.41-.13-.7-.38-.7-.38-.29-.24-.46-.58-.46-.58-.17-.33-.17-.73-.17-.73zM478.54 758zm.944-6.89h.904l2.49 4.327.745 1.43h.042l-.068-1.09c-.037-.56-.037-1.107-.037-1.107v-3.56h.83V758h-.904l-2.5-4.338-.746-1.418h-.042c.042.525.08 1.066.08 1.066.036.54.036 1.087.036 1.087V758h-.83v-6.89zm5.85 6.89zm.484-2.542c0-.64.195-1.14.195-1.14.194-.5.52-.845.52-.845.325-.347.75-.525.75-.525.426-.18.9-.18.9-.18.472 0 .897.18.897.18.425.178.75.525.75.525.327.346.52.845.52.845.195.5.195 1.14.195 1.14 0 .63-.194 1.13-.194 1.13-.19.498-.52.84-.52.84-.32.34-.75.52-.75.52-.42.178-.89.178-.89.178-.47 0-.9-.18-.9-.18-.42-.177-.75-.52-.75-.52-.32-.34-.52-.84-.52-.84-.19-.498-.19-1.128-.19-1.128zm0 0zm.893 0c0 .44.11.798.11.798.11.357.3.615.3.615.2.26.47.4.47.4.28.15.6.15.6.15.33 0 .6-.14.6-.14.28-.14.47-.4.47-.4.2-.25.3-.61.3-.61.11-.35.11-.8.11-.8 0-.44-.1-.8-.1-.8-.1-.36-.3-.62-.3-.62-.19-.26-.46-.4-.46-.4-.27-.14-.59-.14-.59-.14-.32 0-.6.14-.6.14-.27.14-.46.41-.46.41-.19.26-.3.63-.3.63-.1.37-.1.81-.1.81zm4.32 2.542zm1.01-4.4h-.75v-.653l.8-.052.11-1.43h.73v1.43h1.38v.704h-1.38v2.83c0 .47.18.73.18.73.17.25.61.25.61.25.14 0 .3-.04.3-.04.16-.05.29-.1.29-.1l.17.65c-.21.07-.46.13-.46.13-.25.05-.49.05-.49.05-.41 0-.69-.13-.69-.13-.28-.13-.45-.35-.45-.35-.17-.22-.25-.54-.25-.54-.07-.32-.07-.7-.07-.7v-2.82zm4.67 4.4zm.61-1.323c0-.84.75-1.287.75-1.287.75-.447 2.39-.625 2.39-.625 0-.242-.04-.473-.04-.473-.04-.23-.17-.41-.17-.41-.12-.178-.32-.29-.32-.29-.2-.11-.51-.11-.51-.11-.45 0-.83.17-.83.17-.38.167-.69.377-.69.377l-.34-.6c.36-.23.87-.45.87-.45.52-.22 1.14-.22 1.14-.22.94 0 1.36.57 1.36.57.42.57.42 1.53.42 1.53V758h-.71l-.07-.61h-.02c-.37.306-.79.52-.79.52-.42.216-.9.216-.9.216-.65 0-1.07-.378-1.07-.378-.42-.378-.42-1.07-.42-1.07zm0 0zm.85-.064c0 .442.26.63.26.63.26.19.64.19.64.19.37 0 .7-.173.7-.173.33-.174.7-.51.7-.51v-1.418c-.64.084-1.08.2-1.08.2-.44.115-.71.273-.71.273-.26.157-.38.362-.38.362-.11.205-.11.446-.11.446zm3.92 1.387zm.86-5.105h.72l.08.735h.03c.37-.367.78-.614.78-.614.41-.247.95-.247.95-.247.81 0 1.18.5 1.18.5.37.5.37 1.49.37 1.49V758h-.86v-3.12c0-.724-.23-1.045-.23-1.045-.23-.32-.73-.32-.73-.32-.4 0-.7.2-.7.2-.3.2-.69.588-.69.588V758h-.86v-5.105zm4.88 5.105zm.52 1.408l.19.047.2.026c.44 0 .72-.31.72-.31.28-.31.44-.78.44-.78l.12-.38-2.05-5.11h.9l1.04 2.83.25.71c.13.37.25.73.25.73h.04c.12-.34.22-.72.22-.72.11-.38.21-.71.21-.71l.92-2.82h.84l-1.92 5.53c-.13.38-.3.7-.3.7-.17.33-.4.56-.4.56-.23.24-.52.38-.52.38-.3.14-.68.14-.68.14-.18 0-.32-.02-.32-.02-.15-.02-.27-.08-.27-.08l.17-.68zm4.39-1.408zm.86-5.105h.72l.07.735h.03c.34-.367.73-.614.73-.614.4-.247.86-.247.86-.247.59 0 .92.25.92.25.33.26.49.72.49.72.4-.44.81-.71.81-.71.41-.27.88-.27.88-.27.79 0 1.17.5 1.17.5.39.5.39 1.49.39 1.49V758h-.86v-3.12c0-.724-.23-1.045-.23-1.045-.23-.32-.71-.32-.71-.32-.57 0-1.28.788-1.28.788V758h-.86v-3.12c0-.724-.23-1.045-.23-1.045-.23-.32-.72-.32-.72-.32-.58 0-1.28.788-1.28.788V758h-.86v-5.105zm7.84 5.105zm.49-2.542c0-.64.2-1.14.2-1.14.19-.5.52-.845.52-.845.32-.347.75-.525.75-.525.42-.18.9-.18.9-.18.47 0 .89.18.89.18.42.178.75.525.75.525.32.346.52.845.52.845.19.5.19 1.14.19 1.14 0 .63-.19 1.13-.19 1.13-.19.498-.52.84-.52.84-.32.34-.75.52-.75.52-.42.178-.9.178-.9.178-.47 0-.89-.18-.89-.18-.42-.177-.75-.52-.75-.52-.32-.34-.52-.84-.52-.84-.19-.498-.19-1.128-.19-1.128zm0 0zm.9 0c0 .44.11.798.11.798.11.357.3.615.3.615.2.26.47.4.47.4.28.15.6.15.6.15.33 0 .6-.14.6-.14.28-.14.47-.4.47-.4.2-.25.3-.61.3-.61.11-.35.11-.8.11-.8 0-.44-.11-.8-.11-.8-.1-.36-.3-.62-.3-.62-.19-.26-.46-.4-.46-.4-.27-.14-.6-.14-.6-.14-.32 0-.6.14-.6.14-.27.14-.46.41-.46.41-.2.26-.3.63-.3.63-.11.37-.11.81-.11.81zm4.31 2.542zm.87-5.105h.72l.08.924h.04c.27-.49.64-.77.64-.77.37-.29.82-.29.82-.29.31 0 .55.1.55.1l-.17.75c-.12-.04-.23-.07-.23-.07-.1-.02-.26-.02-.26-.02-.32 0-.68.26-.68.26-.35.26-.61.91-.61.91v3.3h-.9v-5.11zm2.67 5.105zm.49-2.542c0-.63.2-1.13.2-1.13.19-.498.51-.845.51-.845.32-.346.73-.53.73-.53.41-.184.85-.184.85-.184.48 0 .87.16.87.16.38.17.64.48.64.48.25.31.39.75.39.75.13.44.13.98.13.98 0 .28-.03.47-.03.47H532c.054.83.51 1.31.51 1.31.458.48 1.193.48 1.193.48.368 0 .677-.11.677-.11.31-.11.594-.29.594-.29l.305.56c-.34.21-.75.37-.75.37-.41.16-.94.16-.94.16-.52 0-.96-.19-.96-.19-.45-.19-.78-.53-.78-.53-.33-.34-.52-.84-.52-.84-.19-.5-.19-1.13-.19-1.13zm0 0zm3.57-.39c0-.786-.33-1.2-.33-1.2-.33-.416-.93-.416-.93-.416-.27 0-.52.11-.52.11-.25.11-.44.315-.44.315-.2.205-.34.504-.34.504-.13.3-.18.69-.18.69h2.73zm1.15 2.932zm.69-4.317c0-.305.19-.49.19-.49.18-.182.45-.182.45-.182.26 0 .44.19.44.19.19.19.19.49.19.49 0 .28-.18.47-.18.47-.18.19-.43.19-.43.19-.26 0-.44-.18-.44-.18-.18-.18-.18-.46-.18-.46zm0 0zm0 3.792c0-.305.19-.49.19-.49.18-.182.45-.182.45-.182.26 0 .44.183.44.183.19.184.19.49.19.49 0 .282-.18.466-.18.466-.18.184-.43.184-.43.184-.26 0-.44-.184-.44-.184-.18-.184-.18-.467-.18-.467zm4.06.525zm2.46-3.256c.32 0 .7-.205.7-.205.37-.21.71-.69.71-.69-.09-.99-.47-1.49-.47-1.49-.38-.51-1.02-.51-1.02-.51-.25 0-.46.1-.46.1-.22.1-.38.3-.38.3-.16.19-.25.46-.25.46-.09.27-.09.6-.09.6 0 .66.31 1.04.31 1.04.31.37.94.37.94.37zm0 0zm-1.45 2.132c.21.242.5.39.5.39.29.146.6.146.6.146.35 0 .67-.147.67-.147.31-.147.55-.49.55-.49.24-.34.38-.886.38-.886.15-.55.16-1.36.16-1.36-.31.4-.73.63-.73.63-.42.23-.84.23-.84.23-.87 0-1.38-.52-1.38-.52-.51-.52-.51-1.56-.51-1.56 0-.49.16-.88.16-.88.16-.4.43-.68.43-.68.27-.28.63-.44.63-.44.36-.16.76-.16.76-.16.5 0 .92.2.92.2.43.2.74.6.74.6.31.4.48 1.01.48 1.01.18.6.18 1.41.18 1.41 0 1.01-.21 1.72-.21 1.72-.21.71-.57 1.15-.57 1.15-.35.44-.81.65-.81.65-.46.2-.96.2-.96.2-.53 0-.94-.2-.94-.2-.4-.2-.68-.51-.68-.51zm4.21 1.124zm.71-1.387c.3.315.71.557.71.557.4.242 1 .242 1 .242.61 0 1-.33 1-.33.39-.332.39-.9.39-.9 0-.293-.11-.54-.11-.54-.11-.247-.36-.426-.36-.426-.26-.178-.67-.273-.67-.273-.41-.094-1.01-.094-1.01-.094v-.67c.53 0 .9-.1.9-.1.36-.1.59-.26.59-.26.22-.17.32-.4.32-.4.09-.23.09-.5.09-.5 0-.5-.31-.78-.31-.78-.31-.29-.84-.29-.84-.29-.42 0-.77.19-.77.19-.36.18-.66.49-.66.49l-.46-.55c.39-.37.85-.61.85-.61.47-.24 1.07-.24 1.07-.24.44 0 .81.11.81.11.37.11.64.33.64.33.27.21.42.53.42.53.15.31.15.72.15.72 0 .61-.33 1-.33 1-.33.39-.88.6-.88.6v.04c.31.07.57.21.57.21.26.14.46.35.46.35.2.21.31.5.31.5.11.28.11.63.11.63 0 .44-.17.79-.17.79-.17.35-.47.6-.47.6-.3.25-.69.38-.69.38-.4.13-.86.13-.86.13-.4 0-.73-.08-.73-.08-.33-.08-.6-.21-.6-.21-.27-.13-.48-.3-.48-.3-.21-.17-.38-.36-.38-.36zM804.9 758zm.944-6.89h.903l2.49 4.327.746 1.43h.042c-.032-.527-.07-1.09-.07-1.09-.036-.56-.036-1.107-.036-1.107v-3.56h.83V758h-.91l-2.5-4.338-.75-1.418h-.05l.08 1.066c.03.54.03 1.087.03 1.087V758h-.83v-6.89zm5.85 6.89zm.484-2.542c0-.64.194-1.14.194-1.14.195-.5.52-.845.52-.845.326-.347.75-.525.75-.525.427-.18.9-.18.9-.18.472 0 .897.18.897.18.42.178.75.525.75.525.32.346.52.845.52.845.19.5.19 1.14.19 1.14 0 .63-.2 1.13-.2 1.13-.2.498-.52.84-.52.84-.33.34-.75.52-.75.52-.43.178-.9.178-.9.178-.47 0-.9-.18-.9-.18-.43-.177-.75-.52-.75-.52-.33-.34-.52-.84-.52-.84-.2-.498-.2-1.128-.2-1.128zm0 0zm.893 0c0 .44.11.798.11.798.11.357.3.615.3.615.2.26.47.4.47.4.28.15.6.15.6.15.33 0 .6-.14.6-.14.28-.14.47-.4.47-.4.2-.25.3-.61.3-.61.11-.35.11-.8.11-.8 0-.44-.1-.8-.1-.8-.1-.36-.3-.62-.3-.62-.19-.26-.46-.4-.46-.4-.27-.14-.6-.14-.6-.14-.32 0-.59.14-.59.14-.27.14-.46.41-.46.41-.19.26-.3.63-.3.63-.1.37-.1.81-.1.81zm4.32 2.542zm1.01-4.4h-.75v-.653l.8-.052.11-1.43h.73v1.43h1.38v.704h-1.37v2.83c0 .47.18.73.18.73.18.25.62.25.62.25.14 0 .29-.04.29-.04.16-.05.29-.1.29-.1l.17.65c-.21.07-.46.13-.46.13-.24.05-.49.05-.49.05-.4 0-.68-.13-.68-.13-.27-.13-.45-.35-.45-.35-.17-.22-.24-.54-.24-.54-.07-.32-.07-.7-.07-.7v-2.82zm4.67 4.4zm.49-2.542c0-.63.2-1.13.2-1.13.2-.498.52-.845.52-.845.32-.346.73-.53.73-.53.41-.184.85-.184.85-.184.48 0 .87.16.87.16.39.17.64.48.64.48.26.31.4.75.4.75.14.44.14.98.14.98 0 .28-.03.47-.03.47h-3.45c.06.83.51 1.31.51 1.31.46.48 1.2.48 1.2.48.37 0 .68-.11.68-.11.31-.11.6-.29.6-.29l.31.56c-.33.21-.74.37-.74.37-.41.16-.93.16-.93.16-.51 0-.96-.19-.96-.19-.45-.19-.78-.53-.78-.53-.33-.34-.52-.84-.52-.84-.19-.5-.19-1.13-.19-1.13zm0 0zm3.57-.39c0-.786-.33-1.2-.33-1.2-.33-.416-.93-.416-.93-.416-.27 0-.52.11-.52.11-.25.11-.44.315-.44.315-.2.205-.33.504-.33.504-.13.3-.17.69-.17.69h2.73zm1.21 2.932zm.13-5.105h.9l.97 2.9.24.755.24.746h.05l.23-.746.23-.756.97-2.9h.85L831.3 758h-1.01zM833.2 758zm.482-2.542c0-.63.194-1.13.194-1.13.194-.498.514-.845.514-.845.32-.346.73-.53.73-.53.41-.184.85-.184.85-.184.486 0 .87.16.87.16.382.17.64.48.64.48.257.31.394.75.394.75.14.44.14.98.14.98 0 .28-.03.47-.03.47h-3.44c.055.83.51 1.31.51 1.31.46.48 1.194.48 1.194.48.366 0 .675-.11.675-.11.31-.11.593-.29.593-.29l.303.56c-.34.21-.75.37-.75.37-.41.16-.94.16-.94.16-.52 0-.96-.19-.96-.19-.45-.19-.78-.53-.78-.53-.33-.34-.52-.84-.52-.84-.19-.5-.19-1.13-.19-1.13zm0 0zm3.57-.39c0-.786-.33-1.2-.33-1.2-.33-.416-.93-.416-.93-.416-.273 0-.52.11-.52.11-.246.11-.446.315-.446.315-.2.205-.33.504-.33.504-.132.3-.174.69-.174.69h2.73zM838.4 758zm.86-5.105h.715l.073.924h.032c.26-.49.63-.77.63-.77.37-.29.812-.29.812-.29.303 0 .545.1.545.1l-.168.75-.23-.07c-.11-.02-.27-.02-.27-.02-.33 0-.68.26-.68.26-.36.26-.62.91-.62.91v3.3h-.86v-5.11zm2.78 5.105zm.685-4.317c0-.305.184-.49.184-.49.18-.182.44-.182.44-.182.25 0 .43.19.43.19.18.19.18.49.18.49 0 .28-.19.47-.19.47-.18.19-.44.19-.44.19-.27 0-.45-.18-.45-.18-.19-.18-.19-.46-.19-.46zm0 0zm0 3.792c0-.305.184-.49.184-.49.18-.182.44-.182.44-.182.25 0 .43.183.43.183.18.184.18.49.18.49 0 .282-.19.466-.19.466-.18.184-.44.184-.44.184-.27 0-.45-.184-.45-.184-.19-.184-.19-.467-.19-.467zm4.055.525zm3.19-2.542v-1.943c0-.273.01-.646.01-.646.015-.38.036-.65.036-.65h-.04c-.128.24-.264.47-.264.47l-.285.47-1.565 2.29h2.102zm0 0zm1.73.693h-.918V758h-.82v-1.85h-3.014v-.566l2.87-4.286h.965v4.16h.916v.693zm.3 1.85zm1.202-1.79c0 .29.11.52.11.52.11.23.305.4.305.4.195.18.457.27.457.27.26.1.562.1.562.1.59 0 .95-.32.95-.32.362-.32.362-.85.362-.85 0-.32-.15-.56-.15-.56-.147-.23-.4-.4-.4-.4-.25-.17-.582-.31-.582-.31l-.687-.29c-.4.27-.67.64-.67.64-.27.36-.27.83-.27.83zm0 0zm1.89-1.86c.337-.3.52-.64.52-.64.185-.33.185-.7.185-.7 0-.5-.305-.84-.305-.84-.304-.34-.86-.34-.86-.34-.474 0-.778.3-.778.3-.31.3-.31.79-.31.79 0 .31.126.52.126.52.126.22.34.38.34.38.217.17.495.3.495.3.28.13.584.25.584.25zm0 0zm-2.667 1.95c0-.32.11-.6.11-.6.11-.28.283-.5.283-.5.173-.22.4-.4.4-.4.225-.17.466-.3.466-.3v-.04c-.368-.26-.65-.63-.65-.63-.285-.37-.285-.91-.285-.91 0-.39.14-.7.14-.7.14-.31.4-.54.4-.54.25-.22.59-.35.59-.35.35-.12.76-.12.76-.12.44 0 .79.13.79.13.34.14.59.37.59.37.24.24.37.57.37.57.13.33.13.72.13.72 0 .26-.09.51-.09.51-.09.24-.22.45-.22.45-.14.21-.3.38-.3.38-.16.17-.32.28-.32.28v.04c.22.13.43.29.43.29.21.16.37.37.37.37.16.21.26.47.26.47.1.26.1.6.1.6 0 .38-.16.7-.16.7-.16.33-.44.57-.44.57-.29.25-.69.38-.69.38-.4.14-.89.14-.89.14-.48 0-.88-.14-.88-.14-.41-.13-.7-.38-.7-.38-.29-.24-.46-.58-.46-.58-.17-.33-.17-.73-.17-.73z"/></svg>