<svg xmlns="http://www.w3.org/2000/svg" stroke="#000" viewBox="0 0 1024 768" font-size="1"><path fill="#FFF" stroke="none" d="M0 0v768h1024V0z"/><path stroke="none" d="M349.764 14.102zm1.186-10.04h2.264v3.864h3.465V4.06h2.27v10.042h-2.28v-4.19h-3.47v4.19h-2.27V4.062zm9.194 10.04zm.555-3.82c0-.955.3-1.7.3-1.7.31-.748.82-1.257.82-1.257.51-.508 1.19-.777 1.19-.777.68-.27 1.4-.27 1.4-.27.72 0 1.39.27 1.39.27.67.27 1.18.777 1.18.777.51.51.82 1.256.82 1.256.3.75.3 1.71.3 1.71 0 .96-.31 1.7-.31 1.7-.31.75-.82 1.26-.82 1.26-.52.51-1.19.78-1.19.78-.67.27-1.4.27-1.4.27-.72 0-1.4-.27-1.4-.27-.68-.27-1.2-.77-1.2-.77-.52-.51-.83-1.25-.83-1.25-.31-.74-.31-1.7-.31-1.7zm0 0zm2.32 0c0 1 .34 1.586.34 1.586.34.586 1.05.586 1.05.586.69 0 1.05-.586 1.05-.586.35-.585.35-1.586.35-1.586 0-1-.36-1.586-.36-1.586-.36-.585-1.05-.585-1.05-.585-.71 0-1.06.59-1.06.59-.35.59-.35 1.59-.35 1.59zm5.54 3.82zm.37-7.64h2.25l.74 3.543c.09.57.17 1.124.17 1.124.07.55.17 1.14.17 1.14h.06c.11-.59.21-1.16.21-1.16.1-.57.24-1.11.24-1.11l.84-3.54h1.95l.86 3.54c.14.57.24 1.12.24 1.12l.23 1.14h.06c.1-.59.17-1.14.17-1.14.07-.56.18-1.13.18-1.13l.72-3.54h2.09l-1.83 7.64h-2.65l-.69-3.05c-.13-.54-.22-1.08-.22-1.08l-.2-1.16h-.06c-.11.61-.19 1.15-.19 1.15-.09.54-.2 1.08-.2 1.08l-.68 3.05h-2.59zm14.78 7.64zm.37-7.64h2.25l.74 3.543c.09.57.17 1.124.17 1.124.07.55.16 1.14.16 1.14h.06l.2-1.16c.1-.57.24-1.11.24-1.11l.84-3.54h1.95l.86 3.54c.13.57.24 1.12.24 1.12.1.55.23 1.14.23 1.14h.06c.11-.59.18-1.14.18-1.14.07-.56.17-1.13.17-1.13l.72-3.54h2.09l-1.83 7.64h-2.65l-.7-3.05c-.13-.54-.22-1.08-.22-1.08-.09-.54-.2-1.16-.2-1.16h-.06c-.11.61-.19 1.15-.19 1.15-.09.54-.2 1.08-.2 1.08l-.68 3.05H386zm11.46 7.64zm.55-3.82c0-.955.3-1.7.3-1.7.31-.748.82-1.257.82-1.257.51-.508 1.19-.777 1.19-.777.68-.27 1.4-.27 1.4-.27.72 0 1.39.27 1.39.27.67.27 1.18.777 1.18.777.51.51.82 1.256.82 1.256.31.75.31 1.71.31 1.71 0 .96-.31 1.7-.31 1.7-.31.75-.83 1.26-.83 1.26-.52.51-1.19.78-1.19.78-.67.27-1.4.27-1.4.27-.72 0-1.4-.27-1.4-.27-.68-.27-1.2-.77-1.2-.77-.52-.51-.83-1.25-.83-1.25-.31-.74-.31-1.7-.31-1.7zm0 0zm2.32 0c0 1 .34 1.586.34 1.586.34.586 1.05.586 1.05.586.69 0 1.04-.586 1.04-.586.35-.585.35-1.586.35-1.586 0-1-.36-1.586-.36-1.586-.36-.585-1.05-.585-1.05-.585-.71 0-1.06.59-1.06.59-.35.59-.35 1.59-.35 1.59zm5.66 3.82zm.92-7.64h2.26v4.452c0 .83.23 1.14.23 1.14.23.307.72.307.72.307.43 0 .72-.2.72-.2.29-.2.63-.64.63-.64V6.47h2.26v7.63H410l-.17-1.063h-.045c-.493.584-1.055.915-1.055.915-.563.33-1.348.33-1.348.33-1.25 0-1.81-.815-1.81-.815-.563-.816-.563-2.264-.563-2.264v-4.74zm7.82 7.64zm1-10.796h2.26v8.516c0 .355.13.493.13.493.13.14.27.14.27.14h.13l.14-.032.27 1.68c-.19.076-.47.13-.47.13-.29.053-.67.053-.67.053-.59 0-.99-.184-.99-.184-.4-.185-.64-.516-.64-.516-.24-.33-.35-.8-.35-.8-.11-.47-.11-1.056-.11-1.056V3.306zm3.4 10.796zm.6-3.82c0-.94.27-1.678.27-1.678.27-.74.7-1.255.7-1.255.44-.52 1.01-.8 1.01-.8.58-.28 1.18-.28 1.18-.28.64 0 1.06.21 1.06.21.41.21.82.58.82.58l-.08-1.16V3.3h2.26v10.8h-1.85l-.15-.754H423c-.403.4-.94.67-.94.67-.54.27-1.095.27-1.095.27-.71 0-1.286-.278-1.286-.278-.58-.278-.99-.794-.99-.794-.41-.516-.63-1.255-.63-1.255-.23-.74-.23-1.68-.23-1.68zm0 0zm2.32-.03c0 1.14.36 1.663.36 1.663.36.523 1.02.523 1.02.523.37 0 .67-.154.67-.154.3-.154.58-.54.58-.54V8.62c-.31-.278-.63-.386-.63-.386-.33-.108-.63-.108-.63-.108-.54 0-.96.516-.96.516-.42.516-.42 1.61-.42 1.61zm9.1 3.85zm1.17 1.108c.11.03.25.062.25.062.14.03.26.03.26.03.57 0 .87-.276.87-.276.31-.278.46-.724.46-.724l.11-.4-2.95-7.44h2.28l1.09 3.28c.17.525.31 1.064.31 1.064.14.54.29 1.11.29 1.11h.06l.26-1.087c.13-.55.27-1.09.27-1.09l.92-3.28h2.17l-2.65 7.71c-.28.72-.58 1.27-.58 1.27-.3.54-.69.91-.69.91-.4.36-.9.54-.9.54-.5.18-1.18.18-1.18.18-.35 0-.6-.04-.6-.04-.24-.04-.48-.12-.48-.12l.4-1.73zm6.73-1.108zm.55-3.82c0-.955.31-1.7.31-1.7.31-.748.82-1.257.82-1.257.52-.508 1.19-.777 1.19-.777.67-.27 1.4-.27 1.4-.27.72 0 1.39.27 1.39.27.67.27 1.18.777 1.18.777.51.51.82 1.256.82 1.256.3.75.3 1.71.3 1.71 0 .96-.31 1.7-.31 1.7-.31.75-.83 1.26-.83 1.26-.52.51-1.19.78-1.19.78-.67.27-1.4.27-1.4.27-.73 0-1.4-.27-1.4-.27-.68-.27-1.2-.77-1.2-.77-.52-.51-.82-1.25-.82-1.25-.31-.74-.31-1.7-.31-1.7zm0 0zm2.33 0c0 1 .34 1.586.34 1.586.35.586 1.05.586 1.05.586.69 0 1.05-.586 1.05-.586.35-.585.35-1.586.35-1.586 0-1-.36-1.586-.36-1.586-.36-.585-1.05-.585-1.05-.585-.71 0-1.05.59-1.05.59-.35.59-.35 1.59-.35 1.59zm5.66 3.82zm.92-7.64h2.26v4.452c0 .83.23 1.14.23 1.14.23.307.72.307.72.307.43 0 .72-.2.72-.2.29-.2.63-.64.63-.64V6.47h2.26v7.63h-1.85l-.17-1.063h-.05c-.5.584-1.06.915-1.06.915-.57.33-1.35.33-1.35.33-1.25 0-1.81-.815-1.81-.815-.56-.816-.56-2.264-.56-2.264v-4.74zm11.03 7.64zm1-7.64h1.85l.15 1.34h.06c.42-.785 1-1.154 1-1.154.59-.37 1.17-.37 1.17-.37.32 0 .53.04.53.04.2.037.37.114.37.114l-.37 1.956c-.21-.062-.4-.092-.4-.092-.18-.03-.43-.03-.43-.03-.43 0-.9.307-.9.307-.47.308-.78 1.093-.78 1.093v4.436h-2.26v-7.64zm4.68 7.64zm.72-2.126c0-1.2 1.01-1.88 1.01-1.88 1.01-.676 3.28-.907 3.28-.907-.03-.51-.31-.81-.31-.81-.28-.3-.89-.3-.89-.3-.5 0-.99.18-.99.18-.49.18-1.05.51-1.05.51l-.8-1.5c.74-.45 1.54-.73 1.54-.73.81-.28 1.72-.28 1.72-.28 1.48 0 2.25.84 2.25.84.78.84.78 2.61.78 2.61v4.38h-1.85l-.17-.79h-.05c-.5.43-1.04.7-1.04.7-.55.27-1.2.27-1.2.27-.53 0-.94-.18-.94-.18-.42-.18-.71-.5-.71-.5-.3-.32-.46-.73-.46-.73-.16-.42-.16-.91-.16-.91zm0 0zm2.15-.17c0 .37.24.548.24.548.24.177.64.177.64.177.4 0 .67-.17.67-.17.27-.16.58-.47.58-.47v-1.34c-1.22.17-1.68.5-1.68.5-.46.33-.46.77-.46.77zm5.34 2.296zm1.31-5.868h-1.05v-1.68l1.17-.09.26-2.034h1.88v2.033h1.83v1.77h-1.83V11.3c0 .646.27.93.27.93.27.285.71.285.71.285.19 0 .38-.046.38-.046.2-.05.35-.11.35-.11l.35 1.65c-.31.09-.72.18-.72.18-.41.09-.97.09-.97.09-.71 0-1.21-.22-1.21-.22-.5-.22-.81-.6-.81-.6-.32-.39-.46-.94-.46-.94-.15-.55-.15-1.21-.15-1.21V8.23zm4.43 5.868zm.55-3.82c0-.924.31-1.67.31-1.67.31-.748.81-1.263.81-1.263.5-.52 1.14-.8 1.14-.8.65-.28 1.34-.28 1.34-.28.82 0 1.43.28 1.43.28.6.27 1.01.77 1.01.77.41.49.61 1.16.61 1.16.2.67.2 1.45.2 1.45 0 .31-.03.56-.03.56-.03.25-.07.39-.07.39H480c.153.88.684 1.27.684 1.27.53.39 1.3.39 1.3.39.82 0 1.65-.51 1.65-.51l.755 1.37c-.59.4-1.3.63-1.3.63-.72.23-1.41.23-1.41.23-.82 0-1.53-.27-1.53-.27-.71-.27-1.23-.79-1.23-.79-.52-.52-.82-1.26-.82-1.26-.3-.74-.3-1.69-.3-1.69zm0 0zm4.93-.785c0-.662-.29-1.078-.29-1.078-.29-.42-.99-.42-.99-.42-.54 0-.95.36-.95.36-.41.36-.53 1.13-.53 1.13h2.75zm5.7 4.605zm1.17 1.108c.11.03.24.062.24.062.14.03.26.03.26.03.57 0 .88-.276.88-.276.31-.278.46-.724.46-.724l.11-.4-2.94-7.44h2.28l1.09 3.28c.17.525.31 1.064.31 1.064.14.54.29 1.11.29 1.11h.06c.12-.54.25-1.087.25-1.087.13-.55.27-1.09.27-1.09l.92-3.28h2.17l-2.65 7.71c-.27.72-.57 1.27-.57 1.27-.3.54-.7.91-.7.91-.39.36-.89.54-.89.54-.5.18-1.18.18-1.18.18-.36 0-.6-.04-.6-.04-.25-.04-.48-.12-.48-.12l.4-1.73zm6.73-1.108zm.55-3.82c0-.955.31-1.7.31-1.7.31-.748.82-1.257.82-1.257.51-.508 1.19-.777 1.19-.777.67-.27 1.4-.27 1.4-.27.72 0 1.39.27 1.39.27.67.27 1.18.777 1.18.777.52.51.82 1.256.82 1.256.31.75.31 1.71.31 1.71 0 .96-.31 1.7-.31 1.7-.31.75-.82 1.26-.82 1.26-.52.51-1.19.78-1.19.78-.67.27-1.4.27-1.4.27-.72 0-1.4-.27-1.4-.27-.68-.27-1.2-.77-1.2-.77-.51-.51-.82-1.25-.82-1.25-.31-.74-.31-1.7-.31-1.7zm0 0zm2.32 0c0 1 .35 1.586.35 1.586.35.586 1.05.586 1.05.586.7 0 1.05-.586 1.05-.586.36-.585.36-1.586.36-1.586 0-1-.36-1.586-.36-1.586-.36-.585-1.05-.585-1.05-.585-.71 0-1.05.59-1.05.59-.35.59-.35 1.59-.35 1.59zm5.67 3.82zm.92-7.64h2.26v4.452c0 .83.23 1.14.23 1.14.23.307.72.307.72.307.43 0 .72-.2.72-.2.29-.2.63-.64.63-.64V6.47h2.26v7.63h-1.85l-.17-1.063h-.04c-.49.584-1.05.915-1.05.915-.56.33-1.34.33-1.34.33-1.25 0-1.81-.815-1.81-.815-.57-.816-.57-2.264-.57-2.264v-4.74zm7.82 7.64zm1-7.64h1.85l.15 1.34h.06c.42-.785 1-1.154 1-1.154.59-.37 1.17-.37 1.17-.37.32 0 .53.04.53.04.21.037.38.114.38.114l-.37 1.956c-.21-.062-.4-.092-.4-.092-.18-.03-.43-.03-.43-.03-.43 0-.9.307-.9.307-.47.308-.78 1.093-.78 1.093v4.436h-2.25v-7.64zm8.33 7.64zm3.26.6v2.233H524V6.463h1.845l.153.755h.067c.444-.4 1.006-.67 1.006-.67.56-.27 1.16-.27 1.16-.27.7 0 1.25.277 1.25.277.56.278.94.786.94.786.39.51.6 1.23.6 1.23.21.72.21 1.6.21 1.6 0 .99-.27 1.75-.27 1.75-.27.77-.72 1.3-.72 1.3-.45.54-1.03.81-1.03.81-.57.28-1.19.28-1.19.28-.49 0-.95-.21-.95-.21-.46-.21-.86-.59-.86-.59zm0 0zm0-2.756c.3.277.61.385.61.385.3.11.6.11.6.11.58 0 1-.53 1-.53.41-.53.41-1.72.41-1.72 0-2.06-1.33-2.06-1.33-2.06-.66 0-1.31.7-1.31.7v3.13zm5.56 2.156zm1-7.64h1.85l.15 1.34h.06c.41-.785 1-1.154 1-1.154.58-.37 1.17-.37 1.17-.37.32 0 .53.04.53.04.21.037.37.114.37.114l-.37 1.956c-.21-.062-.4-.092-.4-.092-.18-.03-.43-.03-.43-.03-.43 0-.9.307-.9.307-.47.308-.78 1.093-.78 1.093v4.436h-2.26v-7.64zm4.97 7.64zm.55-3.82c0-.955.31-1.7.31-1.7.31-.748.82-1.257.82-1.257.51-.508 1.19-.777 1.19-.777.67-.27 1.4-.27 1.4-.27.72 0 1.39.27 1.39.27.67.27 1.18.777 1.18.777.52.51.82 1.256.82 1.256.31.75.31 1.71.31 1.71 0 .96-.31 1.7-.31 1.7-.31.75-.82 1.26-.82 1.26-.52.51-1.19.78-1.19.78-.67.27-1.4.27-1.4.27-.72 0-1.4-.27-1.4-.27-.68-.27-1.194-.77-1.194-.77-.515-.51-.82-1.25-.82-1.25-.31-.74-.31-1.7-.31-1.7zm0 0zm2.33 0c0 1 .34 1.586.34 1.586.35.586 1.06.586 1.06.586.7 0 1.05-.586 1.05-.586.36-.585.36-1.586.36-1.586 0-1-.35-1.586-.35-1.586-.35-.585-1.05-.585-1.05-.585-.71 0-1.05.59-1.05.59-.35.59-.35 1.59-.35 1.59zm5.59 3.82zm5.31-9.04c-.43-.154-.79-.154-.79-.154-.42 0-.65.254-.65.254-.23.254-.23.84-.23.84v.46h1.37v1.772h-1.37v5.868h-2.26V8.234h-1.01v-1.68l1.01-.076v-.415c0-.6.15-1.14.15-1.14.15-.54.49-.94.49-.94.34-.4.88-.63.88-.63.54-.232 1.31-.232 1.31-.232.48 0 .87.1.87.1.39.09.65.19.65.19zm-.06 9.04zm2.13-8.762c-.57 0-.94-.34-.94-.34-.37-.33-.37-.86-.37-.86 0-.53.37-.85.37-.85.37-.33.94-.33.94-.33.58 0 .94.32.94.32.36.32.36.84.36.84 0 .52-.37.85-.37.85-.36.33-.95.33-.95.33zm0 0zm-1.12 1.12h2.26v7.64h-2.26V6.46zm3.25 7.64zm.55-3.82c0-.96.32-1.7.32-1.7.32-.75.87-1.26.87-1.26.55-.51 1.27-.78 1.27-.78.72-.27 1.51-.27 1.51-.27.71 0 1.28.24 1.28.24.57.24.95.64.95.64l-1.038 1.4c-.54-.45-1.06-.45-1.06-.45-.83 0-1.31.58-1.31.58-.47.58-.47 1.58-.47 1.58 0 1 .482 1.58.482 1.58.484.58 1.224.58 1.224.58.413 0 .752-.17.752-.17.34-.17.613-.39.613-.39l.91 1.43c-.56.49-1.24.72-1.24.72-.674.23-1.31.23-1.31.23-.8 0-1.48-.27-1.48-.27-.69-.27-1.196-.78-1.196-.78-.51-.51-.8-1.26-.8-1.26-.29-.75-.29-1.7-.29-1.7zm6.64 3.82zm2.12-8.77c-.57 0-.94-.33-.94-.33-.37-.33-.37-.86-.37-.86 0-.53.37-.85.37-.85.37-.33.94-.33.94-.33.58 0 .95.32.95.32.36.32.36.84.36.84 0 .52-.37.85-.37.85-.36.33-.94.33-.94.33zm0 0zM564 6.46h2.263v7.64H564V6.46zm3.25 7.64zm.553-3.82c0-.925.308-1.672.308-1.672.31-.744.81-1.26.81-1.26.5-.516 1.15-.794 1.15-.794.65-.277 1.34-.277 1.34-.277.82 0 1.43.276 1.43.276.61.277 1.02.77 1.02.77.41.492.61 1.162.61 1.162.2.67.2 1.454.2 1.454 0 .3-.03.56-.03.56-.03.25-.06.39-.06.39H570c.153.87.684 1.27.684 1.27.533.39 1.303.39 1.303.39.815 0 1.646-.5 1.646-.5l.754 1.37c-.584.4-1.3.63-1.3.63-.716.23-1.41.23-1.41.23-.816 0-1.524-.27-1.524-.27-.71-.27-1.234-.79-1.234-.79-.53-.52-.82-1.26-.82-1.26-.29-.74-.29-1.7-.29-1.7zm0 0zm4.928-.786c0-.662-.29-1.078-.29-1.078-.29-.42-.98-.42-.98-.42-.54 0-.94.365-.94.365-.41.37-.53 1.14-.53 1.14h2.76zm2.5 4.605zm1-7.64h1.85l.16.97h.06c.5-.46 1.08-.8 1.08-.8.59-.35 1.37-.35 1.37-.35 1.25 0 1.81.81 1.81.81.56.81.56 2.26.56 2.26v4.74h-2.26V9.65c0-.832-.22-1.14-.22-1.14-.22-.31-.71-.31-.71-.31-.43 0-.74.195-.74.195-.3.192-.67.547-.67.547v5.16h-2.26v-7.64zm7.81 7.64zm.56-3.82c0-.95.33-1.7.33-1.7.33-.74.87-1.25.87-1.25.55-.51 1.27-.78 1.27-.78.73-.27 1.51-.27 1.51-.27.71 0 1.28.24 1.28.24.57.24.96.64.96.64l-1.03 1.4c-.54-.45-1.06-.45-1.06-.45-.83 0-1.31.58-1.31.58-.47.58-.47 1.58-.47 1.58 0 1 .48 1.58.48 1.58.49.59 1.23.59 1.23.59.42 0 .76-.17.76-.17.34-.17.62-.39.62-.39l.91 1.43c-.55.5-1.23.73-1.23.73-.68.23-1.31.23-1.31.23-.8 0-1.49-.27-1.49-.27-.68-.27-1.19-.78-1.19-.78-.5-.51-.8-1.26-.8-1.26-.29-.75-.29-1.7-.29-1.7zm6.64 3.82zm1.17 1.11c.11.03.25.06.25.06.14.03.27.03.27.03.57 0 .88-.27.88-.27.31-.28.46-.72.46-.72l.11-.4-2.94-7.44h2.28l1.1 3.28c.17.52.31 1.06.31 1.06.14.54.29 1.11.29 1.11h.06l.26-1.09c.13-.55.27-1.09.27-1.09l.93-3.28h2.17l-2.65 7.71c-.27.72-.57 1.27-.57 1.27-.3.54-.69.91-.69.91-.39.36-.89.54-.89.54-.5.18-1.18.18-1.18.18-.35 0-.6-.04-.6-.04-.24-.04-.47-.12-.47-.12l.4-1.73zm10.06-1.11zm2.13-8.76c-.57 0-.94-.33-.94-.33-.37-.33-.37-.85-.37-.85 0-.53.37-.85.37-.85.37-.33.94-.33.94-.33.59 0 .95.32.95.32.37.32.37.84.37.84 0 .52-.36.86-.36.86-.36.33-.94.33-.94.33zm0 0zm-1.12 1.12h2.27v7.64h-2.26V6.46zm3.25 7.64zm1-7.64h1.85l.15.97h.06c.5-.46 1.08-.8 1.08-.8.59-.35 1.37-.35 1.37-.35 1.25 0 1.81.81 1.81.81.56.81.56 2.26.56 2.26v4.74h-2.26V9.65c0-.833-.22-1.14-.22-1.14-.22-.31-.72-.31-.72-.31-.43 0-.74.194-.74.194-.31.192-.67.547-.67.547v5.16h-2.26V6.46zm11.01 7.64zm1.19-10.04h2.27v3.87h3.47V4.06h2.28v10.042h-2.28v-4.19h-3.47v4.19h-2.26V4.062zm9.19 10.04zm.73-2.12c0-1.2 1.02-1.88 1.02-1.88 1.02-.68 3.28-.91 3.28-.91-.03-.51-.31-.81-.31-.81-.28-.3-.89-.3-.89-.3-.49 0-.98.18-.98.18-.49.18-1.04.5-1.04.5l-.8-1.49c.74-.45 1.55-.73 1.55-.73.81-.28 1.72-.28 1.72-.28 1.48 0 2.26.84 2.26.84.78.84.78 2.61.78 2.61v4.37h-1.84l-.17-.79h-.04c-.49.43-1.04.7-1.04.7-.54.27-1.19.27-1.19.27-.52 0-.94-.18-.94-.18-.41-.18-.7-.49-.7-.49-.29-.32-.45-.73-.45-.73-.16-.41-.16-.91-.16-.91zm0 0zm2.16-.17c0 .37.24.54.24.54.24.17.64.17.64.17.4 0 .68-.17.68-.17.28-.17.59-.48.59-.48v-1.34c-1.21.17-1.68.49-1.68.49-.46.32-.46.77-.46.77zm5.34 2.29zm1.34-2.29c.53.4 1 .6 1 .6.48.2.97.2.97.2.51 0 .74-.17.74-.17.23-.17.23-.48.23-.48 0-.19-.13-.33-.13-.33-.13-.15-.35-.27-.35-.27-.22-.13-.5-.23-.5-.23-.28-.1-.57-.22-.57-.22-.35-.14-.71-.33-.71-.33-.35-.19-.64-.46-.64-.46-.29-.27-.48-.63-.48-.63-.18-.37-.18-.84-.18-.84 0-.53.21-.97.21-.97.21-.45.6-.76.6-.76.38-.31.92-.48.92-.48.54-.18 1.2-.18 1.2-.18.88 0 1.54.3 1.54.3.66.3 1.15.67 1.15.67l-1.02 1.35c-.42-.31-.82-.48-.82-.48-.4-.17-.8-.17-.8-.17-.86 0-.86.6-.86.6 0 .18.13.31.13.31.13.13.33.24.33.24.21.1.48.2.48.2l.56.21c.37.14.74.32.74.32.36.18.66.44.66.44.3.26.49.64.49.64.19.37.19.9.19.9 0 .52-.2.97-.2.97-.2.44-.6.77-.6.77-.4.33-.98.52-.98.52-.58.19-1.35.19-1.35.19-.76 0-1.55-.29-1.55-.29-.79-.3-1.38-.77-1.38-.77zm5.49 2.29zm1-10.8h2.2v6.2h.06l2.42-3.04h2.47l-2.68 3.14 2.88 4.49h-2.45l-1.72-2.97-.97 1.09v1.88h-2.2V3.3zm7.01 10.8zm.56-3.82c0-.93.31-1.67.31-1.67.31-.75.81-1.26.81-1.26.5-.52 1.15-.8 1.15-.8.65-.28 1.34-.28 1.34-.28.82 0 1.43.28 1.43.28.61.27 1.02.77 1.02.77.41.49.61 1.16.61 1.16.2.67.2 1.45.2 1.45 0 .31-.03.56-.03.56-.03.25-.06.39-.06.39h-4.58c.16.88.69 1.27.69 1.27.53.39 1.3.39 1.3.39.81 0 1.65-.51 1.65-.51l.75 1.37c-.58.4-1.3.63-1.3.63-.72.23-1.41.23-1.41.23-.81 0-1.52-.27-1.52-.27-.71-.27-1.23-.79-1.23-.79-.52-.52-.82-1.26-.82-1.26-.29-.74-.29-1.7-.29-1.7zm0 0zm4.93-.79c0-.66-.29-1.08-.29-1.08-.29-.42-.99-.42-.99-.42-.54 0-.94.36-.94.36-.41.36-.53 1.13-.53 1.13h2.76zm2.5 4.6zm1-10.8h2.26v8.51c0 .36.13.5.13.5.13.14.27.14.27.14h.13l.15-.03.28 1.68c-.19.07-.47.13-.47.13-.29.05-.67.05-.67.05-.59 0-.99-.19-.99-.19-.4-.19-.64-.52-.64-.52-.24-.33-.35-.8-.35-.8-.1-.47-.1-1.06-.1-1.06V3.3zm3.4 10.79zm1-10.79h2.27v8.51c0 .35.13.49.13.49.14.14.27.14.27.14h.14l.14-.04.28 1.68c-.18.08-.47.13-.47.13-.28.05-.67.05-.67.05-.58 0-.98-.18-.98-.18-.4-.19-.64-.52-.64-.52-.23-.33-.34-.8-.34-.8-.1-.47-.1-1.06-.1-1.06V3.3zm3.4 10.79zm2.37-3.56c-.07-.53.04-.96.04-.96.12-.43.33-.8.33-.8.22-.37.49-.68.49-.68l.51-.6c.25-.28.41-.55.41-.55.17-.27.17-.57.17-.57 0-.48-.29-.73-.29-.73-.28-.25-.74-.25-.74-.25-.43 0-.76.2-.76.2-.33.2-.64.51-.64.51L669.57 5c.523-.63 1.23-1.016 1.23-1.016.71-.385 1.572-.385 1.572-.385.647 0 1.21.15 1.21.15.56.15.97.47.97.47.407.32.638.82.638.82.23.5.23 1.18.23 1.18 0 .47-.168.85-.168.85-.17.37-.424.7-.424.7-.254.32-.54.62-.54.62-.284.3-.522.62-.522.62-.24.32-.378.68-.378.68-.138.36-.092.82-.092.82h-1.987zm0 0zm-.36 2.32c0-.62.39-1.03.39-1.03.39-.41.97-.41.97-.41.59 0 .98.41.98.41.4.41.4 1.02.4 1.02 0 .6-.39 1-.39 1-.39.41-.98.41-.98.41-.59 0-.97-.41-.97-.41-.39-.41-.39-1.01-.39-1.01z"/><path fill="none" stroke="#D3D3D3" stroke-miterlimit="10" d="M39.26 738h950.93M39.26 503.667h950.93M39.26 269.333h950.93M39.26 35h950.93" stroke-dasharray="5 5"/><g fill="#5C3566" stroke-opacity="0" stroke-width="0" stroke-miterlimit="10" stroke-linejoin="bevel"><defs><clipPath id="a"><path d="M39.26 35v703h950.93V35z"/></clipPath></defs><g clip-path="url(#a)"><path stroke="none" d="M54.26 738V425.165h207.733V738z"/></g></g><g fill-opacity="0" stroke-miterlimit="10"><defs><clipPath id="b"><path d="M39.26 35v703h950.93V35z"/></clipPath></defs><g clip-path="url(#b)"><path fill="none" d="M54.26 738V425.165h207.733V738z"/></g></g><g fill="#5C3566" stroke-opacity="0" stroke-width="0" stroke-miterlimit="10" stroke-linejoin="bevel"><defs><clipPath id="c"><path d="M39.26 35v703h950.93V35z"/></clipPath></defs><g clip-path="url(#c)"><path stroke="none" d="M291.993 738V95.927h207.733V738z"/></g></g><g fill-opacity="0" stroke-miterlimit="10"><defs><clipPath id="d"><path d="M39.26 35v703h950.93V35z"/></clipPath></defs><g clip-path="url(#d)"><path fill="none" d="M291.993 738V95.927h207.733V738z"/></g></g><g fill="#5C3566" stroke-opacity="0" stroke-width="0" stroke-miterlimit="10" stroke-linejoin="bevel"><defs><clipPath id="e"><path d="M39.26 35v703h950.93V35z"/></clipPath></defs><g clip-path="url(#e)"><path stroke="none" d="M529.726 738V378.298H737.46V738z"/></g></g><g fill-opacity="0" stroke-miterlimit="10"><defs><clipPath id="f"><path d="M39.26 35v703h950.93V35z"/></clipPath></defs><g clip-path="url(#f)"><path fill="none" d="M529.726 738V378.298H737.46V738z"/></g></g><g fill="#5C3566" stroke-opacity="0" stroke-width="0" stroke-miterlimit="10" stroke-linejoin="bevel"><defs><clipPath id="g"><path d="M39.26 35v703h950.93V35z"/></clipPath></defs><g clip-path="url(#g)"><path stroke="none" d="M767.46 738V616.147h207.73V738z"/></g></g><g fill-opacity="0" stroke-miterlimit="10"><defs><clipPath id="h"><path d="M39.26 35v703h950.93V35z"/></clipPath></defs><g clip-path="url(#h)"><path fill="none" d="M767.46 738V616.147h207.73V738z"/></g></g><path fill="none" stroke-miterlimit="10" d="M39.26 738V35" stroke-linecap="square"/><path fill="none" stroke-miterlimit="10" d="M39.26 738h2m-2-58.583h2m-2-58.584h2m-2-58.583h2m-2-58.583h2m-2-58.584h2m-2-58.583h2m-2-58.583h2m-2-58.584h2m-2-58.583h2m-2-58.583h2m-2-58.584h2M39.26 35h2m-2 703h5m-5-234.333h5m-5-234.334h5M39.26 35h5"/><path stroke="none" d="M24.963 741.445zm2.616.126c-1.02 0-1.59-.9-1.59-.9-.57-.9-.57-2.59-.57-2.59 0-1.69.56-2.57.56-2.57.56-.88 1.58-.88 1.58-.88 1 0 1.57.88 1.57.88.57.89.57 2.58.57 2.58 0 1.69-.57 2.6-.57 2.6-.57.91-1.58.91-1.58.91zm0 0zm0-.69c.29 0 .53-.16.53-.16.23-.16.41-.5.41-.5.17-.34.26-.87.26-.87.09-.53.09-1.26.09-1.26 0-.73-.1-1.26-.1-1.26-.1-.52-.27-.85-.27-.85-.18-.33-.41-.49-.41-.49-.24-.16-.53-.16-.53-.16-.3 0-.54.16-.54.16-.24.16-.42.49-.42.49-.18.33-.27.86-.27.86-.1.53-.1 1.26-.1 1.26 0 1.47.36 2.14.36 2.14.36.67.95.67.95.67zM14.43 507.11zm.42-.515c.756-.756 1.345-1.365 1.345-1.365.59-.61.987-1.13.987-1.13.4-.52.61-.955.61-.955.21-.436.21-.846.21-.846 0-.58-.317-.95-.317-.95-.313-.37-.954-.37-.954-.37-.42 0-.77.23-.77.23-.35.23-.65.57-.65.57l-.49-.5c.42-.46.9-.74.9-.74.47-.28 1.14-.28 1.14-.28.94 0 1.47.54 1.47.54.54.54.54 1.43.54 1.43 0 .47-.21.95-.21.95-.2.48-.56.99-.56.99-.36.51-.86 1.06-.86 1.06-.5.55-1.1 1.17-1.1 1.17l.57-.05c.3-.02.56-.02.56-.02h1.94v.74h-4.33v-.52zm4.8.515zm2.616.126c-1.02 0-1.586-.903-1.586-.903-.567-.904-.567-2.595-.567-2.595 0-1.69.57-2.573.57-2.573.565-.883 1.584-.883 1.584-.883 1.01 0 1.576.883 1.576.883.57.882.57 2.573.57 2.573 0 1.69-.568 2.595-.568 2.595-.567.903-1.576.903-1.576.903zm0 0zm0-.693c.294 0 .53-.163.53-.163.237-.163.41-.504.41-.504.174-.342.27-.872.27-.872.094-.53.094-1.266.094-1.266 0-.735-.095-1.26-.095-1.26-.093-.526-.267-.856-.267-.856-.173-.33-.41-.49-.41-.49-.236-.156-.53-.156-.53-.156-.294 0-.536.157-.536.157-.24.158-.414.49-.414.49-.174.33-.268.855-.268.855-.095.525-.095 1.26-.095 1.26 0 1.47.368 2.138.368 2.138.362.667.95.667.95.667zm2.605.567zm2.62.126c-1.02 0-1.58-.903-1.58-.903-.57-.904-.57-2.595-.57-2.595 0-1.69.57-2.573.57-2.573.57-.883 1.59-.883 1.59-.883 1.01 0 1.58.883 1.58.883.57.882.57 2.573.57 2.573 0 1.69-.57 2.595-.57 2.595-.56.903-1.57.903-1.57.903zm0 0zm0-.693c.3 0 .53-.163.53-.163.24-.163.41-.504.41-.504.18-.342.27-.872.27-.872.09-.53.09-1.266.09-1.266 0-.735-.09-1.26-.09-1.26-.1-.526-.27-.856-.27-.856-.17-.33-.41-.49-.41-.49-.23-.156-.53-.156-.53-.156-.29 0-.53.157-.53.157-.24.158-.41.49-.41.49-.17.33-.27.855-.27.855-.09.525-.09 1.26-.09 1.26 0 1.47.37 2.138.37 2.138.36.667.95.667.95.667zM14.24 272.78zm3.194-2.543v-1.944c0-.273.016-.646.016-.646.015-.373.036-.646.036-.646h-.042c-.126.25-.262.48-.262.48l-.284.48-1.565 2.29h2.105zm0 0zm1.733.693h-.914v1.85h-.815v-1.85H14.42v-.567l2.867-4.286h.966v4.16h.915v.693zm.294 1.85zm2.62.125c-1.02 0-1.58-.904-1.58-.904-.57-.9-.57-2.59-.57-2.59 0-1.69.57-2.57.57-2.57.57-.88 1.59-.88 1.59-.88 1.01 0 1.58.89 1.58.89.57.89.57 2.58.57 2.58 0 1.69-.56 2.6-.56 2.6-.57.91-1.58.91-1.58.91zm0 0zm0-.693c.3 0 .53-.163.53-.163.24-.17.41-.51.41-.51.18-.34.27-.87.27-.87.1-.53.1-1.27.1-1.27 0-.74-.09-1.26-.09-1.26-.09-.53-.26-.86-.26-.86-.17-.33-.41-.49-.41-.49-.24-.16-.53-.16-.53-.16-.29 0-.54.16-.54.16-.24.15-.41.49-.41.49-.17.33-.27.85-.27.85-.09.52-.09 1.26-.09 1.26 0 1.47.36 2.14.36 2.14.36.66.95.66.95.66zm2.61.567zm2.62.12c-1.02 0-1.58-.91-1.58-.91-.57-.91-.57-2.6-.57-2.6 0-1.69.57-2.58.57-2.58.57-.89 1.59-.89 1.59-.89 1.01 0 1.58.88 1.58.88.57.88.57 2.57.57 2.57 0 1.69-.56 2.59-.56 2.59-.57.9-1.57.9-1.57.9zm0 0zm0-.7c.3 0 .53-.17.53-.17.24-.17.41-.51.41-.51.18-.34.27-.87.27-.87.1-.53.1-1.27.1-1.27 0-.74-.09-1.26-.09-1.26-.09-.53-.27-.86-.27-.86-.17-.33-.41-.49-.41-.49-.23-.16-.53-.16-.53-.16-.29 0-.53.16-.53.16-.24.16-.41.49-.41.49-.17.33-.27.85-.27.85-.09.52-.09 1.26-.09 1.26 0 1.47.36 2.14.36 2.14.36.66.95.66.95.66zM14.57 38.44zm2.815-.555c.25 0 .46-.11.46-.11.21-.106.37-.3.37-.3.154-.195.243-.46.243-.46.09-.268.09-.6.09-.6 0-.666-.305-1.04-.305-1.04-.304-.38-.934-.38-.934-.38-.32 0-.69.202-.69.202-.38.204-.71.676-.71.676.08.99.46 1.5.46 1.5.37.51 1.01.51 1.01.51zm0 0zm1.372-5.027c-.21-.24-.5-.384-.5-.384-.287-.14-.603-.14-.603-.14-.35 0-.66.15-.66.15-.32.145-.56.48-.56.48-.24.338-.39.88-.39.88-.147.54-.157 1.34-.157 1.34.315-.39.735-.614.735-.614.42-.226.83-.226.83-.226.873 0 1.393.515 1.393.515.52.51.52 1.55.52 1.55 0 .48-.16.87-.16.87-.157.39-.43.68-.43.68-.273.28-.63.44-.63.44-.357.16-.767.16-.767.16-.495 0-.915-.2-.915-.2-.42-.2-.73-.61-.73-.61-.31-.41-.487-1.01-.487-1.01-.18-.61-.18-1.42-.18-1.42 0-1.01.21-1.72.21-1.72.21-.71.57-1.16.57-1.16.356-.44.813-.65.813-.65.45-.2.96-.2.96-.2.54 0 .94.2.94.2.39.2.67.51.67.51zm1.03 5.577zm2.615.127c-1.02 0-1.587-.903-1.587-.903-.566-.91-.566-2.6-.566-2.6 0-1.69.56-2.58.56-2.58.57-.89 1.59-.89 1.59-.89 1.01 0 1.57.88 1.57.88.57.88.57 2.57.57 2.57 0 1.69-.57 2.59-.57 2.59-.57.9-1.58.9-1.58.9zm0 0zm0-.693c.293 0 .53-.17.53-.17.236-.16.41-.51.41-.51.173-.34.267-.87.267-.87.09-.53.09-1.27.09-1.27 0-.74-.1-1.26-.1-1.26-.09-.53-.27-.86-.27-.86-.18-.33-.41-.49-.41-.49-.24-.16-.53-.16-.53-.16-.3 0-.54.16-.54.16-.24.16-.42.49-.42.49-.18.33-.27.85-.27.85-.1.53-.1 1.26-.1 1.26 0 1.47.36 2.14.36 2.14.36.67.95.67.95.67zm2.6.57zm2.62.12c-1.02 0-1.584-.9-1.584-.9-.567-.9-.567-2.6-.567-2.6 0-1.69.57-2.58.57-2.58.57-.88 1.59-.88 1.59-.88 1.01 0 1.58.88 1.58.88.57.88.57 2.57.57 2.57 0 1.69-.57 2.59-.57 2.59-.56.9-1.57.9-1.57.9zm0 0zm0-.69c.296 0 .53-.16.53-.16.24-.16.41-.51.41-.51.175-.34.27-.87.27-.87.094-.53.094-1.27.094-1.27 0-.74-.092-1.26-.092-1.26-.093-.53-.27-.86-.27-.86-.17-.33-.41-.49-.41-.49-.232-.16-.53-.16-.53-.16-.29 0-.532.16-.532.16-.24.16-.413.49-.413.49-.18.33-.27.85-.27.85-.1.52-.1 1.26-.1 1.26 0 1.47.36 2.14.36 2.14.36.67.95.67.95.67z"/><path fill="none" stroke-miterlimit="10" d="M39.26 738h950.93" stroke-linecap="square"/><path stroke="none" d="M128.867 758zm.945-6.89h2.048c.526 0 .96.094.96.094.437.094.747.294.747.294.31.2.483.52.483.52.174.32.174.772.174.772 0 .515-.294.93-.294.93-.294.414-.904.572-.904.572v.042c.757.116 1.177.525 1.177.525.42.41.42 1.12.42 1.12 0 .5-.19.88-.19.88-.188.38-.535.63-.535.63-.346.25-.83.38-.83.38-.483.12-1.06.12-1.06.12h-2.196v-6.89zm0 0zm1.89 2.94c.894 0 1.277-.304 1.277-.304.38-.305.38-.883.38-.883 0-.567-.41-.814-.41-.814-.41-.25-1.22-.25-1.22-.25h-1.06v2.25h1.02zm0 0zm.18 3.257c.892 0 1.386-.33 1.386-.33.494-.332.494-1.036.494-1.036 0-.64-.484-.94-.484-.94-.483-.29-1.397-.29-1.397-.29h-1.19v2.61h1.2zm3.16.693zm.484-2.542c0-.63.195-1.13.195-1.13.2-.498.52-.845.52-.845.32-.346.73-.53.73-.53.41-.184.85-.184.85-.184.49 0 .87.16.87.16.39.17.64.48.64.48.26.31.4.75.4.75.14.44.14.98.14.98 0 .28-.03.47-.03.47h-3.44c.05.83.51 1.31.51 1.31.46.48 1.19.48 1.19.48.37 0 .68-.11.68-.11.31-.11.6-.29.6-.29l.31.56c-.33.21-.74.37-.74.37-.41.16-.93.16-.93.16-.51 0-.96-.19-.96-.19-.45-.19-.78-.53-.78-.53-.33-.34-.52-.84-.52-.84-.19-.5-.19-1.13-.19-1.13zm0 0zm3.572-.39c0-.786-.33-1.2-.33-1.2-.332-.416-.93-.416-.93-.416-.274 0-.52.11-.52.11-.248.11-.447.315-.447.315-.2.205-.33.504-.33.504-.13.3-.17.69-.17.69h2.73zm1.05 2.932zm1.23.86c0 .41.393.653.393.653.4.24 1.09.24 1.09.24.37 0 .67-.088.67-.088.3-.09.51-.23.51-.23.21-.143.33-.332.33-.332.12-.19.12-.39.12-.39 0-.356-.26-.492-.26-.492-.26-.13-.76-.13-.76-.13h-.88c-.14 0-.32-.01-.32-.01-.17-.01-.34-.07-.34-.07-.27.2-.4.42-.4.42-.12.22-.12.44-.12.44zm0 0zm-.757.117c0-.326.2-.62.2-.62.2-.294.55-.535.55-.535v-.042c-.19-.116-.32-.32-.32-.32-.13-.206-.13-.51-.13-.51 0-.326.18-.568.18-.568.18-.24.38-.378.38-.378v-.042c-.25-.21-.46-.562-.46-.562-.2-.352-.2-.814-.2-.814 0-.42.16-.756.16-.756.16-.336.42-.573.42-.573.27-.236.62-.362.62-.362.35-.126.74-.126.74-.126.21 0 .4.03.4.03.18.03.33.09.33.09h1.78v.66h-1.05c.18.18.3.45.3.45.12.27.12.6.12.6 0 .41-.15.74-.15.74-.14.33-.4.55-.4.55-.25.22-.59.35-.59.35-.34.12-.73.12-.73.12-.19 0-.39-.05-.39-.05-.2-.05-.37-.13-.37-.13-.13.11-.23.25-.23.25-.09.14-.09.35-.09.35 0 .24.19.4.19.4.19.16.72.16.72.16h.99c.9 0 1.34.29 1.34.29.45.28.45.92.45.92 0 .35-.17.67-.17.67-.18.32-.52.56-.52.56-.33.24-.81.38-.81.38-.48.14-1.08.14-1.08.14-.47 0-.86-.09-.86-.09-.39-.09-.67-.27-.67-.27-.28-.18-.43-.43-.43-.43-.15-.25-.15-.59-.15-.59zm0 0zm2.12-3.172c.22 0 .42-.084.42-.084.2-.08.35-.24.35-.24.15-.16.24-.38.24-.38.09-.22.09-.51.09-.51 0-.56-.31-.87-.31-.87-.31-.31-.77-.31-.77-.31-.45 0-.76.31-.76.31-.31.31-.31.88-.31.88 0 .29.09.51.09.51.08.23.24.39.24.39.15.16.35.24.35.24.19.09.41.09.41.09zm2.71 2.195zm1.31-6.155c-.25 0-.42-.158-.42-.158-.17-.158-.17-.4-.17-.4 0-.25.18-.404.18-.404.17-.152.42-.152.42-.152.26 0 .43.16.43.16.17.16.17.41.17.41 0 .24-.17.4-.17.4-.17.16-.42.16-.42.16zm0 0zm-.44 1.05h.86V758h-.86v-5.105zm1.72 5.105zm.87-5.105h.72l.08.735h.03c.37-.367.77-.614.77-.614.41-.247.94-.247.94-.247.81 0 1.18.5 1.18.5.38.5.38 1.49.38 1.49V758h-.86v-3.12c0-.724-.23-1.045-.23-1.045-.23-.32-.73-.32-.73-.32-.4 0-.7.2-.7.2-.3.2-.69.588-.69.588V758h-.86v-5.105zm4.88 5.105zm.86-5.105h.72l.07.735h.04c.36-.367.77-.614.77-.614.4-.247.94-.247.94-.247.81 0 1.18.5 1.18.5.37.5.37 1.49.37 1.49V758h-.86v-3.12c0-.724-.23-1.045-.23-1.045-.23-.32-.74-.32-.74-.32-.4 0-.7.2-.7.2-.3.2-.69.588-.69.588V758h-.86v-5.105zm4.88 5.105zm.49-2.542c0-.63.2-1.13.2-1.13.2-.498.52-.845.52-.845.32-.346.73-.53.73-.53.41-.184.85-.184.85-.184.48 0 .87.16.87.16.39.17.64.48.64.48.26.31.4.75.4.75.14.44.14.98.14.98 0 .28-.03.47-.03.47h-3.44c.05.83.51 1.31.51 1.31.46.48 1.19.48 1.19.48.37 0 .68-.11.68-.11.31-.11.6-.29.6-.29l.31.56c-.33.21-.74.37-.74.37-.41.16-.93.16-.93.16-.51 0-.96-.19-.96-.19-.45-.19-.78-.53-.78-.53-.33-.34-.52-.84-.52-.84-.19-.5-.19-1.13-.19-1.13zm0 0zm3.57-.39c0-.786-.33-1.2-.33-1.2-.33-.416-.93-.416-.93-.416-.27 0-.52.11-.52.11-.24.11-.44.315-.44.315-.2.205-.33.504-.33.504-.14.3-.18.69-.18.69h2.73zm1.15 2.932zm.86-5.105h.72l.08.924h.03c.26-.49.63-.77.63-.77.37-.29.81-.29.81-.29.3 0 .54.1.54.1l-.17.75c-.12-.04-.23-.07-.23-.07-.1-.02-.26-.02-.26-.02-.32 0-.67.26-.67.26-.35.26-.62.91-.62.91v3.3h-.86v-5.11zm2.78 5.105zm.69-4.317c0-.305.18-.49.18-.49.19-.182.45-.182.45-.182.25 0 .44.19.44.19.19.19.19.49.19.49 0 .28-.18.47-.18.47-.18.19-.43.19-.43.19-.26 0-.45-.18-.45-.18-.18-.18-.18-.46-.18-.46zm0 0zm0 3.792c0-.305.18-.49.18-.49.19-.182.45-.182.45-.182.25 0 .44.183.44.183.19.184.19.49.19.49 0 .282-.18.466-.18.466-.18.184-.43.184-.43.184-.26 0-.45-.184-.45-.184-.18-.184-.18-.467-.18-.467zm4.05.525zm.42-.515c.76-.756 1.35-1.365 1.35-1.365.58-.61.98-1.13.98-1.13.4-.52.61-.955.61-.955.21-.436.21-.846.21-.846 0-.58-.31-.95-.31-.95-.32-.37-.96-.37-.96-.37-.42 0-.78.23-.78.23-.36.23-.65.57-.65.57l-.5-.5c.42-.46.89-.74.89-.74.47-.28 1.13-.28 1.13-.28.94 0 1.47.54 1.47.54.54.54.54 1.43.54 1.43 0 .47-.2.95-.2.95-.2.48-.56.98-.56.98-.36.51-.86 1.06-.86 1.06-.5.55-1.1 1.17-1.1 1.17l.57-.04c.3-.02.56-.02.56-.02h1.94v.75h-4.33v-.52zm4.8.515zm2.82-.557c.25 0 .46-.105.46-.105.21-.105.37-.3.37-.3.16-.193.25-.46.25-.46.09-.27.09-.605.09-.605 0-.662-.3-1.04-.3-1.04-.31-.378-.94-.378-.94-.378-.32 0-.69.204-.69.204-.37.2-.71.67-.71.67.08.98.46 1.49.46 1.49.37.51 1.01.51 1.01.51zm0 0zm1.38-5.02c-.21-.242-.5-.384-.5-.384-.29-.15-.6-.15-.6-.15-.34 0-.66.14-.66.14-.31.14-.55.48-.55.48-.24.33-.39.87-.39.87-.14.54-.16 1.34-.16 1.34.32-.39.74-.62.74-.62.42-.23.83-.23.83-.23.87 0 1.39.51 1.39.51.52.51.52 1.55.52 1.55 0 .48-.15.88-.15.88-.16.39-.43.67-.43.67-.27.28-.63.44-.63.44-.36.15-.77.15-.77.15-.49 0-.91-.2-.91-.2-.42-.2-.73-.61-.73-.61-.31-.4-.49-1.01-.49-1.01-.18-.6-.18-1.41-.18-1.41 0-1.01.21-1.72.21-1.72.21-.71.57-1.15.57-1.15.36-.45.82-.65.82-.65.45-.21.96-.21.96-.21.54 0 .94.2.94.2.39.2.68.51.68.51zm1.03 5.577zm1.86 0c.04-.945.17-1.733.17-1.733.13-.788.35-1.497.35-1.497.23-.71.58-1.37.58-1.37.35-.663.85-1.356.85-1.356h-3.34v-.746h4.32v.536c-.6.756-.97 1.45-.97 1.45-.37.693-.59 1.412-.59 1.412-.22.72-.32 1.524-.32 1.524-.1.803-.14 1.78-.14 1.78h-.89zm172.35 0zm.95-6.89h.87V758h-.87v-6.89zm1.82 6.89zm.86-5.105h.72l.07.735h.03c.36-.367.77-.614.77-.614.4-.247.94-.247.94-.247.81 0 1.18.5 1.18.5.37.5.37 1.49.37 1.49V758h-.86v-3.12c0-.724-.24-1.045-.24-1.045-.23-.32-.73-.32-.73-.32-.4 0-.7.2-.7.2-.3.2-.69.588-.69.588V758h-.86v-5.105zm4.88 5.105zm1.01-4.4h-.75v-.653l.8-.052.11-1.43h.73v1.43h1.38v.704h-1.37v2.83c0 .47.17.73.17.73.18.25.62.25.62.25.14 0 .29-.04.29-.04.16-.05.29-.1.29-.1l.17.65c-.21.07-.45.13-.45.13-.24.05-.49.05-.49.05-.41 0-.68-.13-.68-.13-.28-.13-.45-.35-.45-.35-.18-.22-.25-.54-.25-.54-.08-.32-.08-.7-.08-.7v-2.82zm2.44 4.4zm.49-2.542c0-.63.2-1.13.2-1.13.2-.498.52-.845.52-.845.32-.346.73-.53.73-.53.41-.184.85-.184.85-.184.49 0 .87.16.87.16.38.17.64.48.64.48.26.31.4.75.4.75.13.44.13.98.13.98 0 .28-.03.47-.03.47h-3.45c.05.83.51 1.31.51 1.31.45.48 1.19.48 1.19.48.36 0 .67-.11.67-.11.31-.11.59-.29.59-.29l.3.56c-.33.21-.74.37-.74.37-.41.16-.93.16-.93.16-.51 0-.96-.19-.96-.19-.44-.19-.77-.53-.77-.53-.33-.34-.52-.84-.52-.84-.19-.5-.19-1.13-.19-1.13zm0 0zm3.58-.39c0-.786-.34-1.2-.34-1.2-.33-.416-.93-.416-.93-.416-.28 0-.52.11-.52.11-.25.11-.45.315-.45.315-.2.205-.33.504-.33.504-.13.3-.18.69-.18.69h2.73zm1.15 2.932zm.86-5.105h.71l.07.924h.03c.26-.49.63-.77.63-.77.37-.29.81-.29.81-.29.3 0 .54.1.54.1l-.16.75c-.12-.04-.23-.07-.23-.07-.1-.02-.26-.02-.26-.02-.33 0-.68.26-.68.26-.35.26-.61.91-.61.91v3.3h-.86v-5.11zM378.6 758zm.86-5.105h.71l.07.735h.03c.33-.367.73-.614.73-.614.39-.247.85-.247.85-.247.59 0 .92.25.92.25.33.26.49.72.49.72.4-.44.8-.71.8-.71.4-.27.87-.27.87-.27.79 0 1.17.5 1.17.5.38.5.38 1.49.38 1.49V758h-.866v-3.12c0-.724-.23-1.045-.23-1.045-.23-.32-.715-.32-.715-.32-.58 0-1.28.788-1.28.788V758h-.86v-3.12c0-.724-.23-1.045-.23-1.045-.23-.32-.73-.32-.73-.32-.58 0-1.28.788-1.28.788V758h-.86v-5.105zM387.3 758zm.48-2.542c0-.63.19-1.13.19-1.13.19-.498.51-.845.51-.845.32-.346.73-.53.73-.53.41-.184.85-.184.85-.184.48 0 .86.16.86.16.38.17.64.48.64.48.26.31.39.75.39.75.134.44.134.98.134.98 0 .28-.03.47-.03.47h-3.44c.05.83.51 1.31.51 1.31.46.48 1.19.48 1.19.48.37 0 .68-.11.68-.11.31-.11.595-.29.595-.29l.3.56c-.34.21-.75.37-.75.37-.41.16-.94.16-.94.16-.51 0-.96-.19-.96-.19-.44-.19-.77-.53-.77-.53-.33-.34-.52-.84-.52-.84-.19-.5-.19-1.13-.19-1.13zm0 0zm3.57-.39c0-.786-.33-1.2-.33-1.2-.33-.416-.93-.416-.93-.416-.28 0-.52.11-.52.11-.25.11-.45.315-.45.315-.2.205-.33.504-.33.504-.13.3-.18.69-.18.69h2.73zM392.5 758zm.49-2.542c0-.62.19-1.12.19-1.12.18-.498.48-.844.48-.844.3-.347.7-.536.7-.536.4-.19.84-.19.84-.19.44 0 .765.158.765.158.325.158.66.43.66.43l-.044-.87v-1.965h.88V758h-.71l-.08-.6h-.03c-.31.295-.7.51-.7.51-.39.216-.85.216-.85.216-.96 0-1.54-.693-1.54-.693-.57-.693-.57-1.975-.57-1.975zm0 0zm.9-.01c0 .924.36 1.44.36 1.44.37.513 1.04.513 1.04.513.36 0 .67-.17.67-.17.31-.17.63-.53.63-.53v-2.67c-.33-.29-.63-.41-.63-.41-.3-.12-.616-.12-.616-.12-.307 0-.575.14-.575.14-.27.15-.47.4-.47.4-.2.26-.32.62-.32.62-.12.36-.12.8-.12.8zm4.45 2.552zm1.3-6.155c-.25 0-.43-.158-.43-.158-.18-.158-.18-.4-.18-.4 0-.25.174-.404.174-.404.177-.152.43-.152.43-.152.253 0 .426.16.426.16.17.16.17.41.17.41 0 .24-.18.4-.18.4-.177.16-.43.16-.43.16zm0 0zm-.44 1.05h.86V758h-.86v-5.105zm1.7 5.105zm.61-1.323c0-.84.752-1.287.752-1.287.75-.447 2.39-.625 2.39-.625 0-.242-.048-.473-.048-.473-.047-.23-.168-.41-.168-.41-.12-.178-.32-.29-.32-.29-.2-.11-.515-.11-.515-.11-.45 0-.83.17-.83.17-.38.167-.69.377-.69.377l-.34-.6c.36-.23.88-.45.88-.45.52-.22 1.14-.22 1.14-.22.94 0 1.36.57 1.36.57.42.57.42 1.53.42 1.53V758h-.71l-.07-.61h-.02c-.37.306-.79.52-.79.52-.42.216-.89.216-.89.216-.65 0-1.08-.378-1.08-.378-.42-.378-.42-1.07-.42-1.07zm0 0zm.85-.064c0 .442.26.63.26.63.256.19.634.19.634.19.368 0 .7-.173.7-.173.33-.174.697-.51.697-.51v-1.418c-.64.084-1.08.2-1.08.2-.44.115-.71.273-.71.273-.26.157-.38.362-.38.362-.11.205-.11.446-.11.446zm3.92 1.387zm1.008-4.4h-.757v-.653l.8-.052.11-1.43h.73v1.43h1.38v.704h-1.37v2.83c0 .47.18.73.18.73.18.25.62.25.62.25.14 0 .3-.04.3-.04.16-.05.29-.1.29-.1l.17.65c-.21.07-.46.13-.46.13-.25.05-.49.05-.49.05-.41 0-.69-.13-.69-.13-.28-.13-.45-.35-.45-.35-.17-.22-.25-.54-.25-.54-.07-.32-.07-.7-.07-.7v-2.82zm2.437 4.4zm.483-2.542c0-.63.194-1.13.194-1.13.195-.498.515-.845.515-.845.32-.346.73-.53.73-.53.41-.184.85-.184.85-.184.484 0 .867.16.867.16.384.17.64.48.64.48.26.31.395.75.395.75.13.44.13.98.13.98 0 .28-.03.47-.03.47h-3.45c.05.83.51 1.31.51 1.31.45.48 1.19.48 1.19.48.36 0 .67-.11.67-.11.31-.11.59-.29.59-.29l.3.56c-.34.21-.75.37-.75.37-.41.16-.94.16-.94.16-.52 0-.96-.19-.96-.19-.45-.19-.78-.53-.78-.53-.33-.34-.52-.84-.52-.84-.19-.5-.19-1.13-.19-1.13zm0 0zm3.57-.39c0-.786-.33-1.2-.33-1.2-.33-.416-.93-.416-.93-.416-.272 0-.52.11-.52.11-.246.11-.445.315-.445.315-.2.205-.33.504-.33.504-.133.3-.175.69-.175.69h2.73zm1.157 2.932zm.683-4.317c0-.305.183-.49.183-.49.19-.182.45-.182.45-.182.25 0 .44.19.44.19.19.19.19.49.19.49 0 .28-.18.47-.18.47-.18.19-.43.19-.43.19-.26 0-.44-.18-.44-.18-.18-.18-.18-.46-.18-.46zm0 0zm0 3.792c0-.305.183-.49.183-.49.19-.182.45-.182.45-.182.25 0 .44.183.44.183.19.184.19.49.19.49 0 .282-.18.466-.18.466-.18.184-.43.184-.43.184-.26 0-.44-.184-.44-.184-.18-.184-.18-.467-.18-.467zm4.054.525zm.683-1.355c.294.305.7.536.7.536.403.24.99.24.99.24.306 0 .574-.11.574-.11.26-.11.46-.31.46-.31.2-.2.31-.48.31-.48.11-.28.11-.63.11-.63 0-.69-.39-1.08-.39-1.08-.39-.39-1.04-.39-1.04-.39-.35 0-.59.11-.59.11-.25.11-.55.31-.55.31l-.47-.29.22-3.22h3.35v.75h-2.6l-.18 1.99c.24-.13.48-.2.48-.2.24-.07.54-.07.54-.07.43 0 .81.13.81.13.38.13.66.39.66.39.28.26.44.65.44.65.16.4.16.94.16.94 0 .55-.19.97-.19.97-.19.42-.5.71-.5.71-.32.29-.72.44-.72.44-.41.15-.85.15-.85.15-.4 0-.73-.08-.73-.08-.33-.08-.6-.2-.6-.2-.27-.12-.48-.28-.48-.28-.22-.16-.39-.34-.39-.34zm4.538 1.355zm3.193-2.542v-1.943c0-.273.016-.646.016-.646.016-.38.037-.65.037-.65h-.05c-.13.24-.27.47-.27.47l-.29.47-1.57 2.29h2.1zm0 0zm1.733.693h-.92V758h-.82v-1.85h-3.02v-.566l2.87-4.286h.96v4.16h.91v.693zm.29 1.85zm1.21-1.79c0 .29.11.52.11.52.11.23.3.41.3.41.19.18.45.27.45.27.26.1.56.1.56.1.59 0 .95-.32.95-.32.36-.32.36-.85.36-.85 0-.33-.15-.56-.15-.56-.15-.23-.4-.4-.4-.4-.25-.17-.58-.31-.58-.31l-.69-.29c-.4.28-.67.64-.67.64-.27.37-.27.83-.27.83zm0 0zm1.89-1.86c.33-.3.52-.64.52-.64.18-.33.18-.7.18-.7 0-.5-.31-.84-.31-.84-.31-.34-.86-.34-.86-.34-.48 0-.78.3-.78.3-.31.3-.31.79-.31.79 0 .31.12.52.12.52.12.22.34.38.34.38.21.17.49.3.49.3.27.13.58.25.58.25zm0 0zm-2.67 1.95c0-.32.11-.6.11-.6.11-.28.28-.5.28-.5.17-.22.4-.4.4-.4.22-.17.46-.3.46-.3v-.04c-.37-.26-.65-.63-.65-.63-.29-.37-.29-.91-.29-.91 0-.39.14-.7.14-.7.14-.31.4-.54.4-.54.25-.22.59-.35.59-.35.35-.12.76-.12.76-.12.44 0 .79.13.79.13.34.13.59.37.59.37.25.23.38.57.38.57.13.33.13.72.13.72 0 .27-.09.51-.09.51-.09.24-.22.45-.22.45-.13.21-.29.38-.29.38-.17.17-.32.28-.32.28v.05c.22.13.43.29.43.29.21.16.37.37.37.37.16.21.26.47.26.47.1.27.1.6.1.6 0 .38-.16.71-.16.71-.16.33-.44.57-.44.57-.29.24-.69.38-.69.38-.4.14-.88.14-.88.14-.47 0-.88-.13-.88-.13-.4-.13-.69-.38-.69-.38-.29-.25-.46-.58-.46-.58-.17-.34-.17-.74-.17-.74zm171.6 1.71zm3.87-2.8l-.33-1.05c-.19-.58-.36-1.15-.36-1.15-.17-.57-.34-1.17-.34-1.17h-.05c-.16.6-.33 1.17-.33 1.17-.17.57-.36 1.15-.36 1.15l-.33 1.05H606zm0 0zm.22.71h-2.51l-.67 2.1h-.9l2.33-6.89h.98l2.33 6.89h-.93zm1.61 2.1zm.49-2.54c0-.62.18-1.12.18-1.12.18-.5.49-.84.49-.84.3-.35.7-.54.7-.54.4-.19.84-.19.84-.19.44 0 .76.16.76.16.33.16.66.43.66.43l-.04-.87v-1.96h.87V758h-.72l-.07-.6c-.31.295-.7.51-.7.51-.4.216-.85.216-.85.216-.97 0-1.54-.693-1.54-.693-.57-.693-.57-1.975-.57-1.975zm0 0zm.89-.01c0 .92.36 1.44.36 1.44.37.51 1.04.51 1.04.51.36 0 .67-.17.67-.17.31-.17.63-.53.63-.53v-2.67c-.33-.29-.63-.41-.63-.41-.3-.12-.62-.12-.62-.12-.31 0-.58.14-.58.14-.27.14-.47.4-.47.4-.2.26-.32.62-.32.62-.12.36-.12.8-.12.8zm4.44 2.55zm.12-5.1h.89l.96 2.9c.11.38.23.76.23.76l.23.75h.04l.23-.75.23-.75.96-2.9h.85l-1.8 5.11h-1.01zm4.57 5.11zm.61-1.32c0-.84.75-1.28.75-1.28.75-.45 2.39-.63 2.39-.63 0-.24-.05-.47-.05-.47-.05-.23-.17-.41-.17-.41-.12-.18-.32-.29-.32-.29-.2-.11-.52-.11-.52-.11-.46 0-.84.17-.84.17-.38.17-.69.38-.69.38l-.35-.6c.35-.23.87-.45.87-.45.51-.21 1.13-.21 1.13-.21.93 0 1.35.57 1.35.57.42.58.42 1.53.42 1.53v3.1h-.72l-.07-.61h-.02c-.37.31-.79.52-.79.52-.43.22-.9.22-.9.22-.65 0-1.08-.38-1.08-.38-.43-.38-.43-1.07-.43-1.07zm0 0zm.85-.06c0 .44.25.63.25.63.26.19.63.19.63.19.37 0 .7-.18.7-.18.33-.17.7-.51.7-.51v-1.42c-.64.09-1.09.2-1.09.2-.44.12-.71.27-.71.27-.27.16-.39.36-.39.36-.12.21-.12.45-.12.45zm3.92 1.39zm.86-5.11h.71l.07.74h.03c.37-.36.77-.61.77-.61.4-.25.94-.25.94-.25.81 0 1.18.5 1.18.5.37.51.37 1.5.37 1.5v3.2h-.86v-3.12c0-.72-.23-1.04-.23-1.04-.24-.32-.74-.32-.74-.32-.4 0-.71.2-.71.2-.31.2-.69.59-.69.59V758h-.86v-5.105zm4.88 5.1zm.48-2.54c0-.64.2-1.14.2-1.14.2-.5.53-.84.53-.84.33-.34.78-.52.78-.52.44-.18.94-.18.94-.18.5 0 .86.18.86.18.36.18.62.42.62.42l-.43.56c-.23-.2-.48-.32-.48-.32-.25-.13-.55-.13-.55-.13-.35 0-.65.14-.65.14-.3.14-.51.41-.51.41-.21.26-.33.63-.33.63-.12.36-.12.81-.12.81 0 .44.11.79.11.79.11.36.32.62.32.62.2.26.5.4.5.4.29.14.64.14.64.14.37 0 .66-.15.66-.15.3-.15.53-.36.53-.36l.39.57c-.35.3-.77.48-.77.48-.42.18-.89.18-.89.18-.51 0-.95-.18-.95-.18-.45-.18-.77-.52-.77-.52-.32-.34-.5-.84-.5-.84-.19-.5-.19-1.13-.19-1.13zm4.08 2.54zm.48-2.54c0-.63.19-1.13.19-1.13.19-.49.51-.84.51-.84.32-.34.73-.53.73-.53.41-.18.85-.18.85-.18.48 0 .86.17.86.17.39.17.64.49.64.49.26.31.4.76.4.76.13.44.13.99.13.99 0 .28-.03.47-.03.47h-3.44c.05.83.51 1.32.51 1.32.45.48 1.19.48 1.19.48.37 0 .68-.11.68-.11.31-.11.59-.29.59-.29l.3.56c-.33.21-.74.37-.74.37-.41.16-.93.16-.93.16-.51 0-.96-.18-.96-.18-.44-.18-.78-.52-.78-.52-.33-.34-.52-.83-.52-.83-.19-.49-.19-1.12-.19-1.12zm0 0zm3.57-.39c0-.78-.33-1.2-.33-1.2-.33-.41-.93-.41-.93-.41-.28 0-.52.11-.52.11-.25.11-.45.32-.45.32-.2.21-.33.51-.33.51-.13.3-.18.69-.18.69h2.73zm1.16 2.93zm.49-2.55c0-.62.18-1.12.18-1.12.19-.5.49-.84.49-.84.3-.34.7-.53.7-.53.4-.19.84-.19.84-.19.45 0 .77.16.77.16.33.16.66.43.66.43l-.04-.87v-1.96h.87V758h-.71l-.07-.6h-.03c-.31.295-.7.51-.7.51-.4.216-.85.216-.85.216-.97 0-1.54-.693-1.54-.693-.57-.693-.57-1.975-.57-1.975zm0 0zm.89-.01c0 .93.36 1.44.36 1.44.37.52 1.04.52 1.04.52.36 0 .67-.17.67-.17.32-.17.63-.53.63-.53v-2.67c-.32-.29-.62-.41-.62-.41-.3-.12-.62-.12-.62-.12-.31 0-.58.14-.58.14-.27.15-.47.4-.47.4-.2.26-.32.62-.32.62-.12.36-.12.8-.12.8zm4.45 2.56zm.68-4.32c0-.3.18-.49.18-.49.18-.18.44-.18.44-.18.25 0 .43.19.43.19.18.19.18.49.18.49 0 .28-.19.47-.19.47-.18.19-.43.19-.43.19-.26 0-.45-.18-.45-.18-.19-.18-.19-.47-.19-.47zm0 0zm0 3.79c0-.3.18-.49.18-.49.18-.18.44-.18.44-.18.25 0 .43.18.43.18.18.18.18.49.18.49 0 .28-.19.46-.19.46-.18.19-.43.19-.43.19-.26 0-.45-.18-.45-.18-.19-.18-.19-.46-.19-.46zm4.06.53zm.71-1.38c.3.32.71.56.71.56.4.24 1 .24 1 .24.61 0 .99-.33.99-.33.39-.33.39-.9.39-.9 0-.29-.11-.54-.11-.54-.12-.25-.37-.42-.37-.42-.25-.18-.66-.27-.66-.27-.41-.09-1.01-.09-1.01-.09v-.67c.53 0 .9-.09.9-.09.36-.09.59-.26.59-.26.22-.17.32-.4.32-.4.09-.23.09-.49.09-.49 0-.49-.31-.77-.31-.77-.31-.28-.85-.28-.85-.28-.42 0-.77.19-.77.19-.35.19-.65.49-.65.49l-.47-.55c.39-.36.86-.6.86-.6.47-.24 1.06-.24 1.06-.24.44 0 .81.12.81.12.36.12.63.33.63.33.26.22.41.53.41.53.14.32.14.73.14.73 0 .61-.34 1-.34 1-.34.39-.88.6-.88.6v.04c.3.07.56.22.56.22.26.14.46.36.46.36.2.21.31.5.31.5.11.28.11.63.11.63 0 .44-.177.8-.177.8-.17.36-.47.6-.47.6-.3.25-.7.38-.7.38-.4.13-.86.13-.86.13-.4 0-.73-.08-.73-.08-.33-.07-.61-.21-.61-.21-.27-.13-.49-.29-.49-.29-.21-.17-.38-.36-.38-.36zm4.5 1.39zm2.62.13c-1.02 0-1.59-.9-1.59-.9-.57-.91-.57-2.6-.57-2.6 0-1.69.57-2.57.57-2.57.57-.88 1.59-.88 1.59-.88 1 0 1.57.88 1.57.88.57.88.57 2.57.57 2.57 0 1.69-.56 2.6-.56 2.6-.57.91-1.58.91-1.58.91zm0 0zm0-.69c.29 0 .53-.17.53-.17.23-.16.41-.5.41-.5.17-.34.26-.87.26-.87.1-.53.1-1.26.1-1.26 0-.73-.1-1.26-.1-1.26-.1-.52-.27-.85-.27-.85-.18-.33-.41-.49-.41-.49-.24-.16-.53-.16-.53-.16-.3 0-.54.16-.54.16-.24.16-.42.49-.42.49-.18.33-.27.86-.27.86-.1.53-.1 1.26-.1 1.26 0 1.47.36 2.14.36 2.14.36.67.95.67.95.67zm2.6.56zm1.86 0c.04-.94.17-1.73.17-1.73.13-.78.35-1.49.35-1.49.23-.71.58-1.37.58-1.37.35-.66.85-1.35.85-1.35h-3.34v-.74h4.32v.54c-.6.76-.97 1.45-.97 1.45-.37.69-.59 1.41-.59 1.41-.22.72-.32 1.52-.32 1.52-.1.81-.14 1.78-.14 1.78h-.89zm185.37 0zm.95-6.89h3.97v.74h-3.1V754h2.62v.747h-2.61v2.5h3.2v.75h-4.08v-6.89zm4.59 6.89zm1.82-2.66l-1.54-2.44h.93l.68 1.12c.12.21.25.42.25.42.12.21.26.42.26.42h.04l.23-.42.23-.42.62-1.12h.9l-1.54 2.53 1.66 2.58h-.94l-.75-1.19-.27-.46-.29-.45h-.04c-.14.22-.26.45-.26.45-.13.23-.25.47-.25.47l-.69 1.19h-.91zm2.87 2.67zm1.72.43v1.73h-.86v-7.26h.72l.07.59h.03c.35-.29.76-.5.76-.5.42-.21.87-.21.87-.21.49 0 .87.18.87.18.38.18.63.52.63.52.25.34.38.82.38.82.13.48.13 1.08.13 1.08 0 .65-.18 1.16-.18 1.16-.18.51-.48.87-.48.87-.31.36-.71.54-.71.54-.4.19-.85.19-.85.19-.36 0-.71-.16-.71-.16-.35-.15-.71-.43-.71-.43zm0 0zm0-1.56c.35.3.68.42.68.42.33.12.58.12.58.12.32 0 .58-.14.58-.14.27-.14.46-.4.46-.4.19-.25.3-.63.3-.63.11-.38.11-.85.11-.85 0-.42-.07-.77-.07-.77-.07-.35-.23-.59-.23-.59-.16-.25-.42-.38-.42-.38-.26-.13-.62-.13-.62-.13-.33 0-.66.18-.66.18-.33.18-.71.51-.71.51v2.68zm4.1 1.14zm.49-2.54c0-.63.19-1.13.19-1.13.19-.5.52-.84.52-.84.32-.34.73-.53.73-.53.41-.18.85-.18.85-.18.48 0 .86.16.86.16.39.17.64.48.64.48.26.32.4.76.4.76.14.44.14.99.14.99 0 .29-.03.48-.03.48h-3.44c.05.83.51 1.32.51 1.32.46.48 1.19.48 1.19.48.37 0 .68-.11.68-.11.31-.11.59-.29.59-.29l.31.56c-.34.21-.75.37-.75.37-.41.16-.94.16-.94.16-.52 0-.96-.18-.96-.18-.45-.19-.78-.53-.78-.53-.33-.34-.52-.84-.52-.84-.19-.49-.19-1.12-.19-1.12zm0 0zm3.57-.39c0-.78-.33-1.2-.33-1.2-.33-.41-.93-.41-.93-.41-.28 0-.52.11-.52.11-.25.11-.45.31-.45.31-.2.21-.33.51-.33.51-.13.3-.17.69-.17.69h2.73zm1.15 2.94zm.86-5.1h.71l.07.93h.03c.26-.49.63-.77.63-.77.37-.29.81-.29.81-.29.3 0 .54.1.54.1l-.17.76c-.13-.04-.23-.06-.23-.06-.11-.02-.27-.02-.27-.02-.33 0-.68.26-.68.26-.35.26-.62.91-.62.91v3.3h-.86v-5.1zm2.78 5.1zm1.01-4.4h-.76V753l.8-.05.1-1.43h.73v1.43h1.38v.704h-1.37v2.83c0 .47.17.73.17.73.17.25.61.25.61.25.14 0 .29-.04.29-.04.16-.04.28-.09.28-.09l.17.65c-.21.07-.46.13-.46.13-.24.06-.49.06-.49.06-.41 0-.68-.13-.68-.13-.28-.125-.45-.35-.45-.35-.17-.22-.25-.53-.25-.53-.07-.313-.07-.69-.07-.69v-2.82zm2.54 4.4zm.68-4.31c0-.3.18-.49.18-.49.18-.18.44-.18.44-.18.25 0 .43.19.43.19.18.19.18.49.18.49 0 .28-.19.47-.19.47-.18.19-.43.19-.43.19-.27 0-.45-.18-.45-.18-.19-.18-.19-.46-.19-.46zm0 0zm0 3.8c0-.3.18-.49.18-.49.18-.18.44-.18.44-.18.25 0 .43.19.43.19.18.19.18.49.18.49 0 .29-.19.47-.19.47-.18.19-.43.19-.43.19-.27 0-.45-.18-.45-.18-.19-.18-.19-.47-.19-.47zm4.05.53zm.83-.71h1.53v-4.94h-1.22v-.56c.46-.09.8-.21.8-.21.34-.12.61-.29.61-.29h.66v5.99h1.38v.72h-3.78v-.72zm4.39.72zm2.61.13c-1.02 0-1.59-.9-1.59-.9-.57-.9-.57-2.596-.57-2.596 0-1.69.56-2.57.56-2.57.57-.885 1.59-.885 1.59-.885 1.01 0 1.57.88 1.57.88.56.88.56 2.57.56 2.57 0 1.69-.57 2.59-.57 2.59-.57.9-1.58.9-1.58.9zm0 0zm0-.69c.29 0 .53-.16.53-.16.23-.17.41-.51.41-.51.17-.34.26-.87.26-.87.1-.53.1-1.27.1-1.27 0-.734-.1-1.26-.1-1.26-.1-.524-.27-.855-.27-.855-.18-.33-.41-.49-.41-.49-.24-.16-.53-.16-.53-.16-.3 0-.54.16-.54.16-.25.16-.42.49-.42.49-.17.33-.27.86-.27.86-.1.53-.1 1.26-.1 1.26 0 1.47.36 2.14.36 2.14.36.67.95.67.95.67zm2.6.57zm3.19-2.54v-1.95c0-.273.01-.646.01-.646.02-.38.04-.65.04-.65h-.04c-.13.24-.27.47-.27.47l-.28.47-1.57 2.29h2.1zm0 0zm1.73.69h-.92v1.8h-.82v-1.85h-3.02v-.566l2.87-4.287h.96v4.16h.92v.696z"/></svg>