<svg xmlns="http://www.w3.org/2000/svg" stroke="#000" viewBox="0 0 1024 768" font-size="1"><path fill="#FFF" stroke="none" d="M0 0v768h1024V0z"/><path stroke="none" d="M359.02 14.102zm1.186-10.04h2.264V14.1h-2.264V4.062zm6.653 10.04zm1.3-5.868h-1.05v-1.68l1.17-.09.26-2.034h1.88v2.033h1.83v1.77h-1.83V11.3c0 .646.26.93.26.93.27.285.72.285.72.285.18 0 .38-.046.38-.046.19-.05.34-.11.34-.11l.35 1.65c-.31.09-.72.18-.72.18-.42.09-.97.09-.97.09-.71 0-1.21-.22-1.21-.22-.5-.22-.82-.6-.82-.6-.32-.39-.47-.94-.47-.94-.14-.55-.14-1.21-.14-1.21V8.23zm4.59 5.868zm1-10.796h2.26v2.65l-.11 1.37c.43-.386 1-.717 1-.717.57-.34 1.35-.34 1.35-.34 1.24 0 1.81.81 1.81.81.56.81.56 2.26.56 2.26v4.75h-2.27V9.65c0-.832-.23-1.14-.23-1.14-.23-.31-.72-.31-.72-.31-.43 0-.74.195-.74.195-.31.192-.68.547-.68.547v5.16h-2.27V3.305zm7.79 10.796zm2.12-8.763c-.57 0-.94-.34-.94-.34-.37-.33-.37-.86-.37-.86 0-.53.37-.85.37-.85.37-.33.94-.33.94-.33.58 0 .94.32.94.32.36.32.36.84.36.84 0 .52-.36.85-.36.85-.37.33-.95.33-.95.33zm0 0zm-1.13 1.12h2.26v7.64h-2.26V6.46zm3.25 7.64zm1-7.64h1.85l.15.97h.06c.49-.46 1.08-.81 1.08-.81.58-.35 1.37-.35 1.37-.35 1.24 0 1.81.81 1.81.81.56.81.56 2.26.56 2.26v4.75h-2.26V9.65c0-.832-.22-1.14-.22-1.14-.23-.31-.72-.31-.72-.31-.43 0-.74.195-.74.195-.31.192-.68.547-.68.547v5.16h-2.26v-7.64zm7.81 7.64zm1-10.8h2.2v6.19h.06l2.42-3.04h2.46l-2.67 3.15 2.88 4.49h-2.44l-1.73-2.98-.97 1.09v1.88h-2.2V3.3zm10.64 10.8zm1.18-10.04h2.26v3.86h3.46V4.06h2.28v10.042h-2.28v-4.19h-3.46v4.19h-2.26V4.062zm9.19 10.04zm.72-2.13c0-1.2 1.02-1.88 1.02-1.88 1.01-.68 3.28-.91 3.28-.91-.03-.51-.31-.81-.31-.81-.28-.3-.9-.3-.9-.3-.49 0-.99.18-.99.18-.49.18-1.05.51-1.05.51l-.8-1.49c.73-.45 1.54-.73 1.54-.73.81-.28 1.72-.28 1.72-.28 1.47 0 2.25.84 2.25.84.78.84.78 2.61.78 2.61v4.37h-1.85l-.17-.79h-.05c-.5.43-1.04.7-1.04.7-.55.27-1.2.27-1.2.27-.52 0-.94-.18-.94-.18-.42-.18-.71-.5-.71-.5-.29-.32-.45-.73-.45-.73-.17-.41-.17-.9-.17-.9zm0 0zm2.16-.17c0 .37.24.55.24.55.23.17.64.17.64.17.4 0 .67-.17.67-.17.28-.17.58-.48.58-.48v-1.34c-1.22.17-1.68.49-1.68.49-.46.32-.46.77-.46.77zm5.34 2.29zm1.34-2.29c.52.4 1 .6 1 .6.48.2.97.2.97.2.51 0 .74-.17.74-.17.23-.17.23-.48.23-.48 0-.19-.13-.33-.13-.33-.13-.15-.36-.27-.36-.27-.22-.12-.5-.22-.5-.22-.28-.1-.57-.22-.57-.22-.36-.14-.71-.33-.71-.33-.35-.19-.65-.46-.65-.46-.29-.27-.48-.63-.48-.63-.19-.36-.19-.84-.19-.84 0-.52.21-.97.21-.97.2-.45.59-.75.59-.75.39-.31.93-.49.93-.49.54-.18 1.2-.18 1.2-.18.88 0 1.54.3 1.54.3.66.3 1.15.67 1.15.67l-1 1.37c-.42-.31-.82-.48-.82-.48-.4-.17-.8-.17-.8-.17-.87 0-.87.6-.87.6 0 .18.12.31.12.31.12.13.33.24.33.24.21.11.47.21.47.21l.57.21c.37.14.73.31.73.31.36.17.66.43.66.43.3.26.49.64.49.64.19.38.19.9.19.9 0 .52-.2.97-.2.97-.2.45-.6.78-.6.78-.4.33-.99.52-.99.52-.58.19-1.35.19-1.35.19-.75 0-1.55-.29-1.55-.29-.79-.29-1.37-.77-1.37-.77zm5.48 2.29zm1-10.8h2.2v6.2h.06l2.42-3.04h2.46l-2.67 3.15 2.88 4.5h-2.45l-1.72-2.97-.97 1.09v1.88h-2.2V3.3zm7.01 10.79zm.55-3.82c0-.93.31-1.67.31-1.67.3-.75.8-1.26.8-1.26.5-.52 1.15-.8 1.15-.8.65-.28 1.34-.28 1.34-.28.82 0 1.42.28 1.42.28.6.27 1.01.77 1.01.77.41.49.61 1.16.61 1.16.2.67.2 1.45.2 1.45 0 .31-.03.56-.03.56-.03.25-.06.39-.06.39h-4.57c.15.88.69 1.27.69 1.27.53.39 1.3.39 1.3.39.82 0 1.65-.51 1.65-.51l.75 1.37c-.59.4-1.3.63-1.3.63-.72.23-1.41.23-1.41.23-.82 0-1.53-.27-1.53-.27-.71-.27-1.24-.79-1.24-.79-.53-.52-.82-1.26-.82-1.26-.29-.74-.29-1.7-.29-1.7zm0 0zm4.93-.79c0-.66-.3-1.08-.3-1.08-.29-.42-.99-.42-.99-.42-.54 0-.95.37-.95.37-.41.36-.53 1.13-.53 1.13h2.76zm2.49 4.61zm1-10.8h2.26v8.52c0 .35.13.49.13.49.13.14.27.14.27.14h.13l.15-.03.28 1.68c-.19.07-.47.13-.47.13-.29.05-.67.05-.67.05-.59 0-.99-.19-.99-.19-.4-.19-.64-.52-.64-.52-.24-.33-.35-.8-.35-.8-.11-.47-.11-1.06-.11-1.06V3.3zm3.41 10.79zm1-10.8h2.26v8.51c0 .36.13.49.13.49.13.14.27.14.27.14h.13l.15-.03.27 1.68c-.18.08-.47.13-.47.13-.28.05-.67.05-.67.05-.58 0-.98-.18-.98-.18-.4-.18-.64-.52-.64-.52-.24-.33-.35-.8-.35-.8-.11-.47-.11-1.06-.11-1.06V3.3zm6.6 10.79zm1-10.8h2.27v8.52c0 .36.13.49.13.49.13.14.27.14.27.14h.13l.14-.03.28 1.68c-.19.07-.47.13-.47.13-.29.05-.67.05-.67.05-.59 0-.99-.19-.99-.19-.4-.19-.64-.52-.64-.52-.24-.33-.35-.8-.35-.8-.11-.47-.11-1.05-.11-1.05V3.3zm3.41 10.79zm2.13-8.76c-.57 0-.94-.33-.94-.33-.37-.33-.37-.86-.37-.86 0-.52.37-.85.37-.85.37-.33.94-.33.94-.33.58 0 .94.32.94.32.36.32.36.84.36.84 0 .52-.36.86-.36.86-.36.33-.94.33-.94.33zm0 0zm-1.12 1.12h2.26v7.64h-2.27v-7.6zm3.25 7.64zm1-10.8h2.26V5.9l-.07 1.17c.45-.4.96-.624.96-.624.52-.228 1.05-.228 1.05-.228.7 0 1.25.27 1.25.27.56.28.95.78.95.78.39.5.6 1.22.6 1.22.21.72.21 1.6.21 1.6 0 .984-.27 1.754-.27 1.754-.27.77-.73 1.3-.73 1.3-.45.53-1.03.81-1.03.81-.58.28-1.19.28-1.19.28-.51 0-1.02-.25-1.02-.25-.51-.25-.96-.74-.96-.74h-.06l-.19.8h-1.77V3.31zm0 0zm2.26 8.64c.3.27.61.38.61.38.31.1.6.1.6.1.58 0 1-.53 1-.53.42-.53.42-1.72.42-1.72 0-2.07-1.33-2.07-1.33-2.07-.68 0-1.31.69-1.31.69v3.13zm5.56 2.15zm1-7.64H480l.152 1.34h.06c.412-.79 1-1.16 1-1.16.58-.37 1.17-.37 1.17-.37.32 0 .53.04.53.04.21.03.372.11.372.11l-.37 1.95c-.22-.07-.4-.1-.4-.1-.19-.03-.437-.03-.437-.03-.43 0-.9.31-.9.31-.47.31-.78 1.1-.78 1.1v4.44h-2.262v-7.6zm4.68 7.64zm.72-2.13c0-1.2 1.01-1.88 1.01-1.88 1.01-.68 3.28-.91 3.28-.91-.03-.51-.31-.81-.31-.81-.28-.3-.89-.3-.89-.3-.5 0-.99.18-.99.18-.5.18-1.05.51-1.05.51l-.8-1.5c.74-.45 1.55-.73 1.55-.73.81-.28 1.71-.28 1.71-.28 1.48 0 2.25.84 2.25.84.78.84.78 2.61.78 2.61v4.38h-1.85l-.17-.79H488c-.49.43-1.04.7-1.04.7-.544.27-1.19.27-1.19.27-.52 0-.94-.18-.94-.18-.414-.17-.707-.49-.707-.49-.295-.32-.457-.73-.457-.73-.16-.41-.16-.9-.16-.9zm0 0zm2.15-.17c0 .37.24.55.24.55.24.17.64.17.64.17.4 0 .67-.17.67-.17.27-.17.58-.48.58-.48V10.5c-1.22.17-1.68.49-1.68.49-.46.328-.46.77-.46.77zm5.34 2.29zm1-7.64h1.85l.15 1.34h.06c.42-.79 1-1.16 1-1.16.59-.37 1.17-.37 1.17-.37.33 0 .54.04.54.04.2.03.37.11.37.11l-.37 1.96c-.21-.06-.4-.09-.4-.09-.18-.03-.43-.03-.43-.03-.43 0-.9.3-.9.3-.47.31-.77 1.1-.77 1.1v4.44h-2.26v-7.6zm5.13 7.64zm2.12-8.76c-.57 0-.94-.34-.94-.34-.37-.33-.37-.86-.37-.86 0-.53.37-.85.37-.85.37-.33.94-.33.94-.33.58 0 .95.32.95.32.36.32.36.84.36.84 0 .52-.36.86-.36.86-.37.33-.95.33-.95.33zm0 0zm-1.13 1.12h2.27v7.64h-2.27v-7.6zm3.25 7.64zm.56-3.82c0-.93.31-1.68.31-1.68.3-.75.81-1.26.81-1.26.5-.52 1.14-.8 1.14-.8.65-.28 1.34-.28 1.34-.28.81 0 1.42.28 1.42.28.61.28 1.01.77 1.01.77.41.49.61 1.16.61 1.16.2.67.2 1.46.2 1.46 0 .31-.03.57-.03.57-.03.25-.07.39-.07.39h-4.58c.15.88.68 1.27.68 1.27.53.39 1.3.39 1.3.39.82 0 1.65-.51 1.65-.51l.75 1.37c-.58.4-1.3.63-1.3.63-.72.23-1.41.23-1.41.23-.82 0-1.52-.27-1.52-.27-.71-.27-1.23-.79-1.23-.79-.52-.52-.81-1.26-.81-1.26-.29-.74-.29-1.7-.29-1.7zm0 0zm4.93-.79c0-.66-.3-1.08-.3-1.08-.3-.42-.99-.42-.99-.42-.54 0-.95.36-.95.36-.41.36-.53 1.13-.53 1.13h2.75zm2.49 4.6zm1.34-2.3c.52.4 1 .6 1 .6.48.2.97.2.97.2.51 0 .74-.17.74-.17.23-.17.23-.48.23-.48 0-.18-.13-.33-.13-.33-.13-.15-.36-.27-.36-.27-.22-.12-.5-.22-.5-.22-.28-.1-.57-.23-.57-.23-.36-.14-.71-.32-.71-.32-.35-.18-.65-.45-.65-.45-.29-.27-.48-.63-.48-.63-.19-.37-.19-.84-.19-.84 0-.53.21-.97.21-.97.21-.45.59-.76.59-.76.39-.31.93-.49.93-.49.54-.18 1.2-.18 1.2-.18.88 0 1.54.3 1.54.3.66.3 1.16.67 1.16.67l-1.02 1.36c-.42-.31-.82-.48-.82-.48-.4-.17-.8-.17-.8-.17-.86 0-.86.6-.86.6 0 .18.12.31.12.31.12.13.33.24.33.24.21.11.48.21.48.21l.56.2c.37.14.73.32.73.32.36.18.66.44.66.44.3.26.49.64.49.64.18.38.18.9.18.9 0 .53-.2.97-.2.97-.2.45-.6.78-.6.78-.4.33-.99.52-.99.52-.58.19-1.35.19-1.35.19-.75 0-1.54-.29-1.54-.29-.79-.29-1.38-.77-1.38-.77zm8.68 2.29zm.72-2.13c0-1.2 1.01-1.88 1.01-1.88 1.02-.67 3.28-.91 3.28-.91-.03-.51-.3-.81-.3-.81-.28-.3-.9-.3-.9-.3-.49 0-.99.18-.99.18-.49.18-1.05.51-1.05.51l-.8-1.5c.74-.45 1.55-.73 1.55-.73.81-.28 1.72-.28 1.72-.28 1.48 0 2.26.84 2.26.84.78.84.78 2.61.78 2.61V14h-1.85l-.17-.79h-.05c-.49.44-1.04.7-1.04.7-.55.27-1.19.27-1.19.27-.53 0-.94-.17-.94-.17-.42-.18-.71-.49-.71-.49-.29-.32-.46-.73-.46-.73-.16-.42-.16-.91-.16-.91zm0 0zm2.15-.17c0 .37.24.55.24.55.24.18.64.18.64.18.4 0 .68-.17.68-.17.28-.17.59-.48.59-.48v-1.3c-1.22.17-1.68.49-1.68.49-.46.32-.46.77-.46.77zm5.35 2.3zm1-7.64h1.85l.15 1.34h.06c.41-.79 1-1.15 1-1.15.59-.37 1.17-.37 1.17-.37.32 0 .53.04.53.04.21.04.38.12.38.12l-.37 1.95c-.21-.06-.4-.09-.4-.09-.18-.03-.43-.03-.43-.03-.43 0-.9.31-.9.31-.47.31-.78 1.1-.78 1.1v4.44h-2.26v-7.6zm4.97 7.64zm.55-3.82c0-.92.31-1.67.31-1.67.3-.75.8-1.26.8-1.26.5-.52 1.15-.8 1.15-.8.64-.28 1.34-.28 1.34-.28.81 0 1.42.28 1.42.28.6.28 1.01.77 1.01.77.41.49.61 1.16.61 1.16.2.67.2 1.46.2 1.46 0 .31-.03.56-.03.56-.03.25-.06.39-.06.39h-4.57c.15.88.68 1.27.68 1.27.53.39 1.3.39 1.3.39.81 0 1.65-.51 1.65-.51l.75 1.37c-.59.4-1.3.63-1.3.63-.72.23-1.41.23-1.41.23-.82 0-1.53-.27-1.53-.27-.71-.27-1.23-.79-1.23-.79-.52-.52-.81-1.25-.81-1.25-.29-.74-.29-1.7-.29-1.7zm0 0zm4.93-.79c0-.66-.3-1.08-.3-1.08-.29-.42-.98-.42-.98-.42-.54 0-.95.36-.95.36-.4.36-.53 1.13-.53 1.13h2.76zm5.69 4.61zm.37-7.64h2.25l.74 3.54c.09.57.17 1.12.17 1.12.07.55.17 1.14.17 1.14h.06c.11-.59.21-1.16.21-1.16.1-.57.24-1.11.24-1.11l.85-3.54h1.95l.86 3.54c.14.57.25 1.12.25 1.12.1.56.23 1.14.23 1.14h.06c.11-.58.18-1.14.18-1.14.07-.55.17-1.12.17-1.12l.72-3.54h2.09L554.49 14h-2.65l-.69-3.05c-.127-.54-.22-1.08-.22-1.08-.09-.54-.2-1.154-.2-1.154h-.06c-.11.62-.19 1.16-.19 1.16-.08.54-.19 1.08-.19 1.08l-.677 3.05h-2.59zm11.46 7.64zm.55-3.82c0-.93.3-1.67.3-1.67.31-.75.81-1.27.81-1.27.5-.52 1.15-.8 1.15-.8.64-.27 1.34-.27 1.34-.27.81 0 1.42.28 1.42.28.61.28 1.02.77 1.02.77.41.49.61 1.16.61 1.16.2.67.2 1.46.2 1.46 0 .3-.03.56-.03.56-.03.25-.06.39-.06.39h-4.57c.15.88.68 1.27.68 1.27.53.39 1.3.39 1.3.39.81 0 1.65-.51 1.65-.51l.75 1.37c-.59.4-1.31.63-1.31.63-.72.23-1.41.23-1.41.23-.82 0-1.53-.27-1.53-.27-.71-.27-1.23-.79-1.23-.79-.52-.52-.82-1.25-.82-1.25-.29-.74-.29-1.69-.29-1.69zm0 0zm4.92-.79c0-.66-.29-1.08-.29-1.08-.29-.42-.99-.42-.99-.42-.54 0-.95.36-.95.36-.41.36-.53 1.13-.53 1.13h2.75zm2.49 4.61zm1-10.8h2.26v8.52c0 .35.13.49.13.49.14.14.27.14.27.14h.13l.15-.03.28 1.68c-.19.07-.47.13-.47.13-.29.05-.67.05-.67.05-.59 0-.99-.19-.99-.19-.4-.19-.64-.52-.64-.52-.24-.33-.35-.8-.35-.8-.11-.47-.11-1.06-.11-1.06V3.3zm3.4 10.8zm1-10.8h2.26v8.51c0 .35.13.49.13.49.13.14.27.14.27.14h.13l.15-.03.28 1.68c-.18.07-.47.13-.47.13-.28.05-.67.05-.67.05-.58 0-.98-.19-.98-.19-.4-.18-.64-.52-.64-.52-.24-.33-.35-.8-.35-.8-.11-.47-.11-1.05-.11-1.05V3.3zM576.55 14zm.6-3.82c0-.94.27-1.68.27-1.68.27-.74.71-1.257.71-1.257.436-.52 1.013-.798 1.013-.798.58-.28 1.18-.28 1.18-.28.65 0 1.07.21 1.07.21.414.212.814.58.814.58l-.09-1.17V3.3h2.26v10.8h-1.84l-.16-.754h-.06c-.4.4-.94.67-.94.67-.54.27-1.1.27-1.1.27-.704 0-1.28-.278-1.28-.278-.58-.278-.99-.794-.99-.794-.41-.516-.636-1.255-.636-1.255-.22-.74-.22-1.68-.22-1.68zm0 0zm2.324-.03c0 1.14.36 1.66.36 1.66.37.522 1.03.522 1.03.522.37 0 .67-.16.67-.16.3-.15.58-.54.58-.54V8.6c-.31-.278-.63-.386-.63-.386-.32-.106-.63-.106-.63-.106-.54 0-.956.518-.956.518-.42.516-.42 1.61-.42 1.61zm5.9 3.85zm.56-3.82c0-.96.31-1.7.31-1.7.304-.75.82-1.26.82-1.26.51-.51 1.19-.778 1.19-.778.68-.27 1.4-.27 1.4-.27.724 0 1.394.27 1.394.27.67.27 1.183.77 1.183.77.52.51.82 1.26.82 1.26.31.75.31 1.7.31 1.7 0 .955-.3 1.7-.3 1.7-.31.75-.82 1.26-.82 1.26-.52.503-1.19.773-1.19.773-.67.27-1.39.27-1.39.27-.72 0-1.4-.27-1.4-.27-.67-.27-1.19-.78-1.19-.78-.51-.51-.82-1.25-.82-1.25-.31-.75-.31-1.704-.31-1.704zm0 0zm2.32 0c0 1 .35 1.582.35 1.582.346.58 1.055.58 1.055.58.69 0 1.04-.586 1.04-.586.35-.585.35-1.586.35-1.586 0-1-.36-1.59-.36-1.59-.35-.59-1.05-.59-1.05-.59-.71 0-1.05.59-1.05.59-.35.584-.35 1.585-.35 1.585zm5.67 3.82zm.56-3.82c0-.96.324-1.7.324-1.7.33-.75.87-1.26.87-1.26.55-.51 1.27-.778 1.27-.778.73-.27 1.51-.27 1.51-.27.71 0 1.28.24 1.28.24.57.23.96.63.96.63l-1.03 1.4C599.13 8 598.606 8 598.606 8c-.83 0-1.31.586-1.31.586-.48.59-.48 1.59-.48 1.59 0 1 .48 1.582.48 1.582.48.584 1.22.584 1.22.584.42 0 .756-.17.756-.17.34-.17.615-.387.615-.387l.91 1.43c-.56.493-1.24.724-1.24.724-.67.23-1.305.23-1.305.23-.8 0-1.482-.27-1.482-.27-.69-.27-1.2-.78-1.2-.78-.51-.51-.8-1.25-.8-1.25-.29-.75-.29-1.71-.29-1.71zm6.64 3.82zm.924-7.64h2.27v4.45c0 .83.23 1.14.23 1.14.23.305.73.305.73.305.43 0 .72-.2.72-.2.29-.2.63-.643.63-.643v-5h2.268v7.64h-1.85L606.89 13h-.045c-.496.586-1.058.917-1.058.917-.568.33-1.35.33-1.35.33-1.25 0-1.81-.816-1.81-.816-.56-.81-.56-2.26-.56-2.26V6.46zm7.83 7.64zm1-7.64h1.85l.15.983h.07c.47-.48 1.01-.828 1.01-.828.54-.35 1.29-.35 1.29-.35.81 0 1.316.33 1.316.33.5.33.79.94.79.94.5-.52 1.07-.9 1.07-.9.56-.38 1.33-.38 1.33-.38 1.23 0 1.81.823 1.81.823.58.82.58 2.25.58 2.25V14h-2.27V9.6c0-.83-.23-1.14-.23-1.14-.22-.31-.71-.31-.71-.31-.57 0-1.31.74-1.31.74v5.16h-2.263V9.64c0-.832-.22-1.14-.22-1.14-.22-.31-.71-.31-.71-.31-.58 0-1.29.74-1.29.74v5.16h-2.26V6.45zm12.2 7.64zm.55-3.82c0-.928.31-1.67.31-1.67.31-.75.81-1.267.81-1.267.5-.52 1.146-.798 1.146-.798.65-.28 1.34-.28 1.34-.28.82 0 1.43.27 1.43.27.61.28 1.02.77 1.02.77.41.49.61 1.16.61 1.16.2.67.2 1.454.2 1.454 0 .3-.03.56-.03.56-.03.25-.06.39-.06.39h-4.57c.15.88.68 1.27.68 1.27.53.39 1.3.39 1.3.39.81 0 1.65-.51 1.65-.51l.75 1.37c-.59.4-1.31.63-1.31.63-.714.23-1.407.23-1.407.23-.82 0-1.52-.27-1.52-.27-.71-.27-1.23-.78-1.23-.78-.52-.52-.817-1.26-.817-1.26-.29-.74-.29-1.69-.29-1.69zm0 0zm4.93-.79c0-.66-.293-1.077-.293-1.077-.29-.42-.99-.42-.99-.42-.54 0-.95.36-.95.36-.41.363-.53 1.133-.53 1.133h2.76zm2.49 4.606zm1-7.64h1.85l.15.97h.06c.497-.46 1.08-.804 1.08-.804.588-.35 1.37-.35 1.37-.35 1.25 0 1.81.81 1.81.81.56.817.56 2.26.56 2.26V14h-2.26V9.6c0-.834-.22-1.14-.22-1.14-.22-.31-.716-.31-.716-.31-.43 0-.74.19-.74.19-.31.195-.68.55-.68.55v5.16h-2.26v-7.6zm7.81 7.64zm1.308-5.87h-1.05v-1.6l1.17-.09.267-2.034h1.88v2.04h1.83v1.77h-1.83v3.07c0 .643.27.93.27.93.27.282.72.282.72.282.19 0 .38-.048.38-.048.19-.05.35-.11.35-.11l.36 1.65c-.31.09-.72.18-.72.18-.42.09-.97.09-.97.09-.71 0-1.21-.22-1.21-.22-.5-.22-.82-.6-.82-.6-.316-.39-.463-.94-.463-.94-.14-.55-.14-1.21-.14-1.21V8.23zm4.44 5.87zm.55-3.82c0-.92.31-1.67.31-1.67.31-.75.81-1.26.81-1.26.5-.52 1.144-.8 1.144-.8.65-.28 1.34-.28 1.34-.28.82 0 1.43.28 1.43.28.61.28 1.02.77 1.02.77.404.5.604 1.17.604 1.17.2.67.2 1.45.2 1.45 0 .31-.03.563-.03.563-.03.25-.06.39-.06.39h-4.56c.15.88.682 1.27.682 1.27.53.39 1.3.39 1.3.39.82 0 1.65-.51 1.65-.51l.76 1.37c-.59.4-1.3.63-1.3.63-.72.23-1.41.23-1.41.23-.82 0-1.53-.27-1.53-.27-.71-.27-1.23-.78-1.23-.78-.52-.52-.814-1.26-.814-1.26-.29-.74-.29-1.7-.29-1.7zm0 0zm4.93-.78c0-.66-.29-1.08-.29-1.08-.296-.416-.99-.416-.99-.416-.54 0-.95.36-.95.36-.41.36-.53 1.13-.53 1.13h2.76zM653.582 14zm.6-3.82c0-.94.27-1.68.27-1.68.27-.74.71-1.25.71-1.25.44-.516 1.02-.794 1.02-.794.58-.27 1.18-.27 1.18-.27.65 0 1.067.21 1.067.21.42.21.82.58.82.58l-.1-1.17V3.3h2.27v10.8h-1.85l-.16-.754h-.06c-.4.4-.94.67-.94.67-.53.27-1.09.27-1.09.27-.71 0-1.28-.278-1.28-.278-.58-.278-.99-.794-.99-.794-.4-.516-.63-1.255-.63-1.255-.22-.74-.22-1.68-.22-1.68zm0 0zm2.33-.03c0 1.14.367 1.66.367 1.66.36.52 1.03.52 1.03.52.37 0 .67-.15.67-.15.3-.16.57-.54.57-.54V8.62c-.31-.278-.63-.386-.63-.386-.33-.108-.63-.108-.63-.108-.54 0-.96.516-.96.516-.42.516-.42 1.61-.42 1.61zm5.9 3.85zm.94-1.23c0-.61.397-1.02.397-1.02.4-.41.98-.41.98-.41.59 0 .98.41.98.41.39.41.39 1.027.39 1.027 0 .6-.39 1.01-.39 1.01-.39.406-.98.406-.98.406-.58 0-.97-.41-.97-.41-.39-.41-.39-1.01-.39-1.01z"/><path fill="none" stroke="#D3D3D3" stroke-miterlimit="10" d="M58.05 738h916.954M58.05 597.4h916.954M58.05 456.8h916.954M58.05 316.2h916.954M58.05 175.6h916.954M58.05 35h916.954" stroke-dasharray="5 5"/><g fill="#5C3566" stroke-opacity="0" stroke-width="0" stroke-miterlimit="10" stroke-linejoin="bevel"><defs><clipPath id="a"><path d="M58.05 35v703h916.954V35z"/></clipPath></defs><g clip-path="url(#a)"><path stroke="none" d="M73.052 738V545.378h153.39V738z"/></g></g><g fill-opacity="0" stroke-miterlimit="10"><defs><clipPath id="b"><path d="M58.05 35v703h916.954V35z"/></clipPath></defs><g clip-path="url(#b)"><path fill="none" d="M73.052 738V545.378h153.39V738z"/></g></g><g fill="#5C3566" stroke-opacity="0" stroke-width="0" stroke-miterlimit="10" stroke-linejoin="bevel"><defs><clipPath id="c"><path d="M58.05 35v703h916.954V35z"/></clipPath></defs><g clip-path="url(#c)"><path stroke="none" d="M256.442 738V238.87h153.39V738z"/></g></g><g fill-opacity="0" stroke-miterlimit="10"><defs><clipPath id="d"><path d="M58.05 35v703h916.954V35z"/></clipPath></defs><g clip-path="url(#d)"><path fill="none" d="M256.442 738V238.87h153.39V738z"/></g></g><g fill="#5C3566" stroke-opacity="0" stroke-width="0" stroke-miterlimit="10" stroke-linejoin="bevel"><defs><clipPath id="e"><path d="M58.05 35v703h916.954V35z"/></clipPath></defs><g clip-path="url(#e)"><path stroke="none" d="M439.832 738V143.262h153.39V738z"/></g></g><g fill-opacity="0" stroke-miterlimit="10"><defs><clipPath id="f"><path d="M58.05 35v703h916.954V35z"/></clipPath></defs><g clip-path="url(#f)"><path fill="none" d="M439.832 738V143.262h153.39V738z"/></g></g><g fill="#5C3566" stroke-opacity="0" stroke-width="0" stroke-miterlimit="10" stroke-linejoin="bevel"><defs><clipPath id="g"><path d="M58.05 35v703h916.954V35z"/></clipPath></defs><g clip-path="url(#g)"><path stroke="none" d="M623.222 738V371.034h153.39V738z"/></g></g><g fill-opacity="0" stroke-miterlimit="10"><defs><clipPath id="h"><path d="M58.05 35v703h916.954V35z"/></clipPath></defs><g clip-path="url(#h)"><path fill="none" d="M623.222 738V371.034h153.39V738z"/></g></g><g fill="#5C3566" stroke-opacity="0" stroke-width="0" stroke-miterlimit="10" stroke-linejoin="bevel"><defs><clipPath id="i"><path d="M58.05 35v703h916.954V35z"/></clipPath></defs><g clip-path="url(#i)"><path stroke="none" d="M806.613 738v-54.834h153.39V738z"/></g></g><g fill-opacity="0" stroke-miterlimit="10"><defs><clipPath id="j"><path d="M58.05 35v703h916.954V35z"/></clipPath></defs><g clip-path="url(#j)"><path fill="none" d="M806.613 738v-54.834h153.39V738z"/></g></g><path fill="none" stroke-miterlimit="10" d="M58.05 738V35" stroke-linecap="square"/><path fill="none" stroke-miterlimit="10" d="M58.05 738h2.003m-2.002-70.3h2.01m-2-70.3h2.01m-2-70.3h2.01m-2-70.3h2.01m-2-70.3h2m-2-70.3h2m-2-70.3h2.01m-2-70.3h2m-2-70.3h2.01M58.05 35h2.003M58.05 738h5.003M58.05 597.4h5.003M58.05 456.8h5.003M58.05 316.2h5.003M58.05 175.6h5.003M58.05 35h5.003"/><path stroke="none" d="M43.755 741.445zm2.616.126c-1.01 0-1.58-.9-1.58-.9-.56-.9-.56-2.59-.56-2.59 0-1.69.57-2.57.57-2.57.57-.88 1.59-.88 1.59-.88 1.01 0 1.58.88 1.58.88.57.89.57 2.58.57 2.58 0 1.69-.57 2.6-.57 2.6-.56.91-1.57.91-1.57.91zm0 0zm0-.69c.3 0 .53-.16.53-.16.24-.16.41-.5.41-.5.18-.34.27-.87.27-.87.1-.53.1-1.26.1-1.26 0-.73-.09-1.26-.09-1.26-.09-.52-.27-.85-.27-.85-.17-.33-.41-.49-.41-.49-.23-.16-.53-.16-.53-.16-.29 0-.53.16-.53.16-.24.16-.41.49-.41.49-.17.33-.26.86-.26.86-.09.53-.09 1.26-.09 1.26 0 1.47.36 2.14.36 2.14.36.67.95.67.95.67zM33.69 600.85zm.83-.714h1.533V595.2h-1.22v-.558c.46-.084.803-.204.803-.204.343-.12.616-.29.616-.29h.66v5.988H38.3v.715h-3.78v-.71zm4.39.717zm2.616.126c-1.02 0-1.586-.91-1.586-.91-.567-.9-.567-2.6-.567-2.6 0-1.69.567-2.58.567-2.58.567-.88 1.586-.88 1.586-.88 1.006 0 1.573.88 1.573.88.56.88.56 2.57.56 2.57 0 1.69-.57 2.59-.57 2.59-.57.9-1.58.9-1.58.9zm0 0zm0-.7c.294 0 .53-.16.53-.16.237-.16.41-.5.41-.5.173-.34.268-.87.268-.87.096-.53.096-1.27.096-1.27 0-.74-.093-1.26-.093-1.26-.097-.53-.27-.86-.27-.86-.174-.33-.41-.49-.41-.49-.237-.16-.53-.16-.53-.16-.295 0-.537.16-.537.16-.24.15-.415.48-.415.48-.173.33-.27.85-.27.85-.093.52-.093 1.26-.093 1.26 0 1.47.362 2.14.362 2.14.362.66.95.66.95.66zm2.605.57zm2.62.13c-1.02 0-1.59-.9-1.59-.9-.56-.9-.56-2.6-.56-2.6 0-1.69.57-2.58.57-2.58.57-.88 1.59-.88 1.59-.88 1.01 0 1.58.88 1.58.88.57.88.57 2.57.57 2.57 0 1.69-.56 2.59-.56 2.59-.57.9-1.57.9-1.57.9zm0 0zm0-.69c.29 0 .53-.16.53-.16.24-.17.41-.51.41-.51.17-.34.27-.87.27-.87.09-.53.09-1.27.09-1.27 0-.74-.09-1.26-.09-1.26-.09-.53-.26-.86-.26-.86-.17-.33-.41-.49-.41-.49-.23-.16-.53-.16-.53-.16-.29 0-.53.16-.53.16-.24.15-.41.48-.41.48-.17.33-.26.85-.26.85-.09.52-.09 1.26-.09 1.26 0 1.47.37 2.14.37 2.14.36.67.95.67.95.67zM33.23 460.24zm.42-.513c.756-.755 1.345-1.364 1.345-1.364.588-.61.987-1.13.987-1.13.4-.52.61-.96.61-.96.21-.437.21-.846.21-.846 0-.58-.316-.946-.316-.946-.315-.37-.956-.37-.956-.37-.42 0-.777.24-.777.24-.357.24-.65.58-.65.58l-.495-.49c.42-.46.893-.74.893-.74.48-.28 1.14-.28 1.14-.28.94 0 1.47.55 1.47.55.54.54.54 1.43.54 1.43 0 .47-.2.95-.2.95-.2.48-.56.99-.56.99-.36.51-.86 1.06-.86 1.06-.5.56-1.1 1.18-1.1 1.18l.57-.04c.3-.02.56-.02.56-.02H38v.75h-4.33v-.51zm4.8.516zm2.616.12c-1.02 0-1.586-.9-1.586-.9-.567-.905-.567-2.597-.567-2.597 0-1.69.567-2.57.567-2.57.567-.88 1.586-.88 1.586-.88 1.01 0 1.576.88 1.576.88.567.884.567 2.576.567 2.576 0 1.69-.57 2.593-.57 2.593-.57.907-1.58.907-1.58.907zm0 0zm0-.69c.294 0 .53-.165.53-.165.237-.163.41-.505.41-.505.174-.34.268-.87.268-.87.095-.53.095-1.264.095-1.264 0-.74-.1-1.26-.1-1.26-.1-.53-.27-.86-.27-.86-.18-.33-.41-.49-.41-.49-.24-.16-.53-.16-.53-.16-.3 0-.54.16-.54.16-.24.15-.42.48-.42.48-.18.33-.27.85-.27.85-.1.53-.1 1.26-.1 1.26 0 1.47.36 2.14.36 2.14.36.67.95.67.95.67zm2.605.565zm2.62.125c-1.02 0-1.58-.9-1.58-.9-.56-.9-.56-2.594-.56-2.594 0-1.69.57-2.58.57-2.58.57-.88 1.59-.88 1.59-.88 1.01 0 1.58.88 1.58.88.57.88.57 2.57.57 2.57 0 1.69-.56 2.59-.56 2.59-.57.9-1.57.9-1.57.9zm0 0zm0-.69c.3 0 .53-.16.53-.16.24-.16.41-.504.41-.504.18-.34.27-.87.27-.87.1-.53.1-1.27.1-1.27 0-.74-.09-1.26-.09-1.26-.09-.53-.27-.86-.27-.86-.17-.33-.41-.49-.41-.49-.23-.16-.53-.16-.53-.16-.29 0-.53.16-.53.16-.24.15-.41.48-.41.48-.17.33-.27.85-.27.85-.09.53-.09 1.26-.09 1.26 0 1.47.36 2.14.36 2.14.36.67.95.67.95.67zm-13.16-140.03zm.72-1.387c.3.312.71.554.71.554.41.24 1.01.24 1.01.24.61 0 1-.33 1-.33.39-.33.39-.898.39-.898 0-.294-.11-.54-.11-.54-.11-.248-.36-.426-.36-.426-.25-.18-.66-.27-.66-.27-.41-.09-1.01-.09-1.01-.09v-.662c.54 0 .9-.096.9-.096.37-.095.59-.263.59-.263.23-.17.32-.4.32-.4.1-.23.1-.494.1-.494 0-.49-.31-.77-.31-.77-.31-.28-.84-.28-.84-.28-.42 0-.77.19-.77.19-.35.19-.66.5-.66.5l-.46-.55c.39-.36.86-.6.86-.6.47-.23 1.07-.23 1.07-.23.45 0 .81.12.81.12.37.12.64.33.64.33.27.22.42.53.42.53.15.32.15.73.15.73 0 .61-.33 1-.33 1-.33.39-.88.6-.88.6v.04c.31.08.57.22.57.22.27.15.47.36.47.36.2.22.31.5.31.5.11.29.11.63.11.63 0 .44-.17.8-.17.8-.17.36-.47.61-.47.61-.3.25-.7.38-.7.38-.4.13-.86.13-.86.13-.4 0-.73-.08-.73-.08-.33-.08-.6-.21-.6-.21-.27-.13-.49-.3-.49-.3-.21-.17-.38-.35-.38-.35zm4.51 1.383zm2.62.12c-1.02 0-1.58-.9-1.58-.9-.56-.91-.56-2.6-.56-2.6 0-1.69.57-2.58.57-2.58.57-.88 1.59-.88 1.59-.88 1.01 0 1.58.88 1.58.88.57.88.57 2.57.57 2.57 0 1.69-.57 2.59-.57 2.59-.56.9-1.57.9-1.57.9zm0 0zm0-.69c.3 0 .53-.17.53-.17.24-.16.41-.51.41-.51.18-.34.27-.87.27-.87.1-.53.1-1.26.1-1.26 0-.74-.09-1.26-.09-1.26-.09-.53-.27-.86-.27-.86-.17-.33-.41-.49-.41-.49-.23-.16-.53-.16-.53-.16-.29 0-.53.16-.53.16-.24.16-.41.49-.41.49-.17.33-.27.85-.27.85-.09.52-.09 1.26-.09 1.26 0 1.47.37 2.13.37 2.13.36.67.95.67.95.67zm2.61.56zm2.62.12c-1.02 0-1.58-.9-1.58-.9-.57-.9-.57-2.59-.57-2.59 0-1.69.57-2.58.57-2.58.57-.88 1.59-.88 1.59-.88 1.01 0 1.57.88 1.57.88.57.88.57 2.57.57 2.57 0 1.69-.56 2.59-.56 2.59-.57.9-1.58.9-1.58.9zm0 0zm0-.69c.3 0 .53-.16.53-.16.24-.16.41-.5.41-.5.18-.34.27-.87.27-.87.09-.53.09-1.27.09-1.27 0-.74-.09-1.26-.09-1.26-.1-.53-.27-.86-.27-.86-.17-.33-.41-.49-.41-.49-.23-.16-.53-.16-.53-.16-.29 0-.53.16-.53.16-.24.16-.41.49-.41.49-.17.33-.26.85-.26.85-.09.52-.09 1.26-.09 1.26 0 1.47.36 2.13.36 2.13.37.67.95.67.95.67zM33.03 179.05zm3.194-2.542v-1.943c0-.273.016-.646.016-.646.015-.38.036-.65.036-.65h-.042c-.126.24-.262.47-.262.47l-.284.47-1.565 2.29h2.1zm0 0zm1.733.694h-.914v1.847h-.82v-1.85H33.21v-.57l2.867-4.29h.966v4.16h.914v.69zm.294 1.847zm2.62.12c-1.02 0-1.58-.9-1.58-.9-.56-.91-.56-2.6-.56-2.6 0-1.69.57-2.58.57-2.58.57-.88 1.59-.88 1.59-.88 1.01 0 1.58.88 1.58.88.57.88.57 2.57.57 2.57 0 1.69-.56 2.59-.56 2.59-.57.9-1.57.9-1.57.9zm0 0zm0-.69c.3 0 .53-.17.53-.17.24-.17.41-.51.41-.51.18-.34.27-.87.27-.87.1-.53.1-1.27.1-1.27 0-.74-.09-1.26-.09-1.26-.09-.53-.27-.86-.27-.86-.17-.33-.41-.49-.41-.49-.23-.16-.53-.16-.53-.16-.29 0-.53.16-.53.16-.24.15-.41.48-.41.48-.17.33-.27.85-.27.85-.09.52-.09 1.26-.09 1.26 0 1.47.36 2.13.36 2.13.36.67.95.67.95.67zm2.61.56zm2.62.12c-1.02 0-1.58-.9-1.58-.9-.56-.9-.56-2.6-.56-2.6 0-1.69.57-2.58.57-2.58.57-.88 1.59-.88 1.59-.88 1.01 0 1.58.88 1.58.88.57.88.57 2.57.57 2.57 0 1.69-.57 2.59-.57 2.59-.56.9-1.57.9-1.57.9zm0 0zm0-.69c.3 0 .53-.16.53-.16.24-.16.41-.5.41-.5.18-.34.27-.87.27-.87.1-.53.1-1.27.1-1.27 0-.74-.09-1.26-.09-1.26-.09-.53-.27-.86-.27-.86-.17-.33-.41-.49-.41-.49-.23-.16-.53-.16-.53-.16-.29 0-.53.16-.53.16-.24.15-.41.48-.41.48-.17.33-.27.85-.27.85-.09.52-.09 1.26-.09 1.26 0 1.47.37 2.14.37 2.14.36.67.95.67.95.67zM33.12 38.44zm.683-1.353c.296.31.7.54.7.54.405.23.99.23.99.23.308 0 .576-.11.576-.11.27-.11.47-.31.47-.31.2-.2.31-.483.31-.483.12-.284.12-.63.12-.63 0-.694-.39-1.082-.39-1.082-.39-.39-1.04-.39-1.04-.39-.34 0-.59.106-.59.106-.25.106-.55.305-.55.305l-.46-.294.22-3.23h3.35v.74h-2.6l-.18 1.98c.24-.13.48-.2.48-.2.24-.07.54-.07.54-.07.43 0 .81.12.81.12.38.12.66.38.66.38.29.25.45.65.45.65.17.39.17.94.17.94 0 .55-.19.97-.19.97-.19.42-.51.7-.51.7-.32.29-.72.44-.72.44-.41.15-.85.15-.85.15-.4 0-.73-.08-.73-.08-.33-.08-.6-.21-.6-.21-.27-.13-.49-.29-.49-.29-.22-.16-.39-.34-.39-.34zm4.54 1.36zm2.616.124c-1.02 0-1.58-.9-1.58-.9-.57-.9-.57-2.59-.57-2.59 0-1.69.56-2.57.56-2.57.57-.88 1.59-.88 1.59-.88 1.01 0 1.58.88 1.58.88.56.88.56 2.58.56 2.58 0 1.69-.57 2.6-.57 2.6-.57.91-1.58.91-1.58.91zm0 0zm0-.69c.3 0 .53-.16.53-.16.24-.16.41-.5.41-.5.18-.34.27-.87.27-.87.09-.53.09-1.27.09-1.27 0-.73-.09-1.26-.09-1.26-.09-.52-.27-.85-.27-.85-.17-.33-.41-.49-.41-.49-.23-.16-.53-.16-.53-.16-.29 0-.53.16-.53.16-.24.16-.42.49-.42.49-.17.33-.27.86-.27.86-.1.53-.1 1.26-.1 1.26 0 1.47.36 2.14.36 2.14.36.67.95.67.95.67zm2.61.57zm2.61.13c-1.02 0-1.59-.9-1.59-.9-.57-.9-.57-2.59-.57-2.59 0-1.69.57-2.57.57-2.57.56-.88 1.58-.88 1.58-.88 1.01 0 1.57.89 1.57.89.56.88.56 2.58.56 2.58 0 1.69-.57 2.6-.57 2.6-.57.91-1.58.91-1.58.91zm0 0zm0-.69c.29 0 .53-.16.53-.16.24-.16.41-.5.41-.5.17-.34.27-.87.27-.87.09-.53.09-1.26.09-1.26 0-.73-.1-1.26-.1-1.26-.1-.52-.27-.85-.27-.85-.17-.33-.41-.49-.41-.49-.24-.16-.53-.16-.53-.16-.3 0-.54.16-.54.16-.24.16-.42.49-.42.49-.17.33-.27.85-.27.85-.1.53-.1 1.26-.1 1.26 0 1.47.36 2.14.36 2.14.36.67.95.67.95.67z"/><path fill="none" stroke-miterlimit="10" d="M58.05 738h916.954" stroke-linecap="square"/><path stroke="none" d="M101.695 758zm.967-1.502c.367.39.866.625.866.625.5.236 1.035.236 1.035.236.683 0 1.06-.31 1.06-.31.38-.31.38-.82.38-.82 0-.26-.09-.45-.09-.45-.09-.19-.242-.32-.242-.32-.15-.13-.36-.24-.36-.24-.21-.11-.45-.22-.45-.22l-.98-.43c-.24-.11-.49-.26-.49-.26-.25-.15-.45-.36-.45-.36-.2-.21-.32-.5-.32-.5-.12-.29-.12-.67-.12-.67 0-.39.16-.73.16-.73.17-.34.46-.59.46-.59.29-.25.68-.39.68-.39.4-.14.87-.14.87-.14.62 0 1.15.23 1.15.23.53.24.9.61.9.61l-.47.56c-.31-.31-.7-.48-.7-.48-.38-.17-.86-.17-.86-.17-.57 0-.93.26-.93.26-.35.27-.35.74-.35.74 0 .25.1.42.1.42.1.17.27.3.27.3.17.14.37.23.37.23.2.1.41.19.41.19l.98.42c.3.13.56.29.56.29.26.16.45.38.45.38.19.21.3.5.3.5.11.29.11.66.11.66 0 .41-.17.76-.17.76-.16.35-.47.62-.47.62-.31.26-.74.42-.74.42-.43.15-.97.15-.97.15-.72 0-1.34-.27-1.34-.27-.62-.27-1.07-.75-1.07-.75zm4.642 1.502zm1.01-4.4h-.757v-.653l.798-.052.105-1.43h.725v1.43h1.376v.704h-1.37v2.83c0 .47.18.73.18.73.18.25.62.25.62.25.14 0 .3-.04.3-.04.16-.05.29-.1.29-.1l.17.65c-.21.07-.45.13-.45.13-.24.05-.48.05-.48.05-.41 0-.69-.13-.69-.13-.28-.13-.45-.35-.45-.35-.17-.22-.25-.54-.25-.54-.07-.32-.07-.7-.07-.7v-2.82zm2.54 4.4zm.862-5.105h.715l.08.924h.03c.27-.49.64-.77.64-.77.38-.29.82-.29.82-.29.31 0 .55.1.55.1l-.16.75c-.12-.04-.23-.07-.23-.07-.1-.02-.26-.02-.26-.02-.32 0-.68.26-.68.26-.35.26-.61.91-.61.91v3.3h-.86v-5.11zm2.68 5.105zm.482-2.542c0-.64.194-1.14.194-1.14.194-.5.52-.845.52-.845.326-.347.75-.525.75-.525.427-.18.9-.18.9-.18.472 0 .897.18.897.18.42.178.75.525.75.525.32.346.52.845.52.845.19.5.19 1.14.19 1.14 0 .63-.2 1.13-.2 1.13-.2.498-.52.84-.52.84-.33.34-.75.52-.75.52-.43.178-.9.178-.9.178-.47 0-.9-.18-.9-.18-.43-.177-.75-.52-.75-.52-.33-.34-.52-.84-.52-.84-.2-.498-.2-1.128-.2-1.128zm0 0zm.893 0c0 .44.11.798.11.798.11.357.3.615.3.615.2.26.47.4.47.4.28.15.6.15.6.15.33 0 .6-.14.6-.14.28-.14.47-.4.47-.4.2-.25.3-.61.3-.61.11-.35.11-.8.11-.8 0-.44-.1-.8-.1-.8-.1-.36-.3-.62-.3-.62-.19-.26-.47-.4-.47-.4-.27-.14-.6-.14-.6-.14-.32 0-.59.14-.59.14-.27.14-.47.41-.47.41-.19.26-.3.63-.3.63-.1.37-.1.81-.1.81zm4.32 2.542zm.86-5.105h.72l.08.735h.03c.37-.367.77-.614.77-.614.41-.247.94-.247.94-.247.81 0 1.19.5 1.19.5.37.5.37 1.49.37 1.49V758h-.86v-3.12c0-.724-.23-1.045-.23-1.045-.23-.32-.73-.32-.73-.32-.4 0-.7.2-.7.2-.3.2-.69.588-.69.588V758h-.86v-5.105zm4.89 5.105zm1.23.86c0 .41.4.653.4.653.4.24 1.09.24 1.09.24.37 0 .67-.088.67-.088.3-.09.51-.23.51-.23.21-.143.33-.332.33-.332.12-.19.12-.39.12-.39 0-.356-.26-.492-.26-.492-.26-.13-.76-.13-.76-.13h-.88c-.14 0-.32-.01-.32-.01-.17-.01-.34-.07-.34-.07-.27.2-.4.42-.4.42-.12.22-.12.44-.12.44zm0 0zm-.75.117c0-.326.2-.62.2-.62.2-.294.55-.535.55-.535v-.042c-.19-.116-.32-.32-.32-.32-.13-.206-.13-.51-.13-.51 0-.326.18-.568.18-.568.18-.24.38-.378.38-.378v-.042c-.25-.21-.45-.562-.45-.562-.2-.352-.2-.814-.2-.814 0-.42.15-.756.15-.756.16-.336.42-.573.42-.573.27-.236.62-.362.62-.362.35-.126.74-.126.74-.126.21 0 .4.03.4.03.19.03.33.09.33.09h1.78v.66h-1.05c.18.18.3.45.3.45.12.27.12.6.12.6 0 .41-.14.74-.14.74-.15.33-.4.55-.4.55-.25.22-.59.35-.59.35-.34.12-.73.12-.73.12-.19 0-.39-.05-.39-.05-.2-.05-.38-.13-.38-.13-.13.11-.23.25-.23.25-.09.14-.09.35-.09.35 0 .24.19.4.19.4.19.16.71.16.71.16h.99c.89 0 1.34.29 1.34.29.45.28.45.92.45.92 0 .35-.18.67-.18.67-.18.32-.51.56-.51.56-.33.24-.81.38-.81.38-.48.14-1.08.14-1.08.14-.47 0-.86-.09-.86-.09-.39-.09-.67-.27-.67-.27-.28-.18-.43-.43-.43-.43-.15-.25-.15-.59-.15-.59zm0 0zm2.11-3.172c.22 0 .42-.084.42-.084.2-.08.35-.24.35-.24.16-.16.24-.38.24-.38.09-.22.09-.51.09-.51 0-.56-.31-.87-.31-.87-.31-.31-.76-.31-.76-.31-.45 0-.76.31-.76.31-.31.31-.31.88-.31.88 0 .29.09.51.09.51.08.23.23.39.23.39.15.16.35.24.35.24.2.09.42.09.42.09zm2.71 2.195zm.86-7.48h.86v6.514c0 .21.08.294.08.294.08.084.17.084.17.084h.08l.11-.02.12.65c-.08.042-.2.063-.2.063-.11.02-.29.02-.29.02-.49 0-.7-.293-.7-.293-.21-.294-.21-.86-.21-.86v-6.45zm1.82 7.48zm.52 1.408l.19.047.2.026c.44 0 .72-.31.72-.31.28-.31.44-.78.44-.78l.12-.38-2.04-5.11h.89l1.04 2.83.25.71c.13.37.25.73.25.73h.04c.12-.34.23-.72.23-.72.1-.38.21-.71.21-.71l.91-2.82h.84l-1.92 5.53c-.13.38-.3.7-.3.7-.17.33-.4.56-.4.56-.23.24-.52.38-.52.38-.29.14-.68.14-.68.14-.18 0-.32-.02-.32-.02-.15-.02-.27-.08-.27-.08l.17-.68zm6.51-1.408zm.5-2.542c0-.62.18-1.12.18-1.12.19-.498.49-.844.49-.844.31-.347.71-.536.71-.536.4-.19.84-.19.84-.19.44 0 .77.158.77.158.33.158.67.43.67.43l-.04-.87v-1.965h.87V758h-.71l-.07-.6H145c-.307.295-.7.51-.7.51-.394.216-.846.216-.846.216-.967 0-1.54-.693-1.54-.693-.572-.693-.572-1.975-.572-1.975zm0 0zm.89-.01c0 .924.37 1.44.37 1.44.37.513 1.04.513 1.04.513.36 0 .67-.17.67-.17.32-.17.63-.53.63-.53v-2.67c-.32-.29-.62-.41-.62-.41-.3-.12-.61-.12-.61-.12-.3 0-.57.14-.57.14-.27.15-.47.4-.47.4-.2.26-.31.62-.31.62-.11.36-.11.8-.11.8zm4.44 2.552zm1.3-6.155c-.25 0-.42-.158-.42-.158-.17-.158-.17-.4-.17-.4 0-.25.17-.404.17-.404.18-.152.43-.152.43-.152.25 0 .43.16.43.16.18.16.18.41.18.41 0 .24-.17.4-.17.4-.17.16-.43.16-.43.16zm0 0zm-.44 1.05h.86V758h-.86v-5.105zm1.72 5.105zm.73-1.155c.34.273.69.44.69.44.35.17.82.17.82.17.51 0 .76-.232.76-.232.26-.23.26-.567.26-.567 0-.2-.1-.347-.1-.347-.1-.15-.26-.26-.26-.26-.16-.11-.37-.2-.37-.2l-.42-.17c-.27-.1-.55-.22-.55-.22-.27-.12-.49-.3-.49-.3-.21-.18-.35-.41-.35-.41-.14-.23-.14-.56-.14-.56 0-.31.12-.58.12-.58.12-.27.35-.46.35-.46.23-.19.56-.31.56-.31.32-.11.73-.11.73-.11.49 0 .89.17.89.17.41.16.7.41.7.41l-.41.54c-.26-.2-.54-.33-.54-.33-.28-.13-.62-.13-.62-.13-.48 0-.71.22-.71.22-.23.22-.23.51-.23.51 0 .18.1.31.1.31.1.13.25.23.25.23.16.1.37.18.37.18l.43.16c.27.1.55.22.55.22.28.11.5.29.5.29.22.17.36.42.36.42.15.25.15.61.15.61 0 .31-.12.59-.12.59-.12.27-.36.48-.36.48-.24.21-.59.33-.59.33-.35.12-.81.12-.81.12-.54 0-1.04-.2-1.04-.2-.49-.2-.86-.51-.86-.51zm3.67 1.155zm.61-1.323c0-.84.75-1.287.75-1.287.75-.447 2.39-.625 2.39-.625 0-.242-.04-.473-.04-.473-.05-.23-.17-.41-.17-.41-.12-.178-.32-.29-.32-.29-.2-.11-.51-.11-.51-.11-.45 0-.84.17-.84.17-.39.167-.69.377-.69.377l-.35-.6c.35-.23.87-.45.87-.45.51-.22 1.13-.22 1.13-.22.94 0 1.36.57 1.36.57.42.57.42 1.53.42 1.53V758h-.71l-.07-.61h-.02c-.37.306-.79.52-.79.52-.42.216-.89.216-.89.216-.65 0-1.07-.378-1.07-.378-.42-.378-.42-1.07-.42-1.07zm0 0zm.85-.064c0 .442.26.63.26.63.26.19.64.19.64.19.37 0 .7-.173.7-.173.33-.174.7-.51.7-.51v-1.418c-.64.084-1.08.2-1.08.2-.44.115-.71.273-.71.273-.26.157-.38.362-.38.362-.11.205-.11.446-.11.446zm3.92 1.387zm1.23.86c0 .41.4.653.4.653.4.24 1.09.24 1.09.24.37 0 .67-.088.67-.088.3-.09.51-.23.51-.23.21-.143.33-.332.33-.332.12-.19.12-.39.12-.39 0-.356-.26-.492-.26-.492-.26-.13-.76-.13-.76-.13h-.88c-.15 0-.32-.01-.32-.01-.17-.01-.34-.07-.34-.07-.27.2-.39.42-.39.42-.12.22-.12.44-.12.44zm0 0zm-.75.117c0-.326.2-.62.2-.62.2-.294.55-.535.55-.535v-.042c-.19-.116-.32-.32-.32-.32-.13-.206-.13-.51-.13-.51 0-.326.18-.568.18-.568.18-.24.38-.378.38-.378v-.042c-.25-.21-.46-.562-.46-.562-.2-.352-.2-.814-.2-.814 0-.42.15-.756.15-.756.16-.336.42-.573.42-.573.27-.236.62-.362.62-.362.36-.126.74-.126.74-.126.21 0 .4.03.4.03.19.03.33.09.33.09h1.78v.66h-1.05c.18.18.3.45.3.45.12.27.12.6.12.6 0 .41-.14.74-.14.74-.14.33-.4.55-.4.55-.25.22-.59.35-.59.35-.34.12-.73.12-.73.12-.18 0-.38-.05-.38-.05-.2-.05-.38-.13-.38-.13-.13.11-.23.25-.23.25-.09.14-.09.35-.09.35 0 .24.19.4.19.4.19.16.71.16.71.16h.99c.89 0 1.34.29 1.34.29.45.28.45.92.45.92 0 .35-.18.67-.18.67-.18.32-.52.56-.52.56-.33.24-.81.38-.81.38-.48.14-1.07.14-1.07.14-.47 0-.86-.09-.86-.09-.39-.09-.67-.27-.67-.27-.28-.18-.43-.43-.43-.43-.15-.25-.15-.59-.15-.59zm0 0zm2.11-3.172c.23 0 .42-.084.42-.084.2-.08.35-.24.35-.24.15-.16.24-.38.24-.38.09-.22.09-.51.09-.51 0-.56-.31-.87-.31-.87-.31-.31-.76-.31-.76-.31-.45 0-.76.31-.76.31-.31.31-.31.88-.31.88 0 .29.09.51.09.51.09.23.24.39.24.39.15.16.35.24.35.24.2.09.42.09.42.09zm2.71 2.195zm.87-5.105h.72l.08.924h.04c.26-.49.64-.77.64-.77.38-.29.82-.29.82-.29.3 0 .55.1.55.1l-.17.75-.23-.07c-.11-.02-.26-.02-.26-.02-.33 0-.68.26-.68.26-.35.26-.62.91-.62.91v3.3h-.86v-5.11zm2.67 5.105zm.49-2.542c0-.63.2-1.13.2-1.13.19-.498.51-.845.51-.845.32-.346.73-.53.73-.53.41-.184.85-.184.85-.184.48 0 .87.16.87.16.38.17.64.48.64.48.26.31.39.75.39.75.14.44.14.98.14.98 0 .28-.03.47-.03.47h-3.45c.06.83.51 1.31.51 1.31.46.48 1.2.48 1.2.48.37 0 .68-.11.68-.11.31-.11.6-.29.6-.29l.31.56c-.34.21-.74.37-.74.37-.41.16-.93.16-.93.16-.51 0-.96-.19-.96-.19-.45-.19-.78-.53-.78-.53-.33-.34-.52-.84-.52-.84-.19-.5-.19-1.13-.19-1.13zm0 0zm3.57-.39c0-.786-.33-1.2-.33-1.2-.33-.416-.93-.416-.93-.416-.27 0-.52.11-.52.11-.25.11-.44.315-.44.315-.2.205-.33.504-.33.504-.13.3-.17.69-.17.69h2.73zm1.15 2.932zm.49-2.542c0-.63.2-1.13.2-1.13.19-.498.51-.845.51-.845.32-.346.73-.53.73-.53.41-.184.85-.184.85-.184.48 0 .87.16.87.16.38.17.64.48.64.48.25.31.39.75.39.75.14.44.14.98.14.98 0 .28-.03.47-.03.47h-3.45c.06.83.51 1.31.51 1.31.46.48 1.2.48 1.2.48.37 0 .68-.11.68-.11.31-.11.6-.29.6-.29l.31.56c-.34.21-.75.37-.75.37-.41.16-.94.16-.94.16-.52 0-.96-.19-.96-.19-.45-.19-.78-.53-.78-.53-.33-.34-.52-.84-.52-.84-.19-.5-.19-1.13-.19-1.13zm0 0zm3.57-.39c0-.786-.33-1.2-.33-1.2-.33-.416-.93-.416-.93-.416-.27 0-.52.11-.52.11-.25.11-.44.315-.44.315-.2.205-.34.504-.34.504-.13.3-.17.69-.17.69h2.73zM178.3 758zm.685-4.317c0-.305.185-.49.185-.49.182-.182.444-.182.444-.182.25 0 .433.19.433.19.183.19.183.49.183.49 0 .28-.184.47-.184.47-.18.19-.433.19-.433.19-.26 0-.444-.18-.444-.18-.19-.18-.19-.46-.19-.46zm0 0zm0 3.792c0-.305.185-.49.185-.49.182-.182.444-.182.444-.182.25 0 .433.183.433.183.183.184.183.49.183.49 0 .282-.184.466-.184.466-.18.184-.433.184-.433.184-.26 0-.444-.184-.444-.184-.19-.184-.19-.467-.19-.467zm4.056.525zm.82-.714h1.53v-4.937h-1.22v-.56c.46-.09.81-.21.81-.21.34-.12.61-.29.61-.29h.66v5.99h1.39v.72h-3.78v-.72zm4.39.714zm.71-1.387c.31.315.71.557.71.557.41.242 1.01.242 1.01.242.61 0 1-.33 1-.33.39-.332.39-.9.39-.9 0-.293-.11-.54-.11-.54-.11-.247-.36-.426-.36-.426-.25-.178-.66-.273-.66-.273-.41-.094-1.01-.094-1.01-.094v-.67c.54 0 .9-.1.9-.1.36-.1.59-.26.59-.26.22-.17.32-.4.32-.4.09-.23.09-.5.09-.5 0-.5-.31-.78-.31-.78-.31-.29-.84-.29-.84-.29-.42 0-.77.19-.77.19-.35.18-.66.49-.66.49l-.46-.55c.39-.37.86-.61.86-.61.47-.24 1.07-.24 1.07-.24.44 0 .81.11.81.11.37.11.64.33.64.33.27.21.42.53.42.53.14.31.14.72.14.72 0 .61-.33 1-.33 1-.34.39-.88.6-.88.6v.04c.3.07.57.21.57.21.27.14.47.35.47.35.2.21.31.5.31.5.11.28.11.63.11.63 0 .44-.17.79-.17.79-.17.35-.47.6-.47.6-.3.25-.7.38-.7.38-.4.13-.86.13-.86.13-.4 0-.73-.08-.73-.08-.33-.08-.6-.21-.6-.21-.27-.13-.49-.3-.49-.3-.21-.17-.38-.36-.38-.36zm4.51 1.387zm1.86 0c.04-.945.17-1.733.17-1.733.13-.788.35-1.497.35-1.497.22-.71.57-1.37.57-1.37.35-.663.85-1.356.85-1.356h-3.34v-.746h4.32v.536c-.6.756-.97 1.45-.97 1.45-.37.693-.59 1.412-.59 1.412-.22.72-.32 1.524-.32 1.524-.1.803-.14 1.78-.14 1.78h-.89zm109.31 0zm.94-6.89h1.72c1.6 0 2.43.882 2.43.882.83.882.83 2.53.83 2.53 0 .82-.21 1.466-.21 1.466-.21.646-.62 1.093-.62 1.093-.41.45-1.01.69-1.01.69-.59.24-1.37.24-1.37.24h-1.76v-6.89zm0 0zm1.66 6.176c1.21 0 1.81-.725 1.81-.725.61-.72.61-2.03.61-2.03 0-1.31-.6-2-.6-2-.6-.69-1.81-.69-1.81-.69h-.78v5.46h.79zm3.86.714zm1.3-6.155c-.25 0-.42-.158-.42-.158-.17-.158-.17-.4-.17-.4 0-.25.17-.404.17-.404.18-.152.43-.152.43-.152.25 0 .43.16.43.16.17.16.17.41.17.41 0 .24-.17.4-.17.4-.17.16-.42.16-.42.16zm0 0zm-.44 1.05h.86V758h-.86v-5.105zm1.72 5.105zm.73-1.155c.34.273.69.44.69.44.35.17.81.17.81.17.51 0 .76-.232.76-.232.25-.23.25-.567.25-.567 0-.2-.1-.347-.1-.347-.1-.15-.27-.26-.27-.26-.16-.11-.37-.2-.37-.2l-.42-.17c-.27-.1-.54-.22-.54-.22-.27-.12-.49-.3-.49-.3-.21-.18-.35-.41-.35-.41-.13-.23-.13-.56-.13-.56 0-.31.12-.58.12-.58.12-.27.35-.46.35-.46.23-.19.56-.31.56-.31.33-.11.74-.11.74-.11.48 0 .89.17.89.17.41.16.7.41.7.41l-.41.54c-.26-.2-.54-.33-.54-.33-.28-.13-.62-.13-.62-.13-.48 0-.71.22-.71.22-.22.22-.22.51-.22.51 0 .18.1.31.1.31.09.13.25.23.25.23.16.1.36.18.36.18l.43.16c.27.1.55.22.55.22.28.11.5.29.5.29.22.17.36.42.36.42.14.25.14.61.14.61 0 .31-.12.59-.12.59-.12.27-.35.48-.35.48-.23.21-.59.33-.59.33-.35.12-.8.12-.8.12-.54 0-1.04-.2-1.04-.2-.49-.2-.86-.51-.86-.51zm3.68 1.155zm.61-1.323c0-.84.75-1.287.75-1.287.75-.447 2.39-.625 2.39-.625 0-.242-.04-.473-.04-.473-.04-.23-.16-.41-.16-.41-.12-.178-.32-.29-.32-.29-.2-.11-.52-.11-.52-.11-.45 0-.83.17-.83.17-.38.167-.69.377-.69.377l-.35-.6c.36-.23.87-.45.87-.45.52-.22 1.14-.22 1.14-.22.94 0 1.36.57 1.36.57.42.57.42 1.53.42 1.53V758H322l-.073-.61h-.02c-.37.306-.796.52-.796.52-.43.216-.9.216-.9.216-.65 0-1.08-.378-1.08-.378-.42-.378-.42-1.07-.42-1.07zm0 0zm.85-.064c0 .442.26.63.26.63.26.19.64.19.64.19.37 0 .7-.173.7-.173.33-.174.7-.51.7-.51v-1.418c-.64.084-1.08.2-1.08.2-.44.115-.71.273-.71.273-.27.157-.38.362-.38.362-.11.205-.11.446-.11.446zm3.92 1.387zm1.23.86c0 .41.4.653.4.653.39.24 1.09.24 1.09.24.37 0 .67-.088.67-.088.3-.09.51-.23.51-.23.21-.143.32-.332.32-.332.11-.19.11-.39.11-.39 0-.356-.26-.492-.26-.492-.26-.13-.76-.13-.76-.13h-.88c-.15 0-.32-.01-.32-.01-.17-.01-.34-.07-.34-.07-.27.2-.4.42-.4.42-.12.22-.12.44-.12.44zm0 0zm-.75.117c0-.326.2-.62.2-.62.2-.294.55-.535.55-.535v-.042c-.19-.116-.32-.32-.32-.32-.13-.206-.13-.51-.13-.51 0-.326.18-.568.18-.568.18-.24.38-.378.38-.378v-.042c-.25-.21-.45-.562-.45-.562-.21-.352-.21-.814-.21-.814 0-.42.15-.756.15-.756.15-.336.42-.573.42-.573.27-.236.62-.362.62-.362.35-.126.74-.126.74-.126.21 0 .39.03.39.03.19.03.33.09.33.09h1.78v.66h-1.05c.18.18.3.45.3.45.12.27.12.6.12.6 0 .41-.14.74-.14.74-.15.33-.4.55-.4.55-.25.22-.59.35-.59.35-.34.12-.73.12-.73.12-.19 0-.39-.05-.39-.05-.2-.05-.38-.13-.38-.13-.14.11-.23.25-.23.25-.1.14-.1.35-.1.35 0 .24.19.4.19.4.19.16.71.16.71.16h.99c.89 0 1.34.29 1.34.29.44.28.44.92.44.92 0 .35-.18.67-.18.67-.18.32-.51.56-.51.56-.33.24-.81.38-.81.38-.48.14-1.08.14-1.08.14-.47 0-.86-.09-.86-.09-.39-.09-.67-.27-.67-.27-.28-.18-.43-.43-.43-.43-.15-.25-.15-.59-.15-.59zm0 0zm2.11-3.172c.22 0 .42-.084.42-.084.2-.08.35-.24.35-.24.16-.16.24-.38.24-.38.08-.22.08-.51.08-.51 0-.56-.32-.87-.32-.87-.32-.31-.77-.31-.77-.31-.45 0-.77.31-.77.31-.31.31-.31.88-.31.88 0 .29.08.51.08.51.08.23.24.39.24.39.15.16.35.24.35.24.19.09.41.09.41.09zm2.71 2.195zm.86-5.105h.72l.07.924h.03c.26-.49.64-.77.64-.77.37-.29.82-.29.82-.29.31 0 .55.1.55.1l-.17.75c-.12-.04-.23-.07-.23-.07-.1-.02-.26-.02-.26-.02-.33 0-.68.26-.68.26-.35.26-.61.91-.61.91v3.3h-.86v-5.11zM332.3 758zm.48-2.542c0-.63.193-1.13.193-1.13.196-.498.516-.845.516-.845.32-.346.73-.53.73-.53.41-.184.85-.184.85-.184.48 0 .86.16.86.16.38.17.64.48.64.48.26.31.4.75.4.75.14.44.14.98.14.98 0 .28-.04.47-.04.47h-3.45c.05.83.51 1.31.51 1.31.45.48 1.19.48 1.19.48.36 0 .67-.11.67-.11.31-.11.59-.29.59-.29l.3.56c-.34.21-.75.37-.75.37-.41.16-.94.16-.94.16-.51 0-.96-.19-.96-.19-.44-.19-.77-.53-.77-.53-.33-.34-.52-.84-.52-.84-.19-.5-.19-1.13-.19-1.13zm0 0zm3.57-.39c0-.786-.33-1.2-.33-1.2-.334-.416-.93-.416-.93-.416-.276 0-.52.11-.52.11-.25.11-.45.315-.45.315-.2.205-.334.504-.334.504-.13.3-.17.69-.17.69h2.73zM337.5 758zm.48-2.542c0-.63.193-1.13.193-1.13.19-.498.51-.845.51-.845.32-.346.73-.53.73-.53.41-.184.85-.184.85-.184.48 0 .87.16.87.16.38.17.64.48.64.48.26.31.39.75.39.75.136.44.136.98.136.98 0 .28-.03.47-.03.47h-3.45c.05.83.51 1.31.51 1.31.46.48 1.19.48 1.19.48.37 0 .68-.11.68-.11.31-.11.59-.29.59-.29l.31.56c-.33.21-.74.37-.74.37-.41.16-.94.16-.94.16-.52 0-.96-.19-.96-.19-.45-.19-.78-.53-.78-.53-.33-.34-.52-.84-.52-.84-.19-.5-.19-1.13-.19-1.13zm0 0zm3.57-.39c0-.786-.33-1.2-.33-1.2-.33-.416-.93-.416-.93-.416-.274 0-.52.11-.52.11-.25.11-.447.315-.447.315-.2.205-.34.504-.34.504-.13.3-.17.69-.17.69h2.73zM342.7 758zm.684-4.317c0-.305.184-.49.184-.49.183-.182.446-.182.446-.182.252 0 .436.19.436.19.184.19.184.49.184.49 0 .28-.184.47-.184.47-.184.19-.436.19-.436.19-.263 0-.446-.18-.446-.18-.184-.18-.184-.46-.184-.46zm0 0zm0 3.792c0-.305.184-.49.184-.49.183-.182.446-.182.446-.182.252 0 .436.183.436.183.184.184.184.49.184.49 0 .282-.184.466-.184.466-.184.184-.436.184-.436.184-.263 0-.446-.184-.446-.184-.184-.184-.184-.467-.184-.467zm4.054.525zm.715-1.387c.304.315.71.557.71.557.403.242 1.002.242 1.002.242.61 0 .998-.33.998-.33.388-.332.388-.9.388-.9 0-.293-.11-.54-.11-.54-.11-.247-.36-.426-.36-.426-.25-.178-.66-.273-.66-.273-.41-.094-1.01-.094-1.01-.094v-.67c.54 0 .9-.1.9-.1.36-.1.59-.26.59-.26.23-.17.32-.4.32-.4.1-.23.1-.5.1-.5 0-.5-.31-.78-.31-.78-.31-.29-.84-.29-.84-.29-.42 0-.77.19-.77.19-.35.18-.65.49-.65.49l-.46-.55c.39-.37.86-.61.86-.61.47-.24 1.07-.24 1.07-.24.44 0 .81.11.81.11.37.11.64.33.64.33.27.21.42.53.42.53.15.31.15.72.15.72 0 .61-.33 1-.33 1-.33.39-.88.6-.88.6v.04c.31.07.57.21.57.21.26.14.46.35.46.35.2.21.31.5.31.5.11.28.11.63.11.63 0 .44-.17.79-.17.79-.17.35-.47.6-.47.6-.3.25-.7.38-.7.38-.4.13-.86.13-.86.13-.4 0-.73-.08-.73-.08-.33-.08-.6-.21-.6-.21-.27-.13-.48-.3-.48-.3-.21-.17-.38-.36-.38-.36zM352.66 758zm.682-1.355c.294.305.698.536.698.536.405.24.993.24.993.24.304 0 .572-.11.572-.11.268-.11.468-.31.468-.31.2-.2.315-.48.315-.48.115-.28.115-.63.115-.63 0-.69-.388-1.08-.388-1.08-.39-.39-1.04-.39-1.04-.39-.347 0-.594.11-.594.11-.24.11-.55.31-.55.31l-.46-.29.22-3.22h3.35v.75h-2.59l-.18 1.99c.24-.13.49-.2.49-.2.24-.07.55-.07.55-.07.43 0 .81.13.81.13.38.13.66.39.66.39.29.26.45.65.45.65.17.4.17.94.17.94 0 .55-.19.97-.19.97-.19.42-.5.71-.5.71-.31.29-.72.44-.72.44-.4.15-.84.15-.84.15-.4 0-.73-.08-.73-.08-.33-.08-.6-.2-.6-.2-.26-.12-.48-.28-.48-.28-.21-.16-.38-.34-.38-.34zM357.88 758zm.682-1.355c.295.305.7.536.7.536.403.24.992.24.992.24.304 0 .572-.11.572-.11.268-.11.467-.31.467-.31.2-.2.316-.48.316-.48.11-.28.11-.63.11-.63 0-.69-.39-1.08-.39-1.08-.39-.39-1.04-.39-1.04-.39-.35 0-.59.11-.59.11-.25.11-.55.31-.55.31l-.47-.29.22-3.22h3.35v.75h-2.6l-.18 1.99c.24-.13.48-.2.48-.2.24-.07.54-.07.54-.07.43 0 .81.13.81.13.38.13.66.39.66.39.28.26.45.65.45.65.16.4.16.94.16.94 0 .55-.19.97-.19.97-.19.42-.51.71-.51.71-.32.29-.72.44-.72.44-.41.15-.85.15-.85.15-.4 0-.73-.08-.73-.08-.33-.08-.6-.2-.6-.2-.27-.12-.49-.28-.49-.28-.22-.16-.39-.34-.39-.34zM490.712 758zm.947-6.89h.9l2.49 4.327.74 1.43h.04c-.03-.527-.07-1.09-.07-1.09-.04-.56-.04-1.107-.04-1.107v-3.56h.83V758h-.91l-2.5-4.338-.75-1.418h-.04l.08 1.066c.03.54.03 1.087.03 1.087V758h-.83v-6.89zm5.85 6.89zm.48-2.542c0-.63.19-1.13.19-1.13.19-.498.51-.845.51-.845.32-.346.73-.53.73-.53.41-.184.85-.184.85-.184.48 0 .86.16.86.16.38.17.64.48.64.48.25.31.39.75.39.75.13.44.13.98.13.98 0 .28-.03.47-.03.47h-3.45c.05.83.51 1.31.51 1.31.46.48 1.19.48 1.19.48.36 0 .67-.11.67-.11.31-.11.59-.29.59-.29l.3.56c-.33.21-.74.37-.74.37-.41.16-.94.16-.94.16-.51 0-.96-.19-.96-.19-.45-.19-.78-.53-.78-.53-.33-.34-.52-.84-.52-.84-.19-.5-.19-1.13-.19-1.13zm0 0zm3.57-.39c0-.786-.33-1.2-.33-1.2-.33-.416-.93-.416-.93-.416-.27 0-.52.11-.52.11-.25.11-.45.315-.45.315-.2.205-.33.504-.33.504-.13.3-.18.69-.18.69h2.73zm1.16 2.932zm.78-5.105h.87v3.12c0 .724.22 1.045.22 1.045.22.32.73.32.73.32.4 0 .7-.205.7-.205.3-.204.67-.656.67-.656v-3.63h.86V758h-.72l-.08-.798h-.04c-.36.42-.75.672-.75.672-.39.252-.93.252-.93.252-.82 0-1.19-.504-1.19-.504-.37-.504-.37-1.492-.37-1.492v-3.235zm4.93 5.105zm1.01-4.4h-.76v-.653l.8-.052.1-1.43h.72v1.43h1.37v.704h-1.37v2.83c0 .47.17.73.17.73.17.25.61.25.61.25.13 0 .29-.04.29-.04.16-.05.28-.1.28-.1l.16.65c-.21.07-.46.13-.46.13-.25.05-.49.05-.49.05-.41 0-.69-.13-.69-.13-.28-.13-.45-.35-.45-.35-.18-.22-.25-.54-.25-.54-.08-.32-.08-.7-.08-.7v-2.82zm2.54 4.4zm.86-5.105h.71l.07.924h.03c.26-.49.64-.77.64-.77.37-.29.81-.29.81-.29.3 0 .54.1.54.1l-.17.75-.23-.07c-.11-.02-.26-.02-.26-.02-.33 0-.68.26-.68.26-.35.26-.62.91-.62.91v3.3h-.86v-5.11zm2.52 5.105zm.61-1.323c0-.84.75-1.287.75-1.287.75-.447 2.39-.625 2.39-.625 0-.242-.05-.473-.05-.473-.05-.23-.17-.41-.17-.41-.12-.178-.32-.29-.32-.29-.2-.11-.52-.11-.52-.11-.45 0-.83.17-.83.17-.39.167-.69.377-.69.377l-.35-.6c.36-.23.87-.45.87-.45.51-.22 1.13-.22 1.13-.22.93 0 1.35.57 1.35.57.42.57.42 1.53.42 1.53V758h-.72l-.08-.61h-.02c-.37.306-.8.52-.8.52-.43.216-.9.216-.9.216-.65 0-1.08-.378-1.08-.378-.43-.378-.43-1.07-.43-1.07zm0 0zm.85-.064c0 .442.26.63.26.63.25.19.63.19.63.19.36 0 .69-.173.69-.173.33-.174.7-.51.7-.51v-1.418c-.64.084-1.09.2-1.09.2-.44.115-.71.273-.71.273-.27.157-.38.362-.38.362-.12.205-.12.446-.12.446zm3.92 1.387zm.86-7.48h.86v6.514c0 .21.07.294.07.294.07.084.17.084.17.084h.08l.11-.02.11.65c-.09.042-.2.063-.2.063-.12.02-.3.02-.3.02-.5 0-.71-.293-.71-.293-.21-.294-.21-.86-.21-.86v-6.45zm1.81 7.48zm.68-4.317c0-.305.18-.49.18-.49.18-.182.44-.182.44-.182.25 0 .43.19.43.19.18.19.18.49.18.49 0 .28-.18.47-.18.47-.19.19-.44.19-.44.19-.26 0-.45-.18-.45-.18-.19-.18-.19-.46-.19-.46zm0 0zm0 3.792c0-.305.18-.49.18-.49.18-.182.44-.182.44-.182.25 0 .43.183.43.183.18.184.18.49.18.49 0 .282-.18.466-.18.466-.19.184-.44.184-.44.184-.26 0-.45-.184-.45-.184-.19-.184-.19-.467-.19-.467zm4.05.525zm3.19-2.542v-1.943c0-.273.01-.646.01-.646.02-.38.04-.65.04-.65h-.05c-.13.24-.26.47-.26.47l-.29.47-1.57 2.29h2.1zm0 0zm1.73.693h-.92V758h-.82v-1.85h-3.02v-.566l2.87-4.286h.96v4.16h.91v.693zm.29 1.85zm.42-.51c.75-.75 1.34-1.36 1.34-1.36.58-.61.98-1.13.98-1.13.4-.52.61-.95.61-.95.21-.43.21-.84.21-.84 0-.58-.32-.94-.32-.94-.32-.36-.96-.36-.96-.36-.42 0-.78.24-.78.24-.36.24-.65.58-.65.58l-.5-.49c.42-.46.89-.74.89-.74.47-.27 1.13-.27 1.13-.27.94 0 1.47.54 1.47.54.54.55.54 1.44.54 1.44 0 .48-.21.95-.21.95-.2.48-.57.99-.57.99-.36.51-.86 1.06-.86 1.06-.5.56-1.1 1.17-1.1 1.17l.57-.04c.3-.02.56-.02.56-.02h1.94v.74h-4.33v-.51zm4.8.52zm.71-1.38c.3.32.71.56.71.56.4.25 1 .25 1 .25.61 0 1-.33 1-.33.39-.33.39-.9.39-.9 0-.29-.11-.54-.11-.54-.12-.25-.37-.43-.37-.43-.25-.17-.66-.27-.66-.27-.41-.09-1.01-.09-1.01-.09v-.66c.54 0 .9-.09.9-.09.37-.09.59-.26.59-.26.23-.17.32-.4.32-.4.1-.23.1-.49.1-.49 0-.49-.31-.78-.31-.78-.31-.28-.84-.28-.84-.28-.42 0-.77.19-.77.19-.36.19-.66.49-.66.49l-.46-.55c.39-.37.86-.6.86-.6.46-.24 1.06-.24 1.06-.24.44 0 .81.12.81.12.37.12.63.33.63.33.26.22.41.53.41.53.15.32.15.73.15.73 0 .61-.34 1-.34 1-.34.39-.88.6-.88.6v.04c.3.08.56.22.56.22.26.14.46.36.46.36.2.21.31.5.31.5.11.28.11.63.11.63 0 .44-.18.79-.18.79-.17.36-.47.61-.47.61-.3.25-.7.38-.7.38-.4.13-.86.13-.86.13-.4 0-.73-.08-.73-.08-.33-.08-.6-.21-.6-.21-.27-.13-.49-.3-.49-.3-.21-.16-.38-.35-.38-.35zM677.55 758zm3.876-2.805l-.33-1.05c-.19-.578-.358-1.15-.358-1.15-.17-.573-.337-1.17-.337-1.17h-.04c-.15.597-.32 1.17-.32 1.17-.16.572-.35 1.15-.35 1.15l-.32 1.05h2.07zm0 0zm.22.704h-2.51l-.66 2.1h-.9l2.33-6.89h.99l2.33 6.89h-.934zm1.62 2.1zm1.22.86c0 .41.395.65.395.65.4.24 1.09.24 1.09.24.37 0 .67-.09.67-.09.3-.09.51-.23.51-.23.21-.15.33-.33.33-.33.12-.19.12-.39.12-.39 0-.36-.26-.49-.26-.49-.26-.14-.76-.14-.76-.14h-.88c-.14 0-.32-.02-.32-.02-.17-.02-.34-.07-.34-.07-.27.2-.4.42-.4.42-.12.22-.12.44-.12.44zm0 0zm-.755.11c0-.33.2-.62.2-.62.2-.3.55-.54.55-.54v-.04c-.19-.12-.32-.32-.32-.32-.13-.21-.13-.51-.13-.51 0-.33.18-.57.18-.57.18-.24.38-.38.38-.38v-.05c-.25-.21-.45-.56-.45-.56-.2-.35-.2-.82-.2-.82 0-.42.16-.76.16-.76.15-.34.42-.57.42-.57.26-.24.62-.36.62-.36.35-.13.74-.13.74-.13.21 0 .4.03.4.03.18.04.33.09.33.09h1.78v.66h-1.05c.18.18.3.45.3.45.12.27.12.6.12.6 0 .41-.15.74-.15.74-.14.33-.4.55-.4.55-.25.22-.59.35-.59.35-.34.12-.73.12-.73.12-.19 0-.39-.05-.39-.05-.2-.05-.37-.13-.37-.13-.14.11-.23.25-.23.25-.1.14-.1.35-.1.35 0 .24.19.4.19.4.19.15.72.15.72.15h.99c.9 0 1.34.29 1.34.29.45.29.45.93.45.93 0 .36-.18.68-.18.68-.18.32-.51.56-.51.56-.33.24-.81.38-.81.38-.48.14-1.08.14-1.08.14-.47 0-.86-.09-.86-.09-.38-.09-.66-.27-.66-.27-.28-.18-.43-.43-.43-.43-.15-.25-.15-.59-.15-.59zm0 0zm2.12-3.17c.22 0 .42-.09.42-.09.2-.09.35-.24.35-.24.16-.16.24-.39.24-.39.09-.23.09-.51.09-.51 0-.57-.31-.88-.31-.88-.31-.31-.76-.31-.76-.31-.45 0-.77.31-.77.31-.31.31-.31.87-.31.87 0 .28.09.51.09.51.09.22.24.38.24.38.16.15.35.24.35.24.2.08.42.08.42.08zm2.71 2.19zm.86-5.11h.72l.08.92h.03c.26-.49.64-.77.64-.77.37-.29.81-.29.81-.29.31 0 .55.1.55.1l-.17.76c-.12-.04-.23-.07-.23-.07-.1-.02-.26-.02-.26-.02-.32 0-.67.26-.67.26-.35.26-.61.91-.61.91v3.3h-.86v-5.11zm2.68 5.1zm.49-2.55c0-.63.2-1.13.2-1.13.2-.5.52-.85.52-.85.32-.35.73-.53.73-.53.41-.19.85-.19.85-.19.49 0 .87.16.87.16.38.16.64.48.64.48.26.31.4.75.4.75.14.44.14.99.14.99 0 .28-.03.47-.03.47h-3.44c.05.83.51 1.31.51 1.31.46.48 1.19.48 1.19.48.37 0 .68-.11.68-.11.31-.11.6-.29.6-.29l.31.57c-.33.21-.74.37-.74.37-.41.16-.93.16-.93.16-.52 0-.96-.19-.96-.19-.45-.19-.78-.53-.78-.53-.33-.34-.52-.84-.52-.84-.19-.49-.19-1.12-.19-1.12zm0 0zm3.57-.39c0-.79-.33-1.2-.33-1.2-.33-.42-.93-.42-.93-.42-.27 0-.52.11-.52.11-.24.11-.44.32-.44.32-.2.2-.33.5-.33.5-.13.3-.17.69-.17.69h2.73zm1.16 2.93zm.48-2.54c0-.63.2-1.13.2-1.13.2-.5.52-.85.52-.85.32-.35.73-.53.73-.53.41-.18.85-.18.85-.18.49 0 .87.16.87.16.39.17.64.48.64.48.26.31.4.76.4.76.14.44.14.99.14.99 0 .28-.03.47-.03.47h-3.45c.05.83.51 1.31.51 1.31.46.48 1.19.48 1.19.48.37 0 .68-.11.68-.11.31-.11.59-.29.59-.29l.31.57c-.33.21-.74.36-.74.36-.41.15-.93.15-.93.15-.51 0-.96-.19-.96-.19-.45-.18-.78-.52-.78-.52-.33-.34-.52-.84-.52-.84-.19-.49-.19-1.12-.19-1.12zm0 0zm3.57-.39c0-.79-.33-1.2-.33-1.2-.33-.42-.93-.42-.93-.42-.27 0-.52.11-.52.11-.24.11-.44.31-.44.31-.2.2-.33.5-.33.5-.13.3-.17.69-.17.69h2.73zm1.16 2.93zm.69-4.32c0-.31.19-.49.19-.49.19-.19.45-.19.45-.19.25 0 .44.18.44.18.18.18.18.49.18.49 0 .28-.18.46-.18.46-.18.18-.44.18-.44.18-.26 0-.44-.18-.44-.18-.19-.19-.19-.47-.19-.47zm0 0zm0 3.79c0-.31.19-.49.19-.49.19-.18.45-.18.45-.18.25 0 .44.18.44.18.18.18.18.49.18.49 0 .28-.18.46-.18.46-.18.18-.44.18-.44.18-.26 0-.44-.19-.44-.19-.19-.19-.19-.47-.19-.47zm4.06.52zm.42-.52c.76-.76 1.35-1.37 1.35-1.37.59-.61.99-1.13.99-1.13.4-.52.61-.95.61-.95.21-.44.21-.85.21-.85 0-.58-.31-.95-.31-.95-.31-.37-.95-.37-.95-.37-.42 0-.78.23-.78.23-.36.24-.65.57-.65.57l-.5-.5c.42-.46.89-.74.89-.74.48-.28 1.14-.28 1.14-.28.93 0 1.47.54 1.47.54.53.54.53 1.44.53 1.44 0 .47-.2.95-.2.95-.2.48-.56.99-.56.99-.36.51-.86 1.06-.86 1.06-.5.55-1.1 1.17-1.1 1.17l.57-.04c.3-.02.56-.02.56-.02h1.94v.75h-4.33v-.52zm4.8.51zm2.82-.56c.25 0 .46-.11.46-.11.21-.11.37-.3.37-.3.16-.2.25-.46.25-.46.09-.27.09-.61.09-.61 0-.67-.3-1.04-.3-1.04-.31-.38-.94-.38-.94-.38-.31 0-.69.2-.69.2-.37.2-.71.68-.71.68.09.98.46 1.49.46 1.49.38.51 1.02.51 1.02.51zm0 0zm1.38-5.02c-.21-.24-.5-.39-.5-.39-.29-.14-.6-.14-.6-.14-.35 0-.66.14-.66.14-.31.14-.56.48-.56.48-.24.33-.39.87-.39.87-.14.54-.16 1.34-.16 1.34.32-.39.74-.62.74-.62.42-.23.83-.23.83-.23.87 0 1.39.51 1.39.51.52.51.52 1.55.52 1.55 0 .48-.16.88-.16.88-.15.39-.43.67-.43.67-.27.28-.63.44-.63.44-.36.15-.76.15-.76.15-.49 0-.91-.2-.91-.2-.42-.2-.73-.6-.73-.6-.31-.41-.49-1.01-.49-1.01-.17-.61-.17-1.41-.17-1.41 0-1.01.21-1.72.21-1.72.21-.71.57-1.15.57-1.15.36-.45.82-.65.82-.65.46-.21.96-.21.96-.21.55 0 .94.2.94.2.39.21.68.51.68.51zm1.03 5.58zm.83-.72h1.54v-4.93h-1.22v-.56c.47-.08.81-.2.81-.2.34-.12.62-.29.62-.29h.66v5.99h1.39v.72h-3.78v-.72zm125.78.72zm.97-1.5c.37.39.87.63.87.63.5.23 1.04.23 1.04.23.68 0 1.06-.31 1.06-.31.38-.31.38-.82.38-.82 0-.26-.09-.45-.09-.45-.09-.19-.24-.32-.24-.32-.15-.13-.36-.24-.36-.24-.21-.11-.45-.22-.45-.22l-.99-.43c-.24-.11-.49-.26-.49-.26-.25-.15-.45-.36-.45-.36-.2-.21-.33-.5-.33-.5-.13-.29-.13-.67-.13-.67 0-.39.17-.73.17-.73.16-.34.45-.58.45-.58.29-.25.68-.38.68-.38.39-.14.87-.14.87-.14.62 0 1.14.23 1.14.23.53.24.9.61.9.61l-.47.56c-.31-.31-.7-.48-.7-.48-.38-.18-.86-.18-.86-.18-.58 0-.93.27-.93.27-.35.27-.35.74-.35.74 0 .25.1.43.1.43.1.17.27.3.27.3.17.14.37.23.37.23.2.1.41.19.41.19l.98.42c.3.13.56.29.56.29.26.16.45.38.45.38.19.22.3.51.3.51.11.29.11.67.11.67 0 .41-.16.76-.16.76-.17.35-.47.62-.47.62-.3.26-.74.42-.74.42-.43.15-.97.15-.97.15-.73 0-1.35-.28-1.35-.28-.62-.27-1.07-.75-1.07-.75zm4.64 1.5zm1.01-4.4h-.76v-.66l.8-.05.11-1.43h.73v1.43h1.38v.71h-1.38v2.83c0 .47.18.73.18.73.17.25.61.25.61.25.14 0 .3-.04.3-.04.16-.05.29-.1.29-.1l.17.65c-.21.07-.46.13-.46.13-.24.05-.49.05-.49.05-.41 0-.69-.12-.69-.12-.28-.13-.45-.35-.45-.35-.17-.22-.25-.54-.25-.54-.07-.31-.07-.69-.07-.69v-2.82zm2.54 4.4zm.86-5.11h.72l.08.92h.03c.27-.49.64-.77.64-.77.38-.29.82-.29.82-.29.31 0 .55.1.55.1l-.17.76c-.12-.05-.23-.07-.23-.07-.1-.02-.26-.02-.26-.02-.32 0-.67.26-.67.26-.35.26-.61.91-.61.91v3.3h-.86v-5.11zm2.68 5.11zm.48-2.55c0-.64.2-1.14.2-1.14.2-.5.52-.84.52-.84.33-.35.75-.53.75-.53.43-.18.9-.18.9-.18.47 0 .9.18.9.18.43.18.75.52.75.52.33.35.52.84.52.84.2.5.2 1.14.2 1.14 0 .63-.19 1.13-.19 1.13-.19.49-.52.84-.52.84-.32.34-.75.52-.75.52-.42.17-.9.17-.9.17-.47 0-.9-.18-.9-.18-.42-.18-.75-.52-.75-.52-.32-.34-.52-.84-.52-.84-.19-.5-.19-1.13-.19-1.13zm0 0zm.9 0c0 .44.11.8.11.8.11.36.3.62.3.62.2.26.47.4.47.4.27.15.59.15.59.15.33 0 .6-.15.6-.15.27-.14.47-.4.47-.4.2-.26.3-.61.3-.61.11-.36.11-.8.11-.8 0-.44-.1-.8-.1-.8-.1-.37-.3-.63-.3-.63-.19-.26-.46-.41-.46-.41-.27-.14-.6-.14-.6-.14-.32 0-.59.14-.59.14-.27.14-.47.4-.47.4-.19.26-.3.62-.3.62-.1.36-.1.8-.1.8zm4.32 2.55zm.86-5.11h.72l.08.73h.04c.37-.37.77-.62.77-.62.41-.25.94-.25.94-.25.81 0 1.18.5 1.18.5.37.5.37 1.49.37 1.49v3.3h-.86v-3.12c0-.73-.23-1.05-.23-1.05-.24-.32-.74-.32-.74-.32-.4 0-.7.2-.7.2-.31.2-.7.59-.7.59v3.7h-.86v-5.11zm4.89 5.11zm1.23.86c0 .41.4.65.4.65.4.24 1.09.24 1.09.24.37 0 .67-.09.67-.09.3-.09.51-.23.51-.23.21-.15.33-.34.33-.34.12-.19.12-.39.12-.39 0-.36-.26-.49-.26-.49-.26-.13-.76-.13-.76-.13h-.88c-.15 0-.32-.02-.32-.02-.17-.02-.34-.07-.34-.07-.27.2-.4.42-.4.42-.12.22-.12.44-.12.44zm0 0zm-.75.11c0-.32.2-.62.2-.62.2-.29.55-.53.55-.53v-.05c-.19-.12-.32-.32-.32-.32-.13-.21-.13-.51-.13-.51 0-.33.18-.57.18-.57.18-.24.38-.38.38-.38v-.04c-.25-.21-.45-.56-.45-.56-.2-.35-.2-.81-.2-.81 0-.42.15-.76.15-.76.15-.34.42-.57.42-.57.26-.24.61-.36.61-.36.35-.13.74-.13.74-.13.21 0 .39.03.39.03.19.03.33.09.33.09h1.78v.66h-1.05c.18.18.3.45.3.45.12.27.12.6.12.6 0 .41-.15.74-.15.74-.15.33-.4.55-.4.55-.25.23-.59.35-.59.35-.34.12-.73.12-.73.12-.19 0-.39-.05-.39-.05-.2-.05-.38-.13-.38-.13-.14.11-.23.25-.23.25-.1.15-.1.36-.1.36 0 .24.19.4.19.4.19.16.72.16.72.16h.98c.89 0 1.34.29 1.34.29.45.29.45.93.45.93 0 .35-.18.68-.18.68-.18.32-.51.56-.51.56-.34.24-.82.38-.82.38-.47.15-1.07.15-1.07.15-.47 0-.86-.09-.86-.09-.39-.09-.66-.27-.66-.27-.28-.18-.43-.43-.43-.43-.15-.25-.15-.59-.15-.59zm0 0zm2.11-3.17c.22 0 .42-.08.42-.08.19-.08.34-.24.34-.24.15-.16.24-.38.24-.38.09-.22.09-.51.09-.51 0-.56-.31-.87-.31-.87-.31-.31-.77-.31-.77-.31-.45 0-.76.31-.76.31-.32.31-.32.88-.32.88 0 .28.09.51.09.51.09.22.24.38.24.38.15.15.35.24.35.24.19.08.41.08.41.08zm2.71 2.19zm.87-7.48h.87V757c0 .21.07.292.07.292.08.082.17.082.17.082h.08l.11-.02.12.65c-.08.04-.2.06-.2.06-.11.02-.29.02-.29.02-.5 0-.71-.29-.71-.29-.21-.29-.21-.86-.21-.86v-6.45zm1.82 7.48zm.52 1.41l.19.04.2.02c.44 0 .72-.31.72-.31.28-.31.44-.78.44-.78l.12-.38-2.05-5.11h.89l1.04 2.83.25.71c.13.37.25.73.25.73h.04c.12-.35.22-.73.22-.73.11-.38.21-.71.21-.71l.92-2.83h.84l-1.92 5.53c-.13.37-.3.7-.3.7-.17.32-.4.56-.4.56-.23.23-.52.37-.52.37-.29.13-.68.13-.68.13-.18 0-.33-.03-.33-.03-.15-.02-.28-.08-.28-.08l.17-.68zm6.51-1.42zm.61-1.32c0-.84.75-1.29.75-1.29.75-.45 2.39-.62 2.39-.62 0-.24-.04-.48-.04-.48-.05-.23-.17-.41-.17-.41-.12-.18-.32-.29-.32-.29-.2-.11-.51-.11-.51-.11-.46 0-.84.17-.84.17-.39.17-.69.38-.69.38l-.35-.6c.36-.23.87-.45.87-.45.51-.22 1.13-.22 1.13-.22.94 0 1.36.57 1.36.57.42.57.42 1.53.42 1.53v3.2h-.71l-.07-.61h-.02c-.37.3-.79.52-.79.52-.43.21-.9.21-.9.21-.65 0-1.08-.38-1.08-.38-.42-.38-.42-1.07-.42-1.07zm0 0zm.85-.06c0 .44.26.63.26.63.26.19.64.19.64.19.37 0 .7-.17.7-.17.34-.18.7-.51.7-.51v-1.42c-.64.08-1.08.2-1.08.2-.44.11-.71.27-.71.27-.26.16-.38.36-.38.36-.11.21-.11.45-.11.45zm3.92 1.39zm1.23.86c0 .41.4.65.4.65.4.24 1.09.24 1.09.24.37 0 .67-.09.67-.09.3-.09.51-.23.51-.23.21-.15.33-.34.33-.34.12-.19.12-.39.12-.39 0-.36-.26-.49-.26-.49-.26-.13-.76-.13-.76-.13h-.88c-.14 0-.32-.01-.32-.01-.17-.02-.34-.07-.34-.07-.27.2-.4.42-.4.42-.12.22-.12.44-.12.44zm0 0zm-.75.11c0-.33.2-.62.2-.62.2-.29.55-.53.55-.53v-.04c-.19-.11-.32-.32-.32-.32-.13-.2-.13-.51-.13-.51 0-.32.18-.57.18-.57.18-.24.38-.38.38-.38v-.04c-.25-.21-.46-.56-.46-.56-.2-.35-.2-.81-.2-.81 0-.42.16-.76.16-.76.15-.34.41-.57.41-.57.26-.24.62-.37.62-.37.35-.13.74-.13.74-.13.21 0 .4.03.4.03.18.03.33.09.33.09H894v.66h-1.05c.175.18.3.45.3.45.12.27.12.6.12.6 0 .41-.15.74-.15.74-.144.33-.4.55-.4.55-.25.23-.59.35-.59.35-.34.122-.73.122-.73.122-.19 0-.39-.05-.39-.05-.2-.05-.38-.13-.38-.13-.133.11-.23.25-.23.25-.09.14-.09.35-.09.35 0 .24.19.4.19.4.19.16.71.16.71.16h.986c.89 0 1.34.29 1.34.29.448.28.448.92.448.92 0 .36-.18.68-.18.68-.172.32-.51.56-.51.56-.334.24-.812.38-.812.38-.48.15-1.08.15-1.08.15-.472 0-.86-.09-.86-.09-.39-.09-.67-.27-.67-.27-.28-.18-.43-.43-.43-.43-.15-.25-.15-.59-.15-.59zm0 0zm2.12-3.17c.22 0 .42-.09.42-.09.2-.08.35-.24.35-.24.15-.16.24-.38.24-.38.09-.22.09-.51.09-.51 0-.56-.31-.87-.31-.87-.32-.31-.77-.31-.77-.31-.45 0-.77.31-.77.31-.31.31-.31.88-.31.88 0 .28.09.51.09.51.08.22.23.38.23.38.16.16.35.24.35.24.19.08.42.08.42.08zm2.71 2.19zm.86-5.11h.72l.08.92h.04c.26-.49.64-.77.64-.77.38-.29.82-.29.82-.29.31 0 .55.1.55.1l-.17.75c-.12-.04-.23-.07-.23-.07-.1-.02-.26-.02-.26-.02-.32 0-.68.26-.68.26-.35.26-.61.91-.61.91v3.3h-.9v-5.11zm2.68 5.1zm.49-2.54c0-.63.2-1.13.2-1.13.2-.5.52-.84.52-.84.32-.34.73-.53.73-.53.41-.18.85-.18.85-.18.49 0 .87.16.87.16.38.17.64.48.64.48.26.31.39.75.39.75.14.44.14.99.14.99 0 .29-.03.48-.03.48H899c.053.83.51 1.31.51 1.31.456.48 1.192.48 1.192.48.367 0 .677-.11.677-.11.31-.11.59-.29.59-.29l.3.57c-.34.21-.75.37-.75.37-.41.16-.94.16-.94.16-.52 0-.96-.18-.96-.18-.45-.19-.78-.53-.78-.53-.33-.34-.52-.84-.52-.84-.19-.5-.19-1.13-.19-1.13zm0 0zm3.57-.39c0-.78-.33-1.2-.33-1.2-.33-.41-.93-.41-.93-.41-.27 0-.52.11-.52.11-.25.11-.45.31-.45.31-.2.2-.33.5-.33.5-.13.3-.17.69-.17.69h2.73zm1.15 2.93zm.48-2.54c0-.63.2-1.13.2-1.13.2-.5.52-.84.52-.84.32-.35.73-.53.73-.53.41-.19.85-.19.85-.19.49 0 .87.16.87.16.38.17.64.48.64.48.25.31.39.75.39.75.13.44.13.98.13.98 0 .28-.03.47-.03.47h-3.44c.05.83.51 1.32.51 1.32.46.48 1.19.48 1.19.48.37 0 .68-.11.68-.11.31-.11.6-.29.6-.29l.3.57c-.33.21-.74.37-.74.37-.41.16-.94.16-.94.16-.51 0-.96-.19-.96-.19-.44-.18-.78-.53-.78-.53-.33-.34-.52-.84-.52-.84-.18-.5-.18-1.13-.18-1.13zm0 0zM907 755c0-.785-.33-1.2-.33-1.2-.33-.415-.93-.415-.93-.415-.27 0-.52.11-.52.11-.25.11-.45.31-.45.31-.2.2-.33.5-.33.5-.13.3-.17.69-.17.69H907zm1.13 2.94zm.69-4.317c0-.3.19-.49.19-.49.19-.18.45-.18.45-.18.25 0 .44.19.44.19.19.19.19.49.19.49 0 .28-.18.47-.18.47-.18.19-.43.19-.43.19-.26 0-.45-.18-.45-.18-.18-.18-.18-.464-.18-.464zm0 0zm0 3.79c0-.3.19-.49.19-.49.19-.18.45-.18.45-.18.25 0 .44.187.44.187.19.187.19.49.19.49 0 .28-.18.47-.18.47-.18.18-.43.18-.43.18-.26 0-.45-.18-.45-.18-.18-.187-.18-.47-.18-.47zm4.06.53zm.72-1.38c.31.32.71.56.71.56.4.25 1 .25 1 .25.61 0 1-.33 1-.33.39-.33.39-.9.39-.9 0-.29-.11-.54-.11-.54-.11-.245-.36-.424-.36-.424-.25-.18-.66-.27-.66-.27-.41-.1-1.01-.1-1.01-.1v-.67c.54 0 .9-.1.9-.1.36-.1.59-.26.59-.26.23-.17.32-.4.32-.4.1-.23.1-.5.1-.5 0-.5-.31-.78-.31-.78-.31-.29-.84-.29-.84-.29-.42 0-.77.19-.77.19-.35.19-.66.49-.66.49l-.46-.55c.39-.37.86-.61.86-.61.47-.24 1.07-.24 1.07-.24.44 0 .81.11.81.11.37.12.63.33.63.33.27.22.42.53.42.53.15.32.15.73.15.73 0 .61-.34 1-.34 1-.33.39-.88.6-.88.6v.04c.31.07.57.22.57.22.26.14.46.35.46.35.2.21.31.5.31.5.11.28.11.63.11.63 0 .44-.17.79-.17.79-.17.35-.47.6-.47.6-.3.25-.7.38-.7.38-.4.13-.86.13-.86.13-.4 0-.73-.08-.73-.08-.33-.08-.6-.21-.6-.21-.27-.13-.49-.3-.49-.3-.21-.17-.38-.36-.38-.36zm4.5 1.39zm2.47-3.25c.33 0 .7-.203.7-.203.38-.21.71-.69.71-.69-.08-.99-.46-1.49-.46-1.49-.37-.51-1.02-.51-1.02-.51-.24 0-.45.1-.45.1-.21.1-.37.3-.37.3-.15.19-.24.47-.24.47-.09.272-.09.6-.09.6 0 .66.31 1.04.31 1.04.3.38.93.38.93.38zm0 0zm-1.45 2.13c.21.24.5.39.5.39.29.15.61.15.61.15.36 0 .67-.15.67-.15.32-.15.56-.49.56-.49.25-.34.39-.89.39-.89.15-.55.16-1.36.16-1.36-.31.4-.73.63-.73.63-.42.23-.84.23-.84.23-.87 0-1.38-.52-1.38-.52-.51-.52-.51-1.56-.51-1.56 0-.48.16-.87.16-.87.16-.4.43-.68.43-.68.27-.28.63-.44.63-.44.36-.16.76-.16.76-.16.49 0 .92.2.92.2.43.2.74.6.74.6.31.41.48 1.01.48 1.01.17.6.17 1.41.17 1.41 0 1.01-.21 1.72-.21 1.72-.21.71-.56 1.16-.56 1.16-.36.442-.82.65-.82.65-.46.2-.96.2-.96.2-.54 0-.94-.2-.94-.2-.402-.2-.68-.5-.68-.5z"/></svg>