<svg xmlns="http://www.w3.org/2000/svg" stroke="#000" viewBox="0 0 1024 768" font-size="1"><path fill="#FFF" stroke="none" d="M0 0v768h1024V0z"/><path stroke="none" d="M377.038 14.102zm1.186-10.04h2.264V14.1h-2.264V4.062zm6.653 10.04zm1.31-5.868h-1.048v-1.68l1.17-.09.26-2.034h1.88v2.033h1.83v1.77h-1.84V11.3c0 .646.27.93.27.93.27.285.71.285.71.285.18 0 .37-.046.37-.046.19-.05.34-.11.34-.11l.35 1.65c-.31.09-.73.18-.73.18-.42.09-.97.09-.97.09-.71 0-1.21-.22-1.21-.22-.5-.22-.82-.6-.82-.6-.32-.39-.47-.94-.47-.94-.15-.55-.15-1.21-.15-1.21V8.23zm4.59 5.868zm1-10.796h2.264v2.65l-.1 1.37c.43-.386 1-.717 1-.717.57-.34 1.36-.34 1.36-.34 1.25 0 1.81.81 1.81.81.56.81.56 2.26.56 2.26v4.75h-2.27V9.65c0-.832-.22-1.14-.22-1.14-.22-.31-.71-.31-.71-.31-.43 0-.74.195-.74.195-.3.192-.67.547-.67.547v5.16h-2.26V3.305zm7.792 10.796zm2.12-8.763c-.57 0-.94-.34-.94-.34-.37-.33-.37-.86-.37-.86 0-.53.37-.85.37-.85.37-.33.94-.33.94-.33.58 0 .94.32.94.32.36.32.36.84.36.84 0 .52-.37.85-.37.85-.36.33-.95.33-.95.33zm0 0zm-1.13 1.12h2.26v7.64h-2.27V6.46zm3.25 7.64zm1-7.64h1.85l.15.97h.06c.49-.47 1.08-.81 1.08-.81.58-.35 1.37-.35 1.37-.35 1.25 0 1.81.81 1.81.81.56.81.56 2.26.56 2.26v4.75h-2.27V9.65c0-.832-.23-1.14-.23-1.14-.23-.31-.72-.31-.72-.31-.43 0-.74.195-.74.195-.31.192-.68.547-.68.547v5.16h-2.26v-7.64zm7.81 7.64zm1-10.8h2.2v6.19h.06l2.41-3.04h2.46l-2.68 3.14 2.88 4.49h-2.45l-1.73-2.97-.97 1.09v1.88h-2.2V3.3zm10.64 10.8zm1.18-10.04h2.26v3.86h3.46V4.06h2.28v10.042h-2.28v-4.19h-3.46v4.19h-2.26V4.062zm9.19 10.04zm.72-2.13c0-1.2 1.01-1.88 1.01-1.88 1.02-.68 3.28-.91 3.28-.91-.03-.51-.31-.81-.31-.81-.28-.3-.89-.3-.89-.3-.49 0-.98.18-.98.18-.5.18-1.05.51-1.05.51l-.8-1.49c.74-.45 1.54-.73 1.54-.73.8-.28 1.71-.28 1.71-.28 1.48 0 2.25.84 2.25.84.78.84.78 2.61.78 2.61v4.38h-1.85l-.17-.79h-.05c-.49.43-1.04.7-1.04.7-.55.27-1.19.27-1.19.27-.53 0-.94-.18-.94-.18-.42-.18-.71-.5-.71-.5-.3-.32-.46-.74-.46-.74-.16-.41-.16-.9-.16-.9zm0 0zm2.15-.17c0 .37.24.55.24.55.24.17.64.17.64.17.4 0 .68-.17.68-.17.28-.17.58-.48.58-.48v-1.34c-1.22.17-1.68.49-1.68.49-.46.32-.46.77-.46.77zm5.35 2.29zm1.34-2.29c.52.4 1 .6 1 .6.48.2.97.2.97.2.51 0 .74-.17.74-.17.23-.17.23-.48.23-.48 0-.19-.13-.33-.13-.33-.13-.15-.36-.27-.36-.27-.22-.13-.5-.23-.5-.23-.28-.1-.57-.22-.57-.22-.35-.14-.71-.33-.71-.33-.36-.19-.65-.46-.65-.46-.3-.27-.48-.63-.48-.63-.19-.37-.19-.84-.19-.84 0-.53.2-.97.2-.97.2-.45.59-.76.59-.76.38-.31.92-.49.92-.49.53-.18 1.2-.18 1.2-.18.87 0 1.54.3 1.54.3.66.3 1.15.67 1.15.67l-1.02 1.36c-.42-.31-.82-.48-.82-.48-.4-.17-.8-.17-.8-.17-.86 0-.86.6-.86.6 0 .18.12.31.12.31.12.13.33.24.33.24.21.11.48.21.48.21l.56.21c.37.13.73.31.73.31.36.17.66.43.66.43.3.26.48.64.48.64.18.37.18.9.18.9 0 .52-.2.97-.2.97-.2.44-.6.78-.6.78-.4.33-.99.52-.99.52-.58.19-1.35.19-1.35.19-.76 0-1.55-.29-1.55-.29-.79-.3-1.38-.77-1.38-.77zm5.48 2.29zm1-10.8h2.2v6.19h.06l2.41-3.04h2.46l-2.66 3.16 2.88 4.49h-2.45l-1.73-2.97-.97 1.09v1.88h-2.2V3.3zm7 10.79zm.55-3.82c0-.92.31-1.67.31-1.67.31-.75.81-1.26.81-1.26.5-.52 1.15-.8 1.15-.8.65-.28 1.34-.28 1.34-.28.82 0 1.42.28 1.42.28.61.28 1.02.77 1.02.77.4.49.6 1.16.6 1.16.2.67.2 1.45.2 1.45 0 .31-.03.56-.03.56-.03.25-.07.39-.07.39h-4.57c.15.87.68 1.27.68 1.27.53.39 1.3.39 1.3.39.81 0 1.65-.51 1.65-.51l.75 1.37c-.59.4-1.3.63-1.3.63-.72.23-1.41.23-1.41.23-.82 0-1.53-.27-1.53-.27-.71-.27-1.23-.79-1.23-.79-.53-.52-.82-1.26-.82-1.26-.29-.74-.29-1.7-.29-1.7zm0 0zm4.93-.78c0-.66-.29-1.08-.29-1.08-.29-.42-.99-.42-.99-.42-.54 0-.94.36-.94.36-.41.36-.53 1.13-.53 1.13h2.75zm2.5 4.6zm1-10.8h2.26v8.52c0 .35.13.49.13.49.13.14.27.14.27.14h.13l.15-.04.28 1.68c-.19.07-.47.13-.47.13-.29.05-.67.05-.67.05-.59 0-.99-.19-.99-.19-.4-.19-.64-.52-.64-.52-.24-.33-.35-.8-.35-.8-.11-.47-.11-1.06-.11-1.06V3.3zm3.4 10.79zm1-10.8h2.26v8.52c0 .36.13.5.13.5.13.14.27.14.27.14h.13l.15-.04.28 1.68c-.18.07-.47.13-.47.13-.28.05-.67.05-.67.05-.58 0-.99-.19-.99-.19-.4-.19-.64-.52-.64-.52-.24-.33-.34-.8-.34-.8-.11-.47-.11-1.06-.11-1.06V3.3zm6.61 10.8zm1-10.79h2.26v8.52c0 .35.13.49.13.49.13.14.27.14.27.14h.13l.15-.04.27 1.68c-.19.07-.47.13-.47.13-.28.05-.67.05-.67.05-.59 0-.99-.19-.99-.19-.4-.19-.64-.52-.64-.52-.23-.33-.34-.8-.34-.8-.11-.47-.11-1.06-.11-1.06V3.3zm3.4 10.79zm2.13-8.77c-.57 0-.94-.33-.94-.33-.37-.33-.37-.86-.37-.86 0-.52.37-.84.37-.84.37-.32.94-.32.94-.32.58 0 .94.32.94.32.36.32.36.84.36.84 0 .52-.37.85-.37.85-.36.33-.95.33-.95.33zm0 0zm-1.1 1.15h2.26v7.64h-2.26V6.46zm3.25 7.64zm1-10.8h2.26v2.65l-.06 1.17c.44-.4.96-.63.96-.63.51-.22 1.05-.22 1.05-.22.7 0 1.25.28 1.25.28.56.28.95.78.95.78.39.5.6 1.22.6 1.22.21.72.21 1.59.21 1.59 0 .98-.27 1.75-.27 1.75-.27.77-.72 1.3-.72 1.3-.45.53-1.03.81-1.03.81-.58.27-1.19.27-1.19.27-.51 0-1.02-.25-1.02-.25-.52-.25-.97-.74-.97-.74h-.06l-.19.8h-1.77V3.31zm0 0zm2.26 8.64c.31.28.61.38.61.38.31.11.6.11.6.11.59 0 1-.53 1-.53.42-.53.42-1.72.42-1.72 0-2.07-1.33-2.07-1.33-2.07-.68 0-1.31.69-1.31.69v3.12zm5.56 2.15zm1-7.64h1.85l.15 1.34h.06c.41-.78 1-1.15 1-1.15.58-.37 1.17-.37 1.17-.37.32 0 .53.04.53.04.21.04.38.12.38.12l-.37 1.96c-.22-.06-.4-.09-.4-.09-.19-.03-.44-.03-.44-.03-.43 0-.9.31-.9.31-.47.31-.78 1.09-.78 1.09v4.43h-2.27V6.46zm4.68 7.64zm.72-2.12c0-1.2 1.02-1.88 1.02-1.88 1.02-.67 3.28-.9 3.28-.9-.03-.51-.31-.81-.31-.81-.27-.3-.89-.3-.89-.3-.49 0-.98.18-.98.18-.49.18-1.04.51-1.04.51l-.8-1.49c.74-.45 1.55-.73 1.55-.73.81-.28 1.72-.28 1.72-.28 1.48 0 2.26.84 2.26.84.78.84.78 2.61.78 2.61v4.37h-1.85l-.17-.79h-.04c-.49.43-1.04.7-1.04.7-.54.27-1.19.27-1.19.27-.52 0-.94-.18-.94-.18-.41-.18-.71-.49-.71-.49-.29-.32-.45-.73-.45-.73-.16-.41-.16-.9-.16-.9zm0 0zm2.16-.17c0 .37.24.55.24.55.24.18.64.18.64.18.4 0 .68-.17.68-.17.28-.17.59-.47.59-.47v-1.34c-1.21.17-1.68.49-1.68.49-.46.32-.46.77-.46.77zm5.35 2.3zm1-7.64h1.85l.16 1.34h.06c.42-.78 1-1.15 1-1.15.59-.37 1.17-.37 1.17-.37.33 0 .53.04.53.04.2.04.37.11.37.11l-.37 1.95c-.22-.06-.4-.09-.4-.09-.19-.03-.43-.03-.43-.03-.43 0-.9.3-.9.3-.47.3-.78 1.09-.78 1.09v4.43h-2.27V6.46zm5.13 7.64zm2.13-8.76c-.57 0-.94-.33-.94-.33-.37-.33-.37-.86-.37-.86 0-.53.37-.85.37-.85.37-.32.94-.32.94-.32.59 0 .95.32.95.32.36.32.36.85.36.85 0 .52-.36.85-.36.85-.36.33-.95.33-.95.33zm0 0zm-1.12 1.12h2.26v7.64h-2.27V6.46zm3.25 7.64zm.55-3.82c0-.93.3-1.67.3-1.67.31-.75.81-1.26.81-1.26.5-.52 1.15-.8 1.15-.8.64-.28 1.34-.28 1.34-.28.81 0 1.42.28 1.42.28.6.27 1.01.77 1.01.77.4.49.61 1.16.61 1.16.2.67.2 1.45.2 1.45 0 .3-.04.56-.04.56-.03.25-.06.39-.06.39h-4.57c.15.88.69 1.27.69 1.27.53.39 1.3.39 1.3.39.82 0 1.65-.51 1.65-.51l.75 1.37c-.58.4-1.3.63-1.3.63-.72.23-1.41.23-1.41.23-.81 0-1.52-.27-1.52-.27-.71-.27-1.23-.79-1.23-.79-.52-.51-.81-1.25-.81-1.25-.29-.74-.29-1.7-.29-1.7zm0 0zm4.92-.79c0-.66-.29-1.08-.29-1.08-.29-.42-.98-.42-.98-.42-.54 0-.94.36-.94.36-.41.36-.53 1.13-.53 1.13h2.76zm2.5 4.6zm1.34-2.3c.52.4 1 .6 1 .6.47.2.97.2.97.2.5 0 .74-.17.74-.17.23-.17.23-.48.23-.48 0-.19-.13-.33-.13-.33-.14-.15-.36-.27-.36-.27-.23-.13-.5-.23-.5-.23-.28-.1-.57-.23-.57-.23-.36-.14-.71-.32-.71-.32-.36-.19-.65-.46-.65-.46-.3-.27-.48-.63-.48-.63-.19-.36-.19-.84-.19-.84 0-.52.21-.97.21-.97.2-.45.59-.75.59-.75.38-.31.92-.49.92-.49.54-.18 1.2-.18 1.2-.18.88 0 1.54.3 1.54.3.66.3 1.15.67 1.15.67l-1.02 1.36c-.42-.31-.82-.48-.82-.48-.4-.17-.8-.17-.8-.17-.87 0-.87.6-.87.6 0 .18.12.31.12.31.12.13.33.24.33.24.21.1.48.2.48.2l.56.21c.37.14.73.31.73.31.36.18.66.44.66.44.3.26.48.64.48.64.19.37.19.9.19.9 0 .52-.2.97-.2.97-.2.44-.6.78-.6.78-.4.33-.99.52-.99.52-.58.2-1.35.2-1.35.2-.76 0-1.55-.29-1.55-.29-.8-.29-1.38-.77-1.38-.77zm8.68 2.29zm.72-2.13c0-1.2 1.01-1.88 1.01-1.88 1.01-.68 3.28-.91 3.28-.91-.03-.51-.31-.81-.31-.81-.28-.3-.89-.3-.89-.3-.49 0-.99.18-.99.18-.49.19-1.05.51-1.05.51l-.8-1.49c.74-.45 1.54-.73 1.54-.73.81-.28 1.72-.28 1.72-.28 1.48 0 2.25.84 2.25.84.78.84.78 2.61.78 2.61v4.37h-1.85l-.17-.79h-.05c-.49.43-1.04.7-1.04.7-.55.27-1.19.27-1.19.27-.52 0-.94-.18-.94-.18-.42-.18-.71-.5-.71-.5-.29-.31-.45-.73-.45-.73-.16-.42-.16-.91-.16-.91zm0 0zm2.15-.17c0 .37.24.55.24.55.24.17.64.17.64.17.4 0 .67-.17.67-.17.27-.17.58-.48.58-.48V10.5c-1.22.17-1.68.496-1.68.496-.46.32-.46.77-.46.77zm5.34 2.3zm1-7.64h1.85l.15 1.34h.06c.41-.79 1-1.16 1-1.16.58-.37 1.17-.37 1.17-.37.32 0 .53.04.53.04.21.04.38.11.38.11l-.37 1.96c-.21-.07-.4-.1-.4-.1-.18-.03-.43-.03-.43-.03-.43 0-.9.3-.9.3-.47.31-.77 1.09-.77 1.09v4.43h-2.26v-7.6zm4.98 7.64zm.55-3.82c0-.93.31-1.67.31-1.67.31-.75.81-1.27.81-1.27.5-.52 1.14-.8 1.14-.8.65-.28 1.34-.28 1.34-.28.81 0 1.42.28 1.42.28.61.28 1.02.77 1.02.77.41.49.61 1.16.61 1.16.2.67.2 1.45.2 1.45 0 .31-.03.56-.03.56-.03.25-.06.39-.06.39h-4.57c.16.88.69 1.27.69 1.27.53.39 1.3.39 1.3.39.81 0 1.65-.51 1.65-.51l.75 1.37c-.59.4-1.3.63-1.3.63-.72.23-1.41.23-1.41.23-.82 0-1.53-.27-1.53-.27-.71-.27-1.24-.79-1.24-.79-.52-.51-.82-1.25-.82-1.25-.29-.74-.29-1.7-.29-1.7zm0 0zm4.93-.79c0-.66-.29-1.08-.29-1.08-.29-.42-.98-.42-.98-.42-.54 0-.95.36-.95.36-.41.36-.53 1.13-.53 1.13h2.76zm5.7 4.6zm1-10.8h2.26v2.65l-.1 1.36c.43-.38 1-.71 1-.71.57-.34 1.35-.34 1.35-.34 1.24 0 1.81.82 1.81.82.56.82.56 2.26.56 2.26v4.74h-2.27v-4.4c0-.84-.22-1.14-.22-1.14-.23-.31-.72-.31-.72-.31-.43 0-.74.19-.74.19-.31.19-.68.54-.68.54v5.16h-2.27V3.31zm7.79 10.8zm2.13-8.76c-.57 0-.94-.33-.94-.33-.37-.33-.37-.86-.37-.86 0-.53.37-.85.37-.85.37-.32.94-.32.94-.32.58 0 .95.32.95.32.36.32.36.84.36.84 0 .52-.36.86-.36.86-.37.33-.95.33-.95.33zm0 0zm-1.13 1.13h2.26v7.64h-2.27V6.46zm3.25 7.64zm2.38.95c0 .43.46.65.46.65.46.23 1.23.23 1.23.23.77 0 1.26-.27 1.26-.27.49-.27.49-.67.49-.67 0-.35-.3-.47-.3-.47-.3-.12-.87-.12-.87-.12h-.79c-.4 0-.65-.02-.65-.02-.25-.03-.43-.07-.43-.07-.42.37-.42.75-.42.75zm0 0zm-1.87.35c0-.92 1.09-1.54 1.09-1.54v-.06c-.31-.2-.51-.51-.51-.51-.2-.31-.2-.78-.2-.78 0-.41.25-.79.25-.79.25-.38.62-.64.62-.64V11c-.4-.28-.72-.79-.72-.79-.32-.52-.32-1.197-.32-1.197 0-.69.26-1.21.26-1.21.26-.513.7-.86.7-.86.44-.35 1.01-.515 1.01-.515.57-.17 1.18-.17 1.18-.17.67 0 1.18.183 1.18.183h2.79V8.1h-1.22c.11.17.18.437.18.437.06.26.06.57.06.57 0 .66-.23 1.145-.23 1.145-.23.48-.64.8-.64.8-.41.315-.95.47-.95.47-.55.15-1.18.15-1.18.15-.45 0-.93-.15-.93-.15-.15.12-.21.24-.21.24-.06.12-.06.325-.06.325 0 .29.26.43.26.43.25.14.9.14.9.14h1.23c1.41 0 2.16.45 2.16.45.74.453.74 1.485.74 1.485 0 .6-.3 1.1-.3 1.1-.3.5-.86.86-.86.86-.56.37-1.34.57-1.34.57-.79.21-1.77.21-1.77.21-.68 0-1.26-.11-1.26-.11-.58-.117-1.02-.348-1.02-.348-.44-.234-.68-.604-.68-.604-.25-.37-.25-.87-.25-.87zm0 0zm3.37-5.1c.45 0 .75-.32.75-.32.3-.32.3-.96.3-.96 0-.6-.3-.92-.3-.92-.3-.32-.75-.32-.75-.32-.45 0-.75.31-.75.31-.3.31-.3.92-.3.92 0 .65.3.96.3.96.3.32.74.32.74.32zm4.33 3.79zm1-10.8h2.26v2.65l-.11 1.37c.43-.39 1-.72 1-.72.57-.33 1.35-.33 1.35-.33 1.25 0 1.81.81 1.81.81.56.81.56 2.26.56 2.26v4.74h-2.26v-4.4c0-.84-.22-1.14-.22-1.14-.22-.31-.71-.31-.71-.31-.43 0-.74.19-.74.19-.3.19-.67.54-.67.54v5.16h-2.26V3.3zm11 10.79zm.6-3.82c0-.94.27-1.68.27-1.68.27-.74.7-1.26.7-1.26.44-.52 1.02-.79 1.02-.79.58-.28 1.18-.28 1.18-.28.63 0 1.11.22 1.11.22.47.22.92.71.92.71h.06l.18-.76h1.77v10.5h-2.26v-2.3l.09-1.17c-.38.37-.89.61-.89.61-.51.24-1.03.24-1.03.24-.71 0-1.28-.28-1.28-.28-.58-.28-.99-.79-.99-.79-.41-.52-.63-1.26-.63-1.26-.22-.74-.22-1.68-.22-1.68zm0 0zm2.32-.03c0 1.14.36 1.66.36 1.66.36.52 1.03.52 1.03.52.37 0 .67-.16.67-.16.3-.16.58-.54.58-.54V8.6c-.31-.28-.63-.387-.63-.387-.32-.11-.63-.11-.63-.11-.54 0-.96.52-.96.52-.42.513-.42 1.61-.42 1.61zm5.89 3.85zm.92-7.64h2.26v4.45c0 .83.23 1.14.23 1.14.23.3.72.3.72.3.44 0 .73-.2.73-.2.29-.2.63-.65.63-.65v-5h2.27v7.64h-1.85l-.17-1.07h-.05c-.49.58-1.05.91-1.05.91-.57.33-1.35.33-1.35.33-1.25 0-1.81-.82-1.81-.82-.56-.814-.56-2.26-.56-2.26V6.46zm7.82 7.64zm.72-2.13c0-1.2 1.02-1.88 1.02-1.88 1.01-.67 3.28-.91 3.28-.91-.03-.51-.31-.81-.31-.81-.28-.3-.89-.3-.89-.3-.5 0-.99.18-.99.18-.49.19-1.05.51-1.05.51l-.8-1.49c.74-.44 1.55-.72 1.55-.72.81-.27 1.72-.27 1.72-.27 1.48 0 2.25.84 2.25.84.78.84.78 2.61.78 2.61v4.37h-1.85l-.17-.79h-.04c-.49.43-1.04.7-1.04.7-.54.27-1.19.27-1.19.27-.53 0-.94-.18-.94-.18-.42-.18-.71-.5-.71-.5-.29-.32-.45-.73-.45-.73-.17-.41-.17-.91-.17-.91zm0 0zm2.16-.17c0 .37.24.55.24.55.24.18.64.18.64.18.4 0 .67-.17.67-.17.28-.17.59-.48.59-.48V10.5c-1.21.17-1.68.496-1.68.496-.46.32-.46.77-.46.77zm5.34 2.3zm1-10.8h2.26v8.52c0 .36.13.5.13.5.13.14.27.14.27.14h.13l.14-.04.28 1.68c-.19.08-.47.13-.47.13-.29.06-.67.06-.67.06-.59 0-.99-.19-.99-.19-.4-.19-.64-.52-.64-.52-.24-.33-.35-.8-.35-.8-.11-.47-.11-1.06-.11-1.06V3.3zm3.41 10.79zm2.13-8.76c-.57 0-.94-.34-.94-.34-.37-.33-.37-.85-.37-.85 0-.52.37-.85.37-.85.37-.32.94-.32.94-.32.59 0 .95.32.95.32.36.32.36.85.36.85 0 .52-.36.85-.36.85-.36.33-.95.33-.95.33zm0 0zm-1.12 1.12h2.27v7.64h-2.28v-7.6zm3.25 7.64zm1.31-5.87h-1.05V6.56l1.17-.09.26-2.034h1.88v2.04h1.83v1.77h-1.83v3.06c0 .65.27.93.27.93.27.29.71.29.71.29.19 0 .38-.047.38-.047.2-.05.35-.11.35-.11l.36 1.65c-.31.09-.73.18-.73.18-.41.09-.97.09-.97.09-.71 0-1.21-.22-1.21-.22-.5-.22-.81-.6-.81-.6-.32-.39-.47-.93-.47-.93-.15-.55-.15-1.21-.15-1.21V8.24zm4.59 5.87zm1.17 1.11c.11.03.25.06.25.06.14.03.26.03.26.03.57 0 .87-.28.87-.28.31-.28.46-.73.46-.73l.11-.4-2.94-7.44h2.28L640 9.7c.17.524.31 1.063.31 1.063.14.54.29 1.11.29 1.11h.07l.26-1.09c.13-.55.27-1.09.27-1.09l.927-3.28h2.17l-2.65 7.71c-.27.72-.57 1.27-.57 1.27-.3.54-.69.9-.69.9-.395.36-.9.543-.9.543-.5.19-1.18.19-1.18.19-.35 0-.6-.04-.6-.04-.24-.04-.47-.117-.47-.117l.4-1.73zm6.85-1.11zm.94-1.24c0-.62.39-1.02.39-1.02.39-.41.98-.41.98-.41.59 0 .98.41.98.41.39.41.39 1.02.39 1.02 0 .6-.39 1.01-.39 1.01-.39.41-.98.41-.98.41-.59 0-.98-.41-.98-.41-.4-.41-.4-1.01-.4-1.01z"/><path fill="none" stroke="#D3D3D3" stroke-miterlimit="10" d="M52.784 738h919.572M52.784 562.25h919.572M52.784 386.5h919.572M52.784 210.75h919.572M52.784 35h919.572" stroke-dasharray="5 5"/><g fill="#5C3566" stroke-opacity="0" stroke-width="0" stroke-miterlimit="10" stroke-linejoin="bevel"><defs><clipPath id="a"><path d="M52.784 35v703h919.572V35z"/></clipPath></defs><g clip-path="url(#a)"><path stroke="none" d="M67.784 738v-2.636h153.914V738z"/></g></g><g fill-opacity="0" stroke-miterlimit="10"><defs><clipPath id="b"><path d="M52.784 35v703h919.572V35z"/></clipPath></defs><g clip-path="url(#b)"><path fill="none" d="M67.784 738v-2.636h153.914V738z"/></g></g><g fill="#5C3566" stroke-opacity="0" stroke-width="0" stroke-miterlimit="10" stroke-linejoin="bevel"><defs><clipPath id="c"><path d="M52.784 35v703h919.572V35z"/></clipPath></defs><g clip-path="url(#c)"><path stroke="none" d="M251.698 738v-38.665h153.915V738z"/></g></g><g fill-opacity="0" stroke-miterlimit="10"><defs><clipPath id="d"><path d="M52.784 35v703h919.572V35z"/></clipPath></defs><g clip-path="url(#d)"><path fill="none" d="M251.698 738v-38.665h153.915V738z"/></g></g><g fill="#5C3566" stroke-opacity="0" stroke-width="0" stroke-miterlimit="10" stroke-linejoin="bevel"><defs><clipPath id="e"><path d="M52.784 35v703h919.572V35z"/></clipPath></defs><g clip-path="url(#e)"><path stroke="none" d="M435.613 738V485.8h153.914V738z"/></g></g><g fill-opacity="0" stroke-miterlimit="10"><defs><clipPath id="f"><path d="M52.784 35v703h919.572V35z"/></clipPath></defs><g clip-path="url(#f)"><path fill="none" d="M435.613 738V485.8h153.914V738z"/></g></g><g fill="#5C3566" stroke-opacity="0" stroke-width="0" stroke-miterlimit="10" stroke-linejoin="bevel"><defs><clipPath id="g"><path d="M52.784 35v703h919.572V35z"/></clipPath></defs><g clip-path="url(#g)"><path stroke="none" d="M619.527 738V166.812h153.915V738z"/></g></g><g fill-opacity="0" stroke-miterlimit="10"><defs><clipPath id="h"><path d="M52.784 35v703h919.572V35z"/></clipPath></defs><g clip-path="url(#h)"><path fill="none" d="M619.527 738V166.812h153.915V738z"/></g></g><g fill="#5C3566" stroke-opacity="0" stroke-width="0" stroke-miterlimit="10" stroke-linejoin="bevel"><defs><clipPath id="i"><path d="M52.784 35v703h919.572V35z"/></clipPath></defs><g clip-path="url(#i)"><path stroke="none" d="M803.442 738V538.524h153.914V738z"/></g></g><g fill-opacity="0" stroke-miterlimit="10"><defs><clipPath id="j"><path d="M52.784 35v703h919.572V35z"/></clipPath></defs><g clip-path="url(#j)"><path fill="none" d="M803.442 738V538.524h153.914V738z"/></g></g><path fill="none" stroke-miterlimit="10" d="M52.784 738V35" stroke-linecap="square"/><path fill="none" stroke-miterlimit="10" d="M52.784 738h2m-2-87.875h2m-2-87.875h2m-2-87.875h2m-2-87.875h2m-2-87.875h2m-2-87.875h2m-2-87.875h2m-2-87.875h2m-2 703h5m-5-175.75h5m-5-175.75h5m-5-175.75h5m-5-175.75h5"/><path stroke="none" d="M38.487 741.445zm2.616.126c-1.02 0-1.586-.9-1.586-.9-.567-.9-.567-2.59-.567-2.59 0-1.69.567-2.57.567-2.57.567-.88 1.586-.88 1.586-.88 1.008 0 1.575.88 1.575.88.568.89.568 2.58.568 2.58 0 1.69-.568 2.6-.568 2.6-.567.91-1.575.91-1.575.91zm0 0zm0-.69c.294 0 .53-.16.53-.16.237-.16.41-.5.41-.5.173-.34.268-.87.268-.87.1-.53.1-1.26.1-1.26 0-.73-.09-1.26-.09-1.26-.09-.52-.26-.85-.26-.85-.17-.33-.41-.49-.41-.49-.23-.16-.53-.16-.53-.16-.29 0-.53.16-.53.16-.24.16-.41.49-.41.49-.17.33-.27.86-.27.86-.09.53-.09 1.26-.09 1.26 0 1.47.36 2.14.36 2.14.37.67.95.67.95.67zM27.963 565.7zm.42-.514c.756-.755 1.344-1.364 1.344-1.364.588-.61.987-1.13.987-1.13.4-.52.61-.956.61-.956.21-.435.21-.845.21-.845 0-.58-.315-.94-.315-.94-.32-.37-.96-.37-.96-.37-.42 0-.78.24-.78.24-.36.24-.65.58-.65.58l-.5-.49c.42-.46.89-.74.89-.74.47-.28 1.13-.28 1.13-.28.93 0 1.47.55 1.47.55.53.54.53 1.43.53 1.43 0 .47-.21.95-.21.95-.21.48-.57.99-.57.99-.36.51-.86 1.06-.86 1.06-.5.55-1.1 1.17-1.1 1.17l.57-.04c.29-.02.55-.02.55-.02h1.95v.75h-4.32v-.51zm4.8.516zm2.615.125c-1.02 0-1.586-.902-1.586-.902-.567-.903-.567-2.595-.567-2.595 0-1.69.567-2.573.567-2.573.567-.882 1.586-.882 1.586-.882 1.01 0 1.576.882 1.576.882.567.882.567 2.574.567 2.574 0 1.69-.56 2.6-.56 2.6-.56.91-1.57.91-1.57.91zm0 0zm0-.692c.294 0 .53-.163.53-.163.237-.163.41-.505.41-.505.174-.34.268-.87.268-.87.095-.53.095-1.266.095-1.266 0-.74-.09-1.26-.09-1.26-.09-.53-.27-.86-.27-.86-.17-.33-.41-.48-.41-.48-.23-.16-.53-.16-.53-.16-.29 0-.53.16-.53.16-.24.16-.41.49-.41.49-.17.33-.27.86-.27.86-.09.53-.09 1.26-.09 1.26 0 1.47.37 2.14.37 2.14.36.67.95.67.95.67zm2.605.567zm2.616.125c-1.02 0-1.59-.902-1.59-.902-.57-.902-.57-2.594-.57-2.594 0-1.69.56-2.57.56-2.57.56-.88 1.58-.88 1.58-.88 1 0 1.57.89 1.57.89.57.88.57 2.58.57 2.58 0 1.69-.57 2.6-.57 2.6-.57.91-1.58.91-1.58.91zm0 0zm0-.692c.29 0 .53-.162.53-.162.23-.16.41-.5.41-.5.17-.34.26-.87.26-.87.09-.53.09-1.267.09-1.267 0-.735-.1-1.26-.1-1.26-.1-.525-.27-.856-.27-.856-.18-.33-.41-.487-.41-.487-.24-.16-.53-.16-.53-.16-.3 0-.54.16-.54.16-.24.155-.42.486-.42.486-.18.33-.27.85-.27.85-.1.52-.1 1.26-.1 1.26 0 1.47.36 2.14.36 2.14.36.67.95.67.95.67zm-13.26-175.19zm3.19-2.54v-1.944c0-.27.01-.64.01-.64.01-.37.03-.64.03-.64h-.04c-.13.24-.27.48-.27.48-.14.24-.29.48-.29.48l-1.57 2.29h2.1zm0 0zm1.73.693h-.92v1.848h-.82v-1.848h-3.01v-.568l2.87-4.287h.96v4.16h.91v.693zm.29 1.848zm2.61.126c-1.02 0-1.59-.9-1.59-.9-.57-.904-.57-2.596-.57-2.596 0-1.69.56-2.573.56-2.573.57-.88 1.59-.88 1.59-.88 1 0 1.57.88 1.57.88.57.883.57 2.575.57 2.575 0 1.69-.57 2.594-.57 2.594-.57.902-1.58.902-1.58.902zm0 0zm0-.69c.29 0 .53-.164.53-.164.23-.162.41-.504.41-.504.17-.34.26-.87.26-.87.09-.53.09-1.266.09-1.266 0-.736-.1-1.26-.1-1.26-.1-.526-.27-.857-.27-.857-.18-.33-.41-.49-.41-.49-.24-.16-.53-.16-.53-.16-.3 0-.54.16-.54.16-.24.16-.42.49-.42.49-.18.33-.27.86-.27.86-.1.53-.1 1.26-.1 1.26 0 1.47.36 2.14.36 2.14.36.67.95.67.95.67zm2.6.566zm2.61.126c-1.02 0-1.59-.902-1.59-.902-.57-.903-.57-2.595-.57-2.595 0-1.69.56-2.573.56-2.573.57-.882 1.58-.882 1.58-.882 1.01 0 1.57.882 1.57.882.56.882.56 2.574.56 2.574 0 1.69-.57 2.594-.57 2.594-.57.903-1.58.903-1.58.903zm0 0zm0-.692c.29 0 .53-.163.53-.163.23-.17.41-.51.41-.51.17-.34.26-.87.26-.87.09-.53.09-1.27.09-1.27 0-.74-.1-1.26-.1-1.26-.1-.53-.27-.86-.27-.86-.17-.33-.41-.49-.41-.49-.24-.16-.53-.16-.53-.16-.3 0-.54.16-.54.16-.24.15-.42.49-.42.49-.18.33-.27.85-.27.85-.09.52-.09 1.26-.09 1.26 0 1.47.37 2.14.37 2.14.36.67.95.67.95.67zM28.08 214.197zm2.817-.556c.25 0 .46-.1.46-.1.21-.1.368-.3.368-.3.16-.19.247-.46.247-.46.09-.26.09-.6.09-.6 0-.66-.305-1.04-.305-1.04-.305-.38-.935-.38-.935-.38-.315 0-.688.21-.688.21-.374.21-.71.68-.71.68.084.99.457 1.5.457 1.5.38.51 1.02.51 1.02.51zm0 0zm1.374-5.02c-.21-.24-.5-.38-.5-.38-.29-.14-.6-.14-.6-.14-.34 0-.66.15-.66.15-.31.15-.55.48-.55.48-.24.34-.39.88-.39.88-.14.54-.15 1.34-.15 1.34.32-.39.74-.61.74-.61.42-.22.83-.22.83-.22.88 0 1.4.52 1.4.52.52.52.52 1.56.52 1.56 0 .49-.16.88-.16.88-.16.4-.43.68-.43.68-.27.29-.63.44-.63.44-.36.16-.77.16-.77.16-.49 0-.91-.2-.91-.2-.42-.2-.73-.6-.73-.6-.31-.4-.49-1.01-.49-1.01-.18-.6-.18-1.41-.18-1.41 0-1.01.21-1.72.21-1.72.21-.71.57-1.15.57-1.15.36-.45.82-.65.82-.65.46-.21.96-.21.96-.21.55 0 .94.21.94.21.4.21.68.51.68.51zm1.03 5.58zm2.62.13c-1.02 0-1.58-.9-1.58-.9-.56-.9-.56-2.59-.56-2.59 0-1.69.57-2.57.57-2.57.57-.88 1.59-.88 1.59-.88 1.01 0 1.58.88 1.58.88.57.89.57 2.58.57 2.58 0 1.69-.56 2.6-.56 2.6-.57.9-1.57.9-1.57.9zm0 0zm0-.69c.3 0 .53-.16.53-.16.24-.16.41-.5.41-.5.18-.34.27-.87.27-.87.1-.53.1-1.26.1-1.26 0-.73-.09-1.26-.09-1.26-.09-.52-.26-.85-.26-.85-.17-.33-.41-.48-.41-.48-.23-.16-.53-.16-.53-.16-.29 0-.53.16-.53.16-.24.16-.41.49-.41.49-.17.33-.26.86-.26.86-.09.53-.09 1.26-.09 1.26 0 1.47.37 2.14.37 2.14.37.67.95.67.95.67zm2.61.57zm2.62.13c-1.02 0-1.58-.9-1.58-.9-.57-.9-.57-2.59-.57-2.59 0-1.69.57-2.57.57-2.57.57-.88 1.59-.88 1.59-.88 1.01 0 1.58.88 1.58.88.57.89.57 2.58.57 2.58 0 1.69-.56 2.6-.56 2.6-.56.9-1.57.9-1.57.9zm0 0zm0-.69c.3 0 .53-.16.53-.16.24-.16.41-.5.41-.5.17-.34.27-.87.27-.87.1-.53.1-1.26.1-1.26 0-.73-.09-1.26-.09-1.26-.09-.52-.26-.85-.26-.85-.17-.33-.41-.49-.41-.49-.23-.16-.53-.16-.53-.16-.29 0-.53.16-.53.16-.24.16-.41.49-.41.49-.17.33-.27.86-.27.86-.09.53-.09 1.26-.09 1.26 0 1.47.36 2.14.36 2.14.36.67.95.67.95.67zM28.02 38.45zm1.206-1.8c0 .288.11.52.11.52.11.23.31.41.31.41.198.172.46.266.46.266.264.1.57.1.57.1.59 0 .95-.32.95-.32.365-.324.365-.85.365-.85 0-.324-.14-.555-.14-.555-.14-.23-.4-.4-.4-.4-.25-.17-.58-.31-.58-.31-.33-.14-.69-.29-.69-.29-.4.28-.66.64-.66.64-.27.37-.27.83-.27.83zm0 0zm1.89-1.86c.34-.3.52-.64.52-.64.19-.332.19-.7.19-.7 0-.504-.3-.845-.3-.845-.305-.343-.86-.343-.86-.343-.47 0-.775.294-.775.294-.3.297-.3.79-.3.79 0 .305.13.52.13.52.13.216.35.384.35.384.22.17.49.3.49.3.28.13.59.25.59.25zm0 0zm-2.66 1.948c0-.325.11-.604.11-.604.11-.28.285-.51.285-.51.17-.22.4-.4.4-.4.23-.17.47-.3.47-.3v-.04c-.36-.26-.65-.63-.65-.63-.28-.38-.28-.91-.28-.91 0-.39.15-.71.15-.71.15-.315.4-.54.4-.54.25-.226.6-.35.6-.35.35-.127.76-.127.76-.127.44 0 .79.13.79.13.35.13.59.367.59.367.25.235.38.566.38.566.13.33.13.72.13.72 0 .262-.09.503-.09.503-.09.24-.22.45-.22.45-.13.21-.29.38-.29.38-.16.166-.32.28-.32.28v.045c.22.124.43.29.43.29.21.16.37.364.37.364.17.203.27.466.27.466.1.26.1.597.1.597 0 .38-.16.706-.16.706-.15.33-.44.57-.44.57-.28.25-.68.38-.68.38-.4.14-.88.14-.88.14-.47 0-.87-.13-.87-.13-.4-.13-.69-.38-.69-.38-.29-.24-.45-.58-.45-.58-.16-.33-.16-.73-.16-.73zm4.79 1.712zm2.617.125c-1.015 0-1.582-.9-1.582-.9-.56-.9-.56-2.59-.56-2.59 0-1.69.57-2.57.57-2.57.57-.88 1.59-.88 1.59-.88 1.01 0 1.58.88 1.58.88.56.88.56 2.578.56 2.578 0 1.694-.57 2.597-.57 2.597-.57.9-1.58.9-1.58.9zm0 0zm0-.69c.298 0 .53-.16.53-.16.24-.16.41-.5.41-.5.177-.34.27-.87.27-.87.096-.53.096-1.27.096-1.27 0-.733-.1-1.26-.1-1.26-.09-.523-.27-.854-.27-.854-.17-.33-.41-.49-.41-.49-.23-.16-.53-.16-.53-.16-.29 0-.53.16-.53.16-.25.16-.42.49-.42.49-.17.33-.27.86-.27.86-.1.53-.1 1.26-.1 1.26 0 1.47.36 2.14.36 2.14.36.67.95.67.95.67zm2.61.57zm2.614.13c-1.02 0-1.585-.9-1.585-.9-.57-.91-.57-2.6-.57-2.6 0-1.69.57-2.57.57-2.57.564-.88 1.583-.88 1.583-.88 1.01 0 1.58.88 1.58.88.57.88.57 2.572.57 2.572 0 1.69-.566 2.595-.566 2.595-.57.9-1.58.9-1.58.9zm0 0zm0-.69c.295 0 .53-.17.53-.17.237-.16.41-.5.41-.5.174-.34.27-.87.27-.87.093-.53.093-1.265.093-1.265 0-.736-.09-1.26-.09-1.26-.095-.526-.268-.857-.268-.857-.176-.33-.41-.49-.41-.49-.238-.16-.53-.16-.53-.16-.297 0-.538.16-.538.16-.244.157-.417.488-.417.488-.173.33-.267.86-.267.86-.094.53-.094 1.26-.094 1.26 0 1.47.362 2.14.362 2.14.362.67.95.67.95.67z"/><path fill="none" stroke-miterlimit="10" d="M52.784 738h919.572" stroke-linecap="square"/><path stroke="none" d="M101.957 758zm.967-1.502c.367.39.866.625.866.625.5.236 1.035.236 1.035.236.683 0 1.06-.31 1.06-.31.38-.31.38-.82.38-.82 0-.26-.09-.45-.09-.45-.09-.19-.242-.32-.242-.32-.152-.13-.362-.24-.362-.24-.21-.11-.45-.22-.45-.22l-.98-.43c-.24-.11-.49-.26-.49-.26-.25-.15-.45-.36-.45-.36-.2-.21-.32-.5-.32-.5-.12-.29-.12-.67-.12-.67 0-.39.17-.73.17-.73.16-.34.45-.59.45-.59.29-.25.69-.39.69-.39.39-.14.87-.14.87-.14.62 0 1.15.23 1.15.23.52.24.89.61.89.61l-.47.56c-.32-.31-.7-.48-.7-.48-.38-.17-.87-.17-.87-.17-.58 0-.93.26-.93.26-.35.27-.35.74-.35.74 0 .25.1.42.1.42.1.17.27.3.27.3.17.14.37.23.37.23.2.1.41.19.41.19l.98.42c.29.13.56.29.56.29.26.16.45.38.45.38.19.21.3.5.3.5.11.29.11.66.11.66 0 .41-.16.76-.16.76-.16.35-.46.62-.46.62-.31.26-.74.42-.74.42-.43.15-.97.15-.97.15-.73 0-1.35-.27-1.35-.27-.62-.27-1.07-.75-1.07-.75zm4.642 1.502zm1.01-4.4h-.757v-.653l.79-.052.1-1.43h.72v1.43h1.37v.704h-1.38v2.83c0 .47.17.73.17.73.17.25.61.25.61.25.13 0 .29-.04.29-.04.15-.05.28-.1.28-.1l.16.65c-.21.07-.46.13-.46.13-.25.05-.49.05-.49.05-.41 0-.69-.13-.69-.13-.28-.13-.45-.35-.45-.35-.17-.22-.25-.54-.25-.54-.08-.32-.08-.7-.08-.7v-2.82zm2.54 4.4zm.862-5.105h.715l.073.924h.032c.262-.49.635-.77.635-.77.373-.29.814-.29.814-.29.305 0 .546.1.546.1l-.168.75c-.126-.04-.23-.07-.23-.07-.106-.02-.263-.02-.263-.02-.326 0-.678.26-.678.26-.352.26-.614.91-.614.91v3.3h-.862v-5.11zm2.68 5.105zm.482-2.542c0-.64.194-1.14.194-1.14.195-.5.52-.845.52-.845.326-.347.75-.525.75-.525.427-.18.9-.18.9-.18.472 0 .898.18.898.18.425.178.75.525.75.525.326.346.52.845.52.845.195.5.195 1.14.195 1.14 0 .63-.194 1.13-.194 1.13-.195.498-.52.84-.52.84-.326.34-.75.52-.75.52-.427.178-.9.178-.9.178-.472 0-.898-.18-.898-.18-.425-.177-.75-.52-.75-.52-.326-.34-.52-.84-.52-.84-.195-.498-.195-1.128-.195-1.128zm0 0zm.893 0c0 .44.105.798.105.798.105.357.3.615.3.615.194.26.467.4.467.4.273.15.598.15.598.15.326 0 .6-.14.6-.14.272-.14.466-.4.466-.4.19-.25.3-.61.3-.61.1-.35.1-.8.1-.8 0-.44-.11-.8-.11-.8-.11-.36-.3-.62-.3-.62-.2-.26-.47-.4-.47-.4-.28-.14-.6-.14-.6-.14-.33 0-.6.14-.6.14-.28.14-.47.41-.47.41-.2.26-.3.63-.3.63-.11.37-.11.81-.11.81zM120.35 758zm.86-5.105h.716l.073.735h.03c.36-.367.77-.614.77-.614.4-.247.94-.247.94-.247.81 0 1.18.5 1.18.5.37.5.37 1.49.37 1.49V758h-.86v-3.12c0-.724-.23-1.045-.23-1.045-.23-.32-.74-.32-.74-.32-.4 0-.71.2-.71.2-.31.2-.69.588-.69.588V758h-.87v-5.105zm4.886 5.105zm1.23.86c0 .41.393.653.393.653.39.24 1.08.24 1.08.24.37 0 .66-.088.66-.088.3-.09.51-.23.51-.23.21-.143.32-.332.32-.332.11-.19.11-.39.11-.39 0-.356-.27-.492-.27-.492-.27-.13-.77-.13-.77-.13h-.89c-.15 0-.32-.01-.32-.01-.18-.01-.34-.07-.34-.07-.28.2-.4.42-.4.42-.13.22-.13.44-.13.44zm0 0zm-.757.117c0-.326.19-.62.19-.62.2-.294.54-.535.54-.535v-.042c-.19-.116-.32-.32-.32-.32-.13-.206-.13-.51-.13-.51 0-.326.17-.568.17-.568.18-.24.38-.378.38-.378v-.042c-.26-.21-.46-.562-.46-.562-.21-.352-.21-.814-.21-.814 0-.42.15-.756.15-.756.15-.336.41-.573.41-.573.26-.236.62-.362.62-.362.35-.126.74-.126.74-.126.21 0 .39.03.39.03.18.03.33.09.33.09h1.77v.66h-1.05c.17.18.3.45.3.45.12.27.12.6.12.6 0 .41-.15.74-.15.74-.15.33-.4.55-.4.55-.25.22-.6.35-.6.35-.34.12-.73.12-.73.12-.19 0-.39-.05-.39-.05-.2-.05-.38-.13-.38-.13-.14.11-.23.25-.23.25-.1.14-.1.35-.1.35 0 .24.19.4.19.4.19.16.71.16.71.16h.99c.89 0 1.34.29 1.34.29.44.28.44.92.44.92 0 .35-.18.67-.18.67-.18.32-.52.56-.52.56-.33.24-.81.38-.81.38-.48.14-1.08.14-1.08.14-.48 0-.86-.09-.86-.09-.39-.09-.67-.27-.67-.27-.28-.18-.43-.43-.43-.43-.16-.25-.16-.59-.16-.59zm0 0zm2.11-3.172c.22 0 .41-.084.41-.084.19-.08.34-.24.34-.24.15-.16.23-.38.23-.38.08-.22.08-.51.08-.51 0-.56-.32-.87-.32-.87-.32-.31-.77-.31-.77-.31-.46 0-.77.31-.77.31-.32.31-.32.88-.32.88 0 .29.08.51.08.51.08.23.23.39.23.39.15.16.34.24.34.24.19.09.41.09.41.09zm2.71 2.195zm.86-7.48h.86v6.514c0 .21.07.294.07.294.07.084.17.084.17.084h.08l.11-.02.11.65c-.09.042-.2.063-.2.063-.12.02-.3.02-.3.02-.49 0-.71-.293-.71-.293-.21-.294-.21-.86-.21-.86v-6.45zm1.82 7.48zm.51 1.408l.19.047.2.026c.44 0 .72-.31.72-.31.28-.31.43-.78.43-.78l.11-.38-2.05-5.11h.89l1.04 2.83c.11.34.24.71.24.71.13.37.24.73.24.73h.04c.11-.34.22-.72.22-.72.1-.38.21-.71.21-.71l.91-2.82h.84l-1.93 5.53c-.14.38-.31.7-.31.7-.17.33-.4.56-.4.56-.23.24-.53.38-.53.38-.3.14-.69.14-.69.14-.18 0-.33-.02-.33-.02-.15-.02-.28-.08-.28-.08l.17-.68zm6.51-1.408zm.49-2.542c0-.62.18-1.12.18-1.12.18-.498.49-.844.49-.844.3-.347.7-.536.7-.536.4-.19.84-.19.84-.19.44 0 .76.158.76.158.32.158.66.43.66.43l-.04-.87v-1.965h.87V758h-.72l-.08-.6h-.04c-.31.295-.7.51-.7.51-.39.216-.85.216-.85.216-.97 0-1.54-.693-1.54-.693-.58-.693-.58-1.975-.58-1.975zm0 0zm.89-.01c0 .924.37 1.44.37 1.44.36.513 1.04.513 1.04.513.35 0 .67-.17.67-.17.31-.17.63-.53.63-.53v-2.67c-.33-.29-.63-.41-.63-.41-.3-.12-.62-.12-.62-.12-.31 0-.58.14-.58.14-.27.15-.47.4-.47.4-.2.26-.32.62-.32.62-.12.36-.12.8-.12.8zm4.45 2.552zm1.3-6.155c-.25 0-.43-.158-.43-.158-.18-.158-.18-.4-.18-.4 0-.25.17-.404.17-.404.17-.152.42-.152.42-.152.25 0 .42.16.42.16.17.16.17.41.17.41 0 .24-.18.4-.18.4-.18.16-.43.16-.43.16zm0 0zm-.44 1.05h.86V758h-.86v-5.105zm1.73 5.105zm.72-1.155c.33.273.69.44.69.44.35.17.81.17.81.17.5 0 .75-.232.75-.232.25-.23.25-.567.25-.567 0-.2-.11-.347-.11-.347-.11-.15-.27-.26-.27-.26-.17-.11-.38-.2-.38-.2l-.42-.17c-.28-.1-.55-.22-.55-.22-.28-.12-.49-.3-.49-.3-.22-.18-.35-.41-.35-.41-.14-.23-.14-.56-.14-.56 0-.31.12-.58.12-.58.12-.27.34-.46.34-.46.23-.19.55-.31.55-.31.32-.11.73-.11.73-.11.48 0 .88.17.88.17.4.16.7.41.7.41l-.41.54c-.26-.2-.55-.33-.55-.33-.29-.13-.62-.13-.62-.13-.49 0-.71.22-.71.22-.23.22-.23.51-.23.51 0 .18.09.31.09.31.09.13.25.23.25.23.15.1.36.18.36.18l.42.16c.27.1.55.22.55.22.28.11.5.29.5.29.22.17.36.42.36.42.15.25.15.61.15.61 0 .31-.12.59-.12.59-.12.27-.36.48-.36.48-.24.21-.59.33-.59.33-.36.12-.81.12-.81.12-.55 0-1.04-.2-1.04-.2-.49-.2-.86-.51-.86-.51zm3.68 1.155zm.61-1.323c0-.84.75-1.287.75-1.287.75-.447 2.39-.625 2.39-.625 0-.242-.05-.473-.05-.473-.05-.23-.17-.41-.17-.41-.12-.178-.32-.29-.32-.29-.2-.11-.52-.11-.52-.11-.45 0-.83.17-.83.17-.38.167-.69.377-.69.377l-.34-.6c.36-.23.87-.45.87-.45.51-.22 1.13-.22 1.13-.22.93 0 1.35.57 1.35.57.42.57.42 1.53.42 1.53V758h-.71l-.08-.61h-.02c-.37.306-.8.52-.8.52-.43.216-.9.216-.9.216-.65 0-1.08-.378-1.08-.378-.43-.378-.43-1.07-.43-1.07zm0 0zm.85-.064c0 .442.26.63.26.63.25.19.63.19.63.19.37 0 .7-.173.7-.173.33-.174.69-.51.69-.51v-1.418c-.64.084-1.08.2-1.08.2-.44.115-.71.273-.71.273-.26.157-.38.362-.38.362-.11.205-.11.446-.11.446zm3.92 1.387zm1.22.86c0 .41.39.653.39.653.39.24 1.08.24 1.08.24.36 0 .66-.088.66-.088.3-.09.51-.23.51-.23.21-.143.32-.332.32-.332.11-.19.11-.39.11-.39 0-.356-.26-.492-.26-.492-.26-.13-.77-.13-.77-.13h-.89c-.15 0-.32-.01-.32-.01-.18-.01-.34-.07-.34-.07-.28.2-.4.42-.4.42-.13.22-.13.44-.13.44zm0 0zm-.76.117c0-.326.2-.62.2-.62.2-.294.54-.535.54-.535v-.042c-.19-.116-.32-.32-.32-.32-.13-.206-.13-.51-.13-.51 0-.326.18-.568.18-.568.17-.24.37-.378.37-.378v-.042c-.25-.21-.46-.562-.46-.562-.21-.352-.21-.814-.21-.814 0-.42.16-.756.16-.756.16-.336.42-.573.42-.573.26-.236.61-.362.61-.362.35-.126.74-.126.74-.126.21 0 .39.03.39.03.18.03.33.09.33.09h1.78v.66h-1.05c.17.18.3.45.3.45.12.27.12.6.12.6 0 .41-.15.74-.15.74-.15.33-.4.55-.4.55-.25.22-.59.35-.59.35-.34.12-.73.12-.73.12-.19 0-.39-.05-.39-.05-.2-.05-.38-.13-.38-.13-.14.11-.23.25-.23.25-.1.14-.1.35-.1.35 0 .24.19.4.19.4.19.16.71.16.71.16h.98c.89 0 1.34.29 1.34.29.45.28.45.92.45.92 0 .35-.18.67-.18.67-.18.32-.52.56-.52.56-.34.24-.81.38-.81.38-.48.14-1.07.14-1.07.14-.47 0-.86-.09-.86-.09-.39-.09-.67-.27-.67-.27-.28-.18-.43-.43-.43-.43-.16-.25-.16-.59-.16-.59zm0 0zm2.11-3.172c.22 0 .41-.084.41-.084.19-.08.34-.24.34-.24.15-.16.23-.38.23-.38.09-.22.09-.51.09-.51 0-.56-.31-.87-.31-.87-.31-.31-.77-.31-.77-.31-.45 0-.77.31-.77.31-.32.31-.32.88-.32.88 0 .29.09.51.09.51.08.23.23.39.23.39.15.16.34.24.34.24.2.09.42.09.42.09zm2.71 2.195zm.86-5.105h.71l.07.924h.03c.26-.49.63-.77.63-.77.37-.29.81-.29.81-.29.3 0 .54.1.54.1l-.17.75-.24-.07c-.11-.02-.26-.02-.26-.02-.33 0-.68.26-.68.26-.35.26-.62.91-.62.91v3.3h-.86v-5.11zm2.68 5.105zm.48-2.542c0-.63.19-1.13.19-1.13.2-.498.52-.845.52-.845.32-.346.73-.53.73-.53.41-.184.85-.184.85-.184.49 0 .87.16.87.16.39.17.64.48.64.48.26.31.4.75.4.75.13.44.13.98.13.98 0 .28-.03.47-.03.47h-3.45c.05.83.51 1.31.51 1.31.46.48 1.19.48 1.19.48.37 0 .68-.11.68-.11.31-.11.59-.29.59-.29l.3.56c-.34.21-.74.37-.74.37-.41.16-.94.16-.94.16-.51 0-.96-.19-.96-.19-.45-.19-.78-.53-.78-.53-.33-.34-.52-.84-.52-.84-.19-.5-.19-1.13-.19-1.13zm0 0zm3.57-.39c0-.786-.33-1.2-.33-1.2-.34-.416-.93-.416-.93-.416-.28 0-.52.11-.52.11-.25.11-.45.315-.45.315-.2.205-.33.504-.33.504-.13.3-.17.69-.17.69h2.73zm1.16 2.932zm.48-2.542c0-.63.19-1.13.19-1.13.2-.498.52-.845.52-.845.32-.346.73-.53.73-.53.41-.184.85-.184.85-.184.49 0 .87.16.87.16.39.17.64.48.64.48.26.31.4.75.4.75.13.44.13.98.13.98 0 .28-.03.47-.03.47h-3.45c.05.83.51 1.31.51 1.31.46.48 1.19.48 1.19.48.37 0 .68-.11.68-.11.31-.11.59-.29.59-.29l.3.56c-.34.21-.75.37-.75.37-.41.16-.94.16-.94.16-.52 0-.96-.19-.96-.19-.45-.19-.78-.53-.78-.53-.33-.34-.52-.84-.52-.84-.19-.5-.19-1.13-.19-1.13zm0 0zm3.57-.39c0-.786-.33-1.2-.33-1.2-.34-.416-.93-.416-.93-.416-.28 0-.52.11-.52.11-.25.11-.45.315-.45.315-.2.205-.33.504-.33.504-.13.3-.17.69-.17.69h2.73zm1.16 2.932zm.68-4.317c0-.305.18-.49.18-.49.18-.182.44-.182.44-.182.25 0 .43.19.43.19.18.19.18.49.18.49 0 .28-.18.47-.18.47-.18.19-.44.19-.44.19-.26 0-.45-.18-.45-.18-.19-.18-.19-.46-.19-.46zm0 0zm0 3.792c0-.305.18-.49.18-.49.18-.182.44-.182.44-.182.25 0 .43.183.43.183.18.184.18.49.18.49 0 .282-.18.466-.18.466-.18.184-.44.184-.44.184-.26 0-.45-.184-.45-.184-.19-.184-.19-.467-.19-.467zm4.05.525zm.72-1.387c.31.315.71.557.71.557.41.242 1 .242 1 .242.61 0 1-.33 1-.33.39-.332.39-.9.39-.9 0-.293-.11-.54-.11-.54-.11-.247-.36-.426-.36-.426-.25-.178-.66-.273-.66-.273-.41-.094-1.01-.094-1.01-.094v-.67c.54 0 .9-.1.9-.1.36-.1.59-.26.59-.26.22-.17.32-.4.32-.4.09-.23.09-.5.09-.5 0-.5-.31-.78-.31-.78-.31-.29-.85-.29-.85-.29-.42 0-.78.19-.78.19-.36.18-.66.49-.66.49l-.46-.55c.39-.37.85-.61.85-.61.47-.24 1.06-.24 1.06-.24.44 0 .81.11.81.11.36.11.63.33.63.33.27.21.42.53.42.53.15.31.15.72.15.72 0 .61-.34 1-.34 1-.33.39-.88.6-.88.6v.04c.31.07.57.21.57.21.26.14.46.35.46.35.2.21.31.5.31.5.11.28.11.63.11.63 0 .44-.18.79-.18.79-.18.35-.47.6-.47.6-.3.25-.7.38-.7.38-.4.13-.86.13-.86.13-.4 0-.73-.08-.73-.08-.33-.08-.61-.21-.61-.21-.28-.13-.49-.3-.49-.3-.22-.17-.38-.36-.38-.36zM302.65 758zm.944-6.89h1.724c1.597 0 2.426.882 2.426.882.83.882.83 2.53.83 2.53 0 .82-.21 1.466-.21 1.466-.21.646-.62 1.093-.62 1.093-.404.45-1.003.69-1.003.69-.6.24-1.37.24-1.37.24h-1.77v-6.89zm0 0zm1.66 6.176c1.21 0 1.813-.725 1.813-.725.604-.72.604-2.03.604-2.03 0-1.31-.6-2-.6-2-.6-.69-1.81-.69-1.81-.69h-.78v5.46h.79zm3.856.714zm1.303-6.155c-.253 0-.426-.158-.426-.158-.173-.158-.173-.4-.173-.4 0-.25.18-.404.18-.404.173-.152.425-.152.425-.152.25 0 .42.16.42.16.17.16.17.41.17.41 0 .24-.18.4-.18.4-.18.16-.43.16-.43.16zm0 0zm-.442 1.05h.87V758h-.86v-5.105zm1.72 5.105zm.73-1.155c.34.273.69.44.69.44.35.17.82.17.82.17.51 0 .76-.232.76-.232.25-.23.25-.567.25-.567 0-.2-.1-.347-.1-.347-.1-.15-.26-.26-.26-.26-.16-.11-.37-.2-.37-.2l-.42-.17c-.27-.1-.54-.22-.54-.22-.27-.12-.49-.3-.49-.3-.21-.18-.35-.41-.35-.41-.14-.23-.14-.56-.14-.56 0-.31.12-.58.12-.58.12-.27.35-.46.35-.46.23-.19.55-.31.55-.31.33-.11.74-.11.74-.11.49 0 .89.17.89.17.41.16.7.41.7.41l-.41.54c-.26-.2-.54-.33-.54-.33-.28-.13-.62-.13-.62-.13-.48 0-.71.22-.71.22-.22.22-.22.51-.22.51 0 .18.1.31.1.31.1.13.25.23.25.23.16.1.36.18.36.18l.43.16c.27.1.55.22.55.22.28.11.5.29.5.29.22.17.36.42.36.42.14.25.14.61.14.61 0 .31-.12.59-.12.59-.12.27-.36.48-.36.48-.24.21-.59.33-.59.33-.35.12-.8.12-.8.12-.55 0-1.04-.2-1.04-.2-.49-.2-.86-.51-.86-.51zM316.1 758zm.61-1.323c0-.84.75-1.287.75-1.287.752-.447 2.39-.625 2.39-.625 0-.242-.047-.473-.047-.473-.047-.23-.17-.41-.17-.41-.12-.178-.32-.29-.32-.29-.2-.11-.514-.11-.514-.11-.46 0-.84.17-.84.17-.39.167-.69.377-.69.377l-.35-.6c.35-.23.87-.45.87-.45.51-.22 1.13-.22 1.13-.22.93 0 1.35.57 1.35.57.42.57.42 1.53.42 1.53V758h-.72l-.07-.61h-.02c-.37.306-.8.52-.8.52-.43.216-.9.216-.9.216-.65 0-1.08-.378-1.08-.378-.43-.378-.43-1.07-.43-1.07zm0 0zm.85-.064c0 .442.258.63.258.63.258.19.636.19.636.19.368 0 .7-.173.7-.173.33-.174.697-.51.697-.51v-1.418c-.64.084-1.08.2-1.08.2-.44.115-.71.273-.71.273-.26.157-.38.362-.38.362-.11.205-.11.446-.11.446zm3.91 1.387zm1.23.86c0 .41.393.653.393.653.394.24 1.088.24 1.088.24.37 0 .67-.088.67-.088.3-.09.51-.23.51-.23.21-.143.33-.332.33-.332.12-.19.12-.39.12-.39 0-.356-.26-.492-.26-.492-.26-.13-.76-.13-.76-.13h-.88c-.14 0-.32-.01-.32-.01-.17-.01-.34-.07-.34-.07-.27.2-.4.42-.4.42-.12.22-.12.44-.12.44zm0 0zm-.757.117c0-.326.2-.62.2-.62.2-.294.546-.535.546-.535v-.042c-.19-.116-.32-.32-.32-.32-.14-.206-.14-.51-.14-.51 0-.326.18-.568.18-.568.17-.24.37-.378.37-.378v-.042c-.25-.21-.46-.562-.46-.562-.21-.352-.21-.814-.21-.814 0-.42.15-.756.15-.756.15-.336.41-.573.41-.573.26-.236.61-.362.61-.362.35-.126.74-.126.74-.126.21 0 .39.03.39.03.18.03.33.09.33.09h1.77v.66h-1.05c.17.18.3.45.3.45.12.27.12.6.12.6 0 .41-.15.74-.15.74-.15.33-.4.55-.4.55-.25.22-.59.35-.59.35-.35.12-.73.12-.73.12-.19 0-.39-.05-.39-.05-.2-.05-.38-.13-.38-.13-.14.11-.23.25-.23.25-.1.14-.1.35-.1.35 0 .24.19.4.19.4.19.16.71.16.71.16h.99c.89 0 1.34.29 1.34.29.45.28.45.92.45.92 0 .35-.18.67-.18.67-.18.32-.52.56-.52.56-.34.24-.82.38-.82.38-.48.14-1.08.14-1.08.14-.48 0-.86-.09-.86-.09-.39-.09-.67-.27-.67-.27-.28-.18-.43-.43-.43-.43-.15-.25-.15-.59-.15-.59zm0 0zm2.112-3.172c.22 0 .414-.084.414-.084.19-.08.34-.24.34-.24.15-.16.23-.38.23-.38.08-.22.08-.51.08-.51 0-.56-.32-.87-.32-.87-.32-.31-.77-.31-.77-.31-.45 0-.77.31-.77.31-.32.31-.32.88-.32.88 0 .29.08.51.08.51.08.23.23.39.23.39.15.16.34.24.34.24.19.09.41.09.41.09zm2.71 2.195zm.86-5.105h.715l.074.924h.03c.264-.49.637-.77.637-.77.38-.29.82-.29.82-.29.31 0 .55.1.55.1l-.16.75c-.12-.04-.23-.07-.23-.07-.1-.02-.26-.02-.26-.02-.32 0-.67.26-.67.26-.35.26-.61.91-.61.91v3.3h-.86v-5.11zm2.68 5.105zm.483-2.542c0-.63.194-1.13.194-1.13.194-.498.515-.845.515-.845.32-.346.73-.53.73-.53.41-.184.85-.184.85-.184.484 0 .867.16.867.16.383.17.64.48.64.48.258.31.395.75.395.75.13.44.13.98.13.98 0 .28-.03.47-.03.47h-3.45c.05.83.51 1.31.51 1.31.45.48 1.19.48 1.19.48.36 0 .67-.11.67-.11.31-.11.59-.29.59-.29l.3.56c-.34.21-.75.37-.75.37-.41.16-.94.16-.94.16-.52 0-.96-.19-.96-.19-.45-.19-.78-.53-.78-.53-.33-.34-.52-.84-.52-.84-.19-.5-.19-1.13-.19-1.13zm0 0zm3.57-.39c0-.786-.33-1.2-.33-1.2-.33-.416-.93-.416-.93-.416-.272 0-.52.11-.52.11-.246.11-.446.315-.446.315-.2.205-.33.504-.33.504-.132.3-.174.69-.174.69h2.73zm1.157 2.932zm.483-2.542c0-.63.194-1.13.194-1.13.194-.498.515-.845.515-.845.32-.346.73-.53.73-.53.41-.184.85-.184.85-.184.484 0 .867.16.867.16.384.17.64.48.64.48.258.31.395.75.395.75.13.44.13.98.13.98 0 .28-.03.47-.03.47h-3.45c.05.83.51 1.31.51 1.31.45.48 1.19.48 1.19.48.37 0 .68-.11.68-.11.31-.11.59-.29.59-.29l.3.56c-.34.21-.75.37-.75.37-.41.16-.94.16-.94.16-.52 0-.96-.19-.96-.19-.45-.19-.78-.53-.78-.53-.33-.34-.52-.84-.52-.84-.19-.5-.19-1.13-.19-1.13zm0 0zm3.57-.39c0-.786-.33-1.2-.33-1.2-.33-.416-.93-.416-.93-.416-.272 0-.52.11-.52.11-.246.11-.446.315-.446.315-.2.205-.33.504-.33.504-.132.3-.174.69-.174.69h2.73zm1.157 2.932zm.683-4.317c0-.305.183-.49.183-.49.19-.182.45-.182.45-.182.25 0 .44.19.44.19.19.19.19.49.19.49 0 .28-.18.47-.18.47-.18.19-.43.19-.43.19-.26 0-.44-.18-.44-.18-.18-.18-.18-.46-.18-.46zm0 0zm0 3.792c0-.305.183-.49.183-.49.19-.182.45-.182.45-.182.25 0 .44.183.44.183.19.184.19.49.19.49 0 .282-.18.466-.18.466-.18.184-.43.184-.43.184-.26 0-.44-.184-.44-.184-.18-.184-.18-.467-.18-.467zm4.054.525zm3.193-2.542v-1.943c0-.273.016-.646.016-.646.02-.38.04-.65.04-.65h-.04c-.12.24-.26.47-.26.47-.13.23-.28.47-.28.47l-1.56 2.29h2.1zm0 0zm1.734.693h-.92V758h-.82v-1.85h-3.02v-.566l2.86-4.286h.96v4.16h.91v.693zm.29 1.85zm3.19-2.54v-1.94c0-.27.01-.64.01-.64.01-.37.03-.64.03-.64h-.05c-.13.24-.27.47-.27.47l-.29.48-1.57 2.29h2.1zm0 0zm1.73.7h-.92V758h-.82v-1.85h-3.02v-.566l2.87-4.286h.96v4.16h.91v.693zM486.71 758zm.944-6.89h.903l2.49 4.327.746 1.43h.042c-.032-.527-.07-1.09-.07-1.09-.036-.56-.036-1.107-.036-1.107v-3.56h.83V758h-.91l-2.5-4.338-.75-1.418h-.05l.08 1.066c.03.54.03 1.087.03 1.087V758h-.83v-6.89zm5.85 6.89zm.484-2.542c0-.63.194-1.13.194-1.13.195-.498.515-.845.515-.845.32-.346.73-.53.73-.53.41-.184.85-.184.85-.184.484 0 .867.16.867.16.384.17.64.48.64.48.26.31.395.75.395.75.13.44.13.98.13.98 0 .28-.03.47-.03.47h-3.45c.05.83.51 1.31.51 1.31.45.48 1.19.48 1.19.48.37 0 .68-.11.68-.11.31-.11.59-.29.59-.29l.3.56c-.34.21-.75.37-.75.37-.41.16-.94.16-.94.16-.52 0-.96-.19-.96-.19-.45-.19-.78-.53-.78-.53-.33-.34-.52-.84-.52-.84-.19-.5-.19-1.13-.19-1.13zm0 0zm3.57-.39c0-.786-.33-1.2-.33-1.2-.33-.416-.93-.416-.93-.416-.272 0-.52.11-.52.11-.246.11-.446.315-.446.315-.2.205-.33.504-.33.504-.132.3-.174.69-.174.69h2.73zm1.157 2.932zm.788-5.105h.87v3.12c0 .724.227 1.045.227 1.045.226.32.73.32.73.32.4 0 .704-.205.704-.205.305-.204.672-.656.672-.656v-3.63h.862V758h-.715l-.073-.798h-.032c-.357.42-.75.672-.75.672-.395.252-.93.252-.93.252-.82 0-1.193-.504-1.193-.504-.373-.504-.373-1.492-.373-1.492v-3.235zM504.43 758zm1.007-4.4h-.756v-.653l.8-.052.11-1.43h.73v1.43h1.38v.704h-1.37v2.83c0 .47.17.73.17.73.18.25.62.25.62.25.14 0 .29-.04.29-.04.16-.05.29-.1.29-.1l.17.65c-.21.07-.46.13-.46.13-.24.05-.49.05-.49.05-.41 0-.68-.13-.68-.13-.28-.13-.45-.35-.45-.35-.17-.22-.24-.54-.24-.54-.07-.32-.07-.7-.07-.7v-2.82zm2.542 4.4zm.86-5.105h.71l.07.924h.03c.26-.49.63-.77.63-.77.37-.29.81-.29.81-.29.3 0 .54.1.54.1l-.17.75-.23-.07c-.11-.02-.26-.02-.26-.02-.33 0-.68.26-.68.26-.35.26-.61.91-.61.91v3.3h-.86v-5.11zm2.52 5.105zm.61-1.323c0-.84.75-1.287.75-1.287.75-.447 2.39-.625 2.39-.625 0-.242-.05-.473-.05-.473-.05-.23-.17-.41-.17-.41-.12-.178-.32-.29-.32-.29-.2-.11-.52-.11-.52-.11-.45 0-.84.17-.84.17-.39.167-.69.377-.69.377l-.35-.6c.35-.23.87-.45.87-.45.51-.22 1.13-.22 1.13-.22.93 0 1.35.57 1.35.57.42.57.42 1.53.42 1.53V758h-.72l-.08-.61h-.02c-.37.306-.8.52-.8.52-.42.216-.9.216-.9.216-.65 0-1.08-.378-1.08-.378-.43-.378-.43-1.07-.43-1.07zm0 0zm.85-.064c0 .442.25.63.25.63.25.19.63.19.63.19.36 0 .7-.173.7-.173.33-.174.7-.51.7-.51v-1.418c-.64.084-1.09.2-1.09.2-.44.115-.71.273-.71.273-.27.157-.38.362-.38.362-.12.205-.12.446-.12.446zm3.92 1.387zm.86-7.48h.86v6.514c0 .21.07.294.07.294.07.084.17.084.17.084h.08l.11-.02.11.65c-.09.042-.2.063-.2.063-.12.02-.3.02-.3.02-.5 0-.71-.293-.71-.293-.21-.294-.21-.86-.21-.86v-6.45zm1.82 7.48zm.68-4.317c0-.305.18-.49.18-.49.18-.182.44-.182.44-.182.25 0 .43.19.43.19.18.19.18.49.18.49 0 .28-.18.47-.18.47-.19.19-.44.19-.44.19-.27 0-.45-.18-.45-.18-.19-.18-.19-.46-.19-.46zm0 0zm0 3.792c0-.305.18-.49.18-.49.18-.182.44-.182.44-.182.25 0 .43.183.43.183.18.184.18.49.18.49 0 .282-.18.466-.18.466-.19.184-.44.184-.44.184-.27 0-.45-.184-.45-.184-.19-.184-.19-.467-.19-.467zm4.05.525zm.42-.515c.75-.756 1.34-1.365 1.34-1.365.59-.61.99-1.13.99-1.13.4-.52.61-.955.61-.955.21-.436.21-.846.21-.846 0-.58-.32-.95-.32-.95-.32-.37-.96-.37-.96-.37-.42 0-.78.23-.78.23-.36.23-.66.57-.66.57l-.49-.5c.42-.46.89-.74.89-.74.47-.28 1.13-.28 1.13-.28.93 0 1.47.54 1.47.54.53.54.53 1.43.53 1.43 0 .47-.21.95-.21.95-.21.48-.57.98-.57.98-.37.51-.86 1.06-.86 1.06-.5.55-1.1 1.17-1.1 1.17l.56-.04c.29-.02.56-.02.56-.02h1.94v.75h-4.33v-.52zm4.8.515zm1.21-1.796c0 .283.11.515.11.515.11.23.3.4.3.4.19.17.45.27.45.27.26.09.57.09.57.09.59 0 .95-.33.95-.33.36-.33.36-.85.36-.85 0-.33-.15-.56-.15-.56-.15-.23-.4-.41-.4-.41-.26-.18-.59-.32-.59-.32-.33-.15-.69-.29-.69-.29-.4.27-.67.63-.67.63-.27.36-.27.82-.27.82zm0 0zm1.89-1.86c.33-.304.52-.64.52-.64.18-.336.18-.704.18-.704 0-.504-.31-.846-.31-.846-.31-.34-.86-.34-.86-.34-.48 0-.78.293-.78.293-.31.294-.31.788-.31.788 0 .304.12.52.12.52.12.215.34.383.34.383.21.168.49.3.49.3.28.13.58.246.58.246zm0 0zm-2.67 1.944c0-.326.11-.604.11-.604.11-.28.28-.504.28-.504.17-.226.4-.4.4-.4.22-.173.47-.3.47-.3v-.04c-.37-.264-.66-.637-.66-.637-.29-.372-.29-.908-.29-.908 0-.39.14-.704.14-.704.15-.31.4-.54.4-.54.25-.22.6-.35.6-.35.34-.12.75-.12.75-.12.44 0 .79.13.79.13.34.14.59.37.59.37.25.24.38.57.38.57.13.33.13.72.13.72 0 .26-.09.51-.09.51-.09.24-.22.45-.22.45-.13.21-.29.38-.29.38-.16.17-.32.28-.32.28v.04c.22.13.43.29.43.29.21.16.37.37.37.37.16.21.26.47.26.47.1.27.1.6.1.6 0 .38-.16.71-.16.71-.16.33-.44.57-.44.57-.29.25-.69.38-.69.38-.4.14-.89.14-.89.14-.47 0-.88-.14-.88-.14-.4-.13-.69-.38-.69-.38-.29-.24-.46-.58-.46-.58-.17-.33-.17-.73-.17-.73zm4.79 1.712zm1.86 0c.04-.945.17-1.733.17-1.733.12-.788.35-1.497.35-1.497.22-.71.58-1.37.58-1.37.35-.663.84-1.356.84-1.356h-3.34v-.746h4.31v.536c-.6.756-.97 1.45-.97 1.45-.37.693-.59 1.412-.59 1.412-.22.72-.32 1.524-.32 1.524-.1.803-.15 1.78-.15 1.78h-.9zm137.59 0zm3.87-2.805l-.33-1.05c-.19-.578-.36-1.15-.36-1.15-.17-.573-.34-1.17-.34-1.17h-.05c-.16.597-.33 1.17-.33 1.17-.17.572-.36 1.15-.36 1.15l-.33 1.05h2.07zm0 0zm.22.704h-2.51l-.66 2.1h-.9l2.33-6.89h.98l2.33 6.89h-.94zm1.62 2.1zm1.23.86c0 .41.39.65.39.65.39.24 1.08.24 1.08.24.36 0 .66-.09.66-.09.29-.09.5-.23.5-.23.21-.15.33-.33.33-.33.11-.19.11-.39.11-.39 0-.36-.27-.49-.27-.49-.27-.14-.77-.14-.77-.14h-.88c-.15 0-.32-.02-.32-.02-.18-.02-.35-.07-.35-.07-.27.2-.4.42-.4.42-.13.22-.13.44-.13.44zm0 0zm-.76.11c0-.33.2-.62.2-.62.2-.3.54-.54.54-.54v-.04c-.19-.12-.32-.32-.32-.32-.13-.21-.13-.51-.13-.51 0-.33.18-.57.18-.57.17-.24.37-.38.37-.38v-.05c-.26-.21-.46-.56-.46-.56-.21-.35-.21-.82-.21-.82 0-.42.15-.76.15-.76.15-.34.41-.57.41-.57.26-.24.61-.36.61-.36.35-.13.74-.13.74-.13.21 0 .39.03.39.03.18.04.33.09.33.09h1.78v.66h-1.05c.17.18.3.45.3.45.12.27.12.6.12.6 0 .41-.15.74-.15.74-.15.33-.4.55-.4.55-.25.22-.6.35-.6.35-.34.12-.73.12-.73.12-.19 0-.39-.05-.39-.05-.2-.05-.38-.13-.38-.13-.14.11-.23.25-.23.25-.09.14-.09.35-.09.35 0 .24.19.4.19.4.19.15.71.15.71.15h.99c.89 0 1.34.29 1.34.29.45.29.45.93.45.93 0 .36-.18.68-.18.68-.18.32-.52.56-.52.56-.34.24-.82.38-.82.38-.47.14-1.07.14-1.07.14-.48 0-.87-.09-.87-.09-.39-.09-.67-.27-.67-.27-.28-.18-.43-.43-.43-.43-.15-.25-.15-.59-.15-.59zm0 0zm2.11-3.17c.22 0 .41-.09.41-.09.19-.09.35-.24.35-.24.15-.16.23-.39.23-.39.08-.23.08-.51.08-.51 0-.57-.32-.88-.32-.88-.31-.31-.77-.31-.77-.31-.46 0-.77.31-.77.31-.32.31-.32.87-.32.87 0 .28.09.51.09.51.08.22.23.38.23.38.15.15.35.24.35.24.19.08.41.08.41.08zm2.71 2.19zm.86-5.11h.71l.07.92h.03c.26-.49.63-.77.63-.77.37-.29.81-.29.81-.29.3 0 .54.1.54.1l-.17.76-.23-.07c-.11-.02-.27-.02-.27-.02-.33 0-.68.26-.68.26-.36.26-.62.91-.62.91v3.3h-.86v-5.11zm2.68 5.1zm.48-2.55c0-.63.19-1.13.19-1.13.19-.5.51-.85.51-.85.32-.35.73-.53.73-.53.41-.19.85-.19.85-.19.48 0 .86.16.86.16.38.16.64.48.64.48.26.31.39.75.39.75.14.44.14.99.14.99 0 .28-.03.47-.03.47h-3.44c.05.83.51 1.31.51 1.31.45.48 1.19.48 1.19.48.37 0 .68-.11.68-.11.31-.11.59-.29.59-.29l.31.57c-.34.21-.75.37-.75.37-.41.16-.94.16-.94.16-.51 0-.96-.19-.96-.19-.45-.19-.78-.53-.78-.53-.33-.34-.52-.84-.52-.84-.19-.49-.19-1.12-.19-1.12zm0 0zm3.57-.39c0-.79-.33-1.2-.33-1.2-.34-.42-.93-.42-.93-.42-.28 0-.52.11-.52.11-.25.11-.45.32-.45.32-.2.2-.33.5-.33.5-.13.3-.18.69-.18.69h2.73zm1.15 2.93zm.48-2.54c0-.63.19-1.13.19-1.13.19-.5.51-.85.51-.85.32-.35.73-.53.73-.53.41-.18.85-.18.85-.18.48 0 .86.16.86.16.38.17.64.48.64.48.26.31.39.76.39.76.14.44.14.99.14.99 0 .28-.04.47-.04.47h-3.44c.05.83.51 1.31.51 1.31.45.48 1.19.48 1.19.48.37 0 .68-.11.68-.11.31-.11.59-.29.59-.29l.3.57c-.34.21-.75.36-.75.36-.41.15-.94.15-.94.15-.51 0-.96-.19-.96-.19-.45-.18-.78-.52-.78-.52-.33-.34-.52-.84-.52-.84-.19-.49-.19-1.12-.19-1.12zm0 0zm3.57-.39c0-.79-.33-1.2-.33-1.2-.33-.42-.93-.42-.93-.42-.28 0-.52.11-.52.11-.25.11-.45.31-.45.31-.2.2-.33.5-.33.5-.13.3-.18.69-.18.69h2.73zm1.15 2.93zm.68-4.32c0-.31.18-.49.18-.49.18-.19.44-.19.44-.19.25 0 .43.18.43.18.18.18.18.49.18.49 0 .28-.19.46-.19.46-.18.18-.44.18-.44.18-.26 0-.45-.18-.45-.18-.18-.19-.18-.47-.18-.47zm0 0zm0 3.79c0-.31.18-.49.18-.49.18-.18.44-.18.44-.18.25 0 .43.18.43.18.18.18.18.49.18.49 0 .28-.19.46-.19.46-.18.18-.44.18-.44.18-.26 0-.45-.19-.45-.19-.18-.19-.18-.47-.18-.47zm4.05.52zm2.81-.56c.25 0 .46-.11.46-.11.21-.11.36-.3.36-.3.16-.2.25-.46.25-.46.09-.27.09-.61.09-.61 0-.66-.31-1.04-.31-1.04-.31-.38-.94-.38-.94-.38-.32 0-.69.2-.69.2-.38.2-.71.68-.71.68.08.98.46 1.49.46 1.49.37.51 1.01.51 1.01.51zm0 0zm1.37-5.02c-.21-.24-.5-.39-.5-.39-.29-.15-.61-.15-.61-.15-.35 0-.66.14-.66.14-.32.15-.56.48-.56.48-.24.34-.39.88-.39.88-.15.54-.16 1.34-.16 1.34.31-.39.73-.61.73-.61.42-.23.83-.23.83-.23.87 0 1.39.52 1.39.52.52.51.52 1.55.52 1.55 0 .48-.16.87-.16.87-.16.39-.43.68-.43.68-.28.28-.63.44-.63.44-.36.16-.77.16-.77.16-.5 0-.92-.2-.92-.2-.42-.2-.73-.61-.73-.61-.31-.41-.49-1.01-.49-1.01-.18-.61-.18-1.41-.18-1.41 0-1.01.21-1.72.21-1.72.21-.71.57-1.16.57-1.16.35-.45.81-.65.81-.65.45-.21.96-.21.96-.21.54 0 .94.2.94.2.39.2.67.51.67.51zm1.03 5.57zm.68-1.36c.29.31.7.54.7.54.4.23.99.23.99.23.3 0 .57-.11.57-.11.27-.11.47-.31.47-.31.2-.2.31-.49.31-.49.11-.29.11-.63.11-.63 0-.7-.39-1.08-.39-1.08-.39-.39-1.04-.39-1.04-.39-.35 0-.59.1-.59.1-.25.1-.55.3-.55.3l-.47-.3.22-3.23h3.35v.75h-2.59l-.18 1.98c.24-.13.48-.2.48-.2.24-.08.54-.08.54-.08.43 0 .81.12.81.12.38.12.66.38.66.38.29.25.45.65.45.65.16.39.16.94.16.94 0 .54-.19.97-.19.97-.19.42-.5.71-.5.71-.32.29-.72.44-.72.44-.41.15-.85.15-.85.15-.4 0-.73-.08-.73-.08-.33-.08-.6-.21-.6-.21-.27-.13-.48-.29-.48-.29-.22-.17-.38-.35-.38-.35zm4.53 1.36zm2.62.12c-1.02 0-1.59-.91-1.59-.91-.57-.91-.57-2.6-.57-2.6 0-1.69.57-2.58.57-2.58.56-.89 1.58-.89 1.58-.89 1 0 1.57.88 1.57.88.57.88.57 2.57.57 2.57 0 1.69-.57 2.59-.57 2.59-.57.9-1.58.9-1.58.9zm0 0zm0-.7c.29 0 .53-.17.53-.17.23-.16.41-.5.41-.5.17-.34.26-.87.26-.87.09-.53.09-1.27.09-1.27 0-.74-.1-1.26-.1-1.26-.1-.53-.27-.86-.27-.86-.18-.33-.41-.49-.41-.49-.24-.16-.53-.16-.53-.16-.3 0-.54.16-.54.16-.24.16-.42.49-.42.49-.17.33-.27.86-.27.86-.09.52-.09 1.26-.09 1.26 0 1.47.36 2.14.36 2.14.36.66.95.66.95.66zm121.94.56zm.96-1.5c.37.39.87.62.87.62.5.23 1.03.23 1.03.23.68 0 1.06-.31 1.06-.31.38-.31.38-.81.38-.81 0-.26-.09-.45-.09-.45-.09-.19-.24-.32-.24-.32-.15-.13-.36-.24-.36-.24-.21-.11-.45-.22-.45-.22l-.99-.43c-.24-.11-.49-.26-.49-.26-.25-.14-.45-.35-.45-.35-.2-.21-.33-.5-.33-.5-.12-.29-.12-.67-.12-.67 0-.39.16-.73.16-.73.16-.34.45-.59.45-.59.29-.25.69-.39.69-.39.39-.14.87-.14.87-.14.62 0 1.14.23 1.14.23.52.23.89.61.89.61l-.47.57c-.32-.3-.7-.48-.7-.48-.39-.17-.87-.17-.87-.17-.58 0-.93.27-.93.27-.35.26-.35.74-.35.74 0 .25.1.42.1.42.1.17.26.3.26.3.17.13.37.23.37.23.2.1.41.19.41.19l.98.42c.3.12.56.29.56.29.26.16.45.38.45.38.19.22.3.51.3.51.11.29.11.67.11.67 0 .41-.16.76-.16.76-.16.35-.46.62-.46.62-.31.26-.74.42-.74.42-.43.15-.98.15-.98.15-.72 0-1.34-.27-1.34-.27-.62-.28-1.07-.75-1.07-.75zm4.64 1.5zm1.01-4.4h-.76v-.65l.8-.05.1-1.43h.72v1.43h1.38v.7h-1.38v2.83c0 .47.17.73.17.73.17.26.61.26.61.26.14 0 .29-.04.29-.04.16-.04.28-.1.28-.1l.17.65c-.21.08-.46.13-.46.13-.25.06-.49.06-.49.06-.41 0-.69-.12-.69-.12-.28-.13-.46-.35-.46-.35-.17-.22-.25-.54-.25-.54-.07-.31-.07-.69-.07-.69v-2.82zm2.54 4.4zm.86-5.1h.71l.07.92h.03c.26-.49.64-.77.64-.77.37-.28.81-.28.81-.28.3 0 .54.1.54.1l-.17.75c-.13-.04-.23-.06-.23-.06-.11-.02-.27-.02-.27-.02-.32 0-.68.26-.68.26-.35.26-.61.91-.61.91v3.3h-.86v-5.11zm2.68 5.1zm.48-2.54c0-.64.19-1.14.19-1.14.19-.5.52-.85.52-.85.32-.35.75-.53.75-.53.42-.18.9-.18.9-.18.47 0 .89.18.89.18.42.18.75.52.75.52.32.34.52.84.52.84.19.5.19 1.14.19 1.14 0 .63-.2 1.13-.2 1.13-.2.5-.52.84-.52.84-.33.34-.75.52-.75.52-.43.18-.9.18-.9.18-.47 0-.9-.18-.9-.18-.43-.18-.75-.52-.75-.52-.33-.34-.52-.84-.52-.84-.2-.5-.2-1.13-.2-1.13zm0 0zm.89 0c0 .44.1.79.1.79.11.35.3.61.3.61.19.26.47.4.47.4.27.14.6.14.6.14.33 0 .6-.15.6-.15.27-.14.47-.4.47-.4.19-.26.3-.62.3-.62.1-.36.1-.8.1-.8 0-.44-.11-.81-.11-.81-.11-.36-.3-.62-.3-.62-.2-.26-.47-.4-.47-.4-.27-.14-.6-.14-.6-.14-.32 0-.6.14-.6.14-.28.14-.47.4-.47.4-.2.26-.3.62-.3.62-.11.36-.11.8-.11.8zm4.32 2.55zm.86-5.11h.71l.07.73h.03c.37-.37.77-.62.77-.62.41-.25.94-.25.94-.25.81 0 1.18.5 1.18.5.38.5.38 1.49.38 1.49v3.3h-.86v-3.12c0-.73-.24-1.05-.24-1.05-.23-.32-.74-.32-.74-.32-.4 0-.71.2-.71.2-.3.2-.69.59-.69.59v3.7h-.8v-5.11zm4.88 5.1zm1.23.86c0 .41.39.65.39.65.39.24 1.08.24 1.08.24.36 0 .66-.09.66-.09.3-.09.51-.23.51-.23.21-.14.32-.33.32-.33.12-.19.12-.39.12-.39 0-.36-.26-.49-.26-.49-.27-.14-.77-.14-.77-.14h-.88c-.15 0-.32-.02-.32-.02-.18-.02-.35-.07-.35-.07-.27.2-.4.42-.4.42-.13.22-.13.44-.13.44zm0 0zm-.76.11c0-.33.2-.62.2-.62.2-.3.54-.54.54-.54v-.04c-.19-.12-.32-.32-.32-.32-.13-.21-.13-.51-.13-.51 0-.33.18-.57.18-.57.18-.24.38-.38.38-.38v-.04c-.26-.21-.46-.56-.46-.56-.2-.36-.2-.82-.2-.82 0-.42.15-.76.15-.76.15-.34.41-.58.41-.58.26-.24.61-.36.61-.36.35-.13.74-.13.74-.13.21 0 .39.03.39.03.18.04.33.09.33.09h1.77v.66h-1.05c.17.18.3.46.3.46.12.27.12.6.12.6 0 .41-.15.74-.15.74-.15.33-.4.55-.4.55-.25.23-.59.35-.59.35-.35.13-.73.13-.73.13-.19 0-.39-.05-.39-.05-.2-.04-.38-.13-.38-.13-.14.12-.23.26-.23.26-.09.14-.09.35-.09.35 0 .24.19.4.19.4.19.15.71.15.71.15h.98c.89 0 1.34.29 1.34.29.44.29.44.93.44.93 0 .35-.18.67-.18.67-.18.32-.52.564-.52.564-.34.24-.82.38-.82.38-.48.15-1.07.15-1.07.15-.47 0-.86-.09-.86-.09-.39-.09-.67-.27-.67-.27-.28-.18-.43-.43-.43-.43-.15-.25-.15-.59-.15-.59zm0 0zm2.11-3.17c.22 0 .41-.09.41-.09.19-.08.35-.24.35-.24.15-.16.24-.38.24-.38.08-.22.08-.51.08-.51 0-.57-.32-.88-.32-.88-.32-.31-.77-.31-.77-.31-.45 0-.76.31-.76.31-.32.31-.32.88-.32.88 0 .28.08.51.08.51.08.22.24.38.24.38.15.15.35.24.35.24.19.08.41.08.41.08zm2.71 2.19zm.86-7.48h.86V757c0 .21.07.294.07.294.07.082.17.082.17.082h.08l.11-.02.11.65c-.09.04-.2.06-.2.06-.12.02-.3.02-.3.02-.5 0-.71-.294-.71-.294-.21-.295-.21-.86-.21-.86v-6.45zm1.81 7.48zm.51 1.4l.19.04.2.03c.44 0 .72-.31.72-.31.28-.31.43-.78.43-.78l.11-.38-2.05-5.12h.89l1.04 2.82c.11.34.24.71.24.71.13.37.25.73.25.73h.04c.12-.35.22-.73.22-.73l.21-.72.92-2.83h.84l-1.92 5.52c-.14.38-.31.7-.31.7-.17.32-.4.56-.4.56-.23.23-.53.37-.53.37-.3.13-.68.13-.68.13-.18 0-.33-.03-.33-.03-.15-.03-.27-.08-.27-.08l.17-.68zm6.51-1.41zm.61-1.33c0-.84.75-1.29.75-1.29.75-.45 2.39-.63 2.39-.63 0-.24-.05-.47-.05-.47-.05-.23-.17-.41-.17-.41-.12-.17-.32-.29-.32-.29-.2-.11-.51-.11-.51-.11-.45 0-.84.17-.84.17-.38.17-.69.38-.69.38l-.35-.6c.36-.23.87-.45.87-.45.51-.21 1.13-.21 1.13-.21.93 0 1.35.57 1.35.57.42.57.42 1.53.42 1.53v3.2h-.72l-.07-.61h-.02c-.37.3-.8.52-.8.52-.43.21-.9.21-.9.21-.65 0-1.08-.38-1.08-.38-.42-.38-.42-1.07-.42-1.07zm0 0zm.85-.07c0 .44.26.63.26.63.26.19.63.19.63.19.37 0 .7-.17.7-.17.33-.18.7-.51.7-.51v-1.42c-.64.08-1.08.2-1.08.2-.45.11-.71.27-.71.27-.27.15-.39.36-.39.36-.12.2-.12.44-.12.44zm3.92 1.39zm1.23.86c0 .41.4.65.4.65.39.24 1.09.24 1.09.24.37 0 .67-.09.67-.09.3-.09.51-.23.51-.23.21-.15.32-.33.32-.33.11-.19.11-.39.11-.39 0-.36-.26-.49-.26-.49-.26-.14-.77-.14-.77-.14h-.88c-.15 0-.32-.02-.32-.02-.18-.02-.35-.07-.35-.07-.28.2-.4.42-.4.42-.13.22-.13.44-.13.44zm0 0zm-.76.12c0-.33.2-.62.2-.62.2-.3.55-.54.55-.54v-.04c-.19-.11-.32-.32-.32-.32-.13-.2-.13-.51-.13-.51 0-.32.17-.57.17-.57.18-.24.38-.38.38-.38v-.04c-.25-.21-.46-.57-.46-.57-.21-.35-.21-.82-.21-.82 0-.42.15-.76.15-.76.15-.34.41-.58.41-.58.26-.24.61-.36.61-.36.35-.13.74-.13.74-.13.21 0 .39.03.39.03.18.03.33.09.33.09h1.77v.66h-1.05c.18.18.3.45.3.45.12.27.12.6.12.6 0 .41-.14.74-.14.74-.15.33-.4.55-.4.55-.25.23-.59.35-.59.35-.35.13-.73.13-.73.13-.19 0-.39-.05-.39-.05-.2-.047-.38-.13-.38-.13-.14.114-.23.26-.23.26-.1.142-.1.352-.1.352 0 .24.19.4.19.4.19.16.71.16.71.16h.98c.9 0 1.34.29 1.34.29.45.29.45.93.45.93 0 .36-.18.68-.18.68-.18.32-.51.56-.51.56-.34.24-.81.38-.81.38-.48.15-1.08.15-1.08.15-.48 0-.86-.09-.86-.09-.39-.09-.67-.27-.67-.27-.28-.18-.43-.43-.43-.43-.16-.26-.16-.59-.16-.59zm0 0zm2.11-3.17c.22 0 .42-.08.42-.08.2-.08.35-.24.35-.24.15-.16.24-.38.24-.38.08-.23.08-.51.08-.51 0-.57-.32-.88-.32-.88-.31-.31-.77-.31-.77-.31-.45 0-.76.31-.76.31-.32.31-.32.88-.32.88 0 .28.08.51.08.51.08.22.24.38.24.38.15.16.35.24.35.24.19.09.41.09.41.09zm2.71 2.2zm.86-5.11h.72l.08.93h.03c.26-.49.63-.77.63-.77.37-.28.81-.28.81-.28.31 0 .55.1.55.1l-.17.75c-.13-.04-.23-.06-.23-.06-.11-.02-.26-.02-.26-.02-.33 0-.68.26-.68.26-.35.26-.62.91-.62.91v3.3h-.86v-5.11zm2.68 5.11zm.48-2.54c0-.63.2-1.13.2-1.13.19-.5.51-.85.51-.85.32-.35.73-.53.73-.53.41-.18.85-.18.85-.18.48 0 .86.16.86.16.38.17.64.48.64.48.26.31.39.75.39.75.14.44.14.99.14.99 0 .28-.03.47-.03.47h-3.45c.05.83.51 1.31.51 1.31.45.48 1.19.48 1.19.48.36 0 .67-.11.67-.11.31-.11.59-.29.59-.29l.3.57c-.34.21-.75.37-.75.37-.41.16-.94.16-.94.16-.52 0-.96-.19-.96-.19-.45-.19-.78-.53-.78-.53-.33-.34-.52-.84-.52-.84-.19-.5-.19-1.13-.19-1.13zm0 0zm3.57-.39c0-.79-.33-1.2-.33-1.2-.33-.42-.93-.42-.93-.42-.27 0-.52.11-.52.11-.24.11-.44.31-.44.31-.2.2-.33.5-.33.5-.13.3-.17.69-.17.69h2.73zm1.17 2.94zm.49-2.55c0-.63.19-1.13.19-1.13.19-.5.51-.85.51-.85.32-.35.73-.53.73-.53.41-.18.85-.18.85-.18.48 0 .86.16.86.16.38.17.64.48.64.48.25.31.39.75.39.75.14.44.14.99.14.99 0 .29-.03.48-.03.48h-3.45c.05.83.51 1.31.51 1.31.46.48 1.19.48 1.19.48.37 0 .68-.11.68-.11.31-.11.6-.29.6-.29l.3.56c-.34.21-.75.37-.75.37-.41.16-.93.16-.93.16-.52 0-.96-.18-.96-.18-.45-.19-.78-.53-.78-.53-.33-.34-.52-.84-.52-.84-.19-.5-.19-1.13-.19-1.13zm0 0zm3.57-.39c0-.79-.33-1.2-.33-1.2-.33-.42-.93-.42-.93-.42-.28 0-.52.11-.52.11-.25.11-.45.31-.45.31-.2.2-.33.5-.33.5-.14.3-.18.69-.18.69h2.73zm1.16 2.93zm.68-4.32c0-.3.18-.49.18-.49.19-.18.45-.18.45-.18.25 0 .43.19.43.19.18.19.18.49.18.49 0 .28-.19.47-.19.47-.19.19-.44.19-.44.19-.27 0-.45-.19-.45-.19-.18-.18-.18-.47-.18-.47zm0 0zm0 3.8c0-.31.18-.49.18-.49.19-.18.45-.18.45-.18.25 0 .43.18.43.18.18.18.18.49.18.49 0 .28-.19.47-.19.47-.19.18-.44.18-.44.18-.27 0-.45-.18-.45-.18-.18-.18-.18-.47-.18-.47zm4.05.52zm.42-.51c.76-.76 1.34-1.37 1.34-1.37.59-.61.98-1.13.98-1.13.4-.52.61-.95.61-.95.21-.44.21-.85.21-.85 0-.58-.32-.95-.32-.95-.32-.37-.96-.37-.96-.37-.42 0-.78.23-.78.23-.36.24-.65.57-.65.57l-.5-.5c.42-.46.89-.74.89-.74.47-.28 1.13-.28 1.13-.28.93 0 1.47.54 1.47.54.53.54.53 1.43.53 1.43 0 .47-.21.95-.21.95-.2.48-.57.99-.57.99-.36.51-.86 1.06-.86 1.06-.5.55-1.1 1.17-1.1 1.17l.57-.04c.3-.02.56-.02.56-.02h1.94v.74h-4.32v-.52zm4.8.51zm.42-.51c.76-.76 1.35-1.37 1.35-1.37.59-.61.99-1.13.99-1.13.4-.52.61-.96.61-.96.21-.44.21-.85.21-.85 0-.58-.32-.95-.32-.95-.32-.37-.96-.37-.96-.37-.42 0-.78.23-.78.23-.35.24-.65.57-.65.57l-.49-.5c.42-.46.89-.74.89-.74.47-.28 1.13-.28 1.13-.28.93 0 1.47.54 1.47.54.54.54.54 1.43.54 1.43 0 .47-.21.95-.21.95-.21.48-.57.99-.57.99-.36.51-.86 1.06-.86 1.06-.5.55-1.1 1.17-1.1 1.17l.56-.05c.29-.02.56-.02.56-.02h1.94v.77h-4.32v-.51zm4.8.51zm1.86 0c.04-.95.17-1.73.17-1.73.12-.79.35-1.49.35-1.49.22-.71.57-1.37.57-1.37.35-.67.84-1.36.84-1.36h-3.34v-.75h4.32v.54c-.6.76-.97 1.45-.97 1.45-.37.69-.59 1.41-.59 1.41-.23.72-.32 1.53-.32 1.53-.1.8-.15 1.78-.15 1.78h-.89z"/></svg>