<svg xmlns="http://www.w3.org/2000/svg" stroke="#000" viewBox="0 0 1024 768" font-size="1"><path fill="#FFF" stroke="none" d="M0 0v768h1024V0z"/><path stroke="none" d="M397.506 14.102zm1.186-10.04h2.263V14.1h-2.263V4.062zm6.652 10.04zm5.314-9.04c-.432-.154-.786-.154-.786-.154-.416 0-.647.254-.647.254-.23.254-.23.84-.23.84v.46h1.37v1.772h-1.37v5.868h-2.264V8.234h-1.01v-1.68l1.02-.076v-.415c0-.6.15-1.14.15-1.14.15-.54.49-.94.49-.94.34-.4.88-.63.88-.63.54-.232 1.31-.232 1.31-.232.48 0 .87.1.87.1.4.09.66.19.66.19zm-.062 9.04zm2.125-8.763c-.57 0-.93-.34-.93-.34-.37-.33-.37-.86-.37-.86 0-.53.37-.85.37-.85.37-.33.94-.33.94-.33.59 0 .95.32.95.32.36.32.36.84.36.84 0 .52-.36.85-.36.85-.36.33-.94.33-.94.33zm0 0zm-1.12 1.12h2.27v7.64h-2.27V6.46zm3.25 7.64zm1-7.64h1.85l.16.97h.06c.5-.47 1.08-.81 1.08-.81.59-.35 1.37-.35 1.37-.35 1.25 0 1.81.81 1.81.81.56.81.56 2.26.56 2.26v4.75h-2.26V9.65c0-.832-.22-1.14-.22-1.14-.22-.31-.71-.31-.71-.31-.43 0-.74.195-.74.195-.31.192-.68.547-.68.547v5.16h-2.26v-7.64zm7.81 7.64zm.6-3.82c0-.94.27-1.68.27-1.68.27-.74.71-1.26.71-1.26.44-.52 1.02-.8 1.02-.8.58-.28 1.18-.28 1.18-.28.65 0 1.06.21 1.06.21.42.21.82.58.82.58l-.09-1.17V3.3h2.27v10.8h-1.85l-.15-.754h-.06c-.4.4-.94.67-.94.67-.53.27-1.09.27-1.09.27-.71 0-1.28-.278-1.28-.278-.58-.278-.98-.794-.98-.794-.41-.516-.63-1.255-.63-1.255-.22-.74-.22-1.68-.22-1.68zm0 0zm2.33-.03c0 1.13.36 1.66.36 1.66.37.52 1.03.52 1.03.52.37 0 .67-.16.67-.16.3-.16.58-.54.58-.54V8.62c-.31-.278-.63-.386-.63-.386-.32-.108-.63-.108-.63-.108-.54 0-.95.516-.95.516-.41.516-.41 1.61-.41 1.61zm9.1 3.85zm1.19-10.04h2.27v3.86h3.47V4.06h2.28v10.042h-2.28v-4.19h-3.46v4.19h-2.26V4.062zm9.2 10.04zm.73-2.13c0-1.2 1.02-1.88 1.02-1.88 1.02-.68 3.28-.91 3.28-.91-.03-.51-.3-.81-.3-.81-.28-.3-.89-.3-.89-.3-.49 0-.98.18-.98.18-.49.18-1.05.51-1.05.51l-.8-1.5c.74-.45 1.55-.73 1.55-.73.81-.28 1.72-.28 1.72-.28 1.48 0 2.26.84 2.26.84.78.84.78 2.61.78 2.61v4.38h-1.85l-.17-.79h-.04c-.49.43-1.04.7-1.04.7-.54.27-1.19.27-1.19.27-.52 0-.94-.18-.94-.18-.41-.18-.71-.49-.71-.49-.29-.32-.45-.73-.45-.73-.16-.42-.16-.91-.16-.91zm0 0zm2.16-.17c0 .37.24.55.24.55.24.17.64.17.64.17.4 0 .68-.17.68-.17.28-.17.59-.48.59-.48v-1.34c-1.21.17-1.68.49-1.68.49-.46.32-.46.77-.46.77zm5.35 2.29zm1.34-2.3c.53.4 1 .6 1 .6.48.2.97.2.97.2.51 0 .74-.17.74-.17.23-.17.23-.48.23-.48 0-.19-.13-.33-.13-.33-.13-.15-.35-.27-.35-.27-.22-.12-.5-.22-.5-.22-.27-.1-.57-.23-.57-.23-.35-.14-.71-.33-.71-.33-.35-.18-.64-.45-.64-.45-.29-.27-.48-.63-.48-.63-.18-.37-.18-.84-.18-.84 0-.53.21-.97.21-.97.21-.45.59-.76.59-.76.39-.31.93-.49.93-.49.54-.18 1.2-.18 1.2-.18.88 0 1.54.3 1.54.3.67.3 1.16.67 1.16.67L459.6 8.6c-.414-.306-.814-.476-.814-.476-.4-.17-.8-.17-.8-.17-.863 0-.863.602-.863.602 0 .18.128.312.128.312.13.13.33.24.33.24.21.107.48.207.48.207l.57.21c.37.135.73.313.73.313.36.177.66.438.66.438.3.263.49.64.49.64.19.378.19.9.19.9 0 .525-.2.97-.2.97-.2.448-.6.78-.6.78-.4.33-.99.525-.99.525-.58.2-1.35.2-1.35.2-.75 0-1.54-.29-1.54-.29-.8-.29-1.38-.77-1.38-.77zm5.49 2.29zm1-10.8h2.2v6.19h.06l2.42-3.04h2.47l-2.68 3.14 2.88 4.49h-2.44l-1.73-2.97-.97 1.09v1.88h-2.2V3.3zm7.01 10.79zm.55-3.82c0-.93.31-1.67.31-1.67.31-.75.81-1.27.81-1.27.5-.52 1.15-.8 1.15-.8.65-.28 1.34-.28 1.34-.28.81 0 1.42.28 1.42.28.61.28 1.02.77 1.02.77.41.49.61 1.16.61 1.16.2.67.2 1.45.2 1.45 0 .31-.03.56-.03.56-.03.25-.06.39-.06.39h-4.57c.16.88.69 1.27.69 1.27.53.39 1.3.39 1.3.39.82 0 1.65-.51 1.65-.51l.76 1.37c-.58.4-1.3.63-1.3.63-.71.23-1.41.23-1.41.23-.81 0-1.52-.27-1.52-.27-.71-.27-1.23-.79-1.23-.79-.52-.52-.82-1.26-.82-1.26-.29-.74-.29-1.7-.29-1.7zm0 0zm4.93-.79c0-.66-.29-1.08-.29-1.08-.29-.42-.98-.42-.98-.42-.54 0-.94.36-.94.36-.41.36-.53 1.13-.53 1.13h2.76zm2.49 4.61zm1-10.8h2.26v8.52c0 .35.13.49.13.49.13.14.27.14.27.14h.13l.15-.03.27 1.68c-.18.07-.47.13-.47.13-.28.05-.67.05-.67.05-.58 0-.98-.19-.98-.19-.4-.18-.64-.51-.64-.51-.24-.33-.34-.8-.34-.8-.1-.47-.1-1.06-.1-1.06V3.3zm3.4 10.8zm1-10.8h2.27v8.52c0 .36.13.5.13.5.13.14.27.14.27.14h.13l.15-.04.28 1.68c-.19.07-.47.13-.47.13-.29.05-.67.05-.67.05-.59 0-.99-.19-.99-.19-.4-.19-.64-.52-.64-.52-.23-.33-.34-.8-.34-.8-.11-.47-.11-1.06-.11-1.06V3.3zm6.61 10.8zm1-10.8h2.27v8.52c0 .36.13.5.13.5.13.14.27.14.27.14h.13l.15-.03.28 1.68c-.18.08-.47.13-.47.13-.28.05-.67.05-.67.05-.58 0-.98-.18-.98-.18-.4-.19-.64-.52-.64-.52-.24-.33-.34-.8-.34-.8-.1-.47-.1-1.05-.1-1.05V3.3zm3.41 10.79zm2.13-8.76c-.57 0-.94-.33-.94-.33-.37-.33-.37-.86-.37-.86 0-.53.37-.85.37-.85.37-.33.94-.33.94-.33.59 0 .95.32.95.32.37.32.37.85.37.85 0 .52-.37.86-.37.86-.36.33-.95.33-.95.33zm0 0zm-1.12 1.12h2.27v7.64h-2.26v-7.6zm3.25 7.64zm1-10.8h2.27v2.65L501 7.09c.45-.4.96-.62.96-.62.52-.22 1.06-.22 1.06-.22.7 0 1.25.273 1.25.273.56.28.95.78.95.78.4.5.6 1.213.6 1.213.21.72.21 1.6.21 1.6 0 .985-.27 1.755-.27 1.755-.27.77-.72 1.3-.72 1.3-.45.54-1.03.81-1.03.81-.578.28-1.19.28-1.19.28-.51 0-1.03-.24-1.03-.24-.52-.24-.964-.74-.964-.74h-.06l-.185.8h-1.77V3.31zm0 0zm2.27 8.64c.31.28.62.39.62.39.31.11.6.11.6.11.59 0 1.01-.53 1.01-.53.42-.53.42-1.71.42-1.71 0-2.06-1.32-2.06-1.32-2.06-.67 0-1.31.69-1.31.69v3.12zm5.56 2.16zm1-7.64h1.85l.16 1.34h.06c.42-.79 1-1.15 1-1.15.59-.37 1.17-.37 1.17-.37.33 0 .54.04.54.04.21.03.37.11.37.11l-.37 1.96c-.22-.06-.4-.09-.4-.09-.18-.03-.43-.03-.43-.03-.43 0-.9.31-.9.31-.47.31-.78 1.09-.78 1.09v4.44h-2.27V6.46zm4.69 7.64zm.72-2.13c0-1.2 1.02-1.88 1.02-1.88 1.02-.67 3.28-.91 3.28-.91-.03-.51-.31-.81-.31-.81-.27-.3-.89-.3-.89-.3-.49 0-.98.18-.98.18-.49.19-1.05.51-1.05.51l-.8-1.49c.74-.44 1.55-.72 1.55-.72.81-.28 1.71-.28 1.71-.28 1.48 0 2.26.84 2.26.84.78.84.78 2.61.78 2.61v4.38h-1.84l-.17-.78h-.04c-.49.43-1.04.7-1.04.7-.55.27-1.19.27-1.19.27-.52 0-.94-.17-.94-.17-.42-.18-.71-.5-.71-.5-.29-.31-.45-.73-.45-.73-.16-.41-.16-.9-.16-.9zm0 0zm2.16-.17c0 .37.24.55.24.55.24.18.64.18.64.18.4 0 .68-.17.68-.17.28-.17.59-.48.59-.48V10.5c-1.22.17-1.68.497-1.68.497-.46.33-.46.77-.46.77zm5.35 2.3zm1-7.64h1.85l.15 1.34h.06c.42-.79 1-1.16 1-1.16.59-.37 1.17-.37 1.17-.37.33 0 .53.04.53.04.21.03.38.11.38.11l-.37 1.96c-.21-.06-.4-.09-.4-.09-.18-.03-.43-.03-.43-.03-.43 0-.9.31-.9.31-.47.31-.78 1.1-.78 1.1v4.44h-2.27V6.46zm5.13 7.64zm2.13-8.76c-.57 0-.94-.33-.94-.33-.37-.33-.37-.85-.37-.85 0-.52.37-.84.37-.84.37-.33.94-.33.94-.33.59 0 .95.32.95.32.36.32.36.85.36.85 0 .52-.36.85-.36.85-.36.33-.94.33-.94.33zm0 0zm-1.13 1.13h2.27v7.64h-2.26V6.46zm3.25 7.64zm.56-3.82c0-.92.31-1.67.31-1.67.31-.75.81-1.26.81-1.26.5-.52 1.15-.8 1.15-.8.65-.28 1.34-.28 1.34-.28.82 0 1.43.28 1.43.28.61.27 1.01.77 1.01.77.41.49.61 1.16.61 1.16.2.67.2 1.45.2 1.45 0 .31-.03.57-.03.57-.03.25-.06.39-.06.39h-4.58c.15.88.68 1.27.68 1.27.53.39 1.3.39 1.3.39.82 0 1.65-.51 1.65-.51l.76 1.37c-.58.4-1.3.63-1.3.63-.71.23-1.41.23-1.41.23-.81 0-1.52-.27-1.52-.27-.71-.27-1.23-.79-1.23-.79-.52-.51-.81-1.25-.81-1.25-.29-.74-.29-1.7-.29-1.7zm0 0zm4.93-.78c0-.67-.29-1.08-.29-1.08-.29-.41-.99-.41-.99-.41-.54 0-.94.36-.94.36-.41.36-.53 1.13-.53 1.13h2.75zm2.5 4.6zm1.34-2.3c.52.4 1 .6 1 .6.48.2.97.2.97.2.51 0 .74-.17.74-.17.23-.17.23-.48.23-.48 0-.19-.13-.33-.13-.33-.13-.15-.35-.27-.35-.27-.22-.13-.5-.23-.5-.23-.28-.1-.57-.22-.57-.22-.35-.14-.71-.32-.71-.32-.35-.19-.64-.46-.64-.46-.29-.27-.48-.63-.48-.63-.19-.37-.19-.84-.19-.84 0-.53.2-.97.2-.97.21-.45.59-.76.59-.76.38-.31.92-.49.92-.49.54-.18 1.2-.18 1.2-.18.88 0 1.54.3 1.54.3.67.3 1.16.67 1.16.67l-1.02 1.36c-.42-.31-.82-.48-.82-.48-.4-.17-.8-.17-.8-.17-.86 0-.86.6-.86.6 0 .18.13.31.13.31.12.13.33.24.33.24.2.11.47.21.47.21l.57.21c.37.14.73.31.73.31.36.17.66.43.66.43.3.26.48.64.48.64.19.38.19.9.19.9 0 .52-.2.97-.2.97-.2.45-.6.78-.6.78-.41.33-.99.52-.99.52-.59.19-1.36.19-1.36.19-.76 0-1.55-.29-1.55-.29-.8-.29-1.38-.77-1.38-.77zm8.69 2.29zm.56-3.82c0-.93.31-1.67.31-1.67.3-.75.8-1.26.8-1.26.5-.52 1.15-.8 1.15-.8.65-.28 1.34-.28 1.34-.28.82 0 1.43.28 1.43.28.61.28 1.02.77 1.02.77.41.49.61 1.16.61 1.16.2.67.2 1.46.2 1.46 0 .31-.03.56-.03.56-.03.26-.06.39-.06.39h-4.57c.16.88.69 1.27.69 1.27.53.39 1.3.39 1.3.39.82 0 1.65-.51 1.65-.51l.76 1.37c-.58.4-1.3.64-1.3.64-.71.23-1.41.23-1.41.23-.81 0-1.52-.27-1.52-.27-.71-.27-1.23-.78-1.23-.78-.53-.52-.82-1.26-.82-1.26-.29-.74-.29-1.69-.29-1.69zm0 0zm4.93-.79c0-.66-.3-1.08-.3-1.08-.3-.41-.99-.41-.99-.41-.54 0-.95.36-.95.36-.41.36-.53 1.13-.53 1.13h2.76zm2.32 4.6zm.72-2.12c0-1.2 1.02-1.88 1.02-1.88 1.02-.68 3.28-.91 3.28-.91-.03-.51-.31-.81-.31-.81-.27-.3-.89-.3-.89-.3-.49 0-.98.18-.98.18-.49.19-1.05.51-1.05.51l-.8-1.5c.74-.45 1.55-.73 1.55-.73.81-.28 1.72-.28 1.72-.28 1.48 0 2.25.84 2.25.84.78.84.78 2.61.78 2.61v4.38h-1.85l-.17-.79H562c-.492.43-1.04.7-1.04.7-.55.27-1.192.27-1.192.27-.52 0-.94-.18-.94-.18-.412-.18-.71-.49-.71-.49-.29-.32-.45-.73-.45-.73-.16-.41-.16-.9-.16-.9zm0 0zm2.16-.17c0 .37.24.55.24.55.24.17.64.17.64.17.4 0 .68-.17.68-.17.27-.17.58-.48.58-.48V10.5c-1.22.17-1.68.495-1.68.495-.46.324-.46.77-.46.77zm5.34 2.29zm1.34-2.3c.52.4 1 .6 1 .6.48.2.97.2.97.2.51 0 .74-.17.74-.17.23-.17.23-.48.23-.48 0-.19-.13-.33-.13-.33-.13-.15-.35-.27-.35-.27-.22-.13-.5-.23-.5-.23-.27-.1-.57-.22-.57-.22-.35-.14-.71-.32-.71-.32-.35-.19-.64-.46-.64-.46-.29-.27-.48-.63-.48-.63-.18-.36-.18-.84-.18-.84 0-.52.2-.97.2-.97.21-.45.59-.75.59-.75.38-.31.92-.49.92-.49.54-.18 1.2-.18 1.2-.18.88 0 1.54.3 1.54.3.66.3 1.15.67 1.15.67l-1.03 1.35c-.41-.31-.81-.48-.81-.48-.4-.17-.8-.17-.8-.17-.86 0-.86.6-.86.6 0 .18.12.31.12.31.12.13.33.24.33.24.21.11.48.21.48.21l.57.21c.37.14.74.31.74.31.36.18.66.44.66.44.3.26.49.64.49.64.19.37.19.9.19.9 0 .52-.2.97-.2.97-.2.44-.6.78-.6.78-.4.33-.98.52-.98.52-.58.19-1.35.19-1.35.19-.752 0-1.55-.29-1.55-.29-.8-.3-1.38-.77-1.38-.77zm5.48 2.29zm1.17 1.11c.11.03.25.06.25.06.14.03.26.03.26.03.57 0 .88-.28.88-.28.31-.27.46-.72.46-.72l.11-.4L572 6.4h2.28l1.1 3.28c.17.52.307 1.06.307 1.06.14.54.3 1.11.3 1.11h.06l.26-1.08c.13-.55.27-1.09.27-1.09l.92-3.28h2.17L577 14.11c-.28.72-.58 1.27-.58 1.27-.3.543-.694.91-.694.91-.39.36-.89.542-.89.542-.5.19-1.18.19-1.18.19-.35 0-.6-.04-.6-.04-.25-.04-.48-.12-.48-.12l.4-1.726zm10.05-1.1zm1.31-5.87h-1.05V6.55l1.17-.09.26-2.033h1.88V6.46h1.83v1.77h-1.83v3.07c0 .646.27.93.27.93.27.285.72.285.72.285.19 0 .38-.046.38-.046.2-.05.35-.11.35-.11l.35 1.65c-.31.09-.73.18-.73.18-.42.09-.97.09-.97.09-.71 0-1.21-.22-1.21-.22-.5-.22-.82-.6-.82-.6-.32-.39-.46-.94-.46-.94-.15-.55-.15-1.21-.15-1.21V8.23zm4.44 5.87zm.56-3.82c0-.96.31-1.7.31-1.7.31-.75.82-1.26.82-1.26.52-.51 1.2-.77 1.2-.77.68-.27 1.4-.27 1.4-.27.73 0 1.4.27 1.4.27.67.27 1.18.77 1.18.77.51.51.82 1.26.82 1.26.3.74.3 1.7.3 1.7 0 .95-.31 1.7-.31 1.7-.31.74-.83 1.25-.83 1.25-.51.51-1.18.78-1.18.78-.67.27-1.39.27-1.39.27-.72 0-1.4-.27-1.4-.27-.68-.27-1.19-.78-1.19-.78-.52-.51-.824-1.26-.824-1.26-.31-.75-.31-1.7-.31-1.7zm0 0zm2.32 0c0 1 .35 1.58.35 1.58.35.59 1.06.59 1.06.59.7 0 1.05-.58 1.05-.58.35-.58.35-1.58.35-1.58 0-1-.35-1.59-.35-1.59-.36-.59-1.05-.59-1.05-.59-.71 0-1.06.58-1.06.58-.34.59-.34 1.59-.34 1.59zm8.87 3.82zm.93-7.64h2.27v4.45c0 .83.23 1.14.23 1.14.23.31.72.31.72.31.43 0 .73-.2.73-.2.29-.2.63-.65.63-.65v-5h2.27v7.64h-1.85l-.17-1.07h-.05c-.49.58-1.05.91-1.05.91-.56.33-1.34.33-1.34.33-1.25 0-1.81-.82-1.81-.82-.56-.82-.56-2.27-.56-2.27V6.46zm7.83 7.64zm1.34-2.3c.52.4 1 .6 1 .6.48.2.97.2.97.2.51 0 .74-.17.74-.17.23-.17.23-.47.23-.47 0-.19-.13-.33-.13-.33-.13-.15-.36-.27-.36-.27-.23-.13-.5-.23-.5-.23-.28-.1-.57-.23-.57-.23-.36-.14-.71-.32-.71-.32-.35-.19-.65-.46-.65-.46-.29-.27-.48-.63-.48-.63-.18-.36-.18-.84-.18-.84 0-.53.21-.97.21-.97.21-.45.59-.76.59-.76.39-.3.93-.48.93-.48.54-.18 1.2-.18 1.2-.18.88 0 1.54.3 1.54.3.66.3 1.16.67 1.16.67l-1.02 1.37c-.41-.31-.82-.48-.82-.48-.4-.17-.8-.17-.8-.17-.87 0-.87.61-.87.61 0 .18.13.31.13.31.13.13.33.24.33.24.21.11.48.21.48.21l.57.21c.37.13.73.31.73.31.36.18.66.44.66.44.3.26.48.64.48.64.19.37.19.9.19.9 0 .52-.2.97-.2.97-.2.44-.6.77-.6.77-.4.33-.99.53-.99.53-.58.19-1.35.19-1.35.19-.76 0-1.55-.29-1.55-.29-.79-.3-1.38-.77-1.38-.77zm5.48 2.3zm.55-3.82c0-.93.31-1.67.31-1.67.31-.75.81-1.27.81-1.27.5-.52 1.14-.79 1.14-.79.64-.28 1.34-.28 1.34-.28.81 0 1.42.28 1.42.28.6.28 1.01.77 1.01.77.41.49.61 1.16.61 1.16.2.67.2 1.45.2 1.45 0 .31-.03.56-.03.56-.03.25-.07.39-.07.39h-4.57c.16.88.69 1.27.69 1.27.53.39 1.3.39 1.3.39.82 0 1.65-.51 1.65-.51l.75 1.37c-.58.4-1.3.64-1.3.64-.71.23-1.41.23-1.41.23-.81 0-1.52-.27-1.52-.27-.71-.27-1.23-.79-1.23-.79-.52-.51-.82-1.25-.82-1.25-.29-.74-.29-1.69-.29-1.69zm0 0zm4.93-.79c0-.67-.3-1.08-.3-1.08-.29-.41-.99-.41-.99-.41-.54 0-.94.36-.94.36-.41.36-.53 1.13-.53 1.13h2.76zm2.49 4.6zm.94-1.23c0-.62.39-1.03.39-1.03.39-.41.98-.41.98-.41.58 0 .97.41.97.41.39.41.39 1.02.39 1.02 0 .6-.39 1-.39 1-.39.41-.98.41-.98.41-.58 0-.98-.41-.98-.41-.39-.41-.39-1.01-.39-1.01z"/><path fill="none" stroke="#D3D3D3" stroke-miterlimit="10" d="M55.41 738h919.593M55.41 503.667h919.593M55.41 269.333h919.593M55.41 35h919.593" stroke-dasharray="5 5"/><g fill="#5C3566" stroke-opacity="0" stroke-width="0" stroke-miterlimit="10" stroke-linejoin="bevel"><defs><clipPath id="a"><path d="M55.41 35v703h919.593V35z"/></clipPath></defs><g clip-path="url(#a)"><path stroke="none" d="M70.41 738v-41.008h153.918V738z"/></g></g><g fill-opacity="0" stroke-miterlimit="10"><defs><clipPath id="b"><path d="M55.41 35v703h919.593V35z"/></clipPath></defs><g clip-path="url(#b)"><path fill="none" d="M70.41 738v-41.008h153.918V738z"/></g></g><g fill="#5C3566" stroke-opacity="0" stroke-width="0" stroke-miterlimit="10" stroke-linejoin="bevel"><defs><clipPath id="c"><path d="M55.41 35v703h919.593V35z"/></clipPath></defs><g clip-path="url(#c)"><path stroke="none" d="M254.328 738V516.555h153.92V738z"/></g></g><g fill-opacity="0" stroke-miterlimit="10"><defs><clipPath id="d"><path d="M55.41 35v703h919.593V35z"/></clipPath></defs><g clip-path="url(#d)"><path fill="none" d="M254.328 738V516.555h153.92V738z"/></g></g><g fill="#5C3566" stroke-opacity="0" stroke-width="0" stroke-miterlimit="10" stroke-linejoin="bevel"><defs><clipPath id="e"><path d="M55.41 35v703h919.593V35z"/></clipPath></defs><g clip-path="url(#e)"><path stroke="none" d="M438.247 738V121.703h153.92V738z"/></g></g><g fill-opacity="0" stroke-miterlimit="10"><defs><clipPath id="f"><path d="M55.41 35v703h919.593V35z"/></clipPath></defs><g clip-path="url(#f)"><path fill="none" d="M438.247 738V121.703h153.92V738z"/></g></g><g fill="#5C3566" stroke-opacity="0" stroke-width="0" stroke-miterlimit="10" stroke-linejoin="bevel"><defs><clipPath id="g"><path d="M55.41 35v703h919.593V35z"/></clipPath></defs><g clip-path="url(#g)"><path stroke="none" d="M622.166 738V269.333h153.918V738z"/></g></g><g fill-opacity="0" stroke-miterlimit="10"><defs><clipPath id="h"><path d="M55.41 35v703h919.593V35z"/></clipPath></defs><g clip-path="url(#h)"><path fill="none" d="M622.166 738V269.333h153.918V738z"/></g></g><g fill="#5C3566" stroke-opacity="0" stroke-width="0" stroke-miterlimit="10" stroke-linejoin="bevel"><defs><clipPath id="i"><path d="M55.41 35v703h919.593V35z"/></clipPath></defs><g clip-path="url(#i)"><path stroke="none" d="M806.085 738v-69.128h153.918V738z"/></g></g><g fill-opacity="0" stroke-miterlimit="10"><defs><clipPath id="j"><path d="M55.41 35v703h919.593V35z"/></clipPath></defs><g clip-path="url(#j)"><path fill="none" d="M806.085 738v-69.128h153.918V738z"/></g></g><path fill="none" stroke-miterlimit="10" d="M55.41 738V35" stroke-linecap="square"/><path fill="none" stroke-miterlimit="10" d="M55.41 738h2m-2-58.583h2m-2-58.584h2m-2-58.583h2m-2-58.583h2m-2-58.584h2m-2-58.583h2m-2-58.583h2m-2-58.584h2m-2-58.583h2m-2-58.583h2m-2-58.584h2M55.41 35h2m-2 703h5m-5-234.333h5m-5-234.334h5M55.41 35h5"/><path stroke="none" d="M41.113 741.445zm2.616.126c-1.02 0-1.59-.9-1.59-.9-.57-.9-.57-2.59-.57-2.59 0-1.69.56-2.57.56-2.57.56-.88 1.58-.88 1.58-.88 1 0 1.57.88 1.57.88.56.89.56 2.58.56 2.58 0 1.69-.57 2.6-.57 2.6-.57.91-1.58.91-1.58.91zm0 0zm0-.69c.29 0 .53-.16.53-.16.23-.16.41-.5.41-.5.17-.34.26-.87.26-.87.09-.53.09-1.26.09-1.26 0-.73-.1-1.26-.1-1.26-.1-.52-.27-.85-.27-.85-.18-.33-.41-.49-.41-.49-.24-.16-.53-.16-.53-.16-.3 0-.54.16-.54.16-.24.16-.42.49-.42.49-.18.33-.27.86-.27.86-.1.53-.1 1.26-.1 1.26 0 1.47.36 2.14.36 2.14.36.67.95.67.95.67zM30.58 507.11zm.42-.515c.757-.756 1.345-1.365 1.345-1.365.59-.61.987-1.13.987-1.13.4-.52.61-.955.61-.955.21-.436.21-.846.21-.846 0-.58-.316-.95-.316-.95-.316-.37-.956-.37-.956-.37-.423 0-.78.23-.78.23-.357.23-.65.57-.65.57l-.495-.5c.42-.46.894-.74.894-.74.47-.28 1.13-.28 1.13-.28.93 0 1.47.54 1.47.54.53.54.53 1.43.53 1.43 0 .47-.21.95-.21.95-.21.48-.57.99-.57.99-.37.51-.86 1.06-.86 1.06-.5.55-1.1 1.17-1.1 1.17l.56-.05c.29-.02.56-.02.56-.02h1.94v.74H31v-.52zm4.8.515zm2.616.126c-1.02 0-1.586-.903-1.586-.903-.567-.904-.567-2.595-.567-2.595 0-1.69.57-2.573.57-2.573.565-.883 1.584-.883 1.584-.883 1.01 0 1.576.883 1.576.883.57.882.57 2.573.57 2.573 0 1.69-.568 2.595-.568 2.595-.567.903-1.576.903-1.576.903zm0 0zm0-.693c.294 0 .53-.163.53-.163.237-.163.41-.504.41-.504.174-.342.27-.872.27-.872.094-.53.094-1.266.094-1.266 0-.735-.095-1.26-.095-1.26-.093-.526-.266-.856-.266-.856-.18-.33-.41-.49-.41-.49-.24-.156-.53-.156-.53-.156-.3 0-.54.157-.54.157-.25.158-.42.49-.42.49-.18.33-.27.855-.27.855-.1.525-.1 1.26-.1 1.26 0 1.47.36 2.138.36 2.138.36.667.95.667.95.667zm2.605.567zm2.62.126c-1.02 0-1.58-.903-1.58-.903-.56-.904-.56-2.595-.56-2.595 0-1.69.57-2.573.57-2.573.57-.883 1.59-.883 1.59-.883 1.01 0 1.57.883 1.57.883.57.882.57 2.573.57 2.573 0 1.69-.56 2.595-.56 2.595-.57.903-1.57.903-1.57.903zm0 0zm0-.693c.3 0 .53-.163.53-.163.24-.163.41-.504.41-.504.18-.342.27-.872.27-.872.1-.53.1-1.266.1-1.266 0-.735-.09-1.26-.09-1.26-.09-.526-.27-.856-.27-.856-.17-.33-.41-.49-.41-.49-.23-.156-.53-.156-.53-.156-.29 0-.53.157-.53.157-.24.158-.41.49-.41.49-.17.33-.27.855-.27.855-.09.525-.09 1.26-.09 1.26 0 1.47.37 2.138.37 2.138.36.667.95.667.95.667zM30.39 272.78zm3.192-2.543v-1.944c0-.273.016-.646.016-.646.015-.373.036-.646.036-.646h-.042c-.126.25-.262.48-.262.48l-.284.48-1.565 2.29h2.11zm0 0zm1.733.693H34.4v1.85h-.818v-1.85h-3.015v-.567l2.868-4.286h.966v4.16h.92v.693zm.294 1.85zm2.61.125c-1.02 0-1.59-.904-1.59-.904-.57-.9-.57-2.59-.57-2.59 0-1.69.57-2.57.57-2.57.56-.88 1.58-.88 1.58-.88 1.01 0 1.57.89 1.57.89.57.89.57 2.58.57 2.58 0 1.69-.57 2.6-.57 2.6-.57.91-1.58.91-1.58.91zm0 0zm0-.693c.29 0 .53-.163.53-.163.23-.17.41-.51.41-.51.17-.34.27-.87.27-.87.09-.53.09-1.27.09-1.27 0-.74-.1-1.26-.1-1.26-.1-.53-.27-.86-.27-.86-.18-.33-.41-.49-.41-.49-.24-.16-.53-.16-.53-.16-.3 0-.54.16-.54.16-.24.15-.42.49-.42.49-.17.33-.27.85-.27.85-.1.52-.1 1.26-.1 1.26 0 1.47.36 2.14.36 2.14.36.66.95.66.95.66zm2.6.567zm2.61.12c-1.02 0-1.59-.91-1.59-.91-.57-.91-.57-2.6-.57-2.6 0-1.69.56-2.58.56-2.58.56-.89 1.58-.89 1.58-.89 1.01 0 1.57.88 1.57.88.56.88.56 2.57.56 2.57 0 1.69-.57 2.59-.57 2.59-.56.9-1.57.9-1.57.9zm0 0zm0-.7c.29 0 .53-.17.53-.17.23-.17.41-.51.41-.51.17-.34.27-.87.27-.87.09-.53.09-1.27.09-1.27 0-.74-.1-1.26-.1-1.26-.1-.53-.27-.86-.27-.86-.18-.33-.41-.49-.41-.49-.24-.16-.53-.16-.53-.16-.3 0-.54.16-.54.16-.24.16-.42.49-.42.49-.18.33-.27.85-.27.85-.1.52-.1 1.26-.1 1.26 0 1.47.36 2.14.36 2.14.36.66.95.66.95.66zM30.71 38.44zm2.815-.553c.25 0 .46-.11.46-.11.21-.108.362-.3.362-.3.153-.197.242-.46.242-.46.09-.27.09-.6.09-.6 0-.668-.31-1.04-.31-1.04-.31-.38-.94-.38-.94-.38-.32 0-.69.2-.69.2-.38.205-.71.677-.71.677.08.99.45 1.5.45 1.5.37.51 1.01.51 1.01.51zm0 0zm1.37-5.03c-.21-.24-.5-.383-.5-.383-.29-.14-.604-.14-.604-.14-.34 0-.66.15-.66.15-.31.145-.55.48-.55.48-.24.338-.39.88-.39.88-.14.54-.15 1.34-.15 1.34.32-.39.74-.614.74-.614.42-.225.83-.225.83-.225.88 0 1.4.515 1.4.515.52.515.52 1.555.52 1.555 0 .482-.16.876-.16.876-.16.4-.43.68-.43.68-.27.29-.63.44-.63.44-.36.16-.77.16-.77.16-.49 0-.91-.2-.91-.2-.42-.2-.73-.6-.73-.6-.31-.4-.48-1.01-.48-1.01-.18-.6-.18-1.41-.18-1.41 0-1.01.21-1.71.21-1.71.21-.71.57-1.15.57-1.15.36-.44.82-.65.82-.65.46-.2.96-.2.96-.2.55 0 .94.21.94.21.4.21.68.51.68.51zm1.03 5.578zm2.613.126c-1.02 0-1.585-.9-1.585-.9-.567-.9-.567-2.59-.567-2.59 0-1.69.567-2.57.567-2.57.57-.88 1.59-.88 1.59-.88 1.01 0 1.575.89 1.575.89.563.88.563 2.57.563 2.57 0 1.69-.56 2.6-.56 2.6-.56.91-1.57.91-1.57.91zm0 0zm0-.69c.296 0 .53-.16.53-.16.238-.16.41-.5.41-.5.175-.34.27-.87.27-.87.095-.53.095-1.26.095-1.26 0-.73-.098-1.26-.098-1.26-.095-.52-.268-.85-.268-.85-.175-.33-.41-.49-.41-.49-.237-.16-.53-.16-.53-.16-.296 0-.537.16-.537.16-.24.16-.414.49-.414.49-.177.33-.27.86-.27.86-.097.53-.097 1.26-.097 1.26 0 1.47.36 2.14.36 2.14.36.67.95.67.95.67zm2.607.57zm2.615.13c-1.014 0-1.58-.9-1.58-.9-.566-.9-.566-2.59-.566-2.59 0-1.69.568-2.57.568-2.57.57-.88 1.588-.88 1.588-.88 1.01 0 1.575.88 1.575.88.567.89.567 2.58.567 2.58 0 1.69-.568 2.6-.568 2.6-.568.91-1.576.91-1.576.91zm0 0zm0-.69c.3 0 .53-.16.53-.16.24-.16.41-.5.41-.5.18-.34.27-.87.27-.87.098-.53.098-1.26.098-1.26 0-.73-.093-1.26-.093-1.26-.096-.52-.27-.85-.27-.85-.173-.33-.41-.49-.41-.49-.236-.16-.53-.16-.53-.16-.294 0-.536.16-.536.16-.24.16-.41.49-.41.49-.18.33-.27.86-.27.86-.1.52-.1 1.26-.1 1.26 0 1.47.36 2.14.36 2.14.36.67.95.67.95.67z"/><path fill="none" stroke-miterlimit="10" d="M55.41 738h919.593" stroke-linecap="square"/><path stroke="none" d="M101.96 758zm.966-1.502c.367.39.866.625.866.625.5.236 1.035.236 1.035.236.683 0 1.06-.31 1.06-.31.38-.31.38-.82.38-.82 0-.26-.09-.45-.09-.45-.09-.19-.242-.32-.242-.32-.152-.13-.362-.24-.362-.24-.21-.11-.452-.22-.452-.22l-.98-.43c-.24-.11-.49-.26-.49-.26-.25-.15-.45-.36-.45-.36-.2-.21-.32-.5-.32-.5-.12-.29-.12-.67-.12-.67 0-.39.17-.73.17-.73.16-.34.45-.59.45-.59.29-.25.69-.39.69-.39.4-.14.87-.14.87-.14.62 0 1.15.23 1.15.23.53.24.9.61.9.61l-.47.56c-.32-.31-.7-.48-.7-.48-.38-.17-.87-.17-.87-.17-.57 0-.93.26-.93.26-.35.27-.35.74-.35.74 0 .25.1.42.1.42.1.17.27.3.27.3.17.14.37.23.37.23.2.1.41.19.41.19l.97.42c.29.13.56.29.56.29.26.16.45.38.45.38.19.21.3.5.3.5.11.29.11.66.11.66 0 .41-.16.76-.16.76-.16.35-.47.62-.47.62-.3.26-.73.42-.73.42-.43.15-.98.15-.98.15-.72 0-1.34-.27-1.34-.27-.62-.27-1.07-.75-1.07-.75zM107.57 758zm1.007-4.4h-.756v-.653l.8-.052.11-1.43h.73v1.43h1.38v.704h-1.37v2.83c0 .47.17.73.17.73.18.25.62.25.62.25.14 0 .29-.04.29-.04.16-.05.29-.1.29-.1l.17.65c-.21.07-.45.13-.45.13-.24.05-.49.05-.49.05-.41 0-.68-.13-.68-.13-.28-.13-.45-.35-.45-.35-.17-.22-.25-.54-.25-.54-.07-.32-.07-.7-.07-.7v-2.82zm2.542 4.4zm.86-5.105h.71l.07.924h.03c.26-.49.63-.77.63-.77.37-.29.81-.29.81-.29.3 0 .54.1.54.1l-.17.75-.23-.07c-.11-.02-.27-.02-.27-.02-.33 0-.68.26-.68.26-.35.26-.62.91-.62.91v3.3h-.86v-5.11zm2.68 5.105zm.48-2.542c0-.64.19-1.14.19-1.14.19-.5.52-.845.52-.845.32-.347.75-.525.75-.525.42-.18.9-.18.9-.18.47 0 .9.18.9.18.42.178.75.525.75.525.32.346.52.845.52.845.19.5.19 1.14.19 1.14 0 .63-.2 1.13-.2 1.13-.2.498-.52.84-.52.84-.33.34-.75.52-.75.52-.43.178-.9.178-.9.178-.47 0-.9-.18-.9-.18-.43-.177-.75-.52-.75-.52-.33-.34-.52-.84-.52-.84-.2-.498-.2-1.128-.2-1.128zm0 0zm.89 0c0 .44.1.798.1.798.1.357.3.615.3.615.19.26.46.4.46.4.27.15.6.15.6.15.32 0 .59-.14.59-.14.27-.14.47-.4.47-.4.19-.25.3-.61.3-.61.1-.35.1-.8.1-.8 0-.44-.11-.8-.11-.8-.11-.36-.3-.62-.3-.62-.2-.26-.47-.4-.47-.4-.28-.14-.6-.14-.6-.14-.33 0-.6.14-.6.14-.27.14-.47.41-.47.41-.2.26-.3.63-.3.63-.11.37-.11.81-.11.81zm4.32 2.542zm.86-5.105h.71l.07.735h.03c.36-.367.77-.614.77-.614.4-.247.94-.247.94-.247.81 0 1.18.5 1.18.5.37.5.37 1.49.37 1.49V758h-.87v-3.12c0-.724-.23-1.045-.23-1.045-.23-.32-.74-.32-.74-.32-.4 0-.71.2-.71.2-.3.2-.69.588-.69.588V758h-.86v-5.105zm4.88 5.105zm1.23.86c0 .41.39.653.39.653.39.24 1.08.24 1.08.24.36 0 .66-.088.66-.088.3-.09.51-.23.51-.23.21-.143.32-.332.32-.332.11-.19.11-.39.11-.39 0-.356-.26-.492-.26-.492-.26-.13-.77-.13-.77-.13h-.88c-.15 0-.32-.01-.32-.01-.18-.01-.34-.07-.34-.07-.28.2-.4.42-.4.42-.13.22-.13.44-.13.44zm0 0zm-.76.117c0-.326.2-.62.2-.62.2-.294.54-.535.54-.535v-.042c-.19-.116-.32-.32-.32-.32-.13-.206-.13-.51-.13-.51 0-.326.18-.568.18-.568.18-.24.38-.378.38-.378v-.042c-.26-.21-.46-.562-.46-.562-.21-.352-.21-.814-.21-.814 0-.42.15-.756.15-.756.15-.336.41-.573.41-.573.26-.236.61-.362.61-.362.35-.126.74-.126.74-.126.21 0 .39.03.39.03.18.03.33.09.33.09h1.78v.66h-1.05c.18.18.3.45.3.45.12.27.12.6.12.6 0 .41-.15.74-.15.74-.15.33-.4.55-.4.55-.25.22-.59.35-.59.35-.34.12-.73.12-.73.12-.19 0-.39-.05-.39-.05-.2-.05-.38-.13-.38-.13-.14.11-.23.25-.23.25-.1.14-.1.35-.1.35 0 .24.19.4.19.4.18.16.71.16.71.16h.98c.89 0 1.34.29 1.34.29.44.28.44.92.44.92 0 .35-.17.67-.17.67-.18.32-.52.56-.52.56-.34.24-.82.38-.82.38-.48.14-1.08.14-1.08.14-.48 0-.86-.09-.86-.09-.39-.09-.67-.27-.67-.27-.28-.18-.43-.43-.43-.43-.15-.25-.15-.59-.15-.59zm0 0zm2.11-3.172c.22 0 .41-.084.41-.084.19-.08.34-.24.34-.24.15-.16.23-.38.23-.38.08-.22.08-.51.08-.51 0-.56-.32-.87-.32-.87-.32-.31-.77-.31-.77-.31-.45 0-.77.31-.77.31-.32.31-.32.88-.32.88 0 .29.08.51.08.51.08.23.24.39.24.39.15.16.34.24.34.24.19.09.41.09.41.09zm2.71 2.195zm.86-7.48h.86v6.514c0 .21.07.294.07.294.07.084.16.084.16.084h.08l.11-.02.11.65c-.08.042-.2.063-.2.063-.11.02-.29.02-.29.02-.5 0-.71-.293-.71-.293-.21-.294-.21-.86-.21-.86v-6.45zm1.81 7.48zm.52 1.408l.19.047.2.026c.44 0 .72-.31.72-.31.27-.31.43-.78.43-.78l.11-.38-2.05-5.11h.89l1.04 2.83.24.71c.13.37.25.73.25.73h.04c.11-.34.22-.72.22-.72.1-.38.21-.71.21-.71l.91-2.82h.84l-1.92 5.53c-.14.38-.31.7-.31.7-.17.33-.4.56-.4.56-.23.24-.53.38-.53.38-.3.14-.69.14-.69.14-.18 0-.32-.02-.32-.02-.15-.02-.28-.08-.28-.08l.17-.68zM141.1 758zm.493-2.542c0-.62.183-1.12.183-1.12.184-.498.49-.844.49-.844.304-.347.703-.536.703-.536.4-.19.84-.19.84-.19.44 0 .76.158.76.158.32.158.66.43.66.43l-.04-.87v-1.965h.87V758h-.72l-.08-.6h-.04c-.31.295-.7.51-.7.51-.4.216-.85.216-.85.216-.97 0-1.54-.693-1.54-.693-.57-.693-.57-1.975-.57-1.975zm0 0zm.893-.01c0 .924.367 1.44.367 1.44.368.513 1.04.513 1.04.513.357 0 .672-.17.672-.17.316-.17.63-.53.63-.53v-2.67c-.325-.29-.624-.41-.624-.41-.3-.12-.61-.12-.61-.12-.3 0-.57.14-.57.14-.27.15-.47.4-.47.4-.2.26-.31.62-.31.62-.11.36-.11.8-.11.8zM146.93 758zm1.3-6.155c-.25 0-.424-.158-.424-.158-.173-.158-.173-.4-.173-.4 0-.25.173-.404.173-.404.173-.152.425-.152.425-.152.26 0 .43.16.43.16.18.16.18.41.18.41 0 .24-.17.4-.17.4-.17.16-.42.16-.42.16zm0 0zm-.44 1.05h.86V758h-.86v-5.105zm1.72 5.105zm.725-1.155c.336.273.688.44.688.44.352.17.814.17.814.17.503 0 .755-.232.755-.232.252-.23.252-.567.252-.567 0-.2-.105-.347-.105-.347-.11-.15-.27-.26-.27-.26-.16-.11-.38-.2-.38-.2l-.42-.17c-.27-.1-.55-.22-.55-.22-.28-.12-.49-.3-.49-.3-.22-.18-.36-.41-.36-.41-.14-.23-.14-.56-.14-.56 0-.31.12-.58.12-.58.12-.27.34-.46.34-.46.22-.19.55-.31.55-.31.32-.11.73-.11.73-.11.48 0 .88.17.88.17.4.16.69.41.69.41l-.41.54c-.27-.2-.55-.33-.55-.33-.28-.13-.62-.13-.62-.13-.48 0-.71.22-.71.22-.22.22-.22.51-.22.51 0 .18.09.31.09.31.09.13.25.23.25.23.16.1.36.18.36.18l.43.16c.27.1.55.22.55.22.28.11.5.29.5.29.22.17.36.42.36.42.14.25.14.61.14.61 0 .31-.12.59-.12.59-.12.27-.36.48-.36.48-.24.21-.59.33-.59.33-.35.12-.8.12-.8.12-.55 0-1.04-.2-1.04-.2-.49-.2-.86-.51-.86-.51zM153.91 758zm.61-1.323c0-.84.75-1.287.75-1.287.753-.447 2.39-.625 2.39-.625 0-.242-.046-.473-.046-.473-.047-.23-.168-.41-.168-.41-.12-.178-.32-.29-.32-.29-.2-.11-.515-.11-.515-.11-.45 0-.83.17-.83.17-.38.167-.69.377-.69.377l-.34-.6c.36-.23.88-.45.88-.45.52-.22 1.14-.22 1.14-.22.94 0 1.36.57 1.36.57.42.57.42 1.53.42 1.53V758h-.71l-.07-.61h-.02c-.37.306-.79.52-.79.52-.42.216-.9.216-.9.216-.65 0-1.07-.378-1.07-.378-.42-.378-.42-1.07-.42-1.07zm0 0zm.85-.064c0 .442.26.63.26.63.257.19.635.19.635.19.368 0 .7-.173.7-.173.33-.174.697-.51.697-.51v-1.418c-.64.084-1.082.2-1.082.2-.44.115-.708.273-.708.273-.268.157-.383.362-.383.362-.12.205-.12.446-.12.446zm3.92 1.387zm1.23.86c0 .41.394.653.394.653.394.24 1.087.24 1.087.24.37 0 .67-.088.67-.088.3-.09.51-.23.51-.23.21-.143.33-.332.33-.332.12-.19.12-.39.12-.39 0-.356-.26-.492-.26-.492-.26-.13-.76-.13-.76-.13h-.88c-.14 0-.32-.01-.32-.01-.17-.01-.34-.07-.34-.07-.27.2-.4.42-.4.42-.12.22-.12.44-.12.44zm0 0zm-.756.117c0-.326.2-.62.2-.62.2-.294.546-.535.546-.535v-.042c-.19-.116-.32-.32-.32-.32-.132-.206-.132-.51-.132-.51 0-.326.18-.568.18-.568.177-.24.377-.378.377-.378v-.042c-.252-.21-.457-.562-.457-.562-.205-.352-.205-.814-.205-.814 0-.42.152-.756.152-.756.153-.336.415-.573.415-.573.263-.236.615-.362.615-.362.352-.126.74-.126.74-.126.21 0 .394.03.394.03.18.03.33.09.33.09h1.77v.66h-1.05c.18.18.3.45.3.45.12.27.12.6.12.6 0 .41-.15.74-.15.74-.15.33-.4.55-.4.55-.25.22-.6.35-.6.35-.34.12-.73.12-.73.12-.19 0-.39-.05-.39-.05-.2-.05-.38-.13-.38-.13-.14.11-.23.25-.23.25-.1.14-.1.35-.1.35 0 .24.19.4.19.4.19.16.71.16.71.16h.98c.89 0 1.34.29 1.34.29.45.28.45.92.45.92 0 .35-.18.67-.18.67-.18.32-.52.56-.52.56-.34.24-.82.38-.82.38-.48.14-1.08.14-1.08.14-.47 0-.86-.09-.86-.09-.39-.09-.67-.27-.67-.27-.28-.18-.43-.43-.43-.43-.15-.25-.15-.59-.15-.59zm0 0zm2.11-3.172c.222 0 .416-.084.416-.084.195-.08.347-.24.347-.24.152-.16.236-.38.236-.38.084-.22.084-.51.084-.51 0-.56-.315-.87-.315-.87-.315-.31-.767-.31-.767-.31-.45 0-.767.31-.767.31-.315.31-.315.88-.315.88 0 .29.084.51.084.51.084.23.237.39.237.39.152.16.346.24.346.24.195.09.415.09.415.09zm2.71 2.195zm.863-5.105h.714l.08.924h.03c.27-.49.64-.77.64-.77.37-.29.82-.29.82-.29.31 0 .55.1.55.1l-.17.75c-.12-.04-.23-.07-.23-.07-.1-.02-.26-.02-.26-.02-.32 0-.67.26-.67.26-.35.26-.61.91-.61.91v3.3h-.86v-5.11zm2.678 5.105zm.483-2.542c0-.63.195-1.13.195-1.13.194-.498.514-.845.514-.845.32-.346.73-.53.73-.53.41-.184.85-.184.85-.184.484 0 .868.16.868.16.383.17.64.48.64.48.258.31.395.75.395.75.136.44.136.98.136.98 0 .28-.03.47-.03.47h-3.447c.05.83.51 1.31.51 1.31.45.48 1.19.48 1.19.48.37 0 .68-.11.68-.11.3-.11.59-.29.59-.29l.3.56c-.34.21-.75.37-.75.37-.41.16-.94.16-.94.16-.52 0-.96-.19-.96-.19-.45-.19-.78-.53-.78-.53-.33-.34-.52-.84-.52-.84-.19-.5-.19-1.13-.19-1.13zm0 0zm3.572-.39c0-.786-.33-1.2-.33-1.2-.332-.416-.93-.416-.93-.416-.274 0-.52.11-.52.11-.247.11-.447.315-.447.315-.2.205-.33.504-.33.504-.132.3-.174.69-.174.69h2.73zm1.155 2.932zm.484-2.542c0-.63.19-1.13.19-1.13.19-.498.51-.845.51-.845.32-.346.73-.53.73-.53.41-.184.85-.184.85-.184.48 0 .86.16.86.16.38.17.64.48.64.48.26.31.39.75.39.75.13.44.13.98.13.98 0 .28-.03.47-.03.47h-3.45c.05.83.51 1.31.51 1.31.46.48 1.19.48 1.19.48.37 0 .68-.11.68-.11.31-.11.59-.29.59-.29l.3.56c-.34.21-.75.37-.75.37-.41.16-.94.16-.94.16-.52 0-.96-.19-.96-.19-.45-.19-.78-.53-.78-.53-.33-.34-.52-.84-.52-.84-.19-.5-.19-1.13-.19-1.13zm0 0zm3.57-.39c0-.786-.33-1.2-.33-1.2-.34-.416-.93-.416-.93-.416-.28 0-.52.11-.52.11-.25.11-.45.315-.45.315-.2.205-.33.504-.33.504-.13.3-.18.69-.18.69h2.73zm1.15 2.932zm.68-4.317c0-.305.18-.49.18-.49.18-.182.44-.182.44-.182.25 0 .43.19.43.19.18.19.18.49.18.49 0 .28-.18.47-.18.47-.19.19-.44.19-.44.19-.26 0-.45-.18-.45-.18-.18-.18-.18-.46-.18-.46zm0 0zm0 3.792c0-.305.18-.49.18-.49.18-.182.44-.182.44-.182.25 0 .43.183.43.183.18.184.18.49.18.49 0 .282-.18.466-.18.466-.19.184-.44.184-.44.184-.26 0-.45-.184-.45-.184-.18-.184-.18-.467-.18-.467zm4.05.525zm.71-1.387c.3.315.71.557.71.557.4.242 1 .242 1 .242.61 0 .99-.33.99-.33.39-.332.39-.9.39-.9 0-.293-.11-.54-.11-.54-.12-.247-.37-.426-.37-.426-.25-.178-.66-.273-.66-.273-.41-.094-1.01-.094-1.01-.094v-.67c.53 0 .9-.1.9-.1.36-.1.59-.26.59-.26.22-.17.32-.4.32-.4.09-.23.09-.5.09-.5 0-.5-.31-.78-.31-.78-.31-.29-.85-.29-.85-.29-.42 0-.78.19-.78.19-.35.18-.66.49-.66.49l-.47-.55c.39-.37.86-.61.86-.61.47-.24 1.06-.24 1.06-.24.44 0 .81.11.81.11.37.11.63.33.63.33.27.21.42.53.42.53.15.31.15.72.15.72 0 .61-.34 1-.34 1-.33.39-.88.6-.88.6v.04c.31.07.57.21.57.21.26.14.46.35.46.35.2.21.31.5.31.5.11.28.11.63.11.63 0 .44-.18.79-.18.79-.17.35-.47.6-.47.6-.3.25-.7.38-.7.38-.4.13-.86.13-.86.13-.4 0-.73-.08-.73-.08-.33-.08-.61-.21-.61-.21-.28-.13-.49-.3-.49-.3-.22-.17-.39-.36-.39-.36zM188.5 758zm.684-1.355c.294.305.7.536.7.536.403.24.99.24.99.24.306 0 .574-.11.574-.11.267-.11.466-.31.466-.31.2-.2.315-.48.315-.48.11-.28.11-.63.11-.63 0-.69-.39-1.08-.39-1.08-.39-.39-1.04-.39-1.04-.39-.35 0-.59.11-.59.11-.25.11-.55.31-.55.31l-.46-.29.22-3.22h3.35v.75h-2.6l-.18 1.99c.24-.13.48-.2.48-.2.24-.07.55-.07.55-.07.43 0 .81.13.81.13.37.13.66.39.66.39.28.26.44.65.44.65.16.4.16.94.16.94 0 .55-.19.97-.19.97-.19.42-.51.71-.51.71-.32.29-.72.44-.72.44-.41.15-.85.15-.85.15-.4 0-.73-.08-.73-.08-.33-.08-.6-.2-.6-.2-.27-.12-.49-.28-.49-.28-.22-.16-.39-.34-.39-.34zM302.78 758zm.945-6.89h1.722c1.597 0 2.427.882 2.427.882.83.882.83 2.53.83 2.53 0 .82-.21 1.466-.21 1.466-.21.646-.62 1.093-.62 1.093-.41.45-1.01.69-1.01.69-.597.24-1.375.24-1.375.24h-1.77v-6.89zm0 0zm1.66 6.176c1.207 0 1.81-.725 1.81-.725.605-.72.605-2.03.605-2.03 0-1.31-.604-2-.604-2-.604-.69-1.812-.69-1.812-.69h-.788v5.46h.788zm3.854.714zm1.3-6.155c-.25 0-.43-.158-.43-.158-.18-.158-.18-.4-.18-.4 0-.25.17-.404.17-.404.17-.152.42-.152.42-.152.25 0 .42.16.42.16.17.16.17.41.17.41 0 .24-.18.4-.18.4-.18.16-.43.16-.43.16zm0 0zm-.44 1.05h.86V758h-.86v-5.105zm1.72 5.105zm.72-1.155c.33.273.69.44.69.44.35.17.81.17.81.17.5 0 .75-.232.75-.232.25-.23.25-.567.25-.567 0-.2-.11-.347-.11-.347-.11-.15-.27-.26-.27-.26-.16-.11-.37-.2-.37-.2l-.42-.17c-.28-.1-.55-.22-.55-.22-.28-.12-.49-.3-.49-.3-.22-.18-.35-.41-.35-.41-.14-.23-.14-.56-.14-.56 0-.31.12-.58.12-.58.12-.27.34-.46.34-.46.23-.19.55-.31.55-.31.33-.11.74-.11.74-.11.48 0 .88.17.88.17.4.16.7.41.7.41l-.41.54c-.27-.2-.55-.33-.55-.33-.29-.13-.62-.13-.62-.13-.49 0-.71.22-.71.22-.23.22-.23.51-.23.51 0 .18.09.31.09.31.09.13.25.23.25.23.16.1.36.18.36.18l.43.16c.27.1.55.22.55.22.28.11.5.29.5.29.22.17.36.42.36.42.14.25.14.61.14.61 0 .31-.12.59-.12.59-.12.27-.36.48-.36.48-.24.21-.59.33-.59.33-.35.12-.81.12-.81.12-.55 0-1.04-.2-1.04-.2-.5-.2-.87-.51-.87-.51zm3.68 1.155zm.61-1.323c0-.84.75-1.287.75-1.287.75-.447 2.39-.625 2.39-.625 0-.242-.05-.473-.05-.473-.05-.23-.17-.41-.17-.41-.12-.178-.32-.29-.32-.29-.2-.11-.52-.11-.52-.11-.45 0-.84.17-.84.17-.39.167-.69.377-.69.377l-.35-.6c.36-.23.87-.45.87-.45.51-.22 1.13-.22 1.13-.22.93 0 1.35.57 1.35.57.42.57.42 1.53.42 1.53V758h-.72l-.08-.61c-.37.306-.8.52-.8.52-.42.216-.89.216-.89.216-.65 0-1.08-.378-1.08-.378-.43-.378-.43-1.07-.43-1.07zm0 0zm.85-.064c0 .442.25.63.25.63.26.19.63.19.63.19.36 0 .7-.173.7-.173.33-.174.7-.51.7-.51v-1.418c-.64.084-1.09.2-1.09.2-.44.115-.71.273-.71.273-.27.157-.39.362-.39.362-.12.205-.12.446-.12.446zM321.6 758zm1.23.86c0 .41.394.653.394.653.394.24 1.087.24 1.087.24.37 0 .67-.088.67-.088.3-.09.51-.23.51-.23.21-.143.33-.332.33-.332.12-.19.12-.39.12-.39 0-.356-.26-.492-.26-.492-.26-.13-.76-.13-.76-.13h-.88c-.15 0-.32-.01-.32-.01-.17-.01-.34-.07-.34-.07-.27.2-.4.42-.4.42-.12.22-.12.44-.12.44zm0 0zm-.757.117c0-.326.2-.62.2-.62.2-.294.546-.535.546-.535v-.042c-.19-.116-.32-.32-.32-.32-.13-.206-.13-.51-.13-.51 0-.326.17-.568.17-.568.18-.24.38-.378.38-.378v-.042c-.25-.21-.46-.562-.46-.562-.21-.352-.21-.814-.21-.814 0-.42.15-.756.15-.756.15-.336.41-.573.41-.573.26-.236.61-.362.61-.362.35-.126.74-.126.74-.126.21 0 .39.03.39.03.18.03.33.09.33.09h1.77v.66h-1.05c.18.18.3.45.3.45.12.27.12.6.12.6 0 .41-.15.74-.15.74-.15.33-.4.55-.4.55-.26.22-.6.35-.6.35-.34.12-.73.12-.73.12-.19 0-.39-.05-.39-.05-.2-.05-.38-.13-.38-.13-.14.11-.23.25-.23.25-.1.14-.1.35-.1.35 0 .24.19.4.19.4.19.16.71.16.71.16h.99c.89 0 1.34.29 1.34.29.44.28.44.92.44.92 0 .35-.18.67-.18.67-.18.32-.52.56-.52.56-.34.24-.82.38-.82.38-.48.14-1.08.14-1.08.14-.47 0-.86-.09-.86-.09-.39-.09-.67-.27-.67-.27-.28-.18-.43-.43-.43-.43-.16-.25-.16-.59-.16-.59zm0 0zm2.112-3.172c.22 0 .415-.084.415-.084.195-.08.347-.24.347-.24.153-.16.237-.38.237-.38.084-.22.084-.51.084-.51 0-.56-.316-.87-.316-.87-.315-.31-.767-.31-.767-.31-.452 0-.767.31-.767.31-.315.31-.315.88-.315.88 0 .29.084.51.084.51.083.23.235.39.235.39.153.16.347.24.347.24.19.09.41.09.41.09zm2.71 2.195zm.86-5.105h.716l.08.924h.03c.26-.49.64-.77.64-.77.38-.29.82-.29.82-.29.31 0 .55.1.55.1l-.16.75c-.12-.04-.23-.07-.23-.07-.1-.02-.26-.02-.26-.02-.32 0-.67.26-.67.26-.35.26-.61.91-.61.91v3.3h-.86v-5.11zm2.68 5.105zm.483-2.542c0-.63.193-1.13.193-1.13.2-.498.52-.845.52-.845.32-.346.73-.53.73-.53.41-.184.85-.184.85-.184.49 0 .87.16.87.16.39.17.64.48.64.48.26.31.4.75.4.75.14.44.14.98.14.98 0 .28-.03.47-.03.47h-3.44c.05.83.51 1.31.51 1.31.46.48 1.19.48 1.19.48.37 0 .68-.11.68-.11.31-.11.6-.29.6-.29l.31.56c-.33.21-.74.37-.74.37-.41.16-.93.16-.93.16-.51 0-.96-.19-.96-.19-.45-.19-.78-.53-.78-.53-.33-.34-.52-.84-.52-.84-.19-.5-.19-1.13-.19-1.13zm0 0zm3.57-.39c0-.786-.33-1.2-.33-1.2-.33-.416-.93-.416-.93-.416-.273 0-.52.11-.52.11-.247.11-.446.315-.446.315-.2.205-.33.504-.33.504-.133.3-.175.69-.175.69h2.73zm1.156 2.932zm.483-2.542c0-.63.193-1.13.193-1.13.195-.498.515-.845.515-.845.32-.346.73-.53.73-.53.41-.184.85-.184.85-.184.483 0 .867.16.867.16.383.17.64.48.64.48.258.31.394.75.394.75.137.44.137.98.137.98 0 .28-.032.47-.032.47h-3.44c.06.83.51 1.31.51 1.31.46.48 1.2.48 1.2.48.37 0 .68-.11.68-.11.31-.11.6-.29.6-.29l.31.56c-.33.21-.74.37-.74.37-.41.16-.93.16-.93.16-.51 0-.96-.19-.96-.19-.44-.19-.77-.53-.77-.53-.33-.34-.52-.84-.52-.84-.19-.5-.19-1.13-.19-1.13zm0 0zm3.57-.39c0-.786-.33-1.2-.33-1.2-.33-.416-.93-.416-.93-.416-.273 0-.52.11-.52.11-.247.11-.446.315-.446.315-.2.205-.33.504-.33.504-.13.3-.17.69-.17.69h2.73zm1.156 2.932zm.683-4.317c0-.305.183-.49.183-.49.18-.182.44-.182.44-.182.25 0 .43.19.43.19.18.19.18.49.18.49 0 .28-.19.47-.19.47-.19.19-.44.19-.44.19-.27 0-.45-.18-.45-.18-.19-.18-.19-.46-.19-.46zm0 0zm0 3.792c0-.305.183-.49.183-.49.18-.182.44-.182.44-.182.25 0 .43.183.43.183.18.184.18.49.18.49 0 .282-.19.466-.19.466-.19.184-.44.184-.44.184-.27 0-.45-.184-.45-.184-.19-.184-.19-.467-.19-.467zm4.053.525zm.83-.714h1.53v-4.937h-1.22v-.56c.46-.09.8-.21.8-.21.34-.12.61-.29.61-.29h.66v5.99h1.39v.72h-3.78v-.72zm4.39.714zm1.21-1.796c0 .283.11.515.11.515.11.23.3.4.3.4.19.17.45.27.45.27.26.09.56.09.56.09.59 0 .95-.33.95-.33.36-.33.36-.85.36-.85 0-.33-.15-.56-.15-.56-.15-.23-.4-.41-.4-.41-.25-.18-.58-.32-.58-.32-.33-.15-.69-.29-.69-.29-.4.27-.67.63-.67.63-.27.36-.27.82-.27.82zm0 0zm1.89-1.86c.33-.304.52-.64.52-.64.18-.336.18-.704.18-.704 0-.504-.31-.846-.31-.846-.31-.34-.86-.34-.86-.34-.48 0-.78.293-.78.293-.31.294-.31.788-.31.788 0 .304.12.52.12.52.12.215.34.383.34.383.21.168.49.3.49.3.28.13.58.246.58.246zm0 0zm-2.67 1.944c0-.326.11-.604.11-.604.11-.28.28-.504.28-.504.17-.226.4-.4.4-.4.22-.173.46-.3.46-.3v-.04c-.37-.264-.65-.637-.65-.637-.29-.372-.29-.908-.29-.908 0-.39.15-.704.15-.704.14-.31.4-.54.4-.54.25-.22.59-.35.59-.35.35-.12.76-.12.76-.12.44 0 .78.13.78.13.34.14.59.37.59.37.24.24.38.57.38.57.13.33.13.72.13.72 0 .26-.09.51-.09.51-.09.24-.22.45-.22.45-.13.21-.29.38-.29.38-.17.17-.32.28-.32.28v.04c.22.13.43.29.43.29.21.16.37.37.37.37.16.21.26.47.26.47.1.27.1.6.1.6 0 .38-.16.71-.16.71-.16.33-.44.57-.44.57-.29.25-.69.38-.69.38-.4.14-.88.14-.88.14-.48 0-.88-.14-.88-.14-.41-.13-.7-.38-.7-.38-.29-.24-.46-.58-.46-.58-.17-.33-.17-.73-.17-.73zm4.79 1.712zm2.47-3.256c.32 0 .7-.205.7-.205.37-.21.7-.69.7-.69-.09-.99-.46-1.49-.46-1.49-.38-.51-1.02-.51-1.02-.51-.24 0-.46.1-.46.1-.22.1-.38.3-.38.3-.16.19-.25.46-.25.46-.09.27-.09.6-.09.6 0 .66.3 1.04.3 1.04.3.37.93.37.93.37zm0 0zm-1.45 2.132c.21.242.5.39.5.39.28.146.6.146.6.146.36 0 .67-.147.67-.147.31-.147.55-.49.55-.49.24-.34.39-.886.39-.886.14-.55.15-1.36.15-1.36-.32.4-.74.63-.74.63-.42.23-.84.23-.84.23-.87 0-1.39-.52-1.39-.52-.52-.52-.52-1.56-.52-1.56 0-.49.15-.88.15-.88.16-.4.42-.68.42-.68.27-.28.63-.44.63-.44.36-.16.76-.16.76-.16.5 0 .92.2.92.2.43.2.74.6.74.6.31.4.48 1.01.48 1.01.17.6.17 1.41.17 1.41 0 1.01-.21 1.72-.21 1.72-.21.71-.57 1.15-.57 1.15-.36.44-.82.65-.82.65-.46.2-.96.2-.96.2-.54 0-.94-.2-.94-.2-.41-.2-.68-.51-.68-.51zM489.33 758zm.945-6.89h.902l2.49 4.327.745 1.43h.04c-.03-.527-.07-1.09-.07-1.09-.037-.56-.037-1.107-.037-1.107v-3.56h.83V758h-.903l-2.5-4.338-.745-1.418h-.042c.043.525.08 1.066.08 1.066.037.54.037 1.087.037 1.087V758h-.83v-6.89zm5.85 6.89zm.483-2.542c0-.63.195-1.13.195-1.13.195-.498.515-.845.515-.845.32-.346.73-.53.73-.53.41-.184.85-.184.85-.184.484 0 .867.16.867.16.383.17.64.48.64.48.26.31.394.75.394.75.14.44.14.98.14.98 0 .28-.03.47-.03.47h-3.45c.05.83.51 1.31.51 1.31.45.48 1.19.48 1.19.48.37 0 .68-.11.68-.11.31-.11.59-.29.59-.29l.3.56c-.34.21-.75.37-.75.37-.41.16-.94.16-.94.16-.51 0-.96-.19-.96-.19-.45-.19-.78-.53-.78-.53-.33-.34-.52-.84-.52-.84-.19-.5-.19-1.13-.19-1.13zm0 0zm3.57-.39c0-.786-.33-1.2-.33-1.2-.33-.416-.93-.416-.93-.416-.27 0-.52.11-.52.11-.245.11-.444.315-.444.315-.2.205-.334.504-.334.504-.132.3-.174.69-.174.69h2.73zm1.16 2.932zm.79-5.105h.87v3.12c0 .724.227 1.045.227 1.045.226.32.73.32.73.32.4 0 .704-.205.704-.205.31-.204.67-.656.67-.656v-3.63h.86V758h-.72l-.08-.798h-.04c-.36.42-.75.672-.75.672-.4.252-.93.252-.93.252-.82 0-1.19-.504-1.19-.504-.38-.504-.38-1.492-.38-1.492v-3.235zm4.926 5.105zm1.01-4.4h-.758v-.653l.8-.052.104-1.43h.725v1.43h1.377v.704h-1.377v2.83c0 .47.174.73.174.73.17.25.61.25.61.25.13 0 .29-.04.29-.04.16-.05.28-.1.28-.1l.17.65c-.21.07-.46.13-.46.13-.25.05-.49.05-.49.05-.41 0-.69-.13-.69-.13-.28-.13-.46-.35-.46-.35-.17-.22-.25-.54-.25-.54-.08-.32-.08-.7-.08-.7v-2.82zm2.54 4.4zm.862-5.105h.714l.075.924h.03c.264-.49.637-.77.637-.77.373-.29.814-.29.814-.29.304 0 .546.1.546.1l-.168.75c-.126-.04-.23-.07-.23-.07-.106-.02-.264-.02-.264-.02-.325 0-.677.26-.677.26-.352.26-.615.91-.615.91v3.3h-.86v-5.11zm2.52 5.105zm.61-1.323c0-.84.75-1.287.75-1.287.752-.447 2.39-.625 2.39-.625 0-.242-.046-.473-.046-.473-.047-.23-.167-.41-.167-.41-.12-.178-.32-.29-.32-.29-.2-.11-.515-.11-.515-.11-.452 0-.836.17-.836.17-.383.167-.688.377-.688.377l-.346-.6c.357-.23.872-.45.872-.45.514-.22 1.134-.22 1.134-.22.935 0 1.355.57 1.355.57.42.57.42 1.53.42 1.53V758h-.71l-.08-.61h-.02c-.37.306-.8.52-.8.52-.43.216-.9.216-.9.216-.65 0-1.08-.378-1.08-.378-.43-.378-.43-1.07-.43-1.07zm0 0zm.85-.064c0 .442.258.63.258.63.258.19.636.19.636.19.368 0 .7-.173.7-.173.33-.174.698-.51.698-.51v-1.418c-.64.084-1.082.2-1.082.2-.44.115-.71.273-.71.273-.267.157-.382.362-.382.362-.116.205-.116.446-.116.446zm3.92 1.387zm.86-7.48h.862v6.514c0 .21.072.294.072.294.074.084.168.084.168.084h.08l.11-.02.115.65c-.084.042-.2.063-.2.063-.115.02-.294.02-.294.02-.49 0-.7-.293-.7-.293-.21-.294-.21-.86-.21-.86v-6.45zm1.818 7.48zm.682-4.317c0-.305.184-.49.184-.49.185-.182.448-.182.448-.182.252 0 .436.19.436.19.183.19.183.49.183.49 0 .28-.188.47-.188.47-.19.19-.44.19-.44.19-.27 0-.45-.18-.45-.18-.19-.18-.19-.46-.19-.46zm0 0zm0 3.792c0-.305.184-.49.184-.49.185-.182.448-.182.448-.182.252 0 .436.183.436.183.183.184.183.49.183.49 0 .282-.188.466-.188.466-.19.184-.44.184-.44.184-.27 0-.45-.184-.45-.184-.19-.184-.19-.467-.19-.467zm4.055.525zm.69-1.355c.3.305.7.536.7.536.41.24 1 .24 1 .24.31 0 .57-.11.57-.11.27-.11.47-.31.47-.31.2-.2.32-.48.32-.48.12-.28.12-.63.12-.63 0-.69-.39-1.08-.39-1.08-.39-.39-1.04-.39-1.04-.39-.35 0-.59.11-.59.11-.24.11-.55.31-.55.31l-.46-.29.22-3.22h3.35v.75h-2.59l-.18 1.99c.24-.13.48-.2.48-.2.25-.07.55-.07.55-.07.43 0 .81.13.81.13.38.13.66.39.66.39.29.26.45.65.45.65.16.4.16.94.16.94 0 .55-.19.97-.19.97-.19.42-.5.71-.5.71-.31.29-.72.44-.72.44-.4.15-.84.15-.84.15-.4 0-.73-.08-.73-.08-.33-.08-.6-.2-.6-.2-.26-.12-.48-.28-.48-.28-.21-.16-.38-.34-.38-.34zm4.54 1.355zm.42-.515c.76-.756 1.35-1.365 1.35-1.365.59-.61.99-1.13.99-1.13.4-.52.61-.955.61-.955.21-.436.21-.846.21-.846 0-.58-.31-.95-.31-.95-.31-.37-.95-.37-.95-.37-.42 0-.77.23-.77.23-.35.23-.65.57-.65.57l-.49-.5c.42-.46.9-.74.9-.74.47-.28 1.14-.28 1.14-.28.94 0 1.47.54 1.47.54.54.54.54 1.43.54 1.43 0 .47-.2.95-.2.95-.21.48-.57.98-.57.98-.36.51-.86 1.06-.86 1.06-.5.55-1.1 1.17-1.1 1.17l.57-.04c.29-.02.55-.02.55-.02h1.95v.75h-4.33v-.52zm4.8.515zm2.82-.557c.25 0 .46-.105.46-.105.21-.105.37-.3.37-.3.16-.193.25-.46.25-.46.09-.27.09-.605.09-.605 0-.662-.3-1.04-.3-1.04-.3-.378-.93-.378-.93-.378-.31 0-.68.204-.68.204-.37.2-.71.67-.71.67.09.98.46 1.49.46 1.49.37.51 1.01.51 1.01.51zm0 0zm1.37-5.02c-.21-.242-.49-.384-.49-.384-.29-.15-.6-.15-.6-.15-.34 0-.66.14-.66.14-.31.14-.55.48-.55.48-.24.33-.39.87-.39.87-.14.54-.15 1.34-.15 1.34.32-.39.74-.62.74-.62.42-.23.83-.23.83-.23.87 0 1.39.51 1.39.51.52.51.52 1.55.52 1.55 0 .48-.16.88-.16.88-.16.39-.43.67-.43.67-.27.28-.63.44-.63.44-.36.15-.77.15-.77.15-.49 0-.91-.2-.91-.2-.42-.2-.73-.61-.73-.61-.31-.4-.49-1.01-.49-1.01-.18-.6-.18-1.41-.18-1.41 0-1.01.21-1.72.21-1.72.21-.71.57-1.15.57-1.15.36-.45.81-.65.81-.65.46-.21.96-.21.96-.21.55 0 .94.2.94.2.4.2.68.51.68.51zM676.69 758zm3.876-2.805l-.325-1.05c-.19-.578-.36-1.15-.36-1.15-.17-.573-.34-1.17-.34-1.17h-.04c-.15.597-.32 1.17-.32 1.17-.17.572-.35 1.15-.35 1.15l-.32 1.05h2.07zm0 0zm.22.704h-2.51l-.66 2.1h-.894l2.33-6.89h.99l2.33 6.89h-.934zm1.618 2.1zm1.23.86c0 .41.393.65.393.65.394.24 1.088.24 1.088.24.367 0 .667-.09.667-.09.3-.09.51-.23.51-.23.21-.15.325-.33.325-.33.115-.19.115-.39.115-.39 0-.36-.262-.49-.262-.49-.263-.14-.767-.14-.767-.14h-.88c-.144 0-.32-.02-.32-.02-.17-.02-.34-.07-.34-.07-.272.2-.4.42-.4.42-.124.22-.124.44-.124.44zm0 0zm-.757.11c0-.33.2-.62.2-.62.2-.3.546-.54.546-.54v-.04c-.183-.12-.32-.32-.32-.32-.13-.21-.13-.51-.13-.51 0-.33.18-.57.18-.57.18-.24.38-.38.38-.38v-.05c-.25-.21-.456-.56-.456-.56-.205-.35-.205-.82-.205-.82 0-.42.152-.76.152-.76.153-.34.415-.57.415-.57.26-.24.61-.36.61-.36.35-.13.74-.13.74-.13.21 0 .39.03.39.03.18.04.33.09.33.09h1.77v.66h-1.05c.18.18.3.45.3.45.12.27.12.6.12.6 0 .41-.15.74-.15.74-.15.33-.4.55-.4.55-.25.22-.6.35-.6.35-.34.12-.73.12-.73.12-.19 0-.39-.05-.39-.05-.2-.05-.38-.13-.38-.13-.14.11-.23.25-.23.25-.1.14-.1.35-.1.35 0 .24.19.4.19.4.19.15.71.15.71.15h.99c.89 0 1.34.29 1.34.29.45.29.45.93.45.93 0 .36-.18.68-.18.68-.18.32-.52.56-.52.56-.34.24-.82.38-.82.38-.48.14-1.08.14-1.08.14-.47 0-.86-.09-.86-.09-.39-.09-.67-.27-.67-.27-.28-.18-.43-.43-.43-.43-.15-.25-.15-.59-.15-.59zm0 0zm2.11-3.17c.222 0 .416-.09.416-.09.2-.09.35-.24.35-.24.15-.16.24-.39.24-.39.083-.23.083-.51.083-.51 0-.57-.315-.88-.315-.88-.31-.31-.76-.31-.76-.31-.45 0-.76.31-.76.31-.31.31-.31.87-.31.87 0 .28.09.51.09.51.09.22.24.38.24.38.15.15.35.24.35.24.2.08.42.08.42.08zm2.712 2.19zm.86-5.11h.71l.07.92h.03c.26-.49.63-.77.63-.77.37-.29.81-.29.81-.29.3 0 .54.1.54.1l-.17.76-.23-.07c-.11-.02-.27-.02-.27-.02-.32 0-.67.26-.67.26-.36.26-.62.91-.62.91v3.3h-.86v-5.11zm2.68 5.1zm.48-2.55c0-.63.19-1.13.19-1.13.19-.5.51-.85.51-.85.32-.35.73-.53.73-.53.4-.19.85-.19.85-.19.48 0 .86.16.86.16.38.16.64.48.64.48.26.31.39.75.39.75.13.44.13.99.13.99 0 .28-.03.47-.03.47h-3.45c.05.83.51 1.31.51 1.31.45.48 1.19.48 1.19.48.37 0 .68-.11.68-.11.31-.11.59-.29.59-.29l.3.57c-.34.21-.75.37-.75.37-.41.16-.93.16-.93.16-.52 0-.96-.19-.96-.19-.45-.19-.78-.53-.78-.53-.34-.34-.52-.84-.52-.84-.19-.49-.19-1.12-.19-1.12zm0 0zm3.57-.39c0-.79-.33-1.2-.33-1.2-.33-.42-.93-.42-.93-.42-.28 0-.52.11-.52.11-.25.11-.45.32-.45.32-.2.2-.33.5-.33.5-.13.3-.18.69-.18.69h2.73zm1.15 2.93zm.48-2.54c0-.63.19-1.13.19-1.13.19-.5.51-.85.51-.85.32-.35.73-.53.73-.53.4-.18.85-.18.85-.18.48 0 .86.16.86.16.38.17.64.48.64.48.26.31.39.76.39.76.13.44.13.99.13.99 0 .28-.03.47-.03.47h-3.45c.05.83.51 1.31.51 1.31.46.48 1.19.48 1.19.48.37 0 .68-.11.68-.11.31-.11.59-.29.59-.29l.3.57c-.34.21-.75.36-.75.36-.41.15-.93.15-.93.15-.52 0-.96-.19-.96-.19-.45-.18-.78-.52-.78-.52-.34-.34-.52-.84-.52-.84-.19-.49-.19-1.12-.19-1.12zm0 0zm3.57-.39c0-.79-.33-1.2-.33-1.2-.33-.42-.93-.42-.93-.42-.28 0-.52.11-.52.11-.25.11-.45.31-.45.31-.2.2-.33.5-.33.5-.13.3-.18.69-.18.69h2.73zm1.15 2.93zm.68-4.32c0-.31.18-.49.18-.49.18-.19.44-.19.44-.19.25 0 .43.18.43.18.18.18.18.49.18.49 0 .28-.19.46-.19.46-.18.18-.43.18-.43.18-.26 0-.45-.18-.45-.18-.19-.19-.19-.47-.19-.47zm0 0zm0 3.79c0-.31.18-.49.18-.49.18-.18.44-.18.44-.18.25 0 .43.18.43.18.18.18.18.49.18.49 0 .28-.19.46-.19.46-.18.18-.43.18-.43.18-.26 0-.45-.19-.45-.19-.19-.19-.19-.47-.19-.47zm4.05.52zm3.19-2.54v-1.94c0-.28.01-.65.01-.65.01-.38.03-.65.03-.65h-.04c-.13.24-.27.47-.27.47l-.28.48-1.57 2.29h2.1zm0 0zm1.73.69h-.92V758h-.82v-1.85h-3.02v-.566l2.86-4.286h.97v4.16h.91v.693zm.29 1.85zm2.61.12c-1.02 0-1.59-.91-1.59-.91-.57-.91-.57-2.6-.57-2.6 0-1.69.57-2.58.57-2.58.56-.88 1.58-.88 1.58-.88 1.01 0 1.58.88 1.58.88.57.88.57 2.57.57 2.57 0 1.69-.57 2.59-.57 2.59-.57.9-1.58.9-1.58.9zm0 0zm0-.7c.29 0 .53-.16.53-.16.24-.17.41-.51.41-.51.17-.35.27-.88.27-.88.09-.53.09-1.27.09-1.27 0-.74-.1-1.26-.1-1.26-.1-.53-.27-.86-.27-.86-.17-.33-.41-.49-.41-.49-.24-.16-.53-.16-.53-.16-.29 0-.54.15-.54.15-.24.16-.42.49-.42.49-.18.33-.27.86-.27.86-.1.52-.1 1.26-.1 1.26 0 1.47.36 2.14.36 2.14.36.66.95.66.95.66zm2.6.57zm2.61.12c-1.02 0-1.59-.91-1.59-.91-.57-.91-.57-2.6-.57-2.6 0-1.69.57-2.57.57-2.57.56-.89 1.58-.89 1.58-.89 1.01 0 1.57.88 1.57.88.56.88.56 2.57.56 2.57 0 1.69-.57 2.59-.57 2.59-.57.9-1.58.9-1.58.9zm0 0zm0-.7c.29 0 .53-.16.53-.16.23-.17.41-.51.41-.51.17-.35.27-.88.27-.88.09-.53.09-1.26.09-1.26 0-.74-.09-1.26-.09-1.26-.1-.53-.27-.86-.27-.86-.18-.33-.41-.49-.41-.49-.24-.16-.53-.16-.53-.16-.3 0-.54.15-.54.15-.24.16-.42.49-.42.49-.18.33-.27.85-.27.85-.1.53-.1 1.26-.1 1.26 0 1.47.36 2.14.36 2.14.36.67.95.67.95.67zm124.59.57zm.96-1.51c.37.39.87.63.87.63.5.24 1.04.24 1.04.24.68 0 1.06-.31 1.06-.31.38-.31.38-.82.38-.82 0-.26-.09-.45-.09-.45-.09-.18-.24-.32-.24-.32-.15-.13-.36-.24-.36-.24-.21-.11-.45-.22-.45-.22l-.99-.43c-.24-.11-.5-.26-.5-.26-.25-.15-.45-.36-.45-.36-.2-.21-.33-.5-.33-.5-.13-.29-.13-.67-.13-.67 0-.39.17-.73.17-.73.16-.34.45-.58.45-.58.28-.25.68-.38.68-.38.39-.14.86-.14.86-.14.62 0 1.14.23 1.14.23.53.23.89.61.89.61l-.47.57c-.32-.31-.7-.48-.7-.48-.38-.17-.87-.17-.87-.17-.58 0-.93.26-.93.26-.35.27-.35.74-.35.74 0 .25.1.43.1.43.1.17.27.3.27.3.17.13.37.23.37.23.2.1.41.18.41.18l.98.42c.29.13.55.29.55.29.26.16.45.38.45.38.19.22.3.5.3.5.11.29.11.67.11.67 0 .41-.16.77-.16.77-.16.35-.46.62-.46.62-.3.27-.74.42-.74.42-.43.15-.98.15-.98.15-.72 0-1.34-.27-1.34-.27-.62-.27-1.07-.748-1.07-.748zm4.65 1.5zm1.01-4.4h-.76v-.65l.8-.05.1-1.43h.72v1.43h1.38v.7h-1.37v2.83c0 .47.17.73.17.73.17.25.61.25.61.25.14 0 .29-.04.29-.04.16-.04.29-.09.29-.09l.17.65c-.21.07-.46.13-.46.13-.25.06-.49.06-.49.06-.41 0-.69-.13-.69-.13-.28-.13-.46-.35-.46-.35-.17-.22-.25-.54-.25-.54-.08-.32-.08-.7-.08-.7v-2.81zm2.54 4.4zm.86-5.11h.71l.07.92h.03c.27-.49.64-.77.64-.77.37-.29.81-.29.81-.29.31 0 .55.1.55.1l-.17.76-.23-.07c-.11-.02-.27-.02-.27-.02-.32 0-.68.26-.68.26-.35.26-.61.91-.61.91v3.3H854v-5.11zm2.68 5.1zm.48-2.54c0-.64.19-1.14.19-1.14.19-.5.52-.85.52-.85.33-.35.75-.53.75-.53.43-.18.9-.18.9-.18.47 0 .9.18.9.18.43.18.75.52.75.52.32.34.52.84.52.84.19.5.19 1.14.19 1.14 0 .63-.2 1.13-.2 1.13-.2.49-.52.84-.52.84-.33.34-.75.52-.75.52-.43.17-.9.17-.9.17-.47 0-.9-.18-.9-.18-.43-.18-.75-.52-.75-.52-.33-.34-.52-.84-.52-.84-.2-.5-.2-1.13-.2-1.13zm0 0zm.89 0c0 .44.1.8.1.8.1.35.3.61.3.61.19.26.46.4.46.4.28.14.6.14.6.14.33 0 .6-.14.6-.14.27-.14.47-.4.47-.4.19-.26.3-.62.3-.62.1-.36.1-.8.1-.8 0-.44-.11-.8-.11-.8-.11-.36-.3-.63-.3-.63-.2-.26-.47-.4-.47-.4-.28-.14-.6-.14-.6-.14-.33 0-.6.14-.6.14-.27.14-.47.4-.47.4-.19.26-.3.63-.3.63-.1.36-.1.8-.1.8zm4.32 2.55zm.86-5.11h.72l.07.73h.03c.36-.37.77-.62.77-.62.4-.25.94-.25.94-.25.81 0 1.18.5 1.18.5.37.5.37 1.49.37 1.49v3.3h-.86v-3.12c0-.72-.24-1.05-.24-1.05-.23-.32-.73-.32-.73-.32-.4 0-.7.2-.7.2-.31.2-.69.59-.69.59v3.7h-.86v-5.11zm4.89 5.1zm1.23.86c0 .41.39.65.39.65.39.24 1.08.24 1.08.24.37 0 .67-.09.67-.09.3-.09.51-.23.51-.23.21-.15.32-.34.32-.34.11-.19.11-.39.11-.39 0-.36-.27-.49-.27-.49-.26-.13-.76-.13-.76-.13h-.88c-.15 0-.32-.02-.32-.02-.17-.02-.34-.07-.34-.07-.27.2-.4.42-.4.42-.13.22-.13.44-.13.44zm0 0zm-.76.11c0-.33.2-.62.2-.62.2-.29.54-.53.54-.53v-.04c-.19-.12-.32-.32-.32-.32-.13-.21-.13-.51-.13-.51 0-.33.18-.57.18-.57.18-.24.37-.38.37-.38v-.04c-.26-.21-.46-.56-.46-.56-.21-.35-.21-.81-.21-.81 0-.42.15-.76.15-.76.15-.34.41-.57.41-.57.26-.24.61-.36.61-.36.35-.13.74-.13.74-.13.21 0 .39.03.39.03.18.03.33.09.33.09h1.77v.66h-1.05c.18.18.3.45.3.45.12.27.12.6.12.6 0 .41-.15.74-.15.74-.15.33-.4.55-.4.55-.25.22-.59.35-.59.35-.34.13-.73.13-.73.13-.19 0-.39-.05-.39-.05-.2-.05-.38-.13-.38-.13-.14.11-.23.26-.23.26-.1.14-.1.35-.1.35 0 .24.19.4.19.4.19.15.71.15.71.15h.98c.89 0 1.34.29 1.34.29.45.29.45.93.45.93 0 .35-.18.68-.18.68-.18.32-.52.56-.52.56-.34.24-.82.38-.82.38-.48.15-1.07.15-1.07.15-.47 0-.86-.09-.86-.09-.39-.09-.66-.27-.66-.27-.28-.18-.43-.43-.43-.43-.15-.26-.15-.59-.15-.59zm0 0zm2.11-3.17c.22 0 .41-.08.41-.08.19-.08.35-.24.35-.24.16-.16.24-.38.24-.38.08-.23.08-.51.08-.51 0-.57-.32-.88-.32-.88-.32-.31-.77-.31-.77-.31-.45 0-.77.31-.77.31-.32.31-.32.87-.32.87 0 .28.08.51.08.51.08.22.24.38.24.38.15.16.35.24.35.24.2.08.42.08.42.08zm2.71 2.2zm.86-7.48h.86V757c0 .21.07.296.07.296.07.082.17.082.17.082h.08l.11-.02.11.65c-.09.042-.2.063-.2.063-.12.02-.3.02-.3.02-.5 0-.71-.29-.71-.29-.21-.29-.21-.86-.21-.86v-6.45zm1.82 7.48zm.51 1.41l.19.05.2.02c.44 0 .71-.31.71-.31.28-.31.44-.78.44-.78l.12-.38-2.05-5.11h.89l1.04 2.83c.11.34.24.71.24.71l.24.73h.04c.12-.34.22-.72.22-.72.11-.38.21-.71.21-.71l.91-2.82h.84l-1.9 5.53c-.13.38-.3.7-.3.7-.17.32-.4.56-.4.56-.23.23-.52.37-.52.37-.3.13-.69.13-.69.13-.18 0-.32-.03-.32-.03-.14-.03-.27-.08-.27-.08l.17-.68zm6.51-1.41zm.61-1.33c0-.84.75-1.29.75-1.29.75-.45 2.39-.63 2.39-.63 0-.24-.05-.48-.05-.48-.05-.23-.17-.41-.17-.41-.12-.18-.32-.29-.32-.29-.2-.11-.52-.11-.52-.11-.45 0-.84.17-.84.17-.38.17-.69.38-.69.38l-.35-.6c.36-.23.87-.45.87-.45.52-.21 1.14-.21 1.14-.21.93 0 1.35.57 1.35.57.42.57.42 1.53.42 1.53v3.2H887l-.073-.61h-.03c-.366.3-.79.52-.79.52-.426.21-.9.21-.9.21-.65 0-1.075-.38-1.075-.38-.426-.38-.426-1.07-.426-1.07zm0 0zm.85-.07c0 .44.25.63.25.63.25.19.63.19.63.19.36 0 .69-.18.69-.18.33-.17.7-.51.7-.51v-1.41c-.65.08-1.09.2-1.09.2-.44.11-.71.27-.71.27-.27.16-.38.36-.38.36-.12.21-.12.45-.12.45zm3.92 1.38zm1.23.86c0 .41.39.65.39.65.39.24 1.09.24 1.09.24.37 0 .66-.09.66-.09.3-.09.51-.23.51-.23.21-.15.33-.34.33-.34.11-.19.11-.39.11-.39 0-.36-.27-.49-.27-.49-.26-.13-.77-.13-.77-.13h-.89c-.15 0-.32-.02-.32-.02-.18-.02-.34-.07-.34-.07-.28.2-.4.42-.4.42-.13.22-.13.44-.13.44zm0 0zm-.76.12c0-.33.2-.62.2-.62.2-.3.54-.54.54-.54v-.05c-.19-.11-.32-.32-.32-.32-.13-.2-.13-.51-.13-.51 0-.32.17-.57.17-.57.18-.24.37-.38.37-.38v-.04c-.26-.21-.46-.56-.46-.56-.21-.35-.21-.81-.21-.81 0-.42.15-.75.15-.75.15-.34.42-.58.42-.58.26-.24.61-.36.61-.36.36-.13.74-.13.74-.13.21 0 .4.03.4.03.18.04.33.09.33.09h1.78v.66h-1.05c.18.18.3.45.3.45.12.27.12.6.12.6 0 .41-.15.74-.15.74-.15.33-.4.56-.4.56-.25.23-.6.35-.6.35-.34.12-.73.12-.73.12-.19 0-.39-.05-.39-.05-.2-.05-.38-.13-.38-.13-.13.11-.23.25-.23.25-.09.14-.09.35-.09.35 0 .24.19.4.19.4.19.15.71.15.71.15h.98c.89 0 1.34.29 1.34.29.44.29.44.93.44.93 0 .36-.18.68-.18.68-.17.32-.51.56-.51.56-.34.24-.82.38-.82.38-.48.142-1.08.142-1.08.142-.48 0-.87-.09-.87-.09-.39-.09-.67-.27-.67-.27-.28-.18-.43-.43-.43-.43-.15-.25-.15-.59-.15-.59zm0 0zm2.11-3.18c.22 0 .41-.08.41-.08.19-.08.34-.24.34-.24.15-.16.23-.38.23-.38.08-.23.08-.51.08-.51 0-.57-.32-.88-.32-.88-.32-.31-.77-.31-.77-.31-.45 0-.76.31-.76.31-.32.31-.32.88-.32.88 0 .28.09.51.09.51.08.22.23.38.23.38.15.15.34.24.34.24.2.08.42.08.42.08zm2.71 2.2zm.86-5.1h.71l.07.92h.03c.26-.49.63-.77.63-.77.37-.29.81-.29.81-.29.3 0 .54.11.54.11l-.17.75c-.13-.04-.23-.06-.23-.06-.11-.02-.27-.02-.27-.02-.33 0-.68.26-.68.26-.36.26-.62.91-.62.91V758h-.86v-5.105zm2.68 5.11zm.48-2.54c0-.63.19-1.13.19-1.13.2-.5.52-.85.52-.85.32-.35.73-.53.73-.53.41-.18.85-.18.85-.18.48 0 .86.16.86.16.38.17.64.48.64.48.26.31.4.75.4.75.13.44.13.98.13.98 0 .28-.04.47-.04.47h-3.45c.05.83.51 1.31.51 1.31.45.48 1.19.48 1.19.48.37 0 .68-.11.68-.11.31-.11.59-.29.59-.29l.31.57c-.34.21-.75.36-.75.36-.41.16-.94.16-.94.16-.52 0-.96-.19-.96-.19-.45-.18-.78-.52-.78-.52-.33-.34-.52-.83-.52-.83-.19-.49-.19-1.12-.19-1.12zm0 0zm3.57-.39c0-.79-.33-1.2-.33-1.2-.33-.42-.93-.42-.93-.42-.27 0-.52.11-.52.11-.25.11-.45.31-.45.31-.2.21-.33.51-.33.51-.13.3-.17.69-.17.69h2.73zm1.15 2.93zm.48-2.54c0-.63.19-1.13.19-1.13.19-.5.51-.85.51-.85.32-.35.73-.53.73-.53.41-.18.85-.18.85-.18.48 0 .87.16.87.16.38.17.64.48.64.48.26.31.39.76.39.76.14.44.14.98.14.98 0 .29-.03.47-.03.47h-3.44c.05.83.51 1.31.51 1.31.45.49 1.19.49 1.19.49.37 0 .68-.11.68-.11.31-.11.59-.29.59-.29l.3.56c-.34.21-.75.37-.75.37-.41.16-.93.16-.93.16-.52 0-.97-.19-.97-.19-.45-.18-.78-.53-.78-.53-.33-.34-.52-.84-.52-.84-.19-.5-.19-1.13-.19-1.13zm0 0zm3.57-.39c0-.79-.33-1.2-.33-1.2-.33-.42-.93-.42-.93-.42-.28 0-.52.11-.52.11-.25.11-.45.31-.45.31-.2.21-.33.5-.33.5-.13.3-.17.69-.17.69h2.73zm1.15 2.93zm.68-4.32c0-.31.18-.49.18-.49.18-.19.45-.19.45-.19.25 0 .43.19.43.19.18.18.18.49.18.49 0 .28-.18.46-.18.46-.18.18-.43.18-.43.18-.26 0-.45-.18-.45-.18-.19-.18-.19-.46-.19-.46zm0 0zm0 3.79c0-.31.18-.49.18-.49.18-.18.45-.18.45-.18.25 0 .43.18.43.18.18.18.18.49.18.49 0 .28-.18.46-.18.46-.18.18-.43.18-.43.18-.26 0-.45-.19-.45-.19-.19-.19-.19-.47-.19-.47zm4.05.52zm.68-1.35c.29.3.7.54.7.54.4.24.99.24.99.24.3 0 .57-.11.57-.11.27-.11.47-.31.47-.31.2-.2.32-.48.32-.48.11-.29.11-.63.11-.63 0-.7-.39-1.09-.39-1.09-.39-.39-1.04-.39-1.04-.39-.35 0-.6.11-.6.11-.25.11-.55.31-.55.31l-.46-.29.22-3.23h3.35v.75h-2.59l-.18 1.98c.24-.13.48-.2.48-.2.24-.08.55-.08.55-.08.43 0 .81.12.81.12.38.12.66.38.66.38.28.25.44.65.44.65.16.39.16.94.16.94 0 .54-.19.96-.19.96-.19.42-.5.71-.5.71-.32.29-.72.44-.72.44-.41.15-.85.15-.85.15-.4 0-.73-.08-.73-.08-.33-.08-.6-.2-.6-.2-.26-.12-.48-.29-.48-.29-.21-.17-.38-.35-.38-.35zm4.54 1.36zm2.47-3.26c.32 0 .7-.21.7-.21.37-.21.7-.69.7-.69-.09-.99-.46-1.49-.46-1.49-.38-.51-1.02-.51-1.02-.51-.24 0-.46.1-.46.1-.22.11-.38.3-.38.3-.16.2-.25.47-.25.47-.09.27-.09.6-.09.6 0 .66.3 1.04.3 1.04.3.38.93.38.93.38zm0 0zm-1.45 2.13c.21.24.5.39.5.39.29.15.6.15.6.15.36 0 .67-.15.67-.15.31-.15.55-.49.55-.49.24-.34.39-.89.39-.89.15-.55.16-1.36.16-1.36-.32.4-.74.63-.74.63-.42.23-.84.23-.84.23-.87 0-1.39-.52-1.39-.52-.52-.52-.52-1.56-.52-1.56 0-.48.16-.88.16-.88.15-.4.42-.68.42-.68.26-.28.63-.44.63-.44.36-.16.76-.16.76-.16.49 0 .92.2.92.2.42.2.73.6.73.6.31.4.48 1.01.48 1.01.17.6.17 1.41.17 1.41 0 1.01-.21 1.72-.21 1.72-.21.71-.57 1.15-.57 1.15-.36.45-.82.65-.82.65-.46.21-.96.21-.96.21-.54 0-.94-.2-.94-.2-.41-.2-.68-.5-.68-.5z"/></svg>