<svg xmlns="http://www.w3.org/2000/svg" stroke="#000" viewBox="0 0 1024 768" font-size="1"><path fill="#FFF" stroke="none" d="M0 0v768h1024V0z"/><path stroke="none" d="M394.54 14.102zm1.187-10.04h2.264v3.864h3.47V4.06h2.28v10.042h-2.28v-4.19H398v4.19h-2.263V4.062zm9.194 10.04zm.73-2.126c0-1.2 1.02-1.88 1.02-1.88 1.02-.676 3.28-.907 3.28-.907-.03-.51-.3-.81-.3-.81-.27-.3-.89-.3-.89-.3-.49 0-.98.18-.98.18-.49.18-1.04.51-1.04.51l-.8-1.5c.74-.45 1.55-.73 1.55-.73.81-.28 1.72-.28 1.72-.28 1.48 0 2.26.84 2.26.84.78.84.78 2.61.78 2.61v4.38h-1.85l-.17-.79h-.04c-.49.43-1.04.7-1.04.7-.54.27-1.19.27-1.19.27-.52 0-.94-.18-.94-.18-.41-.18-.71-.5-.71-.5-.29-.32-.45-.73-.45-.73-.16-.42-.16-.91-.16-.91zm0 0zm2.16-.17c0 .37.24.548.24.548.24.177.64.177.64.177.4 0 .68-.17.68-.17.28-.16.59-.47.59-.47v-1.34c-1.21.17-1.67.5-1.67.5-.46.33-.46.77-.46.77zm5.35 2.296zm.19-7.64h2.28l.99 3.605c.16.57.3 1.162.3 1.162l.3 1.19h.07c.14-.6.29-1.2.29-1.2.15-.6.3-1.17.3-1.17l1-3.61h2.17l-2.49 7.64h-2.62zm7.75 7.64zm.56-3.82c0-.924.31-1.67.31-1.67.31-.748.81-1.263.81-1.263.5-.52 1.15-.8 1.15-.8.65-.28 1.34-.28 1.34-.28.82 0 1.42.28 1.42.28.61.27 1.02.77 1.02.77.41.49.61 1.16.61 1.16.2.67.2 1.45.2 1.45 0 .31-.03.56-.03.56-.03.25-.06.39-.06.39h-4.57c.16.88.69 1.27.69 1.27.53.39 1.3.39 1.3.39.82 0 1.65-.51 1.65-.51l.75 1.37c-.58.4-1.3.63-1.3.63-.71.23-1.41.23-1.41.23-.81 0-1.52-.27-1.52-.27-.7-.27-1.23-.79-1.23-.79-.52-.52-.81-1.26-.81-1.26-.29-.74-.29-1.69-.29-1.69zm0 0zm4.93-.785c0-.662-.29-1.078-.29-1.078-.3-.42-.99-.42-.99-.42-.54 0-.94.36-.94.36-.41.36-.53 1.13-.53 1.13h2.76zm5.7 4.605zm1.17 1.108c.11.03.25.062.25.062.14.03.26.03.26.03.57 0 .88-.276.88-.276.31-.278.46-.724.46-.724l.11-.4-2.94-7.44h2.28l1.1 3.28c.17.525.31 1.064.31 1.064.14.54.29 1.11.29 1.11h.06c.12-.54.25-1.087.25-1.087.13-.55.27-1.09.27-1.09l.93-3.28h2.17l-2.65 7.71c-.28.72-.58 1.27-.58 1.27-.3.54-.69.91-.69.91-.39.36-.89.54-.89.54-.5.18-1.17.18-1.17.18-.35 0-.6-.04-.6-.04-.24-.04-.48-.12-.48-.12l.4-1.73zm6.73-1.108zm.56-3.82c0-.955.31-1.7.31-1.7.31-.748.82-1.257.82-1.257.52-.508 1.2-.777 1.2-.777.68-.27 1.4-.27 1.4-.27.73 0 1.4.27 1.4.27.67.27 1.18.777 1.18.777.52.51.83 1.256.83 1.256.31.75.31 1.71.31 1.71 0 .96-.31 1.7-.31 1.7-.31.75-.83 1.26-.83 1.26-.51.51-1.18.78-1.18.78-.67.27-1.4.27-1.4.27-.72 0-1.4-.27-1.4-.27-.68-.27-1.19-.77-1.19-.77-.51-.51-.82-1.25-.82-1.25-.3-.74-.3-1.7-.3-1.7zm0 0zm2.33 0c0 1 .35 1.586.35 1.586.35.586 1.06.586 1.06.586.7 0 1.05-.586 1.05-.586.35-.585.35-1.586.35-1.586 0-1-.35-1.586-.35-1.586-.35-.585-1.05-.585-1.05-.585-.7 0-1.05.59-1.05.59-.34.59-.34 1.59-.34 1.59zm5.67 3.82zm.92-7.64h2.27v4.452c0 .83.23 1.14.23 1.14.23.307.73.307.73.307.43 0 .72-.2.72-.2.29-.2.63-.64.63-.64V6.47h2.27v7.63h-1.84l-.17-1.063h-.05c-.49.584-1.05.915-1.05.915-.56.33-1.35.33-1.35.33-1.24 0-1.81-.815-1.81-.815-.56-.816-.56-2.264-.56-2.264v-4.74zm11.03 7.64zm.56-3.82c0-.924.31-1.67.31-1.67.31-.748.81-1.263.81-1.263.5-.52 1.15-.8 1.15-.8.65-.28 1.34-.28 1.34-.28.82 0 1.43.28 1.43.28.61.27 1.02.77 1.02.77.41.49.61 1.16.61 1.16.2.67.2 1.45.2 1.45 0 .31-.03.56-.03.56-.03.25-.06.39-.06.39h-4.59c.16.88.69 1.27.69 1.27.53.39 1.3.39 1.3.39.81 0 1.65-.51 1.65-.51l.76 1.37c-.59.4-1.3.63-1.3.63-.72.23-1.41.23-1.41.23-.82 0-1.53-.27-1.53-.27-.71-.27-1.23-.79-1.23-.79-.52-.52-.81-1.26-.81-1.26-.29-.74-.29-1.69-.29-1.69zm0 0zm4.93-.785c0-.662-.29-1.078-.29-1.078-.3-.42-.99-.42-.99-.42-.54 0-.95.36-.95.36-.41.36-.53 1.13-.53 1.13h2.76zm2.41 4.605zm.18-7.64h2.28l.99 3.605c.15.57.3 1.162.3 1.162l.3 1.19h.06c.14-.6.29-1.2.29-1.2.15-.6.3-1.17.3-1.17l1-3.61h2.18l-2.5 7.64h-2.62zm7.75 7.64zm.56-3.82c0-.924.31-1.67.31-1.67.31-.748.81-1.263.81-1.263.5-.52 1.15-.8 1.15-.8.65-.28 1.34-.28 1.34-.28.82 0 1.43.28 1.43.28.61.27 1.02.77 1.02.77.41.49.61 1.16.61 1.16.2.67.2 1.45.2 1.45 0 .31-.03.56-.03.56-.03.25-.06.39-.06.39h-4.58c.15.88.68 1.27.68 1.27.53.39 1.3.39 1.3.39.82 0 1.65-.51 1.65-.51l.76 1.37c-.58.4-1.3.63-1.3.63-.72.23-1.41.23-1.41.23-.81 0-1.52-.27-1.52-.27-.71-.27-1.23-.79-1.23-.79-.52-.52-.82-1.26-.82-1.26-.29-.74-.29-1.69-.29-1.69zm0 0zm4.93-.785c0-.662-.29-1.078-.29-1.078-.29-.42-.98-.42-.98-.42-.54 0-.95.36-.95.36-.41.36-.53 1.13-.53 1.13H482zm2.5 4.605zm1-7.64h1.85l.16 1.34h.06c.42-.785 1-1.154 1-1.154.59-.37 1.17-.37 1.17-.37.33 0 .53.04.53.04.21.037.38.114.38.114l-.37 1.956c-.22-.062-.4-.092-.4-.092-.19-.03-.43-.03-.43-.03-.43 0-.9.307-.9.307-.47.308-.78 1.093-.78 1.093v4.436h-2.27v-7.64zm8.33 7.64zm.55-3.82c0-.955.33-1.7.33-1.7.32-.748.87-1.257.87-1.257.55-.508 1.27-.777 1.27-.777.73-.27 1.51-.27 1.51-.27.71 0 1.28.24 1.28.24.57.238.96.638.96.638l-1.03 1.4c-.54-.445-1.06-.445-1.06-.445-.83 0-1.31.59-1.31.59-.48.59-.48 1.59-.48 1.59 0 1 .49 1.59.49 1.59.49.59 1.23.59 1.23.59.42 0 .75-.17.75-.17.34-.17.62-.38.62-.38l.91 1.43c-.55.5-1.23.73-1.23.73-.68.23-1.31.23-1.31.23-.8 0-1.48-.27-1.48-.27-.68-.27-1.19-.77-1.19-.77-.51-.51-.8-1.26-.8-1.26-.29-.75-.29-1.7-.29-1.7zm6.21 3.82zm.55-3.82c0-.955.31-1.7.31-1.7.31-.748.83-1.257.83-1.257.52-.508 1.2-.777 1.2-.777.68-.27 1.4-.27 1.4-.27.73 0 1.4.27 1.4.27.67.27 1.19.777 1.19.777.52.51.83 1.256.83 1.256.307.75.307 1.71.307 1.71 0 .96-.303 1.7-.303 1.7-.31.75-.827 1.26-.827 1.26-.52.51-1.19.78-1.19.78-.67.27-1.4.27-1.4.27-.726 0-1.4-.27-1.4-.27-.68-.27-1.197-.77-1.197-.77-.517-.51-.825-1.25-.825-1.25-.31-.74-.31-1.7-.31-1.7zm0 0zm2.33 0c0 1 .35 1.586.35 1.586.35.586 1.06.586 1.06.586.7 0 1.05-.586 1.05-.586.36-.585.36-1.586.36-1.586 0-1-.35-1.586-.35-1.586-.35-.585-1.05-.585-1.05-.585-.71 0-1.05.59-1.05.59-.35.59-.35 1.59-.35 1.59zm5.67 3.82zm1-7.64H512l.15.97h.07c.49-.46 1.074-.807 1.074-.807.586-.347 1.37-.347 1.37-.347 1.25 0 1.81.816 1.81.816.563.817.563 2.264.563 2.264v4.744h-2.264v-4.45c0-.833-.222-1.14-.222-1.14-.22-.31-.71-.31-.71-.31-.43 0-.73.194-.73.194-.31.192-.68.547-.68.547v5.16h-2.28v-7.64zm7.81 7.64zm1.31-5.868h-1.05v-1.68l1.17-.09.26-2.034h1.88v2.033h1.84v1.77h-1.84V11.3c0 .646.27.93.27.93.27.285.72.285.72.285.19 0 .38-.046.38-.046.2-.05.35-.11.35-.11l.35 1.65c-.31.09-.72.18-.72.18-.42.09-.97.09-.97.09-.71 0-1.21-.22-1.21-.22-.5-.22-.81-.6-.81-.6-.313-.39-.46-.94-.46-.94-.15-.55-.15-1.21-.15-1.21V8.23zm4.59 5.868zm1-7.64h1.85l.15 1.34h.06c.42-.785 1-1.154 1-1.154.59-.37 1.17-.37 1.17-.37.33 0 .54.04.54.04.21.037.38.114.38.114l-.37 1.956c-.21-.062-.4-.092-.4-.092-.18-.03-.43-.03-.43-.03-.43 0-.9.307-.9.307-.47.308-.78 1.093-.78 1.093v4.436h-2.27v-7.64zm5.13 7.64zm2.12-8.762c-.57 0-.94-.34-.94-.34-.37-.33-.37-.86-.37-.86 0-.53.37-.85.37-.85.37-.33.94-.33.94-.33.59 0 .95.32.95.32.36.32.36.84.36.84 0 .52-.36.85-.36.85-.36.33-.94.33-.94.33zm0 0zM531 6.46h2.26v7.64h-2.265V6.46zm3.25 7.64zm1-10.8h2.26v2.65l-.06 1.17c.445-.4.96-.63.96-.63.516-.23 1.055-.23 1.055-.23.69 0 1.24.27 1.24.27.555.28.95.78.95.78.39.5.6 1.21.6 1.21.21.71.21 1.59.21 1.59 0 .98-.27 1.75-.27 1.75-.27.77-.726 1.3-.726 1.3-.46.53-1.04.81-1.04.81-.58.27-1.19.27-1.19.27-.51 0-1.02-.243-1.02-.243-.52-.246-.96-.74-.96-.74h-.07l-.19.8h-1.77V3.31zm0 0zm2.26 8.64c.31.27.615.38.615.38.3.11.6.11.6.11.58 0 1-.53 1-.53.41-.53.41-1.72.41-1.72 0-2.07-1.325-2.07-1.325-2.07-.68 0-1.31.69-1.31.69v3.12zm5.56 2.15zm.923-7.64h2.265v4.45c0 .83.23 1.14.23 1.14.23.3.73.3.73.3.43 0 .725-.2.725-.2.29-.2.63-.65.63-.65V6.46h2.264v7.64h-1.85l-.17-1.063h-.05c-.49.584-1.05.915-1.05.915-.565.33-1.35.33-1.35.33-1.25 0-1.81-.815-1.81-.815-.566-.816-.566-2.264-.566-2.264v-4.74zm7.825 7.64zm1.31-5.87h-1.05V6.55l1.17-.09.27-2.034h1.88V6.46h1.835v1.77h-1.838v3.07c0 .646.27.93.27.93.27.285.716.285.716.285.19 0 .38-.046.38-.046.19-.05.35-.11.35-.11l.36 1.65c-.31.09-.72.18-.72.18-.41.09-.97.09-.97.09-.71 0-1.21-.22-1.21-.22-.5-.22-.82-.6-.82-.6-.31-.39-.46-.94-.46-.94-.15-.55-.15-1.21-.15-1.21V8.23zm4.44 5.86zm.557-3.82c0-.93.31-1.67.31-1.67.307-.75.81-1.26.81-1.26.5-.52 1.145-.8 1.145-.8.65-.28 1.34-.28 1.34-.28.82 0 1.425.28 1.425.28.61.27 1.017.77 1.017.77.41.49.61 1.16.61 1.16.2.67.2 1.45.2 1.45 0 .31-.03.56-.03.56-.03.25-.06.39-.06.39h-4.57c.154.88.685 1.27.685 1.27.53.39 1.3.39 1.3.39.82 0 1.65-.51 1.65-.51l.76 1.37c-.585.4-1.3.63-1.3.63-.72.23-1.41.23-1.41.23-.82 0-1.525-.27-1.525-.27-.71-.27-1.23-.79-1.23-.79-.523-.518-.815-1.257-.815-1.257-.294-.74-.294-1.696-.294-1.696zm0 0zm4.93-.78c0-.66-.29-1.08-.29-1.08-.31-.42-1-.42-1-.42-.54 0-.95.36-.95.36-.405.36-.53 1.13-.53 1.13H563zm2.495 4.6zm.6-3.82c0-.94.27-1.68.27-1.68.27-.74.71-1.26.71-1.26.44-.52 1.016-.8 1.016-.8.58-.28 1.18-.28 1.18-.28.65 0 1.07.21 1.07.21.417.212.817.58.817.58l-.094-1.17V3.3h2.26v10.8h-1.85l-.15-.754h-.06c-.4.4-.94.67-.94.67-.54.27-1.1.27-1.1.27-.71 0-1.28-.278-1.28-.278-.58-.278-.99-.794-.99-.794-.41-.516-.64-1.255-.64-1.255-.22-.74-.22-1.68-.22-1.68zm0 0zm2.33-.03c0 1.14.36 1.66.36 1.66.36.52 1.02.52 1.02.52.37 0 .67-.16.67-.16.3-.16.58-.54.58-.54v-3.1c-.31-.28-.63-.39-.63-.39-.327-.11-.63-.11-.63-.11-.54 0-.96.512-.96.512-.416.515-.416 1.61-.416 1.61zm9.1 3.85zm1.31-5.87h-1.05V6.55l1.17-.09.26-2.033h1.88v2.03h1.83v1.77h-1.83v3.07c0 .645.27.93.27.93.27.284.715.284.715.284.18 0 .376-.04.376-.04.19-.05.34-.11.34-.11l.36 1.65c-.3.09-.72.18-.72.18-.41.09-.97.09-.97.09-.7 0-1.2-.21-1.2-.21-.5-.21-.82-.6-.82-.6-.31-.38-.46-.93-.46-.93-.15-.54-.15-1.2-.15-1.2v-3.1zm4.43 5.87zm.553-3.82c0-.96.307-1.7.307-1.7.31-.75.828-1.26.828-1.26.516-.51 1.19-.78 1.19-.78.68-.27 1.4-.27 1.4-.27.726 0 1.396.27 1.396.27.67.27 1.18.77 1.18.77.514.51.82 1.25.82 1.25.31.745.31 1.7.31 1.7 0 .955-.31 1.702-.31 1.702-.31.746-.823 1.254-.823 1.254-.51.51-1.18.78-1.18.78-.67.27-1.39.27-1.39.27-.72 0-1.4-.27-1.4-.27-.68-.27-1.2-.78-1.2-.78-.52-.51-.82-1.26-.82-1.26-.3-.747-.3-1.7-.3-1.7zm0 0zm2.32 0c0 1 .35 1.58.35 1.58.347.58 1.056.58 1.056.58.69 0 1.04-.59 1.04-.59.35-.588.35-1.59.35-1.59 0-1-.35-1.586-.35-1.586-.35-.59-1.04-.59-1.04-.59-.71 0-1.06.585-1.06.585-.35.58-.35 1.58-.35 1.58zM595 14.1zm.71-4.96c0-1.248.392-2.226.392-2.226.393-.978 1.062-1.655 1.062-1.655.67-.68 1.57-1.03 1.57-1.03.902-.36 1.92-.36 1.92-.36 1.06 0 1.84.4 1.84.4.777.4 1.27.91 1.27.91l-1.248 1.4c-.37-.36-.78-.56-.78-.56-.407-.2-1.054-.2-1.054-.2-.585 0-1.07.22-1.07.22-.485.22-.84.64-.84.64-.353.41-.546 1.01-.546 1.01-.193.6-.193 1.35-.193 1.35 0 1.55.7 2.41.7 2.41.7.85 2.116.85 2.116.85.3 0 .6-.07.6-.07.29-.08.47-.23.47-.23v-1.7h-1.67V8.45h3.66v4.62c-.54.508-1.42.862-1.42.862-.88.354-1.94.354-1.94.354-1.02 0-1.9-.33-1.9-.33-.89-.332-1.55-.98-1.55-.98-.66-.645-1.04-1.608-1.04-1.608-.38-.962-.38-2.225-.38-2.225zm9.116 4.96zm1.185-10.04h2.27v3.863h3.47V4.06h2.28v10.042h-2.28v-4.19h-3.46v4.19h-2.26V4.062zm9.19 10.04zm.71-4.96c0-1.246.39-2.224.39-2.224.39-.978 1.04-1.655 1.04-1.655.66-.67 1.53-1.03 1.53-1.03.87-.35 1.84-.35 1.84-.35.94 0 1.7.39 1.7.39.77.4 1.27.92 1.27.92l-1.24 1.4c-.38-.35-.77-.55-.77-.55-.39-.2-.91-.2-.91-.2-.52 0-.97.23-.97.23-.45.23-.79.64-.79.64-.34.42-.53 1.02-.53 1.02-.19.6-.19 1.36-.19 1.36 0 1.56.67 2.41.67 2.41.66.86 1.77.86 1.77.86.62 0 1.08-.25 1.08-.25.46-.24.83-.64.83-.64l1.25 1.37c-.63.74-1.44 1.11-1.44 1.11-.81.37-1.75.37-1.75.37-.97 0-1.83-.33-1.83-.33-.86-.33-1.51-.98-1.51-.98-.64-.65-1.01-1.61-1.01-1.61-.37-.96-.37-2.22-.37-2.22zm8.26 4.96zm2.38-3.557c-.07-.524.04-.955.04-.955.12-.432.34-.802.34-.802.22-.37.49-.677.49-.677l.52-.6c.25-.29.41-.56.41-.56.16-.27.16-.57.16-.57 0-.48-.28-.73-.28-.73-.28-.25-.74-.25-.74-.25-.43 0-.76.2-.76.2-.33.2-.64.51-.64.51L624.8 5c.52-.63 1.23-1.016 1.23-1.016.71-.385 1.57-.385 1.57-.385.65 0 1.21.15 1.21.15.56.15.97.47.97.47.41.32.64.82.64.82.23.5.23 1.18.23 1.18 0 .47-.17.85-.17.85-.17.37-.42.7-.42.7-.258.32-.54.62-.54.62-.288.3-.527.62-.527.62-.24.32-.38.68-.38.68-.14.36-.09.82-.09.82h-1.99zm0 0zm-.37 2.326c0-.62.39-1.03.39-1.03.39-.41.97-.41.97-.41.59 0 .98.41.98.41.4.41.4 1.02.4 1.02 0 .6-.39 1-.39 1-.39.41-.98.41-.98.41-.58 0-.97-.41-.97-.41-.38-.41-.38-1.01-.38-1.01z"/><path fill="#5C3566" stroke="none" d="M846 394c0 78.72-27.805 154.913-78.51 215.13L512 394z"/><path fill="none" stroke="#FFF" stroke-opacity=".1" stroke-miterlimit="10" d="M846 394c0 78.72-27.805 154.913-78.51 215.13L512 394z" stroke-linejoin="bevel"/><path fill="none" stroke-miterlimit="10" d="M830.456 510.218l14.09 5.142h39.17"/><path stroke="none" d="M849.547 511.967zm2.06-2.667l-2.07-4.223h.935l.892 1.943c.17.378.326.746.326.746.158.368.336.756.336.756h.042c.18-.388.357-.756.357-.756.18-.368.336-.746.336-.746l.89-1.943h.92l-2.07 4.223v2.668h-.88v-2.67zm2.51 2.667zm.483-2.54c0-.632.194-1.13.194-1.13.194-.5.515-.846.515-.846.32-.34.73-.53.73-.53.4-.18.85-.18.85-.18.48 0 .86.17.86.17.38.17.64.49.64.49.26.32.39.76.39.76.13.44.13.99.13.99 0 .29-.03.48-.03.48h-3.45c.05.83.51 1.32.51 1.32.45.48 1.19.48 1.19.48.37 0 .68-.11.68-.11.31-.11.59-.29.59-.29l.3.57c-.34.21-.75.37-.75.37-.41.15-.93.15-.93.15-.52 0-.96-.18-.96-.18-.45-.18-.78-.52-.78-.52-.33-.34-.52-.84-.52-.84-.19-.49-.19-1.12-.19-1.12zm0-.002zm3.57-.388c0-.788-.33-1.203-.33-1.203-.33-.415-.93-.415-.93-.415-.272 0-.52.11-.52.11-.246.11-.446.31-.446.31-.2.2-.33.5-.33.5-.132.3-.174.68-.174.68h2.73zm1.157 2.93zm.724-1.155c.34.273.69.44.69.44.35.17.82.17.82.17.51 0 .76-.232.76-.232.26-.23.26-.567.26-.567 0-.2-.1-.347-.1-.347-.1-.147-.26-.257-.26-.257-.16-.11-.37-.2-.37-.2l-.42-.17c-.27-.1-.55-.22-.55-.22-.27-.12-.49-.3-.49-.3-.21-.18-.35-.41-.35-.41-.13-.23-.13-.56-.13-.56 0-.31.12-.58.12-.58.12-.27.35-.46.35-.46.23-.2.55-.31.55-.31.33-.11.74-.11.74-.11.49 0 .89.17.89.17.41.17.7.41.7.41l-.41.54c-.26-.2-.54-.33-.54-.33-.29-.13-.62-.13-.62-.13-.49 0-.71.22-.71.22-.23.22-.23.51-.23.51 0 .18.09.31.09.31.1.13.25.23.25.23.16.1.36.18.36.18l.43.16c.28.1.56.22.56.22.28.11.5.29.5.29.22.17.36.42.36.42.14.25.14.61.14.61 0 .31-.12.59-.12.59-.12.27-.36.48-.36.48-.23.21-.58.33-.58.33-.35.12-.8.12-.8.12-.55 0-1.04-.2-1.04-.2-.49-.2-.86-.5-.86-.5zm3.68 1.155zm.69-4.317c0-.304.19-.488.19-.488.19-.184.45-.184.45-.184.26 0 .44.184.44.184.19.184.19.488.19.488 0 .284-.18.468-.18.468-.18.184-.43.184-.43.184-.26 0-.44-.184-.44-.184-.18-.184-.18-.468-.18-.468zm0 0zm0 3.792c0-.304.19-.488.19-.488.19-.184.45-.184.45-.184.26 0 .44.184.44.184.19.184.19.488.19.488 0 .284-.18.468-.18.468-.18.183-.43.183-.43.183-.26 0-.44-.183-.44-.183-.18-.184-.18-.468-.18-.468zm4.06.525zm.83-.714h1.54v-4.937h-1.22v-.556c.47-.084.81-.205.81-.205.34-.12.62-.29.62-.29h.66v5.988h1.39v.715h-3.79v-.715zm4.39.714zm.72-1.386c.31.32.71.56.71.56.41.24 1 .24 1 .24.61 0 1-.33 1-.33.39-.33.39-.9.39-.9 0-.29-.11-.54-.11-.54-.11-.24-.36-.42-.36-.42-.25-.18-.66-.27-.66-.27-.41-.09-1-.09-1-.09v-.66c.54 0 .9-.09.9-.09.37-.09.59-.26.59-.26.23-.17.32-.4.32-.4.1-.23.1-.49.1-.49 0-.49-.31-.77-.31-.77-.31-.28-.84-.28-.84-.28-.42 0-.77.19-.77.19-.35.19-.65.5-.65.5l-.46-.55c.39-.36.86-.6.86-.6.47-.23 1.07-.23 1.07-.23.44 0 .81.12.81.12.37.12.63.33.63.33.27.22.42.53.42.53.15.32.15.73.15.73 0 .61-.34 1-.34 1-.33.39-.88.6-.88.6v.04c.31.08.57.22.57.22.27.14.47.36.47.36.2.22.31.5.31.5.11.29.11.64.11.64 0 .44-.17.8-.17.8-.17.36-.47.61-.47.61-.3.25-.7.38-.7.38-.4.13-.86.13-.86.13-.4 0-.73-.08-.73-.08-.33-.08-.603-.21-.603-.21-.27-.13-.49-.3-.49-.3-.22-.16-.387-.35-.387-.35zm4.51 1.39zm2.82-.55c.26 0 .47-.1.47-.1.21-.1.37-.3.37-.3.16-.19.25-.46.25-.46.09-.26.09-.6.09-.6 0-.66-.3-1.04-.3-1.04-.3-.38-.93-.38-.93-.38-.31 0-.69.21-.69.21-.37.21-.71.68-.71.68.09.99.46 1.5.46 1.5.38.51 1.02.51 1.02.51zm0 0zm1.38-5.02c-.21-.24-.5-.38-.5-.38-.29-.14-.6-.14-.6-.14-.34 0-.66.15-.66.15-.31.15-.55.49-.55.49-.24.34-.39.88-.39.88-.14.54-.15 1.34-.15 1.34.32-.39.74-.61.74-.61.42-.23.83-.23.83-.23.87 0 1.39.52 1.39.52.52.51.52 1.55.52 1.55 0 .49-.16.88-.16.88-.16.4-.43.68-.43.68-.27.28-.63.44-.63.44-.36.16-.77.16-.77.16-.49 0-.91-.2-.91-.2-.42-.2-.73-.6-.73-.6-.31-.4-.49-1.01-.49-1.01-.18-.6-.18-1.41-.18-1.41 0-1.01.21-1.72.21-1.72.21-.71.57-1.15.57-1.15.36-.45.81-.65.81-.65.46-.21.96-.21.96-.21.55 0 .94.21.94.21.4.21.68.51.68.51z"/><path fill="#AD7FA8" stroke="none" d="M767.49 609.13c-118.813 141.103-329.516 159.173-470.62 40.36-141.103-118.813-159.173-329.516-40.36-470.62C375.323 37.767 586.026 19.697 727.13 138.51 802.497 201.97 846 295.472 846 394H512z"/><path fill="none" stroke="#FFF" stroke-opacity=".1" stroke-miterlimit="10" d="M767.49 609.13c-118.813 141.103-329.516 159.173-470.62 40.36-141.103-118.813-159.173-329.516-40.36-470.62C375.323 37.767 586.026 19.697 727.13 138.51 802.497 201.97 846 295.472 846 394H512z" stroke-linejoin="bevel"/><path fill="none" stroke-miterlimit="10" d="M193.544 277.782l-14.09-5.142h-41.66"/><path stroke="none" d="M137.793 269.247zm.945-6.89h.904l2.49 4.327.745 1.428h.042l-.07-1.087c-.04-.562-.04-1.108-.04-1.108v-3.56h.83v6.89h-.91l-2.5-4.338-.75-1.42h-.04c.04.52.07 1.06.07 1.06.04.54.04 1.08.04 1.08v3.6h-.83v-6.89zm5.85 6.89zm.484-2.542c0-.64.195-1.14.195-1.14.194-.5.52-.846.52-.846.325-.35.75-.53.75-.53.426-.18.9-.18.9-.18.472 0 .897.18.897.18.426.18.75.52.75.52.327.34.52.84.52.84.196.5.196 1.14.196 1.14 0 .63-.195 1.13-.195 1.13-.194.5-.52.84-.52.84-.325.34-.75.52-.75.52-.426.18-.9.18-.9.18-.472 0-.897-.18-.897-.18-.426-.18-.75-.52-.75-.52-.327-.34-.52-.84-.52-.84-.196-.5-.196-1.13-.196-1.13zm0 0zm.893 0c0 .44.105.798.105.798.105.357.3.615.3.615.194.257.467.4.467.4.273.14.6.14.6.14.324 0 .598-.14.598-.14.273-.143.467-.4.467-.4.194-.258.3-.615.3-.615.104-.357.104-.798.104-.798 0-.44-.105-.804-.105-.804-.1-.36-.29-.62-.29-.62-.19-.26-.46-.4-.46-.4-.27-.14-.6-.14-.6-.14-.32 0-.6.15-.6.15-.27.14-.46.41-.46.41-.19.27-.3.63-.3.63-.1.37-.1.81-.1.81zm4.318 2.542zm.682-4.317c0-.305.184-.49.184-.49.18-.183.44-.183.44-.183.25 0 .43.184.43.184.18.19.18.49.18.49 0 .29-.19.47-.19.47-.18.19-.44.19-.44.19-.27 0-.45-.18-.45-.18-.19-.18-.19-.46-.19-.46zm0 0zm0 3.79c0-.303.184-.487.184-.487.18-.184.44-.184.44-.184.25 0 .43.18.43.18.18.18.18.49.18.49 0 .28-.19.47-.19.47-.18.18-.44.18-.44.18-.27 0-.45-.19-.45-.19-.19-.19-.19-.47-.19-.47zm4.055.527zm.83-.714h1.533v-4.937h-1.218v-.557c.462-.09.803-.21.803-.21.342-.12.615-.29.615-.29h.662v5.99h1.386v.71h-3.78v-.72zm4.39.714zm2.616.126c-1.02 0-1.586-.904-1.586-.904-.567-.91-.567-2.6-.567-2.6 0-1.69.567-2.58.567-2.58.567-.88 1.586-.88 1.586-.88 1.01 0 1.576.88 1.576.88.567.88.567 2.57.567 2.57 0 1.69-.57 2.59-.57 2.59-.57.9-1.58.9-1.58.9zm0 0zm0-.693c.294 0 .53-.163.53-.163.237-.163.41-.504.41-.504.174-.342.268-.872.268-.872.095-.53.095-1.26.095-1.26 0-.73-.1-1.26-.1-1.26-.1-.52-.27-.85-.27-.85-.18-.33-.41-.49-.41-.49-.24-.15-.53-.15-.53-.15-.3 0-.54.16-.54.16-.24.16-.42.49-.42.49-.18.33-.27.86-.27.86-.1.53-.1 1.26-.1 1.26 0 1.47.36 2.14.36 2.14.36.67.95.67.95.67zm2.605.567zm1.21-1.797c0 .284.11.515.11.515.11.23.31.405.31.405.2.173.46.267.46.267.27.095.57.095.57.095.59 0 .95-.326.95-.326.37-.325.37-.85.37-.85 0-.326-.14-.557-.14-.557-.14-.24-.4-.41-.4-.41-.25-.18-.58-.32-.58-.32-.33-.14-.69-.29-.69-.29-.4.27-.66.63-.66.63-.26.36-.26.82-.26.82zm0 0zm1.89-1.86c.34-.303.52-.64.52-.64.19-.336.19-.703.19-.703 0-.505-.3-.846-.3-.846-.3-.34-.86-.34-.86-.34-.47 0-.78.3-.78.3-.3.3-.3.79-.3.79 0 .31.13.52.13.52.13.22.34.39.34.39.22.17.5.3.5.3.28.13.59.25.59.25zm0 0zm-2.66 1.945c0-.326.11-.604.11-.604.11-.27.29-.5.29-.5.18-.22.4-.4.4-.4.23-.17.47-.3.47-.3v-.04c-.36-.26-.65-.63-.65-.63-.28-.37-.28-.9-.28-.9 0-.39.15-.7.15-.7.15-.31.4-.54.4-.54.25-.23.6-.35.6-.35.35-.12.76-.12.76-.12.44 0 .79.13.79.13.35.13.6.37.6.37.25.24.38.57.38.57.13.33.13.72.13.72 0 .26-.09.51-.09.51-.09.24-.22.45-.22.45-.13.21-.29.38-.29.38-.16.17-.32.28-.32.28v.05c.22.13.43.29.43.29.21.16.38.37.38.37.16.21.26.47.26.47.1.26.1.6.1.6 0 .38-.16.7-.16.7-.16.33-.44.57-.44.57-.28.24-.68.38-.68.38-.4.14-.88.14-.88.14-.47 0-.88-.14-.88-.14-.41-.14-.69-.38-.69-.38-.29-.25-.46-.59-.46-.59-.17-.33-.17-.73-.17-.73zm4.79 1.712zm.69-1.355c.3.304.7.535.7.535.41.232 1 .232 1 .232.31 0 .57-.12.57-.12.27-.11.47-.31.47-.31.2-.2.32-.49.32-.49.12-.29.12-.63.12-.63 0-.7-.39-1.08-.39-1.08-.39-.39-1.04-.39-1.04-.39-.35 0-.59.1-.59.1-.24.1-.55.3-.55.3l-.46-.3.22-3.23h3.36v.74h-2.6l-.18 1.98c.24-.13.48-.2.48-.2.24-.07.55-.07.55-.07.43 0 .81.12.81.12.38.13.66.38.66.38.28.25.45.65.45.65.16.39.16.94.16.94 0 .54-.19.96-.19.96-.19.42-.5.71-.5.71-.31.29-.72.44-.72.44-.4.15-.84.15-.84.15-.4 0-.73-.08-.73-.08-.33-.08-.6-.21-.6-.21-.27-.13-.48-.29-.48-.29-.22-.16-.38-.34-.38-.34z"/></svg>