<svg xmlns="http://www.w3.org/2000/svg" stroke="#000" viewBox="0 0 1024 768" font-size="1"><path fill="#FFF" stroke="none" d="M0 0v768h1024V0z"/><path stroke="none" d="M343.196 14.102zm1.186-10.04h2.264v3.864h3.465V4.06h2.28v10.042h-2.28v-4.19h-3.46v4.19h-2.26V4.062zm9.194 10.04zm.554-3.82c0-.955.308-1.7.308-1.7.308-.748.824-1.257.824-1.257.516-.508 1.194-.777 1.194-.777.677-.27 1.4-.27 1.4-.27.725 0 1.395.27 1.395.27.67.27 1.19.777 1.19.777.52.51.83 1.256.83 1.256.31.75.31 1.71.31 1.71 0 .96-.31 1.7-.31 1.7-.3.75-.82 1.26-.82 1.26-.51.51-1.18.78-1.18.78-.67.27-1.39.27-1.39.27-.72 0-1.4-.27-1.4-.27-.68-.27-1.19-.77-1.19-.77-.51-.51-.82-1.25-.82-1.25-.3-.74-.3-1.7-.3-1.7zm0 0zm2.326 0c0 1 .346 1.586.346 1.586.347.586 1.055.586 1.055.586.693 0 1.047-.586 1.047-.586.355-.585.355-1.586.355-1.586 0-1-.36-1.586-.36-1.586-.36-.585-1.05-.585-1.05-.585-.71 0-1.06.59-1.06.59-.35.59-.35 1.59-.35 1.59zm5.544 3.82zm.37-7.64h2.248l.74 3.543c.092.57.17 1.124.17 1.124.076.55.168 1.14.168 1.14h.062c.107-.59.208-1.16.208-1.16.1-.57.238-1.11.238-1.11l.847-3.54h1.96l.87 3.54c.14.57.25 1.12.25 1.12l.23 1.14h.07c.11-.59.18-1.14.18-1.14.07-.56.18-1.13.18-1.13l.73-3.54h2.1l-1.83 7.64h-2.65l-.69-3.05c-.12-.54-.21-1.08-.21-1.08-.09-.54-.2-1.16-.2-1.16h-.06c-.11.61-.19 1.15-.19 1.15-.08.54-.19 1.08-.19 1.08l-.67 3.05h-2.59zm14.784 7.64zm1-10.796h2.265v8.516c0 .355.13.493.13.493.13.14.27.14.27.14h.13l.14-.032.28 1.68c-.19.076-.47.13-.47.13-.29.053-.67.053-.67.053-.59 0-.99-.184-.99-.184-.4-.185-.64-.516-.64-.516-.24-.33-.35-.8-.35-.8-.11-.47-.11-1.056-.11-1.056V3.306zm3.404 10.796zm.555-3.82c0-.955.308-1.7.308-1.7.31-.748.83-1.257.83-1.257.52-.508 1.2-.777 1.2-.777.68-.27 1.4-.27 1.4-.27.73 0 1.4.27 1.4.27.67.27 1.19.777 1.19.777.52.51.83 1.256.83 1.256.31.75.31 1.71.31 1.71 0 .96-.3 1.7-.3 1.7-.3.75-.82 1.26-.82 1.26-.52.51-1.19.78-1.19.78-.67.27-1.39.27-1.39.27-.72 0-1.4-.27-1.4-.27-.68-.27-1.19-.77-1.19-.77-.51-.51-.82-1.25-.82-1.25-.31-.74-.31-1.7-.31-1.7zm0 0zm2.325 0c0 1 .347 1.586.347 1.586.346.586 1.055.586 1.055.586.693 0 1.047-.586 1.047-.586.354-.585.354-1.586.354-1.586 0-1-.35-1.586-.35-1.586-.35-.585-1.04-.585-1.04-.585-.71 0-1.05.59-1.05.59-.34.59-.34 1.59-.34 1.59zm5.668 3.82zm1-7.64h1.85l.153.97h.06c.49-.46 1.07-.807 1.07-.807.58-.347 1.37-.347 1.37-.347 1.25 0 1.81.816 1.81.816.56.817.56 2.264.56 2.264v4.744h-2.27v-4.45c0-.833-.23-1.14-.23-1.14-.23-.31-.72-.31-.72-.31-.43 0-.74.194-.74.194-.31.192-.68.547-.68.547v5.16h-2.26v-7.64zm7.81 7.64zm2.386.954c0 .432.462.655.462.655.462.23 1.232.23 1.232.23.77 0 1.263-.27 1.263-.27.49-.27.49-.67.49-.67 0-.35-.3-.47-.3-.47-.3-.12-.87-.12-.87-.12h-.79c-.4 0-.65-.02-.65-.02-.25-.02-.43-.07-.43-.07-.42.37-.42.76-.42.76zm0 0zm-1.864.355c0-.92 1.094-1.54 1.094-1.54v-.06c-.308-.2-.508-.51-.508-.51-.2-.3-.2-.78-.2-.78 0-.41.246-.79.246-.79.246-.37.616-.64.616-.64v-.06c-.4-.28-.716-.79-.716-.79-.316-.51-.316-1.19-.316-1.19 0-.69.262-1.21.262-1.21.262-.51.7-.86.7-.86.44-.35 1.01-.51 1.01-.51.57-.17 1.185-.17 1.185-.17.68 0 1.19.19 1.19.19h2.79v1.64h-1.21c.11.17.18.44.18.44.07.27.07.57.07.57 0 .67-.23 1.15-.23 1.15-.23.48-.64.8-.64.8-.4.31-.95.47-.95.47-.54.15-1.18.15-1.18.15-.44 0-.92-.15-.92-.15-.15.13-.21.25-.21.25-.06.12-.06.33-.06.33 0 .29.26.43.26.43.26.14.9.14.9.14h1.2c1.42 0 2.17.45 2.17.45.75.46.75 1.49.75 1.49 0 .6-.3 1.1-.3 1.1-.3.5-.85.86-.85.86-.55.36-1.34.57-1.34.57-.78.21-1.77.21-1.77.21-.68 0-1.25-.12-1.25-.12-.58-.11-1.01-.35-1.01-.35-.44-.23-.68-.6-.68-.6-.24-.37-.24-.87-.24-.87zm0 0zm3.373-5.09c.45 0 .75-.31.75-.31.3-.31.3-.96.3-.96 0-.6-.3-.91-.3-.91-.3-.31-.74-.31-.74-.31-.44 0-.74.31-.74.31-.3.31-.3.93-.3.93 0 .65.3.96.3.96.3.32.75.32.75.32zm7.54 3.79zm.6-3.82c0-.94.27-1.68.27-1.68.27-.74.71-1.25.71-1.25.44-.51 1.02-.79 1.02-.79.58-.27 1.18-.27 1.18-.27.65 0 1.06.22 1.06.22.42.22.82.59.82.59l-.09-1.17V3.31h2.27V14.1h-1.85l-.15-.754h-.06c-.4.4-.94.67-.94.67-.54.27-1.09.27-1.09.27-.71 0-1.28-.278-1.28-.278-.58-.278-.98-.794-.98-.794-.41-.516-.63-1.255-.63-1.255-.22-.74-.22-1.68-.22-1.68zm0 0zm2.33-.03c0 1.14.36 1.66.36 1.66.37.53 1.03.53 1.03.53.37 0 .67-.15.67-.15.3-.15.58-.54.58-.54V8.62c-.3-.278-.63-.386-.63-.386-.32-.108-.63-.108-.63-.108-.54 0-.95.516-.95.516-.41.516-.41 1.61-.41 1.61zm5.9 3.85zm2.13-8.76c-.57 0-.94-.33-.94-.33-.37-.33-.37-.85-.37-.85 0-.52.37-.84.37-.84.37-.32.94-.32.94-.32.59 0 .95.32.95.32.36.32.36.85.36.85 0 .53-.36.86-.36.86-.36.33-.94.33-.94.33zm0 0zm-1.12 1.13h2.27v7.64h-2.26V6.47zm3.25 7.64zm.6-3.82c0-.94.27-1.68.27-1.68.27-.74.71-1.25.71-1.25.44-.52 1.02-.79 1.02-.79.58-.28 1.18-.28 1.18-.28.65 0 1.07.22 1.07.22.42.22.82.59.82.59L429 5.92V3.31h2.266V14.1h-1.85l-.15-.754h-.06c-.403.4-.94.67-.94.67-.54.27-1.095.27-1.095.27-.71 0-1.28-.278-1.28-.278-.58-.278-.99-.794-.99-.794-.4-.516-.63-1.255-.63-1.255-.22-.74-.22-1.68-.22-1.68zm0 0zm2.33-.03c0 1.14.37 1.66.37 1.66.36.53 1.03.53 1.03.53.37 0 .67-.15.67-.15.3-.15.58-.54.58-.54V8.62c-.31-.278-.63-.386-.63-.386-.32-.108-.63-.108-.63-.108-.54 0-.95.516-.95.516-.42.516-.42 1.61-.42 1.61zm9.11 3.85zm1.17 1.11l.25.07c.14.03.26.03.26.03.57 0 .88-.28.88-.28.31-.27.47-.72.47-.72l.11-.4-2.94-7.44h2.28L439 9.74c.17.525.308 1.064.308 1.064.14.54.293 1.11.293 1.11h.06l.26-1.087c.13-.55.27-1.09.27-1.09l.93-3.28h2.17l-2.64 7.717c-.27.72-.57 1.27-.57 1.27-.3.54-.69.903-.69.903-.39.363-.89.548-.89.548-.5.185-1.18.185-1.18.185-.35 0-.6-.04-.6-.04-.24-.038-.48-.115-.48-.115l.4-1.723zm6.73-1.1zm.56-3.82c0-.95.31-1.7.31-1.7.31-.75.83-1.26.83-1.26.52-.51 1.2-.77 1.2-.77.68-.27 1.4-.27 1.4-.27.73 0 1.4.27 1.4.27.67.27 1.19.78 1.19.78.52.51.83 1.26.83 1.26.31.75.31 1.7.31 1.7 0 .96-.31 1.7-.31 1.7-.31.75-.82 1.26-.82 1.26-.51.51-1.18.78-1.18.78-.67.27-1.39.27-1.39.27-.72 0-1.4-.27-1.4-.27-.68-.27-1.19-.78-1.19-.78-.51-.51-.82-1.26-.82-1.26-.31-.74-.31-1.7-.31-1.7zm0 0zm2.33 0c0 1 .35 1.59.35 1.59.35.59 1.06.59 1.06.59.7 0 1.05-.59 1.05-.59.36-.58.36-1.58.36-1.58 0-1-.35-1.58-.35-1.58-.35-.58-1.05-.58-1.05-.58-.71 0-1.05.59-1.05.59-.34.59-.34 1.59-.34 1.59zm5.67 3.82zm.92-7.64h2.27v4.45c0 .83.23 1.14.23 1.14.23.31.72.31.72.31.43 0 .73-.2.73-.2.29-.2.63-.64.63-.64V6.47h2.26v7.63h-1.84l-.17-1.063h-.05c-.49.584-1.05.915-1.05.915-.56.33-1.35.33-1.35.33-1.25 0-1.81-.815-1.81-.815-.56-.816-.56-2.264-.56-2.264v-4.74zm11.03 7.64zm.92-7.64h2.26v4.45c0 .83.24 1.14.24 1.14.23.31.72.31.72.31.43 0 .73-.2.73-.2.29-.2.63-.64.63-.64V6.47h2.27v7.63h-1.85l-.17-1.063h-.04c-.49.584-1.05.915-1.05.915-.56.33-1.34.33-1.34.33-1.25 0-1.81-.815-1.81-.815-.57-.816-.57-2.264-.57-2.264v-4.74zm7.82 7.64zm1.34-2.29c.53.4 1 .6 1 .6.48.2.97.2.97.2.51 0 .74-.17.74-.17.24-.16.24-.47.24-.47 0-.18-.13-.33-.13-.33-.13-.14-.36-.27-.36-.27-.22-.12-.5-.22-.5-.22-.27-.1-.57-.22-.57-.22-.35-.14-.7-.32-.7-.32-.35-.18-.64-.45-.64-.45-.29-.27-.48-.63-.48-.63-.18-.36-.18-.84-.18-.84 0-.52.21-.97.21-.97.21-.44.6-.75.6-.75.39-.3.93-.48.93-.48.54-.18 1.2-.18 1.2-.18.88 0 1.54.3 1.54.3.66.3 1.15.67 1.15.67l-1.01 1.35c-.42-.31-.82-.48-.82-.48-.4-.17-.8-.17-.8-.17-.86 0-.86.6-.86.6 0 .18.13.32.13.32.12.13.33.24.33.24.21.11.48.21.48.21l.56.21c.37.14.73.32.73.32.36.18.66.44.66.44.3.26.49.64.49.64.18.38.18.9.18.9 0 .52-.2.97-.2.97-.2.45-.6.78-.6.78-.4.33-.99.53-.99.53-.58.19-1.35.19-1.35.19-.76 0-1.55-.29-1.55-.29-.8-.29-1.38-.77-1.38-.77zm5.49 2.3zm.55-3.82c0-.92.31-1.67.31-1.67.31-.75.81-1.26.81-1.26.5-.51 1.15-.79 1.15-.79.65-.28 1.34-.28 1.34-.28.82 0 1.43.28 1.43.28.61.28 1.02.77 1.02.77.41.49.61 1.16.61 1.16.2.67.2 1.46.2 1.46 0 .31-.03.57-.03.57-.03.26-.06.39-.06.39h-4.58c.16.88.69 1.27.69 1.27.53.4 1.3.4 1.3.4.82 0 1.65-.5 1.65-.5l.76 1.37c-.58.4-1.3.63-1.3.63-.71.23-1.41.23-1.41.23-.82 0-1.52-.27-1.52-.27-.71-.27-1.23-.78-1.23-.78-.52-.51-.82-1.25-.82-1.25-.29-.74-.29-1.7-.29-1.7zm0 0zm4.93-.78c0-.66-.29-1.08-.29-1.08-.29-.42-.98-.42-.98-.42-.54 0-.95.36-.95.36-.41.36-.53 1.13-.53 1.13h2.76zm5.7 4.6zm1.17-10.05h2.26v3.86h3.47V4.06h2.28v10.042h-2.28v-4.19h-3.46v4.19h-2.26V4.062zM501 14.13zm.724-2.13c0-1.2 1.016-1.88 1.016-1.88 1.01-.69 3.27-.92 3.27-.92-.03-.51-.304-.81-.304-.81-.276-.3-.892-.3-.892-.3-.49 0-.983.19-.983.19-.5.186-1.05.51-1.05.51l-.8-1.495c.73-.444 1.54-.722 1.54-.722.81-.276 1.71-.276 1.71-.276 1.48 0 2.26.84 2.26.84.77.84.77 2.61.77 2.61v4.37h-1.85l-.17-.787h-.05c-.5.43-1.04.7-1.04.7-.55.27-1.2.27-1.2.27-.52 0-.94-.18-.94-.18-.42-.18-.71-.5-.71-.5-.29-.32-.46-.73-.46-.73-.17-.42-.17-.91-.17-.91zm0 0zm2.156-.17c0 .37.24.55.24.55.24.18.64.18.64.18.4 0 .68-.17.68-.17.276-.16.584-.47.584-.47v-1.34c-1.213.17-1.68.496-1.68.496-.46.324-.46.77-.46.77zm5.346 2.3zm1.34-2.3c.523.4 1 .6 1 .6.477.2.97.2.97.2.51 0 .74-.17.74-.17.23-.17.23-.47.23-.47 0-.18-.13-.33-.13-.33-.13-.14-.355-.27-.355-.27-.22-.12-.5-.22-.5-.22-.27-.1-.57-.22-.57-.22-.35-.14-.7-.32-.7-.32-.35-.183-.64-.453-.64-.453-.29-.27-.48-.63-.48-.63-.18-.36-.18-.84-.18-.84 0-.52.21-.97.21-.97.21-.443.6-.75.6-.75.39-.31.92-.485.92-.485.54-.17 1.2-.17 1.2-.17.88 0 1.54.3 1.54.3.67.3 1.16.67 1.16.67l-1.01 1.36c-.42-.31-.82-.48-.82-.48-.4-.17-.8-.17-.8-.17-.86 0-.86.6-.86.6 0 .18.13.31.13.31.13.13.33.24.33.24.21.11.48.21.48.21l.56.21c.37.14.73.315.73.315.37.173.67.434.67.434.3.26.49.64.49.64.19.38.19.9.19.9 0 .53-.2.97-.2.97-.2.45-.6.78-.6.78-.4.33-.99.52-.99.52-.58.19-1.35.19-1.35.19-.75 0-1.55-.29-1.55-.29-.794-.29-1.38-.77-1.38-.77zm5.48 2.3zm1-10.79h2.2V9.5h.06l2.42-3.033h2.46L521.5 9.61l2.88 4.49h-2.45l-1.722-2.98-.97 1.09v1.88h-2.2V3.3zm7.006 10.8zm.56-3.82c0-.92.31-1.67.31-1.67.31-.75.81-1.26.81-1.26.5-.52 1.14-.79 1.14-.79.65-.27 1.34-.27 1.34-.27.82 0 1.43.28 1.43.28.61.277 1.02.77 1.02.77.41.49.61 1.16.61 1.16.2.67.2 1.457.2 1.457 0 .307-.03.56-.03.56-.032.256-.062.394-.062.394h-4.58c.15.88.684 1.27.684 1.27.53.39 1.3.39 1.3.39.82 0 1.65-.5 1.65-.5l.756 1.37c-.58.4-1.3.63-1.3.63-.715.23-1.41.23-1.41.23-.814 0-1.52-.27-1.52-.27-.71-.27-1.23-.78-1.23-.78-.527-.51-.82-1.25-.82-1.25-.29-.74-.29-1.69-.29-1.69zm0 0zm4.93-.78c0-.66-.29-1.07-.29-1.07-.29-.42-.984-.42-.984-.42-.54 0-.945.37-.945.37-.41.36-.53 1.13-.53 1.13h2.754zm2.49 4.61zm1-10.79h2.27v8.52c0 .36.13.497.13.497.13.14.27.14.27.14h.13l.15-.03.28 1.68c-.18.076-.47.13-.47.13-.28.053-.67.053-.67.053-.58 0-.98-.185-.98-.185-.4-.19-.64-.52-.64-.52-.24-.33-.35-.8-.35-.8-.11-.47-.11-1.053-.11-1.053V3.31zm3.41 10.8zm1-10.792h2.27v8.52c0 .356.13.494.13.494.13.14.27.14.27.14h.13l.15-.03.275 1.68c-.185.08-.47.13-.47.13-.285.06-.67.06-.67.06-.585 0-.986-.183-.986-.183-.4-.19-.64-.52-.64-.52-.24-.33-.34-.8-.34-.8-.11-.47-.11-1.06-.11-1.06V3.31zm6.61 10.8zm1-10.795h2.27V6l-.06 1.17c.445-.4.96-.626.96-.626.517-.22 1.056-.22 1.056-.22.695 0 1.25.27 1.25.27.55.28.947.78.947.78.39.5.6 1.22.6 1.22.21.72.21 1.598.21 1.598 0 .99-.27 1.76-.27 1.76-.27.77-.724 1.3-.724 1.3-.45.53-1.03.81-1.03.81-.57.28-1.19.28-1.19.28-.51 0-1.02-.25-1.02-.25-.51-.25-.96-.74-.96-.74H547l-.183.8h-1.77V3.307zm0 0zm2.27 8.64c.31.276.616.384.616.384.31.11.6.11.6.11.588 0 1-.53 1-.53.418-.53.418-1.72.418-1.72 0-2.06-1.326-2.06-1.326-2.06-.67 0-1.31.69-1.31.69V12zm5.56 2.155zm.55-3.82c0-.92.31-1.67.31-1.67.31-.75.81-1.26.81-1.26.5-.52 1.147-.8 1.147-.8.64-.274 1.34-.274 1.34-.274.81 0 1.42.28 1.42.28.61.278 1.01.77 1.01.77.41.49.61 1.16.61 1.16.2.67.2 1.46.2 1.46 0 .31-.03.565-.03.565-.03.25-.06.39-.06.39h-4.58c.15.87.68 1.27.68 1.27.53.39 1.3.39 1.3.39.81 0 1.64-.51 1.64-.51l.76 1.37c-.58.4-1.3.63-1.3.63-.71.23-1.41.23-1.41.23-.81 0-1.52-.27-1.52-.27-.71-.27-1.23-.79-1.23-.79-.53-.51-.82-1.25-.82-1.25-.3-.74-.3-1.7-.3-1.7zm0 0zm4.93-.784c0-.66-.29-1.076-.29-1.076-.29-.42-.99-.42-.99-.42-.54 0-.942.36-.942.36-.41.36-.537 1.13-.537 1.13h2.76zm2.42 4.607zm5.31-9.04c-.43-.15-.782-.15-.782-.15-.42 0-.65.25-.65.25-.23.26-.23.84-.23.84v.46h1.37V8.3h-1.37v5.868h-2.267v-5.9h-1.016v-1.7l1.02-.073v-.42c0-.6.15-1.14.15-1.14.145-.54.484-.94.484-.94.34-.4.87-.63.87-.63.54-.23 1.31-.23 1.31-.23.48 0 .87.098.87.098.39.09.66.183.66.183zm-.212 9.04zm.55-3.82c0-.95.303-1.7.303-1.7.31-.74.826-1.25.826-1.25.51-.51 1.19-.78 1.19-.78.67-.27 1.4-.27 1.4-.27.72 0 1.39.27 1.39.27.67.27 1.18.78 1.18.78.52.51.82 1.26.82 1.26.31.74.31 1.7.31 1.7 0 .95-.31 1.7-.31 1.7-.31.75-.83 1.26-.83 1.26-.52.51-1.19.78-1.19.78-.67.27-1.39.27-1.39.27-.73 0-1.4-.27-1.4-.27-.68-.27-1.2-.78-1.2-.78-.52-.51-.82-1.25-.82-1.25-.3-.75-.3-1.7-.3-1.7zm0 0zm2.32 0c0 1 .343 1.59.343 1.59.35.59 1.056.59 1.056.59.69 0 1.05-.58 1.05-.58.35-.58.35-1.59.35-1.59 0-1-.36-1.59-.36-1.59-.35-.58-1.04-.58-1.04-.58-.71 0-1.05.59-1.05.59-.35.59-.35 1.59-.35 1.59zm5.664 3.82zm1-7.64h1.85l.154 1.34h.06c.415-.78 1-1.15 1-1.15.586-.37 1.17-.37 1.17-.37.324 0 .53.04.53.04.21.04.38.11.38.11l-.37 1.96c-.214-.06-.4-.09-.4-.09-.183-.03-.43-.03-.43-.03-.43 0-.9.31-.9.31-.47.31-.78 1.1-.78 1.1v4.44h-2.27v-7.7zm4.976 7.64zm.555-3.82c0-.92.31-1.67.31-1.67.31-.74.81-1.26.81-1.26.5-.52 1.15-.8 1.15-.8.645-.27 1.34-.27 1.34-.27.815 0 1.42.28 1.42.28.61.28 1.02.77 1.02.77.41.49.61 1.16.61 1.16.2.67.2 1.46.2 1.46 0 .31-.03.56-.03.56-.03.25-.06.39-.06.39h-4.574c.16.88.69 1.27.69 1.27.53.39 1.3.39 1.3.39.82 0 1.65-.51 1.65-.51l.75 1.37c-.58.4-1.3.63-1.3.63-.71.23-1.41.23-1.41.23-.81 0-1.52-.26-1.52-.26-.71-.27-1.23-.78-1.23-.78-.52-.51-.81-1.25-.81-1.25-.3-.74-.3-1.69-.3-1.69zm0 0zm4.93-.78c0-.66-.29-1.08-.29-1.08-.29-.41-.985-.41-.985-.41-.54 0-.947.36-.947.36-.41.36-.53 1.13-.53 1.13h2.76zm5.7 4.61zm1.17 1.11l.25.07c.14.03.26.03.26.03.57 0 .88-.27.88-.27.3-.27.46-.72.46-.72l.105-.4-2.95-7.44h2.28l1.08 3.26c.17.53.31 1.07.31 1.07.14.54.29 1.11.29 1.11h.07c.12-.54.252-1.09.252-1.09.13-.55.27-1.08.27-1.08l.92-3.28h2.17l-2.65 7.72c-.277.72-.58 1.27-.58 1.27-.3.54-.695.91-.695.91-.39.36-.89.54-.89.54-.5.18-1.18.18-1.18.18-.353 0-.6-.04-.6-.04-.246-.04-.48-.12-.48-.12l.4-1.73zm6.73-1.1zm.55-3.84c0-.95.31-1.7.31-1.7.31-.74.83-1.25.83-1.25.514-.51 1.19-.77 1.19-.77.68-.27 1.4-.27 1.4-.27.72 0 1.39.27 1.39.27.67.27 1.19.77 1.19.77.514.51.82 1.25.82 1.25.31.75.31 1.71.31 1.71 0 .96-.31 1.7-.31 1.7-.305.75-.82 1.26-.82 1.26-.52.51-1.19.78-1.19.78-.67.27-1.395.27-1.395.27-.73 0-1.41-.27-1.41-.27-.68-.27-1.19-.78-1.19-.78-.52-.51-.83-1.25-.83-1.25-.31-.74-.31-1.7-.31-1.7zm0 0zm2.326 0c0 1 .35 1.59.35 1.59.35.59 1.06.59 1.06.59.69 0 1.05-.59 1.05-.59.35-.59.35-1.59.35-1.59 0-1-.36-1.58-.36-1.58-.35-.58-1.04-.58-1.04-.58-.71 0-1.05.59-1.05.59-.35.59-.35 1.59-.35 1.59zm5.67 3.82zm.92-7.64h2.27v4.46c0 .83.23 1.14.23 1.14.23.31.72.31.72.31.43 0 .72-.2.72-.2.3-.2.63-.64.63-.64V6.5h2.27v7.63h-1.85l-.17-1.066h-.05c-.5.586-1.06.917-1.06.917-.56.33-1.35.33-1.35.33-1.25 0-1.81-.81-1.81-.81-.56-.81-.56-2.26-.56-2.26V6.47zm11.03 7.64zm1.34-2.29c.53.4 1 .6 1 .6.48.2.97.2.97.2.51 0 .74-.17.74-.17.23-.17.23-.47.23-.47 0-.18-.13-.33-.13-.33-.13-.14-.35-.27-.35-.27-.22-.12-.5-.22-.5-.22-.28-.1-.57-.22-.57-.22-.35-.14-.71-.32-.71-.32-.35-.18-.64-.45-.64-.45-.29-.27-.47-.63-.47-.63-.19-.36-.19-.84-.19-.84 0-.52.21-.97.21-.97.21-.44.59-.75.59-.75.38-.31.92-.49.92-.49.54-.17 1.2-.17 1.2-.17.88 0 1.54.3 1.54.3.67.3 1.16.67 1.16.67L625.3 8.7c-.414-.31-.815-.48-.815-.48-.4-.17-.8-.17-.8-.17-.86 0-.86.6-.86.6 0 .184.124.315.124.315.12.13.33.24.33.24.21.1.48.2.48.2l.56.208c.37.14.73.318.73.318.36.17.66.43.66.43.3.26.49.64.49.64.18.37.18.9.18.9 0 .52-.2.97-.2.97-.2.44-.6.77-.6.77-.4.33-.99.52-.99.52-.58.19-1.35.19-1.35.19-.76 0-1.55-.29-1.55-.29-.8-.29-1.38-.77-1.38-.77zm5.48 2.3zm1.31-5.87h-1.04V6.56l1.17-.09.26-2.035h1.88V6.47h1.83v1.77h-1.83v3.06c0 .646.26.93.26.93.27.285.72.285.72.285.19 0 .38-.046.38-.046.19-.05.35-.11.35-.11l.35 1.65c-.31.09-.72.18-.72.18-.42.09-.97.09-.97.09-.71 0-1.21-.22-1.21-.22-.5-.22-.82-.6-.82-.6-.31-.39-.46-.94-.46-.94-.14-.55-.14-1.21-.14-1.21V8.23zm4.44 5.87zm.56-3.82c0-.95.31-1.7.31-1.7.31-.74.83-1.25.83-1.25.52-.51 1.2-.77 1.2-.77.68-.27 1.4-.27 1.4-.27.73 0 1.4.27 1.4.27.67.27 1.18.78 1.18.78.51.51.82 1.25.82 1.25.31.75.31 1.7.31 1.7 0 .96-.31 1.7-.31 1.7-.31.75-.82 1.26-.82 1.26-.52.51-1.19.78-1.19.78-.67.27-1.39.27-1.39.27-.73 0-1.41-.27-1.41-.27-.68-.27-1.19-.78-1.19-.78-.51-.51-.82-1.25-.82-1.25-.3-.75-.3-1.7-.3-1.7zm0 0zm2.33 0c0 1 .35 1.59.35 1.59.35.59 1.06.59 1.06.59.7 0 1.05-.58 1.05-.58.35-.58.35-1.59.35-1.59 0-1-.35-1.58-.35-1.58-.35-.58-1.04-.58-1.04-.58-.71 0-1.06.58-1.06.58-.34.59-.34 1.59-.34 1.59zm5.67 3.82zm3.27.6V17h-2.27V6.47h1.85l.16.755h.06c.45-.4 1.01-.67 1.01-.67.56-.27 1.16-.27 1.16-.27.7 0 1.25.276 1.25.276.55.28.94.79.94.79.39.51.6 1.23.6 1.23.21.72.21 1.6.21 1.6 0 .99-.27 1.75-.27 1.75-.27.77-.72 1.3-.72 1.3-.45.54-1.03.81-1.03.81-.58.28-1.19.28-1.19.28-.49 0-.95-.21-.95-.21-.46-.21-.86-.59-.86-.59zm0 0zm0-2.75c.31.28.61.39.61.39.31.11.6.11.6.11.59 0 1.01-.53 1.01-.53.42-.53.42-1.72.42-1.72 0-2.06-1.33-2.06-1.33-2.06-.66 0-1.31.69-1.31.69V12zm5.56 2.16zm3.26.6V17h-2.26V6.46h1.85l.15.755h.06c.45-.4 1.01-.67 1.01-.67.57-.27 1.17-.27 1.17-.27.7 0 1.25.277 1.25.277.56.278.94.786.94.786.39.51.6 1.23.6 1.23.2.72.2 1.6.2 1.6 0 .987-.27 1.75-.27 1.75-.27.762-.72 1.294-.72 1.294-.45.533-1.03.81-1.03.81-.57.277-1.19.277-1.19.277-.49 0-.95-.21-.95-.21-.46-.21-.86-.59-.86-.59zm0 0zm0-2.76c.31.28.62.38.62.38.31.11.6.11.6.11.59 0 1-.53 1-.53.42-.53.42-1.72.42-1.72 0-2.06-1.32-2.06-1.32-2.06-.66 0-1.31.7-1.31.7V12zm5.56 2.15zm.56-3.82c0-.92.3-1.67.3-1.67.31-.75.81-1.26.81-1.26.5-.51 1.15-.79 1.15-.79.64-.28 1.34-.28 1.34-.28.81 0 1.42.28 1.42.28.61.27 1.02.77 1.02.77.41.49.61 1.16.61 1.16.2.67.2 1.45.2 1.45 0 .31-.03.57-.03.57-.03.25-.06.39-.06.39h-4.57c.15.88.69 1.27.69 1.27.53.4 1.3.4 1.3.4.82 0 1.65-.502 1.65-.502l.76 1.37c-.59.4-1.3.63-1.3.63-.72.23-1.41.23-1.41.23-.82 0-1.53-.27-1.53-.27-.71-.27-1.23-.784-1.23-.784-.52-.514-.81-1.25-.81-1.25-.29-.74-.29-1.7-.29-1.7zm0 0zm4.92-.78c0-.66-.29-1.08-.29-1.08-.29-.42-.98-.42-.98-.42-.54 0-.95.37-.95.37-.4.36-.53 1.13-.53 1.13h2.76zm2.5 4.61zm.6-3.82c0-.94.27-1.67.27-1.67.27-.74.71-1.26.71-1.26.44-.51 1.02-.79 1.02-.79.58-.28 1.18-.28 1.18-.28.65 0 1.06.22 1.06.22.42.21.82.58.82.58L672.3 6V3.3h2.27v10.8h-1.85l-.15-.754h-.06c-.4.4-.94.67-.94.67-.54.27-1.09.27-1.09.27-.71 0-1.29-.278-1.29-.278-.57-.278-.98-.794-.98-.794-.4-.516-.63-1.255-.63-1.255-.22-.74-.22-1.68-.22-1.68zm0 0zm2.33-.03c0 1.14.37 1.67.37 1.67.36.52 1.02.52 1.02.52.37 0 .67-.15.67-.15.3-.15.58-.54.58-.54v-3.2c-.3-.28-.63-.387-.63-.387-.32-.107-.63-.107-.63-.107-.54 0-.95.514-.95.514-.41.515-.41 1.61-.41 1.61zm5.9 3.85zm2.38-3.55c-.08-.52.04-.96.04-.96.12-.43.33-.8.33-.8.22-.37.49-.68.49-.68.27-.3.52-.59.52-.59.25-.28.41-.55.41-.55.16-.27.16-.56.16-.56 0-.47-.28-.72-.28-.72-.285-.25-.75-.25-.75-.25-.43 0-.76.2-.76.2-.33.21-.64.51-.64.51L676.14 5c.523-.63 1.232-1.016 1.232-1.016.708-.385 1.57-.385 1.57-.385.647 0 1.21.15 1.21.15.56.15.97.47.97.47.408.32.64.82.64.82.23.5.23 1.18.23 1.18 0 .47-.17.85-.17.85-.17.37-.423.7-.423.7-.26.32-.54.62-.54.62-.29.3-.53.62-.53.62-.24.32-.38.68-.38.68-.14.36-.1.82-.1.82h-1.99zm0 0zm-.37 2.33c0-.615.38-1.02.38-1.02.39-.41.97-.41.97-.41.59 0 .98.41.98.41.39.404.39 1.02.39 1.02 0 .6-.39 1.01-.39 1.01-.39.41-.98.41-.98.41-.58 0-.97-.41-.97-.41-.38-.41-.38-1.01-.38-1.01z"/><path fill="none" stroke="#D3D3D3" stroke-miterlimit="10" d="M32.505 738h957.482M32.505 562.25h957.482M32.505 386.5h957.482M32.505 210.75h957.482M32.505 35h957.482" stroke-dasharray="5 5"/><g fill="#5C3566" stroke-opacity="0" stroke-width="0" stroke-miterlimit="10" stroke-linejoin="bevel"><defs><clipPath id="a"><path d="M32.505 35v703h957.482V35z"/></clipPath></defs><g clip-path="url(#a)"><path stroke="none" d="M47.505 738V544.675h161.497V738z"/></g></g><g fill-opacity="0" stroke-miterlimit="10"><defs><clipPath id="b"><path d="M32.505 35v703h957.482V35z"/></clipPath></defs><g clip-path="url(#b)"><path fill="none" d="M47.505 738V544.675h161.497V738z"/></g></g><g fill="#5C3566" stroke-opacity="0" stroke-width="0" stroke-miterlimit="10" stroke-linejoin="bevel"><defs><clipPath id="c"><path d="M32.505 35v703h957.482V35z"/></clipPath></defs><g clip-path="url(#c)"><path stroke="none" d="M239.002 738V632.55h161.496V738z"/></g></g><g fill-opacity="0" stroke-miterlimit="10"><defs><clipPath id="d"><path d="M32.505 35v703h957.482V35z"/></clipPath></defs><g clip-path="url(#d)"><path fill="none" d="M239.002 738V632.55h161.496V738z"/></g></g><g fill="#5C3566" stroke-opacity="0" stroke-width="0" stroke-miterlimit="10" stroke-linejoin="bevel"><defs><clipPath id="e"><path d="M32.505 35v703h957.482V35z"/></clipPath></defs><g clip-path="url(#e)"><path stroke="none" d="M430.498 738V228.325h161.497V738z"/></g></g><g fill-opacity="0" stroke-miterlimit="10"><defs><clipPath id="f"><path d="M32.505 35v703h957.482V35z"/></clipPath></defs><g clip-path="url(#f)"><path fill="none" d="M430.498 738V228.325h161.497V738z"/></g></g><g fill="#5C3566" stroke-opacity="0" stroke-width="0" stroke-miterlimit="10" stroke-linejoin="bevel"><defs><clipPath id="g"><path d="M32.505 35v703h957.482V35z"/></clipPath></defs><g clip-path="url(#g)"><path stroke="none" d="M621.995 738V52.575H783.49V738z"/></g></g><g fill-opacity="0" stroke-miterlimit="10"><defs><clipPath id="h"><path d="M32.505 35v703h957.482V35z"/></clipPath></defs><g clip-path="url(#h)"><path fill="none" d="M621.995 738V52.575H783.49V738z"/></g></g><g fill="#5C3566" stroke-opacity="0" stroke-width="0" stroke-miterlimit="10" stroke-linejoin="bevel"><defs><clipPath id="i"><path d="M32.505 35v703h957.482V35z"/></clipPath></defs><g clip-path="url(#i)"><path stroke="none" d="M813.49 738V70.15h161.497V738z"/></g></g><g fill-opacity="0" stroke-miterlimit="10"><defs><clipPath id="j"><path d="M32.505 35v703h957.482V35z"/></clipPath></defs><g clip-path="url(#j)"><path fill="none" d="M813.49 738V70.15h161.497V738z"/></g></g><path fill="none" stroke-miterlimit="10" d="M32.505 738V35" stroke-linecap="square"/><path fill="none" stroke-miterlimit="10" d="M32.505 738h2m-2-87.875h2m-2-87.875h2m-2-87.875h2m-2-87.875h2m-2-87.875h2m-2-87.875h2m-2-87.875h2m-2-87.875h2m-2 703h5m-5-175.75h5m-5-175.75h5m-5-175.75h5m-5-175.75h5"/><path stroke="none" d="M18.21 741.445zm2.615.126c-1.02 0-1.586-.9-1.586-.9-.57-.9-.57-2.59-.57-2.59 0-1.69.57-2.57.57-2.57.56-.88 1.58-.88 1.58-.88 1.01 0 1.57.88 1.57.88.56.89.56 2.58.56 2.58 0 1.69-.57 2.6-.57 2.6-.57.91-1.58.91-1.58.91zm0 0zm0-.69c.294 0 .53-.16.53-.16.236-.16.41-.5.41-.5.173-.34.268-.87.268-.87.094-.53.094-1.26.094-1.26 0-.73-.094-1.26-.094-1.26-.095-.52-.268-.85-.268-.85-.173-.33-.41-.49-.41-.49-.236-.16-.53-.16-.53-.16-.294 0-.536.16-.536.16-.25.16-.42.49-.42.49-.18.33-.27.86-.27.86-.1.53-.1 1.26-.1 1.26 0 1.47.36 2.14.36 2.14.36.67.95.67.95.67zm-7.47-175.18zm.83-.71h1.535v-4.93H14.5v-.55c.463-.08.805-.2.805-.2.34-.12.614-.29.614-.29h.66V565h1.38v.714h-3.78V565zm4.39.72zm2.617.13c-1.02 0-1.586-.9-1.586-.9-.567-.9-.567-2.59-.567-2.59 0-1.69.56-2.57.56-2.57.56-.88 1.58-.88 1.58-.88 1.01 0 1.57.88 1.57.88.56.89.56 2.58.56 2.58 0 1.69-.57 2.6-.57 2.6-.57.91-1.58.91-1.58.91zm0 0zm0-.69c.294 0 .53-.16.53-.16.237-.16.41-.5.41-.5.174-.34.268-.87.268-.87.095-.53.095-1.27.095-1.27 0-.74-.095-1.26-.095-1.26-.094-.53-.268-.86-.268-.86-.173-.33-.41-.48-.41-.48-.236-.16-.53-.16-.53-.16-.294 0-.536.16-.536.16-.24.16-.414.49-.414.49-.174.33-.268.86-.268.86-.095.53-.095 1.26-.095 1.26 0 1.47.36 2.14.36 2.14.36.67.95.67.95.67zm-8.288-175.19zm.42-.51c.757-.75 1.345-1.36 1.345-1.36.58-.61.98-1.13.98-1.13.4-.52.61-.95.61-.95.21-.43.21-.84.21-.84 0-.58-.32-.94-.32-.94-.32-.37-.96-.37-.96-.37-.42.01-.78.24-.78.24-.36.24-.65.58-.65.58l-.5-.49c.42-.46.89-.74.89-.74.47-.28 1.13-.28 1.13-.28.93 0 1.47.54 1.47.54.53.54.53 1.43.53 1.43 0 .47-.2.95-.2.95-.2.48-.57.99-.57.99-.36.51-.86 1.06-.86 1.06-.5.56-1.1 1.18-1.1 1.18l.57-.04c.29-.02.55-.02.55-.02h1.94v.75H13.3v-.51zm4.8.52zm2.617.13c-1.01 0-1.58-.9-1.58-.9-.56-.9-.56-2.59-.56-2.59 0-1.69.57-2.57.57-2.57.57-.88 1.59-.88 1.59-.88 1.01 0 1.58.88 1.58.88.57.89.57 2.58.57 2.58 0 1.69-.56 2.59-.56 2.59-.56.91-1.57.91-1.57.91zm0 0zm0-.69c.3 0 .53-.16.53-.16.24-.16.41-.5.41-.5.18-.34.27-.87.27-.87.1-.53.1-1.26.1-1.26 0-.73-.09-1.26-.09-1.26-.09-.52-.27-.85-.27-.85-.17-.33-.41-.49-.41-.49-.23-.16-.53-.16-.53-.16-.29 0-.53.16-.53.16-.24.16-.41.49-.41.49-.17.33-.26.86-.26.86-.09.52-.09 1.26-.09 1.26 0 1.47.36 2.14.36 2.14.36.67.95.67.95.67zM12.8 214.2zm.72-1.387c.307.31.71.55.71.55.406.24 1 .24 1 .24.61 0 1-.33 1-.33.39-.33.39-.9.39-.9 0-.296-.11-.54-.11-.54-.11-.25-.362-.428-.362-.428-.25-.18-.66-.273-.66-.273-.41-.095-1.01-.095-1.01-.095v-.66c.536 0 .9-.096.9-.096.36-.09.587-.26.587-.26.226-.17.32-.4.32-.4.095-.23.095-.49.095-.49 0-.49-.31-.77-.31-.77-.31-.28-.84-.28-.84-.28-.42 0-.773.19-.773.19-.352.19-.656.5-.656.5l-.46-.54c.39-.37.86-.6.86-.6.47-.23 1.07-.23 1.07-.23.44 0 .81.11.81.11.37.12.64.33.64.33.27.22.42.54.42.54.15.32.15.72.15.72 0 .61-.33 1-.33 1-.33.39-.88.6-.88.6v.04c.31.08.57.22.57.22.26.14.46.36.46.36.2.22.31.5.31.5.11.29.11.63.11.63 0 .44-.17.8-.17.8-.17.36-.47.61-.47.61-.3.25-.69.38-.69.38-.4.13-.86.13-.86.13-.4 0-.73-.08-.73-.08-.33-.08-.6-.21-.6-.21-.27-.13-.49-.3-.49-.3-.22-.17-.38-.36-.38-.36zm4.51 1.38zm2.616.12c-1.02 0-1.587-.902-1.587-.902-.57-.9-.57-2.59-.57-2.59 0-1.69.56-2.57.56-2.57.56-.88 1.58-.88 1.58-.88 1.01 0 1.57.88 1.57.88.57.88.57 2.58.57 2.58 0 1.69-.57 2.6-.57 2.6-.57.9-1.58.9-1.58.9zm0 0zm0-.692c.294 0 .53-.16.53-.16.236-.16.41-.5.41-.5.173-.34.268-.87.268-.87.095-.53.095-1.26.095-1.26 0-.73-.1-1.26-.1-1.26-.1-.52-.27-.85-.27-.85-.18-.33-.41-.49-.41-.49-.24-.16-.53-.16-.53-.16-.3 0-.54.16-.54.16-.24.16-.42.49-.42.49-.18.33-.27.86-.27.86-.1.53-.1 1.26-.1 1.26 0 1.47.36 2.14.36 2.14.36.67.95.67.95.67zm-7.94-175.18zm3.19-2.54v-1.94c0-.27.018-.64.018-.64.016-.37.037-.64.037-.64h-.04c-.12.24-.26.48-.26.48-.13.24-.28.48-.28.48l-1.56 2.29h2.1zm0 0zm1.735.7h-.91v1.85h-.82V36.6h-3.01v-.568l2.87-4.288h.97v4.16h.92v.693zm.3 1.85zm2.62.13c-1.02 0-1.58-.9-1.58-.9-.56-.9-.56-2.59-.56-2.59 0-1.69.57-2.57.57-2.57.57-.88 1.59-.88 1.59-.88 1.01 0 1.58.88 1.58.88.57.89.57 2.58.57 2.58 0 1.69-.56 2.6-.56 2.6-.56.9-1.57.9-1.57.9zm0 0zm0-.69c.3 0 .53-.16.53-.16.24-.16.41-.5.41-.5.18-.34.27-.87.27-.87.1-.53.1-1.26.1-1.26 0-.73-.09-1.26-.09-1.26-.09-.52-.27-.85-.27-.85-.17-.33-.4-.49-.4-.49-.24-.16-.53-.16-.53-.16-.29 0-.54.16-.54.16-.24.16-.41.49-.41.49-.17.33-.26.85-.26.85-.09.53-.09 1.26-.09 1.26 0 1.47.37 2.14.37 2.14.36.67.95.67.95.67z"/><path fill="none" stroke-miterlimit="10" d="M32.505 738h957.482" stroke-linecap="square"/><path stroke="none" d="M105.748 758zm.357-3.834l4.507-1.765v.75l-2.217.82-1.407.53v.04l1.407.53 2.217.82v.75l-4.507-1.76v-.69zM113.09 758zm.83-.714h1.534v-4.937h-1.218v-.56c.462-.09.803-.21.803-.21.34-.12.61-.29.61-.29h.66v5.99h1.38v.72h-3.78v-.72zm6.513.714zm.494-2.542c0-.62.184-1.12.184-1.12.19-.498.49-.844.49-.844.31-.347.71-.536.71-.536.4-.19.84-.19.84-.19.44 0 .77.158.77.158.33.158.67.43.67.43l-.04-.87v-1.965h.88V758h-.71l-.07-.6h-.03c-.3.295-.7.51-.7.51-.39.216-.84.216-.84.216-.96 0-1.54-.693-1.54-.693-.57-.693-.57-1.975-.57-1.975zm0 0zm.893-.01c0 .924.367 1.44.367 1.44.368.513 1.04.513 1.04.513.357 0 .672-.17.672-.17.31-.17.63-.53.63-.53v-2.67c-.33-.29-.63-.41-.63-.41-.3-.12-.62-.12-.62-.12-.31 0-.58.14-.58.14-.27.15-.47.4-.47.4-.2.26-.32.62-.32.62-.12.36-.12.8-.12.8zm4.443 2.552zm.61-1.323c0-.84.75-1.287.75-1.287.75-.447 2.39-.625 2.39-.625 0-.242-.047-.473-.047-.473-.048-.23-.168-.41-.168-.41-.12-.178-.32-.29-.32-.29-.2-.11-.516-.11-.516-.11-.45 0-.835.17-.835.17-.383.167-.688.377-.688.377l-.35-.6c.35-.23.87-.45.87-.45.51-.22 1.13-.22 1.13-.22.93 0 1.35.57 1.35.57.42.57.42 1.53.42 1.53V758h-.72l-.08-.61h-.02c-.37.306-.8.52-.8.52-.43.216-.9.216-.9.216-.65 0-1.08-.378-1.08-.378-.43-.378-.43-1.07-.43-1.07zm0 0zm.85-.064c0 .442.257.63.257.63.258.19.636.19.636.19.367 0 .698-.173.698-.173.33-.174.7-.51.7-.51v-1.418c-.642.084-1.083.2-1.083.2-.44.115-.7.273-.7.273-.27.157-.38.362-.38.362-.11.205-.11.446-.11.446zM131.64 758zm.516 1.408l.19.047.198.026c.442 0 .72-.31.72-.31.278-.31.436-.78.436-.78l.115-.38-2.048-5.11h.893l1.04 2.83c.115.34.247.71.247.71.13.37.246.73.246.73h.042c.116-.34.22-.72.22-.72.106-.38.21-.71.21-.71l.915-2.82h.84l-1.922 5.53c-.136.38-.304.7-.304.7-.17.33-.4.56-.4.56-.23.24-.525.38-.525.38-.3.14-.69.14-.69.14-.18 0-.33-.02-.33-.02-.15-.02-.28-.08-.28-.08l.17-.68zm4.39-1.408zm.683-4.317c0-.305.18-.49.18-.49.18-.182.44-.182.44-.182.25 0 .43.19.43.19.18.19.18.49.18.49 0 .28-.19.47-.19.47-.19.19-.44.19-.44.19-.26 0-.45-.18-.45-.18-.19-.18-.19-.46-.19-.46zm0 0zm0 3.792c0-.305.18-.49.18-.49.18-.182.44-.182.44-.182.25 0 .43.183.43.183.18.184.18.49.18.49 0 .282-.19.466-.19.466-.19.184-.44.184-.44.184-.26 0-.45-.184-.45-.184-.19-.184-.19-.467-.19-.467zm4.05.525zm.83-.714h1.53v-4.937h-1.22v-.56c.46-.09.8-.21.8-.21.34-.12.61-.29.61-.29h.66v5.99h1.38v.72h-3.78v-.72zm4.39.714zm.83-.714h1.53v-4.937h-1.22v-.56c.46-.09.8-.21.8-.21.34-.12.61-.29.61-.29h.66v5.99h1.39v.72h-3.78v-.72zm148.92.714zm.35-3.834l4.5-1.765v.75l-2.22.82-1.41.53v.04l1.4.53 2.22.82v.75l-4.51-1.76v-.69zm7 3.834zm.83-.714h1.53v-4.937h-1.22v-.56c.46-.09.8-.21.8-.21.34-.12.61-.29.61-.29h.66v5.99h1.38v.72h-3.78v-.72zm6.51.714zm.25-5.105h.88l.75 2.952.16.714.15.71h.04l.17-.71.18-.71.79-2.95h.84l.8 2.95.19.72c.09.35.17.71.17.71h.04c.08-.35.15-.7.15-.7.07-.34.15-.71.15-.71l.74-2.95h.82l-1.37 5.1h-1.05l-.74-2.74c-.1-.37-.18-.72-.18-.72-.08-.35-.18-.74-.18-.74h-.05c-.08.39-.17.75-.17.75-.09.37-.19.73-.19.73l-.72 2.73h-1zm7.25 5.105zm.48-2.542c0-.63.19-1.13.19-1.13.19-.498.51-.845.51-.845.32-.346.73-.53.73-.53.41-.184.85-.184.85-.184.48 0 .87.16.87.16.38.17.64.48.64.48.26.31.39.75.39.75.13.44.13.98.13.98 0 .28-.03.47-.03.47h-3.44c.06.83.51 1.31.51 1.31.46.48 1.19.48 1.19.48.37 0 .68-.11.68-.11.31-.11.6-.29.6-.29l.3.56c-.34.21-.75.37-.75.37-.41.16-.94.16-.94.16-.52 0-.96-.19-.96-.19-.45-.19-.78-.53-.78-.53-.33-.34-.52-.84-.52-.84-.19-.5-.19-1.13-.19-1.13zm0 0zm3.57-.39c0-.786-.33-1.2-.33-1.2-.33-.416-.93-.416-.93-.416-.28 0-.52.11-.52.11-.25.11-.45.315-.45.315-.2.205-.33.504-.33.504-.14.3-.18.69-.18.69h2.73zm1.16 2.932zm.48-2.542c0-.63.19-1.13.19-1.13.19-.498.51-.845.51-.845.32-.346.73-.53.73-.53.41-.184.85-.184.85-.184.48 0 .87.16.87.16.38.17.64.48.64.48.26.31.39.75.39.75.13.44.13.98.13.98 0 .28-.03.47-.03.47h-3.45c.05.83.51 1.31.51 1.31.45.48 1.19.48 1.19.48.36 0 .67-.11.67-.11.31-.11.59-.29.59-.29l.3.56c-.34.21-.75.37-.75.37-.41.16-.94.16-.94.16-.52 0-.96-.19-.96-.19-.45-.19-.78-.53-.78-.53-.33-.34-.52-.84-.52-.84-.19-.5-.19-1.13-.19-1.13zm0 0zm3.57-.39c0-.786-.33-1.2-.33-1.2-.33-.416-.93-.416-.93-.416-.28 0-.52.11-.52.11-.25.11-.45.315-.45.315-.2.205-.33.504-.33.504-.14.3-.18.69-.18.69h2.73zm1.16 2.932zm.86-7.48h.85v5.064h.03l2.17-2.69h.95l-1.71 2.05 1.94 3.056H333l-1.49-2.458-.96 1.113V758h-.85v-7.48zm4.34 7.48zm.69-4.317c0-.305.19-.49.19-.49.18-.182.44-.182.44-.182.25 0 .43.19.43.19.19.19.19.49.19.49 0 .28-.18.47-.18.47-.18.19-.43.19-.43.19-.27 0-.45-.18-.45-.18-.18-.18-.18-.46-.18-.46zm0 0zm0 3.792c0-.305.19-.49.19-.49.18-.182.44-.182.44-.182.25 0 .43.183.43.183.19.184.19.49.19.49 0 .282-.18.466-.18.466-.18.184-.43.184-.43.184-.27 0-.45-.184-.45-.184-.18-.184-.18-.467-.18-.467zm4.06.525zm2.81-.557c.25 0 .46-.105.46-.105.21-.105.36-.3.36-.3.16-.193.24-.46.24-.46.09-.27.09-.605.09-.605 0-.662-.31-1.04-.31-1.04-.31-.378-.94-.378-.94-.378-.32 0-.69.204-.69.204-.37.2-.71.67-.71.67.08.98.46 1.49.46 1.49.37.51 1.01.51 1.01.51zm0 0zm1.37-5.02c-.21-.242-.5-.384-.5-.384-.29-.15-.61-.15-.61-.15-.35 0-.66.14-.66.14-.32.14-.56.48-.56.48-.25.33-.39.87-.39.87-.15.54-.16 1.34-.16 1.34.31-.39.73-.62.73-.62.42-.23.83-.23.83-.23.87 0 1.39.51 1.39.51.52.51.52 1.55.52 1.55 0 .48-.16.88-.16.88-.16.39-.43.67-.43.67-.28.28-.63.44-.63.44-.36.15-.77.15-.77.15-.49 0-.92-.2-.92-.2-.42-.2-.73-.61-.73-.61-.31-.4-.49-1.01-.49-1.01-.18-.6-.18-1.41-.18-1.41 0-1.01.21-1.72.21-1.72.21-.71.57-1.15.57-1.15.35-.45.81-.65.81-.65.46-.21.96-.21.96-.21.55 0 .94.2.94.2.39.2.68.51.68.51zM482.04 758zm.36-3.834l4.51-1.765v.75l-2.215.82-1.407.53v.04l1.408.53 2.217.82v.75l-4.505-1.76v-.69zm6.99 3.834zm.83-.714h1.535v-4.937h-1.216v-.56c.46-.09.8-.21.8-.21.34-.12.61-.29.61-.29h.66v5.99H494v.72h-3.783v-.72zm6.513.714zm.86-5.105h.713l.073.735h.03c.33-.367.73-.614.73-.614.39-.247.85-.247.85-.247.59 0 .92.25.92.25.33.26.48.72.48.72.4-.44.8-.71.8-.71.4-.27.88-.27.88-.27.78 0 1.17.5 1.17.5.38.5.38 1.49.38 1.49V758h-.86v-3.12c0-.724-.23-1.045-.23-1.045-.23-.32-.72-.32-.72-.32-.58 0-1.28.788-1.28.788V758h-.87v-3.12c0-.724-.23-1.045-.23-1.045-.24-.32-.73-.32-.73-.32-.58 0-1.28.788-1.28.788V758h-.86v-5.105zm7.85 5.105zm.482-2.542c0-.64.196-1.14.196-1.14.2-.5.52-.845.52-.845.33-.347.75-.525.75-.525.43-.18.9-.18.9-.18.48 0 .9.18.9.18.43.178.75.525.75.525.33.346.52.845.52.845.2.5.2 1.14.2 1.14 0 .63-.19 1.13-.19 1.13-.19.498-.52.84-.52.84-.32.34-.75.52-.75.52-.42.178-.9.178-.9.178-.47 0-.89-.18-.89-.18-.42-.177-.75-.52-.75-.52-.33-.34-.52-.84-.52-.84-.19-.498-.19-1.128-.19-1.128zm0 0zm.895 0c0 .44.105.798.105.798.104.357.298.615.298.615.194.26.467.4.467.4.272.15.6.15.6.15.323 0 .596-.14.596-.14.272-.14.466-.4.466-.4.195-.25.3-.61.3-.61.105-.35.105-.8.105-.8 0-.44-.106-.8-.106-.8-.1-.36-.3-.62-.3-.62-.19-.26-.46-.4-.46-.4-.27-.14-.6-.14-.6-.14-.32 0-.6.14-.6.14-.27.14-.47.41-.47.41-.19.26-.3.63-.3.63-.1.37-.1.81-.1.81zm4.31 2.542zm.863-5.105h.714l.07.735h.03c.37-.367.776-.614.776-.614.404-.247.94-.247.94-.247.808 0 1.18.5 1.18.5.374.5.374 1.49.374 1.49V758h-.86v-3.12c0-.724-.23-1.045-.23-1.045-.23-.32-.737-.32-.737-.32-.4 0-.7.2-.7.2-.302.2-.69.588-.69.588V758H512v-5.105zM516.88 758zm1.008-4.4h-.756v-.653l.79-.052.106-1.43h.725v1.43h1.378v.704h-1.37v2.83c0 .47.18.73.18.73.17.25.62.25.62.25.14 0 .3-.04.3-.04.16-.05.28-.1.28-.1l.17.65c-.21.07-.45.13-.45.13-.24.05-.49.05-.49.05-.41 0-.68-.13-.68-.13-.28-.13-.45-.35-.45-.35-.17-.22-.24-.54-.24-.54-.07-.32-.07-.7-.07-.7v-2.82zm2.542 4.4zm.86-7.48h.863v2.04l-.03 1.05c.367-.347.766-.594.766-.594.4-.247.93-.247.93-.247.81 0 1.18.5 1.18.5.37.5.37 1.49.37 1.49V758h-.86v-3.12c0-.725-.24-1.045-.24-1.045-.23-.32-.74-.32-.74-.32-.4 0-.71.2-.71.2-.31.2-.69.587-.69.587V758h-.86v-7.48zm4.854 7.48zm.69-4.317c0-.305.184-.49.184-.49.184-.182.446-.182.446-.182.25 0 .435.19.435.19.18.19.18.49.18.49 0 .28-.18.47-.18.47-.18.19-.44.19-.44.19-.27 0-.45-.18-.45-.18-.19-.18-.19-.46-.19-.46zm0 0zm0 3.792c0-.305.184-.49.184-.49.184-.182.446-.182.446-.182.25 0 .435.183.435.183.18.184.18.49.18.49 0 .282-.18.466-.18.466-.18.184-.44.184-.44.184-.27 0-.45-.184-.45-.184-.19-.184-.19-.467-.19-.467zm4.055.525zm.42-.515c.75-.756 1.34-1.365 1.34-1.365.59-.61.99-1.13.99-1.13.4-.52.61-.955.61-.955.21-.436.21-.846.21-.846 0-.58-.32-.95-.32-.95-.32-.37-.96-.37-.96-.37-.42 0-.78.23-.78.23-.36.23-.65.57-.65.57l-.5-.5c.42-.46.89-.74.89-.74.47-.28 1.13-.28 1.13-.28.93 0 1.47.54 1.47.54.53.54.53 1.43.53 1.43 0 .47-.21.95-.21.95-.21.48-.57.98-.57.98-.36.51-.86 1.06-.86 1.06-.5.55-1.1 1.17-1.1 1.17l.57-.04c.29-.02.55-.02.55-.02h1.94v.75h-4.33v-.52zm4.8.515zm2.47-3.256c.32 0 .69-.205.69-.205.37-.21.71-.69.71-.69-.09-.99-.47-1.49-.47-1.49-.38-.51-1.02-.51-1.02-.51-.24 0-.46.1-.46.1-.22.1-.37.3-.37.3-.16.19-.25.46-.25.46-.09.27-.09.6-.09.6 0 .66.3 1.04.3 1.04.3.37.93.37.93.37zm0 0zm-1.45 2.132c.21.242.5.39.5.39.28.146.6.146.6.146.36 0 .67-.147.67-.147.31-.147.55-.49.55-.49.24-.34.39-.886.39-.886.14-.55.15-1.36.15-1.36-.32.4-.74.63-.74.63-.42.23-.84.23-.84.23-.87 0-1.39-.52-1.39-.52-.52-.52-.52-1.56-.52-1.56 0-.49.16-.88.16-.88.16-.4.42-.68.42-.68.27-.28.63-.44.63-.44.36-.16.76-.16.76-.16.49 0 .92.2.92.2.42.2.73.6.73.6.31.4.48 1.01.48 1.01.17.6.17 1.41.17 1.41 0 1.01-.21 1.72-.21 1.72-.21.71-.57 1.15-.57 1.15-.35.44-.81.65-.81.65-.46.2-.96.2-.96.2-.54 0-.94-.2-.94-.2-.41-.2-.68-.51-.68-.51zM678.77 758zm.357-3.834l4.504-1.765v.75l-2.21.82-1.41.53v.04l1.41.53 2.22.82v.75l-4.5-1.76v-.69zM686.11 758zm.83-.714h1.533v-4.937h-1.218v-.56c.46-.09.802-.21.802-.21.34-.12.615-.29.615-.29h.66v5.99h1.388v.72h-3.78v-.72zm6.512.714zm.515 1.408l.19.047.2.026c.44 0 .72-.31.72-.31.277-.31.435-.78.435-.78l.115-.38-2.047-5.11h.893l1.04 2.83c.115.34.247.71.247.71.13.37.246.73.246.73h.04c.115-.34.22-.72.22-.72.105-.38.21-.71.21-.71l.914-2.82h.84l-1.922 5.53c-.137.38-.305.7-.305.7-.17.33-.4.56-.4.56-.23.24-.525.38-.525.38-.294.14-.683.14-.683.14-.18 0-.326-.02-.326-.02-.15-.02-.28-.08-.28-.08l.17-.68zm4.35-1.408zm.483-2.542c0-.63.194-1.13.194-1.13.194-.498.515-.845.515-.845.32-.346.73-.53.73-.53.41-.184.85-.184.85-.184.48 0 .86.16.86.16.38.17.64.48.64.48.25.31.39.75.39.75.13.44.13.98.13.98 0 .28-.03.47-.03.47h-3.45c.05.83.51 1.31.51 1.31.45.48 1.19.48 1.19.48.37 0 .68-.11.68-.11.31-.11.59-.29.59-.29l.3.56c-.34.21-.75.37-.75.37-.41.16-.94.16-.94.16-.52 0-.96-.19-.96-.19-.45-.19-.78-.53-.78-.53-.33-.34-.52-.84-.52-.84-.19-.5-.19-1.13-.19-1.13zm0 0zm3.57-.39c0-.786-.33-1.2-.33-1.2-.33-.416-.93-.416-.93-.416-.273 0-.52.11-.52.11-.246.11-.446.315-.446.315-.2.205-.33.504-.33.504-.132.3-.174.69-.174.69h2.73zm1.01 2.932zm.61-1.323c0-.84.75-1.287.75-1.287.75-.447 2.39-.625 2.39-.625 0-.242-.048-.473-.048-.473-.047-.23-.168-.41-.168-.41-.12-.178-.32-.29-.32-.29-.2-.11-.515-.11-.515-.11-.46 0-.84.17-.84.17-.39.167-.69.377-.69.377l-.35-.6c.36-.23.87-.45.87-.45.51-.22 1.13-.22 1.13-.22.93 0 1.35.57 1.35.57.42.57.42 1.53.42 1.53V758h-.72l-.07-.61h-.02c-.37.306-.8.52-.8.52-.43.216-.9.216-.9.216-.65 0-1.08-.378-1.08-.378-.43-.378-.43-1.07-.43-1.07zm0 0zm.85-.064c0 .442.257.63.257.63.258.19.636.19.636.19.368 0 .7-.173.7-.173.33-.174.697-.51.697-.51v-1.418c-.64.084-1.08.2-1.08.2-.443.115-.71.273-.71.273-.268.157-.384.362-.384.362-.118.205-.118.446-.118.446zm3.92 1.387zm.86-5.105h.716l.074.924h.032c.263-.49.636-.77.636-.77.373-.29.814-.29.814-.29.305 0 .546.1.546.1l-.168.75c-.126-.04-.23-.07-.23-.07-.106-.02-.264-.02-.264-.02-.325 0-.677.26-.677.26-.36.26-.62.91-.62.91v3.3h-.86v-5.11zm2.786 5.105zm.682-4.317c0-.305.183-.49.183-.49.19-.182.45-.182.45-.182.25 0 .44.19.44.19.19.19.19.49.19.49 0 .28-.18.47-.18.47-.18.19-.43.19-.43.19-.26 0-.45-.18-.45-.18-.18-.18-.18-.46-.18-.46zm0 0zm0 3.792c0-.305.183-.49.183-.49.19-.182.45-.182.45-.182.25 0 .44.183.44.183.19.184.19.49.19.49 0 .282-.18.466-.18.466-.18.184-.43.184-.43.184-.26 0-.45-.184-.45-.184-.18-.184-.18-.467-.18-.467zm4.054.525zm.714-1.387c.305.315.71.557.71.557.404.242 1.002.242 1.002.242.61 0 .998-.33.998-.33.39-.332.39-.9.39-.9 0-.293-.11-.54-.11-.54-.112-.247-.364-.426-.364-.426-.252-.178-.66-.273-.66-.273-.41-.094-1.01-.094-1.01-.094v-.67c.536 0 .898-.1.898-.1.363-.1.588-.26.588-.26.226-.17.32-.4.32-.4.095-.23.095-.5.095-.5 0-.5-.31-.78-.31-.78-.31-.29-.845-.29-.845-.29-.42 0-.772.19-.772.19-.352.18-.657.49-.657.49l-.46-.55c.38-.37.85-.61.85-.61.47-.24 1.06-.24 1.06-.24.44 0 .81.11.81.11.36.11.63.33.63.33.27.21.41.53.41.53.15.31.15.72.15.72 0 .61-.34 1-.34 1-.34.39-.89.6-.89.6v.04c.3.07.56.21.56.21.26.14.46.35.46.35.19.21.3.5.3.5.11.28.11.63.11.63 0 .44-.18.79-.18.79-.18.35-.48.6-.48.6-.3.25-.7.38-.7.38-.39.13-.86.13-.86.13-.4 0-.73-.08-.73-.08-.33-.08-.6-.21-.6-.21-.27-.13-.49-.3-.49-.3-.21-.17-.38-.36-.38-.36zm4.507 1.387zm2.468-3.256c.33 0 .7-.205.7-.205.37-.21.71-.69.71-.69-.08-.99-.46-1.49-.46-1.49-.38-.51-1.02-.51-1.02-.51-.24 0-.45.1-.45.1-.21.1-.37.3-.37.3-.16.19-.24.46-.24.46-.09.27-.09.6-.09.6 0 .66.31 1.04.31 1.04.31.37.94.37.94.37zm0 0zm-1.45 2.132c.21.242.5.39.5.39.29.146.61.146.61.146.36 0 .68-.147.68-.147.32-.147.56-.49.56-.49.24-.34.39-.886.39-.886.15-.55.16-1.36.16-1.36-.31.4-.73.63-.73.63-.42.23-.84.23-.84.23-.87 0-1.38-.52-1.38-.52-.51-.52-.51-1.56-.51-1.56 0-.49.16-.88.16-.88.16-.4.43-.68.43-.68.27-.28.63-.44.63-.44.36-.16.76-.16.76-.16.49 0 .92.2.92.2.42.2.73.6.73.6.31.4.49 1.01.49 1.01.18.6.18 1.41.18 1.41 0 1.01-.21 1.72-.21 1.72-.21.71-.56 1.15-.56 1.15-.36.44-.81.65-.81.65-.46.2-.96.2-.96.2-.54 0-.94-.2-.94-.2-.4-.2-.68-.51-.68-.51zM870.23 758zm4.863-3.14l-4.505 1.764v-.746l2.216-.82 1.41-.524v-.042l-1.41-.526-2.215-.82v-.745l4.5 1.77v.7zm2.48 3.14zm.83-.714h1.533v-4.937h-1.218v-.56c.462-.09.804-.21.804-.21.34-.12.613-.29.613-.29h.662v5.99h1.386v.72h-3.78v-.72zm6.51.714zm.517 1.408l.19.047.2.026c.44 0 .718-.31.718-.31.28-.31.436-.78.436-.78l.117-.38-2.04-5.11h.89l1.04 2.83.25.71c.13.37.25.73.25.73h.05c.12-.34.22-.72.22-.72.11-.38.21-.71.21-.71l.92-2.82h.84l-1.92 5.53c-.13.38-.3.7-.3.7-.17.33-.4.56-.4.56-.23.24-.52.38-.52.38-.29.14-.68.14-.68.14-.18 0-.32-.02-.32-.02-.15-.02-.27-.08-.27-.08l.17-.68zm4.35-1.408zm.482-2.542c0-.63.193-1.13.193-1.13.195-.498.515-.845.515-.845.32-.346.73-.53.73-.53.41-.184.85-.184.85-.184.484 0 .868.16.868.16.383.17.64.48.64.48.258.31.394.75.394.75.135.44.135.98.135.98 0 .28-.032.47-.032.47h-3.445c.05.83.508 1.31.508 1.31.457.48 1.193.48 1.193.48.37 0 .68-.11.68-.11.31-.11.6-.29.6-.29l.31.56c-.33.21-.74.37-.74.37-.41.16-.93.16-.93.16-.51 0-.96-.19-.96-.19-.44-.19-.78-.53-.78-.53-.33-.34-.52-.84-.52-.84-.19-.5-.19-1.13-.19-1.13zm0 0zm3.57-.39c0-.786-.33-1.2-.33-1.2-.33-.416-.93-.416-.93-.416-.273 0-.52.11-.52.11-.247.11-.446.315-.446.315-.2.205-.33.504-.33.504-.133.3-.175.69-.175.69h2.73zm1.01 2.932zm.61-1.323c0-.84.75-1.287.75-1.287.75-.447 2.39-.625 2.39-.625 0-.242-.048-.473-.048-.473-.046-.23-.166-.41-.166-.41-.12-.178-.32-.29-.32-.29-.2-.11-.516-.11-.516-.11-.45 0-.835.17-.835.17-.383.167-.688.377-.688.377l-.35-.6c.35-.23.87-.45.87-.45.51-.22 1.13-.22 1.13-.22.93 0 1.35.57 1.35.57.42.57.42 1.53.42 1.53V758h-.72l-.08-.61h-.02c-.37.306-.8.52-.8.52-.43.216-.9.216-.9.216-.66 0-1.08-.378-1.08-.378-.43-.378-.43-1.07-.43-1.07zm0 0zm.85-.064c0 .442.256.63.256.63.258.19.636.19.636.19.37 0 .7-.173.7-.173.33-.174.7-.51.7-.51v-1.418c-.64.084-1.083.2-1.083.2-.44.115-.71.273-.71.273-.26.157-.38.362-.38.362-.11.205-.11.446-.11.446zM900.22 758zm.86-5.105h.715l.073.924h.032c.262-.49.635-.77.635-.77.373-.29.814-.29.814-.29.3 0 .54.1.54.1l-.17.75-.23-.07c-.11-.02-.26-.02-.26-.02-.33 0-.68.26-.68.26-.35.26-.62.91-.62.91v3.3h-.86v-5.11zm2.78 5.105zm.685-4.317c0-.305.184-.49.184-.49.18-.182.44-.182.44-.182.25 0 .43.19.43.19.18.19.18.49.18.49 0 .28-.19.47-.19.47-.18.19-.44.19-.44.19-.27 0-.45-.18-.45-.18-.19-.18-.19-.46-.19-.46zm0 0zm0 3.792c0-.305.184-.49.184-.49.18-.182.44-.182.44-.182.25 0 .43.183.43.183.18.184.18.49.18.49 0 .282-.19.466-.19.466-.18.184-.44.184-.44.184-.27 0-.45-.184-.45-.184-.19-.184-.19-.467-.19-.467zm4.054.525zm.71-1.387c.3.315.71.557.71.557.4.242 1 .242 1 .242.61 0 1-.33 1-.33.39-.332.39-.9.39-.9 0-.293-.11-.54-.11-.54-.11-.247-.36-.426-.36-.426-.26-.178-.67-.273-.67-.273-.41-.094-1.01-.094-1.01-.094v-.67c.53 0 .9-.1.9-.1.36-.1.59-.26.59-.26.22-.17.32-.4.32-.4.09-.23.09-.5.09-.5 0-.5-.31-.78-.31-.78-.31-.29-.85-.29-.85-.29-.42 0-.77.19-.77.19-.35.18-.66.49-.66.49l-.46-.55c.39-.37.86-.61.86-.61.46-.24 1.06-.24 1.06-.24.44 0 .81.11.81.11.36.11.63.33.63.33.27.21.41.53.41.53.14.31.14.72.14.72 0 .61-.34 1-.34 1-.34.39-.89.6-.89.6v.04c.3.07.57.21.57.21.26.14.46.35.46.35.2.21.31.5.31.5.11.28.11.63.11.63 0 .44-.17.79-.17.79-.17.35-.47.6-.47.6-.3.25-.7.38-.7.38-.4.13-.86.13-.86.13-.4 0-.73-.08-.73-.08-.33-.08-.61-.21-.61-.21-.27-.13-.49-.3-.49-.3-.22-.17-.39-.36-.39-.36zm4.51 1.387zm1.2-1.796c0 .283.11.515.11.515.11.23.3.4.3.4.19.17.45.27.45.27.26.09.56.09.56.09.58 0 .95-.33.95-.33.36-.33.36-.85.36-.85 0-.33-.15-.56-.15-.56-.15-.23-.4-.41-.4-.41-.25-.18-.58-.32-.58-.32-.33-.15-.69-.29-.69-.29-.4.27-.67.63-.67.63-.27.36-.27.82-.27.82zm0 0zm1.89-1.86c.33-.304.52-.64.52-.64.18-.336.18-.704.18-.704 0-.504-.31-.846-.31-.846-.31-.34-.86-.34-.86-.34-.48 0-.78.293-.78.293-.31.294-.31.788-.31.788 0 .304.12.52.12.52.12.215.34.383.34.383.21.168.49.3.49.3.28.13.58.246.58.246zm0 0zm-2.67 1.944c0-.326.11-.604.11-.604.11-.28.28-.504.28-.504.17-.226.4-.4.4-.4.22-.173.46-.3.46-.3v-.04c-.37-.264-.65-.637-.65-.637-.29-.372-.29-.908-.29-.908 0-.39.15-.704.15-.704.15-.31.4-.54.4-.54.25-.22.6-.35.6-.35.34-.12.75-.12.75-.12.44 0 .78.13.78.13.34.14.59.37.59.37.25.24.38.57.38.57.13.33.13.72.13.72 0 .26-.09.51-.09.51-.09.24-.22.45-.22.45-.13.21-.29.38-.29.38-.17.17-.32.28-.32.28v.04c.22.13.43.29.43.29.21.16.37.37.37.37.16.21.26.47.26.47.1.27.1.6.1.6 0 .38-.16.71-.16.71-.16.33-.44.57-.44.57-.29.25-.69.38-.69.38-.4.14-.88.14-.88.14-.48 0-.88-.14-.88-.14-.41-.13-.7-.38-.7-.38-.29-.24-.45-.58-.45-.58-.17-.33-.17-.73-.17-.73z"/></svg>