<svg xmlns="http://www.w3.org/2000/svg" stroke="#000" viewBox="0 0 1024 768" font-size="1"><path fill="#FFF" stroke="none" d="M0 0v768h1024V0z"/><path stroke="none" d="M422.67 14.102zm.215-10.04h2.326l.7 4.696c.09.785.2 1.578.2 1.578.11.793.2 1.594.2 1.594h.06c.16-.8.3-1.594.3-1.594l.3-1.578 1.08-4.697h1.93l1.08 4.7c.16.77.3 1.57.3 1.57l.3 1.61h.06c.11-.81.21-1.6.21-1.6.1-.78.21-1.57.21-1.57l.7-4.69H435l-1.787 10.04h-2.85l-.985-4.56c-.122-.58-.222-1.17-.222-1.17-.1-.59-.177-1.14-.177-1.14h-.07l-.19 1.15c-.1.6-.23 1.18-.23 1.18l-.94 4.56h-2.8zM435.19 14.1zm1.002-10.796h2.263v2.65l-.107 1.37c.43-.386 1-.717 1-.717.57-.332 1.356-.332 1.356-.332 1.247 0 1.81.816 1.81.816.56.82.56 2.27.56 2.27v4.74h-2.263V9.65c.01-.834-.22-1.14-.22-1.14-.22-.31-.71-.31-.71-.31-.43 0-.74.193-.74.193-.3.192-.67.547-.67.547v5.16h-2.27V3.305zm7.792 10.796zm.555-3.82c-.01-.924.3-1.67.3-1.67.31-.748.81-1.263.81-1.263.5-.517 1.14-.795 1.14-.795.64-.277 1.34-.277 1.34-.277.81 0 1.42.278 1.42.278.61.277 1.01.77 1.01.77.41.492.61 1.162.61 1.162.2.67.2 1.455.2 1.455 0 .308-.03.563-.03.563-.03.254-.06.392-.06.392h-4.58c.15.878.68 1.27.68 1.27.53.393 1.3.393 1.3.393.81 0 1.65-.507 1.65-.507l.75 1.37c-.59.4-1.3.64-1.3.64-.72.23-1.41.23-1.41.23-.82 0-1.53-.27-1.53-.27-.71-.27-1.24-.78-1.24-.78-.52-.51-.82-1.25-.82-1.25-.3-.74-.3-1.69-.3-1.69zm-.01 0zm4.93-.785c0-.662-.3-1.078-.3-1.078-.29-.417-.98-.417-.98-.417-.54 0-.95.362-.95.362-.41.362-.53 1.132-.53 1.132h2.75zm2.49 4.605zm1-7.64h1.85l.15 1.34h.06c.41-.785 1-1.154 1-1.154.58-.37 1.17-.37 1.17-.37.32 0 .53.04.53.04.2.037.37.114.37.114l-.37 1.956c-.22-.062-.4-.092-.4-.092-.19-.03-.43-.03-.43-.03-.43 0-.9.307-.9.307-.47.31-.78 1.1-.78 1.1v4.43h-2.27V6.46zm4.97 7.64zm.55-3.82c0-.924.31-1.67.31-1.67.31-.748.81-1.263.81-1.263.5-.517 1.14-.795 1.14-.795.65-.277 1.34-.277 1.34-.277.82 0 1.42.278 1.42.278.6.277 1.01.77 1.01.77.41.492.61 1.162.61 1.162.2.67.2 1.455.2 1.455 0 .308-.03.563-.03.563-.03.254-.06.392-.06.392h-4.58c.15.878.68 1.27.68 1.27.53.393 1.3.393 1.3.393.82 0 1.65-.507 1.65-.507l.75 1.37c-.59.4-1.3.64-1.3.64-.72.23-1.41.23-1.41.23-.82 0-1.53-.27-1.53-.27-.71-.27-1.23-.78-1.23-.78-.53-.51-.82-1.25-.82-1.25-.29-.74-.29-1.69-.29-1.69zm0 0zm4.93-.785c0-.662-.29-1.078-.29-1.078-.29-.417-.98-.417-.98-.417-.54 0-.95.362-.95.362-.41.362-.53 1.132-.53 1.132h2.75zm5.7 4.605zm.6-3.82c0-.94.27-1.678.27-1.678.27-.74.7-1.255.7-1.255.44-.517 1.01-.795 1.01-.795.58-.277 1.18-.277 1.18-.277.64 0 1.06.216 1.06.216.41.22.81.59.81.59l-.09-1.17v-2.6h2.26V14.1h-1.85l-.16-.754h-.06c-.4.4-.94.67-.94.67-.54.27-1.1.27-1.1.27-.71 0-1.29-.278-1.29-.278-.58-.278-.99-.794-.99-.794-.41-.516-.63-1.255-.63-1.255-.23-.74-.23-1.68-.23-1.68zm0 0zm2.32-.03c0 1.14.36 1.663.36 1.663.36.523 1.02.523 1.02.523.37 0 .67-.154.67-.154.3-.154.58-.54.58-.54V8.62c-.31-.278-.63-.386-.63-.386-.33-.108-.64-.108-.64-.108-.54 0-.96.516-.96.516-.42.516-.42 1.61-.42 1.61zm5.9 3.85zm.55-3.82c0-.955.3-1.7.3-1.7.31-.748.82-1.257.82-1.257.51-.508 1.19-.777 1.19-.777.67-.27 1.4-.27 1.4-.27.72 0 1.39.27 1.39.27.67.27 1.19.777 1.19.777.51.51.82 1.256.82 1.256.31.74.31 1.7.31 1.7 0 .95-.31 1.7-.31 1.7-.31.74-.82 1.25-.82 1.25-.52.5-1.19.77-1.19.77-.67.27-1.4.27-1.4.27-.73 0-1.4-.27-1.4-.27-.68-.27-1.2-.78-1.2-.78-.52-.51-.83-1.26-.83-1.26-.31-.75-.31-1.7-.31-1.7zm0 0zm2.32 0c0 1 .34 1.586.34 1.586.34.586 1.05.586 1.05.586.69 0 1.05-.586 1.05-.586.35-.585.35-1.586.35-1.586 0-1-.36-1.586-.36-1.586-.36-.585-1.05-.585-1.05-.585-.71 0-1.06.58-1.06.58-.35.58-.35 1.58-.35 1.58zm8.87 3.82zm1.17 1.108c.11.03.25.062.25.062.13.03.26.03.26.03.57 0 .88-.276.88-.276.3-.278.46-.724.46-.724l.11-.4-2.95-7.44h2.28l1.09 3.28c.17.525.3 1.064.3 1.064.14.54.29 1.11.29 1.11h.06c.12-.54.25-1.087.25-1.087.13-.548.27-1.087.27-1.087l.92-3.28h2.17l-2.65 7.716c-.28.723-.58 1.27-.58 1.27-.3.546-.7.908-.7.908-.4.362-.9.547-.9.547-.51.19-1.18.19-1.18.19-.36 0-.6-.04-.6-.04-.25-.04-.48-.11-.48-.11l.4-1.72zm6.73-1.108zm.55-3.82c0-.955.31-1.7.31-1.7.3-.748.82-1.257.82-1.257.51-.508 1.19-.777 1.19-.777.68-.27 1.4-.27 1.4-.27.72 0 1.39.27 1.39.27.67.27 1.18.777 1.18.777.51.51.82 1.256.82 1.256.31.74.31 1.7.31 1.7 0 .95-.31 1.7-.31 1.7-.31.74-.82 1.25-.82 1.25-.52.5-1.19.77-1.19.77-.67.27-1.39.27-1.39.27-.72 0-1.4-.27-1.4-.27-.68-.27-1.19-.78-1.19-.78-.52-.51-.83-1.26-.83-1.26-.31-.75-.31-1.7-.31-1.7zm0 0zm2.32 0c0 1 .34 1.586.34 1.586.34.586 1.05.586 1.05.586.69 0 1.05-.586 1.05-.586.35-.585.35-1.586.35-1.586 0-1-.36-1.586-.36-1.586-.35-.585-1.04-.585-1.04-.585-.71 0-1.06.58-1.06.58-.34.58-.34 1.58-.34 1.58zm5.66 3.82zm.92-7.64h2.26v4.452c0 .83.23 1.14.23 1.14.23.307.72.307.72.307.43 0 .72-.2.72-.2.29-.2.63-.65.63-.65V6.46h2.27v7.64H512l-.17-1.063h-.046c-.49.584-1.055.915-1.055.915-.56.33-1.35.33-1.35.33-1.25 0-1.81-.815-1.81-.815-.56-.816-.56-2.264-.56-2.264v-4.74zm11.02 7.64zm.93-7.64h2.26v4.452c0 .83.23 1.14.23 1.14.23.307.73.307.73.307.43 0 .72-.2.72-.2.29-.2.63-.65.63-.65V6.46h2.26v7.64H524l-.17-1.063h-.047c-.494.584-1.056.915-1.056.915-.56.33-1.346.33-1.346.33-1.24 0-1.81-.815-1.81-.815-.56-.816-.56-2.264-.56-2.264v-4.74zm7.82 7.64zm1.34-2.295c.52.4 1 .6 1 .6.48.2.97.2.97.2.51 0 .74-.17.74-.17.23-.168.23-.476.23-.476 0-.19-.13-.33-.13-.33-.13-.15-.36-.27-.36-.27-.23-.13-.5-.23-.5-.23-.28-.1-.57-.23-.57-.23-.36-.14-.71-.33-.71-.33-.36-.19-.65-.46-.65-.46-.3-.27-.48-.63-.48-.63-.18-.37-.18-.84-.18-.84 0-.53.2-.97.2-.97.21-.45.59-.76.59-.76.383-.31.92-.48.92-.48.54-.18 1.204-.18 1.204-.18.88 0 1.54.3 1.54.3.66.3 1.156.67 1.156.67l-1.01 1.36c-.412-.31-.812-.48-.812-.48-.4-.17-.8-.17-.8-.17-.86 0-.86.6-.86.6 0 .18.12.31.12.31.12.13.33.24.33.24.21.1.48.2.48.2l.56.21c.37.13.73.31.73.31.36.17.66.44.66.44.3.26.48.64.48.64.19.37.19.9.19.9 0 .52-.2.97-.2.97-.2.44-.6.77-.6.77-.4.33-.99.52-.99.52-.58.19-1.35.19-1.35.19-.76 0-1.55-.3-1.55-.3-.79-.29-1.38-.77-1.38-.77zm5.48 2.295zm.55-3.82c0-.924.3-1.67.3-1.67.31-.748.81-1.263.81-1.263.5-.517 1.15-.795 1.15-.795.64-.277 1.34-.277 1.34-.277.81 0 1.42.278 1.42.278.61.277 1.01.77 1.01.77.41.492.61 1.162.61 1.162.2.67.2 1.455.2 1.455 0 .308-.03.563-.03.563-.03.254-.06.392-.06.392h-4.573c.15.878.682 1.27.682 1.27.53.393 1.3.393 1.3.393.82 0 1.65-.507 1.65-.507l.756 1.37c-.58.4-1.3.64-1.3.64-.713.23-1.41.23-1.41.23-.81 0-1.52-.27-1.52-.27-.71-.27-1.23-.78-1.23-.78-.524-.51-.816-1.25-.816-1.25-.29-.74-.29-1.69-.29-1.69zm0 0zm4.92-.785c0-.662-.29-1.078-.29-1.078C538.5 8 537.81 8 537.81 8c-.54 0-.943.362-.943.362-.41.362-.53 1.132-.53 1.132h2.75zm5.7 4.605zM546 4.06h2.265v3.864h3.47V4.06h2.28v10.042h-2.28v-4.19h-3.46v4.19h-2.265V4.062zm9.2 10.04zm.73-2.126c0-1.2 1.02-1.88 1.02-1.88 1.017-.676 3.28-.907 3.28-.907-.03-.51-.31-.81-.31-.81-.275-.3-.89-.3-.89-.3-.494 0-.987.185-.987.185-.493.185-1.047.508-1.047.508l-.8-1.494c.74-.447 1.547-.725 1.547-.725.81-.27 1.72-.27 1.72-.27 1.48 0 2.256.84 2.256.84.77.84.77 2.61.77 2.61v4.37h-1.84l-.17-.78h-.05c-.5.43-1.04.7-1.04.7-.55.27-1.2.27-1.2.27-.52 0-.94-.17-.94-.17-.42-.18-.71-.49-.71-.49-.29-.31-.45-.73-.45-.73-.17-.41-.17-.9-.17-.9zm0 0zm2.16-.17c0 .37.24.548.24.548.237.177.64.177.64.177.4 0 .675-.17.675-.17.28-.17.587-.48.587-.48v-1.34c-1.218.17-1.68.49-1.68.49-.46.32-.46.77-.46.77zm5.344 2.296zm1.34-2.295c.53.4 1 .6 1 .6.48.2.97.2.97.2.51 0 .74-.17.74-.17.23-.168.23-.476.23-.476 0-.19-.13-.33-.13-.33-.13-.15-.35-.27-.35-.27-.22-.13-.5-.23-.5-.23-.28-.1-.57-.23-.57-.23-.35-.14-.71-.33-.71-.33-.35-.19-.643-.46-.643-.46-.29-.27-.48-.63-.48-.63-.18-.37-.18-.84-.18-.84 0-.53.21-.97.21-.97.21-.45.6-.76.6-.76.39-.31.93-.48.93-.48.54-.18 1.2-.18 1.2-.18.88 0 1.54.3 1.54.3.67.3 1.16.67 1.16.67l-1.02 1.38c-.41-.31-.81-.48-.81-.48-.4-.17-.8-.17-.8-.17-.86 0-.86.6-.86.6 0 .18.13.31.13.31.12.13.33.24.33.24.21.1.48.2.48.2l.57.21c.37.14.73.31.73.31.36.17.66.44.66.44.3.26.49.64.49.64.19.37.19.9.19.9 0 .52-.2.97-.2.97-.2.44-.6.77-.6.77-.4.33-.98.52-.98.52-.584.19-1.354.19-1.354.19-.75 0-1.544-.29-1.544-.29-.795-.29-1.38-.77-1.38-.77zm5.49 2.295zm1-10.796h2.202v6.19h.06l2.416-3.033h2.462l-2.68 3.15 2.88 4.5h-2.447l-1.724-2.97-.97 1.1v1.88h-2.2V3.31zm7.01 10.796zm.552-3.82c0-.924.305-1.67.305-1.67.31-.748.81-1.263.81-1.263.5-.517 1.14-.795 1.14-.795.65-.277 1.34-.277 1.34-.277.82 0 1.43.278 1.43.278.61.277 1.02.77 1.02.77.41.492.61 1.162.61 1.162.2.67.2 1.455.2 1.455 0 .308-.03.563-.03.563-.03.254-.06.392-.06.392h-4.57c.16.878.69 1.27.69 1.27.53.393 1.3.393 1.3.393.82 0 1.65-.507 1.65-.507l.76 1.37c-.58.4-1.3.64-1.3.64-.71.23-1.41.23-1.41.23-.81 0-1.52-.27-1.52-.27-.71-.27-1.23-.78-1.23-.78-.52-.51-.81-1.25-.81-1.25-.29-.74-.29-1.69-.29-1.69zm0 0zm4.925-.785c0-.662-.29-1.078-.29-1.078-.29-.417-.99-.417-.99-.417-.54 0-.94.362-.94.362-.41.362-.53 1.132-.53 1.132h2.75zm2.49 4.605zm1-10.796h2.27v8.516c0 .355.13.493.13.493.13.14.27.14.27.14h.13l.15-.032.28 1.68c-.18.08-.47.13-.47.13-.28.06-.67.06-.67.06-.58 0-.98-.18-.98-.18-.4-.18-.64-.51-.64-.51-.23-.33-.34-.8-.34-.8-.11-.47-.11-1.05-.11-1.05V3.31zm3.41 10.796zm1-10.796h2.27v8.516c0 .355.13.493.13.493.13.14.27.14.27.14h.13l.15-.032.28 1.68c-.18.08-.47.13-.47.13-.28.06-.67.06-.67.06-.58 0-.98-.18-.98-.18-.4-.18-.64-.51-.64-.51-.24-.33-.34-.8-.34-.8-.1-.47-.1-1.05-.1-1.05V3.31zm3.41 10.796zm2.37-3.558c-.07-.524.04-.955.04-.955.12-.432.33-.802.33-.802.22-.37.49-.677.49-.677l.52-.592c.25-.285.41-.554.41-.554.16-.27.16-.563.16-.563 0-.48-.28-.73-.28-.73-.28-.25-.75-.25-.75-.25-.43 0-.77.2-.77.2-.33.2-.64.51-.64.51L595.69 5c.526-.63 1.23-1.016 1.23-1.016.71-.385 1.57-.385 1.57-.385.65 0 1.21.15 1.21.15.56.15.97.47.97.47.41.32.64.82.64.82.23.5.23 1.18.23 1.18 0 .47-.17.85-.17.85-.17.37-.42.7-.42.7-.252.32-.54.62-.54.62-.282.3-.52.62-.52.62-.24.32-.37.68-.37.68-.14.36-.095.82-.095.82h-1.985zm0 0zm-.37 2.326c0-.616.39-1.024.39-1.024.39-.41.97-.41.97-.41.59 0 .98.41.98.41.39.408.39 1.024.39 1.024 0 .6-.39 1.008-.39 1.008-.39.408-.98.408-.98.408-.58 0-.97-.408-.97-.408-.38-.408-.38-1.008-.38-1.008z"/><path fill="none" stroke="#D3D3D3" stroke-miterlimit="10" d="M39.59 738h953.155M39.59 597.4h953.155M39.59 456.8h953.155M39.59 316.2h953.155M39.59 175.6h953.155M39.59 35h953.155" stroke-dasharray="5 5"/><g fill="#5C3566" stroke-opacity="0" stroke-width="0" stroke-miterlimit="10" stroke-linejoin="bevel"><defs><clipPath id="a"><path d="M39.59 35v703h953.155V35z"/></clipPath></defs><g clip-path="url(#a)"><path stroke="none" d="M54.59 738V122.172h287.718V738z"/></g></g><g fill-opacity="0" stroke-miterlimit="10"><defs><clipPath id="b"><path d="M39.59 35v703h953.155V35z"/></clipPath></defs><g clip-path="url(#b)"><path fill="none" d="M54.59 738V122.172h287.718V738z"/></g></g><g fill="#5C3566" stroke-opacity="0" stroke-width="0" stroke-miterlimit="10" stroke-linejoin="bevel"><defs><clipPath id="c"><path d="M39.59 35v703h953.155V35z"/></clipPath></defs><g clip-path="url(#c)"><path stroke="none" d="M372.308 738V382h287.72v356z"/></g></g><g fill-opacity="0" stroke-miterlimit="10"><defs><clipPath id="d"><path d="M39.59 35v703h953.155V35z"/></clipPath></defs><g clip-path="url(#d)"><path fill="none" d="M372.308 738V382h287.72v356z"/></g></g><g fill="#5C3566" stroke-opacity="0" stroke-width="0" stroke-miterlimit="10" stroke-linejoin="bevel"><defs><clipPath id="e"><path d="M39.59 35v703h953.155V35z"/></clipPath></defs><g clip-path="url(#e)"><path stroke="none" d="M690.027 738v-99.545h287.718V738z"/></g></g><g fill-opacity="0" stroke-miterlimit="10"><defs><clipPath id="f"><path d="M39.59 35v703h953.155V35z"/></clipPath></defs><g clip-path="url(#f)"><path fill="none" d="M690.027 738v-99.545h287.718V738z"/></g></g><path fill="none" stroke-miterlimit="10" d="M39.59 738V35" stroke-linecap="square"/><path fill="none" stroke-miterlimit="10" d="M39.59 738h2m-2-112.48h2m-2-112.48h2m-2-112.48h2m-2-112.48h2m-2-112.48h2m-2-112.48h2m-2-112.48h2m-2 787.36h5m-5-140.6h5m-5-140.6h5m-5-140.6h5m-5-140.6h5m-5-140.6h5"/><path stroke="none" d="M25.294 741.445zm2.616.126c-1.02 0-1.586-.9-1.586-.9-.568-.9-.568-2.59-.568-2.59 0-1.69.568-2.57.568-2.57.567-.88 1.586-.88 1.586-.88 1.008 0 1.575.88 1.575.88.568.89.568 2.58.568 2.58 0 1.69-.568 2.6-.568 2.6-.567.91-1.575.91-1.575.91zm0 0zm0-.69c.294 0 .53-.16.53-.16.236-.16.41-.5.41-.5.173-.34.268-.87.268-.87.094-.53.094-1.26.094-1.26 0-.73-.094-1.26-.094-1.26-.095-.52-.268-.85-.268-.85-.173-.33-.41-.49-.41-.49-.236-.16-.53-.16-.53-.16-.294 0-.536.16-.536.16-.242.16-.415.49-.415.49-.18.33-.27.86-.27.86-.1.53-.1 1.26-.1 1.26 0 1.47.36 2.14.36 2.14.36.67.95.67.95.67zM14.77 600.85zm.42-.514c.755-.754 1.344-1.363 1.344-1.363.588-.61.987-1.13.987-1.13.4-.52.61-.955.61-.955.21-.434.21-.844.21-.844 0-.576-.31-.944-.31-.944-.31-.37-.95-.37-.95-.37-.42 0-.77.24-.77.24-.35.235-.65.57-.65.57l-.49-.492c.42-.462.9-.74.9-.74.48-.28 1.14-.28 1.14-.28.94 0 1.47.543 1.47.543.54.54.54 1.44.54 1.44 0 .47-.2.95-.2.95-.2.48-.57.99-.57.99-.36.51-.86 1.06-.86 1.06-.5.56-1.09 1.18-1.09 1.18l.57-.04c.3-.02.56-.02.56-.02h1.95v.75H15.2v-.51zm4.8.517zm.682-1.355c.294.307.7.538.7.538.403.23.99.23.99.23.306 0 .574-.11.574-.11.268-.11.467-.31.467-.31.2-.2.315-.482.315-.482.116-.283.116-.63.116-.63 0-.693-.39-1.082-.39-1.082-.387-.387-1.04-.387-1.04-.387-.345 0-.592.106-.592.106-.247.11-.552.31-.552.31l-.462-.29.22-3.22h3.352v.75h-2.595l-.18 1.99c.243-.12.485-.2.485-.2.24-.07.546-.07.546-.07.43 0 .81.13.81.13.377.13.66.39.66.39.284.26.447.65.447.65.163.4.163.94.163.94 0 .55-.19.97-.19.97-.19.42-.504.71-.504.71-.315.29-.72.44-.72.44-.404.15-.845.15-.845.15-.4 0-.73-.08-.73-.08-.33-.08-.598-.2-.598-.2-.27-.12-.49-.29-.49-.29-.22-.16-.39-.34-.39-.34zm4.538 1.357zm2.616.127c-1.02 0-1.586-.903-1.586-.903-.568-.91-.568-2.6-.568-2.6 0-1.69.567-2.58.567-2.58.56-.88 1.58-.88 1.58-.88 1.01 0 1.57.88 1.57.88.56.88.56 2.57.56 2.57 0 1.69-.57 2.59-.57 2.59-.57.9-1.58.9-1.58.9zm0 0zm0-.693c.294 0 .53-.17.53-.17.236-.16.41-.51.41-.51.173-.34.268-.87.268-.87.094-.53.094-1.27.094-1.27 0-.74-.094-1.26-.094-1.26-.095-.53-.268-.86-.268-.86-.173-.33-.41-.49-.41-.49-.236-.16-.53-.16-.53-.16-.294 0-.536.16-.536.16-.242.15-.415.48-.415.48-.173.33-.268.85-.268.85-.094.52-.094 1.26-.094 1.26 0 1.47.362 2.13.362 2.13.362.67.95.67.95.67zM14.653 460.25zm.683-1.355c.294.308.7.54.7.54.403.23.99.23.99.23.306 0 .574-.11.574-.11.268-.11.467-.31.467-.31.2-.2.315-.483.315-.483.116-.284.116-.63.116-.63 0-.694-.39-1.082-.39-1.082-.388-.39-1.04-.39-1.04-.39-.345 0-.592.106-.592.106-.247.105-.552.304-.552.304l-.462-.294.22-3.226h3.35v.745H16.44l-.18 1.98c.242-.125.483-.2.483-.2.242-.072.547-.072.547-.072.43 0 .808.127.808.127.38.126.662.383.662.383.284.257.447.65.447.65.162.395.162.94.162.94 0 .548-.19.968-.19.968-.19.42-.51.71-.51.71-.32.29-.72.44-.72.44-.41.16-.85.16-.85.16-.4 0-.73-.08-.73-.08-.33-.08-.6-.2-.6-.2-.27-.12-.48-.29-.48-.29-.22-.16-.39-.34-.39-.34zm4.538 1.358zm2.616.127c-1.02 0-1.587-.9-1.587-.9-.567-.903-.567-2.595-.567-2.595 0-1.69.567-2.574.567-2.574.568-.88 1.586-.88 1.586-.88 1 0 1.57.88 1.57.88.56.89.56 2.58.56 2.58 0 1.69-.57 2.6-.57 2.6-.57.91-1.58.91-1.58.91zm0 0zm0-.69c.294 0 .53-.163.53-.163.236-.162.41-.504.41-.504.173-.34.268-.87.268-.87.094-.53.094-1.266.094-1.266 0-.738-.094-1.26-.094-1.26-.095-.528-.268-.86-.268-.86-.174-.33-.41-.49-.41-.49-.236-.16-.53-.16-.53-.16-.295 0-.536.16-.536.16-.242.158-.415.49-.415.49-.18.33-.27.855-.27.855-.1.524-.1 1.26-.1 1.26 0 1.47.36 2.137.36 2.137.36.66.95.66.95.66zm2.605.567zm2.615.126c-1.02 0-1.586-.902-1.586-.902-.567-.9-.567-2.59-.567-2.59 0-1.69.567-2.57.567-2.57.567-.88 1.586-.88 1.586-.88 1.01 0 1.576.89 1.576.89.567.88.567 2.58.567 2.58 0 1.69-.567 2.6-.567 2.6-.567.91-1.576.91-1.576.91zm0 0zm0-.692c.294 0 .53-.16.53-.16.237-.16.41-.5.41-.5.174-.34.268-.87.268-.87.095-.53.095-1.26.095-1.26 0-.73-.095-1.26-.095-1.26-.094-.52-.268-.85-.268-.85-.173-.33-.41-.48-.41-.48-.236-.16-.53-.16-.53-.16-.294 0-.536.16-.536.16-.24.16-.414.49-.414.49-.174.33-.268.86-.268.86-.095.53-.095 1.26-.095 1.26 0 1.47.363 2.14.363 2.14.362.67.95.67.95.67zM14.853 319.65zm1.86 0c.04-.945.167-1.733.167-1.733.126-.788.352-1.497.352-1.497.226-.71.578-1.37.578-1.37.352-.662.846-1.355.846-1.355h-3.34v-.74h4.316v.534c-.598.75-.97 1.45-.97 1.45-.374.69-.595 1.41-.595 1.41-.22.72-.32 1.52-.32 1.52-.1.8-.142 1.78-.142 1.78h-.893zm3.36 0zm.683-1.355c.294.31.7.54.7.54.403.23.99.23.99.23.306 0 .574-.11.574-.11.268-.11.467-.31.467-.31.2-.2.315-.48.315-.48.116-.285.116-.63.116-.63 0-.695-.39-1.083-.39-1.083-.387-.39-1.04-.39-1.04-.39-.345 0-.592.105-.592.105-.247.105-.552.304-.552.304l-.462-.29.22-3.22h3.352v.75H21.86l-.18 1.98c.242-.12.484-.2.484-.2.24-.07.546-.07.546-.07.43 0 .81.13.81.13.377.13.66.38.66.38.284.26.447.65.447.65.163.4.163.94.163.94 0 .55-.19.97-.19.97-.19.42-.504.71-.504.71-.315.29-.72.44-.72.44-.404.16-.845.16-.845.16-.39 0-.73-.08-.73-.08-.33-.08-.59-.2-.59-.2-.27-.12-.48-.29-.48-.29-.21-.16-.38-.34-.38-.34zm4.538 1.36zm2.616.126c-1.02 0-1.586-.9-1.586-.9-.568-.9-.568-2.59-.568-2.59 0-1.69.568-2.57.568-2.57.567-.88 1.586-.88 1.586-.88 1.008 0 1.575.88 1.575.88.568.89.568 2.58.568 2.58 0 1.69-.568 2.6-.568 2.6-.567.9-1.575.9-1.575.9zm0 0zm0-.69c.294 0 .53-.16.53-.16.236-.16.41-.5.41-.5.173-.34.268-.87.268-.87.094-.53.094-1.26.094-1.26 0-.74-.094-1.26-.094-1.26-.095-.53-.268-.86-.268-.86-.173-.33-.41-.49-.41-.49-.236-.16-.53-.16-.53-.16-.294 0-.536.16-.536.16-.242.16-.415.49-.415.49-.18.33-.27.86-.27.86-.1.53-.1 1.26-.1 1.26 0 1.47.36 2.14.36 2.14.36.67.95.67.95.67zM10 179.05zm.83-.715h1.533v-4.93h-1.218v-.553c.462-.085.804-.205.804-.205.34-.12.61-.29.61-.29h.66v5.988h1.38v.716h-3.78v-.71zm4.39.72zm2.616.13c-1.02 0-1.586-.902-1.586-.902-.567-.9-.567-2.593-.567-2.593 0-1.69.567-2.573.567-2.573.567-.882 1.586-.882 1.586-.882 1.01 0 1.576.884 1.576.884.567.88.567 2.57.567 2.57 0 1.69-.57 2.59-.57 2.59-.57.9-1.58.9-1.58.9zm0 0zm0-.692c.294 0 .53-.16.53-.16.237-.16.41-.504.41-.504.174-.34.268-.87.268-.87.095-.53.095-1.27.095-1.27 0-.74-.1-1.26-.1-1.26-.1-.53-.27-.86-.27-.86-.18-.33-.41-.49-.41-.49-.24-.16-.53-.16-.53-.16-.3 0-.54.16-.54.16-.24.15-.42.48-.42.48-.18.33-.27.85-.27.85-.1.53-.1 1.26-.1 1.26 0 1.47.36 2.14.36 2.14.36.67.95.67.95.67zm2.605.57zm2.62.126c-1.02 0-1.58-.91-1.58-.91-.56-.9-.56-2.59-.56-2.59 0-1.69.57-2.57.57-2.57.57-.88 1.59-.88 1.59-.88 1.01 0 1.58.88 1.58.88.57.88.57 2.57.57 2.57 0 1.69-.56 2.59-.56 2.59-.57.9-1.58.9-1.58.9zm0 0zm0-.7c.3 0 .53-.16.53-.16.24-.16.41-.51.41-.51.18-.34.27-.87.27-.87.1-.53.1-1.27.1-1.27 0-.74-.09-1.26-.09-1.26-.09-.53-.27-.86-.27-.86-.17-.33-.41-.49-.41-.49-.23-.16-.53-.16-.53-.16-.29 0-.53.16-.53.16-.24.15-.41.48-.41.48-.17.33-.27.85-.27.85-.09.52-.09 1.26-.09 1.26 0 1.47.36 2.14.36 2.14.36.66.95.66.95.66zm2.61.57zm2.62.12c-1.02 0-1.58-.91-1.58-.91-.56-.91-.56-2.6-.56-2.6 0-1.69.57-2.58.57-2.58.57-.89 1.59-.89 1.59-.89 1.01 0 1.58.88 1.58.88.57.88.57 2.57.57 2.57 0 1.69-.57 2.59-.57 2.59-.56.9-1.57.9-1.57.9zm0 0zm0-.7c.3 0 .53-.17.53-.17.24-.16.41-.5.41-.5.18-.34.27-.87.27-.87.1-.53.1-1.27.1-1.27 0-.74-.09-1.26-.09-1.26-.09-.53-.26-.86-.26-.86-.17-.33-.41-.49-.41-.49-.23-.16-.53-.16-.53-.16-.29 0-.53.16-.53.16-.24.15-.41.48-.41.48-.17.33-.27.86-.27.86-.09.52-.09 1.26-.09 1.26 0 1.47.36 2.14.36 2.14.36.67.95.67.95.67zM10 38.44zm.83-.714h1.533V32.8h-1.218v-.557c.462-.084.804-.204.804-.204.34-.12.61-.29.61-.29h.66v5.98h1.38v.71h-3.78v-.72zm4.39.72zm.42-.52c.757-.76 1.345-1.368 1.345-1.368.59-.61.988-1.13.988-1.13.4-.52.61-.95.61-.95.21-.433.21-.842.21-.842 0-.58-.316-.945-.316-.945-.315-.36-.956-.36-.956-.36-.42 0-.77.24-.77.24-.35.24-.65.57-.65.57l-.49-.49c.42-.46.9-.74.9-.74.47-.28 1.14-.28 1.14-.28.94 0 1.47.54 1.47.54.54.54.54 1.44.54 1.44 0 .47-.2.95-.2.95-.2.48-.57.99-.57.99-.36.51-.86 1.06-.86 1.06-.5.55-1.1 1.17-1.1 1.17l.57-.04c.3-.02.56-.02.56-.02H20v.75h-4.33v-.51zm4.8.512zm.684-1.35c.294.308.698.54.698.54.405.23.993.23.993.23.305 0 .572-.11.572-.11.268-.11.468-.31.468-.31.2-.2.315-.48.315-.48.116-.285.116-.63.116-.63 0-.695-.39-1.08-.39-1.08-.388-.39-1.04-.39-1.04-.39-.346 0-.593.103-.593.103-.246.11-.55.31-.55.31l-.463-.3.22-3.23h3.35v.75h-2.593l-.18 1.99c.243-.12.484-.2.484-.2.25-.07.55-.07.55-.07.43 0 .81.13.81.13.38.12.66.38.66.38.29.26.45.65.45.65.17.39.17.94.17.94 0 .55-.19.97-.19.97-.19.42-.5.71-.5.71-.31.29-.72.44-.72.44-.4.15-.84.15-.84.15-.4 0-.73-.07-.73-.07-.33-.08-.6-.2-.6-.2-.26-.12-.48-.29-.48-.29-.21-.16-.38-.34-.38-.34zm4.538 1.358zm2.615.127c-1.02 0-1.586-.9-1.586-.9-.56-.9-.56-2.595-.56-2.595 0-1.69.57-2.576.57-2.576.57-.88 1.59-.88 1.59-.88 1.01 0 1.58.88 1.58.88.57.883.57 2.574.57 2.574 0 1.69-.56 2.59-.56 2.59-.57.905-1.58.905-1.58.905zm0 0zm0-.69c.294 0 .53-.16.53-.16.237-.16.41-.505.41-.505.174-.34.268-.87.268-.87.095-.53.095-1.27.095-1.27 0-.736-.095-1.26-.095-1.26-.094-.526-.267-.857-.267-.857-.174-.33-.41-.49-.41-.49-.236-.16-.53-.16-.53-.16-.295 0-.536.16-.536.16-.242.16-.415.49-.415.49-.174.33-.268.86-.268.86-.1.53-.1 1.26-.1 1.26 0 1.47.36 2.14.36 2.14.36.67.95.67.95.67z"/><path fill="none" stroke-miterlimit="10" d="M39.59 738h953.155" stroke-linecap="square"/><path stroke="none" d="M173.134 758zm.946-6.89h.87v2.888h3.205v-2.89h.883V758h-.883v-3.246h-3.203V758h-.872v-6.89zm5.903 6.89zm.483-2.542c0-.64.194-1.14.194-1.14.195-.5.52-.845.52-.845.326-.347.752-.525.752-.525.425-.18.898-.18.898-.18.472 0 .898.18.898.18.425.178.75.525.75.525.327.346.52.845.52.845.195.5.195 1.14.195 1.14 0 .63-.194 1.13-.194 1.13-.2.498-.52.84-.52.84-.33.34-.76.52-.76.52-.43.178-.9.178-.9.178-.48 0-.9-.18-.9-.18-.43-.177-.75-.52-.75-.52-.33-.34-.52-.84-.52-.84-.2-.498-.2-1.128-.2-1.128zm0 0zm.893 0c0 .44.1.798.1.798.1.357.3.615.3.615.19.26.46.4.46.4.27.15.6.15.6.15.32 0 .59-.14.59-.14.27-.14.47-.4.47-.4.19-.25.3-.61.3-.61.1-.35.1-.8.1-.8 0-.44-.11-.8-.11-.8-.11-.36-.3-.62-.3-.62-.2-.26-.47-.4-.47-.4-.28-.14-.6-.14-.6-.14-.33 0-.6.14-.6.14-.28.14-.47.41-.47.41-.2.26-.3.63-.3.63-.11.37-.11.81-.11.81zm4.31 2.542zm.86-5.105h.71l.07.735h.03c.33-.367.73-.614.73-.614.39-.247.85-.247.85-.247.59 0 .92.25.92.25.33.26.48.72.48.72.4-.44.8-.71.8-.71.4-.27.87-.27.87-.27.79 0 1.17.5 1.17.5.38.5.38 1.49.38 1.49V758h-.86v-3.12c0-.724-.23-1.045-.23-1.045-.23-.32-.72-.32-.72-.32-.58 0-1.29.788-1.29.788V758h-.86v-3.12c0-.724-.23-1.045-.23-1.045-.24-.32-.73-.32-.73-.32-.58 0-1.28.788-1.28.788V758h-.87v-5.105zm7.85 5.105zm.48-2.542c0-.63.19-1.13.19-1.13.19-.498.51-.845.51-.845.32-.346.73-.53.73-.53.41-.184.85-.184.85-.184.48 0 .87.16.87.16.38.17.64.48.64.48.26.31.39.75.39.75.13.44.13.98.13.98 0 .28-.03.47-.03.47h-3.44c.05.83.51 1.31.51 1.31.46.48 1.19.48 1.19.48.37 0 .68-.11.68-.11.31-.11.59-.29.59-.29l.3.56c-.34.21-.75.37-.75.37-.41.16-.94.16-.94.16-.52 0-.96-.19-.96-.19-.45-.19-.78-.53-.78-.53-.33-.34-.52-.84-.52-.84-.19-.5-.19-1.13-.19-1.13zm0 0zm3.57-.39c0-.786-.33-1.2-.33-1.2-.33-.416-.93-.416-.93-.416-.28 0-.52.11-.52.11-.25.11-.45.315-.45.315-.2.205-.33.504-.33.504-.13.3-.18.69-.18.69h2.73zm1.16 2.932zm.68-4.317c0-.305.18-.49.18-.49.18-.182.44-.182.44-.182.25 0 .43.19.43.19.18.19.18.49.18.49 0 .28-.19.47-.19.47-.19.19-.44.19-.44.19-.27 0-.45-.18-.45-.18-.19-.18-.19-.46-.19-.46zm0 0zm0 3.792c0-.305.18-.49.18-.49.18-.182.44-.182.44-.182.25 0 .43.183.43.183.18.184.18.49.18.49 0 .282-.19.466-.19.466-.19.184-.44.184-.44.184-.27 0-.45-.184-.45-.184-.19-.184-.19-.467-.19-.467zm4.05.525zm.83-.714h1.53v-4.937h-1.22v-.56c.46-.09.8-.21.8-.21.34-.12.61-.29.61-.29h.66v5.99h1.38v.72h-3.78v-.72zm4.39.714zm2.61.126c-1.02 0-1.59-.903-1.59-.903-.57-.904-.57-2.595-.57-2.595 0-1.69.56-2.573.56-2.573.57-.883 1.58-.883 1.58-.883 1 0 1.57.883 1.57.883.57.882.57 2.573.57 2.573 0 1.69-.57 2.595-.57 2.595-.57.903-1.58.903-1.58.903zm0 0zm0-.693c.29 0 .53-.163.53-.163.23-.163.41-.504.41-.504.17-.342.27-.872.27-.872.09-.53.09-1.266.09-1.266 0-.735-.1-1.26-.1-1.26-.1-.525-.27-.856-.27-.856-.17-.33-.41-.49-.41-.49-.24-.156-.53-.156-.53-.156-.3 0-.54.157-.54.157-.24.158-.42.49-.42.49-.18.33-.27.855-.27.855-.1.525-.1 1.26-.1 1.26 0 1.47.36 2.138.36 2.138.36.667.95.667.95.667zm2.6.567zm2.47-3.256c.32 0 .7-.205.7-.205.37-.21.71-.69.71-.69-.09-.99-.47-1.49-.47-1.49-.38-.51-1.02-.51-1.02-.51-.24 0-.46.1-.46.1-.22.1-.37.3-.37.3-.16.19-.25.46-.25.46-.09.27-.09.6-.09.6 0 .66.3 1.04.3 1.04.3.37.93.37.93.37zm0 0zm-1.45 2.132c.21.242.5.39.5.39.29.146.6.146.6.146.35 0 .67-.147.67-.147.31-.147.55-.49.55-.49.24-.34.38-.886.38-.886.15-.55.16-1.36.16-1.36-.32.4-.74.63-.74.63-.42.23-.84.23-.84.23-.88 0-1.39-.52-1.39-.52-.52-.52-.52-1.56-.52-1.56 0-.49.16-.88.16-.88.16-.4.43-.68.43-.68.27-.28.63-.44.63-.44.36-.16.76-.16.76-.16.49 0 .92.2.92.2.42.2.73.6.73.6.31.4.48 1.01.48 1.01.17.6.17 1.41.17 1.41 0 1.01-.21 1.72-.21 1.72-.21.71-.57 1.15-.57 1.15-.36.44-.82.65-.82.65-.46.2-.96.2-.96.2-.54 0-.94-.2-.94-.2-.41-.2-.68-.51-.68-.51zm4.21 1.124zm.68-1.355c.29.305.7.536.7.536.4.24.99.24.99.24.3 0 .57-.11.57-.11.26-.11.46-.31.46-.31.2-.2.32-.48.32-.48.12-.28.12-.63.12-.63 0-.69-.39-1.08-.39-1.08-.39-.39-1.04-.39-1.04-.39-.35 0-.59.11-.59.11-.25.11-.55.31-.55.31l-.46-.29.22-3.22h3.35v.75h-2.59l-.18 1.99c.24-.13.48-.2.48-.2.24-.07.54-.07.54-.07.43 0 .81.13.81.13.37.13.66.39.66.39.28.26.44.65.44.65.16.4.16.94.16.94 0 .55-.19.97-.19.97-.19.42-.51.71-.51.71-.32.29-.72.44-.72.44-.41.15-.85.15-.85.15-.4 0-.73-.08-.73-.08-.33-.08-.6-.2-.6-.2-.27-.12-.49-.28-.49-.28-.22-.16-.39-.34-.39-.34zM491.36 758zm.97-1.502c.367.39.866.625.866.625.5.236 1.037.236 1.037.236.683 0 1.06-.31 1.06-.31.38-.31.38-.82.38-.82 0-.26-.09-.45-.09-.45-.09-.19-.242-.32-.242-.32-.15-.13-.36-.24-.36-.24-.21-.11-.45-.22-.45-.22l-.98-.43c-.24-.11-.49-.26-.49-.26-.25-.15-.45-.36-.45-.36-.2-.21-.32-.5-.32-.5-.13-.29-.13-.67-.13-.67 0-.39.16-.73.16-.73.16-.34.45-.59.45-.59.29-.25.68-.39.68-.39.4-.14.87-.14.87-.14.62 0 1.15.23 1.15.23.53.24.9.61.9.61l-.47.56c-.31-.31-.7-.48-.7-.48-.38-.17-.86-.17-.86-.17-.58 0-.93.26-.93.26-.35.27-.35.74-.35.74 0 .25.1.42.1.42.1.17.27.3.27.3.17.14.36.23.36.23.2.1.41.19.41.19l.98.42c.3.13.56.29.56.29.26.16.45.38.45.38.19.217.3.506.3.506.11.29.11.664.11.664 0 .41-.16.768-.16.768-.16.355-.46.62-.46.62-.3.267-.74.42-.74.42-.43.15-.97.15-.97.15-.72 0-1.34-.27-1.34-.27-.62-.27-1.07-.747-1.07-.747zm4.64 1.502zm.486-2.542c0-.64.2-1.14.2-1.14.2-.5.537-.845.537-.845.336-.347.783-.525.783-.525.447-.18.94-.18.94-.18.505 0 .867.185.867.185.363.184.625.425.625.425l-.44.557c-.23-.2-.48-.326-.48-.326-.25-.13-.55-.13-.55-.13-.35 0-.646.14-.646.14-.294.14-.504.4-.504.4-.21.26-.33.62-.33.62-.12.36-.12.8-.12.8 0 .44.118.8.118.8.115.35.32.61.32.61.205.25.5.4.5.4.293.14.64.14.64.14.37 0 .667-.15.667-.15.3-.16.53-.37.53-.37l.39.56c-.35.3-.775.48-.775.48-.427.18-.89.18-.89.18-.505 0-.946-.18-.946-.18-.443-.18-.764-.52-.764-.52-.32-.34-.507-.84-.507-.84-.18-.5-.18-1.13-.18-1.13zm4.31 2.542zm.86-7.48h.86v2.04l-.03 1.05c.367-.347.766-.594.766-.594.4-.247.935-.247.935-.247.8 0 1.18.5 1.18.5.37.5.37 1.49.37 1.49V758h-.86v-3.12c0-.725-.23-1.045-.23-1.045-.23-.32-.74-.32-.74-.32-.4 0-.71.2-.71.2-.304.2-.69.587-.69.587V758h-.865v-7.48zm4.853 7.48zm.49-2.542c0-.64.2-1.14.2-1.14.19-.5.52-.845.52-.845.33-.347.75-.525.75-.525.43-.18.9-.18.9-.18.47 0 .9.18.9.18.42.178.75.525.75.525.32.346.52.845.52.845.19.5.19 1.14.19 1.14 0 .63-.2 1.13-.2 1.13-.2.498-.52.84-.52.84-.33.34-.75.52-.75.52-.43.178-.9.178-.9.178-.47 0-.9-.18-.9-.18-.43-.177-.75-.52-.75-.52-.33-.34-.52-.84-.52-.84-.2-.498-.2-1.128-.2-1.128zm0 0zm.9 0c0 .44.1.798.1.798.1.357.3.615.3.615.19.26.46.4.46.4.27.15.6.15.6.15.32 0 .6-.14.6-.14.27-.14.46-.4.46-.4.2-.25.3-.61.3-.61.11-.35.11-.8.11-.8 0-.44-.11-.8-.11-.8-.11-.36-.3-.62-.3-.62-.2-.26-.47-.4-.47-.4-.27-.14-.6-.14-.6-.14-.32 0-.6.14-.6.14-.28.14-.47.41-.47.41-.2.26-.3.63-.3.63-.11.37-.11.81-.11.81zm4.31 2.542zm.48-2.542c0-.64.19-1.14.19-1.14.19-.5.52-.845.52-.845.32-.347.75-.525.75-.525.42-.18.9-.18.9-.18.47 0 .9.18.9.18.42.178.75.525.75.525.32.346.52.845.52.845.19.5.19 1.14.19 1.14 0 .63-.2 1.13-.2 1.13-.2.498-.52.84-.52.84-.33.34-.75.52-.75.52-.43.178-.9.178-.9.178-.47 0-.9-.18-.9-.18-.43-.177-.75-.52-.75-.52-.33-.34-.52-.84-.52-.84-.2-.498-.2-1.128-.2-1.128zm0 0zm.89 0c0 .44.1.798.1.798.1.357.3.615.3.615.19.26.46.4.46.4.27.15.6.15.6.15.32 0 .6-.14.6-.14.27-.14.46-.4.46-.4.19-.25.3-.61.3-.61.1-.35.1-.8.1-.8 0-.44-.1-.8-.1-.8-.11-.36-.3-.62-.3-.62-.2-.26-.47-.4-.47-.4-.28-.14-.6-.14-.6-.14-.33 0-.6.14-.6.14-.27.14-.47.41-.47.41-.2.26-.3.63-.3.63-.11.37-.11.81-.11.81zm4.32 2.542zm.86-7.48h.86v6.514c0 .21.07.294.07.294.07.084.17.084.17.084h.08l.11-.02.11.65c-.09.042-.2.063-.2.063-.12.02-.3.02-.3.02-.5 0-.71-.293-.71-.293-.21-.294-.21-.86-.21-.86v-6.45zm1.81 7.48zm.68-4.317c0-.305.18-.49.18-.49.18-.182.45-.182.45-.182.25 0 .43.19.43.19.18.19.18.49.18.49 0 .28-.19.47-.19.47-.18.19-.44.19-.44.19-.27 0-.45-.18-.45-.18-.19-.18-.19-.46-.19-.46zm0 0zm0 3.792c0-.305.18-.49.18-.49.18-.182.45-.182.45-.182.25 0 .43.183.43.183.18.184.18.49.18.49 0 .282-.19.466-.19.466-.18.184-.44.184-.44.184-.27 0-.45-.184-.45-.184-.19-.184-.19-.467-.19-.467zm4.05.525zm2.81-.557c.25 0 .46-.105.46-.105.21-.105.36-.3.36-.3.16-.193.25-.46.25-.46.09-.27.09-.605.09-.605 0-.662-.3-1.04-.3-1.04-.31-.378-.94-.378-.94-.378-.32 0-.69.204-.69.204-.37.2-.71.67-.71.67.08.98.46 1.49.46 1.49.37.51 1.01.51 1.01.51zm0 0zm1.37-5.02c-.21-.242-.5-.384-.5-.384-.29-.15-.61-.15-.61-.15-.35 0-.66.14-.66.14-.32.14-.56.48-.56.48-.25.33-.39.87-.39.87-.15.54-.16 1.34-.16 1.34.31-.39.73-.62.73-.62.42-.23.83-.23.83-.23.87 0 1.39.51 1.39.51.52.51.52 1.55.52 1.55 0 .48-.16.88-.16.88-.16.39-.43.67-.43.67-.28.28-.63.44-.63.44-.36.15-.77.15-.77.15-.5 0-.92-.2-.92-.2-.42-.2-.73-.61-.73-.61-.31-.4-.49-1.01-.49-1.01-.18-.6-.18-1.41-.18-1.41 0-1.01.21-1.72.21-1.72.21-.71.57-1.15.57-1.15.35-.45.81-.65.81-.65.45-.21.96-.21.96-.21.54 0 .94.2.94.2.39.2.67.51.67.51zM531.5 758zm.71-1.387c.305.315.71.557.71.557.4.242 1 .242 1 .242.61 0 1-.33 1-.33.39-.332.39-.9.39-.9 0-.293-.12-.54-.12-.54-.11-.247-.36-.426-.36-.426-.25-.178-.66-.273-.66-.273-.41-.094-1.01-.094-1.01-.094v-.67c.537 0 .9-.1.9-.1.365-.1.59-.26.59-.26.227-.17.32-.4.32-.4.096-.23.096-.5.096-.5 0-.5-.31-.78-.31-.78-.31-.29-.845-.29-.845-.29-.42 0-.77.19-.77.19-.35.18-.66.49-.66.49l-.46-.55c.39-.37.86-.61.86-.61.47-.24 1.07-.24 1.07-.24.45 0 .81.11.81.11.37.11.64.33.64.33.27.21.42.53.42.53.15.31.15.72.15.72 0 .61-.33 1-.33 1-.33.39-.88.6-.88.6v.04c.31.07.57.21.57.21.27.14.47.35.47.35.2.21.31.5.31.5.11.28.11.63.11.63 0 .44-.18.79-.18.79-.17.35-.47.6-.47.6-.3.25-.7.38-.7.38-.4.13-.86.13-.86.13-.4 0-.73-.08-.73-.08-.33-.08-.6-.21-.6-.21-.27-.13-.49-.3-.49-.3-.22-.17-.38-.36-.38-.36zm4.51 1.387zm.716-1.387c.3.315.71.557.71.557.407.242 1.006.242 1.006.242.61 0 1-.33 1-.33.383-.332.383-.9.383-.9 0-.293-.11-.54-.11-.54-.11-.247-.363-.426-.363-.426-.25-.178-.66-.273-.66-.273-.41-.094-1.01-.094-1.01-.094v-.67c.54 0 .9-.1.9-.1.364-.1.59-.26.59-.26.227-.17.32-.4.32-.4.096-.23.096-.5.096-.5 0-.5-.31-.78-.31-.78-.31-.29-.85-.29-.85-.29-.42 0-.77.19-.77.19-.35.18-.66.49-.66.49l-.46-.55c.384-.37.85-.61.85-.61.47-.24 1.068-.24 1.068-.24.44 0 .81.11.81.11.367.11.635.33.635.33.27.21.42.53.42.53.15.31.15.72.15.72 0 .61-.33 1-.33 1-.33.39-.88.6-.88.6v.04c.3.07.57.21.57.21.26.14.46.35.46.35.2.21.31.5.31.5.11.28.11.63.11.63 0 .44-.17.79-.17.79-.17.35-.47.6-.47.6-.3.25-.7.38-.7.38-.4.13-.86.13-.86.13-.4 0-.73-.08-.73-.08-.33-.08-.6-.21-.6-.21-.27-.13-.49-.3-.49-.3-.21-.17-.38-.36-.38-.36zM812.63 758zm.242-6.89h.903l.725 3.75c.095.566.2 1.113.2 1.113.105.546.2 1.113.2 1.113h.04c.117-.567.243-1.12.243-1.12.126-.55.242-1.107.242-1.107l.955-3.75h.8l.955 3.75c.126.54.252 1.1.252 1.1l.252 1.12h.04c.09-.57.19-1.12.19-1.12.09-.55.2-1.11.2-1.11l.72-3.75h.84l-1.43 6.89h-1.05l-1.04-4.15c-.1-.4-.18-.78-.18-.78l-.17-.79h-.05c-.09.4-.18.78-.18.78-.09.38-.17.78-.17.78l-1.02 4.15h-1.04zm8.015 6.89zm.483-2.542c0-.64.194-1.14.194-1.14.195-.5.52-.845.52-.845.326-.347.75-.525.75-.525.427-.18.9-.18.9-.18.472 0 .897.18.897.18.43.178.76.525.76.525.33.346.52.845.52.845.2.5.2 1.14.2 1.14 0 .63-.19 1.13-.19 1.13-.19.498-.52.84-.52.84-.32.34-.75.52-.75.52-.42.178-.89.178-.89.178-.47 0-.9-.18-.9-.18-.42-.177-.75-.52-.75-.52-.32-.34-.52-.84-.52-.84-.19-.498-.19-1.128-.19-1.128zm0 0zm.893 0c0 .44.105.798.105.798.105.357.3.615.3.615.193.26.467.4.467.4.273.15.598.15.598.15.326 0 .6-.14.6-.14.272-.14.466-.4.466-.4.19-.25.3-.61.3-.61.1-.35.1-.8.1-.8 0-.44-.11-.8-.11-.8-.11-.36-.3-.62-.3-.62-.2-.26-.47-.4-.47-.4-.28-.14-.6-.14-.6-.14-.33 0-.6.14-.6.14-.28.14-.47.41-.47.41-.2.26-.3.63-.3.63-.11.37-.11.81-.11.81zM826.58 758zm.86-5.105h.716l.073.924h.03c.26-.49.63-.77.63-.77.37-.29.81-.29.81-.29.3 0 .54.1.54.1l-.17.75-.23-.07c-.11-.02-.26-.02-.26-.02-.33 0-.68.26-.68.26-.35.26-.62.91-.62.91v3.3h-.87v-5.11zm2.785 5.105zm.86-7.48h.852v5.064h.032l2.17-2.69h.95l-1.72 2.05 1.95 3.056h-.95l-1.49-2.458-.96 1.113V758h-.85v-7.48zm4.34 7.48zm.682-4.317c0-.305.184-.49.184-.49.19-.182.45-.182.45-.182.25 0 .44.19.44.19.19.19.19.49.19.49 0 .28-.18.47-.18.47-.18.19-.43.19-.43.19-.26 0-.44-.18-.44-.18-.18-.18-.18-.46-.18-.46zm0 0zm0 3.792c0-.305.184-.49.184-.49.19-.182.45-.182.45-.182.25 0 .44.183.44.183.19.184.19.49.19.49 0 .282-.18.466-.18.466-.18.184-.43.184-.43.184-.26 0-.44-.184-.44-.184-.18-.184-.18-.467-.18-.467zm4.055.525zm.83-.714h1.533v-4.937h-1.218v-.56c.462-.09.804-.21.804-.21.35-.12.62-.29.62-.29h.66v5.99h1.39v.72H841v-.72zm4.39.714zm1.86 0c.042-.945.168-1.733.168-1.733.126-.788.352-1.497.352-1.497.226-.71.578-1.37.578-1.37.35-.663.845-1.356.845-1.356h-3.34v-.746h4.317v.536c-.6.756-.972 1.45-.972 1.45-.372.693-.593 1.412-.593 1.412-.22.72-.32 1.524-.32 1.524-.1.803-.142 1.78-.142 1.78h-.893zm3.36 0zm1.86 0c.042-.945.17-1.733.17-1.733.125-.788.35-1.497.35-1.497.226-.71.578-1.37.578-1.37.352-.663.846-1.356.846-1.356h-3.34v-.746h4.317v.536c-.6.756-.972 1.45-.972 1.45-.37.693-.59 1.412-.59 1.412-.22.72-.32 1.524-.32 1.524-.1.803-.14 1.78-.14 1.78h-.89z"/></svg>