<svg xmlns="http://www.w3.org/2000/svg" stroke="#000" viewBox="0 0 1024 768" font-size="1"><path fill="#FFF" stroke="none" d="M0 0v768h1024V0z"/><path stroke="none" d="M418.165 14.102zm1.186-10.04h2.84c1.16 0 2.08.29 2.08.29.93.294 1.59.902 1.59.902.67.608 1.02 1.548 1.02 1.548.36.94.36 2.233.36 2.233 0 1.293-.35 2.248-.35 2.248-.35.955-1 1.58-1 1.58-.64.623-1.54.93-1.54.93-.9.31-2.01.31-2.01.31h-2.95V4.06zm0 0zm2.7 8.207c.65 0 1.17-.17 1.17-.17.53-.17.9-.55.9-.55.37-.38.58-1 .58-1 .21-.62.21-1.53.21-1.53 0-.9-.21-1.5-.21-1.5-.2-.61-.57-.97-.57-.97-.37-.37-.89-.52-.89-.52-.52-.16-1.17-.16-1.17-.16h-.43v6.37h.43zm5.9 1.83zm.56-3.82c0-.96.31-1.7.31-1.7.31-.75.83-1.26.83-1.26.52-.51 1.2-.78 1.2-.78.68-.27 1.4-.27 1.4-.27.73 0 1.4.27 1.4.27.67.27 1.19.77 1.19.77.52.51.83 1.25.83 1.25.31.74.31 1.7.31 1.7 0 .95-.31 1.7-.31 1.7-.31.74-.82 1.25-.82 1.25-.52.5-1.19.77-1.19.77-.67.27-1.39.27-1.39.27-.73 0-1.4-.27-1.4-.27-.67-.27-1.19-.78-1.19-.78-.51-.51-.82-1.26-.82-1.26-.31-.75-.31-1.71-.31-1.71zm0 0zm2.33 0c0 1 .35 1.58.35 1.58.35.58 1.06.58 1.06.58.7 0 1.05-.59 1.05-.59.36-.59.36-1.59.36-1.59 0-1-.35-1.59-.35-1.59-.35-.59-1.04-.59-1.04-.59-.71 0-1.05.58-1.05.58-.34.58-.34 1.58-.34 1.58zm8.87 3.82zm1.17 1.11c.11.03.25.06.25.06.14.03.27.03.27.03.57 0 .88-.28.88-.28.31-.28.47-.73.47-.73l.11-.4-2.94-7.44h2.28l1.1 3.28c.17.52.31 1.06.31 1.06.14.54.29 1.11.29 1.11h.06c.12-.54.25-1.09.25-1.09.13-.55.27-1.09.27-1.09l.92-3.28h2.17l-2.65 7.72c-.28.72-.58 1.27-.58 1.27-.3.54-.69.91-.69.91-.39.36-.89.54-.89.54-.5.18-1.17.18-1.17.18-.35 0-.6-.04-.6-.04-.25-.04-.48-.12-.48-.12l.4-1.73zm6.73-1.11zm.56-3.82c0-.96.31-1.7.31-1.7.31-.75.83-1.26.83-1.26.52-.51 1.2-.78 1.2-.78.68-.27 1.4-.27 1.4-.27.73 0 1.4.27 1.4.27.67.27 1.19.77 1.19.77.52.51.83 1.25.83 1.25.31.74.31 1.7.31 1.7 0 .95-.31 1.7-.31 1.7-.3.74-.82 1.25-.82 1.25-.51.5-1.18.77-1.18.77-.67.27-1.39.27-1.39.27-.72 0-1.4-.27-1.4-.27-.67-.27-1.19-.78-1.19-.78-.52-.51-.83-1.26-.83-1.26-.31-.75-.31-1.71-.31-1.71zm0 0zm2.33 0c0 1 .35 1.58.35 1.58.35.58 1.06.58 1.06.58.7 0 1.05-.59 1.05-.59.36-.59.36-1.59.36-1.59 0-1-.35-1.59-.35-1.59-.35-.59-1.05-.59-1.05-.59-.71 0-1.05.58-1.05.58-.34.58-.34 1.58-.34 1.58zm5.67 3.82zm.93-7.64h2.27v4.45c0 .83.24 1.14.24 1.14.23.3.73.3.73.3.43 0 .73-.2.73-.2.29-.2.63-.65.63-.65V6.46h2.27v7.64h-1.85l-.17-1.063h-.04c-.49.584-1.05.915-1.05.915-.56.33-1.34.33-1.34.33-1.25 0-1.81-.815-1.81-.815-.56-.816-.56-2.264-.56-2.264v-4.74zm11.02 7.64zm.93-7.64h2.27v4.45c0 .83.23 1.14.23 1.14.23.3.73.3.73.3.43 0 .72-.2.72-.2.29-.2.63-.65.63-.65V6.46h2.27v7.64h-1.85l-.17-1.063h-.04c-.49.584-1.05.915-1.05.915-.56.33-1.35.33-1.35.33-1.25 0-1.81-.815-1.81-.815-.56-.816-.56-2.264-.56-2.264v-4.74zm7.83 7.64zm1.34-2.3c.53.4 1 .6 1 .6.48.2.97.2.97.2.51 0 .74-.17.74-.17.23-.17.23-.48.23-.48 0-.19-.13-.33-.13-.33-.13-.15-.35-.27-.35-.27-.22-.13-.5-.23-.5-.23-.27-.1-.57-.23-.57-.23-.35-.14-.71-.33-.71-.33-.35-.19-.64-.46-.64-.46-.29-.27-.48-.63-.48-.63-.18-.37-.18-.84-.18-.84 0-.53.21-.97.21-.97.21-.45.6-.76.6-.76.39-.31.93-.49.93-.49.54-.18 1.2-.18 1.2-.18.88 0 1.54.3 1.54.3.66.3 1.16.67 1.16.67l-1.04 1.37c-.41-.31-.81-.48-.81-.48-.4-.17-.8-.17-.8-.17-.86 0-.86.6-.86.6 0 .18.12.31.12.31.12.13.33.24.33.24.21.11.48.21.48.21l.56.21c.37.13.73.31.73.31.37.17.67.43.67.43.3.26.49.64.49.64.18.38.18.9.18.9 0 .52-.2.97-.2.97-.2.45-.6.78-.6.78-.4.33-.99.52-.99.52-.59.19-1.36.19-1.36.19-.76 0-1.55-.29-1.55-.29-.8-.3-1.38-.77-1.38-.77zm5.49 2.29zm.56-3.82c0-.93.31-1.67.31-1.67.31-.75.81-1.27.81-1.27.5-.52 1.15-.8 1.15-.8.65-.28 1.34-.28 1.34-.28.82 0 1.43.27 1.43.27.61.28 1.02.77 1.02.77.41.49.61 1.16.61 1.16.2.67.2 1.45.2 1.45 0 .31-.03.56-.03.56-.03.26-.06.39-.06.39h-4.57c.16.88.69 1.27.69 1.27.53.39 1.3.39 1.3.39.82 0 1.65-.51 1.65-.51l.75 1.37c-.58.4-1.3.63-1.3.63-.72.23-1.41.23-1.41.23-.81 0-1.52-.27-1.52-.27-.7-.27-1.23-.79-1.23-.79-.52-.51-.81-1.25-.81-1.25-.29-.74-.29-1.7-.29-1.7zm0 0zm4.93-.79c0-.66-.29-1.08-.29-1.08-.3-.42-.99-.42-.99-.42-.54 0-.95.36-.95.36-.41.36-.53 1.13-.53 1.13h2.76zm5.7 4.6zm1.19-10.04h2.27v3.87h3.47V4.06h2.28v10.042h-2.28v-4.19h-3.47v4.19h-2.26V4.062zm9.2 10.04zm.73-2.13c0-1.2 1.02-1.88 1.02-1.88 1.02-.68 3.28-.91 3.28-.91-.03-.51-.3-.81-.3-.81-.28-.3-.89-.3-.89-.3-.49 0-.98.18-.98.18-.5.18-1.05.5-1.05.5l-.8-1.49c.74-.45 1.55-.73 1.55-.73.81-.28 1.72-.28 1.72-.28 1.48 0 2.26.84 2.26.84.78.84.78 2.61.78 2.61v4.38h-1.85l-.17-.79h-.04c-.49.43-1.04.7-1.04.7-.54.27-1.19.27-1.19.27-.52 0-.94-.18-.94-.18-.41-.18-.71-.5-.71-.5-.29-.32-.45-.73-.45-.73-.16-.41-.16-.9-.16-.9zm0 0zm2.16-.17c0 .37.24.55.24.55.24.17.64.17.64.17.4 0 .68-.17.68-.17.28-.17.58-.48.58-.48v-1.34c-1.21.17-1.67.49-1.67.49-.46.32-.46.77-.46.77zm5.35 2.29zm1.34-2.3c.52.4 1 .6 1 .6.48.2.97.2.97.2.51 0 .74-.17.74-.17.23-.17.23-.48.23-.48 0-.19-.13-.33-.13-.33-.13-.15-.35-.27-.35-.27-.22-.12-.5-.22-.5-.22-.28-.1-.57-.23-.57-.23-.35-.14-.71-.33-.71-.33-.35-.18-.65-.45-.65-.45-.29-.27-.48-.63-.48-.63-.18-.37-.18-.84-.18-.84 0-.53.21-.97.21-.97.21-.45.59-.76.59-.76.39-.31.92-.49.92-.49.54-.18 1.2-.18 1.2-.18.88 0 1.54.3 1.54.3.66.3 1.16.67 1.16.67l-1.06 1.4c-.41-.31-.81-.48-.81-.48-.4-.17-.8-.17-.8-.17-.87 0-.87.6-.87.6 0 .18.13.31.13.31.13.13.33.24.33.24.21.1.48.2.48.2l.57.21c.37.13.74.31.74.31.36.18.66.44.66.44.3.26.48.64.48.64.183.37.183.9.183.9 0 .52-.2.97-.2.97-.2.44-.6.77-.6.77-.4.33-.99.52-.99.52-.585.19-1.355.19-1.355.19-.75 0-1.55-.29-1.55-.29-.79-.3-1.38-.77-1.38-.77zm5.48 2.29zm1-10.8h2.2v6.19h.06L526 6.44h2.467l-2.68 3.15 2.88 4.495h-2.45l-1.723-2.97-.97 1.092v1.88h-2.21V3.3zm7 10.8zm.56-3.82c0-.93.31-1.67.31-1.67.31-.75.81-1.27.81-1.27.5-.52 1.15-.8 1.15-.8.65-.28 1.34-.28 1.34-.28.82 0 1.43.28 1.43.28.61.28 1.02.77 1.02.77.41.49.61 1.16.61 1.16.2.67.2 1.45.2 1.45 0 .31-.03.57-.03.57-.03.25-.07.39-.07.39h-4.57c.16.88.69 1.27.69 1.27.53.4 1.3.4 1.3.4.81 0 1.65-.51 1.65-.51l.75 1.37c-.58.4-1.3.63-1.3.63-.72.23-1.41.23-1.41.23-.82 0-1.52-.27-1.52-.27-.71-.27-1.23-.79-1.23-.79-.52-.52-.81-1.26-.81-1.26-.29-.74-.29-1.697-.29-1.697zm0 0zm4.93-.79c0-.66-.29-1.08-.29-1.08-.3-.41-1-.41-1-.41-.54 0-.94.36-.94.36-.41.36-.53 1.13-.53 1.13h2.76zm2.5 4.6zm1-10.79h2.27v8.52c0 .35.13.49.13.49.13.14.27.14.27.14h.13l.15-.03.28 1.68c-.18.08-.47.13-.47.13-.28.05-.67.05-.67.05-.58 0-.98-.18-.98-.18-.4-.19-.64-.52-.64-.52-.24-.33-.35-.8-.35-.8-.11-.47-.11-1.06-.11-1.06V3.3zm3.41 10.8zm1-10.8H544v8.52c0 .35.13.49.13.49.13.14.27.14.27.14h.13l.15-.03.28 1.68c-.187.07-.47.13-.47.13-.287.05-.67.05-.67.05-.587 0-.987-.18-.987-.18-.4-.19-.64-.52-.64-.52-.24-.33-.35-.8-.35-.8-.11-.47-.11-1.06-.11-1.06V3.3zm6.61 10.79zm.72-2.13c0-1.2 1.02-1.88 1.02-1.88 1.02-.67 3.28-.91 3.28-.91-.03-.51-.31-.81-.31-.81-.27-.3-.89-.3-.89-.3-.5 0-.99.18-.99.18-.49.19-1.05.51-1.05.51l-.8-1.49c.74-.45 1.55-.73 1.55-.73.81-.28 1.72-.28 1.72-.28 1.48 0 2.26.84 2.26.84.78.84.78 2.61.78 2.61v4.37h-1.85l-.17-.79h-.05c-.49.43-1.04.7-1.04.7-.54.27-1.19.27-1.19.27-.52 0-.94-.18-.94-.18-.41-.18-.7-.49-.7-.49-.3-.32-.46-.73-.46-.73-.16-.41-.16-.9-.16-.9zm0 0zm2.16-.17c0 .37.24.55.24.55.24.18.64.18.64.18.4 0 .68-.17.68-.17.28-.17.59-.48.59-.48V10.5c-1.21.17-1.68.49-1.68.49-.46.326-.46.77-.46.77zm5.34 2.3zm1.31-5.86h-1.05V6.56l1.17-.09.26-2.035h1.88v2.03h1.83v1.77h-1.83v3.07c0 .65.27.93.27.93.27.288.72.288.72.288.19 0 .38-.045.38-.045.19-.05.35-.11.35-.11l.36 1.65c-.31.09-.72.184-.72.184-.41.09-.97.09-.97.09-.7 0-1.21-.212-1.21-.212-.5-.215-.81-.6-.81-.6-.32-.385-.46-.932-.46-.932-.15-.545-.15-1.207-.15-1.207v-3.1zm7.79 5.87zm.37-7.64h2.25l.74 3.54c.09.57.17 1.12.17 1.12.08.55.17 1.14.17 1.14h.06c.11-.59.21-1.16.21-1.16.1-.57.24-1.11.24-1.11l.85-3.54h1.96l.86 3.54c.14.57.25 1.13.25 1.13.1.56.23 1.14.23 1.14h.06c.1-.58.17-1.14.17-1.14.07-.55.18-1.12.18-1.12l.72-3.54h2.09l-1.83 7.64h-2.65l-.7-3.06c-.12-.54-.21-1.08-.21-1.08-.09-.54-.2-1.15-.2-1.15h-.06c-.11.61-.19 1.15-.19 1.15-.08.54-.19 1.08-.19 1.08l-.68 3.05h-2.58zm11.46 7.64zm.55-3.82c0-.96.31-1.7.31-1.7.31-.75.82-1.26.82-1.26.52-.51 1.19-.78 1.19-.78.68-.27 1.4-.27 1.4-.27.73 0 1.4.27 1.4.27.67.27 1.19.78 1.19.78.52.51.82 1.25.82 1.25.31.74.31 1.7.31 1.7 0 .95-.31 1.7-.31 1.7-.31.74-.82 1.25-.82 1.25-.51.51-1.18.78-1.18.78-.67.27-1.39.27-1.39.27-.73 0-1.4-.27-1.4-.27-.68-.27-1.2-.78-1.2-.78-.52-.51-.83-1.26-.83-1.26-.3-.75-.3-1.7-.3-1.7zm0 0zm2.33 0c0 1 .35 1.59.35 1.59.35.58 1.06.58 1.06.58.69 0 1.04-.59 1.04-.59.36-.59.36-1.59.36-1.59 0-1-.36-1.59-.36-1.59-.35-.58-1.04-.58-1.04-.58-.71 0-1.06.58-1.06.58-.35.58-.35 1.58-.35 1.58zm5.67 3.82zm1-7.64h1.85l.11 1.37h.06c.42-.79 1-1.15 1-1.15.59-.37 1.17-.37 1.17-.37.32 0 .53.04.53.04.21.03.38.11.38.11l-.37 1.96c-.22-.06-.4-.09-.4-.09-.19-.03-.43-.03-.43-.03-.43 0-.9.31-.9.31-.47.31-.77 1.09-.77 1.09v4.43H587V6.46zm5.13 7.64zm1-10.8h2.21v6.2h.06l2.42-3.04h2.47l-2.69 3.16 2.88 4.49H598l-1.725-2.98-.97 1.094v1.88h-2.2V3.3zm7.44 10.79zM603 10.5c-.076-.527.04-.958.04-.958.115-.43.33-.8.33-.8.22-.37.485-.68.485-.68l.52-.59c.25-.28.41-.55.41-.55.16-.27.16-.56.16-.56 0-.48-.282-.73-.282-.73-.28-.244-.75-.244-.75-.244-.43 0-.76.2-.76.2-.33.2-.64.51-.64.51L601.17 5c.524-.63 1.232-1.016 1.232-1.016.71-.385 1.57-.385 1.57-.385.648 0 1.21.15 1.21.15.562.15.97.47.97.47.408.32.64.82.64.82.23.5.23 1.18.23 1.18 0 .47-.17.85-.17.85-.168.37-.423.7-.423.7-.26.32-.54.62-.54.62-.29.3-.53.62-.53.62-.24.32-.38.68-.38.68-.14.36-.1.82-.1.82h-1.98zm0 0zm-.37 2.323c0-.62.39-1.03.39-1.03.39-.41.97-.41.97-.41.59 0 .98.41.98.41.4.403.4 1.02.4 1.02 0 .6-.396 1-.396 1-.39.41-.972.41-.972.41-.59 0-.97-.41-.97-.41-.39-.407-.39-1.007-.39-1.007z"/><path fill="none" stroke="#D3D3D3" stroke-miterlimit="10" d="M35.02 738h915.025M35.02 503.667h915.025M35.02 269.333h915.025M35.02 35h915.025" stroke-dasharray="5 5"/><g fill="#5C3566" stroke-opacity="0" stroke-width="0" stroke-miterlimit="10" stroke-linejoin="bevel"><defs><clipPath id="a"><path d="M35.02 35v703h915.025V35z"/></clipPath></defs><g clip-path="url(#a)"><path stroke="none" d="M50.02 738V148.652h198.757V738z"/></g></g><g fill-opacity="0" stroke-miterlimit="10"><defs><clipPath id="b"><path d="M35.02 35v703h915.025V35z"/></clipPath></defs><g clip-path="url(#b)"><path fill="none" d="M50.02 738V148.652h198.757V738z"/></g></g><g fill="#5C3566" stroke-opacity="0" stroke-width="0" stroke-miterlimit="10" stroke-linejoin="bevel"><defs><clipPath id="c"><path d="M35.02 35v703h915.025V35z"/></clipPath></defs><g clip-path="url(#c)"><path stroke="none" d="M278.777 738V368.925h198.756V738z"/></g></g><g fill-opacity="0" stroke-miterlimit="10"><defs><clipPath id="d"><path d="M35.02 35v703h915.025V35z"/></clipPath></defs><g clip-path="url(#d)"><path fill="none" d="M278.777 738V368.925h198.756V738z"/></g></g><g fill="#5C3566" stroke-opacity="0" stroke-width="0" stroke-miterlimit="10" stroke-linejoin="bevel"><defs><clipPath id="e"><path d="M35.02 35v703h915.025V35z"/></clipPath></defs><g clip-path="url(#e)"><path stroke="none" d="M507.533 738V379.47H706.29V738z"/></g></g><g fill-opacity="0" stroke-miterlimit="10"><defs><clipPath id="f"><path d="M35.02 35v703h915.025V35z"/></clipPath></defs><g clip-path="url(#f)"><path fill="none" d="M507.533 738V379.47H706.29V738z"/></g></g><g fill="#5C3566" stroke-opacity="0" stroke-width="0" stroke-miterlimit="10" stroke-linejoin="bevel"><defs><clipPath id="g"><path d="M35.02 35v703h915.025V35z"/></clipPath></defs><g clip-path="url(#g)"><path stroke="none" d="M736.29 738v-55.068h198.755V738z"/></g></g><g fill-opacity="0" stroke-miterlimit="10"><defs><clipPath id="h"><path d="M35.02 35v703h915.025V35z"/></clipPath></defs><g clip-path="url(#h)"><path fill="none" d="M736.29 738v-55.068h198.755V738z"/></g></g><path fill="none" stroke-miterlimit="10" d="M35.02 738V35" stroke-linecap="square"/><path fill="none" stroke-miterlimit="10" d="M35.02 738h2m-2-58.583h2m-2-58.584h2m-2-58.583h2m-2-58.583h2m-2-58.584h2m-2-58.583h2m-2-58.583h2m-2-58.584h2m-2-58.583h2m-2-58.583h2m-2-58.584h2M35.02 35h2m-2 703h5m-5-234.333h5m-5-234.334h5M35.02 35h5"/><path stroke="none" d="M20.725 741.445zm2.615.126c-1.02 0-1.586-.9-1.586-.9-.567-.9-.567-2.59-.567-2.59 0-1.69.567-2.57.567-2.57.567-.88 1.586-.88 1.586-.88 1.01 0 1.576.88 1.576.88.567.89.567 2.58.567 2.58 0 1.69-.567 2.6-.567 2.6-.567.91-1.576.91-1.576.91zm0 0zm0-.69c.294 0 .53-.16.53-.16.237-.16.41-.5.41-.5.174-.34.268-.87.268-.87.095-.53.095-1.26.095-1.26 0-.73-.095-1.26-.095-1.26-.094-.52-.267-.85-.267-.85-.17-.33-.41-.49-.41-.49-.23-.16-.53-.16-.53-.16-.29 0-.53.16-.53.16-.24.16-.41.49-.41.49-.17.33-.26.86-.26.86-.09.53-.09 1.26-.09 1.26 0 1.47.37 2.14.37 2.14.37.67.95.67.95.67zM10.2 507.11zm.42-.515c.756-.756 1.344-1.365 1.344-1.365.588-.61.988-1.13.988-1.13.4-.52.61-.955.61-.955.21-.436.21-.846.21-.846 0-.58-.316-.95-.316-.95-.315-.37-.956-.37-.956-.37-.42 0-.777.23-.777.23-.358.23-.652.57-.652.57l-.49-.5c.42-.46.9-.74.9-.74.48-.28 1.14-.28 1.14-.28.94 0 1.47.54 1.47.54.54.54.54 1.43.54 1.43 0 .47-.2.95-.2.95-.2.48-.56.99-.56.99-.36.51-.86 1.06-.86 1.06-.5.55-1.09 1.17-1.09 1.17l.57-.05c.3-.02.56-.02.56-.02h1.94v.74h-4.33v-.52zm4.8.515zm2.616.126c-1.02 0-1.586-.903-1.586-.903-.568-.904-.568-2.595-.568-2.595 0-1.69.568-2.573.568-2.573.567-.883 1.586-.883 1.586-.883 1.008 0 1.575.883 1.575.883.57.882.57 2.573.57 2.573 0 1.69-.57 2.595-.57 2.595-.56.903-1.57.903-1.57.903zm0 0zm0-.693c.294 0 .53-.163.53-.163.236-.163.41-.504.41-.504.173-.342.268-.872.268-.872.094-.53.094-1.266.094-1.266 0-.735-.094-1.26-.094-1.26-.095-.526-.268-.856-.268-.856-.173-.33-.41-.49-.41-.49-.236-.156-.53-.156-.53-.156-.294 0-.536.157-.536.157-.242.158-.415.49-.415.49-.173.33-.268.855-.268.855-.094.525-.094 1.26-.094 1.26 0 1.47.362 2.138.362 2.138.362.667.95.667.95.667zm2.605.567zm2.62.126c-1.02 0-1.58-.903-1.58-.903-.56-.904-.56-2.595-.56-2.595 0-1.69.57-2.573.57-2.573.57-.883 1.59-.883 1.59-.883 1.01 0 1.58.883 1.58.883.57.882.57 2.573.57 2.573 0 1.69-.56 2.595-.56 2.595-.57.903-1.58.903-1.58.903zm0 0zm0-.693c.3 0 .53-.163.53-.163.24-.163.41-.504.41-.504.18-.342.27-.872.27-.872.1-.53.1-1.266.1-1.266 0-.735-.09-1.26-.09-1.26-.09-.526-.26-.856-.26-.856-.17-.33-.41-.49-.41-.49-.23-.156-.53-.156-.53-.156-.29 0-.53.157-.53.157-.24.158-.41.49-.41.49-.17.33-.27.855-.27.855-.09.525-.09 1.26-.09 1.26 0 1.47.37 2.138.37 2.138.36.667.95.667.95.667zM10 272.78zm3.193-2.543v-1.944c0-.273.016-.646.016-.646.01-.373.03-.646.03-.646h-.04c-.13.25-.27.48-.27.48l-.29.48-1.57 2.29h2.1zm0 0zm1.734.693h-.914v1.85h-.82v-1.85H10.18v-.567l2.866-4.286h.967v4.16h.914v.693zm.294 1.85zm2.62.125c-1.02 0-1.58-.904-1.58-.904-.56-.9-.56-2.59-.56-2.59 0-1.69.57-2.57.57-2.57.57-.88 1.59-.88 1.59-.88 1.01 0 1.58.89 1.58.89.57.89.57 2.58.57 2.58 0 1.69-.56 2.6-.56 2.6-.57.91-1.58.91-1.58.91zm0 0zm0-.693c.3 0 .53-.163.53-.163.24-.17.41-.51.41-.51.18-.34.27-.87.27-.87.1-.53.1-1.27.1-1.27 0-.74-.09-1.26-.09-1.26-.09-.53-.27-.86-.27-.86-.17-.33-.41-.49-.41-.49-.23-.16-.53-.16-.53-.16-.29 0-.53.16-.53.16-.24.15-.41.49-.41.49-.17.33-.27.85-.27.85-.09.52-.09 1.26-.09 1.26 0 1.47.36 2.14.36 2.14.37.66.95.66.95.66zm2.61.567zm2.62.12c-1.02 0-1.58-.91-1.58-.91-.56-.91-.56-2.6-.56-2.6 0-1.69.57-2.58.57-2.58.57-.89 1.59-.89 1.59-.89 1.01 0 1.58.88 1.58.88.57.88.57 2.57.57 2.57 0 1.69-.57 2.59-.57 2.59-.56.9-1.57.9-1.57.9zm0 0zm0-.7c.3 0 .53-.17.53-.17.24-.17.41-.51.41-.51.18-.34.27-.87.27-.87.1-.53.1-1.27.1-1.27 0-.74-.09-1.26-.09-1.26-.09-.53-.27-.86-.27-.86-.17-.33-.41-.49-.41-.49-.23-.16-.53-.16-.53-.16-.29 0-.53.16-.53.16-.24.16-.41.49-.41.49-.17.33-.27.85-.27.85-.09.52-.09 1.26-.09 1.26 0 1.47.36 2.14.36 2.14.36.66.95.66.95.66zM10.33 38.44zm2.815-.555c.258 0 .468-.11.468-.11.21-.106.37-.3.37-.3.157-.195.246-.46.246-.46.09-.268.09-.6.09-.6 0-.666-.31-1.04-.31-1.04C13.7 35 13.07 35 13.07 35c-.316 0-.69.204-.69.204-.373.205-.71.677-.71.677.085.99.458 1.5.458 1.5.373.51 1.014.51 1.014.51zm0 0zm1.38-5.027c-.21-.24-.5-.384-.5-.384-.29-.14-.6-.14-.6-.14-.348 0-.663.15-.663.15-.315.145-.557.48-.557.48-.24.338-.39.88-.39.88-.147.54-.16 1.34-.16 1.34.316-.39.736-.614.736-.614.42-.226.83-.226.83-.226.87 0 1.39.515 1.39.515.52.51.52 1.55.52 1.55 0 .48-.15.87-.15.87-.16.39-.43.68-.43.68-.27.28-.63.44-.63.44-.36.16-.77.16-.77.16-.49 0-.91-.2-.91-.2-.42-.2-.73-.61-.73-.61-.31-.41-.49-1.01-.49-1.01-.17-.61-.17-1.42-.17-1.42 0-1.01.21-1.72.21-1.72.21-.71.57-1.16.57-1.16.36-.44.82-.65.82-.65.46-.2.96-.2.96-.2.55 0 .94.2.94.2.39.2.68.51.68.51zm1.03 5.577zm2.617.127c-1.02 0-1.586-.903-1.586-.903-.57-.91-.57-2.6-.57-2.6 0-1.69.567-2.58.567-2.58.568-.89 1.587-.89 1.587-.89 1.01 0 1.577.88 1.577.88.566.88.566 2.57.566 2.57 0 1.69-.57 2.59-.57 2.59-.568.9-1.576.9-1.576.9zm0 0zm0-.693c.294 0 .53-.17.53-.17.237-.16.41-.51.41-.51.173-.34.268-.87.268-.87.097-.53.097-1.27.097-1.27 0-.74-.094-1.26-.094-1.26-.093-.53-.266-.86-.266-.86-.173-.33-.41-.49-.41-.49-.236-.16-.53-.16-.53-.16-.294 0-.536.16-.536.16-.24.16-.41.49-.41.49-.17.33-.26.85-.26.85-.09.53-.09 1.26-.09 1.26 0 1.47.36 2.14.36 2.14.37.67.95.67.95.67zm2.605.56zm2.615.12c-1.02 0-1.588-.9-1.588-.9-.567-.9-.567-2.6-.567-2.6 0-1.69.568-2.58.568-2.58.57-.88 1.587-.88 1.587-.88 1.01 0 1.577.88 1.577.88.56.88.56 2.57.56 2.57 0 1.69-.57 2.59-.57 2.59-.57.9-1.58.9-1.58.9zm0 0zm0-.69c.292 0 .53-.16.53-.16.235-.16.41-.51.41-.51.172-.34.27-.87.27-.87.09-.53.09-1.27.09-1.27 0-.74-.093-1.26-.093-1.26-.1-.53-.27-.86-.27-.86-.18-.33-.41-.49-.41-.49-.24-.16-.53-.16-.53-.16-.3 0-.54.16-.54.16-.25.16-.42.49-.42.49-.18.33-.27.85-.27.85-.1.52-.1 1.26-.1 1.26 0 1.47.36 2.13.36 2.13.36.67.95.67.95.67z"/><path fill="none" stroke-miterlimit="10" d="M35.02 738h915.025" stroke-linecap="square"/><path stroke="none" d="M133.695 758zm.946-6.89h.91l2.49 4.327.75 1.43h.04l-.06-1.09c-.03-.56-.03-1.107-.03-1.107v-3.56h.83V758h-.9l-2.5-4.338-.75-1.418h-.04l.08 1.066c.04.54.04 1.087.04 1.087V758h-.83v-6.89zm5.86 6.89zm.49-2.542c0-.64.2-1.14.2-1.14.2-.5.52-.845.52-.845.33-.347.75-.525.75-.525.43-.18.9-.18.9-.18.47 0 .9.18.9.18.43.178.75.525.75.525.33.346.52.845.52.845.2.5.2 1.14.2 1.14 0 .63-.19 1.13-.19 1.13-.19.498-.52.84-.52.84-.32.34-.75.52-.75.52-.42.178-.9.178-.9.178-.47 0-.89-.18-.89-.18-.42-.177-.75-.52-.75-.52-.32-.34-.52-.84-.52-.84-.19-.498-.19-1.128-.19-1.128zm0 0zm.9 0c0 .44.11.798.11.798.11.357.3.615.3.615.2.26.47.4.47.4.28.15.6.15.6.15.33 0 .6-.14.6-.14.27-.14.47-.4.47-.4.2-.25.3-.61.3-.61.11-.35.11-.8.11-.8 0-.44-.11-.8-.11-.8-.1-.36-.3-.62-.3-.62-.19-.26-.46-.4-.46-.4-.27-.14-.6-.14-.6-.14-.32 0-.6.14-.6.14-.27.14-.47.41-.47.41-.19.26-.3.63-.3.63-.1.37-.1.81-.1.81zM146.2 758zm.682-4.317c0-.305.18-.49.18-.49.186-.182.45-.182.45-.182.25 0 .435.19.435.19.184.19.184.49.184.49 0 .28-.18.47-.18.47-.18.19-.43.19-.43.19-.26 0-.44-.18-.44-.18-.18-.18-.18-.46-.18-.46zm0 0zm0 3.792c0-.305.18-.49.18-.49.186-.182.45-.182.45-.182.25 0 .435.183.435.183.184.184.184.49.184.49 0 .282-.18.466-.18.466-.18.184-.43.184-.43.184-.26 0-.44-.184-.44-.184-.18-.184-.18-.467-.18-.467zm4.05.525zm.684-1.355c.295.305.7.536.7.536.404.24.992.24.992.24.305 0 .573-.11.573-.11.27-.11.47-.31.47-.31.2-.2.32-.48.32-.48.12-.28.12-.63.12-.63 0-.69-.39-1.08-.39-1.08-.39-.39-1.04-.39-1.04-.39-.35 0-.59.11-.59.11-.24.11-.55.31-.55.31l-.46-.29.22-3.22h3.35v.75h-2.59l-.18 1.99c.24-.13.49-.2.49-.2.25-.07.55-.07.55-.07.43 0 .81.13.81.13.38.13.66.39.66.39.29.26.45.65.45.65.17.4.17.94.17.94 0 .55-.19.97-.19.97-.19.42-.5.71-.5.71-.32.29-.72.44-.72.44-.4.15-.85.15-.85.15-.4 0-.73-.08-.73-.08-.33-.08-.6-.2-.6-.2-.26-.12-.48-.28-.48-.28-.21-.16-.38-.34-.38-.34zm4.54 1.355zm2.614.126c-1.02 0-1.586-.903-1.586-.903-.563-.904-.563-2.595-.563-2.595 0-1.69.57-2.573.57-2.573.57-.883 1.59-.883 1.59-.883 1.01 0 1.58.883 1.58.883.57.882.57 2.573.57 2.573 0 1.69-.56 2.595-.56 2.595-.56.903-1.57.903-1.57.903zm0 0zm0-.693c.294 0 .53-.163.53-.163.237-.163.41-.504.41-.504.174-.342.268-.872.268-.872.096-.53.096-1.266.096-1.266 0-.735-.092-1.26-.092-1.26-.095-.525-.27-.856-.27-.856-.172-.33-.41-.49-.41-.49-.235-.156-.53-.156-.53-.156-.293 0-.534.157-.534.157-.242.158-.415.49-.415.49-.173.33-.267.855-.267.855-.094.525-.094 1.26-.094 1.26 0 1.47.363 2.138.363 2.138.36.667.95.667.95.667zm2.605.567zm.716-1.387c.3.315.71.557.71.557.4.242 1 .242 1 .242.61 0 1-.33 1-.33.38-.332.38-.9.38-.9 0-.293-.11-.54-.11-.54-.11-.247-.36-.426-.36-.426-.25-.178-.66-.273-.66-.273-.41-.094-1.01-.094-1.01-.094v-.67c.54 0 .9-.1.9-.1.36-.1.59-.26.59-.26.22-.17.32-.4.32-.4.09-.23.09-.5.09-.5 0-.5-.31-.78-.31-.78-.31-.29-.84-.29-.84-.29-.42 0-.77.19-.77.19-.35.18-.65.49-.65.49l-.46-.55c.39-.37.85-.61.85-.61.47-.24 1.07-.24 1.07-.24.45 0 .81.11.81.11.37.11.64.33.64.33.27.21.42.53.42.53.15.31.15.72.15.72 0 .61-.33 1-.33 1-.33.39-.88.6-.88.6v.04c.31.07.57.21.57.21.26.14.46.35.46.35.2.21.31.5.31.5.11.28.11.63.11.63 0 .44-.17.79-.17.79-.17.35-.47.6-.47.6-.3.25-.7.38-.7.38-.4.13-.87.13-.87.13-.4 0-.73-.08-.73-.08-.33-.08-.6-.21-.6-.21-.27-.13-.48-.3-.48-.3-.21-.17-.38-.36-.38-.36zM334.58 758zm2.058-2.668l-2.07-4.223h.94l.892 1.94.33.74c.156.37.335.75.335.75h.042c.176-.39.355-.76.355-.76.178-.37.336-.75.336-.75l.88-1.95h.915l-2.07 4.22v2.7h-.88v-2.67zm2.51 2.668zm.487-2.542c0-.63.194-1.13.194-1.13.19-.498.51-.845.51-.845.32-.346.73-.53.73-.53.41-.184.85-.184.85-.184.48 0 .87.16.87.16.38.17.64.48.64.48.26.31.39.75.39.75.13.44.13.98.13.98 0 .28-.03.47-.03.47h-3.45c.05.83.51 1.31.51 1.31.45.48 1.19.48 1.19.48.36 0 .67-.11.67-.11.31-.11.59-.29.59-.29l.3.56c-.33.21-.74.37-.74.37-.41.16-.94.16-.94.16-.52 0-.96-.19-.96-.19-.45-.19-.78-.53-.78-.53-.33-.34-.52-.84-.52-.84-.19-.5-.19-1.13-.19-1.13zm0 0zm3.572-.39c0-.786-.33-1.2-.33-1.2-.334-.416-.93-.416-.93-.416-.276 0-.52.11-.52.11-.25.11-.45.315-.45.315-.2.205-.33.504-.33.504-.13.3-.17.69-.17.69h2.73zM344.36 758zm.725-1.155c.335.273.687.44.687.44.352.17.814.17.814.17.503 0 .755-.232.755-.232.26-.23.26-.567.26-.567 0-.2-.1-.347-.1-.347-.1-.15-.27-.26-.27-.26-.16-.11-.37-.2-.37-.2l-.42-.17c-.27-.1-.54-.22-.54-.22-.27-.12-.49-.3-.49-.3-.21-.18-.35-.41-.35-.41-.14-.23-.14-.56-.14-.56 0-.31.12-.58.12-.58.12-.27.35-.46.35-.46.23-.19.55-.31.55-.31.33-.11.74-.11.74-.11.49 0 .89.17.89.17.4.16.7.41.7.41l-.41.54c-.26-.2-.55-.33-.55-.33-.28-.13-.62-.13-.62-.13-.48 0-.71.22-.71.22-.22.22-.22.51-.22.51 0 .18.1.31.1.31.1.13.25.23.25.23.16.1.36.18.36.18l.43.16c.27.1.55.22.55.22.28.11.5.29.5.29.22.17.36.42.36.42.15.25.15.61.15.61 0 .31-.12.59-.12.59-.12.27-.36.48-.36.48-.24.21-.59.33-.59.33-.35.12-.8.12-.8.12-.55 0-1.04-.2-1.04-.2-.49-.2-.86-.51-.86-.51zM348.76 758zm.494 1.282c.44-.2.692-.526.692-.526.254-.325.254-.756.254-.756-.03.01-.105.01-.105.01-.255 0-.44-.152-.44-.152-.182-.152-.182-.446-.182-.446 0-.284.187-.447.187-.447.19-.162.45-.162.45-.162.338 0 .532.273.532.273.192.273.192.745.192.745 0 .69-.367 1.19-.367 1.19-.368.51-1.01.78-1.01.78zM353.5 758zm.725-1.155c.337.273.688.44.688.44.352.17.815.17.815.17.502 0 .754-.232.754-.232.252-.23.252-.567.252-.567 0-.2-.105-.347-.105-.347-.11-.15-.27-.26-.27-.26-.17-.11-.38-.2-.38-.2l-.42-.17c-.28-.1-.55-.22-.55-.22-.28-.12-.49-.3-.49-.3-.22-.18-.35-.41-.35-.41-.14-.23-.14-.56-.14-.56 0-.31.12-.58.12-.58.12-.27.34-.46.34-.46.23-.19.55-.31.55-.31.32-.11.73-.11.73-.11.48 0 .89.17.89.17.4.16.69.41.69.41l-.41.54c-.26-.2-.55-.33-.55-.33-.29-.13-.62-.13-.62-.13-.49 0-.71.22-.71.22-.23.22-.23.51-.23.51 0 .18.09.31.09.31.1.13.25.23.25.23.15.1.36.18.36.18l.42.16c.27.1.55.22.55.22.28.11.5.29.5.29.22.17.36.42.36.42.14.25.14.61.14.61 0 .31-.12.59-.12.59-.13.27-.36.48-.36.48-.24.21-.59.33-.59.33-.35.12-.81.12-.81.12-.55 0-1.04-.2-1.04-.2-.49-.2-.86-.51-.86-.51zm3.677 1.155zm.483-2.542c0-.64.194-1.14.194-1.14.19-.5.52-.845.52-.845.32-.347.75-.525.75-.525.42-.18.9-.18.9-.18.47 0 .89.18.89.18.42.178.75.525.75.525.32.346.52.845.52.845.19.5.19 1.14.19 1.14 0 .63-.2 1.13-.2 1.13-.2.498-.52.84-.52.84-.33.34-.76.52-.76.52-.43.178-.9.178-.9.178-.48 0-.9-.18-.9-.18-.43-.177-.75-.52-.75-.52-.33-.34-.52-.84-.52-.84-.2-.498-.2-1.128-.2-1.128zm0 0zm.893 0c0 .44.103.798.103.798.11.357.3.615.3.615.2.26.47.4.47.4.28.15.6.15.6.15.33 0 .6-.14.6-.14.28-.14.47-.4.47-.4.2-.25.3-.61.3-.61.11-.35.11-.8.11-.8 0-.44-.1-.8-.1-.8-.1-.36-.3-.62-.3-.62-.19-.26-.46-.4-.46-.4-.27-.14-.59-.14-.59-.14-.33 0-.6.14-.6.14-.27.14-.47.41-.47.41-.19.26-.3.63-.3.63-.1.37-.1.81-.1.81zm4.315 2.542zm.862-5.105h.714l.07.735h.03c.33-.367.73-.614.73-.614.39-.247.85-.247.85-.247.59 0 .92.25.92.25.33.26.49.72.49.72.4-.44.8-.71.8-.71.4-.27.87-.27.87-.27.79 0 1.17.5 1.17.5.38.5.38 1.49.38 1.49V758h-.86v-3.12c0-.724-.24-1.045-.24-1.045-.23-.32-.72-.32-.72-.32-.58 0-1.29.788-1.29.788V758h-.86v-3.12c0-.724-.23-1.045-.23-1.045-.23-.32-.73-.32-.73-.32-.58 0-1.28.788-1.28.788V758h-.86v-5.105zM372.3 758zm.484-2.542c0-.63.195-1.13.195-1.13.19-.498.51-.845.51-.845.32-.346.73-.53.73-.53.41-.184.85-.184.85-.184.48 0 .87.16.87.16.38.17.64.48.64.48.26.31.39.75.39.75.13.44.13.98.13.98 0 .28-.03.47-.03.47h-3.45c.05.83.51 1.31.51 1.31.45.48 1.19.48 1.19.48.36 0 .67-.11.67-.11.31-.11.59-.29.59-.29l.3.56c-.34.21-.75.37-.75.37-.41.16-.94.16-.94.16-.52 0-.96-.19-.96-.19-.45-.19-.78-.53-.78-.53-.33-.34-.52-.84-.52-.84-.19-.5-.19-1.13-.19-1.13zm0 0zm3.572-.39c0-.786-.332-1.2-.332-1.2-.33-.416-.93-.416-.93-.416-.273 0-.52.11-.52.11-.246.11-.446.315-.446.315-.2.205-.33.504-.33.504-.132.3-.174.69-.174.69h2.73zm1.007 2.932zm1.01-4.4h-.758v-.653l.798-.052.105-1.43h.724v1.43h1.377v.704h-1.38v2.83c0 .47.17.73.17.73.17.25.61.25.61.25.13 0 .29-.04.29-.04.15-.05.28-.1.28-.1l.16.65c-.21.07-.46.13-.46.13-.25.05-.49.05-.49.05-.41 0-.69-.13-.69-.13-.28-.13-.45-.35-.45-.35-.18-.22-.25-.54-.25-.54-.08-.32-.08-.7-.08-.7v-2.82zm2.54 4.4zm1.303-6.155c-.252 0-.425-.158-.425-.158-.17-.158-.17-.4-.17-.4 0-.25.18-.404.18-.404.18-.152.43-.152.43-.152.25 0 .43.16.43.16.18.16.18.41.18.41 0 .24-.17.4-.17.4-.17.16-.43.16-.43.16zm0 0zm-.44 1.05h.86V758h-.86v-5.105zM383.5 758zm.86-5.105h.715l.074.735h.03c.33-.367.73-.614.73-.614.39-.247.85-.247.85-.247.58 0 .92.25.92.25.33.26.49.72.49.72.4-.44.8-.71.8-.71.4-.27.87-.27.87-.27.79 0 1.17.5 1.17.5.38.5.38 1.49.38 1.49V758h-.86v-3.12c0-.724-.23-1.045-.23-1.045-.24-.32-.72-.32-.72-.32-.58 0-1.28.788-1.28.788V758h-.86v-3.12c0-.724-.24-1.045-.24-1.045-.23-.32-.73-.32-.73-.32-.58 0-1.28.788-1.28.788V758h-.86v-5.105zm7.85 5.105zm.483-2.542c0-.63.194-1.13.194-1.13.195-.498.515-.845.515-.845.32-.346.73-.53.73-.53.41-.184.85-.184.85-.184.484 0 .867.16.867.16.38.17.64.48.64.48.25.31.39.75.39.75.13.44.13.98.13.98 0 .28-.03.47-.03.47h-3.45c.05.83.51 1.31.51 1.31.45.48 1.19.48 1.19.48.37 0 .68-.11.68-.11.31-.11.59-.29.59-.29l.3.56c-.34.21-.75.37-.75.37-.41.16-.94.16-.94.16-.52 0-.96-.19-.96-.19-.45-.19-.78-.53-.78-.53-.33-.34-.52-.84-.52-.84-.19-.5-.19-1.13-.19-1.13zm0 0zm3.57-.39c0-.786-.33-1.2-.33-1.2-.33-.416-.93-.416-.93-.416-.272 0-.52.11-.52.11-.246.11-.446.315-.446.315-.2.205-.33.504-.33.504-.132.3-.174.69-.174.69h2.73zM397.42 758zm.725-1.155c.336.273.688.44.688.44.35.17.814.17.814.17.504 0 .756-.232.756-.232.252-.23.252-.567.252-.567 0-.2-.105-.347-.105-.347-.105-.15-.268-.26-.268-.26-.163-.11-.373-.2-.373-.2l-.42-.17c-.28-.1-.55-.22-.55-.22-.28-.12-.49-.3-.49-.3-.22-.18-.35-.41-.35-.41-.14-.23-.14-.56-.14-.56 0-.31.12-.58.12-.58.12-.27.34-.46.34-.46.22-.19.55-.31.55-.31.32-.11.73-.11.73-.11.48 0 .88.17.88.17.4.16.7.41.7.41l-.41.54c-.27-.2-.55-.33-.55-.33-.29-.13-.62-.13-.62-.13-.49 0-.71.22-.71.22-.23.22-.23.51-.23.51 0 .18.09.31.09.31.09.13.25.23.25.23.16.1.36.18.36.18l.42.16c.27.1.55.22.55.22.28.11.5.29.5.29.22.17.36.42.36.42.14.25.14.61.14.61 0 .31-.12.59-.12.59-.13.27-.36.48-.36.48-.24.21-.59.33-.59.33-.36.12-.81.12-.81.12-.55 0-1.04-.2-1.04-.2-.5-.2-.86-.51-.86-.51zM401.82 758zm.684-4.317c0-.305.184-.49.184-.49.183-.182.446-.182.446-.182.252 0 .436.19.436.19.184.19.184.49.184.49 0 .28-.184.47-.184.47-.184.19-.436.19-.436.19-.263 0-.446-.18-.446-.18-.184-.18-.184-.46-.184-.46zm0 0zm0 3.792c0-.305.184-.49.184-.49.183-.182.446-.182.446-.182.252 0 .436.183.436.183.184.184.184.49.184.49 0 .282-.184.466-.184.466-.184.184-.436.184-.436.184-.263 0-.446-.184-.446-.184-.184-.184-.184-.467-.184-.467zm4.054.525zm.715-1.387c.304.315.71.557.71.557.403.242 1.002.242 1.002.242.61 0 .998-.33.998-.33.388-.332.388-.9.388-.9 0-.293-.11-.54-.11-.54-.11-.247-.36-.426-.36-.426-.25-.178-.66-.273-.66-.273-.41-.094-1.01-.094-1.01-.094v-.67c.54 0 .9-.1.9-.1.36-.1.59-.26.59-.26.23-.17.32-.4.32-.4.1-.23.1-.5.1-.5 0-.5-.31-.78-.31-.78-.31-.29-.84-.29-.84-.29-.42 0-.77.19-.77.19-.35.18-.65.49-.65.49l-.46-.55c.39-.37.86-.61.86-.61.47-.24 1.07-.24 1.07-.24.44 0 .81.11.81.11.37.11.64.33.64.33.27.21.42.53.42.53.15.31.15.72.15.72 0 .61-.33 1-.33 1-.33.39-.88.6-.88.6v.04c.31.07.57.21.57.21.26.14.46.35.46.35.2.21.31.5.31.5.11.28.11.63.11.63 0 .44-.17.79-.17.79-.17.35-.47.6-.47.6-.3.25-.7.38-.7.38-.4.13-.86.13-.86.13-.4 0-.73-.08-.73-.08-.33-.08-.6-.21-.6-.21-.27-.13-.48-.3-.48-.3-.21-.17-.38-.36-.38-.36zM411.78 758zm.83-.714h1.532v-4.937h-1.218v-.56c.462-.09.803-.21.803-.21.342-.12.615-.29.615-.29h.662v5.99h1.386v.72h-3.78v-.72zM417 758zm.682-1.355c.294.305.7.536.7.536.403.24.99.24.99.24.306 0 .574-.11.574-.11.268-.11.467-.31.467-.31.2-.2.315-.48.315-.48.116-.28.116-.63.116-.63 0-.69-.39-1.08-.39-1.08-.387-.39-1.04-.39-1.04-.39-.345 0-.592.11-.592.11-.247.11-.552.31-.552.31l-.462-.29.22-3.22h3.352v.75h-2.595l-.18 1.99c.243-.13.485-.2.485-.2.24-.07.546-.07.546-.07.43 0 .81.13.81.13.377.13.66.39.66.39.284.26.447.65.447.65.163.4.163.94.163.94 0 .55-.19.97-.19.97-.188.42-.504.71-.504.71-.315.29-.72.44-.72.44-.403.15-.845.15-.845.15-.4 0-.73-.08-.73-.08-.33-.08-.598-.2-.598-.2-.27-.12-.49-.28-.49-.28-.22-.16-.39-.34-.39-.34zM562.704 758zm2.06-2.668l-2.07-4.223h.935l.89 1.94c.17.38.32.74.32.74.16.37.33.75.33.75h.04l.35-.76c.18-.37.33-.75.33-.75l.88-1.95h.91l-2.07 4.22v2.7h-.88v-2.67zm2.51 2.668zm.483-2.542c0-.63.194-1.13.194-1.13.2-.498.52-.845.52-.845.32-.346.73-.53.73-.53.41-.184.85-.184.85-.184.49 0 .87.16.87.16.39.17.64.48.64.48.26.31.4.75.4.75.14.44.14.98.14.98 0 .28-.03.47-.03.47h-3.44c.05.83.51 1.31.51 1.31.46.48 1.19.48 1.19.48.37 0 .68-.11.68-.11.31-.11.59-.29.59-.29l.31.56c-.33.21-.74.37-.74.37-.41.16-.93.16-.93.16-.51 0-.96-.19-.96-.19-.44-.19-.78-.53-.78-.53-.33-.34-.52-.84-.52-.84-.19-.5-.19-1.13-.19-1.13zm0 0zm3.57-.39c0-.786-.33-1.2-.33-1.2-.33-.416-.93-.416-.93-.416-.273 0-.52.11-.52.11-.246.11-.446.315-.446.315-.19.205-.33.504-.33.504-.13.3-.17.69-.17.69h2.73zm1.157 2.932zm.724-1.155c.337.273.688.44.688.44.352.17.815.17.815.17.51 0 .76-.232.76-.232.25-.23.25-.567.25-.567 0-.2-.1-.347-.1-.347-.1-.15-.27-.26-.27-.26-.16-.11-.37-.2-.37-.2l-.42-.17c-.27-.1-.54-.22-.54-.22-.27-.12-.49-.3-.49-.3-.21-.18-.35-.41-.35-.41-.13-.23-.13-.56-.13-.56 0-.31.12-.58.12-.58.12-.27.35-.46.35-.46.23-.19.56-.31.56-.31.33-.11.74-.11.74-.11.49 0 .89.17.89.17.41.16.7.41.7.41l-.41.54c-.26-.2-.54-.33-.54-.33-.28-.13-.62-.13-.62-.13-.48 0-.7.22-.7.22-.23.22-.23.51-.23.51 0 .18.09.31.09.31.1.13.25.23.25.23.16.1.37.18.37.18l.42.16c.27.1.55.22.55.22.28.11.5.29.5.29.22.17.36.42.36.42.14.25.14.61.14.61 0 .31-.12.59-.12.59-.12.27-.36.48-.36.48-.23.21-.58.33-.58.33-.35.12-.8.12-.8.12-.54 0-1.04-.2-1.04-.2-.49-.2-.86-.51-.86-.51zm3.677 1.155zm.494 1.282c.44-.2.69-.526.69-.526.25-.325.25-.756.25-.756-.03.01-.11.01-.11.01-.26 0-.44-.152-.44-.152-.19-.152-.19-.446-.19-.446 0-.284.19-.447.19-.447.19-.162.45-.162.45-.162.33 0 .53.273.53.273.19.273.19.745.19.745 0 .69-.37 1.19-.37 1.19-.37.51-1.01.78-1.01.78zm4.24-1.282zm.61-1.323c0-.84.75-1.287.75-1.287.75-.447 2.39-.625 2.39-.625 0-.242-.05-.473-.05-.473-.05-.23-.17-.41-.17-.41-.12-.178-.32-.29-.32-.29-.2-.11-.52-.11-.52-.11-.46 0-.84.17-.84.17-.39.167-.69.377-.69.377l-.35-.6c.35-.23.87-.45.87-.45.51-.22 1.13-.22 1.13-.22.93 0 1.35.57 1.35.57.42.57.42 1.53.42 1.53V758h-.72l-.08-.61h-.02c-.37.306-.8.52-.8.52-.43.216-.9.216-.9.216-.66 0-1.08-.378-1.08-.378-.43-.378-.43-1.07-.43-1.07zm0 0zm.85-.064c0 .442.25.63.25.63.25.19.63.19.63.19.37 0 .7-.173.7-.173.33-.174.69-.51.69-.51v-1.418c-.64.084-1.09.2-1.09.2-.44.115-.71.273-.71.273-.27.157-.38.362-.38.362-.12.205-.12.446-.12.446zM587 758zm.862-7.48h.86v6.514c0 .21.075.294.075.294.073.084.168.084.168.084h.078l.11-.02.116.65c-.09.042-.2.063-.2.063-.12.02-.3.02-.3.02-.5 0-.71-.293-.71-.293-.21-.294-.21-.86-.21-.86v-6.45zm1.817 7.48zm.86-7.48h.86v6.514c0 .21.07.294.07.294.07.084.17.084.17.084h.08l.11-.02.11.65c-.09.042-.2.063-.2.063-.12.02-.3.02-.3.02-.5 0-.71-.293-.71-.293-.21-.294-.21-.86-.21-.86v-6.45zm3.94 7.48zm1-4.4h-.76v-.653l.8-.052.1-1.43h.72v1.43h1.37v.704h-1.38v2.83c0 .47.17.73.17.73.17.25.61.25.61.25.14 0 .29-.04.29-.04.16-.05.28-.1.28-.1l.17.65c-.21.07-.46.13-.46.13-.25.05-.49.05-.49.05-.41 0-.69-.13-.69-.13-.28-.13-.46-.35-.46-.35-.17-.22-.25-.54-.25-.54-.07-.32-.07-.7-.07-.7v-2.82zm2.54 4.4zm.86-7.48h.86v2.04l-.04 1.05c.37-.347.77-.594.77-.594.4-.247.93-.247.93-.247.81 0 1.18.5 1.18.5.37.5.37 1.49.37 1.49V758h-.86v-3.12c0-.725-.23-1.045-.23-1.045-.23-.32-.74-.32-.74-.32-.4 0-.7.2-.7.2-.31.2-.69.587-.69.587V758h-.86v-7.48zm4.85 7.48zm.48-2.542c0-.63.19-1.13.19-1.13.19-.498.51-.845.51-.845.32-.346.73-.53.73-.53.41-.184.85-.184.85-.184.48 0 .87.16.87.16.38.17.64.48.64.48.26.31.39.75.39.75.13.44.13.98.13.98 0 .28-.03.47-.03.47h-3.45c.05.83.51 1.31.51 1.31.45.48 1.19.48 1.19.48.36 0 .67-.11.67-.11.31-.11.59-.29.59-.29l.3.56c-.33.21-.74.37-.74.37-.41.16-.94.16-.94.16-.52 0-.96-.19-.96-.19-.45-.19-.78-.53-.78-.53-.33-.34-.52-.84-.52-.84-.19-.5-.19-1.13-.19-1.13zm0 0zm3.57-.39c0-.786-.34-1.2-.34-1.2-.33-.416-.93-.416-.93-.416-.27 0-.52.11-.52.11-.25.11-.45.315-.45.315-.2.205-.33.504-.33.504-.13.3-.18.69-.18.69h2.73zm3.28 2.932zm1.01-4.4h-.76v-.653l.79-.052.11-1.43h.72v1.43h1.37v.704h-1.38v2.83c0 .47.17.73.17.73.17.25.61.25.61.25.14 0 .29-.04.29-.04.16-.05.29-.1.29-.1l.17.65c-.21.07-.46.13-.46.13-.25.05-.49.05-.49.05-.41 0-.69-.13-.69-.13-.28-.13-.45-.35-.45-.35-.17-.22-.25-.54-.25-.54-.07-.32-.07-.7-.07-.7v-2.82zm2.54 4.4zm1.3-6.155c-.26 0-.43-.158-.43-.158-.18-.158-.18-.4-.18-.4 0-.25.17-.404.17-.404.17-.152.42-.152.42-.152.25 0 .42.16.42.16.17.16.17.41.17.41 0 .24-.18.4-.18.4-.17.16-.42.16-.42.16zm0 0zm-.44 1.05h.86V758h-.86v-5.105zM617.2 758zm.86-5.105h.715l.074.735h.03c.33-.367.73-.614.73-.614.39-.247.85-.247.85-.247.59 0 .92.25.92.25.33.26.49.72.49.72.4-.44.8-.71.8-.71.4-.27.87-.27.87-.27.79 0 1.17.5 1.17.5.38.5.38 1.49.38 1.49V758h-.86v-3.12c0-.724-.24-1.045-.24-1.045-.23-.32-.72-.32-.72-.32-.58 0-1.28.788-1.28.788V758h-.86v-3.12c0-.724-.23-1.045-.23-1.045-.24-.32-.73-.32-.73-.32-.58 0-1.28.788-1.28.788V758h-.86v-5.105zm7.85 5.105zm.485-2.542c0-.63.196-1.13.196-1.13.2-.498.52-.845.52-.845.32-.346.73-.53.73-.53.41-.184.85-.184.85-.184.49 0 .87.16.87.16.39.17.64.48.64.48.26.31.4.75.4.75.14.44.14.98.14.98 0 .28-.03.47-.03.47h-3.44c.05.83.51 1.31.51 1.31.46.48 1.19.48 1.19.48.37 0 .68-.11.68-.11.31-.11.59-.29.59-.29l.31.56c-.33.21-.74.37-.74.37-.41.16-.94.16-.94.16-.51 0-.96-.19-.96-.19-.44-.19-.77-.53-.77-.53-.33-.34-.52-.84-.52-.84-.19-.5-.19-1.13-.19-1.13zm0 0zm3.57-.39c0-.786-.33-1.2-.33-1.2-.33-.416-.93-.416-.93-.416-.27 0-.52.11-.52.11-.244.11-.444.315-.444.315-.2.205-.33.504-.33.504-.13.3-.17.69-.17.69h2.73zm1.16 2.932zm.68-4.317c0-.305.186-.49.186-.49.19-.182.45-.182.45-.182.26 0 .44.19.44.19.19.19.19.49.19.49 0 .28-.18.47-.18.47-.18.19-.43.19-.43.19-.26 0-.44-.18-.44-.18-.18-.18-.18-.46-.18-.46zm0 0zm0 3.792c0-.305.186-.49.186-.49.19-.182.45-.182.45-.182.26 0 .44.183.44.183.19.184.19.49.19.49 0 .282-.18.466-.18.466-.18.184-.43.184-.43.184-.26 0-.44-.184-.44-.184-.18-.184-.18-.467-.18-.467zm4.057.525zm.714-1.387c.306.315.71.557.71.557.405.242 1.003.242 1.003.242.61 0 1-.33 1-.33.39-.332.39-.9.39-.9 0-.293-.11-.54-.11-.54-.11-.247-.37-.426-.37-.426-.26-.178-.67-.273-.67-.273-.41-.094-1.01-.094-1.01-.094v-.67c.53 0 .89-.1.89-.1.36-.1.59-.26.59-.26.22-.17.32-.4.32-.4.09-.23.09-.5.09-.5 0-.5-.31-.78-.31-.78-.31-.29-.85-.29-.85-.29-.42 0-.77.19-.77.19-.35.18-.65.49-.65.49l-.46-.55c.39-.37.86-.61.86-.61.47-.24 1.07-.24 1.07-.24.44 0 .81.11.81.11.37.11.64.33.64.33.26.21.41.53.41.53.15.31.15.72.15.72 0 .61-.34 1-.34 1-.34.39-.88.6-.88.6v.04c.3.07.57.21.57.21.26.14.46.35.46.35.2.21.31.5.31.5.11.28.11.63.11.63 0 .44-.18.79-.18.79-.17.35-.47.6-.47.6-.3.25-.7.38-.7.38-.4.13-.86.13-.86.13-.4 0-.73-.08-.73-.08-.33-.08-.6-.21-.6-.21-.27-.13-.49-.3-.49-.3-.21-.17-.38-.36-.38-.36zm4.51 1.387zm2.616.126c-1.02 0-1.586-.903-1.586-.903-.567-.904-.567-2.595-.567-2.595 0-1.69.56-2.573.56-2.573.56-.883 1.58-.883 1.58-.883 1.01 0 1.57.883 1.57.883.56.882.56 2.573.56 2.573 0 1.69-.57 2.595-.57 2.595-.57.903-1.58.903-1.58.903zm0 0zm0-.693c.294 0 .53-.163.53-.163.237-.163.41-.504.41-.504.174-.342.268-.872.268-.872.097-.53.097-1.266.097-1.266 0-.735-.095-1.26-.095-1.26-.093-.525-.267-.856-.267-.856-.173-.33-.41-.49-.41-.49-.236-.156-.53-.156-.53-.156-.294 0-.536.157-.536.157-.24.158-.42.49-.42.49-.17.33-.26.855-.26.855-.09.525-.09 1.26-.09 1.26 0 1.47.36 2.138.36 2.138.36.667.95.667.95.667zm2.605.567zm2.814-.557c.26 0 .47-.105.47-.105.21-.105.37-.3.37-.3.16-.193.25-.46.25-.46.08-.27.08-.605.08-.605 0-.662-.3-1.04-.3-1.04-.3-.378-.93-.378-.93-.378-.31 0-.69.204-.69.204-.37.2-.71.67-.71.67.09.98.46 1.49.46 1.49.37.51 1.01.51 1.01.51zm0 0zm1.38-5.02c-.21-.242-.5-.384-.5-.384-.29-.15-.6-.15-.6-.15-.34 0-.66.14-.66.14-.31.14-.56.48-.56.48-.24.33-.39.87-.39.87-.15.54-.16 1.34-.16 1.34.32-.39.74-.62.74-.62.42-.23.83-.23.83-.23.87 0 1.39.51 1.39.51.52.51.52 1.55.52 1.55 0 .48-.15.88-.15.88-.16.39-.43.67-.43.67-.27.28-.63.44-.63.44-.36.15-.77.15-.77.15-.49 0-.91-.2-.91-.2-.42-.2-.73-.61-.73-.61-.31-.4-.49-1.01-.49-1.01-.18-.6-.18-1.41-.18-1.41 0-1.01.21-1.72.21-1.72.21-.71.57-1.15.57-1.15.36-.45.82-.65.82-.65.46-.21.96-.21.96-.21.55 0 .94.2.94.2.4.2.68.51.68.51zM771.71 758zm.946-6.89h.903l2.49 4.327.75 1.43h.04c-.03-.527-.07-1.09-.07-1.09-.03-.56-.03-1.107-.03-1.107v-3.56h.83V758h-.9l-2.5-4.338-.75-1.418h-.04l.08 1.066c.03.54.03 1.087.03 1.087V758h-.83v-6.89zm5.85 6.89zm.484-2.542c0-.64.194-1.14.194-1.14.194-.5.52-.845.52-.845.326-.347.75-.525.75-.525.426-.18.9-.18.9-.18.472 0 .897.18.897.18.43.178.75.525.75.525.33.346.52.845.52.845.2.5.2 1.14.2 1.14 0 .63-.2 1.13-.2 1.13-.2.498-.52.84-.52.84-.33.34-.75.52-.75.52-.43.178-.9.178-.9.178-.47 0-.9-.18-.9-.18-.43-.177-.75-.52-.75-.52-.33-.34-.52-.84-.52-.84-.2-.498-.2-1.128-.2-1.128zm0 0zm.893 0c0 .44.105.798.105.798.105.357.3.615.3.615.193.26.466.4.466.4.274.15.6.15.6.15.325 0 .598-.14.598-.14.273-.14.467-.4.467-.4.2-.25.3-.61.3-.61.11-.35.11-.8.11-.8 0-.44-.1-.8-.1-.8-.11-.36-.3-.62-.3-.62-.19-.26-.47-.4-.47-.4-.28-.14-.6-.14-.6-.14-.33 0-.6.14-.6.14-.27.14-.47.41-.47.41-.2.26-.3.63-.3.63-.11.37-.11.81-.11.81zM784.2 758zm.494 1.282c.44-.2.693-.526.693-.526.25-.325.25-.756.25-.756-.03.01-.11.01-.11.01-.25 0-.44-.152-.44-.152-.186-.152-.186-.446-.186-.446 0-.284.19-.447.19-.447.19-.162.45-.162.45-.162.34 0 .54.273.54.273.2.273.2.745.2.745 0 .69-.37 1.19-.37 1.19-.37.51-1.01.78-1.01.78zM788.94 758zm.86-7.48h.862v2.04l-.02.923c.346-.304.755-.51.755-.51.41-.204.84-.204.84-.204.494 0 .872.18.872.18.37.18.63.52.63.52.25.34.39.82.39.82.13.47.13 1.06.13 1.06 0 .65-.18 1.16-.18 1.16-.18.51-.48.87-.48.87-.31.36-.71.54-.71.54-.4.18-.84.18-.84.18-.36 0-.74-.16-.74-.16-.39-.17-.72-.47-.72-.47h-.03l-.08.5h-.69v-7.48zm0 0zm.862 6.346c.336.294.667.414.667.414.33.12.58.12.58.12.31 0 .58-.14.58-.14.27-.142.46-.4.46-.4.19-.257.3-.635.3-.635.11-.378.11-.85.11-.85 0-.42-.08-.768-.08-.768-.08-.346-.24-.593-.24-.593-.17-.247-.42-.384-.42-.384-.26-.136-.62-.136-.62-.136-.62 0-1.37.693-1.37.693v2.68zM794.77 758zm.787-5.105h.872v3.12c0 .724.22 1.045.22 1.045.22.32.73.32.73.32.4 0 .7-.205.7-.205.3-.204.67-.656.67-.656v-3.63h.86V758h-.72l-.08-.798h-.03c-.36.42-.75.672-.75.672-.4.252-.93.252-.93.252-.82 0-1.19-.504-1.19-.504-.38-.504-.38-1.492-.38-1.492v-3.235zm4.926 5.105zm1.01-4.4h-.758v-.653l.8-.052.104-1.43h.72v1.43h1.37v.704h-1.38v2.83c0 .47.17.73.17.73.17.25.61.25.61.25.14 0 .29-.04.29-.04.15-.05.28-.1.28-.1l.16.65c-.21.07-.46.13-.46.13-.25.05-.49.05-.49.05-.41 0-.69-.13-.69-.13-.28-.13-.46-.35-.46-.35-.17-.22-.25-.54-.25-.54-.07-.32-.07-.7-.07-.7v-2.82zm4.663 4.4zm.86-5.105h.715l.08.735h.03c.34-.367.73-.614.73-.614.4-.247.86-.247.86-.247.59 0 .92.25.92.25.33.26.49.72.49.72.4-.44.81-.71.81-.71.41-.27.88-.27.88-.27.79 0 1.18.5 1.18.5.38.5.38 1.49.38 1.49V758h-.86v-3.12c0-.724-.23-1.045-.23-1.045-.23-.32-.71-.32-.71-.32-.58 0-1.28.788-1.28.788V758h-.86v-3.12c0-.724-.23-1.045-.23-1.045-.23-.32-.72-.32-.72-.32-.57 0-1.28.788-1.28.788V758h-.86v-5.105zm7.848 5.105zm.514 1.408l.19.047.2.026c.44 0 .72-.31.72-.31.277-.31.434-.78.434-.78l.116-.38-2.048-5.11h.892l1.04 2.83.247.71c.13.37.24.73.24.73h.04c.11-.34.22-.72.22-.72.1-.38.21-.71.21-.71l.91-2.82h.84l-1.92 5.53c-.14.38-.31.7-.31.7-.17.33-.4.56-.4.56-.23.24-.53.38-.53.38-.29.14-.68.14-.68.14-.18 0-.33-.02-.33-.02-.15-.02-.27-.08-.27-.08l.16-.68zM821.89 758zm.484-2.542c0-.64.2-1.14.2-1.14.2-.5.535-.845.535-.845.33-.347.78-.525.78-.525.44-.18.94-.18.94-.18.5 0 .86.185.86.185.36.184.62.425.62.425l-.43.557c-.23-.2-.48-.326-.48-.326-.25-.13-.55-.13-.55-.13-.35 0-.64.14-.64.14-.3.14-.51.4-.51.4-.21.26-.33.62-.33.62-.12.36-.12.8-.12.8 0 .44.11.8.11.8.11.35.32.61.32.61.2.25.5.4.5.4.29.14.64.14.64.14.36 0 .66-.15.66-.15.3-.16.53-.37.53-.37l.39.56c-.35.3-.77.48-.77.48-.43.18-.89.18-.89.18-.51 0-.95-.18-.95-.18-.44-.18-.76-.52-.76-.52-.32-.34-.51-.84-.51-.84-.19-.5-.19-1.13-.19-1.13zM826.46 758zm.483-2.542c0-.64.195-1.14.195-1.14.194-.5.52-.845.52-.845.325-.347.75-.525.75-.525.426-.18.9-.18.9-.18.472 0 .897.18.897.18.425.178.75.525.75.525.327.346.52.845.52.845.195.5.195 1.14.195 1.14 0 .63-.194 1.13-.194 1.13-.194.498-.52.84-.52.84-.326.34-.75.52-.75.52-.426.178-.9.178-.9.178-.472 0-.897-.18-.897-.18-.43-.177-.76-.52-.76-.52-.33-.34-.52-.84-.52-.84-.2-.498-.2-1.128-.2-1.128zm0 0zm.893 0c0 .44.105.798.105.798.11.357.3.615.3.615.2.26.47.4.47.4.28.15.6.15.6.15.33 0 .6-.14.6-.14.28-.14.47-.4.47-.4.2-.25.3-.61.3-.61.11-.35.11-.8.11-.8 0-.44-.1-.8-.1-.8-.1-.36-.3-.62-.3-.62-.19-.26-.46-.4-.46-.4-.27-.14-.6-.14-.6-.14-.32 0-.6.14-.6.14-.27.14-.46.41-.46.41-.19.26-.3.63-.3.63-.1.37-.1.81-.1.81zm4.317 2.542zm.862-5.105h.714l.07.735h.03c.33-.367.73-.614.73-.614.39-.247.85-.247.85-.247.58 0 .92.25.92.25.33.26.48.72.48.72.4-.44.8-.71.8-.71.4-.27.88-.27.88-.27.79 0 1.17.5 1.17.5.38.5.38 1.49.38 1.49V758h-.86v-3.12c0-.724-.23-1.045-.23-1.045-.23-.32-.72-.32-.72-.32-.58 0-1.28.788-1.28.788V758h-.87v-3.12c0-.724-.23-1.045-.23-1.045-.24-.32-.73-.32-.73-.32-.58 0-1.28.788-1.28.788V758H833v-5.105zM840.86 758zm1.724.43v1.723h-.86v-7.258h.713l.074.588h.04c.35-.294.76-.504.76-.504.42-.21.87-.21.87-.21.5 0 .88.18.88.18.38.18.63.52.63.52.26.34.39.82.39.82.13.47.13 1.07.13 1.07 0 .65-.17 1.16-.17 1.16-.18.51-.48.86-.48.86-.3.35-.7.54-.7.54-.4.18-.84.18-.84.18-.36 0-.71-.16-.71-.16-.35-.16-.71-.43-.71-.43zm0 0zm0-1.564c.347.294.673.414.673.414.325.12.577.12.577.12.315 0 .583-.14.583-.14.268-.142.462-.4.462-.4.19-.257.3-.635.3-.635.11-.378.11-.85.11-.85 0-.42-.08-.768-.08-.768-.08-.346-.24-.593-.24-.593-.17-.247-.42-.384-.42-.384-.26-.136-.62-.136-.62-.136-.33 0-.66.178-.66.178-.33.18-.71.515-.71.515v2.678zm3.96 1.134zm.61-1.323c0-.84.75-1.287.75-1.287.752-.447 2.39-.625 2.39-.625 0-.242-.047-.473-.047-.473-.047-.23-.168-.41-.168-.41-.13-.178-.33-.29-.33-.29-.2-.11-.52-.11-.52-.11-.45 0-.84.17-.84.17-.39.167-.69.377-.69.377l-.35-.6c.35-.23.87-.45.87-.45.51-.22 1.13-.22 1.13-.22.93 0 1.35.57 1.35.57.42.57.42 1.53.42 1.53V758h-.71l-.08-.61h-.02c-.37.306-.8.52-.8.52-.43.216-.9.216-.9.216-.65 0-1.08-.378-1.08-.378-.42-.378-.42-1.07-.42-1.07zm0 0zm.85-.064c0 .442.258.63.258.63.257.19.635.19.635.19.368 0 .7-.173.7-.173.33-.174.697-.51.697-.51v-1.418c-.64.084-1.082.2-1.082.2-.44.115-.71.273-.71.273-.267.157-.382.362-.382.362-.116.205-.116.446-.116.446zm3.918 1.387zm.862-5.105h.714l.073.735h.04c.37-.367.77-.614.77-.614.41-.247.94-.247.94-.247.81 0 1.18.5 1.18.5.38.5.38 1.49.38 1.49V758h-.86v-3.12c0-.724-.23-1.045-.23-1.045-.23-.32-.73-.32-.73-.32-.4 0-.7.2-.7.2-.3.2-.69.588-.69.588V758h-.86v-5.105zm4.884 5.105zm.515 1.408l.19.047.2.026c.44 0 .718-.31.718-.31.28-.31.44-.78.44-.78l.12-.38-2.05-5.11h.9l1.04 2.83.25.71c.13.37.25.73.25.73h.05c.12-.34.22-.72.22-.72.11-.38.21-.71.21-.71l.91-2.82h.84l-1.92 5.53c-.13.38-.3.7-.3.7-.17.33-.4.56-.4.56-.23.24-.52.38-.52.38-.3.14-.69.14-.69.14-.18 0-.32-.02-.32-.02-.15-.02-.27-.08-.27-.08l.17-.68zm6.513-1.408zm.493-2.542c0-.62.18-1.12.18-1.12.18-.498.49-.844.49-.844.3-.347.7-.536.7-.536.4-.19.84-.19.84-.19.44 0 .76.158.76.158.32.158.66.43.66.43l-.05-.87v-1.965h.87V758h-.72l-.08-.6h-.03c-.31.295-.7.51-.7.51-.4.216-.85.216-.85.216-.97 0-1.54-.693-1.54-.693-.57-.693-.57-1.975-.57-1.975zm0 0zm.89-.01c0 .924.37 1.44.37 1.44.36.513 1.04.513 1.04.513.35 0 .67-.17.67-.17.31-.17.63-.53.63-.53v-2.67c-.33-.29-.63-.41-.63-.41-.3-.12-.62-.12-.62-.12-.31 0-.58.14-.58.14-.27.15-.47.4-.47.4-.2.26-.32.62-.32.62-.12.36-.12.8-.12.8zm4.44 2.552zm.48-2.542c0-.64.19-1.14.19-1.14.19-.5.52-.845.52-.845.32-.347.75-.525.75-.525.42-.18.9-.18.9-.18.47 0 .89.18.89.18.42.178.75.525.75.525.32.346.52.845.52.845.19.5.19 1.14.19 1.14 0 .63-.2 1.13-.2 1.13-.2.498-.52.84-.52.84-.33.34-.75.52-.75.52-.43.178-.9.178-.9.178-.47 0-.9-.18-.9-.18-.43-.177-.75-.52-.75-.52-.33-.34-.52-.84-.52-.84-.2-.498-.2-1.128-.2-1.128zm0 0zm.89 0c0 .44.1.798.1.798.1.357.3.615.3.615.19.26.46.4.46.4.27.15.6.15.6.15.32 0 .6-.14.6-.14.27-.14.46-.4.46-.4.19-.25.3-.61.3-.61.1-.35.1-.8.1-.8 0-.44-.11-.8-.11-.8-.1-.36-.3-.62-.3-.62-.19-.26-.47-.4-.47-.4-.27-.14-.6-.14-.6-.14-.33 0-.6.14-.6.14-.27.14-.47.41-.47.41-.2.26-.3.63-.3.63-.11.37-.11.81-.11.81zm4.32 2.542zm.48-2.542c0-.63.19-1.13.19-1.13.19-.498.51-.845.51-.845.32-.346.73-.53.73-.53.41-.184.85-.184.85-.184.48 0 .86.16.86.16.38.17.64.48.64.48.25.31.39.75.39.75.13.44.13.98.13.98 0 .28-.04.47-.04.47h-3.45c.05.83.51 1.31.51 1.31.45.48 1.19.48 1.19.48.37 0 .68-.11.68-.11.31-.11.59-.29.59-.29l.3.56c-.34.21-.75.37-.75.37-.41.16-.94.16-.94.16-.52 0-.96-.19-.96-.19-.45-.19-.78-.53-.78-.53-.33-.34-.52-.84-.52-.84-.19-.5-.19-1.13-.19-1.13zm0 0zm3.57-.39c0-.786-.33-1.2-.33-1.2-.33-.416-.93-.416-.93-.416-.28 0-.52.11-.52.11-.25.11-.45.315-.45.315-.2.205-.33.504-.33.504-.13.3-.18.69-.18.69h2.73zm1.16 2.932zm.72-1.155c.33.273.69.44.69.44.35.17.81.17.81.17.5 0 .75-.232.75-.232.25-.23.25-.567.25-.567 0-.2-.11-.347-.11-.347-.11-.15-.27-.26-.27-.26-.17-.11-.38-.2-.38-.2l-.42-.17c-.28-.1-.55-.22-.55-.22-.28-.12-.49-.3-.49-.3-.22-.18-.35-.41-.35-.41-.14-.23-.14-.56-.14-.56 0-.31.12-.58.12-.58.12-.27.35-.46.35-.46.22-.19.55-.31.55-.31.32-.11.73-.11.73-.11.48 0 .88.17.88.17.4.16.7.41.7.41l-.41.54c-.27-.2-.55-.33-.55-.33-.29-.13-.62-.13-.62-.13-.49 0-.71.22-.71.22-.23.22-.23.51-.23.51 0 .18.09.31.09.31.09.13.25.23.25.23.16.1.36.18.36.18l.42.16c.27.1.55.22.55.22.28.11.5.29.5.29.22.17.36.42.36.42.14.25.14.61.14.61 0 .31-.12.59-.12.59-.12.27-.36.48-.36.48-.24.21-.59.33-.59.33-.35.12-.81.12-.81.12-.55 0-1.04-.2-1.04-.2-.5-.2-.86-.51-.86-.51zm3.68 1.155zm.68-4.317c0-.305.18-.49.18-.49.18-.182.44-.182.44-.182.25 0 .43.19.43.19.18.19.18.49.18.49 0 .28-.19.47-.19.47-.19.19-.44.19-.44.19-.26 0-.45-.18-.45-.18-.19-.18-.19-.46-.19-.46zm0 0zm0 3.792c0-.305.18-.49.18-.49.18-.182.44-.182.44-.182.25 0 .43.183.43.183.18.184.18.49.18.49 0 .282-.19.466-.19.466-.19.184-.44.184-.44.184-.26 0-.45-.184-.45-.184-.19-.184-.19-.467-.19-.467zm4.05.525zm3.19-2.542v-1.943c0-.273.02-.646.02-.646.01-.38.03-.65.03-.65h-.04c-.13.24-.26.47-.26.47l-.29.47-1.57 2.29h2.1zm0 0zm1.73.693h-.92V758h-.82v-1.85h-3.01v-.566l2.86-4.286h.96v4.16h.91v.693zm.29 1.85zm1.86 0c.04-.94.16-1.73.16-1.73.12-.79.35-1.49.35-1.49.22-.71.57-1.37.57-1.37.35-.66.84-1.35.84-1.35h-3.34v-.74h4.32v.54c-.6.76-.97 1.45-.97 1.45-.38.69-.6 1.41-.6 1.41-.22.72-.32 1.53-.32 1.53-.1.8-.14 1.78-.14 1.78h-.89z"/></svg>