<svg xmlns="http://www.w3.org/2000/svg" stroke="#000" viewBox="0 0 1024 768" font-size="1"><path fill="#FFF" stroke="none" d="M0 0v768h1024V0z"/><path stroke="none" d="M307.42 14.102zm.217-10.04h2.325l.693 4.696c.092.785.2 1.578.2 1.578.108.793.2 1.594.2 1.594h.062c.154-.8.3-1.594.3-1.594.147-.793.3-1.578.3-1.578l1.08-4.697h1.924l1.08 4.7c.16.77.3 1.57.3 1.57l.3 1.61h.06c.11-.81.21-1.6.21-1.6.1-.78.21-1.57.21-1.57l.7-4.69h2.17l-1.78 10.04h-2.85l-.98-4.56c-.12-.58-.22-1.18-.22-1.18-.1-.59-.17-1.14-.17-1.14h-.06l-.19 1.15c-.1.6-.22 1.18-.22 1.18l-.94 4.56h-2.81zm12.305 10.04zm1-10.796h2.264v2.65l-.107 1.37c.43-.386 1-.717 1-.717.57-.34 1.35-.34 1.35-.34 1.24 0 1.81.81 1.81.81.56.81.56 2.26.56 2.26v4.75h-2.27V9.65c0-.832-.23-1.14-.23-1.14-.23-.31-.72-.31-.72-.31-.43 0-.74.195-.74.195-.31.192-.68.547-.68.547v5.16h-2.27V3.305zm7.793 10.796zm.724-2.126c0-1.2 1.01-1.88 1.01-1.88 1.01-.676 3.28-.907 3.28-.907-.03-.51-.31-.81-.31-.81-.28-.3-.9-.3-.9-.3-.49 0-.99.18-.99.18-.5.18-1.05.51-1.05.51l-.8-1.5c.73-.45 1.54-.73 1.54-.73.8-.28 1.71-.28 1.71-.28 1.48 0 2.25.84 2.25.84.78.84.78 2.61.78 2.61v4.38h-1.85l-.17-.79h-.05c-.49.43-1.04.7-1.04.7-.55.27-1.19.27-1.19.27-.53 0-.94-.18-.94-.18-.42-.18-.71-.5-.71-.5-.29-.32-.46-.73-.46-.73-.16-.42-.16-.91-.16-.91zm0 0zm2.15-.17c0 .37.24.548.24.548.23.177.64.177.64.177.4 0 .67-.17.67-.17.27-.16.58-.47.58-.47v-1.34c-1.22.17-1.68.5-1.68.5-.46.33-.46.77-.46.77zm5.34 2.296zm1.31-5.868h-1.05v-1.68l1.17-.09.26-2.034h1.88v2.033h1.83v1.77h-1.83V11.3c0 .646.26.93.26.93.27.285.71.285.71.285.18 0 .38-.046.38-.046.19-.05.34-.11.34-.11l.35 1.65c-.31.09-.73.18-.73.18-.42.09-.97.09-.97.09-.71 0-1.21-.22-1.21-.22-.5-.22-.82-.6-.82-.6-.31-.39-.46-.94-.46-.94-.15-.55-.15-1.21-.15-1.21V8.23zm7.79 5.868zm2.12-8.763c-.57 0-.94-.34-.94-.34-.37-.33-.37-.86-.37-.86 0-.53.37-.85.37-.85.37-.33.94-.33.94-.33.58 0 .94.32.94.32.36.32.36.84.36.84 0 .52-.36.85-.36.85-.37.33-.95.33-.95.33zm0 0zm-1.13 1.12h2.26v7.64h-2.26V6.46zm3.25 7.64zm1.34-2.3c.52.4 1 .6 1 .6.47.2.97.2.97.2.51 0 .74-.17.74-.17.23-.17.23-.48.23-.48 0-.19-.13-.33-.13-.33-.13-.15-.36-.27-.36-.27-.23-.13-.5-.23-.5-.23-.28-.1-.57-.23-.57-.23-.36-.14-.71-.33-.71-.33-.36-.19-.65-.46-.65-.46-.29-.27-.48-.63-.48-.63-.19-.37-.19-.84-.19-.84 0-.53.2-.97.2-.97.21-.45.59-.76.59-.76.38-.31.92-.48.92-.48.54-.18 1.2-.18 1.2-.18.88 0 1.54.3 1.54.3.66.3 1.16.67 1.16.67l-1 1.37c-.42-.31-.82-.48-.82-.48-.4-.17-.8-.17-.8-.17-.87 0-.87.6-.87.6 0 .18.13.31.13.31.13.13.33.24.33.24.21.1.48.2.48.2l.56.21c.37.13.73.31.73.31.36.17.66.44.66.44.3.26.49.64.49.64.19.37.19.9.19.9 0 .52-.2.97-.2.97-.2.44-.6.78-.6.78-.4.33-.98.52-.98.52-.59.19-1.36.19-1.36.19-.76 0-1.55-.29-1.55-.29-.79-.3-1.38-.77-1.38-.77zm8.68 2.29zm1.31-5.87h-1.05V6.55l1.17-.09.26-2.034h1.88V6.46h1.83v1.77h-1.83v3.07c0 .646.27.93.27.93.27.285.71.285.71.285.18 0 .37-.046.37-.046.19-.05.35-.11.35-.11l.35 1.65c-.31.09-.72.18-.72.18-.42.09-.97.09-.97.09-.71 0-1.21-.22-1.21-.22-.5-.22-.82-.6-.82-.6-.32-.39-.46-.94-.46-.94-.15-.55-.15-1.21-.15-1.21V8.23zm4.59 5.86zm1-10.8h2.26v2.65l-.11 1.37c.43-.39 1-.72 1-.72.57-.34 1.36-.34 1.36-.34 1.25 0 1.81.81 1.81.81.56.81.56 2.26.56 2.26v4.75h-2.27V9.65c0-.833-.23-1.14-.23-1.14-.22-.31-.72-.31-.72-.31-.43 0-.74.194-.74.194-.31.192-.68.547-.68.547v5.16h-2.26V3.31zM375 14.07zm.553-3.82c0-.92.31-1.67.31-1.67.31-.744.81-1.26.81-1.26.5-.52 1.144-.794 1.144-.794.644-.275 1.34-.275 1.34-.275.813 0 1.42.28 1.42.28.61.28 1.02.77 1.02.77.407.49.607 1.16.607 1.16.2.67.2 1.46.2 1.46 0 .31-.03.57-.03.57-.03.26-.064.4-.064.4h-4.572c.157.88.69 1.27.69 1.27.53.4 1.3.4 1.3.4.816 0 1.65-.51 1.65-.51l.75 1.37c-.586.4-1.302.63-1.302.63-.72.23-1.41.23-1.41.23-.818 0-1.526-.26-1.526-.26-.71-.27-1.23-.78-1.23-.78-.52-.51-.815-1.25-.815-1.25-.29-.74-.29-1.69-.29-1.69zm0 0zm4.93-.78c0-.66-.29-1.08-.29-1.08-.3-.42-.99-.42-.99-.42-.54 0-.95.364-.95.364-.407.36-.53 1.13-.53 1.13h2.756zm5.7 4.605zm1.31-5.868h-1.05V6.55l1.17-.09.26-2.034h1.88v2.03h1.833v1.77h-1.835v3.07c0 .645.27.93.27.93.27.284.72.284.72.284.19 0 .38-.046.38-.046.19-.05.35-.11.35-.11l.36 1.65c-.31.09-.73.18-.73.18-.41.093-.97.093-.97.093-.7 0-1.21-.214-1.21-.214-.5-.216-.81-.6-.81-.6-.31-.386-.46-.933-.46-.933-.15-.546-.15-1.208-.15-1.208v-3.09zm4.43 5.866zm.554-3.82c0-.95.305-1.7.305-1.7.31-.745.823-1.254.823-1.254.514-.51 1.192-.78 1.192-.78.68-.27 1.4-.27 1.4-.27.73 0 1.4.27 1.4.27.67.27 1.184.78 1.184.78.52.51.83 1.25.83 1.25.31.74.31 1.7.31 1.7 0 .95-.31 1.7-.31 1.7-.31.75-.82 1.25-.82 1.25-.51.51-1.18.78-1.18.78-.67.27-1.39.27-1.39.27-.72 0-1.4-.27-1.4-.27-.68-.27-1.19-.78-1.19-.78-.51-.51-.82-1.26-.82-1.26-.31-.75-.31-1.7-.31-1.7zm0 0zm2.323 0c0 1 .348 1.59.348 1.59.347.587 1.055.587 1.055.587.693 0 1.047-.582 1.047-.582.36-.584.36-1.585.36-1.585 0-1-.352-1.58-.352-1.58-.355-.59-1.05-.59-1.05-.59-.71 0-1.054.584-1.054.584-.345.584-.345 1.585-.345 1.585zm5.67 3.82zm1.31-5.865h-1.047V6.55l1.17-.09.26-2.033h1.88v2.03h1.835v1.77h-1.832v3.07c0 .646.27.93.27.93.27.285.713.285.713.285.18 0 .37-.046.37-.046.19-.05.34-.11.34-.11l.35 1.65c-.31.09-.73.18-.73.18-.42.092-.97.092-.97.092-.71 0-1.21-.216-1.21-.216-.5-.216-.82-.6-.82-.6-.32-.386-.46-.933-.46-.933-.15-.55-.15-1.21-.15-1.21V8.23zm4.405 5.87zm.72-2.13c0-1.2 1.013-1.88 1.013-1.88 1.015-.68 3.28-.91 3.28-.91-.03-.51-.31-.81-.31-.81-.276-.3-.892-.3-.892-.3-.49 0-.983.184-.983.184-.49.185-1.05.51-1.05.51l-.8-1.495c.74-.447 1.55-.725 1.55-.725.81-.275 1.72-.275 1.72-.275 1.48 0 2.258.84 2.258.84.78.84.78 2.61.78 2.61v4.37h-1.85l-.17-.785h-.04c-.49.434-1.04.7-1.04.7-.54.27-1.19.27-1.19.27-.52 0-.94-.175-.94-.175-.41-.18-.7-.494-.7-.494-.29-.314-.45-.73-.45-.73-.16-.414-.16-.906-.16-.906zm0 0zm2.15-.17c0 .37.24.545.24.545.24.18.64.18.64.18.4 0 .68-.17.68-.17.28-.17.586-.476.586-.476v-1.34c-1.22.17-1.68.493-1.68.493-.46.323-.46.77-.46.77zm5.346 2.293zm1-10.79h2.26v8.52c0 .36.13.5.13.5.14.14.27.14.27.14h.14l.15-.03.28 1.68c-.18.08-.47.13-.47.13-.28.06-.67.06-.67.06-.58 0-.98-.18-.98-.18-.4-.18-.64-.51-.64-.51-.24-.33-.35-.8-.35-.8-.11-.47-.11-1.05-.11-1.05V3.3zm6.61 10.8zm1.34-2.29c.53.4 1 .6 1 .6.48.2.97.2.97.2.51 0 .74-.17.74-.17.23-.17.23-.47.23-.47 0-.18-.13-.33-.13-.33-.13-.14-.35-.27-.35-.27-.22-.12-.5-.22-.5-.22-.28-.1-.57-.22-.57-.22-.35-.14-.71-.32-.71-.32-.35-.18-.65-.45-.65-.45-.29-.27-.47-.63-.47-.63-.18-.37-.18-.84-.18-.84 0-.53.21-.97.21-.97.21-.45.6-.76.6-.76.39-.3.93-.48.93-.48.54-.18 1.2-.18 1.2-.18.88 0 1.54.3 1.54.3.66.3 1.16.67 1.16.67l-1.01 1.36c-.41-.31-.81-.48-.81-.48-.4-.17-.8-.17-.8-.17-.86 0-.86.6-.86.6 0 .18.12.31.12.31.13.13.33.24.33.24.21.11.48.21.48.21l.56.21c.37.14.73.32.73.32.37.18.67.44.67.44.3.26.48.64.48.64.19.38.19.9.19.9 0 .52-.2.97-.2.97-.2.45-.6.78-.6.78-.4.33-.98.53-.98.53-.58.19-1.35.19-1.35.19-.75 0-1.55-.29-1.55-.29-.79-.29-1.38-.77-1.38-.77zm5.48 2.3zm2.12-8.76c-.57 0-.94-.33-.94-.33-.37-.33-.37-.85-.37-.85 0-.52.37-.84.37-.84.37-.32.94-.32.94-.32.59 0 .95.33.95.33.36.32.36.85.36.85 0 .53-.36.86-.36.86-.36.33-.94.33-.94.33zm0 0zm-1.12 1.12h2.26v7.64h-2.26V6.46zm3.25 7.64zm.58-1.22l3.21-4.65h-2.85V6.46h5.67v1.2l-3.2 4.667h3.31V14.1h-6.13v-1.22zm6.35 1.22zm.56-3.82c0-.92.31-1.67.31-1.67.31-.75.81-1.26.81-1.26.5-.51 1.15-.79 1.15-.79.65-.28 1.34-.28 1.34-.28.82 0 1.43.28 1.43.28.61.28 1.02.77 1.02.77.41.49.61 1.16.61 1.16.2.67.2 1.46.2 1.46 0 .31-.03.56-.03.56-.03.26-.06.4-.06.4h-4.57c.16.88.69 1.27.69 1.27.53.39 1.3.39 1.3.39.82 0 1.65-.51 1.65-.51l.75 1.37c-.58.4-1.3.64-1.3.64-.71.23-1.41.23-1.41.23-.81 0-1.52-.27-1.52-.27-.71-.27-1.23-.79-1.23-.79-.52-.51-.82-1.25-.82-1.25-.29-.74-.29-1.69-.29-1.69zm0 0zm4.93-.78c0-.66-.29-1.07-.29-1.07-.29-.42-.98-.42-.98-.42-.54 0-.95.36-.95.36-.41.37-.53 1.14-.53 1.14h2.76zm5.7 4.61zm.56-3.82c0-.95.31-1.7.31-1.7.31-.74.82-1.25.82-1.25.52-.5 1.2-.77 1.2-.77.68-.27 1.4-.27 1.4-.27.73 0 1.4.27 1.4.27.67.27 1.19.78 1.19.78.52.51.82 1.26.82 1.26.31.75.31 1.7.31 1.7 0 .96-.3 1.7-.3 1.7-.31.75-.83 1.26-.83 1.26-.51.51-1.18.78-1.18.78-.67.27-1.39.27-1.39.27-.72 0-1.4-.27-1.4-.27-.68-.27-1.19-.78-1.19-.78-.52-.51-.82-1.25-.82-1.25-.31-.75-.31-1.7-.31-1.7zm0 0zm2.33 0c0 1 .35 1.59.35 1.59.35.59 1.06.59 1.06.59.69 0 1.04-.59 1.04-.59.36-.58.36-1.58.36-1.58 0-1-.35-1.58-.35-1.58-.35-.58-1.04-.58-1.04-.58-.71 0-1.06.58-1.06.58-.34.59-.34 1.59-.34 1.59zm5.59 3.82zM465 5.06c-.43-.152-.78-.152-.78-.152-.417 0-.65.254-.65.254-.23.255-.23.84-.23.84v.46h1.37v1.77h-1.37v5.87h-2.262V8.235h-1.015v-1.68l1.014-.076v-.42c0-.6.146-1.14.146-1.14.15-.54.488-.94.488-.94.34-.4.88-.63.88-.63.54-.24 1.31-.24 1.31-.24.48 0 .87.1.87.1.4.09.66.18.66.18zm3.146 9.04zm.723-2.124c0-1.2 1.01-1.88 1.01-1.88 1.01-.675 3.28-.906 3.28-.906-.03-.51-.31-.81-.31-.81-.28-.3-.9-.3-.9-.3-.49 0-.99.184-.99.184-.5.185-1.05.508-1.05.508l-.8-1.493c.74-.45 1.55-.73 1.55-.73.8-.28 1.71-.28 1.71-.28 1.48 0 2.25.84 2.25.84.78.84.78 2.61.78 2.61v4.37h-1.85l-.17-.79h-.05c-.49.43-1.04.7-1.04.7-.55.27-1.19.27-1.19.27-.53 0-.94-.18-.94-.18-.42-.18-.71-.5-.71-.5-.3-.32-.46-.74-.46-.74-.16-.41-.16-.9-.16-.9zm0 0zm2.15-.17c0 .37.24.55.24.55.23.176.64.176.64.176.4 0 .68-.17.68-.17.27-.17.58-.48.58-.48v-1.34c-1.22.17-1.68.494-1.68.494-.46.323-.46.77-.46.77zm5.34 2.297zm1-10.796h2.26v8.517c0 .356.13.494.13.494.13.14.27.14.27.14h.13l.15-.032.28 1.68c-.19.08-.47.13-.47.13-.29.058-.67.058-.67.058-.59 0-.99-.184-.99-.184-.4-.184-.64-.515-.64-.515-.24-.33-.35-.8-.35-.8-.11-.47-.11-1.056-.11-1.056V3.31zm3.4 10.8zm1-10.796h2.26v8.52c0 .36.13.5.13.5.13.14.27.14.27.14h.13l.15-.03.27 1.68c-.19.08-.47.13-.47.13-.29.06-.67.06-.67.06-.59 0-.99-.18-.99-.18-.4-.18-.64-.51-.64-.51-.24-.33-.35-.8-.35-.8-.11-.47-.11-1.05-.11-1.05V3.31zm6.6 10.8zm1.31-5.87h-1.05V6.56l1.17-.09.26-2.035h1.88v2.03h1.83v1.77h-1.84v3.07c0 .646.27.93.27.93.27.285.72.285.72.285.18 0 .38-.047.38-.047.19-.05.34-.11.34-.11l.35 1.65c-.31.09-.73.18-.73.18-.41.09-.97.09-.97.09-.71 0-1.21-.214-1.21-.214-.5-.22-.81-.6-.81-.6-.32-.39-.46-.94-.46-.94-.15-.55-.15-1.21-.15-1.21V8.23zm4.59 5.87zm1-10.79h2.26v2.65l-.11 1.37c.43-.38 1-.71 1-.71.57-.33 1.35-.33 1.35-.33 1.25 0 1.81.82 1.81.82.56.82.56 2.27.56 2.27v4.74h-2.26V9.65c0-.834-.23-1.14-.23-1.14-.23-.31-.72-.31-.72-.31-.43 0-.74.193-.74.193-.31.192-.68.547-.68.547v5.16h-2.27V3.305zm7.8 10.8zm.55-3.82c0-.92.3-1.67.3-1.67.31-.75.81-1.26.81-1.26.5-.51 1.15-.79 1.15-.79.65-.27 1.34-.27 1.34-.27.82 0 1.43.28 1.43.28.6.28 1.01.77 1.01.77.41.49.61 1.16.61 1.16.2.67.2 1.46.2 1.46 0 .31-.03.56-.03.56-.03.26-.07.39-.07.39h-4.57c.15.88.68 1.27.68 1.27.53.4 1.3.4 1.3.4.82 0 1.65-.5 1.65-.5l.75 1.37c-.59.4-1.3.64-1.3.64-.72.23-1.41.23-1.41.23-.82 0-1.53-.27-1.53-.27-.71-.27-1.24-.78-1.24-.78-.52-.51-.81-1.25-.81-1.25-.29-.74-.29-1.7-.29-1.7zm0 0zm4.92-.78c0-.66-.29-1.08-.29-1.08-.29-.42-.98-.42-.98-.42-.54 0-.95.37-.95.37-.41.36-.53 1.13-.53 1.13h2.75zm5.7 4.61zm1.19-10.04h2.26v3.86h3.46V4.06h2.28v10.042h-2.28v-4.19h-3.46v4.19h-2.27V4.062zm9.19 10.04zm.72-2.13c0-1.2 1.02-1.88 1.02-1.88 1.02-.67 3.28-.9 3.28-.9-.03-.51-.31-.81-.31-.81-.28-.3-.9-.3-.9-.3-.49 0-.99.19-.99.19-.49.19-1.05.51-1.05.51l-.8-1.49c.74-.44 1.55-.72 1.55-.72.81-.27 1.71-.27 1.71-.27 1.48 0 2.26.84 2.26.84.78.84.78 2.61.78 2.61v4.37h-1.85l-.17-.78h-.05c-.5.43-1.04.7-1.04.7-.55.27-1.2.27-1.2.27-.53 0-.94-.17-.94-.17-.42-.18-.71-.49-.71-.49-.29-.31-.45-.73-.45-.73-.16-.41-.16-.9-.16-.9zm0 0zm2.16-.17c0 .37.24.55.24.55.24.18.64.18.64.18.4 0 .68-.17.68-.17.27-.17.58-.48.58-.48v-1.34c-1.22.17-1.68.49-1.68.49-.46.33-.46.77-.46.77zm5.35 2.3zm1.34-2.29c.52.4 1 .6 1 .6.48.2.97.2.97.2.51 0 .74-.17.74-.17.23-.17.23-.47.23-.47 0-.19-.13-.33-.13-.33-.13-.15-.35-.27-.35-.27-.22-.13-.5-.23-.5-.23-.28-.1-.57-.22-.57-.22-.36-.14-.71-.32-.71-.32-.35-.18-.65-.45-.65-.45-.3-.27-.48-.63-.48-.63-.19-.36-.19-.84-.19-.84 0-.52.21-.97.21-.97.21-.45.59-.75.59-.75.38-.3.92-.48.92-.48.54-.17 1.2-.17 1.2-.17.88 0 1.54.3 1.54.3.66.3 1.15.67 1.15.67l-1.01 1.34c-.42-.3-.82-.47-.82-.47-.4-.17-.8-.17-.8-.17-.86 0-.86.6-.86.6 0 .19.12.32.12.32.12.13.33.24.33.24.21.11.48.21.48.21l.57.21c.37.14.73.32.73.32.36.18.66.44.66.44.3.26.49.64.49.64.19.38.19.9.19.9 0 .53-.2.97-.2.97-.2.45-.6.78-.6.78-.4.33-.98.52-.98.52-.58.19-1.35.19-1.35.19-.76 0-1.55-.29-1.55-.29-.8-.29-1.38-.77-1.38-.77zm5.48 2.3zm1-10.8h2.2V9.5h.06l2.42-3.034h2.46l-2.68 3.15 2.88 4.496h-2.45l-1.73-2.97-.97 1.093v1.88h-2.2V3.31zm7.02 10.78zm.55-3.82c0-.92.31-1.67.31-1.67.31-.74.81-1.26.81-1.26.5-.51 1.14-.79 1.14-.79.64-.27 1.34-.27 1.34-.27.81 0 1.42.28 1.42.28.61.28 1.01.77 1.01.77.4.5.6 1.17.6 1.17.2.67.2 1.46.2 1.46 0 .31-.03.57-.03.57-.03.26-.06.39-.06.39h-4.58c.15.88.68 1.27.68 1.27.53.4 1.3.4 1.3.4.82 0 1.65-.51 1.65-.51l.75 1.37c-.59.4-1.3.64-1.3.64-.72.23-1.41.23-1.41.23-.82 0-1.53-.27-1.53-.27-.71-.27-1.23-.78-1.23-.78-.53-.51-.82-1.25-.82-1.25-.3-.74-.3-1.69-.3-1.69zm0 0zm4.93-.78c0-.66-.29-1.07-.29-1.07-.3-.42-.99-.42-.99-.42-.54 0-.95.36-.95.36-.41.36-.53 1.13-.53 1.13h2.75zm2.49 4.61zm1-10.79h2.26v8.52c0 .36.13.49.13.49.13.14.27.14.27.14h.13l.14-.03.27 1.68c-.19.08-.47.13-.47.13-.29.06-.67.06-.67.06-.59 0-.99-.18-.99-.18-.4-.18-.64-.51-.64-.51-.24-.33-.35-.8-.35-.8-.11-.47-.11-1.05-.11-1.05V3.31zm3.4 10.8zm1-10.79h2.26v8.52c0 .36.13.49.13.49.13.14.27.14.27.14h.13l.15-.03.28 1.68c-.19.08-.47.13-.47.13-.29.06-.67.06-.67.06-.59 0-.99-.18-.99-.18-.4-.18-.64-.51-.64-.51-.24-.33-.35-.8-.35-.8-.11-.47-.11-1.05-.11-1.05V3.31zm6.61 10.8zm3.26.6v2.23h-2.27V6.46h1.85l.15.756h.06c.45-.4 1.01-.67 1.01-.67.56-.27 1.16-.27 1.16-.27.69 0 1.24.277 1.24.277.55.278.94.786.94.786.38.51.59 1.23.59 1.23.21.72.21 1.6.21 1.6 0 .99-.27 1.75-.27 1.75-.27.77-.73 1.3-.73 1.3-.46.54-1.03.81-1.03.81-.58.28-1.2.28-1.2.28-.49 0-.96-.21-.96-.21-.46-.21-.86-.59-.86-.59zm0 0zm0-2.76c.31.28.61.39.61.39.31.1.6.1.6.1.58 0 1-.53 1-.53.41-.53.41-1.72.41-1.72 0-2.07-1.33-2.07-1.33-2.07-.67 0-1.31.69-1.31.69v3.12zm5.56 2.16zm1-7.64h1.85l.15 1.34h.06c.41-.79 1-1.15 1-1.15.58-.37 1.17-.37 1.17-.37.32 0 .53.04.53.04.2.04.37.12.37.12l-.37 1.96c-.22-.06-.4-.09-.4-.09-.19-.03-.43-.03-.43-.03-.44 0-.91.31-.91.31-.47.31-.78 1.1-.78 1.1v4.43h-2.26v-7.7zm4.97 7.64zm.55-3.82c0-.96.31-1.7.31-1.7.31-.75.82-1.26.82-1.26.51-.51 1.19-.78 1.19-.78.67-.27 1.4-.27 1.4-.27.72 0 1.39.27 1.39.27.67.27 1.18.78 1.18.78.52.51.82 1.26.82 1.26.31.74.31 1.7.31 1.7 0 .95-.31 1.7-.31 1.7-.31.74-.82 1.25-.82 1.25-.52.5-1.19.77-1.19.77-.67.27-1.39.27-1.39.27-.72 0-1.4-.27-1.4-.27-.68-.27-1.19-.78-1.19-.78-.52-.51-.83-1.26-.83-1.26-.31-.75-.31-1.7-.31-1.7zm0 0zm2.32 0c0 1 .34 1.59.34 1.59.34.59 1.05.59 1.05.59.69 0 1.05-.58 1.05-.58.35-.59.35-1.59.35-1.59 0-1-.36-1.58-.36-1.58-.36-.58-1.05-.58-1.05-.58-.71 0-1.06.58-1.06.58-.35.58-.35 1.58-.35 1.58zm5.68 3.8zm1.01-7.64h2.26v7.59c0 .63-.13 1.19-.13 1.19-.14.55-.45.97-.45.97-.32.41-.84.66-.84.66-.53.24-1.31.24-1.31.24-.48 0-.8-.07-.8-.07-.32-.06-.55-.16-.55-.16l.4-1.66c.15.05.29.08.29.08.13.03.3.03.3.03.45 0 .62-.29.62-.29.17-.29.17-.94.17-.94V6.46zm0 0zm1.14-1.12c-.57 0-.94-.33-.94-.33-.37-.33-.37-.85-.37-.85 0-.52.37-.84.37-.84.37-.32.94-.32.94-.32.57 0 .94.33.94.33.37.32.37.85.37.85 0 .53-.37.86-.37.86-.37.33-.94.33-.94.33zm2.13 8.77zm.55-3.82c0-.93.31-1.67.31-1.67.31-.75.81-1.27.81-1.27.5-.52 1.15-.8 1.15-.8.65-.28 1.34-.28 1.34-.28.82 0 1.43.28 1.43.28.61.28 1.02.77 1.02.77.41.49.61 1.16.61 1.16.2.67.2 1.46.2 1.46 0 .3-.03.56-.03.56-.03.25-.06.39-.06.39h-4.58c.15.88.68 1.27.68 1.27.53.39 1.3.39 1.3.39.82 0 1.65-.51 1.65-.51l.76 1.37c-.59.4-1.3.63-1.3.63-.72.23-1.41.23-1.41.23-.82 0-1.53-.27-1.53-.27-.71-.27-1.23-.79-1.23-.79-.52-.52-.82-1.26-.82-1.26-.29-.74-.29-1.7-.29-1.7zm0 0zm4.93-.79c0-.66-.29-1.08-.29-1.08-.29-.42-.99-.42-.99-.42-.53 0-.94.36-.94.36-.41.36-.53 1.13-.53 1.13h2.76zm2.5 4.6zm.55-3.82c0-.96.32-1.7.32-1.7.33-.75.87-1.26.87-1.26.55-.51 1.27-.78 1.27-.78.73-.27 1.51-.27 1.51-.27.71 0 1.28.24 1.28.24.57.24.96.64.96.64L609 8.55c-.54-.445-1.06-.445-1.06-.445-.835 0-1.31.584-1.31.584-.48.58-.48 1.58-.48 1.58 0 1 .49 1.58.49 1.58.485.58 1.224.58 1.224.58.42 0 .758-.17.758-.17.34-.17.618-.38.618-.38l.91 1.43c-.56.49-1.236.72-1.236.72-.677.23-1.31.23-1.31.23-.8 0-1.484-.27-1.484-.27-.687-.27-1.196-.78-1.196-.78-.502-.51-.8-1.26-.8-1.26-.29-.75-.29-1.7-.29-1.7zm6.64 3.82zm1.31-5.87h-1.05v-1.7l1.17-.09.26-2.03h1.88v2.03h1.83v1.77h-1.83v3.07c0 .65.27.93.27.93.27.29.72.29.72.29.19 0 .38-.04.38-.04.19-.05.35-.11.35-.11l.35 1.65c-.31.09-.72.18-.72.18-.41.09-.97.09-.97.09-.71 0-1.21-.22-1.21-.22-.5-.22-.81-.6-.81-.6-.32-.39-.47-.94-.47-.94-.14-.55-.14-1.21-.14-1.21v-3.1zm4.59 5.87zm1.34-2.3c.52.4 1 .6 1 .6.48.2.97.2.97.2.51 0 .74-.17.74-.17.23-.17.23-.48.23-.48 0-.19-.13-.33-.13-.33-.13-.15-.36-.27-.36-.27-.22-.12-.5-.22-.5-.22-.28-.1-.57-.22-.57-.22-.35-.14-.71-.33-.71-.33-.35-.19-.64-.46-.64-.46-.3-.27-.48-.63-.48-.63-.19-.36-.19-.84-.19-.84 0-.52.21-.97.21-.97.21-.45.6-.75.6-.75.38-.31.92-.49.92-.49.54-.18 1.2-.18 1.2-.18.88 0 1.54.3 1.54.3.67.3 1.16.67 1.16.67l-1 1.37c-.42-.31-.82-.48-.82-.48-.4-.17-.8-.17-.8-.17-.86 0-.86.6-.86.6 0 .18.12.31.12.31.13.13.33.24.33.24.21.1.47.2.47.2l.56.2c.37.14.73.31.73.31.36.17.66.43.66.43.3.26.48.64.48.64.18.38.18.9.18.9 0 .53-.2.97-.2.97-.2.45-.6.78-.6.78-.4.33-.99.52-.99.52-.59.19-1.36.19-1.36.19-.76 0-1.55-.29-1.55-.29-.8-.29-1.38-.77-1.38-.77zm8.68 2.29zm1.17 1.11c.11.03.25.06.25.06.14.03.26.03.26.03.57 0 .88-.27.88-.27.31-.28.46-.72.46-.72l.11-.4-2.94-7.44h2.28l1.1 3.28c.17.52.31 1.06.31 1.06.14.54.29 1.11.29 1.11h.06l.25-1.09c.13-.55.27-1.09.27-1.09l.92-3.28h2.17l-2.65 7.72c-.28.72-.58 1.27-.58 1.27-.3.54-.69.91-.69.91-.4.36-.9.55-.9.55-.5.18-1.18.18-1.18.18-.36 0-.6-.04-.6-.04-.25-.04-.48-.12-.48-.12l.4-1.72zm6.73-1.11zm.56-3.82c0-.95.31-1.7.31-1.7.31-.75.82-1.25.82-1.25.51-.51 1.19-.77 1.19-.77.68-.27 1.4-.27 1.4-.27.72 0 1.39.27 1.39.27.67.27 1.18.77 1.18.77.52.51.82 1.26.82 1.26.31.74.31 1.7.31 1.7 0 .95-.31 1.7-.31 1.7-.31.75-.83 1.25-.83 1.25-.52.5-1.19.77-1.19.77-.67.27-1.4.27-1.4.27-.72 0-1.4-.27-1.4-.27-.68-.27-1.19-.78-1.19-.78-.52-.51-.83-1.26-.83-1.26-.31-.75-.31-1.7-.31-1.7zm0 0zm2.32 0c0 1 .35 1.59.35 1.59.34.59 1.05.59 1.05.59.7 0 1.05-.59 1.05-.59.36-.58.36-1.58.36-1.58 0-1-.36-1.59-.36-1.59-.36-.59-1.05-.59-1.05-.59-.71 0-1.06.58-1.06.58-.35.59-.35 1.59-.35 1.59zm5.67 3.82zm.92-7.64H646v4.45c0 .83.23 1.14.23 1.14.235.31.728.31.728.31.43 0 .724-.2.724-.2.29-.2.63-.64.63-.64V6.45h2.263v7.65h-1.85l-.17-1.063h-.043c-.49.584-1.054.915-1.054.915-.56.33-1.346.33-1.346.33-1.246 0-1.81-.815-1.81-.815-.56-.816-.56-2.264-.56-2.264v-4.74zm11.03 7.64zm.37-7.64h2.24l.74 3.55c.1.57.17 1.13.17 1.13.08.55.17 1.14.17 1.14h.06c.11-.59.21-1.16.21-1.16.1-.57.24-1.11.24-1.11l.85-3.54h1.95l.86 3.54c.13.57.24 1.12.24 1.12l.23 1.14h.06c.11-.59.18-1.14.18-1.14.07-.55.18-1.12.18-1.12l.72-3.54h2.09l-1.84 7.64h-2.64l-.69-3.05c-.13-.54-.22-1.08-.22-1.08l-.2-1.15h-.06c-.11.62-.19 1.16-.19 1.16-.09.54-.19 1.08-.19 1.08l-.68 3.05h-2.59zm11.46 7.63zm.56-3.82c0-.95.31-1.7.31-1.7.31-.75.82-1.25.82-1.25.52-.51 1.19-.77 1.19-.77.68-.27 1.4-.27 1.4-.27.72 0 1.39.27 1.39.27.67.27 1.19.77 1.19.77.52.51.82 1.26.82 1.26.31.74.31 1.7.31 1.7 0 .95-.31 1.7-.31 1.7-.31.75-.82 1.25-.82 1.25-.52.5-1.19.77-1.19.77-.67.27-1.39.27-1.39.27-.72 0-1.4-.27-1.4-.27-.68-.27-1.2-.78-1.2-.78-.51-.51-.82-1.26-.82-1.26-.31-.75-.31-1.7-.31-1.7zm0 0zm2.32 0c0 1 .34 1.59.34 1.59.35.59 1.06.59 1.06.59.69 0 1.05-.59 1.05-.59.36-.58.36-1.58.36-1.58 0-1-.35-1.59-.35-1.59-.36-.59-1.05-.59-1.05-.59-.71 0-1.06.58-1.06.58-.35.59-.35 1.59-.35 1.59zm5.67 3.82zm1-7.64H678l.15 1.34h.06c.416-.78 1-1.15 1-1.15.584-.37 1.17-.37 1.17-.37.32 0 .53.04.53.04.21.04.377.12.377.12l-.37 1.95c-.215-.06-.4-.09-.4-.09-.184-.03-.43-.03-.43-.03-.43 0-.9.31-.9.31-.47.3-.78 1.09-.78 1.09v4.45h-2.265V6.46zm5.13 7.64zm1-10.79h2.2V9.5h.06L687 6.46h2.465l-2.68 3.14 2.88 4.496h-2.45l-1.724-2.974-.97 1.094v1.88h-2.2V3.304zm10.63 10.8zm.55-3.82c0-.95.31-1.7.31-1.7.3-.75.82-1.26.82-1.26.52-.51 1.2-.78 1.2-.78.68-.27 1.4-.27 1.4-.27.73 0 1.4.27 1.4.27.67.27 1.19.78 1.19.78.52.51.82 1.26.82 1.26.31.75.31 1.7.31 1.7 0 .95-.31 1.7-.31 1.7-.31.74-.83 1.25-.83 1.25-.52.5-1.19.77-1.19.77-.67.27-1.39.27-1.39.27-.73 0-1.4-.27-1.4-.27-.68-.27-1.2-.78-1.2-.78-.52-.51-.83-1.26-.83-1.26-.31-.75-.31-1.7-.31-1.7zm0 0zm2.32 0c0 1 .35 1.59.35 1.59.35.58 1.06.58 1.06.58.7 0 1.05-.59 1.05-.59.36-.58.36-1.59.36-1.59 0-1-.36-1.59-.36-1.59-.36-.58-1.05-.58-1.05-.58-.71 0-1.05.59-1.05.59-.34.59-.34 1.59-.34 1.59zm5.67 3.82zm1-7.64h1.85l.16.97h.06c.49-.46 1.07-.81 1.07-.81.59-.35 1.37-.35 1.37-.35 1.25 0 1.81.82 1.81.82.56.82.56 2.26.56 2.26v4.75h-2.26V9.65c0-.834-.22-1.14-.22-1.14-.23-.31-.72-.31-.72-.31-.43 0-.74.193-.74.193-.31.192-.68.547-.68.547v5.16h-2.25V6.46zm7.81 7.64zm2.37-3.56c-.07-.52.04-.95.04-.95.12-.43.33-.8.33-.8.22-.37.49-.68.49-.68l.52-.59c.25-.29.41-.56.41-.56.16-.27.16-.56.16-.56 0-.48-.28-.72-.28-.72-.28-.25-.75-.25-.75-.25-.43 0-.76.2-.76.2-.33.2-.64.51-.64.51L710.96 5c.526-.63 1.235-1.017 1.235-1.017.7-.384 1.57-.384 1.57-.384.64 0 1.21.15 1.21.15.56.15.97.47.97.47.4.32.64.82.64.82.23.5.23 1.18.23 1.18 0 .47-.17.85-.17.85-.17.37-.43.7-.43.7-.25.32-.54.62-.54.62-.28.3-.52.62-.52.62-.24.32-.38.68-.38.68-.14.36-.09.82-.09.82h-1.99zm0 0zm-.37 2.33c0-.62.39-1.03.39-1.03.39-.41.97-.41.97-.41.59 0 .98.41.98.41.39.41.39 1.02.39 1.02 0 .6-.39 1.01-.39 1.01-.39.41-.98.41-.98.41-.59 0-.97-.41-.97-.41-.39-.41-.39-1.01-.39-1.01z"/><path fill="none" stroke="#D3D3D3" stroke-miterlimit="10" d="M45.137 738h931.07M45.137 597.4h931.07M45.137 456.8h931.07M45.137 316.2h931.07M45.137 175.6h931.07M45.137 35h931.07" stroke-dasharray="5 5"/><g fill="#5C3566" stroke-opacity="0" stroke-width="0" stroke-miterlimit="10" stroke-linejoin="bevel"><defs><clipPath id="a"><path d="M45.137 35v703h931.07V35z"/></clipPath></defs><g clip-path="url(#a)"><path stroke="none" d="M60.137 738V213.562h202.767V738z"/></g></g><g fill-opacity="0" stroke-miterlimit="10"><defs><clipPath id="b"><path d="M45.137 35v703h931.07V35z"/></clipPath></defs><g clip-path="url(#b)"><path fill="none" d="M60.137 738V213.562h202.767V738z"/></g></g><g fill="#5C3566" stroke-opacity="0" stroke-width="0" stroke-miterlimit="10" stroke-linejoin="bevel"><defs><clipPath id="c"><path d="M45.137 35v703h931.07V35z"/></clipPath></defs><g clip-path="url(#c)"><path stroke="none" d="M292.904 738V130.608H495.67V738z"/></g></g><g fill-opacity="0" stroke-miterlimit="10"><defs><clipPath id="d"><path d="M45.137 35v703h931.07V35z"/></clipPath></defs><g clip-path="url(#d)"><path fill="none" d="M292.904 738V130.608H495.67V738z"/></g></g><g fill="#5C3566" stroke-opacity="0" stroke-width="0" stroke-miterlimit="10" stroke-linejoin="bevel"><defs><clipPath id="e"><path d="M45.137 35v703h931.07V35z"/></clipPath></defs><g clip-path="url(#e)"><path stroke="none" d="M525.67 738V320.418h202.77V738z"/></g></g><g fill-opacity="0" stroke-miterlimit="10"><defs><clipPath id="f"><path d="M45.137 35v703h931.07V35z"/></clipPath></defs><g clip-path="url(#f)"><path fill="none" d="M525.67 738V320.418h202.77V738z"/></g></g><g fill="#5C3566" stroke-opacity="0" stroke-width="0" stroke-miterlimit="10" stroke-linejoin="bevel"><defs><clipPath id="g"><path d="M45.137 35v703h931.07V35z"/></clipPath></defs><g clip-path="url(#g)"><path stroke="none" d="M758.44 738V601.618h202.766V738z"/></g></g><g fill-opacity="0" stroke-miterlimit="10"><defs><clipPath id="h"><path d="M45.137 35v703h931.07V35z"/></clipPath></defs><g clip-path="url(#h)"><path fill="none" d="M758.44 738V601.618h202.766V738z"/></g></g><path fill="none" stroke-miterlimit="10" d="M45.137 738V35" stroke-linecap="square"/><path fill="none" stroke-miterlimit="10" d="M45.137 738h2m-2-70.3h2m-2-70.3h2m-2-70.3h2m-2-70.3h2m-2-70.3h2m-2-70.3h2m-2-70.3h2m-2-70.3h2m-2-70.3h2m-2-70.3h2m-2 703h5m-5-140.6h5m-5-140.6h5m-5-140.6h5m-5-140.6h5m-5-140.6h5"/><path stroke="none" d="M30.84 741.445zm2.616.126c-1.02 0-1.586-.9-1.586-.9-.567-.9-.567-2.59-.567-2.59 0-1.69.567-2.57.567-2.57.567-.88 1.586-.88 1.586-.88 1.008 0 1.575.88 1.575.88.57.89.57 2.58.57 2.58 0 1.69-.57 2.6-.57 2.6-.56.91-1.57.91-1.57.91zm0 0zm0-.69c.294 0 .53-.16.53-.16.237-.16.41-.5.41-.5.173-.34.268-.87.268-.87.095-.53.095-1.26.095-1.26-.01-.73-.1-1.26-.1-1.26-.1-.52-.27-.85-.27-.85-.18-.33-.41-.49-.41-.49-.24-.16-.53-.16-.53-.16-.3 0-.54.16-.54.16-.24.16-.42.49-.42.49-.18.33-.27.86-.27.86-.1.53-.1 1.26-.1 1.26 0 1.47.36 2.14.36 2.14.36.67.95.67.95.67zm-12.69-140.03zm.83-.71h1.534v-4.94h-1.218v-.55c.462-.08.803-.2.803-.2.342-.12.615-.29.615-.29h.662v5.99h1.386v.72h-3.78v-.71zm4.39.72zm2.617.13c-1.02 0-1.586-.9-1.586-.9-.567-.9-.567-2.59-.567-2.59 0-1.69.567-2.57.567-2.57.567-.88 1.586-.88 1.586-.88 1.008 0 1.576.88 1.576.88.56.89.56 2.58.56 2.58 0 1.69-.57 2.6-.57 2.6-.57.91-1.58.91-1.58.91zm0 0zm0-.69c.294 0 .53-.16.53-.16.237-.16.41-.5.41-.5.173-.34.268-.87.268-.87.1-.53.1-1.27.1-1.27 0-.74-.09-1.26-.09-1.26-.09-.53-.26-.86-.26-.86-.17-.33-.41-.48-.41-.48-.23-.16-.53-.16-.53-.16-.29 0-.53.16-.53.16-.24.16-.41.49-.41.49-.17.33-.27.86-.27.86-.09.53-.09 1.26-.09 1.26 0 1.47.36 2.14.36 2.14.37.67.95.67.95.67zm2.605.57zm2.616.13c-1.02 0-1.587-.9-1.587-.9-.567-.9-.567-2.59-.567-2.59 0-1.69.567-2.57.567-2.57.568-.88 1.586-.88 1.586-.88 1.01 0 1.576.89 1.576.89.56.88.56 2.57.56 2.57 0 1.69-.57 2.6-.57 2.6-.57.9-1.58.9-1.58.9zm0 0zm0-.69c.294 0 .53-.16.53-.16.236-.16.41-.5.41-.5.173-.34.268-.87.268-.87.094-.53.094-1.26.094-1.26 0-.73-.094-1.26-.094-1.26-.095-.52-.268-.85-.268-.85-.174-.33-.41-.48-.41-.48-.236-.16-.53-.16-.53-.16-.295 0-.536.16-.536.16-.242.15-.415.48-.415.48-.173.33-.268.86-.268.86-.095.53-.095 1.26-.095 1.26 0 1.47.363 2.14.363 2.14.362.67.95.67.95.67zm-13.51-140.04zm.42-.51c.758-.75 1.346-1.36 1.346-1.36.588-.61.987-1.13.987-1.13.4-.52.61-.95.61-.95.21-.43.21-.84.21-.84 0-.57-.316-.94-.316-.94-.31-.37-.95-.37-.95-.37-.42.01-.78.24-.78.24-.35.24-.65.57-.65.57l-.49-.49c.42-.46.9-.74.9-.74.48-.28 1.14-.28 1.14-.28.94 0 1.47.55 1.47.55.54.54.54 1.43.54 1.43 0 .47-.2.95-.2.95-.2.48-.56.99-.56.99-.36.51-.86 1.06-.86 1.06-.5.55-1.1 1.17-1.1 1.17l.57-.04c.3-.02.56-.02.56-.02h1.94v.75h-4.33v-.51zm4.8.52zm2.617.13c-1.01 0-1.58-.9-1.58-.9-.57-.91-.57-2.6-.57-2.6 0-1.69.57-2.57.57-2.57.57-.88 1.59-.88 1.59-.88 1.01 0 1.58.88 1.58.88.57.88.57 2.58.57 2.58 0 1.69-.56 2.6-.56 2.6-.57.9-1.57.9-1.57.9zm0 0zm0-.69c.3 0 .54-.16.54-.16.24-.16.41-.5.41-.5.18-.34.27-.87.27-.87.1-.53.1-1.27.1-1.27 0-.73-.09-1.26-.09-1.26-.09-.52-.27-.85-.27-.85-.17-.33-.41-.49-.41-.49-.23-.16-.53-.16-.53-.16-.29 0-.53.16-.53.16-.24.16-.41.49-.41.49-.17.33-.26.86-.26.86-.09.53-.09 1.26-.09 1.26 0 1.47.37 2.14.37 2.14.37.67.95.67.95.67zm2.61.57zm2.62.13c-1.02 0-1.58-.9-1.58-.9-.57-.9-.57-2.59-.57-2.59 0-1.69.57-2.57.57-2.57.57-.88 1.59-.88 1.59-.88 1.01 0 1.58.89 1.58.89.57.88.57 2.58.57 2.58 0 1.69-.57 2.6-.57 2.6-.56.91-1.57.91-1.57.91zm0 0zm0-.69c.3 0 .53-.16.53-.16.24-.16.41-.5.41-.5.18-.34.27-.87.27-.87.1-.53.1-1.26.1-1.26 0-.73-.09-1.26-.09-1.26-.09-.52-.26-.86-.26-.86-.17-.33-.41-.48-.41-.48-.23-.16-.53-.16-.53-.16-.29 0-.53.16-.53.16-.24.16-.41.49-.41.49-.17.33-.27.86-.27.86-.09.53-.09 1.26-.09 1.26 0 1.47.36 2.14.36 2.14.37.67.95.67.95.67zM20.21 319.65zm.717-1.386c.305.32.71.56.71.56.404.24 1.003.24 1.003.24.61 0 .996-.33.996-.33.39-.33.39-.9.39-.9 0-.29-.11-.54-.11-.54-.11-.25-.364-.424-.364-.424-.25-.18-.66-.27-.66-.27-.41-.09-1.01-.09-1.01-.09v-.66c.537 0 .9-.092.9-.092.362-.093.59-.26.59-.26.223-.17.32-.4.32-.4.092-.23.092-.494.092-.494 0-.49-.3-.78-.3-.78-.31-.283-.84-.283-.84-.283-.42 0-.77.19-.77.19-.35.19-.65.5-.65.5l-.46-.55c.39-.36.86-.6.86-.6.47-.24 1.067-.24 1.067-.24.44 0 .81.12.81.12.37.12.64.33.64.33.27.22.42.53.42.53.14.32.14.73.14.73 0 .61-.33 1-.33 1-.33.39-.88.6-.88.6v.04c.31.07.57.22.57.22.26.15.46.36.46.36.2.22.31.5.31.5.11.29.11.63.11.63 0 .44-.17.8-.17.8-.17.36-.47.61-.47.61-.3.25-.7.38-.7.38-.4.13-.86.13-.86.13-.4 0-.73-.08-.73-.08-.33-.08-.6-.21-.6-.21-.27-.13-.48-.3-.48-.3-.21-.17-.38-.36-.38-.36zm4.507 1.39zm2.62.126c-1.02 0-1.58-.9-1.58-.9-.56-.904-.56-2.595-.56-2.595 0-1.69.57-2.572.57-2.572.57-.88 1.59-.88 1.59-.88 1.01 0 1.58.88 1.58.88.567.884.567 2.576.567 2.576 0 1.69-.56 2.59-.56 2.59-.57.9-1.58.9-1.58.9zm0 0zm0-.69c.3 0 .53-.164.53-.164.24-.16.41-.5.41-.5.18-.34.27-.87.27-.87.1-.53.1-1.26.1-1.26 0-.73-.09-1.26-.09-1.26-.09-.52-.27-.85-.27-.85-.17-.33-.41-.49-.41-.49-.23-.16-.53-.16-.53-.16-.29 0-.53.16-.53.16-.24.155-.41.49-.41.49-.17.33-.265.85-.265.85-.1.524-.1 1.26-.1 1.26 0 1.47.36 2.137.36 2.137.36.67.95.67.95.67zm2.61.566zm2.62.13c-1.02 0-1.58-.9-1.58-.9-.56-.9-.56-2.59-.56-2.59 0-1.69.57-2.57.57-2.57.57-.88 1.59-.88 1.59-.88 1.01 0 1.576.88 1.576.88.57.883.57 2.575.57 2.575 0 1.69-.57 2.6-.57 2.6-.568.9-1.576.9-1.576.9zm0 0zm0-.69c.3 0 .53-.16.53-.16.24-.16.41-.5.41-.5.18-.34.27-.87.27-.87.1-.53.1-1.265.1-1.265 0-.73-.09-1.26-.09-1.26-.092-.52-.27-.85-.27-.85-.17-.33-.41-.49-.41-.49-.232-.16-.53-.16-.53-.16-.29 0-.532.16-.532.16-.24.16-.412.49-.412.49-.172.33-.27.86-.27.86-.09.53-.09 1.26-.09 1.26 0 1.47.36 2.14.36 2.14.36.67.95.67.95.67zM20.12 179.05zm3.193-2.54v-1.94c0-.274.01-.647.01-.647.016-.373.037-.646.037-.646h-.04c-.13.243-.265.474-.265.474-.137.24-.284.48-.284.48l-1.56 2.29h2.1zm0 0zm1.73.696h-.916v1.847h-.82v-1.85H20.29v-.57l2.87-4.286h.966v4.16h.914v.694zm.29 1.847zm2.618.126c-1.02 0-1.58-.9-1.58-.9-.57-.91-.57-2.6-.57-2.6 0-1.69.57-2.57.57-2.57.57-.88 1.59-.88 1.59-.88 1.01 0 1.58.88 1.58.88.57.88.57 2.57.57 2.57 0 1.69-.56 2.59-.56 2.59-.57.9-1.57.9-1.57.9zm0 0zm0-.69c.3 0 .53-.17.53-.17.24-.17.41-.51.41-.51.17-.34.27-.87.27-.87.09-.53.09-1.27.09-1.27 0-.74-.09-1.26-.09-1.26-.09-.53-.27-.86-.27-.86-.17-.33-.41-.49-.41-.49-.23-.16-.53-.16-.53-.16-.29 0-.53.16-.53.16-.24.16-.41.49-.41.49-.17.33-.26.85-.26.85-.09.52-.09 1.26-.09 1.26 0 1.47.36 2.13.36 2.13.36.67.95.67.95.67zm2.61.56zm2.62.12c-1.02 0-1.58-.9-1.58-.9-.57-.91-.57-2.6-.57-2.6 0-1.69.57-2.58.57-2.58.57-.88 1.59-.88 1.59-.88 1.01 0 1.58.88 1.58.88.57.88.57 2.57.57 2.57 0 1.69-.56 2.59-.56 2.59-.56.9-1.57.9-1.57.9zm0 0zm0-.69c.3 0 .53-.17.53-.17.24-.16.41-.5.41-.5.18-.34.27-.87.27-.87.1-.53.1-1.27.1-1.27 0-.74-.09-1.26-.09-1.26-.09-.53-.27-.86-.27-.86-.17-.33-.41-.49-.41-.49-.23-.16-.53-.16-.53-.16-.29 0-.53.16-.53.16-.24.15-.41.48-.41.48-.17.33-.27.85-.27.85-.09.53-.09 1.26-.09 1.26 0 1.47.36 2.14.36 2.14.36.67.95.67.95.67zM20.2 38.44zm.682-1.353c.294.31.7.54.7.54.403.23.99.23.99.23.306 0 .574-.11.574-.11.268-.11.467-.31.467-.31.2-.2.316-.48.316-.48.11-.29.11-.63.11-.63 0-.7-.39-1.08-.39-1.08-.39-.39-1.04-.39-1.04-.39-.35 0-.59.1-.59.1-.25.102-.55.3-.55.3l-.47-.29.22-3.226h3.35v.75h-2.59l-.18 1.98c.24-.12.48-.2.48-.2.24-.07.54-.07.54-.07.43 0 .81.13.81.13.38.13.66.39.66.39.29.26.45.65.45.65.16.4.16.94.16.94 0 .55-.19.97-.19.97-.18.42-.5.71-.5.71-.31.29-.72.44-.72.44-.4.15-.84.15-.84.15-.4 0-.73-.08-.73-.08-.33-.08-.6-.21-.6-.21-.27-.12-.49-.29-.49-.29-.22-.16-.39-.34-.39-.34zm4.538 1.36zm2.616.13c-1.02 0-1.586-.9-1.586-.9-.568-.91-.568-2.6-.568-2.6 0-1.69.568-2.577.568-2.577.567-.88 1.586-.88 1.586-.88 1.008 0 1.575.88 1.575.88.57.883.57 2.574.57 2.574 0 1.69-.57 2.595-.57 2.595-.56.9-1.57.9-1.57.9zm0 0zm0-.69c.294 0 .53-.17.53-.17.236-.16.41-.505.41-.505.173-.34.268-.87.268-.87.094-.53.094-1.266.094-1.266 0-.735-.094-1.26-.094-1.26-.095-.525-.268-.856-.268-.856-.173-.33-.41-.49-.41-.49-.236-.16-.53-.16-.53-.16-.294 0-.536.16-.536.16-.242.16-.415.49-.415.49-.173.33-.268.855-.268.855-.094.524-.094 1.26-.094 1.26 0 1.47.362 2.137.362 2.137.362.666.95.666.95.666zm2.605.56zm2.62.125c-1.02 0-1.58-.9-1.58-.9-.56-.9-.56-2.594-.56-2.594 0-1.69.57-2.574.57-2.574.57-.88 1.59-.88 1.59-.88 1.01 0 1.58.883 1.58.883.57.88.57 2.57.57 2.57 0 1.69-.56 2.595-.56 2.595-.57.904-1.58.904-1.58.904zm0 0zm0-.69c.3 0 .53-.16.53-.16.24-.164.41-.506.41-.506.18-.34.27-.87.27-.87.1-.53.1-1.265.1-1.265 0-.73-.09-1.26-.09-1.26-.09-.52-.27-.85-.27-.85-.17-.33-.41-.49-.41-.49-.23-.16-.53-.16-.53-.16-.29 0-.53.16-.53.16-.24.16-.41.49-.41.49-.17.33-.27.86-.27.86-.09.52-.09 1.26-.09 1.26 0 1.47.36 2.14.36 2.14.36.66.95.66.95.66z"/><path fill="none" stroke-miterlimit="10" d="M45.137 738h931.07" stroke-linecap="square"/><path stroke="none" d="M126.384 758zm.357-3.834l4.51-1.765v.75l-2.21.82-1.4.53v.04l1.41.53 2.22.82v.75l-4.5-1.76v-.69zm6.99 3.834zm.83-.714h1.54v-4.937h-1.22v-.56c.47-.09.81-.21.81-.21.34-.12.62-.29.62-.29h.66v5.99h1.39v.72h-3.78v-.72zm4.39.714zm.5 1.282c.45-.2.7-.526.7-.526.25-.325.25-.756.25-.756-.03.01-.1.01-.1.01-.25 0-.43-.152-.43-.152-.18-.152-.18-.446-.18-.446 0-.284.19-.447.19-.447.19-.162.45-.162.45-.162.34 0 .53.273.53.273.2.273.2.745.2.745 0 .69-.36 1.19-.36 1.19-.37.51-1.01.78-1.01.78zm2.12-1.282zm2.62.126c-1.02 0-1.58-.903-1.58-.903-.57-.904-.57-2.595-.57-2.595 0-1.69.57-2.573.57-2.573.57-.883 1.59-.883 1.59-.883 1.01 0 1.58.883 1.58.883.57.882.57 2.573.57 2.573 0 1.69-.56 2.595-.56 2.595-.57.903-1.57.903-1.57.903zm0 0zm0-.693c.3 0 .53-.163.53-.163.24-.163.41-.504.41-.504.18-.342.27-.872.27-.872.1-.53.1-1.266.1-1.266 0-.735-.09-1.26-.09-1.26-.09-.525-.27-.856-.27-.856-.17-.33-.41-.49-.41-.49-.23-.156-.53-.156-.53-.156-.29 0-.53.157-.53.157-.24.158-.42.49-.42.49-.17.33-.27.855-.27.855-.09.525-.09 1.26-.09 1.26 0 1.47.36 2.138.36 2.138.37.667.95.667.95.667zm2.61.567zm2.62.126c-1.02 0-1.58-.903-1.58-.903-.56-.904-.56-2.595-.56-2.595 0-1.69.57-2.573.57-2.573.57-.883 1.59-.883 1.59-.883 1.01 0 1.58.883 1.58.883.57.882.57 2.573.57 2.573 0 1.69-.56 2.595-.56 2.595-.56.903-1.57.903-1.57.903zm0 0zm0-.693c.3 0 .53-.163.53-.163.24-.163.41-.504.41-.504.18-.342.27-.872.27-.872.1-.53.1-1.266.1-1.266 0-.735-.09-1.26-.09-1.26-.09-.525-.27-.856-.27-.856-.17-.33-.41-.49-.41-.49-.23-.156-.53-.156-.53-.156-.29 0-.53.157-.53.157-.24.158-.42.49-.42.49-.17.33-.27.855-.27.855-.09.525-.09 1.26-.09 1.26 0 1.47.37 2.138.37 2.138.36.667.95.667.95.667zm2.61.567zm2.62.126c-1.02 0-1.59-.903-1.59-.903-.56-.904-.56-2.595-.56-2.595 0-1.69.57-2.573.57-2.573.57-.883 1.59-.883 1.59-.883 1.01 0 1.58.883 1.58.883.57.882.57 2.573.57 2.573 0 1.69-.56 2.595-.56 2.595-.57.903-1.57.903-1.57.903zm0 0zm0-.693c.29 0 .53-.163.53-.163.24-.163.41-.504.41-.504.17-.342.27-.872.27-.872.1-.53.1-1.266.1-1.266 0-.735-.09-1.26-.09-1.26-.09-.525-.27-.856-.27-.856-.17-.33-.41-.49-.41-.49-.24-.156-.53-.156-.53-.156-.29 0-.54.157-.54.157-.24.158-.41.49-.41.49-.17.33-.26.855-.26.855-.09.525-.09 1.26-.09 1.26 0 1.47.36 2.138.36 2.138.37.667.95.667.95.667zm4.73.567zm.95-6.89h.88v6.144h3.01V758h-3.89v-6.89zm3.89 6.89zm3.49.126c-.65 0-1.19-.252-1.19-.252-.54-.252-.93-.72-.93-.72-.39-.467-.6-1.134-.6-1.134-.21-.667-.21-1.497-.21-1.497 0-.83.22-1.486.22-1.486.22-.657.6-1.114.6-1.114.39-.456.93-.698.93-.698.54-.242 1.2-.242 1.2-.242.65 0 1.19.247 1.19.247.54.247.94.704.94.704.39.457.61 1.113.61 1.113.22.657.22 1.476.22 1.476 0 .83-.21 1.497-.21 1.497-.22.667-.61 1.135-.61 1.135-.39.467-.93.72-.93.72-.54.25-1.19.25-1.19.25zm0 0zm0-.767c.47 0 .84-.2.84-.2.38-.2.64-.58.64-.58.27-.38.42-.9.42-.9.15-.52.15-1.17.15-1.17 0-.64-.15-1.16-.15-1.16-.15-.52-.41-.87-.41-.87-.26-.36-.64-.56-.64-.56-.37-.19-.83-.19-.83-.19-.46 0-.83.19-.83.19-.37.19-.64.55-.64.55-.27.35-.42.87-.42.87-.15.51-.15 1.15-.15 1.15 0 .65.15 1.17.15 1.17.15.52.42.89.42.89.27.37.64.57.64.57.38.2.84.2.84.2zm3.49.64zm.55-3.45c0-.83.23-1.49.23-1.49.23-.66.64-1.13.64-1.13.41-.47.98-.71.98-.71.56-.25 1.22-.25 1.22-.25.63 0 1.1.26 1.1.26.47.25.78.59.78.59l-.49.55c-.28-.3-.61-.47-.61-.47-.33-.18-.77-.18-.77-.18-.49 0-.89.19-.89.19-.4.19-.68.55-.68.55-.28.36-.44.88-.44.88-.16.51-.16 1.15-.16 1.15 0 .65.16 1.17.16 1.17.16.52.43.89.43.89.27.37.67.57.67.57.39.2.89.2.89.2.51 0 .88-.2.88-.2.37-.2.71-.57.71-.57l.49.53c-.41.47-.92.73-.92.73-.52.26-1.18.26-1.18.26-.65 0-1.2-.24-1.2-.24-.55-.25-.95-.7-.95-.7-.4-.46-.63-1.13-.63-1.13-.23-.67-.23-1.51-.23-1.51zm5.45 3.44zm.69-4.32c0-.31.19-.49.19-.49.19-.19.45-.19.45-.19.25 0 .43.18.43.18.18.18.18.49.18.49 0 .28-.18.46-.18.46-.18.18-.44.18-.44.18-.26 0-.44-.19-.44-.19-.18-.19-.18-.47-.18-.47zm0 0zm0 3.79c0-.31.19-.49.19-.49.19-.18.45-.18.45-.18.25 0 .43.18.43.18.18.18.18.49.18.49 0 .28-.18.46-.18.46-.18.18-.44.18-.44.18-.26 0-.44-.19-.44-.19-.18-.19-.18-.47-.18-.47zm4.06.52zm.71-1.39c.3.31.71.55.71.55.4.24 1 .24 1 .24.61 0 1-.33 1-.33.39-.33.39-.9.39-.9 0-.29-.11-.54-.11-.54-.11-.25-.36-.43-.36-.43-.25-.18-.66-.28-.66-.28-.41-.09-1.01-.09-1.01-.09v-.67c.54 0 .9-.1.9-.1.36-.1.59-.26.59-.26.23-.17.32-.4.32-.4.1-.23.1-.5.1-.5 0-.49-.31-.78-.31-.78-.31-.29-.84-.29-.84-.29-.42 0-.77.19-.77.19-.35.19-.65.49-.65.49l-.46-.55c.39-.36.86-.6.86-.6.47-.24 1.07-.24 1.07-.24.44 0 .81.12.81.12.37.11.64.33.64.33.27.22.41.53.41.53.15.32.15.73.15.73 0 .61-.34 1-.34 1-.33.39-.88.6-.88.6v.04c.31.07.57.22.57.22.27.14.47.36.47.36.2.21.31.5.31.5.11.28.11.63.11.63 0 .44-.18.79-.18.79-.17.36-.47.6-.47.6-.3.25-.7.38-.7.38-.4.13-.86.13-.86.13-.4 0-.73-.08-.73-.08-.33-.08-.603-.21-.603-.21-.27-.13-.49-.3-.49-.3-.215-.17-.38-.36-.38-.36zm4.5 1.38zm1.86 0c.04-.95.17-1.74.17-1.74.13-.79.36-1.5.36-1.5.23-.71.58-1.37.58-1.37.35-.67.85-1.36.85-1.36h-3.34v-.75h4.32v.54c-.6.75-.97 1.45-.97 1.45-.37.69-.59 1.41-.59 1.41-.22.72-.32 1.52-.32 1.52-.1.8-.14 1.78-.14 1.78h-.9zm3.36 0zm.72-1.39c.31.31.71.56.71.56.41.24 1 .24 1 .24.61 0 1-.33 1-.33.39-.33.39-.9.39-.9 0-.29-.11-.54-.11-.54-.11-.25-.36-.43-.36-.43-.25-.18-.66-.28-.66-.28-.41-.1-1.01-.1-1.01-.1v-.67c.54 0 .9-.09.9-.09.37-.09.59-.26.59-.26.23-.17.32-.4.32-.4.1-.23.1-.49.1-.49 0-.5-.31-.78-.31-.78-.31-.28-.84-.28-.84-.28-.42 0-.77.19-.77.19-.35.19-.65.49-.65.49l-.46-.55c.39-.37.85-.61.85-.61.47-.24 1.07-.24 1.07-.24.44 0 .81.12.81.12.37.11.64.33.64.33.27.21.42.53.42.53.15.31.15.72.15.72 0 .61-.33 1-.33 1-.34.39-.89.6-.89.6v.04c.31.07.57.21.57.21.26.14.46.36.46.36.2.21.31.5.31.5.11.28.11.63.11.63 0 .44-.17.79-.17.79-.17.36-.47.6-.47.6-.3.25-.7.38-.7.38-.4.13-.86.13-.86.13-.4 0-.73-.08-.73-.08-.33-.08-.6-.21-.6-.21-.27-.13-.49-.3-.49-.3-.22-.17-.38-.36-.38-.36zM356.51 758zm.356-3.834l4.507-1.765v.75l-2.217.82-1.407.53v.04l1.4.53 2.21.82v.75l-4.51-1.76v-.69zm6.986 3.834zm.83-.714h1.533v-4.937h-1.218v-.56c.462-.09.803-.21.803-.21.342-.12.615-.29.615-.29h.662v5.99h1.386v.72h-3.78v-.72zm4.39.714zm2.616.126c-1.02 0-1.586-.903-1.586-.903-.567-.904-.567-2.595-.567-2.595 0-1.69.567-2.573.567-2.573.567-.883 1.586-.883 1.586-.883 1.008 0 1.575.883 1.575.883.568.882.568 2.573.568 2.573 0 1.69-.56 2.595-.56 2.595-.56.903-1.57.903-1.57.903zm0 0zm0-.693c.294 0 .53-.163.53-.163.237-.163.41-.504.41-.504.173-.342.268-.872.268-.872.094-.53.094-1.266.094-1.266 0-.735-.094-1.26-.094-1.26-.095-.525-.268-.856-.268-.856-.173-.33-.41-.49-.41-.49-.236-.156-.53-.156-.53-.156-.294 0-.536.157-.536.157-.242.158-.415.49-.415.49-.173.33-.268.855-.268.855-.1.525-.1 1.26-.1 1.26 0 1.47.36 2.138.36 2.138.36.667.95.667.95.667zm2.605.567zm.493 1.282c.442-.2.694-.526.694-.526.252-.325.252-.756.252-.756-.032.01-.105.01-.105.01-.252 0-.436-.152-.436-.152-.18-.152-.18-.446-.18-.446 0-.284.19-.447.19-.447.19-.162.45-.162.45-.162.34 0 .53.273.53.273.2.273.2.745.2.745 0 .69-.37 1.19-.37 1.19-.36.51-1.01.78-1.01.78zm2.122-1.282zm2.616.126c-1.02 0-1.586-.903-1.586-.903-.567-.904-.567-2.595-.567-2.595 0-1.69.57-2.573.57-2.573.57-.883 1.59-.883 1.59-.883 1.01 0 1.58.883 1.58.883.57.882.57 2.573.57 2.573 0 1.69-.56 2.595-.56 2.595-.56.903-1.57.903-1.57.903zm0 0zm0-.693c.294 0 .53-.163.53-.163.237-.163.41-.504.41-.504.173-.342.268-.872.268-.872.095-.53.095-1.266.095-1.266 0-.735-.095-1.26-.095-1.26-.095-.525-.268-.856-.268-.856-.173-.33-.41-.49-.41-.49-.236-.156-.53-.156-.53-.156-.294 0-.536.157-.536.157-.24.158-.415.49-.415.49-.173.33-.268.855-.268.855-.094.525-.094 1.26-.094 1.26 0 1.47.37 2.138.37 2.138.37.667.95.667.95.667zm2.605.567zm2.61.126c-1.02 0-1.59-.903-1.59-.903-.57-.904-.57-2.595-.57-2.595 0-1.69.56-2.573.56-2.573.57-.883 1.58-.883 1.58-.883 1.01 0 1.57.883 1.57.883.56.882.56 2.573.56 2.573 0 1.69-.57 2.595-.57 2.595-.57.903-1.58.903-1.58.903zm0 0zm0-.693c.29 0 .53-.163.53-.163.23-.163.41-.504.41-.504.17-.342.27-.872.27-.872.09-.53.09-1.266.09-1.266 0-.735-.1-1.26-.1-1.26-.1-.525-.27-.856-.27-.856-.18-.33-.41-.49-.41-.49-.24-.156-.53-.156-.53-.156-.3 0-.54.157-.54.157-.25.158-.42.49-.42.49-.17.33-.27.855-.27.855-.1.525-.1 1.26-.1 1.26 0 1.47.36 2.138.36 2.138.36.667.95.667.95.667zm2.6.567zm2.61.126c-1.02 0-1.59-.903-1.59-.903-.57-.904-.57-2.595-.57-2.595 0-1.69.56-2.573.56-2.573.56-.883 1.58-.883 1.58-.883 1.01 0 1.57.883 1.57.883.57.882.57 2.573.57 2.573 0 1.69-.57 2.595-.57 2.595-.57.903-1.58.903-1.58.903zm0 0zm0-.693c.29 0 .53-.163.53-.163.23-.163.41-.504.41-.504.17-.342.27-.872.27-.872.09-.53.09-1.266.09-1.266 0-.735-.1-1.26-.1-1.26-.1-.525-.27-.856-.27-.856-.18-.33-.41-.49-.41-.49-.24-.156-.53-.156-.53-.156-.3 0-.54.157-.54.157-.25.158-.42.49-.42.49-.17.33-.27.855-.27.855-.1.525-.1 1.26-.1 1.26 0 1.47.37 2.138.37 2.138.36.667.95.667.95.667zm4.72.567zm.94-6.89h.87v6.144h3.01V758h-3.89v-6.89zm3.89 6.89zm3.48.126c-.65 0-1.19-.252-1.19-.252-.55-.252-.93-.72-.93-.72-.39-.467-.61-1.134-.61-1.134-.22-.667-.22-1.497-.22-1.497 0-.83.21-1.486.21-1.486.21-.657.6-1.114.6-1.114.38-.456.93-.698.93-.698.54-.242 1.19-.242 1.19-.242.65 0 1.19.247 1.19.247.54.247.93.704.93.704.39.457.61 1.113.61 1.113.22.657.22 1.476.22 1.476 0 .83-.22 1.497-.22 1.497-.22.667-.61 1.135-.61 1.135-.4.467-.94.72-.94.72-.54.25-1.2.25-1.2.25zm0 0zm0-.767c.46 0 .83-.2.83-.2.37-.2.64-.58.64-.58.27-.38.41-.9.41-.9.15-.52.15-1.17.15-1.17 0-.64-.15-1.16-.15-1.16-.15-.52-.42-.87-.42-.87-.27-.36-.64-.56-.64-.56-.38-.19-.84-.19-.84-.19-.46 0-.84.19-.84.19-.38.19-.64.55-.64.55-.27.35-.42.87-.42.87-.15.51-.15 1.15-.15 1.15 0 .65.14 1.17.14 1.17.15.52.41.89.41.89.27.37.64.57.64.57.37.2.83.2.83.2zm3.49.64zm.54-3.45c0-.83.23-1.49.23-1.49.23-.66.64-1.13.64-1.13.41-.47.97-.71.97-.71.56-.25 1.22-.25 1.22-.25.63 0 1.1.26 1.1.26.47.25.78.59.78.59l-.5.55c-.27-.3-.6-.47-.6-.47-.33-.18-.77-.18-.77-.18-.49 0-.89.19-.89.19-.4.19-.69.55-.69.55-.28.36-.44.88-.44.88-.16.51-.16 1.15-.16 1.15 0 .65.15 1.17.15 1.17.15.52.42.89.42.89.27.37.66.57.66.57.39.2.89.2.89.2.5 0 .87-.2.87-.2.37-.2.71-.57.71-.57l.49.53c-.41.47-.92.73-.92.73-.52.26-1.18.26-1.18.26-.66 0-1.21-.24-1.21-.24-.55-.25-.96-.7-.96-.7-.4-.46-.63-1.13-.63-1.13-.22-.67-.22-1.51-.22-1.51zm5.45 3.44zm.68-4.32c0-.31.18-.49.18-.49.18-.19.44-.19.44-.19.25 0 .43.18.43.18.18.18.18.49.18.49 0 .28-.19.46-.19.46-.18.18-.44.18-.44.18-.26 0-.45-.19-.45-.19-.19-.19-.19-.47-.19-.47zm0 0zm0 3.79c0-.31.18-.49.18-.49.18-.18.44-.18.44-.18.25 0 .43.18.43.18.18.18.18.49.18.49 0 .28-.19.46-.19.46-.18.18-.44.18-.44.18-.26 0-.45-.19-.45-.19-.19-.19-.19-.47-.19-.47zm4.05.52zm3.19-2.55v-1.94c0-.27.02-.65.02-.65.01-.38.04-.65.04-.65h-.04c-.13.24-.27.47-.27.47l-.29.47-1.57 2.29h2.1zm0 0zm1.73.69h-.91V758h-.82v-1.85h-3.01v-.566l2.86-4.286h.96v4.16h.91v.693zm.29 1.85zm.71-1.39c.3.31.71.55.71.55.4.24 1 .24 1 .24.61 0 1-.33 1-.33.39-.33.39-.9.39-.9 0-.29-.11-.54-.11-.54-.11-.25-.37-.43-.37-.43-.25-.18-.66-.27-.66-.27-.41-.1-1.01-.1-1.01-.1v-.67c.53 0 .9-.1.9-.1.36-.09.59-.26.59-.26.23-.17.32-.4.32-.4.09-.23.09-.49.09-.49 0-.49-.31-.78-.31-.78-.31-.29-.85-.29-.85-.29-.42 0-.77.19-.77.19-.35.19-.66.49-.66.49l-.46-.55c.39-.37.85-.6.85-.6.47-.24 1.06-.24 1.06-.24.44 0 .81.11.81.11.37.11.64.33.64.33.27.21.41.53.41.53.15.31.15.72.15.72 0 .61-.34 1-.34 1-.34.39-.88.6-.88.6v.04c.31.07.57.22.57.22.26.14.46.35.46.35.2.21.31.5.31.5.11.28.11.63.11.63 0 .44-.18.8-.18.8-.17.36-.47.6-.47.6-.3.24-.7.38-.7.38-.4.13-.86.13-.86.13-.4 0-.73-.08-.73-.08-.33-.08-.61-.21-.61-.21-.28-.13-.49-.3-.49-.3-.22-.17-.39-.36-.39-.36zm4.5 1.38zm.42-.51c.75-.76 1.34-1.37 1.34-1.37.59-.61.99-1.13.99-1.13.4-.52.61-.96.61-.96.21-.44.21-.85.21-.85 0-.58-.32-.95-.32-.95-.31-.37-.95-.37-.95-.37-.42 0-.78.23-.78.23-.36.24-.65.58-.65.58l-.5-.5c.42-.46.89-.74.89-.74.47-.28 1.13-.28 1.13-.28.93 0 1.47.54 1.47.54.53.54.53 1.43.53 1.43 0 .47-.2.95-.2.95-.21.48-.57.99-.57.99-.36.51-.86 1.06-.86 1.06-.5.55-1.1 1.17-1.1 1.17l.57-.04c.29-.02.55-.02.55-.02h1.94v.75H428v-.51zm158.56.52zm.36-3.84l4.51-1.77v.75l-2.22.82-1.41.52v.04l1.4.52 2.21.82v.74l-4.5-1.76v-.7zm6.99 3.83zm.83-.72h1.53v-4.94h-1.21v-.56c.46-.08.8-.21.8-.21.34-.12.62-.29.62-.29h.66v5.99h1.38v.72h-3.78v-.72zm4.39.71zm2.61.12c-1.02 0-1.59-.9-1.59-.9-.57-.91-.57-2.6-.57-2.6 0-1.69.56-2.57.56-2.57.57-.88 1.59-.88 1.59-.88 1.01 0 1.58.88 1.58.88.57.88.57 2.57.57 2.57 0 1.69-.57 2.59-.57 2.59-.57.9-1.58.9-1.58.9zm0 0zm0-.69c.29 0 .53-.17.53-.17.23-.16.41-.51.41-.51.17-.34.26-.87.26-.87.09-.53.09-1.27.09-1.27 0-.74-.1-1.26-.1-1.26-.1-.53-.27-.86-.27-.86-.18-.33-.41-.49-.41-.49-.24-.16-.53-.16-.53-.16-.3 0-.54.16-.54.16-.24.16-.42.49-.42.49-.18.33-.27.86-.27.86-.1.53-.1 1.26-.1 1.26 0 1.47.36 2.14.36 2.14.36.67.95.67.95.67zm2.6.56zm2.62.12c-1.02 0-1.59-.9-1.59-.9-.57-.91-.57-2.6-.57-2.6 0-1.69.57-2.57.57-2.57.57-.89 1.58-.89 1.58-.89 1 0 1.57.88 1.57.88.57.88.57 2.57.57 2.57 0 1.69-.57 2.59-.57 2.59-.57.9-1.58.9-1.58.9zm0 0zm0-.69c.29 0 .53-.17.53-.17.24-.17.41-.51.41-.51.17-.34.27-.87.27-.87.09-.53.09-1.27.09-1.27 0-.73-.1-1.26-.1-1.26-.09-.52-.27-.86-.27-.86-.17-.33-.41-.49-.41-.49-.24-.16-.53-.16-.53-.16-.29 0-.54.16-.54.16-.24.16-.42.49-.42.49-.17.33-.27.85-.27.85-.09.52-.09 1.26-.09 1.26 0 1.47.36 2.14.36 2.14.36.67.95.67.95.67zm2.6.56zm.49 1.28c.44-.2.69-.53.69-.53.26-.33.26-.76.26-.76-.04.01-.11.01-.11.01-.25 0-.44-.15-.44-.15-.19-.15-.19-.45-.19-.45 0-.28.18-.45.18-.45.19-.16.45-.16.45-.16.33 0 .53.27.53.27.19.27.19.74.19.74 0 .68-.37 1.19-.37 1.19-.37.5-1.01.78-1.01.78zm2.12-1.28zm2.61.12c-1.02 0-1.58-.9-1.58-.9-.57-.91-.57-2.6-.57-2.6 0-1.69.56-2.58.56-2.58.56-.89 1.58-.89 1.58-.89 1.01 0 1.57.88 1.57.88.57.88.57 2.57.57 2.57 0 1.69-.57 2.6-.57 2.6-.56.9-1.57.9-1.57.9zm0 0zm0-.69c.3 0 .53-.16.53-.16.24-.17.41-.51.41-.51.18-.34.27-.87.27-.87.09-.53.09-1.27.09-1.27 0-.74-.09-1.26-.09-1.26-.1-.53-.27-.86-.27-.86-.18-.33-.41-.49-.41-.49-.24-.16-.53-.16-.53-.16-.3 0-.54.15-.54.15-.25.16-.42.49-.42.49-.17.33-.27.86-.27.86-.1.52-.1 1.26-.1 1.26 0 1.47.36 2.14.36 2.14.37.67.95.67.95.67zm2.61.57zm2.62.12c-1.02 0-1.59-.9-1.59-.9-.57-.9-.57-2.59-.57-2.59 0-1.69.57-2.58.57-2.58.57-.89 1.58-.89 1.58-.89 1.01 0 1.58.88 1.58.88.56.88.56 2.57.56 2.57 0 1.69-.57 2.59-.57 2.59-.56.9-1.57.9-1.57.9zm0 0zm0-.69c.29 0 .53-.16.53-.16.23-.17.41-.51.41-.51.17-.34.26-.87.26-.87.1-.53.1-1.27.1-1.27 0-.74-.1-1.26-.1-1.26-.1-.53-.27-.86-.27-.86-.18-.33-.41-.49-.41-.49-.24-.15-.53-.15-.53-.15-.3 0-.54.15-.54.15-.24.16-.42.49-.42.49-.17.33-.27.85-.27.85-.09.52-.09 1.26-.09 1.26 0 1.47.36 2.14.36 2.14.36.66.95.66.95.66zm2.6.57zm2.62.12c-1.02 0-1.59-.91-1.59-.91-.57-.91-.57-2.6-.57-2.6 0-1.69.56-2.57.56-2.57.56-.89 1.58-.89 1.58-.89 1.01 0 1.57.89 1.57.89.57.88.57 2.57.57 2.57 0 1.69-.57 2.6-.57 2.6-.57.9-1.57.9-1.57.9zm0 0zm0-.7c.29 0 .53-.16.53-.16.24-.16.41-.5.41-.5.17-.34.27-.87.27-.87.09-.53.09-1.27.09-1.27 0-.74-.1-1.26-.1-1.26-.1-.53-.27-.86-.27-.86-.18-.33-.41-.49-.41-.49-.24-.16-.53-.16-.53-.16-.3 0-.54.15-.54.15-.24.16-.42.49-.42.49-.18.33-.27.86-.27.86-.09.52-.09 1.26-.09 1.26 0 1.47.36 2.13.36 2.13.36.67.95.67.95.67zm4.73.57zm.95-6.89h.87v6.14h3.02v.75H631v-6.89zm3.89 6.89zm3.48.13c-.65 0-1.19-.25-1.19-.25-.54-.26-.93-.72-.93-.72-.39-.47-.61-1.14-.61-1.14-.22-.66-.22-1.49-.22-1.49 0-.83.21-1.49.21-1.49.21-.66.6-1.12.6-1.12.39-.46.93-.7.93-.7.54-.25 1.19-.25 1.19-.25.65 0 1.19.25 1.19.25.54.24.93.7.93.7.4.45.61 1.11.61 1.11.22.66.22 1.48.22 1.48 0 .83-.22 1.49-.22 1.49-.21.66-.61 1.13-.61 1.13-.39.47-.93.72-.93.72-.54.25-1.19.25-1.19.25zm0 0zm0-.77c.46 0 .83-.2.83-.2.37-.2.64-.58.64-.58.27-.37.41-.89.41-.89.15-.52.15-1.17.15-1.17 0-.64-.15-1.16-.15-1.16-.15-.52-.41-.87-.41-.87-.27-.36-.64-.55-.64-.55-.38-.19-.84-.19-.84-.19-.46 0-.84.19-.84.19-.38.19-.64.55-.64.55-.27.35-.42.87-.42.87-.15.51-.15 1.15-.15 1.15 0 .65.14 1.17.14 1.17.15.52.42.9.42.9.27.38.64.58.64.58.37.2.84.2.84.2zm3.49.64zm.54-3.45c0-.83.23-1.49.23-1.49.23-.66.64-1.13.64-1.13.41-.47.97-.71.97-.71.56-.25 1.23-.25 1.23-.25.63 0 1.1.26 1.1.26.47.25.78.59.78.59l-.49.55c-.27-.3-.6-.47-.6-.47-.33-.18-.77-.18-.77-.18-.5 0-.9.19-.9.19-.4.19-.68.55-.68.55-.29.37-.45.88-.45.88-.16.52-.16 1.16-.16 1.16 0 .65.15 1.17.15 1.17.15.52.42.89.42.89.27.37.67.57.67.57.4.2.89.2.89.2.5 0 .88-.2.88-.2.37-.2.71-.57.71-.57l.49.53c-.41.47-.92.74-.92.74-.51.26-1.17.26-1.17.26-.65 0-1.21-.24-1.21-.24-.55-.24-.95-.7-.95-.7-.41-.46-.63-1.13-.63-1.13-.23-.66-.23-1.5-.23-1.5zm5.45 3.44zm.68-4.32c0-.31.19-.49.19-.49.18-.18.45-.18.45-.18.25 0 .44.18.44.18.18.18.18.49.18.49 0 .28-.19.47-.19.47-.19.18-.44.18-.44.18-.26 0-.44-.18-.44-.18-.19-.18-.19-.47-.19-.47zm0 0zm0 3.79c0-.31.19-.49.19-.49.18-.18.45-.18.45-.18.25 0 .44.18.44.18.18.18.18.49.18.49 0 .28-.19.46-.19.46-.19.18-.44.18-.44.18-.26 0-.44-.18-.44-.18-.19-.19-.19-.47-.19-.47zm4.06.52zm.42-.52c.75-.75 1.34-1.36 1.34-1.36.59-.61.99-1.13.99-1.13.4-.52.61-.96.61-.96.21-.44.21-.85.21-.85 0-.58-.32-.95-.32-.95-.31-.37-.95-.37-.95-.37-.42 0-.77.24-.77.24-.36.23-.65.57-.65.57l-.5-.5c.42-.46.89-.74.89-.74.47-.28 1.13-.28 1.13-.28.94 0 1.47.54 1.47.54.54.54.54 1.44.54 1.44 0 .48-.21.95-.21.95-.21.48-.57.99-.57.99-.36.51-.86 1.06-.86 1.06-.5.55-1.1 1.17-1.1 1.17l.56-.04c.3-.02.56-.02.56-.02h1.95v.75H653v-.51zm4.8.52zm2.47-3.26c.32 0 .69-.21.69-.21.38-.21.71-.69.71-.69-.08-.99-.46-1.49-.46-1.49-.38-.51-1.02-.51-1.02-.51-.24 0-.46.11-.46.11-.21.1-.37.3-.37.3-.15.19-.24.46-.24.46-.09.28-.09.6-.09.6 0 .66.3 1.04.3 1.04.3.38.93.38.93.38zm0 0zm-1.45 2.13c.21.24.49.39.49.39.29.15.6.15.6.15.36 0 .67-.15.67-.15.32-.15.56-.49.56-.49.24-.34.39-.89.39-.89.15-.55.16-1.36.16-1.36-.32.4-.74.63-.74.63-.42.23-.84.23-.84.23-.87 0-1.39-.52-1.39-.52-.52-.52-.52-1.56-.52-1.56 0-.49.15-.88.15-.88.16-.4.43-.68.43-.68.27-.28.63-.44.63-.44.36-.16.76-.16.76-.16.49 0 .92.2.92.2.43.2.74.6.74.6.31.4.49 1.01.49 1.01.17.6.17 1.41.17 1.41 0 1.01-.21 1.72-.21 1.72-.21.71-.56 1.15-.56 1.15-.36.45-.82.65-.82.65-.45.21-.96.21-.96.21-.53 0-.94-.2-.94-.2-.4-.2-.68-.5-.68-.5zm4.2 1.13zm1.86 0c.04-.95.16-1.74.16-1.74.13-.79.35-1.5.35-1.5.22-.71.57-1.37.57-1.37.35-.67.85-1.36.85-1.36h-3.34v-.75h4.32v.54c-.6.76-.97 1.45-.97 1.45-.37.69-.59 1.41-.59 1.41-.22.72-.32 1.52-.32 1.52-.1.8-.14 1.78-.14 1.78h-.89zm157.13 0zm4.86-3.14l-4.5 1.76v-.75l2.22-.82 1.41-.52v-.04l-1.41-.53-2.22-.82v-.75l4.5 1.76v.69zm2.48 3.14zm.83-.72h1.54v-4.93h-1.22v-.56c.46-.08.8-.2.8-.2.34-.12.61-.29.61-.29h.66v5.99h1.38v.72h-3.78v-.72zm4.39.72zm2.62.12c-1.02 0-1.59-.91-1.59-.91-.57-.91-.57-2.6-.57-2.6 0-1.69.56-2.58.56-2.58.57-.88 1.59-.88 1.59-.88 1.01 0 1.57.89 1.57.89.56.88.56 2.57.56 2.57 0 1.69-.57 2.6-.57 2.6-.57.9-1.58.9-1.58.9zm0 0zm0-.7c.29 0 .53-.17.53-.17.24-.16.41-.51.41-.51.17-.34.27-.87.27-.87.09-.53.09-1.27.09-1.27 0-.74-.1-1.26-.1-1.26-.1-.53-.27-.86-.27-.86-.17-.33-.41-.49-.41-.49-.24-.16-.53-.16-.53-.16-.29 0-.54.15-.54.15-.24.16-.42.49-.42.49-.17.33-.27.852-.27.852-.09.525-.09 1.26-.09 1.26 0 1.47.36 2.14.36 2.14.36.665.95.665.95.665zm2.6.56zm2.62.12c-1.02 0-1.59-.9-1.59-.9-.56-.91-.56-2.6-.56-2.6 0-1.69.56-2.58.56-2.58.57-.88 1.59-.88 1.59-.88 1.01 0 1.57.88 1.57.88.57.89.57 2.58.57 2.58 0 1.69-.56 2.6-.56 2.6-.57.9-1.58.9-1.58.9zm0 0zm0-.69c.29 0 .53-.17.53-.17.24-.16.41-.51.41-.51.17-.34.27-.87.27-.87.09-.53.09-1.26.09-1.26 0-.74-.1-1.26-.1-1.26-.1-.53-.27-.86-.27-.86-.18-.33-.41-.49-.41-.49-.24-.16-.53-.16-.53-.16-.3 0-.54.154-.54.154-.24.16-.41.49-.41.49-.17.33-.27.86-.27.86-.09.53-.09 1.26-.09 1.26 0 1.47.36 2.14.36 2.14.36.67.95.67.95.67zm2.6.56zm.5 1.28c.44-.2.69-.53.69-.53.25-.32.25-.75.25-.75-.03.01-.1.01-.1.01-.25 0-.43-.15-.43-.15-.19-.15-.19-.45-.19-.45 0-.28.19-.44.19-.44.19-.16.45-.16.45-.16.34 0 .53.27.53.27.19.27.19.74.19.74 0 .69-.37 1.19-.37 1.19-.37.502-1.01.78-1.01.78zm2.12-1.28zm2.61.13c-1.02 0-1.59-.9-1.59-.9-.57-.91-.57-2.6-.57-2.6 0-1.69.57-2.58.57-2.58.57-.88 1.59-.88 1.59-.88 1.01 0 1.57.88 1.57.88.56.88.56 2.58.56 2.58 0 1.69-.57 2.59-.57 2.59-.57.9-1.57.9-1.57.9zm0 0zm0-.69c.29 0 .53-.16.53-.16.24-.17.41-.51.41-.51.17-.34.27-.87.27-.87.09-.53.09-1.27.09-1.27 0-.74-.1-1.26-.1-1.26-.09-.53-.27-.86-.27-.86-.17-.33-.41-.49-.41-.49-.24-.16-.53-.16-.53-.16-.29 0-.54.15-.54.15-.247.16-.42.49-.42.49-.17.33-.26.86-.26.86-.1.52-.1 1.26-.1 1.26 0 1.47.36 2.13.36 2.13.364.67.95.67.95.67zm2.6.57zm2.62.12c-1.02 0-1.59-.91-1.59-.91-.57-.9-.57-2.59-.57-2.59 0-1.69.57-2.57.57-2.57.56-.88 1.58-.88 1.58-.88 1.01 0 1.57.88 1.57.88.57.88.57 2.57.57 2.57 0 1.69-.57 2.6-.57 2.6-.57.9-1.58.9-1.58.9zm0 0zm0-.7c.29 0 .53-.16.53-.16.23-.16.41-.508.41-.508.17-.34.26-.87.26-.87.09-.53.09-1.26.09-1.26 0-.73-.1-1.26-.1-1.26-.1-.52-.27-.854-.27-.854-.18-.33-.41-.49-.41-.49-.24-.15-.53-.15-.53-.15-.3 0-.54.16-.54.16-.24.16-.42.49-.42.49-.17.33-.27.85-.27.85-.1.52-.1 1.26-.1 1.26 0 1.47.37 2.134.37 2.134.36.67.95.67.95.67zm2.6.57zm2.61.122c-1.02 0-1.59-.9-1.59-.9-.57-.9-.57-2.59-.57-2.59 0-1.69.57-2.57.57-2.57.56-.88 1.58-.88 1.58-.88 1.01 0 1.58.88 1.58.88.57.88.57 2.57.57 2.57 0 1.69-.56 2.59-.56 2.59-.57.91-1.58.91-1.58.91zm0 0zm0-.69c.29 0 .53-.16.53-.16.24-.16.41-.5.41-.5.17-.343.27-.873.27-.873.09-.53.09-1.27.09-1.27 0-.734-.1-1.26-.1-1.26-.1-.524-.27-.855-.27-.855-.18-.33-.41-.49-.41-.49-.24-.157-.53-.157-.53-.157-.3 0-.54.16-.54.16-.25.155-.42.49-.42.49-.17.33-.26.852-.26.852-.1.52-.1 1.26-.1 1.26 0 1.47.36 2.13.36 2.13.37.67.95.67.95.67zm4.73.57zm.95-6.89h.87v6.147h3.01v.76h-3.89V751zm3.88 6.89zm3.49.13c-.65 0-1.19-.253-1.19-.253-.55-.25-.93-.72-.93-.72-.39-.47-.61-1.13-.61-1.13-.22-.67-.22-1.5-.22-1.5 0-.83.21-1.49.21-1.49.21-.66.6-1.12.6-1.12.39-.46.93-.7.93-.7.54-.24 1.19-.24 1.19-.24.66 0 1.2.247 1.2.247.54.25.93.71.93.71.4.46.61 1.11.61 1.11.22.65.22 1.47.22 1.47 0 .83-.21 1.495-.21 1.495-.22.67-.61 1.14-.61 1.14-.39.467-.94.72-.94.72-.54.25-1.19.25-1.19.25zm0 0zm0-.77c.46 0 .83-.2.83-.2.37-.2.64-.57.64-.57.27-.37.41-.89.41-.89.15-.52.15-1.17.15-1.17 0-.64-.15-1.15-.15-1.15-.15-.51-.42-.87-.42-.87-.27-.36-.64-.55-.64-.55-.38-.19-.84-.19-.84-.19-.46 0-.84.19-.84.19-.38.193-.64.55-.64.55-.27.36-.42.87-.42.87-.15.52-.15 1.16-.15 1.16 0 .65.15 1.17.15 1.17.15.52.41.9.41.9.26.37.64.57.64.57.37.2.83.2.83.2zm3.48.64zm.55-3.44c0-.83.23-1.49.23-1.49.23-.66.64-1.12.64-1.12.41-.46.97-.71.97-.71.56-.244 1.23-.244 1.23-.244.63 0 1.1.26 1.1.26.47.26.77.59.77.59l-.49.56c-.27-.294-.6-.47-.6-.47-.33-.17-.77-.17-.77-.17-.5 0-.89.19-.89.19-.4.19-.68.56-.68.56-.29.37-.44.88-.44.88-.16.52-.16 1.16-.16 1.16 0 .65.15 1.17.15 1.17.15.52.42.89.42.89.27.37.67.57.67.57.39.2.89.2.89.2.5 0 .88-.2.88-.2.37-.2.71-.568.71-.568l.49.54c-.41.47-.93.74-.93.74-.52.26-1.18.26-1.18.26-.66 0-1.21-.24-1.21-.24-.55-.24-.96-.7-.96-.7-.4-.46-.63-1.12-.63-1.12-.23-.67-.23-1.51-.23-1.51zm5.45 3.45zm.68-4.32c0-.3.19-.49.19-.49.18-.18.44-.18.44-.18.25 0 .44.19.44.19.18.184.18.49.18.49 0 .28-.19.47-.19.47-.18.18-.43.18-.43.18-.26 0-.45-.186-.45-.186-.18-.19-.18-.47-.18-.47zm0 0zm0 3.8c0-.305.19-.49.19-.49.18-.18.44-.18.44-.18.25 0 .44.183.44.183.18.18.18.49.18.49 0 .28-.19.46-.19.46-.18.19-.43.19-.43.19-.26 0-.45-.18-.45-.18-.18-.18-.18-.466-.18-.466zm4.06.525zm2.47-3.25c.32 0 .69-.2.69-.2.37-.2.71-.69.71-.69-.09-.98-.46-1.49-.46-1.49-.38-.5-1.02-.5-1.02-.5-.24 0-.46.105-.46.105-.22.11-.37.3-.37.3-.16.2-.25.47-.25.47-.09.278-.09.6-.09.6 0 .66.3 1.04.3 1.04.31.38.94.38.94.38zm0 0zm-1.45 2.13c.21.24.49.39.49.39.29.15.6.15.6.15.36 0 .68-.15.68-.15.32-.15.56-.49.56-.49.24-.34.39-.89.39-.89.15-.55.16-1.36.16-1.36-.31.4-.73.63-.73.63-.42.23-.84.23-.84.23-.87 0-1.39-.513-1.39-.513-.51-.51-.51-1.55-.51-1.55 0-.48.16-.878.16-.878.16-.4.43-.68.43-.68.27-.284.63-.44.63-.44.36-.16.76-.16.76-.16.49 0 .92.2.92.2.425.2.735.6.735.6.31.4.48 1.01.48 1.01.17.6.17 1.41.17 1.41 0 1.01-.21 1.72-.21 1.72-.21.71-.57 1.155-.57 1.155-.357.45-.81.65-.81.65-.45.207-.96.207-.96.207-.53 0-.94-.2-.94-.2-.4-.2-.68-.5-.68-.5zm4.2 1.126zm1.86 0c.04-.95.16-1.735.16-1.735.13-.79.35-1.49.35-1.49.22-.71.57-1.37.57-1.37.35-.66.84-1.35.84-1.35h-3.34v-.75h4.32v.535c-.6.76-.97 1.45-.97 1.45-.37.69-.596 1.41-.596 1.41-.22.72-.32 1.53-.32 1.53-.1.804-.14 1.78-.14 1.78H895z"/></svg>