<svg xmlns="http://www.w3.org/2000/svg" stroke="#000" viewBox="0 0 1024 768" font-size="1"><path fill="#FFF" stroke="none" d="M0 0v768h1024V0z"/><path stroke="none" d="M353.075 14.102zm1.186-10.04h2.27V14.1h-2.26V4.062zm3.45 10.04zm5.32-9.04c-.43-.154-.78-.154-.78-.154-.41 0-.64.254-.64.254-.23.254-.23.84-.23.84v.46h1.37v1.772h-1.37v5.868h-2.27V8.234h-1.01v-1.68l1.02-.076v-.415c0-.6.15-1.14.15-1.14.15-.54.49-.94.49-.94.34-.4.88-.63.88-.63.54-.232 1.31-.232 1.31-.232.48 0 .87.1.87.1.4.09.66.19.66.19zm3.14 9.04zm1.17 1.108c.11.03.25.062.25.062.14.03.26.03.26.03.57 0 .88-.276.88-.276.31-.278.46-.724.46-.724l.11-.4-2.94-7.44h2.28l1.1 3.28c.17.525.31 1.064.31 1.064.14.54.3 1.11.3 1.11h.06l.26-1.087c.13-.55.27-1.09.27-1.09l.93-3.28h2.17l-2.64 7.71c-.27.72-.57 1.27-.57 1.27-.3.54-.69.91-.69.91-.4.36-.9.54-.9.54-.5.18-1.17.18-1.17.18-.35 0-.6-.04-.6-.04-.25-.04-.48-.12-.48-.12l.4-1.73zm6.73-1.108zm.56-3.82c0-.955.31-1.7.31-1.7.31-.748.83-1.257.83-1.257.52-.508 1.2-.777 1.2-.777.68-.27 1.4-.27 1.4-.27.73 0 1.4.27 1.4.27.67.27 1.19.777 1.19.777.52.51.83 1.256.83 1.256.31.75.31 1.71.31 1.71 0 .96-.31 1.7-.31 1.7-.3.75-.82 1.26-.82 1.26-.51.51-1.18.78-1.18.78-.67.27-1.39.27-1.39.27-.72 0-1.4-.27-1.4-.27-.68-.27-1.19-.77-1.19-.77-.51-.51-.82-1.25-.82-1.25-.31-.74-.31-1.7-.31-1.7zm0 0zm2.33 0c0 1 .35 1.586.35 1.586.35.586 1.06.586 1.06.586.7 0 1.05-.586 1.05-.586.36-.585.36-1.586.36-1.586 0-1-.35-1.586-.35-1.586-.35-.585-1.05-.585-1.05-.585-.71 0-1.05.59-1.05.59-.34.59-.34 1.59-.34 1.59zm5.67 3.82zm.93-7.64h2.27v4.452c0 .83.24 1.14.24 1.14.23.307.73.307.73.307.43 0 .73-.2.73-.2.3-.2.63-.64.63-.64V6.47h2.27v7.63h-1.85l-.17-1.063h-.04c-.49.584-1.05.915-1.05.915-.56.33-1.34.33-1.34.33-1.25 0-1.81-.815-1.81-.815-.56-.816-.56-2.264-.56-2.264v-4.74zm11.03 7.64zm.93-7.64h2.27v4.452c0 .83.23 1.14.23 1.14.23.307.73.307.73.307.43 0 .73-.2.73-.2.3-.2.64-.64.64-.64V6.47h2.27v7.63h-1.85l-.17-1.063h-.04c-.49.584-1.05.915-1.05.915-.56.33-1.34.33-1.34.33-1.25 0-1.81-.815-1.81-.815-.56-.816-.56-2.264-.56-2.264v-4.74zm7.83 7.64zm1.34-2.295c.53.4 1 .6 1 .6.48.2.97.2.97.2.51 0 .74-.17.74-.17.23-.168.23-.476.23-.476 0-.18-.13-.33-.13-.33-.13-.14-.35-.27-.35-.27-.22-.12-.5-.22-.5-.22-.27-.1-.57-.22-.57-.22-.35-.14-.71-.32-.71-.32-.35-.18-.64-.45-.64-.45-.29-.27-.48-.63-.48-.63-.18-.36-.18-.84-.18-.84 0-.52.21-.97.21-.97.21-.44.6-.75.6-.75.39-.3.93-.48.93-.48.54-.17 1.2-.17 1.2-.17.88 0 1.54.3 1.54.3.66.3 1.16.67 1.16.67l-1.02 1.36c-.42-.31-.82-.48-.82-.48-.4-.17-.8-.17-.8-.17-.86 0-.86.61-.86.61 0 .19.12.32.12.32.12.13.33.24.33.24.21.11.48.21.48.21l.56.21c.37.14.73.32.73.32.36.18.66.44.66.44.3.26.49.64.49.64.19.38.19.9.19.9 0 .52-.2.97-.2.97-.2.45-.6.78-.6.78-.4.33-.99.52-.99.52-.58.19-1.35.19-1.35.19-.75 0-1.54-.29-1.54-.29-.79-.29-1.38-.77-1.38-.77zm5.48 2.295zm.56-3.82c0-.924.31-1.67.31-1.67.31-.748.81-1.263.81-1.263.5-.52 1.15-.8 1.15-.8.65-.28 1.34-.28 1.34-.28.82 0 1.43.28 1.43.28.61.27 1.01.77 1.01.77.41.49.61 1.16.61 1.16.2.67.2 1.45.2 1.45 0 .31-.03.56-.03.56-.03.25-.06.39-.06.39h-4.58c.16.88.69 1.27.69 1.27.53.39 1.3.39 1.3.39.82 0 1.65-.51 1.65-.51l.76 1.37c-.58.4-1.3.63-1.3.63-.72.23-1.41.23-1.41.23-.82 0-1.52-.27-1.52-.27-.71-.27-1.23-.79-1.23-.79-.53-.52-.82-1.26-.82-1.26-.29-.74-.29-1.69-.29-1.69zm0 0zm4.93-.785c0-.662-.29-1.078-.29-1.078-.29-.42-.98-.42-.98-.42-.54 0-.94.36-.94.36-.4.36-.53 1.13-.53 1.13h2.76zm5.7 4.605zm.71-4.96c0-1.247.39-2.225.39-2.225.39-.978 1.06-1.655 1.06-1.655.67-.678 1.57-1.032 1.57-1.032.91-.354 1.92-.354 1.92-.354 1.06 0 1.84.4 1.84.4.78.4 1.27.91 1.27.91l-1.24 1.4c-.37-.354-.78-.554-.78-.554-.4-.2-1.05-.2-1.05-.2-.58 0-1.07.223-1.07.223-.48.223-.84.64-.84.64-.35.415-.54 1.015-.54 1.015-.19.6-.19 1.356-.19 1.356 0 1.555.7 2.41.7 2.41.7.854 2.12.854 2.12.854.31 0 .6-.077.6-.077.3-.077.48-.23.48-.23v-1.725h-1.67V8.45h3.67v4.62c-.54.508-1.41.862-1.41.862-.88.354-1.94.354-1.94.354-1.01 0-1.9-.33-1.9-.33-.88-.332-1.54-.98-1.54-.98-.66-.645-1.04-1.608-1.04-1.608-.37-.962-.37-2.225-.37-2.225zm9.12 4.96zm1.19-10.04h2.27v3.864h3.47V4.06h2.28v10.042h-2.28v-4.19h-3.47v4.19h-2.26V4.062zm9.2 10.04zm.71-4.96c0-1.247.39-2.225.39-2.225.39-.978 1.04-1.655 1.04-1.655.66-.678 1.53-1.032 1.53-1.032.87-.354 1.84-.354 1.84-.354.94 0 1.7.392 1.7.392.76.393 1.27.917 1.27.917l-1.24 1.4c-.38-.353-.78-.553-.78-.553-.39-.2-.91-.2-.91-.2-.52 0-.98.223-.98.223-.45.223-.79.64-.79.64-.34.415-.53 1.015-.53 1.015-.19.6-.19 1.356-.19 1.356 0 1.555.67 2.41.67 2.41.66.854 1.77.854 1.77.854.62 0 1.08-.246 1.08-.246.46-.246.83-.647.83-.647l1.25 1.37c-.63.74-1.44 1.11-1.44 1.11-.8.37-1.74.37-1.74.37-.97 0-1.83-.332-1.83-.332-.86-.33-1.51-.978-1.51-.978-.64-.647-1.01-1.61-1.01-1.61-.37-.962-.37-2.224-.37-2.224zm8.26 4.96zm.71 1.786c.85-.308 1.29-.8 1.29-.8.45-.494.45-1.08.45-1.08h-.12c-.54 0-.95-.33-.95-.33-.42-.33-.42-.947-.42-.947 0-.58.42-.93.42-.93.41-.35 1-.35 1-.35.77 0 1.17.57 1.17.57.4.57.4 1.58.4 1.58 0 1.28-.71 2.2-.71 2.2-.71.92-2.06 1.32-2.06 1.32zm7.12-1.786zm.37-7.64H461l.74 3.543c.09.57.17 1.124.17 1.124.075.55.17 1.14.17 1.14h.06c.11-.59.21-1.16.21-1.16.1-.57.236-1.11.236-1.11l.85-3.54h1.96l.86 3.54c.14.57.246 1.12.246 1.12.105.55.23 1.14.23 1.14h.06c.107-.59.176-1.14.176-1.14.07-.56.176-1.13.176-1.13l.72-3.54h2.1l-1.832 7.64h-2.65l-.69-3.05c-.12-.54-.21-1.08-.21-1.08l-.2-1.16h-.06c-.11.61-.2 1.15-.2 1.15-.084.54-.19 1.08-.19 1.08l-.676 3.05h-2.59zm11.58 7.64zm1-10.796h2.27v2.65l-.11 1.37c.43-.386 1-.717 1-.717.57-.34 1.35-.34 1.35-.34 1.25 0 1.81.81 1.81.81.56.81.56 2.26.56 2.26v4.75h-2.26V9.65c0-.832-.22-1.14-.22-1.14-.22-.31-.71-.31-.71-.31-.43 0-.74.195-.74.195-.3.192-.67.547-.67.547v5.16h-2.27V3.305zm7.8 10.796zm2.12-8.762c-.57 0-.94-.34-.94-.34-.37-.33-.37-.86-.37-.86 0-.53.37-.85.37-.85.37-.327.94-.327.94-.327.58 0 .95.325.95.325.36.322.36.846.36.846 0 .524-.36.855-.36.855-.36.33-.95.33-.95.33zm0 0zm-1.13 1.12h2.27v7.64h-2.27V6.46zm3.25 7.64zm.56-3.82c0-.96.32-1.7.32-1.7.32-.75.87-1.26.87-1.26.54-.51 1.27-.78 1.27-.78.72-.27 1.51-.27 1.51-.27.7 0 1.27.24 1.27.24.57.24.96.64.96.64l-1.03 1.4c-.54-.45-1.06-.45-1.06-.45-.83 0-1.31.58-1.31.58-.48.584-.48 1.585-.48 1.585 0 1 .49 1.585.49 1.585.48.585 1.22.585 1.22.585.41 0 .75-.17.75-.17.34-.17.61-.386.61-.386l.91 1.43c-.55.49-1.23.72-1.23.72-.68.23-1.31.23-1.31.23-.8 0-1.48-.27-1.48-.27-.69-.27-1.19-.78-1.19-.78-.51-.51-.8-1.26-.8-1.26-.29-.75-.29-1.7-.29-1.7zm6.63 3.82zm1-10.8h2.27v2.65l-.11 1.37c.44-.39 1-.72 1-.72.57-.33 1.36-.33 1.36-.33 1.25 0 1.81.81 1.81.81.56.81.56 2.26.56 2.26v4.75h-2.26V9.65c0-.833-.22-1.14-.22-1.14-.22-.31-.71-.31-.71-.31-.43 0-.74.194-.74.194-.31.192-.68.547-.68.547v5.16h-2.27V3.31zm11 10.79zm.19-7.64H505l.99 3.6c.154.57.3 1.16.3 1.16l.3 1.19h.06c.14-.6.287-1.192.287-1.192.145-.59.3-1.16.3-1.16l1-3.6h2.17l-2.49 7.64h-2.62zm7.75 7.64zm.56-3.82c0-.93.31-1.67.31-1.67.31-.75.81-1.27.81-1.27.5-.518 1.15-.796 1.15-.796.65-.278 1.34-.278 1.34-.278.82 0 1.43.276 1.43.276.61.28 1.01.77 1.01.77.41.493.61 1.163.61 1.163.2.67.2 1.455.2 1.455 0 .31-.03.566-.03.566-.03.255-.06.393-.06.393h-4.57c.15.87.68 1.27.68 1.27.53.39 1.3.39 1.3.39.82 0 1.65-.51 1.65-.51l.76 1.37c-.58.4-1.3.63-1.3.63-.72.23-1.41.23-1.41.23-.82 0-1.52-.27-1.52-.27-.71-.27-1.23-.79-1.23-.79-.52-.52-.81-1.26-.81-1.26-.29-.74-.29-1.7-.29-1.7zm0 0zm4.93-.79c0-.66-.29-1.08-.29-1.08-.3-.415-.99-.415-.99-.415-.54 0-.94.362-.94.362-.41.36-.54 1.13-.54 1.13h2.76zm2.5 4.602zm1-7.64h1.85l.16 1.34h.06c.42-.783 1-1.15 1-1.15.59-.37 1.17-.37 1.17-.37.33 0 .54.04.54.04.21.036.38.113.38.113l-.37 1.956c-.21-.06-.4-.09-.4-.09-.18-.03-.43-.03-.43-.03-.43 0-.9.31-.9.31-.46.31-.77 1.09-.77 1.09v4.44h-2.27V6.46zm4.98 7.64zm1.34-2.293c.52.4 1 .6 1 .6.48.2.97.2.97.2.51 0 .74-.17.74-.17.23-.17.23-.48.23-.48 0-.18-.13-.33-.13-.33-.13-.15-.36-.27-.36-.27-.22-.12-.5-.22-.5-.22-.28-.1-.57-.23-.57-.23-.35-.14-.71-.33-.71-.33-.35-.19-.64-.46-.64-.46-.29-.27-.47-.63-.47-.63-.18-.37-.18-.84-.18-.84 0-.53.2-.97.2-.97.21-.45.6-.76.6-.76.38-.31.92-.49.92-.49.54-.18 1.2-.18 1.2-.18.87 0 1.54.3 1.54.3.66.3 1.15.67 1.15.67l-1.02 1.36c-.41-.31-.81-.48-.81-.48-.4-.17-.8-.17-.8-.17-.87 0-.87.6-.87.6 0 .18.13.31.13.31.12.13.33.24.33.24.21.11.48.21.48.21l.56.21c.37.14.73.31.73.31.37.18.67.44.67.44.3.26.48.64.48.64.18.37.18.9.18.9 0 .52-.2.97-.2.97-.2.44-.6.78-.6.78-.4.33-.98.52-.98.52-.59.19-1.36.19-1.36.19-.75 0-1.55-.3-1.55-.3-.79-.3-1.37-.77-1.37-.77zm5.48 2.29zm2.12-8.77c-.57 0-.94-.33-.94-.33-.37-.33-.37-.86-.37-.86 0-.52.37-.85.37-.85.37-.32.94-.32.94-.32.59 0 .95.32.95.32.36.32.36.84.36.84 0 .52-.36.85-.36.85-.36.33-.95.33-.95.33zm0 0zm-1.16 1.15h2.26v7.64h-2.27V6.46zm3.25 7.64zm.55-3.82c0-.96.31-1.7.31-1.7.31-.75.83-1.26.83-1.26.52-.51 1.19-.78 1.19-.78.68-.27 1.4-.27 1.4-.27.73 0 1.4.27 1.4.27.67.27 1.19.77 1.19.77.52.51.83 1.25.83 1.25.31.74.31 1.7.31 1.7 0 .95-.3 1.7-.3 1.7-.31.74-.82 1.25-.82 1.25-.52.5-1.19.77-1.19.77-.67.27-1.39.27-1.39.27-.72 0-1.4-.27-1.4-.27-.68-.27-1.2-.78-1.2-.78-.52-.51-.82-1.26-.82-1.26-.31-.75-.31-1.7-.31-1.7zm0 0zm2.33 0c0 1 .35 1.58.35 1.58.35.58 1.06.58 1.06.58.7 0 1.05-.59 1.05-.59.36-.59.36-1.59.36-1.59 0-1-.35-1.59-.35-1.59-.35-.59-1.04-.59-1.04-.59-.71 0-1.05.58-1.05.58-.35.58-.35 1.58-.35 1.58zM544 14.1zm1-7.64h1.85l.153.97h.063c.492-.46 1.077-.807 1.077-.807.585-.347 1.37-.347 1.37-.347 1.248 0 1.81.816 1.81.816.562.817.562 2.264.562 2.264V14.1h-2.265V9.65c0-.833-.223-1.14-.223-1.14-.223-.31-.716-.31-.716-.31-.43 0-.74.194-.74.194-.3.192-.67.547-.67.547v5.16H545V6.46zm7.81 7.64zm1.34-2.295c.523.4 1 .6 1 .6.478.2.97.2.97.2.51 0 .74-.17.74-.17.23-.168.23-.476.23-.476 0-.19-.13-.33-.13-.33-.13-.15-.355-.27-.355-.27-.224-.13-.5-.23-.5-.23-.278-.1-.57-.23-.57-.23-.355-.14-.71-.33-.71-.33-.353-.19-.646-.46-.646-.46-.3-.27-.48-.63-.48-.63-.19-.37-.19-.84-.19-.84 0-.53.21-.97.21-.97.21-.45.59-.76.59-.76.38-.31.92-.48.92-.48.54-.18 1.2-.18 1.2-.18.88 0 1.54.3 1.54.3.66.3 1.15.67 1.15.67l-1.01 1.36c-.42-.31-.82-.48-.82-.48-.4-.17-.8-.17-.8-.17-.87 0-.87.6-.87.6 0 .18.13.31.13.31.12.13.33.24.33.24.21.11.48.21.48.21l.56.21c.37.14.73.31.73.31.36.18.66.44.66.44.3.26.49.64.49.64.18.38.18.9.18.9 0 .52-.2.97-.2.97-.2.45-.6.78-.6.78-.4.33-.99.52-.99.52-.59.19-1.36.19-1.36.19-.76 0-1.55-.29-1.55-.29-.79-.29-1.38-.77-1.38-.77zm8.685 2.295zm.553-3.82c0-.955.308-1.7.308-1.7.31-.748.825-1.257.825-1.257.52-.508 1.2-.777 1.2-.777.68-.27 1.4-.27 1.4-.27.73 0 1.4.27 1.4.27.67.27 1.19.777 1.19.777.52.51.83 1.256.83 1.256.31.74.31 1.7.31 1.7 0 .95-.31 1.7-.31 1.7-.31.74-.82 1.25-.82 1.25-.51.5-1.18.77-1.18.77-.67.27-1.39.27-1.39.27-.72 0-1.4-.27-1.4-.27-.68-.27-1.19-.78-1.19-.78-.52-.51-.82-1.26-.82-1.26-.31-.75-.31-1.7-.31-1.7zm0 0zm2.326 0c0 1 .345 1.586.345 1.586.34.586 1.05.586 1.05.586.69 0 1.04-.586 1.04-.586.35-.585.35-1.586.35-1.586 0-1-.36-1.586-.36-1.586-.36-.585-1.05-.585-1.05-.585-.71 0-1.06.58-1.06.58-.35.58-.35 1.58-.35 1.58zm5.59 3.82zm5.312-9.04c-.43-.154-.785-.154-.785-.154-.41 0-.64.254-.64.254-.23.254-.23.84-.23.84v.46h1.37v1.772h-1.37V14.1h-2.26V8.234h-1.01v-1.68l1.02-.076v-.415c0-.6.15-1.14.15-1.14.15-.54.49-.94.49-.94.34-.4.88-.63.88-.63.54-.232 1.31-.232 1.31-.232.48 0 .87.1.87.1.39.09.66.19.66.19zm3.142 9.04zm2.125-8.763c-.57 0-.94-.332-.94-.332-.37-.33-.37-.855-.37-.855 0-.524.37-.847.37-.847.37-.323.94-.323.94-.323.586 0 .948.323.948.323.36.323.36.847.36.847 0 .524-.36.855-.36.855-.36.33-.94.33-.94.33zm0 0zM580.76 6.46h2.263v7.64h-2.265V6.46zm3.25 7.64zm1.31-5.87h-1.05V6.556l1.17-.092.263-2.033h1.878v2.04h1.84v1.77h-1.83v3.06c0 .65.27.93.27.93.27.29.72.29.72.29.19 0 .38-.04.38-.04.2-.05.35-.11.35-.11l.36 1.65c-.31.09-.72.18-.72.18-.41.09-.97.09-.97.09-.71 0-1.21-.21-1.21-.21-.5-.21-.81-.6-.81-.6-.32-.38-.46-.93-.46-.93-.14-.54-.14-1.21-.14-1.21v-3.1zm7.79 5.87zm.6-3.82c0-.94.27-1.68.27-1.68.27-.738.71-1.254.71-1.254.44-.517 1.015-.795 1.015-.795.58-.27 1.18-.27 1.18-.27.646 0 1.062.22 1.062.22.416.22.816.59.816.59l-.092-1.17v-2.6h2.27V14.1h-1.85l-.15-.754h-.06c-.4.4-.94.67-.94.67-.53.27-1.09.27-1.09.27-.7 0-1.28-.278-1.28-.278-.58-.278-.98-.794-.98-.794-.41-.516-.63-1.255-.63-1.255-.22-.74-.22-1.68-.22-1.68zm0 0zm2.326-.03c0 1.138.362 1.662.362 1.662.362.523 1.024.523 1.024.523.37 0 .67-.154.67-.154.3-.15.577-.54.577-.54V8.62c-.31-.278-.64-.386-.64-.386-.33-.108-.63-.108-.63-.108-.54 0-.96.516-.96.516-.42.516-.42 1.61-.42 1.61zm5.9 3.85zm.553-3.82c0-.956.3-1.702.3-1.702.31-.746.82-1.255.82-1.255.51-.508 1.19-.777 1.19-.777.68-.27 1.4-.27 1.4-.27.72 0 1.39.27 1.39.27.67.27 1.18.777 1.18.777.52.51.82 1.256.82 1.256.31.74.31 1.7.31 1.7 0 .95-.31 1.7-.31 1.7-.31.74-.83 1.25-.83 1.25-.52.5-1.19.77-1.19.77-.67.27-1.4.27-1.4.27-.72 0-1.4-.27-1.4-.27-.68-.27-1.19-.78-1.19-.78-.52-.51-.83-1.26-.83-1.26-.31-.75-.31-1.7-.31-1.7zm0 0zm2.32 0c0 1 .34 1.585.34 1.585.34.586 1.05.586 1.05.586.69 0 1.04-.58 1.04-.58.35-.58.35-1.58.35-1.58 0-1-.36-1.58-.36-1.58-.35-.58-1.05-.58-1.05-.58-.71 0-1.06.59-1.06.59-.35.59-.35 1.59-.35 1.59zm8.87 3.82zm1.17 1.107c.1.03.24.062.24.062.14.03.26.03.26.03.57 0 .87-.28.87-.28.31-.28.46-.73.46-.73l.1-.4-2.94-7.44h2.28l1.09 3.28c.17.52.31 1.06.31 1.06.14.54.29 1.11.29 1.11h.06c.12-.54.25-1.09.25-1.09.13-.55.27-1.09.27-1.09l.92-3.28h2.17l-2.65 7.71c-.28.72-.58 1.27-.58 1.27-.3.54-.69.91-.69.91-.4.36-.9.54-.9.54-.5.18-1.18.18-1.18.18-.36 0-.6-.04-.6-.04-.25-.04-.48-.12-.48-.12l.4-1.73zm6.73-1.108zm.55-3.82c0-.96.31-1.7.31-1.7.3-.75.82-1.26.82-1.26.51-.51 1.19-.78 1.19-.78.68-.27 1.4-.27 1.4-.27.72 0 1.39.27 1.39.27.67.27 1.18.77 1.18.77.51.51.82 1.25.82 1.25.3.74.3 1.7.3 1.7 0 .95-.31 1.7-.31 1.7-.31.74-.83 1.25-.83 1.25-.52.5-1.19.77-1.19.77-.67.27-1.4.27-1.4.27-.73 0-1.4-.27-1.4-.27-.68-.27-1.2-.78-1.2-.78-.52-.51-.82-1.26-.82-1.26-.31-.75-.31-1.71-.31-1.71zm0 0zm2.32 0c0 1 .34 1.58.34 1.58.34.58 1.05.58 1.05.58.69 0 1.05-.59 1.05-.59.35-.59.35-1.59.35-1.59 0-1-.36-1.59-.36-1.59-.36-.59-1.05-.59-1.05-.59-.71 0-1.06.58-1.06.58-.35.58-.35 1.58-.35 1.58zm5.66 3.82zm.92-7.64h2.26v4.45c0 .83.23 1.14.23 1.14.23.3.72.3.72.3.43 0 .72-.2.72-.2.29-.2.63-.65.63-.65V6.46h2.26v7.64H636l-.17-1.063h-.045c-.496.584-1.058.915-1.058.915-.56.33-1.346.33-1.346.33-1.25 0-1.81-.815-1.81-.815-.56-.816-.56-2.264-.56-2.264v-4.74zm11.02 7.64zm.93-7.64h2.26v4.45c0 .83.23 1.14.23 1.14.23.3.72.3.72.3.43 0 .72-.2.72-.2.29-.2.63-.65.63-.65V6.46h2.26v7.64H648l-.17-1.063h-.045c-.493.584-1.055.915-1.055.915-.562.33-1.348.33-1.348.33-1.247 0-1.81-.815-1.81-.815-.56-.816-.56-2.264-.56-2.264v-4.74zm7.82 7.64zm1.34-2.3c.52.4 1 .6 1 .6.47.2.97.2.97.2.51 0 .74-.17.74-.17.23-.17.23-.48.23-.48 0-.19-.13-.33-.13-.33-.13-.15-.36-.27-.36-.27-.23-.13-.5-.23-.5-.23-.28-.1-.57-.23-.57-.23-.36-.14-.71-.33-.71-.33-.36-.19-.65-.46-.65-.46-.29-.27-.48-.63-.48-.63-.18-.37-.18-.84-.18-.84 0-.53.21-.97.21-.97.21-.45.59-.76.59-.76.39-.31.93-.49.93-.49.54-.18 1.2-.18 1.2-.18.88 0 1.54.3 1.54.3.66.3 1.15.67 1.15.67l-1.01 1.36c-.42-.31-.82-.48-.82-.48-.4-.17-.8-.17-.8-.17-.86 0-.86.6-.86.6 0 .18.12.31.12.31.12.13.33.24.33.24.21.11.48.21.48.21l.56.21c.37.14.73.31.73.31.36.18.66.44.66.44.3.26.48.64.48.64.18.38.18.9.18.9 0 .52-.2.97-.2.97-.2.45-.6.78-.6.78-.4.33-.99.52-.99.52-.59.2-1.36.2-1.36.2-.76 0-1.55-.29-1.55-.29-.79-.29-1.38-.77-1.38-.77zm5.48 2.29zm.55-3.82c0-.93.3-1.67.3-1.67.31-.75.81-1.27.81-1.27.5-.52 1.15-.8 1.15-.8.65-.28 1.34-.28 1.34-.28.82 0 1.43.28 1.43.28.61.27 1.01.77 1.01.77.41.49.61 1.16.61 1.16.2.67.2 1.45.2 1.45 0 .3-.03.56-.03.56-.03.25-.06.39-.06.39h-4.58c.15.88.68 1.27.68 1.27.53.39 1.3.39 1.3.39.82 0 1.65-.51 1.65-.51l.75 1.37c-.59.4-1.3.63-1.3.63-.72.23-1.41.23-1.41.23-.82 0-1.53-.27-1.53-.27-.71-.27-1.24-.79-1.24-.79-.53-.52-.82-1.26-.82-1.26-.29-.74-.29-1.69-.29-1.69zm0 0zm4.92-.79c0-.66-.29-1.08-.29-1.08-.29-.42-.99-.42-.99-.42-.54 0-.95.36-.95.36-.41.36-.53 1.13-.53 1.13h2.75zm2.5 4.6zm2.37-3.56c-.08-.53.03-.96.03-.96.11-.44.33-.81.33-.81.21-.37.48-.68.48-.68l.52-.6c.25-.28.41-.55.41-.55.16-.27.16-.57.16-.57 0-.48-.29-.72-.29-.72-.28-.25-.75-.25-.75-.25-.43 0-.77.2-.77.2-.33.2-.64.51-.64.51L666.26 5c.524-.63 1.232-1.016 1.232-1.016.71-.385 1.57-.385 1.57-.385.648 0 1.21.15 1.21.15.562.15.97.47.97.47.408.32.64.82.64.82.23.5.23 1.18.23 1.18 0 .47-.17.85-.17.85-.17.37-.423.7-.423.7-.26.32-.54.62-.54.62-.29.3-.53.62-.53.62-.24.32-.38.68-.38.68-.14.36-.1.82-.1.82H668zm0 0zm-.37 2.32c0-.62.38-1.03.38-1.03.38-.41.97-.41.97-.41.58 0 .97.41.97.41.39.41.39 1.02.39 1.02 0 .6-.4 1-.4 1-.39.41-.98.41-.98.41-.58 0-.97-.41-.97-.41-.38-.41-.38-1.01-.38-1.01z"/><path fill="none" stroke="#D3D3D3" stroke-miterlimit="10" d="M39.59 738h954.85M39.59 562.25h954.85M39.59 386.5h954.85M39.59 210.75h954.85M39.59 35h954.85" stroke-dasharray="5 5"/><g fill="#5C3566" stroke-opacity="0" stroke-width="0" stroke-miterlimit="10" stroke-linejoin="bevel"><defs><clipPath id="a"><path d="M39.59 35v703h954.85V35z"/></clipPath></defs><g clip-path="url(#a)"><path stroke="none" d="M54.59 738V278.238h56.805V738z"/></g></g><g fill-opacity="0" stroke-miterlimit="10"><defs><clipPath id="b"><path d="M39.59 35v703h954.85V35z"/></clipPath></defs><g clip-path="url(#b)"><path fill="none" d="M54.59 738V278.238h56.805V738z"/></g></g><g fill="#5C3566" stroke-opacity="0" stroke-width="0" stroke-miterlimit="10" stroke-linejoin="bevel"><defs><clipPath id="c"><path d="M39.59 35v703h954.85V35z"/></clipPath></defs><g clip-path="url(#c)"><path stroke="none" d="M141.395 738V165.055H198.2V738z"/></g></g><g fill-opacity="0" stroke-miterlimit="10"><defs><clipPath id="d"><path d="M39.59 35v703h954.85V35z"/></clipPath></defs><g clip-path="url(#d)"><path fill="none" d="M141.395 738V165.055H198.2V738z"/></g></g><g fill="#5C3566" stroke-opacity="0" stroke-width="0" stroke-miterlimit="10" stroke-linejoin="bevel"><defs><clipPath id="e"><path d="M39.59 35v703h954.85V35z"/></clipPath></defs><g clip-path="url(#e)"><path stroke="none" d="M228.2 738V556.626h56.804V738z"/></g></g><g fill-opacity="0" stroke-miterlimit="10"><defs><clipPath id="f"><path d="M39.59 35v703h954.85V35z"/></clipPath></defs><g clip-path="url(#f)"><path fill="none" d="M228.2 738V556.626h56.804V738z"/></g></g><g fill="#5C3566" stroke-opacity="0" stroke-width="0" stroke-miterlimit="10" stroke-linejoin="bevel"><defs><clipPath id="g"><path d="M39.59 35v703h954.85V35z"/></clipPath></defs><g clip-path="url(#g)"><path stroke="none" d="M315.004 738V557.33h56.805V738z"/></g></g><g fill-opacity="0" stroke-miterlimit="10"><defs><clipPath id="h"><path d="M39.59 35v703h954.85V35z"/></clipPath></defs><g clip-path="url(#h)"><path fill="none" d="M315.004 738V557.33h56.805V738z"/></g></g><g fill="#5C3566" stroke-opacity="0" stroke-width="0" stroke-miterlimit="10" stroke-linejoin="bevel"><defs><clipPath id="i"><path d="M39.59 35v703h954.85V35z"/></clipPath></defs><g clip-path="url(#i)"><path stroke="none" d="M401.81 738v-48.507h56.803V738z"/></g></g><g fill-opacity="0" stroke-miterlimit="10"><defs><clipPath id="j"><path d="M39.59 35v703h954.85V35z"/></clipPath></defs><g clip-path="url(#j)"><path fill="none" d="M401.81 738v-48.507h56.803V738z"/></g></g><g fill="#5C3566" stroke-opacity="0" stroke-width="0" stroke-miterlimit="10" stroke-linejoin="bevel"><defs><clipPath id="k"><path d="M39.59 35v703h954.85V35z"/></clipPath></defs><g clip-path="url(#k)"><path stroke="none" d="M488.613 738v-30.23h56.805V738z"/></g></g><g fill-opacity="0" stroke-miterlimit="10"><defs><clipPath id="l"><path d="M39.59 35v703h954.85V35z"/></clipPath></defs><g clip-path="url(#l)"><path fill="none" d="M488.613 738v-30.23h56.805V738z"/></g></g><g fill="#5C3566" stroke-opacity="0" stroke-width="0" stroke-miterlimit="10" stroke-linejoin="bevel"><defs><clipPath id="m"><path d="M39.59 35v703h954.85V35z"/></clipPath></defs><g clip-path="url(#m)"><path stroke="none" d="M575.418 738v-40.774h56.805V738z"/></g></g><g fill-opacity="0" stroke-miterlimit="10"><defs><clipPath id="n"><path d="M39.59 35v703h954.85V35z"/></clipPath></defs><g clip-path="url(#n)"><path fill="none" d="M575.418 738v-40.774h56.805V738z"/></g></g><g fill="#5C3566" stroke-opacity="0" stroke-width="0" stroke-miterlimit="10" stroke-linejoin="bevel"><defs><clipPath id="o"><path d="M39.59 35v703h954.85V35z"/></clipPath></defs><g clip-path="url(#o)"><path stroke="none" d="M662.223 738v-10.545h56.804V738z"/></g></g><g fill-opacity="0" stroke-miterlimit="10"><defs><clipPath id="p"><path d="M39.59 35v703h954.85V35z"/></clipPath></defs><g clip-path="url(#p)"><path fill="none" d="M662.223 738v-10.545h56.804V738z"/></g></g><g fill="#5C3566" stroke-opacity="0" stroke-width="0" stroke-miterlimit="10" stroke-linejoin="bevel"><defs><clipPath id="q"><path d="M39.59 35v703h954.85V35z"/></clipPath></defs><g clip-path="url(#q)"><path stroke="none" d="M749.027 738v-8.436h56.805V738z"/></g></g><g fill-opacity="0" stroke-miterlimit="10"><defs><clipPath id="r"><path d="M39.59 35v703h954.85V35z"/></clipPath></defs><g clip-path="url(#r)"><path fill="none" d="M749.027 738v-8.436h56.805V738z"/></g></g><g fill="#5C3566" stroke-opacity="0" stroke-width="0" stroke-miterlimit="10" stroke-linejoin="bevel"><defs><clipPath id="s"><path d="M39.59 35v703h954.85V35z"/></clipPath></defs><g clip-path="url(#s)"><path stroke="none" d="M835.832 738v-7.733h56.805V738z"/></g></g><g fill-opacity="0" stroke-miterlimit="10"><defs><clipPath id="t"><path d="M39.59 35v703h954.85V35z"/></clipPath></defs><g clip-path="url(#t)"><path fill="none" d="M835.832 738v-7.733h56.805V738z"/></g></g><g fill="#5C3566" stroke-opacity="0" stroke-width="0" stroke-miterlimit="10" stroke-linejoin="bevel"><defs><clipPath id="u"><path d="M39.59 35v703h954.85V35z"/></clipPath></defs><g clip-path="url(#u)"><path stroke="none" d="M922.637 738v-21.793h56.804V738z"/></g></g><g fill-opacity="0" stroke-miterlimit="10"><defs><clipPath id="v"><path d="M39.59 35v703h954.85V35z"/></clipPath></defs><g clip-path="url(#v)"><path fill="none" d="M922.637 738v-21.793h56.804V738z"/></g></g><path fill="none" stroke-miterlimit="10" d="M39.59 738V35" stroke-linecap="square"/><path fill="none" stroke-miterlimit="10" d="M39.59 738h2m-2-70.3h2m-2-70.3h2m-2-70.3h2m-2-70.3h2m-2-70.3h2m-2-70.3h2m-2-70.3h2m-2-70.3h2m-2-70.3h2m-2-70.3h2m-2 703h5m-5-175.75h5m-5-175.75h5m-5-175.75h5M39.59 35h5"/><path stroke="none" d="M25.294 741.445zm2.616.126c-1.02 0-1.586-.9-1.586-.9-.568-.9-.568-2.59-.568-2.59 0-1.69.568-2.57.568-2.57.567-.88 1.586-.88 1.586-.88 1.008 0 1.575.88 1.575.88.568.89.568 2.58.568 2.58 0 1.69-.568 2.6-.568 2.6-.567.91-1.575.91-1.575.91zm0 0zm0-.69c.294 0 .53-.16.53-.16.236-.16.41-.5.41-.5.173-.34.268-.87.268-.87.094-.53.094-1.26.094-1.26 0-.73-.094-1.26-.094-1.26-.095-.52-.268-.85-.268-.85-.173-.33-.41-.49-.41-.49-.236-.16-.53-.16-.53-.16-.294 0-.536.16-.536.16-.242.16-.415.49-.415.49-.18.33-.27.86-.27.86-.1.53-.1 1.26-.1 1.26 0 1.47.36 2.14.36 2.14.36.67.95.67.95.67zM14.77 565.7zm.42-.514c.755-.754 1.344-1.363 1.344-1.363.588-.61.987-1.13.987-1.13.4-.52.61-.955.61-.955.21-.434.21-.844.21-.844 0-.576-.31-.944-.31-.944-.31-.37-.95-.37-.95-.37-.42 0-.77.24-.77.24-.35.235-.65.57-.65.57l-.49-.492c.42-.462.9-.74.9-.74.48-.28 1.14-.28 1.14-.28.94 0 1.47.543 1.47.543.54.54.54 1.44.54 1.44 0 .47-.2.95-.2.95-.2.48-.57.99-.57.99-.36.51-.86 1.06-.86 1.06-.5.56-1.09 1.18-1.09 1.18l.57-.04c.3-.02.56-.02.56-.02h1.95v.75H15.2v-.51zm4.8.517zm.682-1.355c.294.307.7.538.7.538.403.23.99.23.99.23.306 0 .574-.11.574-.11.268-.11.467-.31.467-.31.2-.2.315-.482.315-.482.116-.283.116-.63.116-.63 0-.693-.39-1.082-.39-1.082-.387-.387-1.04-.387-1.04-.387-.345 0-.592.106-.592.106-.247.11-.552.31-.552.31l-.462-.29.22-3.22h3.352v.75h-2.595l-.18 1.99c.243-.12.485-.2.485-.2.24-.07.546-.07.546-.07.43 0 .81.13.81.13.377.13.66.39.66.39.284.26.447.65.447.65.163.4.163.94.163.94 0 .55-.19.97-.19.97-.19.42-.504.71-.504.71-.315.29-.72.44-.72.44-.404.15-.845.15-.845.15-.4 0-.73-.08-.73-.08-.33-.08-.598-.2-.598-.2-.27-.12-.49-.29-.49-.29-.22-.16-.39-.34-.39-.34zm4.538 1.357zm2.616.127c-1.02 0-1.586-.903-1.586-.903-.568-.91-.568-2.6-.568-2.6 0-1.69.567-2.58.567-2.58.56-.88 1.58-.88 1.58-.88 1.01 0 1.57.88 1.57.88.56.88.56 2.57.56 2.57 0 1.69-.57 2.59-.57 2.59-.57.9-1.58.9-1.58.9zm0 0zm0-.693c.294 0 .53-.17.53-.17.236-.16.41-.51.41-.51.173-.34.268-.87.268-.87.094-.53.094-1.27.094-1.27 0-.74-.094-1.26-.094-1.26-.095-.53-.268-.86-.268-.86-.173-.33-.41-.49-.41-.49-.236-.16-.53-.16-.53-.16-.294 0-.536.16-.536.16-.242.15-.415.48-.415.48-.173.33-.268.85-.268.85-.094.52-.094 1.26-.094 1.26 0 1.47.362 2.13.362 2.13.362.67.95.67.95.67zM14.653 389.95zm.683-1.355c.294.308.7.54.7.54.403.23.99.23.99.23.306 0 .574-.11.574-.11.268-.11.467-.31.467-.31.2-.2.315-.483.315-.483.116-.284.116-.63.116-.63 0-.694-.39-1.082-.39-1.082-.388-.39-1.04-.39-1.04-.39-.345 0-.592.106-.592.106-.247.105-.552.304-.552.304l-.462-.294.22-3.226h3.35v.745H16.44l-.18 1.98c.242-.126.483-.2.483-.2.242-.072.547-.072.547-.072.43 0 .808.127.808.127.38.126.662.383.662.383.284.257.447.65.447.65.162.395.162.94.162.94 0 .548-.19.968-.19.968-.19.42-.51.71-.51.71-.32.29-.72.44-.72.44-.41.16-.85.16-.85.16-.4 0-.73-.08-.73-.08-.33-.08-.6-.2-.6-.2-.27-.12-.48-.29-.48-.29-.22-.16-.39-.34-.39-.34zm4.538 1.358zm2.616.127c-1.02 0-1.587-.9-1.587-.9-.567-.903-.567-2.595-.567-2.595 0-1.69.567-2.574.567-2.574.568-.88 1.586-.88 1.586-.88 1 0 1.57.88 1.57.88.56.89.56 2.58.56 2.58 0 1.69-.57 2.6-.57 2.6-.57.91-1.58.91-1.58.91zm0 0zm0-.69c.294 0 .53-.163.53-.163.236-.162.41-.504.41-.504.173-.34.268-.87.268-.87.094-.53.094-1.266.094-1.266 0-.738-.094-1.26-.094-1.26-.095-.528-.268-.86-.268-.86-.174-.33-.41-.49-.41-.49-.236-.16-.53-.16-.53-.16-.295 0-.536.16-.536.16-.242.158-.415.49-.415.49-.18.33-.27.855-.27.855-.1.524-.1 1.26-.1 1.26 0 1.47.36 2.137.36 2.137.36.66.95.66.95.66zm2.605.567zm2.615.126c-1.02 0-1.586-.902-1.586-.902-.567-.9-.567-2.59-.567-2.59 0-1.69.567-2.57.567-2.57.567-.88 1.586-.88 1.586-.88 1.01 0 1.576.89 1.576.89.567.88.567 2.58.567 2.58 0 1.69-.567 2.6-.567 2.6-.567.91-1.576.91-1.576.91zm0 0zm0-.692c.294 0 .53-.16.53-.16.237-.16.41-.5.41-.5.174-.34.268-.87.268-.87.095-.53.095-1.26.095-1.26 0-.73-.095-1.26-.095-1.26-.094-.52-.268-.85-.268-.85-.173-.33-.41-.48-.41-.48-.236-.16-.53-.16-.53-.16-.294 0-.536.16-.536.16-.24.16-.414.49-.414.49-.174.33-.268.86-.268.86-.095.53-.095 1.26-.095 1.26 0 1.47.363 2.14.363 2.14.362.67.95.67.95.67zM14.853 214.2zm1.86 0c.04-.945.167-1.733.167-1.733.126-.788.352-1.497.352-1.497.226-.71.578-1.37.578-1.37.352-.662.846-1.355.846-1.355h-3.34v-.74h4.316v.534c-.598.75-.97 1.45-.97 1.45-.374.69-.595 1.41-.595 1.41-.22.72-.32 1.52-.32 1.52-.1.8-.142 1.78-.142 1.78h-.893zm3.36 0zm.683-1.355c.294.31.7.54.7.54.403.23.99.23.99.23.306 0 .574-.11.574-.11.268-.11.467-.31.467-.31.2-.2.315-.48.315-.48.116-.285.116-.63.116-.63 0-.695-.39-1.084-.39-1.084-.387-.38-1.04-.38-1.04-.38-.345 0-.592.11-.592.11-.247.11-.552.31-.552.31l-.462-.29.22-3.22h3.352v.74H21.86l-.18 1.99c.242-.12.484-.2.484-.2.24-.07.546-.07.546-.07.43 0 .81.13.81.13.377.13.66.38.66.38.284.26.447.66.447.66.163.39.163.94.163.94 0 .55-.19.97-.19.97-.19.42-.504.71-.504.71-.315.29-.72.44-.72.44-.404.16-.845.16-.845.16-.39 0-.73-.07-.73-.07-.33-.08-.59-.2-.59-.2-.27-.13-.48-.29-.48-.29-.21-.16-.38-.34-.38-.34zm4.538 1.36zm2.616.126c-1.02 0-1.586-.9-1.586-.9-.568-.9-.568-2.59-.568-2.59 0-1.69.568-2.57.568-2.57.567-.88 1.586-.88 1.586-.88 1.008 0 1.575.88 1.575.88.568.89.568 2.58.568 2.58 0 1.69-.568 2.6-.568 2.6-.567.91-1.575.91-1.575.91zm0 0zm0-.69c.294 0 .53-.16.53-.16.236-.16.41-.5.41-.5.173-.34.268-.87.268-.87.094-.53.094-1.26.094-1.26 0-.74-.094-1.26-.094-1.26-.095-.53-.268-.86-.268-.86-.173-.33-.41-.49-.41-.49-.236-.16-.53-.16-.53-.16-.294 0-.536.16-.536.16-.242.16-.415.49-.415.49-.18.33-.27.86-.27.86-.1.53-.1 1.26-.1 1.26 0 1.47.36 2.14.36 2.14.36.67.95.67.95.67zM10 38.45zm.83-.715h1.533V32.8h-1.218v-.557c.462-.084.804-.204.804-.204.34-.12.61-.29.61-.29h.66v5.98h1.38v.71h-3.78v-.72zm4.39.72zm2.616.13c-1.02 0-1.586-.902-1.586-.902-.567-.9-.567-2.593-.567-2.593 0-1.69.567-2.573.567-2.573.567-.882 1.586-.882 1.586-.882 1.01 0 1.576.884 1.576.884.567.88.567 2.57.567 2.57 0 1.69-.57 2.59-.57 2.59-.57.9-1.58.9-1.58.9zm0 0zm0-.692c.294 0 .53-.16.53-.16.237-.16.41-.504.41-.504.174-.34.268-.87.268-.87.095-.53.095-1.27.095-1.27 0-.74-.1-1.26-.1-1.26-.1-.53-.27-.86-.27-.86-.18-.33-.41-.49-.41-.49-.24-.16-.53-.16-.53-.16-.3 0-.54.16-.54.16-.24.15-.42.48-.42.48-.18.33-.27.85-.27.85-.1.53-.1 1.26-.1 1.26 0 1.47.36 2.14.36 2.14.36.67.95.67.95.67zm2.605.57zm2.62.126c-1.02 0-1.58-.91-1.58-.91-.56-.9-.56-2.59-.56-2.59 0-1.69.57-2.57.57-2.57.57-.88 1.59-.88 1.59-.88 1.01 0 1.58.88 1.58.88.57.88.57 2.57.57 2.57 0 1.69-.56 2.59-.56 2.59-.57.9-1.58.9-1.58.9zm0 0zm0-.7c.3 0 .53-.16.53-.16.24-.16.41-.51.41-.51.18-.34.27-.87.27-.87.1-.53.1-1.27.1-1.27 0-.74-.09-1.26-.09-1.26-.09-.53-.27-.86-.27-.86-.17-.33-.41-.49-.41-.49-.23-.16-.53-.16-.53-.16-.29 0-.53.16-.53.16-.24.15-.41.48-.41.48-.17.33-.27.85-.27.85-.09.52-.09 1.26-.09 1.26 0 1.47.36 2.14.36 2.14.36.66.95.66.95.66zm2.61.57zm2.62.12c-1.02 0-1.58-.91-1.58-.91-.56-.91-.56-2.6-.56-2.6 0-1.69.57-2.58.57-2.58.57-.89 1.59-.89 1.59-.89 1.01 0 1.58.88 1.58.88.57.88.57 2.57.57 2.57 0 1.69-.57 2.59-.57 2.59-.56.9-1.57.9-1.57.9zm0 0zm0-.7c.3 0 .53-.17.53-.17.24-.16.41-.5.41-.5.18-.34.27-.87.27-.87.1-.53.1-1.27.1-1.27 0-.74-.09-1.26-.09-1.26-.09-.53-.26-.86-.26-.86-.17-.33-.41-.49-.41-.49-.23-.16-.53-.16-.53-.16-.29 0-.53.16-.53.16-.24.15-.41.48-.41.48-.17.33-.27.86-.27.86-.1.53-.1 1.26-.1 1.26 0 1.47.36 2.14.36 2.14.36.67.95.67.95.67z"/><path fill="none" stroke-miterlimit="10" d="M39.59 738h954.85" stroke-linecap="square"/><path stroke="none" d="M62.71 758zm1.207-1.796c0 .283.11.515.11.515.11.23.305.4.305.4.194.17.457.27.457.27.26.09.56.09.56.09.59 0 .95-.33.95-.33.36-.33.36-.85.36-.85 0-.33-.15-.56-.15-.56-.15-.23-.4-.41-.4-.41-.25-.18-.59-.32-.59-.32-.33-.15-.69-.29-.69-.29-.4.27-.67.63-.67.63-.27.36-.27.82-.27.82zm0 0zm1.89-1.86c.337-.304.52-.64.52-.64.185-.336.185-.704.185-.704 0-.504-.305-.846-.305-.846-.305-.34-.86-.34-.86-.34-.474 0-.78.293-.78.293-.303.294-.303.788-.303.788 0 .304.126.52.126.52.126.215.34.383.34.383.217.168.495.3.495.3.278.13.583.246.583.246zm0 0zm-2.667 1.944c0-.326.11-.604.11-.604.11-.28.284-.504.284-.504.173-.226.4-.4.4-.4.225-.173.466-.3.466-.3v-.04c-.367-.264-.65-.637-.65-.637-.285-.372-.285-.908-.285-.908 0-.39.147-.704.147-.704.147-.31.4-.54.4-.54.252-.22.598-.35.598-.35.347-.12.757-.12.757-.12.44 0 .787.13.787.13.347.14.594.37.594.37.247.24.378.57.378.57.13.33.13.72.13.72 0 .26-.088.51-.088.51-.09.24-.22.45-.22.45-.132.21-.295.38-.295.38-.162.17-.32.28-.32.28v.04c.22.13.43.29.43.29.21.16.374.37.374.37.162.21.262.47.262.47.1.27.1.6.1.6 0 .38-.16.71-.16.71-.16.33-.44.57-.44.57-.29.25-.69.38-.69.38-.4.14-.88.14-.88.14-.48 0-.88-.14-.88-.14-.41-.13-.7-.38-.7-.38-.29-.24-.46-.58-.46-.58-.17-.33-.17-.73-.17-.73zM67.93 758zm.682-.525c0-.305.184-.49.184-.49.184-.182.447-.182.447-.182.252 0 .436.183.436.183.18.184.18.49.18.49 0 .282-.19.466-.19.466-.19.184-.44.184-.44.184-.27 0-.45-.184-.45-.184-.19-.184-.19-.467-.19-.467zm1.933.525zm.42-.515c.757-.756 1.345-1.365 1.345-1.365.588-.61.987-1.13.987-1.13.4-.52.61-.955.61-.955.21-.436.21-.846.21-.846 0-.58-.316-.95-.316-.95-.31-.37-.95-.37-.95-.37-.42 0-.77.23-.77.23-.35.23-.65.57-.65.57l-.49-.5c.42-.46.9-.74.9-.74.48-.28 1.14-.28 1.14-.28.94 0 1.47.54 1.47.54.54.54.54 1.43.54 1.43 0 .47-.2.95-.2.95-.21.48-.57.98-.57.98-.36.51-.86 1.06-.86 1.06-.5.55-1.1 1.17-1.1 1.17l.57-.04c.3-.02.56-.02.56-.02h1.94v.75H71v-.52zm4.8.515zm.683-.525c0-.305.184-.49.184-.49.184-.182.447-.182.447-.182.25 0 .43.183.43.183.18.184.18.49.18.49 0 .282-.19.466-.19.466-.19.184-.44.184-.44.184-.27 0-.45-.184-.45-.184-.19-.184-.19-.467-.19-.467zm1.933.525zm.83-.714h1.54v-4.937h-1.22v-.56c.47-.09.81-.21.81-.21.34-.12.62-.29.62-.29h.66v5.99H83v.72h-3.79v-.72zm4.4.714zm.69-4.317c0-.305.19-.49.19-.49.19-.182.45-.182.45-.182.25 0 .44.19.44.19.19.19.19.49.19.49 0 .28-.18.47-.18.47-.18.19-.43.19-.43.19-.26 0-.44-.18-.44-.18-.18-.18-.18-.46-.18-.46zm0 0zm0 3.792c0-.305.19-.49.19-.49.19-.182.45-.182.45-.182.25 0 .44.183.44.183.19.184.19.49.19.49 0 .282-.18.466-.18.466-.18.184-.43.184-.43.184-.26 0-.44-.184-.44-.184-.18-.184-.18-.467-.18-.467zm4.06.525zm2.82-.557c.25 0 .47-.105.47-.105.21-.105.37-.3.37-.3.16-.193.25-.46.25-.46.09-.27.09-.605.09-.605 0-.662-.3-1.04-.3-1.04-.3-.378-.93-.378-.93-.378-.31 0-.68.204-.68.204-.37.2-.71.67-.71.67.09.98.46 1.49.46 1.49.37.51 1.01.51 1.01.51zm0 0zm1.38-5.02c-.21-.242-.49-.384-.49-.384-.29-.15-.6-.15-.6-.15-.34 0-.66.14-.66.14-.31.14-.55.48-.55.48-.24.33-.39.87-.39.87-.14.54-.15 1.34-.15 1.34.32-.39.74-.62.74-.62.42-.23.83-.23.83-.23.87 0 1.39.51 1.39.51.52.51.52 1.55.52 1.55 0 .48-.16.88-.16.88-.16.39-.43.67-.43.67-.27.28-.63.44-.63.44-.36.15-.77.15-.77.15-.49 0-.91-.2-.91-.2-.42-.2-.73-.61-.73-.61-.31-.4-.48-1.01-.48-1.01-.18-.6-.18-1.41-.18-1.41 0-1.01.21-1.72.21-1.72.21-.71.57-1.15.57-1.15.35-.45.81-.65.81-.65.46-.21.96-.21.96-.21.55 0 .94.2.94.2.4.2.68.51.68.51zm1 5.577zm.69-1.355c.3.305.7.536.7.536.41.24 1 .24 1 .24.31 0 .57-.11.57-.11.27-.11.47-.31.47-.31.2-.2.32-.48.32-.48.12-.28.12-.63.12-.63 0-.69-.39-1.08-.39-1.08-.38-.39-1.04-.39-1.04-.39-.35 0-.59.11-.59.11-.24.11-.55.31-.55.31l-.46-.29.22-3.22h3.35v.75h-2.59l-.18 1.99c.24-.13.48-.2.48-.2.24-.07.55-.07.55-.07.43 0 .81.13.81.13.38.13.66.39.66.39.28.26.45.65.45.65.17.4.17.94.17.94 0 .55-.19.97-.19.97-.19.42-.5.71-.5.71-.31.29-.72.44-.72.44-.4.15-.84.15-.84.15-.4 0-.73-.08-.73-.08-.33-.08-.6-.2-.6-.2-.27-.12-.48-.28-.48-.28-.22-.16-.38-.34-.38-.34zM98.78 758zm3.194-2.542v-1.943c0-.273.015-.646.015-.646.01-.38.03-.65.03-.65h-.04c-.13.24-.26.47-.26.47l-.29.47-1.57 2.29h2.1zm0 0zm1.733.693h-.914V758h-.82v-1.85H98.96v-.566l2.867-4.286h.966v4.16h.914v.693zM149.62 758zm1.207-1.796c0 .283.11.515.11.515.11.23.305.4.305.4.194.17.456.27.456.27.263.09.568.09.568.09.588 0 .95-.33.95-.33.363-.33.363-.85.363-.85 0-.33-.15-.56-.15-.56-.15-.23-.4-.41-.4-.41-.25-.18-.59-.32-.59-.32-.33-.15-.69-.29-.69-.29-.4.27-.67.63-.67.63-.27.36-.27.82-.27.82zm0 0zm1.89-1.86c.336-.304.52-.64.52-.64.184-.336.184-.704.184-.704 0-.504-.3-.846-.3-.846-.3-.34-.86-.34-.86-.34-.47 0-.77.293-.77.293-.3.294-.3.788-.3.788 0 .304.13.52.13.52.13.215.34.383.34.383.22.168.5.3.5.3.28.13.59.246.59.246zm0 0zm-2.668 1.944c0-.326.11-.604.11-.604.11-.28.28-.504.28-.504.17-.226.4-.4.4-.4.22-.173.46-.3.46-.3v-.04c-.37-.264-.65-.637-.65-.637-.29-.372-.29-.908-.29-.908 0-.39.14-.704.14-.704.14-.31.4-.54.4-.54.25-.22.6-.35.6-.35.34-.12.75-.12.75-.12.44 0 .79.13.79.13.34.14.59.37.59.37.24.24.37.57.37.57.13.33.13.72.13.72 0 .26-.09.51-.09.51-.09.24-.22.45-.22.45-.13.21-.3.38-.3.38-.17.17-.32.28-.32.28v.04c.22.13.43.29.43.29.21.16.37.37.37.37.16.21.26.47.26.47.1.27.1.6.1.6 0 .38-.16.71-.16.71-.16.33-.44.57-.44.57-.29.25-.68.38-.68.38-.4.14-.89.14-.89.14-.47 0-.88-.14-.88-.14-.4-.13-.69-.38-.69-.38-.29-.24-.46-.58-.46-.58-.17-.33-.17-.73-.17-.73zm4.79 1.712zm.68-.525c0-.305.18-.49.18-.49.18-.182.44-.182.44-.182.25 0 .43.183.43.183.18.184.18.49.18.49 0 .282-.18.466-.18.466-.19.184-.44.184-.44.184-.26 0-.45-.184-.45-.184-.18-.184-.18-.467-.18-.467zm1.93.525zm2.61.126c-1.02 0-1.59-.903-1.59-.903-.57-.904-.57-2.595-.57-2.595 0-1.69.56-2.573.56-2.573.57-.883 1.59-.883 1.59-.883 1.01 0 1.57.883 1.57.883.57.882.57 2.573.57 2.573 0 1.69-.57 2.595-.57 2.595-.57.903-1.58.903-1.58.903zm0 0zm0-.693c.29 0 .53-.163.53-.163.23-.163.41-.504.41-.504.17-.342.26-.872.26-.872.09-.53.09-1.266.09-1.266 0-.735-.1-1.26-.1-1.26-.1-.525-.27-.856-.27-.856-.18-.33-.41-.49-.41-.49-.24-.156-.53-.156-.53-.156-.3 0-.54.157-.54.157-.25.158-.42.49-.42.49-.18.33-.27.855-.27.855-.1.525-.1 1.26-.1 1.26 0 1.47.36 2.138.36 2.138.36.667.95.667.95.667zm2.6.567zm.68-.525c0-.305.18-.49.18-.49.18-.182.44-.182.44-.182.25 0 .44.183.44.183.18.184.18.49.18.49 0 .282-.19.466-.19.466-.19.184-.44.184-.44.184-.26 0-.45-.184-.45-.184-.19-.184-.19-.467-.19-.467zm1.93.525zm.42-.515c.75-.756 1.34-1.365 1.34-1.365.58-.61.98-1.13.98-1.13.4-.52.61-.955.61-.955.21-.436.21-.846.21-.846 0-.58-.32-.95-.32-.95-.32-.37-.96-.37-.96-.37-.42 0-.78.23-.78.23-.36.23-.65.57-.65.57l-.5-.5c.42-.46.89-.74.89-.74.47-.28 1.13-.28 1.13-.28.93 0 1.47.54 1.47.54.54.54.54 1.43.54 1.43 0 .47-.21.95-.21.95-.21.48-.57.98-.57.98-.36.51-.86 1.06-.86 1.06-.5.55-1.1 1.17-1.1 1.17l.57-.04c.29-.02.55-.02.55-.02H170v.75h-4.33v-.52zm4.8.515zm.68-4.317c0-.305.18-.49.18-.49.18-.182.44-.182.44-.182.25 0 .43.19.43.19.18.19.18.49.18.49 0 .28-.19.47-.19.47-.19.19-.44.19-.44.19-.26 0-.45-.18-.45-.18-.18-.18-.18-.46-.18-.46zm0 0zm0 3.792c0-.305.18-.49.18-.49.18-.182.44-.182.44-.182.25 0 .43.183.43.183.18.184.18.49.18.49 0 .282-.19.466-.19.466-.19.184-.44.184-.44.184-.26 0-.45-.184-.45-.184-.18-.184-.18-.467-.18-.467zm4.05.525zm1.21-1.796c0 .283.11.515.11.515.11.23.3.4.3.4.19.17.46.27.46.27.26.09.57.09.57.09.59 0 .95-.33.95-.33.36-.33.36-.85.36-.85 0-.33-.15-.56-.15-.56-.15-.23-.4-.41-.4-.41-.25-.18-.58-.32-.58-.32-.33-.15-.69-.29-.69-.29-.4.27-.67.63-.67.63-.27.36-.27.82-.27.82zm0 0zm1.89-1.86c.33-.304.52-.64.52-.64.18-.336.18-.704.18-.704 0-.504-.3-.846-.3-.846-.31-.34-.86-.34-.86-.34-.48 0-.78.293-.78.293-.31.294-.31.788-.31.788 0 .304.12.52.12.52.12.215.34.383.34.383.21.168.49.3.49.3.28.13.58.246.58.246zm0 0zm-2.67 1.944c0-.326.11-.604.11-.604.11-.28.28-.504.28-.504.17-.226.4-.4.4-.4.22-.173.46-.3.46-.3v-.04c-.37-.264-.65-.637-.65-.637-.29-.372-.29-.908-.29-.908 0-.39.14-.704.14-.704.15-.31.4-.54.4-.54.25-.22.6-.35.6-.35.34-.12.75-.12.75-.12.44 0 .78.13.78.13.34.14.59.37.59.37.24.24.37.57.37.57.13.33.13.72.13.72 0 .26-.09.51-.09.51-.09.24-.22.45-.22.45-.13.21-.29.38-.29.38-.16.17-.32.28-.32.28v.04c.22.13.43.29.43.29.21.16.37.37.37.37.16.21.26.47.26.47.1.27.1.6.1.6 0 .38-.16.71-.16.71-.16.33-.44.57-.44.57-.29.25-.69.38-.69.38-.4.14-.88.14-.88.14-.48 0-.88-.14-.88-.14-.41-.13-.69-.38-.69-.38-.29-.24-.46-.58-.46-.58-.17-.33-.17-.73-.17-.73zm4.79 1.712zm.83-.714h1.53v-4.937h-1.21v-.56c.46-.09.8-.21.8-.21.34-.12.61-.29.61-.29h.66v5.99h1.39v.72h-3.78v-.72zm4.39.714zm.68-1.355c.29.305.7.536.7.536.41.24.99.24.99.24.3 0 .57-.11.57-.11.26-.11.46-.31.46-.31.2-.2.31-.48.31-.48.11-.28.11-.63.11-.63 0-.69-.39-1.08-.39-1.08-.39-.39-1.04-.39-1.04-.39-.35 0-.6.11-.6.11-.24.11-.55.31-.55.31l-.46-.29.22-3.22h3.35v.75h-2.6l-.18 1.99c.24-.13.48-.2.48-.2.24-.07.54-.07.54-.07.43 0 .81.13.81.13.38.13.66.39.66.39.28.26.45.65.45.65.16.4.16.94.16.94 0 .55-.19.97-.19.97-.19.42-.5.71-.5.71-.31.29-.72.44-.72.44-.4.15-.84.15-.84.15-.4 0-.73-.08-.73-.08-.33-.08-.6-.2-.6-.2-.27-.12-.49-.28-.49-.28-.22-.16-.39-.34-.39-.34zM236.38 758zm1.207-1.796c0 .283.11.515.11.515.11.23.303.4.303.4.192.17.454.27.454.27.264.09.568.09.568.09.59 0 .95-.33.95-.33.364-.33.364-.85.364-.85 0-.33-.15-.56-.15-.56-.15-.23-.4-.41-.4-.41-.25-.18-.584-.32-.584-.32-.33-.15-.686-.29-.686-.29-.4.27-.665.63-.665.63-.27.36-.27.82-.27.82zm0 0zm1.89-1.86c.335-.304.52-.64.52-.64.183-.336.183-.704.183-.704 0-.504-.308-.846-.308-.846-.305-.34-.86-.34-.86-.34-.474 0-.78.293-.78.293-.304.294-.304.788-.304.788 0 .304.13.52.13.52.126.215.34.383.34.383.213.168.49.3.49.3.28.13.585.246.585.246zm0 0zm-2.67 1.944c0-.326.11-.604.11-.604.11-.28.285-.504.285-.504.175-.226.4-.4.4-.4.227-.173.47-.3.47-.3v-.04c-.37-.264-.653-.637-.653-.637-.29-.372-.29-.908-.29-.908 0-.39.14-.704.14-.704.15-.31.4-.54.4-.54.25-.22.6-.35.6-.35.34-.12.75-.12.75-.12.44 0 .79.13.79.13.34.14.59.37.59.37.25.24.38.57.38.57.13.33.13.72.13.72 0 .26-.09.51-.09.51-.09.24-.22.45-.22.45-.13.21-.3.38-.3.38-.16.17-.32.28-.32.28v.04c.22.13.43.29.43.29.21.16.37.37.37.37.16.21.26.47.26.47.1.27.1.6.1.6 0 .38-.16.71-.16.71-.16.33-.44.57-.44.57-.29.25-.69.38-.69.38-.4.14-.88.14-.88.14-.48 0-.88-.14-.88-.14-.4-.13-.69-.38-.69-.38-.29-.24-.46-.58-.46-.58-.17-.33-.17-.73-.17-.73zM241.6 758zm.684-.525c0-.305.183-.49.183-.49.184-.182.447-.182.447-.182.25 0 .435.183.435.183.18.184.18.49.18.49 0 .282-.19.466-.19.466-.18.184-.44.184-.44.184-.27 0-.45-.184-.45-.184-.19-.184-.19-.467-.19-.467zm1.932.525zm2.614.126c-1.02 0-1.586-.903-1.586-.903-.567-.904-.567-2.595-.567-2.595 0-1.69.568-2.573.568-2.573.568-.883 1.587-.883 1.587-.883 1.01 0 1.576.883 1.576.883.568.882.568 2.573.568 2.573 0 1.69-.564 2.595-.564 2.595-.567.903-1.576.903-1.576.903zm0 0zm0-.693c.294 0 .53-.163.53-.163.237-.163.41-.504.41-.504.174-.342.268-.872.268-.872.095-.53.095-1.266.095-1.266 0-.735-.092-1.26-.092-1.26-.09-.525-.26-.856-.26-.856-.17-.33-.41-.49-.41-.49-.23-.156-.53-.156-.53-.156-.29 0-.53.157-.53.157-.24.158-.41.49-.41.49-.17.33-.27.855-.27.855-.09.525-.09 1.26-.09 1.26 0 1.47.36 2.138.36 2.138.36.667.95.667.95.667zm2.605.567zm.682-.525c0-.305.184-.49.184-.49.19-.182.45-.182.45-.182.26 0 .44.183.44.183.19.184.19.49.19.49 0 .282-.18.466-.18.466-.18.184-.43.184-.43.184-.26 0-.45-.184-.45-.184-.18-.184-.18-.467-.18-.467zm1.933.525zm.83-.714h1.53v-4.937h-1.21v-.56c.462-.09.803-.21.803-.21.342-.12.615-.29.615-.29h.663v5.99h1.39v.72h-3.78v-.72zm4.39.714zm.68-4.317c0-.305.184-.49.184-.49.183-.182.445-.182.445-.182.25 0 .43.19.43.19.18.19.18.49.18.49 0 .28-.19.47-.19.47-.19.19-.44.19-.44.19-.26 0-.45-.18-.45-.18-.19-.18-.19-.46-.19-.46zm0 0zm0 3.792c0-.305.184-.49.184-.49.183-.182.445-.182.445-.182.25 0 .43.183.43.183.18.184.18.49.18.49 0 .282-.19.466-.19.466-.19.184-.44.184-.44.184-.26 0-.45-.184-.45-.184-.19-.184-.19-.467-.19-.467zm4.055.525zm.42-.515c.757-.756 1.346-1.365 1.346-1.365.59-.61.99-1.13.99-1.13.4-.52.61-.955.61-.955.21-.436.21-.846.21-.846 0-.58-.31-.95-.31-.95-.31-.37-.95-.37-.95-.37-.42 0-.77.23-.77.23-.35.23-.65.57-.65.57l-.49-.5c.42-.46.89-.74.89-.74.48-.28 1.14-.28 1.14-.28.94 0 1.47.54 1.47.54.54.54.54 1.43.54 1.43 0 .47-.2.95-.2.95-.2.48-.57.98-.57.98-.36.51-.86 1.06-.86 1.06-.5.55-1.1 1.17-1.1 1.17l.57-.04c.3-.02.56-.02.56-.02h1.95v.75h-4.33v-.52zm4.8.515zm.684-1.355c.29.305.7.536.7.536.4.24.99.24.99.24.3 0 .57-.11.57-.11.27-.11.46-.31.46-.31.2-.2.31-.48.31-.48.11-.28.11-.63.11-.63 0-.69-.39-1.08-.39-1.08-.39-.39-1.04-.39-1.04-.39-.35 0-.6.11-.6.11-.25.11-.55.31-.55.31l-.46-.29.22-3.22h3.35v.75H269l-.18 1.99c.243-.13.485-.2.485-.2.24-.07.547-.07.547-.07.43 0 .81.13.81.13.376.13.66.39.66.39.283.26.446.65.446.65.165.4.165.94.165.94 0 .55-.19.97-.19.97-.19.42-.506.71-.506.71-.32.29-.72.44-.72.44-.408.15-.85.15-.85.15-.4 0-.73-.08-.73-.08-.33-.08-.6-.2-.6-.2-.27-.12-.483-.28-.483-.28-.216-.16-.384-.34-.384-.34zm4.54 1.355zm1.21-1.796c0 .283.11.515.11.515.11.23.3.4.3.4.19.17.46.27.46.27.26.09.56.09.56.09.59 0 .95-.33.95-.33.36-.33.36-.85.36-.85 0-.33-.15-.56-.15-.56-.15-.23-.4-.41-.4-.41-.26-.18-.59-.32-.59-.32-.34-.15-.69-.29-.69-.29-.4.27-.67.63-.67.63-.27.36-.27.82-.27.82zm0 0zm1.89-1.86c.33-.304.52-.64.52-.64.18-.336.18-.704.18-.704 0-.504-.31-.846-.31-.846-.31-.34-.86-.34-.86-.34-.48 0-.78.293-.78.293-.31.294-.31.788-.31.788 0 .304.12.52.12.52.12.215.34.383.34.383.21.168.49.3.49.3.27.13.58.246.58.246zm0 0zm-2.67 1.944c0-.326.11-.604.11-.604.11-.28.28-.504.28-.504.17-.226.4-.4.4-.4.22-.173.46-.3.46-.3v-.04c-.37-.264-.65-.637-.65-.637-.29-.372-.29-.908-.29-.908 0-.39.15-.704.15-.704.15-.31.4-.54.4-.54.25-.22.6-.35.6-.35.34-.12.75-.12.75-.12.44 0 .79.13.79.13.35.14.59.37.59.37.24.24.38.57.38.57.13.33.13.72.13.72 0 .26-.09.51-.09.51-.09.24-.22.45-.22.45-.14.21-.3.38-.3.38-.16.17-.32.28-.32.28v.04c.22.13.43.29.43.29.21.16.37.37.37.37.16.21.26.47.26.47.1.27.1.6.1.6 0 .38-.16.71-.16.71-.16.33-.44.57-.44.57-.29.25-.69.38-.69.38-.4.14-.88.14-.88.14-.47 0-.88-.14-.88-.14-.41-.13-.7-.38-.7-.38-.29-.24-.46-.58-.46-.58-.17-.33-.17-.73-.17-.73zM320.6 758zm1.86 0c.04-.945.167-1.733.167-1.733.12-.788.35-1.497.35-1.497.22-.71.58-1.37.58-1.37.35-.663.84-1.356.84-1.356h-3.34v-.746h4.315v.536c-.598.756-.97 1.45-.97 1.45-.374.693-.595 1.412-.595 1.412-.22.72-.32 1.524-.32 1.524-.1.803-.14 1.78-.14 1.78h-.893zm3.36 0zm.683-.525c0-.305.184-.49.184-.49.18-.182.44-.182.44-.182.252 0 .435.183.435.183.184.184.184.49.184.49 0 .282-.184.466-.184.466-.18.184-.434.184-.434.184-.263 0-.447-.184-.447-.184-.18-.184-.18-.467-.18-.467zm1.933.525zm.83-.714h1.534v-4.937h-1.22v-.56c.464-.09.806-.21.806-.21.34-.12.614-.29.614-.29h.67v5.99h1.386v.72h-3.78v-.72zm4.39.714zm2.616.126c-1.02 0-1.586-.903-1.586-.903-.567-.904-.567-2.595-.567-2.595 0-1.69.57-2.573.57-2.573.57-.883 1.59-.883 1.59-.883 1.01 0 1.57.883 1.57.883.57.882.57 2.573.57 2.573 0 1.69-.57 2.595-.57 2.595-.57.903-1.58.903-1.58.903zm0 0zm0-.693c.294 0 .53-.163.53-.163.237-.163.41-.504.41-.504.174-.342.268-.872.268-.872.096-.53.096-1.266.096-1.266 0-.735-.095-1.26-.095-1.26-.09-.525-.26-.856-.26-.856-.17-.33-.41-.49-.41-.49-.23-.156-.53-.156-.53-.156-.29 0-.53.157-.53.157-.25.158-.42.49-.42.49-.17.33-.27.855-.27.855-.09.525-.09 1.26-.09 1.26 0 1.47.37 2.138.37 2.138.37.667.95.667.95.667zm2.605.567zm.68-.525c0-.305.18-.49.18-.49.184-.182.446-.182.446-.182.252 0 .436.183.436.183.18.184.18.49.18.49 0 .282-.18.466-.18.466-.19.184-.44.184-.44.184-.26 0-.45-.184-.45-.184-.19-.184-.19-.467-.19-.467zm1.93.525zm.713-1.387c.305.315.71.557.71.557.404.242 1.003.242 1.003.242.61 0 1-.33 1-.33.387-.332.387-.9.387-.9 0-.293-.11-.54-.11-.54-.11-.247-.362-.426-.362-.426-.25-.178-.66-.273-.66-.273-.41-.094-1.01-.094-1.01-.094v-.67c.536 0 .9-.1.9-.1.36-.1.586-.26.586-.26.227-.17.322-.4.322-.4.092-.23.092-.5.092-.5 0-.5-.31-.78-.31-.78-.31-.29-.845-.29-.845-.29-.42 0-.77.19-.77.19-.35.18-.658.49-.658.49l-.463-.55c.39-.37.857-.61.857-.61.46-.24 1.06-.24 1.06-.24.44 0 .81.11.81.11.36.11.63.33.63.33.27.21.41.53.41.53.15.31.15.72.15.72 0 .61-.34 1-.34 1-.34.39-.89.6-.89.6v.04c.3.07.57.21.57.21.26.14.46.35.46.35.2.21.31.5.31.5.11.28.11.63.11.63 0 .44-.18.79-.18.79-.18.35-.47.6-.47.6-.3.25-.7.38-.7.38-.4.13-.86.13-.86.13-.4 0-.73-.08-.73-.08-.33-.08-.6-.21-.6-.21-.27-.13-.49-.3-.49-.3-.22-.17-.38-.36-.38-.36zm4.51 1.387zm.684-4.317c0-.305.184-.49.184-.49.183-.182.445-.182.445-.182.252 0 .436.19.436.19.18.19.18.49.18.49 0 .28-.19.47-.19.47-.19.19-.44.19-.44.19-.26 0-.45-.18-.45-.18-.19-.18-.19-.46-.19-.46zm0 0zm0 3.792c0-.305.184-.49.184-.49.183-.182.445-.182.445-.182.252 0 .436.183.436.183.18.184.18.49.18.49 0 .282-.19.466-.19.466-.19.184-.44.184-.44.184-.26 0-.45-.184-.45-.184-.19-.184-.19-.467-.19-.467zm4.055.525zm.42-.515c.75-.756 1.34-1.365 1.34-1.365.59-.61.99-1.13.99-1.13.4-.52.61-.955.61-.955.21-.436.21-.846.21-.846 0-.58-.32-.95-.32-.95-.32-.37-.96-.37-.96-.37-.42 0-.78.23-.78.23-.36.23-.66.57-.66.57l-.49-.5c.42-.46.89-.74.89-.74.47-.28 1.13-.28 1.13-.28.93 0 1.47.54 1.47.54.53.54.53 1.43.53 1.43 0 .47-.21.95-.21.95-.21.48-.57.98-.57.98-.36.51-.86 1.06-.86 1.06-.5.55-1.1 1.17-1.1 1.17l.57-.04c.29-.02.55-.02.55-.02h1.94v.75h-4.33v-.52zm4.8.515zm.68-1.355c.29.305.7.536.7.536.4.24.99.24.99.24.3 0 .57-.11.57-.11.27-.11.46-.31.46-.31.2-.2.31-.48.31-.48.11-.28.11-.63.11-.63 0-.69-.39-1.08-.39-1.08-.39-.39-1.04-.39-1.04-.39-.35 0-.59.11-.59.11-.25.11-.55.31-.55.31l-.46-.29.22-3.22h3.35v.75h-2.6l-.18 1.99c.24-.13.48-.2.48-.2.24-.07.55-.07.55-.07.43 0 .81.13.81.13.38.13.66.39.66.39.28.26.45.65.45.65.16.4.16.94.16.94 0 .55-.19.97-.19.97-.19.42-.51.71-.51.71-.32.29-.72.44-.72.44-.41.15-.85.15-.85.15-.4 0-.73-.08-.73-.08-.33-.08-.6-.2-.6-.2-.27-.12-.49-.28-.49-.28-.22-.16-.39-.34-.39-.34zm4.54 1.355zm1.86 0c.04-.945.16-1.733.16-1.733.12-.788.35-1.497.35-1.497.22-.71.58-1.37.58-1.37.35-.663.84-1.356.84-1.356h-3.34v-.746h4.31v.536c-.6.756-.97 1.45-.97 1.45-.38.693-.6 1.412-.6 1.412-.22.72-.32 1.524-.32 1.524-.1.803-.14 1.78-.14 1.78h-.9zm46.3 0zm1.86 0c.04-.945.16-1.733.16-1.733.13-.788.35-1.497.35-1.497.22-.71.57-1.37.57-1.37.35-.663.84-1.356.84-1.356h-3.34v-.746h4.31v.536c-.6.756-.97 1.45-.97 1.45-.37.693-.59 1.412-.59 1.412-.22.72-.32 1.524-.32 1.524-.1.803-.14 1.78-.14 1.78h-.9zm3.36 0zm.68-.525c0-.305.18-.49.18-.49.18-.182.45-.182.45-.182.25 0 .43.183.43.183.18.184.18.49.18.49 0 .282-.19.466-.19.466-.19.184-.44.184-.44.184-.26 0-.45-.184-.45-.184-.19-.184-.19-.467-.19-.467zm1.93.525zm.83-.714h1.53v-4.937h-1.22v-.56c.46-.09.8-.21.8-.21.34-.12.61-.29.61-.29h.66v5.99h1.38v.72h-3.78v-.72zm4.39.714zm2.61.126c-1.02 0-1.59-.903-1.59-.903-.57-.904-.57-2.595-.57-2.595 0-1.69.56-2.573.56-2.573.56-.883 1.58-.883 1.58-.883 1.01 0 1.57.883 1.57.883.57.882.57 2.573.57 2.573 0 1.69-.57 2.595-.57 2.595-.57.903-1.57.903-1.57.903zm0 0zm0-.693c.29 0 .53-.163.53-.163.23-.163.41-.504.41-.504.17-.342.27-.872.27-.872.09-.53.09-1.266.09-1.266 0-.735-.1-1.26-.1-1.26-.1-.525-.27-.856-.27-.856-.18-.33-.41-.49-.41-.49-.24-.156-.53-.156-.53-.156-.3 0-.54.157-.54.157-.24.158-.42.49-.42.49-.17.33-.27.855-.27.855-.1.525-.1 1.26-.1 1.26 0 1.47.36 2.138.36 2.138.36.667.95.667.95.667zm2.6.567zm.68-.525c0-.305.18-.49.18-.49.18-.182.44-.182.44-.182.25 0 .43.183.43.183.18.184.18.49.18.49 0 .282-.18.466-.18.466-.19.184-.44.184-.44.184-.27 0-.45-.184-.45-.184-.19-.184-.19-.467-.19-.467zm1.93.525zm.42-.515c.75-.756 1.34-1.365 1.34-1.365.59-.61.99-1.13.99-1.13.39-.52.6-.955.6-.955.21-.436.21-.846.21-.846 0-.58-.31-.95-.31-.95-.32-.37-.96-.37-.96-.37-.42 0-.78.23-.78.23-.36.23-.65.57-.65.57l-.49-.5c.42-.46.89-.74.89-.74.47-.28 1.13-.28 1.13-.28.93 0 1.47.54 1.47.54.53.54.53 1.43.53 1.43 0 .47-.21.95-.21.95-.2.48-.57.98-.57.98-.37.51-.86 1.06-.86 1.06-.5.55-1.1 1.17-1.1 1.17l.56-.04c.29-.02.55-.02.55-.02h1.95v.75h-4.33v-.52zm4.8.515zm.68-4.317c0-.305.18-.49.18-.49.18-.182.44-.182.44-.182.25 0 .43.19.43.19.18.19.18.49.18.49 0 .28-.19.47-.19.47-.18.19-.43.19-.43.19-.26 0-.45-.18-.45-.18-.19-.18-.19-.46-.19-.46zm0 0zm0 3.792c0-.305.18-.49.18-.49.18-.182.44-.182.44-.182.25 0 .43.183.43.183.18.184.18.49.18.49 0 .282-.19.466-.19.466-.18.184-.43.184-.43.184-.26 0-.45-.184-.45-.184-.19-.184-.19-.467-.19-.467zm4.05.525zm2.81-.557c.25 0 .46-.105.46-.105.21-.105.37-.3.37-.3.15-.193.24-.46.24-.46.09-.27.09-.605.09-.605 0-.662-.31-1.04-.31-1.04-.3-.378-.93-.378-.93-.378-.32 0-.69.204-.69.204-.38.2-.71.67-.71.67.08.98.45 1.49.45 1.49.37.51 1.01.51 1.01.51zm0 0zm1.38-5.02c-.21-.242-.5-.384-.5-.384-.29-.15-.61-.15-.61-.15-.35 0-.66.14-.66.14-.32.14-.56.48-.56.48-.24.33-.39.87-.39.87-.15.54-.16 1.34-.16 1.34.31-.39.73-.62.73-.62.42-.23.83-.23.83-.23.87 0 1.39.51 1.39.51.52.51.52 1.55.52 1.55 0 .48-.16.88-.16.88-.16.39-.43.67-.43.67-.28.28-.63.44-.63.44-.36.15-.77.15-.77.15-.5 0-.92-.2-.92-.2-.42-.2-.73-.61-.73-.61-.31-.4-.49-1.01-.49-1.01-.18-.6-.18-1.41-.18-1.41 0-1.01.21-1.72.21-1.72.21-.71.57-1.15.57-1.15.35-.45.81-.65.81-.65.45-.21.96-.21.96-.21.54 0 .94.2.94.2.39.2.68.51.68.51zM446.1 758zm2.467-3.256c.33 0 .7-.205.7-.205.377-.21.71-.69.71-.69-.08-.99-.46-1.49-.46-1.49-.38-.51-1.02-.51-1.02-.51-.24 0-.455.1-.455.1-.21.1-.37.3-.37.3-.154.19-.244.46-.244.46-.09.27-.09.6-.09.6 0 .66.305 1.04.305 1.04.305.37.936.37.936.37zm0 0zm-1.45 2.132c.21.242.5.39.5.39.29.146.607.146.607.146.357 0 .67-.147.67-.147.315-.147.557-.49.557-.49.24-.34.39-.886.39-.886.15-.55.16-1.36.16-1.36-.31.4-.73.63-.73.63-.42.23-.84.23-.84.23-.87 0-1.39-.52-1.39-.52-.52-.52-.52-1.56-.52-1.56 0-.49.16-.88.16-.88.16-.4.43-.68.43-.68.27-.28.63-.44.63-.44.36-.16.76-.16.76-.16.49 0 .92.2.92.2.42.2.73.6.73.6.31.4.48 1.01.48 1.01.18.6.18 1.41.18 1.41 0 1.01-.21 1.72-.21 1.72-.21.71-.56 1.15-.56 1.15-.35.44-.81.65-.81.65-.46.2-.96.2-.96.2-.53 0-.94-.2-.94-.2-.4-.2-.68-.51-.68-.51zM496.87 758zm1.858 0c.042-.945.168-1.733.168-1.733.126-.788.352-1.497.352-1.497.226-.71.578-1.37.578-1.37.35-.663.845-1.356.845-1.356h-3.34v-.746h4.32v.536c-.6.756-.97 1.45-.97 1.45-.37.693-.59 1.412-.59 1.412-.22.72-.32 1.524-.32 1.524-.1.803-.14 1.78-.14 1.78h-.89zm3.36 0zm.684-.525c0-.305.184-.49.184-.49.184-.182.446-.182.446-.182.252 0 .436.183.436.183.184.184.184.49.184.49 0 .282-.184.466-.184.466-.184.184-.436.184-.436.184-.262 0-.446-.184-.446-.184-.184-.184-.184-.467-.184-.467zm1.933.525zm.83-.714h1.533v-4.937h-1.218v-.56c.462-.09.803-.21.803-.21.342-.12.615-.29.615-.29h.662v5.99h1.386v.72h-3.78v-.72zm4.39.714zm2.616.126c-1.01 0-1.58-.903-1.58-.903-.56-.904-.56-2.595-.56-2.595 0-1.69.57-2.573.57-2.573.57-.883 1.59-.883 1.59-.883 1.01 0 1.58.883 1.58.883.57.882.57 2.573.57 2.573 0 1.69-.56 2.595-.56 2.595-.57.903-1.58.903-1.58.903zm0 0zm0-.693c.3 0 .54-.163.54-.163.24-.163.41-.504.41-.504.18-.342.27-.872.27-.872.1-.53.1-1.266.1-1.266 0-.735-.09-1.26-.09-1.26-.09-.525-.27-.856-.27-.856-.17-.33-.41-.49-.41-.49-.23-.156-.53-.156-.53-.156-.29 0-.53.157-.53.157-.24.158-.41.49-.41.49-.17.33-.27.855-.27.855-.09.525-.09 1.26-.09 1.26 0 1.47.36 2.138.36 2.138.36.667.95.667.95.667zm2.61.567zm.69-.525c0-.305.19-.49.19-.49.19-.182.45-.182.45-.182.25 0 .44.183.44.183.18.184.18.49.18.49 0 .282-.18.466-.18.466-.18.184-.43.184-.43.184-.26 0-.44-.184-.44-.184-.18-.184-.18-.467-.18-.467zm1.94.525zm.83-.714h1.54v-4.937h-1.22v-.56c.47-.09.81-.21.81-.21.34-.12.62-.29.62-.29h.66v5.99h1.39v.72h-3.78v-.72zM523 758zm.682-4.317c0-.305.184-.49.184-.49.18-.182.444-.182.444-.182.253 0 .437.19.437.19.186.19.186.49.186.49 0 .28-.183.47-.183.47-.18.19-.434.19-.434.19-.26 0-.445-.18-.445-.18-.18-.18-.18-.46-.18-.46zm0 0zm0 3.792c0-.305.184-.49.184-.49.18-.182.444-.182.444-.182.253 0 .437.183.437.183.186.184.186.49.186.49 0 .282-.183.466-.183.466-.18.184-.434.184-.434.184-.26 0-.445-.184-.445-.184-.18-.184-.18-.467-.18-.467zm4.055.525zm3.195-2.542v-1.943c0-.273.015-.646.015-.646.013-.38.034-.65.034-.65h-.04c-.12.24-.26.47-.26.47-.13.23-.28.47-.28.47l-1.56 2.29h2.1zm0 0zm1.732.693h-.912V758h-.82v-1.85h-3.02v-.566l2.87-4.286h.966v4.16h.914v.693zm.296 1.85zm.713-1.38c.306.32.71.56.71.56.405.25 1.004.25 1.004.25.61 0 .997-.33.997-.33.39-.33.39-.9.39-.9 0-.29-.11-.54-.11-.54-.11-.24-.366-.42-.366-.42-.25-.18-.66-.27-.66-.27-.41-.09-1.01-.09-1.01-.09v-.66c.538 0 .9-.1.9-.1.363-.09.59-.26.59-.26.224-.17.32-.4.32-.4.093-.23.093-.49.093-.49 0-.5-.3-.78-.3-.78-.31-.28-.85-.28-.85-.28-.42 0-.77.19-.77.19-.35.19-.65.5-.65.5l-.46-.55c.39-.37.86-.61.86-.61.47-.24 1.07-.24 1.07-.24.44 0 .81.12.81.12.37.12.64.33.64.33.27.22.42.53.42.53.15.32.15.73.15.73 0 .61-.33 1-.33 1-.34.39-.88.6-.88.6v.04c.31.08.57.22.57.22.26.14.46.36.46.36.2.22.31.5.31.5.11.29.11.63.11.63 0 .44-.17.8-.17.8-.18.36-.48.61-.48.61-.3.25-.7.38-.7.38-.4.13-.86.13-.86.13-.4 0-.73-.08-.73-.08-.33-.08-.6-.21-.6-.21-.27-.13-.49-.3-.49-.3-.22-.16-.38-.35-.38-.35zm52.56 1.38zm1.86 0c.044-.94.17-1.73.17-1.73.127-.79.353-1.49.353-1.49.226-.71.578-1.37.578-1.37.354-.66.848-1.35.848-1.35h-3.34v-.74h4.317v.54c-.59.76-.97 1.45-.97 1.45-.37.69-.59 1.41-.59 1.41-.22.72-.32 1.53-.32 1.53-.1.8-.14 1.78-.14 1.78h-.89zm3.364 0zm.683-.52c0-.3.183-.49.183-.49.184-.18.447-.18.447-.18.252 0 .436.19.436.19.19.19.19.49.19.49 0 .28-.18.47-.18.47-.18.19-.432.19-.432.19-.26 0-.444-.18-.444-.18-.182-.18-.182-.46-.182-.46zm1.932.53zm1.206-1.79c0 .29.11.52.11.52.11.23.305.4.305.4.195.17.458.27.458.27.26.09.57.09.57.09.59 0 .95-.33.95-.33.37-.32.37-.85.37-.85 0-.33-.15-.56-.15-.56-.14-.23-.4-.4-.4-.4-.25-.17-.58-.31-.58-.31-.33-.14-.69-.29-.69-.29-.4.28-.66.64-.66.64-.26.36-.26.83-.26.83zm0 0zm1.89-1.86c.337-.3.52-.64.52-.64.185-.33.185-.7.185-.7 0-.5-.304-.84-.304-.84-.31-.34-.86-.34-.86-.34-.48 0-.78.3-.78.3-.31.3-.31.79-.31.79 0 .31.12.52.12.52.12.22.34.39.34.39.21.17.49.3.49.3.28.13.58.25.58.25zm0 0zm-2.668 1.94c0-.32.11-.6.11-.6.11-.28.288-.5.288-.5.173-.23.4-.4.4-.4.225-.17.466-.3.466-.3v-.04c-.367-.26-.65-.64-.65-.64-.285-.37-.285-.91-.285-.91 0-.39.14-.7.14-.7.15-.31.4-.54.4-.54.26-.22.6-.35.6-.35.35-.12.76-.12.76-.12.44 0 .79.13.79.13.35.14.6.37.6.37.25.24.38.57.38.57.13.33.13.72.13.72 0 .26-.09.5-.09.5-.09.24-.22.45-.22.45-.14.21-.3.38-.3.38-.17.17-.32.28-.32.28v.04c.22.13.43.29.43.29.21.16.37.37.37.37.16.21.26.47.26.47.1.27.1.6.1.6 0 .38-.16.71-.16.71-.16.33-.44.57-.44.57-.29.25-.68.38-.68.38-.4.14-.89.14-.89.14-.48 0-.88-.14-.88-.14-.41-.13-.7-.38-.7-.38-.29-.24-.46-.58-.46-.58-.17-.33-.17-.73-.17-.73zm4.79 1.71zm.687-.52c0-.3.19-.49.19-.49.19-.18.45-.18.45-.18.257 0 .44.19.44.19.184.19.184.49.184.49 0 .29-.18.47-.18.47-.18.19-.44.19-.44.19-.26 0-.44-.18-.44-.18-.18-.18-.18-.46-.18-.46zm1.94.53zm3.2-2.54v-1.94c0-.27.015-.64.015-.64.016-.38.037-.65.037-.65h-.04c-.13.24-.27.47-.27.47l-.28.47-1.57 2.29h2.1zm0 0zm1.733.69h-.914V758h-.82v-1.85H602.1v-.566l2.867-4.286h.97v4.16h.914v.693zm.294 1.85zm.685-4.31c0-.3.18-.49.18-.49.18-.18.45-.18.45-.18.25 0 .43.19.43.19.18.19.18.49.18.49 0 .28-.18.47-.18.47-.19.19-.44.19-.44.19-.27 0-.45-.18-.45-.18-.19-.18-.19-.46-.19-.46zm0 0zm0 3.79c0-.3.18-.49.18-.49.18-.18.45-.18.45-.18.25 0 .43.19.43.19.18.19.18.49.18.49 0 .28-.18.47-.18.47-.19.19-.44.19-.44.19-.27 0-.45-.18-.45-.18-.19-.18-.19-.47-.19-.47zm4.05.53zm.68-1.35c.29.31.7.54.7.54.4.23.99.23.99.23.3 0 .57-.11.57-.11.27-.11.47-.31.47-.31.2-.2.31-.48.31-.48.11-.28.11-.63.11-.63 0-.69-.39-1.08-.39-1.08-.39-.39-1.04-.39-1.04-.39-.35 0-.6.11-.6.11-.25.11-.55.31-.55.31l-.47-.29.22-3.22h3.35v.75h-2.6l-.18 1.99c.24-.12.48-.2.48-.2.24-.07.54-.07.54-.07.43 0 .81.12.81.12.38.13.66.39.66.39.28.26.45.65.45.65.16.4.16.94.16.94 0 .55-.19.97-.19.97-.19.42-.5.71-.5.71-.32.29-.72.44-.72.44-.41.16-.85.16-.85.16-.4 0-.73-.08-.73-.08-.33-.08-.6-.2-.6-.2-.27-.12-.49-.28-.49-.28-.22-.16-.38-.34-.38-.34zm4.53 1.36zm1.2-1.79c0 .28.11.51.11.51.11.23.3.41.3.41.19.17.45.27.45.27.26.1.57.1.57.1.59 0 .95-.33.95-.33.36-.32.36-.85.36-.85 0-.32-.15-.55-.15-.55-.15-.23-.4-.4-.4-.4-.25-.17-.58-.31-.58-.31-.33-.14-.69-.29-.69-.29-.4.28-.67.64-.67.64-.27.37-.27.83-.27.83zm0 0zm1.89-1.86c.34-.3.52-.64.52-.64.18-.34.18-.7.18-.7 0-.5-.3-.84-.3-.84-.31-.34-.86-.34-.86-.34-.48 0-.78.29-.78.29-.31.3-.31.79-.31.79 0 .3.12.52.12.52.12.22.34.38.34.38.21.17.49.3.49.3.28.13.58.25.58.25zm0 0zm-2.67 1.94c0-.32.11-.6.11-.6.11-.28.28-.5.28-.5.17-.22.4-.4.4-.4.22-.17.47-.3.47-.3v-.04c-.37-.26-.65-.63-.65-.63-.29-.37-.29-.91-.29-.91 0-.39.15-.7.15-.7.14-.31.4-.54.4-.54.25-.22.6-.35.6-.35.34-.12.75-.12.75-.12.44 0 .79.13.79.13.34.13.59.37.59.37.25.24.38.57.38.57.13.33.13.72.13.72 0 .26-.09.5-.09.5-.09.24-.22.45-.22.45-.13.21-.3.38-.3.38-.17.17-.32.28-.32.28v.04c.22.13.43.29.43.29.21.16.37.37.37.37.16.21.26.47.26.47.1.27.1.6.1.6 0 .38-.16.71-.16.71-.16.32-.44.57-.44.57-.29.24-.68.38-.68.38-.4.14-.89.14-.89.14-.47 0-.88-.13-.88-.13-.4-.14-.69-.39-.69-.39-.29-.25-.46-.58-.46-.58-.17-.33-.17-.73-.17-.73zm55.56 1.71zm1.86 0c.04-.94.16-1.73.16-1.73.12-.79.35-1.5.35-1.5.22-.71.57-1.37.57-1.37.35-.66.85-1.35.85-1.35h-3.34v-.74h4.31v.53c-.6.76-.97 1.45-.97 1.45-.38.7-.6 1.41-.6 1.41-.22.72-.32 1.53-.32 1.53-.1.81-.14 1.78-.14 1.78h-.89zm3.36 0zm.68-.52c0-.3.18-.49.18-.49.18-.18.44-.18.44-.18.25 0 .43.19.43.19.18.18.18.49.18.49 0 .28-.19.46-.19.46-.19.19-.44.19-.44.19-.27 0-.45-.18-.45-.18-.18-.18-.18-.46-.18-.46zm1.93.53zm1.21-1.79c0 .28.11.51.11.51.11.23.31.41.31.41.19.17.45.27.45.27.26.1.56.1.56.1.59 0 .95-.33.95-.33.36-.33.36-.85.36-.85 0-.33-.15-.56-.15-.56-.15-.23-.4-.4-.4-.4-.26-.17-.59-.31-.59-.31l-.69-.29c-.4.28-.67.64-.67.64-.27.36-.27.83-.27.83zm0 0zm1.89-1.86c.34-.3.52-.64.52-.64.18-.34.18-.7.18-.7 0-.5-.3-.84-.3-.84-.31-.34-.86-.34-.86-.34-.47 0-.78.3-.78.3-.31.29-.31.79-.31.79 0 .3.12.52.12.52.13.21.34.38.34.38.22.17.49.3.49.3.27.13.58.24.58.24zm0 0zm-2.67 1.94c0-.32.11-.6.11-.6.11-.28.28-.51.28-.51.17-.23.4-.4.4-.4.22-.17.46-.3.46-.3v-.04c-.37-.27-.66-.64-.66-.64-.28-.37-.28-.91-.28-.91 0-.39.15-.7.15-.7.15-.31.4-.54.4-.54.25-.22.6-.35.6-.35.35-.13.76-.13.76-.13.44 0 .78.13.78.13.35.13.59.37.59.37.25.24.38.57.38.57.13.33.13.72.13.72 0 .26-.09.51-.09.51-.09.24-.22.45-.22.45-.13.21-.29.38-.29.38-.16.17-.32.28-.32.28v.04c.22.13.43.29.43.29.21.17.38.37.38.37.16.2.26.47.26.47.1.27.1.6.1.6 0 .38-.16.71-.16.71-.16.33-.44.57-.44.57-.29.24-.68.38-.68.38-.4.14-.89.14-.89.14-.48 0-.88-.14-.88-.14-.41-.13-.69-.38-.69-.38-.29-.25-.46-.58-.46-.58-.17-.34-.17-.74-.17-.74zm4.79 1.71zm.68-.52c0-.3.18-.49.18-.49.19-.18.45-.18.45-.18.25 0 .44.18.44.18.18.19.18.49.18.49 0 .28-.18.47-.18.47-.19.19-.44.19-.44.19-.26 0-.45-.18-.45-.18-.19-.18-.19-.47-.19-.47zm1.93.53zm.71-1.38c.3.31.71.56.71.56.4.25 1 .25 1 .25.61 0 1-.33 1-.33.39-.33.39-.9.39-.9 0-.29-.11-.54-.11-.54-.11-.24-.36-.42-.36-.42-.26-.18-.67-.27-.67-.27-.41-.09-1.01-.09-1.01-.09v-.66c.54 0 .9-.09.9-.09.36-.09.59-.26.59-.26.22-.17.32-.4.32-.4.09-.23.09-.49.09-.49 0-.49-.31-.77-.31-.77-.31-.28-.85-.28-.85-.28-.42 0-.78.19-.78.19-.35.18-.66.49-.66.49l-.46-.55c.38-.37.85-.61.85-.61.47-.24 1.06-.24 1.06-.24.44 0 .81.12.81.12.36.12.63.33.63.33.27.22.41.53.41.53.15.32.15.73.15.73 0 .61-.34 1-.34 1-.34.39-.88.6-.88.6v.04c.3.07.56.22.56.22.26.14.46.35.46.35.2.21.31.5.31.5.11.28.11.63.11.63 0 .44-.17.798-.17.798-.17.354-.47.6-.47.6-.3.25-.7.38-.7.38-.4.13-.86.13-.86.13-.4 0-.73-.08-.73-.08-.34-.08-.61-.21-.61-.21-.27-.13-.49-.3-.49-.3-.22-.167-.38-.356-.38-.356zm4.5 1.39zm.68-4.31c0-.3.18-.49.18-.49.18-.18.45-.18.45-.18.25 0 .43.19.43.19.19.19.19.49.19.49 0 .28-.18.47-.18.47-.18.19-.44.19-.44.19-.26 0-.45-.18-.45-.18-.19-.18-.19-.46-.19-.46zm0 0zm0 3.79c0-.3.18-.49.18-.49.18-.18.45-.18.45-.18.25 0 .43.18.43.18.19.19.19.49.19.49 0 .28-.18.47-.18.47-.18.19-.44.19-.44.19-.26 0-.45-.18-.45-.18-.19-.18-.19-.46-.19-.46zm4.05.53zm.83-.71h1.54v-4.94h-1.22v-.56c.46-.08.8-.2.8-.2.34-.12.61-.29.61-.29h.66v5.99h1.39v.71h-3.78v-.72zm4.39.71zm.69-1.35c.29.31.7.54.7.54.4.24.99.24.99.24.3 0 .57-.11.57-.11.27-.11.46-.31.46-.31.2-.2.32-.48.32-.48.12-.29.12-.63.12-.63 0-.7-.39-1.08-.39-1.08-.39-.39-1.04-.39-1.04-.39-.34 0-.59.11-.59.11-.25.11-.55.31-.55.31l-.46-.29.22-3.22h3.35v.75h-2.59l-.18 1.99c.24-.12.48-.2.48-.2.24-.07.54-.07.54-.07.43 0 .81.13.81.13.38.12.66.38.66.38.28.26.44.65.44.65.16.39.16.94.16.94 0 .55-.19.97-.19.97-.19.42-.51.71-.51.71-.31.29-.72.44-.72.44-.4.158-.84.158-.84.158-.39 0-.73-.08-.73-.08-.33-.08-.59-.21-.59-.21-.27-.13-.48-.29-.48-.29-.22-.16-.39-.34-.39-.34zm55.24 1.35zm1.86 0c.04-.94.17-1.73.17-1.73.12-.78.35-1.49.35-1.49.22-.71.58-1.37.58-1.37.35-.66.84-1.35.84-1.35h-3.34v-.75h4.31v.53c-.59.76-.97 1.45-.97 1.45-.37.7-.59 1.42-.59 1.42-.22.72-.32 1.53-.32 1.53-.1.8-.14 1.78-.14 1.78h-.89zm3.36 0zm.68-.52c0-.3.18-.49.18-.49.18-.18.44-.18.44-.18.25 0 .43.19.43.19.19.18.19.49.19.49 0 .28-.18.46-.18.46-.19.19-.44.19-.44.19-.27 0-.45-.18-.45-.18-.19-.19-.19-.47-.19-.47zm1.93.53zm1.2-1.79c0 .28.11.52.11.52.11.23.3.4.3.4.2.17.46.27.46.27.26.09.56.09.56.09.59 0 .95-.32.95-.32.36-.33.36-.85.36-.85 0-.33-.15-.56-.15-.56-.15-.23-.4-.4-.4-.4-.25-.17-.58-.31-.58-.31-.33-.14-.69-.29-.69-.29-.4.27-.67.63-.67.63-.26.36-.26.83-.26.83zm0 0zm1.89-1.86c.33-.3.52-.64.52-.64.18-.33.18-.7.18-.7 0-.5-.3-.84-.3-.84-.31-.34-.86-.34-.86-.34-.48 0-.78.29-.78.29-.31.3-.31.79-.31.79 0 .3.13.52.13.52.12.22.34.38.34.38.21.17.49.3.49.3.28.13.58.25.58.25zm0 0zm-2.67 1.95c0-.33.11-.6.11-.6.11-.28.28-.5.28-.5.17-.22.4-.4.4-.4.22-.17.47-.3.47-.3v-.04c-.37-.26-.66-.63-.66-.63-.29-.37-.29-.91-.29-.91 0-.39.15-.7.15-.7.14-.31.4-.54.4-.54.25-.22.6-.35.6-.35.34-.12.75-.12.75-.12.44 0 .79.13.79.13.34.13.59.37.59.37.25.24.38.57.38.57.13.33.13.72.13.72 0 .26-.09.51-.09.51-.09.24-.22.45-.22.45-.13.21-.29.38-.29.38-.17.17-.32.28-.32.28v.04c.22.13.43.29.43.29.21.16.37.37.37.37.16.21.26.47.26.47.1.27.1.6.1.6 0 .38-.16.71-.16.71-.16.33-.44.57-.44.57-.29.24-.69.38-.69.38-.4.14-.89.14-.89.14-.47 0-.88-.14-.88-.14-.4-.13-.69-.38-.69-.38-.29-.24-.46-.58-.46-.58-.17-.34-.17-.74-.17-.74zm4.79 1.71zm.68-.52c0-.3.19-.49.19-.49.18-.18.45-.18.45-.18.25 0 .43.18.43.18.18.19.18.49.18.49 0 .29-.19.47-.19.47-.19.19-.44.19-.44.19-.26 0-.44-.18-.44-.18-.19-.18-.19-.47-.19-.47zm1.94.53zm.42-.51c.76-.75 1.34-1.36 1.34-1.36.59-.61.99-1.13.99-1.13.4-.52.61-.95.61-.95.21-.43.21-.84.21-.84 0-.58-.32-.95-.32-.95-.32-.37-.96-.37-.96-.37-.42 0-.78.23-.78.23-.36.24-.66.57-.66.57l-.49-.49c.42-.46.89-.74.89-.74.47-.28 1.13-.28 1.13-.28.93 0 1.47.54 1.47.54.53.55.53 1.44.53 1.44 0 .47-.21.95-.21.95-.2.48-.57.99-.57.99-.36.51-.86 1.06-.86 1.06-.5.55-1.1 1.17-1.1 1.17l.57-.04c.29-.02.55-.02.55-.02h1.94v.75h-4.32v-.51zm4.8.52zm.68-4.32c0-.3.19-.49.19-.49.18-.18.44-.18.44-.18.25 0 .43.19.43.19.18.19.18.49.18.49 0 .28-.19.47-.19.47-.19.19-.44.19-.44.19-.27 0-.45-.18-.45-.18-.18-.18-.18-.47-.18-.47zm0 0zm0 3.79c0-.3.19-.49.19-.49.18-.18.44-.18.44-.18.25 0 .43.19.43.19.18.19.18.49.18.49 0 .28-.19.47-.19.47-.19.19-.44.19-.44.19-.27 0-.45-.18-.45-.18-.18-.18-.18-.46-.18-.46zm4.06.53zm.83-.71h1.53v-4.94h-1.21v-.56c.46-.09.8-.21.8-.21.34-.12.62-.29.62-.29h.66v5.99h1.38v.72h-3.78v-.71zm4.39.72zm.42-.52c.76-.75 1.34-1.36 1.34-1.36.58-.61.98-1.13.98-1.13.4-.52.61-.95.61-.95.21-.44.21-.85.21-.85 0-.58-.32-.95-.32-.95-.31-.37-.95-.37-.95-.37-.42 0-.77.24-.77.24-.36.24-.65.57-.65.57l-.5-.5c.42-.46.89-.74.89-.74.47-.28 1.13-.28 1.13-.28.94 0 1.47.54 1.47.54.54.54.54 1.43.54 1.43 0 .48-.21.95-.21.95-.21.48-.57.99-.57.99-.36.51-.86 1.06-.86 1.06-.5.56-1.1 1.17-1.1 1.17l.57-.04c.29-.02.55-.02.55-.02h1.94v.75h-4.33v-.52zm55.6.52zm1.86 0c.04-.94.17-1.73.17-1.73.12-.79.35-1.5.35-1.5.23-.71.58-1.37.58-1.37.35-.66.84-1.35.84-1.35h-3.34v-.75h4.32v.54c-.6.76-.97 1.45-.97 1.45-.37.7-.59 1.41-.59 1.41-.22.72-.32 1.52-.32 1.52-.1.8-.14 1.78-.14 1.78h-.89zm3.36 0zm.68-.52c0-.31.18-.49.18-.49.18-.18.45-.18.45-.18.25 0 .43.18.43.18.19.19.19.49.19.49 0 .28-.19.47-.19.47-.19.18-.44.18-.44.18-.26 0-.45-.18-.45-.18-.18-.18-.18-.46-.18-.46zm1.93.52zm1.21-1.8c0 .28.11.51.11.51.11.23.3.4.3.4.19.17.45.27.45.27.26.09.57.09.57.09.59 0 .95-.33.95-.33.36-.33.36-.85.36-.85 0-.33-.15-.56-.15-.56-.15-.23-.4-.4-.4-.4-.25-.18-.58-.32-.58-.32-.33-.14-.69-.29-.69-.29-.4.27-.67.64-.67.64-.27.36-.27.83-.27.83zm0 0zm1.89-1.86c.33-.31.52-.64.52-.64.18-.34.18-.71.18-.71 0-.5-.31-.84-.31-.84-.31-.34-.86-.34-.86-.34-.48 0-.78.29-.78.29-.31.29-.31.79-.31.79 0 .3.12.52.12.52.13.21.34.38.34.38.21.17.49.3.49.3.28.13.58.24.58.24zm0 0zM855 756.3c0-.327.11-.605.11-.605.112-.28.285-.505.285-.505.17-.223.4-.4.4-.4.22-.17.465-.3.465-.3v-.04c-.366-.26-.65-.634-.65-.634-.28-.37-.28-.905-.28-.905 0-.39.146-.7.146-.7.14-.31.4-.54.4-.54.25-.22.59-.35.59-.35.347-.12.757-.12.757-.12.44 0 .788.13.788.13.35.14.59.37.59.37.25.24.38.57.38.57.13.33.13.72.13.72 0 .26-.09.51-.09.51-.09.24-.22.45-.22.45-.13.21-.3.38-.3.38-.16.17-.32.29-.32.29v.04c.22.13.43.29.43.29.21.16.38.37.38.37.16.21.26.47.26.47.1.26.1.6.1.6 0 .38-.16.7-.16.7-.16.33-.44.57-.44.57-.29.25-.68.38-.68.38-.4.14-.88.14-.88.14-.47 0-.88-.14-.88-.14-.4-.13-.69-.38-.69-.38-.29-.25-.45-.58-.45-.58-.17-.33-.17-.73-.17-.73zm4.79 1.71zm.684-.524c0-.305.18-.49.18-.49.184-.182.45-.182.45-.182.25 0 .433.185.433.185.187.18.187.49.187.49 0 .28-.185.46-.185.46-.19.18-.44.18-.44.18-.26 0-.45-.19-.45-.19-.19-.19-.19-.47-.19-.47zm1.93.525zm.83-.71h1.533v-4.94h-1.22v-.56c.467-.09.808-.21.808-.21.34-.12.617-.29.617-.29h.66v5.99h1.39v.72h-3.783v-.72zm4.39.71zm.683-4.31c0-.3.187-.49.187-.49.182-.18.445-.18.445-.18.25 0 .43.19.43.19.18.19.18.49.18.49 0 .28-.18.47-.18.47-.19.18-.44.18-.44.18-.26 0-.45-.18-.45-.18-.19-.18-.19-.46-.19-.46zm0 0zm0 3.79c0-.3.187-.49.187-.49.182-.18.445-.18.445-.18.25 0 .43.19.43.19.18.19.18.49.18.49 0 .28-.18.47-.18.47-.19.19-.44.19-.44.19-.26 0-.45-.18-.45-.18-.19-.18-.19-.46-.19-.46zm4.058.53zm.83-.71h1.53v-4.93h-1.22v-.56c.468-.09.81-.21.81-.21.34-.12.613-.29.613-.29h.66v5.99h1.387v.72h-3.783v-.71zm4.39.72zm.83-.71h1.536v-4.94h-1.22v-.56c.47-.09.81-.21.81-.21.34-.12.62-.29.62-.29h.66v5.99h1.39v.72h-3.78v-.72zm53.066.71zm3.49.13c-.65 0-1.19-.25-1.19-.25-.54-.25-.93-.72-.93-.72-.38-.47-.6-1.14-.6-1.14-.21-.66-.21-1.49-.21-1.49 0-.83.22-1.49.22-1.49.22-.65.61-1.11.61-1.11.39-.45.93-.7.93-.7.54-.24 1.19-.24 1.19-.24.66 0 1.2.25 1.2.25.54.25.94.71.94.71.4.46.61 1.12.61 1.12.22.66.22 1.48.22 1.48 0 .83-.21 1.5-.21 1.5-.21.67-.61 1.14-.61 1.14-.39.47-.93.72-.93.72-.54.25-1.19.25-1.19.25zm0 0zm0-.77c.47 0 .84-.2.84-.2.37-.2.64-.58.64-.58.27-.37.42-.89.42-.89.15-.52.15-1.17.15-1.17 0-.64-.14-1.16-.14-1.16-.15-.51-.42-.87-.42-.87-.26-.35-.64-.55-.64-.55-.37-.19-.83-.19-.83-.19-.46 0-.83.2-.83.2-.37.2-.64.55-.64.55-.26.36-.41.87-.41.87-.14.52-.14 1.16-.14 1.16 0 .65.14 1.17.14 1.17.15.52.42.9.42.9.27.37.64.57.64.57.38.2.84.2.84.2zm3.49.64zm1.01-4.4h-.75v-.66l.8-.05.11-1.43h.73v1.43h1.38v.7h-1.37v2.84c0 .47.18.73.18.73.18.26.62.26.62.26.14 0 .3-.04.3-.04.16-.04.29-.09.29-.09l.17.65c-.21.08-.45.14-.45.14-.24.06-.49.06-.49.06-.4 0-.68-.12-.68-.12-.28-.12-.45-.35-.45-.35-.18-.22-.25-.53-.25-.53-.07-.31-.07-.69-.07-.69v-2.82zm2.54 4.4zm.87-7.48h.86v2.04l-.03 1.05c.37-.35.77-.6.77-.6.4-.25.94-.25.94-.25.81 0 1.18.51 1.18.51.38.51.38 1.49.38 1.49V758h-.86v-3.12c0-.725-.23-1.045-.23-1.045-.23-.32-.73-.32-.73-.32-.4 0-.7.2-.7.2-.3.2-.69.587-.69.587V758h-.86v-7.48zm4.85 7.48zm.49-2.55c0-.63.19-1.13.19-1.13.2-.5.52-.84.52-.84.32-.34.73-.53.73-.53.41-.18.85-.18.85-.18.48 0 .87.17.87.17.38.17.64.49.64.49.26.32.4.76.4.76.14.44.14.99.14.99 0 .29-.03.47-.03.47h-3.44c.05.83.51 1.32.51 1.32.45.48 1.19.48 1.19.48.37 0 .68-.11.68-.11.31-.11.59-.29.59-.29l.3.57c-.33.21-.74.37-.74.37-.41.16-.93.16-.93.16-.51 0-.96-.19-.96-.19-.45-.18-.78-.52-.78-.52-.33-.34-.52-.84-.52-.84-.19-.49-.19-1.12-.19-1.12zm0 0zm3.57-.39c0-.78-.33-1.2-.33-1.2-.33-.41-.93-.41-.93-.41-.27 0-.52.11-.52.11-.25.11-.45.32-.45.32-.2.21-.33.51-.33.51-.13.3-.17.69-.17.69h2.73zm1.15 2.94zm.86-5.11h.72l.08.93h.03c.26-.49.63-.77.63-.77.38-.29.82-.29.82-.29.3 0 .55.1.55.1l-.16.76c-.12-.04-.23-.06-.23-.06-.1-.02-.26-.02-.26-.02-.32 0-.68.26-.68.26-.36.26-.62.92-.62.92V758h-.86v-5.105zm2.79 5.11zm.69-4.32c0-.3.18-.49.18-.49.19-.18.45-.18.45-.18.25 0 .44.19.44.19.18.18.18.49.18.49 0 .28-.18.47-.18.47-.18.18-.44.18-.44.18-.26 0-.44-.18-.44-.18-.18-.18-.18-.47-.18-.47zm0 0zm0 3.79c0-.3.18-.49.18-.49.19-.18.45-.18.45-.18.25 0 .44.18.44.18.18.18.18.49.18.49 0 .28-.18.47-.18.47-.18.19-.44.19-.44.19-.26 0-.44-.18-.44-.18-.18-.18-.18-.47-.18-.47zm4.06.53zm.72-1.39c.31.31.71.56.71.56.41.24 1 .24 1 .24.61 0 1-.33 1-.33.39-.33.39-.9.39-.9 0-.29-.11-.54-.11-.54-.11-.24-.36-.42-.36-.42-.25-.17-.66-.27-.66-.27-.41-.09-1.01-.09-1.01-.09v-.66c.54 0 .9-.09.9-.09.37-.1.59-.26.59-.26.23-.17.32-.4.32-.4.1-.23.1-.5.1-.5 0-.5-.31-.78-.31-.78-.31-.28-.84-.28-.84-.28-.42 0-.77.19-.77.19-.35.19-.65.5-.65.5l-.47-.55c.39-.37.86-.6.86-.6.47-.24 1.07-.24 1.07-.24.44 0 .81.12.81.12.37.11.64.33.64.33.27.21.42.53.42.53.15.31.15.72.15.72 0 .61-.33 1-.33 1-.34.39-.88.6-.88.6v.04c.3.07.57.22.57.22.26.14.46.36.46.36.2.22.31.5.31.5.11.28.11.63.11.63 0 .44-.173.8-.173.8-.17.36-.47.6-.47.6-.3.25-.7.38-.7.38-.4.13-.86.13-.86.13-.4 0-.73-.08-.73-.08-.33-.08-.6-.21-.6-.21-.27-.13-.49-.3-.49-.3-.21-.17-.38-.36-.38-.36zm4.5 1.38zm.83-.71h1.53v-4.93h-1.22v-.56c.47-.08.81-.2.81-.2.35-.12.62-.29.62-.29h.66v5.99h1.39v.72h-3.78v-.71z"/></svg>