<svg xmlns="http://www.w3.org/2000/svg" stroke="#000" viewBox="0 0 1024 768" font-size="1"><path fill="#FFF" stroke="none" d="M0 0v768h1024V0z"/><path stroke="none" d="M430.385 14.102zm1.186-10.04h2.27v3.864h3.47V4.06h2.28v10.042h-2.28v-4.19h-3.46v4.19h-2.26V4.062zm9.2 10.04zm.56-3.82c0-.955.31-1.7.31-1.7.31-.748.83-1.257.83-1.257.52-.508 1.2-.777 1.2-.777.68-.27 1.4-.27 1.4-.27.73 0 1.4.27 1.4.27.67.27 1.19.777 1.19.777.52.51.83 1.256.83 1.256.31.75.31 1.71.31 1.71 0 .96-.31 1.7-.31 1.7-.3.75-.82 1.26-.82 1.26-.51.51-1.18.78-1.18.78-.67.27-1.39.27-1.39.27-.72 0-1.4-.27-1.4-.27-.68-.27-1.19-.77-1.19-.77-.51-.51-.82-1.25-.82-1.25-.31-.74-.31-1.7-.31-1.7zm0 0zm2.33 0c0 1 .35 1.586.35 1.586.35.586 1.06.586 1.06.586.7 0 1.05-.586 1.05-.586.36-.585.36-1.586.36-1.586 0-1-.35-1.586-.35-1.586-.35-.585-1.05-.585-1.05-.585-.71 0-1.05.59-1.05.59-.34.59-.34 1.59-.34 1.59zm5.55 3.82zm.37-7.64h2.25l.74 3.543c.09.57.17 1.124.17 1.124.08.55.17 1.14.17 1.14h.06c.11-.59.21-1.16.21-1.16.1-.57.24-1.11.24-1.11l.85-3.54h1.96l.87 3.54c.14.57.25 1.12.25 1.12l.23 1.14h.07c.11-.59.18-1.14.18-1.14.07-.56.18-1.13.18-1.13l.73-3.54h2.09L459 14.09h-2.65l-.69-3.05c-.126-.54-.22-1.08-.22-1.08-.09-.54-.2-1.16-.2-1.16h-.06c-.11.61-.19 1.15-.19 1.15-.087.54-.194 1.08-.194 1.08l-.68 3.05h-2.59zm14.79 7.64zm.6-3.82c0-.94.27-1.678.27-1.678.27-.74.71-1.255.71-1.255.44-.52 1.02-.8 1.02-.8.58-.28 1.18-.28 1.18-.28.65 0 1.07.21 1.07.21.42.21.82.58.82.58l-.09-1.17V3.3h2.27v10.8h-1.85l-.15-.754h-.06c-.4.4-.94.67-.94.67-.54.27-1.09.27-1.09.27-.7 0-1.28-.278-1.28-.278-.58-.278-.98-.794-.98-.794-.41-.516-.63-1.255-.63-1.255-.22-.74-.22-1.68-.22-1.68zm0 0zm2.33-.03c0 1.14.36 1.663.36 1.663.36.523 1.03.523 1.03.523.37 0 .67-.154.67-.154.3-.154.58-.54.58-.54V8.62c-.31-.278-.63-.386-.63-.386-.32-.108-.63-.108-.63-.108-.54 0-.95.516-.95.516-.41.516-.41 1.61-.41 1.61zm5.9 3.85zm.56-3.82c0-.955.31-1.7.31-1.7.31-.748.83-1.257.83-1.257.52-.508 1.2-.777 1.2-.777.68-.27 1.4-.27 1.4-.27.73 0 1.4.27 1.4.27.67.27 1.19.777 1.19.777.52.51.83 1.256.83 1.256.31.75.31 1.71.31 1.71 0 .96-.31 1.7-.31 1.7-.3.75-.82 1.26-.82 1.26-.51.51-1.18.78-1.18.78-.67.27-1.39.27-1.39.27-.72 0-1.4-.27-1.4-.27-.68-.27-1.19-.77-1.19-.77-.51-.51-.82-1.25-.82-1.25-.31-.74-.31-1.7-.31-1.7zm0 0zm2.33 0c0 1 .35 1.586.35 1.586.35.586 1.06.586 1.06.586.69 0 1.05-.586 1.05-.586.36-.585.36-1.586.36-1.586 0-1-.35-1.586-.35-1.586-.35-.585-1.05-.585-1.05-.585-.71 0-1.05.59-1.05.59-.35.59-.35 1.59-.35 1.59zm8.87 3.82zm1.17 1.108c.11.03.25.062.25.062.14.03.26.03.26.03.57 0 .88-.276.88-.276.31-.278.46-.724.46-.724l.11-.4-2.94-7.44h2.28l1.1 3.28c.17.525.31 1.064.31 1.064.14.54.29 1.11.29 1.11h.06l.26-1.087c.13-.55.27-1.09.27-1.09l.93-3.28h2.17l-2.65 7.71c-.28.72-.58 1.27-.58 1.27-.3.54-.69.91-.69.91-.39.36-.89.54-.89.54-.5.18-1.18.18-1.18.18-.35 0-.6-.04-.6-.04-.25-.04-.48-.12-.48-.12l.4-1.73zm6.73-1.108zm.56-3.82c0-.955.31-1.7.31-1.7.31-.748.83-1.257.83-1.257.52-.508 1.2-.777 1.2-.777.68-.27 1.4-.27 1.4-.27.72 0 1.39.27 1.39.27.67.27 1.19.777 1.19.777.52.51.83 1.256.83 1.256.31.75.31 1.71.31 1.71 0 .96-.31 1.7-.31 1.7-.3.75-.82 1.26-.82 1.26-.51.51-1.18.78-1.18.78-.67.27-1.39.27-1.39.27-.72 0-1.4-.27-1.4-.27-.68-.27-1.2-.77-1.2-.77-.51-.51-.82-1.25-.82-1.25-.31-.74-.31-1.7-.31-1.7zm0 0zm2.33 0c0 1 .35 1.586.35 1.586.35.586 1.05.586 1.05.586.69 0 1.05-.586 1.05-.586.36-.585.36-1.586.36-1.586 0-1-.35-1.586-.35-1.586-.35-.585-1.05-.585-1.05-.585-.71 0-1.05.59-1.05.59-.34.59-.34 1.59-.34 1.59zm5.67 3.82zm.93-7.64h2.27v4.452c0 .83.23 1.14.23 1.14.23.307.73.307.73.307.43 0 .72-.2.72-.2.29-.2.63-.64.63-.64V6.47h2.27v7.63h-1.85l-.17-1.063h-.04c-.49.584-1.06.915-1.06.915-.56.33-1.35.33-1.35.33-1.25 0-1.81-.815-1.81-.815-.56-.816-.56-2.264-.56-2.264v-4.74zm11.03 7.64zm2.12-8.762c-.57 0-.94-.34-.94-.34-.37-.33-.37-.86-.37-.86 0-.53.37-.85.37-.85.37-.33.94-.33.94-.33.59 0 .95.32.95.32.36.32.36.84.36.84 0 .52-.36.85-.36.85-.36.33-.95.33-.95.33zm0 0zm-1.12 1.12h2.27v7.64h-2.26V6.46zm3.25 7.64zm1-7.64h1.85l.15.97h.06c.5-.46 1.08-.81 1.08-.81.59-.35 1.37-.35 1.37-.35 1.25 0 1.81.81 1.81.81.56.81.56 2.26.56 2.26v4.75h-2.27V9.65c0-.832-.22-1.14-.22-1.14-.22-.31-.71-.31-.71-.31-.43 0-.74.195-.74.195-.3.192-.67.547-.67.547v5.16h-2.27v-7.64zm7.81 7.64zm1.34-2.3c.52.4 1 .6 1 .6.48.2.97.2.97.2.51 0 .74-.17.74-.17.23-.17.23-.48.23-.48 0-.19-.13-.33-.13-.33-.13-.15-.35-.27-.35-.27-.22-.13-.5-.23-.5-.23-.27-.1-.57-.23-.57-.23-.35-.14-.7-.33-.7-.33-.35-.19-.64-.46-.64-.46-.29-.27-.48-.63-.48-.63-.18-.37-.18-.84-.18-.84 0-.53.2-.97.2-.97.21-.45.59-.76.59-.76.38-.31.92-.49.92-.49.54-.178 1.2-.178 1.2-.178.88 0 1.54.3 1.54.3.67.3 1.16.67 1.16.67l-1.05 1.38c-.41-.31-.81-.48-.81-.48-.4-.17-.8-.17-.8-.17-.86 0-.86.603-.86.603 0 .182.13.313.13.313.12.13.33.24.33.24.21.107.48.207.48.207l.56.21c.37.14.73.317.73.317.36.17.66.43.66.43.3.26.49.64.49.64.18.37.18.9.18.9 0 .52-.2.97-.2.97-.2.44-.6.78-.6.78-.4.33-.99.52-.99.52-.59.19-1.36.19-1.36.19-.76 0-1.55-.29-1.55-.29-.79-.3-1.38-.77-1.38-.77zm5.48 2.29zm1.31-5.87h-1.05V6.55l1.17-.09.26-2.034h1.88v2.03h1.83v1.77h-1.83v3.07c0 .645.27.93.27.93.27.284.72.284.72.284.19 0 .38-.046.38-.046.19-.05.35-.11.35-.11l.36 1.65c-.31.09-.73.182-.73.182-.41.092-.97.092-.97.092-.7 0-1.2-.215-1.2-.215-.5-.216-.81-.6-.81-.6-.32-.386-.46-.933-.46-.933-.14-.546-.14-1.208-.14-1.208v-3.09zm4.41 5.86zm.73-2.13c0-1.2 1.02-1.88 1.02-1.88 1.02-.68 3.28-.91 3.28-.91-.03-.51-.3-.81-.3-.81-.28-.3-.89-.3-.89-.3-.49 0-.98.18-.98.18-.49.18-1.05.51-1.05.51l-.8-1.5c.74-.45 1.55-.73 1.55-.73.81-.28 1.72-.28 1.72-.28 1.48 0 2.26.84 2.26.84.78.84.78 2.61.78 2.61v4.38h-1.85l-.17-.79h-.05c-.49.43-1.04.7-1.04.7-.55.27-1.19.27-1.19.27-.52 0-.94-.18-.94-.18-.41-.178-.71-.49-.71-.49-.29-.317-.45-.73-.45-.73-.16-.41-.16-.9-.16-.9zm0 0zm2.16-.17c0 .37.24.55.24.55.24.17.64.17.64.17.4 0 .68-.17.68-.17.28-.17.59-.48.59-.48v-1.34c-1.22.17-1.68.49-1.68.49-.46.32-.46.77-.46.77zm5.35 2.29zm1-10.8h2.27v8.52c0 .35.13.49.13.49.13.14.27.14.27.14h.13l.15-.04.28 1.68c-.18.08-.47.13-.47.13-.28.056-.67.056-.67.056-.58 0-.98-.188-.98-.188-.4-.187-.64-.518-.64-.518-.24-.33-.35-.8-.35-.8-.11-.47-.11-1.06-.11-1.06V3.3zm3.4 10.79zm1-10.8h2.27v8.52c0 .36.13.49.13.49.13.14.27.14.27.14h.13l.15-.03.28 1.68c-.18.073-.47.13-.47.13-.28.05-.67.05-.67.05-.58 0-.99-.186-.99-.186-.4-.19-.64-.52-.64-.52-.23-.33-.34-.8-.34-.8-.11-.47-.11-1.06-.11-1.06V3.3zm6.61 10.8zm.71-4.96c0-1.25.39-2.22.39-2.22.39-.98 1.06-1.66 1.06-1.66.67-.68 1.57-1.03 1.57-1.03.9-.36 1.92-.36 1.92-.36 1.06 0 1.84.4 1.84.4.78.4 1.27.91 1.27.91l-1.25 1.4c-.37-.354-.78-.554-.78-.554-.41-.2-1.05-.2-1.05-.2-.59 0-1.07.223-1.07.223-.49.22-.84.64-.84.64-.35.41-.55 1.01-.55 1.01-.19.6-.19 1.36-.19 1.36 0 1.55.7 2.41.7 2.41.7.85 2.12.85 2.12.85.31 0 .6-.08.6-.08.29-.08.48-.23.48-.23v-1.7h-1.66V8.45h3.66v4.62c-.54.508-1.42.862-1.42.862-.88.354-1.94.354-1.94.354-1.01 0-1.9-.33-1.9-.33-.88-.332-1.55-.98-1.55-.98-.66-.645-1.04-1.608-1.04-1.608-.37-.962-.37-2.225-.37-2.225zm9.11 4.96zm1.17-10.03h2.26V7.9h3.47V4.06h2.28v10.042h-2.28v-4.19h-3.46v4.19h-2.26V4.062zm9.19 10.04zm.71-4.96c0-1.245.39-2.22.39-2.22.39-.98 1.04-1.66 1.04-1.66.66-.68 1.53-1.03 1.53-1.03.87-.355 1.84-.355 1.84-.355.94 0 1.7.39 1.7.39.76.394 1.27.92 1.27.92l-1.25 1.4c-.38-.35-.77-.55-.77-.55-.4-.2-.92-.2-.92-.2-.52 0-.98.223-.98.223-.46.22-.8.64-.8.64-.34.413-.53 1.013-.53 1.013-.2.6-.2 1.36-.2 1.36 0 1.56.66 2.41.66 2.41.66.86 1.77.86 1.77.86.61 0 1.08-.24 1.08-.24.46-.24.83-.65.83-.65l1.25 1.37c-.63.74-1.44 1.11-1.44 1.11-.81.37-1.75.37-1.75.37-.97 0-1.84-.33-1.84-.33-.86-.33-1.51-.97-1.51-.97-.65-.65-1.02-1.61-1.02-1.61-.37-.96-.37-2.22-.37-2.22zm8.26 4.96zm2.37-3.556c-.07-.52.04-.954.04-.954.12-.43.33-.8.33-.8.22-.37.49-.675.49-.675.27-.302.52-.59.52-.59.24-.282.41-.55.41-.55.16-.27.16-.564.16-.564 0-.47-.29-.72-.29-.72-.28-.25-.74-.25-.74-.25-.43 0-.76.2-.76.2-.33.21-.64.51-.64.51L588.95 5c.524-.63 1.232-1.016 1.232-1.016.71-.385 1.57-.385 1.57-.385.648 0 1.21.15 1.21.15.562.15.97.47.97.47.408.32.64.82.64.82.23.5.23 1.18.23 1.18 0 .47-.17.85-.17.85-.17.37-.423.7-.423.7-.26.32-.54.62-.54.62-.29.3-.53.62-.53.62-.24.32-.38.68-.38.68-.14.36-.1.82-.1.82h-1.99zm0 0zm-.36 2.33c0-.61.38-1.02.38-1.02.39-.41.97-.41.97-.41.59 0 .98.41.98.41.4.41.4 1.025.4 1.025 0 .6-.39 1-.39 1-.39.4-.98.4-.98.4-.58 0-.97-.41-.97-.41-.38-.41-.38-1.01-.38-1.01z"/><path fill="none" stroke="#D3D3D3" stroke-miterlimit="10" d="M35.02 738h935.514M35.02 562.25h935.514M35.02 386.5h935.514M35.02 210.75h935.514M35.02 35h935.514" stroke-dasharray="5 5"/><g fill="#5C3566" stroke-opacity="0" stroke-width="0" stroke-miterlimit="10" stroke-linejoin="bevel"><defs><clipPath id="a"><path d="M35.02 35v703h935.514V35z"/></clipPath></defs><g clip-path="url(#a)"><path stroke="none" d="M50.02 738V51.696h157.103V738z"/></g></g><g fill-opacity="0" stroke-miterlimit="10"><defs><clipPath id="b"><path d="M35.02 35v703h935.514V35z"/></clipPath></defs><g clip-path="url(#b)"><path fill="none" d="M50.02 738V51.696h157.103V738z"/></g></g><g fill="#5C3566" stroke-opacity="0" stroke-width="0" stroke-miterlimit="10" stroke-linejoin="bevel"><defs><clipPath id="c"><path d="M35.02 35v703h935.514V35z"/></clipPath></defs><g clip-path="url(#c)"><path stroke="none" d="M237.124 738V528.857h157.102V738z"/></g></g><g fill-opacity="0" stroke-miterlimit="10"><defs><clipPath id="d"><path d="M35.02 35v703h935.514V35z"/></clipPath></defs><g clip-path="url(#d)"><path fill="none" d="M237.124 738V528.857h157.102V738z"/></g></g><g fill="#5C3566" stroke-opacity="0" stroke-width="0" stroke-miterlimit="10" stroke-linejoin="bevel"><defs><clipPath id="e"><path d="M35.02 35v703h935.514V35z"/></clipPath></defs><g clip-path="url(#e)"><path stroke="none" d="M424.226 738v-94.026H581.33V738z"/></g></g><g fill-opacity="0" stroke-miterlimit="10"><defs><clipPath id="f"><path d="M35.02 35v703h935.514V35z"/></clipPath></defs><g clip-path="url(#f)"><path fill="none" d="M424.226 738v-94.026H581.33V738z"/></g></g><g fill="#5C3566" stroke-opacity="0" stroke-width="0" stroke-miterlimit="10" stroke-linejoin="bevel"><defs><clipPath id="g"><path d="M35.02 35v703h935.514V35z"/></clipPath></defs><g clip-path="url(#g)"><path stroke="none" d="M611.33 738v-43.06h157.1V738z"/></g></g><g fill-opacity="0" stroke-miterlimit="10"><defs><clipPath id="h"><path d="M35.02 35v703h935.514V35z"/></clipPath></defs><g clip-path="url(#h)"><path fill="none" d="M611.33 738v-43.06h157.1V738z"/></g></g><g fill="#5C3566" stroke-opacity="0" stroke-width="0" stroke-miterlimit="10" stroke-linejoin="bevel"><defs><clipPath id="i"><path d="M35.02 35v703h935.514V35z"/></clipPath></defs><g clip-path="url(#i)"><path stroke="none" d="M798.43 738v-31.635h157.104V738z"/></g></g><g fill-opacity="0" stroke-miterlimit="10"><defs><clipPath id="j"><path d="M35.02 35v703h935.514V35z"/></clipPath></defs><g clip-path="url(#j)"><path fill="none" d="M798.43 738v-31.635h157.104V738z"/></g></g><path fill="none" stroke-miterlimit="10" d="M35.02 738V35" stroke-linecap="square"/><path fill="none" stroke-miterlimit="10" d="M35.02 738h2m-2-87.875h2m-2-87.875h2m-2-87.875h2m-2-87.875h2m-2-87.875h2m-2-87.875h2m-2-87.875h2M35.02 35h2m-2 703h5m-5-175.75h5m-5-175.75h5m-5-175.75h5M35.02 35h5"/><path stroke="none" d="M20.725 741.445zm2.615.126c-1.02 0-1.586-.9-1.586-.9-.567-.9-.567-2.59-.567-2.59 0-1.69.567-2.57.567-2.57.567-.88 1.586-.88 1.586-.88 1.01 0 1.576.88 1.576.88.567.89.567 2.58.567 2.58 0 1.69-.567 2.6-.567 2.6-.567.91-1.576.91-1.576.91zm0 0zm0-.69c.294 0 .53-.16.53-.16.237-.16.41-.5.41-.5.174-.34.268-.87.268-.87.095-.53.095-1.26.095-1.26 0-.73-.095-1.26-.095-1.26-.094-.52-.267-.85-.267-.85-.17-.33-.41-.49-.41-.49-.23-.16-.53-.16-.53-.16-.29 0-.53.16-.53.16-.24.16-.41.49-.41.49-.17.33-.26.86-.26.86-.09.53-.09 1.26-.09 1.26 0 1.47.37 2.14.37 2.14.37.67.95.67.95.67zM10.2 565.7zm.42-.514c.756-.754 1.344-1.363 1.344-1.363.588-.61.988-1.13.988-1.13.4-.52.61-.955.61-.955.21-.434.21-.844.21-.844 0-.576-.316-.944-.316-.944-.315-.37-.956-.37-.956-.37-.42 0-.777.24-.777.24-.358.235-.652.57-.652.57l-.49-.492c.42-.462.9-.74.9-.74.48-.28 1.14-.28 1.14-.28.94 0 1.47.543 1.47.543.54.54.54 1.44.54 1.44 0 .47-.2.95-.2.95-.2.48-.56.99-.56.99-.36.51-.86 1.06-.86 1.06-.5.56-1.09 1.18-1.09 1.18l.57-.04c.3-.02.56-.02.56-.02h1.94v.75h-4.33v-.51zm4.8.517zm2.616.126c-1.02 0-1.586-.91-1.586-.91-.568-.9-.568-2.6-.568-2.6 0-1.69.568-2.58.568-2.58.567-.88 1.586-.88 1.586-.88 1.008 0 1.575.88 1.575.88.57.88.57 2.57.57 2.57 0 1.69-.57 2.59-.57 2.59-.56.9-1.57.9-1.57.9zm0 0zm0-.7c.294 0 .53-.16.53-.16.236-.16.41-.5.41-.5.173-.34.268-.87.268-.87.094-.53.094-1.27.094-1.27 0-.74-.094-1.26-.094-1.26-.095-.53-.268-.86-.268-.86-.173-.33-.41-.49-.41-.49-.236-.16-.53-.16-.53-.16-.294 0-.536.16-.536.16-.242.15-.415.48-.415.48-.173.33-.268.85-.268.85-.094.52-.094 1.26-.094 1.26 0 1.47.362 2.14.362 2.14.362.66.95.66.95.66zm2.605.57zm2.62.13c-1.02 0-1.58-.9-1.58-.9-.56-.9-.56-2.6-.56-2.6 0-1.69.57-2.58.57-2.58.57-.88 1.59-.88 1.59-.88 1.01 0 1.58.88 1.58.88.57.88.57 2.57.57 2.57 0 1.69-.56 2.59-.56 2.59-.57.9-1.58.9-1.58.9zm0 0zm0-.69c.3 0 .53-.16.53-.16.24-.17.41-.51.41-.51.18-.34.27-.87.27-.87.1-.53.1-1.27.1-1.27 0-.74-.09-1.26-.09-1.26-.09-.53-.26-.86-.26-.86-.17-.33-.41-.49-.41-.49-.23-.16-.53-.16-.53-.16-.29 0-.53.16-.53.16-.24.15-.41.48-.41.48-.17.33-.27.85-.27.85-.09.52-.09 1.26-.09 1.26 0 1.47.37 2.14.37 2.14.36.67.95.67.95.67zM10 389.94zm3.193-2.54v-1.944c0-.27.016-.644.016-.644.01-.373.03-.646.03-.646h-.04c-.13.24-.27.48-.27.48l-.29.47-1.57 2.29h2.1zm0 0zm1.734.693h-.914v1.84h-.82v-1.84H10.18v-.57l2.866-4.286h.967v4.16h.914v.693zm.294 1.84zm2.62.127c-1.02 0-1.58-.9-1.58-.9-.56-.906-.56-2.598-.56-2.598 0-1.69.57-2.574.57-2.574.57-.88 1.59-.88 1.59-.88 1.01 0 1.58.88 1.58.88.57.884.57 2.576.57 2.576 0 1.69-.56 2.594-.56 2.594-.57.9-1.58.9-1.58.9zm0 0zm0-.69c.3 0 .53-.166.53-.166.24-.164.41-.506.41-.506.18-.34.27-.87.27-.87.1-.53.1-1.265.1-1.265 0-.737-.09-1.26-.09-1.26-.09-.527-.27-.858-.27-.858-.17-.33-.41-.49-.41-.49-.23-.16-.53-.16-.53-.16-.29 0-.53.16-.53.16-.24.157-.41.49-.41.49-.17.33-.27.854-.27.854-.09.53-.09 1.26-.09 1.26 0 1.47.36 2.14.36 2.14.37.67.95.67.95.67zm2.61.564zm2.62.124c-1.02 0-1.58-.9-1.58-.9-.56-.903-.56-2.595-.56-2.595 0-1.69.57-2.573.57-2.573.57-.88 1.59-.88 1.59-.88 1.01 0 1.58.884 1.58.884.57.882.57 2.574.57 2.574 0 1.69-.57 2.59-.57 2.59-.56.905-1.57.905-1.57.905zm0 0zm0-.69c.3 0 .53-.163.53-.163.24-.162.41-.504.41-.504.18-.34.27-.87.27-.87.1-.53.1-1.26.1-1.26 0-.73-.09-1.26-.09-1.26-.09-.52-.27-.86-.27-.86-.17-.33-.41-.48-.41-.48-.23-.16-.53-.16-.53-.16-.29 0-.53.16-.53.16-.24.16-.41.49-.41.49-.17.33-.27.86-.27.86-.09.53-.09 1.26-.09 1.26 0 1.47.36 2.14.36 2.14.36.67.95.67.95.67zM10.33 214.19zm2.815-.555c.258 0 .468-.11.468-.11.21-.106.37-.3.37-.3.157-.195.246-.46.246-.46.09-.27.09-.606.09-.606 0-.67-.31-1.04-.31-1.04-.31-.38-.94-.38-.94-.38-.32 0-.69.2-.69.2-.37.2-.71.67-.71.67.08.99.46 1.5.46 1.5.37.51 1.01.51 1.01.51zm0 0zm1.38-5.027c-.21-.243-.5-.385-.5-.385-.29-.14-.6-.14-.6-.14-.348 0-.663.15-.663.15-.315.144-.557.48-.557.48-.24.336-.39.877-.39.877-.147.54-.16 1.34-.16 1.34.316-.39.736-.617.736-.617.42-.22.83-.22.83-.22.87 0 1.39.514 1.39.514.52.514.52 1.554.52 1.554 0 .48-.15.88-.15.88-.16.4-.43.68-.43.68-.27.29-.63.44-.63.44-.36.16-.77.16-.77.16-.49 0-.91-.2-.91-.2-.42-.2-.73-.6-.73-.6-.31-.4-.49-1-.49-1-.17-.6-.17-1.41-.17-1.41 0-1.01.21-1.72.21-1.72.21-.71.57-1.15.57-1.15.36-.44.82-.65.82-.65.46-.2.96-.2.96-.2.55 0 .94.21.94.21.39.21.68.51.68.51zm1.03 5.576zm2.617.13c-1.02 0-1.586-.902-1.586-.902-.57-.903-.57-2.595-.57-2.595 0-1.69.567-2.574.567-2.574.568-.884 1.587-.884 1.587-.884 1.01 0 1.577.88 1.577.88.566.88.566 2.57.566 2.57 0 1.69-.57 2.59-.57 2.59-.568.9-1.576.9-1.576.9zm0 0zm0-.692c.294 0 .53-.163.53-.163.237-.16.41-.51.41-.51.173-.34.268-.87.268-.87.097-.53.097-1.27.097-1.27 0-.74-.094-1.26-.094-1.26-.093-.53-.266-.86-.266-.86-.173-.33-.41-.49-.41-.49-.236-.16-.53-.16-.53-.16-.294 0-.536.16-.536.16-.24.15-.41.48-.41.48-.17.33-.26.86-.26.86-.09.52-.09 1.26-.09 1.26 0 1.47.36 2.14.36 2.14.37.67.95.67.95.67zm2.605.567zm2.615.12c-1.02 0-1.588-.9-1.588-.9-.567-.91-.567-2.6-.567-2.6 0-1.69.568-2.57.568-2.57.57-.88 1.587-.88 1.587-.88 1.01 0 1.577.88 1.577.88.56.88.56 2.57.56 2.57 0 1.69-.57 2.59-.57 2.59-.57.9-1.58.9-1.58.9zm0 0zm0-.69c.292 0 .53-.17.53-.17.235-.16.41-.51.41-.51.172-.34.27-.87.27-.87.09-.53.09-1.27.09-1.27 0-.74-.093-1.26-.093-1.26-.1-.53-.27-.86-.27-.86-.18-.33-.41-.49-.41-.49-.24-.16-.53-.16-.53-.16-.3 0-.54.16-.54.16-.25.16-.42.49-.42.49-.18.33-.27.85-.27.85-.1.52-.1 1.26-.1 1.26 0 1.47.36 2.14.36 2.14.36.67.95.67.95.67zM10.252 38.44zm1.206-1.796c0 .282.11.513.11.513.11.23.304.41.304.41.194.177.457.27.457.27.26.096.56.096.56.096.58 0 .95-.323.95-.323.36-.325.36-.85.36-.85 0-.325-.15-.556-.15-.556-.15-.233-.4-.406-.4-.406-.25-.17-.58-.313-.58-.313-.33-.143-.69-.29-.69-.29-.4.273-.67.636-.67.636-.27.36-.27.83-.27.83zm0 0zm1.89-1.86c.336-.306.52-.64.52-.64.184-.338.184-.706.184-.706 0-.5-.305-.843-.305-.843-.306-.35-.86-.35-.86-.35-.475 0-.78.295-.78.295-.304.295-.304.79-.304.79 0 .303.126.52.126.52.12.214.34.382.34.382.21.17.49.3.49.3.28.13.58.25.58.25zm0 0zM10.68 36.73c0-.327.11-.606.11-.606.11-.28.284-.505.284-.505.173-.23.4-.4.4-.4.225-.17.466-.3.466-.3v-.04c-.367-.26-.65-.64-.65-.64-.285-.38-.285-.91-.285-.91 0-.39.148-.71.148-.71.147-.32.4-.54.4-.54.25-.23.597-.35.597-.35.347-.13.757-.13.757-.13.44 0 .787.13.787.13.346.13.593.37.593.37.25.23.38.56.38.56.13.33.13.72.13.72 0 .26-.09.5-.09.5-.08.24-.22.45-.22.45-.13.21-.29.37-.29.37-.16.17-.32.28-.32.28v.04c.22.13.43.29.43.29.21.16.378.37.378.37.164.2.263.47.263.47.1.26.1.6.1.6 0 .38-.156.7-.156.7-.16.32-.442.56-.442.56-.282.24-.68.38-.68.38-.4.13-.883.13-.883.13-.474 0-.878-.14-.878-.14-.41-.14-.7-.39-.7-.39-.29-.25-.46-.59-.46-.59-.17-.33-.17-.73-.17-.73zm4.79 1.71zm2.615.126c-1.02 0-1.586-.902-1.586-.902-.57-.903-.57-2.595-.57-2.595 0-1.69.56-2.57.56-2.57.56-.88 1.58-.88 1.58-.88 1.01 0 1.57.88 1.57.88.56.88.56 2.57.56 2.57 0 1.69-.56 2.59-.56 2.59-.57.9-1.58.9-1.58.9zm0 0zm0-.692c.294 0 .53-.163.53-.163.237-.16.41-.5.41-.5.174-.34.268-.87.268-.87.095-.53.095-1.27.095-1.27 0-.73-.09-1.26-.09-1.26-.09-.52-.27-.85-.27-.85-.17-.33-.41-.48-.41-.48-.23-.16-.53-.16-.53-.16-.29 0-.53.16-.53.16-.24.16-.415.49-.415.49-.175.33-.27.86-.27.86-.094.53-.094 1.26-.094 1.26 0 1.47.36 2.14.36 2.14.36.67.95.67.95.67zm2.605.567zm2.616.13c-1.02 0-1.59-.9-1.59-.9-.57-.91-.57-2.6-.57-2.6 0-1.69.565-2.57.565-2.57.57-.88 1.59-.88 1.59-.88 1.01 0 1.58.88 1.58.88.57.88.57 2.58.57 2.58 0 1.7-.57 2.6-.57 2.6-.56.9-1.57.9-1.57.9zm0 0zm0-.69c.29 0 .53-.17.53-.17.23-.16.41-.5.41-.5.17-.34.26-.87.26-.87.093-.53.093-1.26.093-1.26 0-.73-.1-1.26-.1-1.26-.1-.52-.27-.86-.27-.86-.18-.33-.41-.49-.41-.49-.24-.16-.53-.16-.53-.16-.3 0-.54.16-.54.16-.24.16-.42.49-.42.49-.18.33-.27.86-.27.86-.1.53-.1 1.26-.1 1.26 0 1.47.36 2.14.36 2.14.36.67.95.67.95.67z"/><path fill="none" stroke-miterlimit="10" d="M35.02 738h935.514" stroke-linecap="square"/><path stroke="none" d="M106.73 758zm.965-1.502c.368.39.867.625.867.625.5.236 1.035.236 1.035.236.682 0 1.06-.31 1.06-.31.38-.31.38-.82.38-.82 0-.26-.09-.45-.09-.45-.09-.19-.242-.32-.242-.32-.153-.13-.363-.24-.363-.24-.21-.11-.45-.22-.45-.22l-.99-.43c-.24-.11-.492-.26-.492-.26-.253-.15-.452-.36-.452-.36-.2-.21-.326-.5-.326-.5-.126-.29-.126-.67-.126-.67 0-.39.163-.73.163-.73.16-.34.45-.59.45-.59.29-.25.68-.39.68-.39.39-.14.86-.14.86-.14.62 0 1.14.23 1.14.23.52.24.89.61.89.61l-.48.56c-.32-.31-.7-.48-.7-.48-.39-.17-.87-.17-.87-.17-.58 0-.93.26-.93.26-.35.27-.35.74-.35.74 0 .25.09.42.09.42.1.17.27.3.27.3.17.14.37.23.37.23.2.1.41.19.41.19l.97.42c.29.13.55.29.55.29.26.16.45.38.45.38.19.21.3.5.3.5.11.29.11.66.11.66 0 .41-.16.76-.16.76-.16.35-.47.62-.47.62-.3.26-.73.42-.73.42-.43.15-.98.15-.98.15-.72 0-1.34-.27-1.34-.27-.62-.27-1.07-.75-1.07-.75zm4.643 1.502zm1.008-4.4h-.756v-.653l.798-.052.105-1.43h.725v1.43h1.376v.704h-1.376v2.83c0 .47.174.73.174.73.173.25.614.25.614.25.137 0 .294-.04.294-.04.158-.05.284-.1.284-.1l.168.65c-.21.07-.457.13-.457.13-.247.05-.488.05-.488.05-.41 0-.688-.13-.688-.13-.28-.13-.46-.35-.46-.35-.18-.22-.25-.54-.25-.54-.08-.32-.08-.7-.08-.7v-2.82zm2.353 4.4zm.61-1.323c0-.84.75-1.287.75-1.287.75-.447 2.39-.625 2.39-.625 0-.242-.05-.473-.05-.473-.05-.23-.17-.41-.17-.41-.12-.178-.32-.29-.32-.29-.2-.11-.52-.11-.52-.11-.46 0-.84.17-.84.17-.39.167-.69.377-.69.377l-.35-.6c.35-.23.87-.45.87-.45.51-.22 1.13-.22 1.13-.22.93 0 1.35.57 1.35.57.42.57.42 1.53.42 1.53V758h-.72l-.07-.61h-.02c-.37.306-.8.52-.8.52-.43.216-.9.216-.9.216-.65 0-1.08-.378-1.08-.378-.43-.378-.43-1.07-.43-1.07zm0 0zm.85-.064c0 .442.25.63.25.63.25.19.63.19.63.19.37 0 .7-.173.7-.173.33-.174.69-.51.69-.51v-1.418c-.64.084-1.09.2-1.09.2-.44.115-.71.273-.71.273-.27.157-.38.362-.38.362-.12.205-.12.446-.12.446zm3.91 1.387zm.48-2.542c0-.64.2-1.14.2-1.14.2-.5.53-.845.53-.845.33-.347.78-.525.78-.525.44-.18.94-.18.94-.18.5 0 .86.185.86.185.36.184.62.425.62.425l-.43.557c-.23-.2-.48-.326-.48-.326-.25-.13-.55-.13-.55-.13-.35 0-.64.14-.64.14-.3.14-.51.4-.51.4-.21.26-.33.62-.33.62-.12.36-.12.8-.12.8 0 .44.11.8.11.8.11.35.32.61.32.61.2.25.5.4.5.4.29.14.64.14.64.14.37 0 .67-.15.67-.15.3-.16.53-.37.53-.37l.39.56c-.35.3-.77.48-.77.48-.43.18-.89.18-.89.18-.51 0-.95-.18-.95-.18-.44-.18-.76-.52-.76-.52-.33-.34-.51-.84-.51-.84-.19-.5-.19-1.13-.19-1.13zm4.31 2.542zm.86-7.48h.85v5.064h.03l2.17-2.69h.95l-1.71 2.05 1.95 3.056h-.95l-1.49-2.458-.96 1.113V758h-.85v-7.48zm4.33 7.48zm.68-4.317c0-.305.18-.49.18-.49.18-.182.44-.182.44-.182.25 0 .43.19.43.19.18.19.18.49.18.49 0 .28-.19.47-.19.47-.19.19-.44.19-.44.19-.27 0-.45-.18-.45-.18-.19-.18-.19-.46-.19-.46zm0 0zm0 3.792c0-.305.18-.49.18-.49.18-.182.44-.182.44-.182.25 0 .43.183.43.183.18.184.18.49.18.49 0 .282-.19.466-.19.466-.19.184-.44.184-.44.184-.27 0-.45-.184-.45-.184-.19-.184-.19-.467-.19-.467zm4.05.525zm1.86 0c.04-.945.17-1.733.17-1.733.12-.788.35-1.497.35-1.497.22-.71.57-1.37.57-1.37.35-.663.84-1.356.84-1.356h-3.34v-.746h4.31v.536c-.6.756-.97 1.45-.97 1.45-.38.693-.6 1.412-.6 1.412-.23.72-.33 1.524-.33 1.524-.1.803-.14 1.78-.14 1.78h-.9zm3.36 0zm1.21-1.796c0 .283.11.515.11.515.11.23.3.4.3.4.19.17.46.27.46.27.26.09.56.09.56.09.59 0 .95-.33.95-.33.36-.33.36-.85.36-.85 0-.33-.15-.56-.15-.56-.15-.23-.4-.41-.4-.41-.25-.18-.59-.32-.59-.32-.33-.15-.69-.29-.69-.29-.4.27-.67.63-.67.63-.27.36-.27.82-.27.82zm0 0zm1.89-1.86c.33-.304.52-.64.52-.64.18-.336.18-.704.18-.704 0-.504-.31-.846-.31-.846-.31-.34-.86-.34-.86-.34-.48 0-.78.293-.78.293-.3.294-.3.788-.3.788 0 .304.12.52.12.52.12.215.34.383.34.383.22.168.49.3.49.3.28.13.58.246.58.246zm0 0zm-2.67 1.944c0-.326.11-.604.11-.604.11-.28.28-.504.28-.504.17-.226.4-.4.4-.4.22-.173.46-.3.46-.3v-.04c-.37-.264-.65-.637-.65-.637-.29-.372-.29-.908-.29-.908 0-.39.14-.704.14-.704.15-.31.4-.54.4-.54.25-.22.6-.35.6-.35.35-.12.76-.12.76-.12.44 0 .78.13.78.13.35.14.59.37.59.37.25.24.38.57.38.57.13.33.13.72.13.72 0 .26-.09.51-.09.51-.09.24-.22.45-.22.45-.13.21-.3.38-.3.38-.17.17-.32.28-.32.28v.04c.22.13.43.29.43.29.21.16.37.37.37.37.16.21.26.47.26.47.1.27.1.6.1.6 0 .38-.16.71-.16.71-.16.33-.44.57-.44.57-.28.25-.68.38-.68.38-.4.14-.88.14-.88.14-.47 0-.88-.14-.88-.14-.41-.13-.7-.38-.7-.38-.28-.24-.45-.58-.45-.58-.17-.33-.17-.73-.17-.73zm4.79 1.712zm.83-.714h1.53v-4.937h-1.22v-.56c.46-.09.8-.21.8-.21.34-.12.61-.29.61-.29h.66v5.99h1.38v.72h-3.78v-.72zm133.2.714zm3.48.126c-.65 0-1.19-.252-1.19-.252-.54-.252-.93-.72-.93-.72-.39-.467-.61-1.134-.61-1.134-.22-.667-.22-1.497-.22-1.497 0-.83.21-1.486.21-1.486.21-.657.6-1.114.6-1.114.39-.456.93-.698.93-.698.54-.242 1.19-.242 1.19-.242.65 0 1.19.247 1.19.247.54.247.93.704.93.704.39.457.61 1.113.61 1.113.21.657.21 1.476.21 1.476 0 .83-.22 1.497-.22 1.497-.22.667-.61 1.135-.61 1.135-.39.467-.94.72-.94.72-.54.25-1.19.25-1.19.25zm0 0zm0-.767c.46 0 .83-.2.83-.2.37-.2.64-.58.64-.58.27-.38.41-.9.41-.9.14-.52.14-1.17.14-1.17 0-.64-.15-1.16-.15-1.16-.15-.52-.42-.87-.42-.87-.27-.36-.64-.56-.64-.56-.37-.19-.84-.19-.84-.19-.46 0-.84.19-.84.19-.37.19-.64.55-.64.55-.27.35-.42.87-.42.87-.15.51-.15 1.15-.15 1.15 0 .65.14 1.17.14 1.17.15.52.42.89.42.89.26.37.64.57.64.57.37.2.83.2.83.2zm3.48.64zm.96-1.51c.37.39.86.62.86.62.5.23 1.04.23 1.04.23.68 0 1.06-.31 1.06-.31.38-.31.38-.82.38-.82 0-.26-.09-.45-.09-.45-.09-.19-.25-.32-.25-.32-.15-.13-.36-.24-.36-.24-.21-.11-.45-.22-.45-.22l-.99-.43c-.24-.11-.49-.26-.49-.26-.26-.15-.46-.36-.46-.36-.2-.21-.32-.5-.32-.5-.12-.29-.12-.66-.12-.66 0-.39.16-.73.16-.73.16-.34.45-.59.45-.59.29-.25.68-.39.68-.39.39-.14.86-.14.86-.14.62 0 1.14.23 1.14.23.53.23.9.61.9.61l-.47.56c-.31-.31-.7-.48-.7-.48-.38-.17-.86-.17-.86-.17-.58 0-.93.27-.93.27-.35.27-.35.74-.35.74 0 .25.1.43.1.43.1.17.26.3.26.3.17.13.37.23.37.23.2.1.41.19.41.19l.98.42c.3.12.56.29.56.29.26.16.45.38.45.38.19.21.3.5.3.5.11.29.11.66.11.66 0 .41-.16.76-.16.76-.16.36-.47.62-.47.62-.3.27-.73.42-.73.42-.43.15-.98.15-.98.15-.73 0-1.35-.27-1.35-.27-.62-.27-1.07-.74-1.07-.74zm6.76 1.5zm1.72.43v1.72h-.87v-7.26h.71l.07.59h.03c.34-.3.76-.51.76-.51.41-.21.87-.21.87-.21.49 0 .87.18.87.18.38.18.63.52.63.52.25.34.38.82.38.82.13.47.13 1.07.13 1.07 0 .65-.18 1.16-.18 1.16-.18.51-.48.87-.48.87-.31.35-.71.54-.71.54-.4.18-.84.18-.84.18-.36 0-.71-.16-.71-.16-.35-.16-.71-.43-.71-.43zm0 0zm0-1.57c.34.29.67.41.67.41.32.12.58.12.58.12.31 0 .58-.14.58-.14.27-.15.46-.4.46-.4.19-.26.3-.64.3-.64.11-.38.11-.85.11-.85 0-.42-.08-.77-.08-.77-.08-.35-.24-.59-.24-.59-.16-.25-.42-.39-.42-.39-.26-.14-.62-.14-.62-.14-.33 0-.66.18-.66.18-.33.18-.71.51-.71.51v2.68zm3.96 1.13zm.6-1.33c0-.84.75-1.29.75-1.29.75-.45 2.39-.63 2.39-.63 0-.25-.05-.48-.05-.48-.05-.23-.17-.41-.17-.41-.12-.18-.32-.29-.32-.29-.2-.11-.51-.11-.51-.11-.45 0-.83.17-.83.17-.39.17-.69.38-.69.38l-.35-.6c.35-.23.87-.45.87-.45.51-.22 1.13-.22 1.13-.22.93 0 1.35.57 1.35.57.42.58.42 1.53.42 1.53V758h-.72l-.07-.61h-.02c-.37.306-.8.52-.8.52-.43.216-.9.216-.9.216-.65 0-1.08-.378-1.08-.378-.43-.378-.43-1.07-.43-1.07zm0 0zm.85-.06c0 .44.26.63.26.63.26.19.63.19.63.19.37 0 .7-.18.7-.18.33-.18.7-.51.7-.51v-1.42c-.64.08-1.09.2-1.09.2-.44.12-.71.27-.71.27-.27.15-.38.36-.38.36-.12.2-.12.44-.12.44zm3.92 1.38zm.48-2.54c0-.64.2-1.14.2-1.14.2-.5.53-.85.53-.85.33-.35.78-.53.78-.53.44-.18.94-.18.94-.18.5 0 .86.19.86.19.36.18.62.42.62.42l-.43.56c-.23-.2-.48-.33-.48-.33-.25-.13-.55-.13-.55-.13-.35 0-.64.14-.64.14-.3.14-.51.4-.51.4-.21.26-.33.62-.33.62-.12.36-.12.8-.12.8 0 .44.11.8.11.8.11.36.32.62.32.62.2.25.5.4.5.4.29.14.64.14.64.14.37 0 .67-.15.67-.15.3-.16.53-.37.53-.37l.39.56c-.35.31-.77.48-.77.48-.43.18-.89.18-.89.18-.51 0-.95-.18-.95-.18-.44-.18-.76-.52-.76-.52-.32-.34-.51-.84-.51-.84-.19-.5-.19-1.13-.19-1.13zm4.3 2.54zm.86-7.48h.85v5.06h.03l2.17-2.69h.96l-1.71 2.05 1.94 3.05h-.95l-1.49-2.46-.96 1.11V758h-.85v-7.48zm4.23 7.48zm.61-1.33c0-.84.75-1.29.75-1.29.75-.45 2.39-.63 2.39-.63 0-.24-.05-.47-.05-.47-.05-.23-.17-.41-.17-.41-.12-.18-.32-.29-.32-.29-.2-.11-.52-.11-.52-.11-.45 0-.84.17-.84.17-.38.16-.69.37-.69.37l-.35-.6c.36-.23.88-.44.88-.44.51-.22 1.13-.22 1.13-.22.93 0 1.35.57 1.35.57.42.58.42 1.53.42 1.53V758h-.72l-.08-.61h-.02c-.37.306-.8.52-.8.52-.42.216-.89.216-.89.216-.65 0-1.08-.378-1.08-.378-.42-.378-.42-1.07-.42-1.07zm0 0zm.85-.07c0 .44.25.63.25.63.26.19.63.19.63.19.36 0 .69-.17.69-.17.33-.18.7-.51.7-.51v-1.42c-.64.08-1.08.2-1.08.2-.44.11-.71.27-.71.27-.26.15-.38.36-.38.36-.11.2-.11.44-.11.44zm3.92 1.4zm1.23.86c0 .41.39.65.39.65.4.24 1.09.24 1.09.24.37 0 .67-.09.67-.09.3-.09.51-.23.51-.23.21-.14.32-.33.32-.33.11-.19.11-.39.11-.39 0-.36-.26-.49-.26-.49-.27-.13-.77-.13-.77-.13h-.88c-.15 0-.32-.01-.32-.01-.18-.02-.35-.07-.35-.07-.27.2-.4.42-.4.42-.13.22-.13.44-.13.44zm0 0zm-.76.12c0-.33.2-.62.2-.62.2-.3.55-.54.55-.54v-.05c-.19-.11-.32-.32-.32-.32-.13-.2-.13-.51-.13-.51 0-.32.18-.57.18-.57.18-.24.38-.38.38-.38v-.04c-.26-.21-.46-.57-.46-.57-.21-.35-.21-.81-.21-.81 0-.42.15-.76.15-.76.15-.34.41-.57.41-.57.26-.24.61-.36.61-.36.35-.13.74-.13.74-.13.21 0 .39.03.39.03.18.03.33.09.33.09h1.78v.66h-1.05c.18.18.3.45.3.45.12.27.12.6.12.6 0 .41-.14.74-.14.74-.15.33-.4.55-.4.55-.25.22-.59.35-.59.35-.34.12-.73.12-.73.12-.19 0-.39-.05-.39-.05-.2-.05-.38-.13-.38-.13-.14.11-.23.25-.23.25-.1.14-.1.35-.1.35 0 .24.19.4.19.4.19.15.71.15.71.15h.99c.9 0 1.34.29 1.34.29.45.28.45.92.45.92 0 .35-.18.68-.18.68-.18.32-.51.56-.51.56-.34.24-.82.38-.82.38-.48.14-1.08.14-1.08.14-.47 0-.86-.09-.86-.09-.39-.09-.67-.27-.67-.27-.28-.18-.43-.43-.43-.43-.16-.25-.16-.59-.16-.59zm0 0zm2.11-3.18c.22 0 .42-.09.42-.09.19-.08.34-.24.34-.24.15-.16.23-.38.23-.38.08-.22.08-.51.08-.51 0-.56-.32-.87-.32-.87-.32-.31-.77-.31-.77-.31-.46 0-.77.31-.77.31-.32.31-.32.87-.32.87 0 .28.08.51.08.51.09.22.24.38.24.38.15.15.35.24.35.24.19.08.41.08.41.08zm2.57 2.2zm.48-2.54c0-.63.19-1.13.19-1.13.2-.5.52-.85.52-.85.32-.35.73-.53.73-.53.41-.19.85-.19.85-.19.48 0 .86.16.86.16.38.17.64.48.64.48.26.31.39.75.39.75.14.44.14.99.14.99 0 .28-.03.47-.03.47h-3.45c.05.83.51 1.32.51 1.32.46.48 1.19.48 1.19.48.37 0 .68-.11.68-.11.31-.11.59-.29.59-.29l.3.57c-.34.21-.75.37-.75.37-.41.16-.94.16-.94.16-.51 0-.96-.19-.96-.19-.45-.19-.78-.53-.78-.53-.33-.34-.52-.84-.52-.84-.19-.49-.19-1.12-.19-1.12zm0 0zm3.57-.39c0-.79-.33-1.2-.33-1.2-.34-.42-.93-.42-.93-.42-.28 0-.52.11-.52.11-.25.11-.45.31-.45.31-.2.2-.33.5-.33.5-.13.3-.18.69-.18.69h2.73zm1.15 2.93zm.68-4.32c0-.31.18-.49.18-.49.18-.19.45-.19.45-.19.25 0 .43.19.43.19.18.19.18.49.18.49 0 .28-.19.47-.19.47-.18.19-.44.19-.44.19-.26 0-.445-.19-.445-.19-.187-.19-.187-.47-.187-.47zm0 0zm0 3.79c0-.31.18-.49.18-.49.18-.18.45-.18.45-.18.25 0 .43.18.43.18.18.18.18.49.18.49 0 .28-.19.46-.19.46-.18.18-.44.18-.44.18-.26 0-.445-.19-.445-.19-.187-.18-.187-.47-.187-.47zm4.05.52zm.42-.52c.76-.76 1.35-1.37 1.35-1.37.58-.61.98-1.13.98-1.13.4-.52.61-.95.61-.95.21-.44.21-.85.21-.85 0-.58-.32-.95-.32-.95-.32-.37-.96-.37-.96-.37-.42 0-.78.23-.78.23-.36.24-.65.57-.65.57l-.5-.5c.42-.46.9-.74.9-.74.48-.28 1.14-.28 1.14-.28.94 0 1.47.54 1.47.54.54.55.54 1.44.54 1.44 0 .47-.21.95-.21.95-.2.48-.57.99-.57.99-.36.51-.86 1.06-.86 1.06-.5.55-1.1 1.17-1.1 1.17l.57-.04c.29-.02.56-.02.56-.02h1.94v.75h-4.33v-.52zm4.8.51zm.72-1.38c.3.31.7.55.7.55.4.24 1 .24 1 .24.61 0 1-.33 1-.33.38-.34.38-.9.38-.9 0-.3-.11-.54-.11-.54-.11-.25-.37-.43-.37-.43-.25-.18-.66-.28-.66-.28-.41-.1-1.01-.1-1.01-.1v-.67c.53 0 .9-.1.9-.1.36-.09.58-.26.58-.26.23-.17.32-.4.32-.4.09-.23.09-.49.09-.49 0-.49-.31-.77-.31-.77-.31-.29-.84-.29-.84-.29-.42 0-.77.19-.77.19-.358.19-.66.49-.66.49l-.46-.55c.39-.37.85-.6.85-.6.47-.24 1.07-.24 1.07-.24.44 0 .81.12.81.12.37.11.64.33.64.33.27.21.42.53.42.53.15.31.15.72.15.72 0 .61-.34 1-.34 1-.34.39-.88.6-.88.6v.04c.3.07.56.21.56.21.26.15.46.36.46.36.2.22.31.5.31.5.11.28.11.63.11.63 0 .44-.17.8-.17.8-.17.35-.47.6-.47.6-.3.25-.7.38-.7.38-.4.13-.86.13-.86.13-.4 0-.73-.08-.73-.08-.33-.08-.6-.21-.6-.21-.27-.13-.49-.3-.49-.3-.215-.17-.38-.36-.38-.36zm4.5 1.38zm1.2-1.8c0 .28.11.51.11.51.11.23.3.4.3.4.19.17.46.27.46.27.26.09.56.09.56.09.59 0 .95-.33.95-.33.37-.32.37-.85.37-.85 0-.32-.15-.56-.15-.56-.14-.23-.4-.4-.4-.4-.25-.17-.58-.31-.58-.31-.33-.15-.69-.29-.69-.29-.4.27-.67.63-.67.63-.27.36-.27.83-.27.83zm0 0zm1.89-1.86c.34-.31.52-.64.52-.64.18-.34.18-.71.18-.71 0-.5-.31-.85-.31-.85-.3-.34-.86-.34-.86-.34-.47 0-.77.29-.77.29-.31.29-.31.79-.31.79 0 .3.13.52.13.52.12.21.34.38.34.38.21.17.49.3.49.3.28.13.58.24.58.24zm0 0zm-2.67 1.94c0-.33.11-.61.11-.61.11-.28.28-.51.28-.51.17-.22.4-.4.4-.4.22-.17.46-.3.46-.3v-.04c-.37-.26-.65-.63-.65-.63-.28-.38-.28-.91-.28-.91 0-.39.15-.71.15-.71.14-.31.4-.54.4-.54.25-.22.6-.35.6-.35.34-.12.75-.12.75-.12.44 0 .79.13.79.13.34.14.59.37.59.37.24.24.38.57.38.57.13.33.13.72.13.72 0 .26-.09.5-.09.5-.09.24-.22.45-.22.45-.13.21-.3.38-.3.38-.17.17-.32.284-.32.284v.04c.22.13.43.29.43.29.21.16.37.37.37.37.16.2.26.46.26.46.1.26.1.6.1.6 0 .38-.16.7-.16.7-.15.324-.44.566-.44.566-.28.244-.68.38-.68.38-.4.137-.88.137-.88.137-.47 0-.88-.14-.88-.14-.4-.13-.69-.38-.69-.38-.28-.24-.45-.58-.45-.58-.166-.338-.166-.738-.166-.738zm109.6 1.77zm.94-6.89h.87v2.88h3.2v-2.89h.88v6.9h-.88v-3.25h-3.21V758h-.87v-6.89zm5.9 6.89zm.61-1.33c0-.84.75-1.29.75-1.29.75-.45 2.39-.63 2.39-.63 0-.24-.05-.476-.05-.476-.05-.23-.17-.41-.17-.41-.12-.178-.32-.29-.32-.29-.2-.11-.52-.11-.52-.11-.45 0-.84.17-.84.17-.39.167-.69.377-.69.377l-.35-.6c.36-.23.87-.45.87-.45.513-.22 1.133-.22 1.133-.22.932 0 1.352.57 1.352.57.42.57.42 1.53.42 1.53V758h-.716l-.08-.61h-.02c-.37.306-.8.52-.8.52-.43.216-.9.216-.9.216-.65 0-1.07-.378-1.07-.378-.43-.378-.43-1.07-.43-1.07zm0 0zm.85-.07c0 .44.25.63.25.63.25.19.63.19.63.19.37 0 .7-.177.7-.177.33-.175.7-.51.7-.51v-1.42c-.64.085-1.087.2-1.087.2-.44.116-.7.274-.7.274-.27.157-.38.362-.38.362-.12.203-.12.444-.12.444zM469 758zm.726-1.155c.336.273.688.44.688.44.352.17.814.17.814.17.504 0 .756-.232.756-.232.252-.23.252-.567.252-.567 0-.2-.105-.347-.105-.347-.1-.15-.26-.26-.26-.26-.16-.11-.37-.2-.37-.2l-.42-.17c-.27-.1-.54-.22-.54-.22-.27-.12-.49-.3-.49-.3-.21-.18-.35-.41-.35-.41-.14-.23-.14-.56-.14-.56 0-.31.12-.58.12-.58.13-.27.35-.46.35-.46.23-.19.55-.31.55-.31.33-.11.74-.11.74-.11.49 0 .89.17.89.17.41.16.7.41.7.41l-.41.54c-.26-.2-.54-.33-.54-.33-.28-.13-.62-.13-.62-.13-.48 0-.71.22-.71.22-.22.22-.22.51-.22.51 0 .18.1.31.1.31.09.13.25.23.25.23.16.1.36.18.36.18l.43.16c.28.1.56.22.56.22.28.11.5.29.5.29.22.17.36.42.36.42.14.25.14.61.14.61 0 .31-.12.59-.12.59-.12.27-.36.48-.36.48-.23.21-.58.33-.58.33-.35.12-.8.12-.8.12-.54 0-1.04-.2-1.04-.2-.49-.2-.86-.51-.86-.51zm3.676 1.155zm.862-7.48h.85v5.064h.032l2.174-2.69h.956l-1.712 2.05 1.943 3.056h-.945l-1.492-2.458-.956 1.113V758h-.85v-7.48zm4.15 7.48zm.482-2.542c0-.63.194-1.13.194-1.13.195-.498.515-.845.515-.845.32-.346.73-.53.73-.53.41-.184.85-.184.85-.184.484 0 .867.16.867.16.384.17.64.48.64.48.26.31.395.75.395.75.137.44.137.98.137.98 0 .28-.032.47-.032.47h-3.445c.052.83.51 1.31.51 1.31.456.48 1.192.48 1.192.48.36 0 .67-.11.67-.11.31-.11.59-.29.59-.29l.3.56c-.34.21-.75.37-.75.37-.41.16-.94.16-.94.16-.52 0-.96-.19-.96-.19-.45-.19-.78-.53-.78-.53-.33-.34-.52-.84-.52-.84-.19-.5-.19-1.13-.19-1.13zm0 0zm3.57-.39c0-.786-.33-1.2-.33-1.2-.33-.416-.93-.416-.93-.416-.272 0-.52.11-.52.11-.246.11-.445.315-.445.315-.2.205-.33.504-.33.504-.13.3-.17.69-.17.69h2.73zm1.157 2.932zm.86-7.48h.862v6.514c0 .21.074.294.074.294.07.084.16.084.16.084h.08l.11-.02.11.65c-.09.042-.2.063-.2.063-.12.02-.3.02-.3.02-.5 0-.71-.293-.71-.293-.21-.294-.21-.86-.21-.86v-6.45zM486.3 758zm.864-7.48h.86v6.514c0 .21.075.294.075.294.07.084.16.084.16.084h.08l.11-.02.11.65c-.09.042-.2.063-.2.063-.12.02-.3.02-.3.02-.5 0-.71-.293-.71-.293-.21-.294-.21-.86-.21-.86v-6.45zm3.94 7.48zm.944-6.89h2.112c.566 0 1.038.104 1.038.104.473.105.804.342.804.342.33.236.515.625.515.625.184.39.184.96.184.96 0 .55-.18.95-.18.95-.18.4-.52.66-.52.66-.33.26-.8.4-.8.4-.46.13-1.03.13-1.03.13h-1.24V758h-.87v-6.89zm0 0zm2.007 3.445c.903 0 1.34-.342 1.34-.342.435-.34.435-1.076.435-1.076 0-.746-.442-1.035-.442-1.035-.442-.29-1.334-.29-1.334-.29h-1.135v2.743h1.13zm3.098 3.445zm.862-7.48h.86v6.514c0 .21.074.294.074.294.07.084.17.084.17.084h.07l.11-.02.11.65c-.09.042-.2.063-.2.063-.12.02-.3.02-.3.02-.5 0-.71-.293-.71-.293-.21-.294-.21-.86-.21-.86v-6.45zm1.817 7.48zm.61-1.323c0-.84.75-1.287.75-1.287.752-.447 2.39-.625 2.39-.625 0-.242-.046-.473-.046-.473-.048-.23-.17-.41-.17-.41-.12-.178-.32-.29-.32-.29-.198-.11-.514-.11-.514-.11-.45 0-.835.17-.835.17-.383.167-.688.377-.688.377l-.35-.6c.36-.23.87-.45.87-.45.51-.22 1.13-.22 1.13-.22.93 0 1.35.57 1.35.57.42.57.42 1.53.42 1.53V758h-.72l-.08-.61h-.02c-.37.306-.8.52-.8.52-.43.216-.9.216-.9.216-.65 0-1.08-.378-1.08-.378-.43-.378-.43-1.07-.43-1.07zm0 0zm.85-.064c0 .442.258.63.258.63.258.19.636.19.636.19.367 0 .698-.173.698-.173.33-.174.7-.51.7-.51v-1.418c-.642.084-1.083.2-1.083.2-.44.115-.71.273-.71.273-.26.157-.38.362-.38.362-.11.205-.11.446-.11.446zm3.92 1.387zm1.007-4.4h-.76v-.653l.8-.052.1-1.43h.72v1.43h1.37v.704h-1.38v2.83c0 .47.17.73.17.73.17.25.61.25.61.25.14 0 .29-.04.29-.04.16-.05.28-.1.28-.1l.17.65c-.21.07-.46.13-.46.13-.25.05-.49.05-.49.05-.41 0-.69-.13-.69-.13-.28-.13-.45-.35-.45-.35-.18-.22-.25-.54-.25-.54-.08-.32-.08-.7-.08-.7v-2.82zm2.54 4.4zm3.16-6.775c-.28-.126-.58-.126-.58-.126-.72 0-.72.98-.72.98v.81h1.08v.7h-1.08v4.4h-.86v-4.4h-.7v-.66l.69-.05v-.81c0-.79.36-1.24.36-1.24.36-.45 1.13-.45 1.13-.45.24 0 .45.05.45.05.21.04.39.12.39.12zm-.2 6.775zm.48-2.542c0-.64.19-1.14.19-1.14.19-.5.52-.845.52-.845.32-.347.75-.525.75-.525.42-.18.9-.18.9-.18.47 0 .89.18.89.18.42.178.75.525.75.525.32.346.52.845.52.845.19.5.19 1.14.19 1.14 0 .63-.2 1.13-.2 1.13-.19.498-.52.84-.52.84-.33.34-.75.52-.75.52-.43.178-.9.178-.9.178-.47 0-.9-.18-.9-.18-.43-.177-.75-.52-.75-.52-.33-.34-.52-.84-.52-.84-.2-.498-.2-1.128-.2-1.128zm0 0zm.89 0c0 .44.1.798.1.798.1.357.3.615.3.615.19.26.46.4.46.4.27.15.6.15.6.15.32 0 .6-.14.6-.14.27-.14.46-.4.46-.4.19-.25.3-.61.3-.61.1-.35.1-.8.1-.8 0-.44-.11-.8-.11-.8-.11-.36-.3-.62-.3-.62-.19-.26-.47-.4-.47-.4-.28-.14-.6-.14-.6-.14-.33 0-.6.14-.6.14-.28.14-.47.41-.47.41-.2.26-.3.63-.3.63-.11.37-.11.81-.11.81zm4.32 2.542zm.86-5.105h.71l.07.924h.03c.26-.49.63-.77.63-.77.37-.29.81-.29.81-.29.3 0 .54.1.54.1l-.17.75c-.12-.04-.23-.07-.23-.07-.1-.02-.26-.02-.26-.02-.33 0-.68.26-.68.26-.35.26-.61.91-.61.91v3.3h-.87v-5.11zm2.79 5.105zm.86-5.105h.71l.07.735h.03c.33-.367.73-.614.73-.614.39-.247.85-.247.85-.247.59 0 .92.25.92.25.33.26.48.72.48.72.4-.44.8-.71.8-.71.4-.27.87-.27.87-.27.79 0 1.17.5 1.17.5.38.5.38 1.49.38 1.49V758h-.86v-3.12c0-.724-.23-1.045-.23-1.045-.24-.32-.72-.32-.72-.32-.58 0-1.28.788-1.28.788V758H525v-3.12c0-.724-.23-1.045-.23-1.045-.234-.32-.73-.32-.73-.32-.576 0-1.28.788-1.28.788V758h-.86v-5.105zm7.85 5.105zm.68-4.317c0-.305.18-.49.18-.49.18-.182.44-.182.44-.182.25 0 .43.19.43.19.19.19.19.49.19.49 0 .28-.18.47-.18.47-.19.19-.44.19-.44.19-.26 0-.45-.18-.45-.18-.19-.18-.19-.46-.19-.46zm0 0zm0 3.792c0-.305.18-.49.18-.49.18-.182.44-.182.44-.182.25 0 .43.183.43.183.19.184.19.49.19.49 0 .282-.18.466-.18.466-.19.184-.44.184-.44.184-.26 0-.45-.184-.45-.184-.19-.184-.19-.467-.19-.467zm4.05.525zm.83-.714h1.53v-4.937h-1.22v-.56c.46-.09.8-.21.8-.21.34-.12.61-.29.61-.29h.66v5.99h1.38v.72h-3.79v-.72zm4.39.714zm2.61.126c-1.02 0-1.59-.903-1.59-.903-.57-.904-.57-2.595-.57-2.595 0-1.69.56-2.573.56-2.573.57-.883 1.58-.883 1.58-.883 1.01 0 1.57.883 1.57.883.56.882.56 2.573.56 2.573 0 1.69-.57 2.595-.57 2.595-.57.903-1.58.903-1.58.903zm0 0zm0-.693c.29 0 .53-.163.53-.163.23-.163.41-.504.41-.504.17-.342.26-.872.26-.872.09-.53.09-1.266.09-1.266 0-.735-.1-1.26-.1-1.26-.09-.525-.27-.856-.27-.856-.18-.33-.41-.49-.41-.49-.24-.156-.53-.156-.53-.156-.3 0-.54.157-.54.157-.25.158-.42.49-.42.49-.17.33-.27.855-.27.855-.1.525-.1 1.26-.1 1.26 0 1.47.36 2.138.36 2.138.36.667.95.667.95.667zm2.6.567zm1.86 0c.04-.945.16-1.733.16-1.733.12-.788.35-1.497.35-1.497.22-.71.57-1.37.57-1.37.35-.663.84-1.356.84-1.356h-3.34v-.746h4.31v.536c-.6.756-.98 1.45-.98 1.45-.38.693-.6 1.412-.6 1.412-.22.72-.32 1.524-.32 1.524-.1.803-.14 1.78-.14 1.78h-.9zm120.79 0zm.96-1.502c.36.39.86.625.86.625.5.236 1.03.236 1.03.236.68 0 1.06-.31 1.06-.31.38-.31.38-.82.38-.82 0-.26-.09-.45-.09-.45-.09-.19-.24-.32-.24-.32-.15-.13-.36-.24-.36-.24-.21-.11-.45-.22-.45-.22l-.99-.43c-.24-.11-.5-.26-.5-.26-.25-.15-.45-.36-.45-.36-.2-.21-.32-.5-.32-.5-.13-.29-.13-.67-.13-.67 0-.39.16-.73.16-.73.16-.34.45-.59.45-.59.29-.25.68-.39.68-.39.39-.14.87-.14.87-.14.62 0 1.14.23 1.14.23.52.24.89.61.89.61l-.47.56c-.32-.31-.7-.48-.7-.48-.39-.17-.87-.17-.87-.17-.58 0-.93.26-.93.26-.36.27-.36.74-.36.74 0 .25.1.42.1.42.1.17.27.3.27.3.17.14.37.23.37.23.2.1.41.19.41.19l.98.42c.29.13.55.29.55.29.26.16.45.38.45.38.19.21.3.5.3.5.11.29.11.66.11.66 0 .41-.16.76-.16.76-.17.35-.47.62-.47.62-.31.26-.74.42-.74.42-.43.15-.97.15-.97.15-.72 0-1.34-.27-1.34-.27-.62-.27-1.07-.75-1.07-.75zM673.2 758zm.483-2.542c0-.64.192-1.14.192-1.14.195-.5.52-.845.52-.845.326-.347.75-.525.75-.525.427-.18.9-.18.9-.18.472 0 .897.18.897.18.426.178.752.525.752.525.324.346.52.845.52.845.193.5.193 1.14.193 1.14 0 .63-.196 1.13-.196 1.13-.19.498-.52.84-.52.84-.32.34-.75.52-.75.52-.42.178-.9.178-.9.178-.47 0-.89-.18-.89-.18-.42-.177-.75-.52-.75-.52-.32-.34-.52-.84-.52-.84-.19-.498-.19-1.128-.19-1.128zm0 0zm.89 0c0 .44.106.798.106.798.11.357.3.615.3.615.2.26.47.4.47.4.28.15.6.15.6.15.33 0 .6-.14.6-.14.28-.14.47-.4.47-.4.2-.25.3-.61.3-.61.11-.35.11-.8.11-.8 0-.44-.11-.8-.11-.8-.11-.36-.3-.62-.3-.62-.2-.26-.47-.4-.47-.4-.27-.14-.6-.14-.6-.14-.33 0-.6.14-.6.14-.28.14-.47.41-.47.41-.19.26-.3.63-.3.63-.1.37-.1.81-.1.81zM678.9 758zm.788-5.105h.88v3.12c0 .724.23 1.045.23 1.045.23.32.73.32.73.32.4 0 .707-.205.707-.205.305-.204.673-.656.673-.656v-3.63h.86V758h-.714l-.076-.798h-.03c-.36.42-.756.672-.756.672-.394.252-.93.252-.93.252-.82 0-1.19-.504-1.19-.504-.375-.504-.375-1.492-.375-1.492v-3.235zm4.93 5.105zm.87-5.105h.718l.073.924h.03c.26-.49.63-.77.63-.77.37-.29.81-.29.81-.29.3 0 .54.1.54.1l-.17.75-.23-.07c-.11-.02-.27-.02-.27-.02-.33 0-.68.26-.68.26-.35.26-.62.91-.62.91v3.3h-.86v-5.11zm2.67 5.105zm.488-2.542c0-.64.2-1.14.2-1.14.2-.5.536-.845.536-.845.336-.347.78-.525.78-.525.45-.18.94-.18.94-.18.507 0 .87.185.87.185.36.184.624.425.624.425l-.43.557c-.232-.2-.48-.326-.48-.326-.245-.13-.55-.13-.55-.13-.347 0-.64.14-.64.14-.295.14-.505.4-.505.4-.21.26-.33.62-.33.62-.12.36-.12.8-.12.8 0 .44.12.8.12.8.12.35.32.61.32.61.21.25.5.4.5.4.3.14.64.14.64.14.37 0 .67-.15.67-.15.3-.16.53-.37.53-.37l.39.56c-.35.3-.77.48-.77.48-.42.18-.89.18-.89.18-.5 0-.94-.18-.94-.18-.44-.18-.76-.52-.76-.52-.32-.34-.5-.84-.5-.84-.18-.5-.18-1.13-.18-1.13zM692.73 758zm.482-2.542c0-.63.194-1.13.194-1.13.194-.498.515-.845.515-.845.32-.346.73-.53.73-.53.41-.184.85-.184.85-.184.49 0 .87.16.87.16.39.17.64.48.64.48.26.31.4.75.4.75.14.44.14.98.14.98 0 .28-.03.47-.03.47h-3.44c.06.83.51 1.31.51 1.31.46.48 1.2.48 1.2.48.37 0 .68-.11.68-.11.31-.11.6-.29.6-.29l.31.56c-.34.21-.75.37-.75.37-.41.16-.93.16-.93.16-.51 0-.96-.19-.96-.19-.44-.19-.78-.53-.78-.53-.33-.34-.52-.84-.52-.84-.19-.5-.19-1.13-.19-1.13zm0 0zm3.57-.39c0-.786-.33-1.2-.33-1.2-.33-.416-.93-.416-.93-.416-.273 0-.52.11-.52.11-.246.11-.446.315-.446.315-.2.205-.33.504-.33.504-.132.3-.174.69-.174.69h2.73zM697.94 758zm.68-4.317c0-.305.183-.49.183-.49.184-.182.446-.182.446-.182.25 0 .43.19.43.19.18.19.18.49.18.49 0 .28-.19.47-.19.47-.19.19-.44.19-.44.19-.27 0-.45-.18-.45-.18-.19-.18-.19-.46-.19-.46zm0 0zm0 3.792c0-.305.183-.49.183-.49.184-.182.446-.182.446-.182.25 0 .43.183.43.183.18.184.18.49.18.49 0 .282-.19.466-.19.466-.19.184-.44.184-.44.184-.27 0-.45-.184-.45-.184-.19-.184-.19-.467-.19-.467zm4.054.525zm3.193-2.542v-1.943c0-.273.016-.646.016-.646.016-.38.037-.65.037-.65h-.043c-.126.24-.263.47-.263.47-.136.23-.283.47-.283.47l-1.56 2.29h2.1zm0 0zm1.733.693h-.914V758h-.82v-1.85h-3.014v-.566l2.867-4.286h.96v4.16h.91v.693zm.293 1.85zm2.47-3.25c.325 0 .698-.2.698-.2.38-.2.71-.69.71-.69-.08-.98-.46-1.49-.46-1.49-.38-.5-1.02-.5-1.02-.5-.24 0-.45.11-.45.11-.21.11-.37.3-.37.3-.16.2-.25.47-.25.47-.09.28-.09.6-.09.6 0 .66.31 1.04.31 1.04.31.38.94.38.94.38zm0 0zm-1.45 2.13c.21.24.498.39.498.39.29.15.61.15.61.15.36 0 .68-.14.68-.14.32-.14.56-.49.56-.49.24-.34.39-.88.39-.88.15-.54.16-1.35.16-1.35-.31.4-.73.63-.73.63-.42.23-.84.23-.84.23-.87 0-1.38-.51-1.38-.51-.51-.51-.51-1.55-.51-1.55 0-.48.16-.87.16-.87.16-.39.43-.68.43-.68.27-.28.63-.44.63-.44.37-.16.77-.16.77-.16.49 0 .92.2.92.2.43.2.74.61.74.61.31.41.49 1.01.49 1.01.17.61.17 1.42.17 1.42 0 1.01-.21 1.72-.21 1.72-.21.71-.56 1.16-.56 1.16-.36.45-.81.65-.81.65-.46.21-.96.21-.96.21-.54 0-.94-.2-.94-.2-.41-.2-.68-.5-.68-.5zM833.516 758zm.945-6.89h1.03l1.34 3.697.51 1.407h.04l.49-1.407 1.33-3.698h1.03V758h-.83v-3.792c0-.462.04-1.02.04-1.02.04-.556.08-1.018.08-1.018h-.04l-.55 1.534-1.32 3.603h-.49l-1.33-3.603-.54-1.534h-.04c.03.462.08 1.02.08 1.02.04.556.04 1.018.04 1.018V758h-.81v-6.89zm6.7 6.89zm1.31-6.155c-.25 0-.42-.158-.42-.158-.17-.158-.17-.4-.17-.4 0-.25.18-.404.18-.404.18-.152.43-.152.43-.152.25 0 .43.16.43.16.18.16.18.41.18.41 0 .24-.18.4-.18.4-.17.16-.42.16-.42.16zm0 0zm-.44 1.05h.86V758h-.86v-5.105zm1.72 5.105zm.86-5.105h.72l.08.735h.03c.37-.367.78-.614.78-.614.41-.247.94-.247.94-.247.81 0 1.18.5 1.18.5.38.5.38 1.49.38 1.49V758h-.86v-3.12c0-.724-.23-1.045-.23-1.045-.23-.32-.73-.32-.73-.32-.4 0-.7.2-.7.2-.3.2-.69.588-.69.588V758h-.86v-5.105zm4.88 5.105zm1.31-6.155c-.25 0-.42-.158-.42-.158-.17-.158-.17-.4-.17-.4 0-.25.17-.404.17-.404.17-.152.43-.152.43-.152.25 0 .42.16.42.16.18.16.18.41.18.41 0 .24-.17.4-.17.4-.17.16-.42.16-.42.16zm0 0zm-.44 1.05h.86V758h-.86v-5.105zm1.72 5.105zm.87-5.105h.72l.08.735h.04c.34-.367.73-.614.73-.614.4-.247.86-.247.86-.247.59 0 .92.25.92.25.33.26.49.72.49.72.4-.44.81-.71.81-.71.41-.27.88-.27.88-.27.79 0 1.17.5 1.17.5.39.5.39 1.49.39 1.49V758h-.86v-3.12c0-.724-.24-1.045-.24-1.045-.23-.32-.71-.32-.71-.32-.58 0-1.28.788-1.28.788V758h-.86v-3.12c0-.724-.23-1.045-.23-1.045-.23-.32-.72-.32-.72-.32-.58 0-1.28.788-1.28.788V758H853v-5.105zm7.84 5.105zm.61-1.323c0-.84.75-1.287.75-1.287.75-.447 2.39-.625 2.39-.625 0-.242-.04-.473-.04-.473-.05-.23-.17-.41-.17-.41-.12-.178-.32-.29-.32-.29-.2-.11-.51-.11-.51-.11-.45 0-.83.17-.83.17-.39.167-.69.377-.69.377l-.35-.6c.36-.23.87-.45.87-.45.52-.22 1.14-.22 1.14-.22.94 0 1.36.57 1.36.57.42.57.42 1.53.42 1.53V758h-.71l-.07-.61h-.02c-.37.306-.79.52-.79.52-.42.216-.89.216-.89.216-.65 0-1.07-.378-1.07-.378-.42-.378-.42-1.07-.42-1.07zm0 0zm.85-.064c0 .442.26.63.26.63.26.19.64.19.64.19.37 0 .7-.173.7-.173.33-.174.7-.51.7-.51v-1.418c-.64.084-1.08.2-1.08.2-.44.115-.71.273-.71.273-.26.157-.38.362-.38.362-.11.205-.11.446-.11.446zm3.91 1.387zm.87-7.48h.86v6.514c0 .21.07.294.07.294.07.084.17.084.17.084h.08l.11-.02.11.65c-.08.042-.19.063-.19.063-.11.02-.29.02-.29.02-.49 0-.7-.293-.7-.293-.21-.294-.21-.86-.21-.86v-6.45zm3.94 7.48zm1.3-6.155c-.26 0-.43-.158-.43-.158-.17-.158-.17-.4-.17-.4 0-.25.17-.404.17-.404.17-.152.43-.152.43-.152.26 0 .43.16.43.16.18.16.18.41.18.41 0 .24-.17.4-.17.4-.17.16-.42.16-.42.16zm0 0zm-.44 1.05h.86V758h-.86v-5.105zm1.72 5.105zm.86-5.105h.71l.07.735h.03c.36-.367.77-.614.77-.614.4-.247.94-.247.94-.247.81 0 1.18.5 1.18.5.37.5.37 1.49.37 1.49V758h-.86v-3.12c0-.724-.23-1.045-.23-1.045-.23-.32-.73-.32-.73-.32-.4 0-.7.2-.7.2-.3.2-.69.588-.69.588V758h-.86v-5.105zm4.88 5.105zm.72-1.155c.33.273.68.44.68.44.35.17.82.17.82.17.51 0 .76-.232.76-.232.25-.23.25-.567.25-.567 0-.2-.1-.347-.1-.347-.11-.15-.27-.26-.27-.26-.16-.11-.37-.2-.37-.2l-.42-.17c-.27-.1-.54-.22-.54-.22-.27-.12-.49-.3-.49-.3-.21-.18-.35-.41-.35-.41-.14-.23-.14-.56-.14-.56 0-.31.12-.58.12-.58.12-.27.35-.46.35-.46.23-.19.55-.31.55-.31.33-.11.74-.11.74-.11.48 0 .89.17.89.17.4.16.7.41.7.41l-.41.54c-.27-.2-.55-.33-.55-.33-.28-.13-.62-.13-.62-.13-.48 0-.71.22-.71.22-.23.22-.23.51-.23.51 0 .18.09.31.09.31.1.13.26.23.26.23.16.1.36.18.36.18l.43.16c.28.1.56.22.56.22.28.11.5.29.5.29.22.17.36.42.36.42.14.25.14.61.14.61 0 .31-.12.59-.12.59-.12.27-.36.48-.36.48-.23.21-.59.33-.59.33-.35.12-.8.12-.8.12-.54 0-1.04-.2-1.04-.2-.49-.2-.86-.51-.86-.51zm3.67 1.155zm1.01-4.4h-.75v-.653l.8-.052.11-1.43h.73v1.43h1.38v.704h-1.38v2.83c0 .47.18.73.18.73.17.25.61.25.61.25.14 0 .29-.04.29-.04.16-.05.29-.1.29-.1l.17.65c-.21.07-.45.13-.45.13-.25.05-.49.05-.49.05-.41 0-.69-.13-.69-.13-.28-.13-.45-.35-.45-.35-.17-.22-.25-.54-.25-.54-.07-.32-.07-.7-.07-.7v-2.82zm2.36 4.4zm.61-1.323c0-.84.75-1.287.75-1.287.75-.447 2.39-.625 2.39-.625 0-.242-.04-.473-.04-.473-.05-.23-.17-.41-.17-.41-.12-.178-.32-.29-.32-.29-.2-.11-.51-.11-.51-.11-.45 0-.83.17-.83.17-.38.167-.68.377-.68.377l-.35-.6c.36-.23.88-.45.88-.45.52-.22 1.14-.22 1.14-.22.93 0 1.36.57 1.36.57.42.57.42 1.53.42 1.53V758h-.71l-.07-.61h-.02c-.364.306-.79.52-.79.52-.422.216-.894.216-.894.216-.66 0-1.08-.378-1.08-.378-.43-.378-.43-1.07-.43-1.07zm0 0zm.85-.064c0 .442.26.63.26.63.26.19.64.19.64.19.37 0 .7-.173.7-.173.33-.174.7-.51.7-.51v-1.418c-.64.084-1.08.2-1.08.2-.44.115-.71.273-.71.273-.26.157-.38.362-.38.362-.11.205-.11.446-.11.446zm3.92 1.387zm.86-7.48h.86v6.514c0 .21.08.294.08.294.08.084.17.084.17.084h.08l.11-.02.11.65c-.08.042-.2.063-.2.063-.11.02-.29.02-.29.02-.49 0-.7-.293-.7-.293-.21-.294-.21-.86-.21-.86v-6.45zm1.82 7.48zm.86-7.48h.87v6.514c0 .21.07.294.07.294.08.084.17.084.17.084h.08l.11-.02.12.65c-.09.042-.2.063-.2.063-.12.02-.3.02-.3.02-.49 0-.7-.293-.7-.293-.21-.294-.21-.86-.21-.86v-6.45zm1.82 7.48zm.49-2.542c0-.63.2-1.13.2-1.13.2-.498.52-.845.52-.845.32-.346.73-.53.73-.53.41-.184.85-.184.85-.184.49 0 .87.16.87.16.39.17.64.48.64.48.26.31.4.75.4.75.14.44.14.98.14.98 0 .28-.03.47-.03.47h-3.44c.05.83.51 1.31.51 1.31.46.48 1.19.48 1.19.48.37 0 .68-.11.68-.11.31-.11.59-.29.59-.29l.31.56c-.33.21-.74.37-.74.37-.41.16-.93.16-.93.16-.51 0-.96-.19-.96-.19-.44-.19-.77-.53-.77-.53-.33-.34-.52-.84-.52-.84-.19-.5-.19-1.13-.19-1.13zm0 0zm3.57-.39c0-.786-.33-1.2-.33-1.2-.33-.416-.93-.416-.93-.416-.27 0-.52.11-.52.11-.24.11-.44.315-.44.315-.2.205-.33.504-.33.504-.13.3-.17.69-.17.69h2.73zM903 758zm.86-5.105h.713l.07.924h.03c.27-.49.64-.77.64-.77.37-.29.82-.29.82-.29.308 0 .55.1.55.1l-.167.75c-.13-.04-.236-.07-.236-.07-.105-.02-.26-.02-.26-.02-.327 0-.68.26-.68.26-.35.26-.62.91-.62.91v3.3h-.86v-5.11zm2.78 5.105zm.684-4.317c0-.305.18-.49.18-.49.18-.182.446-.182.446-.182.25 0 .434.19.434.19.18.19.18.49.18.49 0 .28-.185.47-.185.47-.19.19-.44.19-.44.19-.27 0-.45-.18-.45-.18-.19-.18-.19-.46-.19-.46zm0 0zm0 3.792c0-.305.18-.49.18-.49.18-.182.446-.182.446-.182.25 0 .434.183.434.183.18.184.18.49.18.49 0 .282-.185.466-.185.466-.19.184-.44.184-.44.184-.27 0-.45-.184-.45-.184-.19-.184-.19-.467-.19-.467zm4.053.525zm.715-1.387c.3.315.71.557.71.557.4.242 1 .242 1 .242.61 0 1-.33 1-.33.39-.332.39-.9.39-.9 0-.293-.11-.54-.11-.54-.11-.247-.36-.426-.36-.426-.25-.178-.66-.273-.66-.273-.41-.094-1.01-.094-1.01-.094v-.67c.54 0 .9-.1.9-.1.36-.1.59-.26.59-.26.22-.17.32-.4.32-.4.09-.23.09-.5.09-.5 0-.5-.31-.78-.31-.78-.31-.29-.845-.29-.845-.29-.42 0-.773.19-.773.19-.35.18-.655.49-.655.49l-.46-.55c.39-.37.86-.61.86-.61.47-.24 1.06-.24 1.06-.24.45 0 .81.11.81.11.37.11.64.33.64.33.27.21.41.53.41.53.14.31.14.72.14.72 0 .61-.33 1-.33 1-.34.39-.88.6-.88.6v.04c.3.07.56.21.56.21.26.14.46.35.46.35.2.21.31.5.31.5.11.28.11.63.11.63 0 .44-.18.79-.18.79-.17.35-.47.6-.47.6-.3.25-.7.38-.7.38-.4.13-.86.13-.86.13-.4 0-.73-.08-.73-.08-.33-.08-.61-.21-.61-.21-.28-.13-.49-.3-.49-.3-.22-.17-.39-.36-.39-.36zM916.6 758zm2.81-.557c.25 0 .46-.105.46-.105.21-.105.37-.3.37-.3.15-.193.24-.46.24-.46.09-.27.09-.605.09-.605 0-.662-.305-1.04-.305-1.04-.306-.378-.937-.378-.937-.378-.32 0-.69.204-.69.204-.376.2-.71.67-.71.67.082.98.46 1.49.46 1.49.37.51 1.01.51 1.01.51zm0 0zm1.37-5.02c-.21-.242-.5-.384-.5-.384-.29-.15-.603-.15-.603-.15-.345 0-.66.14-.66.14-.315.14-.557.48-.557.48-.24.33-.39.87-.39.87-.15.54-.16 1.34-.16 1.34.313-.39.733-.62.733-.62.42-.23.83-.23.83-.23.874 0 1.394.51 1.394.51.52.51.52 1.55.52 1.55 0 .48-.156.88-.156.88-.15.39-.43.67-.43.67-.27.28-.63.44-.63.44-.36.15-.76.15-.76.15-.5 0-.92-.2-.92-.2-.42-.2-.73-.61-.73-.61-.31-.4-.49-1.01-.49-1.01-.18-.6-.18-1.41-.18-1.41 0-1.01.21-1.72.21-1.72.21-.71.57-1.15.57-1.15.36-.45.82-.65.82-.65.46-.21.96-.21.96-.21.55 0 .94.2.94.2.4.2.68.51.68.51z"/></svg>