<svg xmlns="http://www.w3.org/2000/svg" stroke="#000" viewBox="0 0 1024 768" font-size="1"><path fill="#FFF" stroke="none" d="M0 0v768h1024V0z"/><path stroke="none" d="M391.86 14.102zm1.187-10.04h2.264v3.864h3.47V4.06h2.28v10.042h-2.28v-4.19h-3.46v4.19h-2.26V4.062zm9.194 10.04zm.56-3.82c0-.955.31-1.7.31-1.7.31-.748.83-1.257.83-1.257.52-.508 1.2-.777 1.2-.777.68-.27 1.4-.27 1.4-.27.73 0 1.4.27 1.4.27.67.27 1.19.777 1.19.777.52.51.83 1.256.83 1.256.31.75.31 1.71.31 1.71 0 .96-.31 1.7-.31 1.7-.31.75-.83 1.26-.83 1.26-.51.51-1.18.78-1.18.78-.67.27-1.39.27-1.39.27-.72 0-1.4-.27-1.4-.27-.68-.27-1.19-.77-1.19-.77-.51-.51-.82-1.25-.82-1.25-.31-.74-.31-1.7-.31-1.7zm0 0zm2.33 0c0 1 .35 1.586.35 1.586.35.586 1.06.586 1.06.586.7 0 1.05-.586 1.05-.586.36-.585.36-1.586.36-1.586 0-1-.35-1.586-.35-1.586-.35-.585-1.05-.585-1.05-.585-.71 0-1.05.59-1.05.59-.34.59-.34 1.59-.34 1.59zm5.55 3.82zm.37-7.64h2.25l.74 3.543c.1.57.17 1.124.17 1.124.08.55.17 1.14.17 1.14h.06c.11-.59.21-1.16.21-1.16.1-.57.24-1.11.24-1.11l.85-3.54h1.96l.86 3.54c.14.57.25 1.12.25 1.12.11.55.24 1.14.24 1.14h.06c.11-.59.18-1.14.18-1.14.07-.56.18-1.13.18-1.13l.72-3.54h2.1l-1.83 7.64h-2.65l-.69-3.05c-.12-.54-.22-1.08-.22-1.08l-.2-1.16h-.06l-.19 1.15c-.08.54-.19 1.08-.19 1.08l-.68 3.05h-2.59zm14.79 7.64zm5.32-9.04c-.43-.154-.78-.154-.78-.154-.41 0-.64.254-.64.254-.23.254-.23.84-.23.84v.46h1.37v1.772h-1.37v5.868h-2.26V8.234h-1.02v-1.68l1.01-.076v-.415c0-.6.15-1.14.15-1.14.15-.54.49-.94.49-.94.34-.4.88-.63.88-.63.54-.232 1.31-.232 1.31-.232.48 0 .87.1.87.1.39.09.65.19.65.19zm-.06 9.04zm1-7.64h1.85l.16 1.34h.06c.42-.785 1-1.154 1-1.154.59-.37 1.17-.37 1.17-.37.33 0 .53.04.53.04.21.037.38.114.38.114l-.37 1.956c-.21-.062-.4-.092-.4-.092-.18-.03-.43-.03-.43-.03-.43 0-.9.307-.9.307-.47.308-.77 1.093-.77 1.093v4.436h-2.27v-7.64zm4.98 7.64zm.56-3.82c0-.924.31-1.67.31-1.67.31-.748.81-1.263.81-1.263.5-.52 1.15-.8 1.15-.8.65-.28 1.34-.28 1.34-.28.82 0 1.43.28 1.43.28.61.27 1.02.77 1.02.77.41.49.61 1.16.61 1.16.2.67.2 1.45.2 1.45 0 .31-.03.56-.03.56-.03.25-.06.39-.06.39h-4.58c.15.88.69 1.27.69 1.27.53.39 1.3.39 1.3.39.82 0 1.65-.51 1.65-.51l.75 1.37c-.59.4-1.3.63-1.3.63-.72.23-1.41.23-1.41.23-.82 0-1.53-.27-1.53-.27-.7-.27-1.23-.79-1.23-.79-.52-.52-.81-1.26-.81-1.26-.29-.74-.29-1.69-.29-1.69zm0 0zm4.93-.785c0-.662-.29-1.078-.29-1.078-.29-.42-.98-.42-.98-.42-.53 0-.94.36-.94.36-.41.36-.53 1.13-.53 1.13h2.76zm2.5 4.605zm.6-3.82c0-.94.27-1.678.27-1.678.27-.74.71-1.255.71-1.255.44-.52 1.02-.8 1.02-.8.58-.28 1.18-.28 1.18-.28.63 0 1.11.22 1.11.22.48.22.92.71.92.71h.06l.19-.76h1.77v10.48h-2.27V14.6l.09-1.17c-.38.37-.89.608-.89.608-.5.24-1.03.24-1.03.24-.7 0-1.28-.28-1.28-.28-.57-.276-.98-.79-.98-.79-.41-.517-.64-1.256-.64-1.256-.22-.73-.22-1.67-.22-1.67zm0 0zm2.32-.03c0 1.14.36 1.663.36 1.663.36.523 1.03.523 1.03.523.37 0 .67-.154.67-.154.3-.154.58-.54.58-.54V8.62c-.3-.278-.63-.386-.63-.386-.32-.108-.63-.108-.63-.108-.54 0-.95.516-.95.516-.42.516-.42 1.61-.42 1.61zm5.89 3.85zm.93-7.64h2.27v4.452c0 .83.23 1.14.23 1.14.23.307.72.307.72.307.43 0 .73-.2.73-.2.29-.2.63-.64.63-.64V6.47h2.27v7.63h-1.85l-.17-1.063h-.05c-.49.584-1.05.915-1.05.915-.57.33-1.35.33-1.35.33-1.25 0-1.81-.815-1.81-.815-.56-.816-.56-2.264-.56-2.264v-4.74zm7.83 7.64zm.55-3.82c0-.924.31-1.67.31-1.67.31-.748.81-1.263.81-1.263.5-.52 1.15-.8 1.15-.8.65-.28 1.34-.28 1.34-.28.82 0 1.43.28 1.43.28.61.27 1.02.77 1.02.77.41.49.61 1.16.61 1.16.2.67.2 1.45.2 1.45 0 .31-.03.56-.03.56-.03.25-.06.39-.06.39h-4.58c.15.88.68 1.27.68 1.27.53.39 1.3.39 1.3.39.82 0 1.65-.51 1.65-.51l.75 1.37c-.58.4-1.3.63-1.3.63-.72.23-1.41.23-1.41.23-.82 0-1.52-.27-1.52-.27-.71-.27-1.23-.79-1.23-.79-.52-.52-.81-1.26-.81-1.26-.29-.74-.29-1.69-.29-1.69zm0 0zm4.93-.785c0-.662-.29-1.078-.29-1.078-.29-.42-.99-.42-.99-.42-.54 0-.94.36-.94.36-.41.36-.53 1.13-.53 1.13h2.76zm2.5 4.605zm1-7.64h1.85l.15.97h.06c.49-.46 1.08-.807 1.08-.807.59-.347 1.37-.347 1.37-.347 1.25 0 1.81.816 1.81.816.56.817.56 2.264.56 2.264v4.744h-2.27v-4.45c0-.833-.22-1.14-.22-1.14-.22-.31-.71-.31-.71-.31-.43 0-.74.194-.74.194-.31.192-.68.547-.68.547v5.16h-2.27v-7.64zm7.81 7.64zm1.31-5.868h-1.05v-1.68l1.17-.09.26-2.034H483v2.033h1.83v1.77H483V11.3c0 .646.27.93.27.93.27.285.72.285.72.285.183 0 .375-.046.375-.046.19-.05.346-.11.346-.11l.36 1.65c-.31.09-.72.18-.72.18-.42.09-.97.09-.97.09-.71 0-1.21-.22-1.21-.22-.5-.22-.82-.6-.82-.6-.31-.39-.46-.94-.46-.94-.15-.55-.15-1.21-.15-1.21V8.23zm4.59 5.868zm1-10.796h2.26v8.516c0 .355.13.493.13.493.13.14.27.14.27.14h.13l.15-.032.27 1.68c-.19.076-.47.13-.47.13-.29.053-.67.053-.67.053-.59 0-.99-.184-.99-.184-.4-.185-.64-.516-.64-.516-.23-.33-.34-.8-.34-.8-.11-.47-.11-1.056-.11-1.056V3.306zm3.4 10.796zm1.17 1.108c.11.03.25.062.25.062.14.03.26.03.26.03.57 0 .88-.276.88-.276.31-.278.46-.724.46-.724l.11-.4-2.94-7.44h2.28l1.1 3.28c.17.525.3 1.064.3 1.064.14.54.29 1.11.29 1.11h.06c.12-.54.25-1.087.25-1.087.13-.55.27-1.09.27-1.09l.92-3.28h2.17l-2.65 7.71c-.28.72-.58 1.27-.58 1.27-.3.54-.69.91-.69.91-.39.36-.9.54-.9.54-.5.18-1.17.18-1.17.18-.35 0-.6-.04-.6-.04-.24-.04-.48-.12-.48-.12l.4-1.73zm10.06-1.108zm.6-3.82c0-.94.27-1.678.27-1.678.27-.74.71-1.255.71-1.255.44-.52 1.02-.8 1.02-.8.58-.28 1.18-.28 1.18-.28.65 0 1.06.21 1.06.21.42.21.82.58.82.58l-.09-1.17V3.3h2.27v10.8h-1.85l-.16-.754h-.06c-.4.4-.94.67-.94.67-.54.27-1.09.27-1.09.27-.71 0-1.28-.278-1.28-.278-.58-.278-.99-.794-.99-.794-.4-.516-.63-1.255-.63-1.255-.22-.74-.22-1.68-.22-1.68zm0 0zm2.33-.03c0 1.14.37 1.663.37 1.663.36.523 1.03.523 1.03.523.37 0 .67-.154.67-.154.3-.154.58-.54.58-.54V8.62c-.3-.278-.63-.386-.63-.386-.32-.108-.63-.108-.63-.108-.54 0-.95.516-.95.516-.42.516-.42 1.61-.42 1.61zm5.9 3.85zm.56-3.82c0-.955.3-1.7.3-1.7.31-.748.83-1.257.83-1.257.52-.508 1.2-.777 1.2-.777.68-.27 1.4-.27 1.4-.27.72 0 1.39.27 1.39.27.67.27 1.19.777 1.19.777.52.51.82 1.256.82 1.256.31.75.31 1.71.31 1.71 0 .96-.31 1.7-.31 1.7-.31.75-.82 1.26-.82 1.26-.51.51-1.18.78-1.18.78-.67.27-1.4.27-1.4.27-.72 0-1.4-.27-1.4-.27-.68-.27-1.19-.77-1.19-.77-.51-.51-.82-1.25-.82-1.25-.3-.74-.3-1.7-.3-1.7zm0 0zm2.32 0c0 1 .35 1.586.35 1.586.35.586 1.06.586 1.06.586.7 0 1.05-.586 1.05-.586.35-.585.35-1.586.35-1.586 0-1-.35-1.586-.35-1.586-.35-.586-1.05-.586-1.05-.586-.71 0-1.05.586-1.05.586-.35.585-.35 1.586-.35 1.586zm8.87 3.82zm1.17 1.108c.11.03.25.062.25.062.14.03.26.03.26.03.57 0 .88-.276.88-.276.31-.278.46-.724.46-.724l.11-.4-2.94-7.44H524l1.095 3.28c.17.525.307 1.064.307 1.064.14.54.29 1.11.29 1.11h.06l.26-1.087c.13-.55.27-1.09.27-1.09l.92-3.28h2.173l-2.65 7.71c-.276.72-.576 1.27-.576 1.27-.3.54-.7.91-.7.91-.39.36-.9.54-.9.54-.5.18-1.18.18-1.18.18-.36 0-.6-.04-.6-.04-.25-.04-.48-.12-.48-.12l.4-1.73zm6.73-1.108zm.56-3.82c0-.955.31-1.7.31-1.7.31-.748.82-1.257.82-1.257.52-.508 1.19-.777 1.19-.777.68-.27 1.4-.27 1.4-.27.73 0 1.4.27 1.4.27.67.27 1.19.777 1.19.777.52.51.83 1.256.83 1.256.3.75.3 1.71.3 1.71 0 .96-.31 1.7-.31 1.7-.31.75-.82 1.26-.82 1.26-.51.51-1.18.78-1.18.78-.67.27-1.39.27-1.39.27-.72 0-1.4-.27-1.4-.27-.68-.27-1.19-.77-1.19-.77-.51-.51-.82-1.25-.82-1.25-.31-.74-.31-1.7-.31-1.7zm0 0zm2.33 0c0 1 .35 1.586.35 1.586.34.586 1.05.586 1.05.586.69 0 1.05-.586 1.05-.586.36-.585.36-1.586.36-1.586 0-1-.36-1.586-.36-1.586-.35-.585-1.05-.585-1.05-.585-.71 0-1.06.59-1.06.59-.34.59-.34 1.59-.34 1.59zm5.67 3.82zm.92-7.64h2.26v4.452c0 .83.23 1.14.23 1.14.23.307.73.307.73.307.43 0 .72-.2.72-.2.29-.2.63-.64.63-.64V6.47h2.26v7.63h-1.85l-.17-1.063h-.04c-.49.584-1.05.915-1.05.915-.57.33-1.35.33-1.35.33-1.25 0-1.81-.815-1.81-.815-.57-.816-.57-2.264-.57-2.264v-4.74zm11.03 7.64zm.93-7.64h2.27v4.452c0 .83.23 1.14.23 1.14.23.307.72.307.72.307.44 0 .73-.2.73-.2.29-.2.63-.64.63-.64V6.47h2.26v7.63h-1.85l-.17-1.063h-.04c-.49.584-1.05.915-1.05.915-.57.33-1.35.33-1.35.33-1.25 0-1.81-.815-1.81-.815-.56-.816-.56-2.264-.56-2.264v-4.74zm7.83 7.64zm1.34-2.295c.52.4 1 .6 1 .6.48.2.97.2.97.2.51 0 .74-.17.74-.17.23-.168.23-.476.23-.476 0-.18-.13-.33-.13-.33-.13-.14-.36-.27-.36-.27-.22-.12-.5-.22-.5-.22-.28-.1-.57-.22-.57-.22-.35-.14-.71-.32-.71-.32-.35-.18-.64-.45-.64-.45-.29-.27-.48-.63-.48-.63-.18-.36-.18-.84-.18-.84 0-.52.2-.97.2-.97.21-.44.6-.75.6-.75.38-.3.92-.48.92-.48.54-.17 1.21-.17 1.21-.17.87 0 1.54.3 1.54.3.66.3 1.15.67 1.15.67L564 8.64c-.417-.31-.817-.48-.817-.48-.4-.17-.8-.17-.8-.17-.864 0-.864.61-.864.61 0 .19.13.32.13.32.12.13.33.24.33.24.21.11.47.21.47.21l.57.21c.37.14.73.32.73.32.36.18.66.44.66.44.3.26.49.64.49.64.19.38.19.9.19.9 0 .52-.2.97-.2.97-.2.45-.6.78-.6.78-.4.33-.99.53-.99.53-.59.19-1.36.19-1.36.19-.76 0-1.55-.29-1.55-.29-.79-.29-1.38-.77-1.38-.77zm5.48 2.295zm.55-3.82c0-.924.31-1.67.31-1.67.31-.748.81-1.263.81-1.263.5-.52 1.15-.8 1.15-.8.65-.28 1.34-.28 1.34-.28.82 0 1.43.28 1.43.28.61.27 1.02.77 1.02.77.41.49.61 1.16.61 1.16.2.67.2 1.45.2 1.45 0 .31-.03.56-.03.56-.03.25-.06.39-.06.39h-4.58c.15.88.69 1.27.69 1.27.53.39 1.3.39 1.3.39.82 0 1.65-.51 1.65-.51l.76 1.37c-.59.4-1.3.63-1.3.63-.72.23-1.41.23-1.41.23-.82 0-1.53-.27-1.53-.27-.71-.27-1.23-.79-1.23-.79-.52-.52-.81-1.26-.81-1.26-.29-.74-.29-1.69-.29-1.69zm0 0zm4.93-.785c0-.662-.29-1.078-.29-1.078-.3-.42-1-.42-1-.42-.54 0-.94.36-.94.36-.41.36-.53 1.13-.53 1.13H571zm5.7 4.605zm1.19-10.04h2.27v3.864h3.47V4.06h2.28v10.042h-2.28v-4.19h-3.47v4.19h-2.27V4.062zM587 14.1zm.724-2.126c0-1.2 1.016-1.88 1.016-1.88 1.017-.676 3.28-.907 3.28-.907-.03-.51-.308-.81-.308-.81-.277-.3-.893-.3-.893-.3-.5 0-.99.185-.99.185-.5.185-1.05.508-1.05.508l-.8-1.494c.74-.447 1.54-.725 1.54-.725.81-.27 1.72-.27 1.72-.27 1.48 0 2.25.84 2.25.84.77.84.77 2.61.77 2.61v4.37h-1.85l-.17-.78h-.05c-.49.43-1.04.7-1.04.7-.55.27-1.19.27-1.19.27-.53 0-.94-.17-.94-.17-.42-.18-.71-.49-.71-.49-.3-.31-.46-.73-.46-.73-.17-.41-.17-.9-.17-.9zm0 0zm2.156-.17c0 .37.24.548.24.548.237.177.638.177.638.177.4 0 .677-.17.677-.17.278-.17.586-.48.586-.48v-1.34c-1.21.17-1.67.49-1.67.49-.46.32-.46.77-.46.77zm5.344 2.296zm1.34-2.295c.523.4 1 .6 1 .6.478.2.97.2.97.2.51 0 .74-.17.74-.17.23-.168.23-.476.23-.476 0-.19-.13-.33-.13-.33-.13-.15-.354-.27-.354-.27-.223-.13-.5-.23-.5-.23-.278-.1-.57-.23-.57-.23-.355-.14-.71-.33-.71-.33-.353-.19-.645-.46-.645-.46-.293-.27-.478-.63-.478-.63-.185-.37-.185-.84-.185-.84 0-.53.208-.97.208-.97.208-.45.593-.76.593-.76.385-.31.924-.48.924-.48.54-.18 1.2-.18 1.2-.18.88 0 1.54.3 1.54.3.663.3 1.156.67 1.156.67l-1.016 1.36c-.416-.31-.816-.48-.816-.48-.4-.17-.8-.17-.8-.17-.86 0-.86.6-.86.6 0 .18.13.31.13.31.13.13.33.24.33.24.21.1.48.2.48.2l.56.21c.37.13.74.31.74.31.36.17.66.44.66.44.3.26.49.64.49.64.19.37.19.9.19.9 0 .52-.2.97-.2.97-.2.44-.6.77-.6.77-.4.33-.98.52-.98.52-.58.19-1.35.19-1.35.19-.75 0-1.54-.3-1.54-.3-.79-.29-1.38-.77-1.38-.77zm5.482 2.295zm1-10.796h2.203v6.19h.06l2.42-3.033h2.46l-2.68 3.15 2.88 4.5h-2.45l-1.73-2.97-.97 1.1v1.88h-2.21V3.31zm7.008 10.796zm.555-3.82c0-.924.3-1.67.3-1.67.31-.748.81-1.263.81-1.263.5-.517 1.15-.795 1.15-.795.64-.277 1.34-.277 1.34-.277.81 0 1.42.278 1.42.278.61.277 1.01.77 1.01.77.41.492.61 1.162.61 1.162.2.67.2 1.455.2 1.455 0 .308-.03.563-.03.563-.03.254-.06.392-.06.392h-4.58c.15.878.68 1.27.68 1.27.53.393 1.3.393 1.3.393.81 0 1.64-.507 1.64-.507l.76 1.37c-.59.4-1.3.64-1.3.64-.72.23-1.41.23-1.41.23-.82 0-1.53-.27-1.53-.27-.71-.27-1.23-.78-1.23-.78-.52-.51-.82-1.25-.82-1.25-.29-.74-.29-1.69-.29-1.69zm0 0zm4.92-.785c0-.662-.3-1.078-.3-1.078-.29-.417-.98-.417-.98-.417-.54 0-.95.362-.95.362-.41.362-.53 1.132-.53 1.132h2.75zm2.49 4.605zm1-10.796h2.26v8.516c0 .355.13.493.13.493.13.14.27.14.27.14h.13l.14-.032.27 1.68c-.19.08-.47.13-.47.13-.29.06-.67.06-.67.06-.59 0-.99-.18-.99-.18-.4-.18-.64-.51-.64-.51-.24-.33-.35-.8-.35-.8-.11-.47-.11-1.05-.11-1.05V3.31zm3.41 10.796zm1-10.796h2.26v8.516c0 .355.13.493.13.493.13.14.27.14.27.14h.13l.15-.032.27 1.68c-.19.08-.47.13-.47.13-.29.06-.67.06-.67.06-.59 0-.99-.18-.99-.18-.4-.18-.64-.51-.64-.51-.24-.33-.35-.8-.35-.8-.11-.47-.11-1.05-.11-1.05V3.31zm3.41 10.796zm2.37-3.558c-.08-.524.04-.955.04-.955.11-.432.33-.802.33-.802.21-.37.48-.677.48-.677.27-.307.51-.592.51-.592.24-.285.41-.554.41-.554.17-.27.17-.563.17-.563 0-.48-.28-.73-.28-.73-.29-.25-.75-.25-.75-.25-.43 0-.76.2-.76.2-.33.2-.64.51-.64.51L627.47 5c.524-.63 1.23-1.016 1.23-1.016.71-.385 1.57-.385 1.57-.385.65 0 1.21.15 1.21.15.564.15.97.47.97.47.41.32.64.82.64.82.23.5.23 1.18.23 1.18 0 .47-.17.85-.17.85-.17.37-.42.7-.42.7-.25.32-.53.62-.53.62-.286.3-.524.62-.524.62-.24.32-.38.68-.38.68-.14.36-.09.82-.09.82h-1.99zm0 0zm-.37 2.326c0-.616.38-1.024.38-1.024.38-.41.97-.41.97-.41.58 0 .98.41.98.41.39.408.39 1.024.39 1.024 0 .6-.4 1.008-.4 1.008-.4.408-.98.408-.98.408-.59 0-.97-.408-.97-.408-.39-.408-.39-1.008-.39-1.008z"/><path fill="none" stroke="#D3D3D3" stroke-miterlimit="10" d="M35.02 738h958.313M35.02 597.4h958.313M35.02 456.8h958.313M35.02 316.2h958.313M35.02 175.6h958.313M35.02 35h958.313" stroke-dasharray="5 5"/><g fill="#5C3566" stroke-opacity="0" stroke-width="0" stroke-miterlimit="10" stroke-linejoin="bevel"><defs><clipPath id="a"><path d="M35.02 35v703h958.313V35z"/></clipPath></defs><g clip-path="url(#a)"><path stroke="none" d="M50.02 738V78.586h161.663V738z"/></g></g><g fill-opacity="0" stroke-miterlimit="10"><defs><clipPath id="b"><path d="M35.02 35v703h958.313V35z"/></clipPath></defs><g clip-path="url(#b)"><path fill="none" d="M50.02 738V78.586h161.663V738z"/></g></g><g fill="#5C3566" stroke-opacity="0" stroke-width="0" stroke-miterlimit="10" stroke-linejoin="bevel"><defs><clipPath id="c"><path d="M35.02 35v703h958.313V35z"/></clipPath></defs><g clip-path="url(#c)"><path stroke="none" d="M241.683 738V102.488h161.663V738z"/></g></g><g fill-opacity="0" stroke-miterlimit="10"><defs><clipPath id="d"><path d="M35.02 35v703h958.313V35z"/></clipPath></defs><g clip-path="url(#d)"><path fill="none" d="M241.683 738V102.488h161.663V738z"/></g></g><g fill="#5C3566" stroke-opacity="0" stroke-width="0" stroke-miterlimit="10" stroke-linejoin="bevel"><defs><clipPath id="e"><path d="M35.02 35v703h958.313V35z"/></clipPath></defs><g clip-path="url(#e)"><path stroke="none" d="M433.346 738V435.71h161.662V738z"/></g></g><g fill-opacity="0" stroke-miterlimit="10"><defs><clipPath id="f"><path d="M35.02 35v703h958.313V35z"/></clipPath></defs><g clip-path="url(#f)"><path fill="none" d="M433.346 738V435.71h161.662V738z"/></g></g><g fill="#5C3566" stroke-opacity="0" stroke-width="0" stroke-miterlimit="10" stroke-linejoin="bevel"><defs><clipPath id="g"><path d="M35.02 35v703h958.313V35z"/></clipPath></defs><g clip-path="url(#g)"><path stroke="none" d="M625.008 738v-50.616H786.67V738z"/></g></g><g fill-opacity="0" stroke-miterlimit="10"><defs><clipPath id="h"><path d="M35.02 35v703h958.313V35z"/></clipPath></defs><g clip-path="url(#h)"><path fill="none" d="M625.008 738v-50.616H786.67V738z"/></g></g><g fill="#5C3566" stroke-opacity="0" stroke-width="0" stroke-miterlimit="10" stroke-linejoin="bevel"><defs><clipPath id="i"><path d="M35.02 35v703h958.313V35z"/></clipPath></defs><g clip-path="url(#i)"><path stroke="none" d="M816.67 738v-71.706h161.663V738z"/></g></g><g fill-opacity="0" stroke-miterlimit="10"><defs><clipPath id="j"><path d="M35.02 35v703h958.313V35z"/></clipPath></defs><g clip-path="url(#j)"><path fill="none" d="M816.67 738v-71.706h161.663V738z"/></g></g><path fill="none" stroke-miterlimit="10" d="M35.02 738V35" stroke-linecap="square"/><path fill="none" stroke-miterlimit="10" d="M35.02 738h2m-2-70.3h2m-2-70.3h2m-2-70.3h2m-2-70.3h2m-2-70.3h2m-2-70.3h2m-2-70.3h2m-2-70.3h2m-2-70.3h2m-2-70.3h2m-2 703h5m-5-140.6h5m-5-140.6h5m-5-140.6h5m-5-140.6h5m-5-140.6h5"/><path stroke="none" d="M20.725 741.445zm2.615.126c-1.02 0-1.586-.9-1.586-.9-.567-.9-.567-2.59-.567-2.59 0-1.69.567-2.57.567-2.57.567-.88 1.586-.88 1.586-.88 1.01 0 1.576.88 1.576.88.567.89.567 2.58.567 2.58 0 1.69-.567 2.6-.567 2.6-.567.91-1.576.91-1.576.91zm0 0zm0-.69c.294 0 .53-.16.53-.16.237-.16.41-.5.41-.5.174-.34.268-.87.268-.87.095-.53.095-1.26.095-1.26 0-.73-.095-1.26-.095-1.26-.094-.52-.267-.85-.267-.85-.17-.33-.41-.49-.41-.49-.23-.16-.53-.16-.53-.16-.29 0-.53.16-.53.16-.24.16-.41.49-.41.49-.17.33-.26.86-.26.86-.09.53-.09 1.26-.09 1.26 0 1.47.37 2.14.37 2.14.37.67.95.67.95.67zM10.65 600.85zm.83-.714h1.535V595.2h-1.22v-.558c.463-.084.805-.204.805-.204.34-.12.614-.29.614-.29h.662v5.988h1.387v.715H11.48v-.71zm4.392.717zm2.615.126c-1.018 0-1.586-.91-1.586-.91-.56-.9-.56-2.6-.56-2.6 0-1.69.57-2.58.57-2.58.57-.88 1.59-.88 1.59-.88 1.01 0 1.58.88 1.58.88.57.88.57 2.57.57 2.57 0 1.69-.56 2.59-.56 2.59-.57.9-1.58.9-1.58.9zm0 0zm0-.7c.295 0 .53-.16.53-.16.237-.16.41-.5.41-.5.174-.34.27-.87.27-.87.093-.53.093-1.27.093-1.27 0-.74-.094-1.26-.094-1.26-.095-.53-.268-.86-.268-.86-.174-.33-.41-.49-.41-.49-.236-.16-.53-.16-.53-.16-.295 0-.536.16-.536.16-.242.15-.415.48-.415.48-.173.33-.268.85-.268.85-.1.52-.1 1.26-.1 1.26 0 1.47.36 2.14.36 2.14.36.66.95.66.95.66zm2.605.57zm2.616.13c-1.02 0-1.586-.9-1.586-.9-.567-.9-.567-2.6-.567-2.6 0-1.69.567-2.58.567-2.58.567-.88 1.586-.88 1.586-.88 1.008 0 1.576.88 1.576.88.567.88.567 2.57.567 2.57 0 1.69-.56 2.59-.56 2.59-.57.9-1.57.9-1.57.9zm0 0zm0-.69c.294 0 .53-.16.53-.16.237-.17.41-.51.41-.51.173-.34.268-.87.268-.87.095-.53.095-1.27.095-1.27 0-.74-.09-1.26-.09-1.26-.09-.53-.27-.86-.27-.86-.17-.33-.41-.49-.41-.49-.23-.16-.53-.16-.53-.16-.29 0-.53.16-.53.16-.24.15-.41.48-.41.48-.17.33-.27.85-.27.85-.09.52-.09 1.26-.09 1.26 0 1.47.36 2.14.36 2.14.37.67.95.67.95.67zM10.2 460.24zm.42-.513c.756-.755 1.344-1.364 1.344-1.364.588-.61.988-1.13.988-1.13.4-.52.61-.96.61-.96.21-.437.21-.846.21-.846 0-.58-.316-.946-.316-.946-.315-.37-.956-.37-.956-.37-.42 0-.777.24-.777.24-.358.24-.652.58-.652.58l-.49-.49c.42-.46.9-.74.9-.74.48-.28 1.14-.28 1.14-.28.94 0 1.47.55 1.47.55.54.54.54 1.43.54 1.43 0 .47-.2.95-.2.95-.2.48-.56.99-.56.99-.36.51-.86 1.06-.86 1.06-.5.56-1.09 1.18-1.09 1.18l.57-.04c.3-.02.56-.02.56-.02h1.94v.75h-4.33v-.51zm4.8.516zm2.616.12c-1.02 0-1.586-.9-1.586-.9-.568-.905-.568-2.597-.568-2.597 0-1.69.568-2.57.568-2.57.567-.88 1.586-.88 1.586-.88 1.008 0 1.575.88 1.575.88.57.884.57 2.576.57 2.576 0 1.69-.57 2.593-.57 2.593-.56.907-1.57.907-1.57.907zm0 0zm0-.69c.294 0 .53-.165.53-.165.236-.163.41-.505.41-.505.173-.34.268-.87.268-.87.094-.53.094-1.264.094-1.264 0-.74-.094-1.26-.094-1.26-.095-.53-.268-.86-.268-.86-.173-.33-.41-.49-.41-.49-.236-.16-.53-.16-.53-.16-.294 0-.536.16-.536.16-.242.15-.415.48-.415.48-.173.33-.268.85-.268.85-.094.53-.094 1.26-.094 1.26 0 1.47.362 2.14.362 2.14.362.67.95.67.95.67zm2.605.565zm2.62.125c-1.02 0-1.58-.9-1.58-.9-.56-.9-.56-2.594-.56-2.594 0-1.69.57-2.58.57-2.58.57-.88 1.59-.88 1.59-.88 1.01 0 1.58.88 1.58.88.57.88.57 2.57.57 2.57 0 1.69-.56 2.59-.56 2.59-.57.9-1.58.9-1.58.9zm0 0zm0-.69c.3 0 .53-.16.53-.16.24-.16.41-.504.41-.504.18-.34.27-.87.27-.87.1-.53.1-1.27.1-1.27 0-.74-.09-1.26-.09-1.26-.09-.53-.26-.86-.26-.86-.17-.33-.41-.49-.41-.49-.23-.16-.53-.16-.53-.16-.29 0-.53.16-.53.16-.24.15-.41.48-.41.48-.17.33-.27.85-.27.85-.09.53-.09 1.26-.09 1.26 0 1.47.37 2.14.37 2.14.36.67.95.67.95.67zM10.1 319.645zm.714-1.385c.3.314.705.556.705.556.4.24 1 .24 1 .24.61 0 1-.33 1-.33.38-.33.38-.898.38-.898 0-.294-.11-.54-.11-.54-.11-.248-.37-.426-.37-.426-.25-.18-.66-.27-.66-.27-.41-.09-1.01-.09-1.01-.09v-.663c.53 0 .9-.1.9-.1.36-.1.59-.27.59-.27.23-.17.32-.4.32-.4.09-.23.09-.5.09-.5 0-.5-.31-.78-.31-.78-.31-.28-.85-.28-.85-.28-.42 0-.77.19-.77.19-.35.19-.66.49-.66.49l-.46-.55c.39-.37.85-.61.85-.61.46-.24 1.06-.24 1.06-.24.44 0 .81.11.81.11.37.12.63.33.63.33.26.22.41.53.41.53.15.32.15.73.15.73 0 .61-.34 1-.34 1-.34.39-.88.6-.88.6v.04c.3.07.57.21.57.21.26.14.46.36.46.36.2.21.31.5.31.5.11.28.11.63.11.63 0 .44-.18.8-.18.8-.17.35-.47.6-.47.6-.3.25-.7.38-.7.38-.4.13-.86.13-.86.13-.4 0-.73-.08-.73-.08-.33-.08-.61-.21-.61-.21-.27-.13-.49-.3-.49-.3-.21-.17-.38-.36-.38-.36zm4.5 1.385zm2.618.126c-1.02 0-1.586-.9-1.586-.9-.566-.9-.566-2.59-.566-2.59 0-1.69.568-2.57.568-2.57.568-.88 1.587-.88 1.587-.88 1.01 0 1.577.88 1.577.88.568.88.568 2.58.568 2.58 0 1.69-.567 2.6-.567 2.6-.566.9-1.574.9-1.574.9zm0 0zm0-.69c.294 0 .53-.16.53-.16.237-.16.41-.5.41-.5.173-.34.27-.87.27-.87.092-.53.092-1.26.092-1.26 0-.73-.096-1.26-.096-1.26-.097-.52-.27-.85-.27-.85-.173-.33-.41-.49-.41-.49-.236-.16-.53-.16-.53-.16-.294 0-.536.16-.536.16-.243.16-.416.49-.416.49-.174.33-.27.86-.27.86-.093.53-.093 1.26-.093 1.26 0 1.47.36 2.14.36 2.14.364.67.95.67.95.67zm2.605.57zm2.616.13c-1.017 0-1.584-.9-1.584-.9-.57-.9-.57-2.59-.57-2.59 0-1.69.56-2.57.56-2.57.56-.88 1.58-.88 1.58-.88 1.01 0 1.57.88 1.57.88.56.89.56 2.58.56 2.58 0 1.69-.57 2.6-.57 2.6-.57.91-1.58.91-1.58.91zm0 0zm0-.69c.296 0 .533-.16.533-.16.238-.16.41-.5.41-.5.175-.34.27-.87.27-.87.093-.53.093-1.26.093-1.26 0-.73-.1-1.26-.1-1.26-.1-.52-.27-.85-.27-.85-.18-.33-.41-.49-.41-.49-.24-.16-.53-.16-.53-.16-.3 0-.54.16-.54.16-.24.16-.42.49-.42.49-.18.33-.27.86-.27.86-.1.52-.1 1.26-.1 1.26 0 1.47.36 2.14.36 2.14.36.67.95.67.95.67zM10 179.05zm3.193-2.542v-1.943c0-.273.016-.646.016-.646.01-.38.03-.65.03-.65h-.04c-.13.24-.27.47-.27.47l-.29.47-1.57 2.29h2.1zm0 0zm1.734.694h-.914v1.847h-.82v-1.85H10.18v-.57l2.866-4.29h.967v4.16h.914v.69zm.294 1.847zm2.62.12c-1.02 0-1.58-.9-1.58-.9-.56-.91-.56-2.6-.56-2.6 0-1.69.57-2.58.57-2.58.57-.88 1.59-.88 1.59-.88 1.01 0 1.58.88 1.58.88.57.88.57 2.57.57 2.57 0 1.69-.56 2.59-.56 2.59-.57.9-1.58.9-1.58.9zm0 0zm0-.69c.3 0 .53-.17.53-.17.24-.17.41-.51.41-.51.18-.34.27-.87.27-.87.1-.53.1-1.27.1-1.27 0-.74-.09-1.26-.09-1.26-.09-.53-.27-.86-.27-.86-.17-.33-.41-.49-.41-.49-.23-.16-.53-.16-.53-.16-.29 0-.53.16-.53.16-.24.15-.41.48-.41.48-.17.33-.27.85-.27.85-.09.52-.09 1.26-.09 1.26 0 1.47.36 2.13.36 2.13.37.67.95.67.95.67zm2.61.56zm2.62.12c-1.02 0-1.58-.9-1.58-.9-.56-.9-.56-2.6-.56-2.6 0-1.69.57-2.58.57-2.58.57-.88 1.59-.88 1.59-.88 1.01 0 1.58.88 1.58.88.57.88.57 2.57.57 2.57 0 1.69-.57 2.59-.57 2.59-.56.9-1.57.9-1.57.9zm0 0zm0-.69c.3 0 .53-.16.53-.16.24-.16.41-.5.41-.5.18-.34.27-.87.27-.87.1-.53.1-1.27.1-1.27 0-.74-.09-1.26-.09-1.26-.09-.53-.27-.86-.27-.86-.17-.33-.41-.49-.41-.49-.23-.16-.53-.16-.53-.16-.29 0-.53.16-.53.16-.24.15-.41.48-.41.48-.17.33-.27.85-.27.85-.09.52-.09 1.26-.09 1.26 0 1.47.36 2.14.36 2.14.36.67.95.67.95.67zM10.09 38.44zm.68-1.353c.294.31.698.54.698.54.405.23.993.23.993.23.31 0 .57-.11.57-.11.27-.11.47-.31.47-.31.2-.2.32-.483.32-.483.12-.284.12-.63.12-.63 0-.694-.39-1.082-.39-1.082-.39-.39-1.04-.39-1.04-.39-.35 0-.59.106-.59.106-.24.106-.55.305-.55.305l-.46-.294.22-3.23h3.35v.74h-2.59l-.18 1.98c.25-.13.49-.2.49-.2.24-.07.55-.07.55-.07.43 0 .81.12.81.12.38.12.66.38.66.38.29.25.45.65.45.65.17.39.17.94.17.94 0 .55-.19.97-.19.97-.19.42-.5.7-.5.7-.31.29-.72.44-.72.44-.4.15-.84.15-.84.15-.4 0-.73-.08-.73-.08-.33-.08-.6-.21-.6-.21-.26-.13-.48-.29-.48-.29-.21-.16-.38-.34-.38-.34zm4.538 1.36zm2.615.124c-1.02 0-1.587-.9-1.587-.9-.567-.9-.567-2.59-.567-2.59 0-1.69.56-2.57.56-2.57.56-.88 1.58-.88 1.58-.88 1.01 0 1.57.88 1.57.88.56.88.56 2.58.56 2.58 0 1.69-.57 2.6-.57 2.6-.57.91-1.58.91-1.58.91zm0 0zm0-.69c.293 0 .53-.16.53-.16.236-.16.41-.5.41-.5.173-.34.267-.87.267-.87.093-.53.093-1.27.093-1.27 0-.73-.09-1.26-.09-1.26-.094-.52-.27-.85-.27-.85-.173-.33-.41-.49-.41-.49-.236-.16-.53-.16-.53-.16-.294 0-.536.16-.536.16-.24.16-.413.49-.413.49-.176.33-.27.86-.27.86-.095.53-.095 1.26-.095 1.26 0 1.47.36 2.14.36 2.14.36.67.95.67.95.67zm2.604.57zm2.616.13c-1.02 0-1.59-.9-1.59-.9-.567-.9-.567-2.59-.567-2.59 0-1.69.568-2.57.568-2.57.57-.88 1.588-.88 1.588-.88 1.01 0 1.578.89 1.578.89.568.88.568 2.58.568 2.58 0 1.69-.567 2.6-.567 2.6-.56.91-1.57.91-1.57.91zm0 0zm0-.69c.29 0 .53-.16.53-.16.24-.16.41-.5.41-.5.17-.34.27-.87.27-.87.09-.53.09-1.26.09-1.26 0-.73-.095-1.26-.095-1.26-.097-.52-.27-.85-.27-.85-.173-.33-.41-.49-.41-.49-.236-.16-.53-.16-.53-.16-.294 0-.536.16-.536.16-.24.16-.414.49-.414.49-.174.33-.27.85-.27.85-.093.53-.093 1.26-.093 1.26 0 1.47.363 2.14.363 2.14.362.67.95.67.95.67z"/><path fill="none" stroke-miterlimit="10" d="M35.02 738h958.313" stroke-linecap="square"/><path stroke="none" d="M110.38 758zm.945-6.89h1.723c1.596 0 2.426.882 2.426.882.83.882.83 2.53.83 2.53 0 .82-.21 1.466-.21 1.466-.21.646-.62 1.093-.62 1.093-.41.45-1.008.69-1.008.69-.6.24-1.376.24-1.376.24h-1.765v-6.89zm0 0zm1.66 6.176c1.208 0 1.812-.725 1.812-.725.604-.72.604-2.03.604-2.03 0-1.31-.6-2-.6-2-.6-.69-1.81-.69-1.81-.69h-.79v5.46h.79zm3.855.714zm.61-1.323c0-.84.75-1.287.75-1.287.75-.447 2.39-.625 2.39-.625 0-.242-.048-.473-.048-.473-.047-.23-.168-.41-.168-.41-.12-.178-.32-.29-.32-.29-.2-.11-.515-.11-.515-.11-.46 0-.84.17-.84.17-.39.167-.69.377-.69.377l-.35-.6c.35-.23.87-.45.87-.45.51-.22 1.13-.22 1.13-.22.93 0 1.35.57 1.35.57.42.57.42 1.53.42 1.53V758h-.72l-.08-.61h-.02c-.37.306-.8.52-.8.52-.43.216-.9.216-.9.216-.65 0-1.08-.378-1.08-.378-.43-.378-.43-1.07-.43-1.07zm0 0zm.85-.064c0 .442.257.63.257.63.258.19.636.19.636.19.367 0 .698-.173.698-.173.34-.174.7-.51.7-.51v-1.418c-.64.084-1.08.2-1.08.2-.44.115-.71.273-.71.273-.26.157-.38.362-.38.362-.11.205-.11.446-.11.446zm3.918 1.387zm1.302-6.155c-.252 0-.425-.158-.425-.158-.173-.158-.173-.4-.173-.4 0-.25.173-.404.173-.404.173-.152.425-.152.425-.152.252 0 .426.16.426.16.173.16.173.41.173.41 0 .24-.18.4-.18.4-.18.16-.43.16-.43.16zm0 0zm-.44 1.05h.86V758h-.86v-5.105zM124.8 758zm.86-7.48h.862v6.514c0 .21.074.294.074.294.073.084.168.084.168.084h.08l.11-.02.115.65c-.09.042-.2.063-.2.063-.12.02-.3.02-.3.02-.5 0-.71-.293-.71-.293-.21-.294-.21-.86-.21-.86v-6.45zm1.818 7.48zm.515 1.408l.19.047.2.026c.44 0 .718-.31.718-.31.28-.31.44-.78.44-.78l.12-.38-2.05-5.11h.9l1.04 2.83.25.71c.13.37.25.73.25.73h.04c.12-.34.22-.72.22-.72.11-.38.21-.71.21-.71l.92-2.82h.84l-1.92 5.53c-.14.38-.3.7-.3.7-.17.33-.4.56-.4.56-.23.24-.52.38-.52.38-.29.14-.68.14-.68.14-.18 0-.32-.02-.32-.02-.14-.02-.27-.08-.27-.08l.17-.68zm4.39-1.408zm.684-4.317c0-.305.182-.49.182-.49.18-.182.44-.182.44-.182.25 0 .43.19.43.19.18.19.18.49.18.49 0 .28-.19.47-.19.47-.19.19-.44.19-.44.19-.27 0-.45-.18-.45-.18-.19-.18-.19-.46-.19-.46zm0 0zm0 3.792c0-.305.182-.49.182-.49.18-.182.44-.182.44-.182.25 0 .43.183.43.183.18.184.18.49.18.49 0 .282-.19.466-.19.466-.19.184-.44.184-.44.184-.27 0-.45-.184-.45-.184-.19-.184-.19-.467-.19-.467zm4.053.525zm3.194-2.542v-1.943c0-.273.015-.646.015-.646.01-.38.03-.65.03-.65h-.05c-.13.24-.26.47-.26.47l-.29.47-1.57 2.29h2.1zm0 0zm1.733.693h-.914V758h-.82v-1.85H137.3v-.566l2.866-4.286h.966v4.16h.914v.693zm.294 1.85zm2.82-.55c.25 0 .46-.1.46-.1.21-.1.37-.3.37-.3.16-.19.25-.46.25-.46.09-.27.09-.6.09-.6 0-.66-.3-1.04-.3-1.04-.3-.38-.93-.38-.93-.38-.31 0-.68.21-.68.21-.37.21-.71.68-.71.68.09.99.46 1.5.46 1.5.38.51 1.02.51 1.02.51zm0 0zm1.38-5.02c-.21-.24-.5-.38-.5-.38-.28-.14-.6-.14-.6-.14-.34 0-.66.15-.66.15-.31.15-.55.49-.55.49-.24.34-.39.88-.39.88-.14.54-.15 1.34-.15 1.34.32-.39.74-.61.74-.61.42-.22.83-.22.83-.22.87 0 1.39.52 1.39.52.52.52.52 1.56.52 1.56 0 .48-.15.88-.15.88-.16.39-.43.68-.43.68-.28.29-.63.44-.63.44-.36.16-.77.16-.77.16-.49 0-.91-.2-.91-.2-.42-.2-.73-.6-.73-.6-.31-.4-.49-1.01-.49-1.01-.17-.6-.17-1.41-.17-1.41 0-1.01.21-1.72.21-1.72.21-.71.57-1.16.57-1.16.36-.44.81-.65.81-.65.46-.2.96-.2.96-.2.55 0 .94.21.94.21.39.21.68.51.68.51zm1.03 5.58zm2.47-3.25c.33 0 .7-.2.7-.2.38-.2.71-.69.71-.69-.08-.98-.46-1.49-.46-1.49-.37-.5-1.02-.5-1.02-.5-.24 0-.45.11-.45.11-.21.11-.37.3-.37.3-.16.2-.25.47-.25.47-.09.28-.09.6-.09.6 0 .66.31 1.04.31 1.04.31.38.94.38.94.38zm0 0zm-1.45 2.13c.21.24.5.39.5.39.29.15.6.15.6.15.36 0 .68-.14.68-.14.32-.15.56-.49.56-.49.24-.34.39-.89.39-.89.15-.54.16-1.35.16-1.35-.31.4-.73.63-.73.63-.42.23-.84.23-.84.23-.87 0-1.38-.51-1.38-.51-.51-.51-.51-1.55-.51-1.55 0-.48.16-.87.16-.87.16-.39.43-.68.43-.68.27-.28.63-.44.63-.44.36-.16.76-.16.76-.16.5 0 .92.2.92.2.43.2.74.61.74.61.31.4.48 1.01.48 1.01.18.6.18 1.41.18 1.41 0 1.01-.21 1.72-.21 1.72-.21.71-.57 1.16-.57 1.16-.35.45-.81.65-.81.65-.46.21-.96.21-.96.21-.53 0-.94-.2-.94-.2-.4-.2-.67-.5-.67-.5zM296.94 758zm.242-6.89h.903l.725 3.75c.094.566.2 1.113.2 1.113.104.546.2 1.113.2 1.113h.04c.117-.567.243-1.12.243-1.12.126-.55.24-1.107.24-1.107l.957-3.75h.798l.956 3.75c.126.54.252 1.1.252 1.1.127.55.253 1.12.253 1.12h.04c.09-.57.19-1.12.19-1.12.09-.55.2-1.11.2-1.11l.72-3.75h.84l-1.43 6.89h-1.05l-1.04-4.15c-.1-.4-.18-.78-.18-.78l-.17-.79h-.04c-.09.4-.18.78-.18.78-.09.38-.18.78-.18.78l-1.02 4.15h-1.04zm8.014 6.89zm.484-2.542c0-.63.194-1.13.194-1.13.194-.498.515-.845.515-.845.32-.346.73-.53.73-.53.41-.184.85-.184.85-.184.48 0 .87.16.87.16.38.17.64.48.64.48.25.31.39.75.39.75.13.44.13.98.13.98 0 .28-.04.47-.04.47h-3.45c.05.83.51 1.31.51 1.31.45.48 1.19.48 1.19.48.36 0 .67-.11.67-.11.31-.11.59-.29.59-.29l.3.56c-.34.21-.75.37-.75.37-.41.16-.94.16-.94.16-.52 0-.97-.19-.97-.19-.45-.19-.78-.53-.78-.53-.33-.34-.52-.84-.52-.84-.19-.5-.19-1.13-.19-1.13zm0 0zm3.57-.39c0-.786-.33-1.2-.33-1.2-.33-.416-.93-.416-.93-.416-.273 0-.52.11-.52.11-.246.11-.446.315-.446.315-.2.205-.33.504-.33.504-.132.3-.174.69-.174.69h2.73zm1.16 2.932zm.484-2.542c0-.63.194-1.13.194-1.13.194-.498.515-.845.515-.845.32-.346.73-.53.73-.53.41-.184.852-.184.852-.184.483 0 .866.16.866.16.39.17.64.48.64.48.26.31.4.75.4.75.14.44.14.98.14.98 0 .28-.03.47-.03.47h-3.44c.05.83.51 1.31.51 1.31.46.48 1.19.48 1.19.48.37 0 .68-.11.68-.11.31-.11.59-.29.59-.29l.31.56c-.33.21-.74.37-.74.37-.41.16-.93.16-.93.16-.51 0-.96-.19-.96-.19-.44-.19-.78-.53-.78-.53-.33-.34-.52-.84-.52-.84-.18-.5-.18-1.13-.18-1.13zm0 0zm3.57-.39c0-.786-.33-1.2-.33-1.2-.33-.416-.93-.416-.93-.416-.272 0-.52.11-.52.11-.246.11-.446.315-.446.315-.2.205-.33.504-.33.504-.132.3-.174.69-.174.69h2.73zM315.62 758zm.86-7.48h.85v5.064h.032l2.175-2.69h.955l-1.712 2.05 1.944 3.056h-.946l-1.49-2.458-.957 1.113V758h-.85v-7.48zm4.338 7.48zm.862-7.48h.86v6.514c0 .21.074.294.074.294.074.084.168.084.168.084h.08l.11-.02.115.65c-.084.042-.2.063-.2.063-.115.02-.294.02-.294.02-.493 0-.704-.293-.704-.293-.21-.294-.21-.86-.21-.86v-6.45zm1.817 7.48zm.514 1.408l.19.047.2.026c.44 0 .72-.31.72-.31.28-.31.44-.78.44-.78l.12-.38-2.04-5.11h.9l1.04 2.83.25.71c.13.37.25.73.25.73h.04c.12-.34.23-.72.23-.72.1-.38.21-.71.21-.71l.91-2.82h.84l-1.92 5.53c-.14.38-.3.7-.3.7-.17.33-.4.56-.4.56-.23.24-.52.38-.52.38-.29.14-.68.14-.68.14-.18 0-.33-.02-.33-.02-.14-.02-.27-.08-.27-.08l.17-.68zm4.4-1.408zm.69-4.317c0-.305.19-.49.19-.49.19-.182.45-.182.45-.182.25 0 .44.19.44.19.19.19.19.49.19.49 0 .28-.18.47-.18.47-.18.19-.43.19-.43.19-.26 0-.44-.18-.44-.18-.18-.18-.18-.46-.18-.46zm0 0zm0 3.792c0-.305.19-.49.19-.49.19-.182.45-.182.45-.182.25 0 .44.183.44.183.19.184.19.49.19.49 0 .282-.18.466-.18.466-.18.184-.43.184-.43.184-.26 0-.44-.184-.44-.184-.18-.184-.18-.467-.18-.467zm4.06.525zm3.2-2.542v-1.943c0-.273.02-.646.02-.646.02-.38.04-.65.04-.65h-.04c-.13.24-.27.47-.27.47-.13.23-.28.47-.28.47l-1.56 2.29h2.1zm0 0zm1.73.693h-.91V758h-.82v-1.85h-3.01v-.566l2.87-4.286h.97v4.16h.92v.693zm.3 1.85zm.69-1.35c.29.31.7.54.7.54.4.23.99.23.99.23.31 0 .57-.11.57-.11.27-.11.47-.31.47-.31.2-.2.32-.48.32-.48.12-.28.12-.63.12-.63 0-.69-.39-1.08-.39-1.08-.39-.39-1.04-.39-1.04-.39-.34 0-.59.11-.59.11-.24.11-.55.31-.55.31l-.46-.29.22-3.23h3.35v.75h-2.59l-.18 1.99c.25-.12.49-.2.49-.2.24-.07.55-.07.55-.07.43 0 .81.13.81.13.38.13.66.39.66.39.28.26.45.65.45.65.16.39.16.94.16.94 0 .55-.19.97-.19.97-.19.42-.5.71-.5.71-.31.28-.72.44-.72.44-.4.15-.84.15-.84.15-.4 0-.73-.08-.73-.08-.33-.08-.6-.2-.6-.2-.27-.12-.48-.29-.48-.29-.21-.16-.38-.34-.38-.34zm4.53 1.35zm.42-.51c.76-.75 1.35-1.36 1.35-1.36.59-.61.99-1.13.99-1.13.4-.52.61-.95.61-.95.21-.43.21-.84.21-.84 0-.58-.31-.95-.31-.95-.31-.37-.95-.37-.95-.37-.42 0-.77.24-.77.24-.35.24-.65.58-.65.58l-.49-.49c.42-.46.89-.74.89-.74.47-.28 1.13-.28 1.13-.28.94 0 1.47.54 1.47.54.54.55.54 1.44.54 1.44 0 .48-.2.95-.2.95-.2.48-.57.99-.57.99-.36.51-.86 1.06-.86 1.06-.5.56-1.1 1.18-1.1 1.18l.57-.04c.3-.02.56-.02.56-.02h1.94v.75H344v-.51zm142.74.52zm.95-6.89h1.03l1.34 3.7.5 1.41h.04l.49-1.4 1.32-3.69h1.03V758h-.83v-3.792c0-.462.04-1.02.04-1.02.04-.556.08-1.018.08-1.018h-.04l-.55 1.534-1.32 3.603h-.49l-1.33-3.603-.54-1.534h-.04c.03.462.08 1.02.08 1.02.05.556.05 1.018.05 1.018V758h-.81v-6.89zm6.7 6.89zm.48-2.54c0-.64.2-1.14.2-1.14.19-.5.52-.84.52-.84.33-.34.75-.52.75-.52.43-.18.9-.18.9-.18.47 0 .9.18.9.18.43.18.76.53.76.53.33.35.52.85.52.85.2.5.2 1.14.2 1.14 0 .63-.19 1.13-.19 1.13-.19.5-.52.84-.52.84-.32.34-.75.52-.75.52-.42.18-.9.18-.9.18-.47 0-.89-.18-.89-.18-.42-.17-.75-.52-.75-.52-.32-.34-.52-.84-.52-.84-.19-.5-.19-1.13-.19-1.13zm0 0zm.9 0c0 .44.1.8.1.8.11.36.3.62.3.62.2.26.47.4.47.4.27.15.6.15.6.15.32 0 .6-.14.6-.14.27-.14.47-.4.47-.4.19-.25.3-.61.3-.61.1-.35.1-.8.1-.8 0-.44-.1-.8-.1-.8-.1-.36-.3-.62-.3-.62-.19-.26-.47-.4-.47-.4-.27-.14-.6-.14-.6-.14-.32 0-.6.14-.6.14-.27.14-.46.41-.46.41-.19.26-.3.63-.3.63-.1.36-.1.8-.1.8zm4.32 2.54zm.86-5.1h.71l.07.74h.03c.37-.36.77-.61.77-.61.41-.24.94-.24.94-.24.81 0 1.18.5 1.18.5.38.51.38 1.49.38 1.49V758h-.86v-3.12c0-.724-.23-1.045-.23-1.045-.23-.32-.73-.32-.73-.32-.4 0-.7.2-.7.2-.3.2-.69.588-.69.588V758h-.86v-5.105zm4.89 5.11zm1.01-4.4h-.76v-.65l.8-.05.11-1.43h.73v1.43h1.38v.71h-1.38v2.83c0 .48.17.73.17.73.18.26.62.26.62.26.13 0 .29-.04.29-.04.16-.04.29-.1.29-.1l.17.65c-.21.08-.45.14-.45.14-.25.06-.49.06-.49.06-.41 0-.69-.12-.69-.12-.28-.13-.45-.35-.45-.35-.17-.22-.24-.53-.24-.53-.07-.31-.07-.69-.07-.69v-2.82zm2.54 4.4zm.86-7.48h.87v2.04l-.04 1.05c.37-.34.77-.59.77-.59.4-.24.94-.24.94-.24.81 0 1.18.5 1.18.5.37.51.37 1.49.37 1.49V758h-.86v-3.12c0-.725-.23-1.045-.23-1.045-.23-.32-.73-.32-.73-.32-.4 0-.7.2-.7.2-.3.2-.69.587-.69.587V758h-.86v-7.48zm4.86 7.48zm.86-7.48h.86v6.52c0 .21.07.3.07.3.08.09.17.09.17.09h.08l.11-.02.12.65c-.09.04-.2.06-.2.06-.12.02-.3.02-.3.02-.49 0-.7-.29-.7-.29-.21-.29-.21-.86-.21-.86v-6.45zm1.82 7.48zm.51 1.41l.19.05.2.03c.44 0 .72-.31.72-.31.28-.31.44-.78.44-.78l.11-.38-2.05-5.11h.89l1.04 2.83.25.71c.13.37.25.73.25.73h.04c.12-.35.22-.73.22-.73.11-.38.21-.71.21-.71l.92-2.82h.84l-1.92 5.53c-.14.38-.31.71-.31.71-.16.33-.39.56-.39.56-.23.24-.53.37-.53.37-.29.14-.68.14-.68.14-.18 0-.33-.02-.33-.02-.15-.02-.28-.08-.28-.08l.17-.68zm4.39-1.4zm.69-4.31c0-.3.19-.49.19-.49.18-.18.45-.18.45-.18.25 0 .43.19.43.19.18.19.18.49.18.49 0 .28-.19.47-.19.47-.18.19-.43.19-.43.19-.26 0-.44-.18-.44-.18-.18-.18-.18-.46-.18-.46zm0 0zm0 3.79c0-.3.19-.49.19-.49.18-.18.45-.18.45-.18.25 0 .43.19.43.19.18.19.18.49.18.49 0 .28-.19.47-.19.47-.18.19-.43.19-.43.19-.26 0-.44-.19-.44-.19-.18-.18-.18-.47-.18-.47zm4.06.53zm.42-.52c.76-.75 1.35-1.36 1.35-1.36.59-.61.99-1.13.99-1.13.4-.52.61-.95.61-.95.21-.43.21-.84.21-.84 0-.58-.31-.95-.31-.95-.31-.37-.95-.37-.95-.37-.42 0-.77.24-.77.24-.36.24-.65.58-.65.58l-.49-.49c.42-.46.89-.74.89-.74.47-.28 1.14-.28 1.14-.28.94 0 1.47.54 1.47.54.54.55.54 1.44.54 1.44 0 .48-.2.95-.2.95-.21.48-.57.99-.57.99-.36.51-.86 1.06-.86 1.06-.5.56-1.09 1.18-1.09 1.18l.57-.04c.29-.02.56-.02.56-.02h1.94v.75h-4.33v-.52zm4.8.52zm.83-.71h1.5v-4.93h-1.22v-.56c.47-.08.81-.2.81-.2.34-.12.62-.29.62-.29h.67v5.99h1.39v.71h-3.78v-.71zm4.39.72zm.69-1.35c.29.31.7.54.7.54.4.24.99.24.99.24.3 0 .57-.11.57-.11.27-.11.47-.31.47-.31.2-.2.32-.48.32-.48.12-.28.12-.63.12-.63 0-.69-.38-1.08-.38-1.08-.39-.39-1.04-.39-1.04-.39-.35 0-.59.11-.59.11-.24.11-.55.31-.55.31l-.46-.29.22-3.23h3.35v.75h-2.6l-.17 1.99c.24-.13.48-.2.48-.2.24-.08.55-.08.55-.08.43 0 .81.13.81.13.38.13.66.39.66.39.28.26.45.65.45.65.16.4.16.94.16.94 0 .55-.19.97-.19.97-.19.42-.51.71-.51.71-.31.29-.72.44-.72.44-.4.15-.84.15-.84.15-.4 0-.73-.08-.73-.08-.33-.07-.6-.2-.6-.2-.27-.12-.48-.28-.48-.28-.21-.17-.38-.35-.38-.35zm146.81 1.35zm2.06-2.67l-2.07-4.22h.93l.89 1.94.33.74c.16.37.34.76.34.76h.04c.18-.39.36-.75.36-.75.18-.36.33-.74.33-.74l.88-1.95h.91l-2.07 4.23V758h-.88v-2.668zm2.51 2.67zm.48-2.54c0-.63.19-1.13.19-1.13.2-.49.52-.84.52-.84.32-.34.73-.53.73-.53.41-.18.85-.18.85-.18.49 0 .87.16.87.16.38.17.64.48.64.48.26.32.4.76.4.76.13.44.13.99.13.99 0 .28-.03.47-.03.47h-3.45c.05.83.51 1.32.51 1.32.46.48 1.2.48 1.2.48.36 0 .67-.11.67-.11.31-.11.6-.29.6-.29l.31.57c-.33.21-.74.37-.74.37-.41.16-.94.16-.94.16-.51 0-.96-.18-.96-.18-.45-.18-.78-.52-.78-.52-.33-.34-.52-.84-.52-.84-.19-.49-.19-1.12-.19-1.12zm0 0zm3.57-.39c0-.78-.33-1.2-.33-1.2-.33-.41-.93-.41-.93-.41-.27 0-.52.11-.52.11-.25.11-.45.32-.45.32-.2.21-.33.51-.33.51-.13.3-.17.69-.17.69h2.7zm1.01 2.94zm.61-1.32c0-.84.75-1.28.75-1.28.75-.45 2.39-.62 2.39-.62 0-.24-.05-.48-.05-.48-.05-.23-.17-.41-.17-.41-.12-.18-.32-.29-.32-.29-.2-.11-.51-.11-.51-.11-.45 0-.83.17-.83.17-.38.17-.68.38-.68.38l-.34-.6c.36-.23.87-.45.87-.45.51-.22 1.13-.22 1.13-.22.93 0 1.35.57 1.35.57.42.58.42 1.53.42 1.53v3.1h-.72l-.07-.61h-.02c-.37.31-.79.52-.79.52-.43.22-.9.22-.9.22-.65 0-1.08-.38-1.08-.38-.42-.38-.42-1.07-.42-1.07zm0 0zm.85-.06c0 .44.26.63.26.63.26.19.64.19.64.19.37 0 .7-.17.7-.17.33-.17.7-.51.7-.51v-1.42c-.64.09-1.08.2-1.08.2-.44.12-.71.28-.71.28-.27.16-.38.36-.38.36-.11.21-.11.45-.11.45zm3.92 1.39zm.86-5.1h.71l.08.92h.03c.27-.49.64-.77.64-.77.38-.29.82-.29.82-.29.31 0 .55.11.55.11l-.17.75c-.13-.04-.23-.06-.23-.06-.11-.02-.26-.02-.26-.02-.32 0-.68.26-.68.26-.35.26-.61.91-.61.91V758h-.86v-5.105zm2.78 5.1zm.86-7.48h.86v6.52c0 .21.07.29.07.29.07.08.17.08.17.08h.08l.11-.02.11.65c-.08.05-.2.07-.2.07-.11.02-.29.02-.29.02-.49 0-.7-.29-.7-.29-.21-.29-.21-.86-.21-.86v-6.45zm1.82 7.48zm.52 1.41l.19.05.2.03c.44 0 .72-.31.72-.31.28-.31.44-.78.44-.78l.12-.38-2.05-5.11h.9l1.04 2.83.25.71c.13.37.24.73.24.73h.04c.12-.34.22-.72.22-.72.11-.38.21-.71.21-.71l.91-2.82h.84l-1.92 5.53c-.13.38-.3.7-.3.7-.17.32-.4.56-.4.56-.23.24-.52.37-.52.37-.3.14-.68.14-.68.14-.18 0-.32-.02-.32-.02-.15-.02-.28-.08-.28-.08l.17-.68zm4.39-1.41zm.69-4.31c0-.31.18-.49.18-.49.19-.18.45-.18.45-.18.25 0 .44.19.44.19.19.19.19.49.19.49 0 .28-.18.47-.18.47-.18.19-.43.19-.43.19-.26 0-.45-.18-.45-.18-.18-.18-.18-.46-.18-.46zm0 0zm0 3.79c0-.3.18-.49.18-.49.19-.18.45-.18.45-.18.25 0 .44.18.44.18.19.19.19.49.19.49 0 .29-.18.47-.18.47-.18.19-.43.19-.43.19-.26 0-.45-.18-.45-.18-.18-.18-.18-.46-.18-.46zm4.05.53zm.72-1.38c.31.32.71.56.71.56.41.24 1.01.24 1.01.24.6 0 .99-.33.99-.33.39-.33.39-.9.39-.9 0-.29-.11-.54-.11-.54-.11-.25-.37-.43-.37-.43-.25-.18-.66-.27-.66-.27-.41-.1-1.01-.1-1.01-.1v-.67c.54 0 .9-.1.9-.1.36-.09.59-.26.59-.26.22-.17.32-.4.32-.4.09-.23.09-.49.09-.49 0-.49-.31-.77-.31-.77-.31-.28-.84-.28-.84-.28-.42 0-.77.19-.77.19-.35.19-.66.5-.66.5l-.47-.55c.39-.37.86-.61.86-.61.47-.24 1.07-.24 1.07-.24.44 0 .81.12.81.12.37.11.64.33.64.33.27.21.41.53.41.53.15.31.15.72.15.72 0 .61-.33 1-.33 1-.34.39-.89.6-.89.6v.04c.31.07.57.21.57.21.26.15.46.36.46.36.2.22.31.5.31.5.11.28.11.63.11.63 0 .44-.17.8-.17.8-.18.36-.48.6-.48.6-.3.25-.7.38-.7.38-.4.13-.86.13-.86.13-.4 0-.73-.08-.73-.08-.33-.08-.602-.21-.602-.21-.28-.13-.49-.3-.49-.3-.22-.17-.39-.36-.39-.36zm4.51 1.39zm2.82-.56c.25 0 .46-.11.46-.11.21-.1.37-.3.37-.3.16-.19.25-.46.25-.46.09-.27.09-.6.09-.6 0-.66-.31-1.04-.31-1.04-.31-.38-.94-.38-.94-.38-.32 0-.69.21-.69.21-.38.2-.71.67-.71.67.08.99.46 1.5.46 1.5.37.51 1.01.51 1.01.51zm0 0zm1.38-5.02c-.21-.24-.5-.39-.5-.39-.28-.15-.6-.15-.6-.15-.34 0-.66.15-.66.15-.31.15-.55.48-.55.48-.24.34-.39.88-.39.88-.14.54-.16 1.34-.16 1.34.32-.39.74-.61.74-.61.42-.22.83-.22.83-.22.88 0 1.4.52 1.4.52.52.51.52 1.55.52 1.55 0 .49-.16.88-.16.88-.16.4-.43.68-.43.68-.27.29-.63.44-.63.44-.36.16-.77.16-.77.16-.49 0-.91-.2-.91-.2-.42-.2-.73-.6-.73-.6-.31-.4-.49-1.01-.49-1.01-.18-.6-.18-1.41-.18-1.41 0-1 .21-1.71.21-1.71.21-.71.57-1.16.57-1.16.36-.45.82-.65.82-.65.46-.21.96-.21.96-.21.55 0 .94.21.94.21.4.2.68.51.68.51zm151.04 5.5zm1.82-3.62h1.16c.81 0 1.24-.33 1.24-.33.43-.33.43-1 .43-1 0-.68-.43-.95-.43-.95-.43-.27-1.24-.27-1.24-.27h-1.15v2.57zm0 0zm2.91 3.63l-1.66-2.91h-1.25v2.9h-.87v-6.89h2.16c.53 0 .97.1.97.1.45.1.77.33.77.33.32.23.5.6.5.6.18.37.18.91.18.91 0 .81-.42 1.29-.42 1.29-.42.49-1.13.66-1.13.66l1.75 3.01h-.99zm1.27 0zm.61-1.32c0-.84.75-1.29.75-1.29.75-.44 2.39-.62 2.39-.62 0-.24-.05-.47-.05-.47-.04-.23-.16-.41-.16-.41-.12-.18-.32-.29-.32-.29-.2-.11-.51-.11-.51-.11-.45 0-.833.17-.833.17-.386.17-.69.38-.69.38l-.35-.6c.35-.23.87-.45.87-.45.51-.22 1.13-.22 1.13-.22.93 0 1.35.57 1.35.57.42.57.42 1.53.42 1.53V758h-.716l-.072-.61h-.02c-.37.306-.79.52-.79.52-.42.216-.9.216-.9.216-.65 0-1.07-.378-1.07-.378-.42-.378-.42-1.07-.42-1.07zm0 0zm.85-.06c0 .44.26.63.26.63.26.19.64.19.64.19.37 0 .7-.17.7-.17.33-.17.7-.51.7-.51v-1.41c-.64.09-1.08.2-1.08.2-.44.12-.7.28-.7.28-.27.16-.38.36-.38.36-.11.21-.11.45-.11.45zm3.92 1.39zm.86-5.1h.72l.08.93h.03c.26-.49.635-.77.635-.77.37-.29.813-.29.813-.29.31 0 .55.1.55.1l-.17.75c-.12-.04-.23-.06-.23-.06-.1-.02-.26-.02-.26-.02-.32 0-.67.26-.67.26-.35.26-.62.92-.62.92V758h-.86v-5.105zm2.68 5.11zm.48-2.54c0-.63.2-1.13.2-1.13.2-.5.52-.84.52-.84.32-.34.73-.53.73-.53.41-.18.85-.18.85-.18.48 0 .86.16.86.16.38.17.64.48.64.48.26.31.4.75.4.75.13.44.13.99.13.99 0 .28-.03.47-.03.47h-3.45c.05.83.51 1.32.51 1.32.45.48 1.19.48 1.19.48.37 0 .68-.11.68-.11.31-.11.59-.29.59-.29l.3.57c-.34.21-.75.37-.75.37-.41.16-.94.16-.94.16-.51 0-.96-.18-.96-.18-.44-.18-.77-.52-.77-.52-.33-.34-.52-.84-.52-.84-.19-.49-.19-1.12-.19-1.12zm0 0zm3.57-.39c0-.78-.33-1.2-.33-1.2-.33-.41-.93-.41-.93-.41-.27 0-.52.11-.52.11-.24.11-.44.32-.44.32-.2.21-.33.51-.33.51-.13.3-.17.69-.17.69h2.73zm1.16 2.93zm.87-7.48h.86v6.52c0 .21.08.3.08.3.07.09.17.09.17.09h.08l.11-.02.12.65c-.08.05-.2.07-.2.07-.11.02-.29.02-.29.02-.49 0-.7-.29-.7-.29-.21-.29-.21-.86-.21-.86v-6.45zm1.82 7.48zm.52 1.41l.19.05.2.03c.44 0 .72-.31.72-.31.28-.31.438-.78.438-.78l.12-.38-2.05-5.11h.898l1.04 2.83.246.71c.13.37.25.73.25.73h.04c.113-.34.22-.72.22-.72.103-.38.21-.71.21-.71l.91-2.82h.84l-1.93 5.53c-.14.38-.304.7-.304.7-.17.33-.4.56-.4.56-.23.24-.527.37-.527.37-.3.14-.69.14-.69.14-.18 0-.326-.02-.326-.02-.15-.02-.28-.08-.28-.08l.17-.68zm4.39-1.4zm.688-4.32c0-.3.187-.49.187-.49.19-.18.45-.18.45-.18.25 0 .44.19.44.19.19.19.19.49.19.49 0 .28-.18.47-.18.47-.18.19-.43.19-.43.19-.26 0-.45-.18-.45-.18-.18-.18-.18-.46-.18-.46zm0 0zm0 3.8c0-.3.187-.49.187-.49.19-.18.45-.18.45-.18.25 0 .44.19.44.19.19.19.19.49.19.49 0 .28-.18.47-.18.47-.18.19-.43.19-.43.19-.26 0-.45-.19-.45-.19-.18-.18-.18-.47-.18-.47zm4.058.53zm.68-1.36c.295.31.7.54.7.54.404.24.99.24.99.24.307 0 .575-.11.575-.11.26-.11.46-.31.46-.31.2-.2.31-.48.31-.48.11-.28.11-.63.11-.63 0-.69-.39-1.08-.39-1.08-.39-.39-1.04-.39-1.04-.39-.35 0-.59.11-.59.11-.25.11-.55.31-.55.31l-.47-.29.22-3.22h3.35v.75h-2.6l-.18 1.99c.24-.13.48-.2.48-.2.24-.07.54-.07.54-.07.43 0 .81.13.81.13.38.13.66.39.66.39.28.26.44.65.44.65.16.39.16.94.16.94 0 .55-.19.97-.19.97-.19.42-.5.71-.5.71-.32.29-.72.44-.72.44-.41.15-.85.15-.85.15-.4 0-.73-.08-.73-.08-.33-.08-.6-.2-.6-.2-.27-.12-.48-.28-.48-.28-.22-.16-.39-.34-.39-.34zm4.54 1.36zm.83-.71h1.53v-4.94H915.7v-.56c.46-.09.8-.21.8-.21.35-.12.62-.29.62-.29h.66v5.99h1.39v.72h-3.78v-.72z"/></svg>