<svg xmlns="http://www.w3.org/2000/svg" stroke="#000" viewBox="0 0 1024 768" font-size="1"><path fill="#FFF" stroke="none" d="M0 0v768h1024V0z"/><path stroke="none" d="M372.318 14.102zm.216-10.04h2.325l.69 4.696c.09.785.2 1.578.2 1.578.11.793.2 1.594.2 1.594h.06l.3-1.594c.14-.793.3-1.578.3-1.578l1.08-4.697h1.92l1.08 4.7c.15.77.3 1.57.3 1.57l.3 1.61h.06c.11-.81.21-1.6.21-1.6.1-.78.21-1.57.21-1.57l.69-4.69h2.17l-1.79 10.04H380l-.985-4.56c-.123-.58-.223-1.17-.223-1.17-.1-.59-.177-1.14-.177-1.14h-.062l-.193 1.15c-.1.6-.22 1.18-.22 1.18l-.94 4.56h-2.8zM384.84 14.1zm1-10.796h2.264v2.65l-.108 1.37c.43-.386 1-.717 1-.717.57-.332 1.356-.332 1.356-.332 1.248 0 1.81.816 1.81.816.562.82.562 2.27.562 2.27v4.74h-2.264V9.65c0-.834-.223-1.14-.223-1.14-.224-.31-.717-.31-.717-.31-.43 0-.74.193-.74.193-.307.192-.676.547-.676.547v5.16h-2.264V3.305zm7.792 10.796zm.555-3.82c0-.924.308-1.67.308-1.67.308-.748.808-1.263.808-1.263.5-.517 1.148-.795 1.148-.795.65-.277 1.34-.277 1.34-.277.82 0 1.43.278 1.43.278.61.277 1.02.77 1.02.77.41.492.61 1.162.61 1.162.2.67.2 1.455.2 1.455 0 .308-.03.563-.03.563-.03.254-.06.392-.06.392h-4.57c.16.878.69 1.27.69 1.27.53.393 1.3.393 1.3.393.82 0 1.65-.507 1.65-.507l.76 1.37c-.59.4-1.3.64-1.3.64-.71.23-1.41.23-1.41.23-.81 0-1.52-.27-1.52-.27-.71-.27-1.23-.78-1.23-.78-.52-.51-.81-1.25-.81-1.25-.29-.74-.29-1.69-.29-1.69zm0 0zm4.928-.785c0-.662-.293-1.078-.293-1.078C398.53 8 397.837 8 397.837 8c-.54 0-.947.362-.947.362-.408.362-.532 1.132-.532 1.132h2.757zm2.495 4.605zm1-7.64h1.85l.153 1.34h.062c.415-.785 1-1.154 1-1.154.586-.37 1.17-.37 1.17-.37.324 0 .532.04.532.04.208.037.377.114.377.114l-.37 1.956c-.215-.062-.4-.092-.4-.092-.184-.03-.43-.03-.43-.03-.432 0-.902.307-.902.307-.47.31-.777 1.1-.777 1.1v4.43h-2.264V6.46zm4.975 7.64zm.555-3.82c0-.924.308-1.67.308-1.67.308-.748.808-1.263.808-1.263.5-.517 1.147-.795 1.147-.795.647-.277 1.34-.277 1.34-.277.816 0 1.425.278 1.425.278.608.277 1.016.77 1.016.77.408.492.608 1.162.608 1.162.2.67.2 1.455.2 1.455 0 .308-.03.563-.03.563-.03.254-.062.392-.062.392h-4.574c.154.878.686 1.27.686 1.27.53.393 1.3.393 1.3.393.817 0 1.65-.507 1.65-.507l.753 1.37c-.585.4-1.3.64-1.3.64-.717.23-1.41.23-1.41.23-.816 0-1.525-.27-1.525-.27-.708-.27-1.232-.78-1.232-.78-.523-.51-.816-1.25-.816-1.25-.293-.74-.293-1.69-.293-1.69zm0 0zm4.928-.785c0-.662-.293-1.078-.293-1.078C412.483 8 411.79 8 411.79 8c-.54 0-.948.362-.948.362-.408.362-.53 1.132-.53 1.132h2.756zm5.698 4.605zm.6-3.82c0-.94.27-1.678.27-1.678.27-.74.708-1.255.708-1.255.44-.517 1.017-.795 1.017-.795.58-.277 1.18-.277 1.18-.277.65 0 1.06.216 1.06.216.42.22.82.59.82.59l-.09-1.17v-2.6h2.27V14.1h-1.85l-.15-.754h-.06c-.4.4-.94.67-.94.67-.54.27-1.09.27-1.09.27-.71 0-1.28-.278-1.28-.278-.57-.278-.98-.794-.98-.794-.4-.516-.63-1.255-.63-1.255-.22-.74-.22-1.68-.22-1.68zm0 0zm2.326-.03c0 1.14.362 1.663.362 1.663.362.523 1.024.523 1.024.523.37 0 .67-.154.67-.154.3-.154.577-.54.577-.54V8.62c-.308-.278-.63-.386-.63-.386-.324-.108-.632-.108-.632-.108-.54 0-.955.516-.955.516-.416.516-.416 1.61-.416 1.61zm5.898 3.85zm.555-3.82c0-.955.308-1.7.308-1.7.308-.748.824-1.257.824-1.257.516-.508 1.193-.777 1.193-.777.678-.27 1.402-.27 1.402-.27.723 0 1.393.27 1.393.27.67.27 1.186.777 1.186.777.52.51.83 1.256.83 1.256.31.74.31 1.7.31 1.7 0 .95-.31 1.7-.31 1.7-.31.74-.82 1.25-.82 1.25-.51.5-1.18.77-1.18.77-.67.27-1.39.27-1.39.27-.72 0-1.4-.27-1.4-.27-.67-.27-1.19-.78-1.19-.78-.51-.51-.82-1.26-.82-1.26-.31-.75-.31-1.7-.31-1.7zm0 0zm2.325 0c0 1 .347 1.586.347 1.586.346.586 1.055.586 1.055.586.693 0 1.047-.586 1.047-.586.35-.585.35-1.586.35-1.586 0-1-.36-1.586-.36-1.586-.36-.585-1.05-.585-1.05-.585-.71 0-1.06.58-1.06.58-.35.58-.35 1.58-.35 1.58zm8.87 3.82zm1.17 1.108c.11.03.248.062.248.062.138.03.262.03.262.03.57 0 .877-.276.877-.276.308-.278.462-.724.462-.724l.1-.4-2.94-7.44h2.28l1.09 3.28c.17.525.31 1.064.31 1.064.14.54.29 1.11.29 1.11h.06c.12-.54.25-1.087.25-1.087.13-.548.27-1.087.27-1.087l.93-3.28h2.17l-2.65 7.716c-.28.723-.58 1.27-.58 1.27-.3.546-.7.908-.7.908-.4.362-.9.547-.9.547-.5.19-1.18.19-1.18.19-.36 0-.6-.04-.6-.04-.25-.04-.48-.11-.48-.11l.4-1.72zm6.73-1.108zm.556-3.82c0-.955.308-1.7.308-1.7.308-.748.824-1.257.824-1.257.515-.508 1.193-.777 1.193-.777.68-.27 1.41-.27 1.41-.27.73 0 1.4.27 1.4.27.67.27 1.19.777 1.19.777.52.51.83 1.256.83 1.256.31.74.31 1.7.31 1.7 0 .95-.31 1.7-.31 1.7-.31.74-.82 1.25-.82 1.25-.51.5-1.18.77-1.18.77-.67.27-1.39.27-1.39.27-.72 0-1.4-.27-1.4-.27-.67-.27-1.19-.78-1.19-.78-.51-.51-.82-1.26-.82-1.26-.31-.75-.31-1.7-.31-1.7zm0 0zm2.325 0c0 1 .35 1.586.35 1.586.35.586 1.06.586 1.06.586.7 0 1.05-.586 1.05-.586.36-.585.36-1.586.36-1.586 0-1-.35-1.586-.35-1.586-.35-.585-1.04-.585-1.04-.585-.71 0-1.05.58-1.05.58-.35.58-.35 1.58-.35 1.58zm5.67 3.82zm.93-7.64h2.27v4.452c0 .83.23 1.14.23 1.14.23.307.73.307.73.307.43 0 .73-.2.73-.2.29-.2.63-.65.63-.65V6.46h2.27v7.64h-1.84l-.17-1.063h-.04c-.49.584-1.05.915-1.05.915-.56.33-1.35.33-1.35.33-1.24 0-1.81-.815-1.81-.815-.56-.816-.56-2.264-.56-2.264v-4.74zm11.03 7.64zm2.39.954c0 .432.46.655.46.655.46.22 1.23.22 1.23.22.77 0 1.27-.27 1.27-.27.5-.27.5-.67.5-.67 0-.36-.3-.48-.3-.48-.3-.13-.87-.13-.87-.13h-.78c-.4 0-.64-.03-.64-.03-.24-.03-.43-.07-.43-.07-.41.37-.41.75-.41.75zm0 0zm-1.86.355c0-.93 1.1-1.54 1.1-1.54v-.06c-.31-.2-.51-.51-.51-.51-.2-.31-.2-.79-.2-.79 0-.42.25-.8.25-.8.25-.38.62-.64.62-.64v-.06c-.4-.28-.71-.8-.71-.8-.31-.52-.31-1.2-.31-1.2 0-.7.26-1.21.26-1.21.27-.52.7-.86.7-.86.44-.35 1.01-.52 1.01-.52.57-.17 1.19-.17 1.19-.17.68 0 1.19.18 1.19.18h2.79V8.1h-1.22c.11.17.18.434.18.434.07.263.07.57.07.57 0 .663-.23 1.148-.23 1.148-.23.483-.64.8-.64.8-.4.315-.95.47-.95.47-.55.153-1.18.153-1.18.153-.44 0-.92-.153-.92-.153-.15.12-.21.243-.21.243-.06.124-.06.325-.06.325 0 .29.25.43.25.43.26.14.9.14.9.14h1.23c1.42 0 2.17.455 2.17.455.75.455.75 1.487.75 1.487 0 .6-.3 1.1-.3 1.1-.3.5-.85.863-.85.863-.55.36-1.34.57-1.34.57-.78.206-1.77.206-1.77.206-.68 0-1.25-.11-1.25-.11-.58-.12-1.02-.35-1.02-.35-.44-.23-.68-.6-.68-.6-.24-.37-.24-.88-.24-.88zm0 0zm3.38-5.1c.45 0 .75-.32.75-.32.3-.32.3-.96.3-.96 0-.6-.3-.92-.3-.92-.3-.32-.74-.32-.74-.32-.45 0-.75.31-.75.31-.3.31-.3.92-.3.92 0 .65.3.96.3.96.3.31.75.31.75.31zm4.05 3.79zm.55-3.82c0-.93.31-1.67.31-1.67.31-.75.81-1.26.81-1.26.5-.52 1.15-.8 1.15-.8.65-.28 1.34-.28 1.34-.28.82 0 1.42.28 1.42.28.61.27 1.02.77 1.02.77.41.49.61 1.16.61 1.16.2.67.2 1.45.2 1.45 0 .31-.03.56-.03.56-.03.25-.06.39-.06.39h-4.57c.16.88.69 1.27.69 1.27.53.39 1.3.39 1.3.39.82 0 1.65-.51 1.65-.51l.76 1.37c-.58.4-1.3.63-1.3.63-.72.23-1.41.23-1.41.23-.81 0-1.52-.27-1.52-.27-.71-.27-1.23-.79-1.23-.79-.52-.52-.81-1.26-.81-1.26-.29-.74-.29-1.7-.29-1.7zm0 0zm4.93-.79c0-.66-.29-1.08-.29-1.08-.3-.42-.99-.42-.99-.42-.54 0-.94.36-.94.36-.41.36-.53 1.13-.53 1.13h2.76zm2.22 4.6zm1.31-5.87h-1.05V6.55l1.17-.09.26-2.034h1.88v2.03h1.84v1.77h-1.83v3.07c0 .646.27.93.27.93.27.285.72.285.72.285.19 0 .38-.04.38-.04.2-.05.35-.11.35-.11l.36 1.65c-.31.09-.72.18-.72.18-.42.09-.97.09-.97.09-.71 0-1.21-.21-1.21-.21-.5-.21-.82-.6-.82-.6-.31-.38-.46-.93-.46-.93-.14-.54-.14-1.2-.14-1.2v-3.1zm7.79 5.86zm1.19-10.04h2.27v3.87h3.47V4.06h2.28v10.042h-2.28v-4.19h-3.46v4.19h-2.27V4.062zm9.2 10.04zm.72-2.13c0-1.2 1.02-1.88 1.02-1.88 1.02-.68 3.28-.91 3.28-.91-.03-.51-.31-.81-.31-.81-.27-.3-.89-.3-.89-.3-.49 0-.98.18-.98.18-.49.18-1.04.5-1.04.5l-.8-1.49c.74-.45 1.55-.73 1.55-.73.81-.28 1.72-.28 1.72-.28 1.48 0 2.26.84 2.26.84.78.84.78 2.61.78 2.61v4.39h-1.85l-.17-.79h-.04c-.49.43-1.04.7-1.04.7-.54.27-1.19.27-1.19.27-.52 0-.94-.18-.94-.18-.41-.18-.7-.49-.7-.49-.29-.32-.45-.74-.45-.74-.16-.41-.16-.9-.16-.9zm0 0zm2.16-.17c0 .37.24.55.24.55.24.17.64.17.64.17.4 0 .68-.17.68-.17.28-.17.59-.48.59-.48v-1.34c-1.21.17-1.68.49-1.68.49-.46.32-.46.77-.46.77zm5.35 2.29zm1.34-2.3c.53.4 1 .6 1 .6.48.2.97.2.97.2.51 0 .74-.17.74-.17.23-.17.23-.48.23-.48 0-.19-.13-.33-.13-.33-.13-.15-.35-.27-.35-.27-.22-.12-.5-.22-.5-.22-.27-.1-.57-.23-.57-.23-.35-.14-.71-.32-.71-.32-.35-.18-.64-.45-.64-.45-.29-.27-.48-.63-.48-.63-.18-.36-.18-.84-.18-.84 0-.53.21-.97.21-.97.21-.45.59-.76.59-.76.39-.31.93-.49.93-.49.54-.18 1.2-.18 1.2-.18.88 0 1.54.3 1.54.3.67.3 1.16.67 1.16.67l-1.02 1.36c-.41-.31-.81-.48-.81-.48-.4-.17-.8-.17-.8-.17-.86 0-.86.6-.86.6 0 .18.13.31.13.31.13.13.33.24.33.24.21.1.48.2.48.2l.56.21c.37.14.74.31.74.31.36.17.66.44.66.44.3.26.48.64.48.64.19.37.19.9.19.9 0 .52-.2.97-.2.97-.2.44-.6.77-.6.77-.4.33-.99.53-.99.53-.58.19-1.35.19-1.35.19-.75 0-1.54-.29-1.54-.29-.79-.29-1.38-.77-1.38-.77zm5.49 2.29zm1-10.8h2.21v6.19h.06l2.42-3.04h2.47l-2.68 3.14 2.88 4.5h-2.45l-1.72-2.98-.97 1.09v1.88h-2.2V3.3zm7 10.8zm.56-3.82c0-.93.31-1.67.31-1.67.31-.75.81-1.27.81-1.27.5-.52 1.15-.8 1.15-.8.65-.28 1.34-.28 1.34-.28.82 0 1.42.28 1.42.28.61.28 1.02.77 1.02.77.41.49.61 1.16.61 1.16.2.67.2 1.45.2 1.45 0 .31-.03.56-.03.56-.03.25-.06.39-.06.39h-4.57c.16.88.69 1.27.69 1.27.53.39 1.3.39 1.3.39.82 0 1.65-.51 1.65-.51l.76 1.37c-.58.4-1.3.63-1.3.63-.71.23-1.41.23-1.41.23-.81 0-1.52-.27-1.52-.27-.71-.27-1.23-.79-1.23-.79-.52-.52-.82-1.26-.82-1.26-.29-.74-.29-1.69-.29-1.69zm0 0zm4.93-.79c0-.67-.29-1.08-.29-1.08-.3-.42-.99-.42-.99-.42-.54 0-.95.36-.95.36-.41.36-.53 1.13-.53 1.13h2.76zm2.49 4.6zm1-10.8h2.27v8.51c0 .36.13.49.13.49.13.14.27.14.27.14h.13l.15-.03.28 1.68c-.18.08-.47.13-.47.13-.28.06-.67.06-.67.06-.58 0-.98-.18-.98-.18-.4-.19-.64-.52-.64-.52-.24-.33-.35-.8-.35-.8-.1-.47-.1-1.05-.1-1.05V3.3zm3.41 10.8zm1-10.8h2.26v8.52c0 .35.13.49.13.49.13.14.27.14.27.14h.13l.15-.03.28 1.68c-.18.07-.47.13-.47.13-.28.05-.67.05-.67.05-.58 0-.98-.19-.98-.19-.4-.19-.64-.52-.64-.52-.24-.33-.34-.8-.34-.8-.11-.47-.11-1.06-.11-1.06V3.3zm6.6 10.8zm3.27.6v2.24h-2.26V6.46h1.85l.16.755h.06c.45-.4 1.01-.67 1.01-.67.56-.27 1.16-.27 1.16-.27.7 0 1.25.277 1.25.277.56.278.94.786.94.786.39.51.59 1.23.59 1.23.21.72.21 1.6.21 1.6 0 .99-.27 1.75-.27 1.75-.27.77-.72 1.3-.72 1.3-.45.537-1.03.81-1.03.81-.57.28-1.19.28-1.19.28-.49 0-.95-.21-.95-.21-.46-.21-.86-.59-.86-.59zm0 0zm0-2.75c.31.28.62.38.62.38.31.11.6.11.6.11.59 0 1-.53 1-.53.42-.53.42-1.72.42-1.72 0-2.07-1.32-2.07-1.32-2.07-.66 0-1.31.69-1.31.69v3.13zm5.39 2.15zm.73-2.13c0-1.2 1.01-1.88 1.01-1.88 1.02-.68 3.28-.91 3.28-.91-.03-.51-.31-.81-.31-.81-.28-.3-.89-.3-.89-.3-.49 0-.98.18-.98.18-.49.18-1.04.51-1.04.51l-.8-1.5c.74-.45 1.55-.73 1.55-.73.81-.28 1.72-.28 1.72-.28 1.48 0 2.26.84 2.26.84.78.84.78 2.61.78 2.61v4.37h-1.85l-.17-.79h-.04c-.49.43-1.04.7-1.04.7-.54.27-1.19.27-1.19.27-.53 0-.94-.18-.94-.18-.42-.18-.71-.5-.71-.5-.29-.32-.45-.73-.45-.73-.17-.42-.17-.91-.17-.91zm0 0zm2.15-.17c0 .37.24.55.24.55.24.18.64.18.64.18.4 0 .68-.17.68-.17.28-.17.59-.48.59-.48V10.5c-1.22.17-1.68.495-1.68.495-.46.322-.46.77-.46.77zm5.34 2.3zm.55-3.82c0-.96.33-1.7.33-1.7.33-.75.87-1.26.87-1.26.55-.51 1.27-.78 1.27-.78.73-.27 1.51-.27 1.51-.27.71 0 1.28.24 1.28.24.57.24.96.64.96.64l-1.03 1.4c-.54-.45-1.06-.45-1.06-.45-.83 0-1.31.58-1.31.58-.48.58-.48 1.58-.48 1.58 0 1 .49 1.58.49 1.58.49.59 1.23.59 1.23.59.42 0 .76-.17.76-.17.34-.17.61-.38.61-.38l.91 1.43c-.55.49-1.23.72-1.23.72-.68.23-1.31.23-1.31.23-.8 0-1.49-.27-1.49-.27-.68-.27-1.19-.78-1.19-.78-.51-.51-.8-1.26-.8-1.26-.29-.75-.29-1.7-.29-1.7zm6.64 3.82zm1-10.8h2.2v6.2h.06l2.42-3.04h2.47l-2.68 3.14 2.88 4.49h-2.45l-1.72-2.97-.97 1.09v1.88H571V3.3zm7.29 10.79zm.73-2.12c0-1.2 1.02-1.88 1.02-1.88 1.02-.68 3.28-.91 3.28-.91-.03-.51-.3-.81-.3-.81-.28-.3-.89-.3-.89-.3-.49 0-.98.18-.98.18-.5.19-1.05.51-1.05.51l-.8-1.49c.73-.45 1.54-.72 1.54-.72.81-.28 1.72-.28 1.72-.28 1.48 0 2.26.84 2.26.84.78.84.78 2.61.78 2.61v4.37h-1.85l-.17-.79h-.05c-.49.43-1.04.7-1.04.7-.55.27-1.19.27-1.19.27-.53 0-.94-.18-.94-.18-.42-.18-.71-.49-.71-.49-.29-.32-.46-.73-.46-.73-.16-.41-.16-.9-.16-.9zm0 0zm2.16-.17c0 .37.24.54.24.54.24.18.64.18.64.18.4 0 .68-.17.68-.17.28-.17.58-.48.58-.48V10.5c-1.22.17-1.68.49-1.68.49-.46.32-.46.77-.46.77zm5.34 2.29zm2.39.96c0 .43.46.65.46.65.46.23 1.23.23 1.23.23.77 0 1.27-.27 1.27-.27.49-.27.49-.67.49-.67 0-.35-.3-.48-.3-.48-.3-.13-.87-.13-.87-.13h-.78c-.4 0-.65-.02-.65-.02-.24-.02-.43-.07-.43-.07-.42.37-.42.75-.42.75zm0 0zm-1.86.35c0-.92 1.09-1.54 1.09-1.54v-.06c-.31-.2-.51-.51-.51-.51-.2-.3-.2-.78-.2-.78 0-.41.24-.79.24-.79.25-.38.62-.64.62-.64V11c-.4-.28-.71-.792-.71-.792-.31-.515-.31-1.19-.31-1.19 0-.698.27-1.21.27-1.21.26-.52.7-.86.7-.86.44-.35 1.01-.52 1.01-.52.57-.17 1.19-.17 1.19-.17.68 0 1.19.18 1.19.18h2.79V8.1h-1.21c.1.17.17.43.17.43.07.263.07.57.07.57 0 .663-.23 1.148-.23 1.148-.23.48-.64.8-.64.8-.41.31-.96.47-.96.47-.54.15-1.18.15-1.18.15-.44 0-.92-.16-.92-.16-.15.12-.21.245-.21.245-.06.12-.06.322-.06.322 0 .29.25.43.25.43.26.14.9.14.9.14h1.23c1.42 0 2.16.452 2.16.452.75.454.75 1.486.75 1.486 0 .6-.3 1.1-.3 1.1-.3.5-.85.86-.85.86-.55.362-1.34.57-1.34.57-.79.21-1.77.21-1.77.21-.68 0-1.26-.116-1.26-.116-.58-.117-1.02-.348-1.02-.348-.44-.24-.68-.61-.68-.61-.24-.37-.24-.88-.24-.88zm0 0zm3.37-5.09c.45 0 .75-.32.75-.32.3-.32.3-.96.3-.96 0-.6-.3-.92-.3-.92-.3-.31-.75-.31-.75-.31-.45 0-.75.31-.75.31-.3.31-.3.93-.3.93 0 .64.3.96.3.96.3.31.74.31.74.31zm4.05 3.79zm.55-3.82c0-.93.31-1.67.31-1.67.31-.75.81-1.26.81-1.26.5-.52 1.15-.8 1.15-.8.65-.28 1.34-.28 1.34-.28.82 0 1.43.28 1.43.28.61.28 1.02.77 1.02.77.41.49.61 1.16.61 1.16.2.67.2 1.45.2 1.45 0 .31-.03.56-.03.56-.03.25-.06.39-.06.39h-4.58c.15.87.68 1.27.68 1.27.53.39 1.3.39 1.3.39.82 0 1.65-.51 1.65-.51l.75 1.37c-.59.4-1.3.63-1.3.63-.72.23-1.41.23-1.41.23-.82 0-1.53-.27-1.53-.27-.71-.27-1.23-.79-1.23-.79-.52-.52-.81-1.26-.81-1.26-.29-.74-.29-1.7-.29-1.7zm0 0zm4.93-.79c0-.66-.29-1.08-.29-1.08-.29-.42-.98-.42-.98-.42-.54 0-.95.36-.95.36-.41.36-.53 1.13-.53 1.13h2.76zm2.5 4.6zm1.34-2.3c.53.4 1 .6 1 .6.48.2.97.2.97.2.51 0 .74-.17.74-.17.23-.17.23-.48.23-.48 0-.18-.13-.33-.13-.33-.13-.15-.35-.27-.35-.27-.23-.12-.5-.22-.5-.22-.28-.1-.57-.23-.57-.23-.36-.14-.71-.32-.71-.32-.36-.18-.65-.45-.65-.45-.29-.27-.48-.63-.48-.63-.18-.36-.18-.84-.18-.84 0-.52.21-.97.21-.97.21-.44.6-.75.6-.75.39-.31.93-.48.93-.48.54-.18 1.2-.18 1.2-.18.88 0 1.54.3 1.54.3.66.3 1.16.67 1.16.67l-1.04 1.39c-.42-.31-.82-.48-.82-.48-.4-.17-.8-.17-.8-.17-.86 0-.86.6-.86.6 0 .18.12.31.12.31.12.13.33.24.33.24.21.11.48.21.48.21l.56.21c.37.13.73.31.73.31.36.18.66.44.66.44.3.26.49.64.49.64.19.38.19.9.19.9 0 .52-.2.97-.2.97-.2.45-.6.78-.6.78-.4.33-.99.52-.99.52-.59.19-1.36.19-1.36.19-.75 0-1.54-.29-1.54-.29-.79-.3-1.38-.77-1.38-.77zm8.69 2.29zm5.31-9.04c-.43-.15-.79-.15-.79-.15-.42 0-.65.25-.65.25-.23.25-.23.84-.23.84v.46h1.37v1.8h-1.37v5.87h-2.26V8.22h-1.02V6.54l1.02-.076v-.42c0-.6.14-1.14.14-1.14.15-.54.49-.94.49-.94.34-.4.88-.63.88-.63.54-.23 1.31-.23 1.31-.23.48 0 .87.1.87.1.39.09.66.184.66.184zm-.06 9.04zm1-7.64h1.85l.15 1.34h.06c.42-.79 1-1.15 1-1.15.59-.37 1.17-.37 1.17-.37.33 0 .54.04.54.04.21.03.38.11.38.11l-.37 1.95c-.21-.07-.4-.1-.4-.1-.18-.03-.43-.03-.43-.03-.43 0-.9.31-.9.31-.47.31-.78 1.09-.78 1.09v4.43h-2.26v-7.6zm4.97 7.64zm.55-3.82c0-.96.31-1.7.31-1.7.31-.75.83-1.26.83-1.26.52-.51 1.2-.78 1.2-.78.68-.27 1.41-.27 1.41-.27.72 0 1.39.27 1.39.27.67.27 1.19.78 1.19.78.51.51.82 1.26.82 1.26.3.75.3 1.7.3 1.7 0 .96-.3 1.7-.3 1.7-.31.74-.83 1.25-.83 1.25-.51.51-1.18.78-1.18.78-.67.27-1.4.27-1.4.27-.72 0-1.4-.27-1.4-.27-.67-.27-1.19-.78-1.19-.78-.52-.51-.82-1.26-.82-1.26-.31-.75-.31-1.7-.31-1.7zm0 0zm2.33 0c0 1 .35 1.59.35 1.59.35.58 1.06.58 1.06.58.69 0 1.05-.59 1.05-.59.35-.59.35-1.59.35-1.59 0-1-.35-1.59-.35-1.59-.35-.59-1.04-.59-1.04-.59-.71 0-1.05.58-1.05.58-.35.59-.35 1.59-.35 1.59zm5.67 3.82zm1-7.64h1.85l.15.99h.06c.48-.48 1.02-.83 1.02-.83.54-.35 1.29-.35 1.29-.35.81 0 1.31.33 1.31.33.5.33.79.95.79.95.51-.53 1.07-.9 1.07-.9.57-.38 1.34-.38 1.34-.38 1.23 0 1.81.82 1.81.82.58.82.58 2.26.58 2.26v4.74h-2.26v-4.4c0-.84-.22-1.14-.22-1.14-.22-.31-.72-.31-.72-.31-.57 0-1.31.74-1.31.74v5.16h-2.26V9.65c0-.832-.22-1.14-.22-1.14-.22-.31-.72-.31-.72-.31-.58 0-1.29.74-1.29.74v5.16h-2.26V6.46zm12.2 7.64zm2.37-3.56c-.08-.53.04-.96.04-.96.11-.43.33-.8.33-.8.21-.37.48-.68.48-.68.27-.3.51-.59.51-.59.24-.28.41-.55.41-.55.17-.27.17-.56.17-.56 0-.47-.28-.72-.28-.72-.28-.25-.75-.25-.75-.25-.43 0-.76.2-.76.2-.33.2-.64.51-.64.51L646.04 5c.526-.63 1.234-1.016 1.234-1.016.71-.385 1.57-.385 1.57-.385.64 0 1.21.15 1.21.15.56.15.97.47.97.47.4.32.64.82.64.82.23.5.23 1.18.23 1.18 0 .47-.17.85-.17.85-.17.37-.43.7-.43.7-.257.32-.54.62-.54.62-.287.3-.52.62-.52.62-.24.32-.38.68-.38.68-.14.36-.09.82-.09.82h-1.99zm0 0zm-.37 2.32c0-.61.38-1.02.38-1.02.38-.41.97-.41.97-.41.58 0 .98.41.98.41.39.41.39 1.02.39 1.02 0 .6-.39 1.01-.39 1.01-.39.41-.98.41-.98.41-.58 0-.97-.4-.97-.4-.38-.41-.38-1.01-.38-1.01z"/><path fill="none" stroke="#D3D3D3" stroke-miterlimit="10" d="M39.816 738h954.53M39.816 562.25h954.53M39.816 386.5h954.53M39.816 210.75h954.53M39.816 35h954.53" stroke-dasharray="5 5"/><g fill="#5C3566" stroke-opacity="0" stroke-width="0" stroke-miterlimit="10" stroke-linejoin="bevel"><defs><clipPath id="a"><path d="M39.816 35v703h954.53V35z"/></clipPath></defs><g clip-path="url(#a)"><path stroke="none" d="M54.816 738V123.578H263.45V738z"/></g></g><g fill-opacity="0" stroke-miterlimit="10"><defs><clipPath id="b"><path d="M39.816 35v703h954.53V35z"/></clipPath></defs><g clip-path="url(#b)"><path fill="none" d="M54.816 738V123.578H263.45V738z"/></g></g><g fill="#5C3566" stroke-opacity="0" stroke-width="0" stroke-miterlimit="10" stroke-linejoin="bevel"><defs><clipPath id="c"><path d="M39.816 35v703h954.53V35z"/></clipPath></defs><g clip-path="url(#c)"><path stroke="none" d="M293.45 738V138.34h208.63V738z"/></g></g><g fill-opacity="0" stroke-miterlimit="10"><defs><clipPath id="d"><path d="M39.816 35v703h954.53V35z"/></clipPath></defs><g clip-path="url(#d)"><path fill="none" d="M293.45 738V138.34h208.63V738z"/></g></g><g fill="#5C3566" stroke-opacity="0" stroke-width="0" stroke-miterlimit="10" stroke-linejoin="bevel"><defs><clipPath id="e"><path d="M39.816 35v703h954.53V35z"/></clipPath></defs><g clip-path="url(#e)"><path stroke="none" d="M532.08 738V448.364h208.634V738z"/></g></g><g fill-opacity="0" stroke-miterlimit="10"><defs><clipPath id="f"><path d="M39.816 35v703h954.53V35z"/></clipPath></defs><g clip-path="url(#f)"><path fill="none" d="M532.08 738V448.364h208.634V738z"/></g></g><g fill="#5C3566" stroke-opacity="0" stroke-width="0" stroke-miterlimit="10" stroke-linejoin="bevel"><defs><clipPath id="g"><path d="M39.816 35v703h954.53V35z"/></clipPath></defs><g clip-path="url(#g)"><path stroke="none" d="M770.714 738v-25.308h208.633V738z"/></g></g><g fill-opacity="0" stroke-miterlimit="10"><defs><clipPath id="h"><path d="M39.816 35v703h954.53V35z"/></clipPath></defs><g clip-path="url(#h)"><path fill="none" d="M770.714 738v-25.308h208.633V738z"/></g></g><path fill="none" stroke-miterlimit="10" d="M39.816 738V35" stroke-linecap="square"/><path fill="none" stroke-miterlimit="10" d="M39.816 738h2m-2-70.3h2m-2-70.3h2m-2-70.3h2m-2-70.3h2m-2-70.3h2m-2-70.3h2m-2-70.3h2m-2-70.3h2m-2-70.3h2m-2-70.3h2m-2 703h5m-5-175.75h5m-5-175.75h5m-5-175.75h5m-5-175.75h5"/><path stroke="none" d="M25.52 741.445zm2.616.126c-1.02 0-1.587-.9-1.587-.9-.57-.9-.57-2.59-.57-2.59 0-1.69.56-2.57.56-2.57.56-.88 1.58-.88 1.58-.88 1.01 0 1.57.88 1.57.88.56.89.56 2.58.56 2.58 0 1.69-.57 2.6-.57 2.6-.57.91-1.57.91-1.57.91zm0 0zm0-.69c.294 0 .53-.16.53-.16.236-.16.41-.5.41-.5.173-.34.268-.87.268-.87.094-.53.094-1.26.094-1.26 0-.73-.094-1.26-.094-1.26-.095-.52-.268-.85-.268-.85-.174-.33-.41-.49-.41-.49-.236-.16-.53-.16-.53-.16-.295 0-.536.16-.536.16-.242.16-.415.49-.415.49-.173.33-.268.86-.268.86-.095.53-.095 1.26-.095 1.26 0 1.47.363 2.14.363 2.14.362.67.95.67.95.67zM14.996 565.7zm.42-.514c.755-.755 1.343-1.364 1.343-1.364.58-.61.98-1.13.98-1.13.4-.52.61-.956.61-.956.21-.435.21-.845.21-.845 0-.58-.32-.94-.32-.94-.32-.37-.96-.37-.96-.37-.42 0-.78.24-.78.24-.36.24-.65.58-.65.58l-.5-.49c.42-.46.89-.74.89-.74.47-.28 1.13-.28 1.13-.28.93 0 1.47.55 1.47.55.54.54.54 1.43.54 1.43 0 .47-.21.95-.21.95-.21.48-.57.99-.57.99-.37.51-.86 1.06-.86 1.06-.5.55-1.1 1.17-1.1 1.17l.57-.04c.29-.02.55-.02.55-.02h1.94v.75h-4.3v-.51zm4.8.516zm.682-1.356c.294.306.7.537.7.537.403.23.99.23.99.23.306 0 .574-.11.574-.11.268-.11.467-.31.467-.31.2-.2.31-.48.31-.48.11-.284.11-.63.11-.63 0-.694-.39-1.083-.39-1.083-.39-.387-1.04-.387-1.04-.387-.35 0-.6.104-.6.104-.25.105-.55.304-.55.304l-.46-.29.22-3.22h3.35v.75H22l-.178 1.99c.242-.12.483-.2.483-.2.242-.07.547-.07.547-.07.43 0 .808.13.808.13.38.13.662.38.662.38.284.26.447.65.447.65.16.4.16.94.16.94 0 .55-.19.97-.19.97-.19.42-.51.71-.51.71-.32.29-.72.44-.72.44-.41.15-.85.15-.85.15-.4 0-.73-.08-.73-.08-.33-.08-.6-.21-.6-.21-.27-.12-.48-.29-.48-.29-.22-.16-.39-.34-.39-.34zm4.538 1.356zm2.616.125c-1.02 0-1.587-.902-1.587-.902-.567-.903-.567-2.595-.567-2.595 0-1.69.567-2.573.567-2.573.568-.882 1.587-.882 1.587-.882 1.008 0 1.575.882 1.575.882.567.882.567 2.574.567 2.574 0 1.69-.567 2.59-.567 2.59-.567.91-1.575.91-1.575.91zm0 0zm0-.692c.294 0 .53-.163.53-.163.236-.162.41-.504.41-.504.173-.34.268-.87.268-.87.094-.53.094-1.266.094-1.266 0-.736-.094-1.26-.094-1.26-.095-.526-.268-.857-.268-.857-.174-.33-.41-.488-.41-.488-.236-.16-.53-.16-.53-.16-.295 0-.536.16-.536.16-.242.156-.415.487-.415.487-.17.33-.26.855-.26.855-.09.52-.09 1.26-.09 1.26 0 1.47.36 2.13.36 2.13.37.67.96.67.96.67zM14.88 389.945zm.682-1.355c.294.305.7.536.7.536.403.23.99.23.99.23.306 0 .574-.11.574-.11.268-.11.467-.31.467-.31.2-.2.315-.482.315-.482.116-.284.116-.63.116-.63 0-.694-.39-1.082-.39-1.082-.388-.39-1.04-.39-1.04-.39-.346 0-.592.106-.592.106-.247.105-.552.304-.552.304l-.462-.294.22-3.224h3.35v.745h-2.593l-.18 1.98c.243-.13.484-.2.484-.2.24-.08.54-.08.54-.08.43 0 .81.12.81.12.38.12.66.38.66.38.28.25.44.65.44.65.16.39.16.94.16.94 0 .55-.19.97-.19.97-.19.42-.51.7-.51.7-.32.29-.72.44-.72.44-.41.15-.85.15-.85.15-.4 0-.73-.08-.73-.08-.33-.08-.6-.21-.6-.21-.27-.13-.48-.29-.48-.29-.22-.17-.39-.34-.39-.34zm4.538 1.355zm2.615.126c-1.02 0-1.586-.9-1.586-.9-.57-.9-.57-2.59-.57-2.59 0-1.69.56-2.57.56-2.57.56-.88 1.58-.88 1.58-.88 1.01 0 1.57.88 1.57.88.56.89.56 2.58.56 2.58 0 1.69-.57 2.6-.57 2.6-.57.91-1.58.91-1.58.91zm0 0zm0-.69c.294 0 .53-.16.53-.16.237-.16.41-.5.41-.5.174-.34.268-.87.268-.87.095-.53.095-1.26.095-1.26 0-.73-.095-1.26-.095-1.26-.094-.52-.267-.85-.267-.85-.174-.33-.41-.49-.41-.49-.236-.16-.53-.16-.53-.16-.295 0-.536.16-.536.16-.242.16-.415.49-.415.49-.174.33-.268.86-.268.86-.095.53-.095 1.26-.095 1.26 0 1.47.363 2.14.363 2.14.362.67.95.67.95.67zm2.605.57zm2.616.13c-1.02 0-1.586-.9-1.586-.9-.567-.9-.567-2.59-.567-2.59 0-1.69.567-2.57.567-2.57.567-.88 1.586-.88 1.586-.88 1.008 0 1.576.89 1.576.89.567.89.567 2.58.567 2.58 0 1.69-.57 2.6-.57 2.6-.57.91-1.58.91-1.58.91zm0 0zm0-.69c.294 0 .53-.16.53-.16.237-.16.41-.5.41-.5.173-.34.268-.87.268-.87.095-.53.095-1.26.095-1.26 0-.73-.1-1.26-.1-1.26-.1-.52-.27-.85-.27-.85-.18-.33-.41-.48-.41-.48-.24-.16-.53-.16-.53-.16-.3 0-.54.16-.54.16-.24.16-.42.49-.42.49-.18.33-.27.86-.27.86-.1.53-.1 1.26-.1 1.26 0 1.47.36 2.14.36 2.14.36.67.95.67.95.67zM15.08 214.2zm1.858 0c.042-.947.168-1.735.168-1.735.126-.788.352-1.497.352-1.497.226-.71.578-1.37.578-1.37.352-.662.845-1.355.845-1.355h-3.34v-.74h4.32v.538c-.6.76-.97 1.45-.97 1.45-.37.69-.59 1.41-.59 1.41-.22.72-.32 1.53-.32 1.53-.1.81-.14 1.78-.14 1.78h-.89zm3.36 0zm.684-1.357c.294.31.7.54.7.54.403.23.99.23.99.23.306 0 .574-.11.574-.11.268-.11.467-.31.467-.31.2-.2.315-.48.315-.48.116-.28.116-.63.116-.63 0-.69-.39-1.08-.39-1.08-.388-.385-1.04-.385-1.04-.385-.345 0-.592.105-.592.105-.247.102-.552.3-.552.3l-.462-.292.22-3.22h3.35v.75h-2.593l-.18 1.99c.243-.12.484-.2.484-.2.24-.07.54-.07.54-.07.43 0 .81.13.81.13.38.13.66.39.66.39.28.26.44.65.44.65.16.4.16.94.16.94 0 .55-.19.97-.19.97-.19.42-.51.71-.51.71-.32.29-.72.44-.72.44-.41.15-.85.15-.85.15-.4 0-.73-.08-.73-.08-.33-.08-.6-.2-.6-.2-.27-.13-.48-.29-.48-.29-.22-.16-.39-.34-.39-.34zm4.538 1.36zm2.616.13c-1.02 0-1.587-.9-1.587-.9-.57-.903-.57-2.595-.57-2.595 0-1.69.56-2.573.56-2.573.56-.88 1.58-.88 1.58-.88 1.01 0 1.57.88 1.57.88.56.884.56 2.576.56 2.576 0 1.69-.57 2.6-.57 2.6-.57.9-1.57.9-1.57.9zm0 0zm0-.69c.294 0 .53-.163.53-.163.236-.162.41-.504.41-.504.173-.34.268-.87.268-.87.094-.53.094-1.266.094-1.266 0-.738-.094-1.26-.094-1.26-.095-.528-.268-.86-.268-.86-.174-.33-.41-.49-.41-.49-.236-.16-.53-.16-.53-.16-.295 0-.536.16-.536.16-.242.158-.415.49-.415.49-.173.33-.268.855-.268.855-.095.526-.095 1.26-.095 1.26 0 1.47.363 2.14.363 2.14.362.667.95.667.95.667zM10.226 38.45zm.83-.714h1.533V32.8h-1.22v-.557c.46-.084.8-.204.8-.204.34-.12.61-.29.61-.29h.66v5.98h1.38v.71h-3.78v-.72zm4.39.72zm2.616.125c-1.02 0-1.586-.9-1.586-.9-.567-.9-.567-2.59-.567-2.59 0-1.69.56-2.57.56-2.57.56-.88 1.58-.88 1.58-.88 1.01 0 1.57.89 1.57.89.56.89.56 2.58.56 2.58 0 1.69-.57 2.6-.57 2.6-.57.9-1.58.9-1.58.9zm0 0zm0-.69c.294 0 .53-.16.53-.16.237-.16.41-.5.41-.5.174-.34.268-.87.268-.87.095-.53.095-1.26.095-1.26 0-.73-.095-1.26-.095-1.26-.094-.52-.268-.85-.268-.85-.173-.33-.41-.48-.41-.48-.236-.16-.53-.16-.53-.16-.294 0-.536.16-.536.16-.24.16-.415.49-.415.49-.17.33-.26.86-.26.86-.09.53-.09 1.26-.09 1.26 0 1.47.36 2.14.36 2.14.37.67.96.67.96.67zm2.605.57zm2.616.13c-1.02 0-1.587-.9-1.587-.9-.567-.9-.567-2.59-.567-2.59 0-1.69.56-2.57.56-2.57.56-.88 1.58-.88 1.58-.88 1.01 0 1.57.88 1.57.88.56.88.56 2.58.56 2.58 0 1.7-.57 2.6-.57 2.6-.57.91-1.58.91-1.58.91zm0 0zm0-.69c.294 0 .53-.16.53-.16.236-.16.41-.5.41-.5.173-.34.268-.87.268-.87.1-.53.1-1.26.1-1.26 0-.73-.09-1.26-.09-1.26-.09-.52-.26-.86-.26-.86-.17-.33-.41-.48-.41-.48-.23-.16-.53-.16-.53-.16-.29 0-.53.16-.53.16-.24.16-.41.49-.41.49-.17.33-.27.86-.27.86-.09.53-.09 1.26-.09 1.26 0 1.47.36 2.14.36 2.14.36.67.95.67.95.67zm2.605.57zm2.615.13c-1.02 0-1.586-.9-1.586-.9-.567-.9-.567-2.59-.567-2.59 0-1.69.567-2.57.567-2.57.567-.88 1.586-.88 1.586-.88 1.01 0 1.576.88 1.576.88.56.88.56 2.58.56 2.58 0 1.69-.57 2.6-.57 2.6-.57.9-1.58.9-1.58.9zm0 0zm0-.69c.294 0 .53-.16.53-.16.237-.16.41-.5.41-.5.174-.34.268-.87.268-.87.1-.53.1-1.27.1-1.27 0-.73-.09-1.26-.09-1.26-.09-.52-.26-.86-.26-.86-.17-.33-.41-.48-.41-.48-.23-.16-.53-.16-.53-.16-.29 0-.53.16-.53.16-.24.16-.41.49-.41.49-.17.33-.27.86-.27.86-.09.53-.09 1.26-.09 1.26 0 1.47.37 2.14.37 2.14.36.67.95.67.95.67z"/><path fill="none" stroke-miterlimit="10" d="M39.816 738h954.53" stroke-linecap="square"/><path stroke="none" d="M129.316 758zm.967-1.502c.367.39.866.625.866.625.49.236 1.03.236 1.03.236.68 0 1.06-.31 1.06-.31.38-.31.38-.82.38-.82 0-.26-.09-.45-.09-.45-.09-.19-.24-.32-.24-.32-.15-.13-.36-.24-.36-.24-.21-.11-.46-.22-.46-.22l-.99-.43c-.24-.11-.5-.26-.5-.26-.25-.15-.45-.36-.45-.36-.2-.21-.33-.5-.33-.5-.13-.29-.13-.67-.13-.67 0-.39.16-.73.16-.73.16-.34.45-.59.45-.59.29-.25.68-.39.68-.39.39-.14.87-.14.87-.14.62 0 1.14.23 1.14.23.53.24.89.61.89.61l-.48.56c-.32-.31-.7-.48-.7-.48-.38-.17-.87-.17-.87-.17-.58 0-.93.26-.93.26-.36.27-.36.74-.36.74 0 .25.1.42.1.42.1.17.27.3.27.3.17.14.37.23.37.23.2.1.41.19.41.19l.98.42c.29.13.55.29.55.29.26.16.45.38.45.38.19.21.3.5.3.5.11.29.11.66.11.66 0 .41-.16.76-.16.76-.16.35-.47.62-.47.62-.31.26-.74.42-.74.42-.43.15-.98.15-.98.15-.72 0-1.34-.27-1.34-.27-.62-.27-1.08-.75-1.08-.75zm4.643 1.502zm1.008-4.4h-.756v-.653l.798-.052.105-1.43h.73v1.43h1.38v.704h-1.37v2.83c0 .47.18.73.18.73.18.25.62.25.62.25.14 0 .3-.04.3-.04.16-.05.28-.1.28-.1l.17.65c-.21.07-.45.13-.45.13-.25.05-.49.05-.49.05-.41 0-.69-.13-.69-.13-.28-.13-.45-.35-.45-.35-.17-.22-.25-.54-.25-.54-.07-.32-.07-.7-.07-.7v-2.82zm2.353 4.4zm.61-1.323c0-.84.75-1.287.75-1.287.75-.447 2.39-.625 2.39-.625 0-.242-.047-.473-.047-.473-.048-.23-.17-.41-.17-.41-.12-.178-.32-.29-.32-.29-.2-.11-.514-.11-.514-.11-.45 0-.835.17-.835.17-.38.167-.68.377-.68.377l-.34-.6c.36-.23.87-.45.87-.45.52-.22 1.14-.22 1.14-.22.94 0 1.36.57 1.36.57.42.57.42 1.53.42 1.53V758h-.71l-.07-.61h-.02c-.36.306-.79.52-.79.52-.42.216-.9.216-.9.216-.65 0-1.07-.378-1.07-.378-.42-.378-.42-1.07-.42-1.07zm0 0zm.85-.064c0 .442.257.63.257.63.258.19.636.19.636.19.368 0 .698-.173.698-.173.33-.174.7-.51.7-.51v-1.418c-.642.084-1.083.2-1.083.2-.44.115-.71.273-.71.273-.267.157-.382.362-.382.362-.116.205-.116.446-.116.446zm3.918 1.387zm.483-2.542c0-.64.2-1.14.2-1.14.2-.5.535-.845.535-.845.337-.347.783-.525.783-.525.447-.18.94-.18.94-.18.504 0 .867.185.867.185.362.184.625.425.625.425l-.43.557c-.232-.2-.48-.326-.48-.326-.246-.13-.55-.13-.55-.13-.347 0-.64.14-.64.14-.295.14-.505.4-.505.4-.21.26-.33.62-.33.62-.122.36-.122.8-.122.8 0 .44.12.8.12.8.12.35.32.61.32.61.21.25.5.4.5.4.3.14.64.14.64.14.37 0 .67-.15.67-.15.3-.16.53-.37.53-.37l.39.56c-.35.3-.77.48-.77.48-.42.18-.88.18-.88.18-.5 0-.94-.18-.94-.18-.44-.18-.76-.52-.76-.52-.32-.34-.5-.84-.5-.84-.18-.5-.18-1.13-.18-1.13zm4.307 2.542zm.86-7.48h.852v5.064h.032l2.17-2.69h.95l-1.72 2.05 1.95 3.056h-.95l-1.49-2.458-.96 1.113V758h-.85v-7.48zm4.234 7.48zm.61-1.323c0-.84.75-1.287.75-1.287.75-.447 2.39-.625 2.39-.625 0-.242-.05-.473-.05-.473-.05-.23-.17-.41-.17-.41-.12-.178-.32-.29-.32-.29-.2-.11-.52-.11-.52-.11-.46 0-.84.17-.84.17-.39.167-.69.377-.69.377l-.35-.6c.35-.23.87-.45.87-.45.51-.22 1.13-.22 1.13-.22.93 0 1.35.57 1.35.57.42.57.42 1.53.42 1.53V758h-.72l-.08-.61h-.02c-.37.306-.8.52-.8.52-.43.216-.9.216-.9.216-.65 0-1.08-.378-1.08-.378-.42-.378-.42-1.07-.42-1.07zm0 0zm.85-.064c0 .442.25.63.25.63.25.19.63.19.63.19.37 0 .7-.173.7-.173.33-.174.69-.51.69-.51v-1.418c-.64.084-1.08.2-1.08.2-.44.115-.71.273-.71.273-.27.157-.39.362-.39.362-.12.205-.12.446-.12.446zm3.91 1.387zm1.23.86c0 .41.39.653.39.653.39.24 1.08.24 1.08.24.36 0 .66-.088.66-.088.3-.09.51-.23.51-.23.21-.143.32-.332.32-.332.11-.19.11-.39.11-.39 0-.356-.26-.492-.26-.492-.27-.13-.77-.13-.77-.13h-.88c-.15 0-.32-.01-.32-.01-.18-.01-.35-.07-.35-.07-.27.2-.4.42-.4.42-.13.22-.13.44-.13.44zm0 0zm-.76.117c0-.326.2-.62.2-.62.2-.294.54-.535.54-.535v-.042c-.19-.116-.32-.32-.32-.32-.13-.206-.13-.51-.13-.51 0-.326.18-.568.18-.568.18-.24.37-.378.37-.378v-.042c-.25-.21-.46-.562-.46-.562-.21-.352-.21-.814-.21-.814 0-.42.15-.756.15-.756.15-.336.41-.573.41-.573.26-.236.61-.362.61-.362.35-.126.74-.126.74-.126.21 0 .39.03.39.03.18.03.33.09.33.09h1.8v.66h-1.05c.17.18.3.45.3.45.12.27.12.6.12.6 0 .41-.15.74-.15.74-.15.33-.4.55-.4.55-.25.22-.59.35-.59.35-.35.12-.73.12-.73.12-.19 0-.39-.05-.39-.05-.2-.05-.38-.13-.38-.13-.14.11-.23.25-.23.25-.1.14-.1.35-.1.35 0 .24.18.4.18.4.19.16.71.16.71.16h.98c.89 0 1.34.29 1.34.29.44.28.44.92.44.92 0 .35-.18.67-.18.67-.18.32-.52.56-.52.56-.34.24-.81.38-.81.38-.48.14-1.08.14-1.08.14-.47 0-.86-.09-.86-.09-.39-.09-.67-.27-.67-.27-.28-.18-.43-.43-.43-.43-.16-.25-.16-.59-.16-.59zm0 0zm2.11-3.172c.22 0 .41-.084.41-.084.19-.08.34-.24.34-.24.15-.16.23-.38.23-.38.08-.22.08-.51.08-.51 0-.56-.32-.87-.32-.87-.32-.31-.77-.31-.77-.31-.46 0-.77.31-.77.31-.32.31-.32.88-.32.88 0 .29.09.51.09.51.08.23.23.39.23.39.15.16.34.24.34.24.19.09.41.09.41.09zm2.57 2.195zm.48-2.542c0-.63.19-1.13.19-1.13.19-.498.51-.845.51-.845.32-.346.73-.53.73-.53.41-.184.85-.184.85-.184.48 0 .86.16.86.16.38.17.64.48.64.48.25.31.39.75.39.75.13.44.13.98.13.98 0 .28-.03.47-.03.47h-3.44c.05.83.51 1.31.51 1.31.46.48 1.19.48 1.19.48.36 0 .67-.11.67-.11.31-.11.59-.29.59-.29l.3.56c-.34.21-.75.37-.75.37-.41.16-.94.16-.94.16-.51 0-.96-.19-.96-.19-.45-.19-.78-.53-.78-.53-.33-.34-.52-.84-.52-.84-.19-.5-.19-1.13-.19-1.13zm0 0zm3.57-.39c0-.786-.33-1.2-.33-1.2-.33-.416-.93-.416-.93-.416-.27 0-.52.11-.52.11-.25.11-.45.315-.45.315-.2.205-.33.504-.33.504-.13.3-.18.69-.18.69h2.73zm1.16 2.932zm.68-4.317c0-.305.18-.49.18-.49.18-.182.45-.182.45-.182.25 0 .43.19.43.19.19.19.19.49.19.49 0 .28-.18.47-.18.47-.19.19-.44.19-.44.19-.27 0-.45-.18-.45-.18-.18-.18-.18-.46-.18-.46zm0 0zm0 3.792c0-.305.18-.49.18-.49.18-.182.45-.182.45-.182.25 0 .43.183.43.183.19.184.19.49.19.49 0 .282-.18.466-.18.466-.19.184-.44.184-.44.184-.27 0-.45-.184-.45-.184-.18-.184-.18-.467-.18-.467zm4.05.525zm1.21-1.796c0 .283.11.515.11.515.11.23.3.4.3.4.2.17.46.27.46.27.27.09.57.09.57.09.59 0 .95-.33.95-.33.36-.33.36-.85.36-.85 0-.33-.15-.56-.15-.56-.15-.23-.4-.41-.4-.41-.25-.18-.58-.32-.58-.32-.33-.15-.69-.29-.69-.29-.4.27-.67.63-.67.63-.27.36-.27.82-.27.82zm0 0zm1.89-1.86c.33-.304.52-.64.52-.64.18-.336.18-.704.18-.704 0-.504-.3-.846-.3-.846-.3-.34-.86-.34-.86-.34-.47 0-.78.293-.78.293-.3.294-.3.788-.3.788 0 .304.12.52.12.52.12.215.34.383.34.383.21.168.49.3.49.3.28.13.58.246.58.246zm0 0zm-2.67 1.944c0-.326.11-.604.11-.604.11-.28.28-.504.28-.504.17-.226.4-.4.4-.4.22-.173.46-.3.46-.3v-.04c-.37-.264-.65-.637-.65-.637-.29-.372-.29-.908-.29-.908 0-.39.14-.704.14-.704.15-.31.4-.54.4-.54.25-.22.6-.35.6-.35.34-.12.75-.12.75-.12.44 0 .79.13.79.13.34.14.59.37.59.37.24.24.38.57.38.57.13.33.13.72.13.72 0 .26-.09.51-.09.51-.09.24-.22.45-.22.45-.13.21-.3.38-.3.38-.17.17-.32.28-.32.28v.04c.22.13.43.29.43.29.21.16.37.37.37.37.16.21.26.47.26.47.1.27.1.6.1.6 0 .38-.16.71-.16.71-.16.33-.44.57-.44.57-.29.25-.69.38-.69.38-.4.14-.88.14-.88.14-.47 0-.88-.14-.88-.14-.4-.13-.69-.38-.69-.38-.29-.24-.46-.58-.46-.58-.17-.33-.17-.73-.17-.73zm4.79 1.712zm1.86 0c.04-.945.17-1.733.17-1.733.12-.788.35-1.497.35-1.497.22-.71.58-1.37.58-1.37.35-.663.84-1.356.84-1.356h-3.34v-.746H184v.536c-.597.756-.97 1.45-.97 1.45-.373.693-.594 1.412-.594 1.412-.22.72-.32 1.524-.32 1.524-.1.803-.14 1.78-.14 1.78h-.895zm3.36 0zm3.19-2.542v-1.943c0-.273.01-.646.01-.646.01-.38.04-.65.04-.65h-.05c-.13.24-.26.47-.26.47-.13.23-.28.47-.28.47l-1.56 2.29h2.1zm0 0zm1.73.693h-.92V758h-.82v-1.85h-3.01v-.566l2.87-4.286h.96v4.16h.91v.693zm180 1.85zm.94-6.89h.87V754h3.2v-2.89h.88V758h-.88v-3.246h-3.2V758h-.88v-6.89zm5.9 6.89zm.61-1.32c0-.84.75-1.28.75-1.28.75-.44 2.39-.62 2.39-.62 0-.24-.04-.47-.04-.47-.04-.23-.17-.41-.17-.41-.12-.18-.32-.29-.32-.29-.2-.11-.51-.11-.51-.11-.45 0-.83.17-.83.17-.39.17-.69.38-.69.38l-.35-.6c.36-.23.87-.45.87-.45.51-.22 1.13-.22 1.13-.22.93 0 1.35.57 1.35.57.42.57.42 1.53.42 1.53V758h-.71l-.08-.61h-.02c-.37.306-.8.52-.8.52-.42.216-.9.216-.9.216-.65 0-1.08-.378-1.08-.378-.42-.378-.42-1.07-.42-1.07zm0 0zm.85-.06c0 .44.26.63.26.63.26.19.64.19.64.19.37 0 .7-.17.7-.17.33-.17.7-.51.7-.51v-1.41c-.64.09-1.08.2-1.08.2-.44.12-.71.28-.71.28-.27.16-.39.36-.39.36-.12.21-.12.45-.12.45zm3.92 1.39zm.49-2.54c0-.64.2-1.14.2-1.14.2-.5.54-.84.54-.84.33-.34.78-.52.78-.52.45-.18.94-.18.94-.18.5 0 .87.19.87.19.36.18.62.43.62.43l-.43.56c-.23-.2-.48-.33-.48-.33-.25-.13-.55-.13-.55-.13-.35 0-.64.14-.64.14-.3.14-.51.4-.51.4-.21.26-.33.62-.33.62-.12.36-.12.8-.12.8 0 .44.11.8.11.8.11.36.32.62.32.62.2.26.5.4.5.4.29.14.64.14.64.14.37 0 .66-.15.66-.15.3-.15.53-.36.53-.36l.39.57c-.35.31-.78.49-.78.49-.43.18-.89.18-.89.18-.51 0-.95-.18-.95-.18-.44-.18-.76-.52-.76-.52-.33-.34-.51-.84-.51-.84-.19-.5-.19-1.13-.19-1.13zm4.3 2.54zm.86-7.48h.86v5.07h.03l2.17-2.69h.95l-1.72 2.05 1.95 3.06h-.94l-1.49-2.45-.96 1.12V758h-.85v-7.48zm4.24 7.48zm.61-1.32c0-.84.75-1.28.75-1.28.75-.44 2.39-.62 2.39-.62 0-.24-.05-.47-.05-.47-.05-.23-.17-.41-.17-.41-.13-.18-.33-.29-.33-.29-.2-.11-.51-.11-.51-.11-.45 0-.84.17-.84.17-.38.17-.69.38-.69.38l-.35-.6c.35-.23.87-.45.87-.45.51-.22 1.13-.22 1.13-.22.93 0 1.35.57 1.35.57.42.57.42 1.53.42 1.53V758h-.71l-.08-.61h-.02c-.37.306-.8.52-.8.52-.43.216-.9.216-.9.216-.65 0-1.08-.378-1.08-.378-.43-.378-.43-1.07-.43-1.07zm0 0zm.85-.06c0 .44.26.63.26.63.25.19.63.19.63.19.37 0 .7-.17.7-.17.33-.17.69-.51.69-.51v-1.41c-.64.08-1.08.2-1.08.2-.44.12-.71.27-.71.27-.27.16-.38.36-.38.36-.12.21-.12.45-.12.45zm3.92 1.39zm1.23.86c0 .41.39.66.39.66.39.24 1.09.24 1.09.24.36 0 .66-.08.66-.08.3-.09.51-.23.51-.23.21-.14.32-.33.32-.33.11-.19.11-.39.11-.39 0-.36-.27-.49-.27-.49-.26-.13-.77-.13-.77-.13h-.88c-.15 0-.32-.01-.32-.01-.18-.01-.34-.07-.34-.07-.28.2-.4.42-.4.42-.13.22-.13.44-.13.44zm0 0zm-.76.12c0-.32.2-.62.2-.62.2-.29.54-.53.54-.53v-.04c-.18-.11-.32-.32-.32-.32-.13-.2-.13-.51-.13-.51 0-.32.18-.57.18-.57.18-.24.38-.38.38-.38v-.04c-.25-.21-.46-.56-.46-.56-.21-.35-.21-.81-.21-.81 0-.42.15-.75.15-.75.15-.33.41-.57.41-.57.27-.23.62-.36.62-.36.35-.12.74-.12.74-.12.21 0 .39.03.39.03.18.03.33.09.33.09h1.78v.66h-1.05c.18.18.3.45.3.45.12.27.12.6.12.6 0 .41-.15.74-.15.74-.15.33-.4.55-.4.55-.25.23-.6.35-.6.35-.34.13-.73.13-.73.13-.19 0-.39-.05-.39-.05-.2-.05-.38-.13-.38-.13-.14.12-.23.26-.23.26-.09.14-.09.35-.09.35 0 .24.19.4.19.4.19.16.71.16.71.16h.99c.89 0 1.34.29 1.34.29.44.29.44.93.44.93 0 .36-.18.68-.18.68-.18.32-.52.56-.52.56-.34.24-.82.38-.82.38-.48.15-1.08.15-1.08.15-.48 0-.86-.09-.86-.09-.39-.09-.67-.27-.67-.27-.28-.18-.43-.43-.43-.43-.15-.25-.15-.59-.15-.59zm0 0zm2.11-3.17c.22 0 .41-.08.41-.08.2-.08.35-.24.35-.24.15-.16.24-.38.24-.38.08-.22.08-.51.08-.51 0-.56-.32-.87-.32-.87-.32-.31-.77-.31-.77-.31-.45 0-.77.31-.77.31-.32.31-.32.88-.32.88 0 .29.08.51.08.51.08.23.23.38.23.38.15.16.34.24.34.24.2.09.42.09.42.09zm2.56 2.2zm.48-2.54c0-.63.19-1.13.19-1.13.19-.5.51-.84.51-.84.33-.34.74-.53.74-.53.41-.18.85-.18.85-.18.49 0 .87.16.87.16.38.17.64.48.64.48.26.31.39.75.39.75.13.44.13.99.13.99 0 .29-.03.48-.03.48h-3.45c.05.83.51 1.32.51 1.32.45.48 1.19.48 1.19.48.37 0 .67-.11.67-.11.31-.11.59-.29.59-.29l.3.57c-.33.21-.74.37-.74.37-.41.16-.93.16-.93.16-.52 0-.96-.18-.96-.18-.45-.18-.78-.52-.78-.52-.33-.34-.52-.83-.52-.83-.19-.49-.19-1.12-.19-1.12zm0 0zm3.57-.39c0-.78-.33-1.2-.33-1.2-.33-.41-.93-.41-.93-.41-.28 0-.52.11-.52.11-.25.11-.45.32-.45.32-.2.2-.33.5-.33.5-.13.3-.18.69-.18.69h2.73zm1.15 2.93zm.68-4.31c0-.3.18-.49.18-.49.18-.18.44-.18.44-.18.26 0 .44.19.44.19.18.19.18.49.18.49 0 .28-.19.47-.19.47-.19.19-.44.19-.44.19-.26 0-.45-.18-.45-.18-.18-.18-.18-.47-.18-.47zm0 0zm0 3.79c0-.3.18-.49.18-.49.18-.18.44-.18.44-.18.26 0 .44.19.44.19.18.19.18.49.18.49 0 .29-.19.47-.19.47-.19.18-.44.18-.44.18-.26 0-.45-.18-.45-.18-.18-.18-.18-.46-.18-.46zm4.05.53zm1.21-1.79c0 .29.11.52.11.52.11.23.31.4.31.4.19.17.45.27.45.27.26.09.57.09.57.09.59 0 .95-.33.95-.33.36-.33.36-.85.36-.85 0-.33-.15-.56-.15-.56-.15-.23-.4-.41-.4-.41-.26-.17-.59-.31-.59-.31l-.69-.29c-.4.27-.67.64-.67.64-.27.36-.27.83-.27.83zm0 0zm1.89-1.86c.34-.3.52-.64.52-.64.19-.33.19-.7.19-.7 0-.51-.31-.85-.31-.85-.31-.34-.86-.34-.86-.34-.47 0-.78.29-.78.29-.31.3-.31.79-.31.79 0 .3.12.52.12.52.12.21.34.38.34.38.21.17.49.3.49.3.28.13.58.25.58.25zm0 0zm-2.67 1.95c0-.32.11-.6.11-.6.11-.28.28-.5.28-.5.18-.23.4-.4.4-.4.23-.17.47-.3.47-.3v-.04c-.37-.26-.65-.64-.65-.64-.28-.37-.28-.9-.28-.9 0-.39.15-.71.15-.71.15-.31.4-.54.4-.54.26-.22.6-.35.6-.35.35-.12.76-.12.76-.12.44 0 .79.13.79.13.34.14.59.37.59.37.25.24.38.57.38.57.13.33.13.72.13.72 0 .26-.09.51-.09.51-.09.24-.22.45-.22.45-.13.21-.29.38-.29.38-.16.17-.32.29-.32.29v.04c.22.13.43.29.43.29.21.16.37.37.37.37.16.21.26.47.26.47.1.27.1.6.1.6 0 .38-.16.71-.16.71-.16.33-.44.57-.44.57-.29.25-.68.38-.68.38-.4.14-.88.14-.88.14-.48 0-.88-.14-.88-.14-.41-.13-.7-.38-.7-.38-.29-.24-.46-.58-.46-.58-.17-.33-.17-.73-.17-.73zm4.79 1.72zm.68-1.35c.29.31.7.54.7.54.4.24.99.24.99.24.3 0 .57-.11.57-.11.26-.11.46-.31.46-.31.2-.2.32-.48.32-.48.12-.28.12-.63.12-.63 0-.69-.39-1.08-.39-1.08-.39-.39-1.04-.39-1.04-.39-.34 0-.59.11-.59.11-.24.1-.55.3-.55.3l-.46-.3.22-3.22h3.35v.75h-2.59l-.18 1.99c.24-.13.48-.2.48-.2.24-.07.55-.07.55-.07.43 0 .81.13.81.13.38.13.66.39.66.39.29.25.45.65.45.65.16.39.16.94.16.94 0 .54-.19.97-.19.97-.19.42-.51.71-.51.71-.32.29-.72.44-.72.44-.4.15-.85.15-.85.15-.4 0-.73-.08-.73-.08-.33-.08-.6-.2-.6-.2-.27-.12-.48-.28-.48-.28-.22-.16-.38-.34-.38-.34zm4.53 1.36zm.71-1.38c.31.31.71.56.71.56.41.24 1 .24 1 .24.61 0 1-.33 1-.33.39-.33.39-.9.39-.9 0-.29-.11-.54-.11-.54-.11-.24-.36-.42-.36-.42-.26-.18-.66-.27-.66-.27-.41-.09-1.01-.09-1.01-.09v-.67c.53 0 .89-.1.89-.1.36-.1.59-.26.59-.26.23-.17.32-.4.32-.4.1-.23.1-.5.1-.5 0-.49-.31-.78-.31-.78-.31-.29-.85-.29-.85-.29-.42 0-.77.19-.77.19-.35.19-.66.5-.66.5l-.46-.55c.39-.37.85-.6.85-.6.46-.24 1.06-.24 1.06-.24.44 0 .81.12.81.12.36.11.63.33.63.33.27.22.42.53.42.53.15.32.15.73.15.73 0 .61-.34 1-.34 1-.34.39-.88.6-.88.6v.04c.31.07.57.22.57.22.26.14.46.36.46.36.2.22.31.5.31.5.11.28.11.63.11.63 0 .44-.17.8-.17.8-.17.35-.47.6-.47.6-.3.25-.7.38-.7.38-.4.13-.86.13-.86.13-.4 0-.73-.08-.73-.08-.33-.08-.61-.21-.61-.21-.27-.13-.49-.3-.49-.3-.21-.17-.38-.36-.38-.36zm188.37 1.38zm.97-1.5c.37.39.87.63.87.63.5.24 1.04.24 1.04.24.68 0 1.06-.31 1.06-.31.38-.31.38-.82.38-.82 0-.26-.09-.45-.09-.45-.09-.19-.24-.32-.24-.32-.16-.13-.37-.24-.37-.24-.21-.11-.45-.22-.45-.22l-.99-.43c-.24-.11-.49-.26-.49-.26-.25-.15-.45-.36-.45-.36-.2-.21-.32-.5-.32-.5-.12-.29-.12-.66-.12-.66 0-.39.16-.73.16-.73.16-.34.45-.59.45-.59.29-.24.68-.38.68-.38.39-.14.87-.14.87-.14.62 0 1.14.23 1.14.23.52.24.89.62.89.62l-.47.56c-.32-.3-.7-.48-.7-.48-.39-.17-.87-.17-.87-.17-.58 0-.93.27-.93.27-.35.27-.35.74-.35.74 0 .25.1.43.1.43.1.17.27.31.27.31.17.14.37.23.37.23.2.1.41.19.41.19l.97.42c.29.13.56.29.56.29.26.16.45.38.45.38.19.22.3.5.3.5.11.29.11.66.11.66 0 .41-.17.77-.17.77-.16.36-.47.63-.47.63-.3.27-.73.42-.73.42-.43.15-.98.15-.98.15-.72 0-1.34-.27-1.34-.27-.62-.27-1.07-.75-1.07-.75zm4.64 1.5zm.48-2.54c0-.64.19-1.14.19-1.14.19-.5.52-.84.52-.84.32-.34.75-.52.75-.52.42-.18.9-.18.9-.18.47 0 .89.18.89.18.42.18.75.53.75.53.32.35.52.85.52.85.19.5.19 1.14.19 1.14 0 .63-.2 1.13-.2 1.13-.2.5-.52.84-.52.84-.33.34-.75.52-.75.52-.43.18-.9.18-.9.18-.47 0-.9-.18-.9-.18-.43-.18-.75-.52-.75-.52-.33-.34-.52-.84-.52-.84-.2-.5-.2-1.13-.2-1.13zm0 0zm.89 0c0 .44.1.8.1.8.1.36.3.62.3.62.19.26.46.4.46.4.27.15.6.15.6.15.32 0 .6-.14.6-.14.27-.14.46-.4.46-.4.19-.25.3-.61.3-.61.1-.35.1-.8.1-.8 0-.44-.1-.8-.1-.8-.1-.36-.3-.62-.3-.62-.19-.26-.46-.4-.46-.4-.27-.14-.6-.14-.6-.14-.33 0-.6.14-.6.14-.27.14-.47.4-.47.4-.19.26-.3.62-.3.62-.1.37-.1.81-.1.81zm4.32 2.54zm.78-5.1h.87v3.12c0 .73.22 1.05.22 1.05.22.32.73.32.73.32.4 0 .7-.2.7-.2.3-.2.67-.65.67-.65v-3.63h.86v5.1h-.72l-.08-.8h-.03c-.36.42-.75.67-.75.67-.4.25-.93.25-.93.25-.82 0-1.2-.5-1.2-.5-.37-.5-.37-1.49-.37-1.49v-3.24zm4.94 5.09zm.86-5.1h.71l.07.93h.03c.26-.49.63-.77.63-.77.37-.29.81-.29.81-.29.31 0 .55.1.55.1l-.17.75-.23-.07c-.11-.02-.27-.02-.27-.02-.33 0-.68.26-.68.26-.35.26-.62.91-.62.91v3.3h-.86v-5.11zm2.68 5.11zm.48-2.55c0-.64.2-1.14.2-1.14.2-.5.53-.84.53-.84.33-.34.78-.52.78-.52.44-.18.94-.18.94-.18.5 0 .86.19.86.19.36.19.62.43.62.43l-.43.56c-.23-.2-.48-.32-.48-.32-.25-.13-.55-.13-.55-.13-.35 0-.64.14-.64.14-.3.14-.51.4-.51.4-.21.26-.33.62-.33.62-.12.36-.12.8-.12.8 0 .44.12.8.12.8.11.35.32.61.32.61.2.25.5.4.5.4.29.14.64.14.64.14.36 0 .66-.15.66-.15.3-.16.53-.37.53-.37l.39.56c-.35.3-.78.48-.78.48-.43.18-.89.18-.89.18-.51 0-.95-.18-.95-.18-.44-.18-.76-.52-.76-.52-.33-.34-.51-.84-.51-.84-.18-.5-.18-1.13-.18-1.13zm4.08 2.54zm.48-2.54c0-.63.19-1.13.19-1.13.19-.5.51-.84.51-.84.32-.35.73-.53.73-.53.41-.19.85-.19.85-.19.48 0 .87.16.87.16.38.17.64.48.64.48.25.31.39.75.39.75.14.44.14.98.14.98 0 .28-.03.47-.03.47h-3.44c.05.83.51 1.31.51 1.31.46.48 1.19.48 1.19.48.37 0 .68-.11.68-.11.31-.11.6-.29.6-.29l.31.56c-.33.21-.74.37-.74.37-.41.16-.93.16-.93.16-.51 0-.96-.19-.96-.19-.44-.18-.78-.53-.78-.53-.33-.34-.52-.83-.52-.83-.19-.49-.19-1.12-.19-1.12zm0 0zm3.57-.39c0-.78-.33-1.2-.33-1.2-.33-.41-.93-.41-.93-.41-.28 0-.52.11-.52.11-.25.11-.45.32-.45.32-.2.21-.33.51-.33.51-.13.3-.18.69-.18.69h2.73zm1.16 2.92zm.68-4.31c0-.3.18-.49.18-.49.18-.18.45-.18.45-.18.25 0 .43.19.43.19.18.19.18.49.18.49 0 .28-.19.47-.19.47-.19.19-.44.19-.44.19-.26 0-.45-.18-.45-.18-.19-.18-.19-.46-.19-.46zm0 0zm0 3.79c0-.3.18-.49.18-.49.18-.18.45-.18.45-.18.25 0 .43.18.43.18.18.19.18.49.18.49 0 .28-.19.47-.19.47-.19.19-.44.19-.44.19-.26 0-.45-.18-.45-.18-.19-.18-.19-.46-.19-.46zm4.05.53zm3.19-2.54v-1.94c0-.27.01-.65.01-.65.01-.38.03-.65.03-.65h-.04c-.13.24-.26.47-.26.47l-.29.47-1.57 2.29h2.1zm0 0zm1.73.7h-.92v1.8h-.82v-1.85h-3.02v-.56l2.86-4.28h.96v4.16h.91v.69zm.29 1.85zm.83-.71h1.53v-4.93h-1.22v-.55c.46-.08.8-.2.8-.2.34-.12.61-.29.61-.29h.67v5.99h1.38v.71h-3.78v-.71zm4.39.72zm.42-.51c.75-.75 1.34-1.36 1.34-1.36.59-.61.99-1.13.99-1.13.4-.52.61-.95.61-.95.21-.43.21-.84.21-.84 0-.58-.32-.95-.32-.95-.32-.36-.96-.36-.96-.36-.42 0-.78.24-.78.24-.36.24-.65.57-.65.57l-.5-.49c.42-.46.89-.74.89-.74.47-.28 1.13-.28 1.13-.28.93 0 1.47.54 1.47.54.53.54.53 1.44.53 1.44 0 .48-.21.95-.21.95-.21.48-.57.99-.57.99-.36.51-.86 1.06-.86 1.06-.5.55-1.1 1.17-1.1 1.17l.57-.04c.29-.02.56-.02.56-.02h1.94v.74h-4.32v-.51zm197.95.52zm3.48.13c-.65 0-1.2-.25-1.2-.25-.54-.25-.93-.72-.93-.72-.39-.46-.6-1.13-.6-1.13-.22-.66-.22-1.49-.22-1.49 0-.83.21-1.49.21-1.49.21-.66.6-1.11.6-1.11.39-.46.93-.7.93-.7.54-.24 1.19-.24 1.19-.24.65 0 1.19.25 1.19.25.54.25.93.71.93.71.39.458.61 1.11.61 1.11.21.658.21 1.47.21 1.47 0 .83-.22 1.5-.22 1.5-.21.67-.61 1.14-.61 1.14-.39.47-.93.72-.93.72-.54.25-1.19.25-1.19.25zm0 0zm0-.77c.46 0 .83-.2.83-.2.37-.2.64-.57.64-.57.26-.37.41-.89.41-.89.14-.52.14-1.17.14-1.17 0-.64-.15-1.15-.15-1.15-.15-.51-.42-.87-.42-.87-.27-.36-.64-.55-.64-.55-.37-.19-.83-.19-.83-.19-.46 0-.84.19-.84.19-.37.2-.64.55-.64.55-.27.36-.41.87-.41.87-.15.51-.15 1.16-.15 1.16 0 .65.15 1.17.15 1.17.14.52.41.9.41.9.27.377.64.577.64.577.37.2.84.2.84.2zm3.48.64zm1.01-4.4h-.76V753l.8-.05.1-1.43h.72v1.43h1.38v.71h-1.37v2.84c0 .48.17.73.17.73.17.26.61.26.61.26.14 0 .3-.04.3-.04.16-.04.28-.09.28-.09l.17.65c-.21.075-.46.13-.46.13-.25.06-.49.06-.49.06-.41 0-.69-.126-.69-.126-.28-.13-.45-.35-.45-.35-.17-.22-.25-.53-.25-.53-.08-.316-.08-.695-.08-.695v-2.83zm2.54 4.4zm.86-7.48h.86v2.04l-.04 1.05c.37-.34.76-.59.76-.59.4-.24.94-.24.94-.24.81 0 1.18.5 1.18.5.37.51.37 1.5.37 1.5v3.2h-.87v-3.12c0-.72-.23-1.04-.23-1.04-.24-.32-.74-.32-.74-.32-.4 0-.7.2-.7.2-.31.2-.69.59-.69.59V758h-.87v-7.48zm4.85 7.48zm.48-2.54c0-.63.19-1.13.19-1.13.19-.5.51-.84.51-.84.32-.35.73-.53.73-.53.4-.18.85-.18.85-.18.48 0 .86.17.86.17.38.17.64.49.64.49.26.31.39.76.39.76.13.44.13.99.13.99 0 .29-.03.48-.03.48h-3.44c.05.83.51 1.318.51 1.318.46.48 1.19.48 1.19.48.37 0 .68-.11.68-.11.31-.11.59-.29.59-.29l.3.57c-.334.21-.744.37-.744.37-.41.16-.93.16-.93.16-.51 0-.96-.18-.96-.18-.44-.18-.77-.52-.77-.52-.34-.34-.52-.84-.52-.84-.19-.49-.19-1.12-.19-1.12zm0 0zm3.57-.39c0-.78-.33-1.2-.33-1.2-.33-.41-.93-.41-.93-.41-.28 0-.52.11-.52.11-.25.11-.45.32-.45.32-.2.21-.33.51-.33.51-.13.3-.18.69-.18.69h2.73zm1.15 2.93zm.86-5.1h.71l.08.93h.03c.26-.48.64-.77.64-.77.37-.28.81-.28.81-.28.3 0 .54.11.54.11l-.17.76c-.13-.04-.23-.06-.23-.06-.11-.02-.27-.02-.27-.02-.32 0-.67.26-.67.26-.36.26-.62.92-.62.92v3.2h-.86v-5.11zm2.79 5.1zm.68-4.31c0-.3.19-.49.19-.49.18-.18.44-.18.44-.18.25 0 .43.19.43.19.19.18.19.49.19.49 0 .28-.19.47-.19.47-.18.18-.43.18-.43.18-.26 0-.45-.18-.45-.18-.19-.18-.19-.464-.19-.464zm0 0zm0 3.8c0-.31.19-.49.19-.49.18-.19.44-.19.44-.19.25 0 .43.19.43.19.19.18.19.49.19.49 0 .28-.19.46-.19.46-.18.19-.43.19-.43.19-.26 0-.45-.18-.45-.18-.19-.18-.19-.46-.19-.46zm4.06.52zm.71-1.39c.3.31.71.55.71.55.4.24 1 .24 1 .24.61 0 1-.33 1-.33.39-.33.39-.9.39-.9 0-.29-.11-.54-.11-.54-.11-.25-.36-.42-.36-.42-.26-.18-.67-.27-.67-.27-.41-.09-1.01-.09-1.01-.09v-.66c.53 0 .9-.09.9-.09.36-.09.59-.26.59-.26.22-.17.32-.4.32-.4.09-.23.09-.5.09-.5 0-.49-.31-.78-.31-.78-.31-.28-.84-.28-.84-.28-.42 0-.77.19-.77.19-.35.19-.66.49-.66.49l-.47-.55c.39-.37.86-.604.86-.604.46-.24 1.06-.24 1.06-.24.44 0 .81.12.81.12.37.11.64.33.64.33.26.21.41.53.41.53.15.31.15.72.15.72 0 .61-.34.995-.34.995-.34.39-.88.6-.88.6v.04c.3.08.57.22.57.22.26.14.46.36.46.36.2.21.31.5.31.5.11.28.11.63.11.63 0 .44-.18.8-.18.8-.18.36-.48.6-.48.6-.3.25-.7.38-.7.38-.4.13-.86.13-.86.13-.4 0-.73-.08-.73-.08-.33-.08-.6-.21-.6-.21-.27-.13-.49-.3-.49-.3-.22-.17-.38-.36-.38-.36zm4.51 1.39zm2.81-.56c.25 0 .46-.11.46-.11.21-.1.37-.3.37-.3.16-.19.25-.46.25-.46.09-.27.09-.6.09-.6 0-.66-.3-1.04-.3-1.04-.3-.38-.93-.38-.93-.38-.32 0-.69.21-.69.21-.37.2-.71.68-.71.68.08.99.46 1.5.46 1.5.37.51 1.01.51 1.01.51zm0 0zm1.37-5.02c-.21-.24-.49-.39-.49-.39-.29-.14-.61-.14-.61-.14-.35 0-.66.15-.66.15-.32.15-.56.48-.56.48-.24.34-.39.88-.39.88-.15.54-.16 1.34-.16 1.34.32-.39.74-.613.74-.613.42-.23.83-.23.83-.23.87 0 1.39.52 1.39.52.52.52.52 1.56.52 1.56 0 .487-.16.88-.16.88-.158.39-.43.678-.43.678-.27.286-.63.44-.63.44-.36.16-.768.16-.768.16-.5 0-.92-.2-.92-.2-.42-.2-.73-.604-.73-.604-.31-.4-.49-1.01-.49-1.01-.18-.6-.18-1.41-.18-1.41 0-1.01.21-1.72.21-1.72.21-.71.57-1.15.57-1.15.36-.45.82-.65.82-.65.453-.21.96-.21.96-.21.543 0 .94.21.94.21.39.21.68.51.68.51z"/></svg>