<svg xmlns="http://www.w3.org/2000/svg" stroke="#000" viewBox="0 0 1024 768" font-size="1"><path fill="#FFF" stroke="none" d="M0 0v768h1024V0z"/><path stroke="none" d="M351.597 14.102zm1.186-10.04h2.264V14.1h-2.264V4.062zm6.653 10.04zm5.313-9.04c-.44-.154-.79-.154-.79-.154-.42 0-.65.254-.65.254-.23.254-.23.84-.23.84v.46h1.37v1.772h-1.37v5.868h-2.27V8.234h-1.01v-1.68l1.01-.076v-.415c0-.6.15-1.14.15-1.14.14-.54.48-.94.48-.94.34-.4.88-.63.88-.63.54-.232 1.31-.232 1.31-.232.48 0 .87.1.87.1.39.09.65.19.65.19zm-.07 9.04zm2.12-8.762c-.57 0-.94-.34-.94-.34-.37-.33-.37-.858-.37-.858 0-.524.37-.847.37-.847.37-.323.94-.323.94-.323.58 0 .94.325.94.325.36.322.36.846.36.846 0 .524-.36.855-.36.855-.37.33-.95.33-.95.33zm0 0zm-1.13 1.12h2.26v7.64h-2.27V6.46zm3.25 7.64zm1-7.64h1.85l.15.97h.06c.49-.46 1.08-.81 1.08-.81.58-.35 1.37-.35 1.37-.35 1.25 0 1.81.813 1.81.813.56.817.56 2.264.56 2.264v4.75h-2.27V9.65c0-.832-.23-1.14-.23-1.14-.23-.31-.72-.31-.72-.31-.44 0-.74.195-.74.195-.31.192-.68.547-.68.547v5.16h-2.26v-7.64zm7.81 7.64zm.6-3.82c0-.94.27-1.68.27-1.68.27-.74.7-1.26.7-1.26.44-.52 1.01-.797 1.01-.797.58-.277 1.18-.277 1.18-.277.64 0 1.06.216 1.06.216.41.216.82.585.82.585l-.09-1.17V3.3h2.26v10.8h-1.84l-.16-.754h-.06c-.4.4-.94.67-.94.67-.54.27-1.1.27-1.1.27-.71 0-1.29-.278-1.29-.278-.58-.278-.99-.794-.99-.794-.41-.516-.63-1.255-.63-1.255-.22-.74-.22-1.68-.22-1.68zm0 0zm2.32-.03c0 1.14.36 1.66.36 1.66.36.52 1.02.52 1.02.52.37 0 .67-.157.67-.157.3-.154.57-.54.57-.54V8.62c-.31-.278-.63-.386-.63-.386-.32-.108-.63-.108-.63-.108-.54 0-.96.516-.96.516-.42.516-.42 1.61-.42 1.61zm9.1 3.85zm1.31-5.87h-1.05V6.55l1.17-.092.26-2.032h1.88V6.46h1.83v1.77h-1.83v3.07c0 .646.27.93.27.93.27.285.71.285.71.285.18 0 .38-.046.38-.046.19-.05.34-.11.34-.11l.35 1.65c-.31.09-.73.18-.73.18-.42.09-.97.09-.97.09-.71 0-1.21-.22-1.21-.22-.5-.22-.82-.6-.82-.6-.32-.39-.46-.94-.46-.94-.15-.55-.15-1.21-.15-1.21V8.23zm4.59 5.87zm1-10.8h2.26v2.65l-.11 1.37c.43-.39 1-.72 1-.72.57-.33 1.35-.33 1.35-.33 1.25 0 1.81.813 1.81.813.56.817.56 2.264.56 2.264v4.75h-2.27V9.65c0-.833-.22-1.14-.22-1.14-.22-.31-.72-.31-.72-.31-.43 0-.74.194-.74.194-.31.192-.68.547-.68.547v5.16h-2.27V3.31zm7.79 10.79zm.72-2.125c0-1.2 1.01-1.88 1.01-1.88 1.01-.676 3.28-.907 3.28-.907-.03-.51-.31-.81-.31-.81-.28-.3-.9-.3-.9-.3-.5 0-.99.185-.99.185-.5.183-1.05.506-1.05.506l-.8-1.49c.74-.45 1.54-.73 1.54-.73.81-.28 1.72-.28 1.72-.28 1.48 0 2.25.84 2.25.84.78.84.78 2.61.78 2.61v4.38h-1.84l-.17-.79h-.05c-.5.43-1.04.7-1.04.7-.55.27-1.2.27-1.2.27-.52 0-.94-.18-.94-.18-.41-.18-.7-.5-.7-.5-.29-.32-.46-.73-.46-.73-.16-.41-.16-.9-.16-.9zm0 0zm2.15-.17c0 .37.24.55.24.55.23.175.63.175.63.175.4 0 .68-.17.68-.17.27-.17.58-.476.58-.476v-1.34c-1.22.17-1.68.49-1.68.49-.46.324-.46.77-.46.77zm5.34 2.296zm1.31-5.86h-1.05V6.55l1.17-.09.26-2.034h1.88V6.46h1.83v1.77h-1.84v3.07c0 .646.27.93.27.93.27.285.72.285.72.285.18 0 .37-.046.37-.046.19-.05.35-.11.35-.11l.35 1.65c-.31.09-.73.18-.73.18-.41.09-.97.09-.97.09-.71 0-1.21-.22-1.21-.22-.5-.22-.81-.6-.81-.6-.32-.39-.46-.94-.46-.94-.15-.54-.15-1.21-.15-1.21V8.23zm7.79 5.87zm1.18-10.04h2.26v3.87h3.46V4.06h2.28v10.042h-2.28v-4.19h-3.46v4.19h-2.27V4.062zm9.19 10.04zm.72-2.12c0-1.2 1.01-1.88 1.01-1.88 1.01-.67 3.28-.9 3.28-.9-.03-.51-.31-.81-.31-.81-.28-.3-.9-.3-.9-.3-.49 0-.98.19-.98.19-.5.19-1.05.51-1.05.51l-.8-1.49c.74-.45 1.55-.72 1.55-.72.81-.27 1.71-.27 1.71-.27 1.48 0 2.25.84 2.25.84.77.84.77 2.61.77 2.61v4.37h-1.84l-.17-.78h-.05c-.49.44-1.04.7-1.04.7-.55.27-1.19.27-1.19.27-.53 0-.94-.17-.94-.17-.42-.18-.71-.49-.71-.49-.29-.31-.45-.73-.45-.73-.17-.41-.17-.91-.17-.91zm0 0zm2.15-.17c0 .37.23.55.23.55.24.18.64.18.64.18.4 0 .68-.17.68-.17.28-.16.58-.47.58-.47v-1.34c-1.22.17-1.68.5-1.68.5-.46.33-.46.77-.46.77zm5.34 2.3zm1.34-2.29c.52.4 1 .6 1 .6.48.2.97.2.97.2.51 0 .74-.17.74-.17.23-.17.23-.48.23-.48 0-.18-.13-.33-.13-.33-.13-.14-.36-.27-.36-.27-.23-.12-.5-.22-.5-.22-.28-.1-.57-.22-.57-.22-.36-.14-.71-.32-.71-.32-.36-.18-.65-.45-.65-.45-.29-.27-.48-.63-.48-.63-.19-.36-.19-.84-.19-.84 0-.52.21-.97.21-.97.21-.45.59-.75.59-.75.38-.3.92-.48.92-.48.54-.18 1.2-.18 1.2-.18.88 0 1.54.3 1.54.3.66.3 1.16.67 1.16.67l-1.01 1.36c-.42-.31-.82-.48-.82-.48-.4-.17-.8-.17-.8-.17-.87 0-.87.61-.87.61 0 .19.12.32.12.32.12.13.33.24.33.24.21.11.47.21.47.21l.56.21c.37.14.73.32.73.32.36.18.66.44.66.44.3.26.48.64.48.64.18.38.18.9.18.9 0 .53-.2.97-.2.97-.2.45-.6.78-.6.78-.4.33-.99.53-.99.53-.59.19-1.36.19-1.36.19-.76 0-1.55-.29-1.55-.29-.8-.3-1.38-.77-1.38-.77zm5.48 2.29zm1-10.79h2.2V9.5h.06l2.42-3.03h2.46l-2.68 3.143 2.88 4.497h-2.45l-1.72-2.976-.97 1.093v1.88h-2.2v-10.8zm7 10.8zm.56-3.82c0-.92.31-1.67.31-1.67.31-.75.81-1.26.81-1.26.5-.52 1.15-.8 1.15-.8.64-.27 1.34-.27 1.34-.27.81 0 1.42.28 1.42.28.61.28 1.02.77 1.02.77.4.49.61 1.16.61 1.16.2.67.2 1.46.2 1.46 0 .31-.04.56-.04.56-.03.25-.06.39-.06.39h-4.57c.15.88.68 1.27.68 1.27.53.39 1.3.39 1.3.39.81 0 1.65-.5 1.65-.5l.75 1.37c-.59.4-1.3.63-1.3.63-.72.23-1.41.23-1.41.23-.82 0-1.53-.27-1.53-.27-.7-.27-1.23-.78-1.23-.78-.52-.51-.81-1.25-.81-1.25-.29-.74-.29-1.69-.29-1.69zm0 0zm4.93-.78c0-.66-.29-1.08-.29-1.08-.29-.41-.99-.41-.99-.41-.54 0-.95.36-.95.36-.41.36-.54 1.13-.54 1.13h2.76zm2.5 4.61zm1-10.79h2.26v8.52c0 .36.13.5.13.5.13.14.27.14.27.14h.13l.15-.03.27 1.68c-.19.08-.47.13-.47.13-.29.06-.67.06-.67.06-.59 0-.99-.18-.99-.18-.4-.18-.64-.51-.64-.51-.24-.33-.35-.8-.35-.8-.11-.47-.11-1.05-.11-1.05V3.31zm3.4 10.8zm1-10.79h2.26v8.52c0 .36.13.5.13.5.13.14.27.14.27.14h.13l.15-.03.27 1.68c-.18.08-.47.13-.47.13-.28.06-.67.06-.67.06-.58 0-.98-.18-.98-.18-.4-.18-.64-.51-.64-.51-.24-.33-.35-.8-.35-.8-.11-.47-.11-1.05-.11-1.05V3.3zm6.63 10.78zm1-10.79h2.26v8.52c0 .36.13.5.13.5.13.14.27.14.27.14h.13l.14-.03.28 1.68c-.19.08-.47.13-.47.13-.29.05-.67.05-.67.05-.59 0-.99-.19-.99-.19-.4-.19-.64-.52-.64-.52-.24-.33-.35-.8-.35-.8-.11-.47-.11-1.06-.11-1.06V3.31zm3.4 10.8zm2.12-8.76c-.57 0-.94-.33-.94-.33-.37-.33-.37-.85-.37-.85 0-.52.37-.84.37-.84.37-.32.94-.32.94-.32.59 0 .95.33.95.33.36.32.36.85.36.85 0 .53-.37.86-.37.86-.37.33-.95.33-.95.33zm0 0zm-1.12 1.12h2.26v7.64h-2.27V6.46zm3.25 7.64zm1-10.79h2.26V6l-.06 1.17c.44-.4.96-.626.96-.626.51-.22 1.05-.22 1.05-.22.69 0 1.25.28 1.25.28.55.28.94.78.94.78.39.5.6 1.22.6 1.22.21.72.21 1.6.21 1.6 0 .988-.27 1.758-.27 1.758-.27.77-.73 1.3-.73 1.3-.46.53-1.03.81-1.03.81-.58.28-1.19.28-1.19.28-.51 0-1.03-.25-1.03-.25-.52-.25-.97-.74-.97-.74h-.06l-.19.8h-1.77V3.31zm0 0zm2.26 8.64c.31.28.61.39.61.39.3.11.6.11.6.11.58 0 1-.53 1-.53.41-.54.41-1.72.41-1.72 0-2.07-1.33-2.07-1.33-2.07-.68 0-1.31.7-1.31.7v3.12zm5.56 2.16zm1-7.64h1.85l.15 1.34h.06c.42-.78 1-1.15 1-1.15.59-.37 1.17-.37 1.17-.37.32 0 .53.04.53.04.21.04.38.12.38.12l-.37 1.96c-.22-.06-.4-.09-.4-.09-.19-.03-.43-.03-.43-.03-.43 0-.9.31-.9.31-.47.31-.78 1.09-.78 1.09v4.43h-2.25v-7.7zm4.68 7.64zm.72-2.12c0-1.2 1.01-1.88 1.01-1.88 1.01-.67 3.28-.9 3.28-.9-.03-.51-.31-.81-.31-.81-.28-.3-.89-.3-.89-.3-.5 0-.99.19-.99.19-.5.19-1.05.51-1.05.51l-.8-1.49c.74-.45 1.54-.73 1.54-.73.81-.27 1.72-.27 1.72-.27 1.48 0 2.26.84 2.26.84.78.84.78 2.61.78 2.61v4.37h-1.85l-.17-.78h-.05c-.49.44-1.04.7-1.04.7-.55.27-1.19.27-1.19.27-.53 0-.94-.17-.94-.17-.42-.18-.71-.49-.71-.49-.3-.31-.46-.73-.46-.73-.17-.41-.17-.9-.17-.9zm0 0zm2.15-.17c0 .37.24.55.24.55.24.18.64.18.64.18.4 0 .67-.17.67-.17.28-.17.59-.48.59-.48V10.6c-1.22.17-1.68.495-1.68.495-.46.32-.46.77-.46.77zm5.34 2.3zm1-7.64h1.85l.15 1.34h.06c.41-.78 1-1.15 1-1.15.58-.37 1.17-.37 1.17-.37.32 0 .53.04.53.04.21.04.38.11.38.11l-.37 1.96c-.22-.06-.4-.09-.4-.09-.19-.03-.43-.03-.43-.03-.44 0-.9.31-.9.31-.47.31-.78 1.09-.78 1.09v4.43h-2.26v-7.7zm5.13 7.64zm2.12-8.76c-.57 0-.94-.33-.94-.33-.37-.33-.37-.85-.37-.85 0-.52.37-.85.37-.85.37-.33.94-.33.94-.33.58 0 .95.33.95.33.36.33.36.85.36.85 0 .53-.36.86-.36.86-.36.33-.95.33-.95.33zm0 0zm-1.12 1.13h2.3v7.64h-2.26v-7.7zm3.25 7.64zm.55-3.82c0-.93.31-1.67.31-1.67.31-.75.81-1.26.81-1.26.5-.52 1.14-.8 1.14-.8.65-.28 1.34-.28 1.34-.28.82 0 1.43.28 1.43.28.61.27 1.02.77 1.02.77.41.49.61 1.16.61 1.16.2.67.2 1.45.2 1.45 0 .31-.03.57-.03.57-.04.26-.07.39-.07.39h-4.57c.15.88.68 1.27.68 1.27.53.4 1.3.4 1.3.4.81 0 1.64-.5 1.64-.5l.75 1.37c-.59.4-1.3.63-1.3.63-.72.23-1.41.23-1.41.23-.82 0-1.53-.27-1.53-.27-.7-.27-1.23-.78-1.23-.78-.52-.51-.81-1.25-.81-1.25-.3-.74-.3-1.69-.3-1.69zm0 0zm4.93-.79c0-.67-.29-1.08-.29-1.08-.29-.42-.98-.42-.98-.42-.54 0-.95.36-.95.36-.41.36-.53 1.13-.53 1.13h2.76zm2.49 4.6zm1.34-2.29c.53.4 1 .6 1 .6.48.2.97.2.97.2.51 0 .74-.17.74-.17.23-.17.23-.48.23-.48 0-.18-.13-.33-.13-.33-.13-.14-.35-.27-.35-.27-.22-.12-.5-.22-.5-.22-.28-.1-.57-.23-.57-.23-.35-.14-.71-.33-.71-.33-.35-.18-.65-.45-.65-.45-.29-.27-.48-.63-.48-.63-.19-.36-.19-.84-.19-.84 0-.52.21-.97.21-.97.21-.44.59-.75.59-.75.38-.31.92-.48.92-.48.54-.17 1.2-.17 1.2-.17.88 0 1.54.3 1.54.3.66.3 1.15.67 1.15.67l-1 1.36c-.42-.3-.82-.47-.82-.47-.4-.17-.8-.17-.8-.17-.87 0-.87.6-.87.6 0 .18.13.31.13.31.12.13.33.24.33.24.21.11.48.21.48.21l.56.21c.37.14.73.32.73.32.36.18.66.44.66.44.3.26.49.64.49.64.19.38.19.9.19.9 0 .53-.2.97-.2.97-.2.45-.6.78-.6.78-.4.33-.99.52-.99.52-.59.19-1.36.19-1.36.19-.75 0-1.55-.29-1.55-.29-.79-.29-1.38-.77-1.38-.77zm8.69 2.29zm3.27.6V17h-2.26V6.46h1.85l.16.753h.06c.44-.4 1.01-.67 1.01-.67.56-.27 1.16-.27 1.16-.27.69 0 1.24.277 1.24.277.55.278.94.786.94.786.38.51.59 1.23.59 1.23.21.72.21 1.6.21 1.6 0 .99-.27 1.75-.27 1.75-.27.77-.72 1.3-.72 1.3-.45.54-1.03.81-1.03.81-.58.28-1.19.28-1.19.28-.49 0-.95-.21-.95-.21-.47-.21-.87-.59-.87-.59zm0 0zm0-2.75c.31.28.62.39.62.39.31.11.6.11.6.11.59 0 1-.53 1-.53.42-.53.42-1.72.42-1.72 0-2.06-1.32-2.06-1.32-2.06-.67 0-1.31.69-1.31.69V12zm5.56 2.16zm1-7.64h1.85l.16 1.34h.06c.42-.78 1-1.15 1-1.15.58-.37 1.17-.37 1.17-.37.32 0 .53.04.53.04.2.04.37.11.37.11l-.37 1.96c-.21-.06-.4-.09-.4-.09-.18-.03-.43-.03-.43-.03-.43 0-.9.31-.9.31-.47.31-.78 1.09-.78 1.09v4.43h-2.26v-7.7zm4.98 7.64zm.55-3.82c0-.95.3-1.7.3-1.7.31-.74.83-1.25.83-1.25.52-.5 1.19-.77 1.19-.77.68-.27 1.4-.27 1.4-.27.72 0 1.39.27 1.39.27.67.27 1.19.78 1.19.78.51.51.82 1.26.82 1.26.3.75.3 1.7.3 1.7 0 .96-.31 1.7-.31 1.7-.31.75-.82 1.26-.82 1.26-.52.51-1.19.78-1.19.78-.67.27-1.4.27-1.4.27-.73 0-1.4-.27-1.4-.27-.68-.27-1.2-.78-1.2-.78-.52-.51-.83-1.26-.83-1.26-.31-.75-.31-1.7-.31-1.7zm0 0zm2.32 0c0 1 .34 1.59.34 1.59.35.59 1.05.59 1.05.59.69 0 1.04-.58 1.04-.58.36-.59.36-1.59.36-1.59 0-1-.36-1.59-.36-1.59-.36-.58-1.05-.58-1.05-.58-.71 0-1.06.59-1.06.59-.35.59-.35 1.59-.35 1.59zm5.54 3.82zm.18-7.64h2.28l.98 3.61c.16.57.3 1.16.3 1.16l.3 1.19h.06c.14-.6.29-1.19.29-1.19.15-.59.3-1.16.3-1.16l1-3.6H566l-2.5 7.64h-2.62zm7.87 7.64zm2.12-8.76c-.57 0-.94-.33-.94-.33-.37-.33-.37-.85-.37-.85 0-.52.37-.84.37-.84.37-.32.94-.32.94-.32.59 0 .95.32.95.32.36.33.36.85.36.85 0 .52-.37.85-.37.85-.36.33-.95.33-.95.33zm0 0zm-1.1 1.1h2.27v7.64h-2.27V6.46zm3.25 7.64zm.6-3.82c0-.94.27-1.68.27-1.68.27-.73.71-1.25.71-1.25.44-.52 1.02-.79 1.02-.79.58-.27 1.18-.27 1.18-.27.65 0 1.06.22 1.06.22.41.22.81.59.81.59l-.09-1.17v-2.6h2.26V14.1h-1.85l-.16-.754h-.06c-.41.4-.94.67-.94.67-.54.27-1.1.27-1.1.27-.71 0-1.29-.278-1.29-.278-.58-.278-.98-.794-.98-.794-.41-.516-.63-1.255-.63-1.255-.23-.74-.23-1.68-.23-1.68zm0 0zm2.33-.03c0 1.14.36 1.67.36 1.67.36.53 1.02.53 1.02.53.37 0 .67-.15.67-.15.3-.16.58-.54.58-.54V8.62c-.31-.278-.63-.386-.63-.386-.33-.108-.63-.108-.63-.108-.54 0-.96.516-.96.516-.41.516-.41 1.61-.41 1.61zm5.9 3.85zm.55-3.82c0-.92.31-1.67.31-1.67.31-.74.81-1.26.81-1.26.5-.51 1.14-.79 1.14-.79.65-.28 1.34-.28 1.34-.28.82 0 1.43.28 1.43.28.61.28 1.02.77 1.02.77.41.49.61 1.16.61 1.16.2.67.2 1.46.2 1.46 0 .31-.03.57-.03.57-.03.26-.06.39-.06.39h-4.57c.16.88.69 1.27.69 1.27.53.4 1.3.4 1.3.4.81 0 1.65-.51 1.65-.51l.75 1.37c-.59.4-1.3.63-1.3.63-.72.23-1.41.23-1.41.23-.82 0-1.53-.27-1.53-.27-.71-.27-1.23-.78-1.23-.78-.52-.52-.82-1.26-.82-1.26-.29-.74-.29-1.7-.29-1.7zm0 0zm4.93-.78c0-.66-.29-1.08-.29-1.08-.3-.42-.99-.42-.99-.42-.54 0-.95.36-.95.36-.41.37-.53 1.14-.53 1.14h2.76zm5.7 4.61zm.73-2.14c0-1.2 1.02-1.88 1.02-1.88 1.01-.67 3.28-.9 3.28-.9-.03-.51-.31-.81-.31-.81-.28-.3-.9-.3-.9-.3-.49 0-.99.19-.99.19-.49.19-1.05.51-1.05.51l-.8-1.49c.74-.44 1.55-.72 1.55-.72.81-.27 1.72-.27 1.72-.27 1.48 0 2.26.84 2.26.84.78.84.78 2.61.78 2.61v4.38h-1.85l-.17-.79h-.04c-.49.43-1.04.7-1.04.7-.54.27-1.19.27-1.19.27-.52 0-.94-.17-.94-.17-.41-.18-.7-.5-.7-.5-.29-.31-.45-.73-.45-.73-.16-.42-.16-.91-.16-.91zm0 0zm2.16-.17c0 .37.23.55.23.55.24.18.64.18.64.18.4 0 .67-.17.67-.17.28-.17.59-.48.59-.48v-1.34c-1.22.17-1.68.5-1.68.5-.46.32-.46.77-.46.77zm8.54 2.3zm1.34-2.3c.52.4 1 .6 1 .6.47.2.97.2.97.2.51 0 .74-.17.74-.17.23-.17.23-.47.23-.47 0-.18-.13-.33-.13-.33-.13-.14-.36-.27-.36-.27-.22-.12-.5-.22-.5-.22-.27-.1-.57-.22-.57-.22-.35-.14-.71-.32-.71-.32-.35-.18-.64-.45-.64-.45-.29-.27-.48-.63-.48-.63-.18-.36-.18-.84-.18-.84 0-.52.21-.97.21-.97.21-.44.59-.75.59-.75.39-.31.93-.48.93-.48.54-.18 1.2-.18 1.2-.18.88 0 1.54.3 1.54.3.67.3 1.16.67 1.16.67l-1.01 1.36c-.42-.31-.82-.48-.82-.48-.4-.17-.8-.17-.8-.17-.86 0-.86.6-.86.6 0 .19.12.32.12.32.12.13.33.24.33.24.21.1.48.2.48.2l.56.21c.37.14.73.32.73.32.36.18.66.44.66.44.3.27.48.64.48.64.18.38.18.9.18.9 0 .53-.2.97-.2.97-.2.45-.6.78-.6.78-.4.33-.99.53-.99.53-.59.19-1.36.19-1.36.19-.75 0-1.55-.29-1.55-.29-.79-.29-1.38-.77-1.38-.77zm5.48 2.3zm1.31-5.87H609v-1.7l1.17-.09.263-2.03h1.88v2.03h1.83v1.77h-1.832v3.07c0 .65.27.93.27.93.27.29.72.29.72.29.19 0 .38-.04.38-.04.19-.05.35-.11.35-.11l.36 1.65c-.3.09-.72.18-.72.18-.41.09-.97.09-.97.09-.7 0-1.21-.22-1.21-.22-.5-.22-.81-.6-.81-.6-.31-.39-.46-.94-.46-.94-.15-.55-.15-1.21-.15-1.21v-3.1zm4.4 5.87zm.72-2.13c0-1.2 1.01-1.88 1.01-1.88 1.02-.68 3.28-.91 3.28-.91-.03-.51-.31-.81-.31-.81-.28-.3-.89-.3-.89-.3-.49 0-.99.19-.99.19-.49.19-1.05.51-1.05.51l-.8-1.5c.74-.44 1.55-.72 1.55-.72.81-.27 1.72-.27 1.72-.27 1.48 0 2.26.84 2.26.84.78.84.78 2.61.78 2.61v4.37h-1.84l-.17-.78h-.05c-.49.43-1.04.7-1.04.7-.54.27-1.19.27-1.19.27-.52 0-.94-.18-.94-.18-.41-.18-.71-.49-.71-.49-.29-.32-.45-.73-.45-.73-.16-.42-.16-.91-.16-.91zm0 0zm2.15-.17c0 .37.24.55.24.55.24.18.64.18.64.18.4 0 .68-.17.68-.17.28-.17.58-.48.58-.48v-1.34c-1.22.17-1.68.49-1.68.49-.46.33-.46.77-.46.77zm5.34 2.29zm1-10.79h2.26V6l-.06 1.17c.45-.4.96-.63.96-.63.52-.22 1.06-.22 1.06-.22.7 0 1.25.28 1.25.28.56.28.95.78.95.78.39.5.6 1.22.6 1.22.21.716.21 1.594.21 1.594 0 .99-.27 1.76-.27 1.76-.27.77-.72 1.3-.72 1.3-.46.53-1.03.81-1.03.81-.58.27-1.2.27-1.2.27-.5 0-1.02-.24-1.02-.24-.52-.25-.96-.74-.96-.74h-.06l-.18.8h-1.77V3.31zm0 0zm2.26 8.64c.31.28.62.38.62.38.3.11.6.11.6.11.58 0 1-.53 1-.53.41-.53.41-1.72.41-1.72 0-2.06-1.32-2.06-1.32-2.06-.68 0-1.31.69-1.31.69v3.13zm5.56 2.15zm1-10.79h2.26v8.52c0 .36.13.5.13.5.14.14.27.14.27.14h.13l.15-.04.28 1.68c-.18.08-.47.13-.47.13-.28.05-.67.05-.67.05-.58 0-.98-.18-.98-.18-.4-.19-.64-.52-.64-.52-.24-.33-.35-.8-.35-.8-.11-.47-.11-1.06-.11-1.06V3.3zm3.4 10.81zm.55-3.82c0-.92.31-1.67.31-1.67.31-.75.81-1.26.81-1.26.5-.51 1.15-.79 1.15-.79.65-.27 1.34-.27 1.34-.27.82 0 1.43.28 1.43.28.61.28 1.02.77 1.02.77.41.49.61 1.16.61 1.16.2.67.2 1.46.2 1.46 0 .31-.03.56-.03.56-.03.25-.06.39-.06.39h-4.57c.15.88.68 1.27.68 1.27.53.4 1.3.4 1.3.4.82 0 1.65-.51 1.65-.51l.75 1.37c-.59.4-1.3.63-1.3.63-.72.23-1.41.23-1.41.23-.82 0-1.53-.27-1.53-.27-.71-.27-1.23-.79-1.23-.79-.52-.51-.82-1.25-.82-1.25-.29-.74-.29-1.69-.29-1.69zm0 0zm4.93-.78c0-.66-.29-1.07-.29-1.07-.29-.42-.98-.42-.98-.42-.54 0-.95.36-.95.36-.41.37-.53 1.14-.53 1.14h2.76zm5.7 4.61zm5.44-4.16l-.23-.92c-.22-.75-.42-1.6-.42-1.6-.2-.85-.4-1.63-.4-1.63h-.06l-.36 1.6c-.19.84-.4 1.6-.4 1.6l-.24.93h2.14zm0 0zm.46 1.78h-3.06l-.62 2.39H647l3.14-10.04h2.726l3.142 10.04h-2.404zm2.93 2.39zm1.19-10.04h3.67c.82 0 1.53.16 1.53.16.72.16 1.25.54 1.25.54.53.37.84 1 .84 1 .31.62.31 1.53.31 1.53 0 .88-.31 1.52-.31 1.52-.32.65-.85 1.07-.85 1.07-.54.42-1.25.62-1.25.62-.71.2-1.51.2-1.51.2h-1.4v3.41h-2.26V4.06zm0 0zm3.53 4.83c1.85 0 1.85-1.6 1.85-1.6 0-.79-.47-1.11-.47-1.11-.47-.32-1.38-.32-1.38-.32h-1.26v3h1.27zm4.62 5.21zm1.2-10.07h2.27v10h-2.26V4.07zm3.45 10.04zm.94-1.23c0-.61.4-1.02.4-1.02.39-.41.97-.41.97-.41.58 0 .98.41.98.41.39.41.39 1.02.39 1.02 0 .6-.4 1.01-.4 1.01-.4.41-.98.41-.98.41-.59 0-.98-.4-.98-.4-.39-.41-.39-1.01-.39-1.01z"/><path fill="none" stroke="#D3D3D3" stroke-miterlimit="10" d="M55.43 738h919.552M55.43 503.667h919.552M55.43 269.333h919.552M55.43 35h919.552" stroke-dasharray="5 5"/><g fill="#5C3566" stroke-opacity="0" stroke-width="0" stroke-miterlimit="10" stroke-linejoin="bevel"><defs><clipPath id="a"><path d="M55.43 35v703h919.552V35z"/></clipPath></defs><g clip-path="url(#a)"><path stroke="none" d="M70.43 738v-23.433h153.91V738z"/></g></g><g fill-opacity="0" stroke-miterlimit="10"><defs><clipPath id="b"><path d="M55.43 35v703h919.552V35z"/></clipPath></defs><g clip-path="url(#b)"><path fill="none" d="M70.43 738v-23.433h153.91V738z"/></g></g><g fill="#5C3566" stroke-opacity="0" stroke-width="0" stroke-miterlimit="10" stroke-linejoin="bevel"><defs><clipPath id="c"><path d="M55.43 35v703h919.552V35z"/></clipPath></defs><g clip-path="url(#c)"><path stroke="none" d="M254.34 738V637.237h153.91V738z"/></g></g><g fill-opacity="0" stroke-miterlimit="10"><defs><clipPath id="d"><path d="M55.43 35v703h919.552V35z"/></clipPath></defs><g clip-path="url(#d)"><path fill="none" d="M254.34 738V637.237h153.91V738z"/></g></g><g fill="#5C3566" stroke-opacity="0" stroke-width="0" stroke-miterlimit="10" stroke-linejoin="bevel"><defs><clipPath id="e"><path d="M55.43 35v703h919.552V35z"/></clipPath></defs><g clip-path="url(#e)"><path stroke="none" d="M438.25 738V173.257h153.912V738z"/></g></g><g fill-opacity="0" stroke-miterlimit="10"><defs><clipPath id="f"><path d="M55.43 35v703h919.552V35z"/></clipPath></defs><g clip-path="url(#f)"><path fill="none" d="M438.25 738V173.257h153.912V738z"/></g></g><g fill="#5C3566" stroke-opacity="0" stroke-width="0" stroke-miterlimit="10" stroke-linejoin="bevel"><defs><clipPath id="g"><path d="M55.43 35v703h919.552V35z"/></clipPath></defs><g clip-path="url(#g)"><path stroke="none" d="M622.162 738V122.875h153.91V738z"/></g></g><g fill-opacity="0" stroke-miterlimit="10"><defs><clipPath id="h"><path d="M55.43 35v703h919.552V35z"/></clipPath></defs><g clip-path="url(#h)"><path fill="none" d="M622.162 738V122.875h153.91V738z"/></g></g><g fill="#5C3566" stroke-opacity="0" stroke-width="0" stroke-miterlimit="10" stroke-linejoin="bevel"><defs><clipPath id="i"><path d="M55.43 35v703h919.552V35z"/></clipPath></defs><g clip-path="url(#i)"><path stroke="none" d="M806.072 738v-96.077h153.91V738z"/></g></g><g fill-opacity="0" stroke-miterlimit="10"><defs><clipPath id="j"><path d="M55.43 35v703h919.552V35z"/></clipPath></defs><g clip-path="url(#j)"><path fill="none" d="M806.072 738v-96.077h153.91V738z"/></g></g><path fill="none" stroke-miterlimit="10" d="M55.43 738V35" stroke-linecap="square"/><path fill="none" stroke-miterlimit="10" d="M55.43 738h2m-2-58.583h2m-2-58.584h2m-2-58.583h2m-2-58.583h2m-2-58.584h2m-2-58.583h2m-2-58.583h2m-2-58.584h2m-2-58.583h2m-2-58.583h2m-2-58.584h2M55.43 35h2m-2 703h5m-5-234.333h5m-5-234.334h5M55.43 35h5"/><path stroke="none" d="M41.135 741.445zm2.615.126c-1.02 0-1.586-.9-1.586-.9-.567-.9-.567-2.59-.567-2.59 0-1.69.567-2.57.567-2.57.567-.88 1.586-.88 1.586-.88 1.008 0 1.576.88 1.576.88.567.89.567 2.58.567 2.58 0 1.69-.567 2.6-.567 2.6-.568.91-1.576.91-1.576.91zm0 0zm0-.69c.294 0 .53-.16.53-.16.237-.16.41-.5.41-.5.174-.34.268-.87.268-.87.095-.53.095-1.26.095-1.26 0-.73-.095-1.26-.095-1.26-.094-.52-.268-.85-.268-.85-.173-.33-.41-.49-.41-.49-.236-.16-.53-.16-.53-.16-.294 0-.536.16-.536.16-.24.16-.415.49-.415.49-.18.33-.27.86-.27.86-.1.53-.1 1.26-.1 1.26 0 1.47.36 2.14.36 2.14.36.67.95.67.95.67zM30.61 507.11zm.42-.515c.756-.756 1.344-1.365 1.344-1.365.588-.61.987-1.13.987-1.13.4-.52.61-.955.61-.955.21-.436.21-.846.21-.846 0-.58-.31-.95-.31-.95-.31-.37-.95-.37-.95-.37-.42 0-.77.23-.77.23-.35.23-.65.57-.65.57l-.5-.49c.42-.46.9-.74.9-.74.48-.28 1.14-.28 1.14-.28.94 0 1.47.54 1.47.54.54.54.54 1.43.54 1.43 0 .47-.2.95-.2.95-.2.48-.56.98-.56.98-.36.51-.86 1.06-.86 1.06-.5.55-1.1 1.17-1.1 1.17l.57-.05c.3-.02.56-.02.56-.02h1.94v.74h-4.34v-.51zm4.8.515zm2.615.126c-1.02 0-1.586-.903-1.586-.903-.57-.904-.57-2.595-.57-2.595 0-1.69.56-2.573.56-2.573.56-.883 1.58-.883 1.58-.883 1.01 0 1.57.883 1.57.883.56.882.56 2.573.56 2.573 0 1.69-.57 2.595-.57 2.595-.57.903-1.58.903-1.58.903zm0 0zm0-.693c.294 0 .53-.163.53-.163.237-.163.41-.504.41-.504.174-.342.268-.872.268-.872.095-.53.095-1.266.095-1.266 0-.735-.095-1.26-.095-1.26-.094-.526-.267-.856-.267-.856-.174-.33-.41-.49-.41-.49-.236-.156-.53-.156-.53-.156-.295 0-.536.157-.536.157-.242.158-.415.49-.415.49-.174.33-.268.855-.268.855-.095.525-.095 1.26-.095 1.26 0 1.47.363 2.138.363 2.138.362.667.95.667.95.667zm2.605.567zm2.616.126c-1.02 0-1.586-.903-1.586-.903-.567-.904-.567-2.595-.567-2.595 0-1.69.567-2.573.567-2.573.567-.883 1.586-.883 1.586-.883 1.008 0 1.576.883 1.576.883.567.882.567 2.573.567 2.573 0 1.69-.57 2.595-.57 2.595-.57.903-1.58.903-1.58.903zm0 0zm0-.693c.294 0 .53-.163.53-.163.237-.163.41-.504.41-.504.173-.342.268-.872.268-.872.095-.53.095-1.266.095-1.266 0-.735-.1-1.26-.1-1.26-.1-.526-.27-.856-.27-.856-.18-.33-.41-.49-.41-.49-.24-.156-.53-.156-.53-.156-.3 0-.54.157-.54.157-.24.158-.42.49-.42.49-.18.33-.27.855-.27.855-.1.525-.1 1.26-.1 1.26 0 1.47.36 2.138.36 2.138.36.667.95.667.95.667zM30.41 272.78zm3.193-2.543v-1.944c0-.273.016-.646.016-.646.01-.373.03-.646.03-.646h-.04c-.13.25-.26.48-.26.48l-.29.48-1.57 2.29h2.1zm0 0zm1.733.693h-.914v1.85h-.82v-1.85H30.59v-.567l2.868-4.286h.966v4.16h.914v.693zm.294 1.85zm2.616.125c-1.02 0-1.586-.904-1.586-.904-.567-.9-.567-2.59-.567-2.59 0-1.69.567-2.57.567-2.57.567-.88 1.586-.88 1.586-.88 1.008 0 1.575.89 1.575.89.57.89.57 2.58.57 2.58 0 1.69-.57 2.6-.57 2.6-.56.91-1.57.91-1.57.91zm0 0zm0-.693c.294 0 .53-.163.53-.163.237-.17.41-.51.41-.51.173-.34.268-.87.268-.87.094-.53.094-1.27.094-1.27 0-.74-.094-1.26-.094-1.26-.095-.53-.268-.86-.268-.86-.173-.33-.41-.49-.41-.49-.236-.16-.53-.16-.53-.16-.294 0-.536.16-.536.16-.24.15-.415.49-.415.49-.173.33-.268.85-.268.85-.094.52-.094 1.26-.094 1.26 0 1.47.362 2.14.362 2.14.363.66.95.66.95.66zm2.605.567zm2.62.12c-1.02 0-1.58-.91-1.58-.91-.56-.91-.56-2.6-.56-2.6 0-1.69.57-2.58.57-2.58.57-.89 1.59-.89 1.59-.89 1.01 0 1.58.88 1.58.88.57.88.57 2.57.57 2.57 0 1.69-.56 2.59-.56 2.59-.57.9-1.58.9-1.58.9zm0 0zm0-.7c.3 0 .53-.17.53-.17.24-.17.41-.51.41-.51.18-.34.27-.87.27-.87.1-.53.1-1.27.1-1.27 0-.74-.09-1.26-.09-1.26-.09-.53-.26-.86-.26-.86-.17-.33-.41-.49-.41-.49-.23-.16-.53-.16-.53-.16-.29 0-.53.16-.53.16-.24.16-.41.49-.41.49-.17.33-.27.85-.27.85-.09.52-.09 1.26-.09 1.26 0 1.47.37 2.14.37 2.14.36.66.95.66.95.66zM30.74 38.44zm2.815-.553c.253 0 .463-.11.463-.11.21-.11.367-.3.367-.3.156-.2.245-.46.245-.46.09-.27.09-.6.09-.6 0-.67-.305-1.04-.305-1.04-.304-.38-.934-.38-.934-.38-.31 0-.69.2-.69.2-.37.202-.71.674-.71.674.08.99.46 1.5.46 1.5.38.51 1.02.51 1.02.51zm0 0zm1.377-5.03c-.21-.24-.5-.386-.5-.386-.29-.14-.604-.14-.604-.14-.347 0-.662.15-.662.15-.313.15-.555.48-.555.48-.24.34-.39.88-.39.88-.14.54-.15 1.34-.15 1.34.31-.39.73-.61.73-.61.42-.22.83-.22.83-.22.88 0 1.4.52 1.4.52.52.52.52 1.56.52 1.56 0 .49-.15.88-.15.88-.16.4-.43.68-.43.68-.27.29-.63.44-.63.44-.36.16-.77.16-.77.16-.49 0-.91-.2-.91-.2-.42-.2-.73-.6-.73-.6-.31-.41-.49-1.01-.49-1.01-.18-.61-.18-1.41-.18-1.41 0-1.01.21-1.71.21-1.71.22-.71.57-1.15.57-1.15.36-.44.82-.65.82-.65.46-.2.97-.2.97-.2.55 0 .94.21.94.21.4.2.68.51.68.51zm1.03 5.575zm2.613.126c-1.014 0-1.58-.902-1.58-.902-.568-.904-.568-2.596-.568-2.596 0-1.69.57-2.575.57-2.575.566-.88 1.585-.88 1.585-.88 1.01 0 1.577.88 1.577.88.56.88.56 2.572.56 2.572 0 1.69-.57 2.594-.57 2.594-.57.91-1.58.91-1.58.91zm0 0zm0-.692c.3 0 .536-.164.536-.164.24-.16.41-.502.41-.502.17-.34.27-.87.27-.87.1-.53.1-1.263.1-1.263 0-.736-.09-1.26-.09-1.26-.09-.526-.27-.857-.27-.857-.17-.33-.41-.49-.41-.49-.23-.16-.53-.16-.53-.16-.29 0-.53.16-.53.16-.24.157-.41.488-.41.488-.17.33-.26.857-.26.857-.09.525-.09 1.26-.09 1.26 0 1.47.37 2.14.37 2.14.36.67.95.67.95.67zm2.61.566zm2.616.128c-1.02 0-1.58-.9-1.58-.9-.57-.902-.57-2.594-.57-2.594 0-1.69.57-2.572.57-2.572.57-.88 1.59-.88 1.59-.88 1.01 0 1.58.88 1.58.88.57.884.57 2.575.57 2.575 0 1.69-.56 2.59-.56 2.59-.57.9-1.57.9-1.57.9zm0 0zm0-.69c.3 0 .53-.162.53-.162.24-.162.41-.504.41-.504.18-.34.27-.87.27-.87.1-.53.1-1.266.1-1.266 0-.736-.1-1.26-.1-1.26-.09-.526-.26-.857-.26-.857-.17-.33-.41-.49-.41-.49-.23-.16-.53-.16-.53-.16-.29 0-.53.16-.53.16-.24.16-.41.49-.41.49-.17.33-.26.86-.26.86-.09.53-.09 1.26-.09 1.26 0 1.47.36 2.14.36 2.14.37.67.96.67.96.67z"/><path fill="none" stroke-miterlimit="10" d="M55.43 738h919.552" stroke-linecap="square"/><path stroke="none" d="M101.955 758zm.966-1.502c.37.39.87.625.87.625.5.236 1.04.236 1.04.236.69 0 1.06-.31 1.06-.31.38-.31.38-.82.38-.82 0-.26-.09-.45-.09-.45-.09-.19-.24-.32-.24-.32-.15-.13-.36-.24-.36-.24-.21-.11-.45-.22-.45-.22l-.98-.43c-.24-.11-.49-.26-.49-.26-.25-.15-.45-.36-.45-.36-.2-.21-.32-.5-.32-.5-.13-.29-.13-.67-.13-.67 0-.39.16-.73.16-.73.17-.34.45-.59.45-.59.29-.25.69-.39.69-.39.4-.14.87-.14.87-.14.62 0 1.15.23 1.15.23.53.24.9.61.9.61l-.47.56c-.31-.31-.7-.48-.7-.48-.38-.17-.86-.17-.86-.17-.57 0-.93.26-.93.26-.35.27-.35.74-.35.74 0 .25.1.42.1.42.1.17.27.3.27.3.17.14.37.23.37.23.2.1.41.19.41.19l.98.42c.3.13.56.29.56.29.26.16.45.38.45.38.19.21.3.5.3.5.11.29.11.66.11.66 0 .41-.16.76-.16.76-.16.35-.46.62-.46.62-.3.26-.73.42-.73.42-.43.15-.97.15-.97.15-.72 0-1.34-.27-1.34-.27-.62-.27-1.07-.75-1.07-.75zm4.65 1.502zm1.01-4.4h-.75v-.653l.8-.052.11-1.43h.73v1.43h1.38v.704h-1.37v2.83c0 .47.17.73.17.73.17.25.62.25.62.25.14 0 .3-.04.3-.04.16-.05.28-.1.28-.1l.17.65c-.21.07-.45.13-.45.13-.24.05-.49.05-.49.05-.41 0-.69-.13-.69-.13-.28-.13-.45-.35-.45-.35-.17-.22-.24-.54-.24-.54-.07-.32-.07-.7-.07-.7v-2.82zm2.54 4.4zm.87-5.105h.72l.08.924h.04c.26-.49.64-.77.64-.77.38-.29.82-.29.82-.29.31 0 .55.1.55.1l-.17.75-.23-.07c-.1-.02-.26-.02-.26-.02-.33 0-.68.26-.68.26-.35.26-.62.91-.62.91v3.3H112v-5.11zm2.68 5.105zm.48-2.542c0-.64.2-1.14.2-1.14.2-.5.52-.845.52-.845.33-.347.75-.525.75-.525.43-.18.9-.18.9-.18.47 0 .9.18.9.18.43.178.75.525.75.525.33.346.52.845.52.845.2.5.2 1.14.2 1.14 0 .63-.19 1.13-.19 1.13-.19.498-.52.84-.52.84-.32.34-.75.52-.75.52-.42.178-.9.178-.9.178-.47 0-.89-.18-.89-.18-.42-.177-.75-.52-.75-.52-.32-.34-.52-.84-.52-.84-.19-.498-.19-1.128-.19-1.128zm0 0zm.9 0c0 .44.11.798.11.798.11.357.3.615.3.615.2.26.47.4.47.4.28.15.6.15.6.15.33 0 .6-.14.6-.14.27-.14.47-.4.47-.4.2-.25.3-.61.3-.61.11-.35.11-.8.11-.8 0-.44-.1-.8-.1-.8-.1-.36-.3-.62-.3-.62-.19-.26-.46-.4-.46-.4-.27-.14-.6-.14-.6-.14-.32 0-.59.14-.59.14-.27.14-.47.41-.47.41-.19.26-.3.63-.3.63-.1.37-.1.81-.1.81zm4.31 2.542zm.86-5.105h.72l.08.735h.03c.36-.367.77-.614.77-.614.4-.247.94-.247.94-.247.81 0 1.18.5 1.18.5.37.5.37 1.49.37 1.49V758h-.86v-3.12c0-.724-.23-1.045-.23-1.045-.23-.32-.74-.32-.74-.32-.4 0-.7.2-.7.2-.3.2-.69.588-.69.588V758h-.86v-5.105zM126.1 758zm1.23.86c0 .41.392.653.392.653.39.24 1.08.24 1.08.24.364 0 .664-.088.664-.088.3-.09.51-.23.51-.23.21-.143.326-.332.326-.332.116-.19.116-.39.116-.39 0-.356-.263-.492-.263-.492-.266-.13-.77-.13-.77-.13h-.88c-.15 0-.32-.01-.32-.01-.176-.01-.344-.07-.344-.07-.27.2-.4.42-.4.42-.12.22-.12.44-.12.44zm0 0zm-.758.117c0-.326.2-.62.2-.62.2-.294.54-.535.54-.535v-.042c-.19-.116-.32-.32-.32-.32-.13-.206-.13-.51-.13-.51 0-.326.172-.568.172-.568.18-.24.377-.378.377-.378v-.042c-.25-.21-.45-.562-.45-.562-.2-.352-.2-.814-.2-.814 0-.42.16-.756.16-.756.15-.336.42-.573.42-.573.27-.236.62-.362.62-.362.35-.126.74-.126.74-.126.21 0 .4.03.4.03.19.03.33.09.33.09h1.78v.66h-1.05c.18.18.3.45.3.45.12.27.12.6.12.6 0 .41-.14.74-.14.74-.15.33-.4.55-.4.55-.25.22-.59.35-.59.35-.34.12-.73.12-.73.12-.19 0-.39-.05-.39-.05-.2-.05-.37-.13-.37-.13-.14.11-.23.25-.23.25-.1.14-.1.35-.1.35 0 .24.19.4.19.4.19.16.72.16.72.16h.99c.89 0 1.34.29 1.34.29.44.28.44.92.44.92 0 .35-.18.67-.18.67-.18.32-.51.56-.51.56-.34.24-.82.38-.82.38-.48.14-1.08.14-1.08.14-.47 0-.86-.09-.86-.09-.39-.09-.67-.27-.67-.27-.28-.18-.43-.43-.43-.43-.15-.25-.15-.59-.15-.59zm0 0zm2.11-3.172c.22 0 .41-.084.41-.084.19-.08.342-.24.342-.24.152-.16.236-.38.236-.38.084-.22.084-.51.084-.51 0-.56-.314-.87-.314-.87-.313-.31-.764-.31-.764-.31-.453 0-.768.31-.768.31-.315.31-.315.88-.315.88 0 .29.086.51.086.51.08.23.23.39.23.39.15.16.35.24.35.24.19.09.41.09.41.09zm2.71 2.195zm.86-7.48h.86v6.514c0 .21.07.294.07.294.07.084.17.084.17.084h.08l.11-.02.11.65c-.084.042-.2.063-.2.063-.115.02-.294.02-.294.02-.494 0-.704-.293-.704-.293-.21-.294-.21-.86-.21-.86v-6.45zm1.81 7.48zm.513 1.408l.19.047.2.026c.44 0 .72-.31.72-.31.28-.31.435-.78.435-.78l.116-.38-2.048-5.11h.89l1.04 2.83.248.71c.13.37.246.73.246.73h.04c.117-.34.223-.72.223-.72.103-.38.21-.71.21-.71l.912-2.82h.84l-1.92 5.53c-.14.38-.307.7-.307.7-.17.33-.4.56-.4.56-.23.24-.522.38-.522.38-.294.14-.682.14-.682.14-.18 0-.325-.02-.325-.02-.15-.02-.27-.08-.27-.08l.17-.68zM141.09 758zm.495-2.542c0-.62.18-1.12.18-1.12.186-.498.49-.844.49-.844.305-.347.705-.536.705-.536.4-.19.84-.19.84-.19.44 0 .768.158.768.158.326.158.662.43.662.43l-.042-.87v-1.965h.872V758h-.714l-.073-.6h-.03c-.306.295-.7.51-.7.51-.393.216-.845.216-.845.216-.968 0-1.54-.693-1.54-.693-.573-.693-.573-1.975-.573-1.975zm0 0zm.89-.01c0 .924.37 1.44.37 1.44.366.513 1.04.513 1.04.513.355 0 .67-.17.67-.17.315-.17.63-.53.63-.53v-2.67c-.325-.29-.624-.41-.624-.41-.3-.12-.61-.12-.61-.12-.3 0-.57.14-.57.14-.27.15-.47.4-.47.4-.2.26-.31.62-.31.62-.11.36-.11.8-.11.8zM146.92 758zm1.302-6.155c-.252 0-.425-.158-.425-.158-.173-.158-.173-.4-.173-.4 0-.25.173-.404.173-.404.175-.152.427-.152.427-.152.25 0 .425.16.425.16.17.16.17.41.17.41 0 .24-.18.4-.18.4-.17.16-.43.16-.43.16zm0 0zm-.44 1.05h.86V758h-.86v-5.105zM149.51 758zm.724-1.155c.337.273.688.44.688.44.352.17.815.17.815.17.504 0 .756-.232.756-.232.253-.23.253-.567.253-.567 0-.2-.105-.347-.105-.347-.1-.15-.26-.26-.26-.26-.16-.11-.37-.2-.37-.2l-.42-.17c-.27-.1-.54-.22-.54-.22-.27-.12-.49-.3-.49-.3-.21-.18-.35-.41-.35-.41-.14-.23-.14-.56-.14-.56 0-.31.12-.58.12-.58.12-.27.35-.46.35-.46.23-.19.55-.31.55-.31.33-.11.74-.11.74-.11.49 0 .89.17.89.17.41.16.7.41.7.41l-.41.54c-.26-.2-.55-.33-.55-.33-.28-.13-.62-.13-.62-.13-.48 0-.71.22-.71.22-.22.22-.22.51-.22.51 0 .18.1.31.1.31.1.13.25.23.25.23.16.1.37.18.37.18l.43.16c.27.1.55.22.55.22.28.11.5.29.5.29.22.17.36.42.36.42.14.25.14.61.14.61 0 .31-.12.59-.12.59-.12.27-.36.48-.36.48-.23.21-.59.33-.59.33-.35.12-.8.12-.8.12-.54 0-1.04-.2-1.04-.2-.49-.2-.86-.51-.86-.51zM153.91 758zm.608-1.323c0-.84.75-1.287.75-1.287.752-.447 2.39-.625 2.39-.625 0-.242-.046-.473-.046-.473-.048-.23-.168-.41-.168-.41-.12-.178-.32-.29-.32-.29-.2-.11-.515-.11-.515-.11-.46 0-.84.17-.84.17-.39.167-.69.377-.69.377l-.35-.6c.35-.23.87-.45.87-.45.51-.22 1.13-.22 1.13-.22.93 0 1.35.57 1.35.57.42.57.42 1.53.42 1.53V758h-.72l-.08-.61h-.02c-.37.306-.8.52-.8.52-.43.216-.9.216-.9.216-.65 0-1.08-.378-1.08-.378-.43-.378-.43-1.07-.43-1.07zm0 0zm.85-.064c0 .442.258.63.258.63.258.19.636.19.636.19.367 0 .698-.173.698-.173.33-.174.7-.51.7-.51v-1.418c-.642.084-1.083.2-1.083.2-.44.115-.71.273-.71.273-.267.157-.382.362-.382.362-.116.205-.116.446-.116.446zm3.92 1.387zm1.228.86c0 .41.394.653.394.653.394.24 1.087.24 1.087.24.368 0 .667-.088.667-.088.3-.09.51-.23.51-.23.21-.143.325-.332.325-.332.11-.19.11-.39.11-.39 0-.356-.27-.492-.27-.492-.26-.13-.77-.13-.77-.13h-.88c-.15 0-.32-.01-.32-.01-.18-.01-.34-.07-.34-.07-.28.2-.4.42-.4.42-.13.22-.13.44-.13.44zm0 0zm-.756.117c0-.326.2-.62.2-.62.2-.294.546-.535.546-.535v-.042c-.19-.116-.32-.32-.32-.32-.132-.206-.132-.51-.132-.51 0-.326.178-.568.178-.568.18-.24.38-.378.38-.378v-.042c-.253-.21-.458-.562-.458-.562-.205-.352-.205-.814-.205-.814 0-.42.15-.756.15-.756.15-.336.41-.573.41-.573.26-.236.61-.362.61-.362.35-.126.74-.126.74-.126.21 0 .39.03.39.03.18.03.33.09.33.09h1.77v.66h-1.05c.18.18.3.45.3.45.12.27.12.6.12.6 0 .41-.15.74-.15.74-.15.33-.4.55-.4.55-.25.22-.6.35-.6.35-.34.12-.73.12-.73.12-.19 0-.39-.05-.39-.05-.2-.05-.38-.13-.38-.13-.14.11-.23.25-.23.25-.1.14-.1.35-.1.35 0 .24.19.4.19.4.19.16.71.16.71.16h.99c.89 0 1.34.29 1.34.29.44.28.44.92.44.92 0 .35-.18.67-.18.67-.18.32-.52.56-.52.56-.34.24-.82.38-.82.38-.48.14-1.08.14-1.08.14-.47 0-.86-.09-.86-.09-.39-.09-.67-.27-.67-.27-.28-.18-.43-.43-.43-.43-.16-.25-.16-.59-.16-.59zm0 0zm2.11-3.172c.222 0 .416-.084.416-.084.194-.08.347-.24.347-.24.152-.16.236-.38.236-.38.08-.22.08-.51.08-.51 0-.56-.32-.87-.32-.87-.32-.31-.77-.31-.77-.31-.45 0-.77.31-.77.31-.32.31-.32.88-.32.88 0 .29.08.51.08.51.08.23.23.39.23.39.15.16.34.24.34.24.19.09.41.09.41.09zm2.71 2.195zm.862-5.105h.715l.073.924h.032c.262-.49.635-.77.635-.77.373-.29.814-.29.814-.29.31 0 .55.1.55.1l-.17.75c-.12-.04-.23-.07-.23-.07-.1-.02-.26-.02-.26-.02-.32 0-.68.26-.68.26-.35.26-.61.91-.61.91v3.3h-.86v-5.11zm2.68 5.105zm.482-2.542c0-.63.195-1.13.195-1.13.19-.498.51-.845.51-.845.32-.346.73-.53.73-.53.41-.184.85-.184.85-.184.48 0 .87.16.87.16.38.17.64.48.64.48.26.31.39.75.39.75.13.44.13.98.13.98 0 .28-.03.47-.03.47h-3.45c.05.83.51 1.31.51 1.31.45.48 1.19.48 1.19.48.36 0 .67-.11.67-.11.31-.11.59-.29.59-.29l.3.56c-.34.21-.75.37-.75.37-.41.16-.94.16-.94.16-.52 0-.96-.19-.96-.19-.45-.19-.78-.53-.78-.53-.33-.34-.52-.84-.52-.84-.19-.5-.19-1.13-.19-1.13zm0 0zm3.572-.39c0-.786-.33-1.2-.33-1.2-.332-.416-.93-.416-.93-.416-.274 0-.52.11-.52.11-.248.11-.447.315-.447.315-.2.205-.34.504-.34.504-.13.3-.18.69-.18.69h2.73zM173.33 758zm.484-2.542c0-.63.195-1.13.195-1.13.19-.498.51-.845.51-.845.32-.346.73-.53.73-.53.41-.184.85-.184.85-.184.48 0 .87.16.87.16.38.17.64.48.64.48.25.31.39.75.39.75.13.44.13.98.13.98 0 .28-.03.47-.03.47h-3.45c.05.83.51 1.31.51 1.31.45.48 1.19.48 1.19.48.36 0 .67-.11.67-.11.31-.11.59-.29.59-.29l.3.56c-.34.21-.75.37-.75.37-.41.16-.93.16-.93.16-.52 0-.96-.19-.96-.19-.45-.19-.78-.53-.78-.53-.33-.34-.52-.84-.52-.84-.19-.5-.19-1.13-.19-1.13zm0 0zm3.572-.39c0-.786-.33-1.2-.33-1.2-.332-.416-.93-.416-.93-.416-.274 0-.52.11-.52.11-.248.11-.447.315-.447.315-.2.205-.34.504-.34.504-.13.3-.18.69-.18.69h2.73zM178.54 758zm.684-4.317c0-.305.184-.49.184-.49.184-.182.446-.182.446-.182.252 0 .436.19.436.19.184.19.184.49.184.49 0 .28-.184.47-.184.47-.184.19-.436.19-.436.19-.262 0-.446-.18-.446-.18-.184-.18-.184-.46-.184-.46zm0 0zm0 3.792c0-.305.184-.49.184-.49.184-.182.446-.182.446-.182.252 0 .436.183.436.183.184.184.184.49.184.49 0 .282-.184.466-.184.466-.184.184-.436.184-.436.184-.262 0-.446-.184-.446-.184-.184-.184-.184-.467-.184-.467zm4.055.525zm.42-.515c.75-.756 1.34-1.365 1.34-1.365.59-.61.99-1.13.99-1.13.4-.52.61-.955.61-.955.21-.436.21-.846.21-.846 0-.58-.32-.95-.32-.95-.32-.37-.96-.37-.96-.37-.42 0-.78.23-.78.23-.36.23-.65.57-.65.57l-.5-.5c.42-.46.89-.74.89-.74.47-.28 1.13-.28 1.13-.28.93 0 1.47.54 1.47.54.53.54.53 1.43.53 1.43 0 .47-.21.95-.21.95-.21.48-.57.98-.57.98-.36.51-.86 1.06-.86 1.06-.5.55-1.1 1.17-1.1 1.17l.57-.04c.29-.02.55-.02.55-.02H188v.75h-4.32v-.52zm4.8.515zm2.61.126c-1.02 0-1.59-.903-1.59-.903-.57-.904-.57-2.595-.57-2.595 0-1.69.56-2.573.56-2.573.56-.883 1.58-.883 1.58-.883 1.01 0 1.57.883 1.57.883.57.882.57 2.573.57 2.573 0 1.69-.57 2.595-.57 2.595-.57.903-1.58.903-1.58.903zm0 0zm0-.693c.29 0 .53-.163.53-.163.23-.163.41-.504.41-.504.17-.342.27-.872.27-.872.09-.53.09-1.266.09-1.266 0-.735-.1-1.26-.1-1.26-.1-.525-.27-.856-.27-.856-.18-.33-.41-.49-.41-.49-.24-.156-.53-.156-.53-.156-.3 0-.54.157-.54.157-.25.158-.42.49-.42.49-.17.33-.27.855-.27.855-.1.525-.1 1.26-.1 1.26 0 1.47.36 2.138.36 2.138.36.667.95.667.95.667zm114.24.567zm.94-6.89h1.72c1.59 0 2.42.882 2.42.882.83.882.83 2.53.83 2.53 0 .82-.21 1.466-.21 1.466-.21.646-.62 1.093-.62 1.093-.41.45-1.01.69-1.01.69-.6.24-1.38.24-1.38.24h-1.77v-6.89zm0 0zm1.66 6.176c1.21 0 1.81-.725 1.81-.725.6-.72.6-2.03.6-2.03 0-1.31-.61-2-.61-2-.61-.69-1.81-.69-1.81-.69h-.79v5.46h.79zm3.85.714zm1.3-6.155c-.25 0-.43-.158-.43-.158-.18-.158-.18-.4-.18-.4 0-.25.17-.404.17-.404.17-.152.42-.152.42-.152.25 0 .43.16.43.16.17.16.17.41.17.41 0 .24-.18.4-.18.4-.18.16-.43.16-.43.16zm0 0zm-.44 1.05h.86V758h-.86v-5.105zM314.4 758zm.724-1.155c.337.273.69.44.69.44.35.17.813.17.813.17.504 0 .756-.232.756-.232.25-.23.25-.567.25-.567 0-.2-.103-.347-.103-.347-.106-.15-.27-.26-.27-.26-.163-.11-.373-.2-.373-.2l-.42-.17c-.273-.1-.546-.22-.546-.22-.27-.12-.49-.3-.49-.3-.21-.18-.35-.41-.35-.41-.13-.23-.13-.56-.13-.56 0-.31.12-.58.12-.58.12-.27.35-.46.35-.46.23-.19.56-.31.56-.31.33-.11.74-.11.74-.11.49 0 .89.17.89.17.41.16.7.41.7.41l-.41.54c-.26-.2-.54-.33-.54-.33-.28-.13-.62-.13-.62-.13-.48 0-.71.22-.71.22-.22.22-.22.51-.22.51 0 .18.1.31.1.31.1.13.25.23.25.23.16.1.37.18.37.18l.43.16c.27.1.55.22.55.22.28.11.5.29.5.29.22.17.36.42.36.42.15.25.15.61.15.61 0 .31-.12.59-.12.59-.12.27-.36.48-.36.48-.23.21-.59.33-.59.33-.35.12-.8.12-.8.12-.54 0-1.04-.2-1.04-.2-.49-.2-.86-.51-.86-.51zM318.8 758zm.61-1.323c0-.84.75-1.287.75-1.287.75-.447 2.39-.625 2.39-.625 0-.242-.048-.473-.048-.473-.048-.23-.17-.41-.17-.41-.12-.178-.32-.29-.32-.29-.2-.11-.514-.11-.514-.11-.452 0-.835.17-.835.17-.382.167-.686.377-.686.377l-.347-.6c.357-.23.872-.45.872-.45.513-.22 1.133-.22 1.133-.22.935 0 1.355.57 1.355.57.42.57.42 1.53.42 1.53V758h-.714l-.073-.61h-.02c-.37.306-.793.52-.793.52-.426.216-.898.216-.898.216-.653 0-1.078-.378-1.078-.378-.425-.378-.425-1.07-.425-1.07zm0 0zm.85-.064c0 .442.257.63.257.63.257.19.635.19.635.19.367 0 .698-.173.698-.173.33-.174.698-.51.698-.51v-1.418c-.64.084-1.082.2-1.082.2-.44.115-.71.273-.71.273-.267.157-.382.362-.382.362-.116.205-.116.446-.116.446zm3.917 1.387zm1.23.86c0 .41.393.653.393.653.394.24 1.087.24 1.087.24.368 0 .667-.088.667-.088.3-.09.51-.23.51-.23.21-.143.326-.332.326-.332.116-.19.116-.39.116-.39 0-.356-.263-.492-.263-.492-.262-.13-.766-.13-.766-.13h-.883c-.146 0-.32-.01-.32-.01-.173-.01-.34-.07-.34-.07-.274.2-.4.42-.4.42-.126.22-.126.44-.126.44zm0 0zm-.757.117c0-.326.2-.62.2-.62.2-.294.546-.535.546-.535v-.042c-.19-.116-.32-.32-.32-.32-.132-.206-.132-.51-.132-.51 0-.326.18-.568.18-.568.178-.24.378-.378.378-.378v-.042c-.252-.21-.457-.562-.457-.562-.204-.352-.204-.814-.204-.814 0-.42.15-.756.15-.756.16-.336.42-.573.42-.573.27-.236.62-.362.62-.362.36-.126.74-.126.74-.126.21 0 .4.03.4.03.19.03.33.09.33.09h1.78v.66h-1.05c.18.18.3.45.3.45.12.27.12.6.12.6 0 .41-.14.74-.14.74-.15.33-.4.55-.4.55-.25.22-.59.35-.59.35-.34.12-.73.12-.73.12-.19 0-.39-.05-.39-.05-.2-.05-.38-.13-.38-.13-.13.11-.23.25-.23.25-.09.14-.09.35-.09.35 0 .24.19.4.19.4.19.16.72.16.72.16h.99c.89 0 1.34.29 1.34.29.44.28.44.92.44.92 0 .35-.18.67-.18.67-.18.32-.51.56-.51.56-.33.24-.81.38-.81.38-.48.14-1.08.14-1.08.14-.47 0-.86-.09-.86-.09-.39-.09-.66-.27-.66-.27-.28-.18-.43-.43-.43-.43-.15-.25-.15-.59-.15-.59zm0 0zm2.11-3.172c.222 0 .416-.084.416-.084.195-.08.347-.24.347-.24.153-.16.237-.38.237-.38.084-.22.084-.51.084-.51 0-.56-.314-.87-.314-.87-.315-.31-.767-.31-.767-.31-.45 0-.768.31-.768.31-.314.31-.314.88-.314.88 0 .29.09.51.09.51.09.23.24.39.24.39.15.16.35.24.35.24.2.09.42.09.42.09zm2.71 2.195zm.863-5.105h.715l.073.924h.04c.26-.49.64-.77.64-.77.37-.29.82-.29.82-.29.3 0 .55.1.55.1l-.16.75-.23-.07c-.11-.02-.26-.02-.26-.02-.32 0-.68.26-.68.26-.35.26-.61.91-.61.91v3.3h-.86v-5.11zm2.68 5.105zm.482-2.542c0-.63.196-1.13.196-1.13.2-.498.52-.845.52-.845.32-.346.73-.53.73-.53.41-.184.85-.184.85-.184.49 0 .87.16.87.16.39.17.64.48.64.48.26.31.4.75.4.75.14.44.14.98.14.98 0 .28-.03.47-.03.47h-3.44c.06.83.51 1.31.51 1.31.46.48 1.19.48 1.19.48.37 0 .68-.11.68-.11.31-.11.6-.29.6-.29l.31.56c-.33.21-.74.37-.74.37-.41.16-.93.16-.93.16-.51 0-.96-.19-.96-.19-.45-.19-.78-.53-.78-.53-.33-.34-.52-.84-.52-.84-.19-.5-.19-1.13-.19-1.13zm0 0zm3.573-.39c0-.786-.33-1.2-.33-1.2-.332-.416-.93-.416-.93-.416-.274 0-.52.11-.52.11-.247.11-.447.315-.447.315-.2.205-.33.504-.33.504-.13.3-.17.69-.17.69h2.73zM338.22 758zm.484-2.542c0-.63.194-1.13.194-1.13.194-.498.515-.845.515-.845.32-.346.73-.53.73-.53.41-.184.85-.184.85-.184.485 0 .868.16.868.16.39.17.64.48.64.48.26.31.4.75.4.75.14.44.14.98.14.98 0 .28-.03.47-.03.47h-3.44c.06.83.51 1.31.51 1.31.46.48 1.19.48 1.19.48.37 0 .68-.11.68-.11.31-.11.59-.29.59-.29l.31.56c-.33.21-.74.37-.74.37-.41.16-.93.16-.93.16-.51 0-.96-.19-.96-.19-.44-.19-.77-.53-.77-.53-.33-.34-.52-.84-.52-.84-.19-.5-.19-1.13-.19-1.13zm0 0zm3.57-.39c0-.786-.33-1.2-.33-1.2-.33-.416-.93-.416-.93-.416-.273 0-.52.11-.52.11-.246.11-.446.315-.446.315-.2.205-.33.504-.33.504-.132.3-.174.69-.174.69h2.73zM343.43 758zm.683-4.317c0-.305.185-.49.185-.49.184-.182.446-.182.446-.182.253 0 .437.19.437.19.19.19.19.49.19.49 0 .28-.18.47-.18.47-.18.19-.43.19-.43.19-.26 0-.44-.18-.44-.18-.18-.18-.18-.46-.18-.46zm0 0zm0 3.792c0-.305.185-.49.185-.49.184-.182.446-.182.446-.182.253 0 .437.183.437.183.19.184.19.49.19.49 0 .282-.18.466-.18.466-.18.184-.43.184-.43.184-.26 0-.44-.184-.44-.184-.18-.184-.18-.467-.18-.467zm4.056.525zm1.2-1.796c0 .283.11.515.11.515.11.23.3.4.3.4.19.17.45.27.45.27.26.09.56.09.56.09.59 0 .95-.33.95-.33.36-.33.36-.85.36-.85 0-.33-.15-.56-.15-.56-.15-.23-.4-.41-.4-.41-.26-.18-.59-.32-.59-.32-.33-.15-.69-.29-.69-.29-.4.27-.67.63-.67.63-.26.36-.26.82-.26.82zm0 0zm1.89-1.86c.33-.304.52-.64.52-.64.18-.336.18-.704.18-.704 0-.504-.31-.846-.31-.846-.31-.34-.86-.34-.86-.34-.47 0-.78.293-.78.293-.31.294-.31.788-.31.788 0 .304.12.52.12.52.13.215.34.383.34.383.22.168.49.3.49.3.28.13.58.246.58.246zm0 0zm-2.67 1.944c0-.326.11-.604.11-.604.11-.28.28-.504.28-.504.17-.226.4-.4.4-.4.22-.173.46-.3.46-.3v-.04c-.37-.264-.65-.637-.65-.637-.29-.372-.29-.908-.29-.908 0-.39.14-.704.14-.704.14-.31.39-.54.39-.54.25-.22.6-.35.6-.35.34-.12.75-.12.75-.12.44 0 .78.13.78.13.35.14.59.37.59.37.24.24.37.57.37.57.13.33.13.72.13.72 0 .26-.09.51-.09.51-.09.24-.22.45-.22.45-.14.21-.3.38-.3.38-.16.17-.32.28-.32.28v.04c.22.13.43.29.43.29.21.16.37.37.37.37.16.21.26.47.26.47.1.27.1.6.1.6 0 .38-.16.71-.16.71-.16.33-.44.57-.44.57-.29.25-.69.38-.69.38-.4.14-.88.14-.88.14-.47 0-.88-.14-.88-.14-.41-.13-.7-.38-.7-.38-.29-.24-.46-.58-.46-.58-.17-.33-.17-.73-.17-.73zm4.79 1.712zm2.81-.557c.25 0 .46-.105.46-.105.21-.105.36-.3.36-.3.16-.193.25-.46.25-.46.09-.27.09-.605.09-.605 0-.662-.31-1.04-.31-1.04-.31-.378-.94-.378-.94-.378-.32 0-.69.204-.69.204-.38.2-.71.67-.71.67.08.98.46 1.49.46 1.49.37.51 1.01.51 1.01.51zm0 0zm1.37-5.02c-.21-.242-.5-.384-.5-.384-.29-.15-.61-.15-.61-.15-.35 0-.66.14-.66.14-.32.14-.56.48-.56.48-.24.33-.39.87-.39.87-.15.54-.16 1.34-.16 1.34.31-.39.73-.62.73-.62.42-.23.83-.23.83-.23.87 0 1.39.51 1.39.51.52.51.52 1.55.52 1.55 0 .48-.16.88-.16.88-.16.39-.43.67-.43.67-.28.28-.64.44-.64.44-.35.15-.76.15-.76.15-.49 0-.91-.2-.91-.2-.42-.2-.73-.61-.73-.61-.31-.4-.49-1.01-.49-1.01-.18-.6-.18-1.41-.18-1.41 0-1.01.21-1.72.21-1.72.21-.71.56-1.15.56-1.15.36-.45.82-.65.82-.65.46-.21.96-.21.96-.21.55 0 .94.2.94.2.39.2.68.51.68.51zM489.36 758zm.946-6.89h.904l2.49 4.327.745 1.43h.042l-.068-1.09c-.04-.56-.04-1.107-.04-1.107v-3.56h.83V758h-.91l-2.5-4.338-.75-1.418h-.04l.08 1.066c.03.54.03 1.087.03 1.087V758h-.83v-6.89zm5.85 6.89zm.484-2.542c0-.63.195-1.13.195-1.13.194-.498.514-.845.514-.845.32-.346.73-.53.73-.53.41-.184.85-.184.85-.184.48 0 .86.16.86.16.38.17.64.48.64.48.26.31.39.75.39.75.13.44.13.98.13.98 0 .28-.03.47-.03.47h-3.45c.05.83.51 1.31.51 1.31.46.48 1.19.48 1.19.48.36 0 .67-.11.67-.11.31-.11.59-.29.59-.29l.3.56c-.34.21-.75.37-.75.37-.41.16-.94.16-.94.16-.52 0-.97-.19-.97-.19-.45-.19-.78-.53-.78-.53-.33-.34-.52-.84-.52-.84-.19-.5-.19-1.13-.19-1.13zm0 0zm3.572-.39c0-.786-.33-1.2-.33-1.2-.332-.416-.93-.416-.93-.416-.274 0-.52.11-.52.11-.248.11-.447.315-.447.315-.2.205-.33.504-.33.504-.132.3-.174.69-.174.69h2.74zm1.155 2.932zm.788-5.105h.872v3.12c0 .724.226 1.045.226 1.045.225.32.73.32.73.32.4 0 .703-.205.703-.205.305-.204.673-.656.673-.656v-3.63h.86V758h-.72l-.08-.798h-.03c-.36.42-.75.672-.75.672-.4.252-.93.252-.93.252-.82 0-1.2-.504-1.2-.504-.38-.504-.38-1.492-.38-1.492v-3.235zM507.08 758zm1.01-4.4h-.756v-.653l.798-.052.105-1.43h.725v1.43h1.376v.704h-1.376v2.83c0 .47.173.73.173.73.173.25.614.25.614.25.13 0 .29-.04.29-.04.15-.05.28-.1.28-.1l.17.65c-.21.07-.46.13-.46.13-.25.05-.49.05-.49.05-.41 0-.69-.13-.69-.13-.28-.13-.45-.35-.45-.35-.18-.22-.25-.54-.25-.54-.08-.32-.08-.7-.08-.7v-2.82zm2.542 4.4zm.86-5.105h.715l.074.924h.04c.27-.49.64-.77.64-.77.38-.29.82-.29.82-.29.31 0 .55.1.55.1l-.17.75c-.12-.04-.23-.07-.23-.07-.1-.02-.26-.02-.26-.02-.32 0-.68.26-.68.26-.35.26-.61.91-.61.91v3.3h-.86v-5.11zm2.522 5.105zm.61-1.323c0-.84.75-1.287.75-1.287.752-.447 2.39-.625 2.39-.625 0-.242-.047-.473-.047-.473-.047-.23-.168-.41-.168-.41-.13-.178-.33-.29-.33-.29-.2-.11-.52-.11-.52-.11-.45 0-.84.17-.84.17-.39.167-.69.377-.69.377l-.35-.6c.35-.23.87-.45.87-.45.51-.22 1.13-.22 1.13-.22.93 0 1.35.57 1.35.57.42.57.42 1.53.42 1.53V758h-.71l-.08-.61h-.02c-.37.306-.8.52-.8.52-.43.216-.9.216-.9.216-.65 0-1.08-.378-1.08-.378-.42-.378-.42-1.07-.42-1.07zm0 0zm.85-.064c0 .442.258.63.258.63.257.19.635.19.635.19.368 0 .7-.173.7-.173.33-.174.697-.51.697-.51v-1.418c-.64.084-1.082.2-1.082.2-.44.115-.71.273-.71.273-.267.157-.382.362-.382.362-.116.205-.116.446-.116.446zm3.918 1.387zm.862-7.48h.86v6.514c0 .21.074.294.074.294.074.084.17.084.17.084h.077l.11-.02.116.65c-.08.042-.19.063-.19.063-.11.02-.29.02-.29.02-.49 0-.7-.293-.7-.293-.21-.294-.21-.86-.21-.86v-6.45zm1.817 7.48zm.69-4.317c0-.305.19-.49.19-.49.19-.182.45-.182.45-.182.25 0 .44.19.44.19.19.19.19.49.19.49 0 .28-.18.47-.18.47-.18.19-.43.19-.43.19-.26 0-.44-.18-.44-.18-.18-.18-.18-.46-.18-.46zm0 0zm0 3.792c0-.305.19-.49.19-.49.19-.182.45-.182.45-.182.25 0 .44.183.44.183.19.184.19.49.19.49 0 .282-.18.466-.18.466-.18.184-.43.184-.43.184-.26 0-.44-.184-.44-.184-.18-.184-.18-.467-.18-.467zm4.06.525zm3.2-2.542v-1.943c0-.273.02-.646.02-.646.02-.38.04-.65.04-.65h-.04c-.12.24-.26.47-.26.47-.13.23-.28.47-.28.47l-1.56 2.29h2.1zm0 0zm1.74.693h-.91V758h-.82v-1.85H527v-.566l2.865-4.286h.967v4.16h.914v.693zm.3 1.85zm1.21-1.79c0 .29.11.52.11.52.11.23.31.41.31.41.2.18.46.27.46.27.26.1.57.1.57.1.59 0 .95-.32.95-.32.37-.32.37-.85.37-.85 0-.33-.14-.56-.14-.56-.15-.23-.4-.4-.4-.4-.25-.17-.58-.31-.58-.31-.33-.14-.69-.29-.69-.29-.4.28-.67.64-.67.64-.27.37-.27.83-.27.83zm0 0zm1.89-1.86c.34-.3.52-.64.52-.64.19-.33.19-.7.19-.7 0-.5-.3-.84-.3-.84-.3-.34-.86-.34-.86-.34-.47 0-.77.3-.77.3-.31.3-.31.79-.31.79 0 .31.13.52.13.52.13.22.34.38.34.38.22.17.5.3.5.3.28.13.59.25.59.25zm0 0zm-2.66 1.95c0-.32.11-.6.11-.6.11-.28.29-.5.29-.5.17-.22.4-.4.4-.4.23-.17.47-.3.47-.3v-.04c-.36-.26-.65-.63-.65-.63-.28-.37-.28-.91-.28-.91 0-.39.15-.7.15-.7.15-.31.4-.54.4-.54.25-.22.6-.35.6-.35.35-.12.76-.12.76-.12.44 0 .79.13.79.13.35.13.6.37.6.37.25.23.38.57.38.57.13.33.13.72.13.72 0 .27-.09.51-.09.51-.09.24-.22.45-.22.45-.13.21-.3.38-.3.38-.16.17-.32.28-.32.28v.05c.22.13.43.29.43.29.21.16.38.37.38.37.16.21.26.47.26.47.1.27.1.6.1.6 0 .38-.16.71-.16.71-.16.33-.44.57-.44.57-.28.24-.68.38-.68.38-.4.14-.88.14-.88.14-.47 0-.88-.13-.88-.13-.4-.13-.69-.38-.69-.38-.29-.25-.45-.58-.45-.58-.17-.34-.17-.74-.17-.74zm4.79 1.71zm.42-.51c.76-.75 1.35-1.36 1.35-1.36.59-.61.99-1.13.99-1.13.4-.52.61-.95.61-.95.21-.43.21-.84.21-.84 0-.58-.31-.94-.31-.94-.31-.37-.96-.37-.96-.37-.42 0-.77.24-.77.24-.35.24-.65.58-.65.58l-.49-.49c.42-.46.9-.74.9-.74.47-.27 1.14-.27 1.14-.27.93 0 1.47.54 1.47.54.53.54.53 1.44.53 1.44 0 .48-.2.95-.2.95-.2.48-.56.99-.56.99-.36.51-.86 1.06-.86 1.06-.5.56-1.1 1.18-1.1 1.18l.57-.04c.3-.02.56-.02.56-.02h1.9v.74h-4.33v-.51zm139.02.5zm3.88-2.8l-.32-1.05c-.18-.58-.35-1.15-.35-1.15-.17-.57-.33-1.17-.33-1.17h-.04c-.15.6-.32 1.17-.32 1.17-.17.57-.35 1.15-.35 1.15l-.33 1.05h2.07zm0 0zm.22.71h-2.51l-.66 2.1h-.89l2.34-6.89h.99l2.33 6.89h-.93zm1.62 2.1zm1.23.86c0 .41.4.65.4.65.39.24 1.09.24 1.09.24.37 0 .67-.09.67-.09.3-.09.51-.23.51-.23.21-.15.33-.33.33-.33.11-.19.11-.39.11-.39 0-.36-.26-.49-.26-.49-.26-.14-.76-.14-.76-.14h-.88c-.14 0-.32-.02-.32-.02-.17-.02-.34-.07-.34-.07-.27.2-.4.42-.4.42-.12.22-.12.44-.12.44zm0 0zm-.75.11c0-.33.2-.62.2-.62.2-.3.54-.54.54-.54v-.04c-.19-.12-.32-.32-.32-.32-.13-.21-.13-.51-.13-.51 0-.33.18-.57.18-.57.18-.24.38-.38.38-.38v-.04c-.25-.21-.45-.56-.45-.56-.2-.35-.2-.81-.2-.81 0-.42.15-.75.15-.75.15-.33.41-.57.41-.57.26-.23.61-.36.61-.36.35-.12.74-.12.74-.12.21 0 .39.04.39.04.19.04.33.09.33.09h1.78v.66h-1.05c.18.18.3.45.3.45.12.27.12.6.12.6 0 .41-.14.74-.14.74-.15.33-.4.56-.4.56-.25.23-.59.35-.59.35-.34.13-.73.13-.73.13-.19 0-.39-.04-.39-.04-.2-.05-.38-.13-.38-.13-.13.11-.23.25-.23.25-.09.14-.09.35-.09.35 0 .25.19.4.19.4.19.16.72.16.72.16h.99c.89 0 1.34.29 1.34.29.45.29.45.93.45.93 0 .36-.18.68-.18.68-.18.32-.51.56-.51.56-.33.24-.81.38-.81.38-.48.15-1.08.15-1.08.15-.47 0-.86-.09-.86-.09-.39-.09-.66-.26-.66-.26-.28-.18-.43-.43-.43-.43-.15-.25-.15-.59-.15-.59zm0 0zm2.11-3.17c.22 0 .41-.09.41-.09.2-.08.35-.24.35-.24.16-.16.24-.38.24-.38.09-.22.09-.51.09-.51 0-.56-.31-.87-.31-.87-.31-.31-.76-.31-.76-.31-.45 0-.76.31-.76.31-.31.31-.31.88-.31.88 0 .29.09.51.09.51.08.23.23.39.23.39.16.16.35.24.35.24.2.09.42.09.42.09zm2.71 2.19zm.86-5.11h.72l.08.93h.03c.27-.48.64-.76.64-.76.37-.28.81-.28.81-.28.31 0 .55.11.55.11l-.17.76c-.13-.04-.24-.06-.24-.06-.1-.02-.26-.02-.26-.02-.32 0-.68.26-.68.26-.35.26-.61.92-.61.92V758h-.86v-5.105zm2.68 5.11zm.49-2.54c0-.63.2-1.13.2-1.13.2-.5.52-.84.52-.84.32-.34.73-.53.73-.53.41-.18.85-.18.85-.18.49 0 .87.17.87.17.39.17.64.48.64.48.26.32.4.76.4.76.14.44.14.99.14.99 0 .29-.03.48-.03.48h-3.45c.06.83.51 1.31.51 1.31.46.48 1.19.48 1.19.48.36 0 .67-.11.67-.11.31-.11.6-.29.6-.29l.31.57c-.33.21-.74.37-.74.37-.41.16-.93.16-.93.16-.51 0-.96-.18-.96-.18-.45-.18-.78-.52-.78-.52-.33-.34-.52-.83-.52-.83-.19-.49-.19-1.12-.19-1.12zm0 0zm3.57-.39c0-.78-.33-1.2-.33-1.2-.33-.41-.93-.41-.93-.41-.27 0-.52.11-.52.11-.25.11-.44.32-.44.32-.2.21-.33.51-.33.51-.13.3-.17.69-.17.69h2.73zm1.15 2.94zm.49-2.54c0-.63.2-1.13.2-1.13.2-.49.52-.84.52-.84.33-.34.73-.53.73-.53.41-.18.86-.18.86-.18.48 0 .87.17.87.17.38.17.64.49.64.49.26.32.39.76.39.76.14.44.14.99.14.99 0 .29-.03.48-.03.48h-3.45c.06.83.51 1.32.51 1.32.46.48 1.19.48 1.19.48.37 0 .68-.11.68-.11.31-.11.6-.29.6-.29l.31.57c-.34.21-.75.37-.75.37-.41.16-.93.16-.93.16-.51 0-.96-.18-.96-.18-.45-.19-.78-.53-.78-.53-.33-.34-.52-.83-.52-.83-.19-.49-.19-1.12-.19-1.12zm0 0zm3.57-.39c0-.78-.33-1.2-.33-1.2-.33-.41-.93-.41-.93-.41-.27 0-.52.11-.52.11-.25.11-.45.32-.45.32-.2.21-.33.51-.33.51-.13.3-.17.69-.17.69h2.73zm1.15 2.94zm.69-4.31c0-.3.19-.49.19-.49.18-.18.45-.18.45-.18.25 0 .44.19.44.19.18.19.18.49.18.49 0 .28-.18.47-.18.47-.18.19-.44.19-.44.19-.26 0-.45-.18-.45-.18-.18-.19-.18-.47-.18-.47zm0 0zm0 3.8c0-.3.19-.49.19-.49.18-.18.45-.18.45-.18.25 0 .44.19.44.19.18.19.18.49.18.49 0 .28-.18.47-.18.47-.18.19-.44.19-.44.19-.26 0-.45-.18-.45-.18-.18-.18-.18-.46-.18-.46zm4.06.53zm.69-1.35c.29.31.69.54.69.54.41.24.99.24.99.24.31 0 .58-.11.58-.11.27-.11.47-.31.47-.31.2-.2.32-.48.32-.48.12-.28.12-.63.12-.63 0-.69-.39-1.08-.39-1.08-.39-.39-1.04-.39-1.04-.39-.34 0-.59.11-.59.11-.25.11-.55.31-.55.31l-.46-.29.22-3.23h3.35v.74h-2.6l-.18 1.99c.24-.13.49-.2.49-.2.24-.08.54-.08.54-.08.43 0 .81.13.81.13.38.13.66.38.66.38.29.26.45.65.45.65.17.39.17.94.17.94 0 .55-.19.97-.19.97-.19.42-.51.71-.51.71-.32.28-.72.44-.72.44-.41.15-.85.15-.85.15-.4 0-.73-.08-.73-.08-.33-.08-.6-.21-.6-.21-.27-.12-.48-.28-.48-.28-.21-.16-.38-.34-.38-.34zm4.53 1.36zm.42-.51c.76-.75 1.35-1.36 1.35-1.36.59-.61.99-1.13.99-1.13.4-.52.61-.95.61-.95.21-.43.21-.84.21-.84 0-.58-.31-.95-.31-.95-.31-.37-.95-.37-.95-.37-.42 0-.78.23-.78.23-.36.24-.65.58-.65.58l-.5-.49c.42-.46.89-.74.89-.74.48-.28 1.14-.28 1.14-.28.94 0 1.47.54 1.47.54.54.55.54 1.44.54 1.44 0 .47-.2.95-.2.95-.2.48-.57.99-.57.99-.36.51-.86 1.06-.86 1.06-.5.55-1.1 1.17-1.1 1.17l.57-.04c.29-.02.56-.02.56-.02h1.94v.75h-4.33v-.52zm4.8.52zm.68-1.35c.3.31.7.54.7.54.41.24.99.24.99.24.31 0 .58-.11.58-.11.27-.11.47-.31.47-.31.2-.2.31-.48.31-.48.12-.28.12-.63.12-.63 0-.69-.39-1.08-.39-1.08-.39-.39-1.04-.39-1.04-.39-.35 0-.59.11-.59.11-.25.11-.55.31-.55.31l-.47-.29.22-3.22h3.35v.75h-2.6l-.17 1.98c.24-.13.48-.2.48-.2.25-.07.55-.07.55-.07.43 0 .81.13.81.13.38.13.66.39.66.39.29.26.45.65.45.65.16.4.16.94.16.94 0 .55-.19.97-.19.97-.19.42-.5.71-.5.71-.31.29-.72.44-.72.44-.4.15-.84.15-.84.15-.4 0-.73-.08-.73-.08-.33-.08-.6-.2-.6-.2-.26-.12-.48-.28-.48-.28-.21-.16-.38-.34-.38-.34zm126.43 1.3zm.97-1.5c.37.39.87.63.87.63.5.24 1.04.24 1.04.24.69 0 1.06-.31 1.06-.31.38-.31.38-.82.38-.82 0-.26-.09-.45-.09-.45-.09-.19-.24-.32-.24-.32-.15-.13-.36-.24-.36-.24-.21-.11-.45-.22-.45-.22l-.98-.43c-.24-.11-.49-.26-.49-.26-.25-.15-.45-.36-.45-.36-.2-.21-.32-.5-.32-.5-.12-.29-.12-.67-.12-.67 0-.39.17-.73.17-.73.16-.34.45-.59.45-.59.29-.25.69-.39.69-.39.39-.14.87-.14.87-.14.62 0 1.15.23 1.15.23.53.24.89.61.89.61l-.47.56c-.31-.31-.7-.48-.7-.48-.38-.17-.86-.17-.86-.17-.58 0-.93.26-.93.26-.35.27-.35.74-.35.74 0 .26.1.43.1.43.1.17.27.3.27.3.17.14.37.23.37.23.2.1.41.19.41.19l.98.42c.3.13.56.29.56.29.26.16.45.38.45.38.19.22.3.51.3.51.11.29.11.67.11.67 0 .41-.16.77-.16.77-.16.36-.47.62-.47.62-.3.27-.73.42-.73.42-.43.15-.98.15-.98.15-.72 0-1.34-.27-1.34-.27-.62-.27-1.07-.74-1.07-.74zm4.64 1.5zm1.01-4.4h-.76v-.65l.8-.05.11-1.43h.73v1.43h1.37v.71h-1.37v2.83c0 .47.17.73.17.73.17.25.61.25.61.25.13 0 .29-.04.29-.04.16-.05.28-.1.28-.1l.17.65c-.21.07-.46.13-.46.13-.25.05-.49.05-.49.05-.41 0-.69-.13-.69-.13-.28-.13-.45-.35-.45-.35-.18-.22-.25-.54-.25-.54-.07-.32-.07-.7-.07-.7v-2.82zm2.54 4.4zm.86-5.1h.72l.08.93h.03c.27-.49.64-.77.64-.77.38-.29.82-.29.82-.29.3 0 .54.1.54.1l-.17.75-.23-.07c-.11-.02-.27-.02-.27-.02-.33 0-.68.26-.68.26-.35.26-.62.91-.62.91v3.3h-.86v-5.11zm2.68 5.11zm.49-2.54c0-.64.2-1.14.2-1.14.2-.5.52-.84.52-.84.33-.34.75-.52.75-.52.43-.18.9-.18.9-.18.47 0 .9.18.9.18.43.18.75.53.75.53.33.35.52.85.52.85.2.5.2 1.14.2 1.14 0 .63-.2 1.13-.2 1.13-.2.5-.52.84-.52.84-.33.34-.75.52-.75.52-.43.18-.9.18-.9.18-.47 0-.9-.18-.9-.18-.43-.17-.75-.52-.75-.52-.33-.34-.52-.84-.52-.84-.2-.49-.2-1.12-.2-1.12zm0 0zm.9 0c0 .44.11.8.11.8.11.36.3.62.3.62.2.26.47.4.47.4.27.15.6.15.6.15.33 0 .6-.14.6-.14.27-.14.47-.4.47-.4.2-.25.3-.61.3-.61.11-.35.11-.8.11-.8 0-.44-.1-.8-.1-.8-.1-.36-.3-.62-.3-.62-.19-.26-.46-.4-.46-.4-.27-.14-.6-.14-.6-.14-.32 0-.59.14-.59.14-.27.14-.47.41-.47.41-.19.26-.3.63-.3.63-.1.37-.1.81-.1.81zm4.32 2.54zm.86-5.1h.72l.07.74h.04c.37-.36.77-.61.77-.61.41-.24.94-.24.94-.24.81 0 1.18.5 1.18.5.37.5.37 1.49.37 1.49v3.2h-.86v-3.12c0-.72-.23-1.04-.23-1.04-.23-.32-.73-.32-.73-.32-.4 0-.7.2-.7.2-.3.2-.69.59-.69.59V758h-.86v-5.105zm4.89 5.1zm1.23.86c0 .41.4.66.4.66.4.24 1.09.24 1.09.24.37 0 .67-.09.67-.09.3-.09.51-.23.51-.23.21-.14.33-.33.33-.33.12-.19.12-.39.12-.39 0-.35-.26-.49-.26-.49-.26-.13-.76-.13-.76-.13h-.88c-.14 0-.32-.01-.32-.01-.17-.01-.34-.07-.34-.07-.27.2-.4.42-.4.42-.12.22-.12.44-.12.44zm0 0zm-.75.12c0-.32.2-.62.2-.62.2-.29.55-.53.55-.53v-.04c-.19-.11-.32-.32-.32-.32-.13-.2-.13-.51-.13-.51 0-.32.18-.57.18-.57.18-.24.38-.38.38-.38v-.04c-.25-.21-.45-.56-.45-.56-.2-.35-.2-.81-.2-.81 0-.42.15-.75.15-.75.15-.34.42-.57.42-.57.27-.23.62-.36.62-.36.36-.12.74-.12.74-.12.21 0 .4.03.4.03.19.03.33.09.33.09h1.78v.66h-1.05c.18.18.3.45.3.45.12.27.12.6.12.6 0 .41-.14.74-.14.74-.15.33-.4.55-.4.55-.26.22-.6.35-.6.35-.34.12-.73.12-.73.12-.19 0-.39-.05-.39-.05-.2-.05-.38-.13-.38-.13-.14.11-.23.25-.23.25-.1.14-.1.35-.1.35 0 .24.19.4.19.4.19.16.71.16.71.16h.98c.89 0 1.34.29 1.34.29.45.28.45.92.45.92 0 .35-.18.67-.18.67-.18.32-.52.56-.52.56-.34.24-.82.38-.82.38-.48.14-1.08.14-1.08.14-.47 0-.86-.09-.86-.09-.39-.09-.67-.27-.67-.27-.28-.18-.43-.43-.43-.43-.15-.25-.15-.59-.15-.59zm0 0zm2.11-3.17c.22 0 .42-.08.42-.08.19-.08.34-.24.34-.24.15-.16.23-.38.23-.38.08-.22.08-.51.08-.51 0-.56-.32-.87-.32-.87-.32-.31-.77-.31-.77-.31-.46 0-.77.31-.77.31-.32.31-.32.88-.32.88 0 .29.08.51.08.51.08.23.24.39.24.39.15.16.35.24.35.24.19.09.41.09.41.09zm2.71 2.2zm.86-7.48h.86v6.52c0 .21.08.3.08.3.08.09.17.09.17.09h.08l.11-.02.11.65c-.08.04-.2.06-.2.06-.11.02-.29.02-.29.02-.49 0-.7-.29-.7-.29-.21-.3-.21-.86-.21-.86v-6.45zm1.82 7.48zm.52 1.41l.19.05.2.03c.44 0 .72-.31.72-.31.28-.31.44-.78.44-.78l.12-.38-2.05-5.11h.89l1.04 2.83.25.71c.13.37.25.73.25.73h.04c.12-.34.22-.72.22-.72.11-.38.21-.71.21-.71l.92-2.82h.84l-1.92 5.53c-.13.38-.3.7-.3.7-.17.33-.4.56-.4.56-.23.24-.52.38-.52.38-.29.14-.68.14-.68.14-.18 0-.32-.02-.32-.02-.15-.02-.27-.08-.27-.08l.17-.68zm6.51-1.41zm.61-1.32c0-.84.75-1.28.75-1.28.75-.44 2.39-.62 2.39-.62 0-.24-.05-.47-.05-.47-.04-.23-.17-.41-.17-.41-.12-.17-.32-.29-.32-.29-.2-.11-.51-.11-.51-.11-.45 0-.84.17-.84.17-.39.17-.69.38-.69.38l-.35-.6c.35-.23.87-.45.87-.45.51-.22 1.13-.22 1.13-.22.93 0 1.35.57 1.35.57.42.57.42 1.53.42 1.53v3.1h-.72l-.08-.61h-.02c-.37.31-.8.52-.8.52-.43.22-.9.22-.9.22-.65 0-1.08-.38-1.08-.38-.43-.38-.43-1.07-.43-1.07zm0 0zm.85-.06c0 .45.26.63.26.63.26.19.64.19.64.19.37 0 .7-.17.7-.17.33-.17.7-.51.7-.51v-1.41c-.64.09-1.08.2-1.08.2-.44.12-.71.28-.71.28-.26.16-.38.37-.38.37-.11.21-.11.45-.11.45zm3.92 1.39zm1.23.86c0 .41.39.66.39.66.4.24 1.09.24 1.09.24.37 0 .67-.09.67-.09.3-.09.51-.23.51-.23.21-.14.33-.33.33-.33.12-.19.12-.39.12-.39 0-.36-.26-.49-.26-.49-.26-.13-.76-.13-.76-.13H891c-.14 0-.32-.01-.32-.01-.17-.01-.34-.07-.34-.07-.27.2-.4.42-.4.42-.12.22-.12.44-.12.44zm0 0zm-.76.12c0-.32.2-.62.2-.62.2-.29.55-.53.55-.53v-.04c-.19-.12-.32-.32-.32-.32-.13-.21-.13-.51-.13-.51 0-.33.18-.57.18-.57.18-.24.38-.38.38-.38V756c-.25-.21-.45-.564-.45-.564-.2-.35-.2-.813-.2-.813 0-.42.16-.756.16-.756.16-.337.42-.57.42-.57.27-.24.62-.36.62-.36.35-.13.74-.13.74-.13.21 0 .4.03.4.03.18.03.33.09.33.09h1.78v.66h-1.05c.18.18.3.45.3.45.12.27.12.6.12.6 0 .41-.14.74-.14.74-.14.33-.4.55-.4.55-.25.22-.59.35-.59.35-.34.12-.73.12-.73.12-.19 0-.39-.05-.39-.05-.19-.05-.37-.13-.37-.13-.13.11-.23.25-.23.25-.09.14-.09.35-.09.35 0 .24.19.4.19.4.19.16.72.16.72.16h.99c.89 0 1.34.29 1.34.29.45.28.45.92.45.92 0 .35-.18.67-.18.67-.18.32-.51.56-.51.56-.34.24-.82.38-.82.38-.47.14-1.07.14-1.07.14-.47 0-.86-.09-.86-.09-.39-.09-.67-.27-.67-.27-.28-.18-.43-.43-.43-.43-.15-.25-.15-.59-.15-.59zm0 0zm2.11-3.17c.22 0 .42-.08.42-.08.2-.08.35-.24.35-.24.15-.16.24-.38.24-.38.09-.22.09-.51.09-.51 0-.56-.31-.87-.31-.87-.31-.31-.76-.31-.76-.31-.45 0-.76.31-.76.31-.31.31-.31.88-.31.88 0 .29.09.51.09.51.09.23.24.39.24.39.15.16.35.24.35.24.19.09.42.09.42.09zm2.71 2.2zm.86-5.1h.72l.08.93h.03c.27-.49.64-.77.64-.77.38-.29.82-.29.82-.29.31 0 .55.1.55.1l-.17.75c-.12-.04-.23-.07-.23-.07-.1-.02-.26-.02-.26-.02-.32 0-.68.26-.68.26-.35.26-.61.91-.61.91v3.3h-.86v-5.11zm2.68 5.11zm.49-2.54c0-.63.2-1.13.2-1.13.2-.5.52-.84.52-.84.32-.35.73-.53.73-.53.41-.186.85-.186.85-.186.49 0 .87.16.87.16.39.17.64.48.64.48.26.31.4.75.4.75.14.44.14.98.14.98 0 .28-.03.47-.03.47h-3.45c.06.83.51 1.31.51 1.31.46.48 1.19.48 1.19.48.37 0 .68-.11.68-.11.31-.11.6-.29.6-.29l.31.56c-.33.21-.74.37-.74.37-.41.16-.93.16-.93.16-.51 0-.96-.19-.96-.19-.45-.19-.78-.53-.78-.53-.33-.34-.52-.84-.52-.84-.19-.5-.19-1.13-.19-1.13zm0 0zm3.57-.39c0-.78-.33-1.2-.33-1.2-.33-.41-.93-.41-.93-.41-.27 0-.52.11-.52.11-.25.11-.44.32-.44.32-.2.207-.33.506-.33.506-.13.3-.17.69-.17.69h2.73zm1.15 2.93zm.49-2.54c0-.63.2-1.13.2-1.13.2-.5.52-.84.52-.84.32-.35.73-.53.73-.53.41-.186.85-.186.85-.186.49 0 .87.16.87.16.39.17.64.48.64.48.26.31.4.75.4.75.14.44.14.98.14.98 0 .28-.03.47-.03.47h-3.44c.06.83.51 1.31.51 1.31.46.48 1.19.48 1.19.48.37 0 .68-.11.68-.11.31-.11.6-.29.6-.29l.31.56c-.33.21-.74.37-.74.37-.41.16-.94.16-.94.16-.51 0-.96-.19-.96-.19-.44-.19-.78-.53-.78-.53-.33-.34-.52-.84-.52-.84-.19-.5-.19-1.13-.19-1.13zm0 0zm3.57-.39c0-.78-.33-1.2-.33-1.2-.33-.41-.93-.41-.93-.41-.27 0-.52.11-.52.11-.25.11-.44.32-.44.32-.2.207-.33.506-.33.506-.13.3-.17.69-.17.69h2.73zm1.15 2.93zm.69-4.31c0-.31.19-.49.19-.49.19-.18.45-.18.45-.18.25 0 .44.19.44.19.18.19.18.49.18.49 0 .28-.19.47-.19.47-.18.19-.43.19-.43.19-.26 0-.45-.18-.45-.18-.18-.18-.18-.46-.18-.46zm0 0zm0 3.79c0-.305.19-.49.19-.49.19-.18.45-.18.45-.18.25 0 .44.18.44.18.18.18.18.49.18.49 0 .28-.19.465-.19.465-.18.183-.43.183-.43.183-.26 0-.45-.184-.45-.184-.18-.18-.18-.465-.18-.465zm4.06.525zm1.21-1.8c0 .286.11.52.11.52.11.23.31.4.31.4.2.17.46.27.46.27.26.09.57.09.57.09.59 0 .95-.33.95-.33.37-.33.37-.85.37-.85 0-.33-.15-.56-.15-.56-.14-.23-.4-.41-.4-.41-.25-.18-.58-.32-.58-.32-.33-.15-.69-.29-.69-.29-.4.27-.66.63-.66.63-.26.36-.26.82-.26.82zm0 0zm1.89-1.86c.34-.3.52-.64.52-.64.19-.33.19-.7.19-.7 0-.506-.3-.85-.3-.85-.3-.34-.86-.34-.86-.34-.47 0-.78.295-.78.295-.3.295-.3.79-.3.79 0 .303.13.52.13.52.13.214.34.382.34.382.22.17.5.3.5.3.28.13.59.25.59.25zm0 0zm-2.66 1.95c0-.33.11-.606.11-.606.11-.28.28-.5.28-.5.18-.22.4-.4.4-.4.23-.17.47-.3.47-.3v-.04c-.37-.26-.66-.634-.66-.634-.28-.373-.28-.91-.28-.91 0-.39.15-.704.15-.704.15-.31.4-.54.4-.54.25-.22.6-.35.6-.35.35-.12.76-.12.76-.12.44 0 .79.13.79.13.35.14.59.37.59.37.25.24.38.57.38.57.13.33.13.72.13.72 0 .26-.09.51-.09.51-.09.24-.22.45-.22.45-.13.21-.29.38-.29.38-.16.17-.32.28-.32.28v.04c.22.13.43.29.43.29.21.16.37.37.37.37.16.21.26.47.26.47.1.27.1.6.1.6 0 .38-.16.71-.16.71-.16.33-.44.57-.44.57-.28.25-.68.38-.68.38-.4.14-.88.14-.88.14-.47 0-.88-.14-.88-.14-.4-.13-.69-.38-.69-.38-.29-.24-.45-.58-.45-.58-.17-.33-.17-.73-.17-.73zm4.79 1.71zm.42-.515c.76-.755 1.35-1.364 1.35-1.364.59-.61.99-1.13.99-1.13.4-.52.61-.95.61-.95.21-.435.21-.845.21-.845 0-.58-.31-.95-.31-.95-.31-.37-.95-.37-.95-.37-.43 0-.78.23-.78.23-.36.23-.65.57-.65.57l-.5-.5c.42-.46.89-.74.89-.74.47-.28 1.14-.28 1.14-.28.94 0 1.47.54 1.47.54.54.54.54 1.43.54 1.43 0 .47-.2.95-.2.95-.21.48-.57.98-.57.98-.36.51-.86 1.06-.86 1.06-.5.55-1.1 1.17-1.1 1.17l.57-.04c.29-.02.55-.02.55-.02h1.95v.75h-4.33v-.52z"/></svg>