<svg xmlns="http://www.w3.org/2000/svg" stroke="#000" viewBox="0 0 1024 768" font-size="1"><path fill="#FFF" stroke="none" d="M0 0v768h1024V0z"/><path stroke="none" d="M311.51 14.102zm1.186-10.04h2.263V14.1h-2.27V4.062zm6.653 10.04zm.55-3.82c0-.955.32-1.7.32-1.7.32-.748.87-1.257.87-1.257.54-.508 1.27-.777 1.27-.777.72-.27 1.51-.27 1.51-.27.71 0 1.28.24 1.28.24.57.238.95.638.95.638l-1.04 1.4c-.54-.445-1.06-.445-1.06-.445-.83 0-1.31.59-1.31.59-.48.59-.48 1.59-.48 1.59 0 1 .48 1.59.48 1.59.48.59 1.22.59 1.22.59.41 0 .75-.17.75-.17.34-.17.61-.38.61-.38l.91 1.43c-.55.5-1.23.73-1.23.73-.68.23-1.31.23-1.31.23-.8 0-1.48-.27-1.48-.27-.69-.27-1.2-.77-1.2-.77-.51-.51-.8-1.26-.8-1.26-.29-.75-.29-1.7-.29-1.7zm6.48 3.82zm.72-2.126c0-1.2 1.01-1.88 1.01-1.88 1.01-.676 3.28-.907 3.28-.907-.03-.51-.31-.81-.31-.81-.28-.3-.9-.3-.9-.3-.5 0-.99.18-.99.18-.49.18-1.05.51-1.05.51l-.8-1.5c.74-.45 1.54-.73 1.54-.73.81-.28 1.72-.28 1.72-.28 1.48 0 2.26.84 2.26.84.78.84.78 2.61.78 2.61v4.38h-1.85l-.17-.79h-.05c-.5.43-1.04.7-1.04.7-.55.27-1.2.27-1.2.27-.52 0-.94-.18-.94-.18-.42-.18-.71-.5-.71-.5-.3-.32-.46-.73-.46-.73-.16-.42-.16-.91-.16-.91zm0 0zm2.15-.17c0 .37.24.548.24.548.24.177.64.177.64.177.4 0 .68-.17.68-.17.27-.16.58-.47.58-.47v-1.34c-1.22.17-1.68.5-1.68.5-.46.33-.46.77-.46.77zm5.34 2.296zm1-7.64h1.85l.15.97h.06c.49-.46 1.08-.807 1.08-.807.58-.347 1.37-.347 1.37-.347 1.24 0 1.81.816 1.81.816.56.817.56 2.264.56 2.264v4.744h-2.27v-4.45c0-.833-.22-1.14-.22-1.14-.23-.31-.72-.31-.72-.31-.43 0-.74.194-.74.194-.31.192-.68.547-.68.547v5.16h-2.26v-7.64zm11.01 7.64zm.55-3.82c0-.924.31-1.67.31-1.67.31-.748.81-1.263.81-1.263.5-.52 1.14-.8 1.14-.8.65-.28 1.34-.28 1.34-.28.82 0 1.42.28 1.42.28.61.27 1.02.77 1.02.77.4.49.6 1.16.6 1.16.2.67.2 1.45.2 1.45 0 .31-.03.56-.03.56-.03.25-.06.39-.06.39h-4.58c.15.88.68 1.27.68 1.27.53.39 1.3.39 1.3.39.81 0 1.65-.51 1.65-.51l.75 1.37c-.59.4-1.31.63-1.31.63-.72.23-1.41.23-1.41.23-.82 0-1.52-.27-1.52-.27-.71-.27-1.23-.79-1.23-.79-.52-.52-.82-1.26-.82-1.26-.3-.74-.3-1.69-.3-1.69zm0 0zm4.93-.785c0-.662-.29-1.078-.29-1.078-.29-.42-.99-.42-.99-.42-.54 0-.95.36-.95.36-.41.36-.53 1.13-.53 1.13h2.75zm2.32 4.605zm.72-2.126c0-1.2 1.02-1.88 1.02-1.88 1.02-.676 3.28-.907 3.28-.907-.03-.51-.31-.81-.31-.81-.28-.3-.89-.3-.89-.3-.5 0-.99.18-.99.18-.49.18-1.05.51-1.05.51l-.8-1.5c.74-.45 1.54-.73 1.54-.73.81-.28 1.72-.28 1.72-.28 1.48 0 2.26.84 2.26.84.77.84.77 2.61.77 2.61v4.38h-1.85l-.17-.79h-.05c-.49.43-1.04.7-1.04.7-.55.27-1.19.27-1.19.27-.53 0-.94-.18-.94-.18-.42-.18-.71-.5-.71-.5-.29-.32-.46-.73-.46-.73-.16-.42-.16-.91-.16-.91zm0 0zm2.16-.17c0 .37.24.548.24.548.24.177.64.177.64.177.4 0 .68-.17.68-.17.27-.16.58-.47.58-.47v-1.34c-1.22.17-1.68.5-1.68.5-.47.33-.47.77-.47.77zm5.34 2.296zm1.34-2.295c.52.4 1 .6 1 .6.48.2.97.2.97.2.51 0 .74-.17.74-.17.23-.168.23-.476.23-.476 0-.18-.13-.33-.13-.33-.13-.14-.36-.27-.36-.27-.23-.12-.5-.22-.5-.22-.28-.1-.57-.22-.57-.22-.36-.14-.71-.32-.71-.32-.36-.18-.65-.45-.65-.45-.3-.27-.48-.63-.48-.63-.19-.36-.19-.84-.19-.84 0-.52.21-.97.21-.97.21-.44.6-.75.6-.75.39-.3.93-.48.93-.48.54-.17 1.2-.17 1.2-.17.88 0 1.54.3 1.54.3.66.3 1.16.67 1.16.67l-1.02 1.36c-.42-.31-.82-.48-.82-.48-.4-.17-.8-.17-.8-.17-.86 0-.86.61-.86.61 0 .19.12.32.12.32.12.13.33.24.33.24.2.11.47.21.47.21l.56.21c.37.14.73.32.73.32.36.18.66.44.66.44.3.26.48.64.48.64.18.38.18.9.18.9 0 .53-.2.97-.2.97-.2.45-.6.78-.6.78-.4.33-.99.52-.99.52-.59.19-1.36.19-1.36.19-.76 0-1.55-.29-1.55-.29-.79-.29-1.38-.77-1.38-.77zm5.48 2.295zm2.13-8.762c-.57 0-.94-.334-.94-.334-.37-.33-.37-.855-.37-.855 0-.52.37-.84.37-.84.37-.32.94-.32.94-.32.59 0 .95.33.95.33.36.33.36.85.36.85 0 .53-.36.86-.36.86-.37.33-.95.33-.95.33zm0 0zm-1.12 1.12h2.26v7.64h-2.26V6.46zm3.25 7.64zm1-10.797h2.26v8.516c0 .35.13.49.13.49.13.14.27.14.27.14h.13l.14-.03.28 1.68c-.18.07-.47.13-.47.13-.28.05-.67.05-.67.05-.58 0-.98-.19-.98-.19-.4-.19-.64-.52-.64-.52-.24-.33-.35-.8-.35-.8-.11-.47-.11-1.06-.11-1.06V3.3zm3.41 10.797zm1.17 1.11c.11.03.25.06.25.06.14.03.26.03.26.03.57 0 .88-.28.88-.28.31-.28.46-.73.46-.73l.11-.4-2.94-7.44h2.28l1.09 3.28c.17.524.3 1.063.3 1.063.14.54.29 1.11.29 1.11h.06c.12-.54.25-1.087.25-1.087.13-.548.27-1.087.27-1.087l.92-3.28h2.17l-2.65 7.72c-.28.72-.58 1.27-.58 1.27-.3.54-.7.91-.7.91-.39.36-.89.54-.89.54-.5.18-1.18.18-1.18.18-.36 0-.6-.04-.6-.04-.25-.04-.48-.12-.48-.12l.4-1.73zm10.06-1.11zm.55-3.82c0-.96.32-1.7.32-1.7.32-.75.87-1.26.87-1.26.54-.51 1.27-.78 1.27-.78.72-.27 1.51-.27 1.51-.27.7 0 1.27.24 1.27.24.57.24.95.64.95.64l-1.04 1.4c-.54-.45-1.06-.45-1.06-.45-.83 0-1.31.584-1.31.584-.48.586-.48 1.587-.48 1.587 0 1 .49 1.59.49 1.59.48.59 1.22.59 1.22.59.41 0 .75-.17.75-.17.34-.17.61-.38.61-.38l.9 1.43c-.55.49-1.23.73-1.23.73-.68.23-1.31.23-1.31.23-.8 0-1.48-.27-1.48-.27-.68-.27-1.19-.78-1.19-.78-.51-.51-.8-1.25-.8-1.25-.29-.75-.29-1.7-.29-1.7zm6.2 3.82zm.55-3.82c0-.96.31-1.7.31-1.7.31-.75.82-1.26.82-1.26.51-.51 1.19-.78 1.19-.78.67-.27 1.4-.27 1.4-.27.72 0 1.39.27 1.39.27.67.27 1.18.772 1.18.772.51.51.82 1.256.82 1.256.31.746.31 1.7.31 1.7 0 .956-.31 1.703-.31 1.703-.31.75-.83 1.26-.83 1.26-.52.51-1.19.78-1.19.78-.67.27-1.39.27-1.39.27-.73 0-1.4-.27-1.4-.27-.68-.27-1.2-.77-1.2-.77-.51-.51-.82-1.25-.82-1.25-.31-.74-.31-1.7-.31-1.7zm0 0zm2.32 0c0 1 .35 1.58.35 1.58.34.58 1.05.58 1.05.58.7 0 1.05-.585 1.05-.585.36-.585.36-1.586.36-1.586 0-1-.35-1.59-.35-1.59-.36-.59-1.05-.59-1.05-.59-.71 0-1.06.58-1.06.58-.35.58-.35 1.58-.35 1.58zm5.67 3.82zm1-7.64h1.85l.15.98h.06c.48-.48 1.02-.83 1.02-.83.54-.346 1.29-.346 1.29-.346.82 0 1.32.33 1.32.33.5.332.8.95.8.95.51-.524 1.07-.9 1.07-.9.56-.38 1.33-.38 1.33-.38 1.23 0 1.81.825 1.81.825.58.82.58 2.25.58 2.25v4.75h-2.27V9.65c0-.833-.23-1.14-.23-1.14-.23-.31-.72-.31-.72-.31-.57 0-1.31.74-1.31.74v5.16h-2.26V9.65c0-.833-.22-1.14-.22-1.14-.22-.31-.72-.31-.72-.31-.59 0-1.3.74-1.3.74v5.16h-2.27V6.46zm12.2 7.64zm3.26.6v2.23h-2.27V6.46h1.85l.15.756h.06c.44-.4 1.01-.67 1.01-.67.56-.27 1.16-.27 1.16-.27.7 0 1.25.276 1.25.276.56.278.94.786.94.786.39.51.6 1.23.6 1.23.21.715.21 1.593.21 1.593 0 .99-.27 1.75-.27 1.75-.27.77-.73 1.3-.73 1.3-.46.54-1.04.81-1.04.81-.58.28-1.19.28-1.19.28-.49 0-.96-.21-.96-.21-.46-.21-.86-.59-.86-.59zm0 0zm0-2.76c.31.27.61.38.61.38.31.105.6.105.6.105.58 0 1-.53 1-.53.41-.53.41-1.718.41-1.718 0-2.066-1.33-2.066-1.33-2.066-.67 0-1.31.7-1.31.7v3.13zm5.39 2.15zm.72-2.127c0-1.2 1.01-1.88 1.01-1.88 1.02-.676 3.28-.907 3.28-.907-.03-.51-.31-.81-.31-.81-.28-.3-.9-.3-.9-.3-.5 0-.99.185-.99.185-.5.19-1.05.51-1.05.51l-.8-1.49c.74-.45 1.54-.72 1.54-.72.81-.27 1.72-.27 1.72-.27 1.48 0 2.25.84 2.25.84.78.84.78 2.61.78 2.61v4.38h-1.85l-.17-.78h-.05c-.49.44-1.04.7-1.04.7-.55.27-1.19.27-1.19.27-.53 0-.94-.17-.94-.17-.42-.17-.71-.49-.71-.49-.3-.31-.46-.73-.46-.73-.17-.41-.17-.9-.17-.9zm0 0zm2.15-.17c0 .37.24.55.24.55.24.175.64.175.64.175.4 0 .68-.17.68-.17.28-.17.59-.477.59-.477v-1.34c-1.22.17-1.68.49-1.68.49-.47.33-.47.77-.47.77zm5.34 2.296zm1-7.64h1.85l.15 1.34h.06c.41-.79 1-1.15 1-1.15.58-.37 1.17-.37 1.17-.37.32 0 .53.04.53.04.21.03.37.11.37.11l-.37 1.95c-.22-.07-.4-.1-.4-.1-.19-.03-.43-.03-.43-.03-.43 0-.9.3-.9.3-.47.3-.78 1.09-.78 1.09v4.44h-2.27V6.46zm4.98 7.64zm.55-3.82c0-.92.31-1.67.31-1.67.31-.75.81-1.26.81-1.26.5-.52 1.14-.8 1.14-.8.65-.28 1.34-.28 1.34-.28.82 0 1.43.28 1.43.28.61.27 1.02.77 1.02.77.4.49.6 1.16.6 1.16.2.67.2 1.45.2 1.45 0 .31-.03.56-.03.56-.03.25-.06.39-.06.39h-4.58c.15.87.68 1.27.68 1.27.53.39 1.3.39 1.3.39.82 0 1.65-.51 1.65-.51l.75 1.37c-.59.4-1.3.63-1.3.63-.72.23-1.41.23-1.41.23-.82 0-1.53-.27-1.53-.27-.71-.27-1.23-.79-1.23-.79-.53-.51-.82-1.25-.82-1.25-.29-.74-.29-1.7-.29-1.7zm0 0zm4.93-.79c0-.66-.3-1.08-.3-1.08-.29-.42-.99-.42-.99-.42-.54 0-.94.36-.94.36-.41.36-.53 1.13-.53 1.13h2.75zm5.7 4.6zm1.18-10.04h2.26v3.87h3.46V4.06h2.28v10.042h-2.28v-4.19h-3.46v4.19h-2.27V4.062zm9.19 10.04zm.72-2.13c0-1.2 1.02-1.88 1.02-1.88 1.01-.68 3.28-.91 3.28-.91-.03-.51-.31-.81-.31-.81-.28-.3-.89-.3-.89-.3-.5 0-.99.18-.99.18-.49.18-1.05.51-1.05.51l-.8-1.49c.74-.45 1.54-.73 1.54-.73.81-.28 1.72-.28 1.72-.28 1.48 0 2.26.84 2.26.84.78.84.78 2.61.78 2.61v4.38h-1.85l-.17-.79h-.04c-.49.43-1.04.7-1.04.7-.55.27-1.19.27-1.19.27-.53 0-.94-.18-.94-.18-.42-.18-.71-.5-.71-.5-.3-.32-.46-.74-.46-.74-.16-.41-.16-.9-.16-.9zm0 0zm2.16-.17c0 .37.24.55.24.55.24.17.64.17.64.17.4 0 .67-.17.67-.17.27-.17.58-.48.58-.48v-1.34c-1.22.17-1.68.49-1.68.49-.46.32-.46.77-.46.77zm5.34 2.29zm1.34-2.3c.52.4 1 .6 1 .6.48.2.97.2.97.2.51 0 .74-.17.74-.17.23-.17.23-.48.23-.48 0-.19-.13-.33-.13-.33-.13-.15-.36-.27-.36-.27-.23-.13-.5-.23-.5-.23-.28-.1-.57-.23-.57-.23-.36-.14-.71-.33-.71-.33-.36-.19-.65-.46-.65-.46-.3-.27-.48-.63-.48-.63-.19-.36-.19-.84-.19-.84 0-.52.21-.97.21-.97.2-.45.59-.75.59-.75.38-.31.92-.48.92-.48.54-.18 1.2-.18 1.2-.18.88 0 1.54.3 1.54.3.66.3 1.15.67 1.15.67l-1.02 1.36c-.42-.31-.82-.48-.82-.48-.4-.17-.8-.17-.8-.17-.86 0-.86.6-.86.6 0 .18.12.31.12.31.12.13.33.24.33.24.21.11.48.21.48.21l.56.21c.37.14.73.31.73.31.36.18.66.44.66.44.3.26.49.64.49.64.18.37.18.9.18.9 0 .52-.2.97-.2.97-.2.44-.6.77-.6.77-.4.33-.99.52-.99.52-.58.19-1.35.19-1.35.19-.76 0-1.55-.29-1.55-.29-.79-.29-1.38-.77-1.38-.77zm5.48 2.29zm1-10.8h2.2v6.2h.06l2.42-3.03h2.46l-2.68 3.14 2.88 4.49h-2.45l-1.72-2.97-.97 1.09v1.88h-2.2V3.3zm7.01 10.79zm.55-3.82c0-.93.3-1.67.3-1.67.31-.75.81-1.27.81-1.27.5-.52 1.15-.8 1.15-.8.64-.28 1.34-.28 1.34-.28.81 0 1.42.28 1.42.28.61.27 1.01.77 1.01.77.41.49.61 1.16.61 1.16.2.67.2 1.45.2 1.45 0 .31-.03.56-.03.56-.03.25-.07.39-.07.39H488c.15.88.68 1.27.68 1.27.53.39 1.3.39 1.3.39.816 0 1.65-.51 1.65-.51l.75 1.37c-.583.4-1.3.64-1.3.64-.715.23-1.41.23-1.41.23-.814 0-1.523-.27-1.523-.27-.71-.27-1.23-.79-1.23-.79-.53-.52-.82-1.26-.82-1.26-.297-.74-.297-1.69-.297-1.69zm0 0zm4.92-.79c0-.66-.29-1.08-.29-1.08-.29-.42-.98-.42-.98-.42-.54 0-.95.36-.95.36-.41.36-.53 1.13-.53 1.13h2.75zm2.49 4.6zm1-10.8h2.26v8.52c0 .35.13.49.13.49.13.14.27.14.27.14h.13l.15-.03.27 1.68c-.18.07-.47.13-.47.13-.28.05-.67.05-.67.05-.58 0-.98-.19-.98-.19-.4-.19-.64-.52-.64-.52-.24-.33-.35-.8-.35-.8-.11-.47-.11-1.05-.11-1.05V3.3zm3.4 10.8zm1-10.8h2.26v8.51c0 .35.13.49.13.49.13.14.27.14.27.14h.13l.15-.04.28 1.68c-.19.07-.47.13-.47.13-.29.05-.67.05-.67.05-.59 0-.99-.19-.99-.19-.4-.19-.64-.52-.64-.52-.24-.33-.35-.8-.35-.8-.11-.47-.11-1.06-.11-1.06V3.3zm6.6 10.79zm1-10.8h2.26v8.52c0 .36.13.49.13.49.13.14.27.14.27.14h.13l.14-.03.28 1.68c-.19.08-.47.13-.47.13-.29.05-.67.05-.67.05-.59 0-.99-.18-.99-.18-.4-.19-.64-.52-.64-.52-.24-.33-.35-.8-.35-.8-.11-.47-.11-1.05-.11-1.05V3.3zm3.4 10.8zm2.13-8.76c-.57 0-.94-.33-.94-.33-.37-.33-.37-.86-.37-.86 0-.52.37-.85.37-.85.37-.33.94-.33.94-.33.59 0 .95.33.95.33.36.32.36.84.36.84 0 .52-.36.86-.36.86-.36.33-.95.33-.95.33zm0 0zm-1.12 1.13h2.26v7.64h-2.26v-7.6zm3.25 7.64zm1-10.8h2.26V5.9l-.06 1.17c.44-.4.96-.622.96-.622.51-.227 1.05-.227 1.05-.227.69 0 1.24.28 1.24.28.55.28.94.78.94.78.39.5.6 1.22.6 1.22.21.72.21 1.6.21 1.6 0 .99-.27 1.76-.27 1.76-.27.77-.73 1.3-.73 1.3-.45.53-1.03.81-1.03.81-.58.28-1.19.28-1.19.28-.51 0-1.03-.24-1.03-.24-.51-.24-.96-.74-.96-.74h-.06l-.19.8h-1.77V3.3zm0 0zm2.26 8.64c.31.28.61.38.61.38.31.1.6.1.6.1.58 0 1-.53 1-.53.41-.54.41-1.72.41-1.72 0-2.07-1.33-2.07-1.33-2.07-.68 0-1.31.69-1.31.69v3.13zm5.56 2.15zm1-7.64h1.85l.15 1.34h.06c.41-.79 1-1.16 1-1.16.58-.37 1.17-.37 1.17-.37.32 0 .53.04.53.04.21.04.37.11.37.11l-.37 1.95c-.22-.06-.4-.09-.4-.09-.19-.03-.43-.03-.43-.03-.43 0-.9.31-.9.31-.47.31-.78 1.09-.78 1.09v4.44h-2.26v-7.6zm4.68 7.64zm.72-2.13c0-1.2 1.01-1.88 1.01-1.88 1.02-.68 3.28-.91 3.28-.91-.03-.51-.31-.81-.31-.81-.28-.3-.9-.3-.9-.3-.49 0-.99.18-.99.18-.49.18-1.05.51-1.05.51l-.8-1.5c.74-.45 1.54-.73 1.54-.73.81-.27 1.72-.27 1.72-.27 1.48 0 2.26.84 2.26.84.78.84.78 2.61.78 2.61v4.38h-1.85l-.17-.79h-.047c-.5.43-1.04.7-1.04.7-.55.27-1.2.27-1.2.27-.52 0-.94-.18-.94-.18-.41-.18-.7-.49-.7-.49-.29-.31-.45-.73-.45-.73-.16-.41-.16-.9-.16-.9zm0 0zm2.15-.17c0 .37.24.54.24.54.24.17.64.17.64.17.4 0 .67-.17.67-.17.28-.17.59-.48.59-.48v-1.3c-1.22.17-1.68.49-1.68.49-.46.32-.46.77-.46.77zm5.34 2.29zm1-7.64h1.85l.16 1.34h.06c.42-.79 1-1.15 1-1.15.59-.37 1.17-.37 1.17-.37.32 0 .53.04.53.04.21.04.38.11.38.11l-.37 1.95c-.22-.06-.4-.09-.4-.09-.18-.03-.43-.03-.43-.03-.43 0-.9.31-.9.31-.47.31-.78 1.09-.78 1.09v4.43h-2.27v-7.6zm5.13 7.64zm2.13-8.76c-.57 0-.94-.34-.94-.34-.37-.33-.37-.85-.37-.85 0-.52.37-.85.37-.85.37-.32.94-.32.94-.32.59 0 .95.32.95.32.36.32.36.84.36.84 0 .53-.36.86-.36.86-.36.33-.95.33-.95.33zm0 0zm-1.12 1.12h2.27v7.64h-2.26v-7.6zm3.25 7.64zm.56-3.82c0-.93.31-1.67.31-1.67.31-.75.81-1.26.81-1.26.5-.52 1.14-.8 1.14-.8.65-.28 1.34-.28 1.34-.28.81 0 1.42.28 1.42.28.61.28 1.01.77 1.01.77.4.49.6 1.16.6 1.16.2.67.2 1.46.2 1.46 0 .31-.03.57-.03.57-.03.26-.06.39-.06.39h-4.57c.15.88.68 1.27.68 1.27.53.4 1.3.4 1.3.4.81 0 1.64-.51 1.64-.51l.75 1.37c-.59.4-1.3.64-1.3.64-.72.23-1.41.23-1.41.23-.82 0-1.53-.27-1.53-.27-.71-.27-1.23-.79-1.23-.79-.53-.52-.82-1.26-.82-1.26-.29-.74-.29-1.7-.29-1.7zm0 0zm4.93-.79c0-.66-.29-1.08-.29-1.08-.29-.41-.98-.41-.98-.41-.54 0-.95.36-.95.36-.41.36-.53 1.13-.53 1.13h2.75zm2.5 4.6zm1.34-2.3c.52.4 1 .6 1 .6.48.2.97.2.97.2.51 0 .74-.17.74-.17.23-.17.23-.48.23-.48 0-.18-.13-.33-.13-.33-.13-.15-.36-.27-.36-.27-.22-.12-.5-.22-.5-.22-.28-.1-.57-.23-.57-.23-.36-.14-.71-.32-.71-.32-.36-.19-.65-.46-.65-.46-.3-.27-.48-.63-.48-.63-.19-.36-.19-.84-.19-.84 0-.53.21-.97.21-.97.2-.45.59-.76.59-.76.38-.31.92-.49.92-.49.54-.18 1.21-.18 1.21-.18.88 0 1.54.3 1.54.3.66.3 1.16.67 1.16.67l-1 1.37c-.42-.31-.82-.48-.82-.48-.4-.17-.8-.17-.8-.17-.86 0-.86.6-.86.6 0 .18.12.31.12.31.12.13.33.24.33.24.21.11.48.21.48.21l.56.21c.37.13.73.31.73.31.36.18.66.44.66.44.3.26.48.64.48.64.18.38.18.9.18.9 0 .52-.2.97-.2.97-.2.45-.6.78-.6.78-.4.33-.99.52-.99.52-.59.19-1.36.19-1.36.19-.75 0-1.55-.29-1.55-.29-.79-.29-1.38-.77-1.38-.77zm8.69 2.29zm1.31-5.87h-1.05v-1.6l1.17-.09.26-2.04h1.88v2.04h1.83v1.77h-1.83v3.07c0 .64.27.93.27.93.27.28.71.28.71.28.19 0 .38-.05.38-.05.19-.05.34-.11.34-.11l.35 1.65c-.31.09-.73.18-.73.18-.42.09-.97.09-.97.09-.71 0-1.21-.22-1.21-.22-.5-.22-.82-.6-.82-.6-.31-.39-.46-.94-.46-.94-.14-.55-.14-1.21-.14-1.21V8.23zm4.43 5.87zm.56-3.82c0-.96.3-1.7.3-1.7.31-.75.83-1.26.83-1.26.52-.51 1.19-.78 1.19-.78.68-.27 1.4-.27 1.4-.27.73 0 1.4.27 1.4.27.67.27 1.19.78 1.19.78.51.51.82 1.25.82 1.25.31.75.31 1.7.31 1.7 0 .96-.31 1.7-.31 1.7-.31.75-.83 1.26-.83 1.26-.52.51-1.19.78-1.19.78-.67.27-1.4.27-1.4.27-.72 0-1.4-.27-1.4-.27-.68-.27-1.19-.78-1.19-.78-.52-.51-.82-1.26-.82-1.26-.31-.75-.31-1.71-.31-1.71zm0 0zm2.32 0c0 1 .34 1.58.34 1.58.35.58 1.05.58 1.05.58.69 0 1.04-.58 1.04-.58.35-.58.35-1.58.35-1.58 0-1-.35-1.59-.35-1.59-.35-.59-1.04-.59-1.04-.59-.71 0-1.06.59-1.06.59-.34.58-.34 1.59-.34 1.59zM582.5 14zm1.34-2.297c.52.4 1 .6 1 .6.478.2.97.2.97.2.51 0 .74-.17.74-.17.23-.17.23-.476.23-.476 0-.19-.13-.33-.13-.33-.13-.15-.354-.27-.354-.27-.22-.13-.5-.23-.5-.23-.28-.1-.57-.22-.57-.22-.355-.14-.71-.33-.71-.33-.35-.18-.646-.45-.646-.45-.29-.27-.48-.63-.48-.63-.18-.36-.18-.84-.18-.84 0-.523.21-.97.21-.97.21-.45.593-.754.593-.754.382-.31.92-.49.92-.49.54-.17 1.204-.17 1.204-.17.88 0 1.54.3 1.54.3.66.3 1.16.67 1.16.67l-1 1.38c-.42-.3-.82-.47-.82-.47-.4-.17-.8-.17-.8-.17-.86 0-.86.606-.86.606 0 .18.13.31.13.31.13.13.33.24.33.24.21.11.48.21.48.21l.57.21c.37.13.738.31.738.31.36.18.66.44.66.44.3.26.49.64.49.64.19.37.19.9.19.9 0 .52-.2.97-.2.97-.2.44-.6.78-.6.78-.4.33-.987.52-.987.52-.587.19-1.357.19-1.357.19-.76 0-1.55-.3-1.55-.3-.8-.3-1.38-.77-1.38-.77zm5.48 2.295zm.558-3.82c0-.924.31-1.67.31-1.67.31-.75.81-1.26.81-1.26.5-.52 1.15-.8 1.15-.8.65-.28 1.34-.28 1.34-.28.82 0 1.423.27 1.423.27.61.28 1.02.77 1.02.77.41.49.61 1.16.61 1.16.2.67.2 1.456.2 1.456 0 .3-.03.56-.03.56-.03.25-.06.39-.06.39h-4.57c.16.88.69 1.27.69 1.27.53.39 1.3.39 1.3.39.82 0 1.65-.508 1.65-.508l.75 1.37c-.58.4-1.3.63-1.3.63-.72.23-1.41.23-1.41.23-.82 0-1.52-.27-1.52-.27-.71-.27-1.24-.78-1.24-.78-.52-.516-.81-1.25-.81-1.25-.29-.74-.29-1.69-.29-1.69zm0 0zm4.93-.785c0-.66-.29-1.08-.29-1.08-.29-.42-.98-.42-.98-.42-.54 0-.95.36-.95.36-.407.363-.53 1.133-.53 1.133h2.76zm2.5 4.604zm1-10.8h2.27v8.52c0 .36.13.495.13.495.13.14.27.14.27.14h.13l.145-.03.28 1.68c-.18.076-.47.13-.47.13-.28.053-.67.053-.67.053-.58 0-.98-.18-.98-.18-.4-.19-.64-.52-.64-.52-.24-.33-.35-.8-.35-.8-.1-.47-.1-1.06-.1-1.06V3.3zm3.41 10.79zm.55-3.82c0-.92.304-1.67.304-1.67.31-.75.81-1.26.81-1.26.5-.52 1.15-.8 1.15-.8.65-.27 1.34-.27 1.34-.27.82 0 1.43.273 1.43.273.61.275 1.017.77 1.017.77.41.49.61 1.16.61 1.16.2.67.2 1.456.2 1.456 0 .3-.03.56-.03.56-.03.25-.06.39-.06.39h-4.57c.15.88.68 1.27.68 1.27.53.39 1.3.39 1.3.39.81 0 1.64-.506 1.64-.506l.76 1.37c-.59.4-1.3.63-1.3.63-.72.23-1.41.23-1.41.23-.82 0-1.53-.27-1.53-.27-.71-.27-1.23-.788-1.23-.788-.53-.51-.82-1.25-.82-1.25-.3-.74-.3-1.69-.3-1.69zm0 0zm4.93-.78c0-.66-.298-1.08-.298-1.08-.3-.42-.99-.42-.99-.42-.54 0-.95.36-.95.36-.41.36-.53 1.13-.53 1.13h2.75zm2.49 4.6zm.554-3.82c0-.96.33-1.7.33-1.7.327-.75.87-1.26.87-1.26.55-.51 1.27-.78 1.27-.78.728-.27 1.51-.27 1.51-.27.71 0 1.28.24 1.28.24.57.24.957.64.957.64l-1.04 1.4c-.54-.45-1.06-.45-1.06-.45-.83 0-1.31.584-1.31.584-.47.59-.47 1.59-.47 1.59 0 1 .48 1.59.48 1.59.48.59 1.22.59 1.22.59.41 0 .75-.17.75-.17.34-.17.61-.38.61-.38l.91 1.43c-.56.5-1.23.73-1.23.73-.68.23-1.31.23-1.31.23-.8 0-1.49-.26-1.49-.26-.68-.27-1.19-.77-1.19-.77-.5-.51-.8-1.26-.8-1.26-.29-.75-.29-1.7-.29-1.7zm6.64 3.82zm1.31-5.87h-1.05v-1.6l1.17-.09.266-2.036h1.88v2.03h1.83V8.2h-1.83v3.07c0 .648.27.93.27.93.27.287.714.287.714.287.19 0 .38-.05.38-.05.194-.05.35-.11.35-.11l.354 1.65c-.31.09-.73.18-.73.18-.41.09-.97.09-.97.09-.7 0-1.21-.22-1.21-.22-.5-.22-.81-.6-.81-.6-.31-.39-.46-.94-.46-.94-.15-.55-.15-1.21-.15-1.21V8.23zM626 14zm1.31-5.87h-1.05v-1.6l1.17-.09.26-2.035h1.88v2.03h1.83v1.77h-1.83v3.07c0 .647.27.93.27.93.27.286.71.286.71.286.183 0 .38-.05.38-.05.19-.05.35-.11.35-.11l.35 1.65c-.31.09-.73.18-.73.18-.42.09-.97.09-.97.09-.71 0-1.21-.22-1.21-.22-.5-.22-.82-.6-.82-.6-.32-.39-.46-.94-.46-.94-.15-.55-.15-1.21-.15-1.21V8.23zM631.9 14zm1-10.8h2.26v2.7l-.11 1.37c.43-.39 1-.72 1-.72.57-.33 1.36-.33 1.36-.33 1.24 0 1.81.82 1.81.82.56.81.56 2.26.56 2.26v4.74h-2.27V9.62c0-.833-.227-1.14-.227-1.14-.22-.31-.71-.31-.71-.31-.43 0-.74.194-.74.194-.31.19-.68.546-.68.546v5.16h-2.26V3.306zm7.8 10.79zm.55-3.82c0-.925.3-1.67.3-1.67.3-.75.8-1.264.8-1.264.5-.51 1.15-.79 1.15-.79.65-.28 1.34-.28 1.34-.28.82 0 1.43.28 1.43.28.6.28 1.01.77 1.01.77.41.49.61 1.16.61 1.16.2.67.2 1.46.2 1.46 0 .31-.03.56-.03.56-.03.255-.06.39-.06.39h-4.58c.155.88.686 1.27.686 1.27.53.39 1.3.39 1.3.39.82 0 1.65-.5 1.65-.5l.755 1.37c-.59.4-1.3.63-1.3.63-.72.23-1.41.23-1.41.23-.82 0-1.53-.27-1.53-.27-.71-.27-1.23-.79-1.23-.79-.52-.51-.82-1.25-.82-1.25-.29-.74-.29-1.695-.29-1.695zm0 0zm4.92-.786c0-.66-.3-1.08-.3-1.08-.3-.41-.99-.41-.99-.41-.54 0-.95.36-.95.36-.41.36-.53 1.13-.53 1.13h2.756zm5.69 4.6zm1-10.79h2.27v2.7l-.06 1.17c.443-.4.96-.623.96-.623.515-.22 1.054-.22 1.054-.22.69 0 1.242.28 1.242.28.553.28.95.78.95.78.39.5.6 1.22.6 1.22.21.72.21 1.6.21 1.6 0 .99-.27 1.76-.27 1.76-.27.77-.73 1.3-.73 1.3-.46.54-1.03.81-1.03.81-.57.28-1.19.28-1.19.28-.51 0-1.02-.24-1.02-.24-.52-.24-.97-.74-.97-.74h-.06l-.18.8h-1.77V3.31zm0 0zm2.27 8.64c.31.28.614.385.614.385.303.11.6.11.6.11.58 0 1-.53 1-.53.412-.53.412-1.72.412-1.72 0-2.06-1.32-2.06-1.32-2.06-.68 0-1.31.7-1.31.7v3.13zm5.56 2.156zm.55-3.82c0-.92.31-1.67.31-1.67.31-.75.81-1.26.81-1.26.5-.52 1.15-.79 1.15-.79.645-.27 1.34-.27 1.34-.27.82 0 1.426.28 1.426.28.6.275 1.01.77 1.01.77.402.49.602 1.16.602 1.16.2.67.2 1.455.2 1.455 0 .306-.03.56-.03.56-.03.254-.06.39-.06.39h-4.57c.15.88.683 1.27.683 1.27.53.39 1.3.39 1.3.39.82 0 1.65-.5 1.65-.5l.76 1.37c-.58.4-1.3.633-1.3.633-.72.23-1.41.23-1.41.23-.82 0-1.52-.27-1.52-.27-.7-.27-1.23-.784-1.23-.784-.52-.51-.81-1.25-.81-1.25-.29-.74-.29-1.695-.29-1.695zm0 0zm4.93-.78c0-.66-.29-1.08-.29-1.08-.29-.42-.98-.42-.98-.42-.54 0-.95.36-.95.36-.41.37-.53 1.14-.53 1.14h2.76zm2.497 4.61zm1.34-2.29c.52.4 1 .6 1 .6.48.2.97.2.97.2.51 0 .74-.17.74-.17.23-.17.23-.48.23-.48 0-.19-.13-.33-.13-.33-.13-.15-.36-.27-.36-.27-.223-.13-.5-.23-.5-.23-.28-.1-.57-.22-.57-.22-.354-.14-.71-.32-.71-.32-.35-.186-.645-.456-.645-.456-.29-.27-.476-.63-.476-.63-.18-.365-.18-.84-.18-.84 0-.526.21-.97.21-.97.21-.45.59-.76.59-.76.39-.31.927-.49.927-.49.54-.18 1.2-.18 1.2-.18.88 0 1.54.3 1.54.3.66.3 1.16.67 1.16.67L674 8.504c-.416-.305-.817-.475-.817-.475-.4-.17-.8-.17-.8-.17-.868 0-.868.6-.868.6 0 .18.125.31.125.31.125.13.33.24.33.24.21.11.48.21.48.21l.56.21c.37.13.73.31.73.31.36.17.66.44.66.44.3.26.49.64.49.64.185.38.185.9.185.9 0 .52-.2.97-.2.97-.2.45-.6.78-.6.78-.4.33-.98.52-.98.52-.585.19-1.355.19-1.355.19-.753 0-1.55-.29-1.55-.29-.794-.29-1.38-.77-1.38-.77zm5.48 2.29zm1.31-5.87h-1.04v-1.6l1.17-.09.26-2.035h1.88v2.04h1.83v1.77h-1.83v3.07c0 .645.27.93.27.93.27.284.72.284.72.284.18 0 .37-.05.37-.05.19-.05.346-.11.346-.11l.35 1.65c-.31.09-.72.18-.72.18-.42.09-.97.09-.97.09-.71 0-1.21-.22-1.21-.22-.5-.22-.82-.6-.82-.6-.315-.39-.46-.94-.46-.94-.146-.55-.146-1.21-.146-1.21V8.23zm7.79 5.87zm.552-3.82c0-.96.31-1.7.31-1.7.3-.75.82-1.26.82-1.26.51-.51 1.19-.78 1.19-.78.67-.27 1.4-.27 1.4-.27.72 0 1.39.27 1.39.27.67.27 1.18.772 1.18.772.51.51.82 1.26.82 1.26.31.75.31 1.71.31 1.71 0 .95-.31 1.7-.31 1.7-.31.74-.82 1.25-.82 1.25-.52.51-1.19.78-1.19.78-.67.27-1.4.27-1.4.27-.72 0-1.4-.27-1.4-.27-.68-.27-1.19-.775-1.19-.775-.52-.51-.82-1.26-.82-1.26-.31-.75-.31-1.7-.31-1.7zm0 0zm2.32 0c0 1 .34 1.58.34 1.58.35.58 1.05.58 1.05.58.7 0 1.05-.59 1.05-.59.36-.587.36-1.59.36-1.59 0-1-.36-1.59-.36-1.59-.35-.586-1.04-.586-1.04-.586-.7 0-1.05.583-1.05.583-.35.584-.35 1.585-.35 1.585zm5.67 3.82zm1-7.64H696l.15.97h.06c.494-.46 1.08-.81 1.08-.81.585-.35 1.37-.35 1.37-.35 1.25 0 1.81.81 1.81.81.56.81.56 2.26.56 2.26V14h-2.26V9.6c0-.836-.225-1.14-.225-1.14-.228-.31-.72-.31-.72-.31-.43 0-.74.19-.74.19-.31.19-.678.545-.678.545v5.16h-2.26v-7.6zm7.81 7.64zm.55-3.82c0-.93.31-1.67.31-1.67.31-.75.81-1.27.81-1.27.5-.515 1.14-.793 1.14-.793.65-.28 1.34-.28 1.34-.28.82 0 1.42.28 1.42.28.61.28 1.01.77 1.01.77.4.495.6 1.165.6 1.165.2.67.2 1.45.2 1.45 0 .3-.03.56-.03.56-.03.25-.06.39-.06.39h-4.57c.15.873.69 1.27.69 1.27.53.39 1.3.39 1.3.39.81 0 1.64-.51 1.64-.51l.75 1.37c-.59.4-1.3.63-1.3.63-.72.23-1.41.23-1.41.23-.82 0-1.53-.27-1.53-.27-.71-.27-1.24-.787-1.24-.787-.52-.515-.81-1.254-.81-1.254-.3-.74-.3-1.69-.3-1.69zm0 0zm4.93-.79c0-.66-.29-1.08-.29-1.08-.3-.41-.99-.41-.99-.41-.54 0-.95.36-.95.36-.41.363-.53 1.133-.53 1.133h2.75zm2.5 4.61zm.94-1.24c0-.61.39-1.02.39-1.02.39-.41.98-.41.98-.41.59 0 .98.41.98.41.39.41.39 1.03.39 1.03 0 .6-.39 1.01-.39 1.01-.39.41-.98.41-.98.41-.59 0-.98-.41-.98-.41-.4-.41-.4-1.01-.4-1.01z"/><path fill="none" stroke="#D3D3D3" stroke-miterlimit="10" d="M58.02 738h916.936M58.02 597.4h916.936M58.02 456.8h916.936M58.02 316.2h916.936M58.02 175.6h916.936M58.02 35h916.936" stroke-dasharray="5 5"/><g fill="#5C3566" stroke-opacity="0" stroke-width="0" stroke-miterlimit="10" stroke-linejoin="bevel"><defs><clipPath id="a"><path d="M58.02 35v703h916.936V35z"/></clipPath></defs><g clip-path="url(#a)"><path stroke="none" d="M73.02 738V590.37h153.387V738z"/></g></g><g fill-opacity="0" stroke-miterlimit="10"><defs><clipPath id="b"><path d="M58.02 35v703h916.936V35z"/></clipPath></defs><g clip-path="url(#b)"><path fill="none" d="M73.02 738V590.37h153.387V738z"/></g></g><g fill="#5C3566" stroke-opacity="0" stroke-width="0" stroke-miterlimit="10" stroke-linejoin="bevel"><defs><clipPath id="c"><path d="M58.02 35v703h916.936V35z"/></clipPath></defs><g clip-path="url(#c)"><path stroke="none" d="M256.407 738V136.232h153.387V738z"/></g></g><g fill-opacity="0" stroke-miterlimit="10"><defs><clipPath id="d"><path d="M58.02 35v703h916.936V35z"/></clipPath></defs><g clip-path="url(#d)"><path fill="none" d="M256.407 738V136.232h153.387V738z"/></g></g><g fill="#5C3566" stroke-opacity="0" stroke-width="0" stroke-miterlimit="10" stroke-linejoin="bevel"><defs><clipPath id="e"><path d="M58.02 35v703h916.936V35z"/></clipPath></defs><g clip-path="url(#e)"><path stroke="none" d="M439.794 738V130.608h153.388V738z"/></g></g><g fill-opacity="0" stroke-miterlimit="10"><defs><clipPath id="f"><path d="M58.02 35v703h916.936V35z"/></clipPath></defs><g clip-path="url(#f)"><path fill="none" d="M439.794 738V130.608h153.388V738z"/></g></g><g fill="#5C3566" stroke-opacity="0" stroke-width="0" stroke-miterlimit="10" stroke-linejoin="bevel"><defs><clipPath id="g"><path d="M58.02 35v703h916.936V35z"/></clipPath></defs><g clip-path="url(#g)"><path stroke="none" d="M623.182 738V442.74H776.57V738z"/></g></g><g fill-opacity="0" stroke-miterlimit="10"><defs><clipPath id="h"><path d="M58.02 35v703h916.936V35z"/></clipPath></defs><g clip-path="url(#h)"><path fill="none" d="M623.182 738V442.74H776.57V738z"/></g></g><g fill="#5C3566" stroke-opacity="0" stroke-width="0" stroke-miterlimit="10" stroke-linejoin="bevel"><defs><clipPath id="i"><path d="M58.02 35v703h916.936V35z"/></clipPath></defs><g clip-path="url(#i)"><path stroke="none" d="M806.57 738v-50.616h153.386V738z"/></g></g><g fill-opacity="0" stroke-miterlimit="10"><defs><clipPath id="j"><path d="M58.02 35v703h916.936V35z"/></clipPath></defs><g clip-path="url(#j)"><path fill="none" d="M806.57 738v-50.616h153.386V738z"/></g></g><path fill="none" stroke-miterlimit="10" d="M58.02 738V35" stroke-linecap="square"/><path fill="none" stroke-miterlimit="10" d="M58.02 738h2m-2-70.3h2m-2-70.3h2m-2-70.3h2m-2-70.3h2m-2-70.3h2m-2-70.3h2m-2-70.3h2m-2-70.3h2m-2-70.3h2m-2-70.3h2m-2 703h5m-5-140.6h5m-5-140.6h5m-5-140.6h5m-5-140.6h5m-5-140.6h5"/><path stroke="none" d="M43.724 741.445zm2.615.126c-1.02 0-1.59-.9-1.59-.9-.57-.9-.57-2.59-.57-2.59 0-1.69.56-2.57.56-2.57.56-.88 1.58-.88 1.58-.88 1.01 0 1.57.88 1.57.88.56.89.56 2.58.56 2.58 0 1.69-.57 2.6-.57 2.6-.57.91-1.58.91-1.58.91zm0 0zm0-.69c.29 0 .53-.16.53-.16.23-.16.41-.5.41-.5.17-.34.26-.87.26-.87.09-.53.09-1.26.09-1.26 0-.73-.1-1.26-.1-1.26-.1-.52-.27-.85-.27-.85-.18-.33-.41-.49-.41-.49-.24-.16-.53-.16-.53-.16-.3 0-.54.16-.54.16-.24.16-.42.49-.42.49-.18.33-.27.86-.27.86-.1.53-.1 1.26-.1 1.26 0 1.47.36 2.14.36 2.14.36.67.95.67.95.67zM33.65 600.85zm.83-.714h1.534V595.2h-1.22v-.558c.463-.084.805-.204.805-.204.34-.12.61-.29.61-.29h.66v5.988h1.38v.715h-3.78v-.71zm4.39.717zm2.616.126c-1.02 0-1.586-.91-1.586-.91-.567-.9-.567-2.6-.567-2.6 0-1.69.567-2.58.567-2.58.567-.88 1.586-.88 1.586-.88 1.01 0 1.576.88 1.576.88.567.88.567 2.57.567 2.57 0 1.69-.57 2.59-.57 2.59-.57.9-1.58.9-1.58.9zm0 0zm0-.7c.294 0 .53-.16.53-.16.237-.16.41-.5.41-.5.174-.34.268-.87.268-.87.095-.53.095-1.27.095-1.27 0-.74-.1-1.26-.1-1.26-.1-.53-.27-.86-.27-.86-.18-.33-.41-.49-.41-.49-.24-.16-.53-.16-.53-.16-.3 0-.54.16-.54.16-.24.15-.42.48-.42.48-.18.33-.27.85-.27.85-.1.52-.1 1.26-.1 1.26 0 1.47.36 2.14.36 2.14.36.66.95.66.95.66zm2.605.57zm2.62.13c-1.02 0-1.58-.9-1.58-.9-.56-.9-.56-2.6-.56-2.6 0-1.69.57-2.58.57-2.58.57-.88 1.59-.88 1.59-.88 1.01 0 1.58.88 1.58.88.57.88.57 2.57.57 2.57 0 1.69-.57 2.59-.57 2.59-.56.9-1.57.9-1.57.9zm0 0zm0-.69c.3 0 .53-.16.53-.16.24-.17.41-.51.41-.51.18-.34.27-.87.27-.87.1-.53.1-1.27.1-1.27 0-.74-.09-1.26-.09-1.26-.09-.53-.27-.86-.27-.86-.17-.33-.41-.49-.41-.49-.23-.16-.53-.16-.53-.16-.29 0-.53.16-.53.16-.24.15-.41.48-.41.48-.17.33-.27.85-.27.85-.09.52-.09 1.26-.09 1.26 0 1.47.36 2.14.36 2.14.36.67.95.67.95.67zM33.2 460.24zm.42-.513c.755-.755 1.343-1.364 1.343-1.364.588-.61.988-1.13.988-1.13.4-.52.61-.96.61-.96.21-.437.21-.846.21-.846 0-.58-.31-.946-.31-.946-.31-.37-.95-.37-.95-.37-.42 0-.78.24-.78.24-.35.24-.65.58-.65.58l-.49-.49c.42-.46.9-.74.9-.74.47-.28 1.13-.28 1.13-.28.94 0 1.47.55 1.47.55.54.54.54 1.43.54 1.43 0 .47-.2.95-.2.95-.2.48-.57.99-.57.99-.36.51-.86 1.06-.86 1.06-.5.56-1.1 1.18-1.1 1.18l.57-.04c.3-.02.56-.02.56-.02h1.95v.75h-4.33v-.51zm4.8.516zm2.615.12c-1.02 0-1.586-.9-1.586-.9-.57-.905-.57-2.597-.57-2.597 0-1.69.57-2.57.57-2.57.56-.88 1.58-.88 1.58-.88 1.01 0 1.57.88 1.57.88.56.884.56 2.576.56 2.576 0 1.69-.57 2.593-.57 2.593-.57.907-1.58.907-1.58.907zm0 0zm0-.69c.294 0 .53-.165.53-.165.237-.163.41-.505.41-.505.173-.34.268-.87.268-.87.094-.53.094-1.264.094-1.264 0-.74-.094-1.26-.094-1.26-.095-.53-.268-.86-.268-.86-.173-.33-.41-.49-.41-.49-.236-.16-.53-.16-.53-.16-.294 0-.536.16-.536.16-.25.15-.42.48-.42.48-.18.33-.27.85-.27.85-.1.53-.1 1.26-.1 1.26 0 1.47.36 2.14.36 2.14.36.67.95.67.95.67zm2.605.565zm2.614.125c-1.02 0-1.586-.9-1.586-.9-.568-.9-.568-2.594-.568-2.594 0-1.69.567-2.58.567-2.58.566-.88 1.585-.88 1.585-.88 1.01 0 1.576.88 1.576.88.568.88.568 2.57.568 2.57 0 1.69-.567 2.59-.567 2.59-.57.9-1.58.9-1.58.9zm0 0zm0-.69c.294 0 .53-.16.53-.16.237-.16.41-.504.41-.504.174-.34.268-.87.268-.87.095-.53.095-1.27.095-1.27 0-.74-.095-1.26-.095-1.26-.094-.53-.268-.86-.268-.86-.173-.33-.41-.49-.41-.49-.236-.16-.53-.16-.53-.16-.294 0-.535.16-.535.16-.25.15-.42.48-.42.48-.18.33-.27.85-.27.85-.1.53-.1 1.26-.1 1.26 0 1.47.36 2.14.36 2.14.36.67.95.67.95.67zM33.094 319.64zm.714-1.385c.304.31.71.552.71.552.403.24 1.002.24 1.002.24.61 0 .998-.33.998-.33.39-.33.39-.898.39-.898 0-.3-.112-.54-.112-.54-.11-.25-.362-.43-.362-.43-.252-.18-.662-.28-.662-.28-.41-.1-1.008-.1-1.008-.1v-.67c.535 0 .898-.1.898-.1.362-.1.588-.27.588-.27.226-.17.32-.4.32-.4.095-.23.095-.5.095-.5 0-.5-.31-.78-.31-.78-.31-.28-.846-.28-.846-.28-.42 0-.78.19-.78.19-.35.19-.66.49-.66.49l-.46-.55c.38-.37.85-.6.85-.6.46-.24 1.06-.24 1.06-.24.44 0 .81.11.81.11.37.11.63.33.63.33.26.21.41.53.41.53.15.31.15.72.15.72 0 .61-.34 1-.34 1-.34.39-.88.6-.88.6v.04c.3.07.56.21.56.21.26.14.46.36.46.36.2.21.31.5.31.5.11.28.11.63.11.63 0 .44-.17.8-.17.8-.18.35-.48.6-.48.6-.3.25-.7.38-.7.38-.4.13-.86.13-.86.13-.4 0-.73-.08-.73-.08-.33-.08-.61-.21-.61-.21-.28-.13-.49-.3-.49-.3-.22-.17-.39-.36-.39-.36zm4.506 1.38zm2.616.128c-1.02 0-1.586-.9-1.586-.9-.568-.908-.568-2.6-.568-2.6 0-1.69.567-2.572.567-2.572.568-.88 1.587-.88 1.587-.88 1.008 0 1.575.88 1.575.88.567.89.567 2.58.567 2.58 0 1.69-.567 2.6-.567 2.6-.567.9-1.575.9-1.575.9zm0 0zm0-.69c.294 0 .53-.168.53-.168.236-.162.41-.504.41-.504.173-.34.268-.87.268-.87.094-.53.094-1.26.094-1.26 0-.73-.094-1.26-.094-1.26-.095-.52-.268-.85-.268-.85-.173-.33-.41-.48-.41-.48-.236-.16-.53-.16-.53-.16-.295 0-.536.16-.536.16-.242.16-.415.49-.415.49-.18.33-.27.86-.27.86-.1.53-.1 1.26-.1 1.26 0 1.47.36 2.14.36 2.14.36.67.95.67.95.67zm2.605.562zm2.615.126c-1.02 0-1.586-.9-1.586-.9-.567-.9-.567-2.59-.567-2.59 0-1.69.567-2.57.567-2.57.567-.88 1.586-.88 1.586-.88 1.01 0 1.576.88 1.576.88.567.89.567 2.58.567 2.58 0 1.69-.567 2.59-.567 2.59-.567.9-1.576.9-1.576.9zm0 0zm0-.69c.294 0 .53-.16.53-.16.237-.16.41-.5.41-.5.174-.34.268-.87.268-.87.095-.53.095-1.26.095-1.26 0-.73-.095-1.26-.095-1.26-.094-.52-.268-.85-.268-.85-.173-.33-.41-.49-.41-.49-.236-.16-.53-.16-.53-.16-.294 0-.536.16-.536.16-.24.16-.414.49-.414.49-.174.33-.268.86-.268.86-.095.53-.095 1.26-.095 1.26 0 1.47.363 2.14.363 2.14.362.67.95.67.95.67zM33 179.05zm3.192-2.54v-1.943c0-.28.016-.65.016-.65.016-.38.037-.65.037-.65h-.042c-.126.24-.263.47-.263.47-.136.234-.283.476-.283.476l-1.565 2.29h2.1zm0 0zm1.733.694h-.913v1.848h-.82v-1.85h-3.014v-.57l2.867-4.29h.967v4.16h.913v.7zm.294 1.848zm2.61.126c-1.02 0-1.59-.9-1.59-.9-.57-.9-.57-2.592-.57-2.592 0-1.69.56-2.57.56-2.57.56-.88 1.58-.88 1.58-.88 1.01 0 1.57.88 1.57.88.57.887.57 2.58.57 2.58 0 1.69-.57 2.593-.57 2.593-.57.9-1.58.9-1.58.9zm0 0zm0-.69c.29 0 .53-.16.53-.16.23-.162.41-.504.41-.504.17-.34.27-.87.27-.87.09-.53.09-1.268.09-1.268 0-.74-.1-1.26-.1-1.26-.1-.53-.27-.86-.27-.86-.18-.33-.41-.49-.41-.49-.24-.16-.53-.16-.53-.16-.3 0-.54.16-.54.16-.24.15-.42.48-.42.48-.18.33-.27.857-.27.857-.1.52-.1 1.26-.1 1.26 0 1.47.36 2.14.36 2.14.36.67.95.67.95.67zm2.6.57zm2.61.126c-1.02 0-1.59-.904-1.59-.904-.57-.902-.57-2.594-.57-2.594 0-1.69.57-2.58.57-2.58.56-.88 1.58-.88 1.58-.88 1.01 0 1.57.883 1.57.883.57.88.57 2.57.57 2.57 0 1.69-.57 2.59-.57 2.59-.57.91-1.57.91-1.57.91zm0 0zm0-.694c.29 0 .53-.162.53-.162.23-.16.41-.5.41-.5.17-.34.27-.87.27-.87.09-.53.09-1.264.09-1.264 0-.734-.1-1.26-.1-1.26-.1-.524-.27-.855-.27-.855-.18-.33-.41-.49-.41-.49-.24-.16-.53-.16-.53-.16-.3 0-.54.16-.54.16-.25.15-.42.48-.42.48-.17.33-.27.85-.27.85-.09.52-.09 1.26-.09 1.26 0 1.47.36 2.14.36 2.14.36.67.95.67.95.67zM33.08 38.446zm.684-1.355c.294.31.698.54.698.54.405.23.993.23.993.23.305 0 .572-.11.572-.11.26-.11.46-.31.46-.31.2-.2.31-.48.31-.48.114-.28.114-.63.114-.63 0-.69-.38-1.08-.38-1.08-.39-.39-1.04-.39-1.04-.39-.35 0-.59.11-.59.11-.24.11-.55.31-.55.31l-.46-.29.22-3.22h3.35v.75h-2.59l-.18 1.98c.24-.13.49-.2.49-.2.25-.07.55-.07.55-.07.43 0 .81.13.81.13.38.13.66.39.66.39.29.26.45.65.45.65.17.4.17.94.17.94 0 .55-.19.97-.19.97-.19.42-.5.71-.5.71-.32.29-.72.44-.72.44-.41.15-.85.15-.85.15-.4 0-.73-.07-.73-.07-.33-.08-.59-.21-.59-.21-.27-.13-.48-.29-.48-.29-.22-.16-.38-.34-.38-.34zm4.538 1.36zm2.615.13c-1.02 0-1.59-.9-1.59-.9-.57-.9-.57-2.59-.57-2.59 0-1.69.56-2.57.56-2.57.565-.88 1.584-.88 1.584-.88 1.01 0 1.58.88 1.58.88.57.89.57 2.58.57 2.58 0 1.69-.57 2.6-.57 2.6-.56.91-1.57.91-1.57.91zm0 0zm0-.69c.29 0 .53-.16.53-.16.23-.16.41-.5.41-.5.17-.34.26-.87.26-.87.09-.53.09-1.26.09-1.26 0-.73-.096-1.26-.096-1.26-.09-.52-.26-.85-.26-.85-.17-.33-.41-.49-.41-.49-.24-.16-.53-.16-.53-.16-.29 0-.54.16-.54.16-.24.16-.41.49-.41.49-.17.33-.26.86-.26.86-.09.53-.09 1.26-.09 1.26 0 1.47.37 2.14.37 2.14.36.67.95.67.95.67zm2.6.57zm2.61.13c-1.02 0-1.59-.9-1.59-.9-.57-.9-.57-2.59-.57-2.59 0-1.69.57-2.57.57-2.57.57-.88 1.586-.88 1.586-.88 1.007 0 1.574.89 1.574.89.57.89.57 2.58.57 2.58 0 1.69-.565 2.6-.565 2.6-.567.91-1.575.91-1.575.91zm0 0zm0-.69c.29 0 .53-.16.53-.16.232-.16.41-.5.41-.5.17-.34.264-.87.264-.87.1-.53.1-1.26.1-1.26 0-.73-.09-1.26-.09-1.26-.09-.52-.26-.85-.26-.85-.17-.33-.41-.48-.41-.48-.23-.16-.53-.16-.53-.16-.29 0-.53.16-.53.16-.24.16-.41.49-.41.49-.17.33-.27.86-.27.86-.09.53-.09 1.26-.09 1.26 0 1.47.36 2.14.36 2.14.36.67.95.67.95.67z"/><path fill="none" stroke-miterlimit="10" d="M58.02 738h916.936" stroke-linecap="square"/><path stroke="none" d="M101.694 758zm.966-1.502c.368.39.867.625.867.625.5.236 1.034.236 1.034.236.69 0 1.07-.31 1.07-.31.38-.31.38-.82.38-.82 0-.26-.09-.45-.09-.45-.08-.19-.24-.32-.24-.32-.15-.13-.36-.24-.36-.24-.21-.11-.45-.22-.45-.22l-.99-.43c-.24-.11-.49-.26-.49-.26-.25-.15-.45-.36-.45-.36-.2-.21-.32-.5-.32-.5-.12-.29-.12-.67-.12-.67 0-.39.17-.73.17-.73.17-.34.45-.59.45-.59.29-.25.69-.39.69-.39.4-.14.87-.14.87-.14.62 0 1.15.23 1.15.23.52.24.89.61.89.61l-.47.56c-.31-.31-.69-.48-.69-.48-.38-.17-.86-.17-.86-.17-.58 0-.93.26-.93.26-.35.27-.35.74-.35.74 0 .25.1.42.1.42.1.17.27.3.27.3.17.14.37.23.37.23.2.1.41.19.41.19l.98.42c.29.13.56.29.56.29.26.16.45.38.45.38.19.21.3.5.3.5.11.29.11.66.11.66 0 .41-.16.76-.16.76-.16.35-.47.62-.47.62-.31.26-.74.42-.74.42-.43.15-.97.15-.97.15-.72 0-1.34-.27-1.34-.27-.62-.27-1.07-.75-1.07-.75zm4.643 1.502zm1.008-4.4h-.75v-.653l.8-.052.11-1.43h.73v1.43h1.38v.704h-1.38v2.83c0 .47.17.73.17.73.18.25.62.25.62.25.14 0 .3-.04.3-.04.16-.05.29-.1.29-.1l.17.65c-.21.07-.45.13-.45.13-.25.05-.49.05-.49.05-.41 0-.69-.13-.69-.13-.27-.13-.45-.35-.45-.35-.17-.22-.24-.54-.24-.54-.07-.32-.07-.7-.07-.7v-2.82zm2.55 4.4zm.86-5.105h.72l.08.924h.03c.26-.49.64-.77.64-.77.37-.29.81-.29.81-.29.31 0 .55.1.55.1l-.17.75c-.12-.04-.23-.07-.23-.07-.1-.02-.26-.02-.26-.02-.32 0-.68.26-.68.26-.35.26-.61.91-.61.91v3.3h-.86v-5.11zM114.4 758zm.483-2.542c0-.64.195-1.14.195-1.14.195-.5.52-.845.52-.845.326-.347.752-.525.752-.525.425-.18.898-.18.898-.18.473 0 .898.18.898.18.426.178.75.525.75.525.328.346.52.845.52.845.196.5.196 1.14.196 1.14 0 .63-.195 1.13-.195 1.13-.194.498-.52.84-.52.84-.326.34-.75.52-.75.52-.426.178-.9.178-.9.178-.472 0-.897-.18-.897-.18-.426-.177-.75-.52-.75-.52-.327-.34-.52-.84-.52-.84-.196-.498-.196-1.128-.196-1.128zm0 0zm.893 0c0 .44.105.798.105.798.11.357.3.615.3.615.2.26.47.4.47.4.28.15.6.15.6.15.33 0 .6-.14.6-.14.27-.14.47-.4.47-.4.2-.25.3-.61.3-.61.11-.35.11-.8.11-.8 0-.44-.1-.8-.1-.8-.1-.36-.3-.62-.3-.62-.19-.26-.46-.4-.46-.4-.27-.14-.6-.14-.6-.14-.32 0-.6.14-.6.14-.27.14-.46.41-.46.41-.19.26-.3.63-.3.63-.1.37-.1.81-.1.81zM120.09 758zm.86-5.105h.714l.074.735h.03c.37-.367.773-.614.773-.614.41-.247.94-.247.94-.247.81 0 1.18.5 1.18.5.38.5.38 1.49.38 1.49V758h-.86v-3.12c0-.724-.23-1.045-.23-1.045-.23-.32-.73-.32-.73-.32-.4 0-.7.2-.7.2-.3.2-.69.588-.69.588V758h-.86v-5.105zm4.884 5.105zm1.23.86c0 .41.393.653.393.653.394.24 1.087.24 1.087.24.368 0 .667-.088.667-.088.3-.09.51-.23.51-.23.21-.143.33-.332.33-.332.12-.19.12-.39.12-.39 0-.356-.26-.492-.26-.492-.26-.13-.76-.13-.76-.13h-.88c-.15 0-.32-.01-.32-.01-.17-.01-.34-.07-.34-.07-.27.2-.4.42-.4.42-.12.22-.12.44-.12.44zm0 0zm-.757.117c0-.326.2-.62.2-.62.2-.294.546-.535.546-.535v-.042c-.187-.116-.32-.32-.32-.32-.13-.206-.13-.51-.13-.51 0-.326.18-.568.18-.568.177-.24.377-.378.377-.378v-.042c-.253-.21-.458-.562-.458-.562-.206-.352-.206-.814-.206-.814 0-.42.152-.756.152-.756.153-.336.415-.573.415-.573.265-.236.617-.362.617-.362.352-.126.74-.126.74-.126.21 0 .394.03.394.03.185.03.33.09.33.09h1.777v.66h-1.05c.18.18.3.45.3.45.12.27.12.6.12.6 0 .41-.14.74-.14.74-.15.33-.4.55-.4.55-.25.22-.59.35-.59.35-.34.12-.73.12-.73.12-.19 0-.38-.05-.38-.05-.2-.05-.38-.13-.38-.13-.13.11-.23.25-.23.25-.09.14-.09.35-.09.35 0 .24.19.4.19.4.19.16.72.16.72.16h.99c.89 0 1.34.29 1.34.29.45.28.45.92.45.92 0 .35-.18.67-.18.67-.18.32-.51.56-.51.56-.34.24-.81.38-.81.38-.48.14-1.07.14-1.07.14-.47 0-.86-.09-.86-.09-.39-.09-.67-.27-.67-.27-.28-.18-.43-.43-.43-.43-.15-.25-.15-.59-.15-.59zm0 0zm2.11-3.172c.222 0 .416-.084.416-.084.196-.08.35-.24.35-.24.15-.16.235-.38.235-.38.084-.22.084-.51.084-.51 0-.56-.315-.87-.315-.87-.315-.31-.767-.31-.767-.31-.45 0-.767.31-.767.31-.315.31-.315.88-.315.88 0 .29.084.51.084.51.083.23.236.39.236.39.152.16.346.24.346.24.197.09.417.09.417.09zm2.71 2.195zm.863-7.48h.86v6.514c0 .21.073.294.073.294.074.084.17.084.17.084h.077l.11-.02.114.65c-.084.042-.2.063-.2.063-.115.02-.294.02-.294.02-.492 0-.702-.293-.702-.293-.21-.294-.21-.86-.21-.86v-6.45zm1.816 7.48zm.515 1.408l.19.047.2.026c.44 0 .72-.31.72-.31.28-.31.44-.78.44-.78l.12-.38-2.05-5.11h.9l1.04 2.83.25.71c.13.37.25.73.25.73h.04c.12-.34.22-.72.22-.72.11-.38.21-.71.21-.71l.92-2.82h.84l-1.92 5.53c-.14.38-.3.7-.3.7-.17.33-.4.56-.4.56-.23.24-.52.38-.52.38-.29.14-.68.14-.68.14-.18 0-.32-.02-.32-.02-.15-.02-.27-.08-.27-.08l.17-.68zm6.52-1.408zm.5-2.542c0-.62.19-1.12.19-1.12.19-.498.49-.844.49-.844.31-.347.71-.536.71-.536.4-.19.84-.19.84-.19.44 0 .77.158.77.158.32.158.66.43.66.43l-.04-.87v-1.965h.87V758h-.71l-.07-.6H145c-.303.295-.697.51-.697.51-.39.216-.845.216-.845.216-.965 0-1.54-.693-1.54-.693-.57-.693-.57-1.975-.57-1.975zm0 0zm.9-.01c0 .924.37 1.44.37 1.44.37.513 1.04.513 1.04.513.36 0 .68-.17.68-.17.32-.17.63-.53.63-.53v-2.67c-.32-.29-.62-.41-.62-.41-.3-.12-.61-.12-.61-.12-.3 0-.57.14-.57.14-.27.15-.47.4-.47.4-.2.26-.31.62-.31.62-.11.36-.11.8-.11.8zm4.44 2.552zm1.31-6.155c-.25 0-.42-.158-.42-.158-.17-.158-.17-.4-.17-.4 0-.25.18-.404.18-.404.17-.152.43-.152.43-.152.26 0 .43.16.43.16.17.16.17.41.17.41 0 .24-.17.4-.17.4-.17.16-.43.16-.43.16zm0 0zm-.44 1.05h.87V758h-.86v-5.105zm1.72 5.105zm.73-1.155c.34.273.69.44.69.44.35.17.82.17.82.17.51 0 .76-.232.76-.232.25-.23.25-.567.25-.567 0-.2-.1-.347-.1-.347-.1-.15-.27-.26-.27-.26-.16-.11-.37-.2-.37-.2l-.42-.17c-.27-.1-.54-.22-.54-.22-.27-.12-.49-.3-.49-.3-.21-.18-.35-.41-.35-.41-.14-.23-.14-.56-.14-.56 0-.31.12-.58.12-.58.13-.27.35-.46.35-.46.23-.19.55-.31.55-.31.33-.11.74-.11.74-.11.49 0 .89.17.89.17.41.16.7.41.7.41l-.41.54c-.26-.2-.55-.33-.55-.33-.28-.13-.62-.13-.62-.13-.48 0-.71.22-.71.22-.22.22-.22.51-.22.51 0 .18.1.31.1.31.1.13.25.23.25.23.16.1.36.18.36.18l.43.16c.28.1.55.22.55.22.28.11.5.29.5.29.22.17.37.42.37.42.14.25.14.61.14.61 0 .31-.12.59-.12.59-.12.27-.36.48-.36.48-.23.21-.59.33-.59.33-.35.12-.8.12-.8.12-.55 0-1.04-.2-1.04-.2-.5-.2-.87-.51-.87-.51zm3.67 1.155zm.61-1.323c0-.84.75-1.287.75-1.287.76-.447 2.39-.625 2.39-.625 0-.242-.04-.473-.04-.473-.05-.23-.17-.41-.17-.41-.12-.178-.32-.29-.32-.29-.2-.11-.51-.11-.51-.11-.46 0-.84.17-.84.17-.38.167-.69.377-.69.377l-.34-.6c.36-.23.87-.45.87-.45.51-.22 1.13-.22 1.13-.22.94 0 1.36.57 1.36.57.42.57.42 1.53.42 1.53V758h-.72l-.07-.61h-.02c-.37.306-.79.52-.79.52-.42.216-.9.216-.9.216-.65 0-1.07-.378-1.07-.378-.42-.378-.42-1.07-.42-1.07zm0 0zm.85-.064c0 .442.26.63.26.63.26.19.64.19.64.19.37 0 .7-.173.7-.173.33-.174.7-.51.7-.51v-1.418c-.64.084-1.09.2-1.09.2-.44.115-.71.273-.71.273-.26.157-.38.362-.38.362-.11.205-.11.446-.11.446zm3.92 1.387zm1.23.86c0 .41.39.653.39.653.4.24 1.09.24 1.09.24.37 0 .67-.088.67-.088.3-.09.51-.23.51-.23.21-.143.33-.332.33-.332.12-.19.12-.39.12-.39 0-.356-.26-.492-.26-.492-.26-.13-.76-.13-.76-.13h-.88c-.14 0-.32-.01-.32-.01-.17-.01-.34-.07-.34-.07-.27.2-.4.42-.4.42-.12.22-.12.44-.12.44zm0 0zm-.76.117c0-.326.2-.62.2-.62.2-.294.55-.535.55-.535v-.042c-.19-.116-.32-.32-.32-.32-.13-.206-.13-.51-.13-.51 0-.326.18-.568.18-.568.18-.24.38-.378.38-.378v-.042c-.25-.21-.46-.562-.46-.562-.2-.352-.2-.814-.2-.814 0-.42.15-.756.15-.756.15-.336.42-.573.42-.573.26-.236.62-.362.62-.362.35-.126.74-.126.74-.126.21 0 .4.03.4.03.19.03.33.09.33.09h1.78v.66h-1.05c.18.18.3.45.3.45.12.27.12.6.12.6 0 .41-.14.74-.14.74-.15.33-.4.55-.4.55-.25.22-.59.35-.59.35-.34.12-.73.12-.73.12-.19 0-.39-.05-.39-.05-.2-.05-.38-.13-.38-.13-.14.11-.23.25-.23.25-.1.14-.1.35-.1.35 0 .24.19.4.19.4.19.16.72.16.72.16h.99c.89 0 1.34.29 1.34.29.44.28.44.92.44.92 0 .35-.18.67-.18.67-.17.32-.51.56-.51.56-.33.24-.81.38-.81.38-.48.14-1.07.14-1.07.14-.47 0-.86-.09-.86-.09-.38-.09-.66-.27-.66-.27-.28-.18-.43-.43-.43-.43-.15-.25-.15-.59-.15-.59zm0 0zm2.11-3.172c.22 0 .42-.084.42-.084.2-.08.35-.24.35-.24.16-.16.24-.38.24-.38.09-.22.09-.51.09-.51 0-.56-.31-.87-.31-.87-.31-.31-.76-.31-.76-.31-.45 0-.76.31-.76.31-.31.31-.31.88-.31.88 0 .29.09.51.09.51.09.23.24.39.24.39.15.16.35.24.35.24.2.09.42.09.42.09zm2.71 2.195zm.86-5.105h.72l.08.924h.03c.26-.49.64-.77.64-.77.37-.29.81-.29.81-.29.31 0 .55.1.55.1l-.16.75-.23-.07c-.11-.02-.27-.02-.27-.02-.32 0-.67.26-.67.26-.35.26-.62.91-.62.91v3.3h-.86v-5.11zm2.68 5.105zm.48-2.542c0-.63.2-1.13.2-1.13.2-.498.52-.845.52-.845.32-.346.73-.53.73-.53.41-.184.85-.184.85-.184.49 0 .87.16.87.16.38.17.64.48.64.48.26.31.4.75.4.75.14.44.14.98.14.98 0 .28-.03.47-.03.47h-3.45c.05.83.51 1.31.51 1.31.46.48 1.19.48 1.19.48.37 0 .68-.11.68-.11.31-.11.59-.29.59-.29l.31.56c-.33.21-.74.37-.74.37-.41.16-.94.16-.94.16-.51 0-.96-.19-.96-.19-.45-.19-.78-.53-.78-.53-.33-.34-.52-.84-.52-.84-.19-.5-.19-1.13-.19-1.13zm0 0zm3.57-.39c0-.786-.33-1.2-.33-1.2-.33-.416-.93-.416-.93-.416-.27 0-.52.11-.52.11-.24.11-.44.315-.44.315-.2.205-.33.504-.33.504-.13.3-.17.69-.17.69h2.73zm1.16 2.932zm.49-2.542c0-.63.2-1.13.2-1.13.2-.498.52-.845.52-.845.32-.346.73-.53.73-.53.41-.184.85-.184.85-.184.49 0 .87.16.87.16.38.17.64.48.64.48.26.31.4.75.4.75.14.44.14.98.14.98 0 .28-.03.47-.03.47h-3.45c.05.83.51 1.31.51 1.31.46.48 1.19.48 1.19.48.37 0 .68-.11.68-.11.31-.11.59-.29.59-.29l.31.56c-.33.21-.74.37-.74.37-.41.16-.93.16-.93.16-.51 0-.96-.19-.96-.19-.45-.19-.78-.53-.78-.53-.33-.34-.52-.84-.52-.84-.19-.5-.19-1.13-.19-1.13zm0 0zm3.57-.39c0-.786-.33-1.2-.33-1.2-.33-.416-.93-.416-.93-.416-.27 0-.52.11-.52.11-.24.11-.44.315-.44.315-.2.205-.33.504-.33.504-.13.3-.17.69-.17.69h2.73zM178.3 758zm.69-4.317c0-.305.18-.49.18-.49.185-.182.448-.182.448-.182.252 0 .436.19.436.19.18.19.18.49.18.49 0 .28-.19.47-.19.47-.185.19-.437.19-.437.19-.262 0-.446-.18-.446-.18-.18-.18-.18-.46-.18-.46zm0 0zm0 3.792c0-.305.18-.49.18-.49.185-.182.448-.182.448-.182.252 0 .436.183.436.183.18.184.18.49.18.49 0 .282-.19.466-.19.466-.185.184-.437.184-.437.184-.262 0-.446-.184-.446-.184-.18-.184-.18-.467-.18-.467zm4.052.525zm.83-.714h1.535v-4.937h-1.21v-.56c.46-.09.807-.21.807-.21.34-.12.616-.29.616-.29h.664v5.99h1.385v.72h-3.78v-.72zm4.39.714zm2.617.126c-1.02 0-1.59-.903-1.59-.903-.57-.904-.57-2.595-.57-2.595 0-1.69.57-2.573.57-2.573.56-.883 1.58-.883 1.58-.883 1.01 0 1.57.883 1.57.883.56.882.56 2.573.56 2.573 0 1.69-.57 2.595-.57 2.595-.57.903-1.58.903-1.58.903zm0 0zm0-.693c.29 0 .53-.163.53-.163.23-.163.41-.504.41-.504.17-.342.26-.872.26-.872.1-.53.1-1.266.1-1.266 0-.735-.09-1.26-.09-1.26-.09-.525-.27-.856-.27-.856-.18-.33-.41-.49-.41-.49-.24-.156-.53-.156-.53-.156-.3 0-.54.157-.54.157-.24.158-.42.49-.42.49-.18.33-.27.855-.27.855-.09.525-.09 1.26-.09 1.26 0 1.47.36 2.138.36 2.138.36.667.95.667.95.667zm2.6.567zm.68-1.355c.3.305.7.536.7.536.41.24 1 .24 1 .24.31 0 .57-.11.57-.11.27-.11.47-.31.47-.31.2-.2.31-.48.31-.48.11-.28.11-.63.11-.63 0-.69-.39-1.08-.39-1.08-.39-.39-1.04-.39-1.04-.39-.35 0-.59.11-.59.11-.25.11-.55.31-.55.31l-.47-.29.22-3.22h3.35v.75h-2.6l-.18 1.99c.24-.13.48-.2.48-.2.25-.07.55-.07.55-.07.43 0 .81.13.81.13.38.13.66.39.66.39.29.26.45.65.45.65.16.4.16.94.16.94 0 .55-.19.97-.19.97-.19.42-.5.71-.5.71-.31.29-.72.44-.72.44-.4.15-.84.15-.84.15-.4 0-.73-.08-.73-.08-.33-.08-.6-.2-.6-.2-.27-.12-.49-.28-.49-.28-.22-.16-.38-.34-.38-.34zM304.55 758zm.946-6.89h1.722c1.597 0 2.427.882 2.427.882.83.882.83 2.53.83 2.53 0 .82-.21 1.466-.21 1.466-.21.646-.62 1.093-.62 1.093-.41.45-1.01.69-1.01.69-.597.24-1.375.24-1.375.24h-1.764v-6.89zm0 0zm1.66 6.176c1.207 0 1.81-.725 1.81-.725.605-.72.605-2.03.605-2.03 0-1.31-.6-2-.6-2-.6-.69-1.81-.69-1.81-.69h-.78v5.46h.79zm3.854.714zm1.303-6.155c-.252 0-.425-.158-.425-.158-.174-.158-.174-.4-.174-.4 0-.25.174-.404.174-.404.173-.152.425-.152.425-.152.252 0 .425.16.425.16.174.16.174.41.174.41 0 .24-.174.4-.174.4-.173.16-.425.16-.425.16zm0 0zm-.44 1.05h.86V758h-.86v-5.105zm1.72 5.105zm.726-1.155c.33.273.68.44.68.44.35.17.81.17.81.17.5 0 .75-.232.75-.232.25-.23.25-.567.25-.567 0-.2-.11-.347-.11-.347-.11-.15-.27-.26-.27-.26-.17-.11-.38-.2-.38-.2l-.42-.17c-.28-.1-.55-.22-.55-.22-.27-.12-.49-.3-.49-.3-.22-.18-.35-.41-.35-.41-.14-.23-.14-.56-.14-.56 0-.31.12-.58.12-.58.12-.27.35-.46.35-.46.22-.19.55-.31.55-.31.32-.11.73-.11.73-.11.48 0 .89.17.89.17.4.16.7.41.7.41l-.41.54c-.26-.2-.55-.33-.55-.33-.29-.13-.62-.13-.62-.13-.49 0-.71.22-.71.22-.23.22-.23.51-.23.51 0 .18.09.31.09.31.09.13.25.23.25.23.16.1.36.18.36.18l.42.16c.27.1.55.22.55.22.28.11.5.29.5.29.22.17.36.42.36.42.14.25.14.61.14.61 0 .31-.12.59-.12.59-.12.27-.36.48-.36.48-.24.21-.59.33-.59.33-.35.12-.8.12-.8.12-.55 0-1.04-.2-1.04-.2-.5-.2-.86-.51-.86-.51zm3.67 1.155zm.61-1.323c0-.84.75-1.287.75-1.287.75-.447 2.39-.625 2.39-.625 0-.242-.05-.473-.05-.473-.05-.23-.17-.41-.17-.41-.12-.178-.32-.29-.32-.29-.2-.11-.52-.11-.52-.11-.45 0-.84.17-.84.17-.39.167-.69.377-.69.377l-.35-.6c.36-.23.87-.45.87-.45.51-.22 1.13-.22 1.13-.22.93 0 1.35.57 1.35.57.42.57.42 1.53.42 1.53V758h-.72l-.08-.61h-.02c-.37.306-.79.52-.79.52-.43.216-.9.216-.9.216-.65 0-1.08-.378-1.08-.378-.43-.378-.43-1.07-.43-1.07zm0 0zm.85-.064c0 .442.25.63.25.63.26.19.63.19.63.19.36 0 .69-.173.69-.173.33-.174.7-.51.7-.51v-1.418c-.65.084-1.09.2-1.09.2-.44.115-.71.273-.71.273-.27.157-.38.362-.38.362-.12.205-.12.446-.12.446zm3.92 1.387zm1.23.86c0 .41.39.653.39.653.39.24 1.08.24 1.08.24.37 0 .67-.088.67-.088.3-.09.51-.23.51-.23.21-.143.32-.332.32-.332.11-.19.11-.39.11-.39 0-.356-.26-.492-.26-.492-.27-.13-.77-.13-.77-.13h-.88c-.15 0-.32-.01-.32-.01-.17-.01-.34-.07-.34-.07-.28.2-.4.42-.4.42-.13.22-.13.44-.13.44zm0 0zm-.76.117c0-.326.2-.62.2-.62.2-.294.54-.535.54-.535v-.042c-.19-.116-.32-.32-.32-.32-.13-.206-.13-.51-.13-.51 0-.326.17-.568.17-.568.18-.24.37-.378.37-.378v-.042c-.26-.21-.46-.562-.46-.562-.21-.352-.21-.814-.21-.814 0-.42.15-.756.15-.756.15-.336.41-.573.41-.573.26-.236.61-.362.61-.362.35-.126.74-.126.74-.126.21 0 .39.03.39.03.18.03.33.09.33.09h1.77v.66h-1.05c.18.18.3.45.3.45.12.27.12.6.12.6 0 .41-.15.74-.15.74-.15.33-.4.55-.4.55-.25.22-.59.35-.59.35-.35.12-.73.12-.73.12-.19 0-.39-.05-.39-.05-.2-.05-.38-.13-.38-.13-.14.11-.23.25-.23.25-.09.14-.09.35-.09.35 0 .24.19.4.19.4.19.16.71.16.71.16h.98c.89 0 1.34.29 1.34.29.44.28.44.92.44.92 0 .35-.18.67-.18.67-.18.32-.51.56-.51.56-.34.24-.82.38-.82.38-.48.14-1.08.14-1.08.14-.47 0-.86-.09-.86-.09-.39-.09-.67-.27-.67-.27-.28-.18-.43-.43-.43-.43-.16-.25-.16-.59-.16-.59zm0 0zm2.11-3.172c.22 0 .41-.084.41-.084.19-.08.34-.24.34-.24.15-.16.23-.38.23-.38.08-.22.08-.51.08-.51 0-.56-.32-.87-.32-.87-.32-.31-.77-.31-.77-.31-.45 0-.77.31-.77.31-.32.31-.32.88-.32.88 0 .29.08.51.08.51.08.23.23.39.23.39.15.16.35.24.35.24.19.09.41.09.41.09zm2.71 2.195zm.86-5.105h.71l.07.924h.03c.26-.49.63-.77.63-.77.37-.29.81-.29.81-.29.3 0 .55.1.55.1l-.17.75-.23-.07c-.11-.02-.27-.02-.27-.02-.33 0-.68.26-.68.26-.36.26-.62.91-.62.91v3.3h-.86v-5.11zM332.2 758zm.484-2.542c0-.63.194-1.13.194-1.13.197-.498.517-.845.517-.845.32-.346.73-.53.73-.53.41-.184.85-.184.85-.184.483 0 .867.16.867.16.383.17.64.48.64.48.258.31.394.75.394.75.136.44.136.98.136.98 0 .28-.033.47-.033.47h-3.45c.05.83.51 1.31.51 1.31.45.48 1.19.48 1.19.48.36 0 .67-.11.67-.11.31-.11.59-.29.59-.29l.3.56c-.34.21-.75.37-.75.37-.41.16-.94.16-.94.16-.52 0-.97-.19-.97-.19-.45-.19-.78-.53-.78-.53-.33-.34-.52-.84-.52-.84-.19-.5-.19-1.13-.19-1.13zm0 0zm3.57-.39c0-.786-.33-1.2-.33-1.2-.33-.416-.93-.416-.93-.416-.272 0-.52.11-.52.11-.246.11-.445.315-.445.315-.2.205-.33.504-.33.504-.14.3-.18.69-.18.69h2.73zM337.41 758zm.484-2.542c0-.63.196-1.13.196-1.13.195-.498.515-.845.515-.845.32-.346.73-.53.73-.53.41-.184.85-.184.85-.184.484 0 .868.16.868.16.383.17.64.48.64.48.258.31.394.75.394.75.134.44.134.98.134.98 0 .28-.03.47-.03.47h-3.44c.06.83.51 1.31.51 1.31.46.48 1.2.48 1.2.48.37 0 .68-.11.68-.11.31-.11.6-.29.6-.29l.31.56c-.34.21-.75.37-.75.37-.41.16-.93.16-.93.16-.51 0-.96-.19-.96-.19-.44-.19-.78-.53-.78-.53-.33-.34-.52-.84-.52-.84-.19-.5-.19-1.13-.19-1.13zm0 0zm3.573-.39c0-.786-.33-1.2-.33-1.2-.33-.416-.93-.416-.93-.416-.274 0-.52.11-.52.11-.248.11-.447.315-.447.315-.2.205-.33.504-.33.504-.13.3-.173.69-.173.69h2.73zm1.155 2.932zm.683-4.317c0-.305.182-.49.182-.49.183-.182.446-.182.446-.182.253 0 .437.19.437.19.184.19.184.49.184.49 0 .28-.18.47-.18.47-.185.19-.437.19-.437.19-.26 0-.445-.18-.445-.18-.185-.18-.185-.46-.185-.46zm0 0zm0 3.792c0-.305.182-.49.182-.49.183-.182.446-.182.446-.182.253 0 .437.183.437.183.184.184.184.49.184.49 0 .282-.18.466-.18.466-.185.184-.437.184-.437.184-.26 0-.445-.184-.445-.184-.185-.184-.185-.467-.185-.467zm4.052.525zm3.194-2.542v-1.943c0-.273.02-.646.02-.646.02-.38.04-.65.04-.65h-.04c-.12.24-.26.47-.26.47l-.28.47-1.56 2.29h2.1zm0 0zm1.73.693h-.91V758h-.82v-1.85h-3.01v-.566l2.87-4.286h.97v4.16h.92v.693zm.3 1.85zm.42-.51c.76-.75 1.35-1.36 1.35-1.36.59-.61.99-1.13.99-1.13.4-.52.61-.95.61-.95.21-.43.21-.84.21-.84 0-.58-.31-.94-.31-.94-.31-.36-.95-.36-.95-.36-.42 0-.77.24-.77.24-.36.24-.65.58-.65.58l-.49-.49c.42-.46.9-.74.9-.74.47-.27 1.13-.27 1.13-.27.94 0 1.47.54 1.47.54.54.55.54 1.44.54 1.44 0 .48-.21.95-.21.95-.2.48-.56.99-.56.99-.36.51-.86 1.06-.86 1.06-.5.56-1.1 1.17-1.1 1.17l.57-.04c.3-.02.56-.02.56-.02h1.95v.74H353v-.51zm4.8.52zm1.21-1.79c0 .29.11.52.11.52.11.23.31.41.31.41.2.18.46.27.46.27.27.1.57.1.57.1.59 0 .95-.32.95-.32.36-.32.36-.85.36-.85 0-.32-.15-.55-.15-.55-.15-.23-.4-.4-.4-.4-.25-.17-.58-.31-.58-.31l-.68-.29c-.4.28-.67.64-.67.64-.27.37-.27.83-.27.83zm0 0zm1.89-1.86c.34-.3.52-.64.52-.64.19-.33.19-.7.19-.7 0-.5-.3-.84-.3-.84-.3-.34-.86-.34-.86-.34-.47 0-.77.3-.77.3-.3.3-.3.79-.3.79 0 .31.13.52.13.52.13.22.34.39.34.39.22.17.5.3.5.3.28.13.58.25.58.25zm0 0zm-2.67 1.95c0-.32.11-.6.11-.6.11-.28.28-.5.28-.5.18-.22.4-.4.4-.4.23-.17.47-.3.47-.3v-.04c-.37-.26-.65-.64-.65-.64-.28-.37-.28-.91-.28-.91 0-.39.15-.7.15-.7.15-.31.4-.54.4-.54.25-.22.6-.35.6-.35.35-.13.76-.13.76-.13.44 0 .79.13.79.13.35.13.6.37.6.37.25.24.38.57.38.57.13.33.13.72.13.72 0 .26-.08.51-.08.51-.09.24-.22.45-.22.45-.13.21-.29.38-.29.38-.16.17-.32.29-.32.29v.04c.22.13.43.29.43.29.21.16.38.37.38.37.16.21.26.47.26.47.1.27.1.6.1.6 0 .38-.16.71-.16.71-.16.32-.44.57-.44.57-.29.25-.69.38-.69.38-.4.14-.88.14-.88.14-.47 0-.87-.13-.87-.13-.41-.14-.7-.38-.7-.38-.29-.25-.45-.58-.45-.58-.17-.34-.17-.74-.17-.74zm132.42 1.7zm.95-6.89h.9l2.49 4.33.75 1.43h.04c-.03-.52-.07-1.09-.07-1.09-.03-.56-.03-1.1-.03-1.1v-3.56h.83V758h-.9l-2.5-4.338-.74-1.418h-.04l.08 1.066c.03.54.03 1.087.03 1.087V758h-.83v-6.89zm5.85 6.89zm.49-2.54c0-.63.2-1.13.2-1.13.2-.5.52-.84.52-.84.32-.34.73-.53.73-.53.41-.18.85-.18.85-.18.49 0 .87.16.87.16.39.17.64.48.64.48.26.32.4.76.4.76.14.44.14.99.14.99 0 .29-.03.48-.03.48h-3.45c.06.83.51 1.31.51 1.31.46.49 1.19.49 1.19.49.37 0 .68-.11.68-.11.31-.11.59-.29.59-.29l.31.57c-.33.21-.74.37-.74.37-.41.16-.93.16-.93.16-.52 0-.96-.18-.96-.18-.44-.18-.77-.52-.77-.52-.33-.34-.52-.84-.52-.84-.19-.5-.19-1.13-.19-1.13zm0 0zm3.57-.39c0-.78-.33-1.2-.33-1.2-.33-.41-.93-.41-.93-.41-.27 0-.52.11-.52.11-.24.11-.44.32-.44.32-.2.21-.33.51-.33.51-.13.3-.17.69-.17.69h2.73zm1.16 2.93zm.79-5.1h.87v3.12c0 .73.23 1.05.23 1.05.23.32.73.32.73.32.4 0 .71-.2.71-.2.3-.2.67-.65.67-.65v-3.63h.86v5.1h-.71l-.07-.8h-.03c-.35.42-.75.68-.75.68-.39.25-.93.25-.93.25-.82 0-1.19-.5-1.19-.5-.38-.5-.38-1.49-.38-1.49v-3.24zm4.93 5.11zm1.01-4.4h-.75v-.65l.8-.05.11-1.43h.73v1.43h1.38v.71h-1.38v2.83c0 .47.17.73.17.73.18.25.62.25.62.25.14 0 .3-.04.3-.04.16-.04.28-.09.28-.09l.17.65c-.21.08-.46.14-.46.14-.24.06-.49.06-.49.06-.4 0-.68-.12-.68-.12-.28-.13-.45-.35-.45-.35-.17-.22-.25-.53-.25-.53-.07-.31-.07-.69-.07-.69v-2.82zm2.55 4.4zm.86-5.1h.72l.08.93h.03c.27-.49.64-.77.64-.77.38-.29.82-.29.82-.29.31 0 .55.1.55.1l-.17.76c-.12-.04-.23-.06-.23-.06-.1-.02-.26-.02-.26-.02-.32 0-.68.26-.68.26-.35.26-.61.92-.61.92V758h-.86v-5.105zm2.52 5.1zm.61-1.32c0-.84.75-1.28.75-1.28.75-.44 2.39-.62 2.39-.62 0-.24-.04-.47-.04-.47-.05-.23-.17-.41-.17-.41-.12-.18-.32-.29-.32-.29-.2-.11-.51-.11-.51-.11-.45 0-.84.17-.84.17-.38.17-.69.38-.69.38l-.34-.6c.35-.23.87-.45.87-.45.51-.22 1.13-.22 1.13-.22.94 0 1.36.57 1.36.57.42.57.42 1.53.42 1.53v3.1h-.71l-.07-.61h-.02c-.37.31-.79.52-.79.52-.42.22-.9.22-.9.22-.65 0-1.07-.38-1.07-.38-.42-.38-.42-1.07-.42-1.07zm0 0zm.85-.06c0 .44.26.63.26.63.26.19.64.19.64.19.37 0 .7-.17.7-.17.33-.17.7-.51.7-.51v-1.41c-.64.08-1.08.2-1.08.2-.44.11-.71.27-.71.27-.26.16-.38.36-.38.36-.11.21-.11.45-.11.45zm3.92 1.39zm.86-7.48h.86v6.52c0 .21.08.3.08.3.08.09.17.09.17.09h.08l.11-.02.12.65c-.08.04-.2.06-.2.06-.11.02-.29.02-.29.02-.49 0-.7-.29-.7-.29-.21-.29-.21-.86-.21-.86v-6.45zm1.82 7.48zm.69-4.31c0-.3.18-.49.18-.49.18-.18.44-.18.44-.18.25 0 .44.19.44.19.19.19.19.49.19.49 0 .28-.18.47-.18.47-.18.19-.43.19-.43.19-.26 0-.44-.18-.44-.18-.18-.18-.18-.46-.18-.46zm0 0zm0 3.8c0-.3.18-.49.18-.49.18-.18.44-.18.44-.18.25 0 .44.19.44.19.19.19.19.49.19.49 0 .29-.18.47-.18.47-.18.19-.43.19-.43.19-.26 0-.44-.18-.44-.18-.18-.18-.18-.46-.18-.46zm4.05.53zm3.19-2.54v-1.94c0-.27.02-.64.02-.64.02-.38.04-.65.04-.65h-.04c-.12.24-.26.47-.26.47l-.28.47-1.56 2.29h2.1zm0 0zm1.73.69h-.91v1.8h-.82v-1.85h-3.02v-.56l2.87-4.28h.97v4.16h.92v.7zm.3 1.85zm.72-1.38c.3.32.71.56.71.56.4.25 1 .25 1 .25.61 0 1-.33 1-.33.39-.33.39-.9.39-.9 0-.29-.11-.54-.11-.54-.11-.25-.36-.43-.36-.43-.25-.18-.66-.27-.66-.27-.41-.09-1.01-.09-1.01-.09v-.66c.54 0 .9-.1.9-.1.36-.09.59-.26.59-.26.23-.17.32-.4.32-.4.1-.23.1-.49.1-.49 0-.5-.31-.78-.31-.78-.31-.28-.84-.28-.84-.28-.42 0-.77.19-.77.19-.35.19-.65.5-.65.5l-.46-.55c.39-.37.86-.6.86-.6.47-.24 1.07-.24 1.07-.24.44 0 .81.12.81.12.37.12.63.33.63.33.27.22.42.53.42.53.15.32.15.73.15.73 0 .61-.34 1-.34 1-.33.39-.88.6-.88.6v.04c.31.08.57.22.57.22.26.14.46.35.46.35.2.22.31.5.31.5.11.29.11.63.11.63 0 .44-.17.8-.17.8-.17.36-.47.61-.47.61-.3.25-.7.38-.7.38-.4.13-.86.13-.86.13-.4 0-.73-.08-.73-.08-.33-.07-.6-.21-.6-.21-.27-.13-.49-.29-.49-.29-.21-.17-.38-.36-.38-.36zm4.5 1.39zm.42-.51c.76-.76 1.35-1.37 1.35-1.37.59-.61.99-1.13.99-1.13.4-.52.61-.95.61-.95.21-.44.21-.85.21-.85 0-.58-.31-.95-.31-.95-.31-.37-.95-.37-.95-.37-.42 0-.77.24-.77.24-.35.24-.65.58-.65.58l-.49-.49c.42-.46.9-.74.9-.74.48-.28 1.14-.28 1.14-.28.93 0 1.47.54 1.47.54.54.54.54 1.44.54 1.44 0 .47-.2.95-.2.95-.2.48-.56.99-.56.99-.36.51-.86 1.06-.86 1.06-.5.55-1.09 1.17-1.09 1.17l.57-.04c.3-.02.56-.02.56-.02h1.94v.74h-4.33v-.52zm138.49.51zm3.88-2.8l-.33-1.05c-.19-.58-.36-1.15-.36-1.15-.17-.58-.33-1.17-.33-1.17h-.04c-.15.59-.32 1.17-.32 1.17-.17.57-.35 1.15-.35 1.15l-.33 1.05h2.07zm0 0zm.22.7h-2.51l-.66 2.1h-.9l2.33-6.89h.99l2.33 6.89h-.93zm1.62 2.1zm1.23.86c0 .41.4.65.4.65.4.24 1.09.24 1.09.24.37 0 .67-.09.67-.09.3-.09.51-.23.51-.23.21-.14.33-.33.33-.33.12-.19.12-.39.12-.39 0-.35-.27-.49-.27-.49-.26-.13-.77-.13-.77-.13h-.88c-.15 0-.32-.02-.32-.02-.17-.01-.34-.07-.34-.07-.28.2-.4.42-.4.42-.13.22-.13.44-.13.44zm0 0zm-.75.11c0-.33.2-.62.2-.62.2-.29.55-.53.55-.53v-.04c-.18-.12-.32-.32-.32-.32-.13-.21-.13-.51-.13-.51 0-.33.18-.57.18-.57.18-.24.38-.38.38-.38V756c-.25-.21-.46-.56-.46-.56-.2-.35-.2-.817-.2-.817 0-.42.16-.75.16-.75.15-.336.41-.573.41-.573.27-.235.62-.36.62-.36.35-.126.74-.126.74-.126.21 0 .4.037.4.037.19.04.33.09.33.09h1.78v.66h-1.05c.18.18.3.45.3.45.12.28.12.6.12.6 0 .41-.15.74-.15.74-.15.33-.4.56-.4.56-.25.23-.59.35-.59.35-.34.13-.73.13-.73.13-.19 0-.39-.05-.39-.05-.2-.05-.38-.13-.38-.13-.13.11-.23.25-.23.25-.09.14-.09.35-.09.35 0 .25.19.4.19.4.19.16.71.16.71.16h.99c.89 0 1.34.29 1.34.29.45.29.45.93.45.93 0 .36-.18.68-.18.68-.18.32-.52.56-.52.56-.33.24-.81.39-.81.39-.48.15-1.08.15-1.08.15-.47 0-.86-.09-.86-.09-.39-.09-.67-.26-.67-.26-.28-.18-.43-.43-.43-.43-.15-.25-.15-.59-.15-.59zm0 0zm2.11-3.17c.22 0 .42-.08.42-.08.2-.08.35-.24.35-.24.15-.16.24-.38.24-.38.08-.23.08-.51.08-.51 0-.57-.31-.88-.31-.88-.31-.31-.76-.31-.76-.31-.45 0-.77.31-.77.31-.31.31-.31.87-.31.87 0 .29.08.51.08.51.08.23.24.39.24.39.15.15.34.24.34.24.2.08.42.08.42.08zm2.71 2.2zm.86-5.1h.72l.08.93h.03c.27-.48.64-.77.64-.77.38-.28.82-.28.82-.28.3 0 .55.1.55.1l-.17.76c-.12-.04-.23-.06-.23-.06-.1-.02-.26-.02-.26-.02-.32 0-.68.26-.68.26-.35.26-.61.91-.61.91V758h-.86v-5.105zm2.68 5.11zm.49-2.54c0-.63.19-1.13.19-1.13.2-.5.52-.84.52-.84.32-.35.73-.53.73-.53.41-.18.85-.18.85-.18.48 0 .87.17.87.17.38.17.64.49.64.49.26.32.39.76.39.76.14.44.14.99.14.99 0 .29-.03.47-.03.47h-3.45c.05.83.51 1.32.51 1.32.46.48 1.19.48 1.19.48.37 0 .68-.11.68-.11.31-.11.59-.29.59-.29l.31.57c-.33.21-.74.37-.74.37-.41.16-.93.16-.93.16-.51 0-.96-.18-.96-.18-.45-.18-.78-.53-.78-.53-.33-.34-.52-.83-.52-.83-.19-.49-.19-1.12-.19-1.12zm0 0zm3.57-.39c0-.78-.33-1.2-.33-1.2-.33-.41-.93-.41-.93-.41-.27 0-.52.11-.52.11-.25.11-.45.32-.45.32-.2.21-.33.5-.33.5-.13.3-.17.69-.17.69h2.73zm1.16 2.93zm.48-2.54c0-.63.19-1.13.19-1.13.2-.49.52-.84.52-.84.32-.34.73-.53.73-.53.41-.18.85-.18.85-.18.48 0 .87.17.87.17.39.17.64.49.64.49.26.32.4.76.4.76.14.44.14.99.14.99 0 .28-.03.47-.03.47h-3.45c.06.83.51 1.32.51 1.32.46.48 1.2.48 1.2.48.37 0 .68-.11.68-.11.31-.11.59-.29.59-.29l.3.57c-.34.21-.75.36-.75.36-.41.16-.93.16-.93.16-.51 0-.96-.18-.96-.18-.44-.18-.77-.52-.77-.52-.33-.34-.52-.83-.52-.83-.19-.49-.19-1.12-.19-1.12zm0 0zm3.57-.39c0-.78-.33-1.2-.33-1.2-.33-.41-.93-.41-.93-.41-.27 0-.52.11-.52.11-.25.11-.45.31-.45.31-.2.21-.33.51-.33.51-.13.3-.17.69-.17.69h2.73zm1.16 2.94zm.68-4.32c0-.3.18-.49.18-.49.19-.18.45-.18.45-.18.25 0 .43.19.43.19.18.18.18.49.18.49 0 .28-.18.46-.18.46-.18.18-.43.18-.43.18-.26 0-.44-.19-.44-.19-.18-.18-.18-.46-.18-.46zm0 0zm0 3.79c0-.31.18-.49.18-.49.19-.18.45-.18.45-.18.25 0 .43.18.43.18.18.18.18.49.18.49 0 .28-.18.47-.18.47-.18.19-.43.19-.43.19-.26 0-.44-.18-.44-.18-.18-.19-.18-.47-.18-.47zm4.05.52zm.42-.51c.76-.76 1.34-1.37 1.34-1.37.59-.61.99-1.13.99-1.13.4-.52.61-.96.61-.96.21-.43.21-.84.21-.84 0-.58-.31-.94-.31-.94-.31-.37-.95-.37-.95-.37-.42 0-.78.24-.78.24-.36.23-.65.57-.65.57l-.5-.49c.42-.46.89-.74.89-.74.48-.28 1.14-.28 1.14-.28.94 0 1.47.54 1.47.54.54.54.54 1.43.54 1.43 0 .48-.2.95-.2.95-.2.48-.57.99-.57.99-.36.51-.86 1.06-.86 1.06-.5.56-1.1 1.18-1.1 1.18l.57-.04c.3-.02.56-.02.56-.02h1.95v.75h-4.33v-.51zm4.8.51zm.83-.72h1.53v-4.94h-1.21v-.55c.46-.08.8-.2.8-.2.34-.12.62-.29.62-.29h.66v5.99H717v.72h-3.78v-.71zm4.39.72zm2.62.13c-1.02 0-1.58-.9-1.58-.9-.57-.91-.57-2.6-.57-2.6 0-1.69.57-2.57.57-2.57.57-.88 1.59-.88 1.59-.88 1.01 0 1.58.88 1.58.88.57.88.57 2.57.57 2.57 0 1.69-.57 2.6-.57 2.6-.57.91-1.57.91-1.57.91zm0 0zm0-.69c.3 0 .53-.17.53-.17.24-.16.41-.5.41-.5.17-.34.27-.87.27-.87.09-.53.09-1.27.09-1.27 0-.73-.09-1.26-.09-1.26-.09-.52-.27-.85-.27-.85-.17-.33-.41-.49-.41-.49-.23-.15-.53-.15-.53-.15-.29 0-.53.15-.53.15-.24.16-.42.49-.42.49-.17.33-.27.86-.27.86-.09.52-.09 1.26-.09 1.26 0 1.47.37 2.14.37 2.14.36.67.95.67.95.67zm124.01.56zm.97-1.5c.37.39.87.62.87.62.5.24 1.04.24 1.04.24.69 0 1.06-.31 1.06-.31.38-.31.38-.82.38-.82 0-.26-.09-.44-.09-.44-.09-.19-.24-.32-.24-.32-.15-.13-.36-.24-.36-.24-.21-.11-.45-.22-.45-.22l-.99-.43c-.24-.11-.49-.26-.49-.26-.25-.15-.45-.36-.45-.36-.2-.21-.32-.5-.32-.5-.13-.29-.13-.66-.13-.66 0-.39.16-.72.16-.72.16-.34.45-.59.45-.59.29-.25.68-.38.68-.38.39-.14.87-.14.87-.14.62 0 1.14.24 1.14.24.52.24.89.62.89.62l-.47.57c-.31-.31-.7-.48-.7-.48-.38-.18-.86-.18-.86-.18-.58 0-.93.27-.93.27-.35.27-.35.74-.35.74 0 .26.1.43.1.43.1.17.27.3.27.3.17.13.37.23.37.23.2.1.41.19.41.19l.98.42c.3.12.56.29.56.29.26.16.45.38.45.38.19.22.3.51.3.51.11.29.11.66.11.66 0 .41-.16.77-.16.77-.16.35-.46.62-.46.62-.3.27-.73.42-.73.42-.43.15-.97.15-.97.15-.72 0-1.34-.27-1.34-.27-.62-.27-1.07-.74-1.07-.74zm4.64 1.5zm1.01-4.4h-.76V753l.8-.06.11-1.43h.73v1.43h1.37v.71h-1.37v2.835c0 .47.18.73.18.73.18.26.62.26.62.26.14 0 .3-.04.3-.04.16-.05.28-.1.28-.1l.17.65c-.21.07-.46.13-.46.13-.24.057-.48.057-.48.057-.41 0-.69-.126-.69-.126-.28-.122-.45-.343-.45-.343-.17-.22-.24-.534-.24-.534-.08-.32-.08-.7-.08-.7v-2.81zm2.54 4.4zm.86-5.11h.71l.08.93h.03c.26-.49.64-.77.64-.77.37-.28.81-.28.81-.28.31 0 .55.1.55.1l-.17.75c-.12-.04-.23-.06-.23-.06-.1-.02-.26-.02-.26-.02-.33 0-.68.26-.68.26-.35.26-.62.92-.62.92V758h-.86v-5.105zm2.68 5.11zm.49-2.54c0-.64.2-1.14.2-1.14.19-.5.52-.84.52-.84.32-.35.75-.53.75-.53.42-.18.9-.18.9-.18.47 0 .89.18.89.18.43.18.76.52.76.52.32.35.52.85.52.85.19.5.19 1.14.19 1.14 0 .63-.2 1.13-.2 1.13-.2.5-.52.84-.52.84-.33.34-.75.52-.75.52-.43.18-.9.18-.9.18-.47 0-.9-.18-.9-.18-.42-.17-.75-.52-.75-.52-.32-.34-.52-.84-.52-.84-.19-.49-.19-1.12-.19-1.12zm0 0zm.9 0c0 .44.1.8.1.8.1.36.3.61.3.61.19.26.47.4.47.4.27.14.6.14.6.14.33 0 .6-.14.6-.14.27-.14.47-.4.47-.4.2-.26.3-.62.3-.62.11-.36.11-.8.11-.8 0-.44-.11-.8-.11-.8-.1-.36-.3-.62-.3-.62-.19-.27-.47-.41-.47-.41-.27-.14-.6-.14-.6-.14-.32 0-.59.15-.59.15-.27.14-.47.41-.47.41-.2.26-.3.63-.3.63-.11.37-.11.81-.11.81zm4.31 2.55zm.87-5.1h.72l.07.73h.03c.37-.37.77-.62.77-.62.41-.25.94-.25.94-.25.81 0 1.18.5 1.18.5.37.51.37 1.5.37 1.5v3.2h-.86v-3.12c0-.72-.23-1.04-.23-1.04-.23-.32-.73-.32-.73-.32-.4 0-.7.2-.7.2-.31.2-.69.59-.69.59V758h-.86v-5.105zm4.89 5.1zm1.23.86c0 .41.39.65.39.65.4.24 1.09.24 1.09.24.37 0 .67-.09.67-.09.3-.09.51-.23.51-.23.21-.14.32-.33.32-.33.11-.19.11-.39.11-.39 0-.36-.26-.49-.26-.49-.26-.13-.76-.13-.76-.13h-.88c-.15 0-.32-.01-.32-.01-.18-.02-.34-.07-.34-.07-.27.2-.4.42-.4.42-.13.22-.13.44-.13.44zm0 0zm-.76.12c0-.33.2-.62.2-.62.2-.3.55-.54.55-.54v-.04c-.19-.11-.32-.32-.32-.32-.13-.2-.13-.51-.13-.51 0-.32.18-.57.18-.57.18-.24.38-.37.38-.37V756c-.26-.21-.46-.56-.46-.56-.2-.35-.2-.81-.2-.81 0-.42.15-.755.15-.755.15-.34.41-.573.41-.573.26-.235.61-.36.61-.36.35-.127.74-.127.74-.127.21 0 .39.035.39.035.19.032.33.09.33.09h1.78v.66h-1.05c.18.18.3.45.3.45.12.27.12.6.12.6 0 .41-.14.74-.14.74-.15.33-.4.55-.4.55-.25.226-.59.35-.59.35-.34.126-.73.126-.73.126-.19 0-.39-.042-.39-.042-.2-.05-.38-.13-.38-.13-.14.11-.23.253-.23.253-.1.146-.1.356-.1.356 0 .24.19.4.19.4.19.157.71.157.71.157h.99c.89 0 1.34.29 1.34.29.44.29.44.93.44.93 0 .356-.18.68-.18.68-.18.32-.52.56-.52.56-.33.24-.81.38-.81.38-.48.144-1.08.144-1.08.144-.47 0-.86-.09-.86-.09-.39-.09-.66-.27-.66-.27-.28-.18-.43-.43-.43-.43-.15-.25-.15-.59-.15-.59zm0 0zm2.11-3.17c.22 0 .42-.09.42-.09.19-.08.35-.24.35-.24.15-.16.23-.38.23-.38.08-.23.08-.51.08-.51 0-.57-.31-.88-.31-.88-.32-.31-.77-.31-.77-.31-.45 0-.77.31-.77.31-.32.31-.32.88-.32.88 0 .29.08.51.08.51.08.23.23.38.23.38.15.16.35.24.35.24.2.09.42.09.42.09zm2.71 2.19zm.86-7.48h.86v6.51c0 .21.07.29.07.29.07.09.17.09.17.09h.08l.11-.02.11.65c-.09.04-.2.07-.2.07-.12.02-.3.02-.3.02-.5 0-.71-.29-.71-.29-.21-.29-.21-.86-.21-.86v-6.45zm1.82 7.48zm.51 1.4l.19.05.2.03c.44 0 .72-.31.72-.31.28-.31.44-.78.44-.78l.12-.38-2.05-5.11h.89l1.04 2.83.25.71c.13.37.25.73.25.73h.04c.12-.34.22-.72.22-.72l.21-.72.92-2.82h.84l-1.93 5.52c-.14.38-.31.7-.31.7-.16.33-.4.56-.4.56-.23.24-.52.37-.52.37-.29.14-.68.14-.68.14-.18 0-.32-.03-.32-.03-.15-.02-.27-.08-.27-.08l.17-.68zm6.52-1.41zm.61-1.32c0-.84.75-1.29.75-1.29.75-.45 2.39-.62 2.39-.62 0-.24-.05-.47-.05-.47-.05-.23-.17-.41-.17-.41-.12-.18-.32-.29-.32-.29-.2-.11-.51-.11-.51-.11-.45 0-.84.17-.84.17-.38.17-.68.38-.68.38l-.35-.6c.35-.23.87-.45.87-.45.51-.21 1.13-.21 1.13-.21.94 0 1.36.57 1.36.57.42.58.42 1.53.42 1.53v3.1h-.71l-.07-.61h-.02c-.36.31-.79.52-.79.52-.42.22-.9.22-.9.22-.65 0-1.07-.38-1.07-.38-.43-.37-.43-1.07-.43-1.07zm0 0zm.85-.06c0 .44.25.63.25.63.26.19.64.19.64.19.37 0 .7-.17.7-.17.33-.18.7-.51.7-.51v-1.42c-.64.08-1.08.2-1.08.2-.44.11-.71.27-.71.27-.27.16-.38.36-.38.36-.12.21-.12.45-.12.45zm3.92 1.39zm1.23.86c0 .41.39.65.39.65.39.24 1.09.24 1.09.24.37 0 .66-.08.66-.08.3-.09.51-.23.51-.23.21-.14.32-.33.32-.33.12-.19.12-.39.12-.39 0-.35-.27-.49-.27-.49-.26-.13-.76-.13-.76-.13h-.88c-.14 0-.32-.01-.32-.01-.17-.01-.34-.07-.34-.07-.27.2-.4.42-.4.42-.12.22-.12.44-.12.44zm0 0zm-.76.12c0-.33.2-.62.2-.62.2-.3.55-.54.55-.54v-.04c-.19-.12-.32-.32-.32-.32-.13-.21-.13-.51-.13-.51 0-.33.17-.57.17-.57.18-.24.38-.38.38-.38V756c-.25-.21-.46-.56-.46-.56-.2-.35-.2-.81-.2-.81 0-.42.15-.757.15-.757.15-.333.41-.57.41-.57.26-.236.61-.36.61-.36.35-.126.74-.126.74-.126.21 0 .39.03.39.03.19.03.33.09.33.09h1.78v.66h-1.05c.18.18.3.45.3.45.12.27.12.6.12.6 0 .41-.14.74-.14.74-.15.33-.4.55-.4.55-.25.23-.59.355-.59.355-.34.13-.73.13-.73.13-.19 0-.39-.05-.39-.05-.2-.046-.38-.13-.38-.13-.14.115-.23.257-.23.257-.1.14-.1.35-.1.35 0 .24.19.4.19.4.19.15.72.15.72.15h.99c.89 0 1.34.29 1.34.29.45.29.45.93.45.93 0 .36-.18.68-.18.68-.18.32-.51.56-.51.56-.34.24-.82.38-.82.38-.48.14-1.08.14-1.08.14-.48 0-.87-.09-.87-.09-.39-.09-.66-.27-.66-.27-.28-.18-.43-.43-.43-.43-.15-.26-.15-.59-.15-.59zm0 0zm2.11-3.17c.22 0 .42-.09.42-.09.19-.08.34-.24.34-.24.15-.16.24-.38.24-.38.08-.23.08-.51.08-.51 0-.57-.32-.88-.32-.88-.31-.31-.77-.31-.77-.31-.45 0-.77.31-.77.31-.31.31-.31.88-.31.88 0 .28.08.51.08.51.09.22.24.38.24.38.15.15.35.24.35.24.2.08.42.08.42.08zm2.71 2.19zm.86-5.1h.72l.07.93h.04c.27-.48.64-.77.64-.77.38-.28.82-.28.82-.28.3 0 .55.11.55.11l-.17.76c-.12-.04-.23-.06-.23-.06-.1-.02-.26-.02-.26-.02-.32 0-.68.26-.68.26-.35.26-.61.91-.61.91v3.2h-.86v-5.11zm2.68 5.11zm.48-2.54c0-.63.19-1.13.19-1.13.19-.5.51-.84.51-.84.32-.35.73-.53.73-.53.41-.18.85-.18.85-.18.48 0 .87.16.87.16.39.17.64.48.64.48.26.32.4.76.4.76.14.44.14.99.14.99 0 .29-.03.47-.03.47h-3.44c.06.83.51 1.32.51 1.32.46.49 1.2.49 1.2.49.37 0 .68-.11.68-.11.31-.11.59-.29.59-.29l.3.57c-.34.21-.75.37-.75.37-.41.16-.93.16-.93.16-.52 0-.96-.18-.96-.18-.45-.18-.78-.53-.78-.53-.33-.34-.52-.83-.52-.83-.19-.49-.19-1.12-.19-1.12zm0 0zm3.57-.39c0-.78-.33-1.2-.33-1.2-.33-.41-.93-.41-.93-.41-.27 0-.52.11-.52.11-.25.11-.45.32-.45.32-.2.21-.33.51-.33.51-.13.3-.17.69-.17.69h2.73zm1.16 2.93zm.48-2.54c0-.63.19-1.13.19-1.13.19-.49.51-.84.51-.84.33-.34.73-.53.73-.53.41-.18.86-.18.86-.18.48 0 .87.16.87.16.39.17.64.49.64.49.26.32.4.76.4.76.14.44.14.99.14.99 0 .29-.03.48-.03.48h-3.44c.05.83.51 1.31.51 1.31.46.48 1.19.48 1.19.48.37 0 .68-.11.68-.11.31-.11.6-.29.6-.29l.31.57c-.34.21-.74.37-.74.37-.41.16-.94.16-.94.16-.51 0-.96-.19-.96-.19-.446-.18-.78-.52-.78-.52-.33-.34-.52-.83-.52-.83-.186-.5-.186-1.13-.186-1.13zm0 0zm3.57-.39c0-.78-.33-1.2-.33-1.2-.33-.41-.93-.41-.93-.41-.28 0-.52.11-.52.11-.25.11-.45.32-.45.32-.2.2-.33.5-.33.5-.13.3-.17.69-.17.69h2.73zm1.16 2.94zm.68-4.31c0-.3.18-.49.18-.49.19-.18.45-.18.45-.18.25 0 .44.19.44.19.19.19.19.49.19.49 0 .28-.18.47-.18.47-.18.18-.43.18-.43.18-.26 0-.44-.19-.44-.19-.18-.19-.18-.47-.18-.47zm0 0zm0 3.79c0-.3.18-.49.18-.49.19-.18.45-.18.45-.18.25 0 .44.19.44.19.19.18.19.49.19.49 0 .28-.18.47-.18.47-.18.19-.43.19-.43.19-.26 0-.44-.18-.44-.18-.18-.18-.18-.46-.18-.46zm4.05.53zm.72-1.39c.31.32.71.56.71.56.41.24 1.01.24 1.01.24.61 0 1-.33 1-.33.39-.33.39-.9.39-.9 0-.29-.11-.54-.11-.54-.11-.25-.37-.43-.37-.43-.25-.18-.66-.27-.66-.27-.41-.09-1.01-.09-1.01-.09v-.67c.54 0 .9-.1.9-.1.36-.09.59-.26.59-.26.23-.17.32-.4.32-.4.1-.23.1-.49.1-.49 0-.49-.31-.78-.31-.78-.31-.28-.85-.28-.85-.28-.42 0-.77.19-.77.19-.35.18-.65.49-.65.49l-.46-.55c.39-.37.86-.6.86-.6.47-.23 1.07-.23 1.07-.23.44 0 .81.12.81.12.37.11.63.33.63.33.27.21.42.53.42.53.15.31.15.72.15.72 0 .61-.33 1-.33 1-.33.39-.88.6-.88.6v.04c.31.07.57.22.57.22.26.14.46.36.46.36.2.22.31.5.31.5.11.28.11.63.11.63 0 .44-.17.8-.17.8-.17.35-.47.6-.47.6-.3.25-.7.38-.7.38-.4.13-.86.13-.86.13-.4 0-.73-.08-.73-.08-.33-.07-.6-.21-.6-.21-.27-.13-.49-.29-.49-.29-.21-.17-.38-.36-.38-.36zm4.51 1.39zm2.82-.56c.25 0 .46-.1.46-.1.21-.1.37-.3.37-.3.16-.19.25-.46.25-.46.08-.27.08-.6.08-.6 0-.66-.3-1.04-.3-1.04-.3-.37-.93-.37-.93-.37-.32 0-.69.2-.69.2-.38.2-.71.68-.71.68.08.99.46 1.5.46 1.5.37.51 1.01.51 1.01.51zm0 0zm1.37-5.02c-.21-.24-.5-.38-.5-.38-.29-.14-.6-.14-.6-.14-.35 0-.66.15-.66.15-.32.15-.56.49-.56.49-.24.34-.39.88-.39.88-.15.54-.16 1.34-.16 1.34.31-.39.73-.61.73-.61.42-.23.83-.23.83-.23.87 0 1.39.52 1.39.52.52.52.52 1.56.52 1.56 0 .48-.16.88-.16.88-.16.39-.43.67-.43.67-.27.29-.63.45-.63.45-.36.16-.77.16-.77.16-.49 0-.91-.2-.91-.2-.42-.2-.73-.6-.73-.6-.31-.4-.49-1.01-.49-1.01-.18-.6-.18-1.41-.18-1.41 0-1.01.21-1.71.21-1.71.21-.71.57-1.15.57-1.15.36-.45.82-.65.82-.65.46-.21.96-.21.96-.21.55 0 .94.21.94.21.39.2.68.51.68.51z"/></svg>