<svg xmlns="http://www.w3.org/2000/svg" stroke="#000" viewBox="0 0 1024 768" font-size="1"><path fill="#FFF" stroke="none" d="M0 0v768h1024V0z"/><path stroke="none" d="M329.25 14.102zm1.187-10.04h2.264v3.864h3.47V4.06h2.28v10.042h-2.28v-4.19h-3.47v4.19h-2.26V4.062zm9.194 10.04zm.73-2.126c0-1.2 1.02-1.88 1.02-1.88 1.02-.676 3.28-.907 3.28-.907-.03-.51-.3-.81-.3-.81-.27-.3-.89-.3-.89-.3-.49 0-.98.18-.98.18-.49.18-1.05.51-1.05.51l-.8-1.5c.74-.45 1.55-.73 1.55-.73.81-.28 1.72-.28 1.72-.28 1.48 0 2.26.84 2.26.84.78.84.78 2.61.78 2.61v4.38h-1.85l-.17-.79h-.04c-.49.43-1.04.7-1.04.7-.54.27-1.19.27-1.19.27-.52 0-.94-.18-.94-.18-.41-.18-.71-.5-.71-.5-.29-.32-.45-.73-.45-.73-.16-.42-.16-.91-.16-.91zm0 0zm2.16-.17c0 .37.24.548.24.548.24.177.64.177.64.177.4 0 .68-.17.68-.17.28-.16.59-.47.59-.47v-1.34c-1.21.17-1.67.5-1.67.5-.46.33-.46.77-.46.77zm5.35 2.296zm1.34-2.295c.53.4 1 .6 1 .6.48.2.97.2.97.2.51 0 .74-.17.74-.17.23-.168.23-.476.23-.476 0-.18-.13-.33-.13-.33-.13-.14-.35-.27-.35-.27-.22-.12-.5-.22-.5-.22-.27-.1-.57-.22-.57-.22-.35-.14-.71-.32-.71-.32-.35-.18-.64-.45-.64-.45-.29-.27-.47-.63-.47-.63-.18-.36-.18-.84-.18-.84 0-.52.21-.97.21-.97.21-.44.6-.75.6-.75.39-.3.92-.48.92-.48.54-.17 1.2-.17 1.2-.17.88 0 1.54.3 1.54.3.66.3 1.16.67 1.16.67l-1.02 1.36c-.42-.31-.82-.48-.82-.48-.4-.17-.8-.17-.8-.17-.86 0-.86.61-.86.61 0 .19.13.32.13.32.12.13.33.24.33.24.21.11.48.21.48.21l.56.21c.37.14.73.32.73.32.37.18.67.44.67.44.3.26.49.64.49.64.19.38.19.9.19.9 0 .52-.2.97-.2.97-.2.45-.6.78-.6.78-.4.33-.98.52-.98.52-.59.19-1.36.19-1.36.19-.75 0-1.54-.29-1.54-.29-.8-.29-1.38-.77-1.38-.77zm8.69 2.295zm.93-7.64h2.27v4.452c0 .83.23 1.14.23 1.14.24.307.73.307.73.307.43 0 .73-.2.73-.2.29-.2.63-.64.63-.64V6.47h2.26v7.63h-1.85l-.17-1.063h-.04c-.49.584-1.05.915-1.05.915-.56.33-1.35.33-1.35.33-1.24 0-1.81-.815-1.81-.815-.56-.816-.56-2.264-.56-2.264v-4.74zm7.83 7.64zm3.27.6v2.233h-2.26V6.463h1.85l.16.755h.06c.45-.4 1.01-.67 1.01-.67.56-.27 1.16-.27 1.16-.27.7 0 1.25.277 1.25.277.56.278.94.786.94.786.39.51.6 1.23.6 1.23.21.72.21 1.6.21 1.6 0 .99-.27 1.75-.27 1.75-.27.77-.72 1.3-.72 1.3-.45.54-1.03.81-1.03.81-.58.28-1.19.28-1.19.28-.49 0-.95-.21-.95-.21-.46-.21-.86-.59-.86-.59zm0 0zm0-2.756c.31.277.62.385.62.385.31.11.6.11.6.11.59 0 1-.53 1-.53.42-.53.42-1.72.42-1.72 0-2.06-1.32-2.06-1.32-2.06-.66 0-1.31.7-1.31.7v3.13zm5.56 2.156zm2.39.954c0 .432.46.655.46.655.47.23 1.24.23 1.24.23.77 0 1.26-.27 1.26-.27.5-.27.5-.67.5-.67 0-.35-.3-.47-.3-.47-.3-.12-.87-.12-.87-.12h-.79c-.4 0-.65-.02-.65-.02-.24-.02-.43-.07-.43-.07-.41.37-.41.76-.41.76zm0 0zm-1.87.354c0-.92 1.1-1.54 1.1-1.54v-.06c-.31-.2-.51-.51-.51-.51-.2-.3-.2-.78-.2-.78 0-.41.25-.79.25-.79.25-.37.62-.64.62-.64v-.06c-.4-.28-.71-.79-.71-.79-.31-.51-.31-1.19-.31-1.19 0-.69.26-1.21.26-1.21.26-.51.7-.86.7-.86.44-.35 1.01-.51 1.01-.51.57-.17 1.19-.17 1.19-.17.68 0 1.19.184 1.19.184h2.79v1.64h-1.21c.11.17.18.433.18.433.07.263.07.57.07.57 0 .663-.23 1.148-.23 1.148-.23.48-.64.8-.64.8-.41.31-.95.47-.95.47-.55.15-1.18.15-1.18.15-.45 0-.92-.156-.92-.156-.16.12-.22.24-.22.24-.07.12-.07.32-.07.32 0 .29.26.43.26.43.26.14.9.14.9.14h1.23c1.42 0 2.17.45 2.17.45.74.45.74 1.48.74 1.48 0 .6-.3 1.1-.3 1.1-.3.5-.85.86-.85.86-.56.36-1.34.57-1.34.57-.79.21-1.77.21-1.77.21-.68 0-1.26-.12-1.26-.12-.58-.12-1.01-.35-1.01-.35-.44-.23-.682-.6-.682-.6-.25-.37-.25-.88-.25-.88zm0 0zm3.38-5.09c.45 0 .75-.31.75-.31.3-.31.3-.96.3-.96 0-.6-.3-.91-.3-.91-.3-.314-.74-.314-.74-.314-.45 0-.75.307-.75.307-.3.31-.3.927-.3.927 0 .646.3.96.3.96.3.317.75.317.75.317zm4.33 3.79zm1-7.64h1.85l.15 1.34h.06c.42-.78 1-1.15 1-1.15.59-.37 1.17-.37 1.17-.37.33 0 .53.04.53.04.21.04.38.12.38.12l-.37 1.96c-.21-.065-.4-.095-.4-.095-.18-.03-.43-.03-.43-.03-.43 0-.9.308-.9.308-.47.31-.78 1.094-.78 1.094v4.435h-2.27V6.47zm4.68 7.64zm.73-2.12c0-1.2 1.01-1.88 1.01-1.88 1.02-.67 3.28-.9 3.28-.9-.03-.51-.31-.81-.31-.81-.27-.3-.89-.3-.89-.3-.49 0-.98.186-.98.186-.49.185-1.05.508-1.05.508l-.8-1.492c.74-.45 1.55-.725 1.55-.725.81-.276 1.72-.276 1.72-.276 1.48 0 2.26.84 2.26.84.78.84.78 2.61.78 2.61v4.37h-1.85l-.17-.78h-.04c-.49.43-1.04.7-1.04.7-.55.27-1.19.27-1.19.27-.53 0-.94-.18-.94-.18-.42-.17-.71-.49-.71-.49-.29-.31-.46-.73-.46-.73-.16-.41-.16-.9-.16-.9zm0 0zm2.15-.17c0 .37.24.55.24.55.24.18.64.18.64.18.4 0 .68-.17.68-.17.28-.164.59-.472.59-.472v-1.34c-1.21.17-1.68.493-1.68.493-.46.33-.46.77-.46.77zm5.35 2.3zm.6-3.82c0-.94.27-1.68.27-1.68.27-.74.71-1.25.71-1.25.44-.516 1.02-.794 1.02-.794.58-.277 1.18-.277 1.18-.277.65 0 1.06.21 1.06.21.42.21.82.58.82.58l-.09-1.17V3.31h2.27V14.1h-1.85l-.15-.754h-.06c-.4.4-.94.67-.94.67-.54.27-1.09.27-1.09.27-.71 0-1.29-.278-1.29-.278-.58-.278-.99-.794-.99-.794-.41-.516-.63-1.255-.63-1.255-.22-.74-.22-1.68-.22-1.68zm0 0zm2.33-.03c0 1.14.36 1.666.36 1.666.36.523 1.03.523 1.03.523.37 0 .67-.16.67-.16.3-.16.58-.54.58-.54V8.62c-.31-.278-.63-.386-.63-.386-.33-.108-.63-.108-.63-.108-.54 0-.95.516-.95.516-.41.516-.41 1.61-.41 1.61zm5.9 3.85zm2.13-8.76c-.57 0-.94-.33-.94-.33-.37-.33-.37-.856-.37-.856 0-.524.37-.847.37-.847.37-.325.94-.325.94-.325.58 0 .95.326.95.326.36.32.36.845.36.845 0 .526-.36.857-.36.857-.36.33-.95.33-.95.33zm0 0zm-1.13 1.123h2.26v7.64h-2.26V6.47zm3.25 7.64zm1-7.64h1.85l.15.97h.06c.49-.462 1.08-.81 1.08-.81.58-.346 1.37-.346 1.37-.346 1.25 0 1.81.818 1.81.818.56.82.56 2.267.56 2.267v4.744h-2.27V9.67c0-.834-.22-1.14-.22-1.14-.22-.31-.72-.31-.72-.31-.43 0-.74.193-.74.193-.31.196-.68.55-.68.55v5.16h-2.26V6.47zm7.81 7.64zm2.38.954c0 .43.47.656.47.656.47.22 1.24.22 1.24.22.77 0 1.26-.27 1.26-.27.49-.27.49-.67.49-.67 0-.355-.3-.48-.3-.48-.3-.122-.87-.122-.87-.122h-.79c-.4 0-.65-.02-.65-.02-.24-.02-.43-.07-.43-.07-.41.37-.41.76-.41.76zm0 0zm-1.87.353c0-.926 1.1-1.54 1.1-1.54v-.06c-.31-.2-.51-.51-.51-.51-.2-.31-.2-.788-.2-.788 0-.413.25-.79.25-.79.24-.378.61-.64.61-.64v-.06c-.4-.28-.71-.794-.71-.794-.31-.52-.31-1.2-.31-1.2 0-.695.26-1.21.26-1.21.26-.517.7-.86.7-.86.44-.35 1.01-.52 1.01-.52.57-.17 1.18-.17 1.18-.17.68 0 1.19.186 1.19.186h2.79v1.64h-1.22c.11.17.18.43.18.43.07.264.07.57.07.57 0 .664-.23 1.15-.23 1.15-.23.48-.64.8-.64.8-.4.31-.95.47-.95.47-.54.15-1.18.15-1.18.15-.44 0-.92-.157-.92-.157-.15.12-.21.244-.21.244-.06.13-.06.33-.06.33 0 .29.26.43.26.43.25.14.9.14.9.14h1.23c1.42 0 2.16.46 2.16.46.75.46.75 1.49.75 1.49 0 .6-.3 1.1-.3 1.1-.3.5-.86.86-.86.86-.55.36-1.34.57-1.34.57-.78.21-1.77.21-1.77.21-.68 0-1.25-.11-1.25-.11-.58-.11-1.01-.35-1.01-.35-.44-.23-.68-.6-.68-.6-.24-.37-.24-.87-.24-.87zm0 0zm3.37-5.1c.45 0 .75-.317.75-.317.3-.315.3-.962.3-.962 0-.6-.3-.91-.3-.91-.3-.31-.75-.31-.75-.31-.44 0-.74.31-.74.31-.3.31-.3.93-.3.93 0 .65.3.96.3.96.3.32.75.32.75.32zm7.53 3.79zm.71-4.96c0-1.25.39-2.227.39-2.227.4-.98 1.06-1.655 1.06-1.655.67-.678 1.57-1.03 1.57-1.03.91-.355 1.92-.355 1.92-.355 1.06 0 1.84.4 1.84.4.78.4 1.27.91 1.27.91l-1.24 1.4c-.37-.355-.78-.555-.78-.555-.41-.2-1.05-.2-1.05-.2-.58 0-1.07.225-1.07.225-.48.222-.84.64-.84.64-.35.414-.54 1.014-.54 1.014-.19.6-.19 1.355-.19 1.355 0 1.558.7 2.41.7 2.41.7.857 2.12.857 2.12.857.31 0 .6-.08.6-.08.3-.08.48-.23.48-.23V10.3h-1.66V8.45h3.66v4.62c-.54.508-1.42.862-1.42.862-.88.354-1.94.354-1.94.354-1.02 0-1.9-.33-1.9-.33-.89-.332-1.55-.98-1.55-.98-.66-.645-1.04-1.608-1.04-1.608-.38-.962-.38-2.225-.38-2.225zm9.12 4.96zm1.18-10.047h2.27v3.86h3.46V4.06h2.28v10.042h-2.28v-4.19h-3.47v4.19h-2.26V4.062zm9.2 10.04zm.71-4.96c0-1.245.38-2.223.38-2.223.39-.98 1.04-1.66 1.04-1.66.66-.677 1.53-1.03 1.53-1.03.87-.354 1.84-.354 1.84-.354.94 0 1.7.39 1.7.39.76.39 1.27.918 1.27.918l-1.25 1.4c-.39-.352-.78-.552-.78-.552-.4-.2-.92-.2-.92-.2-.52 0-.98.225-.98.225-.45.224-.79.64-.79.64-.34.416-.53 1.016-.53 1.016-.19.6-.19 1.36-.19 1.36 0 1.555.66 2.41.66 2.41.66.854 1.77.854 1.77.854.62 0 1.08-.244 1.08-.244.46-.247.83-.648.83-.648l1.25 1.37c-.63.74-1.44 1.11-1.44 1.11-.81.37-1.75.37-1.75.37-.97 0-1.83-.336-1.83-.336-.86-.33-1.51-.98-1.51-.98-.64-.65-1.01-1.61-1.01-1.61-.37-.97-.37-2.23-.37-2.23zm11.46 4.96zm1-10.794h2.27v2.65l-.06 1.17c.45-.4.96-.63.96-.63.52-.23 1.06-.23 1.06-.23.7 0 1.25.27 1.25.27.56.28.95.78.95.78.4.5.6 1.21.6 1.21.21.71.21 1.59.21 1.59 0 .98-.27 1.75-.27 1.75-.27.77-.72 1.3-.72 1.3-.46.54-1.03.81-1.03.81-.58.28-1.19.28-1.19.28-.51 0-1.02-.25-1.02-.25-.52-.25-.97-.74-.97-.74h-.06l-.18.8h-1.77V3.31zm0 0zm2.27 8.64c.31.28.62.38.62.38.31.11.6.11.6.11.59 0 1.01-.53 1.01-.53.42-.53.42-1.72.42-1.72 0-2.07-1.32-2.07-1.32-2.07-.67 0-1.31.69-1.31.69v3.12zm5.56 2.15zm1-7.64h1.85l.16 1.34h.06c.42-.79 1-1.16 1-1.16.59-.37 1.17-.37 1.17-.37.33 0 .54.04.54.04.21.03.38.11.38.11l-.37 1.95c-.22-.06-.4-.09-.4-.09-.19-.03-.43-.03-.43-.03-.44 0-.91.3-.91.3-.47.3-.78 1.09-.78 1.09v4.43h-2.26V6.47zm4.98 7.64zm.56-3.82c0-.96.31-1.7.31-1.7.31-.75.83-1.26.83-1.26.52-.51 1.2-.78 1.2-.78.68-.27 1.4-.27 1.4-.27.73 0 1.4.27 1.4.27.67.27 1.18.77 1.18.77.52.51.83 1.25.83 1.25.31.75.31 1.7.31 1.7 0 .95-.31 1.7-.31 1.7-.31.75-.82 1.25-.82 1.25-.51.5-1.18.77-1.18.77-.67.27-1.39.27-1.39.27-.72 0-1.4-.27-1.4-.27-.68-.27-1.2-.78-1.2-.78-.51-.51-.82-1.26-.82-1.26-.31-.75-.31-1.7-.31-1.7zm0 0zm2.32 0c0 1 .35 1.58.35 1.58.34.58 1.05.58 1.05.58.69 0 1.05-.59 1.05-.59.35-.59.35-1.59.35-1.59 0-1-.36-1.59-.36-1.59-.36-.59-1.05-.59-1.05-.59-.71 0-1.05.58-1.05.58-.35.58-.35 1.58-.35 1.58zm5.67 3.82zm1-10.8h2.2V9.5h.06l2.42-3.034h2.46l-2.68 3.142 2.88 4.497h-2.45l-1.72-2.973-.97 1.097v1.88h-2.2V3.31zm7.01 10.79zm.55-3.82c0-.93.3-1.67.3-1.67.31-.75.81-1.27.81-1.27.5-.52 1.15-.79 1.15-.79.65-.28 1.34-.28 1.34-.28.82 0 1.42.27 1.42.27.61.28 1.02.77 1.02.77.41.49.61 1.16.61 1.16.2.67.2 1.45.2 1.45 0 .31-.03.56-.03.56-.03.25-.06.39-.06.39h-4.57c.15.87.68 1.27.68 1.27.53.39 1.3.39 1.3.39.82 0 1.65-.51 1.65-.51l.76 1.37c-.58.4-1.3.63-1.3.63-.72.23-1.41.23-1.41.23-.81 0-1.52-.27-1.52-.27-.71-.27-1.23-.79-1.23-.79-.52-.52-.81-1.26-.81-1.26-.29-.74-.29-1.69-.29-1.69zm0 0zm4.93-.79c0-.67-.29-1.08-.29-1.08-.3-.42-.99-.42-.99-.42-.54 0-.94.36-.94.36-.41.36-.53 1.13-.53 1.13h2.75zm2.49 4.6zm1-7.64h1.85l.16.97h.06c.49-.46 1.07-.81 1.07-.81.59-.35 1.37-.35 1.37-.35 1.25 0 1.81.81 1.81.81.57.82.57 2.26.57 2.26v4.74h-2.28V9.65c0-.833-.22-1.14-.22-1.14-.22-.31-.71-.31-.71-.31-.43 0-.74.194-.74.194-.3.192-.67.547-.67.547v5.16h-2.26V6.46zm11.02 7.64zm1.17 1.11c.11.03.24.06.24.06.14.03.26.03.26.03.57 0 .88-.28.88-.28.31-.28.47-.73.47-.73l.11-.4-2.94-7.44h2.28l1.1 3.28c.17.52.31 1.06.31 1.06.13.54.29 1.11.29 1.11h.06c.12-.54.25-1.09.25-1.09.13-.55.27-1.09.27-1.09l.926-3.28h2.17l-2.64 7.72c-.28.72-.58 1.27-.58 1.27-.3.54-.69.9-.69.9-.395.36-.896.55-.896.55-.5.18-1.18.18-1.18.18-.35 0-.6-.04-.6-.04-.244-.04-.475-.12-.475-.12l.4-1.73zm6.73-1.11zm.55-3.82c0-.96.31-1.7.31-1.7.31-.75.83-1.26.83-1.26.52-.51 1.2-.78 1.2-.78.68-.27 1.4-.27 1.4-.27.73 0 1.4.27 1.4.27.67.27 1.19.77 1.19.77.52.51.83 1.25.83 1.25.31.74.31 1.7.31 1.7 0 .95-.31 1.7-.31 1.7-.31.75-.825 1.25-.825 1.25-.512.51-1.182.78-1.182.78-.67.27-1.4.27-1.4.27-.723 0-1.4-.27-1.4-.27-.68-.27-1.2-.78-1.2-.78-.51-.51-.82-1.26-.82-1.26-.3-.75-.3-1.71-.3-1.71zm0 0zm2.32 0c0 1 .34 1.58.34 1.58.35.58 1.06.58 1.06.58.69 0 1.04-.59 1.04-.59.36-.59.36-1.59.36-1.59 0-1-.35-1.59-.35-1.59-.35-.59-1.05-.59-1.05-.59-.71 0-1.05.58-1.05.58-.34.58-.34 1.58-.34 1.58zm5.66 3.82zm.92-7.64h2.26v4.45c0 .83.23 1.14.23 1.14.23.31.73.31.73.31.43 0 .72-.2.72-.2.3-.2.64-.64.64-.64V6.47h2.26v7.63H537l-.17-1.063h-.045c-.493.584-1.06.915-1.06.915-.56.33-1.35.33-1.35.33-1.25 0-1.81-.815-1.81-.815-.56-.816-.56-2.264-.56-2.264v-4.74zm7.82 7.64zm1.01-7.64h1.85l.16 1.34h.06c.41-.79 1-1.16 1-1.16.58-.37 1.17-.37 1.17-.37.32 0 .53.04.53.04.21.03.38.11.38.11l-.37 1.95c-.22-.06-.4-.09-.4-.09-.19-.03-.43-.03-.43-.03-.44 0-.91.3-.91.3-.47.31-.78 1.09-.78 1.09v4.43h-2.27v-7.6zm8.33 7.64zm.56-3.82c0-.96.32-1.7.32-1.7.32-.75.87-1.26.87-1.26.55-.51 1.27-.78 1.27-.78.73-.27 1.51-.27 1.51-.27.71 0 1.28.24 1.28.24.57.23.96.63.96.63l-1.03 1.4c-.54-.45-1.06-.45-1.06-.45-.83 0-1.31.58-1.31.58-.48.58-.48 1.58-.48 1.58 0 1 .49 1.58.49 1.58.48.58 1.22.58 1.22.58.42 0 .76-.17.76-.17.34-.17.62-.39.62-.39l.91 1.43c-.553.49-1.23.72-1.23.72-.68.23-1.31.23-1.31.23-.8 0-1.49-.27-1.49-.27-.684-.27-1.19-.78-1.19-.78-.51-.51-.8-1.25-.8-1.25-.3-.75-.3-1.71-.3-1.71zm6.21 3.82zm.55-3.82c0-.96.31-1.7.31-1.7.31-.75.83-1.26.83-1.26.51-.51 1.19-.78 1.19-.78.68-.27 1.4-.27 1.4-.27.73 0 1.4.27 1.4.27.67.27 1.18.77 1.18.77.52.51.82 1.25.82 1.25.31.74.31 1.7.31 1.7 0 .95-.31 1.7-.31 1.7-.31.75-.82 1.25-.82 1.25-.51.51-1.18.78-1.18.78-.67.27-1.39.27-1.39.27-.72 0-1.4-.27-1.4-.27-.68-.27-1.19-.78-1.19-.78-.52-.51-.83-1.26-.83-1.26-.3-.75-.3-1.71-.3-1.71zm0 0zm2.33 0c0 1 .35 1.58.35 1.58.35.58 1.05.58 1.05.58.7 0 1.05-.59 1.05-.59.36-.59.36-1.59.36-1.59 0-1-.35-1.59-.35-1.59-.35-.59-1.04-.59-1.04-.59-.707 0-1.054.58-1.054.58-.34.58-.34 1.58-.34 1.58zm5.67 3.82zm.6-3.82c0-.94.27-1.68.27-1.68.27-.74.71-1.26.71-1.26.44-.52 1.02-.8 1.02-.8.58-.28 1.18-.28 1.18-.28.64 0 1.06.21 1.06.21.42.21.82.58.82.58l-.1-1.16V3.3h2.26v10.8h-1.85l-.16-.754h-.06c-.4.4-.94.67-.94.67-.54.27-1.09.27-1.09.27-.71 0-1.28-.278-1.28-.278-.58-.278-.986-.794-.986-.794-.41-.516-.63-1.255-.63-1.255-.23-.74-.23-1.68-.23-1.68zm0 0zm2.33-.03c0 1.14.36 1.66.36 1.66.36.52 1.02.52 1.02.52.37 0 .67-.16.67-.16.3-.16.57-.54.57-.54v-3.1c-.3-.28-.63-.39-.63-.39-.32-.11-.63-.11-.63-.11-.54 0-.95.51-.95.51-.42.51-.42 1.61-.42 1.61zm5.9 3.85zm.55-3.82c0-.93.3-1.67.3-1.67.31-.75.81-1.27.81-1.27.5-.52 1.15-.8 1.15-.8.65-.28 1.34-.28 1.34-.28.82 0 1.43.27 1.43.27.606.28 1.01.77 1.01.77.41.49.61 1.16.61 1.16.2.67.2 1.46.2 1.46 0 .31-.03.56-.03.56-.03.25-.06.39-.06.39h-4.57c.16.87.69 1.27.69 1.27.53.39 1.3.39 1.3.39.813 0 1.65-.51 1.65-.51l.75 1.37c-.58.4-1.3.63-1.3.63-.716.23-1.41.23-1.41.23-.81 0-1.52-.27-1.52-.27-.71-.27-1.23-.79-1.23-.79-.53-.52-.82-1.26-.82-1.26-.29-.74-.29-1.7-.29-1.7zm0 0zm4.92-.79c0-.67-.29-1.08-.29-1.08-.3-.42-.99-.42-.99-.42-.54 0-.95.36-.95.36-.4.37-.52 1.14-.52 1.14h2.75zm5.7 4.6zm2.13-8.76c-.57 0-.94-.33-.94-.33-.37-.33-.37-.86-.37-.86 0-.52.37-.84.37-.84.37-.32.94-.32.94-.32.59 0 .95.32.95.32.36.32.36.84.36.84 0 .52-.36.85-.36.85-.36.33-.95.33-.95.33zm0 0zm-1.13 1.12h2.27v7.64h-2.26V6.46zm3.25 7.64zm1-7.64h1.85l.16.97h.06c.495-.46 1.08-.81 1.08-.81.586-.35 1.37-.35 1.37-.35 1.25 0 1.81.81 1.81.81.56.81.56 2.26.56 2.26v4.74h-2.262V9.65c0-.833-.22-1.14-.22-1.14-.22-.31-.71-.31-.71-.31-.43 0-.74.194-.74.194-.31.192-.68.547-.68.547v5.16h-2.26V6.46zm11.01 7.64zm1.31-5.87H601V6.56l1.17-.092.26-2.033h1.88v2.04h1.84v1.77h-1.84v3.06c0 .646.27.93.27.93.27.285.72.285.72.285.18 0 .376-.046.376-.046.19-.05.343-.11.343-.11l.36 1.65c-.31.09-.73.18-.73.18-.41.09-.97.09-.97.09-.71 0-1.21-.214-1.21-.214-.5-.216-.81-.6-.81-.6-.32-.386-.47-.933-.47-.933-.15-.546-.15-1.208-.15-1.208V8.24zm4.59 5.87zm1-10.8h2.27v2.65l-.11 1.37c.43-.39 1-.72 1-.72.57-.33 1.36-.33 1.36-.33 1.25 0 1.81.81 1.81.81.56.82.56 2.26.56 2.26v4.74h-2.26V9.65c0-.832-.23-1.14-.23-1.14-.22-.31-.72-.31-.72-.31-.43 0-.74.195-.74.195-.31.192-.68.547-.68.547v5.16h-2.26V3.305zm7.79 10.79zm.56-3.82c0-.92.31-1.67.31-1.67.307-.75.81-1.26.81-1.26.5-.52 1.145-.8 1.145-.8.64-.28 1.34-.28 1.34-.28.81 0 1.42.27 1.42.27.608.27 1.01.77 1.01.77.41.49.61 1.16.61 1.16.2.67.2 1.45.2 1.45 0 .3-.03.56-.03.56-.03.25-.06.39-.06.39h-4.572c.16.88.69 1.27.69 1.27.53.39 1.3.39 1.3.39.82 0 1.65-.51 1.65-.51l.76 1.37c-.583.4-1.3.63-1.3.63-.72.23-1.41.23-1.41.23-.814 0-1.523-.27-1.523-.27-.71-.27-1.23-.79-1.23-.79-.53-.52-.82-1.26-.82-1.26-.29-.74-.29-1.7-.29-1.7zm0 0zm4.93-.79c0-.67-.293-1.08-.293-1.08-.3-.42-.99-.42-.99-.42-.54 0-.95.36-.95.36-.41.36-.53 1.13-.53 1.13h2.75zm5.7 4.6zm3.264.6v2.24h-2.27V6.47h1.85l.16.75h.06c.45-.4 1.01-.67 1.01-.67.56-.27 1.16-.27 1.16-.27.69 0 1.24.277 1.24.277.55.278.94.786.94.786.38.51.59 1.23.59 1.23.21.72.21 1.598.21 1.598 0 .99-.27 1.75-.27 1.75-.27.77-.724 1.3-.724 1.3-.45.54-1.03.81-1.03.81-.575.28-1.19.28-1.19.28-.494 0-.96-.21-.96-.21-.46-.21-.86-.59-.86-.59zm0 0zm0-2.75c.31.28.61.38.61.38.31.11.6.11.6.11.585 0 1-.53 1-.53.42-.54.42-1.72.42-1.72 0-2.07-1.32-2.07-1.32-2.07-.66 0-1.31.69-1.31.69v3.13zm5.39 2.15zm.72-2.12c0-1.2 1.02-1.88 1.02-1.88 1.02-.68 3.28-.91 3.28-.91-.03-.51-.31-.81-.31-.81-.28-.3-.89-.3-.89-.3-.49 0-.99.18-.99.18-.49.18-1.05.51-1.05.51l-.8-1.5c.74-.45 1.54-.73 1.54-.73.81-.28 1.72-.28 1.72-.28 1.48 0 2.25.84 2.25.84.77.84.77 2.61.77 2.61v4.37h-1.85l-.17-.79h-.05c-.494.43-1.04.7-1.04.7-.55.27-1.194.27-1.194.27-.52 0-.94-.18-.94-.18-.41-.18-.7-.49-.7-.49-.29-.32-.456-.74-.456-.74-.16-.42-.16-.91-.16-.91zm0 0zm2.16-.17c0 .37.24.55.24.55.24.18.64.18.64.18.4 0 .68-.17.68-.17.27-.17.58-.48.58-.48v-1.34c-1.22.17-1.68.49-1.68.49-.46.32-.46.77-.46.77zm5.34 2.29zm1.34-2.3c.524.4 1 .6 1 .6.48.2.97.2.97.2.51 0 .74-.17.74-.17.23-.17.23-.48.23-.48 0-.18-.13-.33-.13-.33-.13-.15-.35-.27-.35-.27-.227-.12-.5-.22-.5-.22-.28-.1-.57-.23-.57-.23-.36-.14-.71-.32-.71-.32-.356-.18-.65-.45-.65-.45-.29-.27-.475-.63-.475-.63-.19-.37-.19-.84-.19-.84 0-.53.21-.97.21-.97.21-.45.59-.76.59-.76.39-.31.93-.48.93-.48.53-.18 1.2-.18 1.2-.18.87 0 1.54.3 1.54.3.66.3 1.15.67 1.15.67l-1.02 1.35c-.42-.31-.82-.48-.82-.48-.4-.17-.8-.17-.8-.17-.86 0-.86.6-.86.6 0 .18.12.31.12.31.13.13.33.24.33.24.21.11.48.21.48.21l.56.21c.37.14.735.32.735.32.36.17.66.44.66.44.3.26.48.64.48.64.18.37.18.9.18.9 0 .52-.2.97-.2.97-.2.44-.6.77-.6.77-.4.33-.99.52-.99.52-.584.19-1.354.19-1.354.19-.76 0-1.55-.3-1.55-.3-.8-.29-1.38-.77-1.38-.77zm5.483 2.29zm1.31-5.87h-1.05V6.56l1.17-.09.26-2.035h1.88v2.033h1.83v1.77h-1.83V11.3c0 .646.27.93.27.93.27.285.72.285.72.285.18 0 .38-.046.38-.046.19-.05.35-.11.35-.11l.35 1.65c-.31.09-.72.18-.72.18-.42.09-.97.09-.97.09-.71 0-1.21-.22-1.21-.22-.5-.22-.82-.6-.82-.6-.31-.39-.46-.94-.46-.94-.15-.55-.15-1.21-.15-1.21V8.23zm7.79 5.87zm1.17 1.11l.25.06c.14.03.26.03.26.03.57 0 .88-.28.88-.28.31-.28.46-.72.46-.72l.11-.4-2.94-7.44h2.28l1.09 3.28c.17.53.31 1.06.31 1.06.14.54.3 1.11.3 1.11h.06l.25-1.09c.13-.55.27-1.09.27-1.09l.923-3.28h2.17l-2.65 7.71c-.28.72-.58 1.27-.58 1.27-.3.54-.69.9-.69.9-.396.36-.896.55-.896.55-.5.19-1.18.19-1.18.19-.35 0-.6-.04-.6-.04-.242-.04-.473-.12-.473-.12l.4-1.73zm6.73-1.11zm.56-3.82c0-.93.31-1.67.31-1.67.31-.75.81-1.27.81-1.27.5-.52 1.15-.8 1.15-.8.64-.28 1.34-.28 1.34-.28.81 0 1.42.28 1.42.28.61.27 1.02.77 1.02.77.4.49.6 1.16.6 1.16.2.67.2 1.45.2 1.45 0 .3-.03.56-.03.56-.03.25-.06.39-.06.39h-4.57c.15.88.683 1.27.683 1.27.53.39 1.3.39 1.3.39.81 0 1.65-.51 1.65-.51l.75 1.37c-.59.4-1.3.63-1.3.63-.72.23-1.41.23-1.41.23-.82 0-1.53-.27-1.53-.27-.71-.27-1.237-.79-1.237-.79-.52-.515-.816-1.25-.816-1.25-.29-.74-.29-1.69-.29-1.69zm0 0zm4.93-.79c0-.66-.29-1.08-.29-1.08-.3-.43-.99-.43-.99-.43-.54 0-.95.37-.95.37-.41.36-.53 1.13-.53 1.13h2.75zm2.32 4.61zm.72-2.13c0-1.2 1.01-1.88 1.01-1.88 1.02-.67 3.28-.91 3.28-.91-.03-.51-.3-.81-.3-.81-.27-.3-.89-.3-.89-.3-.49 0-.98.19-.98.19-.5.19-1.05.51-1.05.51l-.8-1.49c.74-.45 1.55-.73 1.55-.73.81-.28 1.72-.28 1.72-.28 1.47 0 2.25.84 2.25.84.78.84.78 2.61.78 2.61v4.37h-1.85l-.17-.78h-.04c-.5.43-1.04.7-1.04.7-.55.27-1.2.27-1.2.27-.53 0-.94-.18-.94-.18-.42-.18-.71-.5-.71-.5-.29-.32-.46-.73-.46-.73-.16-.42-.16-.91-.16-.91zm0 0zm2.15-.17c0 .37.24.55.24.55.24.18.64.18.64.18.4 0 .68-.17.68-.17.27-.17.58-.48.58-.48V10.5c-1.22.17-1.68.498-1.68.498-.46.32-.46.77-.46.77zm5.35 2.3zm1-7.64h1.85l.15 1.34h.06c.42-.79 1.01-1.16 1.01-1.16.58-.37 1.17-.37 1.17-.37.32 0 .53.04.53.04.2.04.37.11.37.11l-.37 1.96c-.21-.06-.4-.09-.4-.09-.18-.03-.43-.03-.43-.03-.43 0-.9.3-.9.3-.47.31-.77 1.09-.77 1.09v4.43h-2.27v-7.6zm5.13 7.64zm2.37-3.56c-.07-.53.04-.96.04-.96.12-.44.33-.81.33-.81.22-.37.49-.68.49-.68.27-.3.51-.59.51-.59.25-.28.41-.55.41-.55.16-.27.16-.56.16-.56 0-.48-.285-.726-.285-.726-.29-.246-.75-.246-.75-.246-.434 0-.77.2-.77.2-.33.2-.64.51-.64.51L690.08 5c.525-.63 1.23-1.016 1.23-1.016.71-.385 1.57-.385 1.57-.385.65 0 1.21.15 1.21.15.56.15.97.47.97.47.41.32.64.82.64.82.23.5.23 1.18.23 1.18 0 .47-.17.85-.17.85-.17.37-.42.7-.42.7-.253.32-.54.62-.54.62-.283.3-.522.62-.522.62-.24.32-.38.68-.38.68-.14.36-.1.82-.1.82h-1.99zm0 0zm-.37 2.32c0-.61.39-1.02.39-1.02.38-.41.97-.41.97-.41.58 0 .98.41.98.41.39.41.39 1.02.39 1.02 0 .6-.4 1.01-.4 1.01-.39.4-.97.4-.97.4-.59 0-.97-.41-.97-.41-.39-.41-.39-1.01-.39-1.01z"/><path fill="#5C3566" stroke="none" d="M846 394c0 184.463-149.537 334-334 334S178 578.463 178 394 327.537 60 512 60c61.822 0 122.43 17.158 175.078 49.564L512 394z"/><path fill="none" stroke="#FFF" stroke-opacity=".1" stroke-miterlimit="10" d="M846 394c0 184.463-149.537 334-334 334S178 578.463 178 394 327.537 60 512 60c61.822 0 122.43 17.158 175.078 49.564L512 394z" stroke-linejoin="bevel"/><path fill="none" stroke-miterlimit="10" d="M216.06 559.35l-13.095 7.316h-36.502"/><path stroke="none" d="M166.463 563.273zm.946-6.89h.9l2.49 4.327.74 1.43h.04c-.03-.527-.07-1.09-.07-1.09-.04-.56-.04-1.107-.04-1.107v-3.56h.83v6.89h-.91l-2.5-4.338-.75-1.418h-.04l.08 1.066c.03.54.03 1.087.03 1.087v3.603h-.83v-6.89zm5.85 6.89zm.48-2.542c0-.64.19-1.14.19-1.14.19-.49.52-.84.52-.84.32-.34.75-.52.75-.52.42-.18.9-.18.9-.18.47 0 .89.18.89.18.42.18.75.53.75.53.32.35.52.85.52.85.19.5.19 1.14.19 1.14 0 .63-.2 1.13-.2 1.13-.19.5-.52.84-.52.84-.33.34-.75.52-.75.52-.43.18-.9.18-.9.18-.47 0-.9-.18-.9-.18-.43-.18-.75-.52-.75-.52-.33-.34-.52-.84-.52-.84-.2-.5-.2-1.13-.2-1.13zm0 0zm.89 0c0 .45.1.8.1.8.1.36.3.62.3.62.19.26.46.4.46.4.27.14.6.14.6.14.32 0 .6-.14.6-.14.27-.14.46-.4.46-.4.19-.25.3-.61.3-.61.1-.35.1-.8.1-.8 0-.44-.11-.8-.11-.8-.11-.36-.3-.62-.3-.62-.2-.26-.47-.4-.47-.4-.28-.14-.6-.14-.6-.14-.33 0-.6.15-.6.15-.27.14-.47.41-.47.41-.19.26-.3.63-.3.63-.11.36-.11.8-.11.8zm4.31 2.55zm.68-4.31c0-.3.18-.49.18-.49.18-.18.44-.18.44-.18.25 0 .43.19.43.19.18.18.18.49.18.49 0 .29-.18.47-.18.47-.19.19-.44.19-.44.19-.26 0-.45-.18-.45-.18-.19-.18-.19-.46-.19-.46zm0 0zm0 3.79c0-.3.18-.49.18-.49.18-.18.44-.18.44-.18.25 0 .43.19.43.19.18.19.18.49.18.49 0 .29-.18.47-.18.47-.19.18-.44.18-.44.18-.26 0-.45-.18-.45-.18-.19-.18-.19-.46-.19-.46zm4.05.53zm2.47-3.25c.32 0 .69-.2.69-.2.37-.2.71-.69.71-.69-.09-.98-.46-1.49-.46-1.49-.38-.5-1.02-.5-1.02-.5-.24 0-.46.1-.46.1-.22.11-.38.3-.38.3-.16.2-.25.47-.25.47-.09.28-.09.6-.09.6 0 .66.3 1.04.3 1.04.3.38.93.38.93.38zm0 0zm-1.45 2.13c.21.24.49.39.49.39.29.15.6.15.6.15.35 0 .67-.14.67-.14.31-.14.56-.49.56-.49.24-.34.39-.88.39-.88.14-.54.15-1.35.15-1.35-.32.4-.74.63-.74.63-.42.23-.84.23-.84.23-.87 0-1.39-.51-1.39-.51-.52-.51-.52-1.55-.52-1.55 0-.48.16-.88.16-.88.15-.39.42-.67.42-.67.27-.28.63-.44.63-.44.36-.15.76-.15.76-.15.49 0 .92.2.92.2.42.2.73.6.73.6.31.41.48 1.01.48 1.01.17.61.17 1.42.17 1.42 0 1.01-.21 1.72-.21 1.72-.21.71-.57 1.16-.57 1.16-.36.45-.82.66-.82.66-.46.21-.96.21-.96.21-.54 0-.94-.2-.94-.2-.41-.2-.68-.5-.68-.5zm4.2 1.13zm2.47-3.25c.32 0 .69-.2.69-.2.37-.2.71-.69.71-.69-.09-.98-.47-1.49-.47-1.49-.38-.5-1.02-.5-1.02-.5-.24 0-.46.11-.46.11-.22.11-.38.3-.38.3-.16.2-.25.47-.25.47-.09.28-.09.6-.09.6 0 .66.3 1.04.3 1.04.3.38.93.38.93.38zm0 0zm-1.45 2.13c.21.24.49.39.49.39.29.15.6.15.6.15.36 0 .67-.14.67-.14.31-.15.55-.49.55-.49.24-.34.39-.89.39-.89.14-.54.15-1.35.15-1.35-.32.4-.74.63-.74.63-.42.23-.84.23-.84.23-.88 0-1.39-.51-1.39-.51-.52-.51-.52-1.55-.52-1.55 0-.48.16-.88.16-.88.15-.39.42-.68.42-.68.27-.28.63-.44.63-.44.36-.15.76-.15.76-.15.49 0 .92.2.92.2.42.2.73.61.73.61.31.41.49 1.01.49 1.01.18.61.18 1.42.18 1.42 0 1.01-.21 1.72-.21 1.72-.21.71-.57 1.16-.57 1.16-.36.45-.82.65-.82.65-.46.21-.96.21-.96.21-.54 0-.94-.2-.94-.2-.41-.2-.68-.5-.68-.5zm4.2 1.12zm1.86 0c.04-.94.17-1.73.17-1.73.12-.79.35-1.49.35-1.49.22-.71.57-1.37.57-1.37.35-.66.84-1.36.84-1.36h-3.34v-.74h4.32v.54c-.6.76-.97 1.45-.97 1.45-.38.7-.6 1.42-.6 1.42-.22.72-.32 1.52-.32 1.52-.1.8-.15 1.78-.15 1.78h-.9z"/><path fill="#AD7FA8" stroke="none" d="M687.078 109.564C785.84 170.356 846 278.027 846 394H512z"/><path fill="none" stroke="#FFF" stroke-opacity=".1" stroke-miterlimit="10" d="M687.078 109.564C785.84 170.356 846 278.027 846 394H512z" stroke-linejoin="bevel"/><path fill="none" stroke-miterlimit="10" d="M807.94 228.65l13.095-7.316h39.054"/><path stroke="none" d="M826.035 217.94zm2.058-2.667l-2.07-4.223h.936l.89 1.944c.17.378.32.745.32.745.15.36.33.75.33.75h.04c.17-.39.35-.76.35-.76.18-.37.33-.75.33-.75l.88-1.95h.91l-2.07 4.22v2.67h-.88v-2.67zm2.51 2.668zm.484-2.54c0-.63.195-1.13.195-1.13.194-.5.514-.84.514-.84.32-.34.73-.53.73-.53.41-.18.85-.18.85-.18.484 0 .868.17.868.17.383.17.64.48.64.48.258.32.394.76.394.76.137.44.137.99.137.99 0 .29-.032.48-.032.48h-3.445c.053.83.51 1.32.51 1.32.456.49 1.192.49 1.192.49.367 0 .677-.11.677-.11.31-.11.594-.29.594-.29l.31.57c-.33.21-.74.37-.74.37-.41.16-.93.16-.93.16-.51 0-.96-.18-.96-.18-.45-.18-.78-.52-.78-.52-.33-.34-.52-.83-.52-.83-.19-.49-.19-1.12-.19-1.12zm0 0zm3.572-.39c0-.78-.34-1.2-.34-1.2-.33-.41-.93-.41-.93-.41-.28 0-.52.11-.52.11-.25.11-.45.32-.45.32-.2.21-.33.51-.33.51-.14.3-.18.69-.18.69h2.73zm1.15 2.93zm.72-1.15c.33.28.68.44.68.44.35.17.81.17.81.17.5 0 .75-.23.75-.23.25-.23.25-.56.25-.56 0-.2-.11-.34-.11-.34-.11-.14-.27-.25-.27-.25-.16-.11-.37-.19-.37-.19l-.42-.17c-.28-.09-.55-.21-.55-.21-.28-.12-.49-.29-.49-.29-.22-.17-.36-.4-.36-.4-.14-.23-.14-.56-.14-.56 0-.3.12-.57.12-.57.12-.27.35-.46.35-.46.23-.19.55-.3.55-.3.33-.11.74-.11.74-.11.48 0 .89.17.89.17.4.17.7.41.7.41l-.41.55c-.27-.2-.55-.32-.55-.32-.29-.13-.62-.13-.62-.13-.49 0-.71.22-.71.22-.23.22-.23.52-.23.52 0 .18.09.31.09.31.09.13.25.23.25.23.16.1.36.18.36.18l.42.16.55.22c.28.12.5.29.5.29.22.18.36.43.36.43.14.26.14.61.14.61 0 .32-.12.59-.12.59-.12.27-.36.48-.36.48-.24.21-.59.33-.59.33-.35.12-.81.12-.81.12-.55 0-1.04-.19-1.04-.19-.5-.2-.87-.51-.87-.51zm3.67 1.16zm.68-4.31c0-.3.18-.49.18-.49.18-.18.44-.18.44-.18.25 0 .43.19.43.19.18.19.18.49.18.49 0 .28-.19.47-.19.47-.19.19-.44.19-.44.19-.26 0-.45-.18-.45-.18-.19-.18-.19-.46-.19-.46zm0 0zm0 3.79c0-.3.18-.49.18-.49.18-.18.44-.18.44-.18.25 0 .43.18.43.18.18.19.18.49.18.49 0 .28-.19.47-.19.47-.19.19-.44.19-.44.19-.26 0-.45-.18-.45-.18-.19-.18-.19-.46-.19-.46zm4.05.53zm.83-.71h1.53v-4.94h-1.22v-.55c.46-.08.8-.2.8-.2.34-.12.61-.29.61-.29h.66v5.99h1.38v.71h-3.78v-.71zm4.39.72zm2.47-3.25c.32 0 .69-.2.69-.2.37-.2.71-.69.71-.69-.09-.98-.47-1.49-.47-1.49-.38-.5-1.02-.5-1.02-.5-.24 0-.46.11-.46.11-.22.11-.37.3-.37.3-.16.2-.25.47-.25.47-.09.28-.09.6-.09.6 0 .66.3 1.04.3 1.04.3.38.93.38.93.38zm0 0zm-1.45 2.13c.21.25.5.39.5.39.29.15.6.15.6.15.35 0 .67-.14.67-.14.31-.14.55-.49.55-.49.24-.34.39-.88.39-.88.15-.55.16-1.36.16-1.36-.32.4-.74.63-.74.63-.42.23-.84.23-.84.23-.87 0-1.39-.51-1.39-.51-.52-.51-.52-1.55-.52-1.55 0-.48.16-.88.16-.88.16-.39.42-.67.42-.67.27-.28.63-.44.63-.44.36-.16.76-.16.76-.16.49 0 .92.2.92.2.42.2.73.61.73.61.31.41.48 1.01.48 1.01.17.61.17 1.41.17 1.41 0 1.01-.21 1.72-.21 1.72-.21.71-.57 1.16-.57 1.16-.36.45-.82.66-.82.66-.46.21-.96.21-.96.21-.54 0-.94-.2-.94-.2-.41-.2-.68-.5-.68-.5zm4.2 1.13zm.71-1.38c.3.31.71.56.71.56.4.25 1 .25 1 .25.61 0 1-.33 1-.33.39-.33.39-.9.39-.9 0-.29-.11-.54-.11-.54-.12-.24-.37-.42-.37-.42-.25-.18-.66-.27-.66-.27-.41-.1-1.01-.1-1.01-.1v-.66c.53 0 .9-.09.9-.09.36-.09.58-.26.58-.26.22-.17.32-.4.32-.4.09-.23.09-.49.09-.49 0-.5-.31-.78-.31-.78-.31-.28-.84-.28-.84-.28-.42 0-.78.19-.78.19-.35.19-.66.5-.66.5l-.46-.54c.38-.37.85-.6.85-.6.47-.24 1.07-.24 1.07-.24.44 0 .81.12.81.12.36.12.63.33.63.33.26.22.41.53.41.53.15.32.15.73.15.73 0 .61-.34 1-.34 1-.33.39-.88.6-.88.6v.04c.31.08.57.22.57.22.26.14.46.35.46.35.2.218.31.5.31.5.11.28.11.63.11.63 0 .44-.18.8-.18.8-.17.36-.47.607-.47.607-.3.245-.7.38-.7.38-.4.13-.86.13-.86.13-.4 0-.73-.08-.73-.08-.33-.08-.61-.21-.61-.21-.28-.13-.49-.3-.49-.3-.22-.17-.39-.36-.39-.36z"/></svg>