<svg xmlns="http://www.w3.org/2000/svg" stroke="#000" viewBox="0 0 1024 768" font-size="1"><path fill="#FFF" stroke="none" d="M0 0v768h1024V0z"/><path stroke="none" d="M329.89 14.102zm.216-10.04h2.325l.7 4.696.2 1.578c.11.793.2 1.594.2 1.594h.06c.16-.8.3-1.594.3-1.594l.3-1.578 1.08-4.697h1.93l1.08 4.7c.16.77.3 1.57.3 1.57l.3 1.61h.06c.11-.81.21-1.6.21-1.6.1-.78.21-1.57.21-1.57l.7-4.69h2.17l-1.78 10.04h-2.85l-.98-4.56c-.12-.58-.22-1.17-.22-1.17-.1-.59-.17-1.14-.17-1.14h-.06l-.19 1.15c-.1.6-.22 1.18-.22 1.18l-.94 4.56H332zM342.41 14.1zm1.002-10.796h2.264v2.65l-.108 1.37c.43-.386 1-.717 1-.717.57-.332 1.356-.332 1.356-.332 1.247 0 1.81.816 1.81.816.562.82.562 2.27.562 2.27v4.74h-2.264V9.65c0-.834-.224-1.14-.224-1.14-.223-.31-.716-.31-.716-.31-.43 0-.74.193-.74.193-.307.192-.676.547-.676.547v5.16h-2.264V3.305zm7.792 10.796zm2.126-8.763c-.57 0-.94-.332-.94-.332-.37-.33-.37-.855-.37-.855 0-.524.37-.847.37-.847.37-.323.94-.323.94-.323.585 0 .947.323.947.323.362.323.362.847.362.847 0 .524-.37.855-.37.855-.36.33-.95.33-.95.33zm0 0zm-1.125 1.123h2.264v7.64h-2.27V6.46zm3.25 7.64zm.554-3.82c0-.956.32-1.702.32-1.702.32-.746.87-1.255.87-1.255.54-.508 1.27-.777 1.27-.777.72-.27 1.51-.27 1.51-.27.71 0 1.28.24 1.28.24.57.238.95.638.95.638l-1.03 1.4c-.54-.445-1.07-.445-1.07-.445-.83 0-1.31.58-1.31.58-.48.58-.48 1.58-.48 1.58 0 1 .48 1.58.48 1.58.48.58 1.22.58 1.22.58.41 0 .75-.17.75-.17.34-.17.61-.39.61-.39l.9 1.43c-.56.49-1.23.72-1.23.72-.68.23-1.31.23-1.31.23-.8 0-1.49-.27-1.49-.27-.69-.27-1.2-.78-1.2-.78-.51-.51-.8-1.26-.8-1.26-.3-.75-.3-1.7-.3-1.7zm6.63 3.82zm1-10.797h2.26v2.65l-.11 1.37c.43-.386 1-.717 1-.717.57-.332 1.35-.332 1.35-.332 1.24 0 1.81.816 1.81.816.56.817.56 2.264.56 2.264v4.744h-2.27v-4.45c0-.833-.23-1.14-.23-1.14-.23-.31-.72-.31-.72-.31-.43 0-.74.194-.74.194-.31.192-.68.547-.68.547v5.16h-2.26V3.3zm11 10.797zm.18-7.64h2.28l.98 3.604c.15.57.3 1.162.3 1.162l.3 1.193h.06l.28-1.2c.14-.6.3-1.17.3-1.17l1-3.61h2.17L380 14.08h-2.61zm7.74 7.64zm.55-3.82c0-.925.3-1.67.3-1.67.31-.75.81-1.264.81-1.264.5-.517 1.14-.795 1.14-.795.64-.27 1.34-.27 1.34-.27.81 0 1.42.28 1.42.28.61.28 1.02.77 1.02.77.41.49.61 1.16.61 1.16.2.67.2 1.46.2 1.46 0 .31-.03.57-.03.57-.03.26-.06.39-.06.39h-4.57c.15.88.68 1.27.68 1.27.53.39 1.3.39 1.3.39.82 0 1.65-.5 1.65-.5l.75 1.37c-.59.4-1.3.64-1.3.64-.72.23-1.41.23-1.41.23-.82 0-1.53-.27-1.53-.27-.71-.27-1.23-.79-1.23-.79-.53-.51-.82-1.25-.82-1.25-.3-.74-.3-1.69-.3-1.69zm0 0zm4.93-.786c0-.662-.3-1.078-.3-1.078-.29-.416-.98-.416-.98-.416-.54 0-.95.36-.95.36-.41.363-.53 1.133-.53 1.133h2.75zm2.49 4.605zm1-7.64h1.85l.15 1.34h.06c.41-.79 1-1.16 1-1.16.58-.37 1.17-.37 1.17-.37.32 0 .53.04.53.04.21.03.38.11.38.11l-.37 1.95c-.22-.06-.4-.09-.4-.09-.19-.03-.43-.03-.43-.03-.44 0-.91.3-.91.3-.47.31-.78 1.09-.78 1.09v4.44h-2.27V6.46zm4.97 7.64zm1.34-2.3c.52.4 1 .6 1 .6.48.2.97.2.97.2.51 0 .74-.17.74-.17.23-.17.23-.48.23-.48 0-.19-.13-.33-.13-.33-.13-.15-.36-.27-.36-.27-.23-.13-.5-.23-.5-.23-.28-.1-.57-.23-.57-.23-.36-.14-.71-.33-.71-.33-.36-.19-.65-.46-.65-.46-.29-.27-.48-.63-.48-.63-.19-.37-.19-.84-.19-.84 0-.53.21-.97.21-.97.21-.45.59-.76.59-.76.38-.31.92-.49.92-.49.54-.18 1.2-.18 1.2-.18.88 0 1.54.3 1.54.3.66.3 1.15.67 1.15.67l-1 1.37c-.41-.3-.81-.47-.81-.47-.4-.17-.8-.17-.8-.17-.87 0-.87.6-.87.6 0 .18.12.31.12.31.12.13.33.24.33.24.21.11.48.21.48.21l.56.2c.37.14.73.32.73.32.36.18.66.44.66.44.3.26.48.64.48.64.18.38.18.9.18.9 0 .52-.2.97-.2.97-.21.45-.61.78-.61.78-.4.33-.99.52-.99.52-.59.2-1.36.2-1.36.2-.76 0-1.55-.29-1.55-.29-.8-.29-1.38-.77-1.38-.77zm5.48 2.29zm2.12-8.77c-.57 0-.94-.33-.94-.33-.37-.33-.37-.86-.37-.86 0-.53.37-.85.37-.85.37-.33.94-.33.94-.33.58 0 .95.32.95.32.36.32.36.84.36.84 0 .52-.36.85-.36.85-.36.33-.95.33-.95.33zm0 0zm-1.12 1.12h2.26v7.64h-2.27V6.46zm3.25 7.64zm.55-3.82c0-.96.31-1.71.31-1.71.31-.75.82-1.26.82-1.26.51-.51 1.19-.78 1.19-.78.68-.27 1.4-.27 1.4-.27.72 0 1.39.27 1.39.27.67.27 1.19.77 1.19.77.51.51.82 1.26.82 1.26.3.74.3 1.7.3 1.7 0 .95-.31 1.7-.31 1.7-.31.74-.83 1.25-.83 1.25-.52.5-1.19.77-1.19.77-.67.27-1.4.27-1.4.27-.73 0-1.4-.27-1.4-.27-.68-.27-1.2-.78-1.2-.78-.51-.51-.82-1.26-.82-1.26-.31-.75-.31-1.71-.31-1.71zm0 0zm2.32 0c0 1 .35 1.58.35 1.58.34.58 1.05.58 1.05.58.69 0 1.04-.58 1.04-.58.35-.59.35-1.59.35-1.59 0-1-.35-1.59-.35-1.59-.36-.59-1.05-.59-1.05-.59-.71 0-1.06.58-1.06.58-.35.58-.35 1.58-.35 1.58zm5.67 3.82zm1-7.64H419l.153.97h.063c.492-.47 1.078-.81 1.078-.81.586-.35 1.37-.35 1.37-.35 1.25 0 1.81.81 1.81.81.563.82.563 2.27.563 2.27v4.74h-2.264V9.64c0-.832-.224-1.14-.224-1.14-.23-.31-.72-.31-.72-.31-.43 0-.74.195-.74.195-.31.19-.68.546-.68.546v5.16h-2.27V6.46zm11.01 7.64zm.55-3.82c0-.96.32-1.71.32-1.71.32-.75.87-1.26.87-1.26.54-.51 1.27-.78 1.27-.78.72-.27 1.51-.27 1.51-.27.7 0 1.27.24 1.27.24.57.23.96.63.96.63l-1.03 1.4c-.54-.45-1.07-.45-1.07-.45-.83 0-1.31.58-1.31.58-.48.58-.48 1.58-.48 1.58 0 1 .48 1.58.48 1.58.48.58 1.22.58 1.22.58.41 0 .75-.17.75-.17.34-.17.61-.39.61-.39l.91 1.43c-.56.49-1.23.72-1.23.72-.68.23-1.31.23-1.31.23-.8 0-1.49-.27-1.49-.27-.68-.27-1.19-.78-1.19-.78-.51-.51-.8-1.25-.8-1.25-.29-.75-.29-1.7-.29-1.7zm6.2 3.82zm.55-3.82c0-.96.31-1.71.31-1.71.31-.75.82-1.26.82-1.26.52-.51 1.19-.78 1.19-.78.68-.27 1.4-.27 1.4-.27.73 0 1.4.27 1.4.27.67.27 1.19.77 1.19.77.51.51.82 1.26.82 1.26.3.74.3 1.7.3 1.7 0 .95-.31 1.7-.31 1.7-.31.74-.83 1.25-.83 1.25-.51.5-1.18.77-1.18.77-.67.27-1.4.27-1.4.27-.72 0-1.4-.27-1.4-.27-.68-.27-1.19-.78-1.19-.78-.52-.51-.83-1.26-.83-1.26-.31-.75-.31-1.71-.31-1.71zm0 0zm2.33 0c0 1 .35 1.58.35 1.58.34.58 1.05.58 1.05.58.69 0 1.04-.58 1.04-.58.35-.59.35-1.59.35-1.59 0-1-.36-1.59-.36-1.59-.36-.59-1.05-.59-1.05-.59-.71 0-1.06.58-1.06.58-.35.58-.35 1.58-.35 1.58zm5.67 3.82zm1-7.64h1.85l.15.97h.06c.49-.47 1.08-.81 1.08-.81.58-.35 1.37-.35 1.37-.35 1.25 0 1.81.81 1.81.81.56.82.56 2.27.56 2.27v4.74h-2.27V9.64c0-.832-.23-1.14-.23-1.14-.23-.31-.72-.31-.72-.31-.43 0-.74.195-.74.195-.31.19-.68.546-.68.546v5.16h-2.26V6.46zm7.81 7.64zm1.3-5.87h-1.04V6.55l1.17-.092.26-2.03h1.88v2.03h1.83v1.77h-1.83v3.07c0 .646.27.93.27.93.27.285.71.285.71.285.18 0 .38-.046.38-.046.19-.05.34-.11.34-.11l.36 1.65c-.31.09-.72.18-.72.18-.42.09-.97.09-.97.09-.71 0-1.21-.216-1.21-.216-.5-.21-.82-.6-.82-.6-.31-.38-.46-.93-.46-.93-.14-.54-.14-1.2-.14-1.2v-3.1zm4.59 5.87zm1-7.64H461l.154 1.34h.06c.42-.79 1-1.16 1-1.16.59-.37 1.17-.37 1.17-.37.326 0 .53.04.53.04.21.03.38.11.38.11l-.37 1.95c-.214-.06-.4-.09-.4-.09-.184-.03-.43-.03-.43-.03-.43 0-.9.3-.9.3-.47.31-.778 1.09-.778 1.09v4.43h-2.263v-7.6zm4.98 7.64zm.55-3.82c0-.96.31-1.71.31-1.71.31-.75.82-1.26.82-1.26.52-.51 1.2-.78 1.2-.78.68-.27 1.4-.27 1.4-.27.72 0 1.39.27 1.39.27.67.27 1.18.77 1.18.77.51.51.82 1.26.82 1.26.31.74.31 1.7.31 1.7 0 .95-.31 1.7-.31 1.7-.31.74-.82 1.25-.82 1.25-.52.5-1.19.77-1.19.77-.67.27-1.4.27-1.4.27-.72 0-1.4-.27-1.4-.27-.68-.27-1.19-.78-1.19-.78-.52-.51-.83-1.26-.83-1.26-.31-.75-.31-1.71-.31-1.71zm0 0zm2.32 0c0 1 .35 1.58.35 1.58.34.58 1.05.58 1.05.58.69 0 1.04-.58 1.04-.58.35-.59.35-1.59.35-1.59 0-1-.36-1.59-.36-1.59-.36-.59-1.05-.59-1.05-.59-.71 0-1.05.58-1.05.58-.35.58-.35 1.58-.35 1.58zm5.67 3.82zm1-10.8h2.26v8.52c0 .35.13.49.13.49.13.14.27.14.27.14h.13l.15-.03.28 1.68c-.18.07-.47.13-.47.13-.28.05-.67.05-.67.05-.58 0-.98-.19-.98-.19-.4-.18-.64-.51-.64-.51-.24-.33-.35-.8-.35-.8-.11-.47-.11-1.05-.11-1.05V3.3zm6.61 10.79zm1.34-2.3c.52.4 1 .6 1 .6.47.2.97.2.97.2.51 0 .74-.17.74-.17.23-.17.23-.48.23-.48 0-.18-.13-.33-.13-.33-.13-.15-.36-.27-.36-.27-.23-.12-.5-.22-.5-.22-.28-.1-.57-.23-.57-.23-.36-.14-.71-.33-.71-.33-.36-.18-.65-.45-.65-.45-.29-.27-.48-.63-.48-.63-.19-.37-.19-.84-.19-.84 0-.53.2-.97.2-.97.21-.45.59-.76.59-.76.39-.31.93-.48.93-.48.54-.18 1.2-.18 1.2-.18.88 0 1.54.3 1.54.3.66.3 1.16.67 1.16.67l-1 1.37c-.42-.31-.82-.48-.82-.48-.4-.17-.8-.17-.8-.17-.86 0-.86.6-.86.6 0 .18.12.31.12.31.12.13.33.24.33.24.21.1.48.2.48.2l.57.21c.37.14.73.31.73.31.36.17.66.44.66.44.3.26.49.64.49.64.19.37.19.9.19.9 0 .52-.2.97-.2.97-.2.44-.6.77-.6.77-.4.33-.98.52-.98.52-.58.19-1.35.19-1.35.19-.75 0-1.55-.29-1.55-.29-.79-.3-1.38-.77-1.38-.77zm5.48 2.29zm1.17 1.11c.11.03.24.06.24.06.14.03.26.03.26.03.57 0 .88-.28.88-.28.31-.28.46-.73.46-.73l.1-.4-2.94-7.44h2.28l1.09 3.28c.17.53.31 1.07.31 1.07.14.54.29 1.11.29 1.11h.06l.26-1.09c.13-.55.27-1.09.27-1.09l.92-3.28h2.17l-2.65 7.72c-.27.72-.57 1.27-.57 1.27-.3.55-.69.91-.69.91-.4.36-.9.54-.9.54-.5.18-1.18.18-1.18.18-.36 0-.6-.04-.6-.04-.25-.04-.48-.12-.48-.12l.4-1.72zm6.85-1.11zm1.34-2.3c.52.4 1 .6 1 .6.48.2.97.2.97.2.51 0 .74-.17.74-.17.23-.17.23-.48.23-.48 0-.19-.13-.33-.13-.33-.13-.15-.36-.27-.36-.27-.22-.13-.5-.23-.5-.23-.28-.1-.57-.23-.57-.23-.35-.14-.71-.33-.71-.33-.35-.18-.64-.45-.64-.45-.29-.27-.48-.63-.48-.63-.19-.36-.19-.84-.19-.84 0-.52.21-.97.21-.97.21-.45.59-.75.59-.75.38-.31.92-.49.92-.49.54-.18 1.2-.18 1.2-.18.88 0 1.54.3 1.54.3.67.3 1.16.67 1.16.67l-1.01 1.37c-.42-.31-.82-.48-.82-.48-.41-.17-.81-.17-.81-.17-.86 0-.86.6-.86.6 0 .18.12.31.12.31.12.13.33.24.33.24.21.1.48.2.48.2l.57.21c.37.14.73.31.73.31.362.17.662.44.662.44.3.26.482.64.482.64.185.37.185.9.185.9 0 .52-.2.97-.2.97-.2.44-.6.77-.6.77-.4.33-.98.52-.98.52-.59.19-1.36.19-1.36.19-.76 0-1.55-.29-1.55-.29-.8-.3-1.38-.77-1.38-.77zm5.48 2.29zm1.31-5.87h-1.04V6.55l1.17-.09.26-2.034h1.88V6.46h1.83v1.77h-1.83v3.07c0 .646.27.93.27.93.27.285.72.285.72.285.19 0 .38-.046.38-.046.19-.05.35-.11.35-.11l.35 1.65c-.31.09-.73.18-.73.18-.42.09-.97.09-.97.09-.71 0-1.21-.22-1.21-.22-.5-.22-.81-.6-.81-.6-.32-.39-.46-.94-.46-.94-.15-.55-.15-1.21-.15-1.21V8.23zm4.43 5.87zm.55-3.82c0-.93.31-1.67.31-1.67.31-.75.81-1.27.81-1.27.5-.52 1.15-.8 1.15-.8.65-.28 1.34-.28 1.34-.28.82 0 1.43.28 1.43.28.61.27 1.02.77 1.02.77.41.49.61 1.16.61 1.16.2.67.2 1.45.2 1.45 0 .31-.03.56-.03.56-.03.26-.06.39-.06.39h-4.58c.15.87.68 1.27.68 1.27.53.39 1.3.39 1.3.39.82 0 1.65-.51 1.65-.51l.76 1.37c-.59.4-1.3.63-1.3.63-.72.23-1.41.23-1.41.23-.82 0-1.53-.27-1.53-.27-.71-.27-1.24-.79-1.24-.79-.53-.52-.82-1.26-.82-1.26-.3-.74-.3-1.69-.3-1.69zm0 0zm4.93-.79c0-.67-.29-1.08-.29-1.08-.29-.42-.99-.42-.99-.42-.54 0-.94.36-.94.36-.41.37-.53 1.14-.53 1.14h2.76zm2.5 4.6zm1-7.64h1.85l.15.98h.06c.48-.48 1.02-.83 1.02-.83.54-.35 1.29-.35 1.29-.35.81 0 1.31.33 1.31.33.5.33.8.95.8.95.51-.52 1.07-.9 1.07-.9.56-.38 1.33-.38 1.33-.38 1.23 0 1.81.82 1.81.82.58.83.58 2.26.58 2.26v4.74h-2.27v-4.4c0-.83-.23-1.14-.23-1.14-.22-.31-.72-.31-.72-.31-.57 0-1.31.74-1.31.74v5.16h-2.27V9.64c0-.832-.22-1.14-.22-1.14-.23-.31-.72-.31-.72-.31-.59 0-1.29.74-1.29.74v5.16h-2.26V6.45zm12.19 7.64zm1.34-2.3c.53.4 1 .6 1 .6.48.2.97.2.97.2.51 0 .74-.17.74-.17.23-.17.23-.48.23-.48 0-.19-.13-.33-.13-.33-.13-.15-.35-.27-.35-.27-.23-.12-.5-.22-.5-.22-.28-.1-.57-.23-.57-.23-.36-.14-.71-.33-.71-.33-.36-.19-.65-.46-.65-.46-.29-.27-.48-.63-.48-.63-.18-.36-.18-.84-.18-.84 0-.52.21-.97.21-.97.21-.45.59-.75.59-.75.38-.31.92-.49.92-.49.54-.18 1.2-.18 1.2-.18.88 0 1.54.3 1.54.3.66.3 1.16.67 1.16.67l-1.02 1.36c-.42-.31-.82-.48-.82-.48-.4-.17-.8-.17-.8-.17-.86 0-.86.6-.86.6 0 .18.13.31.13.31.12.13.33.24.33.24.21.11.48.21.48.21l.56.21c.37.14.73.32.73.32.36.18.66.44.66.44.3.26.49.64.49.64.18.37.18.9.18.9 0 .52-.2.97-.2.97-.2.44-.6.78-.6.78-.4.33-.99.52-.99.52-.58.19-1.35.19-1.35.19-.76 0-1.55-.29-1.55-.29-.79-.29-1.38-.77-1.38-.77zm8.69 2.29zm.6-3.82c0-.94.27-1.68.27-1.68.27-.74.71-1.26.71-1.26.44-.51 1.01-.79 1.01-.79.58-.28 1.18-.28 1.18-.28.64 0 1.06.22 1.06.22.41.22.82.59.82.59l-.1-1.17V3.3h2.26v10.797h-1.85l-.16-.754h-.06c-.4.4-.94.67-.94.67-.54.27-1.1.27-1.1.27-.71 0-1.29-.278-1.29-.278-.58-.278-.98-.794-.98-.794-.41-.51-.63-1.25-.63-1.25-.23-.74-.23-1.68-.23-1.68zm0 0zm2.32-.03c0 1.14.36 1.66.36 1.66.36.52 1.02.52 1.02.52.37 0 .67-.15.67-.15.3-.15.58-.54.58-.54V8.6c-.31-.276-.63-.384-.63-.384-.32-.11-.63-.11-.63-.11-.54 0-.96.513-.96.513-.42.51-.42 1.61-.42 1.61zm5.9 3.85zm.55-3.82c0-.96.3-1.7.3-1.7.3-.75.82-1.26.82-1.26.51-.51 1.19-.78 1.19-.78.68-.27 1.4-.27 1.4-.27.72 0 1.39.27 1.39.27.67.27 1.18.78 1.18.78.52.51.82 1.26.82 1.26.31.74.31 1.7.31 1.7 0 .95-.31 1.7-.31 1.7-.31.74-.83 1.25-.83 1.25-.51.51-1.18.78-1.18.78-.67.27-1.39.27-1.39.27-.72 0-1.4-.27-1.4-.27-.68-.27-1.19-.78-1.19-.78-.52-.51-.82-1.26-.82-1.26-.31-.75-.31-1.71-.31-1.71zm0 0zm2.32 0c0 1 .34 1.58.34 1.58.34.58 1.05.58 1.05.58.69 0 1.04-.59 1.04-.59.35-.59.35-1.59.35-1.59 0-1-.36-1.59-.36-1.59-.35-.59-1.05-.59-1.05-.59-.71 0-1.06.58-1.06.58-.35.58-.35 1.59-.35 1.59zm8.87 3.82zm1.17 1.11c.11.03.25.06.25.06.14.03.26.03.26.03.57 0 .88-.28.88-.28.3-.28.46-.73.46-.73l.11-.4-2.94-7.44h2.28l1.09 3.28c.17.52.31 1.06.31 1.06.14.54.29 1.11.29 1.11h.06c.12-.54.25-1.09.25-1.09.13-.55.27-1.09.27-1.09l.92-3.28h2.17l-2.65 7.72c-.28.72-.58 1.27-.58 1.27-.3.54-.69.91-.69.91-.39.36-.89.54-.89.54-.5.18-1.18.18-1.18.18-.36 0-.6-.04-.6-.04-.25-.04-.48-.11-.48-.11l.4-1.73zm6.73-1.11zm.55-3.82c0-.96.3-1.7.3-1.7.31-.75.83-1.26.83-1.26.51-.51 1.19-.78 1.19-.78.68-.27 1.4-.27 1.4-.27.72 0 1.39.27 1.39.27.67.27 1.19.78 1.19.78.51.51.82 1.25.82 1.25.31.75.31 1.7.31 1.7 0 .95-.31 1.7-.31 1.7-.31.75-.82 1.26-.82 1.26-.51.5-1.18.77-1.18.77-.67.27-1.39.27-1.39.27-.72 0-1.4-.27-1.4-.27-.68-.27-1.19-.78-1.19-.78-.52-.51-.83-1.25-.83-1.25-.31-.75-.31-1.71-.31-1.71zm0 0zm2.32 0c0 1 .35 1.59.35 1.59.35.58 1.06.58 1.06.58.69 0 1.04-.59 1.04-.59.35-.58.35-1.58.35-1.58 0-1-.36-1.59-.36-1.59-.36-.59-1.05-.59-1.05-.59-.71 0-1.06.59-1.06.59-.35.58-.35 1.58-.35 1.58zm5.67 3.82zm.92-7.64h2.26v4.46c0 .83.23 1.14.23 1.14.23.31.73.31.73.31.43 0 .72-.2.72-.2.29-.2.63-.65.63-.65v-5h2.26v7.64h-1.84l-.17-1.07h-.05c-.49.58-1.06.91-1.06.91-.57.33-1.35.33-1.35.33-1.25 0-1.81-.82-1.81-.82-.56-.82-.56-2.26-.56-2.26V6.46zm11.03 7.64zm.92-7.64H591v4.46c0 .83.23 1.14.23 1.14.23.31.73.31.73.31.43 0 .72-.2.72-.2.29-.2.63-.65.63-.65v-5h2.27v7.64h-1.85l-.17-1.07h-.044c-.49.58-1.056.91-1.056.91-.56.33-1.35.33-1.35.33-1.25 0-1.81-.82-1.81-.82-.56-.82-.56-2.26-.56-2.26V6.46zm7.82 7.64zm1.34-2.3c.53.4 1 .6 1 .6.48.2.97.2.97.2.51 0 .74-.17.74-.17.23-.17.23-.47.23-.47 0-.19-.13-.33-.13-.33-.13-.15-.35-.27-.35-.27-.22-.13-.5-.23-.5-.23-.28-.1-.57-.22-.57-.22-.35-.14-.71-.33-.71-.33-.35-.19-.64-.46-.64-.46-.29-.27-.48-.63-.48-.63-.19-.36-.19-.84-.19-.84 0-.52.2-.97.2-.97.2-.44.59-.75.59-.75.38-.31.92-.48.92-.48.54-.18 1.2-.18 1.2-.18.88 0 1.54.3 1.54.3.66.3 1.15.67 1.15.67l-1.01 1.36c-.42-.31-.82-.48-.82-.48-.4-.17-.8-.17-.8-.17-.867 0-.867.6-.867.6 0 .18.12.32.12.32.12.13.33.24.33.24.21.1.48.2.48.2l.56.21c.37.14.73.32.73.32.36.17.66.44.66.44.3.26.48.64.48.64.182.37.182.9.182.9 0 .52-.2.97-.2.97-.2.44-.6.77-.6.77-.4.33-.99.52-.99.52-.59.2-1.36.2-1.36.2-.755 0-1.55-.29-1.55-.29-.8-.29-1.38-.77-1.38-.77zm5.49 2.3zm.55-3.82c0-.93.31-1.67.31-1.67.31-.75.81-1.27.81-1.27.5-.52 1.14-.79 1.14-.79.65-.28 1.34-.28 1.34-.28.82 0 1.43.27 1.43.27.61.28 1.02.77 1.02.77.41.49.61 1.16.61 1.16.2.67.2 1.45.2 1.45 0 .31-.03.56-.03.56-.03.26-.06.39-.06.39h-4.57c.15.88.68 1.27.68 1.27.53.4 1.3.4 1.3.4.81 0 1.65-.51 1.65-.51l.75 1.37c-.59.4-1.3.63-1.3.63-.72.23-1.41.23-1.41.23-.82 0-1.53-.27-1.53-.27-.7-.27-1.23-.79-1.23-.79-.52-.52-.81-1.26-.81-1.26-.29-.74-.29-1.695-.29-1.695zm0 0zm4.93-.79c0-.66-.29-1.08-.29-1.08-.3-.42-.99-.42-.99-.42-.54 0-.95.36-.95.36-.41.36-.53 1.13-.53 1.13h2.75zm5.7 4.6zM619.9 5c-.43-.16-.78-.16-.78-.16-.42 0-.65.25-.65.25-.23.256-.23.84-.23.84v.46h1.37v1.8h-1.37v5.87H616V8.23h-1V6.55l1.017-.076V6.06c0-.6.145-1.14.145-1.14.148-.54.487-.94.487-.94.34-.4.88-.63.88-.63.54-.233 1.31-.233 1.31-.233.47 0 .87.1.87.1.39.09.65.187.65.187zm-.214 9.04zm.56-3.82c0-.96.31-1.7.31-1.7.305-.75.82-1.26.82-1.26.515-.51 1.19-.78 1.19-.78.68-.27 1.406-.27 1.406-.27.727 0 1.397.27 1.397.27.67.27 1.19.78 1.19.78.52.51.83 1.258.83 1.258.31.747.31 1.7.31 1.7 0 .956-.31 1.7-.31 1.7-.31.75-.82 1.26-.82 1.26-.52.51-1.19.78-1.19.78-.67.27-1.39.27-1.39.27-.72 0-1.4-.27-1.4-.27-.68-.27-1.2-.78-1.2-.78-.52-.51-.83-1.255-.83-1.255-.31-.75-.31-1.703-.31-1.703zm0 0zm2.324 0c0 1 .35 1.58.35 1.58.346.58 1.05.58 1.05.58.69 0 1.05-.58 1.05-.58.35-.584.35-1.585.35-1.585 0-1-.35-1.585-.35-1.585-.35-.588-1.043-.588-1.043-.588-.71 0-1.055.58-1.055.58-.343.58-.343 1.584-.343 1.584zm5.67 3.82zm1-7.64h1.85l.15 1.34h.066c.41-.79 1-1.16 1-1.16.58-.37 1.17-.37 1.17-.37.32 0 .53.04.53.04.21.036.38.11.38.11l-.37 1.958c-.22-.06-.4-.09-.4-.09-.19-.03-.43-.03-.43-.03-.44 0-.91.31-.91.31-.47.306-.78 1.09-.78 1.09v4.437h-2.27v-7.6zm8.33 7.64zM638.77 4h2.267v3.9h3.465V4.06h2.28v10.042h-2.28v-4.19h-3.46v4.19h-2.27V4.062zM648 14.1zm.725-2.126c0-1.2 1.016-1.88 1.016-1.88 1.02-.676 3.28-.907 3.28-.907-.03-.51-.3-.81-.3-.81-.27-.3-.89-.3-.89-.3-.49 0-.98.185-.98.185-.49.185-1.05.508-1.05.508l-.8-1.494c.74-.447 1.55-.725 1.55-.725.81-.27 1.72-.27 1.72-.27 1.48 0 2.26.84 2.26.84.78.84.78 2.61.78 2.61v4.37h-1.85l-.17-.78h-.04c-.49.43-1.04.7-1.04.7-.54.27-1.19.27-1.19.27-.52 0-.94-.17-.94-.17-.41-.18-.71-.49-.71-.49-.29-.31-.45-.73-.45-.73-.16-.41-.16-.9-.16-.9zm0 0zm2.156-.17c0 .37.24.548.24.548.24.177.64.177.64.177.4 0 .68-.17.68-.17.28-.17.59-.48.59-.48v-1.34c-1.21.17-1.67.49-1.67.49-.46.32-.46.77-.46.77zm5.35 2.296zm1.34-2.295c.53.4 1 .6 1 .6.48.2.97.2.97.2.51 0 .74-.17.74-.17.23-.168.23-.476.23-.476 0-.19-.13-.33-.13-.33-.13-.15-.35-.27-.35-.27-.22-.13-.5-.23-.5-.23-.27-.1-.57-.23-.57-.23-.35-.14-.71-.33-.71-.33-.35-.19-.64-.46-.64-.46-.29-.27-.48-.63-.48-.63-.18-.37-.18-.84-.18-.84 0-.53.21-.97.21-.97.21-.45.6-.76.6-.76.39-.31.93-.48.93-.48.54-.18 1.2-.18 1.2-.18.88 0 1.54.3 1.54.3.67.3 1.16.67 1.16.67l-1.03 1.36c-.41-.31-.81-.48-.81-.48-.4-.17-.8-.17-.8-.17-.86 0-.86.6-.86.6 0 .18.13.31.13.31.12.13.33.24.33.24.21.11.48.21.48.21l.56.21c.37.14.73.31.73.31.37.18.67.44.67.44.3.26.48.64.48.64.19.38.19.9.19.9 0 .52-.2.97-.2.97-.2.45-.6.78-.6.78-.4.33-.99.52-.99.52-.58.19-1.35.19-1.35.19-.75 0-1.54-.29-1.54-.29-.79-.29-1.38-.77-1.38-.77zm5.48 2.295zm1-10.796h2.21v6.19h.06l2.42-3.033h2.47l-2.68 3.15 2.88 4.5h-2.45l-1.72-2.97-.97 1.1v1.88h-2.2V3.31zm7.01 10.796zm.56-3.82c0-.924.31-1.67.31-1.67.31-.748.81-1.263.81-1.263.5-.517 1.15-.795 1.15-.795.65-.277 1.34-.277 1.34-.277.82 0 1.43.278 1.43.278.61.277 1.02.77 1.02.77.41.492.61 1.162.61 1.162.2.67.2 1.455.2 1.455 0 .308-.03.563-.03.563-.03.254-.06.392-.06.392h-4.58c.16.878.69 1.27.69 1.27.53.393 1.3.393 1.3.393.82 0 1.65-.507 1.65-.507l.76 1.37c-.59.4-1.31.64-1.31.64-.72.23-1.41.23-1.41.23-.82 0-1.52-.27-1.52-.27-.7-.27-1.23-.78-1.23-.78-.52-.51-.81-1.25-.81-1.25-.29-.74-.29-1.69-.29-1.69zm0 0zm4.93-.785c0-.662-.29-1.078-.29-1.078-.29-.417-.99-.417-.99-.417-.54 0-.94.362-.94.362-.41.362-.53 1.132-.53 1.132h2.76zm2.5 4.605zm1-10.796h2.27v8.516c0 .355.13.493.13.493.13.14.27.14.27.14h.13l.15-.032.28 1.68c-.18.08-.47.13-.47.13-.28.06-.67.06-.67.06-.58 0-.98-.18-.98-.18-.4-.18-.64-.51-.64-.51-.24-.33-.34-.8-.34-.8-.11-.47-.11-1.05-.11-1.05V3.31zm3.4 10.796zm1-10.796h2.27v8.516c0 .355.13.493.13.493.13.14.27.14.27.14h.13l.15-.032.28 1.68c-.18.08-.47.13-.47.13-.28.06-.67.06-.67.06-.58 0-.98-.18-.98-.18-.4-.18-.64-.51-.64-.51-.24-.33-.34-.8-.34-.8-.11-.47-.11-1.05-.11-1.05V3.31zm3.4 10.796zm2.37-3.558c-.07-.524.04-.955.04-.955.12-.432.33-.802.33-.802.22-.37.49-.677.49-.677l.52-.592c.25-.285.41-.554.41-.554.16-.27.16-.563.16-.563 0-.48-.28-.73-.28-.73-.29-.25-.75-.25-.75-.25-.43 0-.76.2-.76.2-.33.2-.64.51-.64.51L688.47 5c.524-.63 1.232-1.016 1.232-1.016.71-.385 1.57-.385 1.57-.385.648 0 1.21.15 1.21.15.562.15.97.47.97.47.408.32.64.82.64.82.23.5.23 1.18.23 1.18 0 .47-.17.85-.17.85-.168.37-.423.7-.423.7-.26.32-.54.62-.54.62-.29.3-.52.62-.52.62-.24.32-.38.68-.38.68-.14.36-.1.82-.1.82h-1.99zm0 0zm-.37 2.326c0-.616.39-1.024.39-1.024.39-.41.97-.41.97-.41.59 0 .98.41.98.41.39.408.39 1.024.39 1.024 0 .6-.39 1.008-.39 1.008-.39.408-.98.408-.98.408-.58 0-.97-.408-.97-.408-.38-.408-.38-1.008-.38-1.008z"/><path fill="none" stroke="#D3D3D3" stroke-miterlimit="10" d="M39.59 738h954.762M39.59 597.4h954.762M39.59 456.8h954.762M39.59 316.2h954.762M39.59 175.6h954.762M39.59 35h954.762" stroke-dasharray="5 5"/><g fill="#5C3566" stroke-opacity="0" stroke-width="0" stroke-miterlimit="10" stroke-linejoin="bevel"><defs><clipPath id="a"><path d="M39.59 35v703h954.762V35z"/></clipPath></defs><g clip-path="url(#a)"><path stroke="none" d="M54.59 738V74.368h160.953V738z"/></g></g><g fill-opacity="0" stroke-miterlimit="10"><defs><clipPath id="b"><path d="M39.59 35v703h954.762V35z"/></clipPath></defs><g clip-path="url(#b)"><path fill="none" d="M54.59 738V74.368h160.953V738z"/></g></g><g fill="#5C3566" stroke-opacity="0" stroke-width="0" stroke-miterlimit="10" stroke-linejoin="bevel"><defs><clipPath id="c"><path d="M39.59 35v703h954.762V35z"/></clipPath></defs><g clip-path="url(#c)"><path stroke="none" d="M245.543 738v-22.496h160.952V738z"/></g></g><g fill-opacity="0" stroke-miterlimit="10"><defs><clipPath id="d"><path d="M39.59 35v703h954.762V35z"/></clipPath></defs><g clip-path="url(#d)"><path fill="none" d="M245.543 738v-22.496h160.952V738z"/></g></g><g fill="#5C3566" stroke-opacity="0" stroke-width="0" stroke-miterlimit="10" stroke-linejoin="bevel"><defs><clipPath id="e"><path d="M39.59 35v703h954.762V35z"/></clipPath></defs><g clip-path="url(#e)"><path stroke="none" d="M436.495 738v-16.872h160.952V738z"/></g></g><g fill-opacity="0" stroke-miterlimit="10"><defs><clipPath id="f"><path d="M39.59 35v703h954.762V35z"/></clipPath></defs><g clip-path="url(#f)"><path fill="none" d="M436.495 738v-16.872h160.952V738z"/></g></g><g fill="#5C3566" stroke-opacity="0" stroke-width="0" stroke-miterlimit="10" stroke-linejoin="bevel"><defs><clipPath id="g"><path d="M39.59 35v703h954.762V35z"/></clipPath></defs><g clip-path="url(#g)"><path stroke="none" d="M627.447 738v-5.062H788.4V738z"/></g></g><g fill-opacity="0" stroke-miterlimit="10"><defs><clipPath id="h"><path d="M39.59 35v703h954.762V35z"/></clipPath></defs><g clip-path="url(#h)"><path fill="none" d="M627.447 738v-5.062H788.4V738z"/></g></g><g fill="#5C3566" stroke-opacity="0" stroke-width="0" stroke-miterlimit="10" stroke-linejoin="bevel"><defs><clipPath id="i"><path d="M39.59 35v703h954.762V35z"/></clipPath></defs><g clip-path="url(#i)"><path stroke="none" d="M818.4 738v-10.123h160.952V738z"/></g></g><g fill-opacity="0" stroke-miterlimit="10"><defs><clipPath id="j"><path d="M39.59 35v703h954.762V35z"/></clipPath></defs><g clip-path="url(#j)"><path fill="none" d="M818.4 738v-10.123h160.952V738z"/></g></g><path fill="none" stroke-miterlimit="10" d="M39.59 738V35" stroke-linecap="square"/><path fill="none" stroke-miterlimit="10" d="M39.59 738h2m-2-112.48h2m-2-112.48h2m-2-112.48h2m-2-112.48h2m-2-112.48h2m-2-112.48h2m-2-112.48h2m-2 787.36h5m-5-140.6h5m-5-140.6h5m-5-140.6h5m-5-140.6h5m-5-140.6h5"/><path stroke="none" d="M25.294 741.445zm2.616.126c-1.02 0-1.586-.9-1.586-.9-.568-.9-.568-2.59-.568-2.59 0-1.69.568-2.57.568-2.57.567-.88 1.586-.88 1.586-.88 1.008 0 1.575.88 1.575.88.568.89.568 2.58.568 2.58 0 1.69-.568 2.6-.568 2.6-.567.91-1.575.91-1.575.91zm0 0zm0-.69c.294 0 .53-.16.53-.16.236-.16.41-.5.41-.5.173-.34.268-.87.268-.87.094-.53.094-1.26.094-1.26 0-.73-.094-1.26-.094-1.26-.095-.52-.268-.85-.268-.85-.173-.33-.41-.49-.41-.49-.236-.16-.53-.16-.53-.16-.294 0-.536.16-.536.16-.242.16-.415.49-.415.49-.18.33-.27.86-.27.86-.1.53-.1 1.26-.1 1.26 0 1.47.36 2.14.36 2.14.36.67.95.67.95.67zM14.77 600.85zm.42-.514c.755-.754 1.344-1.363 1.344-1.363.588-.61.987-1.13.987-1.13.4-.52.61-.955.61-.955.21-.434.21-.844.21-.844 0-.576-.31-.944-.31-.944-.31-.37-.95-.37-.95-.37-.42 0-.77.24-.77.24-.35.235-.65.57-.65.57l-.49-.492c.42-.462.9-.74.9-.74.48-.28 1.14-.28 1.14-.28.94 0 1.47.543 1.47.543.54.54.54 1.44.54 1.44 0 .47-.2.95-.2.95-.2.48-.57.99-.57.99-.36.51-.86 1.06-.86 1.06-.5.56-1.09 1.18-1.09 1.18l.57-.04c.3-.02.56-.02.56-.02h1.95v.75H15.2v-.51zm4.8.517zm.682-1.355c.294.307.7.538.7.538.403.23.99.23.99.23.306 0 .574-.11.574-.11.268-.11.467-.31.467-.31.2-.2.315-.482.315-.482.116-.283.116-.63.116-.63 0-.693-.39-1.082-.39-1.082-.387-.387-1.04-.387-1.04-.387-.345 0-.592.106-.592.106-.247.11-.552.31-.552.31l-.462-.29.22-3.22h3.352v.75h-2.595l-.18 1.99c.243-.12.485-.2.485-.2.24-.07.546-.07.546-.07.43 0 .81.13.81.13.377.13.66.39.66.39.284.26.447.65.447.65.163.4.163.94.163.94 0 .55-.19.97-.19.97-.19.42-.504.71-.504.71-.315.29-.72.44-.72.44-.404.15-.845.15-.845.15-.4 0-.73-.08-.73-.08-.33-.08-.598-.2-.598-.2-.27-.12-.49-.29-.49-.29-.22-.16-.39-.34-.39-.34zm4.538 1.357zm2.616.127c-1.02 0-1.586-.903-1.586-.903-.568-.91-.568-2.6-.568-2.6 0-1.69.567-2.58.567-2.58.56-.88 1.58-.88 1.58-.88 1.01 0 1.57.88 1.57.88.56.88.56 2.57.56 2.57 0 1.69-.57 2.59-.57 2.59-.57.9-1.58.9-1.58.9zm0 0zm0-.693c.294 0 .53-.17.53-.17.236-.16.41-.51.41-.51.173-.34.268-.87.268-.87.094-.53.094-1.27.094-1.27 0-.74-.094-1.26-.094-1.26-.095-.53-.268-.86-.268-.86-.173-.33-.41-.49-.41-.49-.236-.16-.53-.16-.53-.16-.294 0-.536.16-.536.16-.242.15-.415.48-.415.48-.173.33-.268.85-.268.85-.094.52-.094 1.26-.094 1.26 0 1.47.362 2.13.362 2.13.362.67.95.67.95.67zM14.653 460.25zm.683-1.355c.294.308.7.54.7.54.403.23.99.23.99.23.306 0 .574-.11.574-.11.268-.11.467-.31.467-.31.2-.2.315-.483.315-.483.116-.284.116-.63.116-.63 0-.694-.39-1.082-.39-1.082-.388-.39-1.04-.39-1.04-.39-.345 0-.592.106-.592.106-.247.105-.552.304-.552.304l-.462-.294.22-3.226h3.35v.745H16.44l-.18 1.98c.242-.125.483-.2.483-.2.242-.072.547-.072.547-.072.43 0 .808.127.808.127.38.126.662.383.662.383.284.257.447.65.447.65.162.395.162.94.162.94 0 .548-.19.968-.19.968-.19.42-.51.71-.51.71-.32.29-.72.44-.72.44-.41.16-.85.16-.85.16-.4 0-.73-.08-.73-.08-.33-.08-.6-.2-.6-.2-.27-.12-.48-.29-.48-.29-.22-.16-.39-.34-.39-.34zm4.538 1.358zm2.616.127c-1.02 0-1.587-.9-1.587-.9-.567-.903-.567-2.595-.567-2.595 0-1.69.567-2.574.567-2.574.568-.88 1.586-.88 1.586-.88 1 0 1.57.88 1.57.88.56.89.56 2.58.56 2.58 0 1.69-.57 2.6-.57 2.6-.57.91-1.58.91-1.58.91zm0 0zm0-.69c.294 0 .53-.163.53-.163.236-.162.41-.504.41-.504.173-.34.268-.87.268-.87.094-.53.094-1.266.094-1.266 0-.738-.094-1.26-.094-1.26-.095-.528-.268-.86-.268-.86-.174-.33-.41-.49-.41-.49-.236-.16-.53-.16-.53-.16-.295 0-.536.16-.536.16-.242.158-.415.49-.415.49-.18.33-.27.855-.27.855-.1.524-.1 1.26-.1 1.26 0 1.47.36 2.137.36 2.137.36.66.95.66.95.66zm2.605.567zm2.615.126c-1.02 0-1.586-.902-1.586-.902-.567-.9-.567-2.59-.567-2.59 0-1.69.567-2.57.567-2.57.567-.88 1.586-.88 1.586-.88 1.01 0 1.576.89 1.576.89.567.88.567 2.58.567 2.58 0 1.69-.567 2.6-.567 2.6-.567.91-1.576.91-1.576.91zm0 0zm0-.692c.294 0 .53-.16.53-.16.237-.16.41-.5.41-.5.174-.34.268-.87.268-.87.095-.53.095-1.26.095-1.26 0-.73-.095-1.26-.095-1.26-.094-.52-.268-.85-.268-.85-.173-.33-.41-.48-.41-.48-.236-.16-.53-.16-.53-.16-.294 0-.536.16-.536.16-.24.16-.414.49-.414.49-.174.33-.268.86-.268.86-.095.53-.095 1.26-.095 1.26 0 1.47.363 2.14.363 2.14.362.67.95.67.95.67zM14.853 319.65zm1.86 0c.04-.945.167-1.733.167-1.733.126-.788.352-1.497.352-1.497.226-.71.578-1.37.578-1.37.352-.662.846-1.355.846-1.355h-3.34v-.74h4.316v.534c-.598.75-.97 1.45-.97 1.45-.374.69-.595 1.41-.595 1.41-.22.72-.32 1.52-.32 1.52-.1.8-.142 1.78-.142 1.78h-.893zm3.36 0zm.683-1.355c.294.31.7.54.7.54.403.23.99.23.99.23.306 0 .574-.11.574-.11.268-.11.467-.31.467-.31.2-.2.315-.48.315-.48.116-.285.116-.63.116-.63 0-.695-.39-1.083-.39-1.083-.387-.39-1.04-.39-1.04-.39-.345 0-.592.105-.592.105-.247.105-.552.304-.552.304l-.462-.29.22-3.22h3.352v.75H21.86l-.18 1.98c.242-.12.484-.2.484-.2.24-.07.546-.07.546-.07.43 0 .81.13.81.13.377.13.66.38.66.38.284.26.447.65.447.65.163.4.163.94.163.94 0 .55-.19.97-.19.97-.19.42-.504.71-.504.71-.315.29-.72.44-.72.44-.404.16-.845.16-.845.16-.39 0-.73-.08-.73-.08-.33-.08-.59-.2-.59-.2-.27-.12-.48-.29-.48-.29-.21-.16-.38-.34-.38-.34zm4.538 1.36zm2.616.126c-1.02 0-1.586-.9-1.586-.9-.568-.9-.568-2.59-.568-2.59 0-1.69.568-2.57.568-2.57.567-.88 1.586-.88 1.586-.88 1.008 0 1.575.88 1.575.88.568.89.568 2.58.568 2.58 0 1.69-.568 2.6-.568 2.6-.567.9-1.575.9-1.575.9zm0 0zm0-.69c.294 0 .53-.16.53-.16.236-.16.41-.5.41-.5.173-.34.268-.87.268-.87.094-.53.094-1.26.094-1.26 0-.74-.094-1.26-.094-1.26-.095-.53-.268-.86-.268-.86-.173-.33-.41-.49-.41-.49-.236-.16-.53-.16-.53-.16-.294 0-.536.16-.536.16-.242.16-.415.49-.415.49-.18.33-.27.86-.27.86-.1.53-.1 1.26-.1 1.26 0 1.47.36 2.14.36 2.14.36.67.95.67.95.67zM10 179.05zm.83-.715h1.533v-4.93h-1.218v-.553c.462-.085.804-.205.804-.205.34-.12.61-.29.61-.29h.66v5.988h1.38v.716h-3.78v-.71zm4.39.72zm2.616.13c-1.02 0-1.586-.902-1.586-.902-.567-.9-.567-2.593-.567-2.593 0-1.69.567-2.573.567-2.573.567-.882 1.586-.882 1.586-.882 1.01 0 1.576.884 1.576.884.567.88.567 2.57.567 2.57 0 1.69-.57 2.59-.57 2.59-.57.9-1.58.9-1.58.9zm0 0zm0-.692c.294 0 .53-.16.53-.16.237-.16.41-.504.41-.504.174-.34.268-.87.268-.87.095-.53.095-1.27.095-1.27 0-.74-.1-1.26-.1-1.26-.1-.53-.27-.86-.27-.86-.18-.33-.41-.49-.41-.49-.24-.16-.53-.16-.53-.16-.3 0-.54.16-.54.16-.24.15-.42.48-.42.48-.18.33-.27.85-.27.85-.1.53-.1 1.26-.1 1.26 0 1.47.36 2.14.36 2.14.36.67.95.67.95.67zm2.605.57zm2.62.126c-1.02 0-1.58-.91-1.58-.91-.56-.9-.56-2.59-.56-2.59 0-1.69.57-2.57.57-2.57.57-.88 1.59-.88 1.59-.88 1.01 0 1.58.88 1.58.88.57.88.57 2.57.57 2.57 0 1.69-.56 2.59-.56 2.59-.57.9-1.58.9-1.58.9zm0 0zm0-.7c.3 0 .53-.16.53-.16.24-.16.41-.51.41-.51.18-.34.27-.87.27-.87.1-.53.1-1.27.1-1.27 0-.74-.09-1.26-.09-1.26-.09-.53-.27-.86-.27-.86-.17-.33-.41-.49-.41-.49-.23-.16-.53-.16-.53-.16-.29 0-.53.16-.53.16-.24.15-.41.48-.41.48-.17.33-.27.85-.27.85-.09.52-.09 1.26-.09 1.26 0 1.47.36 2.14.36 2.14.36.66.95.66.95.66zm2.61.57zm2.62.12c-1.02 0-1.58-.91-1.58-.91-.56-.91-.56-2.6-.56-2.6 0-1.69.57-2.58.57-2.58.57-.89 1.59-.89 1.59-.89 1.01 0 1.58.88 1.58.88.57.88.57 2.57.57 2.57 0 1.69-.57 2.59-.57 2.59-.56.9-1.57.9-1.57.9zm0 0zm0-.7c.3 0 .53-.17.53-.17.24-.16.41-.5.41-.5.18-.34.27-.87.27-.87.1-.53.1-1.27.1-1.27 0-.74-.09-1.26-.09-1.26-.09-.53-.26-.86-.26-.86-.17-.33-.41-.49-.41-.49-.23-.16-.53-.16-.53-.16-.29 0-.53.16-.53.16-.24.15-.41.48-.41.48-.17.33-.27.86-.27.86-.09.52-.09 1.26-.09 1.26 0 1.47.36 2.14.36 2.14.36.67.95.67.95.67zM10 38.44zm.83-.714h1.533V32.8h-1.218v-.557c.462-.084.804-.204.804-.204.34-.12.61-.29.61-.29h.66v5.98h1.38v.71h-3.78v-.72zm4.39.72zm.42-.52c.757-.76 1.345-1.368 1.345-1.368.59-.61.988-1.13.988-1.13.4-.52.61-.95.61-.95.21-.433.21-.842.21-.842 0-.58-.316-.945-.316-.945-.315-.36-.956-.36-.956-.36-.42 0-.77.24-.77.24-.35.24-.65.57-.65.57l-.49-.49c.42-.46.9-.74.9-.74.47-.28 1.14-.28 1.14-.28.94 0 1.47.54 1.47.54.54.54.54 1.44.54 1.44 0 .47-.2.95-.2.95-.2.48-.57.99-.57.99-.36.51-.86 1.06-.86 1.06-.5.55-1.1 1.17-1.1 1.17l.57-.04c.3-.02.56-.02.56-.02H20v.75h-4.33v-.51zm4.8.512zm.684-1.35c.294.308.698.54.698.54.405.23.993.23.993.23.305 0 .572-.11.572-.11.268-.11.468-.31.468-.31.2-.2.315-.48.315-.48.116-.285.116-.63.116-.63 0-.695-.39-1.08-.39-1.08-.388-.39-1.04-.39-1.04-.39-.346 0-.593.103-.593.103-.246.11-.55.31-.55.31l-.463-.3.22-3.23h3.35v.75h-2.593l-.18 1.99c.243-.12.484-.2.484-.2.25-.07.55-.07.55-.07.43 0 .81.13.81.13.38.12.66.38.66.38.29.26.45.65.45.65.17.39.17.94.17.94 0 .55-.19.97-.19.97-.19.42-.5.71-.5.71-.31.29-.72.44-.72.44-.4.15-.84.15-.84.15-.4 0-.73-.07-.73-.07-.33-.08-.6-.2-.6-.2-.26-.12-.48-.29-.48-.29-.21-.16-.38-.34-.38-.34zm4.538 1.358zm2.615.127c-1.02 0-1.586-.9-1.586-.9-.56-.9-.56-2.595-.56-2.595 0-1.69.57-2.576.57-2.576.57-.88 1.59-.88 1.59-.88 1.01 0 1.58.88 1.58.88.57.883.57 2.574.57 2.574 0 1.69-.56 2.59-.56 2.59-.57.905-1.58.905-1.58.905zm0 0zm0-.69c.294 0 .53-.16.53-.16.237-.16.41-.505.41-.505.174-.34.268-.87.268-.87.095-.53.095-1.27.095-1.27 0-.736-.095-1.26-.095-1.26-.094-.526-.267-.857-.267-.857-.174-.33-.41-.49-.41-.49-.236-.16-.53-.16-.53-.16-.295 0-.536.16-.536.16-.242.16-.415.49-.415.49-.174.33-.268.86-.268.86-.1.53-.1 1.26-.1 1.26 0 1.47.36 2.14.36 2.14.36.67.95.67.95.67z"/><path fill="none" stroke-miterlimit="10" d="M39.59 738h954.762" stroke-linecap="square"/><path stroke="none" d="M116.453 758zm.546-3.445c0-.83.23-1.492.23-1.492.23-.662.66-1.124.66-1.124.42-.47 1-.71 1-.71.57-.25 1.27-.25 1.27-.25.71 0 1.19.27 1.19.27.48.27.78.58.78.58l-.5.55c-.27-.27-.61-.46-.61-.46-.35-.19-.87-.19-.87-.19-.53 0-.95.19-.95.19-.42.19-.72.55-.72.55-.3.36-.46.88-.46.88-.17.51-.17 1.15-.17 1.15 0 .65.15 1.17.15 1.17.15.52.44.89.44.89.29.36.71.56.71.56.42.2.98.2.98.2.36 0 .69-.11.69-.11.33-.11.54-.3.54-.3v-1.8h-1.46v-.72h2.26v2.9c-.34.34-.89.57-.89.57-.55.22-1.25.22-1.25.22-.69 0-1.25-.24-1.25-.24-.57-.25-.98-.7-.98-.7-.41-.46-.64-1.13-.64-1.13-.23-.67-.23-1.51-.23-1.51zm5.93 3.445zm1.3-6.155c-.25 0-.43-.158-.43-.158-.18-.158-.18-.4-.18-.4 0-.25.17-.404.17-.404.17-.152.43-.152.43-.152.25 0 .42.16.42.16.17.16.17.41.17.41 0 .24-.18.4-.18.4-.18.16-.43.16-.43.16zm0 0zm-.44 1.05h.86V758h-.86v-5.105zm1.72 5.105zm1.01-4.4h-.76v-.653l.8-.052.1-1.43h.72v1.43h1.37v.704h-1.38v2.83c0 .47.17.73.17.73.17.25.61.25.61.25.14 0 .29-.04.29-.04.15-.05.28-.1.28-.1l.17.65c-.21.07-.46.13-.46.13-.25.05-.49.05-.49.05-.41 0-.69-.13-.69-.13-.28-.13-.45-.35-.45-.35-.18-.22-.25-.54-.25-.54-.07-.32-.07-.7-.07-.7v-2.82zm2.54 4.4zm.68-4.317c0-.305.18-.49.18-.49.18-.182.44-.182.44-.182.25 0 .43.19.43.19.18.19.18.49.18.49 0 .28-.19.47-.19.47-.18.19-.44.19-.44.19-.27 0-.45-.18-.45-.18-.19-.18-.19-.46-.19-.46zm0 0zm0 3.792c0-.305.18-.49.18-.49.18-.182.44-.182.44-.182.25 0 .43.183.43.183.18.184.18.49.18.49 0 .282-.19.466-.19.466-.18.184-.44.184-.44.184-.27 0-.45-.184-.45-.184-.19-.184-.19-.467-.19-.467zm4.05.525zm.83-.714h1.53v-4.937h-1.22v-.56c.46-.09.8-.21.8-.21.34-.12.61-.29.61-.29h.66v5.99h1.38v.72h-3.78v-.72zm4.39.714zm.83-.714h1.53v-4.937h-1.22v-.56c.46-.09.8-.21.8-.21.34-.12.61-.29.61-.29h.66v5.99h1.39v.72h-3.78v-.72zm4.39.714zm1.21-1.796c0 .283.11.515.11.515.11.23.3.4.3.4.19.17.45.27.45.27.26.09.56.09.56.09.59 0 .95-.33.95-.33.36-.33.36-.85.36-.85 0-.33-.15-.56-.15-.56-.15-.23-.4-.41-.4-.41-.25-.18-.59-.32-.59-.32-.33-.15-.69-.29-.69-.29-.4.27-.67.63-.67.63-.27.36-.27.82-.27.82zm0 0zm1.89-1.86c.33-.304.52-.64.52-.64.18-.336.18-.704.18-.704 0-.504-.31-.846-.31-.846-.31-.34-.86-.34-.86-.34-.48 0-.78.293-.78.293-.31.294-.31.788-.31.788 0 .304.12.52.12.52.12.215.34.383.34.383.22.168.49.3.49.3.28.13.58.246.58.246zm0 0zm-2.67 1.944c0-.326.11-.604.11-.604.11-.28.28-.504.28-.504.17-.226.4-.4.4-.4.22-.173.46-.3.46-.3v-.04c-.37-.264-.65-.637-.65-.637-.29-.372-.29-.908-.29-.908 0-.39.15-.704.15-.704.15-.31.4-.54.4-.54.25-.22.6-.35.6-.35.34-.12.75-.12.75-.12.44 0 .79.13.79.13.34.14.59.37.59.37.24.24.37.57.37.57.13.33.13.72.13.72 0 .26-.09.51-.09.51-.09.24-.22.45-.22.45-.13.21-.3.38-.3.38-.16.17-.32.28-.32.28v.04c.22.13.43.29.43.29.21.16.38.37.38.37.16.21.26.47.26.47.1.27.1.6.1.6 0 .38-.16.71-.16.71-.16.33-.45.57-.45.57-.29.25-.69.38-.69.38-.4.14-.89.14-.89.14-.48 0-.88-.14-.88-.14-.41-.13-.7-.38-.7-.38-.29-.24-.46-.58-.46-.58-.17-.33-.17-.73-.17-.73zm4.79 1.712zm2.61.126c-1.02 0-1.59-.903-1.59-.903-.57-.904-.57-2.595-.57-2.595 0-1.69.56-2.573.56-2.573.56-.883 1.58-.883 1.58-.883 1.01 0 1.57.883 1.57.883.57.882.57 2.573.57 2.573 0 1.69-.57 2.595-.57 2.595-.57.903-1.58.903-1.58.903zm0 0zm0-.693c.29 0 .53-.163.53-.163.24-.163.41-.504.41-.504.17-.342.27-.872.27-.872.09-.53.09-1.266.09-1.266 0-.735-.1-1.26-.1-1.26-.1-.525-.27-.856-.27-.856-.17-.33-.41-.49-.41-.49-.24-.156-.53-.156-.53-.156-.3 0-.54.157-.54.157-.24.158-.41.49-.41.49-.18.33-.27.855-.27.855-.1.525-.1 1.26-.1 1.26 0 1.47.36 2.138.36 2.138.36.667.95.667.95.667zm146.47.567zm.94-6.89h1.03l1.33 3.697.5 1.407h.04l.48-1.407 1.32-3.698h1.03V758h-.83v-3.792c0-.462.04-1.02.04-1.02.04-.556.08-1.018.08-1.018h-.04l-.56 1.534-1.32 3.603h-.5l-1.34-3.603-.55-1.534h-.04c.03.462.07 1.02.07 1.02.04.556.04 1.018.04 1.018V758h-.81v-6.89zm6.69 6.89zm.48-2.542c0-.63.19-1.13.19-1.13.19-.498.51-.845.51-.845.32-.346.73-.53.73-.53.41-.184.85-.184.85-.184.48 0 .86.16.86.16.38.17.64.48.64.48.26.31.39.75.39.75.14.44.14.98.14.98 0 .28-.04.47-.04.47h-3.44c.05.83.51 1.31.51 1.31.46.48 1.19.48 1.19.48.37 0 .68-.11.68-.11.31-.11.59-.29.59-.29l.3.56c-.34.21-.75.37-.75.37-.41.16-.94.16-.94.16-.52 0-.96-.19-.96-.19-.45-.19-.78-.53-.78-.53-.33-.34-.52-.84-.52-.84-.19-.5-.19-1.13-.19-1.13zm0 0zm3.57-.39c0-.786-.33-1.2-.33-1.2-.33-.416-.93-.416-.93-.416-.28 0-.52.11-.52.11-.25.11-.45.315-.45.315-.2.205-.34.504-.34.504-.13.3-.18.69-.18.69h2.73zm1.16 2.932zm.86-5.105h.71l.07.924h.03c.26-.49.63-.77.63-.77.37-.29.81-.29.81-.29.3 0 .54.1.54.1l-.17.75-.23-.07c-.11-.02-.27-.02-.27-.02-.33 0-.68.26-.68.26-.36.26-.62.91-.62.91v3.3h-.86v-5.11zm2.68 5.105zm.48-2.542c0-.64.2-1.14.2-1.14.2-.5.53-.845.53-.845.33-.347.78-.525.78-.525.45-.18.94-.18.94-.18.51 0 .87.185.87.185.36.184.62.425.62.425l-.43.557c-.23-.2-.48-.326-.48-.326-.25-.13-.55-.13-.55-.13-.35 0-.64.14-.64.14-.3.14-.51.4-.51.4-.21.26-.33.62-.33.62-.12.36-.12.8-.12.8 0 .44.11.8.11.8.12.35.32.61.32.61.2.25.5.4.5.4.29.14.64.14.64.14.37 0 .67-.15.67-.15.3-.16.53-.37.53-.37l.39.56c-.35.3-.78.48-.78.48-.43.18-.89.18-.89.18-.51 0-.95-.18-.95-.18-.44-.18-.76-.52-.76-.52-.33-.34-.51-.84-.51-.84-.18-.5-.18-1.13-.18-1.13zM319.7 758zm.79-5.105h.87v3.12c0 .724.227 1.045.227 1.045.226.32.73.32.73.32.4 0 .704-.205.704-.205.31-.204.68-.656.68-.656v-3.63h.86V758h-.71l-.07-.798h-.03c-.36.42-.75.672-.75.672-.39.252-.93.252-.93.252-.82 0-1.19-.504-1.19-.504-.37-.504-.37-1.492-.37-1.492v-3.235zm4.93 5.105zm.86-5.105h.72l.08.924h.03c.26-.49.64-.77.64-.77.37-.29.813-.29.813-.29.304 0 .545.1.545.1l-.17.75c-.127-.04-.23-.07-.23-.07-.107-.02-.265-.02-.265-.02-.323 0-.675.26-.675.26-.35.26-.613.91-.613.91v3.3h-.86v-5.11zm2.79 5.105zm1.305-6.155c-.25 0-.425-.158-.425-.158-.18-.158-.18-.4-.18-.4 0-.25.17-.404.17-.404.17-.152.42-.152.42-.152.25 0 .424.16.424.16.17.16.17.41.17.41 0 .24-.176.4-.176.4-.177.16-.43.16-.43.16zm0 0zm-.44 1.05h.86V758h-.86v-5.105zM331.66 758zm.61-1.323c0-.84.75-1.287.75-1.287.75-.447 2.39-.625 2.39-.625 0-.242-.047-.473-.047-.473-.05-.23-.17-.41-.17-.41-.12-.178-.32-.29-.32-.29-.2-.11-.52-.11-.52-.11-.45 0-.84.17-.84.17-.39.167-.69.377-.69.377l-.35-.6c.355-.23.87-.45.87-.45.514-.22 1.134-.22 1.134-.22.937 0 1.357.57 1.357.57.42.57.42 1.53.42 1.53V758h-.713l-.07-.61h-.02c-.37.306-.79.52-.79.52-.42.216-.89.216-.89.216-.65 0-1.07-.378-1.07-.378-.42-.378-.42-1.07-.42-1.07zm0 0zm.85-.064c0 .442.257.63.257.63.26.19.636.19.636.19.36 0 .69-.173.69-.173.33-.174.7-.51.7-.51v-1.418c-.64.084-1.09.2-1.09.2-.44.115-.71.273-.71.273-.27.157-.38.362-.38.362-.118.205-.118.446-.118.446zm3.92 1.387zm.86-7.48h.864v6.514c0 .21.073.294.073.294.073.084.167.084.167.084h.08l.11-.02.115.65c-.09.042-.2.063-.2.063-.12.02-.3.02-.3.02-.5 0-.71-.293-.71-.293-.21-.294-.21-.86-.21-.86v-6.45zm1.82 7.48zm.683-4.317c0-.305.184-.49.184-.49.184-.182.446-.182.446-.182.253 0 .436.19.436.19.18.19.18.49.18.49 0 .28-.19.47-.19.47-.19.19-.44.19-.44.19-.26 0-.45-.18-.45-.18-.19-.18-.19-.46-.19-.46zm0 0zm0 3.792c0-.305.184-.49.184-.49.184-.182.446-.182.446-.182.253 0 .436.183.436.183.18.184.18.49.18.49 0 .282-.19.466-.19.466-.19.184-.44.184-.44.184-.26 0-.45-.184-.45-.184-.19-.184-.19-.467-.19-.467zm4.055.525zm3.2-2.542v-1.943c0-.273.02-.646.02-.646.02-.38.04-.65.04-.65h-.04c-.126.24-.263.47-.263.47-.133.23-.28.47-.28.47l-1.565 2.29h2.1zm0 0zm1.74.693h-.91V758h-.82v-1.85h-3.016v-.566l2.867-4.286h.96v4.16h.91v.693zm.296 1.85zm2.616.13c-1.02 0-1.586-.9-1.586-.9-.57-.9-.57-2.59-.57-2.59 0-1.69.566-2.57.566-2.57.564-.88 1.583-.88 1.583-.88 1.01 0 1.58.89 1.58.89.57.88.57 2.57.57 2.57 0 1.69-.57 2.6-.57 2.6-.565.91-1.573.91-1.573.91zm0 0zm0-.69c.294 0 .53-.16.53-.16.237-.16.41-.5.41-.5.174-.34.268-.87.268-.87.097-.53.097-1.26.097-1.26 0-.73-.097-1.26-.097-1.26-.094-.52-.268-.85-.268-.85-.178-.33-.41-.49-.41-.49-.24-.15-.53-.15-.53-.15-.3 0-.54.16-.54.16-.24.16-.416.49-.416.49-.174.33-.268.86-.268.86-.096.53-.096 1.26-.096 1.26 0 1.47.36 2.14.36 2.14.365.67.95.67.95.67zm145.5.57zm.947-6.89h1.722c1.59 0 2.42.89 2.42.89.83.88.83 2.53.83 2.53 0 .82-.21 1.47-.21 1.47-.21.65-.62 1.1-.62 1.1-.41.45-1.01.69-1.01.69-.6.24-1.38.24-1.38.24h-1.77v-6.89zm0 0zm1.66 6.18c1.21 0 1.81-.72 1.81-.72.6-.72.6-2.03.6-2.03 0-1.31-.602-2-.602-2-.606-.69-1.814-.69-1.814-.69h-.78v5.47h.79zm3.854.72zm.61-1.32c0-.84.75-1.28.75-1.28.76-.44 2.39-.62 2.39-.62 0-.24-.04-.47-.04-.47-.05-.23-.17-.41-.17-.41-.12-.17-.32-.29-.32-.29-.2-.11-.51-.11-.51-.11-.45 0-.83.17-.83.17-.38.17-.69.38-.69.38l-.34-.6c.36-.23.88-.45.88-.45.52-.21 1.14-.21 1.14-.21.94 0 1.36.57 1.36.57.42.58.42 1.53.42 1.53v3.1h-.71l-.07-.61h-.02c-.37.31-.79.52-.79.52-.42.22-.9.22-.9.22-.65 0-1.07-.38-1.07-.38-.42-.37-.42-1.07-.42-1.07zm0 0zm.85-.06c0 .44.26.63.26.63.26.19.64.19.64.19.37 0 .7-.17.7-.17.33-.17.7-.51.7-.51v-1.41c-.64.09-1.08.2-1.08.2-.44.12-.71.28-.71.28-.26.16-.38.37-.38.37-.11.21-.11.45-.11.45zm3.92 1.39zm.86-5.1h.72l.08.93h.03c.27-.48.64-.77.64-.77.38-.28.82-.28.82-.28.31 0 .55.11.55.11l-.17.76c-.12-.04-.23-.06-.23-.06-.1-.02-.26-.02-.26-.02-.32 0-.68.27-.68.27-.35.26-.61.91-.61.91V758h-.86v-5.105zm2.68 5.11zm.49-2.54c0-.64.2-1.14.2-1.14.2-.5.54-.84.54-.84.34-.35.78-.52.78-.52.45-.18.94-.18.94-.18.51 0 .87.18.87.18.36.19.63.43.63.43l-.43.55c-.23-.2-.48-.32-.48-.32-.24-.13-.55-.13-.55-.13-.35 0-.64.14-.64.14-.29.14-.5.4-.5.4-.21.26-.33.62-.33.62-.12.37-.12.81-.12.81 0 .44.12.8.12.8.12.36.32.62.32.62.21.26.5.4.5.4.3.14.64.14.64.14.37 0 .67-.15.67-.15.3-.15.53-.36.53-.36l.39.57c-.35.31-.77.49-.77.49-.43.18-.89.18-.89.18-.51 0-.95-.18-.95-.18-.44-.18-.76-.52-.76-.52-.32-.34-.5-.84-.5-.84-.18-.5-.18-1.13-.18-1.13zm4.3 2.54zm.73-1.15c.34.28.69.44.69.44.35.17.82.17.82.17.5 0 .76-.23.76-.23.25-.23.25-.56.25-.56 0-.2-.1-.34-.1-.34-.11-.15-.27-.26-.27-.26-.16-.11-.38-.19-.38-.19l-.42-.17c-.27-.09-.54-.21-.54-.21-.27-.12-.48-.3-.48-.3-.22-.17-.35-.4-.35-.4-.13-.23-.13-.55-.13-.55 0-.31.12-.57.12-.57.12-.27.35-.46.35-.46.23-.19.55-.3.55-.3.33-.11.74-.11.74-.11.48 0 .88.17.88.17.41.17.7.41.7.41l-.41.55c-.26-.2-.54-.33-.54-.33-.28-.12-.62-.12-.62-.12-.48 0-.71.23-.71.23-.22.22-.22.51-.22.51 0 .18.09.31.09.31.09.13.25.23.25.23.16.1.36.18.36.18l.43.16c.27.1.55.22.55.22.28.12.5.29.5.29.22.17.36.43.36.43.14.25.14.61.14.61 0 .31-.12.58-.12.58-.12.28-.36.49-.36.49-.24.21-.59.33-.59.33-.35.12-.8.12-.8.12-.55 0-1.04-.2-1.04-.2-.49-.2-.86-.51-.86-.51zm3.68 1.15zm.68-4.31c0-.3.19-.49.19-.49.18-.18.45-.18.45-.18.25 0 .44.19.44.19.18.18.18.49.18.49 0 .28-.18.47-.18.47-.18.19-.43.19-.43.19-.26 0-.44-.18-.44-.18-.18-.18-.18-.46-.18-.46zm0 0zm0 3.79c0-.3.19-.49.19-.49.18-.18.45-.18.45-.18.25 0 .44.18.44.18.18.19.18.49.18.49 0 .29-.18.47-.18.47-.18.19-.43.19-.43.19-.26 0-.44-.18-.44-.18-.18-.18-.18-.47-.18-.47zm4.06.53zm.72-1.38c.31.32.71.56.71.56.41.25 1 .25 1 .25.61 0 1-.33 1-.33.39-.33.39-.9.39-.9 0-.29-.11-.54-.11-.54-.11-.25-.36-.43-.36-.43-.25-.18-.66-.27-.66-.27-.41-.1-1.01-.1-1.01-.1v-.67c.54 0 .9-.09.9-.09.36-.09.59-.26.59-.26.23-.17.32-.4.32-.4.1-.23.1-.49.1-.49 0-.5-.31-.78-.31-.78-.31-.29-.85-.29-.85-.29-.42 0-.78.19-.78.19-.35.19-.65.49-.65.49l-.46-.54c.39-.37.86-.6.86-.6.47-.24 1.07-.24 1.07-.24.44 0 .81.11.81.11.37.12.64.33.64.33.27.22.42.53.42.53.15.32.15.73.15.73 0 .61-.34 1-.34 1-.33.39-.88.6-.88.6v.04c.31.07.57.22.57.22.26.15.46.36.46.36.2.22.31.5.31.5.11.28.11.63.11.63 0 .44-.17.8-.17.8-.17.36-.47.61-.47.61-.3.25-.7.38-.7.38-.4.13-.86.13-.86.13-.4 0-.73-.08-.73-.08-.33-.08-.6-.21-.6-.21-.27-.13-.49-.3-.49-.3-.21-.17-.38-.36-.38-.36zm4.5 1.38zm2.62.13c-1.02 0-1.58-.9-1.58-.9-.57-.9-.57-2.59-.57-2.59 0-1.69.57-2.57.57-2.57.57-.88 1.59-.88 1.59-.88 1.01 0 1.58.89 1.58.89.57.88.57 2.57.57 2.57 0 1.69-.56 2.6-.56 2.6-.57.91-1.58.91-1.58.91zm0 0zm0-.69c.3 0 .53-.16.53-.16.24-.16.41-.5.41-.5.18-.34.27-.87.27-.87.09-.53.09-1.26.09-1.26 0-.73-.09-1.26-.09-1.26-.09-.52-.27-.85-.27-.85-.17-.33-.41-.49-.41-.49-.23-.16-.53-.16-.53-.16-.29 0-.53.16-.53.16-.24.16-.41.49-.41.49-.17.33-.27.86-.27.86-.09.52-.09 1.26-.09 1.26 0 1.47.37 2.14.37 2.14.37.67.95.67.95.67zm143.9.57zm.97-1.5c.37.39.87.63.87.63.5.23 1.04.23 1.04.23.68 0 1.06-.31 1.06-.31.38-.31.38-.82.38-.82 0-.26-.09-.44-.09-.44-.09-.18-.24-.31-.24-.31-.15-.13-.36-.23-.36-.23l-.45-.22-.99-.43c-.24-.1-.49-.25-.49-.25-.26-.14-.46-.35-.46-.35-.2-.21-.32-.5-.32-.5-.12-.28-.12-.66-.12-.66 0-.39.17-.73.17-.73.16-.33.45-.58.45-.58.29-.24.68-.38.68-.38.4-.14.87-.14.87-.14.62 0 1.15.24 1.15.24.53.24.9.62.9.62l-.47.56c-.31-.3-.7-.48-.7-.48-.38-.17-.86-.17-.86-.17-.58 0-.93.27-.93.27-.35.27-.35.74-.35.74 0 .25.1.43.1.43.1.18.27.31.27.31.17.13.37.23.37.23.2.1.41.18.41.18l.98.42c.29.13.55.29.55.29.26.16.45.38.45.38.19.21.3.5.3.5.11.29.11.67.11.67 0 .41-.16.77-.16.77-.17.36-.47.63-.47.63-.31.27-.74.42-.74.42-.43.16-.97.16-.97.16-.73 0-1.35-.27-1.35-.27-.62-.27-1.07-.74-1.07-.74zm4.64 1.5zm.79-5.1h.87v3.12c0 .73.23 1.05.23 1.05.23.32.73.32.73.32.4 0 .71-.2.71-.2.3-.2.67-.66.67-.66v-3.63h.86v5.1h-.72l-.07-.79h-.03c-.36.42-.75.67-.75.67-.4.26-.93.26-.93.26-.82 0-1.2-.5-1.2-.5-.37-.5-.37-1.49-.37-1.49v-3.24zm4.92 5.1zm.87-7.48h.86v2.04l-.02.93c.35-.3.76-.51.76-.51.41-.2.84-.2.84-.2.49 0 .87.18.87.18.38.18.63.52.63.52.25.34.39.82.39.82.13.48.13 1.06.13 1.06 0 .66-.18 1.17-.18 1.17-.18.52-.48.87-.48.87-.31.36-.71.55-.71.55-.4.18-.84.18-.84.18-.36 0-.74-.16-.74-.16-.38-.16-.72-.47-.72-.47h-.03l-.07.51h-.69v-7.48zm0 0zm.86 6.35c.34.3.67.42.67.42.34.12.59.12.59.12.32 0 .59-.14.59-.14.27-.14.46-.4.46-.4.2-.25.31-.63.31-.63.11-.38.11-.85.11-.85 0-.42-.07-.77-.07-.77-.07-.34-.23-.59-.23-.59-.16-.25-.42-.38-.42-.38-.25-.14-.61-.14-.61-.14-.62 0-1.36.7-1.36.7v2.68zm4.07 1.13zm.13-5.1h.89l.97 2.9.24.76c.13.38.24.75.24.75h.04c.12-.37.23-.75.23-.75l.23-.76.97-2.9h.85l-1.8 5.11h-1.01zm4.74 5.11zm.48-2.54c0-.63.2-1.13.2-1.13.19-.5.51-.84.51-.84.32-.35.73-.53.73-.53.41-.18.85-.18.85-.18.49 0 .87.16.87.16.39.17.64.48.64.48.26.31.4.76.4.76.14.44.14.99.14.99 0 .29-.03.48-.03.48h-3.45c.05.83.51 1.32.51 1.32.45.48 1.19.48 1.19.48.37 0 .68-.11.68-.11.31-.11.59-.29.59-.29l.3.57c-.34.21-.75.37-.75.37-.41.16-.94.16-.94.16-.52 0-.96-.18-.96-.18-.45-.18-.78-.52-.78-.52-.33-.34-.52-.84-.52-.84-.19-.49-.19-1.12-.19-1.12zm0 0zm3.57-.39c0-.79-.33-1.2-.33-1.2-.33-.42-.93-.42-.93-.42-.27 0-.52.11-.52.11-.24.11-.44.32-.44.32-.2.21-.33.51-.33.51-.13.3-.17.69-.17.69h2.73zm1.16 2.93zm.86-5.11h.71l.08.93h.03c.27-.49.64-.77.64-.77.37-.29.81-.29.81-.29.3 0 .54.1.54.1l-.17.76c-.13-.04-.23-.06-.23-.06-.11-.02-.26-.02-.26-.02-.32 0-.68.26-.68.26-.35.26-.61.92-.61.92V758h-.86v-5.105zm2.68 5.11zm.72-1.15c.34.27.69.44.69.44.35.17.81.17.81.17.51 0 .76-.23.76-.23.25-.23.25-.57.25-.57 0-.2-.1-.35-.1-.35-.11-.15-.27-.26-.27-.26-.17-.11-.38-.2-.38-.2l-.42-.17c-.27-.1-.54-.22-.54-.22-.27-.12-.49-.29-.49-.29-.21-.18-.35-.41-.35-.41-.14-.23-.14-.55-.14-.55 0-.31.12-.57.12-.57.12-.27.34-.46.34-.46.22-.2.55-.31.55-.31.32-.11.73-.11.73-.11.48 0 .89.17.89.17.4.17.7.41.7.41l-.41.55c-.26-.2-.55-.33-.55-.33-.28-.13-.62-.13-.62-.13-.48 0-.71.23-.71.23-.22.22-.22.52-.22.52 0 .18.09.31.09.31.1.13.25.23.25.23.16.1.37.18.37.18l.43.16c.28.1.55.22.55.22.28.12.5.29.5.29.22.17.36.43.36.43.15.25.15.61.15.61 0 .31-.12.58-.12.58-.12.28-.35.49-.35.49-.24.21-.59.33-.59.33-.35.12-.8.12-.8.12-.55 0-1.04-.2-1.04-.2-.5-.2-.86-.51-.86-.51zm3.68 1.15zm1.3-6.16c-.25 0-.42-.16-.42-.16-.17-.16-.17-.4-.17-.4 0-.25.18-.4.18-.4.18-.15.43-.15.43-.15.26 0 .43.16.43.16.17.16.17.41.17.41 0 .24-.17.4-.17.4-.17.16-.43.16-.43.16zm0 0zm-.44 1.05h.86v5.1h-.86v-5.11zm1.72 5.11zm.48-2.54c0-.64.2-1.14.2-1.14.2-.5.52-.84.52-.84.33-.34.75-.52.75-.52.43-.18.9-.18.9-.18.47 0 .9.18.9.18.43.18.75.53.75.53.33.35.52.85.52.85.2.5.2 1.14.2 1.14 0 .63-.19 1.13-.19 1.13-.19.5-.52.84-.52.84-.33.34-.75.52-.75.52-.43.18-.9.18-.9.18-.47 0-.9-.18-.9-.18-.42-.18-.75-.52-.75-.52-.32-.34-.52-.84-.52-.84-.19-.5-.19-1.13-.19-1.13zm0 0zm.9 0c0 .44.11.8.11.8.11.36.3.61.3.61.2.26.47.4.47.4.28.15.6.15.6.15.33 0 .6-.14.6-.14.28-.14.47-.4.47-.4.2-.25.3-.61.3-.61.11-.36.11-.8.11-.8 0-.44-.1-.8-.1-.8-.1-.36-.3-.62-.3-.62-.19-.26-.47-.4-.47-.4-.27-.14-.6-.14-.6-.14-.32 0-.59.14-.59.14-.27.14-.47.41-.47.41-.19.26-.3.62-.3.62-.1.36-.1.8-.1.8zm4.31 2.54zm.87-5.1h.72l.08.74h.03c.37-.37.77-.61.77-.61.41-.24.94-.24.94-.24.81 0 1.19.5 1.19.5.37.5.37 1.49.37 1.49v3.2h-.87v-3.12c0-.72-.23-1.04-.23-1.04-.23-.32-.73-.32-.73-.32-.4 0-.7.2-.7.2-.31.2-.7.59-.7.59V758h-.86v-5.105zM728 758zm.682-4.317c0-.305.185-.49.185-.49.183-.182.446-.182.446-.182.253 0 .437.19.437.19.184.19.184.49.184.49 0 .28-.183.47-.183.47-.18.19-.43.19-.43.19-.26 0-.44-.18-.44-.18-.18-.18-.18-.46-.18-.46zm0 0zm0 3.792c0-.305.185-.49.185-.49.183-.182.446-.182.446-.182.253 0 .437.183.437.183.184.184.184.49.184.49 0 .282-.183.466-.183.466-.18.184-.43.184-.43.184-.26 0-.44-.184-.44-.184-.18-.184-.18-.467-.18-.467zm4.055.525zm2.47-3.256c.324 0 .697-.205.697-.205.38-.21.71-.69.71-.69-.08-.99-.46-1.49-.46-1.49-.38-.51-1.02-.51-1.02-.51-.24 0-.453.1-.453.1-.21.1-.37.3-.37.3-.15.19-.24.46-.24.46-.09.27-.09.6-.09.6 0 .66.31 1.04.31 1.04.31.37.94.37.94.37zm0 0zm-1.45 2.132c.21.242.498.39.498.39.29.146.604.146.604.146.35 0 .67-.147.67-.147.31-.147.55-.49.55-.49.24-.34.39-.886.39-.886.14-.55.15-1.36.15-1.36-.32.4-.74.63-.74.63-.42.23-.84.23-.84.23-.87 0-1.39-.52-1.39-.52-.52-.52-.52-1.56-.52-1.56 0-.49.15-.88.15-.88.16-.4.42-.68.42-.68.27-.28.63-.44.63-.44.36-.16.76-.16.76-.16.49 0 .92.2.92.2.43.2.74.6.74.6.31.4.48 1.01.48 1.01.17.6.17 1.41.17 1.41 0 1.01-.21 1.72-.21 1.72-.21.71-.57 1.15-.57 1.15-.36.44-.82.65-.82.65-.46.2-.96.2-.96.2-.54 0-.94-.2-.94-.2-.41-.2-.68-.51-.68-.51zM879.227 758zm3.488.126c-.65 0-1.192-.252-1.192-.252-.54-.252-.93-.72-.93-.72-.388-.467-.604-1.134-.604-1.134-.22-.667-.22-1.497-.22-1.497 0-.83.21-1.486.21-1.486.21-.657.6-1.114.6-1.114.39-.456.93-.698.93-.698.54-.242 1.19-.242 1.19-.242.65 0 1.19.247 1.19.247.54.247.93.704.93.704.39.457.61 1.113.61 1.113.21.657.21 1.476.21 1.476 0 .83-.22 1.497-.22 1.497-.22.667-.61 1.135-.61 1.135-.4.467-.94.72-.94.72-.54.25-1.19.25-1.19.25zm0 0zm0-.767c.462 0 .835-.2.835-.2.373-.2.64-.58.64-.58.27-.38.416-.9.416-.9.147-.52.147-1.17.147-1.17 0-.64-.147-1.16-.147-1.16-.147-.52-.415-.87-.415-.87-.26-.36-.64-.56-.64-.56-.37-.19-.83-.19-.83-.19-.46 0-.83.19-.83.19-.37.19-.64.55-.64.55-.27.35-.41.87-.41.87-.14.51-.14 1.15-.14 1.15 0 .65.15 1.17.15 1.17.15.52.42.89.42.89.27.37.64.57.64.57.38.2.84.2.84.2zm3.487.64zm1.01-4.4h-.758v-.66l.8-.05.104-1.43h.725v1.43h1.376v.7h-1.38v2.83c0 .47.17.73.17.73.17.25.61.25.61.25.13 0 .29-.05.29-.05.15-.04.28-.1.28-.1l.17.65c-.21.07-.46.13-.46.13-.25.06-.49.06-.49.06-.41 0-.69-.13-.69-.13-.28-.13-.45-.35-.45-.35-.18-.22-.25-.54-.25-.54-.08-.32-.08-.7-.08-.7v-2.82zm2.54 4.4zm.862-7.48h.86v2.04l-.03 1.05c.368-.35.767-.6.767-.6.4-.25.94-.25.94-.25.81 0 1.18.5 1.18.5.38.5.38 1.49.38 1.49V758h-.86v-3.12c0-.725-.23-1.045-.23-1.045-.23-.32-.73-.32-.73-.32-.4 0-.7.2-.7.2-.3.2-.69.587-.69.587V758h-.86v-7.48zm4.853 7.48zm.483-2.55c0-.63.195-1.13.195-1.13.194-.5.514-.85.514-.85.32-.35.73-.53.73-.53.41-.19.85-.19.85-.19.48 0 .86.16.86.16.38.17.64.48.64.48.26.31.39.76.39.76.13.44.13.99.13.99 0 .28-.03.47-.03.47h-3.44c.05.83.51 1.31.51 1.31.45.48 1.19.48 1.19.48.37 0 .68-.11.68-.11.31-.11.59-.29.59-.29l.3.57c-.34.21-.75.37-.75.37-.41.15-.94.15-.94.15-.52 0-.96-.19-.96-.19-.45-.18-.78-.52-.78-.52-.33-.34-.52-.84-.52-.84-.19-.49-.19-1.12-.19-1.12zm0 0zm3.572-.39c0-.79-.33-1.2-.33-1.2-.332-.42-.93-.42-.93-.42-.274 0-.52.11-.52.11-.248.11-.447.31-.447.31-.2.2-.33.5-.33.5-.132.3-.174.69-.174.69h2.74zm1.155 2.93zm.862-5.11h.71l.07.92h.03c.26-.49.63-.77.63-.77.37-.29.81-.29.81-.29.3 0 .54.1.54.1l-.17.76c-.13-.04-.24-.07-.24-.07-.11-.02-.26-.02-.26-.02-.33 0-.68.26-.68.26-.35.26-.62.91-.62.91v3.3h-.86v-5.11zm2.78 5.1zm.68-4.32c0-.31.18-.49.18-.49.18-.18.44-.18.44-.18.25 0 .43.18.43.18.18.18.18.49.18.49 0 .28-.19.46-.19.46-.19.18-.44.18-.44.18-.26 0-.45-.19-.45-.19-.19-.18-.19-.46-.19-.46zm0 0zm0 3.79c0-.31.18-.49.18-.49.18-.19.44-.19.44-.19.25 0 .43.18.43.18.18.18.18.49.18.49 0 .28-.19.46-.19.46-.19.19-.44.19-.44.19-.26 0-.45-.19-.45-.19-.19-.18-.19-.47-.19-.47zm4.05.52zm.83-.72h1.53v-4.94h-1.21v-.56c.46-.09.8-.21.8-.21.34-.12.61-.29.61-.29h.66v5.99h1.39v.72h-3.78v-.72zm4.39.71zm1.21-1.8c0 .28.11.51.11.51.11.23.3.4.3.4.19.17.45.26.45.26.26.09.56.09.56.09.59 0 .95-.32.95-.32.36-.33.36-.85.36-.85 0-.33-.15-.56-.15-.56-.15-.23-.4-.41-.4-.41-.25-.17-.58-.31-.58-.31l-.69-.29c-.4.27-.67.63-.67.63-.27.36-.27.83-.27.83zm0 0zm1.89-1.86c.33-.3.52-.64.52-.64.18-.34.18-.7.18-.7 0-.5-.31-.85-.31-.85-.31-.34-.86-.34-.86-.34-.48 0-.78.29-.78.29-.3.3-.3.79-.3.79 0 .3.12.52.12.52.12.22.34.38.34.38.21.17.49.3.49.3.27.13.58.25.58.25zm0 0zm-2.67 1.94c0-.33.11-.61.11-.61.11-.28.28-.51.28-.51.17-.23.4-.4.4-.4.22-.18.46-.3.46-.3v-.04c-.37-.27-.65-.64-.65-.64-.29-.37-.29-.91-.29-.91 0-.39.14-.7.14-.7.15-.31.4-.54.4-.54.25-.23.6-.35.6-.35.35-.13.76-.13.76-.13.44 0 .78.13.78.13.34.14.59.37.59.37.24.24.37.57.37.57.13.33.13.72.13.72 0 .26-.09.5-.09.5-.09.24-.22.45-.22.45-.14.21-.3.38-.3.38-.16.17-.32.28-.32.28v.04c.22.13.43.29.43.29.21.16.37.37.37.37.16.2.26.47.26.47.1.26.1.6.1.6 0 .38-.16.7-.16.7-.15.32-.44.56-.44.56-.28.24-.68.38-.68.38-.4.14-.89.14-.89.14-.47 0-.88-.14-.88-.14-.41-.14-.7-.39-.7-.39-.29-.25-.46-.59-.46-.59-.17-.34-.17-.74-.17-.74z"/></svg>