<svg xmlns="http://www.w3.org/2000/svg" stroke="#000" viewBox="0 0 1024 768" font-size="1"><path fill="#FFF" stroke="none" d="M0 0v768h1024V0z"/><path stroke="none" d="M460.486 14.102zm1.185-10.04h2.84c1.16 0 2.08.29 2.08.29.93.294 1.59.902 1.59.902.67.608 1.02 1.548 1.02 1.548.36.94.36 2.233.36 2.233 0 1.293-.35 2.248-.35 2.248-.35.955-1 1.58-1 1.58-.64.623-1.55.93-1.55.93-.9.31-2.01.31-2.01.31h-2.95V4.06zm0 0zm2.7 8.207c.65 0 1.17-.17 1.17-.17.53-.17.9-.55.9-.55.37-.38.58-1 .58-1 .21-.62.21-1.53.21-1.53 0-.9-.2-1.5-.2-1.5-.21-.61-.58-.97-.58-.97-.37-.37-.89-.52-.89-.52-.52-.16-1.17-.16-1.17-.16h-.43v6.37h.43zm5.9 1.83zm.73-2.13c0-1.2 1.02-1.88 1.02-1.88 1.02-.68 3.28-.91 3.28-.91-.03-.51-.31-.81-.31-.81-.27-.3-.89-.3-.89-.3-.49 0-.98.18-.98.18-.49.18-1.05.51-1.05.51l-.8-1.5c.74-.45 1.55-.73 1.55-.73.81-.28 1.72-.28 1.72-.28 1.48 0 2.26.84 2.26.84.78.84.78 2.61.78 2.61v4.38h-1.85l-.17-.79h-.04c-.49.43-1.04.7-1.04.7-.54.27-1.19.27-1.19.27-.52 0-.94-.18-.94-.18-.41-.18-.7-.5-.7-.5-.29-.32-.45-.73-.45-.73-.16-.41-.16-.9-.16-.9zm0 0zm2.16-.17c0 .37.24.55.24.55.24.17.64.17.64.17.4 0 .68-.17.68-.17.28-.17.59-.48.59-.48v-1.34c-1.21.17-1.68.49-1.68.49-.46.32-.46.77-.46.77zm5.35 2.29zm1.3-5.86h-1.04V6.55l1.17-.09.27-2.034h1.88v2.03h1.83v1.77h-1.83v3.07c0 .646.27.93.27.93.27.285.72.285.72.285.19 0 .38-.04.38-.04.19-.05.34-.11.34-.11l.36 1.65c-.31.09-.72.18-.72.18-.41.09-.97.09-.97.09-.7 0-1.21-.21-1.21-.21-.5-.21-.81-.6-.81-.6-.31-.38-.46-.93-.46-.93-.14-.54-.14-1.2-.14-1.2v-3.1zm4.44 5.86zm.56-3.82c0-.92.3-1.67.3-1.67.31-.75.81-1.26.81-1.26.5-.52 1.15-.8 1.15-.8.65-.28 1.34-.28 1.34-.28.82 0 1.43.28 1.43.28.61.27 1.02.77 1.02.77.41.49.61 1.16.61 1.16.2.67.2 1.45.2 1.45 0 .31-.03.56-.03.56-.03.25-.06.39-.06.39H487c.157.88.69 1.27.69 1.27.53.39 1.3.39 1.3.39.816 0 1.65-.51 1.65-.51l.75 1.37c-.582.4-1.3.63-1.3.63-.714.23-1.41.23-1.41.23-.813 0-1.522-.27-1.522-.27-.71-.27-1.23-.79-1.23-.79-.524-.52-.82-1.25-.82-1.25-.29-.74-.29-1.7-.29-1.7zm0 0zm4.92-.79c0-.66-.29-1.08-.29-1.08-.29-.42-.98-.42-.98-.42-.54 0-.95.36-.95.36-.41.36-.53 1.13-.53 1.13h2.76zm5.7 4.6zm1.34-2.3c.52.4 1 .6 1 .6.48.2.97.2.97.2.51 0 .74-.17.74-.17.23-.17.23-.48.23-.48 0-.19-.13-.33-.13-.33-.13-.15-.35-.27-.35-.27-.22-.13-.5-.23-.5-.23-.28-.1-.57-.23-.57-.23-.35-.14-.71-.32-.71-.32-.35-.19-.65-.46-.65-.46-.29-.27-.48-.63-.48-.63-.18-.36-.18-.84-.18-.84 0-.52.21-.97.21-.97.21-.45.6-.76.6-.76.39-.31.93-.49.93-.49.54-.18 1.2-.18 1.2-.18.88 0 1.54.3 1.54.3.67.3 1.16.67 1.16.67l-1.01 1.36c-.42-.31-.82-.48-.82-.48-.4-.17-.8-.17-.8-.17-.86 0-.86.6-.86.6 0 .18.13.31.13.31.13.13.34.24.34.24.2.1.47.2.47.2l.56.21c.37.13.74.31.74.31.36.17.66.44.66.44.3.26.49.64.49.64.19.37.19.9.19.9 0 .52-.2.97-.2.97-.2.44-.6.77-.6.77-.4.33-.99.52-.99.52-.58.19-1.35.19-1.35.19-.75 0-1.55-.29-1.55-.29-.79-.3-1.38-.77-1.38-.77zm5.48 2.29zm.93-7.64h2.26v4.46c0 .83.23 1.14.23 1.14.23.3.73.3.73.3.43 0 .73-.2.73-.2.3-.2.63-.65.63-.65V6.47H510v7.63h-1.848l-.17-1.063h-.046c-.492.584-1.055.915-1.055.915-.56.33-1.34.33-1.34.33-1.24 0-1.81-.815-1.81-.815-.56-.816-.56-2.264-.56-2.264v-4.74zm7.82 7.64zm1-10.79h2.27v2.65l-.06 1.17c.45-.4.96-.63.96-.63.52-.22 1.06-.22 1.06-.22.7 0 1.25.28 1.25.28.56.27.95.77.95.77.39.5.6 1.22.6 1.22.21.71.21 1.59.21 1.59 0 .98-.27 1.75-.27 1.75-.27.77-.72 1.3-.72 1.3-.45.53-1.03.81-1.03.81-.58.28-1.19.28-1.19.28-.51 0-1.02-.25-1.02-.25-.51-.25-.96-.74-.96-.74h-.06l-.19.8H512V3.31zm0 0zm2.27 8.64c.31.28.62.38.62.38.31.11.6.11.6.11.58 0 1-.53 1-.53.42-.53.42-1.72.42-1.72 0-2.07-1.32-2.07-1.32-2.07-.68 0-1.31.69-1.31.69v3.12zm5.56 2.15zm1-7.64h1.85l.15.99h.06c.48-.48 1.02-.83 1.02-.83.54-.35 1.29-.35 1.29-.35.82 0 1.32.33 1.32.33.5.33.79.95.79.95.51-.52 1.07-.9 1.07-.9.56-.38 1.33-.38 1.33-.38 1.23 0 1.81.82 1.81.82.58.82.58 2.25.58 2.25v4.74h-2.26v-4.4c0-.84-.22-1.14-.22-1.14-.23-.31-.72-.31-.72-.31-.57 0-1.31.74-1.31.74v5.16h-2.26V9.65c0-.833-.22-1.14-.22-1.14-.22-.31-.71-.31-.71-.31-.58 0-1.29.74-1.29.74v5.16h-2.26V6.46zm12.2 7.64zm2.13-8.76c-.57 0-.94-.33-.94-.33-.37-.33-.37-.86-.37-.86 0-.53.37-.85.37-.85.37-.33.94-.33.94-.33.59 0 .95.32.95.32.36.32.36.84.36.84 0 .52-.36.85-.36.85-.36.33-.94.33-.94.33zm0 0zM534 6.47h2.264v7.64H534V6.46zm3.25 7.64zm1.31-5.87h-1.05V6.56l1.172-.09.26-2.034h1.88V6.47h1.832v1.77h-1.833v3.06c0 .646.27.93.27.93.27.285.72.285.72.285.19 0 .38-.046.38-.046.2-.05.35-.11.35-.11l.36 1.65c-.31.09-.72.18-.72.18-.41.09-.97.09-.97.09-.71 0-1.21-.22-1.21-.22-.5-.22-.81-.6-.81-.6-.32-.39-.46-.94-.46-.94-.15-.55-.15-1.21-.15-1.21V8.23zm4.588 5.87zm1.31-5.87h-1.048V6.56l1.17-.09.262-2.034h1.878V6.47h1.833v1.77h-1.833v3.06c0 .646.27.93.27.93.27.285.716.285.716.285.185 0 .378-.046.378-.046.193-.05.347-.11.347-.11l.36 1.65c-.31.09-.72.18-.72.18-.41.09-.97.09-.97.09-.71 0-1.21-.22-1.21-.22-.5-.22-.81-.6-.81-.6-.31-.39-.46-.94-.46-.94-.14-.55-.14-1.21-.14-1.21V8.23zm4.434 5.87zm.554-3.82c0-.924.31-1.67.31-1.67.307-.746.807-1.26.807-1.26.5-.518 1.148-.796 1.148-.796.65-.28 1.34-.28 1.34-.28.82 0 1.43.28 1.43.28.61.278 1.02.77 1.02.77.41.49.61 1.16.61 1.16.2.67.2 1.458.2 1.458 0 .308-.03.563-.03.563-.03.25-.06.39-.06.39h-4.57c.16.88.69 1.27.69 1.27.53.39 1.3.39 1.3.39.82 0 1.65-.51 1.65-.51l.75 1.37c-.58.4-1.3.633-1.3.633-.71.23-1.41.23-1.41.23-.81 0-1.52-.27-1.52-.27-.71-.27-1.23-.786-1.23-.786-.52-.513-.82-1.25-.82-1.25-.29-.74-.29-1.696-.29-1.696zm0 0zm4.93-.785c0-.66-.294-1.08-.294-1.08-.29-.42-.986-.42-.986-.42-.54 0-.946.37-.946.37-.41.36-.532 1.13-.532 1.13h2.757zm2.494 4.61zm.6-3.82c0-.94.27-1.68.27-1.68.27-.74.708-1.252.708-1.252.44-.515 1.018-.793 1.018-.793.577-.277 1.178-.277 1.178-.277.647 0 1.062.214 1.062.214.416.217.817.586.817.586l-.094-1.17v-2.6h2.26V14.1h-1.85l-.16-.754h-.06c-.4.4-.94.67-.94.67-.54.27-1.09.27-1.09.27-.71 0-1.29-.278-1.29-.278-.58-.278-.99-.794-.99-.794-.41-.516-.63-1.255-.63-1.255-.23-.74-.23-1.68-.23-1.68zm0 0zm2.326-.03c0 1.14.362 1.665.362 1.665.362.523 1.024.523 1.024.523.368 0 .67-.15.67-.15.3-.154.576-.54.576-.54V8.62c-.308-.278-.63-.386-.63-.386-.325-.108-.633-.108-.633-.108-.54 0-.957.516-.957.516-.417.516-.417 1.61-.417 1.61z"/><path fill="none" stroke="#D3D3D3" stroke-miterlimit="10" d="M43.908 738h936.17M43.908 562.25h936.17M43.908 386.5h936.17M43.908 210.75h936.17M43.908 35h936.17" stroke-dasharray="5 5"/><g fill="#5C3566" stroke-opacity="0" stroke-width="0" stroke-miterlimit="10" stroke-linejoin="bevel"><defs><clipPath id="a"><path d="M43.908 35v703h936.17V35z"/></clipPath></defs><g clip-path="url(#a)"><path stroke="none" d="M58.908 738V179.994h103.738V738z"/></g></g><g fill-opacity="0" stroke-miterlimit="10"><defs><clipPath id="b"><path d="M43.908 35v703h936.17V35z"/></clipPath></defs><g clip-path="url(#b)"><path fill="none" d="M58.908 738V179.994h103.738V738z"/></g></g><g fill="#5C3566" stroke-opacity="0" stroke-width="0" stroke-miterlimit="10" stroke-linejoin="bevel"><defs><clipPath id="c"><path d="M43.908 35v703h936.17V35z"/></clipPath></defs><g clip-path="url(#c)"><path stroke="none" d="M192.646 738V439.225h103.738V738z"/></g></g><g fill-opacity="0" stroke-miterlimit="10"><defs><clipPath id="d"><path d="M43.908 35v703h936.17V35z"/></clipPath></defs><g clip-path="url(#d)"><path fill="none" d="M192.646 738V439.225h103.738V738z"/></g></g><g fill="#5C3566" stroke-opacity="0" stroke-width="0" stroke-miterlimit="10" stroke-linejoin="bevel"><defs><clipPath id="e"><path d="M43.908 35v703h936.17V35z"/></clipPath></defs><g clip-path="url(#e)"><path stroke="none" d="M326.385 738V599.157h103.738V738z"/></g></g><g fill-opacity="0" stroke-miterlimit="10"><defs><clipPath id="f"><path d="M43.908 35v703h936.17V35z"/></clipPath></defs><g clip-path="url(#f)"><path fill="none" d="M326.385 738V599.157h103.738V738z"/></g></g><g fill="#5C3566" stroke-opacity="0" stroke-width="0" stroke-miterlimit="10" stroke-linejoin="bevel"><defs><clipPath id="g"><path d="M43.908 35v703h936.17V35z"/></clipPath></defs><g clip-path="url(#g)"><path stroke="none" d="M460.123 738v-29H563.86v29z"/></g></g><g fill-opacity="0" stroke-miterlimit="10"><defs><clipPath id="h"><path d="M43.908 35v703h936.17V35z"/></clipPath></defs><g clip-path="url(#h)"><path fill="none" d="M460.123 738v-29H563.86v29z"/></g></g><g fill="#5C3566" stroke-opacity="0" stroke-width="0" stroke-miterlimit="10" stroke-linejoin="bevel"><defs><clipPath id="i"><path d="M43.908 35v703h936.17V35z"/></clipPath></defs><g clip-path="url(#i)"><path stroke="none" d="M593.86 738v-17.575H697.6V738z"/></g></g><g fill-opacity="0" stroke-miterlimit="10"><defs><clipPath id="j"><path d="M43.908 35v703h936.17V35z"/></clipPath></defs><g clip-path="url(#j)"><path fill="none" d="M593.86 738v-17.575H697.6V738z"/></g></g><g fill="#5C3566" stroke-opacity="0" stroke-width="0" stroke-miterlimit="10" stroke-linejoin="bevel"><defs><clipPath id="k"><path d="M43.908 35v703h936.17V35z"/></clipPath></defs><g clip-path="url(#k)"><path stroke="none" d="M727.6 738v-14.94h103.738V738z"/></g></g><g fill-opacity="0" stroke-miterlimit="10"><defs><clipPath id="l"><path d="M43.908 35v703h936.17V35z"/></clipPath></defs><g clip-path="url(#l)"><path fill="none" d="M727.6 738v-14.94h103.738V738z"/></g></g><g fill="#5C3566" stroke-opacity="0" stroke-width="0" stroke-miterlimit="10" stroke-linejoin="bevel"><defs><clipPath id="m"><path d="M43.908 35v703h936.17V35z"/></clipPath></defs><g clip-path="url(#m)"><path stroke="none" d="M861.338 738V622.005h103.74V738z"/></g></g><g fill-opacity="0" stroke-miterlimit="10"><defs><clipPath id="n"><path d="M43.908 35v703h936.17V35z"/></clipPath></defs><g clip-path="url(#n)"><path fill="none" d="M861.338 738V622.005h103.74V738z"/></g></g><path fill="none" stroke-miterlimit="10" d="M43.908 738V35" stroke-linecap="square"/><path fill="none" stroke-miterlimit="10" d="M43.908 738h2m-2-87.875h2m-2-87.875h2m-2-87.875h2m-2-87.875h2m-2-87.875h2m-2-87.875h2m-2-87.875h2m-2-87.875h2m-2 703h5m-5-175.75h5m-5-175.75h5m-5-175.75h5m-5-175.75h5"/><path stroke="none" d="M29.61 741.445zm2.617.126c-1.02 0-1.586-.9-1.586-.9-.56-.9-.56-2.59-.56-2.59 0-1.69.57-2.57.57-2.57.57-.88 1.59-.88 1.59-.88 1.01 0 1.58.88 1.58.88.57.89.57 2.58.57 2.58 0 1.69-.56 2.6-.56 2.6-.57.91-1.58.91-1.58.91zm0 0zm0-.69c.294 0 .53-.16.53-.16.237-.16.41-.5.41-.5.173-.34.268-.87.268-.87.095-.53.095-1.26.095-1.26 0-.73-.095-1.26-.095-1.26-.095-.52-.268-.85-.268-.85-.173-.33-.41-.49-.41-.49-.236-.16-.53-.16-.53-.16-.294 0-.536.16-.536.16-.24.16-.41.49-.41.49-.17.33-.27.86-.27.86-.09.53-.09 1.26-.09 1.26 0 1.47.36 2.14.36 2.14.37.67.95.67.95.67zM19.087 565.7zm.42-.514c.756-.755 1.344-1.364 1.344-1.364.59-.61.99-1.13.99-1.13.4-.52.61-.956.61-.956.21-.435.21-.845.21-.845 0-.58-.31-.94-.31-.94-.31-.37-.95-.37-.95-.37-.42 0-.78.24-.78.24-.35.24-.65.58-.65.58l-.49-.49c.42-.46.9-.74.9-.74.48-.28 1.14-.28 1.14-.28.94 0 1.47.55 1.47.55.54.54.54 1.43.54 1.43 0 .47-.2.95-.2.95-.2.48-.56.99-.56.99-.36.51-.86 1.06-.86 1.06-.5.55-1.1 1.17-1.1 1.17l.57-.04c.29-.02.56-.02.56-.02h1.95v.75h-4.33v-.51zm4.8.516zm2.615.125c-1.02 0-1.586-.902-1.586-.902-.567-.903-.567-2.595-.567-2.595 0-1.69.56-2.573.56-2.573.56-.882 1.58-.882 1.58-.882 1.01 0 1.57.882 1.57.882.56.882.56 2.574.56 2.574 0 1.69-.57 2.6-.57 2.6-.57.91-1.58.91-1.58.91zm0 0zm0-.692c.294 0 .53-.163.53-.163.237-.163.41-.505.41-.505.174-.34.268-.87.268-.87.095-.53.095-1.266.095-1.266 0-.74-.095-1.26-.095-1.26-.094-.53-.267-.86-.267-.86-.174-.33-.41-.48-.41-.48-.236-.16-.53-.16-.53-.16-.295 0-.536.16-.536.16-.242.16-.415.49-.415.49-.174.33-.268.86-.268.86-.095.53-.095 1.26-.095 1.26 0 1.47.36 2.14.36 2.14.36.67.95.67.95.67zm2.605.567zm2.616.125c-1.02 0-1.586-.902-1.586-.902-.567-.902-.567-2.594-.567-2.594 0-1.69.567-2.57.567-2.57.567-.88 1.586-.88 1.586-.88 1.008 0 1.575.89 1.575.89.568.88.568 2.58.568 2.58 0 1.69-.568 2.6-.568 2.6-.567.91-1.575.91-1.575.91zm0 0zm0-.692c.294 0 .53-.162.53-.162.237-.16.41-.5.41-.5.173-.34.268-.87.268-.87.1-.53.1-1.267.1-1.267 0-.735-.09-1.26-.09-1.26-.09-.525-.26-.856-.26-.856-.17-.33-.41-.487-.41-.487-.23-.16-.53-.16-.53-.16-.29 0-.53.16-.53.16-.24.155-.41.486-.41.486-.17.33-.27.85-.27.85-.09.52-.09 1.26-.09 1.26 0 1.47.36 2.14.36 2.14.37.67.95.67.95.67zm-13.256-175.19zm3.193-2.54v-1.944c0-.27.016-.64.016-.64.015-.37.036-.64.036-.64h-.042c-.126.24-.262.48-.262.48-.137.24-.284.48-.284.48l-1.565 2.29h2.1zm0 0zm1.733.693H22.9v1.848h-.82v-1.848h-3.015v-.568l2.868-4.287h.966v4.16h.91v.693zm.294 1.848zm2.616.126c-1.02 0-1.586-.9-1.586-.9-.568-.904-.568-2.596-.568-2.596 0-1.69.56-2.573.56-2.573.56-.88 1.58-.88 1.58-.88 1.01 0 1.57.88 1.57.88.57.883.57 2.575.57 2.575 0 1.69-.57 2.594-.57 2.594-.57.902-1.58.902-1.58.902zm0 0zm0-.69c.294 0 .53-.164.53-.164.236-.162.41-.504.41-.504.173-.34.268-.87.268-.87.1-.53.1-1.266.1-1.266 0-.736-.09-1.26-.09-1.26-.09-.526-.26-.857-.26-.857-.17-.33-.41-.49-.41-.49-.23-.16-.53-.16-.53-.16-.29 0-.53.16-.53.16-.24.16-.41.49-.41.49-.17.33-.27.86-.27.86-.09.53-.09 1.26-.09 1.26 0 1.47.36 2.14.36 2.14.37.67.95.67.95.67zm2.605.566zm2.615.126c-1.02 0-1.586-.902-1.586-.902-.567-.903-.567-2.595-.567-2.595 0-1.69.567-2.573.567-2.573.567-.882 1.586-.882 1.586-.882 1.01 0 1.576.882 1.576.882.56.882.56 2.574.56 2.574 0 1.69-.57 2.594-.57 2.594-.57.903-1.58.903-1.58.903zm0 0zm0-.692c.294 0 .53-.163.53-.163.237-.17.41-.51.41-.51.174-.34.268-.87.268-.87.1-.53.1-1.27.1-1.27 0-.74-.09-1.26-.09-1.26-.09-.53-.26-.86-.26-.86-.17-.33-.41-.49-.41-.49-.23-.16-.53-.16-.53-.16-.29 0-.53.16-.53.16-.24.15-.41.49-.41.49-.17.33-.27.85-.27.85-.09.52-.09 1.26-.09 1.26 0 1.47.37 2.14.37 2.14.36.67.95.67.95.67zm-12.73-175.185zm2.814-.556c.252 0 .462-.1.462-.1.21-.1.36-.3.36-.3.16-.19.24-.46.24-.46.09-.26.09-.6.09-.6 0-.66-.31-1.04-.31-1.04-.31-.38-.94-.38-.94-.38-.32 0-.69.21-.69.21-.38.21-.71.68-.71.68.08.99.45 1.5.45 1.5.37.51 1.01.51 1.01.51zm0 0zm1.376-5.02c-.21-.24-.498-.38-.498-.38-.29-.14-.604-.14-.604-.14-.34 0-.66.15-.66.15-.31.15-.55.48-.55.48-.24.34-.39.88-.39.88-.14.54-.15 1.34-.15 1.34.32-.39.74-.61.74-.61.42-.22.83-.22.83-.22.88 0 1.4.52 1.4.52.52.52.52 1.56.52 1.56 0 .49-.15.88-.15.88-.16.4-.43.68-.43.68-.27.29-.63.44-.63.44-.36.16-.77.16-.77.16-.49 0-.91-.2-.91-.2-.42-.2-.73-.6-.73-.6-.31-.4-.48-1.01-.48-1.01-.18-.6-.18-1.41-.18-1.41 0-1.01.21-1.72.21-1.72.21-.71.57-1.15.57-1.15.36-.45.82-.65.82-.65.46-.21.96-.21.96-.21.55 0 .94.21.94.21.4.21.68.51.68.51zm1.03 5.58zm2.615.13c-1.02 0-1.586-.9-1.586-.9-.567-.9-.567-2.59-.567-2.59 0-1.69.567-2.57.567-2.57.567-.88 1.586-.88 1.586-.88 1.01 0 1.576.88 1.576.88.567.89.567 2.58.567 2.58 0 1.69-.56 2.6-.56 2.6-.56.9-1.57.9-1.57.9zm0 0zm0-.69c.294 0 .53-.16.53-.16.237-.16.41-.5.41-.5.174-.34.268-.87.268-.87.095-.53.095-1.26.095-1.26 0-.73-.09-1.26-.09-1.26-.09-.52-.26-.85-.26-.85-.17-.33-.41-.48-.41-.48-.23-.16-.53-.16-.53-.16-.29 0-.53.16-.53.16-.24.16-.41.49-.41.49-.17.33-.27.86-.27.86-.09.53-.09 1.26-.09 1.26 0 1.47.37 2.14.37 2.14.36.67.95.67.95.67zm2.605.57zm2.616.13c-1.02 0-1.59-.9-1.59-.9-.57-.9-.57-2.59-.57-2.59 0-1.69.56-2.57.56-2.57.56-.88 1.58-.88 1.58-.88 1 0 1.57.88 1.57.88.57.89.57 2.58.57 2.58 0 1.69-.57 2.6-.57 2.6-.57.9-1.58.9-1.58.9zm0 0zm0-.69c.29 0 .53-.16.53-.16.23-.16.41-.5.41-.5.17-.34.26-.87.26-.87.09-.53.09-1.26.09-1.26 0-.73-.1-1.26-.1-1.26-.1-.52-.27-.85-.27-.85-.18-.33-.41-.49-.41-.49-.24-.16-.53-.16-.53-.16-.3 0-.54.16-.54.16-.24.16-.42.49-.42.49-.18.33-.27.86-.27.86-.1.53-.1 1.26-.1 1.26 0 1.47.36 2.14.36 2.14.36.67.95.67.95.67zM19.14 38.45zm1.203-1.798c0 .28.11.513.11.513.11.23.304.41.304.41.2.18.46.27.46.27.27.098.57.098.57.098.59 0 .95-.324.95-.324.37-.33.37-.85.37-.85 0-.33-.15-.56-.15-.56-.143-.23-.395-.41-.395-.41-.252-.18-.583-.32-.583-.32l-.69-.29c-.4.27-.67.63-.67.63-.27.36-.27.82-.27.82zm0 0zm1.89-1.86c.337-.306.52-.64.52-.64.184-.34.184-.706.184-.706 0-.502-.3-.843-.3-.843-.3-.346-.86-.346-.86-.346-.47 0-.77.294-.77.294-.304.3-.304.79-.304.79 0 .31.126.52.126.52.12.22.34.39.34.39.21.17.49.3.49.3.28.13.58.25.58.25zm0 0zm-2.666 1.94c0-.324.11-.603.11-.603.11-.28.28-.51.28-.51.174-.22.4-.4.4-.4.226-.17.468-.3.468-.3v-.04c-.37-.26-.65-.63-.65-.63-.29-.37-.29-.91-.29-.91 0-.39.14-.7.14-.7.144-.31.4-.54.4-.54.25-.22.6-.35.6-.35.342-.12.75-.12.75-.12.44 0 .79.13.79.13.346.13.593.36.593.36.245.23.377.57.377.57.13.33.13.72.13.72 0 .26-.085.5-.085.5-.09.24-.22.45-.22.45-.13.21-.295.37-.295.37-.164.17-.32.28-.32.28v.04c.22.13.43.29.43.29.21.16.37.37.37.37.166.2.266.46.266.46.1.26.1.6.1.6 0 .38-.16.7-.16.7-.15.32-.44.56-.44.56-.28.24-.68.38-.68.38-.4.13-.88.13-.88.13-.47 0-.87-.14-.87-.14-.4-.14-.69-.38-.69-.38-.29-.25-.45-.58-.45-.58-.16-.34-.16-.74-.16-.74zm4.79 1.713zm2.613.126c-1.02 0-1.585-.9-1.585-.9-.57-.9-.57-2.59-.57-2.59.002-1.69.57-2.57.57-2.57.566-.88 1.585-.88 1.585-.88 1.008 0 1.575.88 1.575.88.568.88.568 2.58.568 2.58 0 1.7-.568 2.6-.568 2.6-.567.91-1.575.91-1.575.91zm0 0zm0-.69c.295 0 .53-.16.53-.16.238-.16.41-.5.41-.5.174-.34.27-.87.27-.87.094-.53.094-1.27.094-1.27 0-.74-.094-1.26-.094-1.26-.094-.53-.267-.86-.267-.86-.173-.33-.41-.49-.41-.49-.236-.16-.53-.16-.53-.16-.294 0-.536.16-.536.16-.243.15-.416.48-.416.48-.17.33-.26.86-.26.86-.09.53-.09 1.26-.09 1.26 0 1.47.36 2.14.36 2.14.37.67.95.67.95.67zm2.606.57zm2.61.13c-1.02 0-1.59-.9-1.59-.9-.57-.91-.57-2.6-.57-2.6 0-1.69.562-2.58.562-2.58.566-.88 1.585-.88 1.585-.88 1.01 0 1.576.88 1.576.88.57.88.57 2.57.57 2.57 0 1.69-.57 2.6-.57 2.6-.57.9-1.58.9-1.58.9zm0 0zm0-.69c.29 0 .53-.17.53-.17.23-.16.41-.51.41-.51.17-.34.27-.87.27-.87.09-.53.09-1.27.09-1.27 0-.73-.1-1.26-.1-1.26-.094-.52-.267-.85-.267-.85-.18-.33-.41-.49-.41-.49-.24-.16-.53-.16-.53-.16-.3 0-.54.16-.54.16-.25.16-.42.49-.42.49-.18.33-.27.86-.27.86-.1.53-.1 1.26-.1 1.26 0 1.47.36 2.14.36 2.14.36.67.95.67.95.67z"/><path fill="none" stroke-miterlimit="10" d="M43.908 738h936.17" stroke-linecap="square"/><path stroke="none" d="M76.87 758zm.42-.515c.756-.756 1.344-1.365 1.344-1.365.588-.61.987-1.13.987-1.13.4-.52.61-.955.61-.955.21-.436.21-.846.21-.846 0-.58-.31-.95-.31-.95-.31-.37-.95-.37-.95-.37-.42 0-.77.23-.77.23-.35.23-.65.57-.65.57l-.49-.5c.42-.46.9-.74.9-.74.48-.28 1.14-.28 1.14-.28.93 0 1.47.54 1.47.54.54.54.54 1.43.54 1.43 0 .47-.2.95-.2.95-.2.48-.56.98-.56.98-.36.51-.86 1.06-.86 1.06-.5.55-1.1 1.17-1.1 1.17l.57-.04c.29-.02.55-.02.55-.02h1.94v.75H77.3v-.52zm4.8.515zm2.615.126c-1.02 0-1.586-.903-1.586-.903-.57-.904-.57-2.595-.57-2.595 0-1.69.56-2.573.56-2.573.56-.883 1.58-.883 1.58-.883 1.01 0 1.57.883 1.57.883.56.882.56 2.573.56 2.573 0 1.69-.57 2.595-.57 2.595-.57.903-1.58.903-1.58.903zm0 0zm0-.693c.294 0 .53-.163.53-.163.237-.163.41-.504.41-.504.174-.342.27-.872.27-.872.093-.53.093-1.266.093-1.266 0-.735-.095-1.26-.095-1.26-.094-.525-.267-.856-.267-.856-.174-.33-.41-.49-.41-.49-.236-.156-.53-.156-.53-.156-.295 0-.536.157-.536.157-.242.158-.415.49-.415.49-.174.33-.268.855-.268.855-.095.525-.095 1.26-.095 1.26 0 1.47.363 2.138.363 2.138.362.667.95.667.95.667zm2.605.567zm.83-.714h1.534v-4.937h-1.22v-.56c.464-.09.805-.21.805-.21.34-.12.61-.29.61-.29h.66v5.99h1.38v.72h-3.78v-.72zm4.39.714zm1.86 0c.042-.945.168-1.733.168-1.733.126-.788.352-1.497.352-1.497.226-.71.578-1.37.578-1.37.352-.663.845-1.356.845-1.356h-3.34v-.746h4.317v.536c-.598.756-.97 1.45-.97 1.45-.374.693-.595 1.412-.595 1.412-.22.72-.32 1.524-.32 1.524-.1.803-.142 1.78-.142 1.78h-.893zm3.362 0zm.43-2.962h2.416v.662h-2.416v-.662zm2.836 2.962zm.83-.714h1.534v-4.937h-1.22v-.56c.464-.09.805-.21.805-.21.34-.12.614-.29.614-.29h.67v5.99h1.39v.72h-3.78v-.72zm4.39.714zm.83-.714h1.534v-4.937h-1.218v-.56c.462-.09.803-.21.803-.21.342-.12.615-.29.615-.29h.662v5.99h1.386v.72h-3.78v-.72zm4.392.714zm.43-2.962h2.416v.662h-2.416v-.662zm2.836 2.962zm2.616.126c-1.02 0-1.586-.903-1.586-.903-.567-.904-.567-2.595-.567-2.595 0-1.69.56-2.573.56-2.573.56-.883 1.58-.883 1.58-.883 1.01 0 1.57.883 1.57.883.57.882.57 2.573.57 2.573 0 1.69-.57 2.595-.57 2.595-.57.903-1.58.903-1.58.903zm0 0zm0-.693c.294 0 .53-.163.53-.163.237-.163.41-.504.41-.504.173-.342.268-.872.268-.872.095-.53.095-1.266.095-1.266 0-.735-.095-1.26-.095-1.26-.095-.525-.268-.856-.268-.856-.173-.33-.41-.49-.41-.49-.236-.156-.53-.156-.53-.156-.294 0-.536.157-.536.157-.24.158-.415.49-.415.49-.17.33-.26.855-.26.855-.09.525-.09 1.26-.09 1.26 0 1.47.36 2.138.36 2.138.37.667.96.667.96.667zm2.605.567zm.83-.714h1.533v-4.937h-1.218v-.56c.462-.09.803-.21.803-.21.342-.12.615-.29.615-.29h.662v5.99h1.386v.72h-3.78v-.72zm4.39.714zm.683-4.317c0-.305.184-.49.184-.49.184-.182.447-.182.447-.182.26 0 .44.19.44.19.19.19.19.49.19.49 0 .28-.18.47-.18.47-.18.19-.43.19-.43.19-.26 0-.44-.18-.44-.18-.18-.18-.18-.46-.18-.46zm0 0zm0 3.792c0-.305.184-.49.184-.49.184-.182.447-.182.447-.182.26 0 .44.183.44.183.19.184.19.49.19.49 0 .282-.18.466-.18.466-.18.184-.43.184-.43.184-.26 0-.44-.184-.44-.184-.18-.184-.18-.467-.18-.467zm4.055.525zm2.815-.557c.252 0 .462-.105.462-.105.21-.105.368-.3.368-.3.157-.193.247-.46.247-.46.09-.27.09-.605.09-.605 0-.662-.306-1.04-.306-1.04-.3-.378-.93-.378-.93-.378-.31 0-.69.204-.69.204-.37.2-.71.67-.71.67.09.98.46 1.49.46 1.49.38.51 1.02.51 1.02.51zm0 0zm1.376-5.02c-.21-.242-.5-.384-.5-.384-.288-.15-.603-.15-.603-.15-.346 0-.662.14-.662.14-.31.14-.55.48-.55.48-.24.33-.39.87-.39.87-.14.54-.15 1.34-.15 1.34.32-.39.74-.62.74-.62.42-.23.83-.23.83-.23.87 0 1.39.51 1.39.51.52.51.52 1.55.52 1.55 0 .48-.15.88-.15.88-.16.39-.43.67-.43.67-.27.28-.63.44-.63.44-.36.15-.77.15-.77.15-.49 0-.91-.2-.91-.2-.42-.2-.73-.61-.73-.61-.31-.4-.49-1.01-.49-1.01-.18-.6-.18-1.41-.18-1.41 0-1.01.21-1.72.21-1.72.21-.71.57-1.15.57-1.15.36-.45.82-.65.82-.65.46-.21.96-.21.96-.21.55 0 .94.2.94.2.4.2.68.51.68.51zm1.03 5.577zm.714-1.387c.304.315.71.557.71.557.403.242 1.002.242 1.002.242.61 0 .998-.33.998-.33.39-.332.39-.9.39-.9 0-.293-.112-.54-.112-.54-.11-.247-.362-.426-.362-.426-.252-.178-.662-.273-.662-.273-.41-.094-1.008-.094-1.008-.094v-.67c.535 0 .898-.1.898-.1.362-.1.588-.26.588-.26.226-.17.32-.4.32-.4.095-.23.095-.5.095-.5 0-.5-.31-.78-.31-.78-.31-.29-.846-.29-.846-.29-.42 0-.77.19-.77.19-.35.18-.65.49-.65.49l-.46-.55c.39-.37.86-.61.86-.61.47-.24 1.07-.24 1.07-.24.44 0 .81.11.81.11.37.11.64.33.64.33.27.21.42.53.42.53.15.31.15.72.15.72 0 .61-.34 1-.34 1-.33.39-.88.6-.88.6v.04c.31.07.57.21.57.21.26.14.46.35.46.35.2.21.31.5.31.5.11.28.11.63.11.63 0 .44-.17.79-.17.79-.17.35-.47.6-.47.6-.3.25-.7.38-.7.38-.4.13-.86.13-.86.13-.4 0-.73-.08-.73-.08-.33-.08-.6-.21-.6-.21-.27-.13-.49-.3-.49-.3-.21-.17-.38-.36-.38-.36zm4.506 1.387zm.683-1.355c.29.305.69.536.69.536.4.24.99.24.99.24.3 0 .57-.11.57-.11.26-.11.46-.31.46-.31.2-.2.31-.48.31-.48.11-.28.11-.63.11-.63 0-.69-.39-1.08-.39-1.08-.39-.39-1.04-.39-1.04-.39-.35 0-.6.11-.6.11-.25.11-.55.31-.55.31l-.47-.29.22-3.22h3.35v.75h-2.59l-.18 1.99c.24-.13.48-.2.48-.2.24-.07.54-.07.54-.07.43 0 .81.13.81.13.37.13.66.39.66.39.28.26.44.65.44.65.16.4.16.94.16.94 0 .55-.19.97-.19.97-.19.42-.5.71-.5.71-.32.29-.72.44-.72.44-.41.15-.85.15-.85.15-.4 0-.73-.08-.73-.08-.33-.08-.6-.2-.6-.2-.27-.12-.48-.28-.48-.28-.21-.16-.38-.34-.38-.34zM210.58 758zm.42-.515c.756-.756 1.344-1.365 1.344-1.365.59-.61.99-1.13.99-1.13.4-.52.61-.955.61-.955.21-.436.21-.846.21-.846 0-.58-.317-.95-.317-.95-.315-.37-.956-.37-.956-.37-.42 0-.77.23-.77.23-.35.23-.65.57-.65.57l-.49-.5c.42-.46.9-.74.9-.74.47-.28 1.14-.28 1.14-.28.94 0 1.47.54 1.47.54.54.54.54 1.43.54 1.43 0 .47-.2.95-.2.95-.2.48-.56.98-.56.98-.36.51-.86 1.06-.86 1.06-.5.55-1.1 1.17-1.1 1.17l.57-.04c.3-.02.56-.02.56-.02h1.94v.75h-4.33v-.52zm4.8.515zm2.616.126c-1.02 0-1.586-.903-1.586-.903-.567-.904-.567-2.595-.567-2.595 0-1.69.566-2.573.566-2.573.56-.883 1.58-.883 1.58-.883 1 0 1.57.883 1.57.883.57.882.57 2.573.57 2.573 0 1.69-.57 2.595-.57 2.595-.57.903-1.58.903-1.58.903zm0 0zm0-.693c.294 0 .53-.163.53-.163.237-.163.41-.504.41-.504.173-.342.27-.872.27-.872.094-.53.094-1.266.094-1.266 0-.735-.094-1.26-.094-1.26-.092-.525-.265-.856-.265-.856-.17-.33-.41-.49-.41-.49-.23-.156-.53-.156-.53-.156-.29 0-.53.157-.53.157-.24.158-.42.49-.42.49-.17.33-.26.855-.26.855-.09.525-.09 1.26-.09 1.26 0 1.47.37 2.138.37 2.138.36.667.95.667.95.667zm2.605.567zm.83-.714h1.54v-4.937h-1.22v-.56c.46-.09.81-.21.81-.21.35-.12.62-.29.62-.29h.67v5.99h1.39v.72h-3.78v-.72zm4.39.714zm1.86 0c.05-.945.17-1.733.17-1.733.13-.788.36-1.497.36-1.497.23-.71.58-1.37.58-1.37.35-.663.85-1.356.85-1.356h-3.34v-.746h4.32v.536c-.6.756-.97 1.45-.97 1.45-.37.693-.59 1.412-.59 1.412-.22.72-.32 1.524-.32 1.524-.1.803-.14 1.78-.14 1.78h-.89zm3.36 0zm.44-2.962h2.42v.662h-2.41v-.662zm2.83 2.962zm.83-.714h1.54v-4.937h-1.22v-.56c.46-.09.81-.21.81-.21.34-.12.62-.29.62-.29h.66v5.99h1.39v.72h-3.78v-.72zm4.39.714zm.83-.714h1.54v-4.937h-1.22v-.56c.47-.09.81-.21.81-.21.34-.12.62-.29.62-.29h.66v5.99h1.39v.72h-3.78v-.72zm4.39.714zm.44-2.962h2.42v.662h-2.41v-.662zm2.83 2.962zm2.62.126c-1.02 0-1.59-.903-1.59-.903-.56-.904-.56-2.595-.56-2.595 0-1.69.57-2.573.57-2.573.57-.883 1.59-.883 1.59-.883 1.01 0 1.58.883 1.58.883.57.882.57 2.573.57 2.573 0 1.69-.56 2.595-.56 2.595-.56.903-1.57.903-1.57.903zm0 0zm0-.693c.29 0 .53-.163.53-.163.24-.163.41-.504.41-.504.17-.342.27-.872.27-.872.1-.53.1-1.266.1-1.266 0-.735-.09-1.26-.09-1.26-.09-.525-.27-.856-.27-.856-.17-.33-.41-.49-.41-.49-.23-.156-.53-.156-.53-.156-.29 0-.53.157-.53.157-.24.158-.41.49-.41.49-.17.33-.27.855-.27.855-.09.525-.09 1.26-.09 1.26 0 1.47.37 2.138.37 2.138.36.667.95.667.95.667zm2.61.567zm.42-.515c.75-.756 1.34-1.365 1.34-1.365.58-.61.98-1.13.98-1.13.4-.52.61-.955.61-.955.21-.436.21-.846.21-.846 0-.58-.32-.95-.32-.95-.31-.37-.95-.37-.95-.37-.42 0-.78.23-.78.23-.36.23-.65.57-.65.57l-.49-.5c.42-.46.89-.74.89-.74.47-.28 1.14-.28 1.14-.28.94 0 1.47.54 1.47.54.54.54.54 1.43.54 1.43 0 .47-.2.95-.2.95-.2.48-.56.98-.56.98-.36.51-.86 1.06-.86 1.06-.5.55-1.1 1.17-1.1 1.17l.57-.04c.29-.02.56-.02.56-.02h1.94v.75h-4.33v-.52zm4.8.515zm.68-4.317c0-.305.18-.49.18-.49.18-.182.44-.182.44-.182.25 0 .44.19.44.19.19.19.19.49.19.49 0 .28-.18.47-.18.47-.18.19-.43.19-.43.19-.26 0-.45-.18-.45-.18-.18-.18-.18-.46-.18-.46zm0 0zm0 3.792c0-.305.18-.49.18-.49.18-.182.44-.182.44-.182.25 0 .44.183.44.183.19.184.19.49.19.49 0 .282-.18.466-.18.466-.18.184-.43.184-.43.184-.26 0-.45-.184-.45-.184-.18-.184-.18-.467-.18-.467zm4.05.525zm.71-1.387c.3.315.71.557.71.557.4.242 1 .242 1 .242.61 0 1-.33 1-.33.39-.332.39-.9.39-.9 0-.293-.11-.54-.11-.54-.11-.247-.36-.426-.36-.426-.25-.178-.66-.273-.66-.273-.41-.094-1.01-.094-1.01-.094v-.67c.54 0 .9-.1.9-.1.36-.1.59-.26.59-.26.23-.17.32-.4.32-.4.1-.23.1-.5.1-.5 0-.5-.31-.78-.31-.78-.31-.29-.85-.29-.85-.29-.42 0-.77.19-.77.19-.35.18-.66.49-.66.49l-.46-.55c.39-.37.86-.61.86-.61.47-.24 1.07-.24 1.07-.24.44 0 .81.11.81.11.37.11.64.33.64.33.27.21.41.53.41.53.14.31.14.72.14.72 0 .61-.33 1-.33 1-.34.39-.88.6-.88.6v.04c.31.07.57.21.57.21.26.14.46.35.46.35.2.21.31.5.31.5.11.28.11.63.11.63 0 .44-.17.79-.17.79-.17.35-.47.6-.47.6-.3.25-.7.38-.7.38-.4.13-.86.13-.86.13-.4 0-.73-.08-.73-.08-.33-.08-.6-.21-.6-.21-.27-.13-.49-.3-.49-.3-.22-.17-.38-.36-.38-.36zm4.51 1.387zm3.19-2.542v-1.943c0-.273.02-.646.02-.646.02-.38.04-.65.04-.65h-.04c-.12.24-.26.47-.26.47-.13.23-.28.47-.28.47l-1.57 2.29h2.1zm0 0zm1.74.693h-.91V758h-.82v-1.85h-3.01v-.566l2.86-4.286h.97v4.16h.91v.693zm.3 1.85zm2.62.13c-1.02 0-1.58-.9-1.58-.9-.56-.9-.56-2.59-.56-2.59 0-1.69.57-2.57.57-2.57.57-.88 1.59-.88 1.59-.88 1.01 0 1.58.89 1.58.89.57.88.57 2.57.57 2.57 0 1.69-.57 2.6-.57 2.6-.56.91-1.57.91-1.57.91zm0 0zm0-.69c.3 0 .53-.16.53-.16.24-.16.41-.5.41-.5.18-.34.27-.87.27-.87.1-.53.1-1.26.1-1.26 0-.73-.1-1.26-.1-1.26-.09-.52-.27-.85-.27-.85-.17-.33-.41-.49-.41-.49-.23-.15-.53-.15-.53-.15-.29 0-.53.16-.53.16-.24.16-.41.49-.41.49-.18.33-.27.86-.27.86-.09.53-.09 1.26-.09 1.26 0 1.47.37 2.14.37 2.14.36.67.95.67.95.67zm67.64.57zm.42-.51c.76-.75 1.35-1.36 1.35-1.36.59-.61.99-1.13.99-1.13.4-.52.61-.95.61-.95.21-.43.21-.84.21-.84 0-.58-.31-.95-.31-.95-.31-.36-.95-.36-.95-.36-.42 0-.77.24-.77.24-.35.24-.65.57-.65.57l-.49-.49c.42-.46.89-.74.89-.74.47-.28 1.14-.28 1.14-.28.94 0 1.47.54 1.47.54.54.54.54 1.44.54 1.44 0 .48-.2.95-.2.95-.21.48-.57.99-.57.99-.36.51-.86 1.06-.86 1.06-.5.55-1.1 1.17-1.1 1.17l.57-.04c.3-.02.56-.02.56-.02h1.95v.74h-4.33v-.51zm4.8.52zm2.62.13c-1.02 0-1.59-.9-1.59-.9-.57-.9-.57-2.59-.57-2.59 0-1.69.57-2.57.57-2.57.57-.88 1.59-.88 1.59-.88 1.01 0 1.58.89 1.58.89.57.88.57 2.57.57 2.57 0 1.69-.56 2.6-.56 2.6-.56.91-1.57.91-1.57.91zm0 0zm0-.69c.29 0 .53-.16.53-.16.23-.16.41-.5.41-.5.17-.34.27-.87.27-.87.1-.53.1-1.26.1-1.26 0-.73-.09-1.26-.09-1.26-.09-.52-.27-.85-.27-.85-.17-.33-.41-.49-.41-.49-.23-.15-.53-.15-.53-.15-.29 0-.53.16-.53.16-.24.16-.42.49-.42.49-.17.33-.26.86-.26.86-.09.52-.09 1.26-.09 1.26 0 1.47.37 2.14.37 2.14.36.67.95.67.95.67zm2.6.57zm.83-.71h1.53v-4.93h-1.22v-.56c.46-.08.81-.2.81-.2.34-.12.61-.29.61-.29h.66v5.99h1.39v.71h-3.78v-.71zm4.39.72zm1.86 0c.04-.94.17-1.73.17-1.73.12-.79.35-1.5.35-1.5.23-.71.58-1.37.58-1.37.35-.66.85-1.35.85-1.35h-3.34v-.74h4.32v.54c-.6.76-.97 1.45-.97 1.45-.37.7-.59 1.42-.59 1.42-.22.72-.32 1.52-.32 1.52-.1.8-.14 1.78-.14 1.78h-.89zm3.36 0zm.43-2.96h2.42v.66h-2.42v-.66zm2.84 2.96zm.83-.71h1.53v-4.93h-1.22v-.56c.47-.08.81-.21.81-.21.34-.12.62-.29.62-.29h.66v5.99h1.39v.71h-3.79v-.71zm4.39.72zm.83-.71h1.54v-4.94h-1.22v-.56c.46-.08.81-.2.81-.2.34-.12.61-.29.61-.29h.67v5.99h1.39v.71h-3.78v-.71zm4.39.72zm.43-2.96h2.42v.66h-2.42v-.66zm2.84 2.96zm2.62.12c-1.02 0-1.58-.9-1.58-.9-.57-.9-.57-2.59-.57-2.59 0-1.69.57-2.57.57-2.57.57-.88 1.59-.88 1.59-.88 1.01 0 1.58.89 1.58.89.57.88.57 2.58.57 2.58 0 1.69-.57 2.6-.57 2.6-.57.9-1.58.9-1.58.9zm0 0zm0-.69c.3 0 .53-.16.53-.16.24-.17.41-.51.41-.51.18-.34.27-.87.27-.87.1-.53.1-1.27.1-1.27 0-.73-.09-1.26-.09-1.26-.09-.52-.27-.85-.27-.85-.17-.33-.41-.49-.41-.49-.23-.15-.53-.15-.53-.15-.29 0-.53.16-.53.16-.24.16-.41.49-.41.49-.17.33-.27.86-.27.86-.09.53-.09 1.26-.09 1.26 0 1.47.36 2.14.36 2.14.36.67.95.67.95.67zm2.61.57zm.71-1.39c.31.32.71.56.71.56.41.24 1.01.24 1.01.24.61 0 1-.33 1-.33.39-.33.39-.9.39-.9 0-.29-.11-.54-.11-.54-.11-.24-.36-.42-.36-.42-.25-.18-.66-.27-.66-.27-.41-.09-1.01-.09-1.01-.09v-.66c.54 0 .9-.1.9-.1.36-.09.59-.26.59-.26.23-.17.32-.4.32-.4.1-.23.1-.49.1-.49 0-.49-.31-.78-.31-.78-.31-.28-.84-.28-.84-.28-.42 0-.77.19-.77.19-.35.19-.66.5-.66.5l-.46-.55c.39-.37.86-.6.86-.6.47-.24 1.07-.24 1.07-.24.44 0 .81.12.81.12.37.12.64.33.64.33.27.22.42.53.42.53.15.32.15.73.15.73 0 .61-.34 1-.34 1-.34.39-.88.6-.88.6v.04c.31.08.57.22.57.22.27.15.47.36.47.36.2.22.31.5.31.5.11.28.11.63.11.63 0 .44-.17.8-.17.8-.17.36-.47.61-.47.61-.3.25-.7.38-.7.38-.4.13-.86.13-.86.13-.4 0-.73-.08-.73-.08-.33-.08-.6-.21-.6-.21-.27-.13-.49-.3-.49-.3-.22-.16-.38-.35-.38-.35zm4.51 1.39zm.69-4.31c0-.3.19-.49.19-.49.19-.18.45-.18.45-.18.26 0 .44.19.44.19.18.19.18.49.18.49 0 .28-.18.47-.18.47-.19.19-.44.19-.44.19-.26 0-.45-.18-.45-.18-.18-.18-.18-.47-.18-.47zm0 0zm0 3.8c0-.3.19-.49.19-.49.19-.18.45-.18.45-.18.26 0 .44.19.44.19.18.18.18.49.18.49 0 .28-.18.47-.18.47-.19.18-.44.18-.44.18-.26 0-.45-.18-.45-.18-.18-.18-.18-.47-.18-.47zm4.06.53zm.83-.71h1.54v-4.94h-1.21v-.56c.46-.08.81-.21.81-.21.34-.12.62-.29.62-.29h.66v5.99H402v.71h-3.79v-.72zm4.39.71zm.69-1.35c.3.31.7.54.7.54.41.24 1 .24 1 .24.31 0 .57-.11.57-.11.27-.11.47-.31.47-.31.2-.2.32-.48.32-.48.12-.28.12-.63.12-.63 0-.69-.39-1.08-.39-1.08-.39-.39-1.04-.39-1.04-.39-.35 0-.59.1-.59.1-.25.1-.56.3-.56.3l-.46-.29.22-3.23H407v.75h-2.6l-.18 1.99c.24-.13.486-.2.486-.2.24-.07.54-.07.54-.07.43 0 .81.13.81.13.376.13.66.39.66.39.28.26.446.65.446.65.16.4.16.94.16.94 0 .55-.19.97-.19.97-.19.42-.505.71-.505.71-.32.29-.72.44-.72.44-.41.16-.85.16-.85.16-.4 0-.73-.08-.73-.08-.33-.08-.6-.2-.6-.2-.27-.13-.484-.29-.484-.29-.212-.16-.38-.34-.38-.34zm4.54 1.36zm1.21-1.8c0 .29.11.52.11.52.11.23.31.4.31.4.2.18.46.27.46.27.26.1.57.1.57.1.59 0 .95-.32.95-.32.36-.33.36-.85.36-.85 0-.33-.15-.56-.15-.56-.14-.23-.4-.4-.4-.4-.25-.17-.58-.32-.58-.32-.33-.14-.69-.29-.69-.29-.4.28-.67.64-.67.64-.26.36-.26.82-.26.82zm0 0zm1.89-1.86c.34-.3.52-.64.52-.64.19-.33.19-.7.19-.7 0-.5-.3-.85-.3-.85-.3-.34-.86-.34-.86-.34-.47 0-.78.29-.78.29-.3.29-.3.79-.3.79 0 .3.13.52.13.52.13.21.34.38.34.38.22.16.5.3.5.3.28.13.58.24.58.24zm0 0zm-2.66 1.95c0-.32.11-.6.11-.6.11-.28.29-.51.29-.51.18-.22.4-.4.4-.4.23-.17.47-.3.47-.3v-.04c-.36-.26-.65-.64-.65-.64-.28-.37-.28-.9-.28-.9 0-.39.15-.71.15-.71.15-.31.4-.54.4-.54.25-.22.6-.35.6-.35.35-.12.76-.12.76-.12.44 0 .78.13.78.13.34.13.59.37.59.37.25.24.38.57.38.57.13.33.13.72.13.72 0 .26-.09.51-.09.51-.09.24-.22.45-.22.45-.13.21-.29.38-.29.38-.16.16-.32.28-.32.28v.04c.22.13.43.29.43.29.21.16.38.37.38.37.16.2.26.46.26.46.1.27.1.6.1.6 0 .38-.16.71-.16.71-.16.32-.44.57-.44.57-.28.24-.68.38-.68.38-.4.13-.88.13-.88.13-.47 0-.87-.14-.87-.14-.41-.13-.69-.38-.69-.38-.29-.25-.46-.58-.46-.58-.17-.34-.17-.74-.17-.74zm72.49 1.7zm.42-.51c.76-.75 1.35-1.36 1.35-1.36.59-.61.99-1.13.99-1.13.4-.52.61-.95.61-.95.21-.43.21-.84.21-.84 0-.58-.31-.95-.31-.95-.31-.37-.96-.37-.96-.37-.42 0-.77.23-.77.23-.35.24-.65.58-.65.58l-.49-.5c.42-.46.89-.74.89-.74.47-.28 1.14-.28 1.14-.28.93 0 1.47.54 1.47.54.53.54.53 1.44.53 1.44 0 .47-.2.95-.2.95-.2.48-.57.99-.57.99-.36.51-.86 1.06-.86 1.06-.5.56-1.1 1.18-1.1 1.18l.57-.04c.3-.02.56-.02.56-.02h1.95v.75h-4.33v-.51zm4.8.52zm2.62.13c-1.02 0-1.58-.9-1.58-.9-.56-.9-.56-2.59-.56-2.59 0-1.69.57-2.57.57-2.57.57-.88 1.59-.88 1.59-.88 1.01 0 1.58.89 1.58.89.57.88.57 2.57.57 2.57 0 1.69-.57 2.59-.57 2.59-.57.91-1.57.91-1.57.91zm0 0zm0-.69c.3 0 .53-.16.53-.16.24-.16.41-.5.41-.5.18-.34.27-.87.27-.87.1-.53.1-1.26.1-1.26 0-.73-.1-1.26-.1-1.26-.1-.52-.27-.86-.27-.86-.17-.33-.41-.49-.41-.49-.24-.15-.53-.15-.53-.15-.3 0-.54.16-.54.16-.24.16-.41.49-.41.49-.17.33-.27.86-.27.86-.09.53-.09 1.26-.09 1.26 0 1.47.36 2.14.36 2.14.37.67.95.67.95.67zm2.61.57zm.83-.71h1.53v-4.94h-1.22v-.56c.46-.09.8-.21.8-.21.34-.12.62-.29.62-.29h.67v5.99h1.39v.72H492v-.71zm4.39.72zm1.86 0c.04-.94.17-1.73.17-1.73.12-.79.35-1.5.35-1.5.22-.71.58-1.37.58-1.37.35-.66.84-1.35.84-1.35h-3.34v-.74h4.31v.54c-.6.76-.97 1.45-.97 1.45-.38.69-.6 1.41-.6 1.41-.22.72-.32 1.52-.32 1.52-.1.81-.15 1.78-.15 1.78h-.89zm3.36 0zm.43-2.96h2.42v.67h-2.42v-.66zm2.84 2.96zm.83-.71h1.53v-4.94H506v-.56c.46-.09.802-.21.802-.21.345-.12.618-.29.618-.29h.662v5.99h1.385v.72h-3.78v-.72zm4.39.71zm.83-.71h1.53v-4.94h-1.22v-.56c.46-.09.8-.21.8-.21.34-.12.61-.29.61-.29h.66v5.99h1.38v.72h-3.78v-.72zm4.39.72zm.43-2.96h2.42v.66h-2.42v-.66zm2.84 2.96zm2.61.13c-1.02 0-1.58-.9-1.58-.9-.56-.9-.56-2.59-.56-2.59 0-1.69.57-2.58.57-2.58.57-.88 1.58-.88 1.58-.88 1.01 0 1.58.88 1.58.88.56.89.56 2.58.56 2.58 0 1.69-.57 2.6-.57 2.6-.57.9-1.58.9-1.58.9zm0 0zm0-.69c.3 0 .53-.16.53-.16.24-.16.41-.5.41-.5.18-.34.27-.87.27-.87.1-.53.1-1.26.1-1.26 0-.74-.09-1.26-.09-1.26-.09-.53-.26-.86-.26-.86-.17-.33-.41-.49-.41-.49-.23-.15-.53-.15-.53-.15-.29 0-.53.16-.53.16-.24.16-.41.49-.41.49-.17.33-.27.85-.27.85-.09.53-.09 1.26-.09 1.26 0 1.47.36 2.14.36 2.14.36.67.95.67.95.67zm2.61.57zm3.19-2.54v-1.94c0-.27.02-.64.02-.64.02-.38.04-.65.04-.65h-.1c-.12.24-.26.47-.26.47l-.28.47-1.56 2.29h2.1zm0 0zm1.74.7h-.91v1.8H527v-1.85h-3.012v-.56l2.868-4.29h.97v4.16h.917v.7zm.3 1.85zm.68-4.31c0-.3.18-.49.18-.49.18-.18.44-.18.44-.18.25 0 .44.19.44.19.18.19.18.49.18.49 0 .28-.18.47-.18.47-.18.19-.43.19-.43.19-.26 0-.44-.18-.44-.18-.18-.18-.18-.47-.18-.47zm0 0zm0 3.79c0-.3.18-.49.18-.49.18-.18.44-.18.44-.18.25 0 .44.19.44.19.18.19.18.49.18.49 0 .28-.18.47-.18.47-.18.19-.43.19-.43.19-.26 0-.44-.19-.44-.19-.18-.18-.18-.47-.18-.47zm4.05.53zm.71-1.39c.3.32.71.56.71.56.4.24 1 .24 1 .24.61 0 1-.33 1-.33.39-.33.39-.9.39-.9 0-.29-.11-.54-.11-.54-.11-.25-.36-.43-.36-.43-.25-.17-.66-.27-.66-.27-.41-.09-1.01-.09-1.01-.09v-.67c.54 0 .9-.09.9-.09.36-.1.59-.26.59-.26.22-.17.32-.4.32-.4.09-.23.09-.5.09-.5 0-.49-.31-.77-.31-.77-.31-.28-.85-.28-.85-.28-.42 0-.77.19-.77.19-.35.19-.65.49-.65.49l-.47-.55c.39-.37.86-.6.86-.6.47-.24 1.07-.24 1.07-.24.44 0 .81.12.81.12.37.12.64.33.64.33.27.22.42.53.42.53.14.32.14.73.14.73 0 .61-.33 1-.33 1-.34.39-.88.6-.88.6v.04c.3.07.57.22.57.22.26.14.46.36.46.36.2.21.31.5.31.5.11.28.11.63.11.63 0 .44-.17.79-.17.79-.18.36-.47.61-.47.61-.3.25-.7.38-.7.38-.4.13-.86.13-.86.13-.4 0-.73-.08-.73-.08-.33-.08-.6-.21-.6-.21-.27-.13-.49-.3-.49-.3-.21-.17-.38-.36-.38-.36zm4.51 1.39zm.71-1.39c.31.32.71.56.71.56.41.24 1.01.24 1.01.24.61 0 1-.33 1-.33.39-.33.39-.9.39-.9 0-.29-.11-.54-.11-.54-.11-.25-.36-.43-.36-.43-.25-.17-.66-.27-.66-.27-.41-.09-1-.09-1-.09v-.66c.54 0 .9-.09.9-.09.37-.09.59-.26.59-.26.23-.17.32-.4.32-.4.1-.23.1-.49.1-.49 0-.49-.31-.77-.31-.77-.31-.28-.84-.28-.84-.28-.42 0-.77.19-.77.19-.35.19-.65.49-.65.49l-.46-.55c.39-.37.86-.61.86-.61.47-.23 1.07-.23 1.07-.23.44 0 .81.116.81.116.37.12.63.33.63.33.27.22.42.53.42.53.15.32.15.73.15.73 0 .61-.33.99-.33.99-.33.39-.88.6-.88.6v.04c.31.08.57.22.57.22.26.14.46.355.46.355.2.215.31.5.31.5.11.28.11.63.11.63 0 .44-.18.8-.18.8-.17.36-.47.61-.47.61-.3.25-.7.38-.7.38-.4.13-.86.13-.86.13-.4 0-.73-.08-.73-.08-.33-.08-.6-.21-.6-.21-.27-.13-.49-.3-.49-.3-.22-.17-.38-.36-.38-.36zm74.74 1.36zm.42-.51c.76-.76 1.35-1.37 1.35-1.37.59-.61.99-1.13.99-1.13.4-.52.61-.96.61-.96.21-.44.21-.85.21-.85 0-.58-.31-.95-.31-.95-.32-.37-.96-.37-.96-.37-.42 0-.78.23-.78.23-.35.24-.65.58-.65.58l-.49-.49c.42-.46.89-.74.89-.74.47-.28 1.14-.28 1.14-.28.94 0 1.47.54 1.47.54.54.55.54 1.44.54 1.44 0 .47-.2.95-.2.95-.2.48-.57.99-.57.99-.36.51-.86 1.06-.86 1.06-.5.56-1.1 1.18-1.1 1.18l.57-.04c.3-.02.56-.02.56-.02h1.94v.75h-4.33v-.52zm4.8.51zm2.62.12c-1.02 0-1.59-.91-1.59-.91-.56-.9-.56-2.59-.56-2.59 0-1.69.57-2.57.57-2.57.57-.88 1.59-.88 1.59-.88 1.01 0 1.58.88 1.58.88.57.88.57 2.57.57 2.57 0 1.69-.57 2.59-.57 2.59-.57.9-1.58.9-1.58.9zm0 0zm0-.7c.29 0 .53-.16.53-.16.24-.16.41-.5.41-.5.17-.34.27-.87.27-.87.1-.53.1-1.26.1-1.26 0-.74-.09-1.26-.09-1.26-.09-.53-.27-.86-.27-.86-.17-.33-.41-.49-.41-.49-.23-.15-.53-.15-.53-.15-.29 0-.53.156-.53.156-.24.16-.41.49-.41.49-.17.33-.27.86-.27.86-.09.523-.09 1.26-.09 1.26 0 1.47.37 2.14.37 2.14.36.664.95.664.95.664zm2.61.57zm.83-.71h1.54v-4.94H626v-.56c.464-.09.805-.21.805-.21.34-.12.61-.29.61-.29h.66v5.99h1.39v.72h-3.78v-.72zm4.39.72zm1.86 0c.04-.94.17-1.73.17-1.73.13-.79.36-1.5.36-1.5.23-.71.58-1.37.58-1.37.36-.67.85-1.36.85-1.36h-3.34v-.75h4.32v.54c-.6.76-.97 1.45-.97 1.45-.37.69-.59 1.41-.59 1.41-.22.72-.32 1.53-.32 1.53-.1.8-.14 1.78-.14 1.78h-.9zm3.36 0zm.43-2.96h2.42v.66h-2.42v-.66zm2.84 2.97zm.83-.71H641v-4.94h-1.22v-.56c.47-.09.81-.21.81-.21.34-.12.62-.29.62-.29h.66v5.99h1.39v.73h-3.78v-.712zm4.4.72zm.83-.712h1.54v-4.94H645v-.56c.46-.09.8-.21.8-.21.34-.12.61-.29.61-.29h.666v5.99h1.38v.73h-3.78v-.71zm4.39.71zm.43-2.96h2.42v.66h-2.42v-.66zm2.84 2.97zm2.62.13c-1.02 0-1.58-.9-1.58-.9-.57-.91-.57-2.6-.57-2.6 0-1.69.56-2.58.56-2.58.56-.88 1.58-.88 1.58-.88 1.01 0 1.57.88 1.57.88.56.88.56 2.57.56 2.57 0 1.69-.57 2.59-.57 2.59-.57.91-1.57.91-1.57.91zm0 0zm0-.69c.3 0 .53-.16.53-.16.24-.17.41-.51.41-.51.18-.34.27-.87.27-.87.1-.53.1-1.27.1-1.27 0-.73-.1-1.26-.1-1.26-.09-.52-.26-.85-.26-.85-.17-.33-.41-.49-.41-.49-.24-.155-.53-.155-.53-.155-.29 0-.54.15-.54.15-.25.16-.42.49-.42.49-.18.33-.27.856-.27.856-.1.52-.1 1.26-.1 1.26 0 1.47.36 2.14.36 2.14.36.67.95.67.95.67zm2.61.57zm.68-1.36c.3.31.7.54.7.54.41.24 1 .24 1 .24.31 0 .57-.11.57-.11.27-.11.47-.31.47-.31.2-.2.32-.48.32-.48.12-.28.12-.63.12-.63 0-.69-.39-1.08-.39-1.08-.39-.39-1.04-.39-1.04-.39-.35 0-.59.1-.59.1-.24.11-.55.31-.55.31l-.46-.29.22-3.23H662v.743h-2.61l-.18 1.99c.24-.13.48-.2.48-.2.24-.07.544-.07.544-.07.43 0 .81.13.81.13.38.13.66.39.66.39.29.25.45.65.45.65.167.39.167.94.167.94 0 .54-.19.963-.19.963-.19.42-.5.71-.5.71-.31.29-.72.44-.72.44-.4.15-.84.15-.84.15-.4 0-.73-.08-.73-.08-.33-.08-.6-.2-.6-.2-.27-.12-.48-.285-.48-.285-.21-.16-.38-.34-.38-.34zm4.54 1.35zm.69-4.31c0-.3.19-.49.19-.49.19-.18.45-.18.45-.18.25 0 .43.19.43.19.19.19.19.49.19.49 0 .28-.18.47-.18.47-.18.19-.43.19-.43.19-.27 0-.45-.18-.45-.18-.19-.18-.19-.46-.19-.46zm0 0zm0 3.795c0-.31.19-.49.19-.49.19-.19.45-.19.45-.19.25 0 .43.19.43.19.19.19.19.49.19.49 0 .29-.18.47-.18.47-.18.19-.43.19-.43.19-.27 0-.45-.18-.45-.18-.19-.18-.19-.46-.19-.46zm4.06.52zm.42-.52c.76-.75 1.35-1.36 1.35-1.36.59-.61.99-1.13.99-1.13.4-.52.61-.95.61-.95.21-.44.21-.85.21-.85 0-.58-.31-.95-.31-.95-.31-.37-.95-.37-.95-.37-.42 0-.78.23-.78.23-.35.23-.65.57-.65.57l-.49-.5c.42-.46.9-.74.9-.74.48-.28 1.14-.28 1.14-.28.94 0 1.47.54 1.47.54.54.55.54 1.44.54 1.44 0 .47-.21.95-.21.95-.2.48-.56.99-.56.99-.37.51-.86 1.06-.86 1.06-.5.557-1.1 1.176-1.1 1.176l.56-.04c.29-.02.56-.02.56-.02h1.94v.75H668v-.52zm4.8.52zm2.62.13c-1.02 0-1.58-.903-1.58-.903-.56-.9-.56-2.593-.56-2.593 0-1.69.57-2.57.57-2.57.57-.88 1.59-.88 1.59-.88 1.01 0 1.58.88 1.58.88.57.88.57 2.57.57 2.57 0 1.69-.56 2.6-.56 2.6-.57.9-1.57.9-1.57.9zm0 0zm0-.693c.3 0 .53-.16.53-.16.24-.165.41-.506.41-.506.18-.35.27-.88.27-.88.1-.53.1-1.27.1-1.27 0-.74-.09-1.26-.09-1.26-.09-.53-.27-.86-.27-.86-.17-.33-.41-.49-.41-.49-.24-.16-.53-.16-.53-.16-.3 0-.54.16-.54.16-.24.16-.42.49-.42.49-.17.33-.26.85-.26.85-.09.52-.09 1.26-.09 1.26 0 1.47.37 2.135.37 2.135.37.665.95.665.95.665zm72.86.57zm.42-.517c.75-.756 1.34-1.365 1.34-1.365.59-.61.99-1.13.99-1.13.4-.52.61-.956.61-.956.21-.44.21-.85.21-.85 0-.58-.31-.95-.31-.95-.32-.37-.96-.37-.96-.37-.42 0-.77.23-.77.23-.35.23-.65.57-.65.57l-.49-.5c.42-.46.9-.74.9-.74.48-.28 1.14-.28 1.14-.28.93 0 1.47.54 1.47.54.54.54.54 1.43.54 1.43 0 .47-.2.95-.2.95-.21.48-.57.99-.57.99-.36.51-.86 1.06-.86 1.06-.5.554-1.1 1.173-1.1 1.173l.57-.04c.29-.02.56-.02.56-.02h1.9v.75h-4.33v-.52zm4.8.515zm2.61.125c-1.02 0-1.59-.9-1.59-.9-.57-.9-.57-2.6-.57-2.6 0-1.69.57-2.57.57-2.57.56-.88 1.58-.88 1.58-.88 1.01 0 1.58.89 1.58.89.57.88.57 2.572.57 2.572 0 1.69-.57 2.6-.57 2.6-.57.9-1.58.9-1.58.9zm0 0zm0-.69c.3 0 .53-.16.53-.16.24-.16.41-.51.41-.51.17-.34.27-.87.27-.87.1-.53.1-1.27.1-1.27 0-.73-.1-1.26-.1-1.26-.1-.52-.27-.85-.27-.85-.18-.33-.41-.49-.41-.49-.24-.156-.53-.156-.53-.156-.3 0-.54.15-.54.15-.24.16-.42.49-.42.49-.18.33-.27.86-.27.86-.1.524-.1 1.26-.1 1.26 0 1.47.37 2.14.37 2.14.36.66.95.66.95.66zm2.61.57zm.83-.72h1.5v-4.95h-1.22v-.56c.47-.09.81-.21.81-.21.34-.12.62-.29.62-.29h.66v5.99h1.39v.72h-3.78v-.72zm4.4.72zm1.86 0c.04-.94.17-1.73.17-1.73.13-.78.35-1.49.35-1.49.23-.71.58-1.37.58-1.37.35-.66.85-1.357.85-1.357h-3.34v-.74h4.32v.53c-.59.76-.97 1.45-.97 1.45-.37.7-.59 1.42-.59 1.42-.22.72-.32 1.52-.32 1.52-.1.808-.14 1.78-.14 1.78h-.89zm3.36 0zm.43-2.96H772v.66h-2.41v-.66zm2.83 2.96zm.83-.71h1.54v-4.94h-1.22v-.56c.47-.09.81-.21.81-.21.34-.12.62-.29.62-.29h.66v5.99H777v.72h-3.78v-.72zm4.39.72zm.83-.71H780v-4.93h-1.22v-.56c.46-.09.81-.21.81-.21.34-.12.61-.29.61-.29h.66v5.99h1.385v.72h-3.78v-.72zm4.39.712zm.43-2.96h2.42v.66h-2.41v-.66zM786 758zm2.616.126c-1.02 0-1.586-.903-1.586-.903-.567-.904-.567-2.595-.567-2.595 0-1.69.568-2.573.568-2.573.57-.883 1.59-.883 1.59-.883 1.01 0 1.58.883 1.58.883.57.882.57 2.573.57 2.573 0 1.69-.57 2.595-.57 2.595-.56.903-1.57.903-1.57.903zm0 0zm0-.693c.294 0 .53-.163.53-.163.237-.163.41-.504.41-.504.173-.342.268-.872.268-.872.1-.53.1-1.266.1-1.266 0-.735-.092-1.26-.092-1.26-.094-.525-.267-.856-.267-.856-.173-.33-.41-.49-.41-.49-.236-.156-.53-.156-.53-.156-.294 0-.536.157-.536.157-.24.158-.42.49-.42.49-.18.33-.27.855-.27.855-.1.525-.1 1.26-.1 1.26 0 1.47.36 2.138.36 2.138.36.667.95.667.95.667zm2.605.567zm2.82-.557c.25 0 .46-.105.46-.105.21-.105.37-.3.37-.3.16-.193.25-.46.25-.46.09-.27.09-.605.09-.605 0-.662-.3-1.04-.3-1.04-.3-.378-.93-.378-.93-.378-.31 0-.68.204-.68.204-.37.2-.71.67-.71.67.09.98.46 1.49.46 1.49.37.51 1.01.51 1.01.51zm0 0zm1.38-5.02c-.21-.242-.5-.384-.5-.384-.29-.15-.61-.15-.61-.15-.34 0-.66.14-.66.14-.31.14-.55.48-.55.48-.24.33-.39.87-.39.87-.14.54-.15 1.34-.15 1.34.32-.39.74-.62.74-.62.42-.23.83-.23.83-.23.87 0 1.39.51 1.39.51.52.51.52 1.55.52 1.55 0 .48-.15.88-.15.88-.15.39-.43.67-.43.67-.27.28-.63.44-.63.44-.35.15-.76.15-.76.15-.49 0-.91-.2-.91-.2-.42-.2-.73-.61-.73-.61-.31-.4-.49-1.01-.49-1.01-.18-.6-.18-1.41-.18-1.41 0-1.01.21-1.72.21-1.72.21-.71.57-1.15.57-1.15.35-.45.81-.65.81-.65.46-.21.96-.21.96-.21.55 0 .94.2.94.2.4.2.68.51.68.51zm1.03 5.577zm.68-4.317c0-.305.18-.49.18-.49.19-.182.45-.182.45-.182.25 0 .44.19.44.19.19.19.19.49.19.49 0 .28-.18.47-.18.47-.18.19-.43.19-.43.19-.26 0-.44-.18-.44-.18-.18-.18-.18-.46-.18-.46zm0 0zm0 3.792c0-.305.18-.49.18-.49.19-.182.45-.182.45-.182.25 0 .44.183.44.183.19.184.19.49.19.49 0 .282-.18.466-.18.466-.18.184-.43.184-.43.184-.26 0-.44-.184-.44-.184-.18-.184-.18-.467-.18-.467zm4.05.525zm.83-.714h1.54v-4.937h-1.22v-.56c.47-.09.81-.21.81-.21.34-.12.62-.29.62-.29h.66v5.99h1.39v.72H802v-.72zm4.39.714zm1.86 0c.04-.945.17-1.733.17-1.733.13-.788.35-1.497.35-1.497.23-.71.58-1.37.58-1.37.35-.663.85-1.356.85-1.356h-3.34v-.746h4.32v.536c-.6.756-.97 1.45-.97 1.45-.37.693-.59 1.412-.59 1.412-.22.72-.32 1.524-.32 1.524-.1.803-.14 1.78-.14 1.78h-.89zm71.03 0zm.42-.515c.76-.756 1.35-1.365 1.35-1.365.59-.61.99-1.13.99-1.13.4-.52.61-.955.61-.955.21-.436.21-.846.21-.846 0-.58-.31-.95-.31-.95-.31-.37-.95-.37-.95-.37-.42 0-.78.23-.78.23-.35.23-.65.57-.65.57l-.49-.5c.42-.46.9-.74.9-.74.48-.28 1.14-.28 1.14-.28.93 0 1.47.54 1.47.54.54.54.54 1.43.54 1.43 0 .47-.2.95-.2.95-.2.48-.56.98-.56.98-.36.51-.86 1.06-.86 1.06-.5.55-1.1 1.17-1.1 1.17l.57-.04c.3-.02.56-.02.56-.02h1.94v.75h-4.33v-.52zm4.8.515zm2.62.126c-1.02 0-1.58-.903-1.58-.903-.56-.904-.56-2.595-.56-2.595 0-1.69.57-2.573.57-2.573.57-.883 1.59-.883 1.59-.883 1.01 0 1.58.883 1.58.883.57.882.57 2.573.57 2.573 0 1.69-.57 2.595-.57 2.595-.56.903-1.57.903-1.57.903zm0 0zm0-.693c.3 0 .53-.163.53-.163.24-.163.41-.504.41-.504.18-.342.27-.872.27-.872.1-.53.1-1.266.1-1.266 0-.735-.09-1.26-.09-1.26-.09-.525-.26-.856-.26-.856-.17-.33-.41-.49-.41-.49-.23-.156-.53-.156-.53-.156-.29 0-.53.157-.53.157-.24.158-.41.49-.41.49-.17.33-.27.855-.27.855-.1.525-.1 1.26-.1 1.26 0 1.47.36 2.138.36 2.138.37.667.95.667.95.667zm2.61.567zm.83-.714h1.54v-4.937h-1.22v-.56c.46-.09.81-.21.81-.21.34-.12.62-.29.62-.29h.66v5.99h1.39v.72h-3.78v-.72zm4.39.714zm1.86 0c.04-.945.17-1.733.17-1.733.13-.788.35-1.497.35-1.497.23-.71.58-1.37.58-1.37.35-.663.85-1.356.85-1.356h-3.34v-.746h4.32v.536c-.59.756-.97 1.45-.97 1.45-.37.693-.59 1.412-.59 1.412-.22.72-.32 1.524-.32 1.524-.1.803-.14 1.78-.14 1.78h-.89zm3.36 0zm.43-2.962h2.42v.662h-2.42v-.662zm2.84 2.962zm.83-.714h1.54v-4.937h-1.22v-.56c.46-.09.81-.21.81-.21.34-.12.61-.29.61-.29h.66v5.99h1.39v.72h-3.78v-.72zm4.39.714zm.83-.714h1.54v-4.937h-1.22v-.56c.46-.09.8-.21.8-.21.35-.12.62-.29.62-.29h.66v5.99h1.38v.72h-3.78v-.72zm4.4.714zm.43-2.962h2.42v.662h-2.41v-.662zm2.83 2.962zm2.62.126c-1.02 0-1.58-.903-1.58-.903-.56-.904-.56-2.595-.56-2.595 0-1.69.57-2.573.57-2.573.57-.883 1.59-.883 1.59-.883 1.01 0 1.58.883 1.58.883.57.882.57 2.573.57 2.573 0 1.69-.56 2.595-.56 2.595-.57.903-1.57.903-1.57.903zm0 0zm0-.693c.3 0 .53-.163.53-.163.24-.163.41-.504.41-.504.18-.342.27-.872.27-.872.1-.53.1-1.266.1-1.266 0-.735-.1-1.26-.1-1.26-.1-.525-.27-.856-.27-.856-.18-.33-.41-.49-.41-.49-.24-.156-.53-.156-.53-.156-.3 0-.54.157-.54.157-.24.158-.42.49-.42.49-.17.33-.26.855-.26.855-.09.525-.09 1.26-.09 1.26 0 1.47.36 2.138.36 2.138.37.667.95.667.95.667zm2.61.567zm1.86 0c.04-.945.17-1.733.17-1.733.12-.788.35-1.497.35-1.497.22-.71.58-1.37.58-1.37.35-.663.84-1.356.84-1.356h-3.34v-.746h4.31v.536c-.6.756-.97 1.45-.97 1.45-.38.693-.6 1.412-.6 1.412-.22.72-.32 1.524-.32 1.524-.1.803-.14 1.78-.14 1.78h-.89zm3.36 0zm.69-4.317c0-.305.19-.49.19-.49.18-.182.44-.182.44-.182.25 0 .43.19.43.19.18.19.18.49.18.49 0 .28-.18.47-.18.47-.18.19-.43.19-.43.19-.26 0-.44-.18-.44-.18-.18-.18-.18-.46-.18-.46zm0 0zm0 3.792c0-.305.19-.49.19-.49.18-.182.44-.182.44-.182.25 0 .43.183.43.183.18.184.18.49.18.49 0 .282-.18.466-.18.466-.18.184-.43.184-.43.184-.26 0-.44-.184-.44-.184-.18-.184-.18-.467-.18-.467zm4.06.525zm.83-.714h1.54v-4.937h-1.22v-.56c.46-.09.8-.21.8-.21.34-.12.62-.29.62-.29h.66v5.99h1.39v.72h-3.78v-.72zm4.39.714zm.72-1.387c.31.315.71.557.71.557.4.242 1 .242 1 .242.61 0 1-.33 1-.33.39-.332.39-.9.39-.9 0-.293-.11-.54-.11-.54-.11-.247-.36-.426-.36-.426-.25-.178-.66-.273-.66-.273-.41-.094-1.01-.094-1.01-.094v-.67c.54 0 .9-.1.9-.1.36-.1.59-.26.59-.26.23-.17.32-.4.32-.4.1-.23.1-.5.1-.5 0-.5-.31-.78-.31-.78-.31-.29-.84-.29-.84-.29-.42 0-.77.19-.77.19-.35.18-.66.49-.66.49l-.46-.55c.39-.37.86-.61.86-.61.47-.24 1.07-.24 1.07-.24.44 0 .81.11.81.11.36.11.63.33.63.33.27.21.42.53.42.53.15.31.15.72.15.72 0 .61-.33 1-.33 1-.34.39-.88.6-.88.6v.04c.31.07.57.21.57.21.27.14.47.35.47.35.2.21.31.5.31.5.11.28.11.63.11.63 0 .44-.17.79-.17.79-.17.35-.47.6-.47.6-.3.25-.7.38-.7.38-.4.13-.86.13-.86.13-.4 0-.73-.08-.73-.08-.33-.08-.61-.21-.61-.21-.27-.13-.49-.3-.49-.3-.21-.17-.38-.36-.38-.36zm4.5 1.387zm.42-.515c.76-.756 1.35-1.365 1.35-1.365.59-.61.99-1.13.99-1.13.4-.52.61-.955.61-.955.21-.436.21-.846.21-.846 0-.58-.31-.95-.31-.95-.31-.37-.95-.37-.95-.37-.42 0-.77.23-.77.23-.35.23-.65.57-.65.57l-.49-.5c.42-.46.9-.74.9-.74.48-.28 1.14-.28 1.14-.28.93 0 1.47.54 1.47.54.53.54.53 1.43.53 1.43 0 .47-.2.95-.2.95-.2.48-.56.98-.56.98-.36.51-.86 1.06-.86 1.06-.5.55-1.1 1.17-1.1 1.17l.57-.04c.29-.02.56-.02.56-.02h1.94v.75h-4.33v-.52z"/></svg>