<svg xmlns="http://www.w3.org/2000/svg" stroke="#000" viewBox="0 0 1024 768" font-size="1"><path fill="#FFF" stroke="none" d="M0 0v768h1024V0z"/><path stroke="none" d="M398.453 14.102zm.215-10.04h2.326l.693 4.696c.092.785.2 1.578.2 1.578.108.793.2 1.594.2 1.594h.062l.3-1.594c.14-.793.3-1.578.3-1.578l1.07-4.697h1.92l1.08 4.7c.15.77.3 1.57.3 1.57l.3 1.61h.06c.11-.81.21-1.6.21-1.6.1-.78.21-1.57.21-1.57l.69-4.69h2.17l-1.79 10.04h-2.85l-.99-4.56c-.13-.58-.23-1.17-.23-1.17-.1-.59-.18-1.14-.18-1.14h-.06l-.2 1.15c-.1.6-.23 1.18-.23 1.18l-.94 4.56h-2.8zm12.305 10.04zm1-10.796h2.265v2.65l-.108 1.37c.432-.386 1-.717 1-.717.57-.34 1.357-.34 1.357-.34 1.247 0 1.81.81 1.81.81.56.81.56 2.26.56 2.26v4.75h-2.263V9.65c0-.832-.223-1.14-.223-1.14-.22-.31-.71-.31-.71-.31-.43 0-.74.195-.74.195-.3.192-.67.547-.67.547v5.16h-2.26V3.305zm7.794 10.796zm.724-2.126c0-1.2 1.02-1.88 1.02-1.88 1.02-.676 3.28-.907 3.28-.907-.03-.51-.31-.81-.31-.81-.27-.3-.89-.3-.89-.3-.49 0-.98.18-.98.18-.49.18-1.04.51-1.04.51l-.8-1.5c.74-.45 1.55-.73 1.55-.73.81-.28 1.72-.28 1.72-.28 1.48 0 2.26.84 2.26.84.78.84.78 2.61.78 2.61v4.38h-1.84l-.17-.79H425c-.494.43-1.04.7-1.04.7-.547.27-1.194.27-1.194.27-.522 0-.94-.18-.94-.18-.413-.18-.706-.5-.706-.5-.294-.32-.455-.73-.455-.73-.163-.42-.163-.91-.163-.91zm0 0zm2.16-.17c0 .37.24.548.24.548.24.177.64.177.64.177.4 0 .68-.17.68-.17.28-.16.59-.47.59-.47v-1.34c-1.21.17-1.68.5-1.68.5-.46.33-.46.77-.46.77zm5.35 2.296zm1.31-5.868h-1.04v-1.68l1.17-.09.26-2.034h1.88v2.033h1.83v1.77h-1.83V11.3c0 .646.27.93.27.93.27.285.72.285.72.285.19 0 .38-.046.38-.046.2-.05.35-.11.35-.11l.36 1.65c-.3.09-.72.18-.72.18-.41.09-.97.09-.97.09-.71 0-1.21-.22-1.21-.22-.5-.22-.81-.6-.81-.6-.31-.39-.46-.94-.46-.94-.14-.55-.14-1.21-.14-1.21V8.23zm7.8 5.868zm2.13-8.763c-.57 0-.94-.34-.94-.34-.37-.33-.37-.86-.37-.86 0-.53.37-.85.37-.85.37-.33.94-.33.94-.33.59 0 .95.32.95.32.37.32.37.84.37.84 0 .52-.36.85-.36.85-.36.33-.94.33-.94.33zm0 0zm-1.13 1.12h2.27v7.64h-2.27V6.46zm3.25 7.64zm1.34-2.3c.53.4 1 .6 1 .6.48.2.97.2.97.2.51 0 .74-.17.74-.17.23-.17.23-.48.23-.48 0-.19-.13-.33-.13-.33-.13-.15-.35-.27-.35-.27-.22-.13-.5-.23-.5-.23-.28-.1-.57-.23-.57-.23-.35-.14-.71-.33-.71-.33-.35-.19-.64-.46-.64-.46-.29-.27-.48-.63-.48-.63-.18-.37-.18-.84-.18-.84 0-.53.21-.97.21-.97.21-.45.59-.76.59-.76.39-.31.93-.49.93-.49.54-.18 1.2-.18 1.2-.18.88 0 1.54.3 1.54.3.67.3 1.16.67 1.16.67l-1.04 1.37c-.41-.31-.81-.48-.81-.48-.4-.17-.8-.17-.8-.17-.86 0-.86.6-.86.6 0 .18.13.31.13.31.12.13.33.24.33.24.21.11.48.21.48.21l.57.21c.37.13.73.31.73.31.36.17.66.43.66.43.3.26.49.64.49.64.18.37.18.9.18.9 0 .52-.2.97-.2.97-.2.44-.6.78-.6.78-.4.33-.98.52-.98.52-.58.19-1.35.19-1.35.19-.75 0-1.54-.29-1.54-.29-.79-.3-1.38-.77-1.38-.77zm8.69 2.29zm1.17 1.11c.11.03.25.06.25.06.14.03.27.03.27.03.57 0 .88-.28.88-.28.31-.28.47-.73.47-.73l.11-.4-2.94-7.44h2.28l1.1 3.28c.17.52.31 1.06.31 1.06.14.54.3 1.11.3 1.11h.06c.12-.54.25-1.09.25-1.09.13-.55.27-1.09.27-1.09l.93-3.28h2.17l-2.65 7.71c-.27.72-.57 1.27-.57 1.27-.3.54-.69.91-.69.91-.39.36-.89.55-.89.55-.5.18-1.18.18-1.18.18-.35 0-.6-.04-.6-.04-.25-.04-.48-.12-.48-.12l.4-1.72zm6.73-1.11zm.56-3.82c0-.96.3-1.7.3-1.7.31-.75.83-1.26.83-1.26.52-.5 1.2-.77 1.2-.77.68-.27 1.4-.27 1.4-.27.73 0 1.4.27 1.4.27.67.27 1.19.77 1.19.77.52.51.83 1.25.83 1.25.31.74.31 1.7.31 1.7 0 .95-.31 1.7-.31 1.7-.31.75-.82 1.25-.82 1.25-.51.5-1.18.77-1.18.77-.67.27-1.39.27-1.39.27-.72 0-1.4-.27-1.4-.27-.68-.27-1.19-.78-1.19-.78-.51-.51-.82-1.26-.82-1.26-.31-.75-.31-1.7-.31-1.7zm0 0zm2.32 0c0 1 .35 1.58.35 1.58.35.58 1.06.58 1.06.58.69 0 1.05-.59 1.05-.59.36-.59.36-1.59.36-1.59 0-1-.35-1.59-.35-1.59-.35-.58-1.04-.58-1.04-.58-.71 0-1.05.58-1.05.58-.34.58-.34 1.59-.34 1.59zm5.67 3.82zm.93-7.64h2.27v4.45c0 .83.23 1.14.23 1.14.23.3.73.3.73.3.43 0 .72-.2.72-.2.3-.2.63-.65.63-.65V6.46h2.27v7.64h-1.84l-.17-1.063h-.05c-.49.584-1.05.915-1.05.915-.56.33-1.35.33-1.35.33-1.25 0-1.81-.815-1.81-.815-.56-.816-.56-2.264-.56-2.264v-4.74zm7.83 7.64zm1-7.64h1.85l.15 1.34h.06c.42-.79 1-1.16 1-1.16.59-.37 1.17-.37 1.17-.37.33 0 .53.04.53.04.21.03.38.11.38.11l-.37 1.96c-.21-.07-.4-.1-.4-.1-.18-.03-.43-.03-.43-.03-.43 0-.9.31-.9.31-.47.31-.78 1.1-.78 1.1v4.43h-2.26V6.46zm8.33 7.64zm3.27.6v2.23h-2.26V6.47h1.85l.16.755h.06c.45-.4 1.01-.67 1.01-.67.57-.27 1.17-.27 1.17-.27.7 0 1.25.277 1.25.277.56.277.94.785.94.785.39.51.6 1.23.6 1.23.21.715.21 1.593.21 1.593 0 .986-.27 1.748-.27 1.748-.27.763-.72 1.295-.72 1.295-.46.534-1.04.81-1.04.81-.58.278-1.19.278-1.19.278-.49 0-.95-.21-.95-.21-.46-.21-.86-.59-.86-.59zm0 0zm0-2.76c.31.27.62.38.62.38.31.1.6.1.6.1.59 0 1-.53 1-.53.42-.54.42-1.72.42-1.72 0-2.07-1.32-2.07-1.32-2.07-.66 0-1.31.7-1.31.7v3.12zm5.56 2.15zm1.01-7.64h1.85l.16 1.34h.06c.42-.79 1-1.15 1-1.15.59-.37 1.17-.37 1.17-.37.33 0 .53.04.53.04.21.03.38.11.38.11l-.37 1.95c-.22-.07-.4-.1-.4-.1-.19-.03-.43-.03-.43-.03-.43 0-.9.31-.9.31-.47.3-.77 1.09-.77 1.09v4.44h-2.26V6.46zm4.97 7.64zm.55-3.82c0-.92.31-1.67.31-1.67.31-.75.81-1.26.81-1.26.5-.52 1.15-.8 1.15-.8.64-.28 1.34-.28 1.34-.28.81 0 1.42.28 1.42.28.61.27 1.02.77 1.02.77.41.49.61 1.16.61 1.16.2.67.2 1.45.2 1.45 0 .31-.03.56-.03.56-.03.25-.06.39-.06.39h-4.57c.16.87.69 1.27.69 1.27.53.39 1.3.39 1.3.39.81 0 1.64-.51 1.64-.51l.76 1.37c-.58.4-1.3.63-1.3.63-.71.23-1.41.23-1.41.23-.81 0-1.52-.27-1.52-.27-.7-.27-1.23-.79-1.23-.79-.52-.52-.81-1.25-.81-1.25-.29-.74-.29-1.7-.29-1.7zm0 0zm4.93-.79c0-.66-.29-1.08-.29-1.08-.29-.42-.99-.42-.99-.42-.54 0-.94.36-.94.36-.41.36-.53 1.13-.53 1.13h2.76zm2.42 4.6zm5.32-9.04c-.43-.16-.79-.16-.79-.16-.41 0-.64.25-.64.25-.23.25-.23.84-.23.84v.46h1.37V8.2h-1.37v5.87H510V8.23h-1.018V6.55L510 6.474v-.42c0-.6.15-1.14.15-1.14.144-.54.483-.94.483-.94.34-.4.88-.63.88-.63.54-.233 1.31-.233 1.31-.233.476 0 .87.1.87.1.39.09.653.19.653.19zm-.22 9.04zm.56-3.82c0-.93.31-1.67.31-1.67.31-.75.81-1.27.81-1.27.5-.52 1.15-.8 1.15-.8.65-.28 1.34-.28 1.34-.28.82 0 1.43.27 1.43.27.61.27 1.02.77 1.02.77.41.49.61 1.16.61 1.16.2.67.2 1.46.2 1.46 0 .31-.03.57-.03.57-.03.25-.06.39-.06.39h-4.58c.16.87.69 1.27.69 1.27.54.39 1.31.39 1.31.39.81 0 1.65-.51 1.65-.51l.76 1.37c-.58.4-1.3.63-1.3.63-.71.23-1.41.23-1.41.23-.81 0-1.52-.27-1.52-.27-.71-.27-1.23-.79-1.23-.79-.52-.51-.82-1.25-.82-1.25-.29-.74-.29-1.69-.29-1.69zm0 0zm4.93-.79c0-.67-.29-1.08-.29-1.08-.3-.42-1-.42-1-.42-.54 0-.95.36-.95.36-.4.37-.53 1.14-.53 1.14h2.76zm2.49 4.6zm1-7.64h1.85l.16 1.34h.06c.42-.78 1-1.15 1-1.15.59-.37 1.17-.37 1.17-.37.33 0 .53.04.53.04.21.04.38.12.38.12l-.37 1.95c-.22-.06-.4-.09-.4-.09-.19-.03-.43-.03-.43-.03-.44 0-.91.31-.91.31-.47.31-.78 1.09-.78 1.09v4.43h-2.27v-7.6zm5.13 7.64zm1-7.64h1.85l.16 1.34h.06c.42-.78 1-1.15 1-1.15.59-.37 1.17-.37 1.17-.37.33 0 .53.04.53.04.21.04.38.12.38.12l-.37 1.95c-.21-.06-.4-.09-.4-.09-.18-.03-.43-.03-.43-.03-.43 0-.9.31-.9.31-.47.31-.77 1.09-.77 1.09v4.43h-2.26v-7.6zm4.98 7.64zm.56-3.82c0-.92.31-1.67.31-1.67.31-.74.81-1.26.81-1.26.5-.51 1.15-.79 1.15-.79.65-.28 1.34-.28 1.34-.28.82 0 1.42.27 1.42.27.61.28 1.02.77 1.02.77.41.49.61 1.16.61 1.16.2.67.2 1.45.2 1.45 0 .31-.03.57-.03.57-.03.25-.06.39-.06.39h-4.58c.16.88.69 1.27.69 1.27.53.39 1.3.39 1.3.39.82 0 1.65-.51 1.65-.51l.75 1.37c-.59.4-1.3.63-1.3.63-.72.23-1.41.23-1.41.23-.82 0-1.53-.27-1.53-.27-.71-.27-1.23-.79-1.23-.79-.52-.51-.82-1.25-.82-1.25-.29-.74-.29-1.69-.29-1.69zm0 0zm4.93-.78c0-.66-.29-1.08-.29-1.08-.3-.42-.99-.42-.99-.42-.54 0-.94.36-.94.36-.41.36-.53 1.13-.53 1.13h2.75zm2.5 4.6zm.6-3.82c0-.94.27-1.68.27-1.68.27-.74.71-1.26.71-1.26.44-.52 1.01-.8 1.01-.8.58-.28 1.18-.28 1.18-.28.65 0 1.06.22 1.06.22.42.22.82.58.82.58l-.09-1.17V3.3h2.26v10.8h-1.85l-.16-.754h-.06c-.4.4-.94.67-.94.67-.54.27-1.09.27-1.09.27-.71 0-1.28-.278-1.28-.278-.58-.278-.98-.794-.98-.794-.41-.516-.63-1.255-.63-1.255-.22-.74-.22-1.68-.22-1.68zm0 0zm2.33-.03c0 1.14.37 1.66.37 1.66.36.52 1.03.52 1.03.52.37 0 .67-.15.67-.15.3-.15.58-.54.58-.54V8.6c-.3-.276-.63-.384-.63-.384-.32-.11-.63-.11-.63-.11-.54 0-.95.517-.95.517-.41.514-.41 1.61-.41 1.61zm9.1 3.85zm1-10.79h2.27v2.65l-.09 1.2c.45-.4.96-.63.96-.63.52-.23 1.06-.23 1.06-.23.69 0 1.25.28 1.25.28.55.28.94.78.94.78.39.5.6 1.22.6 1.22.21.72.21 1.59.21 1.59 0 .99-.27 1.76-.27 1.76-.27.77-.73 1.3-.73 1.3-.46.53-1.04.81-1.04.81-.58.28-1.2.28-1.2.28-.51 0-1.03-.24-1.03-.24-.52-.24-.97-.74-.97-.74h-.06l-.19.8h-1.77V3.31zm0 0zm2.27 8.64c.31.27.62.38.62.38.31.11.6.11.6.11.58 0 1-.53 1-.53.41-.54.41-1.72.41-1.72 0-2.07-1.32-2.07-1.32-2.07-.68 0-1.31.69-1.31.69v3.13zm5.56 2.15zm.93-7.64h2.27v4.45c0 .83.23 1.14.23 1.14.23.31.73.31.73.31.43 0 .72-.2.72-.2.3-.2.64-.65.64-.65v-5h2.27v7.63h-1.85l-.17-1.07h-.04c-.49.58-1.06.91-1.06.91-.57.33-1.35.33-1.35.33-1.25 0-1.81-.82-1.81-.82-.56-.82-.56-2.27-.56-2.27V6.46zm7.83 7.64zm2.12-8.76c-.57 0-.94-.33-.94-.33-.37-.33-.37-.86-.37-.86 0-.53.37-.85.37-.85.37-.33.94-.33.94-.33.59 0 .95.32.95.32.36.33.36.85.36.85 0 .53-.36.86-.36.86-.36.33-.94.33-.94.33zm0 0zm-1.12 1.13h2.27v7.64h-2.27V6.46zm3.25 7.64zm1-10.8h2.27v8.52c0 .35.13.49.13.49.13.14.27.14.27.14h.13l.15-.04.28 1.68c-.18.07-.47.13-.47.13-.28.05-.67.05-.67.05-.58 0-.99-.19-.99-.19-.4-.18-.64-.51-.64-.51-.24-.33-.34-.8-.34-.8-.1-.47-.1-1.05-.1-1.05V3.3zm3.4 10.79zm.6-3.82c0-.94.27-1.68.27-1.68.27-.74.71-1.26.71-1.26.44-.52 1.02-.8 1.02-.8.58-.28 1.18-.28 1.18-.28.65 0 1.07.21 1.07.21.41.22.81.59.81.59l-.09-1.17V3.3h2.26v10.8H586l-.155-.754h-.06c-.4.4-.94.67-.94.67-.54.27-1.09.27-1.09.27-.71 0-1.287-.278-1.287-.278-.577-.278-.985-.794-.985-.794-.41-.516-.634-1.255-.634-1.255-.22-.74-.22-1.68-.22-1.68zm0 0zm2.33-.03c0 1.14.36 1.66.36 1.66.36.53 1.02.53 1.02.53.37 0 .67-.16.67-.16.3-.16.58-.54.58-.54V8.6c-.31-.28-.63-.386-.63-.386-.32-.108-.63-.108-.63-.108-.54 0-.95.514-.95.514-.41.517-.41 1.61-.41 1.61zm9.1 3.85zm1.31-5.87h-1.05V6.55l1.17-.09.26-2.035h1.88V6.46h1.83v1.77h-1.83v3.07c0 .646.26.93.26.93.27.285.72.285.72.285.19 0 .38-.046.38-.046.19-.05.35-.11.35-.11l.36 1.65c-.31.09-.72.18-.72.18-.42.09-.98.09-.98.09-.71 0-1.21-.22-1.21-.22-.5-.22-.82-.6-.82-.6-.32-.39-.46-.94-.46-.94-.14-.55-.14-1.21-.14-1.21V8.23zm4.43 5.86zm.56-3.82c0-.95.31-1.7.31-1.7.31-.75.82-1.26.82-1.26.52-.51 1.2-.78 1.2-.78.68-.27 1.4-.27 1.4-.27.72 0 1.39.27 1.39.27.67.27 1.18.78 1.18.78.51.51.82 1.25.82 1.25.31.75.31 1.7.31 1.7 0 .96-.31 1.7-.31 1.7-.31.75-.83 1.26-.83 1.26-.51.5-1.18.77-1.18.77-.67.27-1.4.27-1.4.27-.72 0-1.4-.27-1.4-.27-.67-.27-1.19-.78-1.19-.78-.51-.51-.82-1.26-.82-1.26-.31-.74-.31-1.7-.31-1.7zm0 0zm2.33 0c0 1 .35 1.59.35 1.59.35.59 1.06.59 1.06.59.69 0 1.05-.59 1.05-.59.35-.59.35-1.59.35-1.59 0-1-.35-1.59-.35-1.59-.35-.59-1.05-.59-1.05-.59-.71 0-1.05.58-1.05.58-.35.58-.35 1.58-.35 1.58zm5.67 3.82zm.56-3.82c0-.95.31-1.7.31-1.7.31-.75.82-1.26.82-1.26.52-.51 1.2-.78 1.2-.78.68-.27 1.4-.27 1.4-.27.72 0 1.39.27 1.39.27.67.27 1.19.78 1.19.78.51.51.82 1.25.82 1.25.3.75.3 1.7.3 1.7 0 .96-.31 1.7-.31 1.7-.31.75-.82 1.26-.82 1.26-.51.5-1.18.77-1.18.77-.67.27-1.39.27-1.39.27-.73 0-1.4-.27-1.4-.27-.68-.27-1.2-.78-1.2-.78-.52-.51-.82-1.26-.82-1.26-.31-.74-.31-1.7-.31-1.7zm0 0zm2.33 0c0 1 .35 1.59.35 1.59.34.59 1.05.59 1.05.59.69 0 1.05-.59 1.05-.59.35-.59.35-1.59.35-1.59 0-1-.36-1.59-.36-1.59-.35-.59-1.04-.59-1.04-.59-.71 0-1.05.58-1.05.58-.34.58-.34 1.58-.34 1.58zm5.67 3.82zm1-10.8h2.26v8.52c0 .36.13.49.13.49.14.14.27.14.27.14h.13l.15-.03.28 1.68c-.19.08-.47.13-.47.13-.29.06-.67.06-.67.06-.59 0-.99-.19-.99-.19-.4-.19-.64-.52-.64-.52-.23-.33-.34-.8-.34-.8-.11-.47-.11-1.06-.11-1.06V3.3zm3.4 10.79zm2.37-3.56c-.08-.53.04-.96.04-.96.11-.43.33-.8.33-.8.22-.37.49-.68.49-.68l.52-.59c.25-.28.41-.55.41-.55.16-.27.16-.57.16-.57 0-.48-.28-.73-.28-.73-.29-.25-.75-.25-.75-.25-.43 0-.77.2-.77.2-.33.2-.64.51-.64.51L619.91 5c.524-.63 1.233-1.016 1.233-1.016.708-.385 1.57-.385 1.57-.385.647 0 1.21.15 1.21.15.56.15.97.47.97.47.408.32.64.82.64.82.23.5.23 1.18.23 1.18 0 .47-.17.85-.17.85-.17.37-.423.7-.423.7-.254.32-.54.62-.54.62-.284.3-.523.62-.523.62-.24.32-.38.68-.38.68-.14.36-.098.82-.098.82h-1.99zm0 0zm-.37 2.32c0-.61.39-1.02.39-1.02.39-.41.97-.41.97-.41.59 0 .98.41.98.41.39.41.39 1.02.39 1.02 0 .6-.39 1.01-.39 1.01-.39.41-.98.41-.98.41-.59 0-.97-.41-.97-.41-.39-.41-.39-1.01-.39-1.01z"/><path fill="none" stroke="#D3D3D3" stroke-miterlimit="10" d="M39.59 738h954.85M39.59 562.25h954.85M39.59 386.5h954.85M39.59 210.75h954.85M39.59 35h954.85" stroke-dasharray="5 5"/><g fill="#5C3566" stroke-opacity="0" stroke-width="0" stroke-miterlimit="10" stroke-linejoin="bevel"><defs><clipPath id="a"><path d="M39.59 35v703h954.85V35z"/></clipPath></defs><g clip-path="url(#a)"><path stroke="none" d="M54.59 738V141.153h160.97V738z"/></g></g><g fill-opacity="0" stroke-miterlimit="10"><defs><clipPath id="b"><path d="M39.59 35v703h954.85V35z"/></clipPath></defs><g clip-path="url(#b)"><path fill="none" d="M54.59 738V141.153h160.97V738z"/></g></g><g fill="#5C3566" stroke-opacity="0" stroke-width="0" stroke-miterlimit="10" stroke-linejoin="bevel"><defs><clipPath id="c"><path d="M39.59 35v703h954.85V35z"/></clipPath></defs><g clip-path="url(#c)"><path stroke="none" d="M245.56 738V619.896h160.97V738z"/></g></g><g fill-opacity="0" stroke-miterlimit="10"><defs><clipPath id="d"><path d="M39.59 35v703h954.85V35z"/></clipPath></defs><g clip-path="url(#d)"><path fill="none" d="M245.56 738V619.896h160.97V738z"/></g></g><g fill="#5C3566" stroke-opacity="0" stroke-width="0" stroke-miterlimit="10" stroke-linejoin="bevel"><defs><clipPath id="e"><path d="M39.59 35v703h954.85V35z"/></clipPath></defs><g clip-path="url(#e)"><path stroke="none" d="M436.53 738v-73.815H597.5V738z"/></g></g><g fill-opacity="0" stroke-miterlimit="10"><defs><clipPath id="f"><path d="M39.59 35v703h954.85V35z"/></clipPath></defs><g clip-path="url(#f)"><path fill="none" d="M436.53 738v-73.815H597.5V738z"/></g></g><g fill="#5C3566" stroke-opacity="0" stroke-width="0" stroke-miterlimit="10" stroke-linejoin="bevel"><defs><clipPath id="g"><path d="M39.59 35v703h954.85V35z"/></clipPath></defs><g clip-path="url(#g)"><path stroke="none" d="M627.5 738v-9.842h160.97V738z"/></g></g><g fill-opacity="0" stroke-miterlimit="10"><defs><clipPath id="h"><path d="M39.59 35v703h954.85V35z"/></clipPath></defs><g clip-path="url(#h)"><path fill="none" d="M627.5 738v-9.842h160.97V738z"/></g></g><g fill="#5C3566" stroke-opacity="0" stroke-width="0" stroke-miterlimit="10" stroke-linejoin="bevel"><defs><clipPath id="i"><path d="M39.59 35v703h954.85V35z"/></clipPath></defs><g clip-path="url(#i)"><path stroke="none" d="M818.47 738v-21.793h160.97V738z"/></g></g><g fill-opacity="0" stroke-miterlimit="10"><defs><clipPath id="j"><path d="M39.59 35v703h954.85V35z"/></clipPath></defs><g clip-path="url(#j)"><path fill="none" d="M818.47 738v-21.793h160.97V738z"/></g></g><path fill="none" stroke-miterlimit="10" d="M39.59 738V35" stroke-linecap="square"/><path fill="none" stroke-miterlimit="10" d="M39.59 738h2m-2-70.3h2m-2-70.3h2m-2-70.3h2m-2-70.3h2m-2-70.3h2m-2-70.3h2m-2-70.3h2m-2-70.3h2m-2-70.3h2m-2-70.3h2m-2 703h5m-5-175.75h5m-5-175.75h5m-5-175.75h5M39.59 35h5"/><path stroke="none" d="M25.294 741.445zm2.616.126c-1.02 0-1.586-.9-1.586-.9-.568-.9-.568-2.59-.568-2.59 0-1.69.568-2.57.568-2.57.567-.88 1.586-.88 1.586-.88 1.008 0 1.575.88 1.575.88.568.89.568 2.58.568 2.58 0 1.69-.568 2.6-.568 2.6-.567.91-1.575.91-1.575.91zm0 0zm0-.69c.294 0 .53-.16.53-.16.236-.16.41-.5.41-.5.173-.34.268-.87.268-.87.094-.53.094-1.26.094-1.26 0-.73-.094-1.26-.094-1.26-.095-.52-.268-.85-.268-.85-.173-.33-.41-.49-.41-.49-.236-.16-.53-.16-.53-.16-.294 0-.536.16-.536.16-.242.16-.415.49-.415.49-.18.33-.27.86-.27.86-.1.53-.1 1.26-.1 1.26 0 1.47.36 2.14.36 2.14.36.67.95.67.95.67zM14.77 565.7zm.42-.514c.755-.754 1.344-1.363 1.344-1.363.588-.61.987-1.13.987-1.13.4-.52.61-.955.61-.955.21-.434.21-.844.21-.844 0-.576-.31-.944-.31-.944-.31-.37-.95-.37-.95-.37-.42 0-.77.24-.77.24-.35.235-.65.57-.65.57l-.49-.492c.42-.462.9-.74.9-.74.48-.28 1.14-.28 1.14-.28.94 0 1.47.543 1.47.543.54.54.54 1.44.54 1.44 0 .47-.2.95-.2.95-.2.48-.57.99-.57.99-.36.51-.86 1.06-.86 1.06-.5.56-1.09 1.18-1.09 1.18l.57-.04c.3-.02.56-.02.56-.02h1.95v.75H15.2v-.51zm4.8.517zm.682-1.355c.294.307.7.538.7.538.403.23.99.23.99.23.306 0 .574-.11.574-.11.268-.11.467-.31.467-.31.2-.2.315-.482.315-.482.116-.283.116-.63.116-.63 0-.693-.39-1.082-.39-1.082-.387-.387-1.04-.387-1.04-.387-.345 0-.592.106-.592.106-.247.11-.552.31-.552.31l-.462-.29.22-3.22h3.352v.75h-2.595l-.18 1.99c.243-.12.485-.2.485-.2.24-.07.546-.07.546-.07.43 0 .81.13.81.13.377.13.66.39.66.39.284.26.447.65.447.65.163.4.163.94.163.94 0 .55-.19.97-.19.97-.19.42-.504.71-.504.71-.315.29-.72.44-.72.44-.404.15-.845.15-.845.15-.4 0-.73-.08-.73-.08-.33-.08-.598-.2-.598-.2-.27-.12-.49-.29-.49-.29-.22-.16-.39-.34-.39-.34zm4.538 1.357zm2.616.127c-1.02 0-1.586-.903-1.586-.903-.568-.91-.568-2.6-.568-2.6 0-1.69.567-2.58.567-2.58.56-.88 1.58-.88 1.58-.88 1.01 0 1.57.88 1.57.88.56.88.56 2.57.56 2.57 0 1.69-.57 2.59-.57 2.59-.57.9-1.58.9-1.58.9zm0 0zm0-.693c.294 0 .53-.17.53-.17.236-.16.41-.51.41-.51.173-.34.268-.87.268-.87.094-.53.094-1.27.094-1.27 0-.74-.094-1.26-.094-1.26-.095-.53-.268-.86-.268-.86-.173-.33-.41-.49-.41-.49-.236-.16-.53-.16-.53-.16-.294 0-.536.16-.536.16-.242.15-.415.48-.415.48-.173.33-.268.85-.268.85-.094.52-.094 1.26-.094 1.26 0 1.47.362 2.13.362 2.13.362.67.95.67.95.67zM14.653 389.95zm.683-1.355c.294.308.7.54.7.54.403.23.99.23.99.23.306 0 .574-.11.574-.11.268-.11.467-.31.467-.31.2-.2.315-.483.315-.483.116-.284.116-.63.116-.63 0-.694-.39-1.082-.39-1.082-.388-.39-1.04-.39-1.04-.39-.345 0-.592.106-.592.106-.247.105-.552.304-.552.304l-.462-.294.22-3.226h3.35v.745H16.44l-.18 1.98c.242-.126.483-.2.483-.2.242-.072.547-.072.547-.072.43 0 .808.127.808.127.38.126.662.383.662.383.284.257.447.65.447.65.162.395.162.94.162.94 0 .548-.19.968-.19.968-.19.42-.51.71-.51.71-.32.29-.72.44-.72.44-.41.16-.85.16-.85.16-.4 0-.73-.08-.73-.08-.33-.08-.6-.2-.6-.2-.27-.12-.48-.29-.48-.29-.22-.16-.39-.34-.39-.34zm4.538 1.358zm2.616.127c-1.02 0-1.587-.9-1.587-.9-.567-.903-.567-2.595-.567-2.595 0-1.69.567-2.574.567-2.574.568-.88 1.586-.88 1.586-.88 1 0 1.57.88 1.57.88.56.89.56 2.58.56 2.58 0 1.69-.57 2.6-.57 2.6-.57.91-1.58.91-1.58.91zm0 0zm0-.69c.294 0 .53-.163.53-.163.236-.162.41-.504.41-.504.173-.34.268-.87.268-.87.094-.53.094-1.266.094-1.266 0-.738-.094-1.26-.094-1.26-.095-.528-.268-.86-.268-.86-.174-.33-.41-.49-.41-.49-.236-.16-.53-.16-.53-.16-.295 0-.536.16-.536.16-.242.158-.415.49-.415.49-.18.33-.27.855-.27.855-.1.524-.1 1.26-.1 1.26 0 1.47.36 2.137.36 2.137.36.66.95.66.95.66zm2.605.567zm2.615.126c-1.02 0-1.586-.902-1.586-.902-.567-.9-.567-2.59-.567-2.59 0-1.69.567-2.57.567-2.57.567-.88 1.586-.88 1.586-.88 1.01 0 1.576.89 1.576.89.567.88.567 2.58.567 2.58 0 1.69-.567 2.6-.567 2.6-.567.91-1.576.91-1.576.91zm0 0zm0-.692c.294 0 .53-.16.53-.16.237-.16.41-.5.41-.5.174-.34.268-.87.268-.87.095-.53.095-1.26.095-1.26 0-.73-.095-1.26-.095-1.26-.094-.52-.268-.85-.268-.85-.173-.33-.41-.48-.41-.48-.236-.16-.53-.16-.53-.16-.294 0-.536.16-.536.16-.24.16-.414.49-.414.49-.174.33-.268.86-.268.86-.095.53-.095 1.26-.095 1.26 0 1.47.363 2.14.363 2.14.362.67.95.67.95.67zM14.853 214.2zm1.86 0c.04-.945.167-1.733.167-1.733.126-.788.352-1.497.352-1.497.226-.71.578-1.37.578-1.37.352-.662.846-1.355.846-1.355h-3.34v-.74h4.316v.534c-.598.75-.97 1.45-.97 1.45-.374.69-.595 1.41-.595 1.41-.22.72-.32 1.52-.32 1.52-.1.8-.142 1.78-.142 1.78h-.893zm3.36 0zm.683-1.355c.294.31.7.54.7.54.403.23.99.23.99.23.306 0 .574-.11.574-.11.268-.11.467-.31.467-.31.2-.2.315-.48.315-.48.116-.285.116-.63.116-.63 0-.695-.39-1.084-.39-1.084-.387-.38-1.04-.38-1.04-.38-.345 0-.592.11-.592.11-.247.11-.552.31-.552.31l-.462-.29.22-3.22h3.352v.74H21.86l-.18 1.99c.242-.12.484-.2.484-.2.24-.07.546-.07.546-.07.43 0 .81.13.81.13.377.13.66.38.66.38.284.26.447.66.447.66.163.39.163.94.163.94 0 .55-.19.97-.19.97-.19.42-.504.71-.504.71-.315.29-.72.44-.72.44-.404.16-.845.16-.845.16-.39 0-.73-.07-.73-.07-.33-.08-.59-.2-.59-.2-.27-.13-.48-.29-.48-.29-.21-.16-.38-.34-.38-.34zm4.538 1.36zm2.616.126c-1.02 0-1.586-.9-1.586-.9-.568-.9-.568-2.59-.568-2.59 0-1.69.568-2.57.568-2.57.567-.88 1.586-.88 1.586-.88 1.008 0 1.575.88 1.575.88.568.89.568 2.58.568 2.58 0 1.69-.568 2.6-.568 2.6-.567.91-1.575.91-1.575.91zm0 0zm0-.69c.294 0 .53-.16.53-.16.236-.16.41-.5.41-.5.173-.34.268-.87.268-.87.094-.53.094-1.26.094-1.26 0-.74-.094-1.26-.094-1.26-.095-.53-.268-.86-.268-.86-.173-.33-.41-.49-.41-.49-.236-.16-.53-.16-.53-.16-.294 0-.536.16-.536.16-.242.16-.415.49-.415.49-.18.33-.27.86-.27.86-.1.53-.1 1.26-.1 1.26 0 1.47.36 2.14.36 2.14.36.67.95.67.95.67zM10 38.45zm.83-.715h1.533V32.8h-1.218v-.557c.462-.084.804-.204.804-.204.34-.12.61-.29.61-.29h.66v5.98h1.38v.71h-3.78v-.72zm4.39.72zm2.616.13c-1.02 0-1.586-.902-1.586-.902-.567-.9-.567-2.593-.567-2.593 0-1.69.567-2.573.567-2.573.567-.882 1.586-.882 1.586-.882 1.01 0 1.576.884 1.576.884.567.88.567 2.57.567 2.57 0 1.69-.57 2.59-.57 2.59-.57.9-1.58.9-1.58.9zm0 0zm0-.692c.294 0 .53-.16.53-.16.237-.16.41-.504.41-.504.174-.34.268-.87.268-.87.095-.53.095-1.27.095-1.27 0-.74-.1-1.26-.1-1.26-.1-.53-.27-.86-.27-.86-.18-.33-.41-.49-.41-.49-.24-.16-.53-.16-.53-.16-.3 0-.54.16-.54.16-.24.15-.42.48-.42.48-.18.33-.27.85-.27.85-.1.53-.1 1.26-.1 1.26 0 1.47.36 2.14.36 2.14.36.67.95.67.95.67zm2.605.57zm2.62.126c-1.02 0-1.58-.91-1.58-.91-.56-.9-.56-2.59-.56-2.59 0-1.69.57-2.57.57-2.57.57-.88 1.59-.88 1.59-.88 1.01 0 1.58.88 1.58.88.57.88.57 2.57.57 2.57 0 1.69-.56 2.59-.56 2.59-.57.9-1.58.9-1.58.9zm0 0zm0-.7c.3 0 .53-.16.53-.16.24-.16.41-.51.41-.51.18-.34.27-.87.27-.87.1-.53.1-1.27.1-1.27 0-.74-.09-1.26-.09-1.26-.09-.53-.27-.86-.27-.86-.17-.33-.41-.49-.41-.49-.23-.16-.53-.16-.53-.16-.29 0-.53.16-.53.16-.24.15-.41.48-.41.48-.17.33-.27.85-.27.85-.09.52-.09 1.26-.09 1.26 0 1.47.36 2.14.36 2.14.36.66.95.66.95.66zm2.61.57zm2.62.12c-1.02 0-1.58-.91-1.58-.91-.56-.91-.56-2.6-.56-2.6 0-1.69.57-2.58.57-2.58.57-.89 1.59-.89 1.59-.89 1.01 0 1.58.88 1.58.88.57.88.57 2.57.57 2.57 0 1.69-.57 2.59-.57 2.59-.56.9-1.57.9-1.57.9zm0 0zm0-.7c.3 0 .53-.17.53-.17.24-.16.41-.5.41-.5.18-.34.27-.87.27-.87.1-.53.1-1.27.1-1.27 0-.74-.09-1.26-.09-1.26-.09-.53-.26-.86-.26-.86-.17-.33-.41-.49-.41-.49-.23-.16-.53-.16-.53-.16-.29 0-.53.16-.53.16-.24.15-.41.48-.41.48-.17.33-.27.86-.27.86-.1.53-.1 1.26-.1 1.26 0 1.47.36 2.14.36 2.14.36.67.95.67.95.67z"/><path fill="none" stroke-miterlimit="10" d="M39.59 738h954.85" stroke-linecap="square"/><path stroke="none" d="M113.185 758zm.966-1.502c.37.39.87.625.87.625.5.236 1.04.236 1.04.236.69 0 1.06-.31 1.06-.31.38-.31.38-.82.38-.82 0-.26-.09-.45-.09-.45-.09-.19-.24-.32-.24-.32-.15-.13-.36-.24-.36-.24-.21-.11-.45-.22-.45-.22l-.99-.43c-.24-.11-.49-.26-.49-.26-.25-.15-.45-.36-.45-.36-.2-.21-.32-.5-.32-.5-.13-.29-.13-.67-.13-.67 0-.39.17-.73.17-.73.17-.34.46-.59.46-.59.29-.25.68-.39.68-.39.39-.14.87-.14.87-.14.62 0 1.15.23 1.15.23.53.24.9.61.9.61l-.47.56c-.31-.31-.69-.48-.69-.48-.38-.17-.86-.17-.86-.17-.58 0-.93.26-.93.26-.35.27-.35.74-.35.74 0 .25.1.42.1.42.1.17.27.3.27.3.17.14.37.23.37.23.2.1.41.19.41.19l.98.42c.29.13.56.29.56.29.27.16.45.38.45.38.19.21.3.5.3.5.11.29.11.66.11.66 0 .41-.16.76-.16.76-.16.35-.47.62-.47.62-.3.26-.73.42-.73.42-.43.15-.97.15-.97.15-.72 0-1.34-.27-1.34-.27-.62-.27-1.07-.75-1.07-.75zM118.8 758zm1.008-4.4h-.756v-.653l.797-.052.1-1.43h.72v1.43h1.37v.704h-1.38v2.83c0 .47.17.73.17.73.17.25.61.25.61.25.13 0 .29-.04.29-.04.16-.05.29-.1.29-.1l.17.65c-.21.07-.46.13-.46.13-.24.05-.49.05-.49.05-.41 0-.69-.13-.69-.13-.28-.13-.45-.35-.45-.35-.17-.22-.25-.54-.25-.54-.07-.32-.07-.7-.07-.7v-2.82zm2.353 4.4zm.61-1.323c0-.84.75-1.287.75-1.287.75-.447 2.39-.625 2.39-.625 0-.242-.04-.473-.04-.473-.04-.23-.17-.41-.17-.41-.12-.178-.32-.29-.32-.29-.2-.11-.51-.11-.51-.11-.45 0-.83.17-.83.17-.38.167-.68.377-.68.377l-.34-.6c.36-.23.87-.45.87-.45.52-.22 1.14-.22 1.14-.22.94 0 1.36.57 1.36.57.42.57.42 1.53.42 1.53V758h-.71l-.07-.61H126c-.37.306-.795.52-.795.52-.424.216-.9.216-.9.216-.65 0-1.073-.378-1.073-.378-.43-.378-.43-1.07-.43-1.07zm0 0zm.85-.064c0 .442.26.63.26.63.26.19.64.19.64.19.37 0 .7-.173.7-.173.33-.174.7-.51.7-.51v-1.418c-.64.084-1.08.2-1.08.2-.44.115-.71.273-.71.273-.26.157-.38.362-.38.362-.11.205-.11.446-.11.446zm3.92 1.387zm.49-2.542c0-.64.2-1.14.2-1.14.2-.5.54-.845.54-.845.34-.347.78-.525.78-.525.45-.18.94-.18.94-.18.51 0 .87.185.87.185.37.184.63.425.63.425l-.43.557c-.23-.2-.48-.326-.48-.326-.24-.13-.55-.13-.55-.13-.35 0-.64.14-.64.14-.29.14-.5.4-.5.4-.21.26-.33.62-.33.62-.12.36-.12.8-.12.8 0 .44.12.8.12.8.12.35.32.61.32.61.21.25.5.4.5.4.3.14.64.14.64.14.37 0 .67-.15.67-.15.3-.16.53-.37.53-.37l.39.56c-.34.3-.77.48-.77.48-.42.18-.89.18-.89.18-.5 0-.94-.18-.94-.18-.44-.18-.76-.52-.76-.52-.32-.34-.5-.84-.5-.84-.18-.5-.18-1.13-.18-1.13zm4.3 2.542zm.87-7.48h.85v5.064h.03l2.17-2.69h.96l-1.71 2.05 1.94 3.056h-.95l-1.49-2.458-.95 1.113V758h-.85v-7.48zm4.34 7.48zm.69-4.317c0-.305.19-.49.19-.49.19-.182.45-.182.45-.182.25 0 .44.19.44.19.18.19.18.49.18.49 0 .28-.19.47-.19.47-.18.19-.43.19-.43.19-.26 0-.45-.18-.45-.18-.18-.18-.18-.46-.18-.46zm0 0zm0 3.792c0-.305.19-.49.19-.49.19-.182.45-.182.45-.182.25 0 .44.183.44.183.18.184.18.49.18.49 0 .282-.19.466-.19.466-.18.184-.43.184-.43.184-.26 0-.45-.184-.45-.184-.18-.184-.18-.467-.18-.467zm4.06.525zm1.21-1.796c0 .283.11.515.11.515.11.23.31.4.31.4.2.17.46.27.46.27.27.09.57.09.57.09.59 0 .95-.33.95-.33.37-.33.37-.85.37-.85 0-.33-.14-.56-.14-.56-.14-.23-.4-.41-.4-.41-.25-.18-.58-.32-.58-.32-.33-.15-.68-.29-.68-.29-.4.27-.66.63-.66.63-.27.36-.27.82-.27.82zm0 0zm1.89-1.86c.34-.304.52-.64.52-.64.19-.336.19-.704.19-.704 0-.504-.3-.846-.3-.846-.3-.34-.86-.34-.86-.34-.47 0-.78.293-.78.293-.3.294-.3.788-.3.788 0 .304.13.52.13.52.13.215.35.383.35.383.21.168.49.3.49.3.28.13.58.246.58.246zm0 0zm-2.66 1.944c0-.326.11-.604.11-.604.11-.28.28-.504.28-.504.17-.226.4-.4.4-.4.23-.173.47-.3.47-.3v-.04c-.36-.264-.65-.637-.65-.637-.28-.372-.28-.908-.28-.908 0-.39.15-.704.15-.704.14-.31.4-.54.4-.54.25-.22.6-.35.6-.35.35-.12.76-.12.76-.12.44 0 .79.13.79.13.35.14.59.37.59.37.25.24.38.57.38.57.13.33.13.72.13.72 0 .26-.09.51-.09.51-.09.24-.22.45-.22.45-.13.21-.29.38-.29.38-.16.17-.32.28-.32.28v.04c.22.13.43.29.43.29.21.16.38.37.38.37.17.21.27.47.27.47.1.27.1.6.1.6 0 .38-.16.71-.16.71-.16.33-.44.57-.44.57-.28.25-.68.38-.68.38-.4.14-.88.14-.88.14-.47 0-.88-.14-.88-.14-.4-.13-.69-.38-.69-.38-.29-.24-.45-.58-.45-.58-.17-.33-.17-.73-.17-.73zM147.5 758zm3.19-2.542v-1.943c0-.273.012-.646.012-.646.014-.38.035-.65.035-.65h-.04c-.126.24-.263.47-.263.47-.137.23-.284.47-.284.47l-1.566 2.29h2.1zm0 0zm1.73.693h-.914V758h-.82v-1.85h-3.017v-.566l2.87-4.286h.96v4.16h.92v.693zm.294 1.85zm2.47-3.25c.327 0 .7-.2.7-.2.37-.2.708-.69.708-.69-.08-.98-.46-1.49-.46-1.49-.38-.5-1.02-.5-1.02-.5-.24 0-.455.11-.455.11-.217.11-.374.3-.374.3-.16.2-.246.47-.246.47-.09.28-.09.6-.09.6 0 .66.303 1.04.303 1.04.305.38.935.38.935.38zm0 0zm-1.45 2.13c.21.24.5.39.5.39.29.15.604.15.604.15.355 0 .67-.14.67-.14.314-.14.555-.49.555-.49.24-.34.39-.88.39-.88.144-.54.155-1.35.155-1.35-.316.4-.737.63-.737.63-.42.23-.84.23-.84.23-.87 0-1.39-.51-1.39-.51-.51-.51-.51-1.55-.51-1.55 0-.48.16-.87.16-.87.16-.39.43-.68.43-.68.27-.28.63-.44.63-.44.36-.16.76-.16.76-.16.5 0 .92.2.92.2.43.2.74.61.74.61.31.41.49 1.01.49 1.01.17.61.17 1.42.17 1.42 0 1.01-.21 1.72-.21 1.72-.21.71-.56 1.16-.56 1.16-.35.45-.81.65-.81.65-.45.21-.96.21-.96.21-.53 0-.94-.2-.94-.2-.4-.2-.68-.5-.68-.5zM303.78 758zm.546-3.443c0-.83.23-1.492.23-1.492.232-.662.642-1.124.642-1.124.41-.46.97-.71.97-.71.563-.25 1.225-.25 1.225-.25.63 0 1.103.26 1.103.26.473.26.777.59.777.59l-.493.56c-.273-.29-.604-.46-.604-.46-.33-.17-.772-.17-.772-.17-.49 0-.89.2-.89.2-.4.2-.68.56-.68.56-.284.37-.44.88-.44.88-.16.52-.16 1.16-.16 1.16 0 .65.153 1.17.153 1.17.153.52.426.89.426.89.272.37.666.57.666.57.39.2.88.2.88.2.5 0 .88-.2.88-.2.37-.2.71-.56.71-.56l.49.53c-.41.48-.93.74-.93.74-.52.26-1.18.26-1.18.26-.65 0-1.21-.24-1.21-.24-.55-.24-.96-.7-.96-.7-.41-.45-.63-1.12-.63-1.12-.23-.67-.23-1.51-.23-1.51zm5.452 3.445zm.61-1.322c0-.84.75-1.287.75-1.287.75-.446 2.39-.624 2.39-.624 0-.25-.048-.48-.048-.48-.047-.23-.168-.41-.168-.41-.127-.18-.32-.29-.32-.29-.2-.11-.52-.11-.52-.11-.45 0-.836.17-.836.17-.384.16-.69.37-.69.37l-.346-.6c.36-.23.872-.45.872-.45.515-.22 1.135-.22 1.135-.22.935 0 1.355.57 1.355.57.42.57.42 1.53.42 1.53V758h-.714l-.075-.61h-.02c-.367.306-.793.52-.793.52-.425.216-.898.216-.898.216-.65 0-1.078-.378-1.078-.378-.426-.378-.426-1.07-.426-1.07zm0 0zm.85-.064c0 .442.257.63.257.63.257.19.636.19.636.19.37 0 .7-.173.7-.173.33-.173.7-.51.7-.51v-1.417c-.64.084-1.08.2-1.08.2-.44.115-.71.273-.71.273-.26.15-.38.36-.38.36-.11.2-.11.44-.11.44zm3.918 1.387zm.86-7.48h.862v2.04l-.02.924c.346-.304.756-.51.756-.51.41-.204.84-.204.84-.204.5 0 .878.18.878.18.378.182.635.524.635.524.258.34.39.82.39.82.13.477.13 1.065.13 1.065 0 .65-.18 1.165-.18 1.165-.18.514-.482.87-.482.87-.303.358-.702.542-.702.542-.4.18-.84.18-.84.18-.358 0-.74-.17-.74-.17-.385-.17-.72-.47-.72-.47h-.032l-.07.5h-.69v-7.48zm0 0zm.862 6.347c.337.294.667.414.667.414.33.12.583.12.583.12.316 0 .583-.14.583-.14.27-.14.47-.4.47-.4.2-.256.31-.634.31-.634.11-.378.11-.85.11-.85 0-.42-.07-.768-.07-.768-.07-.346-.23-.593-.23-.593-.16-.25-.42-.39-.42-.39-.26-.14-.61-.14-.61-.14-.62 0-1.36.69-1.36.69v2.68zm3.96 1.134zm.61-1.322c0-.84.75-1.287.75-1.287.752-.446 2.39-.624 2.39-.624 0-.24-.047-.47-.047-.47-.04-.23-.16-.41-.16-.41-.12-.18-.32-.29-.32-.29-.2-.11-.51-.11-.51-.11-.45 0-.83.17-.83.17-.38.17-.69.38-.69.38l-.34-.6c.36-.23.87-.45.87-.45.52-.21 1.14-.21 1.14-.21.94 0 1.36.57 1.36.57.42.58.42 1.53.42 1.53V758h-.71l-.07-.61h-.02c-.37.306-.79.52-.79.52-.42.216-.9.216-.9.216-.65 0-1.07-.378-1.07-.378-.43-.378-.43-1.07-.43-1.07zm0 0zm.85-.064c0 .442.258.63.258.63.257.19.635.19.635.19.37 0 .7-.173.7-.173.33-.173.7-.51.7-.51v-1.417c-.64.084-1.08.2-1.08.2-.44.115-.71.273-.71.273-.26.16-.38.37-.38.37-.11.21-.11.45-.11.45zm3.92 1.387zm.86-7.48h.86v6.515c0 .21.075.294.075.294.073.083.168.083.168.083h.08l.11-.02.12.65c-.08.042-.2.063-.2.063-.11.02-.29.02-.29.02-.5 0-.71-.293-.71-.293-.21-.294-.21-.86-.21-.86v-6.45zm1.817 7.48zm.683-4.316c0-.31.184-.49.184-.49.18-.19.44-.19.44-.19.252 0 .436.19.436.19.184.18.184.49.184.49 0 .28-.183.46-.183.46-.19.18-.44.18-.44.18-.26 0-.45-.19-.45-.19-.19-.19-.19-.47-.19-.47zm0 0zm0 3.79c0-.31.184-.49.184-.49.18-.18.44-.18.44-.18.252 0 .436.18.436.18.184.18.184.49.184.49 0 .28-.183.46-.183.46-.19.18-.44.18-.44.18-.26 0-.45-.19-.45-.19-.19-.19-.19-.47-.19-.47zm4.055.52zm.83-.72h1.533v-4.94h-1.218v-.56c.462-.09.803-.21.803-.21.35-.12.62-.29.62-.29h.66v5.99h1.39v.71h-3.78v-.72zm4.39.71zm2.815-.56c.252 0 .462-.11.462-.11.21-.11.368-.3.368-.3.158-.2.247-.46.247-.46.09-.27.09-.61.09-.61 0-.67-.305-1.04-.305-1.04-.305-.38-.935-.38-.935-.38-.315 0-.688.2-.688.2-.373.2-.71.67-.71.67.085.99.458 1.5.458 1.5.372.51 1.013.51 1.013.51zm0 0zm1.376-5.02c-.21-.24-.493-.39-.493-.39-.28-.15-.6-.15-.6-.15-.34 0-.66.14-.66.14-.31.14-.55.48-.55.48-.24.33-.39.88-.39.88-.14.54-.15 1.34-.15 1.34.32-.39.74-.62.74-.62.42-.23.83-.23.83-.23.87 0 1.39.51 1.39.51.52.52.52 1.56.52 1.56 0 .49-.15.88-.15.88-.15.39-.43.68-.43.68-.27.28-.63.44-.63.44-.35.15-.76.15-.76.15-.49 0-.91-.2-.91-.2-.42-.2-.73-.61-.73-.61-.31-.4-.49-1.01-.49-1.01-.18-.6-.18-1.41-.18-1.41 0-1 .21-1.71.21-1.71.21-.71.57-1.16.57-1.16.36-.45.82-.65.82-.65.46-.21.96-.21.96-.21.55 0 .94.2.94.2.4.2.68.51.68.51zm1.03 5.57zm1.21-1.8c0 .28.11.51.11.51.11.23.31.4.31.4.193.17.456.27.456.27.263.09.568.09.568.09.59 0 .95-.33.95-.33.364-.33.364-.85.364-.85 0-.33-.146-.56-.146-.56-.146-.23-.4-.4-.4-.4-.25-.18-.582-.32-.582-.32l-.687-.29c-.4.27-.666.63-.666.63-.26.36-.26.82-.26.82zm0 0zm1.89-1.86c.34-.31.52-.64.52-.64.188-.34.188-.71.188-.71 0-.51-.304-.85-.304-.85-.305-.34-.862-.34-.862-.34-.47 0-.776.29-.776.29-.304.29-.304.78-.304.78 0 .3.126.52.126.52.126.21.34.38.34.38.216.16.495.3.495.3.28.13.585.24.585.24zm0 0zm-2.663 1.94c0-.33.11-.61.11-.61.11-.28.29-.51.29-.51.18-.23.4-.4.4-.4.23-.17.47-.3.47-.3v-.04c-.36-.26-.65-.64-.65-.64-.28-.37-.28-.91-.28-.91 0-.39.15-.71.15-.71.15-.31.4-.54.4-.54.26-.22.6-.35.6-.35.35-.12.76-.12.76-.12.44 0 .79.13.79.13.35.13.6.37.6.37.25.24.38.57.38.57.13.33.13.72.13.72 0 .26-.09.5-.09.5-.09.24-.22.45-.22.45-.13.21-.29.38-.29.38-.16.17-.32.28-.32.28v.04c.22.12.43.29.43.29.21.16.38.36.38.36.17.21.27.47.27.47.1.27.1.6.1.6 0 .38-.16.71-.16.71-.15.32-.44.56-.44.56-.28.24-.68.38-.68.38-.4.13-.88.13-.88.13-.47 0-.88-.14-.88-.14-.4-.14-.69-.38-.69-.38-.29-.25-.45-.58-.45-.58-.17-.34-.17-.74-.17-.74zm156 1.71zm.95-6.89h.91l2.49 4.33.75 1.43h.04l-.06-1.09c-.03-.56-.03-1.11-.03-1.11v-3.56h.83v6.9h-.91l-2.5-4.34-.74-1.42h-.04l.08 1.07c.04.54.04 1.08.04 1.08V758h-.83v-6.89zm5.85 6.89zm1.31-6.16c-.25 0-.42-.16-.42-.16-.17-.16-.17-.4-.17-.4 0-.25.18-.41.18-.41.17-.16.43-.16.43-.16.26 0 .43.16.43.16.17.15.17.4.17.4 0 .24-.17.4-.17.4-.17.16-.42.16-.42.16zm0 0zm-.44 1.05h.86v5.1h-.86v-5.11zm1.72 5.1zm1.82-2.67l-1.54-2.44h.94l.69 1.12.24.42.26.42h.05l.23-.43.23-.42.62-1.13h.91l-1.54 2.53 1.66 2.58h-.93l-.74-1.19-.27-.46-.28-.45h-.04l-.26.44c-.12.22-.25.47-.25.47l-.69 1.19h-.9zm2.87 2.67zm.69-4.32c0-.31.18-.49.18-.49.18-.18.44-.18.44-.18.26 0 .44.19.44.19.18.18.18.49.18.49 0 .28-.18.46-.18.46-.18.18-.43.18-.43.18-.26 0-.45-.19-.45-.19-.18-.18-.18-.47-.18-.47zm0 0zm0 3.79c0-.31.18-.49.18-.49.18-.19.44-.19.44-.19.26 0 .44.18.44.18.18.18.18.49.18.49 0 .28-.18.47-.18.47-.18.18-.43.18-.43.18-.26 0-.45-.19-.45-.19-.18-.19-.18-.47-.18-.47zm4.06.52zm.83-.72h1.54v-4.94h-1.22v-.56c.46-.09.8-.21.8-.21.34-.12.62-.29.62-.29h.66v5.99h1.39v.72h-3.78v-.71zm4.39.71zm2.62.12c-1.02 0-1.59-.9-1.59-.9-.56-.91-.56-2.6-.56-2.6 0-1.69.57-2.58.57-2.58.57-.88 1.59-.88 1.59-.88 1.01 0 1.58.88 1.58.88.57.88.57 2.58.57 2.58 0 1.69-.57 2.59-.57 2.59-.57.9-1.58.9-1.58.9zm0 0zm0-.69c.29 0 .53-.17.53-.17.24-.16.41-.5.41-.5.17-.35.27-.88.27-.88.1-.53.1-1.27.1-1.27 0-.74-.09-1.26-.09-1.26-.09-.53-.26-.86-.26-.86-.17-.33-.41-.49-.41-.49-.23-.16-.53-.16-.53-.16-.29 0-.53.16-.53.16-.24.16-.41.49-.41.49-.17.33-.27.85-.27.85-.09.52-.09 1.26-.09 1.26 0 1.47.36 2.14.36 2.14.37.67.95.67.95.67zm2.61.56zm.69-1.35c.3.3.7.53.7.53.41.24.99.24.99.24.31 0 .57-.11.57-.11.26-.11.46-.31.46-.31.2-.2.32-.49.32-.49.12-.28.12-.63.12-.63 0-.69-.38-1.08-.38-1.08-.39-.39-1.04-.39-1.04-.39-.34 0-.59.11-.59.11-.25.11-.55.31-.55.31l-.46-.3.22-3.22h3.35v.75h-2.59l-.18 1.98c.24-.13.48-.2.48-.2.24-.08.55-.08.55-.08.43 0 .81.13.81.13.38.12.66.38.66.38.29.25.45.65.45.65.17.39.17.94.17.94 0 .54-.19.96-.19.96-.19.42-.5.71-.5.71-.31.28-.72.44-.72.44-.4.15-.84.15-.84.15-.4 0-.73-.08-.73-.08-.33-.08-.6-.21-.6-.21-.26-.13-.48-.29-.48-.29-.21-.17-.38-.35-.38-.35zm152.7 1.35zm1.23.86c0 .41.4.65.4.65.4.24 1.09.24 1.09.24.37 0 .67-.09.67-.09.3-.09.51-.23.51-.23.21-.15.33-.33.33-.33.12-.19.12-.39.12-.39 0-.36-.26-.49-.26-.49-.26-.13-.76-.13-.76-.13h-.88c-.14 0-.32-.02-.32-.02-.17-.01-.34-.07-.34-.07-.27.2-.4.42-.4.42-.12.22-.12.44-.12.44zm0 0zm-.75.12c0-.33.2-.62.2-.62.2-.3.55-.54.55-.54v-.04c-.19-.12-.32-.32-.32-.32-.13-.21-.13-.51-.13-.51 0-.33.18-.57.18-.57.18-.24.38-.38.38-.38v-.04c-.25-.21-.46-.56-.46-.56-.2-.35-.2-.82-.2-.82 0-.42.16-.76.16-.76.15-.34.41-.58.41-.58.26-.24.62-.36.62-.36.35-.13.74-.13.74-.13.21 0 .4.03.4.03.18.03.33.09.33.09h1.77v.66h-1.05c.18.18.3.45.3.45.12.27.12.6.12.6 0 .41-.15.74-.15.74-.14.33-.4.56-.4.56-.25.22-.59.35-.59.35-.34.12-.73.12-.73.12-.19 0-.38-.05-.38-.05-.2-.05-.38-.13-.38-.13-.14.11-.23.25-.23.25-.1.14-.1.35-.1.35 0 .24.19.4.19.4.19.16.71.16.71.16h.99c.89 0 1.34.29 1.34.29.45.28.45.92.45.92 0 .35-.17.67-.17.67-.18.32-.52.56-.52.56-.33.24-.81.38-.81.38-.48.14-1.08.14-1.08.14-.47 0-.86-.09-.86-.09-.39-.09-.67-.27-.67-.27-.28-.18-.43-.43-.43-.43-.15-.25-.15-.59-.15-.59zm0 0zm2.12-3.17c.22 0 .42-.09.42-.09.2-.08.35-.24.35-.24.15-.16.24-.38.24-.38.09-.22.09-.51.09-.51 0-.56-.31-.87-.31-.87-.31-.31-.77-.31-.77-.31-.45 0-.76.31-.76.31-.32.31-.32.88-.32.88 0 .28.09.51.09.51.08.22.24.38.24.38.16.15.35.24.35.24.19.08.42.08.42.08zm2.71 2.19zm.86-7.48h.86v2.04l-.03 1.05c.37-.35.77-.59.77-.59.4-.25.94-.25.94-.25.81 0 1.18.5 1.18.5.38.5.38 1.49.38 1.49v3.3h-.86v-3.12c0-.73-.23-1.05-.23-1.05-.23-.32-.73-.32-.73-.32-.4 0-.71.2-.71.2-.31.2-.69.58-.69.58v3.7h-.86v-7.48zm4.86 7.48zm.49-2.54c0-.64.2-1.14.2-1.14.2-.5.54-.85.54-.85.34-.35.79-.53.79-.53.45-.18.94-.18.94-.18.51 0 .87.18.87.18.36.18.63.42.63.42l-.43.56c-.23-.2-.48-.33-.48-.33-.25-.13-.55-.13-.55-.13-.35 0-.64.14-.64.14-.3.14-.51.4-.51.4-.21.26-.33.62-.33.62-.12.36-.12.8-.12.8 0 .44.11.8.11.8.12.36.32.62.32.62.21.25.5.4.5.4.29.14.64.14.64.14.37 0 .67-.15.67-.15.3-.16.53-.37.53-.37l.39.56c-.35.3-.77.48-.77.48-.43.18-.89.18-.89.18-.5 0-.94-.18-.94-.18-.44-.18-.76-.52-.76-.52-.32-.34-.5-.84-.5-.84-.19-.5-.19-1.13-.19-1.13zm4.3 2.55zm.43-2.97h2.42v.66h-2.42V755zm2.84 2.96zm1.72.43v1.73h-.86v-7.26h.71l.07.59h.03c.35-.3.76-.51.76-.51.42-.21.87-.21.87-.21.5 0 .88.18.88.18.38.18.63.52.63.52.25.34.38.82.38.82.13.47.13 1.07.13 1.07 0 .65-.18 1.16-.18 1.16-.18.51-.48.87-.48.87-.3.35-.7.54-.7.54-.4.18-.84.18-.84.18-.36 0-.71-.16-.71-.16-.35-.16-.71-.43-.71-.43zm0 0zm0-1.56c.34.29.67.41.67.41.32.12.57.12.57.12.32 0 .59-.14.59-.14.27-.15.46-.4.46-.4.2-.26.31-.64.31-.64.11-.38.11-.85.11-.85 0-.42-.07-.77-.07-.77-.07-.34-.24-.59-.24-.59-.16-.25-.42-.39-.42-.39-.25-.14-.61-.14-.61-.14-.33 0-.66.18-.66.18-.33.18-.71.51-.71.51v2.68zm4.1 1.13zm.86-7.48h.85v5.06h.03l2.18-2.69h.96l-1.71 2.05 1.95 3.05h-.94l-1.49-2.46-.95 1.11v1.4h-.85v-7.48zm4.23 7.48zm1.23.86c0 .41.4.65.4.65.4.24 1.09.24 1.09.24.37 0 .67-.09.67-.09.3-.09.51-.23.51-.23.21-.14.33-.33.33-.33.12-.19.12-.39.12-.39 0-.36-.26-.5-.26-.5-.26-.13-.76-.13-.76-.13h-.88c-.15 0-.32-.01-.32-.01-.17-.02-.34-.07-.34-.07-.27.2-.4.42-.4.42-.13.22-.13.44-.13.44zm0 0zm-.76.11c0-.33.2-.62.2-.62.2-.3.55-.54.55-.54v-.04c-.19-.12-.32-.32-.32-.32-.13-.21-.13-.51-.13-.51 0-.33.18-.57.18-.57.18-.24.38-.38.38-.38v-.04c-.25-.21-.46-.56-.46-.56-.2-.35-.2-.82-.2-.82 0-.42.15-.76.15-.76.15-.33.42-.57.42-.57.26-.23.62-.36.62-.36.35-.13.74-.13.74-.13.21 0 .39.03.39.03.18.03.33.09.33.09h1.77v.66h-1.05c.18.18.3.45.3.45.12.27.12.6.12.6 0 .41-.15.74-.15.74-.15.33-.4.56-.4.56-.25.22-.59.35-.59.35-.34.13-.73.13-.73.13-.19 0-.39-.05-.39-.05-.2-.05-.38-.13-.38-.13-.14.11-.23.25-.23.25-.09.14-.09.35-.09.35 0 .24.19.4.19.4.19.16.72.16.72.16h.99c.89 0 1.34.29 1.34.29.44.29.44.93.44.93 0 .35-.18.68-.18.68-.18.32-.51.56-.51.56-.33.24-.81.38-.81.38-.48.14-1.08.14-1.08.14-.47 0-.86-.09-.86-.09-.38-.09-.66-.27-.66-.27-.28-.18-.43-.43-.43-.43-.15-.25-.15-.59-.15-.59zm0 0zm2.12-3.17c.22 0 .42-.09.42-.09.19-.08.35-.24.35-.24.15-.16.24-.38.24-.38.09-.22.09-.51.09-.51 0-.56-.32-.87-.32-.87-.31-.31-.77-.31-.77-.31-.45 0-.77.31-.77.31-.31.31-.31.88-.31.88 0 .29.09.51.09.51.09.23.24.38.24.38.15.15.35.24.35.24.2.08.42.08.42.08zm2.71 2.19zm.69-4.32c0-.31.18-.49.18-.49.18-.18.45-.18.45-.18.25 0 .44.19.44.19.19.18.19.49.19.49 0 .28-.18.47-.18.47-.18.18-.43.18-.43.18-.27 0-.45-.19-.45-.19-.18-.19-.18-.47-.18-.47zm0 0zm0 3.79c0-.31.18-.49.18-.49.18-.18.45-.18.45-.18.25 0 .44.18.44.18.19.18.19.49.19.49 0 .28-.18.47-.18.47-.18.19-.43.19-.43.19-.27 0-.45-.18-.45-.18-.18-.19-.18-.47-.18-.47zm4.05.52zm.83-.71h1.54v-4.94h-1.22v-.56c.47-.09.81-.21.81-.21.34-.12.62-.29.62-.29h.66v5.99h1.39v.72H724v-.72zm4.39.71zm3.2-2.54v-1.94c0-.28.02-.65.02-.65.01-.38.04-.65.04-.65h-.04c-.13.24-.26.47-.26.47-.13.23-.28.47-.28.47l-1.56 2.29h2.1zm0 0zm1.74.69h-.91v1.9h-.82v-1.85h-3.02v-.57l2.87-4.29h.97v4.16h.91v.69zm146.09 1.85zm3.49.13c-.65 0-1.19-.25-1.19-.25-.54-.25-.93-.72-.93-.72-.39-.47-.6-1.13-.6-1.13-.21-.67-.21-1.5-.21-1.5 0-.83.22-1.49.22-1.49.21-.65.6-1.11.6-1.11.39-.46.93-.7.93-.7.54-.24 1.19-.24 1.19-.24.65 0 1.19.25 1.19.25.54.25.94.71.94.71.39.45.61 1.11.61 1.11.21.65.21 1.47.21 1.47 0 .83-.21 1.49-.21 1.49-.21.67-.61 1.13-.61 1.13-.39.46-.93.72-.93.72-.54.25-1.19.25-1.19.25zm0 0zm0-.77c.46 0 .84-.2.84-.2.37-.2.64-.57.64-.57.27-.38.42-.9.42-.9.15-.52.15-1.17.15-1.17 0-.64-.14-1.16-.14-1.16-.15-.52-.41-.87-.41-.87-.27-.36-.64-.56-.64-.56-.38-.19-.84-.19-.84-.19-.46 0-.83.19-.83.19-.37.19-.64.55-.64.55-.27.36-.41.87-.41.87-.15.52-.15 1.16-.15 1.16 0 .65.15 1.17.15 1.17.15.52.41.89.41.89.27.37.64.57.64.57.37.2.84.2.84.2zm3.49.64zm1.01-4.4h-.76v-.65l.8-.06.11-1.43h.73v1.43h1.38v.71h-1.38v2.83c0 .47.17.73.17.73.17.26.61.26.61.26.14 0 .3-.04.3-.04.16-.04.29-.09.29-.09l.16.65c-.21.07-.45.13-.45.13-.25.06-.49.06-.49.06-.41 0-.68-.13-.68-.13-.28-.12-.45-.35-.45-.35-.17-.22-.25-.53-.25-.53-.07-.31-.07-.69-.07-.69v-2.83zm2.54 4.4zm.86-7.48h.86v2.04l-.03 1.05c.37-.35.77-.6.77-.6.4-.24.94-.24.94-.24.81 0 1.19.5 1.19.5.38.5.38 1.49.38 1.49v3.3h-.86v-3.12c0-.73-.23-1.05-.23-1.05-.23-.32-.74-.32-.74-.32-.4 0-.7.2-.7.2-.3.2-.69.59-.69.59v3.7h-.86v-7.48zm4.86 7.48zm.48-2.54c0-.63.2-1.13.2-1.13.19-.5.51-.85.51-.85.32-.35.73-.53.73-.53.41-.19.85-.19.85-.19.49 0 .87.17.87.17.39.16.64.48.64.48.26.31.4.76.4.76.14.44.14.98.14.98 0 .28-.03.47-.03.47H897c.056.83.51 1.31.51 1.31.46.48 1.196.48 1.196.48.368 0 .678-.11.678-.11.31-.11.597-.29.597-.29l.31.57c-.33.21-.74.37-.74.37-.41.15-.93.15-.93.15-.51 0-.96-.18-.96-.18-.45-.18-.78-.52-.78-.52-.33-.34-.52-.84-.52-.84-.19-.49-.19-1.12-.19-1.12zm0 0zm3.57-.39c0-.79-.33-1.2-.33-1.2-.33-.42-.93-.42-.93-.42-.27 0-.52.11-.52.11-.24.11-.44.31-.44.31-.2.2-.33.5-.33.5-.13.3-.17.69-.17.69h2.73zm1.16 2.93zm.86-5.11h.72l.07.92h.03c.26-.48.64-.77.64-.77.37-.28.82-.28.82-.28.3 0 .55.1.55.1l-.17.76c-.12-.05-.23-.07-.23-.07-.1-.02-.26-.02-.26-.02-.32 0-.68.26-.68.26-.35.26-.62.92-.62.92v3.3h-.86v-5.1zm2.79 5.1zm.68-4.32c0-.3.19-.49.19-.49.19-.18.45-.18.45-.18.25 0 .44.19.44.19.19.19.19.49.19.49 0 .28-.18.47-.18.47-.18.19-.43.19-.43.19-.26 0-.45-.19-.45-.19-.18-.18-.18-.47-.18-.47zm0 0zm0 3.8c0-.3.19-.49.19-.49.19-.18.45-.18.45-.18.25 0 .44.19.44.19.19.18.19.49.19.49 0 .28-.18.46-.18.46-.18.18-.43.18-.43.18-.26 0-.45-.19-.45-.19-.18-.18-.18-.46-.18-.46zm4.06.53zm.71-1.39c.31.31.71.55.71.55.41.24 1.01.24 1.01.24.61 0 1-.33 1-.33.39-.33.39-.9.39-.9 0-.29-.11-.54-.11-.54-.11-.25-.36-.43-.36-.43-.25-.18-.66-.27-.66-.27-.41-.096-1.01-.096-1.01-.096v-.66c.54 0 .9-.094.9-.094.36-.1.59-.264.59-.264.22-.16.32-.4.32-.4.09-.23.09-.49.09-.49 0-.49-.31-.77-.31-.77-.31-.29-.85-.29-.85-.29-.42 0-.77.19-.77.19-.35.19-.66.5-.66.5l-.46-.55c.39-.37.86-.6.86-.6.47-.24 1.07-.24 1.07-.24.44 0 .81.11.81.11.37.12.64.33.64.33.27.22.42.53.42.53.15.32.15.73.15.73 0 .61-.34.996-.34.996-.33.39-.88.6-.88.6v.04c.31.08.57.22.57.22.26.14.46.36.46.36.2.22.31.5.31.5.11.28.11.63.11.63 0 .44-.17.8-.17.8-.17.36-.47.61-.47.61-.3.24-.7.38-.7.38-.4.13-.86.13-.86.13-.4 0-.73-.08-.73-.08-.33-.08-.6-.21-.6-.21-.28-.13-.49-.3-.49-.3-.22-.17-.39-.36-.39-.36zm4.51 1.39zm.83-.72h1.53v-4.93h-1.22v-.56c.46-.09.81-.21.81-.21.34-.12.61-.29.61-.29h.66v5.99h1.39v.72h-3.78v-.72z"/></svg>