<svg xmlns="http://www.w3.org/2000/svg" stroke="#000" viewBox="0 0 1024 768" font-size="1"><path fill="#FFF" stroke="none" d="M0 0v768h1024V0z"/><path stroke="none" d="M251.987 14.102zm1.186-10.04h2.264V14.1h-2.264V4.062zm6.653 10.04zm.724-2.126c0-1.2 1.016-1.88 1.016-1.88 1.017-.676 3.28-.907 3.28-.907-.03-.51-.308-.81-.308-.81-.277-.3-.893-.3-.893-.3-.492 0-.985.18-.985.18-.493.18-1.047.51-1.047.51l-.8-1.5c.738-.45 1.546-.73 1.546-.73.8-.28 1.71-.28 1.71-.28 1.48 0 2.25.84 2.25.84.77.84.77 2.61.77 2.61v4.38h-1.85l-.17-.79h-.05c-.5.43-1.04.7-1.04.7-.55.27-1.2.27-1.2.27-.52 0-.94-.18-.94-.18-.42-.18-.71-.5-.71-.5-.3-.32-.46-.73-.46-.73-.16-.42-.16-.91-.16-.91zm0 0zm2.156-.17c0 .37.24.548.24.548.237.177.638.177.638.177.4 0 .677-.17.677-.17.28-.16.59-.47.59-.47v-1.34c-1.21.17-1.68.5-1.68.5-.46.33-.46.77-.46.77zm5.344 2.296zm1-7.64h1.85l.153.987h.06c.48-.48 1.018-.83 1.018-.83.54-.35 1.3-.35 1.3-.35.82 0 1.32.33 1.32.33.5.33.8.95.8.95.51-.53 1.07-.9 1.07-.9.57-.38 1.34-.38 1.34-.38 1.23 0 1.81.82 1.81.82.58.82.58 2.25.58 2.25v4.75h-2.26V9.65c0-.832-.22-1.14-.22-1.14-.22-.31-.72-.31-.72-.31-.57 0-1.31.74-1.31.74v5.16h-2.26V9.65c0-.832-.22-1.14-.22-1.14-.22-.31-.71-.31-.71-.31-.59 0-1.3.74-1.3.74v5.16h-2.26V6.46zm15.4 7.64zm1.34-2.295c.525.4 1.002.6 1.002.6.477.2.97.2.97.2.508 0 .74-.17.74-.17.23-.168.23-.476.23-.476 0-.18-.13-.33-.13-.33-.13-.14-.355-.27-.355-.27-.223-.12-.5-.22-.5-.22-.277-.1-.57-.22-.57-.22-.354-.14-.708-.32-.708-.32-.36-.18-.65-.45-.65-.45-.3-.27-.48-.63-.48-.63-.19-.36-.19-.84-.19-.84 0-.52.2-.97.2-.97.2-.44.59-.75.59-.75.38-.3.92-.48.92-.48.54-.17 1.2-.17 1.2-.17.87 0 1.54.3 1.54.3.66.3 1.15.67 1.15.67l-1.02 1.36c-.42-.31-.82-.48-.82-.48-.4-.17-.8-.17-.8-.17-.86 0-.86.61-.86.61 0 .19.12.32.12.32.12.13.33.24.33.24.21.11.48.21.48.21l.56.21c.37.14.73.32.73.32.36.18.66.44.66.44.3.26.48.64.48.64.18.38.18.9.18.9 0 .53-.2.97-.2.97-.2.45-.6.78-.6.78-.4.33-.98.53-.98.53-.59.19-1.36.19-1.36.19-.75 0-1.55-.29-1.55-.29-.8-.29-1.38-.77-1.38-.77zm5.484 2.295zm.723-2.126c0-1.2 1.017-1.88 1.017-1.88 1.016-.676 3.28-.907 3.28-.907-.03-.51-.308-.81-.308-.81-.277-.3-.893-.3-.893-.3-.493 0-.986.18-.986.18-.492.18-1.047.51-1.047.51l-.8-1.5c.74-.45 1.547-.73 1.547-.73.81-.28 1.717-.28 1.717-.28 1.48 0 2.256.84 2.256.84.778.84.778 2.61.778 2.61v4.38h-1.848l-.17-.79h-.046c-.492.43-1.04.7-1.04.7-.546.27-1.193.27-1.193.27-.52 0-.93-.18-.93-.18-.41-.18-.71-.5-.71-.5-.29-.32-.45-.73-.45-.73-.16-.42-.16-.91-.16-.91zm0 0zm2.156-.17c0 .37.24.548.24.548.238.177.638.177.638.177.41 0 .68-.17.68-.17.28-.16.59-.47.59-.47v-1.34c-1.21.17-1.68.5-1.68.5-.46.33-.46.77-.46.77zm5.344 2.296zm1.31-5.868h-1.048v-1.68l1.17-.09.26-2.034h1.88v2.033h1.83v1.77h-1.84V11.3c0 .646.27.93.27.93.27.285.71.285.71.285.18 0 .37-.046.37-.046.19-.05.34-.11.34-.11l.35 1.65c-.31.09-.73.18-.73.18-.42.09-.97.09-.97.09-.71 0-1.21-.22-1.21-.22-.5-.22-.82-.6-.82-.6-.32-.39-.47-.94-.47-.94-.15-.55-.15-1.21-.15-1.21V8.23zm4.59 5.868zm2.124-8.763c-.57 0-.93-.34-.93-.34-.37-.33-.37-.86-.37-.86 0-.53.37-.85.37-.85.37-.33.94-.33.94-.33.59 0 .95.32.95.32.36.32.36.84.36.84 0 .52-.36.85-.36.85-.36.33-.94.33-.94.33zm0 0zm-1.12 1.12h2.27v7.64h-2.27V6.46zm3.25 7.64zm1.34-2.3c.53.4 1 .6 1 .6.48.2.97.2.97.2.51 0 .74-.17.74-.17.23-.17.23-.48.23-.48 0-.19-.13-.33-.13-.33-.13-.15-.35-.27-.35-.27-.22-.13-.5-.23-.5-.23-.27-.1-.57-.23-.57-.23-.35-.14-.71-.33-.71-.33-.35-.19-.64-.46-.64-.46-.29-.27-.47-.63-.47-.63-.18-.37-.18-.84-.18-.84 0-.53.21-.97.21-.97.21-.45.59-.76.59-.76.39-.31.93-.48.93-.48.54-.18 1.2-.18 1.2-.18.88 0 1.54.3 1.54.3.67.3 1.16.67 1.16.67l-1.02 1.35c-.41-.31-.82-.48-.82-.48-.4-.17-.8-.17-.8-.17-.87 0-.87.6-.87.6 0 .18.13.31.13.31.12.13.33.24.33.24.21.1.48.2.48.2l.56.21c.37.13.73.31.73.31.36.17.66.44.66.44.3.26.49.64.49.64.19.37.19.9.19.9 0 .52-.2.97-.2.97-.2.44-.6.78-.6.78-.4.33-.99.52-.99.52-.58.19-1.35.19-1.35.19-.75 0-1.55-.29-1.55-.29-.79-.3-1.38-.77-1.38-.77zm5.49 2.29zm5.31-9.04c-.43-.16-.78-.16-.78-.16-.41 0-.64.25-.64.25-.23.25-.23.84-.23.84v.46h1.37v1.78h-1.37v5.87h-2.26V8.23h-1.01V6.55l1.02-.076v-.42c0-.6.15-1.14.15-1.14.15-.54.49-.94.49-.94.34-.4.88-.63.88-.63.54-.24 1.31-.24 1.31-.24.48 0 .87.097.87.097.39.1.66.19.66.19zm-.06 9.04zm2.13-8.77c-.57 0-.94-.33-.94-.33-.37-.33-.37-.86-.37-.86 0-.53.37-.85.37-.85.37-.33.94-.33.94-.33.59 0 .95.32.95.32.36.32.36.84.36.84 0 .52-.36.85-.36.85-.36.33-.95.33-.95.33zm0 0zm-1.13 1.12H325v7.64h-2.265V6.46zm3.25 7.64zm.56-3.82c0-.93.31-1.67.31-1.67.31-.75.81-1.26.81-1.26.5-.52 1.15-.8 1.15-.8.65-.28 1.34-.28 1.34-.28.82 0 1.43.27 1.43.27.61.28 1.02.77 1.02.77.41.49.61 1.16.61 1.16.2.67.2 1.45.2 1.45 0 .31-.03.56-.03.56-.03.25-.06.39-.06.39h-4.57c.16.88.69 1.27.69 1.27.53.39 1.3.39 1.3.39.82 0 1.65-.51 1.65-.51l.76 1.37c-.58.4-1.3.63-1.3.63-.71.23-1.41.23-1.41.23-.81 0-1.52-.27-1.52-.27-.71-.27-1.23-.79-1.23-.79-.52-.51-.81-1.25-.81-1.25-.29-.74-.29-1.69-.29-1.69zm0 0zm4.93-.79c0-.66-.29-1.08-.29-1.08-.29-.41-.99-.41-.99-.41-.54 0-.94.36-.94.36-.4.36-.53 1.13-.53 1.13h2.76zm2.5 4.6zm.6-3.82c0-.94.27-1.68.27-1.68.27-.74.71-1.26.71-1.26.44-.52 1.01-.8 1.01-.8.58-.28 1.18-.28 1.18-.28.65 0 1.07.21 1.07.21.42.22.82.59.82.59l-.09-1.17V3.3h2.26v10.8h-1.84l-.15-.754h-.06c-.4.4-.94.67-.94.67-.54.27-1.09.27-1.09.27-.71 0-1.29-.278-1.29-.278-.57-.278-.98-.794-.98-.794-.41-.516-.63-1.255-.63-1.255-.22-.74-.22-1.68-.22-1.68zm0 0zm2.32-.03c0 1.14.37 1.66.37 1.66.36.52 1.02.52 1.02.52.37 0 .67-.16.67-.16.3-.16.58-.54.58-.54V8.6c-.31-.28-.63-.386-.63-.386-.32-.106-.63-.106-.63-.106-.54 0-.95.516-.95.516-.41.518-.41 1.61-.41 1.61zm9.11 3.85zm.37-7.64h2.25l.74 3.54c.1.57.17 1.12.17 1.12.08.55.17 1.14.17 1.14h.07l.21-1.16c.1-.57.24-1.11.24-1.11l.85-3.54H353l.86 3.54c.14.57.243 1.13.243 1.13l.23 1.14h.064c.11-.59.18-1.14.18-1.14.07-.56.177-1.13.177-1.13l.72-3.54h2.095l-1.84 7.64h-2.65l-.69-3.05c-.12-.54-.22-1.08-.22-1.08l-.2-1.16h-.06c-.11.61-.19 1.15-.19 1.15-.08.54-.19 1.08-.19 1.08l-.68 3.05h-2.59zm11.58 7.64zm2.13-8.77c-.57 0-.94-.33-.94-.33-.37-.33-.37-.86-.37-.86 0-.53.37-.85.37-.85.37-.33.94-.33.94-.33.59 0 .95.32.95.32.36.32.36.85.36.85 0 .52-.36.85-.36.85-.36.33-.95.33-.95.33zm0 0zm-1.12 1.12h2.26v7.64h-2.26v-7.6zm3.25 7.64zm1.31-5.87h-1.04V6.55l1.17-.092.26-2.03h1.88v2.04h1.83v1.77h-1.83v3.06c0 .644.27.93.27.93.27.283.72.283.72.283.19 0 .38-.04.38-.04.19-.05.35-.11.35-.11l.35 1.65c-.31.09-.72.18-.72.18-.41.09-.97.09-.97.09-.71 0-1.21-.21-1.21-.21-.5-.21-.81-.6-.81-.6-.31-.38-.46-.93-.46-.93-.15-.54-.15-1.21-.15-1.21v-3.1zm4.59 5.87zm1-10.8h2.27v2.65l-.1 1.37c.43-.39 1-.72 1-.72.57-.33 1.36-.33 1.36-.33 1.25 0 1.81.81 1.81.81.56.82.56 2.26.56 2.26v4.74h-2.27v-4.4c0-.84-.22-1.14-.22-1.14-.22-.31-.71-.31-.71-.31-.43 0-.74.19-.74.19-.31.19-.68.55-.68.55v5.16h-2.27V3.3zm10.96 10.84zm1.19-10.04h2.26v3.86h3.46V4.06h2.28v10.042h-2.28v-4.19h-3.46v4.19h-2.26V4.062zm9.19 10.04zm.72-2.13c0-1.2 1.02-1.88 1.02-1.88 1.02-.68 3.28-.91 3.28-.91-.03-.51-.31-.81-.31-.81-.28-.3-.89-.3-.89-.3-.49 0-.98.18-.98.18-.49.19-1.04.51-1.04.51l-.8-1.49c.74-.45 1.55-.72 1.55-.72.81-.28 1.72-.28 1.72-.28 1.48 0 2.26.84 2.26.84.78.84.78 2.61.78 2.61v4.37h-1.85l-.17-.79h-.04c-.49.43-1.04.7-1.04.7-.55.27-1.19.27-1.19.27-.52 0-.94-.18-.94-.18-.41-.18-.71-.5-.71-.5-.29-.32-.45-.73-.45-.73-.16-.42-.16-.91-.16-.91zm0 0zm2.16-.17c0 .37.24.55.24.55.24.18.64.18.64.18.4 0 .68-.17.68-.17.28-.17.59-.47.59-.47v-1.34c-1.22.17-1.68.49-1.68.49-.46.32-.46.77-.46.77zm5.35 2.29zm1.34-2.3c.53.4 1 .6 1 .6.48.2.97.2.97.2.51 0 .74-.17.74-.17.23-.17.23-.48.23-.48 0-.19-.13-.33-.13-.33-.13-.15-.35-.27-.35-.27-.22-.13-.5-.23-.5-.23-.27-.1-.57-.23-.57-.23-.35-.14-.71-.33-.71-.33-.35-.19-.64-.46-.64-.46-.29-.27-.47-.63-.47-.63-.18-.37-.18-.84-.18-.84 0-.53.21-.97.21-.97.21-.45.6-.76.6-.76.39-.31.93-.48.93-.48.54-.18 1.2-.18 1.2-.18.88 0 1.54.3 1.54.3.66.3 1.16.67 1.16.67L404 8.59c-.42-.304-.82-.474-.82-.474-.4-.17-.8-.17-.8-.17-.86 0-.86.6-.86.6 0 .185.124.316.124.316.124.13.33.24.33.24.21.107.48.207.48.207l.56.2c.37.14.734.31.734.31.36.17.66.44.66.44.3.26.485.64.485.64.185.38.185.9.185.9 0 .52-.2.97-.2.97-.2.45-.6.78-.6.78-.4.33-.982.52-.982.52-.584.19-1.354.19-1.354.19-.753 0-1.546-.29-1.546-.29-.793-.29-1.38-.77-1.38-.77zm5.49 2.3zm1-10.8h2.2v6.19h.06l2.42-3.04h2.47l-2.7 3.15 2.88 4.49h-2.44l-1.72-2.98-.97 1.09v1.88h-2.2V3.3zm7.01 10.79zm.56-3.82c0-.93.31-1.67.31-1.67.31-.75.81-1.27.81-1.27.5-.52 1.15-.8 1.15-.8.65-.28 1.34-.28 1.34-.28.82 0 1.43.28 1.43.28.61.27 1.02.77 1.02.77.41.49.61 1.16.61 1.16.2.67.2 1.45.2 1.45 0 .31-.03.56-.03.56-.03.25-.06.39-.06.39h-4.57c.16.88.69 1.27.69 1.27.53.39 1.3.39 1.3.39.82 0 1.65-.51 1.65-.51l.75 1.37c-.58.4-1.3.63-1.3.63-.72.23-1.41.23-1.41.23-.81 0-1.52-.27-1.52-.27-.71-.27-1.23-.79-1.23-.79-.52-.52-.81-1.26-.81-1.26-.3-.74-.3-1.7-.3-1.7zm0 0zm4.93-.79c0-.66-.29-1.08-.29-1.08-.29-.42-.98-.42-.98-.42-.54 0-.94.36-.94.36-.41.37-.53 1.14-.53 1.14H419zm2.5 4.6zm1-10.8h2.27v8.52c0 .35.13.49.13.49.13.14.27.14.27.14h.13l.15-.03.28 1.68c-.18.07-.47.13-.47.13-.28.05-.67.05-.67.05-.58 0-.98-.19-.98-.19-.4-.19-.64-.52-.64-.52-.24-.33-.34-.8-.34-.8-.1-.47-.1-1.06-.1-1.06V3.3zm3.41 10.79zm1-10.8h2.26v8.52c0 .36.13.49.13.49.14.14.27.14.27.14h.14l.15-.03.28 1.68c-.18.07-.47.13-.47.13-.28.05-.67.05-.67.05-.58 0-.98-.19-.98-.19-.4-.19-.64-.52-.64-.52-.24-.33-.34-.8-.34-.8-.1-.47-.1-1.06-.1-1.06V3.3zm3.4 10.79zm1.25-8.52l-.07-2.05h2.28l-.08 2.04-.44 3.07H432zm3.38 8.51zm1.34-2.29c.53.4 1 .6 1 .6.48.2.97.2.97.2.51 0 .74-.17.74-.17.23-.17.23-.48.23-.48 0-.18-.13-.33-.13-.33-.13-.15-.35-.27-.35-.27-.22-.12-.5-.22-.5-.22-.28-.1-.57-.23-.57-.23-.35-.14-.71-.328-.71-.328-.35-.18-.64-.45-.64-.45-.29-.27-.48-.63-.48-.63-.18-.36-.18-.84-.18-.84 0-.52.21-.97.21-.97.21-.44.59-.75.59-.75.39-.31.93-.48.93-.48.54-.17 1.2-.17 1.2-.17.88 0 1.54.3 1.54.3.66.3 1.16.67 1.16.67l-1.01 1.35c-.41-.31-.81-.48-.81-.48-.4-.17-.8-.17-.8-.17-.86 0-.86.61-.86.61 0 .19.12.32.12.32.13.13.33.24.33.24.21.11.48.21.48.21l.56.21c.37.14.74.32.74.32.37.18.67.44.67.44.3.263.49.64.49.64.19.38.19.9.19.9 0 .525-.2.97-.2.97-.2.45-.6.78-.6.78-.4.33-.98.523-.98.523-.59.19-1.36.19-1.36.19-.76 0-1.55-.29-1.55-.29-.8-.294-1.38-.77-1.38-.77zm8.69 2.29zm3.27.6v2.24h-2.27V6.46h1.85l.16.754h.06c.45-.4 1.01-.67 1.01-.67.56-.27 1.17-.27 1.17-.27.69 0 1.25.277 1.25.277.55.28.94.79.94.79.38.51.59 1.23.59 1.23.21.71.21 1.59.21 1.59 0 .98-.27 1.75-.27 1.75-.27.76-.72 1.29-.72 1.29-.45.54-1.03.81-1.03.81-.58.28-1.19.28-1.19.28-.49 0-.95-.21-.95-.21-.46-.21-.86-.59-.86-.59zm0 0zm0-2.75c.31.28.61.39.61.39.31.11.6.11.6.11.59 0 1-.53 1-.53.42-.53.42-1.72.42-1.72 0-2.06-1.32-2.06-1.32-2.06-.66 0-1.31.7-1.31.7v3.13zm5.39 2.16zm.72-2.12c0-1.2 1.02-1.88 1.02-1.88 1.02-.68 3.28-.91 3.28-.91-.03-.51-.31-.81-.31-.81-.27-.3-.89-.3-.89-.3-.49 0-.98.18-.98.18-.49.19-1.04.51-1.04.51l-.8-1.49c.74-.44 1.55-.72 1.55-.72.81-.27 1.72-.27 1.72-.27 1.48 0 2.26.84 2.26.84.78.84.78 2.61.78 2.61v4.37h-1.85l-.17-.78h-.04c-.49.43-1.04.7-1.04.7-.55.27-1.19.27-1.19.27-.52 0-.94-.18-.94-.18-.41-.18-.71-.49-.71-.49-.29-.316-.45-.73-.45-.73-.17-.417-.17-.91-.17-.91zm0 0zm2.16-.17c0 .37.24.55.24.55.24.18.64.18.64.18.4 0 .68-.17.68-.17.28-.16.59-.47.59-.47v-1.34c-1.22.17-1.68.5-1.68.5-.46.33-.46.77-.46.77zm5.34 2.3zm.56-3.82c0-.95.33-1.7.33-1.7.32-.74.87-1.25.87-1.25.55-.5 1.27-.77 1.27-.77.73-.27 1.51-.27 1.51-.27.71 0 1.28.24 1.28.24.57.24.95.64.95.64l-1.03 1.4c-.54-.44-1.06-.44-1.06-.44-.83 0-1.31.59-1.31.59-.48.582-.48 1.583-.48 1.583 0 1 .49 1.59.49 1.59.49.58 1.23.58 1.23.58.41 0 .75-.17.75-.17.34-.17.62-.39.62-.39l.91 1.43c-.55.495-1.23.73-1.23.73-.67.23-1.31.23-1.31.23-.8 0-1.48-.27-1.48-.27-.68-.27-1.19-.78-1.19-.78-.51-.51-.8-1.26-.8-1.26-.29-.745-.29-1.7-.29-1.7zm6.61 3.8zm1-10.79h2.2v6.2h.07l2.42-3.036h2.47l-2.68 3.14 2.88 4.5h-2.45l-1.72-2.97-.97 1.09v1.88H470V3.3zm7.29 10.8zm.72-2.128c0-1.2 1.02-1.88 1.02-1.88 1.02-.674 3.28-.905 3.28-.905-.03-.51-.3-.81-.3-.81-.27-.3-.89-.3-.89-.3-.49 0-.98.18-.98.18-.49.19-1.05.51-1.05.51l-.8-1.49c.74-.44 1.55-.72 1.55-.72.81-.27 1.72-.27 1.72-.27 1.48 0 2.26.84 2.26.84.78.84.78 2.61.78 2.61v4.37h-1.85l-.17-.78h-.04c-.49.43-1.04.7-1.04.7-.55.27-1.19.27-1.19.27-.52 0-.94-.17-.94-.17-.41-.18-.71-.49-.71-.49-.29-.32-.45-.73-.45-.73-.17-.42-.17-.91-.17-.91zm0 0zm2.16-.17c0 .37.24.55.24.55.24.18.64.18.64.18.4 0 .68-.17.68-.17.28-.16.59-.47.59-.47v-1.34c-1.22.17-1.68.49-1.68.49-.46.32-.46.77-.46.77zm5.35 2.3zm2.38.954c0 .43.46.657.46.657.46.224 1.23.224 1.23.224.77 0 1.27-.27 1.27-.27.49-.27.49-.67.49-.67 0-.35-.3-.474-.3-.474-.3-.12-.87-.12-.87-.12h-.79c-.4 0-.65-.02-.65-.02-.25-.02-.43-.07-.43-.07-.42.37-.42.757-.42.757zm0 0zm-1.86.357c0-.92 1.1-1.54 1.1-1.54v-.06c-.31-.2-.51-.51-.51-.51-.2-.307-.2-.78-.2-.78 0-.42.24-.8.24-.8.24-.38.61-.64.61-.64V11c-.4-.28-.72-.792-.72-.792-.32-.51-.32-1.19-.32-1.19 0-.696.26-1.21.26-1.21.26-.518.7-.86.7-.86.44-.35 1.01-.52 1.01-.52.57-.17 1.18-.17 1.18-.17.67 0 1.18.185 1.18.185h2.79V8.1h-1.21c.11.17.18.43.18.43.07.26.07.57.07.57 0 .66-.23 1.14-.23 1.14-.23.48-.64.8-.64.8-.41.31-.95.47-.95.47-.54.15-1.17.15-1.17.15-.444 0-.92-.16-.92-.16-.16.12-.22.24-.22.24-.06.12-.06.32-.06.32 0 .29.253.43.253.43.25.14.9.14.9.14h1.23c1.42 0 2.165.45 2.165.45.75.45.75 1.48.75 1.48 0 .6-.3 1.1-.3 1.1-.3.5-.852.86-.852.86-.55.36-1.34.57-1.34.57-.78.21-1.77.21-1.77.21-.68 0-1.25-.112-1.25-.112-.58-.12-1.01-.35-1.01-.35-.44-.23-.69-.6-.69-.6-.25-.37-.25-.88-.25-.88zm0 0zm3.37-5.097c.45 0 .75-.32.75-.32.3-.32.3-.96.3-.96 0-.6-.3-.92-.3-.92-.3-.32-.75-.32-.75-.32-.44 0-.74.31-.74.31-.3.31-.3.92-.3.92 0 .65.3.96.3.96.3.32.74.32.74.32zm4.05 3.79zm.56-3.82c0-.93.31-1.67.31-1.67.31-.75.81-1.26.81-1.26.5-.52 1.15-.8 1.15-.8.65-.28 1.34-.28 1.34-.28.82 0 1.43.28 1.43.28.61.27 1.02.77 1.02.77.41.49.61 1.16.61 1.16.2.67.2 1.45.2 1.45 0 .31-.03.56-.03.56-.03.25-.06.39-.06.39h-4.57c.16.88.69 1.27.69 1.27.53.39 1.3.39 1.3.39.82 0 1.65-.51 1.65-.51l.76 1.37c-.58.4-1.3.63-1.3.63-.71.23-1.41.23-1.41.23-.81 0-1.52-.27-1.52-.27-.71-.27-1.23-.78-1.23-.78-.53-.52-.82-1.26-.82-1.26-.29-.74-.29-1.69-.29-1.69zm0 0zm4.93-.79c0-.66-.29-1.08-.29-1.08-.29-.42-.98-.42-.98-.42-.54 0-.95.36-.95.36-.41.36-.53 1.13-.53 1.13h2.76zm5.7 4.6zm1-7.64h1.85l.16 1.34h.06c.42-.79 1-1.16 1-1.16.59-.37 1.17-.37 1.17-.37.33 0 .53.04.53.04.21.04.38.11.38.11l-.37 1.95c-.21-.06-.4-.09-.4-.09-.18-.03-.43-.03-.43-.03-.43 0-.9.31-.9.31-.47.31-.78 1.1-.78 1.1v4.42h-2.26v-7.6zm4.98 7.64zm.56-3.82c0-.93.31-1.67.31-1.67.31-.75.81-1.27.81-1.27.5-.52 1.15-.79 1.15-.79.65-.28 1.34-.28 1.34-.28.82 0 1.43.27 1.43.27.61.28 1.02.77 1.02.77.41.49.61 1.16.61 1.16.2.67.2 1.45.2 1.45 0 .31-.03.56-.03.56-.03.26-.06.4-.06.4h-4.57c.16.87.69 1.27.69 1.27.53.39 1.3.39 1.3.39.82 0 1.65-.51 1.65-.51l.75 1.37c-.58.4-1.3.63-1.3.63-.72.23-1.41.23-1.41.23-.81 0-1.52-.27-1.52-.27-.71-.27-1.23-.79-1.23-.79-.53-.52-.82-1.26-.82-1.26-.29-.74-.29-1.694-.29-1.694zm0 0zm4.93-.79c0-.67-.29-1.08-.29-1.08-.29-.42-.99-.42-.99-.42-.54 0-.94.36-.94.36-.41.36-.53 1.13-.53 1.13h2.76zm2.5 4.6zm3.27.6v2.23h-2.26V6.46h1.85l.16.754h.06c.45-.4 1.01-.67 1.01-.67.56-.27 1.16-.27 1.16-.27.7 0 1.25.277 1.25.277.56.28.94.79.94.79.39.51.6 1.23.6 1.23.21.72.21 1.6.21 1.6 0 .98-.27 1.75-.27 1.75-.27.76-.72 1.29-.72 1.29-.45.53-1.03.81-1.03.81-.58.27-1.2.27-1.2.27-.49 0-.95-.21-.95-.21-.46-.21-.86-.6-.86-.6zm0 0zm0-2.76c.31.28.62.38.62.38.31.11.6.11.6.11.59 0 1-.53 1-.53.41-.53.41-1.712.41-1.712 0-2.067-1.32-2.067-1.32-2.067-.67 0-1.31.69-1.31.69v3.13zm5.56 2.15zm.56-3.82c0-.95.31-1.7.31-1.7.31-.75.83-1.26.83-1.26.52-.51 1.2-.77 1.2-.77.68-.27 1.4-.27 1.4-.27.73 0 1.4.27 1.4.27.67.27 1.18.78 1.18.78.52.51.83 1.26.83 1.26.31.75.31 1.7.31 1.7 0 .958-.304 1.705-.304 1.705-.31.75-.83 1.26-.83 1.26-.51.51-1.18.78-1.18.78-.67.27-1.39.27-1.39.27-.73 0-1.4-.27-1.4-.27-.676-.27-1.19-.78-1.19-.78-.52-.51-.83-1.254-.83-1.254-.31-.75-.31-1.71-.31-1.71zm0 0zm2.33 0c0 1 .35 1.59.35 1.59.35.58 1.06.58 1.06.58.7 0 1.05-.58 1.05-.58.36-.59.36-1.59.36-1.59 0-1-.35-1.59-.35-1.59-.36-.59-1.05-.59-1.05-.59-.71 0-1.05.59-1.05.59-.346.59-.346 1.59-.346 1.59zm5.59 3.82zm1.34-2.29c.52.4 1 .6 1 .6.48.2.97.2.97.2.51 0 .74-.17.74-.17.23-.17.23-.48.23-.48 0-.18-.13-.33-.13-.33-.13-.14-.35-.27-.35-.27-.22-.12-.5-.22-.5-.22-.28-.1-.57-.22-.57-.22-.35-.14-.71-.32-.71-.32-.35-.183-.64-.453-.64-.453-.29-.27-.48-.63-.48-.63-.18-.36-.18-.84-.18-.84 0-.52.208-.97.208-.97.21-.45.59-.75.59-.75.39-.308.93-.48.93-.48.54-.18 1.2-.18 1.2-.18.88 0 1.54.3 1.54.3.66.3 1.156.67 1.156.67l-1.04 1.38c-.415-.308-.815-.478-.815-.478-.4-.17-.8-.17-.8-.17-.86 0-.86.6-.86.6 0 .18.13.31.13.31.127.13.33.24.33.24.21.11.48.21.48.21l.56.21c.37.14.735.314.735.314.363.18.663.44.663.44.3.26.48.64.48.64.19.38.19.9.19.9 0 .53-.2.97-.2.97-.2.45-.6.78-.6.78-.4.33-.985.53-.985.53-.583.19-1.353.19-1.353.19-.75 0-1.544-.29-1.544-.29-.8-.29-1.38-.77-1.38-.77zm5.48 2.29zm2.12-8.76c-.56 0-.93-.33-.93-.33-.37-.33-.37-.86-.37-.86 0-.52.37-.84.37-.84.37-.32.94-.32.94-.32.59 0 .95.32.95.32.36.32.36.85.36.85 0 .52-.36.85-.36.85-.36.33-.95.33-.95.33zm0 0zm-1.12 1.12H546v7.64h-2.26v-7.6zm3.25 7.64zm1.31-5.87h-1.05V6.55l1.17-.094.26-2.033h1.88v2.04h1.83v1.77h-1.83v3.06c0 .647.27.93.27.93.27.286.72.286.72.286.19 0 .38-.05.38-.05.2-.05.35-.11.35-.11l.35 1.65c-.31.09-.72.18-.72.18-.42.09-.97.09-.97.09-.71 0-1.21-.22-1.21-.22-.5-.22-.82-.6-.82-.6-.32-.39-.46-.94-.46-.94-.15-.55-.15-1.21-.15-1.21V8.22zm4.44 5.87zm.56-3.82c0-.95.31-1.7.31-1.7.31-.74.83-1.25.83-1.25.51-.51 1.19-.78 1.19-.78.68-.27 1.4-.27 1.4-.27.72 0 1.39.27 1.39.27.67.27 1.19.78 1.19.78.51.51.82 1.26.82 1.26.31.75.31 1.7.31 1.7 0 .96-.31 1.71-.31 1.71-.31.746-.82 1.25-.82 1.25-.52.51-1.19.78-1.19.78-.67.27-1.4.27-1.4.27-.72 0-1.4-.27-1.4-.27-.68-.27-1.19-.78-1.19-.78-.51-.51-.82-1.25-.82-1.25-.31-.75-.31-1.7-.31-1.7zm0 0zm2.33 0c0 1 .35 1.59.35 1.59.35.58 1.06.58 1.06.58.69 0 1.05-.59 1.05-.59.35-.59.35-1.59.35-1.59 0-1-.35-1.59-.35-1.59-.36-.58-1.05-.58-1.05-.58-.71 0-1.05.58-1.05.58-.35.59-.35 1.59-.35 1.59zm5.67 3.82zm1-7.64h1.85l.15 1.34h.07c.41-.78 1-1.15 1-1.15.58-.37 1.17-.37 1.17-.37.32 0 .53.04.53.04.2.03.37.11.37.11l-.37 1.96c-.21-.06-.4-.09-.4-.09-.18-.03-.43-.03-.43-.03-.43 0-.9.31-.9.31-.47.31-.77 1.097-.77 1.097v4.43h-2.27v-7.6zm5.13 7.64zm2.13-8.76c-.57 0-.94-.33-.94-.33-.37-.33-.37-.85-.37-.85 0-.525.37-.85.37-.85.37-.32.94-.32.94-.32.58 0 .94.32.94.32.36.325.36.85.36.85 0 .525-.36.856-.36.856-.36.33-.95.33-.95.33zm0 0zm-1.13 1.12h2.26v7.64h-2.27v-7.6zm3.25 7.64zm.55-3.82c0-.93.31-1.67.31-1.67.31-.744.81-1.26.81-1.26.5-.52 1.15-.794 1.15-.794.64-.275 1.34-.275 1.34-.275.81 0 1.42.28 1.42.28.61.28 1.02.77 1.02.77.41.5.61 1.17.61 1.17.2.67.2 1.45.2 1.45 0 .31-.03.57-.03.57-.03.25-.06.39-.06.39h-4.57c.15.88.68 1.27.68 1.27.53.39 1.3.39 1.3.39.82 0 1.65-.5 1.65-.5l.75 1.37c-.58.4-1.3.63-1.3.63-.71.23-1.41.23-1.41.23-.81 0-1.52-.27-1.52-.27-.71-.27-1.23-.79-1.23-.79-.52-.51-.82-1.25-.82-1.25-.29-.74-.29-1.69-.29-1.69zm0 0zm4.93-.79c0-.66-.29-1.08-.29-1.08-.3-.41-.99-.41-.99-.41-.54 0-.95.36-.95.36-.41.36-.53 1.13-.53 1.13h2.76zm2.5 4.61zm1.33-2.28c.52.4 1 .6 1 .6.477.2.97.2.97.2.51 0 .74-.17.74-.17.23-.17.23-.48.23-.48 0-.18-.13-.33-.13-.33-.13-.14-.36-.27-.36-.27-.223-.12-.5-.22-.5-.22-.28-.1-.57-.22-.57-.22-.36-.14-.71-.32-.71-.32-.352-.184-.65-.454-.65-.454-.29-.27-.47-.63-.47-.63-.18-.36-.18-.84-.18-.84 0-.524.21-.97.21-.97.21-.45.59-.755.59-.755.39-.31.93-.48.93-.48.54-.18 1.2-.18 1.2-.18.88 0 1.54.3 1.54.3.66.3 1.15.67 1.15.67l-1 1.35c-.417-.31-.82-.48-.82-.48-.4-.17-.8-.17-.8-.17-.865 0-.865.606-.865.606 0 .18.12.31.12.31.125.13.33.24.33.24.21.11.48.21.48.21l.56.21c.37.14.73.317.73.317.366.18.667.44.667.44.3.26.49.64.49.64.19.37.19.9.19.9 0 .52-.2.97-.2.97-.2.44-.6.77-.6.77-.4.33-.986.52-.986.52-.586.19-1.356.19-1.356.19-.76 0-1.55-.29-1.55-.29-.79-.3-1.376-.77-1.376-.77zm8.68 2.294zm3.148 2.753c-.97-1.59-1.505-3.3-1.505-3.3-.53-1.71-.53-3.74-.53-3.74 0-2.04.53-3.75.53-3.75.54-1.71 1.51-3.29 1.51-3.29l1.42.59c-.85 1.51-1.23 3.16-1.23 3.16-.39 1.64-.39 3.29-.39 3.29 0 1.645.39 3.29.39 3.29.38 1.65 1.23 3.16 1.23 3.16l-1.42.58zm2.15-2.76zm1-10.79h2.265v8.52c0 .355.13.49.13.49.14.14.27.14.27.14h.13l.15-.034.28 1.68c-.18.08-.47.13-.47.13-.28.06-.67.06-.67.06-.58 0-.98-.18-.98-.18-.4-.185-.64-.516-.64-.516-.24-.33-.34-.8-.34-.8-.11-.47-.11-1.06-.11-1.06V3.3zm3.4 10.79zm2.12-8.76c-.57 0-.94-.34-.94-.34-.37-.33-.37-.85-.37-.85 0-.52.37-.84.37-.84.37-.32.94-.32.94-.32.586 0 .948.32.948.32.366.33.366.85.366.85 0 .53-.37.86-.37.86-.36.33-.95.33-.95.33zm0 0zm-1.13 1.12h2.266v7.64h-2.26v-7.6zm3.25 7.64zm1-10.8h2.2v6.2h.06l2.42-3.03h2.468L609.1 9.56l2.88 4.5h-2.45l-1.73-2.977-.97 1.09v1.88h-2.2V3.3zm7.01 10.8zm.556-3.82c0-.92.31-1.67.31-1.67.31-.74.81-1.26.81-1.26.5-.52 1.15-.79 1.15-.79.65-.278 1.34-.278 1.34-.278.82 0 1.43.28 1.43.28.61.28 1.01.77 1.01.77.41.49.61 1.16.61 1.16.2.67.2 1.46.2 1.46 0 .31-.03.563-.03.563-.03.26-.06.39-.06.39h-4.57c.15.87.69 1.27.69 1.27.53.39 1.3.39 1.3.39.82 0 1.65-.51 1.65-.51l.76 1.37c-.585.4-1.3.63-1.3.63-.72.23-1.41.23-1.41.23-.816 0-1.525-.27-1.525-.27-.706-.27-1.23-.79-1.23-.79-.52-.51-.815-1.25-.815-1.25-.29-.74-.29-1.69-.29-1.69zm0 0zm4.93-.78c0-.66-.29-1.08-.29-1.08-.29-.42-.98-.42-.98-.42-.54 0-.95.365-.95.365-.41.36-.53 1.13-.53 1.13h2.758zm5.7 4.604zM624 4.03h2.26V7.9h3.47V4.06H632v10.042h-2.28v-4.19h-3.47v4.19h-2.264V4.062zm9.19 10.04zm.73-2.122c0-1.2 1.017-1.88 1.017-1.88 1.01-.677 3.28-.91 3.28-.91-.03-.51-.31-.81-.31-.81-.28-.3-.89-.3-.89-.3-.5 0-.99.18-.99.18-.49.186-1.05.51-1.05.51l-.8-1.49c.74-.45 1.55-.73 1.55-.73.81-.27 1.72-.27 1.72-.27 1.48 0 2.25.84 2.25.84.78.84.78 2.61.78 2.61v4.37h-1.84l-.17-.79h-.05c-.49.44-1.04.7-1.04.7-.546.27-1.19.27-1.19.27-.52 0-.94-.17-.94-.17-.41-.18-.7-.49-.7-.49-.296-.316-.457-.73-.457-.73-.16-.414-.16-.906-.16-.906zm0 0zm2.157-.17c0 .37.24.55.24.55.24.18.64.18.64.18.4 0 .67-.17.67-.17.28-.17.59-.48.59-.48v-1.34c-1.215.17-1.68.49-1.68.49-.463.32-.463.77-.463.77zm5.34 2.3zm.55-3.82c0-.96.33-1.7.33-1.7.324-.75.87-1.26.87-1.26.55-.51 1.27-.78 1.27-.78.725-.27 1.51-.27 1.51-.27.71 0 1.28.24 1.28.24.57.236.954.636.954.636l-1.03 1.4c-.54-.44-1.06-.44-1.06-.44-.83 0-1.31.58-1.31.58-.47.58-.47 1.58-.47 1.58 0 1 .49 1.584.49 1.584.49.587 1.23.587 1.23.587.42 0 .76-.17.76-.17.34-.17.62-.39.62-.39l.91 1.43c-.56.496-1.24.727-1.24.727-.67.23-1.31.23-1.31.23-.8 0-1.48-.27-1.48-.27-.69-.27-1.2-.78-1.2-.78-.51-.51-.8-1.254-.8-1.254-.29-.743-.29-1.7-.29-1.7zm6.64 3.82zm1-10.8h2.2v6.2h.066l2.41-3.033h2.463l-2.68 3.146 2.88 4.49h-2.45l-1.73-2.98-.97 1.09v1.88h-2.2V3.32zm7.286 10.795zm.72-2.12c0-1.2 1.01-1.88 1.01-1.88 1.02-.67 3.28-.91 3.28-.91-.03-.51-.31-.81-.31-.81-.27-.3-.89-.3-.89-.3-.49 0-.98.19-.98.19-.49.19-1.05.51-1.05.51l-.8-1.49c.74-.44 1.55-.72 1.55-.72.81-.27 1.72-.27 1.72-.27 1.48 0 2.26.84 2.26.84.78.84.78 2.61.78 2.61v4.37h-1.85l-.17-.782h-.047c-.495.43-1.04.7-1.04.7-.55.27-1.195.27-1.195.27-.52 0-.94-.17-.94-.17-.41-.18-.7-.5-.7-.5-.29-.32-.45-.73-.45-.73-.16-.41-.16-.9-.16-.9zm0 0zm2.15-.17c0 .37.24.55.24.55.24.18.64.18.64.18.4 0 .68-.17.68-.17.28-.17.59-.48.59-.48v-1.34c-1.215.17-1.677.5-1.677.5-.46.32-.46.77-.46.77zm5.35 2.3zm2.39.96c0 .43.46.656.46.656.463.22 1.233.22 1.233.22.77 0 1.26-.27 1.26-.27.49-.27.49-.67.49-.67 0-.35-.3-.48-.3-.48-.3-.12-.87-.12-.87-.12h-.785c-.4 0-.65-.02-.65-.02-.24-.02-.43-.07-.43-.07-.41.37-.41.76-.41.76zm0 0zm-1.865.356c0-.93 1.096-1.54 1.096-1.54v-.06c-.31-.2-.51-.51-.51-.51-.2-.31-.2-.79-.2-.79 0-.42.24-.79.24-.79.25-.38.62-.64.62-.64V11c-.4-.28-.72-.793-.72-.793-.31-.52-.31-1.197-.31-1.197 0-.69.26-1.21.26-1.21.26-.51.7-.86.7-.86.44-.343 1.01-.512 1.01-.512.57-.17 1.185-.17 1.185-.17.68 0 1.18.185 1.18.185h2.79V8.1h-1.22c.11.17.18.432.18.432.07.264.07.57.07.57 0 .664-.24 1.15-.24 1.15-.23.482-.64.8-.64.8-.41.314-.96.47-.96.47-.55.152-1.18.152-1.18.152-.45 0-.92-.153-.92-.153-.16.12-.22.25-.22.25-.07.12-.07.32-.07.32 0 .29.26.43.26.43.26.14.9.14.9.14h1.23c1.42 0 2.17.46 2.17.46.74.46.74 1.49.74 1.49 0 .6-.3 1.1-.3 1.1-.3.5-.86.86-.86.86-.56.36-1.34.57-1.34.57-.79.21-1.77.21-1.77.21-.68 0-1.26-.11-1.26-.11-.58-.12-1.02-.35-1.02-.35-.44-.23-.69-.6-.69-.6-.24-.37-.24-.87-.24-.87zm0 0zm3.375-5.1c.45 0 .75-.32.75-.32.3-.31.3-.96.3-.96 0-.6-.3-.91-.3-.91-.3-.32-.74-.32-.74-.32-.446 0-.746.31-.746.31-.3.31-.3.93-.3.93 0 .64.3.96.3.96.3.31.75.31.75.31zm4.05 3.79zm.56-3.82c0-.93.303-1.67.303-1.67.31-.75.81-1.26.81-1.26.5-.52 1.15-.8 1.15-.8.65-.28 1.34-.28 1.34-.28.82 0 1.43.28 1.43.28.61.27 1.02.77 1.02.77.41.49.61 1.16.61 1.16.2.67.2 1.45.2 1.45 0 .31-.03.56-.03.56-.03.26-.06.4-.06.4h-4.57c.154.87.686 1.27.686 1.27.53.39 1.3.39 1.3.39.82 0 1.65-.51 1.65-.51l.75 1.37c-.59.4-1.3.64-1.3.64-.72.23-1.41.23-1.41.23-.82 0-1.53-.27-1.53-.27-.71-.27-1.233-.79-1.233-.79-.52-.52-.82-1.26-.82-1.26-.29-.74-.29-1.69-.29-1.69zm0 0zm4.923-.79c0-.66-.29-1.08-.29-1.08-.29-.43-.98-.43-.98-.43-.54 0-.95.36-.95.36-.41.36-.53 1.13-.53 1.13h2.757zm5.7 4.61zm.56-3.82c0-.96.31-1.7.31-1.7.31-.75.83-1.26.83-1.26.513-.51 1.19-.78 1.19-.78.68-.27 1.4-.27 1.4-.27.73 0 1.4.27 1.4.27.67.27 1.183.78 1.183.78.51.51.82 1.26.82 1.26.3.75.3 1.7.3 1.7 0 .96-.31 1.7-.31 1.7-.31.74-.82 1.25-.82 1.25-.51.5-1.18.77-1.18.77-.67.27-1.4.27-1.4.27-.73 0-1.4-.27-1.4-.27-.68-.27-1.2-.78-1.2-.78-.52-.51-.82-1.25-.82-1.25-.31-.75-.31-1.7-.31-1.7zm0 0zm2.33 0c0 1 .345 1.58.345 1.58.35.59 1.06.59 1.06.59.69 0 1.05-.59 1.05-.59.35-.59.35-1.59.35-1.59 0-1-.35-1.58-.35-1.58-.35-.58-1.04-.58-1.04-.58-.71 0-1.05.59-1.05.59-.35.59-.35 1.59-.35 1.59zm5.666 3.82zm1-7.64h1.85l.15 1.34h.06c.413-.79 1-1.16 1-1.16.583-.37 1.17-.37 1.17-.37.322 0 .53.04.53.04.21.04.38.11.38.11l-.37 1.95c-.22-.06-.4-.09-.4-.09-.19-.03-.43-.03-.43-.03-.44 0-.906.3-.906.3-.47.31-.776 1.09-.776 1.09v4.42h-2.267v-7.6zm8.33 7.64zm1.83-2.82c.54.46 1.19.75 1.19.75.66.29 1.29.29 1.29.29.71 0 1.052-.26 1.052-.26.34-.26.34-.71.34-.71 0-.23-.1-.4-.1-.4-.1-.17-.29-.3-.29-.3-.19-.13-.46-.24-.46-.24l-.593-.26-1.31-.56c-.38-.16-.74-.4-.74-.4-.36-.25-.64-.58-.64-.58-.28-.33-.45-.77-.45-.77-.17-.44-.17-.99-.17-.99 0-.62.27-1.16.27-1.16.26-.55.74-.96.74-.96.48-.41 1.13-.64 1.13-.64.65-.23 1.44-.23 1.44-.23.88 0 1.73.34 1.73.34.85.34 1.5.98 1.5.98L708.7 6.6c-.498-.39-.99-.6-.99-.6-.49-.21-1.09-.21-1.09-.21-.588 0-.935.24-.935.24-.35.24-.35.67-.35.67 0 .23.114.392.114.392.11.16.32.29.32.29.21.13.48.25.48.25l.6.25 1.29.52c.92.37 1.45 1.02 1.45 1.02.53.645.53 1.71.53 1.71 0 .63-.26 1.19-.26 1.19-.25.56-.74.984-.74.984-.48.42-1.19.678-1.19.678-.71.254-1.6.254-1.6.254-.99 0-1.96-.36-1.96-.36-.98-.366-1.75-1.09-1.75-1.09zm6.73 2.82zM712 8.2h-1.05V6.55l1.17-.09.262-2.034h1.88v2.03h1.83v1.77h-1.83v3.07c0 .646.27.93.27.93.27.285.715.285.715.285.19 0 .38-.04.38-.04.19-.05.345-.11.345-.11l.357 1.65c-.3.09-.72.18-.72.18-.42.09-.97.09-.97.09-.71 0-1.21-.21-1.21-.21-.5-.21-.82-.6-.82-.6-.32-.38-.46-.93-.46-.93-.15-.54-.15-1.2-.15-1.2v-3.1zm4.4 5.87zm.73-2.13c0-1.2 1.012-1.88 1.012-1.88 1.017-.68 3.28-.91 3.28-.91-.03-.51-.307-.81-.307-.81-.276-.3-.89-.3-.89-.3-.49 0-.99.184-.99.184-.49.183-1.05.51-1.05.51l-.8-1.49c.74-.45 1.55-.73 1.55-.73.81-.28 1.72-.28 1.72-.28 1.48 0 2.26.84 2.26.84.776.84.776 2.61.776 2.61v4.37h-1.85l-.17-.785h-.05c-.49.43-1.04.7-1.04.7-.54.27-1.19.27-1.19.27-.52 0-.94-.18-.94-.18-.41-.18-.71-.49-.71-.49-.29-.32-.45-.73-.45-.73-.16-.41-.16-.9-.16-.9zm0 0zm2.152-.17c0 .37.24.545.24.545.237.173.64.173.64.173.4 0 .675-.17.675-.17.28-.17.59-.477.59-.477V10.5c-1.22.17-1.68.49-1.68.49-.46.325-.46.77-.46.77zm5.344 2.293zm.55-3.82c0-.95.32-1.7.32-1.7.32-.74.87-1.25.87-1.25.546-.51 1.27-.78 1.27-.78.72-.27 1.51-.27 1.51-.27.71 0 1.28.24 1.28.24.57.235.95.635.95.635l-1.03 1.4c-.54-.447-1.06-.447-1.06-.447-.83 0-1.31.59-1.31.59-.476.58-.476 1.58-.476 1.58 0 1 .484 1.59.484 1.59.48.59 1.22.59 1.22.59.416 0 .755-.17.755-.17.34-.17.61-.39.61-.39l.9 1.43c-.56.5-1.23.73-1.23.73-.68.23-1.31.23-1.31.23-.8 0-1.49-.27-1.49-.27-.69-.27-1.2-.78-1.2-.78-.51-.51-.8-1.26-.8-1.26-.29-.74-.29-1.7-.29-1.7zm6.637 3.82zm1-10.79h2.2V9.5h.066l2.41-3.035h2.46l-2.68 3.142 2.88 4.497h-2.45l-1.72-2.97-.97 1.095v1.88h-2.2V3.32zm7.294 10.78zm.72-2.126c0-1.2 1.018-1.88 1.018-1.88 1.02-.68 3.28-.91 3.28-.91-.03-.51-.3-.81-.3-.81-.28-.3-.892-.3-.892-.3-.49 0-.982.184-.982.184-.49.18-1.05.51-1.05.51l-.8-1.49c.74-.45 1.55-.73 1.55-.73.81-.27 1.72-.27 1.72-.27 1.48 0 2.26.84 2.26.84.78.84.78 2.61.78 2.61v4.37h-1.84l-.17-.79h-.05c-.49.44-1.04.7-1.04.7-.55.27-1.19.27-1.19.27-.52 0-.94-.17-.94-.17-.42-.18-.71-.49-.71-.49-.29-.31-.45-.73-.45-.73-.16-.41-.16-.9-.16-.9zm0 0zm2.157-.17c0 .37.24.55.24.55.236.18.636.18.636.18.4 0 .68-.17.68-.17.28-.17.59-.48.59-.48V10.5c-1.21.17-1.68.493-1.68.493-.46.324-.46.77-.46.77zm5.34 2.292zm2.39.96c0 .43.47.65.47.65.46.22 1.23.22 1.23.22.77 0 1.265-.27 1.265-.27.49-.27.49-.67.49-.67 0-.36-.3-.48-.3-.48-.3-.12-.87-.12-.87-.12h-.79c-.4 0-.65-.03-.65-.03-.25-.02-.43-.07-.43-.07-.42.37-.42.75-.42.75zm0 0zm-1.86.35c0-.93 1.1-1.54 1.1-1.54v-.06c-.31-.2-.51-.51-.51-.51-.2-.31-.2-.79-.2-.79 0-.41.25-.79.25-.79.247-.38.616-.64.616-.64V11c-.4-.278-.72-.793-.72-.793-.31-.52-.31-1.198-.31-1.198 0-.7.26-1.21.26-1.21.26-.52.7-.86.7-.86.44-.35 1.01-.52 1.01-.52.57-.17 1.183-.17 1.183-.17.68 0 1.183.18 1.183.18h2.79V8.1h-1.22c.106.17.175.433.175.433.07.262.07.57.07.57 0 .662-.23 1.147-.23 1.147-.23.48-.64.8-.64.8-.41.31-.95.47-.95.47-.55.15-1.18.15-1.18.15-.45 0-.93-.16-.93-.16-.16.12-.22.244-.22.244-.06.123-.06.324-.06.324 0 .29.26.43.26.43.26.14.9.14.9.14h1.23c1.41 0 2.16.454 2.16.454.74.454.74 1.486.74 1.486 0 .6-.3 1.1-.3 1.1-.3.5-.85.86-.85.86-.55.362-1.34.57-1.34.57-.78.21-1.77.21-1.77.21-.68 0-1.25-.116-1.25-.116-.57-.117-1.01-.348-1.01-.348-.44-.233-.69-.603-.69-.603-.24-.37-.24-.87-.24-.87zm0 0zm3.37-5.1c.45 0 .75-.32.75-.32.3-.31.3-.96.3-.96 0-.6-.3-.92-.3-.92-.3-.32-.75-.32-.75-.32-.44 0-.74.3-.74.3-.3.31-.3.92-.3.92 0 .65.3.96.3.96.3.31.747.31.747.31zm4.05 3.79zm.56-3.82c0-.93.31-1.68.31-1.68.31-.74.81-1.26.81-1.26.5-.52 1.147-.79 1.147-.79.65-.27 1.34-.27 1.34-.27.82 0 1.43.28 1.43.28.61.27 1.02.77 1.02.77.41.49.61 1.16.61 1.16.2.67.2 1.45.2 1.45 0 .31-.03.56-.03.56-.03.25-.06.39-.06.39H759c.15.87.683 1.27.683 1.27.53.39 1.3.39 1.3.39.81 0 1.642-.51 1.642-.51l.755 1.37c-.585.4-1.3.63-1.3.63-.718.23-1.41.23-1.41.23-.817 0-1.525-.27-1.525-.27-.71-.27-1.23-.79-1.23-.79-.52-.52-.813-1.26-.813-1.26-.293-.74-.293-1.69-.293-1.69zm0 0zm4.93-.79c0-.66-.29-1.08-.29-1.08-.29-.42-.987-.42-.987-.42-.54 0-.95.36-.95.36-.41.36-.53 1.13-.53 1.13h2.755zm2.496 4.61zm.74 2.17c.86-1.51 1.25-3.16 1.25-3.16.384-1.65.384-3.3.384-3.3 0-1.65-.38-3.3-.38-3.3-.38-1.65-1.25-3.16-1.25-3.16l1.42-.59c.97 1.58 1.5 3.29 1.5 3.29.53 1.71.53 3.74.53 3.74 0 2.04-.53 3.75-.53 3.75-.53 1.71-1.5 3.29-1.5 3.29L765 16.21zm4.56-2.17zm.94-1.24c0-.62.39-1.02.39-1.02.39-.41.98-.41.98-.41.587 0 .98.41.98.41.395.41.395 1.02.395 1.02 0 .6-.39 1.01-.39 1.01-.39.4-.98.4-.98.4-.583 0-.98-.41-.98-.41-.39-.41-.39-1.01-.39-1.01z"/><path fill="none" stroke="#D3D3D3" stroke-miterlimit="10" d="M55.515 738h916.768M55.515 562.25h916.768M55.515 386.5h916.768M55.515 210.75h916.768M55.515 35h916.768" stroke-dasharray="5 5"/><g fill="#5C3566" stroke-opacity="0" stroke-width="0" stroke-miterlimit="10" stroke-linejoin="bevel"><defs><clipPath id="a"><path d="M55.515 35v703h916.768V35z"/></clipPath></defs><g clip-path="url(#a)"><path stroke="none" d="M70.515 738v-12.303h153.353V738z"/></g></g><g fill-opacity="0" stroke-miterlimit="10"><defs><clipPath id="b"><path d="M55.515 35v703h916.768V35z"/></clipPath></defs><g clip-path="url(#b)"><path fill="none" d="M70.515 738v-12.303h153.353V738z"/></g></g><g fill="#5C3566" stroke-opacity="0" stroke-width="0" stroke-miterlimit="10" stroke-linejoin="bevel"><defs><clipPath id="c"><path d="M55.515 35v703h916.768V35z"/></clipPath></defs><g clip-path="url(#c)"><path stroke="none" d="M253.868 738v-57.12h153.354V738z"/></g></g><g fill-opacity="0" stroke-miterlimit="10"><defs><clipPath id="d"><path d="M55.515 35v703h916.768V35z"/></clipPath></defs><g clip-path="url(#d)"><path fill="none" d="M253.868 738v-57.12h153.354V738z"/></g></g><g fill="#5C3566" stroke-opacity="0" stroke-width="0" stroke-miterlimit="10" stroke-linejoin="bevel"><defs><clipPath id="e"><path d="M55.515 35v703h916.768V35z"/></clipPath></defs><g clip-path="url(#e)"><path stroke="none" d="M437.222 738V480.526h153.353V738z"/></g></g><g fill-opacity="0" stroke-miterlimit="10"><defs><clipPath id="f"><path d="M55.515 35v703h916.768V35z"/></clipPath></defs><g clip-path="url(#f)"><path fill="none" d="M437.222 738V480.526h153.353V738z"/></g></g><g fill="#5C3566" stroke-opacity="0" stroke-width="0" stroke-miterlimit="10" stroke-linejoin="bevel"><defs><clipPath id="g"><path d="M55.515 35v703h916.768V35z"/></clipPath></defs><g clip-path="url(#g)"><path stroke="none" d="M620.575 738V165.934H773.93V738z"/></g></g><g fill-opacity="0" stroke-miterlimit="10"><defs><clipPath id="h"><path d="M55.515 35v703h916.768V35z"/></clipPath></defs><g clip-path="url(#h)"><path fill="none" d="M620.575 738V165.934H773.93V738z"/></g></g><g fill="#5C3566" stroke-opacity="0" stroke-width="0" stroke-miterlimit="10" stroke-linejoin="bevel"><defs><clipPath id="i"><path d="M55.515 35v703h916.768V35z"/></clipPath></defs><g clip-path="url(#i)"><path stroke="none" d="M803.93 738V567.523h153.353V738z"/></g></g><g fill-opacity="0" stroke-miterlimit="10"><defs><clipPath id="j"><path d="M55.515 35v703h916.768V35z"/></clipPath></defs><g clip-path="url(#j)"><path fill="none" d="M803.93 738V567.523h153.353V738z"/></g></g><path fill="none" stroke-miterlimit="10" d="M55.515 738V35" stroke-linecap="square"/><path fill="none" stroke-miterlimit="10" d="M55.515 738h2m-2-87.875h2m-2-87.875h2m-2-87.875h2m-2-87.875h2m-2-87.875h2m-2-87.875h2m-2-87.875h2m-2-87.875h2m-2 703h5m-5-175.75h5m-5-175.75h5m-5-175.75h5m-5-175.75h5"/><path stroke="none" d="M41.218 741.445zm2.616.126c-1.02 0-1.586-.9-1.586-.9-.567-.9-.567-2.59-.567-2.59 0-1.69.57-2.57.57-2.57.57-.88 1.59-.88 1.59-.88 1.01 0 1.58.88 1.58.88.57.89.57 2.58.57 2.58 0 1.69-.56 2.6-.56 2.6-.56.91-1.57.91-1.57.91zm0 0zm0-.69c.294 0 .53-.16.53-.16.237-.16.41-.5.41-.5.174-.34.268-.87.268-.87.095-.53.095-1.26.095-1.26 0-.73-.095-1.26-.095-1.26-.094-.52-.268-.85-.268-.85-.173-.33-.41-.49-.41-.49-.236-.16-.53-.16-.53-.16-.294 0-.536.16-.536.16-.24.16-.415.49-.415.49-.173.33-.268.86-.268.86-.094.53-.094 1.26-.094 1.26 0 1.47.37 2.14.37 2.14.37.67.95.67.95.67zM30.694 565.7zm.42-.514c.756-.755 1.344-1.364 1.344-1.364.588-.61.987-1.13.987-1.13.4-.52.61-.956.61-.956.21-.435.21-.845.21-.845 0-.58-.316-.94-.316-.94-.32-.37-.96-.37-.96-.37-.42 0-.78.24-.78.24-.36.24-.65.58-.65.58l-.5-.49c.42-.46.89-.74.89-.74.47-.28 1.13-.28 1.13-.28.93 0 1.47.55 1.47.55.53.54.53 1.43.53 1.43 0 .47-.21.95-.21.95-.21.48-.57.99-.57.99-.36.51-.86 1.06-.86 1.06-.5.55-1.1 1.17-1.1 1.17l.57-.04c.29-.02.55-.02.55-.02h1.94v.75h-4.3v-.51zm4.8.516zm2.615.125c-1.02 0-1.59-.902-1.59-.902-.57-.903-.57-2.595-.57-2.595 0-1.69.56-2.573.56-2.573.57-.882 1.58-.882 1.58-.882 1.01 0 1.57.882 1.57.882.56.882.56 2.574.56 2.574 0 1.69-.57 2.6-.57 2.6-.57.91-1.58.91-1.58.91zm0 0zm0-.692c.29 0 .53-.163.53-.163.23-.163.41-.505.41-.505.17-.34.26-.87.26-.87.09-.53.09-1.266.09-1.266 0-.74-.1-1.26-.1-1.26-.1-.53-.27-.86-.27-.86-.18-.33-.41-.48-.41-.48-.24-.16-.53-.16-.53-.16-.3 0-.54.16-.54.16-.25.16-.42.49-.42.49-.18.33-.27.86-.27.86-.09.53-.09 1.26-.09 1.26 0 1.47.36 2.14.36 2.14.36.67.95.67.95.67zm2.6.567zm2.61.125c-1.02 0-1.59-.902-1.59-.902-.57-.902-.57-2.594-.57-2.594 0-1.69.56-2.57.56-2.57.57-.88 1.59-.88 1.59-.88 1 0 1.57.89 1.57.89.57.88.57 2.58.57 2.58 0 1.69-.57 2.6-.57 2.6-.57.91-1.58.91-1.58.91zm0 0zm0-.692c.29 0 .53-.162.53-.162.23-.16.41-.5.41-.5.17-.34.26-.87.26-.87.09-.53.09-1.267.09-1.267 0-.735-.1-1.26-.1-1.26-.1-.525-.27-.856-.27-.856-.18-.33-.41-.487-.41-.487-.24-.16-.53-.16-.53-.16-.3 0-.54.16-.54.16-.24.155-.42.486-.42.486-.18.33-.27.85-.27.85-.1.52-.1 1.26-.1 1.26 0 1.47.36 2.14.36 2.14.36.67.95.67.95.67zm-13.25-175.19zm3.19-2.54v-1.944c0-.27.01-.64.01-.64.01-.37.03-.64.03-.64h-.05c-.13.24-.27.48-.27.48l-.29.48-1.56 2.29h2.1zm0 0zm1.73.693h-.91v1.848h-.82v-1.848h-3.01v-.568l2.87-4.287h.96v4.16h.91v.693zm.29 1.848zm2.61.126c-1.02 0-1.59-.9-1.59-.9-.57-.904-.57-2.596-.57-2.596 0-1.69.56-2.573.56-2.573.57-.88 1.58-.88 1.58-.88 1.01 0 1.57.88 1.57.88.57.883.57 2.575.57 2.575 0 1.69-.57 2.594-.57 2.594-.57.902-1.58.902-1.58.902zm0 0zm0-.69c.29 0 .53-.164.53-.164.23-.162.41-.504.41-.504.17-.34.26-.87.26-.87.09-.53.09-1.266.09-1.266 0-.736-.1-1.26-.1-1.26-.09-.526-.26-.857-.26-.857-.18-.33-.41-.49-.41-.49-.24-.16-.53-.16-.53-.16-.3 0-.54.16-.54.16-.24.16-.42.49-.42.49-.18.33-.27.86-.27.86-.1.53-.1 1.26-.1 1.26 0 1.47.36 2.14.36 2.14.36.67.95.67.95.67zm2.6.566zm2.61.126c-1.02 0-1.59-.902-1.59-.902-.57-.903-.57-2.595-.57-2.595 0-1.69.57-2.573.57-2.573.56-.882 1.58-.882 1.58-.882 1.01 0 1.57.882 1.57.882.56.882.56 2.574.56 2.574 0 1.69-.57 2.594-.57 2.594-.57.903-1.58.903-1.58.903zm0 0zm0-.692c.29 0 .53-.163.53-.163.24-.17.41-.51.41-.51.17-.34.27-.87.27-.87.09-.53.09-1.27.09-1.27 0-.74-.1-1.26-.1-1.26-.1-.53-.27-.86-.27-.86-.17-.33-.41-.49-.41-.49-.24-.16-.53-.16-.53-.16-.29 0-.54.16-.54.16-.24.15-.42.49-.42.49-.17.33-.27.85-.27.85-.1.52-.1 1.26-.1 1.26 0 1.47.36 2.14.36 2.14.36.67.95.67.95.67zm-12.7-175.187zm2.81-.556c.25 0 .46-.11.46-.11.21-.11.36-.3.36-.3.16-.2.24-.46.24-.46.09-.27.09-.61.09-.61 0-.66-.3-1.04-.3-1.04-.3-.38-.93-.38-.93-.38-.31 0-.68.2-.68.2-.37.2-.71.67-.71.67.09.99.46 1.5.46 1.5.38.51 1.02.51 1.02.51zm0 0zm1.37-5.03c-.21-.24-.49-.39-.49-.39-.29-.14-.6-.14-.6-.14-.34 0-.66.15-.66.15-.31.14-.55.48-.55.48-.24.33-.39.87-.39.87-.14.54-.15 1.34-.15 1.34.32-.39.74-.62.74-.62.42-.23.83-.23.83-.23.87 0 1.39.51 1.39.51.52.51.52 1.55.52 1.55 0 .48-.16.87-.16.87-.16.39-.43.68-.43.68-.28.28-.63.44-.63.44-.36.16-.77.16-.77.16-.49 0-.91-.2-.91-.2-.42-.2-.73-.61-.73-.61-.31-.4-.49-1.01-.49-1.01-.18-.61-.18-1.42-.18-1.42 0-1.01.21-1.72.21-1.72.21-.71.57-1.16.57-1.16.36-.44.82-.65.82-.65.45-.2.96-.2.96-.2.54 0 .94.2.94.2.39.21.68.51.68.51zm1.03 5.57zm2.62.12c-1.02 0-1.58-.91-1.58-.91-.56-.91-.56-2.6-.56-2.6 0-1.69.57-2.58.57-2.58.57-.88 1.59-.88 1.59-.88 1.01 0 1.58.88 1.58.88.57.88.57 2.57.57 2.57 0 1.69-.57 2.59-.57 2.59-.57.9-1.57.9-1.57.9zm0 0zm0-.7c.3 0 .53-.17.53-.17.24-.16.41-.5.41-.5.18-.34.27-.87.27-.87.1-.53.1-1.27.1-1.27 0-.73-.09-1.26-.09-1.26-.09-.52-.27-.86-.27-.86-.17-.33-.41-.49-.41-.49-.23-.16-.53-.16-.53-.16-.29 0-.53.16-.53.16-.24.16-.41.49-.41.49-.17.33-.27.85-.27.85-.09.52-.09 1.26-.09 1.26 0 1.47.36 2.14.36 2.14.36.67.95.67.95.67zm2.61.56zm2.62.13c-1.02 0-1.58-.9-1.58-.9-.56-.91-.56-2.6-.56-2.6 0-1.69.57-2.58.57-2.58.56-.88 1.58-.88 1.58-.88 1.01 0 1.57.88 1.57.88.56.88.56 2.57.56 2.57 0 1.69-.56 2.59-.56 2.59-.57.9-1.58.9-1.58.9zm0 0zm0-.69c.3 0 .53-.17.53-.17.24-.16.41-.51.41-.51.18-.34.27-.87.27-.87.1-.53.1-1.27.1-1.27 0-.74-.09-1.26-.09-1.26-.09-.53-.26-.86-.26-.86-.18-.33-.41-.49-.41-.49-.24-.16-.53-.16-.53-.16-.3 0-.54.16-.54.16-.24.15-.42.49-.42.49-.18.33-.27.86-.27.86-.1.52-.1 1.26-.1 1.26 0 1.47.37 2.13.37 2.13.36.67.95.67.95.67zM30.75 38.44zm1.21-1.797c0 .282.11.513.11.513.11.23.302.41.302.41.19.174.45.27.45.27.26.093.567.093.567.093.59 0 .95-.33.95-.33.36-.33.36-.85.36-.85 0-.33-.15-.56-.15-.56-.15-.23-.4-.41-.4-.41-.25-.17-.58-.32-.58-.32-.33-.14-.69-.29-.69-.29-.4.27-.67.63-.67.63-.27.36-.27.82-.27.82zm0 0zm1.89-1.86c.334-.306.52-.64.52-.64.18-.338.18-.706.18-.706 0-.507-.304-.848-.304-.848-.305-.35-.862-.35-.862-.35-.47 0-.775.29-.775.29-.31.29-.31.79-.31.79 0 .3.13.52.13.52.12.21.34.38.34.38.21.17.49.3.49.3.27.13.58.25.58.25zm0 0zm-2.67 1.942c0-.325.11-.604.11-.604.11-.28.283-.5.283-.5.173-.22.4-.4.4-.4.224-.17.466-.3.466-.3v-.04c-.37-.26-.65-.63-.65-.63-.29-.37-.29-.91-.29-.91 0-.39.15-.7.15-.7.14-.31.39-.54.39-.54.25-.22.6-.35.6-.35.34-.12.75-.12.75-.12.44 0 .79.13.79.13.34.13.59.37.59.37.24.24.38.57.38.57.13.33.13.72.13.72 0 .27-.09.51-.09.51-.09.24-.22.45-.22.45-.13.21-.3.38-.3.38-.17.17-.32.29-.32.29v.05c.22.13.43.29.43.29.21.16.37.37.37.37.16.2.26.47.26.47.1.26.1.6.1.6 0 .38-.16.71-.16.71-.16.32-.44.56-.44.56-.29.25-.69.38-.69.38-.4.14-.88.14-.88.14-.47 0-.88-.14-.88-.14-.41-.13-.7-.38-.7-.38-.29-.24-.46-.58-.46-.58-.17-.33-.17-.73-.17-.73zm4.79 1.712zm2.615.123c-1.02 0-1.584-.902-1.584-.902-.56-.902-.56-2.594-.56-2.594 0-1.69.57-2.57.57-2.57.57-.88 1.59-.88 1.59-.88 1.01 0 1.58.88 1.58.88.57.88.57 2.575.57 2.575 0 1.69-.57 2.59-.57 2.59-.57.9-1.57.9-1.57.9zm0 0zm0-.692c.296 0 .53-.162.53-.162.24-.16.41-.503.41-.503.175-.34.27-.87.27-.87.094-.53.094-1.27.094-1.27 0-.74-.1-1.26-.1-1.26-.1-.53-.27-.86-.27-.86-.17-.33-.41-.488-.41-.488-.24-.16-.53-.16-.53-.16-.3 0-.54.16-.54.16-.24.153-.42.484-.42.484-.17.33-.27.85-.27.85-.1.52-.1 1.26-.1 1.26 0 1.47.36 2.14.36 2.14.36.67.95.67.95.67zm2.607.568zm2.61.127c-1.02 0-1.585-.9-1.585-.9-.567-.91-.567-2.6-.567-2.6 0-1.69.563-2.577.563-2.577.57-.88 1.588-.88 1.588-.88 1.01 0 1.58.88 1.58.88.57.884.57 2.575.57 2.575 0 1.7-.57 2.6-.57 2.6-.56.9-1.57.9-1.57.9zm0 0zm0-.69c.296 0 .53-.17.53-.17.238-.16.41-.506.41-.506.175-.34.27-.87.27-.87.1-.53.1-1.265.1-1.265 0-.736-.094-1.26-.094-1.26-.094-.526-.267-.857-.267-.857-.17-.33-.41-.49-.41-.49-.24-.16-.53-.16-.53-.16-.29 0-.54.16-.54.16-.24.157-.41.49-.41.49-.17.33-.27.855-.27.855-.09.525-.09 1.26-.09 1.26 0 1.47.37 2.14.37 2.14.37.666.95.666.95.666z"/><path fill="none" stroke-miterlimit="10" d="M55.515 738h916.768" stroke-linecap="square"/><path stroke="none" d="M101.677 758zm.966-1.502c.368.39.867.625.867.625.5.236 1.034.236 1.034.236.683 0 1.06-.31 1.06-.31.38-.31.38-.82.38-.82 0-.26-.09-.45-.09-.45-.09-.19-.24-.32-.24-.32-.154-.13-.364-.24-.364-.24-.21-.11-.45-.22-.45-.22l-.99-.43c-.24-.11-.492-.26-.492-.26-.253-.15-.452-.36-.452-.36-.2-.21-.326-.5-.326-.5-.126-.29-.126-.67-.126-.67 0-.39.163-.73.163-.73.163-.34.452-.59.452-.59.28-.25.68-.39.68-.39.39-.14.86-.14.86-.14.62 0 1.14.23 1.14.23.52.24.89.61.89.61l-.48.56c-.32-.31-.7-.48-.7-.48-.39-.17-.87-.17-.87-.17-.58 0-.93.26-.93.26-.35.27-.35.74-.35.74 0 .25.1.42.1.42.1.17.27.3.27.3.17.14.37.23.37.23.2.1.41.19.41.19l.98.42c.29.13.55.29.55.29.26.16.45.38.45.38.19.21.3.5.3.5.11.29.11.66.11.66 0 .41-.17.76-.17.76-.16.35-.47.62-.47.62-.3.26-.73.42-.73.42-.43.15-.98.15-.98.15-.73 0-1.35-.27-1.35-.27-.62-.27-1.08-.75-1.08-.75zm4.643 1.502zm1.008-4.4h-.756v-.653l.798-.052.105-1.43h.73v1.43h1.38v.704h-1.37v2.83c0 .47.18.73.18.73.18.25.62.25.62.25.14 0 .3-.04.3-.04.16-.05.29-.1.29-.1l.17.65c-.21.07-.45.13-.45.13-.25.05-.49.05-.49.05-.41 0-.68-.13-.68-.13-.28-.13-.45-.35-.45-.35-.17-.22-.24-.54-.24-.54-.07-.32-.07-.7-.07-.7v-2.82zm2.542 4.4zm.862-5.105h.714l.074.924h.03c.264-.49.637-.77.637-.77.372-.29.814-.29.814-.29.304 0 .546.1.546.1l-.168.75c-.126-.04-.23-.07-.23-.07-.106-.02-.264-.02-.264-.02-.32 0-.67.26-.67.26-.35.26-.61.91-.61.91v3.3h-.86v-5.11zm2.678 5.105zm.484-2.542c0-.64.194-1.14.194-1.14.194-.5.52-.845.52-.845.325-.347.75-.525.75-.525.426-.18.9-.18.9-.18.472 0 .897.18.897.18.43.178.76.525.76.525.33.346.52.845.52.845.2.5.2 1.14.2 1.14 0 .63-.19 1.13-.19 1.13-.19.498-.52.84-.52.84-.32.34-.75.52-.75.52-.42.178-.9.178-.9.178-.47 0-.89-.18-.89-.18-.42-.177-.75-.52-.75-.52-.32-.34-.52-.84-.52-.84-.19-.498-.19-1.128-.19-1.128zm0 0zm.892 0c0 .44.105.798.105.798.105.357.3.615.3.615.194.26.467.4.467.4.273.15.6.15.6.15.324 0 .598-.14.598-.14.273-.14.467-.4.467-.4.19-.25.29-.61.29-.61.1-.35.1-.8.1-.8 0-.44-.11-.8-.11-.8-.11-.36-.3-.62-.3-.62-.2-.26-.47-.4-.47-.4-.28-.14-.6-.14-.6-.14-.33 0-.6.14-.6.14-.28.14-.47.41-.47.41-.2.26-.3.63-.3.63-.11.37-.11.81-.11.81zM120.07 758zm.86-5.105h.715l.074.735h.03c.36-.367.77-.614.77-.614.4-.247.94-.247.94-.247.81 0 1.18.5 1.18.5.37.5.37 1.49.37 1.49V758h-.86v-3.12c0-.724-.23-1.045-.23-1.045-.23-.32-.74-.32-.74-.32-.4 0-.71.2-.71.2-.31.2-.7.588-.7.588V758h-.86v-5.105zm4.885 5.105zm1.23.86c0 .41.393.653.393.653.394.24 1.087.24 1.087.24.368 0 .667-.088.667-.088.3-.09.51-.23.51-.23.21-.143.326-.332.326-.332.115-.19.115-.39.115-.39 0-.356-.262-.492-.262-.492-.26-.13-.76-.13-.76-.13h-.88c-.14 0-.32-.01-.32-.01-.17-.01-.34-.07-.34-.07-.27.2-.4.42-.4.42-.12.22-.12.44-.12.44zm0 0zm-.757.117c0-.326.2-.62.2-.62.2-.294.546-.535.546-.535v-.042c-.19-.116-.32-.32-.32-.32-.132-.206-.132-.51-.132-.51 0-.326.18-.568.18-.568.177-.24.377-.378.377-.378v-.042c-.26-.21-.46-.562-.46-.562-.21-.352-.21-.814-.21-.814 0-.42.15-.756.15-.756.15-.336.41-.573.41-.573.26-.236.61-.362.61-.362.35-.126.74-.126.74-.126.21 0 .39.03.39.03.18.03.33.09.33.09h1.77v.66h-1.05c.18.18.3.45.3.45.12.27.12.6.12.6 0 .41-.15.74-.15.74-.15.33-.4.55-.4.55-.25.22-.6.35-.6.35-.34.12-.73.12-.73.12-.19 0-.39-.05-.39-.05-.2-.05-.38-.13-.38-.13-.14.11-.23.25-.23.25-.1.14-.1.35-.1.35 0 .24.19.4.19.4.19.16.71.16.71.16h.98c.9 0 1.34.29 1.34.29.45.28.45.92.45.92 0 .35-.18.67-.18.67-.18.32-.52.56-.52.56-.34.24-.81.38-.81.38-.48.14-1.08.14-1.08.14-.47 0-.86-.09-.86-.09-.39-.09-.67-.27-.67-.27-.28-.18-.43-.43-.43-.43-.15-.25-.15-.59-.15-.59zm0 0zm2.11-3.172c.222 0 .416-.084.416-.084.195-.08.347-.24.347-.24.16-.16.24-.38.24-.38.09-.22.09-.51.09-.51 0-.56-.31-.87-.31-.87-.31-.31-.76-.31-.76-.31-.45 0-.76.31-.76.31-.31.31-.31.88-.31.88 0 .29.09.51.09.51.09.23.24.39.24.39.16.16.35.24.35.24.2.09.42.09.42.09zM131.11 758zm.86-7.48h.862v6.514c0 .21.074.294.074.294.073.084.168.084.168.084h.08l.11-.02.114.65c-.084.042-.2.063-.2.063-.115.02-.293.02-.293.02-.494 0-.704-.293-.704-.293-.21-.294-.21-.86-.21-.86v-6.45zm1.818 7.48zm.515 1.408l.19.047.198.026c.45 0 .72-.31.72-.31.28-.31.44-.78.44-.78l.12-.38-2.05-5.11h.9l1.04 2.83.25.71c.13.37.25.73.25.73h.05c.12-.34.22-.72.22-.72.11-.38.21-.71.21-.71l.92-2.82h.84l-1.92 5.53c-.13.38-.3.7-.3.7-.16.33-.4.56-.4.56-.23.24-.52.38-.52.38-.29.14-.68.14-.68.14-.17 0-.32-.02-.32-.02-.14-.02-.27-.08-.27-.08l.17-.68zm6.512-1.408zm.494-2.542c0-.62.18-1.12.18-1.12.18-.498.49-.844.49-.844.3-.347.7-.536.7-.536.4-.19.84-.19.84-.19.44 0 .76.158.76.158.32.158.66.43.66.43l-.05-.87v-1.965h.87V758h-.72l-.08-.6h-.03c-.31.295-.7.51-.7.51-.4.216-.85.216-.85.216-.97 0-1.54-.693-1.54-.693-.58-.693-.58-1.975-.58-1.975zm0 0zm.89-.01c0 .924.37 1.44.37 1.44.36.513 1.04.513 1.04.513.35 0 .67-.17.67-.17.31-.17.63-.53.63-.53v-2.67c-.33-.29-.63-.41-.63-.41-.3-.12-.62-.12-.62-.12-.31 0-.58.14-.58.14-.27.15-.47.4-.47.4-.2.26-.32.62-.32.62-.12.36-.12.8-.12.8zm4.44 2.552zm1.3-6.155c-.25 0-.43-.158-.43-.158-.18-.158-.18-.4-.18-.4 0-.25.17-.404.17-.404.17-.152.42-.152.42-.152.25 0 .42.16.42.16.17.16.17.41.17.41 0 .24-.18.4-.18.4-.17.16-.43.16-.43.16zm0 0zm-.44 1.05h.86V758h-.86v-5.105zm1.72 5.105zm.72-1.155c.33.273.69.44.69.44.35.17.81.17.81.17.5 0 .75-.232.75-.232.25-.23.25-.567.25-.567 0-.2-.11-.347-.11-.347-.11-.15-.27-.26-.27-.26-.16-.11-.37-.2-.37-.2l-.42-.17c-.28-.1-.55-.22-.55-.22-.28-.12-.49-.3-.49-.3-.22-.18-.35-.41-.35-.41-.14-.23-.14-.56-.14-.56 0-.31.12-.58.12-.58.12-.27.34-.46.34-.46.23-.19.55-.31.55-.31.33-.11.74-.11.74-.11.48 0 .88.17.88.17.41.16.7.41.7.41l-.41.54c-.26-.2-.55-.33-.55-.33-.28-.13-.62-.13-.62-.13-.48 0-.71.22-.71.22-.22.22-.22.51-.22.51 0 .18.09.31.09.31.09.13.25.23.25.23.16.1.36.18.36.18l.42.16c.28.1.55.22.55.22.28.11.5.29.5.29.22.17.37.42.37.42.14.25.14.61.14.61 0 .31-.12.59-.12.59-.12.27-.35.48-.35.48-.24.21-.59.33-.59.33-.35.12-.8.12-.8.12-.55 0-1.04-.2-1.04-.2-.5-.2-.86-.51-.86-.51zm3.68 1.155zm.61-1.323c0-.84.75-1.287.75-1.287.75-.447 2.39-.625 2.39-.625 0-.242-.05-.473-.05-.473-.05-.23-.17-.41-.17-.41-.12-.178-.32-.29-.32-.29-.2-.11-.52-.11-.52-.11-.46 0-.84.17-.84.17-.38.167-.69.377-.69.377l-.35-.6c.36-.23.87-.45.87-.45.52-.22 1.14-.22 1.14-.22.93 0 1.35.57 1.35.57.42.57.42 1.53.42 1.53V758h-.72l-.08-.61h-.02c-.37.306-.8.52-.8.52-.43.216-.9.216-.9.216-.65 0-1.08-.378-1.08-.378-.43-.378-.43-1.07-.43-1.07zm0 0zm.85-.064c0 .442.25.63.25.63.25.19.63.19.63.19.36 0 .7-.173.7-.173.33-.174.7-.51.7-.51v-1.418c-.64.084-1.09.2-1.09.2-.45.115-.71.273-.71.273-.27.157-.39.362-.39.362-.12.205-.12.446-.12.446zM159 758zm1.228.86c0 .41.394.653.394.653.393.24 1.087.24 1.087.24.36 0 .66-.088.66-.088.3-.09.51-.23.51-.23.21-.143.32-.332.32-.332.11-.19.11-.39.11-.39 0-.356-.26-.492-.26-.492-.27-.13-.77-.13-.77-.13h-.88c-.15 0-.32-.01-.32-.01-.18-.01-.34-.07-.34-.07-.28.2-.4.42-.4.42-.13.22-.13.44-.13.44zm0 0zm-.757.117c0-.326.2-.62.2-.62.2-.294.55-.535.55-.535v-.042c-.19-.116-.32-.32-.32-.32-.13-.206-.13-.51-.13-.51 0-.326.18-.568.18-.568.18-.24.38-.378.38-.378v-.042c-.25-.21-.46-.562-.46-.562-.2-.352-.2-.814-.2-.814 0-.42.16-.756.16-.756.15-.336.42-.573.42-.573.26-.236.61-.362.61-.362.35-.126.74-.126.74-.126.21 0 .4.03.4.03.18.03.33.09.33.09h1.78v.66h-1.05c.18.18.3.45.3.45.12.27.12.6.12.6 0 .41-.14.74-.14.74-.15.33-.4.55-.4.55-.25.22-.59.35-.59.35-.34.12-.73.12-.73.12-.19 0-.39-.05-.39-.05-.2-.05-.37-.13-.37-.13-.14.11-.23.25-.23.25-.09.14-.09.35-.09.35 0 .24.19.4.19.4.19.16.72.16.72.16h.99c.89 0 1.34.29 1.34.29.45.28.45.92.45.92 0 .35-.18.67-.18.67-.17.32-.51.56-.51.56-.34.24-.81.38-.81.38-.48.14-1.08.14-1.08.14-.47 0-.86-.09-.86-.09-.39-.09-.67-.27-.67-.27-.28-.18-.43-.43-.43-.43-.15-.25-.15-.59-.15-.59zm0 0zm2.12-3.172c.22 0 .42-.084.42-.084.2-.08.35-.24.35-.24.16-.16.24-.38.24-.38.09-.22.09-.51.09-.51 0-.56-.31-.87-.31-.87-.31-.31-.76-.31-.76-.31-.45 0-.76.31-.76.31-.31.31-.31.88-.31.88 0 .29.08.51.08.51.09.23.24.39.24.39.15.16.35.24.35.24.19.09.41.09.41.09zM164.3 758zm.86-5.105h.716l.074.924h.033c.262-.49.635-.77.635-.77.373-.29.814-.29.814-.29.305 0 .546.1.546.1l-.17.75c-.126-.04-.23-.07-.23-.07-.106-.02-.264-.02-.264-.02-.325 0-.677.26-.677.26-.355.26-.618.91-.618.91v3.3h-.86v-5.11zm2.68 5.105zm.484-2.542c0-.63.192-1.13.192-1.13.194-.498.515-.845.515-.845.32-.346.73-.53.73-.53.41-.184.85-.184.85-.184.49 0 .87.16.87.16.39.17.64.48.64.48.26.31.4.75.4.75.14.44.14.98.14.98 0 .28-.03.47-.03.47h-3.44c.06.83.51 1.31.51 1.31.46.48 1.19.48 1.19.48.37 0 .68-.11.68-.11.31-.11.6-.29.6-.29l.3.56c-.33.21-.74.37-.74.37-.41.16-.93.16-.93.16-.51 0-.96-.19-.96-.19-.45-.19-.78-.53-.78-.53-.33-.34-.52-.84-.52-.84-.19-.5-.19-1.13-.19-1.13zm0 0zm3.57-.39c0-.786-.33-1.2-.33-1.2-.33-.416-.93-.416-.93-.416-.274 0-.52.11-.52.11-.248.11-.448.315-.448.315-.2.205-.33.504-.33.504-.13.3-.174.69-.174.69h2.73zM173.05 758zm.484-2.542c0-.63.193-1.13.193-1.13.197-.498.517-.845.517-.845.32-.346.73-.53.73-.53.41-.184.85-.184.85-.184.483 0 .866.16.866.16.385.17.64.48.64.48.26.31.396.75.396.75.138.44.138.98.138.98 0 .28-.032.47-.032.47h-3.445c.052.83.51 1.31.51 1.31.456.48 1.192.48 1.192.48.36 0 .67-.11.67-.11.31-.11.59-.29.59-.29l.3.56c-.34.21-.75.37-.75.37-.41.16-.94.16-.94.16-.52 0-.96-.19-.96-.19-.45-.19-.78-.53-.78-.53-.33-.34-.52-.84-.52-.84-.19-.5-.19-1.13-.19-1.13zm0 0zm3.57-.39c0-.786-.33-1.2-.33-1.2-.33-.416-.93-.416-.93-.416-.273 0-.52.11-.52.11-.247.11-.446.315-.446.315-.2.205-.33.504-.33.504-.133.3-.175.69-.175.69h2.73zM178.26 758zm.684-4.317c0-.305.182-.49.182-.49.183-.182.446-.182.446-.182.25 0 .435.19.435.19.185.19.185.49.185.49 0 .28-.185.47-.185.47-.184.19-.436.19-.436.19-.26 0-.44-.18-.44-.18-.18-.18-.18-.46-.18-.46zm0 0zm0 3.792c0-.305.182-.49.182-.49.183-.182.446-.182.446-.182.25 0 .435.183.435.183.185.184.185.49.185.49 0 .282-.185.466-.185.466-.184.184-.436.184-.436.184-.26 0-.44-.184-.44-.184-.18-.184-.18-.467-.18-.467zM183 758zm.83-.714h1.534v-4.937h-1.22v-.56c.463-.09.805-.21.805-.21.34-.12.61-.29.61-.29h.66v5.99h1.38v.72h-3.78v-.72zm4.39.714zm3.194-2.542v-1.943c0-.273.016-.646.016-.646.016-.38.037-.65.037-.65h-.042c-.126.24-.263.47-.263.47-.136.23-.283.47-.283.47l-1.57 2.29h2.1zm0 0zm1.733.693h-.913V758h-.82v-1.85H188.4v-.566l2.867-4.286h.967v4.16h.913v.693zM304.642 758zm.945-6.89h1.723c1.596 0 2.426.882 2.426.882.83.882.83 2.53.83 2.53 0 .82-.21 1.466-.21 1.466-.21.646-.62 1.093-.62 1.093-.41.45-1.008.69-1.008.69-.6.24-1.376.24-1.376.24h-1.765v-6.89zm0 0zm1.66 6.176c1.208 0 1.812-.725 1.812-.725.6-.72.6-2.03.6-2.03 0-1.31-.61-2-.61-2-.61-.69-1.82-.69-1.82-.69h-.79v5.46h.78zm3.855.714zm1.302-6.155c-.252 0-.425-.158-.425-.158-.18-.158-.18-.4-.18-.4 0-.25.17-.404.17-.404.17-.152.42-.152.42-.152.25 0 .42.16.42.16.17.16.17.41.17.41 0 .24-.18.4-.18.4-.17.16-.43.16-.43.16zm0 0zm-.44 1.05h.86V758h-.86v-5.105zm1.722 5.105zm.725-1.155c.34.273.69.44.69.44.35.17.82.17.82.17.51 0 .76-.232.76-.232.25-.23.25-.567.25-.567 0-.2-.1-.347-.1-.347-.1-.15-.27-.26-.27-.26-.16-.11-.37-.2-.37-.2l-.42-.17c-.27-.1-.54-.22-.54-.22-.27-.12-.49-.3-.49-.3-.21-.18-.35-.41-.35-.41-.14-.23-.14-.56-.14-.56 0-.31.12-.58.12-.58.13-.27.35-.46.35-.46.23-.19.55-.31.55-.31.33-.11.74-.11.74-.11.49 0 .89.17.89.17.41.16.7.41.7.41l-.41.54c-.26-.2-.54-.33-.54-.33-.28-.13-.62-.13-.62-.13-.48 0-.71.22-.71.22-.22.22-.22.51-.22.51 0 .18.1.31.1.31.1.13.25.23.25.23.16.1.37.18.37.18l.42.16c.27.1.55.22.55.22.28.11.5.29.5.29.22.17.36.42.36.42.15.25.15.61.15.61 0 .31-.12.59-.12.59-.12.27-.36.48-.36.48-.23.21-.59.33-.59.33-.35.12-.8.12-.8.12-.54 0-1.04-.2-1.04-.2-.49-.2-.86-.51-.86-.51zm3.68 1.155zm.61-1.323c0-.84.75-1.287.75-1.287.76-.447 2.39-.625 2.39-.625 0-.242-.04-.473-.04-.473-.04-.23-.16-.41-.16-.41-.12-.178-.32-.29-.32-.29-.2-.11-.51-.11-.51-.11-.45 0-.83.17-.83.17-.38.167-.69.377-.69.377l-.34-.6c.36-.23.88-.45.88-.45.52-.22 1.14-.22 1.14-.22.94 0 1.36.57 1.36.57.42.57.42 1.53.42 1.53V758H322l-.07-.61h-.02c-.366.306-.79.52-.79.52-.427.216-.9.216-.9.216-.65 0-1.076-.378-1.076-.378-.424-.378-.424-1.07-.424-1.07zm0 0zm.85-.064c0 .442.26.63.26.63.26.19.64.19.64.19.37 0 .7-.173.7-.173.33-.174.7-.51.7-.51v-1.418c-.64.084-1.08.2-1.08.2-.44.115-.71.273-.71.273-.27.157-.38.362-.38.362-.11.205-.11.446-.11.446zm3.92 1.387zm1.23.86c0 .41.4.653.4.653.4.24 1.09.24 1.09.24.37 0 .67-.088.67-.088.3-.09.51-.23.51-.23.21-.143.33-.332.33-.332.12-.19.12-.39.12-.39 0-.356-.26-.492-.26-.492-.26-.13-.76-.13-.76-.13h-.88c-.14 0-.32-.01-.32-.01-.17-.01-.34-.07-.34-.07-.27.2-.4.42-.4.42-.12.22-.12.44-.12.44zm0 0zm-.75.117c0-.326.2-.62.2-.62.2-.294.55-.535.55-.535v-.042c-.19-.116-.32-.32-.32-.32-.13-.206-.13-.51-.13-.51 0-.326.18-.568.18-.568.18-.24.38-.378.38-.378v-.042c-.25-.21-.45-.562-.45-.562-.2-.352-.2-.814-.2-.814 0-.42.15-.756.15-.756.15-.336.42-.573.42-.573.26-.236.62-.362.62-.362.35-.126.74-.126.74-.126.21 0 .4.03.4.03.19.03.33.09.33.09h1.78v.66h-1.05c.18.18.3.45.3.45.12.27.12.6.12.6 0 .41-.14.74-.14.74-.15.33-.4.55-.4.55-.25.22-.59.35-.59.35-.34.12-.73.12-.73.12-.19 0-.39-.05-.39-.05-.2-.05-.38-.13-.38-.13-.14.11-.23.25-.23.25-.1.14-.1.35-.1.35 0 .24.19.4.19.4.19.16.71.16.71.16h.99c.9 0 1.34.29 1.34.29.45.28.45.92.45.92 0 .35-.18.67-.18.67-.18.32-.51.56-.51.56-.33.24-.81.38-.81.38-.47.14-1.07.14-1.07.14-.47 0-.86-.09-.86-.09-.39-.09-.67-.27-.67-.27-.28-.18-.43-.43-.43-.43-.15-.25-.15-.59-.15-.59zm0 0zm2.11-3.172c.22 0 .42-.084.42-.084.2-.08.35-.24.35-.24.16-.16.24-.38.24-.38.09-.22.09-.51.09-.51 0-.56-.31-.87-.31-.87-.31-.31-.77-.31-.77-.31-.45 0-.76.31-.76.31-.31.31-.31.88-.31.88 0 .29.08.51.08.51.09.23.24.39.24.39.15.16.35.24.35.24.2.09.42.09.42.09zm2.71 2.195zm.87-5.105h.72l.08.924h.04c.27-.49.64-.77.64-.77.38-.29.82-.29.82-.29.31 0 .55.1.55.1l-.17.75c-.12-.04-.23-.07-.23-.07-.1-.02-.26-.02-.26-.02-.33 0-.68.26-.68.26-.35.26-.61.91-.61.91v3.3h-.86v-5.11zM332.3 758zm.483-2.542c0-.63.194-1.13.194-1.13.194-.498.515-.845.515-.845.32-.346.73-.53.73-.53.41-.184.85-.184.85-.184.484 0 .867.16.867.16.38.17.64.48.64.48.25.31.39.75.39.75.13.44.13.98.13.98 0 .28-.03.47-.03.47h-3.45c.05.83.51 1.31.51 1.31.45.48 1.19.48 1.19.48.37 0 .68-.11.68-.11.31-.11.59-.29.59-.29l.3.56c-.34.21-.75.37-.75.37-.41.16-.94.16-.94.16-.52 0-.96-.19-.96-.19-.45-.19-.78-.53-.78-.53-.33-.34-.52-.84-.52-.84-.19-.5-.19-1.13-.19-1.13zm0 0zm3.57-.39c0-.786-.33-1.2-.33-1.2-.33-.416-.93-.416-.93-.416-.273 0-.52.11-.52.11-.246.11-.446.315-.446.315-.2.205-.33.504-.33.504-.132.3-.174.69-.174.69h2.73zM337.51 758zm.483-2.542c0-.63.194-1.13.194-1.13.194-.498.514-.845.514-.845.33-.346.74-.53.74-.53.41-.184.85-.184.85-.184.49 0 .87.16.87.16.39.17.64.48.64.48.26.31.4.75.4.75.14.44.14.98.14.98 0 .28-.03.47-.03.47h-3.44c.05.83.51 1.31.51 1.31.46.48 1.19.48 1.19.48.37 0 .68-.11.68-.11.31-.11.59-.29.59-.29l.31.56c-.33.21-.74.37-.74.37-.41.16-.93.16-.93.16-.51 0-.96-.19-.96-.19-.45-.19-.78-.53-.78-.53-.33-.34-.52-.84-.52-.84-.19-.5-.19-1.13-.19-1.13zm0 0zm3.57-.39c0-.786-.33-1.2-.33-1.2-.33-.416-.93-.416-.93-.416-.273 0-.52.11-.52.11-.246.11-.446.315-.446.315-.2.205-.33.504-.33.504-.132.3-.174.69-.174.69h2.73zM342.72 758zm.682-4.317c0-.305.184-.49.184-.49.184-.182.446-.182.446-.182.253 0 .436.19.436.19.184.19.184.49.184.49 0 .28-.184.47-.184.47-.184.19-.436.19-.436.19-.262 0-.446-.18-.446-.18-.184-.18-.184-.46-.184-.46zm0 0zm0 3.792c0-.305.184-.49.184-.49.184-.182.446-.182.446-.182.253 0 .436.183.436.183.184.184.184.49.184.49 0 .282-.184.466-.184.466-.184.184-.436.184-.436.184-.262 0-.446-.184-.446-.184-.184-.184-.184-.467-.184-.467zm4.055.525zm2.815-.557c.252 0 .462-.105.462-.105.21-.105.368-.3.368-.3.157-.193.247-.46.247-.46.08-.27.08-.605.08-.605 0-.662-.31-1.04-.31-1.04-.31-.378-.94-.378-.94-.378-.32 0-.69.204-.69.204-.38.2-.71.67-.71.67.08.98.45 1.49.45 1.49.37.51 1.01.51 1.01.51zm0 0zm1.376-5.02c-.21-.242-.5-.384-.5-.384-.288-.15-.603-.15-.603-.15-.346 0-.662.14-.662.14-.315.14-.556.48-.556.48-.242.33-.39.87-.39.87-.146.54-.157 1.34-.157 1.34.315-.39.736-.62.736-.62.42-.23.83-.23.83-.23.87 0 1.39.51 1.39.51.52.51.52 1.55.52 1.55 0 .48-.156.88-.156.88-.158.39-.43.67-.43.67-.274.28-.63.44-.63.44-.358.15-.768.15-.768.15-.494 0-.914-.2-.914-.2-.42-.2-.73-.61-.73-.61-.31-.4-.488-1.01-.488-1.01-.18-.6-.18-1.41-.18-1.41 0-1.01.21-1.72.21-1.72.21-.71.568-1.15.568-1.15.357-.45.814-.65.814-.65.457-.21.96-.21.96-.21.548 0 .94.2.94.2.395.2.68.51.68.51zm1.03 5.577zm.682-1.355c.294.305.7.536.7.536.403.24.99.24.99.24.306 0 .574-.11.574-.11.268-.11.467-.31.467-.31.2-.2.32-.48.32-.48.12-.28.12-.63.12-.63 0-.69-.39-1.08-.39-1.08-.39-.39-1.04-.39-1.04-.39-.34 0-.59.11-.59.11-.24.11-.55.31-.55.31l-.46-.29.22-3.22h3.35v.75h-2.59l-.18 1.99c.25-.13.49-.2.49-.2.24-.07.55-.07.55-.07.43 0 .81.13.81.13.38.13.66.39.66.39.29.26.45.65.45.65.17.4.17.94.17.94 0 .55-.19.97-.19.97-.19.42-.5.71-.5.71-.31.29-.72.44-.72.44-.4.15-.84.15-.84.15-.4 0-.73-.08-.73-.08-.33-.08-.6-.2-.6-.2-.26-.12-.48-.28-.48-.28-.21-.16-.38-.34-.38-.34zM488.085 758zm.945-6.89h.903l2.49 4.327.746 1.43h.04c-.03-.527-.07-1.09-.07-1.09-.04-.56-.04-1.107-.04-1.107v-3.56h.83V758h-.91l-2.5-4.338-.75-1.418h-.04l.08 1.066c.03.54.03 1.087.03 1.087V758h-.83v-6.89zm5.85 6.89zm.484-2.542c0-.63.194-1.13.194-1.13.195-.498.515-.845.515-.845.32-.346.73-.53.73-.53.41-.184.85-.184.85-.184.484 0 .867.16.867.16.384.17.64.48.64.48.26.31.395.75.395.75.137.44.137.98.137.98 0 .28-.032.47-.032.47h-3.445c.052.83.51 1.31.51 1.31.456.48 1.19.48 1.19.48.37 0 .68-.11.68-.11.31-.11.592-.29.592-.29l.305.56c-.336.21-.746.37-.746.37-.41.16-.935.16-.935.16-.51 0-.96-.19-.96-.19-.44-.19-.77-.53-.77-.53-.33-.34-.52-.84-.52-.84-.19-.5-.19-1.13-.19-1.13zm0 0zm3.57-.39c0-.786-.33-1.2-.33-1.2-.33-.416-.93-.416-.93-.416-.272 0-.52.11-.52.11-.246.11-.445.315-.445.315-.2.205-.34.504-.34.504-.13.3-.18.69-.18.69h2.73zM500.09 758zm.79-5.105h.87v3.12c0 .724.227 1.045.227 1.045.226.32.73.32.73.32.4 0 .704-.205.704-.205.31-.204.68-.656.68-.656v-3.63h.86V758h-.71l-.07-.798h-.03c-.36.42-.75.672-.75.672-.39.252-.93.252-.93.252-.82 0-1.19-.504-1.19-.504-.37-.504-.37-1.492-.37-1.492v-3.235zm4.926 5.105zm1.01-4.4h-.758v-.653l.8-.052.104-1.43h.725v1.43h1.377v.704h-1.377v2.83c0 .47.174.73.174.73.18.25.62.25.62.25.14 0 .3-.04.3-.04.16-.05.29-.1.29-.1l.17.65c-.21.07-.46.13-.46.13-.24.05-.49.05-.49.05-.41 0-.68-.13-.68-.13-.28-.13-.45-.35-.45-.35-.17-.22-.25-.54-.25-.54-.07-.32-.07-.7-.07-.7v-2.82zm2.54 4.4zm.862-5.105h.714l.075.924h.03c.264-.49.637-.77.637-.77.373-.29.814-.29.814-.29.304 0 .546.1.546.1l-.168.75c-.126-.04-.23-.07-.23-.07-.106-.02-.264-.02-.264-.02-.325 0-.677.26-.677.26-.352.26-.615.91-.615.91v3.3h-.86v-5.11zm2.52 5.105zm.61-1.323c0-.84.75-1.287.75-1.287.752-.447 2.39-.625 2.39-.625 0-.242-.046-.473-.046-.473-.047-.23-.167-.41-.167-.41-.12-.178-.32-.29-.32-.29-.2-.11-.515-.11-.515-.11-.452 0-.836.17-.836.17-.383.167-.688.377-.688.377l-.346-.6c.357-.23.872-.45.872-.45.514-.22 1.134-.22 1.134-.22.935 0 1.355.57 1.355.57.42.57.42 1.53.42 1.53V758h-.71l-.07-.61h-.02c-.37.306-.79.52-.79.52-.42.216-.9.216-.9.216-.65 0-1.07-.378-1.07-.378-.42-.378-.42-1.07-.42-1.07zm0 0zm.85-.064c0 .442.258.63.258.63.258.19.636.19.636.19.368 0 .7-.173.7-.173.33-.174.698-.51.698-.51v-1.418c-.64.084-1.082.2-1.082.2-.44.115-.71.273-.71.273-.267.157-.382.362-.382.362-.116.205-.116.446-.116.446zm3.92 1.387zm.86-7.48h.862v6.514c0 .21.072.294.072.294.074.084.168.084.168.084h.08l.11-.02.115.65c-.084.042-.2.063-.2.063-.115.02-.294.02-.294.02-.49 0-.7-.293-.7-.293-.21-.294-.21-.86-.21-.86v-6.45zm1.818 7.48zm.682-4.317c0-.305.184-.49.184-.49.185-.182.448-.182.448-.182.252 0 .436.19.436.19.183.19.183.49.183.49 0 .28-.19.47-.19.47-.19.19-.44.19-.44.19-.27 0-.45-.18-.45-.18-.19-.18-.19-.46-.19-.46zm0 0zm0 3.792c0-.305.184-.49.184-.49.185-.182.448-.182.448-.182.252 0 .436.183.436.183.183.184.183.49.183.49 0 .282-.19.466-.19.466-.19.184-.44.184-.44.184-.27 0-.45-.184-.45-.184-.19-.184-.19-.467-.19-.467zm4.055.525zm.42-.515c.756-.756 1.345-1.365 1.345-1.365.588-.61.987-1.13.987-1.13.4-.52.61-.955.61-.955.21-.436.21-.846.21-.846 0-.58-.316-.95-.316-.95-.32-.37-.96-.37-.96-.37-.42 0-.78.23-.78.23-.36.23-.65.57-.65.57l-.5-.5c.42-.46.89-.74.89-.74.47-.28 1.13-.28 1.13-.28.93 0 1.47.54 1.47.54.53.54.53 1.43.53 1.43 0 .47-.21.95-.21.95-.21.48-.57.98-.57.98-.36.51-.86 1.06-.86 1.06-.5.55-1.1 1.17-1.1 1.17l.57-.04c.29-.02.55-.02.55-.02h1.94v.75h-4.33v-.52zm4.8.515zm2.47-3.256c.325 0 .698-.205.698-.205.38-.21.71-.69.71-.69-.08-.99-.46-1.49-.46-1.49-.38-.51-1.02-.51-1.02-.51-.24 0-.45.1-.45.1-.21.1-.37.3-.37.3-.15.19-.24.46-.24.46-.09.27-.09.6-.09.6 0 .66.31 1.04.31 1.04.31.37.94.37.94.37zm0 0zm-1.45 2.132c.21.242.498.39.498.39.29.146.61.146.61.146.36 0 .68-.147.68-.147.32-.147.56-.49.56-.49.24-.34.39-.886.39-.886.15-.55.16-1.36.16-1.36-.31.4-.73.63-.73.63-.42.23-.84.23-.84.23-.87 0-1.38-.52-1.38-.52-.51-.52-.51-1.56-.51-1.56 0-.49.16-.88.16-.88.16-.4.43-.68.43-.68.27-.28.63-.44.63-.44.37-.16.77-.16.77-.16.49 0 .92.2.92.2.42.2.73.6.73.6.31.4.48 1.01.48 1.01.18.6.18 1.41.18 1.41 0 1.01-.21 1.72-.21 1.72-.21.71-.57 1.15-.57 1.15-.35.44-.81.65-.81.65-.46.2-.96.2-.96.2-.54 0-.94-.2-.94-.2-.41-.2-.68-.51-.68-.51zm4.2 1.124zm.716-1.387c.3.315.71.557.71.557.4.242 1 .242 1 .242.61 0 1-.33 1-.33.38-.332.38-.9.38-.9 0-.293-.11-.54-.11-.54-.11-.247-.36-.426-.36-.426-.26-.178-.66-.273-.66-.273-.41-.094-1.01-.094-1.01-.094v-.67c.53 0 .9-.1.9-.1.36-.1.59-.26.59-.26.22-.17.32-.4.32-.4.09-.23.09-.5.09-.5 0-.5-.31-.78-.31-.78-.31-.29-.85-.29-.85-.29-.42 0-.78.19-.78.19-.35.18-.66.49-.66.49l-.47-.55c.39-.37.86-.61.86-.61.47-.24 1.06-.24 1.06-.24.44 0 .81.11.81.11.37.11.63.33.63.33.27.21.41.53.41.53.14.31.14.72.14.72 0 .61-.34 1-.34 1-.34.39-.88.6-.88.6v.04c.3.07.56.21.56.21.26.14.46.35.46.35.2.21.31.5.31.5.11.28.11.63.11.63 0 .44-.18.79-.18.79-.17.35-.47.6-.47.6-.3.25-.7.38-.7.38-.4.13-.86.13-.86.13-.4 0-.73-.08-.73-.08-.33-.08-.61-.21-.61-.21-.27-.13-.49-.3-.49-.3-.22-.17-.39-.36-.39-.36zM674.89 758zm3.875-2.805l-.326-1.05c-.19-.578-.36-1.15-.36-1.15-.17-.573-.34-1.17-.34-1.17h-.04c-.16.597-.33 1.17-.33 1.17-.17.572-.36 1.15-.36 1.15l-.33 1.05h2.07zm0 0zm.22.704h-2.51l-.662 2.1h-.893l2.332-6.89h.988l2.33 6.89h-.934zm1.618 2.1zm1.23.86c0 .41.393.65.393.65.394.24 1.087.24 1.087.24.368 0 .667-.09.667-.09.3-.09.51-.23.51-.23.21-.15.325-.33.325-.33.116-.19.116-.39.116-.39 0-.36-.26-.49-.26-.49-.26-.14-.76-.14-.76-.14h-.88c-.15 0-.32-.02-.32-.02-.17-.02-.34-.07-.34-.07-.27.2-.4.42-.4.42-.12.22-.12.44-.12.44zm0 0zm-.757.11c0-.33.2-.62.2-.62.2-.3.546-.54.546-.54v-.04c-.19-.12-.32-.32-.32-.32-.132-.21-.132-.51-.132-.51 0-.33.178-.57.178-.57.18-.24.38-.38.38-.38v-.05c-.253-.21-.458-.56-.458-.56-.205-.35-.205-.82-.205-.82 0-.42.152-.76.152-.76.152-.34.415-.57.415-.57.263-.24.615-.36.615-.36.35-.13.74-.13.74-.13.21 0 .394.03.394.03.19.04.34.09.34.09h1.78v.66h-1.05c.18.18.3.45.3.45.12.27.12.6.12.6 0 .41-.14.74-.14.74-.14.33-.4.55-.4.55-.25.22-.59.35-.59.35-.34.12-.73.12-.73.12-.19 0-.39-.05-.39-.05-.19-.05-.37-.13-.37-.13-.13.11-.23.25-.23.25-.09.14-.09.35-.09.35 0 .24.19.4.19.4.19.15.71.15.71.15h.98c.9 0 1.34.29 1.34.29.45.29.45.93.45.93 0 .36-.18.68-.18.68-.18.32-.51.56-.51.56-.33.24-.81.38-.81.38-.48.14-1.08.14-1.08.14-.47 0-.86-.09-.86-.09-.39-.09-.67-.27-.67-.27-.28-.18-.43-.43-.43-.43-.15-.25-.15-.59-.15-.59zm0 0zm2.11-3.17c.222 0 .416-.09.416-.09.194-.09.347-.24.347-.24.15-.16.23-.39.23-.39.08-.23.08-.51.08-.51 0-.57-.32-.88-.32-.88-.32-.31-.77-.31-.77-.31-.45 0-.77.31-.77.31-.32.31-.32.87-.32.87 0 .28.08.51.08.51.08.22.23.38.23.38.15.15.35.24.35.24.19.08.41.08.41.08zm2.71 2.19zm.863-5.11h.71l.07.92h.03c.26-.49.63-.77.63-.77.37-.29.81-.29.81-.29.3 0 .54.1.54.1l-.17.76c-.13-.04-.24-.07-.24-.07-.11-.02-.26-.02-.26-.02-.33 0-.68.26-.68.26-.36.26-.62.91-.62.91v3.3h-.86v-5.11zm2.67 5.1zm.48-2.55c0-.63.19-1.13.19-1.13.19-.5.51-.85.51-.85.32-.35.73-.53.73-.53.41-.19.85-.19.85-.19.48 0 .86.16.86.16.38.16.64.48.64.48.26.31.39.75.39.75.13.44.13.99.13.99 0 .28-.03.47-.03.47h-3.45c.05.83.51 1.31.51 1.31.46.48 1.19.48 1.19.48.36 0 .67-.11.67-.11.31-.11.59-.29.59-.29l.3.57c-.34.21-.75.37-.75.37-.41.16-.94.16-.94.16-.52 0-.96-.19-.96-.19-.45-.19-.78-.53-.78-.53-.33-.34-.52-.84-.52-.84-.19-.49-.19-1.12-.19-1.12zm0 0zm3.57-.39c0-.79-.33-1.2-.33-1.2-.33-.42-.93-.42-.93-.42-.28 0-.52.11-.52.11-.25.11-.45.32-.45.32-.2.2-.33.5-.33.5-.13.3-.18.69-.18.69h2.73zm1.15 2.93zm.48-2.54c0-.63.19-1.13.19-1.13.19-.5.51-.85.51-.85.32-.35.73-.53.73-.53.41-.18.85-.18.85-.18.48 0 .86.16.86.16.38.17.64.48.64.48.26.31.39.76.39.76.13.44.13.99.13.99 0 .28-.03.47-.03.47h-3.45c.05.83.51 1.31.51 1.31.46.48 1.19.48 1.19.48.37 0 .67-.11.67-.11.31-.11.59-.29.59-.29l.3.57c-.34.21-.75.36-.75.36-.41.15-.94.15-.94.15-.52 0-.96-.19-.96-.19-.45-.18-.78-.52-.78-.52-.33-.34-.52-.84-.52-.84-.19-.49-.19-1.12-.19-1.12zm0 0zm3.57-.39c0-.79-.33-1.2-.33-1.2-.33-.42-.93-.42-.93-.42-.28 0-.52.11-.52.11-.25.11-.45.31-.45.31-.2.2-.33.5-.33.5-.13.3-.18.69-.18.69h2.73zm1.15 2.93zm.68-4.32c0-.31.18-.49.18-.49.18-.19.44-.19.44-.19.25 0 .43.18.43.18.18.18.18.49.18.49 0 .28-.18.46-.18.46-.19.18-.44.18-.44.18-.27 0-.45-.18-.45-.18-.19-.19-.19-.47-.19-.47zm0 0zm0 3.79c0-.31.18-.49.18-.49.18-.18.44-.18.44-.18.25 0 .43.18.43.18.18.18.18.49.18.49 0 .28-.18.46-.18.46-.19.18-.44.18-.44.18-.27 0-.45-.19-.45-.19-.19-.19-.19-.47-.19-.47zm4.05.52zm2.81-.56c.25 0 .46-.11.46-.11.21-.11.37-.3.37-.3.15-.2.24-.46.24-.46.09-.27.09-.61.09-.61 0-.66-.31-1.04-.31-1.04-.3-.38-.93-.38-.93-.38-.32 0-.69.2-.69.2-.38.2-.71.68-.71.68.08.98.46 1.49.46 1.49.37.51 1.01.51 1.01.51zm0 0zm1.37-5.02c-.21-.24-.5-.39-.5-.39-.29-.15-.61-.15-.61-.15-.35 0-.66.14-.66.14-.31.15-.56.48-.56.48-.24.34-.39.88-.39.88-.15.54-.16 1.34-.16 1.34.31-.39.73-.61.73-.61.42-.23.83-.23.83-.23.87 0 1.39.52 1.39.52.52.51.52 1.55.52 1.55 0 .48-.16.87-.16.87-.16.39-.43.68-.43.68-.28.28-.63.44-.63.44-.36.16-.77.16-.77.16-.5 0-.92-.2-.92-.2-.42-.2-.73-.61-.73-.61-.31-.41-.49-1.01-.49-1.01-.18-.61-.18-1.41-.18-1.41 0-1.01.21-1.72.21-1.72.21-.71.56-1.16.56-1.16.36-.45.81-.65.81-.65.45-.21.96-.21.96-.21.54 0 .94.2.94.2.39.2.68.51.68.51zm1.03 5.57zm.68-1.36c.29.31.7.54.7.54.4.23.99.23.99.23.3 0 .57-.11.57-.11.27-.11.47-.31.47-.31.2-.2.31-.49.31-.49.12-.29.12-.63.12-.63 0-.7-.39-1.08-.39-1.08-.39-.39-1.04-.39-1.04-.39-.35 0-.6.1-.6.1-.25.1-.55.3-.55.3l-.46-.3.22-3.23h3.35v.75h-2.58l-.18 1.98c.24-.13.48-.2.48-.2.24-.08.54-.08.54-.08.43 0 .81.12.81.12.38.12.66.38.66.38.29.25.45.65.45.65.16.39.16.94.16.94 0 .54-.19.97-.19.97-.19.42-.5.71-.5.71-.31.29-.72.44-.72.44-.4.15-.84.15-.84.15-.4 0-.73-.08-.73-.08-.33-.08-.6-.21-.6-.21-.27-.13-.48-.29-.48-.29-.22-.17-.38-.35-.38-.35zm4.54 1.36zm.83-.72h1.53v-4.94h-1.22v-.56c.46-.08.8-.2.8-.2.34-.12.61-.29.61-.29h.66v5.99h1.39v.72h-3.78v-.72zm123.02.71zm.96-1.5c.37.39.86.62.86.62.5.23 1.03.23 1.03.23.68 0 1.06-.31 1.06-.31.38-.31.38-.81.38-.81 0-.26-.09-.45-.09-.45-.09-.19-.24-.32-.24-.32-.15-.13-.36-.24-.36-.24l-.46-.22-.99-.43c-.24-.1-.49-.25-.49-.25-.25-.15-.45-.36-.45-.36-.2-.21-.32-.5-.32-.5-.13-.29-.13-.67-.13-.67 0-.39.16-.72.16-.72.16-.34.45-.59.45-.59.29-.25.68-.38.68-.38.4-.14.87-.14.87-.14.62 0 1.14.23 1.14.23.53.23.89.61.89.61l-.47.57c-.31-.3-.7-.48-.7-.48-.38-.18-.86-.18-.86-.18-.58 0-.93.27-.93.27-.35.27-.35.74-.35.74 0 .25.1.43.1.43.1.17.27.3.27.3.17.13.37.23.37.23.2.1.41.18.41.18l.97.42c.29.13.55.29.55.29.26.16.45.38.45.38.19.22.3.51.3.51.11.29.11.67.11.67 0 .41-.16.76-.16.76-.17.35-.47.62-.47.62-.31.26-.74.42-.74.42-.43.15-.98.15-.98.15-.72 0-1.34-.28-1.34-.28-.62-.27-1.07-.74-1.07-.74zm4.64 1.5zm1.01-4.4h-.76v-.65l.8-.05.1-1.43h.72v1.43h1.37v.7h-1.38v2.83c0 .47.17.73.17.73.17.26.62.26.62.26.13 0 .29-.04.29-.04.16-.04.28-.1.28-.1l.17.65c-.21.07-.46.13-.46.13-.24.06-.48.06-.48.06-.41 0-.69-.13-.69-.13-.28-.13-.45-.35-.45-.35-.17-.22-.25-.54-.25-.54-.08-.32-.08-.69-.08-.69v-2.82zm2.54 4.4zm.86-5.11h.71l.07.92h.03c.26-.48.63-.76.63-.76.37-.29.81-.29.81-.29.3 0 .55.1.55.1l-.17.75c-.13-.04-.23-.06-.23-.06-.11-.02-.27-.02-.27-.02-.33 0-.68.26-.68.26-.35.26-.61.91-.61.91v3.3h-.86v-5.11zm2.68 5.1zm.48-2.54c0-.64.19-1.14.19-1.14.19-.5.52-.85.52-.85.32-.35.75-.53.75-.53.42-.18.9-.18.9-.18.47 0 .89.18.89.18.42.18.75.52.75.52.32.34.52.84.52.84.19.5.19 1.14.19 1.14 0 .63-.2 1.13-.2 1.13-.2.49-.52.84-.52.84-.33.34-.75.52-.75.52-.43.17-.9.17-.9.17-.47 0-.9-.18-.9-.18-.42-.18-.75-.52-.75-.52-.32-.34-.52-.84-.52-.84-.19-.5-.19-1.13-.19-1.13zm0 0zm.89 0c0 .44.1.79.1.79.1.35.3.61.3.61.19.26.46.4.46.4.28.15.6.15.6.15.33 0 .6-.15.6-.15.27-.14.47-.4.47-.4.19-.26.3-.61.3-.61.1-.36.1-.8.1-.8 0-.44-.11-.81-.11-.81-.11-.36-.3-.63-.3-.63-.19-.26-.47-.41-.47-.41-.28-.14-.6-.14-.6-.14-.33 0-.6.14-.6.14-.27.14-.47.4-.47.4-.2.26-.3.62-.3.62-.11.36-.11.8-.11.8zm4.32 2.55zm.86-5.11h.71l.07.73h.03c.37-.37.77-.62.77-.62.4-.25.94-.25.94-.25.81 0 1.18.5 1.18.5.37.5.37 1.49.37 1.49v3.3h-.86v-3.12c0-.73-.23-1.05-.23-1.05-.23-.32-.74-.32-.74-.32-.4 0-.71.2-.71.2-.31.2-.7.59-.7.59v3.7h-.86v-5.11zm4.89 5.11zm1.23.86c0 .41.39.65.39.65.39.24 1.08.24 1.08.24.37 0 .66-.09.66-.09.3-.09.51-.23.51-.23.21-.15.32-.34.32-.34.11-.19.11-.39.11-.39 0-.36-.26-.49-.26-.49-.26-.14-.77-.14-.77-.14h-.88c-.15 0-.32-.02-.32-.02-.18-.02-.34-.07-.34-.07-.27.2-.4.42-.4.42-.13.22-.13.44-.13.44zm0 0zm-.76.12c0-.33.2-.62.2-.62.2-.29.54-.54.54-.54v-.04c-.19-.12-.32-.32-.32-.32-.13-.21-.13-.51-.13-.51 0-.33.18-.57.18-.57.18-.24.38-.38.38-.38v-.04c-.25-.21-.46-.56-.46-.56-.21-.35-.21-.82-.21-.82 0-.42.15-.76.15-.76.15-.34.41-.58.41-.58.26-.24.61-.36.61-.36.35-.13.74-.13.74-.13.21 0 .4.03.4.03.18.03.33.09.33.09h1.77v.66H867c.18.18.3.45.3.45.12.27.12.6.12.6 0 .41-.144.74-.144.74-.143.33-.4.55-.4.55-.25.22-.59.35-.59.35-.34.13-.73.13-.73.13-.19 0-.39-.05-.39-.05-.2-.05-.373-.13-.373-.13-.14.11-.23.26-.23.26-.096.14-.096.35-.096.35 0 .24.19.4.19.4.19.16.72.16.72.16h.99c.89 0 1.34.29 1.34.29.447.29.447.93.447.93 0 .35-.18.67-.18.67-.18.32-.51.56-.51.56-.33.24-.81.38-.81.38-.48.14-1.08.14-1.08.14-.47 0-.86-.09-.86-.09-.39-.09-.666-.27-.666-.27-.28-.18-.43-.43-.43-.43-.15-.26-.15-.59-.15-.59zm0 0zm2.11-3.17c.22 0 .41-.09.41-.09.19-.08.34-.24.34-.24.15-.16.23-.38.23-.38.08-.23.08-.51.08-.51 0-.57-.31-.88-.31-.88-.32-.31-.77-.31-.77-.31-.45 0-.77.31-.77.31-.32.31-.32.88-.32.88 0 .29.08.51.08.51.08.23.23.39.23.39.15.16.35.24.35.24.2.08.42.08.42.08zm2.71 2.19zm.86-7.48h.87V757c0 .21.07.29.07.29.07.08.16.08.16.08h.08l.11-.02.11.65c-.08.04-.2.06-.2.06-.12.02-.29.02-.29.02-.5 0-.71-.29-.71-.29-.21-.29-.21-.86-.21-.86v-6.45zM871 758zm.514 1.408l.19.047.2.026c.44 0 .72-.31.72-.31.277-.31.435-.78.435-.78l.11-.38-2.05-5.11h.89l1.04 2.83c.11.34.24.71.24.71.13.37.24.73.24.73h.04c.11-.34.22-.72.22-.72.1-.38.21-.71.21-.71l.91-2.82h.84l-1.93 5.53c-.14.38-.31.7-.31.7-.17.33-.4.56-.4.56-.23.24-.53.38-.53.38-.3.14-.69.14-.69.14-.18 0-.33-.02-.33-.02-.14-.02-.27-.08-.27-.08l.17-.68zm6.513-1.408zm.61-1.323c0-.84.75-1.287.75-1.287.75-.447 2.39-.625 2.39-.625 0-.242-.047-.473-.047-.473-.048-.23-.168-.41-.168-.41-.12-.178-.32-.29-.32-.29-.2-.11-.515-.11-.515-.11-.452 0-.836.17-.836.17-.38.167-.68.377-.68.377l-.34-.6c.36-.23.87-.45.87-.45.52-.22 1.14-.22 1.14-.22.94 0 1.36.57 1.36.57.42.57.42 1.53.42 1.53V758h-.71l-.07-.61h-.02c-.36.306-.79.52-.79.52-.42.216-.9.216-.9.216-.65 0-1.07-.378-1.07-.378-.43-.378-.43-1.07-.43-1.07zm0 0zm.85-.064c0 .442.258.63.258.63.257.19.635.19.635.19.368 0 .7-.173.7-.173.33-.174.697-.51.697-.51v-1.418c-.64.084-1.082.2-1.082.2-.44.115-.71.273-.71.273-.267.157-.382.362-.382.362-.116.205-.116.446-.116.446zm3.918 1.387zm1.23.86c0 .41.393.653.393.653.394.24 1.087.24 1.087.24.368 0 .667-.088.667-.088.3-.09.51-.23.51-.23.21-.143.325-.332.325-.332.116-.19.116-.39.116-.39 0-.356-.263-.492-.263-.492-.262-.13-.767-.13-.767-.13h-.882c-.14 0-.32-.01-.32-.01-.17-.01-.34-.07-.34-.07-.27.2-.4.42-.4.42-.12.22-.12.44-.12.44zm0 0zm-.757.117c0-.326.2-.62.2-.62.2-.294.546-.535.546-.535v-.042c-.19-.116-.32-.32-.32-.32-.132-.206-.132-.51-.132-.51 0-.326.18-.568.18-.568.177-.24.377-.378.377-.378v-.042c-.26-.21-.46-.562-.46-.562-.21-.352-.21-.814-.21-.814 0-.42.15-.756.15-.756.15-.336.41-.573.41-.573.26-.236.61-.362.61-.362.35-.126.74-.126.74-.126.21 0 .39.03.39.03.18.03.33.09.33.09h1.77v.66h-1.05c.17.18.29.45.29.45.12.27.12.6.12.6 0 .41-.15.74-.15.74-.15.33-.4.55-.4.55-.25.22-.6.35-.6.35-.34.12-.73.12-.73.12-.19 0-.39-.05-.39-.05-.2-.05-.38-.13-.38-.13-.14.11-.23.25-.23.25-.1.14-.1.35-.1.35 0 .24.19.4.19.4.19.16.71.16.71.16h.99c.89 0 1.34.29 1.34.29.44.28.44.92.44.92 0 .35-.18.67-.18.67-.18.32-.52.56-.52.56-.34.24-.82.38-.82.38-.48.14-1.08.14-1.08.14-.47 0-.86-.09-.86-.09-.39-.09-.66-.27-.66-.27-.28-.18-.43-.43-.43-.43-.15-.25-.15-.59-.15-.59zm0 0zm2.11-3.172c.222 0 .416-.084.416-.084.194-.08.347-.24.347-.24.16-.16.24-.38.24-.38.09-.22.09-.51.09-.51 0-.56-.31-.87-.31-.87-.31-.31-.76-.31-.76-.31-.45 0-.76.31-.76.31-.31.31-.31.88-.31.88 0 .29.09.51.09.51.09.23.24.39.24.39.16.16.35.24.35.24.2.09.42.09.42.09zM888.7 758zm.863-5.105h.715l.073.924h.04c.27-.49.64-.77.64-.77.38-.29.82-.29.82-.29.31 0 .55.1.55.1l-.17.75c-.12-.04-.23-.07-.23-.07-.1-.02-.26-.02-.26-.02-.32 0-.67.26-.67.26-.35.26-.61.91-.61.91v3.3h-.86v-5.11zm2.68 5.105zm.482-2.542c0-.63.195-1.13.195-1.13.194-.498.514-.845.514-.845.322-.346.73-.53.73-.53.41-.184.852-.184.852-.184.483 0 .867.16.867.16.382.17.64.48.64.48.257.31.393.75.393.75.137.44.137.98.137.98 0 .28-.03.47-.03.47h-3.447c.053.83.51 1.31.51 1.31.457.48 1.192.48 1.192.48.368 0 .677-.11.677-.11.31-.11.594-.29.594-.29l.3.56c-.34.21-.75.37-.75.37-.41.16-.94.16-.94.16-.52 0-.96-.19-.96-.19-.45-.19-.78-.53-.78-.53-.33-.34-.52-.84-.52-.84-.19-.5-.19-1.13-.19-1.13zm0 0zm3.572-.39c0-.786-.33-1.2-.33-1.2-.332-.416-.93-.416-.93-.416-.274 0-.52.11-.52.11-.248.11-.447.315-.447.315-.2.205-.33.504-.33.504-.132.3-.174.69-.174.69h2.73zM897.45 758zm.482-2.542c0-.63.195-1.13.195-1.13.194-.498.515-.845.515-.845.32-.346.73-.53.73-.53.41-.184.85-.184.85-.184.484 0 .867.16.867.16.38.17.64.48.64.48.25.31.39.75.39.75.13.44.13.98.13.98 0 .28-.03.47-.03.47h-3.45c.05.83.51 1.31.51 1.31.45.48 1.19.48 1.19.48.37 0 .68-.11.68-.11.31-.11.59-.29.59-.29l.3.56c-.34.21-.75.37-.75.37-.41.16-.94.16-.94.16-.52 0-.96-.19-.96-.19-.45-.19-.78-.53-.78-.53-.33-.34-.52-.84-.52-.84-.19-.5-.19-1.13-.19-1.13zm0 0zm3.572-.39c0-.786-.33-1.2-.33-1.2-.332-.416-.93-.416-.93-.416-.274 0-.52.11-.52.11-.247.11-.447.315-.447.315-.2.205-.33.504-.33.504-.132.3-.174.69-.174.69h2.73zM902.66 758zm.682-4.317c0-.305.184-.49.184-.49.184-.182.446-.182.446-.182.252 0 .436.19.436.19.184.19.184.49.184.49 0 .28-.184.47-.184.47-.184.19-.436.19-.436.19-.262 0-.446-.18-.446-.18-.184-.18-.184-.46-.184-.46zm0 0zm0 3.792c0-.305.184-.49.184-.49.184-.182.446-.182.446-.182.252 0 .436.183.436.183.184.184.184.49.184.49 0 .282-.184.466-.184.466-.184.184-.436.184-.436.184-.262 0-.446-.184-.446-.184-.184-.184-.184-.467-.184-.467zm4.055.525zm.83-.714h1.533v-4.937h-1.218v-.56c.462-.09.803-.21.803-.21.342-.12.615-.29.615-.29h.662v5.99h1.386v.72h-3.78v-.72zm4.39.714zm2.47-3.256c.324 0 .697-.205.697-.205.373-.21.71-.69.71-.69-.085-.99-.463-1.49-.463-1.49-.37-.51-1.01-.51-1.01-.51-.24 0-.45.1-.45.1-.21.1-.37.3-.37.3-.15.19-.24.46-.24.46-.09.27-.09.6-.09.6 0 .66.31 1.04.31 1.04.31.37.94.37.94.37zm0 0zm-1.45 2.132c.21.242.498.39.498.39.29.146.604.146.604.146.35 0 .67-.147.67-.147.31-.147.55-.49.55-.49.24-.34.39-.886.39-.886.14-.55.15-1.36.15-1.36-.32.4-.74.63-.74.63-.42.23-.84.23-.84.23-.88 0-1.39-.52-1.39-.52-.52-.52-.52-1.56-.52-1.56 0-.49.16-.88.16-.88.15-.4.42-.68.42-.68.27-.28.63-.44.63-.44.36-.16.76-.16.76-.16.49 0 .92.2.92.2.42.2.73.6.73.6.31.4.48 1.01.48 1.01.17.6.17 1.41.17 1.41 0 1.01-.21 1.72-.21 1.72-.21.71-.57 1.15-.57 1.15-.36.44-.82.65-.82.65-.46.2-.96.2-.96.2-.54 0-.94-.2-.94-.2-.41-.2-.68-.51-.68-.51zm4.2 1.124zm3.194-2.542v-1.943c0-.273.02-.646.02-.646.02-.38.04-.65.04-.65h-.04c-.12.24-.26.47-.26.47-.13.23-.28.47-.28.47l-1.56 2.29h2.1zm0 0zm1.74.693h-.91V758h-.82v-1.85h-3.01v-.566l2.87-4.286h.97v4.16h.92v.693z"/></svg>