<svg xmlns="http://www.w3.org/2000/svg" stroke="#000" viewBox="0 0 1024 768" font-size="1"><path fill="#FFF" stroke="none" d="M0 0v768h1024V0z"/><path stroke="none" d="M412.467 14.102zm.216-10.04h2.325l.693 4.696.2 1.578c.11.793.21 1.594.21 1.594h.06c.16-.8.3-1.594.3-1.594l.3-1.578 1.08-4.697h1.93l1.08 4.7c.16.77.3 1.57.3 1.57l.3 1.61h.07l.21-1.6c.1-.78.21-1.57.21-1.57l.7-4.69h2.17l-1.78 10.04h-2.84l-.99-4.56c-.12-.58-.22-1.17-.22-1.17-.1-.59-.17-1.14-.17-1.14h-.07l-.19 1.15c-.1.6-.22 1.18-.22 1.18l-.94 4.56h-2.8zm12.305 10.04zm1-10.796h2.265v2.65l-.108 1.37c.43-.386 1-.717 1-.717.57-.34 1.356-.34 1.356-.34 1.25 0 1.81.81 1.81.81.57.81.57 2.26.57 2.26v4.75h-2.26V9.65c0-.832-.22-1.14-.22-1.14-.22-.31-.71-.31-.71-.31-.43 0-.74.195-.74.195-.31.192-.68.547-.68.547v5.16H426V3.305zm7.793 10.796zm2.13-8.763c-.57 0-.94-.34-.94-.34-.37-.33-.37-.86-.37-.86 0-.53.37-.85.37-.85.37-.33.94-.33.94-.33.59 0 .95.32.95.32.36.32.36.84.36.84 0 .52-.36.85-.36.85-.36.33-.94.33-.94.33zm0 0zm-1.12 1.12h2.27v7.64h-2.26V6.46zm3.25 7.64zm.56-3.82c0-.96.33-1.7.33-1.7.33-.75.87-1.26.87-1.26.55-.51 1.27-.78 1.27-.78.73-.27 1.51-.27 1.51-.27.71 0 1.28.24 1.28.24.57.24.96.64.96.64l-1.03 1.4c-.54-.45-1.06-.45-1.06-.45-.83 0-1.31.58-1.31.58-.47.58-.47 1.58-.47 1.58 0 1 .48 1.58.48 1.58.49.58 1.23.58 1.23.58.42 0 .76-.17.76-.17.34-.17.62-.39.62-.39l.91 1.43c-.55.49-1.23.72-1.23.72-.67.23-1.31.23-1.31.23-.8 0-1.48-.27-1.48-.27-.69-.27-1.19-.78-1.19-.78-.51-.51-.8-1.26-.8-1.26-.3-.75-.3-1.7-.3-1.7zm6.64 3.82zm1-10.8h2.27v2.65l-.11 1.37c.44-.39 1.01-.72 1.01-.72.57-.33 1.36-.33 1.36-.33 1.25 0 1.81.81 1.81.81.57.81.57 2.26.57 2.26v4.75h-2.26V9.65c0-.833-.22-1.14-.22-1.14-.22-.31-.71-.31-.71-.31-.43 0-.74.194-.74.194-.3.192-.67.547-.67.547v5.16h-2.26V3.31zm11 10.8zm1-10.8h2.27v2.65l-.06 1.17c.45-.4.96-.63.96-.63.51-.22 1.05-.22 1.05-.22.7 0 1.25.27 1.25.27.56.28.95.78.95.78.4.5.6 1.21.6 1.21.21.71.21 1.59.21 1.59 0 .98-.27 1.75-.27 1.75-.27.77-.72 1.3-.72 1.3-.45.53-1.03.81-1.03.81-.58.27-1.19.27-1.19.27-.51 0-1.02-.25-1.02-.25-.51-.25-.96-.74-.96-.74h-.06l-.18.8h-1.77V3.31zm0 0zm2.27 8.64c.31.27.62.38.62.38.31.1.6.1.6.1.59 0 1-.53 1-.53.42-.53.42-1.72.42-1.72 0-2.07-1.32-2.07-1.32-2.07-.68 0-1.31.69-1.31.69v3.12zm5.56 2.15zm.93-7.64h2.27v4.45c0 .83.23 1.14.23 1.14.24.3.73.3.73.3.43 0 .73-.2.73-.2.29-.2.63-.65.63-.65V6.47h2.27v7.63H472l-.17-1.063h-.046c-.497.584-1.06.915-1.06.915-.56.33-1.347.33-1.347.33-1.246 0-1.81-.815-1.81-.815-.56-.816-.56-2.264-.56-2.264v-4.74zm7.83 7.64zm2.13-8.76c-.57 0-.94-.33-.94-.33-.37-.33-.37-.86-.37-.86 0-.53.37-.85.37-.85.37-.33.94-.33.94-.33.59 0 .95.32.95.32.36.32.36.84.36.84 0 .52-.36.85-.36.85-.36.33-.94.33-.94.33zm0 0zm-1.13 1.12h2.27v7.64h-2.27V6.46zm3.25 7.64zm1-10.8h2.27v8.51c0 .35.13.49.13.49.13.14.27.14.27.14h.13l.15-.04.28 1.68c-.18.08-.47.13-.47.13-.28.05-.67.05-.67.05-.58 0-.98-.19-.98-.19-.4-.19-.64-.52-.64-.52-.24-.33-.34-.8-.34-.8-.1-.47-.1-1.06-.1-1.06V3.3zm3.4 10.79zm.6-3.82c0-.94.27-1.68.27-1.68.27-.74.71-1.26.71-1.26.44-.52 1.02-.8 1.02-.8.58-.28 1.18-.28 1.18-.28.65 0 1.07.22 1.07.22.42.22.82.59.82.59l-.09-1.17V3.3h2.27v10.8h-1.85l-.15-.754h-.06c-.4.4-.94.67-.94.67-.53.27-1.09.27-1.09.27-.71 0-1.28-.278-1.28-.278-.58-.278-.99-.794-.99-.794-.41-.516-.63-1.255-.63-1.255-.22-.74-.22-1.68-.22-1.68zm0 0zm2.33-.03c0 1.14.36 1.66.36 1.66.36.52 1.03.52 1.03.52.37 0 .67-.16.67-.16.3-.16.58-.54.58-.54v-3.1c-.31-.28-.63-.39-.63-.39-.32-.11-.63-.11-.63-.11-.54 0-.95.51-.95.51-.41.51-.41 1.61-.41 1.61zm9.1 3.85zm1.31-5.87h-1.05V6.55l1.17-.09.26-2.033h1.88V6.46h1.84v1.77h-1.83v3.07c0 .646.27.93.27.93.27.285.72.285.72.285.19 0 .38-.046.38-.046.19-.05.35-.11.35-.11l.36 1.65c-.31.09-.72.18-.72.18-.41.09-.97.09-.97.09-.71 0-1.21-.22-1.21-.22-.5-.22-.81-.6-.81-.6-.31-.39-.46-.94-.46-.94-.14-.55-.14-1.21-.14-1.21V8.23zm4.44 5.87zm.56-3.82c0-.96.31-1.7.31-1.7.31-.75.83-1.26.83-1.26.52-.51 1.19-.78 1.19-.78.68-.27 1.4-.27 1.4-.27.73 0 1.4.27 1.4.27.67.27 1.18.77 1.18.77.52.51.83 1.25.83 1.25.31.74.31 1.7.31 1.7 0 .95-.31 1.7-.31 1.7-.31.74-.82 1.25-.82 1.25-.51.5-1.18.77-1.18.77-.67.27-1.39.27-1.39.27-.72 0-1.4-.27-1.4-.27-.68-.27-1.19-.78-1.19-.78-.52-.51-.82-1.26-.82-1.26-.31-.75-.31-1.7-.31-1.7zm0 0zm2.33 0c0 1 .35 1.58.35 1.58.35.58 1.06.58 1.06.58.7 0 1.05-.59 1.05-.59.36-.59.36-1.59.36-1.59 0-1-.35-1.59-.35-1.59-.35-.59-1.04-.59-1.04-.59-.7 0-1.05.58-1.05.58-.34.58-.34 1.58-.34 1.58zm5.67 3.82zm.56-3.82c0-.96.31-1.7.31-1.7.31-.75.83-1.26.83-1.26.52-.51 1.2-.78 1.2-.78.68-.27 1.4-.27 1.4-.27.73 0 1.4.27 1.4.27.67.27 1.18.77 1.18.77.52.51.83 1.25.83 1.25.3.74.3 1.7.3 1.7 0 .95-.3 1.7-.3 1.7-.31.74-.83 1.25-.83 1.25-.52.5-1.19.77-1.19.77-.67.27-1.39.27-1.39.27-.72 0-1.4-.27-1.4-.27-.68-.27-1.19-.78-1.19-.78-.51-.51-.82-1.26-.82-1.26-.31-.75-.31-1.7-.31-1.7zm0 0zm2.33 0c0 1 .35 1.58.35 1.58.35.58 1.06.58 1.06.58.69 0 1.05-.59 1.05-.59.36-.59.36-1.59.36-1.59 0-1-.36-1.59-.36-1.59-.35-.59-1.05-.59-1.05-.59-.7 0-1.05.58-1.05.58-.34.58-.34 1.58-.34 1.58zm5.67 3.82zm1-10.8h2.27v8.52c0 .35.13.49.13.49.13.14.27.14.27.14h.13l.15-.03.28 1.68c-.18.08-.47.13-.47.13-.28.06-.67.06-.67.06-.58 0-.98-.19-.98-.19-.4-.19-.64-.52-.64-.52-.24-.33-.34-.8-.34-.8-.11-.47-.11-1.06-.11-1.06V3.3zm3.4 10.79zm1.34-2.3c.53.4 1 .6 1 .6.48.2.97.2.97.2.51 0 .74-.17.74-.17.23-.17.23-.48.23-.48 0-.19-.13-.33-.13-.33-.13-.15-.35-.27-.35-.27-.22-.13-.5-.23-.5-.23-.28-.1-.57-.23-.57-.23-.35-.14-.71-.32-.71-.32-.35-.19-.64-.46-.64-.46-.29-.27-.48-.63-.48-.63-.18-.37-.18-.84-.18-.84 0-.53.21-.97.21-.97.21-.45.6-.76.6-.76.39-.31.93-.49.93-.49.54-.18 1.2-.18 1.2-.18.88 0 1.54.3 1.54.3.66.3 1.16.67 1.16.67l-1.07 1.4c-.41-.31-.82-.48-.82-.48-.4-.17-.8-.17-.8-.17-.86 0-.86.6-.86.6 0 .18.12.31.12.31.13.13.33.24.33.24.21.11.48.21.48.21l.57.2c.37.14.73.32.73.32.36.18.66.44.66.44.3.26.49.64.49.64.187.38.187.9.187.9 0 .52-.2.97-.2.97-.2.45-.6.78-.6.78-.4.33-.985.52-.985.52-.58.19-1.35.19-1.35.19-.75 0-1.55-.29-1.55-.29-.79-.29-1.38-.77-1.38-.77zm8.69 2.29zm.6-3.82c0-.94.27-1.68.27-1.68.27-.74.71-1.25.71-1.25.43-.52 1.01-.8 1.01-.8.58-.28 1.18-.28 1.18-.28.65 0 1.07.22 1.07.22.42.22.82.59.82.59l-.09-1.17V3.3h2.26v10.8h-1.85l-.15-.754h-.06c-.4.4-.94.67-.94.67-.53.27-1.09.27-1.09.27-.7 0-1.28-.278-1.28-.278-.57-.278-.98-.794-.98-.794-.4-.516-.63-1.255-.63-1.255-.22-.74-.22-1.68-.22-1.68zm0 0zm2.32-.03c0 1.14.36 1.66.36 1.66.36.52 1.02.52 1.02.52.37 0 .67-.16.67-.16.3-.16.58-.54.58-.54V8.6c-.31-.28-.63-.386-.63-.386-.32-.11-.63-.11-.63-.11-.54 0-.96.52-.96.52-.42.52-.42 1.61-.42 1.61zm5.9 3.85zm.55-3.82c0-.96.31-1.7.31-1.7.31-.75.83-1.26.83-1.26.52-.51 1.19-.78 1.19-.78.68-.27 1.4-.27 1.4-.27.73 0 1.4.27 1.4.27.67.27 1.18.77 1.18.77.51.51.82 1.26.82 1.26.31.74.31 1.7.31 1.7 0 .95-.31 1.7-.31 1.7-.31.74-.82 1.25-.82 1.25-.51.5-1.18.77-1.18.77-.67.27-1.39.27-1.39.27-.73 0-1.4-.27-1.4-.27-.68-.27-1.2-.78-1.2-.78-.51-.51-.82-1.26-.82-1.26-.3-.75-.3-1.7-.3-1.7zm0 0zm2.33 0c0 1 .35 1.58.35 1.58.35.58 1.06.58 1.06.58.7 0 1.05-.59 1.05-.59.36-.58.36-1.59.36-1.59 0-1-.35-1.59-.35-1.59-.35-.58-1.04-.58-1.04-.58-.7 0-1.05.58-1.05.58-.34.58-.34 1.58-.34 1.58zm8.87 3.82zm1.17 1.11c.11.03.25.06.25.06.14.03.26.03.26.03.57 0 .88-.28.88-.28.31-.28.46-.72.46-.72l.11-.4-2.94-7.44h2.28l1.1 3.28c.17.52.31 1.06.31 1.06.14.54.29 1.11.29 1.11h.06c.12-.54.26-1.09.26-1.09.13-.55.27-1.09.27-1.09l.93-3.28h2.17l-2.65 7.71c-.28.72-.58 1.27-.58 1.27-.3.54-.69.9-.69.9-.39.36-.89.55-.89.55-.5.19-1.18.19-1.18.19-.36 0-.6-.04-.6-.04-.25-.04-.48-.11-.48-.11l.4-1.72zm6.73-1.11zm.56-3.82c0-.96.31-1.7.31-1.7.31-.75.83-1.26.83-1.26.52-.51 1.2-.78 1.2-.78.68-.27 1.4-.27 1.4-.27.73 0 1.4.27 1.4.27.67.27 1.19.77 1.19.77.52.51.83 1.25.83 1.25.31.74.31 1.7.31 1.7 0 .95-.31 1.7-.31 1.7-.31.74-.83 1.25-.83 1.25-.51.5-1.18.77-1.18.77-.67.27-1.39.27-1.39.27-.72 0-1.4-.27-1.4-.27-.67-.27-1.19-.78-1.19-.78-.52-.51-.82-1.26-.82-1.26-.31-.75-.31-1.7-.31-1.7zm0 0zm2.33 0c0 1 .35 1.58.35 1.58.35.58 1.06.58 1.06.58.7 0 1.05-.59 1.05-.59.36-.59.36-1.59.36-1.59 0-1-.36-1.59-.36-1.59-.35-.59-1.05-.59-1.05-.59-.71 0-1.05.58-1.05.58-.34.58-.34 1.58-.34 1.58zm5.67 3.82zm.93-7.64H573v4.45c0 .83.23 1.14.23 1.14.233.31.726.31.726.31.43 0 .726-.2.726-.2.29-.2.63-.65.63-.65V6.46h2.26v7.64h-1.85l-.17-1.063h-.044c-.49.584-1.052.915-1.052.915-.562.33-1.347.33-1.347.33-1.25 0-1.81-.815-1.81-.815-.56-.816-.56-2.264-.56-2.264v-4.74zm11.03 7.64zm.93-7.64H585v4.45c0 .83.23 1.14.23 1.14.23.31.725.31.725.31.43 0 .72-.2.72-.2.297-.2.63-.65.63-.65V6.46h2.27v7.64h-1.85l-.17-1.063h-.05c-.49.584-1.053.915-1.053.915-.56.33-1.344.33-1.344.33-1.25 0-1.81-.815-1.81-.815-.56-.816-.56-2.264-.56-2.264v-4.74zm7.82 7.64zm1.34-2.3c.53.4 1 .6 1 .6.48.2.97.2.97.2.51 0 .74-.17.74-.17.23-.17.23-.48.23-.48 0-.19-.13-.33-.13-.33-.13-.15-.35-.27-.35-.27-.22-.13-.5-.23-.5-.23-.27-.1-.57-.22-.57-.22-.35-.14-.7-.33-.7-.33-.35-.18-.65-.45-.65-.45-.29-.27-.48-.63-.48-.63-.18-.36-.18-.84-.18-.84 0-.53.21-.97.21-.97.21-.45.6-.76.6-.76.38-.31.92-.49.92-.49.54-.18 1.2-.18 1.2-.18.88 0 1.54.3 1.54.3.66.3 1.16.67 1.16.67l-1.02 1.35c-.42-.31-.82-.48-.82-.48-.4-.17-.8-.17-.8-.17-.862 0-.862.6-.862.6 0 .18.12.32.12.32.12.13.33.24.33.24.21.1.48.2.48.2l.56.21c.37.14.73.32.73.32.36.17.66.44.66.44.3.26.48.64.48.64.18.37.18.9.18.9 0 .52-.2.97-.2.97-.2.44-.6.77-.6.77-.4.33-.99.52-.99.52-.584.19-1.354.19-1.354.19-.75 0-1.54-.29-1.54-.29-.79-.3-1.38-.77-1.38-.77zm5.48 2.29zm.56-3.82c0-.92.31-1.67.31-1.67.31-.75.81-1.26.81-1.26.5-.52 1.15-.8 1.15-.8.64-.28 1.34-.28 1.34-.28.81 0 1.42.28 1.42.28.61.28 1.02.77 1.02.77.41.49.61 1.16.61 1.16.2.67.2 1.45.2 1.45 0 .31-.03.56-.03.56-.03.25-.06.39-.06.39h-4.58c.15.87.69 1.27.69 1.27.53.39 1.3.39 1.3.39.81 0 1.65-.51 1.65-.51l.75 1.37c-.59.4-1.3.64-1.3.64-.72.23-1.41.23-1.41.23-.82 0-1.53-.27-1.53-.27-.71-.27-1.23-.79-1.23-.79-.52-.52-.81-1.25-.81-1.25-.29-.74-.29-1.7-.29-1.7zm0 0zm4.93-.79c0-.67-.29-1.08-.29-1.08-.3-.41-.99-.41-.99-.41-.54 0-.95.36-.95.36-.41.36-.53 1.13-.53 1.13h2.76zm2.5 4.6zm2.37-3.56c-.07-.53.04-.96.04-.96.12-.43.33-.8.33-.8.22-.37.49-.68.49-.68l.52-.59c.25-.29.41-.56.41-.56.16-.27.16-.57.16-.57 0-.48-.28-.73-.28-.73-.29-.25-.75-.25-.75-.25-.43 0-.76.2-.76.2-.33.2-.64.51-.64.51L605.9 5c.525-.63 1.233-1.017 1.233-1.017.71-.385 1.57-.385 1.57-.385.64 0 1.21.15 1.21.15.56.15.97.47.97.47.4.32.64.82.64.82.23.5.23 1.18.23 1.18 0 .47-.17.85-.17.85-.17.37-.43.7-.43.7-.26.32-.54.62-.54.62-.29.3-.52.62-.52.62-.24.32-.38.68-.38.68-.14.36-.1.82-.1.82h-1.99zm0 0zm-.37 2.32c0-.62.39-1.03.39-1.03.39-.41.97-.41.97-.41.59 0 .98.41.98.41.4.41.4 1.02.4 1.02 0 .6-.39 1.01-.39 1.01-.39.41-.97.41-.97.41-.59 0-.97-.41-.97-.41-.39-.41-.39-1.01-.39-1.01z"/><path fill="none" stroke="#D3D3D3" stroke-miterlimit="10" d="M39.59 738h954.8M39.59 562.25h954.8M39.59 386.5h954.8M39.59 210.75h954.8M39.59 35h954.8" stroke-dasharray="5 5"/><g fill="#5C3566" stroke-opacity="0" stroke-width="0" stroke-miterlimit="10" stroke-linejoin="bevel"><defs><clipPath id="a"><path d="M39.59 35v703h954.8V35z"/></clipPath></defs><g clip-path="url(#a)"><path stroke="none" d="M54.59 738V47.654h160.96V738z"/></g></g><g fill-opacity="0" stroke-miterlimit="10"><defs><clipPath id="b"><path d="M39.59 35v703h954.8V35z"/></clipPath></defs><g clip-path="url(#b)"><path fill="none" d="M54.59 738V47.654h160.96V738z"/></g></g><g fill="#5C3566" stroke-opacity="0" stroke-width="0" stroke-miterlimit="10" stroke-linejoin="bevel"><defs><clipPath id="c"><path d="M39.59 35v703h954.8V35z"/></clipPath></defs><g clip-path="url(#c)"><path stroke="none" d="M245.55 738V411.808h160.96V738z"/></g></g><g fill-opacity="0" stroke-miterlimit="10"><defs><clipPath id="d"><path d="M39.59 35v703h954.8V35z"/></clipPath></defs><g clip-path="url(#d)"><path fill="none" d="M245.55 738V411.808h160.96V738z"/></g></g><g fill="#5C3566" stroke-opacity="0" stroke-width="0" stroke-miterlimit="10" stroke-linejoin="bevel"><defs><clipPath id="e"><path d="M39.59 35v703h954.8V35z"/></clipPath></defs><g clip-path="url(#e)"><path stroke="none" d="M436.51 738V578.42h160.96V738z"/></g></g><g fill-opacity="0" stroke-miterlimit="10"><defs><clipPath id="f"><path d="M39.59 35v703h954.8V35z"/></clipPath></defs><g clip-path="url(#f)"><path fill="none" d="M436.51 738V578.42h160.96V738z"/></g></g><g fill="#5C3566" stroke-opacity="0" stroke-width="0" stroke-miterlimit="10" stroke-linejoin="bevel"><defs><clipPath id="g"><path d="M39.59 35v703h954.8V35z"/></clipPath></defs><g clip-path="url(#g)"><path stroke="none" d="M627.47 738v-64.676h160.96V738z"/></g></g><g fill-opacity="0" stroke-miterlimit="10"><defs><clipPath id="h"><path d="M39.59 35v703h954.8V35z"/></clipPath></defs><g clip-path="url(#h)"><path fill="none" d="M627.47 738v-64.676h160.96V738z"/></g></g><g fill="#5C3566" stroke-opacity="0" stroke-width="0" stroke-miterlimit="10" stroke-linejoin="bevel"><defs><clipPath id="i"><path d="M39.59 35v703h954.8V35z"/></clipPath></defs><g clip-path="url(#i)"><path stroke="none" d="M818.43 738v-31.635h160.96V738z"/></g></g><g fill-opacity="0" stroke-miterlimit="10"><defs><clipPath id="j"><path d="M39.59 35v703h954.8V35z"/></clipPath></defs><g clip-path="url(#j)"><path fill="none" d="M818.43 738v-31.635h160.96V738z"/></g></g><path fill="none" stroke-miterlimit="10" d="M39.59 738V35" stroke-linecap="square"/><path fill="none" stroke-miterlimit="10" d="M39.59 738h2m-2-70.3h2m-2-70.3h2m-2-70.3h2m-2-70.3h2m-2-70.3h2m-2-70.3h2m-2-70.3h2m-2-70.3h2m-2-70.3h2m-2-70.3h2m-2 703h5m-5-175.75h5m-5-175.75h5m-5-175.75h5M39.59 35h5"/><path stroke="none" d="M25.294 741.445zm2.616.126c-1.02 0-1.586-.9-1.586-.9-.568-.9-.568-2.59-.568-2.59 0-1.69.568-2.57.568-2.57.567-.88 1.586-.88 1.586-.88 1.008 0 1.575.88 1.575.88.568.89.568 2.58.568 2.58 0 1.69-.568 2.6-.568 2.6-.567.91-1.575.91-1.575.91zm0 0zm0-.69c.294 0 .53-.16.53-.16.236-.16.41-.5.41-.5.173-.34.268-.87.268-.87.094-.53.094-1.26.094-1.26 0-.73-.094-1.26-.094-1.26-.095-.52-.268-.85-.268-.85-.173-.33-.41-.49-.41-.49-.236-.16-.53-.16-.53-.16-.294 0-.536.16-.536.16-.242.16-.415.49-.415.49-.18.33-.27.86-.27.86-.1.53-.1 1.26-.1 1.26 0 1.47.36 2.14.36 2.14.36.67.95.67.95.67zM14.77 565.7zm.42-.514c.755-.754 1.344-1.363 1.344-1.363.588-.61.987-1.13.987-1.13.4-.52.61-.955.61-.955.21-.434.21-.844.21-.844 0-.576-.31-.944-.31-.944-.31-.37-.95-.37-.95-.37-.42 0-.77.24-.77.24-.35.235-.65.57-.65.57l-.49-.492c.42-.462.9-.74.9-.74.48-.28 1.14-.28 1.14-.28.94 0 1.47.543 1.47.543.54.54.54 1.44.54 1.44 0 .47-.2.95-.2.95-.2.48-.57.99-.57.99-.36.51-.86 1.06-.86 1.06-.5.56-1.09 1.18-1.09 1.18l.57-.04c.3-.02.56-.02.56-.02h1.95v.75H15.2v-.51zm4.8.517zm.682-1.355c.294.307.7.538.7.538.403.23.99.23.99.23.306 0 .574-.11.574-.11.268-.11.467-.31.467-.31.2-.2.315-.482.315-.482.116-.283.116-.63.116-.63 0-.693-.39-1.082-.39-1.082-.387-.387-1.04-.387-1.04-.387-.345 0-.592.106-.592.106-.247.11-.552.31-.552.31l-.462-.29.22-3.22h3.352v.75h-2.595l-.18 1.99c.243-.12.485-.2.485-.2.24-.07.546-.07.546-.07.43 0 .81.13.81.13.377.13.66.39.66.39.284.26.447.65.447.65.163.4.163.94.163.94 0 .55-.19.97-.19.97-.19.42-.504.71-.504.71-.315.29-.72.44-.72.44-.404.15-.845.15-.845.15-.4 0-.73-.08-.73-.08-.33-.08-.598-.2-.598-.2-.27-.12-.49-.29-.49-.29-.22-.16-.39-.34-.39-.34zm4.538 1.357zm2.616.127c-1.02 0-1.586-.903-1.586-.903-.568-.91-.568-2.6-.568-2.6 0-1.69.567-2.58.567-2.58.56-.88 1.58-.88 1.58-.88 1.01 0 1.57.88 1.57.88.56.88.56 2.57.56 2.57 0 1.69-.57 2.59-.57 2.59-.57.9-1.58.9-1.58.9zm0 0zm0-.693c.294 0 .53-.17.53-.17.236-.16.41-.51.41-.51.173-.34.268-.87.268-.87.094-.53.094-1.27.094-1.27 0-.74-.094-1.26-.094-1.26-.095-.53-.268-.86-.268-.86-.173-.33-.41-.49-.41-.49-.236-.16-.53-.16-.53-.16-.294 0-.536.16-.536.16-.242.15-.415.48-.415.48-.173.33-.268.85-.268.85-.094.52-.094 1.26-.094 1.26 0 1.47.362 2.13.362 2.13.362.67.95.67.95.67zM14.653 389.95zm.683-1.355c.294.308.7.54.7.54.403.23.99.23.99.23.306 0 .574-.11.574-.11.268-.11.467-.31.467-.31.2-.2.315-.483.315-.483.116-.284.116-.63.116-.63 0-.694-.39-1.082-.39-1.082-.388-.39-1.04-.39-1.04-.39-.345 0-.592.106-.592.106-.247.105-.552.304-.552.304l-.462-.294.22-3.226h3.35v.745H16.44l-.18 1.98c.242-.126.483-.2.483-.2.242-.072.547-.072.547-.072.43 0 .808.127.808.127.38.126.662.383.662.383.284.257.447.65.447.65.162.395.162.94.162.94 0 .548-.19.968-.19.968-.19.42-.51.71-.51.71-.32.29-.72.44-.72.44-.41.16-.85.16-.85.16-.4 0-.73-.08-.73-.08-.33-.08-.6-.2-.6-.2-.27-.12-.48-.29-.48-.29-.22-.16-.39-.34-.39-.34zm4.538 1.358zm2.616.127c-1.02 0-1.587-.9-1.587-.9-.567-.903-.567-2.595-.567-2.595 0-1.69.567-2.574.567-2.574.568-.88 1.586-.88 1.586-.88 1 0 1.57.88 1.57.88.56.89.56 2.58.56 2.58 0 1.69-.57 2.6-.57 2.6-.57.91-1.58.91-1.58.91zm0 0zm0-.69c.294 0 .53-.163.53-.163.236-.162.41-.504.41-.504.173-.34.268-.87.268-.87.094-.53.094-1.266.094-1.266 0-.738-.094-1.26-.094-1.26-.095-.528-.268-.86-.268-.86-.174-.33-.41-.49-.41-.49-.236-.16-.53-.16-.53-.16-.295 0-.536.16-.536.16-.242.158-.415.49-.415.49-.18.33-.27.855-.27.855-.1.524-.1 1.26-.1 1.26 0 1.47.36 2.137.36 2.137.36.66.95.66.95.66zm2.605.567zm2.615.126c-1.02 0-1.586-.902-1.586-.902-.567-.9-.567-2.59-.567-2.59 0-1.69.567-2.57.567-2.57.567-.88 1.586-.88 1.586-.88 1.01 0 1.576.89 1.576.89.567.88.567 2.58.567 2.58 0 1.69-.567 2.6-.567 2.6-.567.91-1.576.91-1.576.91zm0 0zm0-.692c.294 0 .53-.16.53-.16.237-.16.41-.5.41-.5.174-.34.268-.87.268-.87.095-.53.095-1.26.095-1.26 0-.73-.095-1.26-.095-1.26-.094-.52-.268-.85-.268-.85-.173-.33-.41-.48-.41-.48-.236-.16-.53-.16-.53-.16-.294 0-.536.16-.536.16-.24.16-.414.49-.414.49-.174.33-.268.86-.268.86-.095.53-.095 1.26-.095 1.26 0 1.47.363 2.14.363 2.14.362.67.95.67.95.67zM14.853 214.2zm1.86 0c.04-.945.167-1.733.167-1.733.126-.788.352-1.497.352-1.497.226-.71.578-1.37.578-1.37.352-.662.846-1.355.846-1.355h-3.34v-.74h4.316v.534c-.598.75-.97 1.45-.97 1.45-.374.69-.595 1.41-.595 1.41-.22.72-.32 1.52-.32 1.52-.1.8-.142 1.78-.142 1.78h-.893zm3.36 0zm.683-1.355c.294.31.7.54.7.54.403.23.99.23.99.23.306 0 .574-.11.574-.11.268-.11.467-.31.467-.31.2-.2.315-.48.315-.48.116-.285.116-.63.116-.63 0-.695-.39-1.084-.39-1.084-.387-.38-1.04-.38-1.04-.38-.345 0-.592.11-.592.11-.247.11-.552.31-.552.31l-.462-.29.22-3.22h3.352v.74H21.86l-.18 1.99c.242-.12.484-.2.484-.2.24-.07.546-.07.546-.07.43 0 .81.13.81.13.377.13.66.38.66.38.284.26.447.66.447.66.163.39.163.94.163.94 0 .55-.19.97-.19.97-.19.42-.504.71-.504.71-.315.29-.72.44-.72.44-.404.16-.845.16-.845.16-.39 0-.73-.07-.73-.07-.33-.08-.59-.2-.59-.2-.27-.13-.48-.29-.48-.29-.21-.16-.38-.34-.38-.34zm4.538 1.36zm2.616.126c-1.02 0-1.586-.9-1.586-.9-.568-.9-.568-2.59-.568-2.59 0-1.69.568-2.57.568-2.57.567-.88 1.586-.88 1.586-.88 1.008 0 1.575.88 1.575.88.568.89.568 2.58.568 2.58 0 1.69-.568 2.6-.568 2.6-.567.91-1.575.91-1.575.91zm0 0zm0-.69c.294 0 .53-.16.53-.16.236-.16.41-.5.41-.5.173-.34.268-.87.268-.87.094-.53.094-1.26.094-1.26 0-.74-.094-1.26-.094-1.26-.095-.53-.268-.86-.268-.86-.173-.33-.41-.49-.41-.49-.236-.16-.53-.16-.53-.16-.294 0-.536.16-.536.16-.242.16-.415.49-.415.49-.18.33-.27.86-.27.86-.1.53-.1 1.26-.1 1.26 0 1.47.36 2.14.36 2.14.36.67.95.67.95.67zM10 38.45zm.83-.715h1.533V32.8h-1.218v-.557c.462-.084.804-.204.804-.204.34-.12.61-.29.61-.29h.66v5.98h1.38v.71h-3.78v-.72zm4.39.72zm2.616.13c-1.02 0-1.586-.902-1.586-.902-.567-.9-.567-2.593-.567-2.593 0-1.69.567-2.573.567-2.573.567-.882 1.586-.882 1.586-.882 1.01 0 1.576.884 1.576.884.567.88.567 2.57.567 2.57 0 1.69-.57 2.59-.57 2.59-.57.9-1.58.9-1.58.9zm0 0zm0-.692c.294 0 .53-.16.53-.16.237-.16.41-.504.41-.504.174-.34.268-.87.268-.87.095-.53.095-1.27.095-1.27 0-.74-.1-1.26-.1-1.26-.1-.53-.27-.86-.27-.86-.18-.33-.41-.49-.41-.49-.24-.16-.53-.16-.53-.16-.3 0-.54.16-.54.16-.24.15-.42.48-.42.48-.18.33-.27.85-.27.85-.1.53-.1 1.26-.1 1.26 0 1.47.36 2.14.36 2.14.36.67.95.67.95.67zm2.605.57zm2.62.126c-1.02 0-1.58-.91-1.58-.91-.56-.9-.56-2.59-.56-2.59 0-1.69.57-2.57.57-2.57.57-.88 1.59-.88 1.59-.88 1.01 0 1.58.88 1.58.88.57.88.57 2.57.57 2.57 0 1.69-.56 2.59-.56 2.59-.57.9-1.58.9-1.58.9zm0 0zm0-.7c.3 0 .53-.16.53-.16.24-.16.41-.51.41-.51.18-.34.27-.87.27-.87.1-.53.1-1.27.1-1.27 0-.74-.09-1.26-.09-1.26-.09-.53-.27-.86-.27-.86-.17-.33-.41-.49-.41-.49-.23-.16-.53-.16-.53-.16-.29 0-.53.16-.53.16-.24.15-.41.48-.41.48-.17.33-.27.85-.27.85-.09.52-.09 1.26-.09 1.26 0 1.47.36 2.14.36 2.14.36.66.95.66.95.66zm2.61.57zm2.62.12c-1.02 0-1.58-.91-1.58-.91-.56-.91-.56-2.6-.56-2.6 0-1.69.57-2.58.57-2.58.57-.89 1.59-.89 1.59-.89 1.01 0 1.58.88 1.58.88.57.88.57 2.57.57 2.57 0 1.69-.57 2.59-.57 2.59-.56.9-1.57.9-1.57.9zm0 0zm0-.7c.3 0 .53-.17.53-.17.24-.16.41-.5.41-.5.18-.34.27-.87.27-.87.1-.53.1-1.27.1-1.27 0-.74-.09-1.26-.09-1.26-.09-.53-.26-.86-.26-.86-.17-.33-.41-.49-.41-.49-.23-.16-.53-.16-.53-.16-.29 0-.53.16-.53.16-.24.15-.41.48-.41.48-.17.33-.27.86-.27.86-.1.53-.1 1.26-.1 1.26 0 1.47.36 2.14.36 2.14.36.67.95.67.95.67z"/><path fill="none" stroke-miterlimit="10" d="M39.59 738h954.8" stroke-linecap="square"/><path stroke="none" d="M113.158 758zm.967-1.502c.367.39.866.625.866.625.5.236 1.04.236 1.04.236.69 0 1.06-.31 1.06-.31.38-.31.38-.82.38-.82 0-.26-.09-.45-.09-.45-.09-.19-.24-.32-.24-.32-.15-.13-.36-.24-.36-.24-.21-.11-.45-.22-.45-.22l-.98-.43c-.24-.11-.49-.26-.49-.26-.25-.15-.45-.36-.45-.36-.2-.21-.32-.5-.32-.5-.12-.29-.12-.67-.12-.67 0-.39.17-.73.17-.73.16-.34.45-.59.45-.59.29-.25.69-.39.69-.39.4-.14.87-.14.87-.14.62 0 1.15.23 1.15.23.53.24.89.61.89.61l-.47.56c-.31-.31-.7-.48-.7-.48-.38-.17-.86-.17-.86-.17-.58 0-.93.26-.93.26-.35.27-.35.74-.35.74 0 .25.1.42.1.42.1.17.27.3.27.3.17.14.37.23.37.23.2.1.41.19.41.19l.98.42c.29.13.56.29.56.29.26.16.45.38.45.38.19.21.3.5.3.5.11.29.11.66.11.66 0 .41-.16.763-.16.763-.16.355-.46.62-.46.62-.31.267-.74.42-.74.42-.43.15-.97.15-.97.15-.72 0-1.34-.27-1.34-.27-.62-.27-1.07-.747-1.07-.747zm4.643 1.502zm1.008-4.4h-.756v-.653l.798-.052.105-1.43h.725v1.43h1.376v.704h-1.376v2.83c0 .47.173.73.173.73.18.25.62.25.62.25.14 0 .3-.04.3-.04.16-.05.29-.1.29-.1l.17.65c-.21.07-.46.13-.46.13-.24.05-.49.05-.49.05-.41 0-.68-.13-.68-.13-.28-.13-.45-.35-.45-.35-.17-.22-.25-.54-.25-.54-.07-.32-.07-.7-.07-.7v-2.82zm2.353 4.4zm.6-1.323c0-.84.75-1.287.75-1.287.75-.447 2.39-.625 2.39-.625 0-.242-.05-.473-.05-.473-.05-.23-.17-.41-.17-.41-.12-.178-.32-.29-.32-.29-.2-.11-.52-.11-.52-.11-.46 0-.84.17-.84.17-.38.167-.69.377-.69.377l-.35-.6c.35-.23.87-.45.87-.45.51-.22 1.13-.22 1.13-.22.93 0 1.35.57 1.35.57.42.57.42 1.53.42 1.53V758h-.7l-.07-.61h-.02c-.37.306-.8.52-.8.52-.43.216-.9.216-.9.216-.65 0-1.08-.378-1.08-.378-.43-.378-.43-1.07-.43-1.07zm0 0zm.85-.064c0 .442.26.63.26.63.25.19.63.19.63.19.37 0 .7-.173.7-.173.33-.174.69-.51.69-.51v-1.418c-.64.084-1.09.2-1.09.2-.44.115-.71.273-.71.273-.27.157-.38.362-.38.362-.12.205-.12.446-.12.446zM127.5 758zm.483-2.542c0-.64.2-1.14.2-1.14.2-.5.535-.845.535-.845.336-.347.782-.525.782-.525.447-.18.94-.18.94-.18.504 0 .867.185.867.185.362.184.625.425.625.425l-.43.557c-.233-.2-.48-.326-.48-.326-.247-.13-.55-.13-.55-.13-.348 0-.64.14-.64.14-.296.14-.506.4-.506.4-.21.26-.33.62-.33.62-.12.36-.12.8-.12.8 0 .44.114.8.114.8.114.35.32.61.32.61.204.25.498.4.498.4.294.14.64.14.64.14.368 0 .668-.15.668-.15.3-.16.53-.37.53-.37l.39.56c-.344.3-.77.48-.77.48-.424.18-.886.18-.886.18-.503 0-.944-.18-.944-.18-.44-.18-.763-.52-.763-.52-.32-.34-.504-.84-.504-.84-.19-.5-.19-1.13-.19-1.13zM132.29 758zm.86-7.48h.853v5.064h.03l2.175-2.69h.956l-1.71 2.05L137.4 758h-.945l-1.492-2.458-.956 1.113V758h-.852v-7.48zm4.34 7.48zm.683-4.317c0-.305.183-.49.183-.49.184-.182.447-.182.447-.182.252 0 .435.19.435.19.183.19.183.49.183.49 0 .28-.18.47-.18.47-.18.19-.43.19-.43.19-.26 0-.44-.18-.44-.18-.18-.18-.18-.46-.18-.46zm0 0zm0 3.792c0-.305.183-.49.183-.49.184-.182.447-.182.447-.182.252 0 .435.183.435.183.183.184.183.49.183.49 0 .282-.18.466-.18.466-.18.184-.43.184-.43.184-.26 0-.44-.184-.44-.184-.18-.184-.18-.467-.18-.467zm4.054.525zm2.467-3.256c.326 0 .7-.205.7-.205.372-.21.708-.69.708-.69-.084-.99-.462-1.49-.462-1.49-.377-.51-1.02-.51-1.02-.51-.24 0-.455.1-.455.1-.215.1-.373.3-.373.3-.16.19-.248.46-.248.46-.09.27-.09.6-.09.6 0 .66.305 1.04.305 1.04.3.37.93.37.93.37zm0 0zm-1.45 2.132c.21.242.5.39.5.39.29.146.604.146.604.146.357 0 .672-.147.672-.147.315-.147.557-.49.557-.49.24-.34.39-.886.39-.886.146-.55.156-1.36.156-1.36-.315.4-.735.63-.735.63-.42.23-.84.23-.84.23-.87 0-1.386-.52-1.386-.52-.516-.52-.516-1.56-.516-1.56 0-.49.156-.88.156-.88.157-.4.425-.68.425-.68.27-.28.63-.44.63-.44.363-.16.762-.16.762-.16.49 0 .91.2.91.2.42.2.73.6.73.6.31.4.48 1.01.48 1.01.17.6.17 1.41.17 1.41 0 1.01-.21 1.72-.21 1.72-.21.71-.57 1.15-.57 1.15-.36.44-.82.65-.82.65-.46.2-.96.2-.96.2-.54 0-.94-.2-.94-.2-.41-.2-.68-.51-.68-.51zM147.45 758zm1.21-1.796c0 .283.11.515.11.515.11.23.304.4.304.4.195.17.457.27.457.27.27.09.57.09.57.09.59 0 .95-.33.95-.33.37-.33.37-.85.37-.85 0-.33-.14-.56-.14-.56-.15-.23-.4-.41-.4-.41-.25-.18-.58-.32-.58-.32-.33-.15-.69-.29-.69-.29-.4.27-.66.63-.66.63-.27.36-.27.82-.27.82zm0 0zm1.89-1.86c.337-.304.52-.64.52-.64.184-.336.184-.704.184-.704 0-.504-.304-.846-.304-.846-.304-.34-.86-.34-.86-.34-.47 0-.777.293-.777.293-.305.294-.305.788-.305.788 0 .304.126.52.126.52.126.215.34.383.34.383.216.168.495.3.495.3.28.13.58.246.58.246zm0 0zm-2.668 1.944c0-.326.11-.604.11-.604.11-.28.284-.504.284-.504.173-.226.398-.4.398-.4.226-.173.468-.3.468-.3v-.04c-.368-.264-.65-.637-.65-.637-.285-.372-.285-.908-.285-.908 0-.39.148-.704.148-.704.147-.31.4-.54.4-.54.25-.22.598-.35.598-.35.347-.12.756-.12.756-.12.44 0 .78.13.78.13.34.14.59.37.59.37.24.24.38.57.38.57.13.33.13.72.13.72 0 .26-.09.51-.09.51-.09.24-.22.45-.22.45-.13.21-.3.38-.3.38-.17.17-.32.28-.32.28v.04c.22.13.43.29.43.29.21.16.37.37.37.37.16.21.26.47.26.47.1.27.1.6.1.6 0 .38-.16.71-.16.71-.16.33-.44.57-.44.57-.29.25-.68.38-.68.38-.4.14-.88.14-.88.14-.47 0-.88-.14-.88-.14-.41-.13-.7-.38-.7-.38-.29-.24-.46-.58-.46-.58-.17-.33-.17-.73-.17-.73zm4.79 1.712zm.42-.515c.757-.756 1.345-1.365 1.345-1.365.588-.61.987-1.13.987-1.13.4-.52.61-.955.61-.955.21-.436.21-.846.21-.846 0-.58-.315-.95-.315-.95-.32-.37-.96-.37-.96-.37-.42 0-.78.23-.78.23-.36.23-.65.57-.65.57l-.5-.5c.42-.46.89-.74.89-.74.47-.28 1.13-.28 1.13-.28.93 0 1.47.54 1.47.54.53.54.53 1.43.53 1.43 0 .47-.21.95-.21.95-.21.48-.57.98-.57.98-.36.51-.86 1.06-.86 1.06-.5.55-1.1 1.17-1.1 1.17l.57-.04c.29-.02.56-.02.56-.02h1.94v.75h-4.33v-.52zm150.6.515zm.546-3.445c0-.83.23-1.492.23-1.492.23-.662.64-1.124.64-1.124.41-.47.97-.71.97-.71.563-.25 1.225-.25 1.225-.25.63 0 1.103.26 1.103.26.472.25.776.59.776.59l-.493.55c-.28-.3-.61-.47-.61-.47-.33-.18-.78-.18-.78-.18-.5 0-.9.19-.9.19-.4.19-.69.55-.69.55-.29.36-.44.88-.44.88-.16.51-.16 1.15-.16 1.15 0 .65.15 1.17.15 1.17.15.52.42.89.42.89.27.36.66.56.66.56.39.2.89.2.89.2.5 0 .87-.2.87-.2.37-.2.71-.57.71-.57l.49.53c-.41.48-.93.74-.93.74-.52.26-1.18.26-1.18.26-.65 0-1.2-.24-1.2-.24-.55-.24-.95-.7-.95-.7-.41-.46-.63-1.12-.63-1.12-.23-.67-.23-1.51-.23-1.51zm5.45 3.445zm.61-1.323c0-.84.75-1.287.75-1.287.75-.447 2.39-.625 2.39-.625 0-.242-.048-.473-.048-.473-.047-.23-.168-.41-.168-.41-.12-.178-.32-.29-.32-.29-.2-.11-.515-.11-.515-.11-.453 0-.836.17-.836.17-.38.167-.68.377-.68.377l-.34-.6c.36-.23.87-.45.87-.45.52-.22 1.14-.22 1.14-.22.94 0 1.36.57 1.36.57.42.57.42 1.53.42 1.53V758h-.71l-.07-.61h-.02c-.37.306-.79.52-.79.52-.43.216-.9.216-.9.216-.65 0-1.08-.378-1.08-.378-.42-.378-.42-1.07-.42-1.07zm0 0zm.85-.064c0 .442.257.63.257.63.257.19.635.19.635.19.368 0 .7-.173.7-.173.33-.174.698-.51.698-.51v-1.418c-.64.084-1.08.2-1.08.2-.443.115-.71.273-.71.273-.268.157-.384.362-.384.362-.115.205-.115.446-.115.446zm3.92 1.387zm.86-7.48h.86v2.04l-.02.923c.346-.304.756-.51.756-.51.41-.204.84-.204.84-.204.494 0 .872.18.872.18.377.18.634.52.634.52.258.34.39.82.39.82.13.47.13 1.06.13 1.06 0 .65-.178 1.16-.178 1.16-.18.51-.484.87-.484.87-.304.36-.703.54-.703.54-.4.18-.842.18-.842.18-.357 0-.74-.16-.74-.16-.384-.17-.72-.47-.72-.47h-.03l-.075.5h-.693v-7.48zm0 0zm.86 6.346c.336.294.667.414.667.414.33.12.583.12.583.12.316 0 .584-.14.584-.14.268-.142.463-.4.463-.4.194-.257.304-.635.304-.635.11-.378.11-.85.11-.85 0-.42-.08-.768-.08-.768-.08-.346-.24-.593-.24-.593-.17-.247-.42-.384-.42-.384-.26-.136-.62-.136-.62-.136-.62 0-1.37.693-1.37.693v2.68zm3.96 1.134zm.61-1.323c0-.84.75-1.287.75-1.287.75-.447 2.39-.625 2.39-.625 0-.242-.047-.473-.047-.473-.04-.23-.16-.41-.16-.41-.12-.178-.32-.29-.32-.29-.2-.11-.51-.11-.51-.11-.45 0-.83.17-.83.17-.38.167-.69.377-.69.377l-.34-.6c.36-.23.88-.45.88-.45.52-.22 1.14-.22 1.14-.22.93 0 1.36.57 1.36.57.42.57.42 1.53.42 1.53V758h-.71l-.07-.61h-.02c-.37.306-.79.52-.79.52-.42.216-.9.216-.9.216-.65 0-1.07-.378-1.07-.378-.42-.378-.42-1.07-.42-1.07zm0 0zm.85-.064c0 .442.258.63.258.63.256.19.634.19.634.19.368 0 .7-.173.7-.173.33-.174.698-.51.698-.51v-1.418c-.64.084-1.082.2-1.082.2-.442.115-.71.273-.71.273-.267.157-.383.362-.383.362-.115.205-.115.446-.115.446zm3.92 1.387zm.86-7.48h.862v6.514c0 .21.074.294.074.294.073.084.168.084.168.084h.08l.11-.02.115.65c-.086.042-.2.063-.2.063-.118.02-.296.02-.296.02-.49 0-.7-.293-.7-.293-.21-.294-.21-.86-.21-.86v-6.45zm1.818 7.48zm.683-4.317c0-.305.18-.49.18-.49.18-.182.44-.182.44-.182.25 0 .43.19.43.19.18.19.18.49.18.49 0 .28-.18.47-.18.47-.19.19-.44.19-.44.19-.26 0-.45-.18-.45-.18-.19-.18-.19-.46-.19-.46zm0 0zm0 3.792c0-.305.18-.49.18-.49.18-.182.44-.182.44-.182.25 0 .43.183.43.183.18.184.18.49.18.49 0 .282-.18.466-.18.466-.19.184-.44.184-.44.184-.26 0-.45-.184-.45-.184-.19-.184-.19-.467-.19-.467zm4.05.525zm3.19-2.542v-1.943c0-.273.01-.646.01-.646.01-.38.03-.65.03-.65h-.04c-.13.24-.27.47-.27.47l-.29.47-1.57 2.29h2.1zm0 0zm1.73.693h-.92V758h-.82v-1.85h-3.02v-.566l2.87-4.286h.96v4.16h.91v.693zm.29 1.85zm2.81-.55c.25 0 .46-.1.46-.1.21-.1.37-.3.37-.3.16-.19.24-.46.24-.46.09-.27.09-.6.09-.6 0-.66-.31-1.04-.31-1.04-.31-.38-.94-.38-.94-.38-.32 0-.69.21-.69.21-.38.21-.71.68-.71.68.08.99.45 1.5.45 1.5.37.51 1.01.51 1.01.51zm0 0zm1.38-5.02c-.21-.24-.5-.38-.5-.38-.29-.14-.61-.14-.61-.14-.35 0-.66.15-.66.15-.32.15-.56.49-.56.49-.24.34-.39.88-.39.88-.15.54-.16 1.34-.16 1.34.31-.39.73-.61.73-.61.42-.22.83-.22.83-.22.87 0 1.39.52 1.39.52.52.52.52 1.56.52 1.56 0 .48-.16.88-.16.88-.16.39-.44.68-.44.68-.27.29-.63.44-.63.44-.36.16-.77.16-.77.16-.49 0-.91-.2-.91-.2-.42-.2-.73-.6-.73-.6-.31-.4-.48-1.01-.48-1.01-.18-.6-.18-1.41-.18-1.41 0-1.01.21-1.72.21-1.72.21-.71.56-1.16.56-1.16.36-.44.82-.65.82-.65.45-.2.96-.2.96-.2.54 0 .94.21.94.21.39.21.68.51.68.51zm1.03 5.58zm3.19-2.54v-1.94c0-.27.01-.64.01-.64.01-.37.04-.64.04-.64h-.04c-.13.24-.27.47-.27.47l-.29.48-1.57 2.29h2.1zm0 0zm1.73.69h-.9V758h-.82v-1.85h-3.02v-.566l2.87-4.286h.97v4.16h.91v.693zM500.45 758zm.946-6.89h.903l2.49 4.327.74 1.43h.04c-.03-.527-.07-1.09-.07-1.09-.04-.56-.04-1.107-.04-1.107v-3.56h.83V758h-.91l-2.5-4.338-.75-1.418h-.04l.08 1.066c.03.54.03 1.087.03 1.087V758h-.83v-6.89zm5.85 6.89zm1.303-6.155c-.26 0-.43-.158-.43-.158-.18-.158-.18-.4-.18-.4 0-.25.17-.404.17-.404.17-.152.42-.152.42-.152.25 0 .42.16.42.16.17.16.17.41.17.41 0 .24-.18.4-.18.4-.18.16-.43.16-.43.16zm0 0zm-.45 1.05h.86V758h-.87v-5.105zm1.73 5.105zm1.81-2.668l-1.55-2.437h.93l.68 1.124c.11.21.24.42.24.42.12.21.26.42.26.42h.04l.23-.43.23-.43.62-1.13h.9l-1.55 2.53 1.66 2.57h-.94l-.75-1.19-.28-.46-.29-.45h-.04c-.14.22-.26.44-.26.44-.13.22-.26.47-.26.47l-.69 1.19h-.9zm2.87 2.668zm.68-4.317c-.01-.305.18-.49.18-.49.18-.182.44-.182.44-.182.25 0 .43.19.43.19.18.19.18.49.18.49 0 .28-.18.47-.18.47-.18.19-.44.19-.44.19-.27 0-.45-.18-.45-.18-.19-.18-.19-.46-.19-.46zm-.01 0zm0 3.792c0-.305.18-.49.18-.49.18-.182.44-.182.44-.182.25 0 .43.183.43.183.18.184.18.49.18.49 0 .282-.19.466-.19.466-.19.184-.44.184-.44.184-.27 0-.45-.184-.45-.184-.19-.184-.19-.467-.19-.467zm4.05.525zm.42-.515c.75-.756 1.34-1.365 1.34-1.365.59-.61.98-1.13.98-1.13.4-.52.61-.955.61-.955.21-.436.21-.846.21-.846 0-.58-.32-.95-.32-.95-.32-.37-.96-.37-.96-.37-.42 0-.77.23-.77.23-.36.23-.65.57-.65.57l-.5-.5c.42-.46.89-.74.89-.74.47-.28 1.13-.28 1.13-.28.93 0 1.47.54 1.47.54.53.54.53 1.43.53 1.43 0 .47-.21.95-.21.95-.21.48-.57.98-.57.98-.36.51-.86 1.06-.86 1.06-.5.55-1.1 1.17-1.1 1.17l.57-.04c.29-.02.55-.02.55-.02h2v.75h-4.33v-.52zm4.8.515zm.42-.515c.75-.756 1.34-1.365 1.34-1.365.59-.61.99-1.13.99-1.13.4-.52.61-.955.61-.955.21-.436.21-.846.21-.846 0-.58-.32-.95-.32-.95-.32-.37-.96-.37-.96-.37-.42 0-.78.23-.78.23-.36.23-.65.57-.65.57l-.5-.5c.42-.46.89-.74.89-.74.47-.28 1.13-.28 1.13-.28.93 0 1.47.54 1.47.54.53.54.53 1.43.53 1.43 0 .47-.21.95-.21.95-.2.48-.57.98-.57.98-.36.51-.86 1.06-.86 1.06-.5.55-1.1 1.17-1.1 1.17l.56-.04c.29-.02.56-.02.56-.02h1.94v.75h-4.32v-.52zm4.8.515zm1.86 0c.04-.945.17-1.733.17-1.733.12-.788.35-1.497.35-1.497.22-.71.58-1.37.58-1.37.35-.663.84-1.356.84-1.356h-3.34v-.746h4.31v.536c-.6.756-.98 1.45-.98 1.45-.37.693-.59 1.412-.59 1.412-.23.72-.33 1.524-.33 1.524-.1.803-.14 1.78-.14 1.78h-.9zm151.64 0zm1.23.86c0 .41.39.653.39.653.39.24 1.08.24 1.08.24.37 0 .67-.088.67-.088.3-.09.51-.23.51-.23.21-.143.32-.332.32-.332.11-.19.11-.39.11-.39 0-.356-.27-.492-.27-.492-.27-.13-.77-.13-.77-.13h-.89c-.15 0-.32-.01-.32-.01-.17-.01-.34-.07-.34-.07-.27.2-.4.42-.4.42-.13.22-.13.44-.13.44zm0 0zm-.76.117c0-.326.2-.62.2-.62.2-.294.54-.535.54-.535v-.042c-.19-.116-.32-.32-.32-.32-.14-.206-.14-.51-.14-.51 0-.326.18-.568.18-.568.18-.24.37-.378.37-.378v-.042c-.25-.21-.46-.562-.46-.562-.21-.352-.21-.814-.21-.814 0-.42.15-.756.15-.756.15-.336.41-.573.41-.573.26-.236.61-.362.61-.362.35-.126.74-.126.74-.126.21 0 .39.03.39.03.18.03.33.09.33.09h1.77v.66h-1.05c.18.18.3.45.3.45.12.27.12.6.12.6 0 .41-.15.74-.15.74-.15.33-.4.55-.4.55-.25.22-.59.35-.59.35-.34.12-.73.12-.73.12-.19 0-.39-.05-.39-.05-.2-.05-.38-.13-.38-.13-.14.11-.23.25-.23.25-.1.14-.1.35-.1.35 0 .24.19.4.19.4.19.16.71.16.71.16h.99c.9 0 1.34.29 1.34.29.45.28.45.92.45.92 0 .35-.18.67-.18.67-.18.32-.51.56-.51.56-.34.24-.82.38-.82.38-.48.14-1.07.14-1.07.14-.47 0-.86-.09-.86-.09-.39-.09-.67-.27-.67-.27-.28-.18-.43-.43-.43-.43-.15-.25-.15-.59-.15-.59zm0 0zm2.11-3.172c.22 0 .41-.084.41-.084.19-.08.34-.24.34-.24.15-.16.23-.38.23-.38.08-.22.08-.51.08-.51 0-.56-.32-.87-.32-.87-.31-.31-.76-.31-.76-.31-.45 0-.77.31-.77.31-.32.31-.32.88-.32.88 0 .29.08.51.08.51.08.23.23.39.23.39.15.16.35.24.35.24.19.09.41.09.41.09zm2.71 2.195zm.86-7.48h.86v2.04l-.03 1.05c.36-.347.76-.594.76-.594.4-.247.94-.247.94-.247.8 0 1.18.5 1.18.5.37.5.37 1.49.37 1.49V758h-.86v-3.12c0-.725-.23-1.045-.23-1.045-.23-.32-.74-.32-.74-.32-.4 0-.71.2-.71.2-.3.2-.69.587-.69.587V758h-.86v-7.48zm4.86 7.48zm.48-2.542c0-.64.2-1.14.2-1.14.2-.5.53-.845.53-.845.34-.347.78-.525.78-.525.44-.18.94-.18.94-.18.5 0 .86.185.86.185.36.184.62.425.62.425l-.43.557c-.23-.2-.48-.326-.48-.326-.24-.13-.55-.13-.55-.13-.35 0-.64.14-.64.14-.29.14-.5.4-.5.4-.21.26-.33.62-.33.62-.12.36-.12.8-.12.8 0 .44.12.8.12.8.12.35.32.61.32.61.21.25.5.4.5.4.3.14.64.14.64.14.37 0 .67-.15.67-.15.3-.16.53-.37.53-.37l.39.56c-.35.3-.77.48-.77.48-.43.18-.89.18-.89.18-.5 0-.95-.18-.95-.18-.44-.18-.76-.52-.76-.52-.32-.34-.51-.84-.51-.84-.19-.5-.19-1.13-.19-1.13zm4.31 2.542zm.43-2.962h2.41v.662h-2.41v-.662zm2.84 2.962zm1.72.43v1.723h-.87v-7.258h.71l.07.588h.03c.34-.294.76-.504.76-.504.41-.21.87-.21.87-.21.49 0 .87.18.87.18.38.18.63.52.63.52.25.34.38.82.38.82.13.47.13 1.07.13 1.07 0 .65-.18 1.16-.18 1.16-.18.51-.48.86-.48.86-.31.35-.71.54-.71.54-.4.18-.84.18-.84.18-.36 0-.71-.16-.71-.16-.35-.16-.71-.43-.71-.43zm0 0zm0-1.564c.34.294.67.414.67.414.32.12.58.12.58.12.31 0 .58-.14.58-.14.26-.142.46-.4.46-.4.19-.257.3-.635.3-.635.11-.378.11-.85.11-.85 0-.42-.07-.768-.07-.768-.08-.346-.24-.593-.24-.593-.17-.247-.42-.384-.42-.384-.26-.136-.62-.136-.62-.136-.33 0-.66.178-.66.178-.33.18-.71.515-.71.515v2.678zm4.1 1.134zm.86-7.48h.85v5.064h.03l2.17-2.69h.95l-1.72 2.05 1.95 3.056h-.95l-1.49-2.458-.96 1.113V758h-.85v-7.48zm4.23 7.48zm1.23.86c0 .41.39.653.39.653.39.24 1.08.24 1.08.24.36 0 .66-.088.66-.088.3-.09.51-.23.51-.23.21-.143.32-.332.32-.332.12-.19.12-.39.12-.39 0-.356-.27-.492-.27-.492-.26-.13-.77-.13-.77-.13h-.89c-.15 0-.32-.01-.32-.01-.18-.01-.34-.07-.34-.07-.28.2-.4.42-.4.42-.13.22-.13.44-.13.44zm0 0zm-.76.117c0-.326.2-.62.2-.62.2-.294.54-.535.54-.535v-.042c-.19-.116-.32-.32-.32-.32-.13-.206-.13-.51-.13-.51 0-.326.18-.568.18-.568.18-.24.38-.378.38-.378v-.042c-.26-.21-.46-.562-.46-.562-.21-.352-.21-.814-.21-.814 0-.42.15-.756.15-.756.15-.336.41-.573.41-.573.27-.236.62-.362.62-.362.35-.126.74-.126.74-.126.21 0 .39.03.39.03.18.03.33.09.33.09h1.77v.66h-1.05c.18.18.3.45.3.45.12.27.12.6.12.6 0 .41-.15.74-.15.74-.15.33-.4.55-.4.55-.25.22-.6.35-.6.35-.34.12-.73.12-.73.12-.19 0-.39-.05-.39-.05-.2-.05-.38-.13-.38-.13-.14.11-.23.25-.23.25-.1.14-.1.35-.1.35 0 .24.19.4.19.4.18.16.71.16.71.16h.99c.89 0 1.34.29 1.34.29.44.28.44.92.44.92 0 .35-.18.67-.18.67-.18.32-.52.56-.52.56-.34.24-.81.38-.81.38-.48.14-1.08.14-1.08.14-.47 0-.86-.09-.86-.09-.39-.09-.67-.27-.67-.27-.28-.18-.43-.43-.43-.43-.15-.25-.15-.59-.15-.59zm0 0zm2.11-3.172c.22 0 .41-.084.41-.084.19-.08.34-.24.34-.24.15-.16.24-.38.24-.38.08-.22.08-.51.08-.51 0-.56-.32-.87-.32-.87-.32-.31-.77-.31-.77-.31-.46 0-.77.31-.77.31-.32.31-.32.88-.32.88 0 .29.09.51.09.51.08.23.23.39.23.39.15.16.34.24.34.24.19.09.41.09.41.09zm2.71 2.195zm.68-4.317c0-.305.18-.49.18-.49.18-.182.44-.182.44-.182.25 0 .44.19.44.19.18.19.18.49.18.49 0 .28-.18.47-.18.47-.19.19-.44.19-.44.19-.26 0-.45-.18-.45-.18-.19-.18-.19-.46-.19-.46zm0 0zm0 3.792c0-.305.18-.49.18-.49.18-.182.44-.182.44-.182.25 0 .44.183.44.183.18.184.18.49.18.49 0 .282-.18.466-.18.466-.19.184-.44.184-.44.184-.26 0-.45-.184-.45-.184-.19-.184-.19-.467-.19-.467zm4.05.525zm2.47-3.256c.32 0 .7-.205.7-.205.37-.21.71-.69.71-.69-.08-.99-.46-1.49-.46-1.49-.38-.51-1.02-.51-1.02-.51-.24 0-.45.1-.45.1-.22.1-.38.3-.38.3-.16.19-.25.46-.25.46-.09.27-.09.6-.09.6 0 .66.3 1.04.3 1.04.3.37.93.37.93.37zm0 0zm-1.45 2.132c.21.242.5.39.5.39.29.146.6.146.6.146.35 0 .67-.147.67-.147.31-.147.55-.49.55-.49.24-.34.39-.886.39-.886.15-.55.16-1.36.16-1.36-.32.4-.74.63-.74.63-.42.23-.84.23-.84.23-.88 0-1.39-.52-1.39-.52-.52-.52-.52-1.56-.52-1.56 0-.49.16-.88.16-.88.16-.4.42-.68.42-.68.27-.28.63-.44.63-.44.36-.16.76-.16.76-.16.49 0 .92.2.92.2.42.2.73.6.73.6.31.4.49 1.01.49 1.01.18.6.18 1.41.18 1.41 0 1.01-.21 1.72-.21 1.72-.21.71-.57 1.15-.57 1.15-.36.44-.81.65-.81.65-.45.2-.96.2-.96.2-.53 0-.94-.2-.94-.2-.4-.2-.68-.51-.68-.51zm4.2 1.124zm.42-.515c.76-.756 1.34-1.365 1.34-1.365.59-.61.98-1.13.98-1.13.4-.52.61-.955.61-.955.21-.436.21-.846.21-.846 0-.58-.32-.95-.32-.95-.32-.37-.96-.37-.96-.37-.42 0-.78.23-.78.23-.35.23-.65.57-.65.57l-.49-.5c.42-.46.89-.74.89-.74.47-.28 1.14-.28 1.14-.28.93 0 1.47.54 1.47.54.53.54.53 1.43.53 1.43 0 .47-.21.95-.21.95-.21.48-.57.98-.57.98-.36.51-.86 1.06-.86 1.06-.5.55-1.1 1.17-1.1 1.17l.57-.04c.29-.02.55-.02.55-.02h1.94v.75h-4.32v-.52zM879.3 758zm3.487.126c-.65 0-1.192-.252-1.192-.252-.54-.252-.93-.72-.93-.72-.39-.467-.604-1.134-.604-1.134-.21-.667-.21-1.497-.21-1.497 0-.83.22-1.486.22-1.486.22-.657.61-1.114.61-1.114.39-.456.93-.698.93-.698.54-.242 1.2-.242 1.2-.242.65 0 1.19.247 1.19.247.54.247.94.704.94.704.39.457.61 1.113.61 1.113.21.657.21 1.476.21 1.476 0 .83-.21 1.497-.21 1.497-.21.667-.61 1.135-.61 1.135-.39.467-.93.72-.93.72-.54.25-1.19.25-1.19.25zm0 0zm0-.767c.462 0 .835-.2.835-.2.373-.2.64-.58.64-.58.27-.38.416-.9.416-.9.147-.52.147-1.17.147-1.17 0-.64-.147-1.16-.147-1.16-.147-.52-.415-.87-.415-.87-.266-.36-.64-.56-.64-.56-.372-.19-.834-.19-.834-.19-.47 0-.84.19-.84.19-.37.19-.64.55-.64.55-.27.35-.42.87-.42.87-.15.51-.15 1.15-.15 1.15 0 .65.14 1.17.14 1.17.14.52.41.89.41.89.27.37.64.57.64.57.37.2.83.2.83.2zm3.487.64zm1.01-4.4h-.758v-.66l.8-.05.104-1.43h.725v1.43h1.376v.7h-1.37v2.83c0 .47.18.73.18.73.18.25.62.25.62.25.14 0 .3-.05.3-.05.16-.04.29-.1.29-.1l.17.65c-.21.07-.45.13-.45.13-.25.06-.49.06-.49.06-.41 0-.68-.13-.68-.13-.28-.13-.45-.35-.45-.35-.17-.22-.24-.54-.24-.54-.07-.32-.07-.7-.07-.7v-2.82zm2.54 4.4zm.862-7.48h.86v2.04l-.03 1.05c.367-.35.767-.6.767-.6.4-.25.936-.25.936-.25.81 0 1.18.5 1.18.5.37.5.37 1.49.37 1.49V758h-.86v-3.12c0-.725-.23-1.045-.23-1.045-.23-.32-.74-.32-.74-.32-.4 0-.71.2-.71.2-.31.2-.7.587-.7.587V758h-.86v-7.48zm4.853 7.48zm.48-2.55c0-.63.19-1.13.19-1.13.19-.5.51-.85.51-.85.32-.35.73-.53.73-.53.41-.19.85-.19.85-.19.48 0 .86.16.86.16.38.17.64.48.64.48.26.31.39.76.39.76.14.44.14.99.14.99 0 .28-.03.47-.03.47h-3.45c.05.83.51 1.31.51 1.31.46.48 1.19.48 1.19.48.36 0 .67-.11.67-.11.31-.11.59-.29.59-.29l.3.57c-.34.21-.75.37-.75.37-.41.15-.94.15-.94.15-.51 0-.96-.19-.96-.19-.45-.18-.78-.52-.78-.52-.33-.34-.52-.84-.52-.84-.19-.49-.19-1.12-.19-1.12zm0 0zm3.57-.39c0-.79-.33-1.2-.33-1.2-.33-.42-.93-.42-.93-.42-.28 0-.52.11-.52.11-.25.11-.45.31-.45.31-.2.2-.33.5-.33.5-.14.3-.18.69-.18.69h2.73zm1.15 2.93zm.86-5.11h.71l.07.92h.03c.26-.49.63-.77.63-.77.37-.29.81-.29.81-.29.3 0 .54.1.54.1l-.17.76-.23-.07c-.11-.02-.26-.02-.26-.02-.33 0-.68.26-.68.26-.35.26-.62.91-.62.91v3.3h-.86v-5.11zm2.78 5.1zm.68-4.32c0-.31.18-.49.18-.49.18-.19.44-.19.44-.19.25 0 .43.18.43.18.18.18.18.49.18.49 0 .28-.19.46-.19.46-.19.18-.44.18-.44.18-.26 0-.45-.19-.45-.19-.19-.18-.19-.47-.19-.47zm0 0zm0 3.79c0-.31.18-.49.18-.49.18-.18.44-.18.44-.18.25 0 .43.18.43.18.18.18.18.49.18.49 0 .28-.19.46-.19.46-.19.18-.44.18-.44.18-.26 0-.45-.18-.45-.18-.19-.19-.19-.47-.19-.47zm4.05.52zm3.19-2.55v-1.94c0-.28.01-.65.01-.65.01-.38.03-.65.03-.65h-.05c-.13.24-.26.47-.26.47l-.29.47-1.57 2.29h2.1zm0 0zm1.73.69h-.92V758h-.82v-1.85h-3.01v-.566l2.86-4.286h.96v4.16h.91v.693zm.29 1.85zm.68-1.36c.29.31.7.54.7.54.4.23.99.23.99.23.3 0 .57-.11.57-.11.27-.11.47-.31.47-.31.2-.2.31-.49.31-.49.11-.29.11-.63.11-.63 0-.7-.39-1.09-.39-1.09-.39-.39-1.04-.39-1.04-.39-.35 0-.6.11-.6.11-.25.1-.55.3-.55.3l-.46-.29.22-3.23h3.35v.75h-2.59l-.17 1.99c.24-.13.48-.2.48-.2.24-.08.54-.08.54-.08.43 0 .81.12.81.12.38.13.66.39.66.39.29.26.45.65.45.65.17.39.17.94.17.94 0 .55-.19.97-.19.97-.19.42-.5.71-.5.71-.32.28-.72.44-.72.44-.41.15-.85.15-.85.15-.4 0-.73-.08-.73-.08-.33-.08-.6-.21-.6-.21-.26-.13-.48-.29-.48-.29-.22-.17-.38-.35-.38-.35z"/></svg>