<svg xmlns="http://www.w3.org/2000/svg" stroke="#000" viewBox="0 0 1024 768" font-size="1"><path fill="#FFF" stroke="none" d="M0 0v768h1024V0z"/><path stroke="none" d="M379.98 14.102zm1.186-10.04h2.264v3.864h3.465V4.06h2.28v10.042h-2.28v-4.19h-3.465v4.19h-2.264V4.062zm9.194 10.04zm.554-3.82c0-.955.308-1.7.308-1.7.308-.748.824-1.257.824-1.257.516-.508 1.194-.777 1.194-.777.677-.27 1.4-.27 1.4-.27.725 0 1.395.27 1.395.27.67.27 1.186.777 1.186.777.52.51.83 1.256.83 1.256.31.75.31 1.71.31 1.71 0 .96-.31 1.7-.31 1.7-.31.75-.82 1.26-.82 1.26-.51.51-1.18.78-1.18.78-.67.27-1.39.27-1.39.27-.72 0-1.4-.27-1.4-.27-.68-.27-1.19-.77-1.19-.77-.51-.51-.82-1.25-.82-1.25-.31-.74-.31-1.7-.31-1.7zm0 0zm2.326 0c0 1 .346 1.586.346 1.586.347.586 1.055.586 1.055.586.7 0 1.05-.586 1.05-.586.36-.585.36-1.586.36-1.586 0-1-.35-1.586-.35-1.586-.35-.585-1.04-.585-1.04-.585-.7 0-1.05.59-1.05.59-.34.59-.34 1.59-.34 1.59zm5.544 3.82zm.37-7.64h2.248l.74 3.543c.092.57.17 1.124.17 1.124.076.55.168 1.14.168 1.14h.062c.107-.59.207-1.16.207-1.16.1-.57.23-1.11.23-1.11l.84-3.54h1.95l.86 3.54c.14.57.24 1.12.24 1.12.1.55.23 1.14.23 1.14h.06c.11-.59.18-1.14.18-1.14.07-.56.17-1.13.17-1.13l.72-3.54h2.09l-1.84 7.64h-2.65l-.69-3.05c-.13-.54-.22-1.08-.22-1.08l-.2-1.16h-.06c-.11.61-.2 1.15-.2 1.15-.08.54-.19 1.08-.19 1.08l-.68 3.05H401zm14.784 7.64zm1-10.796h2.265v8.516c0 .355.13.493.13.493.132.14.27.14.27.14h.13l.147-.032.278 1.68c-.185.076-.47.13-.47.13-.285.053-.67.053-.67.053-.585 0-.986-.184-.986-.184-.4-.185-.64-.516-.64-.516-.237-.33-.345-.8-.345-.8-.108-.47-.108-1.056-.108-1.056V3.306zm3.404 10.796zm.555-3.82c0-.955.308-1.7.308-1.7.308-.748.824-1.257.824-1.257.51-.508 1.19-.777 1.19-.777.68-.27 1.4-.27 1.4-.27.72 0 1.39.27 1.39.27.67.27 1.18.777 1.18.777.51.51.82 1.256.82 1.256.31.75.31 1.71.31 1.71 0 .96-.31 1.7-.31 1.7-.31.75-.83 1.26-.83 1.26-.52.51-1.19.78-1.19.78-.67.27-1.4.27-1.4.27-.73 0-1.4-.27-1.4-.27-.68-.27-1.19-.77-1.19-.77-.52-.51-.83-1.25-.83-1.25-.31-.74-.31-1.7-.31-1.7zm0 0zm2.325 0c0 1 .347 1.586.347 1.586.34.586 1.05.586 1.05.586.69 0 1.04-.586 1.04-.586.35-.585.35-1.586.35-1.586 0-1-.36-1.586-.36-1.586-.35-.585-1.05-.585-1.05-.585-.71 0-1.06.59-1.06.59-.35.59-.35 1.59-.35 1.59zm5.668 3.82zm1-7.64h1.85l.153.97h.06c.494-.46 1.08-.807 1.08-.807.584-.347 1.37-.347 1.37-.347 1.247 0 1.81.816 1.81.816.56.817.56 2.264.56 2.264v4.744h-2.262v-4.45c0-.833-.22-1.14-.22-1.14-.22-.31-.71-.31-.71-.31-.43 0-.74.194-.74.194-.31.192-.68.547-.68.547v5.16h-2.26v-7.64zm7.81 7.64zm2.386.954c0 .432.462.655.462.655.462.23 1.232.23 1.232.23.77 0 1.263-.27 1.263-.27.492-.27.492-.67.492-.67 0-.35-.3-.47-.3-.47-.3-.12-.87-.12-.87-.12h-.785c-.4 0-.647-.02-.647-.02-.247-.02-.43-.07-.43-.07-.417.37-.417.76-.417.76zm0 0zm-1.864.355c0-.92 1.094-1.54 1.094-1.54v-.06c-.308-.2-.508-.51-.508-.51-.2-.3-.2-.78-.2-.78 0-.41.246-.79.246-.79.246-.37.616-.64.616-.64v-.06c-.4-.28-.716-.79-.716-.79-.316-.51-.316-1.19-.316-1.19 0-.69.262-1.21.262-1.21.262-.51.7-.86.7-.86.44-.35 1.01-.51 1.01-.51.57-.17 1.185-.17 1.185-.17.677 0 1.186.19 1.186.19h2.79v1.64h-1.21c.11.17.18.44.18.44.07.27.07.57.07.57 0 .67-.23 1.15-.23 1.15-.23.48-.64.8-.64.8-.41.31-.95.47-.95.47-.54.15-1.18.15-1.18.15-.44 0-.92-.15-.92-.15-.15.13-.21.25-.21.25-.06.12-.06.33-.06.33 0 .29.26.43.26.43.26.14.9.14.9.14h1.24c1.42 0 2.17.45 2.17.45.75.46.75 1.49.75 1.49 0 .6-.3 1.1-.3 1.1-.3.5-.85.86-.85.86-.55.36-1.34.57-1.34.57-.78.21-1.77.21-1.77.21-.68 0-1.25-.12-1.25-.12-.58-.11-1.02-.35-1.02-.35-.44-.23-.68-.6-.68-.6-.25-.37-.25-.87-.25-.87zm0 0zm3.373-5.09c.447 0 .747-.31.747-.31.3-.31.3-.96.3-.96 0-.6-.3-.91-.3-.91-.3-.31-.747-.31-.747-.31-.447 0-.747.31-.747.31-.3.31-.3.93-.3.93 0 .65.3.96.3.96.3.32.747.32.747.32zm7.53 3.79zm1.002-10.79h2.264v2.65l-.1 1.37c.43-.38 1-.71 1-.71.57-.33 1.36-.33 1.36-.33 1.25 0 1.81.82 1.81.82.56.82.56 2.27.56 2.27v4.75h-2.26V9.66c0-.834-.22-1.14-.22-1.14-.22-.31-.71-.31-.71-.31-.43 0-.74.193-.74.193-.3.19-.67.547-.67.547v5.16h-2.26V3.31zm7.792 10.8zm.72-2.12c0-1.2 1.01-1.88 1.01-1.88 1.01-.68 3.28-.91 3.28-.91-.03-.51-.31-.81-.31-.81-.28-.3-.89-.3-.89-.3-.5 0-.99.19-.99.19-.5.19-1.05.51-1.05.51l-.8-1.49c.74-.44 1.54-.72 1.54-.72.81-.28 1.72-.28 1.72-.28 1.48 0 2.25.84 2.25.84.78.84.78 2.61.78 2.61v4.37h-1.85l-.17-.78h-.05c-.49.43-1.04.7-1.04.7-.55.27-1.19.27-1.19.27-.53 0-.94-.18-.94-.18-.42-.18-.71-.49-.71-.49-.3-.31-.46-.73-.46-.73-.17-.41-.17-.9-.17-.9zm0 0zm2.15-.17c0 .37.24.55.24.55.24.18.64.18.64.18.4 0 .67-.17.67-.17.27-.17.58-.47.58-.47v-1.34c-1.22.17-1.68.49-1.68.49-.46.33-.46.77-.46.77zm5.34 2.3zm.18-7.64h2.28l.98 3.61c.15.57.3 1.16.3 1.16l.3 1.19h.06l.28-1.19c.14-.59.3-1.16.3-1.16l1-3.6H472l-2.492 7.64h-2.61zm7.74 7.64zm.55-3.82c0-.92.3-1.67.3-1.67.3-.74.8-1.26.8-1.26.5-.51 1.15-.79 1.15-.79.64-.27 1.34-.27 1.34-.27.81 0 1.42.28 1.42.28.61.28 1.01.77 1.01.77.4.49.61 1.16.61 1.16.2.67.2 1.46.2 1.46 0 .31-.04.57-.04.57-.03.26-.06.4-.06.4h-4.57c.15.88.68 1.27.68 1.27.53.39 1.3.39 1.3.39.81 0 1.65-.5 1.65-.5l.75 1.37c-.59.4-1.3.63-1.3.63-.72.23-1.41.23-1.41.23-.82 0-1.53-.26-1.53-.26-.71-.27-1.23-.79-1.23-.79-.53-.51-.82-1.25-.82-1.25-.29-.74-.29-1.69-.29-1.69zm0 0zm4.92-.78c0-.66-.3-1.08-.3-1.08-.29-.42-.99-.42-.99-.42-.54 0-.95.36-.95.36-.41.37-.54 1.14-.54 1.14h2.76zm5.69 4.6zm1.17 1.11l.25.07c.14.03.26.03.26.03.57 0 .88-.28.88-.28.3-.28.46-.72.46-.72l.1-.4-2.94-7.44h2.28l1.09 3.28c.17.53.31 1.07.31 1.07.14.54.29 1.11.29 1.11h.06c.12-.54.25-1.09.25-1.09.13-.55.27-1.08.27-1.08l.92-3.28h2.17l-2.65 7.72c-.28.73-.58 1.27-.58 1.27-.3.55-.7.91-.7.91-.39.36-.9.55-.9.55-.5.19-1.18.19-1.18.19-.36 0-.6-.04-.6-.04-.25-.04-.48-.12-.48-.12l.4-1.72zm6.73-1.1zm.55-3.82c0-.95.31-1.7.31-1.7.31-.75.82-1.26.82-1.26.51-.5 1.19-.77 1.19-.77.68-.27 1.4-.27 1.4-.27.72 0 1.39.27 1.39.27.67.27 1.19.78 1.19.78.52.51.82 1.26.82 1.26.31.75.31 1.7.31 1.7 0 .96-.31 1.7-.31 1.7-.31.75-.83 1.26-.83 1.26-.52.51-1.19.78-1.19.78-.67.27-1.4.27-1.4.27-.72 0-1.4-.27-1.4-.27-.67-.27-1.19-.77-1.19-.77-.52-.51-.83-1.25-.83-1.25-.31-.74-.31-1.7-.31-1.7zm0 0zm2.32 0c0 1 .35 1.59.35 1.59.34.59 1.05.59 1.05.59.69 0 1.05-.58 1.05-.58.35-.58.35-1.58.35-1.58 0-1-.36-1.59-.36-1.59-.35-.58-1.04-.58-1.04-.58-.71 0-1.05.59-1.05.59-.35.59-.35 1.59-.35 1.59zm5.67 3.82zm.92-7.64h2.26v4.45c0 .83.23 1.14.23 1.14.23.31.72.31.72.31.43 0 .72-.2.72-.2.29-.2.63-.65.63-.65V6.47h2.26v7.63h-1.85l-.17-1.063h-.05c-.5.584-1.06.915-1.06.915-.56.33-1.35.33-1.35.33-1.25 0-1.81-.815-1.81-.815-.56-.816-.56-2.264-.56-2.264v-4.74zm11.02 7.64zm1-10.8h2.26v2.65l-.06 1.17c.44-.4.96-.62.96-.62.52-.22 1.05-.22 1.05-.22.69 0 1.25.28 1.25.28.55.28.94.78.94.78.39.5.6 1.22.6 1.22.21.72.21 1.59.21 1.59 0 .99-.27 1.76-.27 1.76-.27.77-.73 1.3-.73 1.3-.45.53-1.03.81-1.03.81-.58.27-1.19.27-1.19.27-.51 0-1.03-.24-1.03-.24-.52-.25-.97-.74-.97-.74h-.06l-.18.8h-1.77V3.31zm0 0zm2.26 8.64c.31.28.61.38.61.38.31.11.6.11.6.11.59 0 1-.53 1-.53.41-.53.41-1.71.41-1.71 0-2.06-1.33-2.06-1.33-2.06-.68 0-1.31.69-1.31.69v3.13zm5.56 2.16zm.57-3.83c0-.92.3-1.67.3-1.67.31-.75.81-1.26.81-1.26.5-.52 1.14-.79 1.14-.79.64-.27 1.34-.27 1.34-.27.81 0 1.42.28 1.42.28.61.28 1.01.77 1.01.77.41.49.61 1.16.61 1.16.2.67.2 1.46.2 1.46 0 .31-.03.57-.03.57-.03.25-.06.39-.06.39h-4.57c.15.88.68 1.27.68 1.27.53.39 1.3.39 1.3.39.81 0 1.64-.5 1.64-.5l.75 1.37c-.59.4-1.3.63-1.3.63-.72.23-1.41.23-1.41.23-.82 0-1.53-.27-1.53-.27-.71-.27-1.24-.78-1.24-.78-.52-.51-.82-1.25-.82-1.25-.29-.74-.29-1.7-.29-1.7zm0 0zm4.92-.78c0-.66-.29-1.08-.29-1.08-.29-.42-.99-.42-.99-.42-.54 0-.95.37-.95.37-.41.36-.53 1.13-.53 1.13h2.75zm2.49 4.61zm.55-3.82c0-.92.3-1.67.3-1.67.31-.75.81-1.26.81-1.26.5-.52 1.15-.79 1.15-.79.64-.28 1.34-.28 1.34-.28.81 0 1.42.27 1.42.27.6.28 1.01.77 1.01.77.41.49.61 1.16.61 1.16.2.67.2 1.46.2 1.46 0 .31-.03.57-.03.57-.03.25-.07.39-.07.39h-4.57c.15.88.68 1.27.68 1.27.53.39 1.3.39 1.3.39.81 0 1.65-.5 1.65-.5l.75 1.37c-.59.4-1.3.64-1.3.64-.72.23-1.41.23-1.41.23-.82 0-1.53-.27-1.53-.27-.71-.27-1.23-.79-1.23-.79-.53-.51-.82-1.25-.82-1.25-.3-.74-.3-1.69-.3-1.69zm0 0zm4.92-.78c0-.66-.3-1.08-.3-1.08-.29-.41-.99-.41-.99-.41-.54 0-.95.37-.95.37-.41.36-.54 1.13-.54 1.13h2.76zm2.49 4.61zm1-7.64h1.85l.15.97h.06c.49-.46 1.08-.8 1.08-.8.58-.35 1.37-.35 1.37-.35 1.24 0 1.81.82 1.81.82.56.82.56 2.27.56 2.27v4.74H542v-4.5c0-.83-.22-1.14-.22-1.14-.22-.31-.714-.31-.714-.31-.43 0-.74.2-.74.2-.3.19-.67.55-.67.55v5.16h-2.26V6.46zm11.01 7.64zm.92-7.64h2.26v4.46c0 .83.23 1.14.23 1.14.23.31.72.31.72.31.43 0 .72-.2.72-.2.29-.2.63-.64.63-.64v-5.1h2.26v7.63h-1.85l-.17-1.06h-.05c-.49.59-1.06.92-1.06.92-.56.33-1.34.33-1.34.33-1.25 0-1.81-.81-1.81-.81-.56-.81-.56-2.26-.56-2.26V6.47zm7.82 7.64zm1.34-2.29c.52.4 1 .6 1 .6.48.2.97.2.97.2.51 0 .74-.17.74-.17.23-.17.23-.47.23-.47 0-.19-.13-.33-.13-.33-.13-.15-.36-.27-.36-.27-.22-.13-.5-.23-.5-.23-.28-.1-.57-.22-.57-.22-.35-.14-.71-.32-.71-.32-.35-.18-.64-.45-.64-.45-.3-.27-.48-.63-.48-.63-.19-.36-.19-.84-.19-.84 0-.52.21-.97.21-.97.21-.45.59-.75.59-.75.39-.31.93-.48.93-.48.54-.18 1.2-.18 1.2-.18.88 0 1.54.3 1.54.3.66.3 1.15.67 1.15.67l-1.01 1.37c-.41-.31-.81-.48-.81-.48-.4-.17-.8-.17-.8-.17-.87 0-.87.6-.87.6 0 .18.13.31.13.31.13.13.33.24.33.24.21.11.48.21.48.21l.57.21c.37.14.73.32.73.32.36.18.66.44.66.44.3.26.482.64.482.64.19.38.19.9.19.9 0 .53-.2.97-.2.97-.2.45-.6.78-.6.78-.4.33-.986.52-.986.52-.588.19-1.358.19-1.358.19-.75 0-1.55-.29-1.55-.29-.79-.29-1.38-.77-1.38-.77zm5.48 2.29zm2.13-8.76c-.57 0-.94-.33-.94-.33-.37-.33-.37-.85-.37-.85 0-.52.37-.85.37-.85.37-.32.94-.32.94-.32.58 0 .94.32.94.32.37.33.37.85.37.85 0 .53-.36.86-.36.86-.36.33-.94.33-.94.33zm0 0zm-1.1 1.11h2.26v7.64H565V6.46zm3.25 7.64zm1-7.64h1.84l.16.97h.06c.5-.46 1.08-.81 1.08-.81.59-.35 1.37-.35 1.37-.35 1.25 0 1.81.82 1.81.82.57.82.57 2.27.57 2.27v4.74h-2.27V9.65c0-.833-.23-1.14-.23-1.14-.23-.31-.72-.31-.72-.31-.43 0-.74.194-.74.194-.31.194-.68.55-.68.55v5.16h-2.27V6.46zm7.8 7.64zm2.39.96c0 .43.46.66.46.66.46.23 1.23.23 1.23.23.77 0 1.26-.27 1.26-.27.5-.27.5-.67.5-.67 0-.35-.3-.47-.3-.47-.3-.13-.87-.13-.87-.13h-.79c-.4 0-.65-.02-.65-.02-.25-.02-.43-.07-.43-.07-.42.37-.42.76-.42.76zm0 0zm-1.86.36c0-.92 1.09-1.54 1.09-1.54v-.06c-.31-.2-.51-.51-.51-.51-.2-.3-.2-.78-.2-.78 0-.41.25-.79.25-.79.24-.38.61-.64.61-.64v-.06c-.4-.28-.72-.79-.72-.79-.31-.52-.31-1.19-.31-1.19 0-.7.26-1.21.26-1.21.26-.52.7-.86.7-.86.44-.35 1.01-.52 1.01-.52.57-.17 1.19-.17 1.19-.17.68 0 1.19.18 1.19.18h2.79v1.65h-1.22c.11.17.18.43.18.43.07.26.07.57.07.57 0 .66-.23 1.14-.23 1.14-.23.48-.64.8-.64.8-.41.32-.95.47-.95.47-.55.15-1.18.15-1.18.15-.45 0-.92-.15-.92-.15-.15.13-.21.25-.21.25-.06.12-.06.33-.06.33 0 .29.25.43.25.43.25.14.9.14.9.14h1.23c1.42 0 2.166.46 2.166.46.75.45.75 1.48.75 1.48 0 .6-.3 1.1-.3 1.1-.3.5-.85.86-.85.86-.555.36-1.34.57-1.34.57-.786.21-1.77.21-1.77.21-.68 0-1.257-.11-1.257-.11-.58-.112-1.02-.35-1.02-.35-.44-.23-.68-.6-.68-.6-.246-.37-.246-.87-.246-.87zm0 0zm3.37-5.09c.45 0 .75-.31.75-.31.3-.31.3-.96.3-.96 0-.6-.3-.92-.3-.92-.3-.31-.75-.31-.75-.31-.45 0-.75.31-.75.31-.3.31-.3.93-.3.93 0 .65.3.96.3.96.3.32.74.32.74.32zm7.53 3.79zm1.19-10.04h2.26v3.87h3.46v-3.9h2.28v10.04h-2.28v-4.2h-3.46v4.19h-2.26V4.07zm9.19 10.04zm.72-2.13c0-1.2 1.02-1.88 1.02-1.88 1.02-.67 3.28-.9 3.28-.9-.03-.51-.31-.81-.31-.81-.28-.3-.89-.3-.89-.3-.49 0-.99.18-.99.18-.49.18-1.04.5-1.04.5l-.8-1.5c.74-.44 1.55-.72 1.55-.72.81-.28 1.72-.28 1.72-.28 1.48 0 2.25.84 2.25.84.78.84.78 2.61.78 2.61v4.37h-1.84l-.17-.78h-.04c-.49.43-1.04.7-1.04.7-.55.27-1.19.27-1.19.27-.53 0-.94-.18-.94-.18-.42-.18-.71-.49-.71-.49-.29-.31-.46-.73-.46-.73-.16-.41-.16-.91-.16-.91zm0 0zm2.153-.17c0 .37.24.55.24.55.24.18.64.18.64.18.4 0 .68-.17.68-.17.28-.16.59-.47.59-.47V10.6c-1.21.17-1.68.49-1.68.49-.46.32-.46.77-.46.77zm5.34 2.3zm1.34-2.29c.53.4 1 .6 1 .6.48.2.97.2.97.2.51 0 .74-.17.74-.17.23-.17.23-.47.23-.47 0-.18-.13-.33-.13-.33-.13-.14-.35-.27-.35-.27-.22-.12-.5-.22-.5-.22-.274-.1-.57-.22-.57-.22-.35-.14-.705-.33-.705-.33-.36-.18-.65-.45-.65-.45-.29-.27-.47-.63-.47-.63-.18-.36-.18-.84-.18-.84 0-.53.21-.97.21-.97.2-.45.59-.76.59-.76.38-.3.92-.48.92-.48.54-.18 1.2-.18 1.2-.18.88 0 1.54.3 1.54.3.66.3 1.15.67 1.15.67l-1.02 1.36c-.42-.31-.82-.48-.82-.48-.4-.17-.8-.17-.8-.17-.86 0-.86.6-.86.6 0 .19.12.32.12.32.13.13.33.24.33.24.21.1.48.2.48.2l.56.21c.37.14.732.31.732.31.36.18.66.44.66.44.3.26.49.64.49.64.18.38.18.9.18.9 0 .53-.2.97-.2.97-.2.45-.6.78-.6.78-.4.33-.99.53-.99.53-.58.19-1.35.19-1.35.19-.76 0-1.55-.29-1.55-.29-.8-.29-1.38-.77-1.38-.77zm5.49 2.3zm1-10.8h2.2V9.5h.062l2.41-3.033H622l-2.68 3.142 2.88 4.49h-2.45l-1.72-2.98-.97 1.09v1.88h-2.2V3.3zm7.002 10.79zm.55-3.82c0-.92.31-1.67.31-1.67.31-.75.81-1.26.81-1.26.5-.52 1.15-.79 1.15-.79.64-.28 1.34-.28 1.34-.28.81 0 1.42.27 1.42.27.61.27 1.02.77 1.02.77.41.49.61 1.16.61 1.16.2.67.2 1.45.2 1.45 0 .31-.03.57-.03.57-.03.26-.06.4-.06.4H624.6c.15.87.68 1.27.68 1.27.53.39 1.3.39 1.3.39.812 0 1.65-.51 1.65-.51l.75 1.37c-.587.4-1.3.63-1.3.63-.72.23-1.41.23-1.41.23-.82 0-1.527-.27-1.527-.27-.71-.27-1.23-.79-1.23-.79-.53-.51-.82-1.25-.82-1.25-.29-.74-.29-1.7-.29-1.7zm0 0zm4.93-.78c0-.665-.29-1.08-.29-1.08-.29-.42-.98-.42-.98-.42-.54 0-.95.36-.95.36-.41.36-.53 1.13-.53 1.13h2.76zm2.5 4.6zm1-10.79h2.263v8.516c0 .35.13.49.13.49.13.14.27.14.27.14h.13l.145-.03.28 1.68c-.19.07-.47.13-.47.13-.29.05-.67.05-.67.05-.59 0-.99-.19-.99-.19-.4-.184-.64-.515-.64-.515-.24-.33-.34-.8-.34-.8-.11-.47-.11-1.05-.11-1.05V3.31zm3.403 10.796zm1-10.8h2.263v8.51c0 .355.13.49.13.49.13.14.27.14.27.14h.13l.14-.03.28 1.68c-.184.07-.47.13-.47.13-.284.05-.67.05-.67.05-.584 0-.985-.19-.985-.19-.4-.183-.64-.514-.64-.514-.24-.33-.35-.8-.35-.8-.11-.47-.11-1.06-.11-1.06V3.31zm3.4 10.79zm2.37-3.56c-.08-.523.035-.954.035-.954.12-.43.33-.8.33-.8.21-.37.48-.68.48-.68l.52-.59c.246-.29.41-.56.41-.56.16-.27.16-.56.16-.56 0-.48-.286-.73-.286-.73-.29-.24-.75-.24-.75-.24-.43 0-.768.2-.768.2-.33.2-.64.51-.64.51L639.35 5c.52-.63 1.23-1.016 1.23-1.016.71-.385 1.57-.385 1.57-.385.65 0 1.21.15 1.21.15.56.15.97.47.97.47.41.32.64.82.64.82.23.5.23 1.18.23 1.18 0 .47-.17.85-.17.85-.17.37-.42.7-.42.7-.26.32-.54.62-.54.62-.29.3-.526.62-.526.62-.24.32-.37.68-.37.68-.14.36-.1.82-.1.82h-1.98zm0 0zm-.37 2.327c0-.61.38-1.02.38-1.02.39-.41.97-.41.97-.41.59 0 .98.41.98.41.4.41.4 1.02.4 1.02 0 .6-.398 1.01-.398 1.01-.39.41-.97.41-.97.41-.59 0-.97-.41-.97-.41-.39-.402-.39-1.002-.39-1.002z"/><path fill="none" stroke="#D3D3D3" stroke-miterlimit="10" d="M39.59 738h947.83M39.59 562.25h947.83M39.59 386.5h947.83M39.59 210.75h947.83M39.59 35h947.83" stroke-dasharray="5 5"/><g fill="#5C3566" stroke-opacity="0" stroke-width="0" stroke-miterlimit="10" stroke-linejoin="bevel"><defs><clipPath id="a"><path d="M39.59 35v703h947.83V35z"/></clipPath></defs><g clip-path="url(#a)"><path stroke="none" d="M54.59 738v-2.812h159.566V738z"/></g></g><g fill-opacity="0" stroke-miterlimit="10"><defs><clipPath id="b"><path d="M39.59 35v703h947.83V35z"/></clipPath></defs><g clip-path="url(#b)"><path fill="none" d="M54.59 738v-2.812h159.566V738z"/></g></g><g fill="#5C3566" stroke-opacity="0" stroke-width="0" stroke-miterlimit="10" stroke-linejoin="bevel"><defs><clipPath id="c"><path d="M39.59 35v703h947.83V35z"/></clipPath></defs><g clip-path="url(#c)"><path stroke="none" d="M244.156 738v-6.327h159.566V738z"/></g></g><g fill-opacity="0" stroke-miterlimit="10"><defs><clipPath id="d"><path d="M39.59 35v703h947.83V35z"/></clipPath></defs><g clip-path="url(#d)"><path fill="none" d="M244.156 738v-6.327h159.566V738z"/></g></g><g fill="#5C3566" stroke-opacity="0" stroke-width="0" stroke-miterlimit="10" stroke-linejoin="bevel"><defs><clipPath id="e"><path d="M39.59 35v703h947.83V35z"/></clipPath></defs><g clip-path="url(#e)"><path stroke="none" d="M433.722 738v-31.635h159.566V738z"/></g></g><g fill-opacity="0" stroke-miterlimit="10"><defs><clipPath id="f"><path d="M39.59 35v703h947.83V35z"/></clipPath></defs><g clip-path="url(#f)"><path fill="none" d="M433.722 738v-31.635h159.566V738z"/></g></g><g fill="#5C3566" stroke-opacity="0" stroke-width="0" stroke-miterlimit="10" stroke-linejoin="bevel"><defs><clipPath id="g"><path d="M39.59 35v703h947.83V35z"/></clipPath></defs><g clip-path="url(#g)"><path stroke="none" d="M623.288 738V588.26h159.565V738z"/></g></g><g fill-opacity="0" stroke-miterlimit="10"><defs><clipPath id="h"><path d="M39.59 35v703h947.83V35z"/></clipPath></defs><g clip-path="url(#h)"><path fill="none" d="M623.288 738V588.26h159.565V738z"/></g></g><g fill="#5C3566" stroke-opacity="0" stroke-width="0" stroke-miterlimit="10" stroke-linejoin="bevel"><defs><clipPath id="i"><path d="M39.59 35v703h947.83V35z"/></clipPath></defs><g clip-path="url(#i)"><path stroke="none" d="M812.853 738V70.853H972.42V738z"/></g></g><g fill-opacity="0" stroke-miterlimit="10"><defs><clipPath id="j"><path d="M39.59 35v703h947.83V35z"/></clipPath></defs><g clip-path="url(#j)"><path fill="none" d="M812.853 738V70.853H972.42V738z"/></g></g><path fill="none" stroke-miterlimit="10" d="M39.59 738V35" stroke-linecap="square"/><path fill="none" stroke-miterlimit="10" d="M39.59 738h2m-2-70.3h2m-2-70.3h2m-2-70.3h2m-2-70.3h2m-2-70.3h2m-2-70.3h2m-2-70.3h2m-2-70.3h2m-2-70.3h2m-2-70.3h2m-2 703h5m-5-175.75h5m-5-175.75h5m-5-175.75h5M39.59 35h5"/><path stroke="none" d="M25.294 741.445zm2.616.126c-1.02 0-1.586-.9-1.586-.9-.568-.9-.568-2.59-.568-2.59 0-1.69.568-2.57.568-2.57.567-.88 1.586-.88 1.586-.88 1.008 0 1.575.88 1.575.88.568.89.568 2.58.568 2.58 0 1.69-.568 2.6-.568 2.6-.567.91-1.575.91-1.575.91zm0 0zm0-.69c.294 0 .53-.16.53-.16.236-.16.41-.5.41-.5.173-.34.268-.87.268-.87.094-.53.094-1.26.094-1.26 0-.73-.094-1.26-.094-1.26-.095-.52-.268-.85-.268-.85-.173-.33-.41-.49-.41-.49-.236-.16-.53-.16-.53-.16-.294 0-.536.16-.536.16-.242.16-.415.49-.415.49-.18.33-.27.86-.27.86-.1.53-.1 1.26-.1 1.26 0 1.47.36 2.14.36 2.14.36.67.95.67.95.67zM14.77 565.7zm.42-.514c.755-.754 1.344-1.363 1.344-1.363.588-.61.987-1.13.987-1.13.4-.52.61-.955.61-.955.21-.434.21-.844.21-.844 0-.576-.31-.944-.31-.944-.31-.37-.95-.37-.95-.37-.42 0-.77.24-.77.24-.35.235-.65.57-.65.57l-.49-.492c.42-.462.9-.74.9-.74.48-.28 1.14-.28 1.14-.28.94 0 1.47.543 1.47.543.54.54.54 1.44.54 1.44 0 .47-.2.95-.2.95-.2.48-.57.99-.57.99-.36.51-.86 1.06-.86 1.06-.5.56-1.09 1.18-1.09 1.18l.57-.04c.3-.02.56-.02.56-.02h1.95v.75H15.2v-.51zm4.8.517zm.682-1.355c.294.307.7.538.7.538.403.23.99.23.99.23.306 0 .574-.11.574-.11.268-.11.467-.31.467-.31.2-.2.315-.482.315-.482.116-.283.116-.63.116-.63 0-.693-.39-1.082-.39-1.082-.387-.387-1.04-.387-1.04-.387-.345 0-.592.106-.592.106-.247.11-.552.31-.552.31l-.462-.29.22-3.22h3.352v.75h-2.595l-.18 1.99c.243-.12.485-.2.485-.2.24-.07.546-.07.546-.07.43 0 .81.13.81.13.377.13.66.39.66.39.284.26.447.65.447.65.163.4.163.94.163.94 0 .55-.19.97-.19.97-.19.42-.504.71-.504.71-.315.29-.72.44-.72.44-.404.15-.845.15-.845.15-.4 0-.73-.08-.73-.08-.33-.08-.598-.2-.598-.2-.27-.12-.49-.29-.49-.29-.22-.16-.39-.34-.39-.34zm4.538 1.357zm2.616.127c-1.02 0-1.586-.903-1.586-.903-.568-.91-.568-2.6-.568-2.6 0-1.69.567-2.58.567-2.58.56-.88 1.58-.88 1.58-.88 1.01 0 1.57.88 1.57.88.56.88.56 2.57.56 2.57 0 1.69-.57 2.59-.57 2.59-.57.9-1.58.9-1.58.9zm0 0zm0-.693c.294 0 .53-.17.53-.17.236-.16.41-.51.41-.51.173-.34.268-.87.268-.87.094-.53.094-1.27.094-1.27 0-.74-.094-1.26-.094-1.26-.095-.53-.268-.86-.268-.86-.173-.33-.41-.49-.41-.49-.236-.16-.53-.16-.53-.16-.294 0-.536.16-.536.16-.242.15-.415.48-.415.48-.173.33-.268.85-.268.85-.094.52-.094 1.26-.094 1.26 0 1.47.362 2.13.362 2.13.362.67.95.67.95.67zM14.653 389.95zm.683-1.355c.294.308.7.54.7.54.403.23.99.23.99.23.306 0 .574-.11.574-.11.268-.11.467-.31.467-.31.2-.2.315-.483.315-.483.116-.284.116-.63.116-.63 0-.694-.39-1.082-.39-1.082-.388-.39-1.04-.39-1.04-.39-.345 0-.592.106-.592.106-.247.105-.552.304-.552.304l-.462-.294.22-3.226h3.35v.745H16.44l-.18 1.98c.242-.126.483-.2.483-.2.242-.072.547-.072.547-.072.43 0 .808.127.808.127.38.126.662.383.662.383.284.257.447.65.447.65.162.395.162.94.162.94 0 .548-.19.968-.19.968-.19.42-.51.71-.51.71-.32.29-.72.44-.72.44-.41.16-.85.16-.85.16-.4 0-.73-.08-.73-.08-.33-.08-.6-.2-.6-.2-.27-.12-.48-.29-.48-.29-.22-.16-.39-.34-.39-.34zm4.538 1.358zm2.616.127c-1.02 0-1.587-.9-1.587-.9-.567-.903-.567-2.595-.567-2.595 0-1.69.567-2.574.567-2.574.568-.88 1.586-.88 1.586-.88 1 0 1.57.88 1.57.88.56.89.56 2.58.56 2.58 0 1.69-.57 2.6-.57 2.6-.57.91-1.58.91-1.58.91zm0 0zm0-.69c.294 0 .53-.163.53-.163.236-.162.41-.504.41-.504.173-.34.268-.87.268-.87.094-.53.094-1.266.094-1.266 0-.738-.094-1.26-.094-1.26-.095-.528-.268-.86-.268-.86-.174-.33-.41-.49-.41-.49-.236-.16-.53-.16-.53-.16-.295 0-.536.16-.536.16-.242.158-.415.49-.415.49-.18.33-.27.855-.27.855-.1.524-.1 1.26-.1 1.26 0 1.47.36 2.137.36 2.137.36.66.95.66.95.66zm2.605.567zm2.615.126c-1.02 0-1.586-.902-1.586-.902-.567-.9-.567-2.59-.567-2.59 0-1.69.567-2.57.567-2.57.567-.88 1.586-.88 1.586-.88 1.01 0 1.576.89 1.576.89.567.88.567 2.58.567 2.58 0 1.69-.567 2.6-.567 2.6-.567.91-1.576.91-1.576.91zm0 0zm0-.692c.294 0 .53-.16.53-.16.237-.16.41-.5.41-.5.174-.34.268-.87.268-.87.095-.53.095-1.26.095-1.26 0-.73-.095-1.26-.095-1.26-.094-.52-.268-.85-.268-.85-.173-.33-.41-.48-.41-.48-.236-.16-.53-.16-.53-.16-.294 0-.536.16-.536.16-.24.16-.414.49-.414.49-.174.33-.268.86-.268.86-.095.53-.095 1.26-.095 1.26 0 1.47.363 2.14.363 2.14.362.67.95.67.95.67zM14.853 214.2zm1.86 0c.04-.945.167-1.733.167-1.733.126-.788.352-1.497.352-1.497.226-.71.578-1.37.578-1.37.352-.662.846-1.355.846-1.355h-3.34v-.74h4.316v.534c-.598.75-.97 1.45-.97 1.45-.374.69-.595 1.41-.595 1.41-.22.72-.32 1.52-.32 1.52-.1.8-.142 1.78-.142 1.78h-.893zm3.36 0zm.683-1.355c.294.31.7.54.7.54.403.23.99.23.99.23.306 0 .574-.11.574-.11.268-.11.467-.31.467-.31.2-.2.315-.48.315-.48.116-.285.116-.63.116-.63 0-.695-.39-1.084-.39-1.084-.387-.38-1.04-.38-1.04-.38-.345 0-.592.11-.592.11-.247.11-.552.31-.552.31l-.462-.29.22-3.22h3.352v.74H21.86l-.18 1.99c.242-.12.484-.2.484-.2.24-.07.546-.07.546-.07.43 0 .81.13.81.13.377.13.66.38.66.38.284.26.447.66.447.66.163.39.163.94.163.94 0 .55-.19.97-.19.97-.19.42-.504.71-.504.71-.315.29-.72.44-.72.44-.404.16-.845.16-.845.16-.39 0-.73-.07-.73-.07-.33-.08-.59-.2-.59-.2-.27-.13-.48-.29-.48-.29-.21-.16-.38-.34-.38-.34zm4.538 1.36zm2.616.126c-1.02 0-1.586-.9-1.586-.9-.568-.9-.568-2.59-.568-2.59 0-1.69.568-2.57.568-2.57.567-.88 1.586-.88 1.586-.88 1.008 0 1.575.88 1.575.88.568.89.568 2.58.568 2.58 0 1.69-.568 2.6-.568 2.6-.567.91-1.575.91-1.575.91zm0 0zm0-.69c.294 0 .53-.16.53-.16.236-.16.41-.5.41-.5.173-.34.268-.87.268-.87.094-.53.094-1.26.094-1.26 0-.74-.094-1.26-.094-1.26-.095-.53-.268-.86-.268-.86-.173-.33-.41-.49-.41-.49-.236-.16-.53-.16-.53-.16-.294 0-.536.16-.536.16-.242.16-.415.49-.415.49-.18.33-.27.86-.27.86-.1.53-.1 1.26-.1 1.26 0 1.47.36 2.14.36 2.14.36.67.95.67.95.67zM10 38.45zm.83-.715h1.533V32.8h-1.218v-.557c.462-.084.804-.204.804-.204.34-.12.61-.29.61-.29h.66v5.98h1.38v.71h-3.78v-.72zm4.39.72zm2.616.13c-1.02 0-1.586-.902-1.586-.902-.567-.9-.567-2.593-.567-2.593 0-1.69.567-2.573.567-2.573.567-.882 1.586-.882 1.586-.882 1.01 0 1.576.884 1.576.884.567.88.567 2.57.567 2.57 0 1.69-.57 2.59-.57 2.59-.57.9-1.58.9-1.58.9zm0 0zm0-.692c.294 0 .53-.16.53-.16.237-.16.41-.504.41-.504.174-.34.268-.87.268-.87.095-.53.095-1.27.095-1.27 0-.74-.1-1.26-.1-1.26-.1-.53-.27-.86-.27-.86-.18-.33-.41-.49-.41-.49-.24-.16-.53-.16-.53-.16-.3 0-.54.16-.54.16-.24.15-.42.48-.42.48-.18.33-.27.85-.27.85-.1.53-.1 1.26-.1 1.26 0 1.47.36 2.14.36 2.14.36.67.95.67.95.67zm2.605.57zm2.62.126c-1.02 0-1.58-.91-1.58-.91-.56-.9-.56-2.59-.56-2.59 0-1.69.57-2.57.57-2.57.57-.88 1.59-.88 1.59-.88 1.01 0 1.58.88 1.58.88.57.88.57 2.57.57 2.57 0 1.69-.56 2.59-.56 2.59-.57.9-1.58.9-1.58.9zm0 0zm0-.7c.3 0 .53-.16.53-.16.24-.16.41-.51.41-.51.18-.34.27-.87.27-.87.1-.53.1-1.27.1-1.27 0-.74-.09-1.26-.09-1.26-.09-.53-.27-.86-.27-.86-.17-.33-.41-.49-.41-.49-.23-.16-.53-.16-.53-.16-.29 0-.53.16-.53.16-.24.15-.41.48-.41.48-.17.33-.27.85-.27.85-.09.52-.09 1.26-.09 1.26 0 1.47.36 2.14.36 2.14.36.66.95.66.95.66zm2.61.57zm2.62.12c-1.02 0-1.58-.91-1.58-.91-.56-.91-.56-2.6-.56-2.6 0-1.69.57-2.58.57-2.58.57-.89 1.59-.89 1.59-.89 1.01 0 1.58.88 1.58.88.57.88.57 2.57.57 2.57 0 1.69-.57 2.59-.57 2.59-.56.9-1.57.9-1.57.9zm0 0zm0-.7c.3 0 .53-.17.53-.17.24-.16.41-.5.41-.5.18-.34.27-.87.27-.87.1-.53.1-1.27.1-1.27 0-.74-.09-1.26-.09-1.26-.09-.53-.26-.86-.26-.86-.17-.33-.41-.49-.41-.49-.23-.16-.53-.16-.53-.16-.29 0-.53.16-.53.16-.24.15-.41.48-.41.48-.17.33-.27.86-.27.86-.1.53-.1 1.26-.1 1.26 0 1.47.36 2.14.36 2.14.36.67.95.67.95.67z"/><path fill="none" stroke-miterlimit="10" d="M39.59 738h947.83" stroke-linecap="square"/><path stroke="none" d="M114.32 758zm.358-3.834l4.506-1.765v.75l-2.216.82-1.408.53v.04l1.408.53 2.216.82v.75l-4.506-1.76v-.69zm6.985 3.834zm.83-.714h1.534v-4.937h-1.22v-.56c.463-.09.805-.21.805-.21.34-.12.614-.29.614-.29h.662v5.99h1.387v.72h-3.782v-.72zm6.513.714zm.493-2.542c0-.62.18-1.12.18-1.12.18-.498.49-.844.49-.844.3-.347.7-.536.7-.536.4-.19.84-.19.84-.19.44 0 .76.158.76.158.32.158.66.43.66.43l-.05-.87v-1.965h.87V758h-.72l-.08-.6h-.03c-.31.295-.7.51-.7.51-.4.216-.85.216-.85.216-.97 0-1.54-.693-1.54-.693-.58-.693-.58-1.975-.58-1.975zm0 0zm.89-.01c0 .924.37 1.44.37 1.44.36.513 1.04.513 1.04.513.35 0 .67-.17.67-.17.31-.17.63-.53.63-.53v-2.67c-.33-.29-.63-.41-.63-.41-.3-.12-.62-.12-.62-.12-.31 0-.58.14-.58.14-.27.15-.47.4-.47.4-.2.26-.32.62-.32.62-.12.36-.12.8-.12.8zm4.44 2.552zm.61-1.323c0-.84.75-1.287.75-1.287.75-.447 2.39-.625 2.39-.625 0-.242-.05-.473-.05-.473-.05-.23-.17-.41-.17-.41-.12-.178-.32-.29-.32-.29-.2-.11-.52-.11-.52-.11-.45 0-.84.17-.84.17-.39.167-.69.377-.69.377l-.35-.6c.35-.23.87-.45.87-.45.51-.22 1.13-.22 1.13-.22.93 0 1.36.57 1.36.57.42.57.42 1.53.42 1.53V758h-.72l-.08-.61h-.02c-.37.306-.8.52-.8.52-.43.216-.9.216-.9.216-.65 0-1.08-.378-1.08-.378-.43-.378-.43-1.07-.43-1.07zm0 0zm.85-.064c0 .442.25.63.25.63.26.19.63.19.63.19.37 0 .7-.173.7-.173.33-.174.69-.51.69-.51v-1.418c-.64.084-1.08.2-1.08.2-.44.115-.71.273-.71.273-.27.157-.39.362-.39.362-.12.205-.12.446-.12.446zm3.92 1.387zm.51 1.408l.19.047.2.026c.44 0 .72-.31.72-.31.28-.31.43-.78.43-.78l.11-.38-2.05-5.11h.89l1.04 2.83.24.71c.13.37.24.73.24.73h.04c.11-.34.22-.72.22-.72.1-.38.21-.71.21-.71l.91-2.82h.84l-1.92 5.53c-.14.38-.31.7-.31.7-.17.33-.4.56-.4.56-.23.24-.52.38-.52.38-.3.14-.68.14-.68.14-.18 0-.33-.02-.33-.02-.15-.02-.27-.08-.27-.08l.16-.68zm4.39-1.408zm.68-4.317c0-.305.18-.49.18-.49.18-.182.44-.182.44-.182.25 0 .44.19.44.19.18.19.18.49.18.49 0 .28-.19.47-.19.47-.19.19-.44.19-.44.19-.26 0-.45-.18-.45-.18-.19-.18-.19-.46-.19-.46zm0 0zm0 3.792c0-.305.18-.49.18-.49.18-.182.44-.182.44-.182.25 0 .44.183.44.183.18.184.18.49.18.49 0 .282-.19.466-.19.466-.19.184-.44.184-.44.184-.26 0-.45-.184-.45-.184-.19-.184-.19-.467-.19-.467zm4.05.525zm3.19-2.542v-1.943c0-.273.01-.646.01-.646.01-.38.04-.65.04-.65h-.04c-.13.24-.27.47-.27.47l-.29.47-1.57 2.29h2.1zm0 0zm1.73.693h-.92V758h-.82v-1.85H150v-.566l2.867-4.286h.97v4.16h.912v.693zM300.49 758zm.358-3.83l4.51-1.765v.75l-2.217.82-1.4.526v.04l1.41.53 2.22.82v.75l-4.5-1.76v-.69zm6.99 3.83zm.83-.712h1.533v-4.937h-1.22v-.56c.47-.08.81-.21.81-.21.34-.12.62-.29.62-.29h.66v5.99h1.39v.72h-3.78v-.71zm6.51.714zm.253-5.104h.89l.76 2.952c.09.367.16.714.16.714l.15.71h.04l.17-.71c.08-.35.18-.71.18-.71l.79-2.95h.84l.8 2.95.19.714c.09.348.17.705.17.705h.04c.09-.357.16-.704.16-.704.07-.35.16-.72.16-.72l.75-2.95h.82l-1.37 5.1h-1.05l-.74-2.74c-.09-.37-.17-.73-.17-.73-.08-.36-.17-.75-.17-.75h-.04c-.08.39-.17.75-.17.75-.08.36-.19.73-.19.73l-.71 2.73h-1.01zm7.25 5.102zm.49-2.542c0-.63.2-1.13.2-1.13.2-.498.52-.845.52-.845.32-.346.73-.53.73-.53.41-.184.85-.184.85-.184.49 0 .87.16.87.16.39.17.64.48.64.48.26.31.4.75.4.75.14.44.14.98.14.98 0 .28-.03.47-.03.47h-3.44c.06.83.51 1.31.51 1.31.46.48 1.19.48 1.19.48.37 0 .68-.11.68-.11.31-.11.6-.29.6-.29l.31.56c-.33.21-.74.37-.74.37-.41.16-.94.16-.94.16-.51 0-.96-.19-.96-.19-.44-.19-.77-.53-.77-.53-.33-.34-.52-.84-.52-.84-.19-.5-.19-1.13-.19-1.13zm0 0zm3.57-.39c0-.786-.33-1.2-.33-1.2-.33-.416-.93-.416-.93-.416-.27 0-.52.11-.52.11-.24.11-.44.315-.44.315-.2.205-.33.504-.33.504-.13.3-.17.69-.17.69h2.73zm1.15 2.932zm.49-2.542c0-.63.2-1.13.2-1.13.2-.498.52-.845.52-.845.32-.346.73-.53.73-.53.41-.184.85-.184.85-.184.49 0 .87.16.87.16.39.17.64.48.64.48.26.31.4.75.4.75.14.44.14.98.14.98 0 .28-.03.47-.03.47h-3.44c.05.83.51 1.31.51 1.31.46.48 1.19.48 1.19.48.37 0 .68-.11.68-.11.31-.11.59-.29.59-.29l.31.56c-.33.21-.74.37-.74.37-.41.16-.93.16-.93.16-.52 0-.96-.19-.96-.19-.44-.19-.78-.53-.78-.53-.33-.34-.52-.84-.52-.84-.19-.5-.19-1.13-.19-1.13zm0 0zm3.57-.39c0-.786-.33-1.2-.33-1.2-.33-.416-.93-.416-.93-.416-.27 0-.52.11-.52.11-.24.11-.44.315-.44.315-.2.205-.33.504-.33.504-.13.3-.17.69-.17.69h2.73zM333.1 758zm.86-7.48h.85v5.064h.032l2.175-2.69h.956l-1.713 2.05 1.944 3.056h-.946l-1.49-2.458-.957 1.113V758h-.85v-7.48zm4.338 7.48zm.683-4.317c0-.305.19-.49.19-.49.19-.182.45-.182.45-.182.26 0 .44.19.44.19.19.19.19.49.19.49 0 .28-.18.47-.18.47-.18.19-.43.19-.43.19-.26 0-.44-.18-.44-.18-.18-.18-.18-.46-.18-.46zm0 0zm0 3.792c0-.305.19-.49.19-.49.19-.182.45-.182.45-.182.26 0 .44.183.44.183.19.184.19.49.19.49 0 .282-.18.466-.18.466-.18.184-.43.184-.43.184-.26 0-.44-.184-.44-.184-.18-.184-.18-.467-.18-.467zm4.06.525zm2.47-3.256c.33 0 .7-.205.7-.205.37-.21.71-.69.71-.69-.08-.99-.46-1.49-.46-1.49-.38-.51-1.02-.51-1.02-.51-.24 0-.45.1-.45.1-.21.1-.37.3-.37.3-.15.19-.24.46-.24.46-.09.27-.09.6-.09.6 0 .66.31 1.04.31 1.04.31.37.94.37.94.37zm0 0zm-1.45 2.132c.21.242.5.39.5.39.29.146.61.146.61.146.36 0 .68-.147.68-.147.32-.147.56-.49.56-.49.24-.34.39-.886.39-.886.15-.55.16-1.36.16-1.36-.31.4-.73.63-.73.63-.42.23-.84.23-.84.23-.87 0-1.39-.52-1.39-.52-.51-.52-.51-1.56-.51-1.56 0-.49.16-.88.16-.88.16-.4.43-.68.43-.68.27-.28.63-.44.63-.44.36-.16.76-.16.76-.16.5 0 .92.2.92.2.43.2.74.6.74.6.31.4.49 1.01.49 1.01.17.6.17 1.41.17 1.41 0 1.01-.21 1.72-.21 1.72-.21.71-.56 1.15-.56 1.15-.36.44-.81.65-.81.65-.45.2-.96.2-.96.2-.53 0-.94-.2-.94-.2-.4-.2-.68-.51-.68-.51zM484.3 758zm.357-3.834l4.506-1.765v.75l-2.21.82-1.41.53v.04l1.41.53 2.216.82v.75l-4.51-1.76v-.69zM491.64 758zm.83-.714h1.534v-4.937h-1.22v-.56c.463-.09.805-.21.805-.21.34-.12.61-.29.61-.29h.66v5.99h1.38v.72h-3.78v-.72zm6.513.714zm.86-5.105h.715l.074.735h.03c.337-.367.73-.614.73-.614.395-.247.857-.247.857-.247.58 0 .92.25.92.25.33.26.48.72.48.72.4-.44.8-.71.8-.71.4-.27.87-.27.87-.27.78 0 1.17.5 1.17.5.38.5.38 1.49.38 1.49V758h-.86v-3.12c0-.724-.23-1.045-.23-1.045-.23-.32-.72-.32-.72-.32-.58 0-1.28.788-1.28.788V758h-.86v-3.12c0-.724-.24-1.045-.24-1.045-.23-.32-.73-.32-.73-.32-.58 0-1.28.788-1.28.788V758h-.86v-5.105zM507.69 758zm.485-2.542c0-.64.194-1.14.194-1.14.19-.5.52-.845.52-.845.32-.347.75-.525.75-.525.42-.18.9-.18.9-.18.47 0 .89.18.89.18.42.178.75.525.75.525.32.346.52.845.52.845.19.5.19 1.14.19 1.14 0 .63-.2 1.13-.2 1.13-.2.498-.52.84-.52.84-.33.34-.76.52-.76.52-.43.178-.9.178-.9.178-.48 0-.9-.18-.9-.18-.43-.177-.75-.52-.75-.52-.33-.34-.52-.84-.52-.84-.2-.498-.2-1.128-.2-1.128zm0 0zm.893 0c0 .44.105.798.105.798.105.357.3.615.3.615.193.26.467.4.467.4.272.15.597.15.597.15.326 0 .6-.14.6-.14.272-.14.466-.4.466-.4.195-.25.3-.61.3-.61.105-.35.105-.8.105-.8 0-.44-.105-.8-.105-.8-.105-.36-.3-.62-.3-.62-.194-.26-.467-.4-.467-.4-.273-.14-.6-.14-.6-.14-.324 0-.598.14-.598.14-.273.14-.467.41-.467.41-.19.26-.29.63-.29.63-.1.37-.1.81-.1.81zm4.317 2.542zm.86-5.105h.716l.08.735h.03c.37-.367.77-.614.77-.614.41-.247.94-.247.94-.247.81 0 1.18.5 1.18.5.37.5.37 1.49.37 1.49V758h-.86v-3.12c0-.724-.23-1.045-.23-1.045-.23-.32-.73-.32-.73-.32-.4 0-.7.2-.7.2-.3.2-.69.588-.69.588V758h-.86v-5.105zM519.13 758zm1.008-4.4h-.756v-.653l.798-.052.105-1.43h.725v1.43h1.376v.704h-1.376v2.83c0 .47.173.73.173.73.174.25.615.25.615.25.136 0 .294-.04.294-.04.157-.05.283-.1.283-.1l.17.65c-.212.07-.458.13-.458.13-.247.05-.49.05-.49.05-.408 0-.687-.13-.687-.13-.278-.13-.45-.35-.45-.35-.175-.22-.248-.54-.248-.54-.074-.32-.074-.7-.074-.7v-2.82zm2.542 4.4zm.862-7.48h.86v2.04l-.03 1.05c.367-.347.766-.594.766-.594.4-.247.935-.247.935-.247.81 0 1.182.5 1.182.5.373.5.373 1.49.373 1.49V758h-.862v-3.12c0-.725-.23-1.045-.23-1.045-.232-.32-.736-.32-.736-.32-.4 0-.704.2-.704.2-.305.2-.693.587-.693.587V758h-.862v-7.48zm4.852 7.48zm.683-4.317c0-.305.184-.49.184-.49.19-.182.45-.182.45-.182.26 0 .44.19.44.19.19.19.19.49.19.49 0 .28-.18.47-.18.47-.18.19-.43.19-.43.19-.26 0-.45-.18-.45-.18-.18-.18-.18-.46-.18-.46zm0 0zm0 3.792c0-.305.184-.49.184-.49.19-.182.45-.182.45-.182.26 0 .44.183.44.183.19.184.19.49.19.49 0 .282-.18.466-.18.466-.18.184-.43.184-.43.184-.26 0-.45-.184-.45-.184-.18-.184-.18-.467-.18-.467zm4.055.525zm3.193-2.542v-1.943c0-.273.016-.646.016-.646.02-.38.04-.65.04-.65h-.04c-.12.24-.26.47-.26.47l-.28.47-1.56 2.29h2.1zm0 0zm1.733.693h-.914V758h-.82v-1.85h-3.014v-.566l2.868-4.286h.966v4.16h.914v.693zm.294 1.85zm.683-1.35c.294.31.7.54.7.54.403.23.99.23.99.23.306 0 .574-.11.574-.11.26-.11.46-.31.46-.31.2-.2.31-.48.31-.48.11-.28.11-.63.11-.63 0-.69-.39-1.08-.39-1.08-.39-.39-1.04-.39-1.04-.39-.35 0-.59.11-.59.11-.25.11-.55.31-.55.31l-.47-.29.22-3.23h3.35v.75h-2.6l-.18 1.99c.24-.12.48-.2.48-.2.24-.07.54-.07.54-.07.43 0 .8.13.8.13.38.13.66.39.66.39.28.26.45.65.45.65.16.39.16.94.16.94 0 .55-.19.97-.19.97-.19.42-.51.71-.51.71-.32.28-.72.44-.72.44-.41.15-.85.15-.85.15-.4 0-.73-.08-.73-.08-.33-.08-.6-.2-.6-.2-.27-.12-.49-.29-.49-.29-.21-.16-.38-.34-.38-.34zM676.5 758zm.357-3.834l4.507-1.765v.75l-2.217.82-1.408.53v.04l1.4.53 2.21.82v.75l-4.51-1.76v-.69zm6.986 3.834zm.83-.714h1.533v-4.937h-1.218v-.56c.462-.09.803-.21.803-.21.35-.12.62-.29.62-.29h.66v5.99h1.39v.72h-3.78v-.72zm6.512.714zm.515 1.408l.19.047.198.026c.442 0 .72-.31.72-.31.278-.31.436-.78.436-.78l.115-.38-2.05-5.11h.89l1.04 2.83c.11.34.24.71.24.71.13.37.24.73.24.73h.04c.11-.34.22-.72.22-.72.1-.38.21-.71.21-.71l.91-2.82h.84l-1.92 5.53c-.14.38-.31.7-.31.7-.17.33-.4.56-.4.56-.23.24-.53.38-.53.38-.3.14-.69.14-.69.14-.18 0-.33-.02-.33-.02-.15-.02-.28-.08-.28-.08l.17-.68zm4.348-1.408zm.484-2.542c0-.63.194-1.13.194-1.13.194-.498.515-.845.515-.845.32-.346.73-.53.73-.53.41-.184.85-.184.85-.184.49 0 .87.16.87.16.39.17.64.48.64.48.26.31.4.75.4.75.14.44.14.98.14.98 0 .28-.03.47-.03.47h-3.44c.06.83.51 1.31.51 1.31.46.48 1.19.48 1.19.48.37 0 .68-.11.68-.11.31-.11.6-.29.6-.29l.31.56c-.33.21-.74.37-.74.37-.41.16-.93.16-.93.16-.52 0-.96-.19-.96-.19-.45-.19-.78-.53-.78-.53-.33-.34-.52-.84-.52-.84-.19-.5-.19-1.13-.19-1.13zm0 0zm3.57-.39c0-.786-.33-1.2-.33-1.2-.33-.416-.93-.416-.93-.416-.273 0-.52.11-.52.11-.246.11-.446.315-.446.315-.2.205-.33.504-.33.504-.132.3-.174.69-.174.69h2.73zm1.01 2.932zm.61-1.323c0-.84.75-1.287.75-1.287.75-.447 2.39-.625 2.39-.625 0-.242-.048-.473-.048-.473-.047-.23-.168-.41-.168-.41-.12-.178-.32-.29-.32-.29-.2-.11-.515-.11-.515-.11-.45 0-.83.17-.83.17-.38.167-.69.377-.69.377l-.34-.6c.36-.23.88-.45.88-.45.52-.22 1.14-.22 1.14-.22.94 0 1.36.57 1.36.57.42.57.42 1.53.42 1.53V758h-.71l-.07-.61h-.02c-.37.306-.79.52-.79.52-.42.216-.9.216-.9.216-.65 0-1.07-.378-1.07-.378-.42-.378-.42-1.07-.42-1.07zm0 0zm.85-.064c0 .442.257.63.257.63.25.19.63.19.63.19.37 0 .7-.173.7-.173.33-.174.69-.51.69-.51v-1.418c-.64.084-1.08.2-1.08.2-.45.115-.71.273-.71.273-.27.157-.39.362-.39.362-.12.205-.12.446-.12.446zM706.49 758zm.86-5.105h.715l.074.924h.03c.26-.49.63-.77.63-.77.37-.29.81-.29.81-.29.3 0 .54.1.54.1l-.17.75-.23-.07c-.11-.02-.27-.02-.27-.02-.33 0-.68.26-.68.26-.36.26-.62.91-.62.91v3.3h-.86v-5.11zm2.785 5.105zm.682-4.317c0-.305.184-.49.184-.49.19-.182.45-.182.45-.182.25 0 .44.19.44.19.19.19.19.49.19.49 0 .28-.18.47-.18.47-.18.19-.43.19-.43.19-.26 0-.44-.18-.44-.18-.18-.18-.18-.46-.18-.46zm0 0zm0 3.792c0-.305.184-.49.184-.49.19-.182.45-.182.45-.182.25 0 .44.183.44.183.19.184.19.49.19.49 0 .282-.18.466-.18.466-.18.184-.43.184-.43.184-.26 0-.44-.184-.44-.184-.18-.184-.18-.467-.18-.467zm4.055.525zm.42-.515c.756-.756 1.345-1.365 1.345-1.365.588-.61.987-1.13.987-1.13.4-.52.61-.955.61-.955.21-.436.21-.846.21-.846 0-.58-.316-.95-.316-.95-.315-.37-.956-.37-.956-.37-.42 0-.777.23-.777.23-.357.23-.65.57-.65.57l-.495-.5c.42-.46.893-.74.893-.74.473-.28 1.134-.28 1.134-.28.935 0 1.47.54 1.47.54.537.54.537 1.43.537 1.43 0 .47-.205.95-.205.95-.21.48-.57.98-.57.98-.37.51-.86 1.06-.86 1.06-.5.55-1.1 1.17-1.1 1.17l.56-.04c.29-.02.55-.02.55-.02h1.94v.75h-4.33v-.52zm4.8.515zm.83-.714h1.534v-4.937h-1.218v-.56c.462-.09.803-.21.803-.21.35-.12.62-.29.62-.29h.66v5.99h1.39v.72h-3.78v-.72zm4.39.714zm.715-1.387c.305.315.71.557.71.557.404.242 1.003.242 1.003.242.61 0 .997-.33.997-.33.39-.332.39-.9.39-.9 0-.293-.11-.54-.11-.54-.11-.247-.364-.426-.364-.426-.252-.178-.66-.273-.66-.273-.41-.094-1.01-.094-1.01-.094v-.67c.536 0 .898-.1.898-.1.37-.1.59-.26.59-.26.23-.17.32-.4.32-.4.1-.23.1-.5.1-.5 0-.5-.31-.78-.31-.78-.31-.29-.84-.29-.84-.29-.42 0-.77.19-.77.19-.35.18-.65.49-.65.49l-.46-.55c.39-.37.86-.61.86-.61.47-.24 1.07-.24 1.07-.24.45 0 .81.11.81.11.37.11.64.33.64.33.27.21.42.53.42.53.15.31.15.72.15.72 0 .61-.33 1-.33 1-.33.39-.88.6-.88.6v.04c.31.07.57.21.57.21.26.14.46.35.46.35.2.21.31.5.31.5.11.28.11.63.11.63 0 .44-.17.79-.17.79-.17.35-.47.6-.47.6-.3.25-.7.38-.7.38-.39.13-.86.13-.86.13-.4 0-.73-.08-.73-.08-.33-.08-.6-.21-.6-.21-.27-.13-.49-.3-.49-.3-.21-.17-.38-.36-.38-.36zM866.055 758zm4.864-3.14l-4.51 1.764v-.746l2.21-.82 1.4-.524v-.042l-1.41-.526-2.22-.82v-.745l4.5 1.77v.7zm2.47 3.14zm.83-.714h1.53v-4.937h-1.22v-.56c.46-.09.8-.21.8-.21.34-.12.61-.29.61-.29h.66v5.99h1.4v.72h-3.78v-.72zm6.51.714zm.51 1.408l.19.047.2.026c.44 0 .72-.31.72-.31.28-.31.43-.78.43-.78l.11-.38-2.05-5.11h.89l1.04 2.83.24.71c.13.37.25.73.25.73h.04c.12-.34.22-.72.22-.72.11-.38.21-.71.21-.71l.92-2.82h.84l-1.93 5.53c-.14.38-.3.7-.3.7-.17.33-.4.56-.4.56-.23.24-.53.38-.53.38-.3.14-.69.14-.69.14-.18 0-.32-.02-.32-.02-.15-.02-.28-.08-.28-.08l.17-.68zM885.6 758zm.483-2.542c0-.63.194-1.13.194-1.13.196-.498.516-.845.516-.845.32-.346.73-.53.73-.53.41-.184.85-.184.85-.184.484 0 .867.16.867.16.385.17.64.48.64.48.26.31.396.75.396.75.137.44.137.98.137.98 0 .28-.032.47-.032.47h-3.44c.05.83.51 1.31.51 1.31.46.48 1.19.48 1.19.48.37 0 .68-.11.68-.11.31-.11.59-.29.59-.29l.31.56c-.33.21-.74.37-.74.37-.41.16-.93.16-.93.16-.51 0-.96-.19-.96-.19-.44-.19-.77-.53-.77-.53-.33-.34-.52-.84-.52-.84-.19-.5-.19-1.13-.19-1.13zm0 0zm3.57-.39c0-.786-.33-1.2-.33-1.2-.33-.416-.93-.416-.93-.416-.272 0-.52.11-.52.11-.246.11-.446.315-.446.315-.198.205-.33.504-.33.504-.13.3-.173.69-.173.69h2.73zm1.01 2.932zm.61-1.323c0-.84.75-1.287.75-1.287.75-.447 2.39-.625 2.39-.625 0-.242-.048-.473-.048-.473-.048-.23-.17-.41-.17-.41-.12-.178-.32-.29-.32-.29-.2-.11-.514-.11-.514-.11-.45 0-.83.17-.83.17-.38.167-.69.377-.69.377l-.34-.6c.36-.23.87-.45.87-.45.52-.22 1.14-.22 1.14-.22.94 0 1.36.57 1.36.57.42.57.42 1.53.42 1.53V758h-.71l-.07-.61h-.02c-.37.306-.79.52-.79.52-.42.216-.89.216-.89.216-.65 0-1.07-.378-1.07-.378-.42-.378-.42-1.07-.42-1.07zm0 0zm.85-.064c0 .442.257.63.257.63.26.19.637.19.637.19.366 0 .697-.173.697-.173.33-.174.7-.51.7-.51v-1.418c-.642.084-1.083.2-1.083.2-.44.115-.71.273-.71.273-.26.157-.38.362-.38.362-.11.205-.11.446-.11.446zM896.04 758zm.86-5.105h.717l.074.924h.04c.26-.49.64-.77.64-.77.38-.29.82-.29.82-.29.31 0 .55.1.55.1l-.16.75-.23-.07c-.11-.02-.26-.02-.26-.02-.32 0-.67.26-.67.26-.35.26-.61.91-.61.91v3.3h-.86v-5.11zm2.79 5.105zm.683-4.317c0-.305.183-.49.183-.49.184-.182.447-.182.447-.182.252 0 .436.19.436.19.18.19.18.49.18.49 0 .28-.19.47-.19.47-.19.19-.44.19-.44.19-.27 0-.45-.18-.45-.18-.19-.18-.19-.46-.19-.46zm0 0zm0 3.792c0-.305.183-.49.183-.49.184-.182.447-.182.447-.182.252 0 .436.183.436.183.18.184.18.49.18.49 0 .282-.19.466-.19.466-.19.184-.44.184-.44.184-.27 0-.45-.184-.45-.184-.19-.184-.19-.467-.19-.467zm4.054.525zm2.47-3.256c.324 0 .697-.205.697-.205.373-.21.71-.69.71-.69-.085-.99-.463-1.49-.463-1.49-.37-.51-1.01-.51-1.01-.51-.24 0-.45.1-.45.1-.21.1-.37.3-.37.3-.15.19-.24.46-.24.46-.09.27-.09.6-.09.6 0 .66.31 1.04.31 1.04.31.37.94.37.94.37zm0 0zm-1.45 2.132c.21.242.498.39.498.39.29.146.604.146.604.146.35 0 .67-.147.67-.147.31-.147.55-.49.55-.49.24-.34.39-.886.39-.886.14-.55.15-1.36.15-1.36-.32.4-.74.63-.74.63-.42.23-.84.23-.84.23-.88 0-1.39-.52-1.39-.52-.52-.52-.52-1.56-.52-1.56 0-.49.16-.88.16-.88.15-.4.42-.68.42-.68.27-.28.63-.44.63-.44.36-.16.76-.16.76-.16.49 0 .92.2.92.2.42.2.73.6.73.6.31.4.48 1.01.48 1.01.17.6.17 1.41.17 1.41 0 1.01-.21 1.72-.21 1.72-.21.71-.57 1.15-.57 1.15-.36.44-.82.65-.82.65-.46.2-.96.2-.96.2-.54 0-.94-.2-.94-.2-.41-.2-.68-.51-.68-.51zm4.2 1.124zm3.194-2.542v-1.943c0-.273.02-.646.02-.646.02-.38.04-.65.04-.65h-.04c-.12.24-.26.47-.26.47-.13.23-.28.47-.28.47l-1.56 2.29h2.1zm0 0zm1.74.693h-.91V758h-.82v-1.85h-3.01v-.566l2.87-4.286h.97v4.16h.92v.693zm.3 1.85zm2.47-3.25c.33 0 .7-.2.7-.2.38-.2.71-.69.71-.69-.08-.98-.46-1.49-.46-1.49-.38-.5-1.02-.5-1.02-.5-.24 0-.45.11-.45.11-.21.11-.37.3-.37.3-.15.2-.24.47-.24.47-.09.28-.09.6-.09.6 0 .66.31 1.04.31 1.04.31.38.94.38.94.38zm0 0zm-1.45 2.13c.21.24.5.39.5.39.29.15.61.15.61.15.36 0 .68-.14.68-.14.32-.14.56-.49.56-.49.24-.34.39-.88.39-.88.15-.54.16-1.35.16-1.35-.32.4-.74.63-.74.63-.42.23-.84.23-.84.23-.87 0-1.39-.51-1.39-.51-.51-.51-.51-1.55-.51-1.55 0-.48.16-.87.16-.87.16-.39.43-.68.43-.68.27-.28.63-.44.63-.44.37-.16.77-.16.77-.16.5 0 .92.2.92.2.43.2.74.61.74.61.31.41.48 1.01.48 1.01.18.61.18 1.42.18 1.42 0 1.01-.21 1.72-.21 1.72-.21.71-.56 1.16-.56 1.16-.36.45-.81.65-.81.65-.46.21-.96.21-.96.21-.54 0-.94-.2-.94-.2-.41-.2-.68-.5-.68-.5z"/></svg>