<svg xmlns="http://www.w3.org/2000/svg" stroke="#000" viewBox="0 0 1024 768" font-size="1"><path fill="#FFF" stroke="none" d="M0 0v768h1024V0z"/><path stroke="none" d="M389.35 14.102zm.217-10.04h2.325l.693 4.696c.093.785.2 1.578.2 1.578.108.793.2 1.594.2 1.594h.062c.154-.8.3-1.594.3-1.594.147-.793.3-1.578.3-1.578l1.08-4.697h1.924l1.08 4.7c.16.77.3 1.57.3 1.57l.3 1.61h.06c.11-.81.21-1.6.21-1.6.1-.78.21-1.57.21-1.57l.7-4.69h2.17l-1.78 10.04h-2.85l-.98-4.56c-.12-.58-.22-1.17-.22-1.17-.1-.59-.17-1.14-.17-1.14h-.06l-.2 1.15c-.1.6-.22 1.18-.22 1.18l-.94 4.56h-2.8zm12.305 10.04zm1-10.796h2.265v2.65l-.108 1.37c.43-.386 1-.717 1-.717.57-.34 1.35-.34 1.35-.34 1.24 0 1.81.81 1.81.81.56.81.56 2.26.56 2.26v4.75h-2.27V9.65c0-.832-.23-1.14-.23-1.14-.23-.31-.72-.31-.72-.31-.43 0-.74.195-.74.195-.31.192-.68.547-.68.547v5.16h-2.27V3.305zm7.793 10.796zm2.126-8.763c-.57 0-.94-.34-.94-.34-.36-.33-.36-.86-.36-.86 0-.53.37-.85.37-.85.37-.33.94-.33.94-.33.59 0 .95.32.95.32.36.32.36.84.36.84 0 .52-.36.85-.36.85-.36.33-.94.33-.94.33zm0 0zm-1.12 1.12h2.27v7.64h-2.26V6.46zm3.25 7.64zm.56-3.82c0-.96.33-1.7.33-1.7.33-.75.87-1.26.87-1.26.55-.51 1.27-.78 1.27-.78.73-.27 1.51-.27 1.51-.27.71 0 1.28.24 1.28.24.57.24.96.64.96.64l-1.03 1.4c-.54-.45-1.06-.45-1.06-.45-.83 0-1.31.58-1.31.58-.47.58-.47 1.58-.47 1.58 0 1 .49 1.58.49 1.58.49.58 1.23.58 1.23.58.41 0 .75-.17.75-.17.34-.17.62-.39.62-.39l.91 1.43c-.55.49-1.23.72-1.23.72-.68.23-1.31.23-1.31.23-.8 0-1.48-.27-1.48-.27-.68-.27-1.19-.78-1.19-.78-.51-.51-.8-1.26-.8-1.26-.29-.75-.29-1.7-.29-1.7zm6.64 3.82zm1-10.8h2.27v2.65l-.11 1.37c.43-.39 1-.72 1-.72.57-.33 1.36-.33 1.36-.33 1.25 0 1.81.81 1.81.81.57.81.57 2.26.57 2.26v4.75h-2.26V9.65c0-.833-.22-1.14-.22-1.14-.22-.31-.72-.31-.72-.31-.43 0-.74.194-.74.194-.31.192-.68.547-.68.547v5.16h-2.26V3.31zm10.99 10.8zm3.27.6v2.23h-2.26V6.46h1.85l.16.756h.06c.45-.4 1.01-.67 1.01-.67.56-.27 1.16-.27 1.16-.27.7 0 1.25.276 1.25.276.55.278.94.786.94.786.38.51.59 1.23.59 1.23.21.718.21 1.596.21 1.596 0 .986-.27 1.748-.27 1.748-.27.763-.72 1.295-.72 1.295-.45.532-1.03.81-1.03.81-.57.276-1.19.276-1.19.276-.49 0-.95-.21-.95-.21-.46-.21-.86-.592-.86-.592zm0 0zm0-2.76c.31.27.62.38.62.38.31.1.6.1.6.1.59 0 1-.53 1-.53.42-.53.42-1.72.42-1.72 0-2.07-1.32-2.07-1.32-2.07-.66 0-1.31.69-1.31.69v3.12zm5.56 2.15zm1-10.8h2.27v8.51c0 .35.13.49.13.49.13.14.27.14.27.14h.13l.15-.03.28 1.68c-.18.07-.47.13-.47.13-.28.05-.67.05-.67.05-.58 0-.98-.19-.98-.19-.4-.19-.64-.52-.64-.52-.24-.33-.35-.8-.35-.8-.11-.47-.11-1.06-.11-1.06V3.3zm3.41 10.8zm.73-2.13c0-1.2 1.01-1.88 1.01-1.88 1.02-.68 3.28-.91 3.28-.91-.03-.51-.31-.81-.31-.81-.27-.3-.89-.3-.89-.3-.49 0-.98.18-.98.18-.49.18-1.04.5-1.04.5l-.8-1.49c.74-.45 1.55-.72 1.55-.72.81-.28 1.72-.28 1.72-.28 1.48 0 2.26.84 2.26.84.78.84.78 2.61.78 2.61v4.37h-1.85l-.17-.79h-.04c-.49.43-1.04.7-1.04.7-.54.27-1.19.27-1.19.27-.52 0-.94-.18-.94-.18-.42-.18-.71-.5-.71-.5-.29-.32-.45-.73-.45-.73-.16-.42-.16-.91-.16-.91zm0 0zm2.15-.17c0 .37.24.54.24.54.24.17.64.17.64.17.4 0 .68-.17.68-.17.28-.17.59-.48.59-.48v-1.34c-1.21.17-1.67.49-1.67.49-.46.32-.46.77-.46.77zm5.35 2.29zm1.3-5.87h-1.04V6.55l1.17-.09.26-2.035h1.88v2.03h1.83v1.77h-1.83v3.07c0 .64.27.93.27.93.27.28.72.28.72.28.19 0 .38-.047.38-.047.2-.05.35-.11.35-.11l.35 1.65c-.3.09-.72.18-.72.18-.42.09-.97.09-.97.09-.71 0-1.21-.214-1.21-.214-.5-.216-.82-.6-.82-.6-.31-.386-.46-.933-.46-.933-.14-.54-.14-1.21-.14-1.21V8.23zm4.59 5.86zm5.32-9.04c-.43-.15-.79-.15-.79-.15-.41 0-.64.26-.64.26-.23.25-.23.84-.23.84v.46h1.37v1.78h-1.37v5.86h-2.26V8.23h-1.02V6.55l1.02-.076v-.42c0-.6.15-1.14.15-1.14.15-.54.49-.94.49-.94.34-.4.88-.63.88-.63.54-.24 1.31-.24 1.31-.24.48 0 .87.09.87.09.39.092.65.184.65.184zm-.22 9.04zm.56-3.82c0-.95.31-1.7.31-1.7.31-.74.83-1.25.83-1.25.52-.51 1.19-.78 1.19-.78.68-.27 1.4-.27 1.4-.27.72 0 1.39.27 1.39.27.67.27 1.19.78 1.19.78.52.51.83 1.25.83 1.25.31.74.31 1.7.31 1.7 0 .95-.31 1.7-.31 1.7-.3.74-.82 1.25-.82 1.25-.51.5-1.18.77-1.18.77-.67.27-1.39.27-1.39.27-.72 0-1.4-.27-1.4-.27-.67-.27-1.19-.78-1.19-.78-.51-.51-.82-1.26-.82-1.26-.31-.74-.31-1.7-.31-1.7zm0 0zm2.33 0c0 1 .35 1.59.35 1.59.34.59 1.05.59 1.05.59.69 0 1.05-.59 1.05-.59.36-.59.36-1.59.36-1.59 0-1-.35-1.59-.35-1.59-.35-.59-1.04-.59-1.04-.59-.71 0-1.05.58-1.05.58-.34.58-.34 1.58-.34 1.58zm5.67 3.82zm1-7.64h1.85l.16 1.34h.06c.42-.78 1-1.15 1-1.15.58-.37 1.17-.37 1.17-.37.32 0 .53.04.53.04.21.04.38.12.38.12l-.37 1.95c-.21-.06-.4-.09-.4-.09-.18-.03-.43-.03-.43-.03-.43 0-.9.3-.9.3-.47.31-.78 1.09-.78 1.09v4.43h-2.26v-7.6zm5.13 7.64zm1-7.64h1.85l.16.99h.06c.48-.48 1.02-.82 1.02-.82.54-.35 1.3-.35 1.3-.35.81 0 1.31.33 1.31.33.5.33.8.95.8.95.51-.53 1.07-.9 1.07-.9.56-.38 1.33-.38 1.33-.38 1.23 0 1.81.82 1.81.82.58.82.58 2.25.58 2.25v4.74h-2.26V9.65c0-.833-.22-1.14-.22-1.14-.22-.31-.71-.31-.71-.31-.57 0-1.3.74-1.3.74v5.16h-2.26V9.65c0-.833-.22-1.14-.22-1.14-.23-.31-.72-.31-.72-.31-.58 0-1.29.74-1.29.74v5.16h-2.27V6.46zm12.2 7.64zm1.34-2.29c.53.4 1 .6 1 .6.48.2.97.2.97.2.51 0 .74-.17.74-.17.23-.17.23-.48.23-.48 0-.18-.13-.33-.13-.33-.13-.15-.35-.27-.35-.27-.22-.12-.5-.22-.5-.22-.28-.1-.57-.22-.57-.22-.35-.14-.71-.33-.71-.33-.36-.19-.65-.46-.65-.46-.29-.27-.48-.63-.48-.63-.18-.36-.18-.84-.18-.84 0-.52.21-.97.21-.97.21-.45.59-.76.59-.76.39-.31.93-.49.93-.49.54-.18 1.21-.18 1.21-.18.88 0 1.54.3 1.54.3.66.3 1.16.67 1.16.67l-1.02 1.35c-.41-.31-.81-.48-.81-.48-.4-.17-.8-.17-.8-.17-.86 0-.86.61-.86.61 0 .18.12.32.12.32.12.13.33.24.33.24.21.1.48.2.48.2l.56.21c.37.14.73.31.73.31.36.17.66.43.66.43.3.26.49.64.49.64.18.37.18.9.18.9 0 .52-.2.97-.2.97-.2.44-.6.77-.6.77-.4.33-.98.52-.98.52-.58.19-1.35.19-1.35.19-.76 0-1.55-.29-1.55-.29-.8-.29-1.38-.77-1.38-.77zm8.69 2.3zm.6-3.82c0-.94.27-1.68.27-1.68.27-.74.71-1.26.71-1.26.44-.52 1.02-.8 1.02-.8.58-.28 1.18-.28 1.18-.28.65 0 1.06.21 1.06.21.41.21.82.58.82.58l-.09-1.17V3.3h2.26v10.8h-1.85l-.15-.754h-.06c-.4.4-.94.67-.94.67-.53.27-1.09.27-1.09.27-.71 0-1.28-.278-1.28-.278-.58-.278-.99-.794-.99-.794-.41-.516-.63-1.255-.63-1.255-.23-.74-.23-1.68-.23-1.68zm0 0zm2.33-.03c0 1.14.37 1.66.37 1.66.36.52 1.03.52 1.03.52.37 0 .67-.16.67-.16.3-.16.58-.54.58-.54v-3.1c-.31-.28-.63-.39-.63-.39-.32-.11-.63-.11-.63-.11-.54 0-.95.51-.95.51-.42.51-.42 1.61-.42 1.61zm5.9 3.85zm.56-3.82c0-.96.31-1.7.31-1.7.31-.75.83-1.26.83-1.26.52-.51 1.19-.78 1.19-.78.68-.27 1.4-.27 1.4-.27.73 0 1.4.27 1.4.27.67.27 1.19.78 1.19.78.52.51.83 1.25.83 1.25.31.74.31 1.7.31 1.7 0 .95-.3 1.7-.3 1.7-.3.74-.82 1.25-.82 1.25-.51.5-1.18.77-1.18.77-.67.27-1.39.27-1.39.27-.72 0-1.4-.27-1.4-.27-.68-.27-1.19-.78-1.19-.78-.52-.51-.82-1.26-.82-1.26-.302-.75-.302-1.7-.302-1.7zm0 0zm2.32 0c0 1 .35 1.58.35 1.58.35.58 1.05.58 1.05.58.7 0 1.05-.59 1.05-.59.35-.59.35-1.59.35-1.59 0-1-.35-1.59-.35-1.59-.35-.59-1.05-.59-1.05-.59-.71 0-1.05.58-1.05.58-.35.58-.35 1.58-.35 1.58zm8.87 3.82zm1.17 1.11c.11.03.25.06.25.06.14.03.26.03.26.03.57 0 .88-.28.88-.28.31-.28.46-.72.46-.72l.11-.4-2.94-7.44h2.28l1.09 3.28c.17.52.31 1.06.31 1.06.14.54.3 1.11.3 1.11h.06l.26-1.09c.13-.55.27-1.09.27-1.09l.93-3.28h2.17l-2.65 7.72c-.28.72-.58 1.27-.58 1.27-.3.54-.69.9-.69.9-.39.36-.89.55-.89.55-.5.18-1.18.18-1.18.18-.35 0-.6-.04-.6-.04-.25-.04-.48-.12-.48-.12l.4-1.73zm6.73-1.11zm.56-3.82c0-.96.31-1.7.31-1.7.31-.75.83-1.26.83-1.26.52-.51 1.19-.78 1.19-.78.68-.27 1.4-.27 1.4-.27.73 0 1.4.27 1.4.27.67.27 1.19.78 1.19.78.52.51.83 1.25.83 1.25.3.74.3 1.7.3 1.7 0 .95-.31 1.7-.31 1.7-.31.74-.82 1.25-.82 1.25-.51.5-1.18.77-1.18.77-.67.27-1.4.27-1.4.27-.72 0-1.4-.27-1.4-.27-.68-.27-1.19-.78-1.19-.78-.52-.51-.82-1.26-.82-1.26-.31-.75-.31-1.7-.31-1.7zm0 0zm2.33 0c0 1 .35 1.58.35 1.58.35.58 1.05.58 1.05.58.7 0 1.05-.59 1.05-.59.36-.59.36-1.59.36-1.59 0-1-.35-1.59-.35-1.59-.35-.59-1.04-.59-1.04-.59-.71 0-1.05.58-1.05.58-.35.58-.35 1.58-.35 1.58zm5.67 3.82zm.92-7.64h2.27v4.46c0 .83.23 1.14.23 1.14.23.3.72.3.72.3.43 0 .72-.2.72-.2.3-.2.63-.65.63-.65V6.47h2.27v7.63h-1.85l-.17-1.063h-.05c-.49.584-1.05.915-1.05.915-.56.33-1.35.33-1.35.33-1.24 0-1.81-.815-1.81-.815-.56-.816-.56-2.264-.56-2.264v-4.74zm11.03 7.64zm.6-3.82c0-.94.27-1.68.27-1.68.27-.74.71-1.26.71-1.26.44-.52 1.01-.8 1.01-.8.58-.28 1.18-.28 1.18-.28.65 0 1.06.21 1.06.21.42.21.82.58.82.58L559 5.88V3.3h2.266v10.8h-1.85l-.155-.754h-.06c-.4.4-.94.67-.94.67-.54.27-1.09.27-1.09.27-.7 0-1.28-.278-1.28-.278-.57-.278-.98-.794-.98-.794-.4-.516-.63-1.255-.63-1.255-.22-.74-.22-1.68-.22-1.68zm0 0zm2.33-.03c0 1.14.36 1.66.36 1.66.36.52 1.02.52 1.02.52.37 0 .67-.16.67-.16.3-.16.58-.54.58-.54v-3.1c-.31-.28-.63-.39-.63-.39-.32-.11-.63-.11-.63-.11-.54 0-.95.51-.95.51-.42.51-.42 1.61-.42 1.61zm5.9 3.85zm.55-3.82c0-.93.31-1.67.31-1.67.31-.75.81-1.26.81-1.26.5-.52 1.15-.8 1.15-.8.65-.28 1.34-.28 1.34-.28.82 0 1.43.28 1.43.28.61.28 1.01.77 1.01.77.41.49.61 1.16.61 1.16.2.67.2 1.46.2 1.46 0 .31-.03.56-.03.56-.03.25-.06.39-.06.39H565c.154.88.685 1.27.685 1.27.53.39 1.3.39 1.3.39.82 0 1.65-.51 1.65-.51l.75 1.37c-.58.4-1.3.63-1.3.63-.71.23-1.41.23-1.41.23-.81 0-1.52-.27-1.52-.27-.71-.27-1.23-.79-1.23-.79-.523-.51-.816-1.25-.816-1.25-.3-.74-.3-1.7-.3-1.7zm0 0zm4.93-.79c0-.66-.29-1.08-.29-1.08-.29-.42-.98-.42-.98-.42-.54 0-.95.36-.95.36-.41.36-.53 1.13-.53 1.13h2.76zm2.41 4.6zm.19-7.64h2.28l.99 3.6c.16.57.3 1.16.3 1.16l.3 1.19h.06c.14-.6.29-1.2.29-1.2.15-.59.3-1.16.3-1.16l1-3.61h2.17l-2.49 7.64h-2.61zm7.75 7.64zm.56-3.82c0-.93.308-1.67.308-1.67.31-.75.81-1.27.81-1.27.5-.52 1.144-.8 1.144-.8.65-.27 1.34-.27 1.34-.27.815 0 1.42.28 1.42.28.61.28 1.02.77 1.02.77.41.49.61 1.16.61 1.16.2.67.2 1.45.2 1.45 0 .31-.03.57-.03.57-.03.26-.06.4-.06.4h-4.58c.153.87.684 1.27.684 1.27.53.39 1.3.39 1.3.39.82 0 1.65-.51 1.65-.51l.757 1.37c-.59.4-1.3.63-1.3.63-.72.23-1.41.23-1.41.23-.82 0-1.53-.27-1.53-.27-.71-.27-1.23-.79-1.23-.79-.52-.52-.81-1.26-.81-1.26-.29-.74-.29-1.7-.29-1.7zm0 0zm4.928-.79c0-.66-.29-1.08-.29-1.08-.3-.42-.99-.42-.99-.42-.54 0-.947.36-.947.36-.41.36-.53 1.13-.53 1.13h2.758zm2.493 4.6zm1-10.8h2.26v8.52c0 .36.13.5.13.5.138.14.27.14.27.14h.13l.15-.03.28 1.68c-.19.07-.47.13-.47.13-.29.05-.67.05-.67.05-.59 0-.99-.19-.99-.19-.4-.19-.64-.52-.64-.52-.232-.33-.34-.8-.34-.8-.11-.47-.11-1.05-.11-1.05V3.3zm3.4 10.79zm.55-3.82c0-.95.31-1.7.31-1.7.31-.75.82-1.25.82-1.25.52-.51 1.197-.78 1.197-.78.68-.27 1.4-.27 1.4-.27.73 0 1.4.27 1.4.27.67.27 1.18.78 1.18.78.52.51.83 1.25.83 1.25.303.75.303 1.7.303 1.7 0 .95-.31 1.7-.31 1.7-.31.74-.83 1.25-.83 1.25-.51.5-1.18.77-1.18.77-.67.27-1.394.27-1.394.27-.72 0-1.4-.27-1.4-.27-.68-.27-1.19-.78-1.19-.78-.51-.51-.82-1.26-.82-1.26-.31-.75-.31-1.7-.31-1.7zm0 0zm2.327 0c0 1 .35 1.59.35 1.59.342.58 1.05.58 1.05.58.69 0 1.05-.59 1.05-.59.35-.58.35-1.59.35-1.59 0-1-.354-1.58-.354-1.58-.35-.58-1.05-.58-1.05-.58-.7 0-1.05.58-1.05.58-.35.58-.35 1.58-.35 1.58zM599 14.1zm3.265.6v2.234H600V6.464h1.847l.154.754h.06c.45-.4 1.01-.67 1.01-.67.57-.27 1.17-.27 1.17-.27.7 0 1.25.277 1.25.277.56.278.94.786.94.786.39.51.6 1.23.6 1.23.21.72.21 1.6.21 1.6 0 .99-.27 1.75-.27 1.75-.27.77-.72 1.3-.72 1.3-.45.54-1.03.81-1.03.81-.57.28-1.19.28-1.19.28-.49 0-.95-.21-.95-.21-.46-.21-.86-.59-.86-.59zm0 0zm0-2.755c.308.277.616.385.616.385.31.108.6.108.6.108.59 0 1-.53 1-.53.42-.532.42-1.718.42-1.718 0-2.064-1.32-2.064-1.32-2.064-.66 0-1.31.693-1.31.693v3.12zm8.763 2.156zm.554-3.82c0-.95.307-1.7.307-1.7.3-.74.82-1.25.82-1.25.52-.51 1.19-.77 1.19-.77.68-.27 1.4-.27 1.4-.27.72 0 1.39.27 1.39.27.67.27 1.18.78 1.18.78.51.51.82 1.26.82 1.26.3.75.3 1.71.3 1.71 0 .96-.31 1.7-.31 1.7-.31.75-.83 1.26-.83 1.26-.52.51-1.19.78-1.19.78-.67.27-1.4.27-1.4.27-.72 0-1.4-.27-1.4-.27-.68-.27-1.19-.78-1.19-.78-.52-.51-.83-1.25-.83-1.25-.31-.74-.31-1.7-.31-1.7zm0 0zm2.324 0c0 1 .347 1.59.347 1.59.348.59 1.057.59 1.057.59.693 0 1.047-.58 1.047-.58.354-.58.354-1.58.354-1.58 0-1-.35-1.58-.35-1.58-.35-.58-1.04-.58-1.04-.58-.71 0-1.05.59-1.05.59-.34.59-.34 1.59-.34 1.59zm5.668 3.82zm1-7.64h1.85l.153.97h.06c.494-.46 1.08-.8 1.08-.8.585-.34 1.37-.34 1.37-.34 1.247 0 1.81.82 1.81.82.562.82.562 2.27.562 2.27v4.74h-2.27V9.65c0-.832-.23-1.14-.23-1.14-.23-.31-.72-.31-.72-.31-.43 0-.74.195-.74.195-.31.192-.68.547-.68.547v5.16h-2.27v-7.64zm7.81 7.64zm2.37-3.55c-.076-.52.04-.95.04-.95.115-.43.33-.8.33-.8.216-.37.485-.67.485-.67.27-.3.51-.59.51-.59.24-.28.41-.55.41-.55.16-.27.16-.56.16-.56 0-.47-.29-.72-.29-.72-.29-.25-.75-.25-.75-.25-.43 0-.76.2-.76.2-.34.21-.64.51-.64.51L629.01 5c.524-.63 1.23-1.016 1.23-1.016.71-.385 1.57-.385 1.57-.385.65 0 1.21.15 1.21.15.564.15.97.47.97.47.41.32.64.82.64.82.23.5.23 1.18.23 1.18 0 .47-.17.85-.17.85-.166.37-.42.7-.42.7-.25.32-.534.62-.534.62-.284.3-.523.62-.523.62-.24.32-.377.68-.377.68-.14.36-.093.82-.093.82h-1.99zm0 0zm-.37 2.33c0-.61.386-1.02.386-1.02.385-.41.97-.41.97-.41.585 0 .978.41.978.41.393.41.393 1.03.393 1.03 0 .6-.39 1.01-.39 1.01-.39.41-.98.41-.98.41-.58 0-.97-.41-.97-.41-.38-.41-.38-1.01-.38-1.01z"/><path fill="none" stroke="#D3D3D3" stroke-miterlimit="10" d="M39.59 738h954.767M39.59 562.25h954.767M39.59 386.5h954.767M39.59 210.75h954.767M39.59 35h954.767" stroke-dasharray="5 5"/><g fill="#5C3566" stroke-opacity="0" stroke-width="0" stroke-miterlimit="10" stroke-linejoin="bevel"><defs><clipPath id="a"><path d="M39.59 35v703h954.767V35z"/></clipPath></defs><g clip-path="url(#a)"><path stroke="none" d="M54.59 738V65.932h208.692V738z"/></g></g><g fill-opacity="0" stroke-miterlimit="10"><defs><clipPath id="b"><path d="M39.59 35v703h954.767V35z"/></clipPath></defs><g clip-path="url(#b)"><path fill="none" d="M54.59 738V65.932h208.692V738z"/></g></g><g fill="#5C3566" stroke-opacity="0" stroke-width="0" stroke-miterlimit="10" stroke-linejoin="bevel"><defs><clipPath id="c"><path d="M39.59 35v703h954.767V35z"/></clipPath></defs><g clip-path="url(#c)"><path stroke="none" d="M293.282 738V381.58h208.692V738z"/></g></g><g fill-opacity="0" stroke-miterlimit="10"><defs><clipPath id="d"><path d="M39.59 35v703h954.767V35z"/></clipPath></defs><g clip-path="url(#d)"><path fill="none" d="M293.282 738V381.58h208.692V738z"/></g></g><g fill="#5C3566" stroke-opacity="0" stroke-width="0" stroke-miterlimit="10" stroke-linejoin="bevel"><defs><clipPath id="e"><path d="M39.59 35v703h954.767V35z"/></clipPath></defs><g clip-path="url(#e)"><path stroke="none" d="M531.974 738V574.2h208.69V738z"/></g></g><g fill-opacity="0" stroke-miterlimit="10"><defs><clipPath id="f"><path d="M39.59 35v703h954.767V35z"/></clipPath></defs><g clip-path="url(#f)"><path fill="none" d="M531.974 738V574.2h208.69V738z"/></g></g><g fill="#5C3566" stroke-opacity="0" stroke-width="0" stroke-miterlimit="10" stroke-linejoin="bevel"><defs><clipPath id="g"><path d="M39.59 35v703h954.767V35z"/></clipPath></defs><g clip-path="url(#g)"><path stroke="none" d="M770.665 738v-26.01h208.692V738z"/></g></g><g fill-opacity="0" stroke-miterlimit="10"><defs><clipPath id="h"><path d="M39.59 35v703h954.767V35z"/></clipPath></defs><g clip-path="url(#h)"><path fill="none" d="M770.665 738v-26.01h208.692V738z"/></g></g><path fill="none" stroke-miterlimit="10" d="M39.59 738V35" stroke-linecap="square"/><path fill="none" stroke-miterlimit="10" d="M39.59 738h2m-2-70.3h2m-2-70.3h2m-2-70.3h2m-2-70.3h2m-2-70.3h2m-2-70.3h2m-2-70.3h2m-2-70.3h2m-2-70.3h2m-2-70.3h2m-2 703h5m-5-175.75h5m-5-175.75h5m-5-175.75h5M39.59 35h5"/><path stroke="none" d="M25.294 741.445zm2.616.126c-1.02 0-1.586-.9-1.586-.9-.568-.9-.568-2.59-.568-2.59 0-1.69.568-2.57.568-2.57.567-.88 1.586-.88 1.586-.88 1.008 0 1.575.88 1.575.88.568.89.568 2.58.568 2.58 0 1.69-.568 2.6-.568 2.6-.567.91-1.575.91-1.575.91zm0 0zm0-.69c.294 0 .53-.16.53-.16.236-.16.41-.5.41-.5.173-.34.268-.87.268-.87.094-.53.094-1.26.094-1.26 0-.73-.094-1.26-.094-1.26-.095-.52-.268-.85-.268-.85-.173-.33-.41-.49-.41-.49-.236-.16-.53-.16-.53-.16-.294 0-.536.16-.536.16-.242.16-.415.49-.415.49-.18.33-.27.86-.27.86-.1.53-.1 1.26-.1 1.26 0 1.47.36 2.14.36 2.14.36.67.95.67.95.67zM14.77 565.7zm.42-.514c.755-.754 1.344-1.363 1.344-1.363.588-.61.987-1.13.987-1.13.4-.52.61-.955.61-.955.21-.434.21-.844.21-.844 0-.576-.31-.944-.31-.944-.31-.37-.95-.37-.95-.37-.42 0-.77.24-.77.24-.35.235-.65.57-.65.57l-.49-.492c.42-.462.9-.74.9-.74.48-.28 1.14-.28 1.14-.28.94 0 1.47.543 1.47.543.54.54.54 1.44.54 1.44 0 .47-.2.95-.2.95-.2.48-.57.99-.57.99-.36.51-.86 1.06-.86 1.06-.5.56-1.09 1.18-1.09 1.18l.57-.04c.3-.02.56-.02.56-.02h1.95v.75H15.2v-.51zm4.8.517zm.682-1.355c.294.307.7.538.7.538.403.23.99.23.99.23.306 0 .574-.11.574-.11.268-.11.467-.31.467-.31.2-.2.315-.482.315-.482.116-.283.116-.63.116-.63 0-.693-.39-1.082-.39-1.082-.387-.387-1.04-.387-1.04-.387-.345 0-.592.106-.592.106-.247.11-.552.31-.552.31l-.462-.29.22-3.22h3.352v.75h-2.595l-.18 1.99c.243-.12.485-.2.485-.2.24-.07.546-.07.546-.07.43 0 .81.13.81.13.377.13.66.39.66.39.284.26.447.65.447.65.163.4.163.94.163.94 0 .55-.19.97-.19.97-.19.42-.504.71-.504.71-.315.29-.72.44-.72.44-.404.15-.845.15-.845.15-.4 0-.73-.08-.73-.08-.33-.08-.598-.2-.598-.2-.27-.12-.49-.29-.49-.29-.22-.16-.39-.34-.39-.34zm4.538 1.357zm2.616.127c-1.02 0-1.586-.903-1.586-.903-.568-.91-.568-2.6-.568-2.6 0-1.69.567-2.58.567-2.58.56-.88 1.58-.88 1.58-.88 1.01 0 1.57.88 1.57.88.56.88.56 2.57.56 2.57 0 1.69-.57 2.59-.57 2.59-.57.9-1.58.9-1.58.9zm0 0zm0-.693c.294 0 .53-.17.53-.17.236-.16.41-.51.41-.51.173-.34.268-.87.268-.87.094-.53.094-1.27.094-1.27 0-.74-.094-1.26-.094-1.26-.095-.53-.268-.86-.268-.86-.173-.33-.41-.49-.41-.49-.236-.16-.53-.16-.53-.16-.294 0-.536.16-.536.16-.242.15-.415.48-.415.48-.173.33-.268.85-.268.85-.094.52-.094 1.26-.094 1.26 0 1.47.362 2.13.362 2.13.362.67.95.67.95.67zM14.653 389.95zm.683-1.355c.294.308.7.54.7.54.403.23.99.23.99.23.306 0 .574-.11.574-.11.268-.11.467-.31.467-.31.2-.2.315-.483.315-.483.116-.284.116-.63.116-.63 0-.694-.39-1.082-.39-1.082-.388-.39-1.04-.39-1.04-.39-.345 0-.592.106-.592.106-.247.105-.552.304-.552.304l-.462-.294.22-3.226h3.35v.745H16.44l-.18 1.98c.242-.126.483-.2.483-.2.242-.072.547-.072.547-.072.43 0 .808.127.808.127.38.126.662.383.662.383.284.257.447.65.447.65.162.395.162.94.162.94 0 .548-.19.968-.19.968-.19.42-.51.71-.51.71-.32.29-.72.44-.72.44-.41.16-.85.16-.85.16-.4 0-.73-.08-.73-.08-.33-.08-.6-.2-.6-.2-.27-.12-.48-.29-.48-.29-.22-.16-.39-.34-.39-.34zm4.538 1.358zm2.616.127c-1.02 0-1.587-.9-1.587-.9-.567-.903-.567-2.595-.567-2.595 0-1.69.567-2.574.567-2.574.568-.88 1.586-.88 1.586-.88 1 0 1.57.88 1.57.88.56.89.56 2.58.56 2.58 0 1.69-.57 2.6-.57 2.6-.57.91-1.58.91-1.58.91zm0 0zm0-.69c.294 0 .53-.163.53-.163.236-.162.41-.504.41-.504.173-.34.268-.87.268-.87.094-.53.094-1.266.094-1.266 0-.738-.094-1.26-.094-1.26-.095-.528-.268-.86-.268-.86-.174-.33-.41-.49-.41-.49-.236-.16-.53-.16-.53-.16-.295 0-.536.16-.536.16-.242.158-.415.49-.415.49-.18.33-.27.855-.27.855-.1.524-.1 1.26-.1 1.26 0 1.47.36 2.137.36 2.137.36.66.95.66.95.66zm2.605.567zm2.615.126c-1.02 0-1.586-.902-1.586-.902-.567-.9-.567-2.59-.567-2.59 0-1.69.567-2.57.567-2.57.567-.88 1.586-.88 1.586-.88 1.01 0 1.576.89 1.576.89.567.88.567 2.58.567 2.58 0 1.69-.567 2.6-.567 2.6-.567.91-1.576.91-1.576.91zm0 0zm0-.692c.294 0 .53-.16.53-.16.237-.16.41-.5.41-.5.174-.34.268-.87.268-.87.095-.53.095-1.26.095-1.26 0-.73-.095-1.26-.095-1.26-.094-.52-.268-.85-.268-.85-.173-.33-.41-.48-.41-.48-.236-.16-.53-.16-.53-.16-.294 0-.536.16-.536.16-.24.16-.414.49-.414.49-.174.33-.268.86-.268.86-.095.53-.095 1.26-.095 1.26 0 1.47.363 2.14.363 2.14.362.67.95.67.95.67zM14.853 214.2zm1.86 0c.04-.945.167-1.733.167-1.733.126-.788.352-1.497.352-1.497.226-.71.578-1.37.578-1.37.352-.662.846-1.355.846-1.355h-3.34v-.74h4.316v.534c-.598.75-.97 1.45-.97 1.45-.374.69-.595 1.41-.595 1.41-.22.72-.32 1.52-.32 1.52-.1.8-.142 1.78-.142 1.78h-.893zm3.36 0zm.683-1.355c.294.31.7.54.7.54.403.23.99.23.99.23.306 0 .574-.11.574-.11.268-.11.467-.31.467-.31.2-.2.315-.48.315-.48.116-.285.116-.63.116-.63 0-.695-.39-1.084-.39-1.084-.387-.38-1.04-.38-1.04-.38-.345 0-.592.11-.592.11-.247.11-.552.31-.552.31l-.462-.29.22-3.22h3.352v.74H21.86l-.18 1.99c.242-.12.484-.2.484-.2.24-.07.546-.07.546-.07.43 0 .81.13.81.13.377.13.66.38.66.38.284.26.447.66.447.66.163.39.163.94.163.94 0 .55-.19.97-.19.97-.19.42-.504.71-.504.71-.315.29-.72.44-.72.44-.404.16-.845.16-.845.16-.39 0-.73-.07-.73-.07-.33-.08-.59-.2-.59-.2-.27-.13-.48-.29-.48-.29-.21-.16-.38-.34-.38-.34zm4.538 1.36zm2.616.126c-1.02 0-1.586-.9-1.586-.9-.568-.9-.568-2.59-.568-2.59 0-1.69.568-2.57.568-2.57.567-.88 1.586-.88 1.586-.88 1.008 0 1.575.88 1.575.88.568.89.568 2.58.568 2.58 0 1.69-.568 2.6-.568 2.6-.567.91-1.575.91-1.575.91zm0 0zm0-.69c.294 0 .53-.16.53-.16.236-.16.41-.5.41-.5.173-.34.268-.87.268-.87.094-.53.094-1.26.094-1.26 0-.74-.094-1.26-.094-1.26-.095-.53-.268-.86-.268-.86-.173-.33-.41-.49-.41-.49-.236-.16-.53-.16-.53-.16-.294 0-.536.16-.536.16-.242.16-.415.49-.415.49-.18.33-.27.86-.27.86-.1.53-.1 1.26-.1 1.26 0 1.47.36 2.14.36 2.14.36.67.95.67.95.67zM10 38.45zm.83-.715h1.533V32.8h-1.218v-.557c.462-.084.804-.204.804-.204.34-.12.61-.29.61-.29h.66v5.98h1.38v.71h-3.78v-.72zm4.39.72zm2.616.13c-1.02 0-1.586-.902-1.586-.902-.567-.9-.567-2.593-.567-2.593 0-1.69.567-2.573.567-2.573.567-.882 1.586-.882 1.586-.882 1.01 0 1.576.884 1.576.884.567.88.567 2.57.567 2.57 0 1.69-.57 2.59-.57 2.59-.57.9-1.58.9-1.58.9zm0 0zm0-.692c.294 0 .53-.16.53-.16.237-.16.41-.504.41-.504.174-.34.268-.87.268-.87.095-.53.095-1.27.095-1.27 0-.74-.1-1.26-.1-1.26-.1-.53-.27-.86-.27-.86-.18-.33-.41-.49-.41-.49-.24-.16-.53-.16-.53-.16-.3 0-.54.16-.54.16-.24.15-.42.48-.42.48-.18.33-.27.85-.27.85-.1.53-.1 1.26-.1 1.26 0 1.47.36 2.14.36 2.14.36.67.95.67.95.67zm2.605.57zm2.62.126c-1.02 0-1.58-.91-1.58-.91-.56-.9-.56-2.59-.56-2.59 0-1.69.57-2.57.57-2.57.57-.88 1.59-.88 1.59-.88 1.01 0 1.58.88 1.58.88.57.88.57 2.57.57 2.57 0 1.69-.56 2.59-.56 2.59-.57.9-1.58.9-1.58.9zm0 0zm0-.7c.3 0 .53-.16.53-.16.24-.16.41-.51.41-.51.18-.34.27-.87.27-.87.1-.53.1-1.27.1-1.27 0-.74-.09-1.26-.09-1.26-.09-.53-.27-.86-.27-.86-.17-.33-.41-.49-.41-.49-.23-.16-.53-.16-.53-.16-.29 0-.53.16-.53.16-.24.15-.41.48-.41.48-.17.33-.27.85-.27.85-.09.52-.09 1.26-.09 1.26 0 1.47.36 2.14.36 2.14.36.66.95.66.95.66zm2.61.57zm2.62.12c-1.02 0-1.58-.91-1.58-.91-.56-.91-.56-2.6-.56-2.6 0-1.69.57-2.58.57-2.58.57-.89 1.59-.89 1.59-.89 1.01 0 1.58.88 1.58.88.57.88.57 2.57.57 2.57 0 1.69-.57 2.59-.57 2.59-.56.9-1.57.9-1.57.9zm0 0zm0-.7c.3 0 .53-.17.53-.17.24-.16.41-.5.41-.5.18-.34.27-.87.27-.87.1-.53.1-1.27.1-1.27 0-.74-.09-1.26-.09-1.26-.09-.53-.26-.86-.26-.86-.17-.33-.41-.49-.41-.49-.23-.16-.53-.16-.53-.16-.29 0-.53.16-.53.16-.24.15-.41.48-.41.48-.17.33-.27.86-.27.86-.1.53-.1 1.26-.1 1.26 0 1.47.36 2.14.36 2.14.36.67.95.67.95.67z"/><path fill="none" stroke-miterlimit="10" d="M39.59 738h954.767" stroke-linecap="square"/><path stroke="none" d="M137.502 758zm.946-6.89h.87v6.144h3.016V758h-3.886v-6.89zm4.16 6.89zm1.302-6.155c-.252 0-.426-.158-.426-.158-.173-.158-.173-.4-.173-.4 0-.25.18-.404.18-.404.18-.152.43-.152.43-.152.26 0 .43.16.43.16.18.16.18.41.18.41 0 .24-.17.4-.17.4-.17.16-.42.16-.42.16zm0 0zm-.44 1.05h.86V758h-.86v-5.105zm1.72 5.105zm.863-5.105h.714l.074.735h.04c.37-.367.77-.614.77-.614.41-.247.94-.247.94-.247.81 0 1.18.5 1.18.5.38.5.38 1.49.38 1.49V758h-.86v-3.12c0-.724-.23-1.045-.23-1.045-.23-.32-.73-.32-.73-.32-.39 0-.7.2-.7.2-.3.2-.69.588-.69.588V758h-.86v-5.105zm4.884 5.105zm.788-5.105h.872v3.12c0 .724.226 1.045.226 1.045.225.32.73.32.73.32.4 0 .703-.205.703-.205.305-.204.673-.656.673-.656v-3.63h.86V758h-.72l-.08-.798h-.03c-.36.42-.75.672-.75.672-.4.252-.93.252-.93.252-.82 0-1.2-.504-1.2-.504-.38-.504-.38-1.492-.38-1.492v-3.235zm4.927 5.105zm1.817-2.668l-1.55-2.437h.93l.68 1.124c.11.21.24.42.24.42.12.21.26.42.26.42h.04l.23-.43.23-.43.62-1.13h.9l-1.55 2.53 1.66 2.57h-.94l-.74-1.19-.28-.46-.29-.45h-.05c-.14.22-.26.44-.26.44-.13.22-.25.47-.25.47l-.69 1.19h-.91zm2.86 2.668zm.68-4.317c0-.305.18-.49.18-.49.18-.182.44-.182.44-.182.25 0 .43.19.43.19.18.19.18.49.18.49 0 .28-.19.47-.19.47-.18.19-.44.19-.44.19-.26 0-.44-.18-.44-.18-.19-.18-.19-.46-.19-.46zm0 0zm0 3.792c0-.305.18-.49.18-.49.18-.182.44-.182.44-.182.25 0 .43.183.43.183.18.184.18.49.18.49 0 .282-.19.466-.19.466-.18.184-.44.184-.44.184-.26 0-.44-.184-.44-.184-.19-.184-.19-.467-.19-.467zm4.05.525zm2.47-3.256c.32 0 .7-.205.7-.205.37-.21.7-.69.7-.69-.09-.99-.46-1.49-.46-1.49-.38-.51-1.02-.51-1.02-.51-.24 0-.46.1-.46.1-.22.1-.38.3-.38.3-.16.19-.25.46-.25.46-.09.27-.09.6-.09.6 0 .66.3 1.04.3 1.04.3.37.93.37.93.37zm0 0zm-1.45 2.132c.21.242.5.39.5.39.28.146.6.146.6.146.35 0 .67-.147.67-.147.31-.147.56-.49.56-.49.24-.34.39-.886.39-.886.14-.55.16-1.36.16-1.36-.32.4-.74.63-.74.63-.42.23-.84.23-.84.23-.88 0-1.39-.52-1.39-.52-.52-.52-.52-1.56-.52-1.56 0-.49.16-.88.16-.88.15-.4.42-.68.42-.68.26-.28.63-.44.63-.44.36-.16.76-.16.76-.16.49 0 .92.2.92.2.42.2.73.6.73.6.31.4.48 1.01.48 1.01.17.6.17 1.41.17 1.41 0 1.01-.21 1.72-.21 1.72-.21.71-.57 1.15-.57 1.15-.36.44-.82.65-.82.65-.46.2-.96.2-.96.2-.54 0-.94-.2-.94-.2-.4-.2-.68-.51-.68-.51zm4.2 1.124zm.68-1.355c.29.305.7.536.7.536.4.24.99.24.99.24.3 0 .57-.11.57-.11.27-.11.46-.31.46-.31.2-.2.31-.48.31-.48.11-.28.11-.63.11-.63 0-.69-.39-1.08-.39-1.08-.39-.39-1.04-.39-1.04-.39-.35 0-.59.11-.59.11-.25.11-.56.31-.56.31l-.46-.29.22-3.22h3.35v.75h-2.59l-.18 1.99c.24-.13.48-.2.48-.2.24-.07.54-.07.54-.07.43 0 .81.13.81.13.38.13.66.39.66.39.28.26.45.65.45.65.16.4.16.94.16.94 0 .55-.19.97-.19.97-.19.42-.51.71-.51.71-.32.29-.72.44-.72.44-.41.15-.85.15-.85.15-.4 0-.73-.08-.73-.08-.33-.08-.6-.2-.6-.2-.27-.12-.48-.28-.48-.28-.22-.16-.39-.34-.39-.34zM176.5 758zm2.816-.557c.252 0 .462-.105.462-.105.21-.105.365-.3.365-.3.156-.193.246-.46.246-.46.09-.27.09-.605.09-.605 0-.662-.31-1.04-.31-1.04-.31-.378-.94-.378-.94-.378-.32 0-.69.204-.69.204-.38.2-.71.67-.71.67.08.98.45 1.49.45 1.49.37.51 1.01.51 1.01.51zm0 0zm1.376-5.02c-.21-.242-.5-.384-.5-.384-.288-.15-.603-.15-.603-.15-.35 0-.66.14-.66.14-.32.14-.56.48-.56.48-.25.33-.39.87-.39.87-.15.54-.16 1.34-.16 1.34.31-.39.73-.62.73-.62.42-.23.83-.23.83-.23.87 0 1.39.51 1.39.51.52.51.52 1.55.52 1.55 0 .48-.16.88-.16.88-.16.39-.43.67-.43.67-.28.28-.63.44-.63.44-.36.15-.77.15-.77.15-.5 0-.92-.2-.92-.2-.42-.2-.73-.61-.73-.61-.31-.4-.49-1.01-.49-1.01-.18-.6-.18-1.41-.18-1.41 0-1.01.21-1.72.21-1.72.21-.71.56-1.15.56-1.15.36-.45.82-.65.82-.65.45-.21.96-.21.96-.21.54 0 .94.2.94.2.39.2.67.51.67.51zM372.35 758zm.86-5.105h.715l.074.735h.03c.33-.367.73-.614.73-.614.39-.247.85-.247.85-.247.59 0 .92.25.92.25.33.26.49.72.49.72.4-.44.8-.71.8-.71.4-.27.88-.27.88-.27.78 0 1.17.5 1.17.5.38.5.38 1.49.38 1.49V758h-.86v-3.12c0-.724-.23-1.045-.23-1.045-.23-.32-.72-.32-.72-.32-.58 0-1.28.788-1.28.788V758h-.87v-3.12c0-.724-.23-1.045-.23-1.045-.24-.32-.73-.32-.73-.32-.58 0-1.28.788-1.28.788V758h-.86v-5.105zm7.85 5.105zm.61-1.323c0-.84.75-1.287.75-1.287.75-.447 2.39-.625 2.39-.625 0-.242-.048-.473-.048-.473-.047-.23-.168-.41-.168-.41-.12-.178-.32-.29-.32-.29-.2-.11-.515-.11-.515-.11-.46 0-.84.17-.84.17-.39.167-.69.377-.69.377l-.35-.6c.35-.23.87-.45.87-.45.51-.22 1.13-.22 1.13-.22.93 0 1.35.57 1.35.57.42.57.42 1.53.42 1.53V758h-.72l-.07-.61h-.02c-.37.306-.8.52-.8.52-.43.216-.9.216-.9.216-.65 0-1.08-.378-1.08-.378-.42-.378-.42-1.07-.42-1.07zm0 0zm.85-.064c0 .442.257.63.257.63.257.19.636.19.636.19.368 0 .7-.173.7-.173.33-.174.698-.51.698-.51v-1.418c-.64.084-1.08.2-1.08.2-.44.115-.71.273-.71.273-.26.157-.38.362-.38.362-.11.205-.11.446-.11.446zm3.918 1.387zm.483-2.542c0-.64.2-1.14.2-1.14.2-.5.54-.845.54-.845.34-.347.79-.525.79-.525.45-.18.94-.18.94-.18.51 0 .87.185.87.185.37.184.63.425.63.425l-.43.557c-.23-.2-.48-.326-.48-.326-.24-.13-.55-.13-.55-.13-.34 0-.64.14-.64.14-.29.14-.5.4-.5.4-.21.26-.33.62-.33.62-.12.36-.12.8-.12.8 0 .44.11.8.11.8.12.35.32.61.32.61.21.25.5.4.5.4.3.14.64.14.64.14.37 0 .67-.15.67-.15.3-.16.53-.37.53-.37l.39.56c-.34.3-.77.48-.77.48-.42.18-.89.18-.89.18-.5 0-.94-.18-.94-.18-.44-.18-.76-.52-.76-.52-.32-.34-.5-.84-.5-.84-.18-.5-.18-1.13-.18-1.13zm4.31 2.542zm3.49.126c-.65 0-1.19-.252-1.19-.252-.54-.252-.93-.72-.93-.72-.38-.467-.6-1.134-.6-1.134-.21-.667-.21-1.497-.21-1.497 0-.83.22-1.486.22-1.486.22-.657.61-1.114.61-1.114.39-.456.93-.698.93-.698.55-.242 1.2-.242 1.2-.242.65 0 1.19.247 1.19.247.54.247.94.704.94.704.4.457.61 1.113.61 1.113.22.657.22 1.476.22 1.476 0 .83-.21 1.497-.21 1.497-.21.667-.61 1.135-.61 1.135-.39.467-.93.72-.93.72-.54.25-1.19.25-1.19.25zm0 0zm0-.767c.46 0 .84-.2.84-.2.37-.2.64-.58.64-.58.27-.38.42-.9.42-.9.15-.52.15-1.17.15-1.17 0-.64-.14-1.16-.14-1.16-.14-.52-.41-.87-.41-.87-.27-.36-.64-.56-.64-.56-.37-.19-.83-.19-.83-.19-.46 0-.84.19-.84.19-.37.19-.64.55-.64.55-.27.35-.42.87-.42.87-.15.51-.15 1.15-.15 1.15 0 .65.15 1.17.15 1.17.15.52.42.89.42.89.27.37.64.57.64.57.38.2.84.2.84.2zm3.49.64zm.97-1.51c.37.39.87.62.87.62.5.23 1.04.23 1.04.23.69 0 1.06-.31 1.06-.31.38-.31.38-.82.38-.82 0-.26-.09-.45-.09-.45-.09-.19-.24-.32-.24-.32-.15-.13-.36-.24-.36-.24-.21-.11-.45-.22-.45-.22l-.99-.43c-.24-.11-.49-.26-.49-.26-.25-.15-.45-.36-.45-.36-.2-.21-.32-.5-.32-.5-.12-.29-.12-.66-.12-.66 0-.39.17-.73.17-.73.17-.34.45-.59.45-.59.29-.25.69-.39.69-.39.39-.14.87-.14.87-.14.62 0 1.15.23 1.15.23.53.23.9.61.9.61l-.47.56c-.31-.31-.7-.48-.7-.48-.38-.17-.86-.17-.86-.17-.57 0-.93.27-.93.27-.35.27-.35.74-.35.74 0 .25.1.43.1.43.1.17.27.3.27.3.17.13.37.23.37.23.2.1.41.19.41.19l.98.42c.29.12.56.29.56.29.26.16.45.38.45.38.19.21.3.5.3.5.11.29.11.66.11.66 0 .41-.16.76-.16.76-.16.36-.47.62-.47.62-.31.27-.74.42-.74.42-.43.15-.97.15-.97.15-.72 0-1.34-.27-1.34-.27-.62-.27-1.07-.74-1.07-.74zm4.64 1.5zm.68-4.32c0-.31.19-.49.19-.49.19-.19.45-.19.45-.19.25 0 .44.18.44.18.19.18.19.49.19.49 0 .28-.18.46-.18.46-.18.18-.43.18-.43.18-.26 0-.45-.18-.45-.18-.18-.18-.18-.47-.18-.47zm0 0zm0 3.79c0-.31.19-.49.19-.49.19-.18.45-.18.45-.18.25 0 .44.18.44.18.19.18.19.49.19.49 0 .28-.18.46-.18.46-.18.18-.43.18-.43.18-.26 0-.45-.19-.45-.19-.18-.19-.18-.47-.18-.47zm4.06.52zm.69-1.36c.3.3.7.53.7.53.41.23 1 .23 1 .23.31 0 .58-.11.58-.11.27-.11.47-.31.47-.31.2-.2.32-.49.32-.49.12-.29.12-.63.12-.63 0-.7-.39-1.09-.39-1.09-.39-.39-1.04-.39-1.04-.39-.35 0-.59.1-.59.1-.24.1-.55.3-.55.3l-.46-.3.22-3.23h3.35v.74h-2.59l-.18 1.98c.24-.13.48-.2.48-.2.24-.08.55-.08.55-.08.43 0 .81.13.81.13.37.13.66.39.66.39.28.25.44.65.44.65.17.39.17.94.17.94 0 .54-.19.97-.19.97-.19.42-.5.71-.5.71-.31.28-.72.44-.72.44-.4.15-.84.15-.84.15-.4 0-.73-.08-.73-.08-.33-.08-.6-.21-.6-.21-.26-.13-.48-.29-.48-.29-.22-.16-.38-.34-.38-.34zm4.54 1.36zm2.62.12c-1.02 0-1.58-.91-1.58-.91-.57-.91-.57-2.6-.57-2.6 0-1.69.57-2.57.57-2.57.57-.89 1.59-.89 1.59-.89 1.01 0 1.58.88 1.58.88.57.88.57 2.57.57 2.57 0 1.69-.56 2.59-.56 2.59-.57.9-1.57.9-1.57.9zm0 0zm0-.7c.3 0 .53-.17.53-.17.24-.17.41-.51.41-.51.18-.35.27-.88.27-.88.1-.53.1-1.27.1-1.27 0-.74-.09-1.26-.09-1.26-.09-.53-.26-.86-.26-.86-.17-.33-.41-.49-.41-.49-.24-.16-.53-.16-.53-.16-.3 0-.54.16-.54.16-.24.16-.41.49-.41.49-.17.33-.27.85-.27.85-.09.52-.09 1.26-.09 1.26 0 1.47.36 2.14.36 2.14.37.66.95.66.95.66zm2.61.56zm1.86 0c.04-.95.17-1.74.17-1.74.13-.79.35-1.5.35-1.5.23-.71.58-1.37.58-1.37.36-.66.85-1.36.85-1.36h-3.34v-.74h4.32v.53c-.6.76-.97 1.45-.97 1.45-.37.7-.59 1.41-.59 1.41-.22.72-.32 1.52-.32 1.52-.1.8-.14 1.78-.14 1.78h-.89zm185.66 0zm.24-6.89h.91l.73 3.75.2 1.11c.11.54.2 1.11.2 1.11h.04c.12-.57.24-1.12.24-1.12.13-.55.24-1.11.24-1.11l.96-3.75h.8l.96 3.75c.13.54.26 1.1.26 1.1l.25 1.12h.05l.19-1.12.2-1.11.73-3.75h.84l-1.43 6.9h-1.05l-1.04-4.15c-.1-.4-.17-.78-.17-.78l-.17-.79h-.04c-.08.4-.17.78-.17.78-.09.38-.17.78-.17.78l-1.02 4.15h-1.04zm8.02 6.89zm1.3-6.16c-.25 0-.42-.16-.42-.16-.17-.16-.17-.4-.17-.4 0-.25.18-.41.18-.41.17-.15.43-.15.43-.15.25 0 .43.15.43.15.17.15.17.4.17.4 0 .24-.17.4-.17.4-.17.15-.42.15-.42.15zm0 0zm-.44 1.05h.86V758h-.86v-5.105zm1.72 5.1zm.86-5.11h.72l.07.73h.03c.37-.37.78-.62.78-.62.41-.25.94-.25.94-.25.81 0 1.18.5 1.18.5.37.5.37 1.49.37 1.49v3.3h-.86v-3.12c0-.73-.23-1.05-.23-1.05-.23-.32-.73-.32-.73-.32-.4 0-.7.2-.7.2-.3.2-.69.59-.69.59v3.7h-.86v-5.11zm4.89 5.11zm.49-2.55c0-.62.19-1.12.19-1.12.19-.5.49-.85.49-.85.3-.35.7-.54.7-.54.4-.19.84-.19.84-.19.44 0 .76.16.76.16.33.16.67.43.67.43l-.04-.87v-1.96h.87v7.5h-.71l-.07-.6h-.03c-.31.29-.7.51-.7.51-.4.21-.85.21-.85.21-.96 0-1.54-.69-1.54-.69-.57-.7-.57-1.98-.57-1.98zm0 0zm.9-.01c0 .92.37 1.44.37 1.44.37.51 1.04.51 1.04.51.36 0 .68-.17.68-.17.32-.17.63-.53.63-.53V754c-.32-.29-.62-.41-.62-.41-.29-.12-.61-.12-.61-.12-.3 0-.57.14-.57.14-.27.14-.47.4-.47.4-.2.256-.32.613-.32.613-.11.357-.11.8-.11.8zm4.44 2.55zm.48-2.55c0-.64.2-1.14.2-1.14.2-.5.52-.85.52-.85.33-.35.75-.53.75-.53.43-.18.9-.18.9-.18.47 0 .9.18.9.18.43.18.75.52.75.52.33.34.52.84.52.84.2.5.2 1.14.2 1.14 0 .63-.19 1.13-.19 1.13-.19.5-.52.84-.52.84-.32.34-.75.52-.75.52-.42.18-.9.18-.9.18-.47 0-.89-.18-.89-.18-.43-.18-.75-.52-.75-.52-.33-.34-.52-.84-.52-.84-.2-.5-.2-1.13-.2-1.13zm0 0zm.89 0c0 .44.11.8.11.8.11.36.3.61.3.61.19.26.47.4.47.4.27.15.6.15.6.15.32 0 .6-.14.6-.14.27-.14.47-.4.47-.4.2-.26.3-.62.3-.62.11-.36.11-.8.11-.8 0-.44-.11-.81-.11-.81-.1-.37-.29-.63-.29-.63-.2-.26-.47-.4-.47-.4-.27-.14-.6-.14-.6-.14-.32 0-.6.14-.6.14-.27.14-.47.4-.47.4-.19.26-.3.62-.3.62-.1.36-.1.8-.1.8zm4.27 2.55zm.26-5.11h.88l.76 2.95c.09.36.16.71.16.71l.15.71h.04l.17-.71.18-.71.79-2.95h.84l.8 2.95.19.72c.09.35.18.71.18.71h.04l.16-.71c.07-.35.16-.71.16-.71l.74-2.95h.82l-1.4 5.13h-1.05l-.73-2.74c-.09-.37-.17-.73-.17-.73-.08-.36-.17-.75-.17-.75h-.04c-.08.39-.16.75-.16.75-.08.36-.19.73-.19.73l-.72 2.73h-1.01zm7.29 5.1zm.73-1.16c.34.27.69.44.69.44.35.17.81.17.81.17.51 0 .76-.23.76-.23.25-.23.25-.57.25-.57 0-.2-.1-.35-.1-.35-.11-.15-.27-.26-.27-.26-.16-.11-.37-.2-.37-.2l-.42-.17c-.27-.1-.54-.22-.54-.22-.27-.12-.49-.29-.49-.29-.21-.18-.35-.41-.35-.41-.14-.23-.14-.56-.14-.56 0-.31.12-.58.12-.58.12-.27.34-.46.34-.46.22-.19.55-.3.55-.3.32-.11.73-.11.73-.11.48 0 .89.17.89.17.4.16.7.41.7.41l-.41.54c-.26-.2-.55-.33-.55-.33-.28-.13-.62-.13-.62-.13-.48 0-.71.22-.71.22-.22.22-.22.51-.22.51 0 .18.09.31.09.31.09.13.25.23.25.23.16.1.36.18.36.18l.43.16c.27.1.55.22.55.22.28.11.5.29.5.29.22.17.36.42.36.42.15.25.15.61.15.61 0 .31-.12.58-.12.58-.12.27-.35.48-.35.48-.23.21-.59.33-.59.33-.35.12-.8.12-.8.12-.54 0-1.04-.2-1.04-.2-.49-.2-.86-.51-.86-.51zm3.68 1.15zm.69-4.32c0-.31.18-.49.18-.49.18-.18.45-.18.45-.18.25 0 .43.19.43.19.19.19.19.49.19.49 0 .28-.19.47-.19.47-.18.18-.43.18-.43.18-.26 0-.45-.18-.45-.18-.18-.18-.18-.47-.18-.47zm0 0zm0 3.79c0-.31.18-.49.18-.49.18-.18.45-.18.45-.18.25 0 .43.18.43.18.19.19.19.49.19.49 0 .28-.19.47-.19.47-.18.19-.43.19-.43.19-.26 0-.45-.19-.45-.19-.18-.18-.18-.47-.18-.47zm4.05.52zm.43-.51c.76-.75 1.35-1.36 1.35-1.36.59-.61.99-1.13.99-1.13.4-.52.61-.96.61-.96.21-.44.21-.85.21-.85 0-.58-.31-.95-.31-.95-.31-.37-.95-.37-.95-.37-.42 0-.78.23-.78.23-.36.23-.65.57-.65.57l-.49-.5c.42-.46.89-.74.89-.74.47-.28 1.14-.28 1.14-.28.94 0 1.47.54 1.47.54.54.54.54 1.43.54 1.43 0 .47-.205.95-.205.95-.202.48-.57.99-.57.99-.36.51-.86 1.06-.86 1.06-.5.55-1.09 1.17-1.09 1.17l.57-.04c.29-.02.553-.02.553-.02h1.9v.75h-4.33v-.52zm4.8.52zm.72-1.39c.31.32.71.56.71.56.41.24 1 .24 1 .24.61 0 1-.33 1-.33.39-.33.39-.9.39-.9 0-.29-.11-.54-.11-.54-.11-.25-.36-.43-.36-.43-.25-.18-.66-.28-.66-.28-.41-.1-1.01-.1-1.01-.1v-.67c.54 0 .9-.1.9-.1.36-.09.59-.26.59-.26.22-.17.32-.4.32-.4.09-.23.09-.49.09-.49 0-.49-.31-.78-.31-.78-.31-.29-.84-.29-.84-.29-.42 0-.77.19-.77.19-.35.19-.65.49-.65.49l-.47-.547c.39-.37.86-.6.86-.6.47-.24 1.07-.24 1.07-.24.44 0 .81.113.81.113.37.11.637.33.637.33.27.216.41.53.41.53.15.316.15.726.15.726 0 .61-.34 1-.34 1-.33.39-.88.6-.88.6v.04c.31.073.57.215.57.215.26.14.46.35.46.35.2.212.31.5.31.5.11.28.11.63.11.63 0 .44-.173.794-.173.794-.17.356-.47.6-.47.6-.3.25-.7.38-.7.38-.4.13-.86.13-.86.13-.4 0-.73-.08-.73-.08-.33-.076-.6-.21-.6-.21-.27-.13-.49-.296-.49-.296-.21-.17-.38-.36-.38-.36zm4.5 1.39zm.72-1.39c.3.31.71.56.71.56.4.24 1 .24 1 .24.61 0 1-.33 1-.33.39-.33.39-.9.39-.9 0-.29-.11-.54-.11-.54-.11-.25-.36-.43-.36-.43-.25-.18-.66-.28-.66-.28-.41-.096-1-.096-1-.096v-.67c.54 0 .9-.1.9-.1.37-.094.59-.26.59-.26.23-.17.32-.4.32-.4.1-.23.1-.495.1-.495 0-.49-.31-.774-.31-.774-.31-.286-.85-.286-.85-.286-.42 0-.77.19-.77.19-.35.19-.66.49-.66.49l-.46-.55c.39-.37.86-.605.86-.605.47-.24 1.06-.24 1.06-.24.44 0 .81.114.81.114.37.12.63.33.63.33.27.22.42.53.42.53.14.32.14.73.14.73 0 .61-.33 1-.33 1-.34.39-.88.6-.88.6v.04c.3.08.56.22.56.22.26.14.46.36.46.36.2.21.31.5.31.5.11.28.11.63.11.63 0 .44-.17.79-.17.79-.17.352-.47.6-.47.6-.3.25-.7.38-.7.38-.4.13-.86.13-.86.13-.4 0-.73-.08-.73-.08-.33-.08-.6-.21-.6-.21-.27-.13-.48-.3-.48-.3-.21-.17-.38-.36-.38-.36zM855.36 758zm3.49.126c-.65 0-1.19-.252-1.19-.252-.54-.252-.93-.72-.93-.72-.39-.467-.604-1.134-.604-1.134-.22-.667-.22-1.497-.22-1.497 0-.83.21-1.486.21-1.486.214-.657.603-1.114.603-1.114.39-.456.93-.698.93-.698.54-.242 1.19-.242 1.19-.242.65 0 1.19.247 1.19.247.54.247.93.704.93.704.39.457.61 1.113.61 1.113.21.657.21 1.476.21 1.476 0 .83-.22 1.497-.22 1.497-.22.667-.61 1.135-.61 1.135-.4.467-.94.72-.94.72-.54.25-1.19.25-1.19.25zm0 0zm0-.767c.46 0 .837-.2.837-.2.38-.2.65-.58.65-.58.27-.38.42-.9.42-.9.15-.52.15-1.17.15-1.17 0-.64-.146-1.16-.146-1.16-.15-.52-.41-.87-.41-.87-.27-.36-.64-.56-.64-.56-.38-.19-.84-.19-.84-.19-.47 0-.84.19-.84.19-.37.19-.64.55-.64.55-.26.35-.41.87-.41.87-.15.51-.15 1.15-.15 1.15 0 .65.15 1.17.15 1.17.15.52.42.89.42.89.27.37.64.57.64.57.37.2.84.2.84.2zm3.49.64zm1.01-4.4h-.76v-.66l.8-.05.105-1.43h.72v1.43h1.37v.7h-1.38v2.83c0 .47.17.73.17.73.17.25.61.25.61.25.14 0 .293-.05.293-.05.16-.04.29-.1.29-.1l.168.65c-.21.07-.455.13-.455.13-.25.06-.49.06-.49.06-.41 0-.68-.13-.68-.13-.28-.13-.45-.35-.45-.35-.17-.22-.24-.54-.24-.54-.07-.32-.07-.7-.07-.7v-2.82zm2.54 4.4zm.86-7.48h.86v2.04l-.03 1.05c.368-.35.768-.6.768-.6.4-.25.94-.25.94-.25.81 0 1.18.5 1.18.5.37.5.37 1.49.37 1.49V758h-.86v-3.12c0-.725-.23-1.045-.23-1.045-.23-.32-.74-.32-.74-.32-.4 0-.71.2-.71.2-.303.2-.692.587-.692.587V758h-.86v-7.48zm4.854 7.48zm.483-2.55c0-.63.2-1.13.2-1.13.2-.5.52-.85.52-.85.32-.35.73-.53.73-.53.41-.19.85-.19.85-.19.49 0 .87.16.87.16.38.17.64.48.64.48.26.31.4.76.4.76.14.44.14.99.14.99 0 .28-.033.47-.033.47h-3.45c.054.83.51 1.31.51 1.31.458.48 1.194.48 1.194.48.37 0 .68-.11.68-.11.31-.11.6-.29.6-.29l.303.57c-.33.21-.74.37-.74.37-.41.15-.93.15-.93.15-.51 0-.96-.19-.96-.19-.44-.18-.77-.52-.77-.52-.33-.34-.52-.84-.52-.84-.19-.49-.19-1.12-.19-1.12zm0 0zm3.58-.39c0-.79-.33-1.2-.33-1.2-.33-.42-.93-.42-.93-.42-.27 0-.52.11-.52.11-.25.11-.44.31-.44.31-.2.2-.33.5-.33.5-.13.3-.17.69-.17.69h2.734zm1.16 2.94zm.86-5.11h.72l.075.92h.03c.26-.49.636-.77.636-.77.374-.28.815-.28.815-.28.302 0 .544.1.544.1l-.17.75c-.127-.04-.23-.07-.23-.07-.107-.02-.264-.02-.264-.02-.324 0-.68.26-.68.26-.35.26-.612.91-.612.91v3.3h-.86v-5.11zm2.79 5.1zm.684-4.32c0-.31.19-.49.19-.49.19-.18.45-.18.45-.18.25 0 .44.18.44.18.18.18.18.49.18.49 0 .28-.18.46-.18.46-.18.18-.43.18-.43.18-.26 0-.45-.19-.45-.19-.18-.19-.18-.47-.18-.47zm0 0zm0 3.79c0-.31.19-.49.19-.49.19-.18.45-.18.45-.18.25 0 .44.18.44.18.18.18.18.49.18.49 0 .28-.18.46-.18.46-.18.18-.43.18-.43.18-.26 0-.45-.19-.45-.19-.18-.18-.18-.47-.18-.47zm4.06.52zm.72-1.39c.31.31.71.55.71.55.41.24 1 .24 1 .24.61 0 1-.33 1-.33.39-.33.39-.9.39-.9 0-.29-.11-.54-.11-.54-.11-.25-.36-.43-.36-.43-.25-.18-.66-.28-.66-.28-.41-.1-1.01-.1-1.01-.1v-.67c.54 0 .9-.1.9-.1.36-.1.59-.26.59-.26.23-.17.32-.4.32-.4.1-.23.1-.5.1-.5 0-.49-.31-.78-.31-.78-.31-.28-.84-.28-.84-.28-.42 0-.77.19-.77.19-.35.19-.65.49-.65.49l-.46-.55c.39-.37.86-.6.86-.6.47-.24 1.07-.24 1.07-.24.44 0 .81.11.81.11.37.12.63.33.63.33.27.22.42.53.42.53.15.32.15.73.15.73 0 .61-.33 1-.33 1-.33.39-.88.6-.88.6v.04c.31.07.57.21.57.21.26.14.46.36.46.36.2.21.31.5.31.5.11.28.11.63.11.63 0 .44-.17.79-.17.79-.17.36-.47.6-.47.6-.3.25-.7.38-.7.38-.4.13-.86.13-.86.13-.4 0-.73-.08-.73-.08-.33-.08-.6-.21-.6-.21-.27-.13-.49-.3-.49-.3-.21-.17-.38-.36-.38-.36zm4.51 1.39zm1.86 0c.04-.95.17-1.74.17-1.74.13-.79.35-1.5.35-1.5.23-.71.58-1.37.58-1.37.35-.67.85-1.36.85-1.36h-3.34v-.75h4.31v.53c-.6.75-.97 1.45-.97 1.45-.37.69-.6 1.41-.6 1.41-.22.72-.32 1.52-.32 1.52-.1.8-.14 1.78-.14 1.78h-.89z"/></svg>