<svg xmlns="http://www.w3.org/2000/svg" stroke="#000" viewBox="0 0 1024 768" font-size="1"><path fill="#FFF" stroke="none" d="M0 0v768h1024V0z"/><path stroke="none" d="M386.356 14.102zm.215-10.04h2.33l.7 4.696.2 1.578c.11.793.2 1.594.2 1.594h.07c.16-.8.3-1.594.3-1.594l.3-1.578 1.08-4.697h1.93l1.08 4.7c.16.77.3 1.57.3 1.57l.3 1.61h.06c.11-.81.21-1.6.21-1.6.1-.78.21-1.57.21-1.57l.7-4.69h2.17l-1.8 10.03h-2.85l-.98-4.56c-.12-.58-.22-1.17-.22-1.17-.1-.59-.18-1.14-.18-1.14h-.06l-.19 1.15c-.1.6-.22 1.18-.22 1.18l-.94 4.56h-2.8zm12.31 10.04zm1-10.796h2.27v2.65l-.1 1.37c.43-.386 1-.717 1-.717.57-.34 1.36-.34 1.36-.34 1.25 0 1.81.81 1.81.81.56.81.56 2.26.56 2.26v4.75h-2.27V9.65c0-.832-.22-1.14-.22-1.14-.22-.31-.71-.31-.71-.31-.43 0-.74.195-.74.195-.3.192-.67.547-.67.547v5.16h-2.27V3.305zm7.8 10.796zm2.12-8.762c-.57 0-.94-.335-.94-.335-.37-.33-.37-.855-.37-.855 0-.523.37-.846.37-.846.37-.323.94-.323.94-.323.59 0 .95.33.95.33.36.33.36.85.36.85 0 .53-.36.86-.36.86-.36.33-.94.33-.94.33zm0 0zm-1.12 1.12h2.27v7.64h-2.26V6.46zm3.25 7.64zm.56-3.82c0-.956.33-1.7.33-1.7.33-.748.87-1.257.87-1.257.55-.508 1.27-.777 1.27-.777.73-.27 1.51-.27 1.51-.27.71 0 1.28.24 1.28.24.57.238.96.638.96.638l-1.03 1.4c-.54-.445-1.06-.445-1.06-.445-.83 0-1.31.58-1.31.58-.47.58-.47 1.58-.47 1.58 0 1 .48 1.58.48 1.58.49.58 1.23.58 1.23.58.42 0 .76-.17.76-.17.34-.17.61-.39.61-.39l.91 1.43c-.55.49-1.23.72-1.23.72-.68.23-1.31.23-1.31.23-.8 0-1.48-.27-1.48-.27-.68-.27-1.19-.78-1.19-.78-.5-.51-.8-1.26-.8-1.26-.29-.75-.29-1.7-.29-1.7zm6.64 3.82zm1-10.797h2.27v2.65l-.11 1.37c.43-.386 1-.717 1-.717.57-.332 1.36-.332 1.36-.332 1.25 0 1.81.816 1.81.816.56.818.56 2.265.56 2.265V14.1h-2.26V9.65c0-.833-.22-1.14-.22-1.14-.22-.31-.71-.31-.71-.31-.43 0-.74.194-.74.194-.3.192-.67.547-.67.547v5.16h-2.26V3.31zM431.11 14.1zm.555-3.82c0-.923.308-1.67.308-1.67.308-.747.808-1.262.808-1.262.5-.517 1.15-.795 1.15-.795.65-.277 1.34-.277 1.34-.277.82 0 1.43.278 1.43.278.61.277 1.02.77 1.02.77.41.492.61 1.162.61 1.162.2.67.2 1.455.2 1.455 0 .31-.03.57-.03.57-.03.26-.06.39-.06.39h-4.57c.16.88.69 1.27.69 1.27.53.4 1.3.4 1.3.4.82 0 1.65-.5 1.65-.5l.76 1.37c-.58.4-1.3.63-1.3.63-.71.23-1.41.23-1.41.23-.81 0-1.52-.27-1.52-.27-.7-.27-1.23-.78-1.23-.78-.52-.51-.81-1.25-.81-1.25-.29-.74-.29-1.69-.29-1.69zm0 0zm4.928-.784c0-.662-.293-1.078-.293-1.078-.293-.417-.986-.417-.986-.417-.54 0-.947.37-.947.37-.408.36-.532 1.13-.532 1.13h2.757zm2.495 4.605zm.6-3.82c0-.94.27-1.67.27-1.67.27-.74.708-1.25.708-1.25.44-.51 1.017-.79 1.017-.79.577-.27 1.178-.27 1.178-.27.65 0 1.07.22 1.07.22.42.22.82.59.82.59l-.09-1.17V3.31h2.27V14.1h-1.84l-.15-.754h-.06c-.4.4-.94.67-.94.67-.54.27-1.09.27-1.09.27-.71 0-1.28-.278-1.28-.278-.58-.278-.98-.794-.98-.794-.41-.516-.63-1.255-.63-1.255-.22-.74-.22-1.68-.22-1.68zm0 0zm2.326-.03c0 1.14.362 1.67.362 1.67.362.53 1.024.53 1.024.53.368 0 .67-.15.67-.15.3-.15.576-.54.576-.54V8.62c-.308-.278-.63-.386-.63-.386-.325-.108-.633-.108-.633-.108-.54 0-.954.516-.954.516-.42.516-.42 1.61-.42 1.61zm5.898 3.85zm2.126-8.76c-.57 0-.94-.33-.94-.33-.37-.33-.37-.85-.37-.85 0-.52.37-.84.37-.84.37-.32.94-.32.94-.32.586 0 .948.33.948.33.36.33.36.85.36.85 0 .53-.36.86-.36.86-.362.33-.948.33-.948.33zm0 0zm-1.124 1.13h2.264v7.64h-2.264V6.46zm3.25 7.64zm1.31-5.87h-1.048V6.56l1.17-.09.262-2.035h1.88V6.47h1.83v1.77h-1.83v3.06c0 .646.268.93.268.93.27.285.716.285.716.285.185 0 .377-.046.377-.046.19-.05.34-.11.34-.11l.35 1.65c-.31.09-.73.18-.73.18-.42.09-.97.09-.97.09-.71 0-1.21-.22-1.21-.22-.5-.22-.82-.6-.82-.6-.32-.39-.46-.94-.46-.94-.15-.55-.15-1.21-.15-1.21V8.23zm4.434 5.87zm.555-3.82c0-.95.31-1.7.31-1.7.307-.74.822-1.25.822-1.25.516-.51 1.194-.77 1.194-.77.67-.27 1.4-.27 1.4-.27.72 0 1.39.27 1.39.27.67.27 1.18.78 1.18.78.51.51.82 1.26.82 1.26.31.75.31 1.7.31 1.7 0 .96-.31 1.7-.31 1.7-.31.75-.83 1.26-.83 1.26-.52.51-1.19.78-1.19.78-.67.27-1.4.27-1.4.27-.73 0-1.4-.27-1.4-.27-.68-.27-1.2-.78-1.2-.78-.52-.51-.83-1.25-.83-1.25-.31-.75-.31-1.7-.31-1.7zm0 0zm2.326 0c0 1 .34 1.59.34 1.59.34.59 1.05.59 1.05.59.69 0 1.04-.58 1.04-.58.35-.58.35-1.59.35-1.59 0-1-.36-1.58-.36-1.58-.36-.58-1.05-.58-1.05-.58-.71 0-1.06.59-1.06.59-.35.59-.35 1.59-.35 1.59zm5.66 3.82zm1-7.64h1.85l.15 1.34h.06c.41-.78 1-1.15 1-1.15.58-.37 1.17-.37 1.17-.37.32 0 .53.04.53.04.21.04.38.12.38.12l-.37 1.96c-.22-.06-.4-.09-.4-.09-.19-.03-.43-.03-.43-.03-.44 0-.91.31-.91.31-.47.31-.78 1.1-.78 1.1v4.43h-2.27V6.46zm4.97 7.64zm1.34-2.29c.52.4 1 .6 1 .6.47.2.97.2.97.2.51 0 .74-.17.74-.17.23-.17.23-.47.23-.47 0-.18-.13-.33-.13-.33-.13-.14-.36-.27-.36-.27-.23-.12-.5-.22-.5-.22-.28-.1-.57-.22-.57-.22-.36-.14-.71-.32-.71-.32-.36-.18-.65-.45-.65-.45-.3-.27-.48-.63-.48-.63-.19-.36-.19-.84-.19-.84 0-.52.21-.97.21-.97.21-.44.59-.75.59-.75.38-.3.92-.48.92-.48.54-.18 1.2-.18 1.2-.18.88 0 1.54.3 1.54.3.66.3 1.15.67 1.15.67l-1.02 1.36c-.42-.31-.82-.48-.82-.48-.4-.17-.8-.17-.8-.17-.87 0-.87.6-.87.6 0 .19.12.32.12.32.12.13.33.24.33.24.21.1.48.2.48.2l.56.21c.37.14.73.32.73.32.36.18.66.44.66.44.3.26.48.64.48.64.18.38.18.9.18.9 0 .53-.2.97-.2.97-.2.45-.6.78-.6.78-.4.33-.99.53-.99.53-.59.19-1.36.19-1.36.19-.76 0-1.55-.29-1.55-.29-.79-.29-1.38-.77-1.38-.77zm8.68 2.3zm.6-3.82c0-.94.27-1.68.27-1.68.27-.74.71-1.25.71-1.25.44-.51 1.01-.79 1.01-.79.57-.27 1.17-.27 1.17-.27.64 0 1.06.22 1.06.22.42.22.82.59.82.59L488 5.93v-2.6h2.26V14.1h-1.85l-.15-.754h-.065c-.4.4-.94.67-.94.67-.537.27-1.09.27-1.09.27-.707 0-1.285-.278-1.285-.278-.576-.278-.984-.794-.984-.794-.4-.516-.63-1.255-.63-1.255-.22-.74-.22-1.68-.22-1.68zm0 0zm2.32-.03c0 1.14.36 1.67.36 1.67.36.53 1.02.53 1.02.53.37 0 .67-.15.67-.15.3-.15.58-.54.58-.54V8.62c-.31-.278-.63-.386-.63-.386-.33-.108-.63-.108-.63-.108-.54 0-.96.516-.96.516-.42.516-.42 1.61-.42 1.61zm5.9 3.85zm.55-3.82c0-.95.31-1.7.31-1.7.31-.75.82-1.25.82-1.25.51-.5 1.19-.77 1.19-.77.67-.27 1.4-.27 1.4-.27.72 0 1.39.27 1.39.27.67.27 1.18.78 1.18.78.51.51.82 1.26.82 1.26.3.75.3 1.7.3 1.7 0 .96-.31 1.71-.31 1.71-.31.75-.83 1.26-.83 1.26-.51.51-1.18.78-1.18.78-.67.27-1.4.27-1.4.27-.72 0-1.4-.27-1.4-.27-.68-.27-1.19-.78-1.19-.78-.52-.51-.83-1.25-.83-1.25-.31-.75-.31-1.7-.31-1.7zm0 0zm2.32 0c0 1 .34 1.59.34 1.59.34.59 1.05.59 1.05.59.69 0 1.05-.58 1.05-.58.35-.59.35-1.59.35-1.59 0-1-.36-1.58-.36-1.58-.36-.59-1.05-.59-1.05-.59-.71 0-1.06.59-1.06.59-.35.59-.35 1.59-.35 1.59zm8.87 3.82zm1.17 1.11l.25.07c.14.03.26.03.26.03.57 0 .87-.27.87-.27.3-.28.46-.72.46-.72l.1-.4-2.94-7.44h2.28l1.09 3.28c.17.53.31 1.07.31 1.07.13.54.29 1.11.29 1.11h.06c.12-.54.25-1.09.25-1.09.13-.55.27-1.09.27-1.09l.92-3.28h2.17l-2.65 7.72c-.28.73-.58 1.27-.58 1.27-.3.55-.69.91-.69.91-.4.36-.9.55-.9.55-.5.19-1.18.19-1.18.19-.36 0-.6-.04-.6-.04-.25-.03-.48-.11-.48-.11l.4-1.73zm6.73-1.1zm.55-3.82c0-.95.3-1.7.3-1.7.31-.75.82-1.25.82-1.25.51-.51 1.19-.77 1.19-.77.68-.27 1.4-.27 1.4-.27.72 0 1.39.27 1.39.27.67.27 1.18.78 1.18.78.52.51.82 1.26.82 1.26.3.75.3 1.7.3 1.7 0 .96-.31 1.71-.31 1.71-.31.75-.83 1.26-.83 1.26-.52.51-1.19.78-1.19.78-.67.27-1.39.27-1.39.27-.73 0-1.4-.27-1.4-.27-.68-.27-1.2-.78-1.2-.78-.52-.51-.82-1.25-.82-1.25-.31-.74-.31-1.7-.31-1.7zm0 0zm2.32 0c0 1 .34 1.59.34 1.59.35.59 1.06.59 1.06.59.69 0 1.05-.58 1.05-.58.35-.58.35-1.58.35-1.58 0-1-.36-1.58-.36-1.58-.36-.58-1.05-.58-1.05-.58-.71 0-1.06.59-1.06.59-.35.58-.35 1.58-.35 1.58zm5.67 3.82zm.92-7.64h2.27v4.45c0 .83.23 1.14.23 1.14.23.31.72.31.72.31.43 0 .72-.2.72-.2.29-.2.63-.64.63-.64V6.47h2.26v7.63h-1.85l-.17-1.063h-.05c-.5.584-1.06.915-1.06.915-.56.33-1.35.33-1.35.33-1.25 0-1.81-.815-1.81-.815-.56-.816-.56-2.264-.56-2.264v-4.74zm11.03 7.64zm.92-7.64h2.26v4.45c0 .83.23 1.14.23 1.14.23.31.72.31.72.31.43 0 .72-.2.72-.2.29-.2.63-.64.63-.64V6.47h2.26v7.63h-1.85l-.17-1.063h-.05c-.5.584-1.06.915-1.06.915-.56.33-1.35.33-1.35.33-1.25 0-1.81-.815-1.81-.815-.56-.816-.56-2.264-.56-2.264v-4.74zm7.82 7.64zm1.34-2.29c.52.4 1 .6 1 .6.47.2.97.2.97.2.51 0 .74-.17.74-.17.23-.16.23-.47.23-.47 0-.19-.13-.33-.13-.33-.13-.15-.36-.27-.36-.27-.22-.13-.5-.23-.5-.23-.27-.1-.57-.22-.57-.22-.35-.14-.7-.32-.7-.32-.36-.18-.65-.45-.65-.45-.29-.27-.48-.63-.48-.63-.18-.36-.18-.84-.18-.84 0-.52.2-.97.2-.97.21-.44.59-.75.59-.75.38-.31.92-.48.92-.48.54-.18 1.2-.18 1.2-.18.88 0 1.54.3 1.54.3.66.3 1.15.67 1.15.67l-1.02 1.36c-.42-.31-.82-.48-.82-.48-.4-.17-.8-.17-.8-.17-.87 0-.87.6-.87.6 0 .19.12.32.12.32.12.13.33.24.33.24.21.11.48.21.48.21l.56.21c.37.14.74.32.74.32.36.18.66.44.66.44.3.26.48.64.48.64.18.38.18.9.18.9 0 .52-.2.97-.2.97-.2.45-.6.78-.6.78-.4.33-.99.53-.99.53-.58.19-1.35.19-1.35.19-.76 0-1.55-.29-1.55-.29-.8-.29-1.38-.77-1.38-.77zm5.48 2.3zm.55-3.82c0-.93.3-1.67.3-1.67.31-.75.81-1.27.81-1.27.5-.52 1.14-.79 1.14-.79.64-.28 1.34-.28 1.34-.28.81 0 1.42.28 1.42.28.61.28 1.02.77 1.02.77.4.5.61 1.17.61 1.17.2.67.2 1.46.2 1.46 0 .31-.04.57-.04.57-.03.25-.06.39-.06.39h-4.57c.15.88.69 1.27.69 1.27.53.39 1.3.39 1.3.39.81 0 1.65-.5 1.65-.5l.75 1.37c-.59.4-1.3.63-1.3.63-.72.23-1.41.23-1.41.23-.82 0-1.53-.27-1.53-.27-.7-.27-1.23-.78-1.23-.78-.52-.51-.81-1.25-.81-1.25-.29-.74-.29-1.69-.29-1.69zm0 0zm4.92-.79c0-.66-.29-1.08-.29-1.08-.29-.42-.98-.42-.98-.42-.54 0-.95.36-.95.36-.41.36-.53 1.13-.53 1.13h2.75zm5.7 4.6zm5.31-9.04c-.43-.15-.79-.15-.79-.15-.42 0-.65.26-.65.26-.23.26-.23.84-.23.84v.46h1.37v1.77h-1.37v5.86h-2.26V8.24h-1.01V6.56l1.01-.077V6.07c0-.6.15-1.14.15-1.14.15-.54.49-.94.49-.94.34-.4.88-.63.88-.63.54-.232 1.31-.232 1.31-.232.48 0 .87.1.87.1.39.09.65.19.65.19zm-.22 9.04zm.55-3.82c0-.95.31-1.7.31-1.7.31-.75.82-1.26.82-1.26.52-.51 1.19-.78 1.19-.78.68-.27 1.4-.27 1.4-.27.73 0 1.4.27 1.4.27.67.27 1.19.78 1.19.78.51.51.82 1.26.82 1.26.31.75.31 1.7.31 1.7 0 .96-.31 1.71-.31 1.71-.31.75-.83 1.26-.83 1.26-.52.51-1.19.78-1.19.78-.67.27-1.4.27-1.4.27-.72 0-1.4-.27-1.4-.27-.67-.27-1.19-.78-1.19-.78-.52-.51-.82-1.25-.82-1.25-.31-.74-.31-1.7-.31-1.7zm0 0zm2.33 0c0 1 .34 1.59.34 1.59.34.59 1.05.59 1.05.59.69 0 1.05-.58 1.05-.58.35-.59.35-1.59.35-1.59 0-1-.35-1.58-.35-1.58-.36-.59-1.05-.59-1.05-.59-.71 0-1.06.59-1.06.59-.35.59-.35 1.59-.35 1.59zm5.66 3.82zm1-7.64h1.85l.15 1.34h.06c.41-.78 1-1.15 1-1.15.58-.37 1.17-.37 1.17-.37.32 0 .53.04.53.04.2.04.37.12.37.12l-.37 1.96c-.22-.06-.4-.09-.4-.09-.19-.03-.43-.03-.43-.03-.44 0-.91.31-.91.31-.47.31-.78 1.1-.78 1.1v4.43h-2.26V6.46zm8.33 7.64zm1.18-10.04h2.26v3.86H588V4.06h2.28v10.042H588v-4.19h-3.46v4.19h-2.26V4.062zm9.19 10.04zm.72-2.12c0-1.2 1.01-1.88 1.01-1.88 1.01-.68 3.28-.91 3.28-.91-.03-.51-.31-.81-.31-.81-.28-.3-.89-.3-.89-.3-.49 0-.99.19-.99.19-.49.19-1.05.51-1.05.51l-.8-1.49c.74-.45 1.55-.73 1.55-.73.81-.27 1.71-.27 1.71-.27 1.47 0 2.25.84 2.25.84.78.84.78 2.61.78 2.61v4.37h-1.85l-.17-.78h-.05c-.49.43-1.04.7-1.04.7-.55.27-1.19.27-1.19.27-.52 0-.94-.18-.94-.18-.41-.18-.7-.49-.7-.49-.29-.31-.46-.73-.46-.73-.16-.42-.16-.91-.16-.91zm0 0zm2.15-.17c0 .37.24.55.24.55.23.17.63.17.63.17.4 0 .68-.17.68-.17.28-.17.59-.48.59-.48v-1.34c-1.22.17-1.68.5-1.68.5-.46.32-.46.77-.46.77zm5.34 2.3zm1.34-2.29c.52.4 1 .6 1 .6.48.2.97.2.97.2.51 0 .74-.17.74-.17.23-.17.23-.47.23-.47 0-.18-.13-.33-.13-.33-.13-.14-.36-.27-.36-.27-.22-.12-.5-.22-.5-.22-.28-.1-.57-.22-.57-.22-.35-.14-.71-.32-.71-.32-.35-.18-.65-.45-.65-.45-.29-.27-.48-.63-.48-.63-.19-.36-.19-.84-.19-.84 0-.52.21-.97.21-.97.21-.45.59-.76.59-.76.38-.31.92-.48.92-.48.54-.17 1.21-.17 1.21-.17.87 0 1.54.3 1.54.3.66.3 1.15.67 1.15.67l-1 1.34c-.42-.31-.82-.48-.82-.48-.4-.17-.8-.17-.8-.17-.86 0-.86.61-.86.61 0 .18.13.31.13.31.12.13.33.24.33.24.21.11.48.21.48.21l.56.21c.37.14.73.32.73.32.36.18.66.44.66.44.3.26.48.64.48.64.18.38.18.9.18.9 0 .52-.2.97-.2.97-.2.45-.6.78-.6.78-.4.33-.99.53-.99.53-.59.19-1.36.19-1.36.19-.76 0-1.55-.29-1.55-.29-.8-.29-1.38-.77-1.38-.77zm5.48 2.3zm1-10.79h2.2V9.5h.06l2.42-3.034h2.46L612 9.61l2.88 4.49h-2.45l-1.727-2.98-.97 1.09v1.88h-2.2V3.3zm7.01 10.79zm.55-3.82c0-.92.31-1.67.31-1.67.31-.75.81-1.26.81-1.26.5-.52 1.15-.8 1.15-.8.64-.28 1.34-.28 1.34-.28.81 0 1.42.28 1.42.28.61.28 1.02.77 1.02.77.41.49.61 1.16.61 1.16.2.67.2 1.45.2 1.45 0 .31-.03.57-.03.57-.03.25-.06.39-.06.39h-4.57c.16.88.69 1.27.69 1.27.53.39 1.3.39 1.3.39.81 0 1.64-.5 1.64-.5l.76 1.37c-.58.4-1.3.64-1.3.64-.71.23-1.41.23-1.41.23-.81 0-1.52-.27-1.52-.27-.71-.27-1.23-.79-1.23-.79-.52-.51-.81-1.25-.81-1.25-.3-.74-.3-1.69-.3-1.69zm0 0zm4.93-.79c0-.66-.29-1.08-.29-1.08-.28-.42-.97-.42-.97-.42-.54 0-.94.36-.94.36-.41.37-.53 1.14-.53 1.14H620zm2.5 4.61zm1-10.8h2.27v8.51c0 .36.13.49.13.49.13.14.27.14.27.14h.13l.15-.03.28 1.68c-.18.08-.47.13-.47.13-.28.06-.67.06-.67.06-.58 0-.98-.18-.98-.18-.4-.18-.64-.51-.64-.51-.24-.33-.35-.8-.35-.8-.11-.47-.11-1.06-.11-1.06V3.31zm3.41 10.79zm1-10.79h2.26v8.52c0 .36.13.5.13.5.13.14.27.14.27.14h.13l.14-.03.28 1.68c-.18.08-.47.13-.47.13-.28.06-.67.06-.67.06-.58 0-.98-.18-.98-.18-.4-.18-.64-.51-.64-.51-.24-.33-.34-.8-.34-.8-.11-.47-.11-1.05-.11-1.05v-8.5zm3.41 10.8zm2.37-3.55c-.08-.52.03-.95.03-.95.12-.43.33-.8.33-.8.21-.37.48-.67.48-.67l.51-.59c.24-.28.41-.55.41-.55.16-.27.16-.56.16-.56 0-.48-.29-.73-.29-.73-.29-.24-.75-.24-.75-.24-.43 0-.76.2-.76.2-.33.2-.64.51-.64.51L632.01 5c.523-.63 1.232-1.016 1.232-1.016.708-.385 1.57-.385 1.57-.385.647 0 1.21.15 1.21.15.56.15.97.47.97.47.408.32.64.82.64.82.23.5.23 1.18.23 1.18 0 .47-.17.85-.17.85-.17.37-.423.7-.423.7-.26.32-.54.62-.54.62-.29.3-.53.62-.53.62-.24.32-.38.68-.38.68-.14.36-.1.82-.1.82h-1.99zm0 0zm-.37 2.33c0-.61.38-1.02.38-1.02.38-.41.97-.41.97-.41.59 0 .98.41.98.41.39.41.39 1.02.39 1.02 0 .6-.39 1.01-.39 1.01-.39.41-.98.41-.98.41-.59 0-.97-.41-.97-.41-.39-.41-.39-1.01-.39-1.01z"/><path fill="none" stroke="#D3D3D3" stroke-miterlimit="10" d="M35.02 738h956.653M35.02 503.667h956.653M35.02 269.333h956.653M35.02 35h956.653" stroke-dasharray="5 5"/><g fill="#5C3566" stroke-opacity="0" stroke-width="0" stroke-miterlimit="10" stroke-linejoin="bevel"><defs><clipPath id="a"><path d="M35.02 35v703h956.653V35z"/></clipPath></defs><g clip-path="url(#a)"><path stroke="none" d="M50.02 738V112.33h89.583V738z"/></g></g><g fill-opacity="0" stroke-miterlimit="10"><defs><clipPath id="b"><path d="M35.02 35v703h956.653V35z"/></clipPath></defs><g clip-path="url(#b)"><path fill="none" d="M50.02 738V112.33h89.583V738z"/></g></g><g fill="#5C3566" stroke-opacity="0" stroke-width="0" stroke-miterlimit="10" stroke-linejoin="bevel"><defs><clipPath id="c"><path d="M35.02 35v703h956.653V35z"/></clipPath></defs><g clip-path="url(#c)"><path stroke="none" d="M169.602 738V150.995h89.582V738z"/></g></g><g fill-opacity="0" stroke-miterlimit="10"><defs><clipPath id="d"><path d="M35.02 35v703h956.653V35z"/></clipPath></defs><g clip-path="url(#d)"><path fill="none" d="M169.602 738V150.995h89.582V738z"/></g></g><g fill="#5C3566" stroke-opacity="0" stroke-width="0" stroke-miterlimit="10" stroke-linejoin="bevel"><defs><clipPath id="e"><path d="M35.02 35v703h956.653V35z"/></clipPath></defs><g clip-path="url(#e)"><path stroke="none" d="M289.184 738V501.323h89.582V738z"/></g></g><g fill-opacity="0" stroke-miterlimit="10"><defs><clipPath id="f"><path d="M35.02 35v703h956.653V35z"/></clipPath></defs><g clip-path="url(#f)"><path fill="none" d="M289.184 738V501.323h89.582V738z"/></g></g><g fill="#5C3566" stroke-opacity="0" stroke-width="0" stroke-miterlimit="10" stroke-linejoin="bevel"><defs><clipPath id="g"><path d="M35.02 35v703h956.653V35z"/></clipPath></defs><g clip-path="url(#g)"><path stroke="none" d="M408.766 738V539.988h89.58V738z"/></g></g><g fill-opacity="0" stroke-miterlimit="10"><defs><clipPath id="h"><path d="M35.02 35v703h956.653V35z"/></clipPath></defs><g clip-path="url(#h)"><path fill="none" d="M408.766 738V539.988h89.58V738z"/></g></g><g fill="#5C3566" stroke-opacity="0" stroke-width="0" stroke-miterlimit="10" stroke-linejoin="bevel"><defs><clipPath id="i"><path d="M35.02 35v703h956.653V35z"/></clipPath></defs><g clip-path="url(#i)"><path stroke="none" d="M528.347 738V630.207h89.582V738z"/></g></g><g fill-opacity="0" stroke-miterlimit="10"><defs><clipPath id="j"><path d="M35.02 35v703h956.653V35z"/></clipPath></defs><g clip-path="url(#j)"><path fill="none" d="M528.347 738V630.207h89.582V738z"/></g></g><g fill="#5C3566" stroke-opacity="0" stroke-width="0" stroke-miterlimit="10" stroke-linejoin="bevel"><defs><clipPath id="k"><path d="M35.02 35v703h956.653V35z"/></clipPath></defs><g clip-path="url(#k)"><path stroke="none" d="M647.93 738v-32.807h89.58V738z"/></g></g><g fill-opacity="0" stroke-miterlimit="10"><defs><clipPath id="l"><path d="M35.02 35v703h956.653V35z"/></clipPath></defs><g clip-path="url(#l)"><path fill="none" d="M647.93 738v-32.807h89.58V738z"/></g></g><g fill="#5C3566" stroke-opacity="0" stroke-width="0" stroke-miterlimit="10" stroke-linejoin="bevel"><defs><clipPath id="m"><path d="M35.02 35v703h956.653V35z"/></clipPath></defs><g clip-path="url(#m)"><path stroke="none" d="M767.51 738v-3.515h89.582V738z"/></g></g><g fill-opacity="0" stroke-miterlimit="10"><defs><clipPath id="n"><path d="M35.02 35v703h956.653V35z"/></clipPath></defs><g clip-path="url(#n)"><path fill="none" d="M767.51 738v-3.515h89.582V738z"/></g></g><g fill="#5C3566" stroke-opacity="0" stroke-width="0" stroke-miterlimit="10" stroke-linejoin="bevel"><defs><clipPath id="o"><path d="M35.02 35v703h956.653V35z"/></clipPath></defs><g clip-path="url(#o)"><path stroke="none" d="M887.092 738V580.997h89.58V738z"/></g></g><g fill-opacity="0" stroke-miterlimit="10"><defs><clipPath id="p"><path d="M35.02 35v703h956.653V35z"/></clipPath></defs><g clip-path="url(#p)"><path fill="none" d="M887.092 738V580.997h89.58V738z"/></g></g><path fill="none" stroke-miterlimit="10" d="M35.02 738V35" stroke-linecap="square"/><path fill="none" stroke-miterlimit="10" d="M35.02 738h2m-2-58.583h2m-2-58.584h2m-2-58.583h2m-2-58.583h2m-2-58.584h2m-2-58.583h2m-2-58.583h2m-2-58.584h2m-2-58.583h2m-2-58.583h2m-2-58.584h2M35.02 35h2m-2 703h5m-5-234.333h5m-5-234.334h5M35.02 35h5"/><path stroke="none" d="M20.725 741.445zm2.615.126c-1.02 0-1.586-.9-1.586-.9-.567-.9-.567-2.59-.567-2.59 0-1.69.567-2.57.567-2.57.567-.88 1.586-.88 1.586-.88 1.01 0 1.576.88 1.576.88.567.89.567 2.58.567 2.58 0 1.69-.567 2.6-.567 2.6-.567.91-1.576.91-1.576.91zm0 0zm0-.69c.294 0 .53-.16.53-.16.237-.16.41-.5.41-.5.174-.34.268-.87.268-.87.095-.53.095-1.26.095-1.26 0-.73-.095-1.26-.095-1.26-.094-.52-.267-.85-.267-.85-.17-.33-.41-.49-.41-.49-.23-.16-.53-.16-.53-.16-.29 0-.53.16-.53.16-.24.16-.41.49-.41.49-.17.33-.26.86-.26.86-.09.53-.09 1.26-.09 1.26 0 1.47.37 2.14.37 2.14.37.67.95.67.95.67zM10.2 507.11zm.42-.515c.756-.756 1.344-1.365 1.344-1.365.588-.61.988-1.13.988-1.13.4-.52.61-.955.61-.955.21-.436.21-.846.21-.846 0-.58-.316-.95-.316-.95-.315-.37-.956-.37-.956-.37-.42 0-.777.23-.777.23-.358.23-.652.57-.652.57l-.49-.5c.42-.46.9-.74.9-.74.48-.28 1.14-.28 1.14-.28.94 0 1.47.54 1.47.54.54.54.54 1.43.54 1.43 0 .47-.2.95-.2.95-.2.48-.56.99-.56.99-.36.51-.86 1.06-.86 1.06-.5.55-1.09 1.17-1.09 1.17l.57-.05c.3-.02.56-.02.56-.02h1.94v.74h-4.33v-.52zm4.8.515zm2.616.126c-1.02 0-1.586-.903-1.586-.903-.568-.904-.568-2.595-.568-2.595 0-1.69.568-2.573.568-2.573.567-.883 1.586-.883 1.586-.883 1.008 0 1.575.883 1.575.883.57.882.57 2.573.57 2.573 0 1.69-.57 2.595-.57 2.595-.56.903-1.57.903-1.57.903zm0 0zm0-.693c.294 0 .53-.163.53-.163.236-.163.41-.504.41-.504.173-.342.268-.872.268-.872.094-.53.094-1.266.094-1.266 0-.735-.094-1.26-.094-1.26-.095-.526-.268-.856-.268-.856-.173-.33-.41-.49-.41-.49-.236-.156-.53-.156-.53-.156-.294 0-.536.157-.536.157-.242.158-.415.49-.415.49-.173.33-.268.855-.268.855-.094.525-.094 1.26-.094 1.26 0 1.47.362 2.138.362 2.138.362.667.95.667.95.667zm2.605.567zm2.62.126c-1.02 0-1.58-.903-1.58-.903-.56-.904-.56-2.595-.56-2.595 0-1.69.57-2.573.57-2.573.57-.883 1.59-.883 1.59-.883 1.01 0 1.58.883 1.58.883.57.882.57 2.573.57 2.573 0 1.69-.56 2.595-.56 2.595-.57.903-1.58.903-1.58.903zm0 0zm0-.693c.3 0 .53-.163.53-.163.24-.163.41-.504.41-.504.18-.342.27-.872.27-.872.1-.53.1-1.266.1-1.266 0-.735-.09-1.26-.09-1.26-.09-.526-.26-.856-.26-.856-.17-.33-.41-.49-.41-.49-.23-.156-.53-.156-.53-.156-.29 0-.53.157-.53.157-.24.158-.41.49-.41.49-.17.33-.27.855-.27.855-.09.525-.09 1.26-.09 1.26 0 1.47.37 2.138.37 2.138.36.667.95.667.95.667zM10 272.78zm3.193-2.543v-1.944c0-.273.016-.646.016-.646.01-.373.03-.646.03-.646h-.04c-.13.25-.27.48-.27.48l-.29.48-1.57 2.29h2.1zm0 0zm1.734.693h-.914v1.85h-.82v-1.85H10.18v-.567l2.866-4.286h.967v4.16h.914v.693zm.294 1.85zm2.62.125c-1.02 0-1.58-.904-1.58-.904-.56-.9-.56-2.59-.56-2.59 0-1.69.57-2.57.57-2.57.57-.88 1.59-.88 1.59-.88 1.01 0 1.58.89 1.58.89.57.89.57 2.58.57 2.58 0 1.69-.56 2.6-.56 2.6-.57.91-1.58.91-1.58.91zm0 0zm0-.693c.3 0 .53-.163.53-.163.24-.17.41-.51.41-.51.18-.34.27-.87.27-.87.1-.53.1-1.27.1-1.27 0-.74-.09-1.26-.09-1.26-.09-.53-.27-.86-.27-.86-.17-.33-.41-.49-.41-.49-.23-.16-.53-.16-.53-.16-.29 0-.53.16-.53.16-.24.15-.41.49-.41.49-.17.33-.27.85-.27.85-.09.52-.09 1.26-.09 1.26 0 1.47.36 2.14.36 2.14.37.66.95.66.95.66zm2.61.567zm2.62.12c-1.02 0-1.58-.91-1.58-.91-.56-.91-.56-2.6-.56-2.6 0-1.69.57-2.58.57-2.58.57-.89 1.59-.89 1.59-.89 1.01 0 1.58.88 1.58.88.57.88.57 2.57.57 2.57 0 1.69-.57 2.59-.57 2.59-.56.9-1.57.9-1.57.9zm0 0zm0-.7c.3 0 .53-.17.53-.17.24-.17.41-.51.41-.51.18-.34.27-.87.27-.87.1-.53.1-1.27.1-1.27 0-.74-.09-1.26-.09-1.26-.09-.53-.27-.86-.27-.86-.17-.33-.41-.49-.41-.49-.23-.16-.53-.16-.53-.16-.29 0-.53.16-.53.16-.24.16-.41.49-.41.49-.17.33-.27.85-.27.85-.09.52-.09 1.26-.09 1.26 0 1.47.36 2.14.36 2.14.36.66.95.66.95.66zM10.33 38.44zm2.815-.555c.258 0 .468-.11.468-.11.21-.106.37-.3.37-.3.157-.195.246-.46.246-.46.09-.268.09-.6.09-.6 0-.666-.31-1.04-.31-1.04C13.7 35 13.07 35 13.07 35c-.316 0-.69.204-.69.204-.373.205-.71.677-.71.677.085.99.458 1.5.458 1.5.373.51 1.014.51 1.014.51zm0 0zm1.38-5.027c-.21-.24-.5-.384-.5-.384-.29-.14-.6-.14-.6-.14-.348 0-.663.15-.663.15-.315.145-.557.48-.557.48-.24.338-.39.88-.39.88-.147.54-.16 1.34-.16 1.34.316-.39.736-.614.736-.614.42-.226.83-.226.83-.226.87 0 1.39.515 1.39.515.52.51.52 1.55.52 1.55 0 .48-.15.87-.15.87-.16.39-.43.68-.43.68-.27.28-.63.44-.63.44-.36.16-.77.16-.77.16-.49 0-.91-.2-.91-.2-.42-.2-.73-.61-.73-.61-.31-.41-.49-1.01-.49-1.01-.17-.61-.17-1.42-.17-1.42 0-1.01.21-1.72.21-1.72.21-.71.57-1.16.57-1.16.36-.44.82-.65.82-.65.46-.2.96-.2.96-.2.55 0 .94.2.94.2.39.2.68.51.68.51zm1.03 5.577zm2.617.127c-1.02 0-1.586-.903-1.586-.903-.57-.91-.57-2.6-.57-2.6 0-1.69.567-2.58.567-2.58.568-.89 1.587-.89 1.587-.89 1.01 0 1.577.88 1.577.88.566.88.566 2.57.566 2.57 0 1.69-.57 2.59-.57 2.59-.568.9-1.576.9-1.576.9zm0 0zm0-.693c.294 0 .53-.17.53-.17.237-.16.41-.51.41-.51.173-.34.268-.87.268-.87.097-.53.097-1.27.097-1.27 0-.74-.094-1.26-.094-1.26-.093-.53-.266-.86-.266-.86-.173-.33-.41-.49-.41-.49-.236-.16-.53-.16-.53-.16-.294 0-.536.16-.536.16-.24.16-.41.49-.41.49-.17.33-.26.85-.26.85-.09.53-.09 1.26-.09 1.26 0 1.47.36 2.14.36 2.14.37.67.95.67.95.67zm2.605.56zm2.615.12c-1.02 0-1.588-.9-1.588-.9-.567-.9-.567-2.6-.567-2.6 0-1.69.568-2.58.568-2.58.57-.88 1.587-.88 1.587-.88 1.01 0 1.577.88 1.577.88.56.88.56 2.57.56 2.57 0 1.69-.57 2.59-.57 2.59-.57.9-1.58.9-1.58.9zm0 0zm0-.69c.292 0 .53-.16.53-.16.235-.16.41-.51.41-.51.172-.34.27-.87.27-.87.09-.53.09-1.27.09-1.27 0-.74-.093-1.26-.093-1.26-.1-.53-.27-.86-.27-.86-.18-.33-.41-.49-.41-.49-.24-.16-.53-.16-.53-.16-.3 0-.54.16-.54.16-.25.16-.42.49-.42.49-.18.33-.27.85-.27.85-.1.52-.1 1.26-.1 1.26 0 1.47.36 2.13.36 2.13.36.67.95.67.95.67z"/><path fill="none" stroke-miterlimit="10" d="M35.02 738h956.653" stroke-linecap="square"/><path stroke="none" d="M76.424 758zm0-6.89h.935l1.1 3.718c.19.62.33 1.145.33 1.145.14.525.34 1.134.34 1.134h.04c.19-.61.33-1.134.33-1.134.14-.526.32-1.145.32-1.145l1.1-3.72h.89L79.65 758h-1.02zm5.378 6.89zm1.303-6.155c-.252 0-.426-.158-.426-.158-.18-.158-.18-.4-.18-.4 0-.25.17-.404.17-.404.17-.152.42-.152.42-.152.25 0 .42.16.42.16.17.16.17.41.17.41 0 .24-.18.4-.18.4-.18.16-.43.16-.43.16zm0 0zm-.44 1.05h.86V758h-.86v-5.105zm1.72 5.105zm.863-5.105h.714l.073.735h.032c.336-.367.73-.614.73-.614.394-.247.856-.247.856-.247.588 0 .92.25.92.25.33.26.488.72.488.72.4-.44.81-.71.81-.71.41-.27.88-.27.88-.27.79 0 1.17.5 1.17.5.39.5.39 1.49.39 1.49V758h-.86v-3.12c0-.724-.23-1.045-.23-1.045-.23-.32-.71-.32-.71-.32-.58 0-1.28.788-1.28.788V758h-.86v-3.12c0-.724-.23-1.045-.23-1.045-.23-.32-.73-.32-.73-.32-.57 0-1.28.788-1.28.788V758h-.86v-5.105zM93.094 758zm.683-4.317c0-.305.184-.49.184-.49.19-.182.45-.182.45-.182.25 0 .44.19.44.19.19.19.19.49.19.49 0 .28-.18.47-.18.47-.18.19-.43.19-.43.19-.26 0-.45-.18-.45-.18-.18-.18-.18-.46-.18-.46zm0 0zm0 3.792c0-.305.184-.49.184-.49.19-.182.45-.182.45-.182.25 0 .44.183.44.183.19.184.19.49.19.49 0 .282-.18.466-.18.466-.18.184-.43.184-.43.184-.26 0-.45-.184-.45-.184-.18-.184-.18-.467-.18-.467zm4.055.525zm.683-1.355c.294.305.698.536.698.536.404.24.993.24.993.24.304 0 .572-.11.572-.11.268-.11.467-.31.467-.31.2-.2.316-.48.316-.48.12-.28.12-.63.12-.63 0-.69-.39-1.08-.39-1.08-.38-.39-1.04-.39-1.04-.39-.34 0-.59.11-.59.11-.24.11-.55.31-.55.31l-.46-.29.22-3.22h3.36v.75h-2.6l-.17 1.99c.24-.13.48-.2.48-.2.24-.07.55-.07.55-.07.43 0 .81.13.81.13.38.13.66.39.66.39.29.26.45.65.45.65.17.4.17.94.17.94 0 .55-.19.97-.19.97-.18.42-.5.71-.5.71-.31.29-.72.44-.72.44-.4.15-.84.15-.84.15-.4 0-.73-.08-.73-.08-.33-.08-.6-.2-.6-.2-.26-.12-.48-.28-.48-.28-.21-.16-.38-.34-.38-.34zm4.537 1.355zm.715-1.387c.304.315.71.557.71.557.403.242 1.002.242 1.002.242.6 0 .99-.33.99-.33.39-.332.39-.9.39-.9 0-.293-.11-.54-.11-.54-.11-.247-.36-.426-.36-.426-.25-.178-.66-.273-.66-.273-.41-.094-1.01-.094-1.01-.094v-.67c.53 0 .9-.1.9-.1.36-.1.59-.26.59-.26.22-.17.32-.4.32-.4.09-.23.09-.5.09-.5 0-.5-.31-.78-.31-.78-.31-.29-.85-.29-.85-.29-.42 0-.78.19-.78.19-.35.18-.66.49-.66.49l-.47-.55c.39-.37.85-.61.85-.61.47-.24 1.06-.24 1.06-.24.44 0 .81.11.81.11.37.11.64.33.64.33.26.21.41.53.41.53.14.31.14.72.14.72 0 .61-.34 1-.34 1-.34.39-.88.6-.88.6v.04c.3.07.56.21.56.21.26.14.46.35.46.35.2.21.31.5.31.5.11.28.11.63.11.63 0 .44-.17.79-.17.79-.18.35-.48.6-.48.6-.3.25-.7.38-.7.38-.4.13-.86.13-.86.13-.4 0-.73-.08-.73-.08-.33-.08-.61-.21-.61-.21-.27-.13-.49-.3-.49-.3-.21-.17-.38-.36-.38-.36zm4.506 1.387zm3.193-2.542v-1.943c0-.273.016-.646.016-.646.016-.38.037-.65.037-.65h-.05c-.13.24-.27.47-.27.47l-.29.47-1.57 2.29h2.1zm0 0zm1.733.693h-.92V758h-.82v-1.85h-3.02v-.566l2.87-4.286h.96v4.16h.91v.693zm77.36 1.85zm.94-6.89h3.97v.74h-3.1v2.17h2.61v.75h-2.62v2.5h3.2v.74h-4.07v-6.89zm4.59 6.89zm.86-5.1h.71l.07.74h.03c.33-.36.73-.61.73-.61.39-.24.85-.24.85-.24.59 0 .92.26.92.26.33.26.48.72.48.72.4-.44.8-.71.8-.71.4-.26.88-.26.88-.26.79 0 1.17.51 1.17.51.38.51.38 1.5.38 1.5v3.2h-.87v-3.12c0-.72-.23-1.04-.23-1.04-.23-.32-.72-.32-.72-.32-.58 0-1.28.79-1.28.79V758H200v-3.12c0-.724-.23-1.045-.23-1.045-.23-.32-.725-.32-.725-.32-.58 0-1.28.788-1.28.788V758h-.866v-5.105zm7.84 5.11zm.61-1.32c0-.84.75-1.28.75-1.28.75-.44 2.39-.62 2.39-.62 0-.24-.05-.47-.05-.47-.05-.23-.17-.41-.17-.41-.12-.17-.32-.29-.32-.29-.2-.11-.52-.11-.52-.11-.46 0-.84.17-.84.17-.39.17-.69.38-.69.38l-.35-.6c.35-.23.87-.44.87-.44.51-.21 1.13-.21 1.13-.21.93 0 1.35.57 1.35.57.42.58.42 1.53.42 1.53v3.1h-.72l-.07-.61h-.02c-.37.31-.8.52-.8.52-.43.22-.9.22-.9.22-.66 0-1.08-.38-1.08-.38-.43-.38-.43-1.07-.43-1.07zm0 0zm.85-.06c0 .45.26.63.26.63.25.19.63.19.63.19.37 0 .7-.17.7-.17.33-.17.7-.51.7-.51v-1.41c-.64.09-1.09.2-1.09.2-.44.12-.71.28-.71.28-.27.16-.38.36-.38.36-.12.21-.12.45-.12.45zm3.92 1.39zm.48-2.54c0-.64.2-1.14.2-1.14.2-.5.53-.84.53-.84.33-.34.78-.52.78-.52.44-.18.94-.18.94-.18.5 0 .86.19.86.19.36.19.62.43.62.43l-.43.56c-.24-.2-.48-.32-.48-.32-.25-.13-.55-.13-.55-.13-.35 0-.65.14-.65.14-.3.14-.51.41-.51.41-.21.26-.33.63-.33.63-.12.36-.12.81-.12.81 0 .44.12.8.12.8.11.36.32.62.32.62.2.26.5.4.5.4.29.14.64.14.64.14.37 0 .67-.15.67-.15.3-.15.53-.36.53-.36l.39.57c-.35.31-.77.49-.77.49-.43.18-.89.18-.89.18-.5 0-.95-.18-.95-.18-.45-.18-.77-.52-.77-.52-.32-.34-.51-.84-.51-.84-.19-.5-.19-1.13-.19-1.13zm4.3 2.54zm.72-1.15c.33.28.69.44.69.44.35.17.81.17.81.17.5 0 .75-.23.75-.23.25-.23.25-.56.25-.56 0-.2-.11-.34-.11-.34-.11-.15-.27-.26-.27-.26-.17-.11-.38-.19-.38-.19l-.42-.17c-.28-.09-.55-.22-.55-.22-.27-.12-.49-.29-.49-.29-.21-.17-.35-.4-.35-.4-.14-.23-.14-.55-.14-.55 0-.3.12-.57.12-.57.12-.27.35-.47.35-.47.22-.19.55-.3.55-.3.32-.11.73-.11.73-.11.48 0 .89.17.89.17.4.17.7.41.7.41l-.41.55c-.27-.2-.55-.32-.55-.32-.29-.13-.62-.13-.62-.13-.48 0-.71.23-.71.23-.23.22-.23.51-.23.51 0 .18.09.31.09.31.09.13.25.23.25.23.15.1.36.18.36.18l.42.16.55.22c.28.12.5.29.5.29.22.18.36.43.36.43.14.25.14.61.14.61 0 .32-.12.59-.12.59-.12.28-.36.49-.36.49-.24.21-.59.33-.59.33-.35.12-.8.12-.8.12-.55 0-1.04-.2-1.04-.2-.5-.2-.86-.5-.86-.5zm3.68 1.16zm.68-4.31c0-.3.18-.49.18-.49.18-.18.45-.18.45-.18.25 0 .43.19.43.19.18.19.18.49.18.49 0 .29-.19.47-.19.47-.19.19-.44.19-.44.19-.26 0-.45-.18-.45-.18-.19-.18-.19-.46-.19-.46zm0 0zm0 3.79c0-.3.18-.49.18-.49.18-.18.45-.18.45-.18.25 0 .43.18.43.18.18.19.18.49.18.49 0 .29-.19.47-.19.47-.19.19-.44.19-.44.19-.26 0-.45-.18-.45-.18-.19-.18-.19-.47-.19-.47zm4.05.53zm.68-1.35c.29.31.7.54.7.54.4.23.99.23.99.23.3 0 .57-.11.57-.11.27-.11.47-.31.47-.31.2-.2.31-.48.31-.48.11-.28.11-.63.11-.63 0-.69-.39-1.08-.39-1.08-.39-.39-1.04-.39-1.04-.39-.35 0-.6.11-.6.11-.25.11-.55.31-.55.31l-.46-.29.22-3.22h3.35v.75h-2.59l-.18 1.99c.24-.13.48-.2.48-.2.24-.08.54-.08.54-.08.43 0 .81.13.81.13.38.13.66.38.66.38.28.26.45.65.45.65.16.4.16.94.16.94 0 .55-.19.97-.19.97-.19.42-.5.71-.5.71-.32.29-.72.44-.72.44-.41.15-.85.15-.85.15-.4 0-.73-.08-.73-.08-.33-.07-.6-.2-.6-.2-.27-.12-.49-.29-.49-.29-.21-.16-.38-.34-.38-.34zm4.53 1.36zm2.62.13c-1.02 0-1.59-.9-1.59-.9-.57-.9-.57-2.59-.57-2.59 0-1.69.57-2.57.57-2.57.56-.88 1.58-.88 1.58-.88 1.01 0 1.58.88 1.58.88.56.89.56 2.58.56 2.58 0 1.69-.57 2.6-.57 2.6-.57.9-1.58.9-1.58.9zm0 0zm0-.69c.29 0 .53-.16.53-.16.23-.16.41-.5.41-.5.17-.34.26-.87.26-.87.09-.53.09-1.27.09-1.27 0-.74-.1-1.26-.1-1.26-.1-.53-.27-.86-.27-.86-.17-.33-.41-.49-.41-.49-.24-.16-.53-.16-.53-.16-.3 0-.54.16-.54.16-.24.16-.41.49-.41.49-.17.33-.27.86-.27.86-.1.53-.1 1.26-.1 1.26 0 1.47.36 2.14.36 2.14.36.67.95.67.95.67zm2.6.57zm.83-.71h1.53v-4.94h-1.22v-.56c.46-.08.8-.2.8-.2.34-.12.61-.29.61-.29h.66v5.99h1.39v.7h-3.78v-.71zm70.77.72zm0-6.89h.93l1.1 3.72c.19.62.33 1.15.33 1.15.14.53.34 1.14.34 1.14h.04c.19-.61.33-1.13.33-1.13.14-.52.32-1.14.32-1.14l1.1-3.72h.89l-2.19 6.89h-1.02zm5.24 6.89zm.96-1.5c.37.39.86.63.86.63.5.24 1.03.24 1.03.24.68 0 1.06-.31 1.06-.31.38-.31.38-.81.38-.81 0-.26-.09-.45-.09-.45-.09-.18-.24-.31-.24-.31-.15-.13-.36-.23-.36-.23l-.45-.22-.99-.43c-.25-.11-.5-.25-.5-.25-.25-.14-.45-.35-.45-.35-.2-.21-.33-.5-.33-.5-.13-.29-.13-.67-.13-.67 0-.39.16-.72.16-.72.16-.33.45-.58.45-.58.29-.24.68-.38.68-.38.39-.13.87-.13.87-.13.62 0 1.15.24 1.15.24.52.24.89.61.89.61l-.47.57c-.32-.31-.7-.48-.7-.48-.38-.17-.87-.17-.87-.17-.58 0-.93.26-.93.26-.35.27-.35.74-.35.74 0 .25.1.43.1.43.1.18.27.31.27.31.17.13.37.23.37.23.2.1.41.18.41.18l.98.42c.29.12.56.29.56.29.26.16.45.38.45.38.19.21.3.5.3.5.11.29.11.67.11.67 0 .41-.16.77-.16.77-.17.35-.47.62-.47.62-.3.26-.73.42-.73.42-.43.15-.98.15-.98.15-.73 0-1.35-.27-1.35-.27-.62-.28-1.07-.75-1.07-.75zm6.76 1.5zm.55-3.44c0-.83.23-1.49.23-1.49.23-.66.64-1.12.64-1.12.41-.46.97-.71.97-.71.56-.25 1.22-.25 1.22-.25.63 0 1.1.26 1.1.26.47.26.78.6.78.6l-.5.56c-.27-.29-.6-.46-.6-.46-.33-.17-.77-.17-.77-.17-.5 0-.9.2-.9.2-.4.2-.68.56-.68.56-.28.36-.44.88-.44.88-.16.51-.16 1.15-.16 1.15 0 .65.15 1.17.15 1.17.15.52.43.89.43.89.27.37.66.57.66.57.39.2.88.2.88.2.5 0 .88-.2.88-.2.37-.2.71-.56.71-.56l.49.54c-.41.47-.92.73-.92.73-.51.26-1.18.26-1.18.26-.65 0-1.21-.24-1.21-.24-.55-.25-.95-.7-.95-.7-.41-.46-.63-1.13-.63-1.13-.23-.66-.23-1.5-.23-1.5zm5.45 3.45zm.48-2.54c0-.64.19-1.14.19-1.14.19-.5.52-.85.52-.85.32-.34.75-.52.75-.52.42-.18.9-.18.9-.18.47 0 .89.18.89.18.42.18.75.53.75.53.32.35.52.85.52.85.19.5.19 1.14.19 1.14 0 .63-.19 1.13-.19 1.13-.19.5-.52.84-.52.84-.32.34-.75.52-.75.52-.43.18-.9.18-.9.18-.47 0-.9-.18-.9-.18-.43-.18-.75-.52-.75-.52-.33-.34-.52-.84-.52-.84-.2-.5-.2-1.13-.2-1.13zm0 0zm.89 0c0 .44.1.8.1.8.1.36.3.62.3.62.19.26.47.4.47.4.27.15.6.15.6.15.32 0 .6-.14.6-.14.27-.14.47-.4.47-.4.19-.26.3-.61.3-.61.1-.36.1-.8.1-.8 0-.44-.11-.8-.11-.8-.11-.36-.3-.62-.3-.62-.2-.26-.47-.4-.47-.4-.27-.14-.6-.14-.6-.14-.32 0-.6.14-.6.14-.27.14-.46.41-.46.41-.2.26-.3.63-.3.63-.11.36-.11.8-.11.8zm4.31 2.54zm.49-2.54c0-.62.18-1.12.18-1.12.18-.5.49-.84.49-.84.3-.35.7-.53.7-.53.4-.19.84-.19.84-.19.44 0 .76.16.76.16.32.16.66.43.66.43l-.05-.87v-1.97h.87v7.4h-.7l-.08-.6h-.03c-.3.3-.7.51-.7.51-.39.22-.84.22-.84.22-.97 0-1.54-.69-1.54-.69-.58-.69-.58-1.97-.58-1.97zm0 0zm.89-.01c0 .92.37 1.44.37 1.44.36.51 1.04.51 1.04.51.35 0 .67-.17.67-.17.31-.17.63-.53.63-.53v-2.67c-.33-.29-.63-.41-.63-.41-.3-.12-.62-.12-.62-.12-.3 0-.57.14-.57.14-.27.15-.47.4-.47.4-.2.26-.31.62-.31.62-.12.36-.12.8-.12.8zm4.44 2.55zm.48-2.54c0-.63.19-1.13.19-1.13.19-.5.52-.85.52-.85.32-.34.73-.53.73-.53.41-.18.85-.18.85-.18.48 0 .86.17.86.17.38.17.64.48.64.48.26.32.39.76.39.76.13.44.13.98.13.98 0 .29-.03.48-.03.48h-3.44c.06.83.51 1.31.51 1.31.46.48 1.19.48 1.19.48.37 0 .68-.11.68-.11.31-.11.59-.29.59-.29l.3.57c-.34.21-.75.37-.75.37-.41.16-.94.16-.94.16-.51 0-.96-.18-.96-.18-.45-.18-.78-.52-.78-.52-.33-.34-.52-.83-.52-.83-.19-.49-.19-1.12-.19-1.12zm0 0zm3.57-.39c0-.79-.33-1.2-.33-1.2-.33-.42-.93-.42-.93-.42-.28 0-.52.11-.52.11-.25.11-.45.32-.45.32-.2.2-.33.5-.33.5-.13.3-.17.69-.17.69h2.73zm1.16 2.92zm.68-4.32c0-.3.18-.49.18-.49.18-.18.45-.18.45-.18.25 0 .43.19.43.19.18.19.18.49.18.49 0 .28-.19.47-.19.47-.19.19-.44.19-.44.19-.26 0-.45-.18-.45-.18-.19-.18-.19-.47-.19-.47zm0 0zm0 3.8c0-.3.18-.49.18-.49.18-.18.45-.18.45-.18.25 0 .43.19.43.19.18.19.18.49.18.49 0 .28-.19.47-.19.47-.19.19-.44.19-.44.19-.26 0-.45-.19-.45-.19-.19-.18-.19-.46-.19-.46zm4.05.53zm.42-.51c.76-.76 1.34-1.37 1.34-1.37.59-.61.99-1.13.99-1.13.4-.52.61-.95.61-.95.21-.43.21-.84.21-.84 0-.58-.31-.95-.31-.95-.32-.37-.96-.37-.96-.37-.42 0-.77.24-.77.24-.36.24-.65.57-.65.57l-.49-.49c.42-.46.89-.74.89-.74.47-.28 1.13-.28 1.13-.28.93 0 1.47.54 1.47.54.54.54.54 1.44.54 1.44 0 .47-.21.95-.21.95-.2.48-.57.99-.57.99-.36.51-.86 1.06-.86 1.06-.5.55-1.1 1.17-1.1 1.17l.56-.04c.29-.02.55-.02.55-.02h1.94v.75H347v-.51zm4.8.51zm2.61.13c-1.02 0-1.59-.9-1.59-.9-.57-.9-.57-2.59-.57-2.59 0-1.69.57-2.57.57-2.57.57-.88 1.59-.88 1.59-.88 1.01 0 1.57.89 1.57.89.56.88.56 2.57.56 2.57 0 1.69-.57 2.6-.57 2.6-.57.9-1.58.9-1.58.9zm0 0zm0-.69c.29 0 .53-.16.53-.16.24-.16.41-.5.41-.5.17-.34.27-.87.27-.87.09-.53.09-1.26.09-1.26 0-.73-.1-1.26-.1-1.26-.09-.52-.27-.85-.27-.85-.17-.33-.41-.49-.41-.49-.23-.15-.53-.15-.53-.15-.29 0-.53.15-.53.15-.24.16-.42.49-.42.49-.17.33-.27.86-.27.86-.09.53-.09 1.26-.09 1.26 0 1.47.36 2.14.36 2.14.36.67.95.67.95.67zm2.6.57zm.42-.51c.75-.76 1.34-1.37 1.34-1.37.59-.61.99-1.13.99-1.13.4-.52.61-.95.61-.95.21-.44.21-.85.21-.85 0-.58-.32-.95-.32-.95-.31-.36-.95-.36-.95-.36-.42 0-.77.24-.77.24-.36.24-.65.58-.65.58l-.5-.49c.42-.46.89-.74.89-.74.47-.28 1.14-.28 1.14-.28.93 0 1.47.54 1.47.54.53.55.53 1.44.53 1.44 0 .47-.21.95-.21.95-.21.48-.57.99-.57.99-.36.51-.86 1.06-.86 1.06-.5.55-1.1 1.17-1.1 1.17l.57-.04c.29-.02.55-.02.55-.02h1.94v.75h-4.33v-.52zm74.46.51zm3.87-2.8l-.33-1.05c-.19-.58-.36-1.15-.36-1.15-.17-.57-.34-1.17-.34-1.17h-.04c-.16.6-.33 1.17-.33 1.17-.17.57-.36 1.15-.36 1.15l-.33 1.05h2.07zm0 0zm.22.7h-2.51l-.66 2.1h-.9l2.33-6.89h.99l2.33 6.89h-.94zm1.47 2.1zm1.01-4.4h-.76V753l.8-.05.11-1.43h.72v1.43h1.37v.71h-1.38v2.834c0 .48.17.73.17.73.17.26.61.26.61.26.14 0 .29-.04.29-.04.16-.042.29-.094.29-.094l.17.65c-.21.07-.45.13-.45.13-.25.06-.49.06-.49.06-.41 0-.69-.128-.69-.128-.28-.13-.45-.35-.45-.35-.18-.22-.25-.534-.25-.534-.07-.315-.07-.694-.07-.694v-2.82zm2.44 4.4zm.48-2.54c0-.64.19-1.14.19-1.14.19-.5.52-.84.52-.84.33-.35.75-.52.75-.52.43-.18.9-.18.9-.18.47 0 .9.18.9.18.43.18.75.53.75.53.33.35.52.85.52.85.2.5.2 1.14.2 1.14 0 .63-.2 1.13-.2 1.13-.2.5-.52.84-.52.84-.33.34-.75.52-.75.52-.43.18-.9.18-.9.18-.47 0-.9-.18-.9-.18-.43-.18-.75-.52-.75-.52-.33-.34-.52-.84-.52-.84-.2-.5-.2-1.13-.2-1.13zm0 0zm.89 0c0 .44.1.8.1.8.1.35.3.61.3.61.19.26.46.4.46.4.27.14.6.14.6.14.33 0 .6-.14.6-.14.27-.14.47-.4.47-.4.19-.25.3-.61.3-.61.1-.36.1-.8.1-.8 0-.44-.11-.8-.11-.8-.1-.36-.3-.63-.3-.63-.19-.26-.46-.4-.46-.4-.27-.14-.6-.14-.6-.14-.32 0-.6.14-.6.14-.27.14-.46.41-.46.41-.19.26-.3.63-.3.63-.1.36-.1.8-.1.8zm4.32 2.55zm.86-5.11h.71l.07.74h.03c.33-.37.73-.61.73-.61.39-.25.85-.25.85-.25.59 0 .92.25.92.25.33.26.49.72.49.72.4-.44.8-.71.8-.71.4-.27.87-.27.87-.27.79 0 1.17.51 1.17.51.39.51.39 1.49.39 1.49v3.2h-.86v-3.12c0-.72-.23-1.04-.23-1.04-.23-.32-.71-.32-.71-.32-.58 0-1.28.79-1.28.79V758h-.86v-3.12c0-.724-.23-1.045-.23-1.045-.23-.32-.73-.32-.73-.32-.58 0-1.28.788-1.28.788V758h-.87v-5.105zm7.84 5.11zm.68-4.32c0-.3.18-.49.18-.49.18-.18.44-.18.44-.18.25 0 .43.18.43.18.18.18.18.49.18.49 0 .28-.19.47-.19.47-.18.18-.43.18-.43.18-.26 0-.45-.19-.45-.19-.18-.18-.18-.47-.18-.47zm0 0zm0 3.79c0-.3.18-.49.18-.49.18-.18.44-.18.44-.18.25 0 .43.18.43.18.18.19.18.49.18.49 0 .28-.19.47-.19.47-.18.18-.43.18-.43.18-.26 0-.45-.18-.45-.18-.18-.18-.18-.46-.18-.46zm4.05.53zm.83-.72h1.54v-4.94h-1.22v-.56c.46-.08.8-.2.8-.2.34-.12.61-.29.61-.29h.66v5.99h1.38v.72h-3.78v-.71zm4.39.71zm2.82-.56c.25 0 .46-.1.46-.1.21-.1.37-.3.37-.3.15-.19.24-.46.24-.46.09-.27.09-.6.09-.6 0-.66-.31-1.04-.31-1.04-.3-.38-.93-.38-.93-.38-.32 0-.69.2-.69.2-.37.21-.71.68-.71.68.08.98.46 1.49.46 1.49.37.51 1.01.51 1.01.51zm0 0zm1.37-5.02c-.21-.24-.5-.38-.5-.38-.29-.14-.6-.14-.6-.14-.35 0-.66.15-.66.15-.32.14-.56.48-.56.48-.25.33-.39.88-.39.88-.15.54-.16 1.34-.16 1.34.31-.39.73-.61.73-.61.42-.23.83-.23.83-.23.87 0 1.39.51 1.39.51.52.52.52 1.56.52 1.56 0 .48-.16.88-.16.88-.16.39-.43.67-.43.67-.28.29-.63.44-.63.44-.36.16-.77.16-.77.16-.49 0-.91-.2-.91-.2-.42-.2-.73-.61-.73-.61-.31-.41-.49-1.01-.49-1.01-.18-.61-.18-1.41-.18-1.41 0-1.01.21-1.72.21-1.72.21-.71.57-1.16.57-1.16.35-.44.81-.65.81-.65.45-.2.96-.2.96-.2.54 0 .94.21.94.21.39.21.68.51.68.51zm1.03 5.58zm2.47-3.26c.33 0 .7-.2.7-.2.38-.21.71-.69.71-.69-.08-.99-.46-1.49-.46-1.49-.38-.5-1.02-.5-1.02-.5-.24 0-.46.11-.46.11-.21.11-.37.3-.37.3-.15.2-.24.47-.24.47-.09.27-.09.6-.09.6 0 .66.3 1.04.3 1.04.3.38.93.38.93.38zm0 0zm-1.45 2.14c.21.24.5.39.5.39.29.14.61.14.61.14.35 0 .67-.14.67-.14.31-.14.55-.49.55-.49.24-.34.39-.88.39-.88.15-.55.16-1.36.16-1.36-.31.4-.73.63-.73.63-.42.23-.84.23-.84.23-.88 0-1.39-.51-1.39-.51-.52-.52-.52-1.56-.52-1.56 0-.48.16-.87.16-.87.16-.4.43-.68.43-.68.27-.28.63-.44.63-.44.36-.16.76-.16.76-.16.49 0 .92.2.92.2.42.2.73.61.73.61.31.41.48 1.01.48 1.01.18.61.18 1.42.18 1.42 0 1.01-.21 1.71-.21 1.71-.21.71-.57 1.15-.57 1.15-.35.45-.81.65-.81.65-.45.21-.96.21-.96.21-.53 0-.94-.2-.94-.2-.4-.2-.68-.5-.68-.5zm76.32 1.12zm.96-1.5c.37.39.86.62.86.62.5.24 1.03.24 1.03.24.68 0 1.06-.31 1.06-.31.38-.31.38-.82.38-.82 0-.26-.09-.45-.09-.45-.09-.19-.24-.32-.24-.32-.15-.13-.36-.24-.36-.24l-.45-.22-.99-.43c-.25-.11-.5-.25-.5-.25-.26-.14-.46-.35-.46-.35-.2-.21-.33-.5-.33-.5-.13-.29-.13-.67-.13-.67 0-.39.16-.73.16-.73.16-.34.45-.58.45-.58.29-.25.68-.38.68-.38.4-.13.87-.13.87-.13.62 0 1.14.23 1.14.23.53.24.9.62.9.62l-.47.57c-.32-.3-.7-.48-.7-.48-.38-.17-.87-.17-.87-.17-.58 0-.93.27-.93.27-.35.27-.35.74-.35.74 0 .26.1.43.1.43.1.18.27.31.27.31.17.14.37.23.37.23.2.1.41.19.41.19l.98.42c.29.13.55.29.55.29.27.16.46.38.46.38.19.22.3.51.3.51.11.29.11.665.11.665 0 .41-.16.76-.16.76-.17.35-.47.62-.47.62-.31.26-.74.42-.74.42-.43.15-.98.15-.98.15-.72 0-1.34-.28-1.34-.28-.62-.27-1.08-.75-1.08-.75zm4.64 1.5zm.78-5.1h.87v3.12c0 .73.23 1.05.23 1.05.22.32.73.32.73.32.4 0 .7-.2.7-.2.31-.21.67-.66.67-.66v-3.63h.86v5.1h-.72l-.08-.79h-.03c-.36.42-.75.67-.75.67-.4.25-.93.25-.93.25-.82 0-1.19-.5-1.19-.5-.37-.51-.37-1.49-.37-1.49v-3.24zm4.93 5.11zm.86-7.48h.86v2.04l-.02.93c.34-.3.75-.51.75-.51.41-.2.84-.2.84-.2.5 0 .87.18.87.18.38.18.63.52.63.52.25.34.38.82.38.82.13.47.13 1.06.13 1.06 0 .65-.18 1.17-.18 1.17-.18.51-.48.87-.48.87-.3.36-.7.54-.7.54-.4.18-.84.18-.84.18-.36 0-.74-.16-.74-.16-.38-.16-.72-.47-.72-.47h-.03l-.07.51h-.6v-7.48zm0 0zm.86 6.35c.33.3.66.42.66.42.33.12.58.12.58.12.31 0 .58-.14.58-.14.26-.14.46-.4.46-.4.19-.26.3-.63.3-.63.11-.37.11-.85.11-.85 0-.42-.07-.76-.07-.76-.07-.34-.23-.59-.23-.59-.16-.25-.42-.38-.42-.38-.25-.13-.61-.13-.61-.13-.62 0-1.36.7-1.36.7V757zm4.1 1.14zm.86-7.48h.86v6.51c0 .21.07.3.07.3.07.09.16.09.16.09h.08l.11-.02.11.65c-.08.04-.2.06-.2.06-.11.02-.29.02-.29.02-.49 0-.7-.29-.7-.29-.21-.29-.21-.86-.21-.86v-6.45zm1.82 7.48zm1.3-6.15c-.25 0-.43-.15-.43-.15-.18-.15-.18-.4-.18-.4 0-.25.17-.4.17-.4.17-.15.42-.15.42-.15.25 0 .43.16.43.16.17.16.17.41.17.41 0 .24-.17.4-.17.4-.18.16-.43.16-.43.16zm0 0zm-.44 1.05h.86v5h-.86v-5.11zm1.72 5.11zM571 753h.71l.08.737h.03c.335-.364.73-.61.73-.61.393-.25.855-.25.855-.25.59 0 .92.25.92.25.33.26.49.72.49.72.4-.44.81-.71.81-.71.41-.27.88-.27.88-.27.79 0 1.17.5 1.17.5.39.5.39 1.49.39 1.49v3.2h-.86v-3.12c0-.725-.23-1.046-.23-1.046-.23-.32-.71-.32-.71-.32-.58 0-1.28.79-1.28.79v3.7h-.86v-3.12c0-.72-.24-1.05-.24-1.05-.23-.32-.73-.32-.73-.32-.58 0-1.285.79-1.285.79V758h-.86v-5.105zm7.845 5.107zm.49-2.54c0-.63.19-1.13.19-1.13.2-.5.52-.844.52-.844.32-.35.73-.53.73-.53.41-.19.85-.19.85-.19.485 0 .87.16.87.16.38.17.64.48.64.48.26.31.39.75.39.75.13.44.13.985.13.985 0 .284-.03.47-.03.47h-3.45c.05.83.51 1.32.51 1.32.46.48 1.19.48 1.19.48.37 0 .68-.11.68-.11.31-.11.59-.29.59-.29l.3.57c-.34.21-.75.37-.75.37-.41.16-.94.16-.94.16-.52 0-.96-.182-.96-.182-.45-.18-.78-.53-.78-.53-.33-.34-.52-.83-.52-.83-.19-.49-.19-1.12-.19-1.12zm0 0zm3.57-.39c0-.79-.33-1.2-.33-1.2-.33-.42-.93-.42-.93-.42-.28 0-.52.11-.52.11-.25.11-.45.32-.45.32-.2.205-.33.504-.33.504-.13.3-.17.69-.17.69h2.8zm1.15 2.93zm.68-4.314c0-.31.185-.49.185-.49.18-.19.44-.19.44-.19.25 0 .43.19.43.19.18.19.18.49.18.49 0 .28-.18.47-.18.47-.18.19-.43.19-.43.19-.26 0-.45-.18-.45-.18-.183-.18-.183-.466-.183-.466zm0 0zm0 3.79c0-.31.185-.49.185-.49.18-.18.44-.18.44-.18.25 0 .43.18.43.18.18.18.18.49.18.49 0 .28-.18.46-.18.46-.18.18-.43.18-.43.18-.26 0-.45-.18-.45-.18-.183-.18-.183-.47-.183-.47zm4.056.52zm2.47-3.256c.33 0 .7-.21.7-.21.37-.21.71-.69.71-.69-.08-.99-.46-1.49-.46-1.49-.38-.51-1.02-.51-1.02-.51-.24 0-.45.1-.45.1-.22.1-.38.3-.38.3-.16.19-.25.46-.25.46-.09.274-.09.6-.09.6 0 .66.31 1.04.31 1.04.31.38.94.38.94.38zm0 0zm-1.45 2.13c.21.24.5.39.5.39.29.144.61.144.61.144.36 0 .67-.15.67-.15.31-.15.56-.49.56-.49.25-.34.39-.89.39-.89.15-.55.16-1.36.16-1.36-.31.4-.73.63-.73.63-.42.23-.84.23-.84.23-.87 0-1.38-.52-1.38-.52-.51-.52-.51-1.56-.51-1.56 0-.48.16-.87.16-.87.16-.4.42-.68.42-.68.27-.28.63-.44.63-.44.36-.16.76-.16.76-.16.5 0 .92.2.92.2.43.2.74.6.74.6.31.4.49 1.01.49 1.01.17.6.17 1.41.17 1.41 0 1.01-.21 1.72-.21 1.72-.21.71-.57 1.15-.57 1.15-.36.45-.81.65-.81.65-.46.21-.96.21-.96.21-.54 0-.94-.2-.94-.2-.41-.2-.68-.5-.68-.5zm4.2 1.12zm.42-.51c.76-.755 1.35-1.364 1.35-1.364.59-.61.99-1.13.99-1.13.4-.52.61-.95.61-.95.21-.44.21-.85.21-.85 0-.58-.32-.95-.32-.95-.32-.37-.96-.37-.96-.37-.42 0-.77.23-.77.23-.36.23-.65.57-.65.57l-.49-.5c.42-.46.9-.74.9-.74.47-.28 1.13-.28 1.13-.28.94 0 1.47.54 1.47.54.54.543.54 1.44.54 1.44 0 .47-.2.95-.2.95-.2.48-.57.98-.57.98-.36.51-.86 1.06-.86 1.06-.5.555-1.1 1.174-1.1 1.174l.57-.04c.3-.02.56-.02.56-.02h1.94v.75h-4.33v-.52zm67.03.516zm.95-6.89h.9l2.49 4.33.74 1.43h.04l-.06-1.09c-.04-.56-.04-1.11-.04-1.11v-3.56h.83v6.8h-.9l-2.5-4.337-.74-1.42h-.04l.08 1.064c.04.54.04 1.086.04 1.086v3.6h-.83v-6.89zm5.85 6.89zm.48-2.54c0-.64.19-1.14.19-1.14.19-.5.52-.846.52-.846.32-.35.75-.53.75-.53.42-.18.9-.18.9-.18.47 0 .9.18.9.18.42.18.75.53.75.53.32.35.52.85.52.85.19.5.19 1.14.19 1.14 0 .63-.2 1.13-.2 1.13-.19.5-.52.84-.52.84-.32.34-.75.52-.75.52-.42.18-.9.18-.9.18-.47 0-.89-.18-.89-.18-.42-.18-.75-.52-.75-.52-.32-.34-.52-.84-.52-.84-.19-.5-.19-1.13-.19-1.13zm0 0zm.89 0c0 .44.1.8.1.8.1.353.3.61.3.61.19.26.46.4.46.4.28.15.6.15.6.15.33 0 .6-.14.6-.14.27-.14.47-.4.47-.4.19-.25.3-.61.3-.61.11-.36.11-.8.11-.8 0-.44-.1-.8-.1-.8-.1-.37-.3-.63-.3-.63-.19-.26-.46-.407-.46-.407-.27-.14-.6-.14-.6-.14-.32 0-.59.14-.59.14-.28.14-.47.4-.47.4-.2.26-.3.63-.3.63-.11.37-.11.81-.11.81zm4.32 2.54zm1-4.4h-.76v-.65l.8-.05.11-1.43h.72V753h1.38v.7h-1.38v2.83c0 .47.18.73.18.73.18.25.62.25.62.25.14 0 .29-.04.29-.04.16-.05.29-.1.29-.1l.17.65c-.21.07-.46.13-.46.13-.25.052-.49.052-.49.052-.41 0-.69-.13-.69-.13-.28-.13-.45-.35-.45-.35-.17-.22-.25-.54-.25-.54-.07-.31-.07-.69-.07-.69v-2.82zm2.43 4.4zm.49-2.54c0-.63.2-1.13.2-1.13.19-.5.51-.846.51-.846.32-.35.73-.53.73-.53.41-.19.85-.19.85-.19.49 0 .87.16.87.16.38.17.64.48.64.48.25.31.39.75.39.75.14.44.14.99.14.99 0 .29-.03.478-.03.478h-3.45c.05.83.51 1.32.51 1.32.45.48 1.19.48 1.19.48.37 0 .68-.11.68-.11.31-.11.59-.29.59-.29l.3.567c-.33.21-.74.37-.74.37-.41.16-.93.16-.93.16-.51 0-.96-.19-.96-.19-.45-.18-.78-.52-.78-.52-.33-.34-.52-.83-.52-.83-.19-.49-.19-1.12-.19-1.12zm0 0zm3.57-.39c0-.787-.33-1.2-.33-1.2-.33-.417-.93-.417-.93-.417-.27 0-.52.11-.52.11-.24.11-.44.32-.44.32-.2.21-.33.51-.33.51-.13.3-.18.69-.18.69h2.73zm1.16 2.93zm1.72.43v1.724h-.86v-7.26h.72l.07.59h.03c.35-.3.76-.51.76-.51.41-.21.87-.21.87-.21.49 0 .87.18.87.18.38.18.63.52.63.52.25.34.38.82.38.82.13.47.13 1.07.13 1.07 0 .65-.18 1.16-.18 1.16-.18.51-.48.87-.48.87-.3.36-.7.54-.7.54-.4.19-.84.19-.84.19-.36 0-.71-.16-.71-.16-.35-.15-.71-.43-.71-.43zm0 0zm0-1.56c.35.29.68.41.68.41.32.12.57.12.57.12.32 0 .59-.14.59-.14.27-.14.46-.4.46-.4.19-.26.3-.64.3-.64.11-.38.11-.85.11-.85 0-.42-.07-.77-.07-.77-.07-.343-.24-.59-.24-.59-.16-.25-.42-.384-.42-.384-.26-.13-.61-.13-.61-.13-.33 0-.66.18-.66.18-.33.18-.71.51-.71.51v2.68zm3.97 1.11zm.61-1.326c0-.84.75-1.29.75-1.29.76-.45 2.39-.623 2.39-.623 0-.24-.04-.472-.04-.472-.05-.23-.17-.41-.17-.41-.12-.17-.32-.29-.32-.29-.2-.11-.52-.11-.52-.11-.45 0-.84.17-.84.17-.39.17-.69.38-.69.38l-.35-.6c.35-.23.87-.45.87-.45.51-.22 1.13-.22 1.13-.22.94 0 1.36.57 1.36.57.42.57.42 1.53.42 1.53v3.1h-.71l-.07-.61h-.02c-.37.31-.8.52-.8.52-.42.22-.9.22-.9.22-.65 0-1.07-.38-1.07-.38-.42-.374-.42-1.07-.42-1.07zm0 0zm.85-.066c0 .44.26.63.26.63.26.19.64.19.64.19.37 0 .7-.18.7-.18.33-.17.7-.51.7-.51v-1.42c-.64.09-1.08.2-1.08.2-.44.12-.71.28-.71.28-.27.16-.39.36-.39.36-.11.21-.11.45-.11.45zm3.92 1.38zm.5-2.54c0-.62.18-1.12.18-1.12.19-.49.49-.84.49-.84.31-.35.7-.54.7-.54.4-.19.84-.19.84-.19.45 0 .77.16.77.16.33.16.66.43.66.43l-.04-.87v-1.96h.88v7.4h-.7l-.07-.6h-.03c-.3.3-.7.51-.7.51-.39.22-.84.22-.84.22-.96 0-1.54-.69-1.54-.69-.57-.69-.57-1.97-.57-1.97zm0 0zm.89-.01c0 .93.37 1.44.37 1.44.37.52 1.04.52 1.04.52.36 0 .67-.17.67-.17.32-.17.63-.53.63-.53v-2.67c-.32-.29-.62-.41-.62-.41-.3-.12-.61-.12-.61-.12-.3 0-.57.14-.57.14-.27.15-.46.4-.46.4-.2.26-.32.62-.32.62-.12.36-.12.8-.12.8zm4.45 2.55zm2.27-3.14h-1.91v-.65h1.91v-2.05h.69v2.05h1.91v.65h-1.91v2.05h-.68v-2.05zm2.95 3.14zm2.27-3.14h-1.91v-.65H707v-2.05h.688v2.05h1.91v.65h-1.91v2.05h-.68v-2.05zm2.96 3.14zm.68-4.32c0-.3.19-.49.19-.49.18-.18.44-.18.44-.18.25 0 .43.19.43.19.19.19.19.49.19.49 0 .28-.18.47-.18.47-.18.19-.43.19-.43.19-.26 0-.44-.18-.44-.18-.19-.18-.19-.46-.19-.46zm0 0zm0 3.79c0-.3.19-.49.19-.49.18-.18.44-.18.44-.18.25 0 .43.18.43.18.19.19.19.49.19.49 0 .28-.18.47-.18.47-.18.18-.43.18-.43.18-.26 0-.44-.19-.44-.19-.19-.18-.19-.46-.19-.46zm4.06.53zm.42-.51c.75-.75 1.34-1.36 1.34-1.36.58-.61.98-1.13.98-1.13.4-.52.61-.95.61-.95.21-.43.21-.84.21-.84 0-.58-.32-.95-.32-.95-.32-.37-.96-.37-.96-.37-.42 0-.78.23-.78.23-.36.23-.65.57-.65.57l-.49-.5c.42-.46.89-.74.89-.74.47-.28 1.13-.28 1.13-.28.93 0 1.47.54 1.47.54.53.54.53 1.43.53 1.43 0 .47-.2.95-.2.95-.2.48-.57.99-.57.99-.36.51-.86 1.06-.86 1.06-.5.55-1.1 1.17-1.1 1.17l.57-.04c.3-.02.56-.02.56-.02h1.94v.75h-4.33v-.51zm4.8.52zm1.21-1.79c0 .28.11.52.11.52.11.23.3.4.3.4.19.17.45.27.45.27.26.09.56.09.56.09.59 0 .95-.33.95-.33.36-.33.36-.85.36-.85 0-.33-.15-.56-.15-.56-.14-.23-.4-.41-.4-.41-.25-.18-.58-.32-.58-.32l-.68-.29c-.4.27-.66.63-.66.63-.27.36-.27.83-.27.83zm0 0zm1.89-1.86c.33-.3.52-.64.52-.64.18-.33.18-.7.18-.7 0-.51-.31-.85-.31-.85-.31-.34-.86-.34-.86-.34-.47 0-.78.3-.78.3-.31.29-.31.78-.31.78 0 .3.12.52.12.52.13.21.34.38.34.38.22.17.5.3.5.3.28.13.58.25.58.25zm0 0zm-2.67 1.95c0-.33.11-.61.11-.61.11-.28.28-.51.28-.51.17-.22.4-.4.4-.4.22-.17.47-.3.47-.3v-.04c-.37-.26-.65-.63-.65-.63-.29-.37-.29-.91-.29-.91 0-.39.15-.7.15-.7.14-.31.4-.54.4-.54.25-.22.6-.35.6-.35.34-.12.75-.12.75-.12.44 0 .78.13.78.13.35.14.59.37.59.37.25.24.38.57.38.57.13.33.13.72.13.72 0 .26-.09.51-.09.51-.09.24-.22.45-.22.45-.13.21-.29.38-.29.38-.16.17-.32.28-.32.28v.04c.22.13.43.29.43.29.21.16.37.37.37.37.16.21.26.47.26.47.1.27.1.6.1.6 0 .38-.15.71-.15.71-.15.33-.44.57-.44.57-.28.25-.68.38-.68.38-.4.14-.89.14-.89.14-.47 0-.88-.14-.88-.14-.4-.13-.69-.38-.69-.38-.29-.24-.45-.58-.45-.58-.17-.33-.17-.73-.17-.73zm81.73 1.7zm0-6.89h.94l1.1 3.72c.19.62.33 1.14.33 1.14.14.53.34 1.14.34 1.14h.04c.19-.61.34-1.13.34-1.13l.33-1.14 1.1-3.72h.9l-2.17 6.87h-1.02zm5.25 6.89zm.97-1.5c.37.39.87.62.87.62.5.24 1.03.24 1.03.24.68 0 1.06-.31 1.06-.31.38-.31.38-.82.38-.82 0-.26-.09-.45-.09-.45-.09-.19-.24-.32-.24-.32-.15-.13-.36-.24-.36-.24-.21-.11-.45-.22-.45-.22l-.99-.43c-.24-.11-.5-.26-.5-.26-.25-.15-.45-.36-.45-.36-.2-.21-.33-.5-.33-.5-.13-.29-.13-.67-.13-.67 0-.39.16-.73.16-.73.16-.34.45-.59.45-.59.29-.25.68-.38.68-.38.39-.13.86-.13.86-.13.62 0 1.14.23 1.14.23.53.24.89.62.89.62l-.47.57c-.31-.3-.69-.48-.69-.48-.39-.17-.87-.17-.87-.17-.58 0-.93.27-.93.27-.35.27-.35.74-.35.74 0 .25.1.43.1.43.1.17.27.305.27.305.17.13.37.23.37.23.2.1.41.19.41.19l.98.42c.29.123.55.29.55.29.27.16.45.38.45.38.19.21.3.5.3.5.11.29.11.66.11.66 0 .41-.16.766-.16.766-.17.35-.47.62-.47.62-.31.26-.74.42-.74.42-.43.15-.98.15-.98.15-.72 0-1.34-.28-1.34-.28-.62-.27-1.07-.75-1.07-.75zm4.65 1.5zm.68-4.32c0-.3.18-.49.18-.49.18-.18.44-.18.44-.18.25 0 .43.19.43.19.18.19.18.49.18.49 0 .28-.19.47-.19.47-.18.19-.44.19-.44.19-.26 0-.45-.18-.45-.18-.18-.18-.18-.46-.18-.46zm0 0zm0 3.79c0-.3.18-.49.18-.49.18-.18.44-.18.44-.18.25 0 .43.19.43.19.18.19.18.49.18.49 0 .28-.19.47-.19.47-.18.19-.44.19-.44.19-.26 0-.45-.19-.45-.19-.18-.18-.18-.47-.18-.47zm4.05.53zm.71-1.39c.31.32.71.56.71.56.4.24 1 .24 1 .24.61 0 1-.33 1-.33.39-.33.39-.9.39-.9 0-.3-.11-.54-.11-.54-.11-.25-.36-.43-.36-.43-.25-.18-.66-.27-.66-.27-.41-.09-1.01-.09-1.01-.09v-.67c.54 0 .9-.1.9-.1.37-.1.59-.26.59-.26.23-.17.32-.4.32-.4.1-.23.1-.5.1-.5 0-.5-.31-.78-.31-.78-.31-.29-.84-.29-.84-.29-.42 0-.77.19-.77.19-.35.18-.65.49-.65.49l-.46-.55c.39-.37.86-.61.86-.61.47-.24 1.07-.24 1.07-.24.44 0 .81.11.81.11.37.11.64.33.64.33.27.21.42.53.42.53.14.31.14.72.14.72 0 .61-.34 1-.34 1-.34.39-.89.6-.89.6v.04c.31.08.57.22.57.22.26.14.46.36.46.36.2.21.31.5.31.5.11.28.11.63.11.63 0 .44-.17.8-.17.8-.17.36-.47.6-.47.6-.3.25-.69.38-.69.38-.4.13-.86.13-.86.13-.4 0-.73-.08-.73-.08-.33-.07-.6-.21-.6-.21-.27-.13-.49-.29-.49-.29-.22-.17-.38-.36-.38-.36zm91.09 1.39zm3.49.12c-.65 0-1.19-.25-1.19-.25-.54-.25-.92-.72-.92-.72-.39-.47-.6-1.13-.6-1.13-.22-.67-.22-1.5-.22-1.5 0-.83.21-1.48.21-1.48.21-.66.6-1.11.6-1.11.39-.45.93-.7.93-.7.54-.24 1.19-.24 1.19-.24.65 0 1.19.25 1.19.25.54.25.93.71.93.71.4.46.61 1.11.61 1.11.22.66.22 1.47.22 1.47 0 .83-.22 1.5-.22 1.5-.22.67-.61 1.14-.61 1.14-.39.47-.93.72-.93.72-.54.25-1.2.25-1.2.25zm0 0zm0-.77c.46 0 .83-.2.83-.2.38-.2.64-.58.64-.58.27-.38.42-.9.42-.9.15-.52.15-1.17.15-1.17 0-.64-.14-1.16-.14-1.16-.14-.52-.41-.87-.41-.87-.27-.36-.64-.56-.64-.56-.37-.19-.83-.19-.83-.19-.46 0-.83.19-.83.19-.37.19-.64.55-.64.55-.27.35-.41.87-.41.87-.15.51-.15 1.15-.15 1.15 0 .65.15 1.17.15 1.17.15.52.42.9.42.9.27.37.64.57.64.57.37.2.84.2.84.2zm3.49.64zm1.01-4.4h-.75V753l.8-.05.11-1.43h.72v1.43h1.38v.7h-1.38v2.83c0 .47.17.73.17.73.17.25.61.25.61.25.13 0 .29-.05.29-.05.15-.04.28-.1.28-.1l.17.65c-.21.08-.46.14-.46.14-.25.06-.49.06-.49.06-.41 0-.69-.13-.69-.13-.28-.13-.45-.35-.45-.35-.18-.22-.25-.533-.25-.533-.08-.315-.08-.694-.08-.694v-2.82zm2.54 4.4zm.87-7.48h.87v2.04l-.03 1.05c.37-.35.77-.6.77-.6.4-.25.94-.25.94-.25.81 0 1.18.5 1.18.5.37.5.37 1.49.37 1.49v3.2h-.86v-3.12c0-.72-.23-1.04-.23-1.04-.23-.32-.736-.32-.736-.32-.4 0-.7.2-.7.2-.31.2-.7.59-.7.59V758h-.86v-7.48zm4.86 7.48zm.488-2.55c0-.63.19-1.13.19-1.13.19-.5.51-.85.51-.85.32-.35.73-.53.73-.53.41-.19.85-.19.85-.19.48 0 .87.16.87.16.38.17.64.48.64.48.25.31.39.76.39.76.13.44.13.99.13.99 0 .28-.03.47-.03.47h-3.45c.05.83.51 1.31.51 1.31.45.49 1.19.49 1.19.49.37 0 .68-.11.68-.11.31-.11.59-.29.59-.29l.3.57c-.34.21-.75.37-.75.37-.41.16-.94.16-.94.16-.52 0-.96-.18-.96-.18-.45-.18-.78-.52-.78-.52-.33-.34-.52-.84-.52-.84-.19-.49-.19-1.12-.19-1.12zm0 0zm3.57-.39c0-.79-.33-1.2-.33-1.2-.33-.42-.93-.42-.93-.42-.28 0-.52.11-.52.11-.25.11-.45.31-.45.31-.2.2-.33.5-.33.5-.13.3-.18.69-.18.69h2.73zm1.15 2.93zm.86-5.11h.71l.08.92h.03c.26-.49.634-.77.634-.77.37-.29.816-.29.816-.29.3 0 .54.1.54.1l-.17.76c-.13-.04-.23-.06-.23-.06-.11-.02-.27-.02-.27-.02-.33 0-.68.26-.68.26-.36.26-.62.92-.62.92v3.3h-.86v-5.11zm2.78 5.11zm.68-4.32c0-.31.19-.49.19-.49.19-.19.45-.19.45-.19.26 0 .44.19.44.19.18.18.18.49.18.49 0 .28-.18.46-.18.46-.18.18-.43.18-.43.18-.26 0-.44-.18-.44-.18-.18-.18-.18-.47-.18-.47zm0 0zm0 3.79c0-.31.19-.49.19-.49.19-.18.45-.18.45-.18.26 0 .44.18.44.18.18.18.18.49.18.49 0 .28-.18.46-.18.46-.18.18-.43.18-.43.18-.26 0-.44-.19-.44-.19-.18-.18-.18-.47-.18-.47zm4.06.52zm.83-.72h1.54v-4.94h-1.21v-.56c.47-.09.81-.21.81-.21.34-.12.62-.29.62-.29h.66v5.99h1.4v.72h-3.78v-.71zm4.39.71zm.72-1.39c.31.31.71.56.71.56.41.24 1.01.24 1.01.24.61 0 1-.33 1-.33.39-.33.39-.9.39-.9 0-.29-.11-.54-.11-.54-.11-.25-.36-.42-.36-.42-.25-.18-.66-.27-.66-.27-.41-.09-1.01-.09-1.01-.09v-.66c.54 0 .9-.09.9-.09.36-.1.59-.26.59-.26.23-.17.32-.4.32-.4.1-.23.1-.5.1-.5 0-.5-.31-.78-.31-.78-.31-.29-.84-.29-.84-.29-.42 0-.77.19-.77.19-.35.19-.65.49-.65.49l-.46-.54c.39-.37.86-.6.86-.6.47-.24 1.07-.24 1.07-.24.44 0 .81.11.81.11.37.11.633.33.633.33.27.21.418.53.418.53.15.31.15.72.15.72 0 .61-.34 1-.34 1-.33.39-.88.6-.88.6v.04c.31.08.57.22.57.22.27.14.47.36.47.36.2.21.31.5.31.5.11.28.11.63.11.63 0 .44-.17.8-.17.8-.17.35-.47.6-.47.6-.3.24-.7.38-.7.38-.4.13-.863.13-.863.13-.4 0-.73-.08-.73-.08-.33-.08-.604-.21-.604-.21-.273-.13-.49-.3-.49-.3-.21-.17-.38-.36-.38-.36zm4.51 1.39zm3.19-2.54v-1.94c0-.27.02-.65.02-.65.02-.38.04-.65.04-.65-.12.24-.26.47-.26.47l-.28.48-1.56 2.29h2.1zm0 0zm1.74.7h-.91v1.8h-.8v-1.85h-3v-.56l2.87-4.28h.97v4.16h.91v.7z"/></svg>