<svg xmlns="http://www.w3.org/2000/svg" stroke="#000" viewBox="0 0 1024 768" font-size="1"><path fill="#FFF" stroke="none" d="M0 0v768h1024V0z"/><path stroke="none" d="M406.1 14.102zm.215-10.04h2.325l.693 4.696c.093.785.2 1.578.2 1.578.108.793.2 1.594.2 1.594h.062c.154-.8.3-1.594.3-1.594.147-.793.3-1.578.3-1.578l1.08-4.697h1.924l1.07 4.7c.15.77.3 1.57.3 1.57l.3 1.61h.06l.2-1.6c.1-.78.21-1.57.21-1.57l.69-4.69h2.17l-1.79 10.04h-2.85l-.99-4.56c-.13-.58-.23-1.17-.23-1.17-.1-.59-.18-1.14-.18-1.14h-.07l-.19 1.15c-.1.6-.23 1.18-.23 1.18l-.94 4.56h-2.8zM418.62 14.1zm1-10.796h2.265v2.65l-.108 1.37c.43-.386 1-.717 1-.717.57-.332 1.356-.332 1.356-.332 1.247 0 1.81.816 1.81.816.562.82.562 2.27.562 2.27v4.74h-2.264V9.65c0-.834-.22-1.14-.22-1.14-.22-.31-.71-.31-.71-.31-.43 0-.74.193-.74.193-.31.192-.68.547-.68.547v5.16h-2.26V3.305zm7.793 10.796zm2.125-8.763c-.57 0-.94-.332-.94-.332-.368-.33-.368-.855-.368-.855 0-.524.37-.847.37-.847.37-.323.938-.323.938-.323.586 0 .948.323.948.323.36.323.36.847.36.847 0 .524-.36.855-.36.855-.362.33-.948.33-.948.33zm0 0zm-1.124 1.123h2.264v7.64h-2.264V6.46zm3.25 7.64zm.554-3.82c0-.956.324-1.702.324-1.702.323-.746.87-1.255.87-1.255.546-.508 1.27-.777 1.27-.777.724-.27 1.51-.27 1.51-.27.708 0 1.278.24 1.278.24.57.238.954.638.954.638l-1.03 1.4c-.54-.445-1.064-.445-1.064-.445-.832 0-1.31.58-1.31.58-.476.58-.476 1.58-.476 1.58 0 1 .485 1.58.485 1.58.48.58 1.22.58 1.22.58.41 0 .75-.17.75-.17.34-.17.61-.39.61-.39l.91 1.43c-.56.49-1.23.72-1.23.72-.68.23-1.31.23-1.31.23-.8 0-1.49-.27-1.49-.27-.69-.27-1.2-.78-1.2-.78-.51-.51-.8-1.26-.8-1.26-.3-.75-.3-1.7-.3-1.7zm6.638 3.82zm1-10.797h2.265v2.65l-.1 1.37c.43-.386 1-.717 1-.717.57-.332 1.36-.332 1.36-.332 1.25 0 1.81.816 1.81.816.56.817.56 2.264.56 2.264v4.744h-2.26v-4.45c0-.833-.22-1.14-.22-1.14-.22-.31-.71-.31-.71-.31-.43 0-.74.194-.74.194-.3.192-.67.547-.67.547v5.16h-2.26V3.3zM450.853 14.1zm3.265.6v2.232h-2.264V6.462h1.848l.154.756h.06c.448-.4 1.01-.67 1.01-.67.562-.27 1.163-.27 1.163-.27.69 0 1.24.277 1.24.277.55.278.94.786.94.786.38.51.59 1.23.59 1.23.21.72.21 1.6.21 1.6 0 .99-.27 1.75-.27 1.75-.27.77-.73 1.3-.73 1.3-.46.54-1.03.81-1.03.81-.58.28-1.2.28-1.2.28-.5 0-.96-.21-.96-.21-.46-.21-.86-.59-.86-.59zm0 0zm0-2.757c.308.277.616.385.616.385.308.108.6.108.6.108.585 0 1-.53 1-.53.417-.532.417-1.718.417-1.718 0-2.064-1.32-2.064-1.32-2.064-.66 0-1.31.693-1.31.693v3.126zm5.56 2.156zm1-10.8h2.264v8.51c0 .35.13.49.13.49.132.14.27.14.27.14h.13l.148-.04.277 1.68c-.185.07-.47.13-.47.13-.285.05-.67.05-.67.05-.585 0-.985-.19-.985-.19-.4-.19-.64-.52-.64-.52-.238-.33-.346-.8-.346-.8-.108-.47-.108-1.06-.108-1.06V3.3zm3.404 10.79zm.723-2.13c0-1.2 1.017-1.88 1.017-1.88 1.016-.68 3.28-.91 3.28-.91-.03-.51-.308-.81-.308-.81-.277-.3-.893-.3-.893-.3-.49 0-.98.18-.98.18-.49.18-1.04.51-1.04.51l-.8-1.5c.74-.45 1.55-.73 1.55-.73.81-.28 1.72-.28 1.72-.28 1.48 0 2.26.84 2.26.84.78.84.78 2.61.78 2.61v4.37h-1.85l-.17-.79h-.04c-.49.43-1.04.7-1.04.7-.54.27-1.19.27-1.19.27-.52 0-.94-.18-.94-.18-.41-.18-.71-.5-.71-.5-.29-.32-.45-.73-.45-.73-.16-.42-.16-.91-.16-.91zm0 0zm2.156-.17c.01.37.24.55.24.55.24.17.64.17.64.17.4 0 .68-.17.68-.17.28-.17.59-.48.59-.48v-1.34c-1.21.17-1.68.49-1.68.49-.46.32-.46.77-.46.77zm5.35 2.29zm1.31-5.87h-1.05V6.55l1.17-.09.26-2.03h1.88v2.033h1.84v1.77h-1.83V11.3c0 .646.27.93.27.93.27.285.72.285.72.285.19 0 .38-.046.38-.046.2-.05.35-.11.35-.11l.36 1.65c-.31.09-.72.18-.72.18-.41.09-.97.09-.97.09-.71 0-1.21-.22-1.21-.22-.5-.22-.81-.6-.81-.6-.31-.39-.46-.94-.46-.94-.14-.55-.14-1.21-.14-1.21V8.23zm4.59 5.87zm5.31-9.04c-.43-.16-.78-.16-.78-.16-.41 0-.64.25-.64.25-.23.25-.23.84-.23.84v.46h1.37V8.2h-1.37v5.87h-2.27V8.23h-1.01V6.55l1.02-.076V6.06c0-.6.15-1.14.15-1.14.15-.54.49-.94.49-.94.34-.4.88-.63.88-.63.54-.232 1.31-.232 1.31-.232.47 0 .87.095.87.095.39.092.65.184.65.184zm-.21 9.04zm.56-3.82c0-.96.31-1.7.31-1.7.31-.75.83-1.26.83-1.26.52-.51 1.2-.78 1.2-.78.68-.27 1.4-.27 1.4-.27.73 0 1.4.27 1.4.27.67.27 1.19.77 1.19.77.52.51.83 1.25.83 1.25.31.74.31 1.7.31 1.7 0 .95-.31 1.7-.31 1.7-.31.74-.82 1.25-.82 1.25-.51.5-1.18.77-1.18.77-.67.27-1.39.27-1.39.27-.72 0-1.4-.27-1.4-.27-.67-.27-1.19-.78-1.19-.78-.51-.51-.82-1.26-.82-1.26-.31-.75-.31-1.7-.31-1.7zm0 0zm2.33 0c0 1 .35 1.58.35 1.58.35.58 1.06.58 1.06.58.69 0 1.05-.59 1.05-.59.36-.59.36-1.59.36-1.59 0-1-.35-1.59-.35-1.59-.35-.59-1.04-.59-1.04-.59-.71 0-1.05.58-1.05.58-.34.58-.34 1.58-.34 1.58zm5.67 3.82zm1-7.64h1.85l.16 1.34h.06c.42-.79 1-1.16 1-1.16.59-.37 1.17-.37 1.17-.37.33 0 .53.04.53.04.21.03.38.11.38.11l-.37 1.95c-.21-.06-.4-.09-.4-.09-.18-.03-.43-.03-.43-.03-.43 0-.9.3-.9.3-.47.31-.78 1.09-.78 1.09v4.44h-2.26v-7.6zm5.13 7.64zm1-7.64h1.85l.16.98h.07c.48-.48 1.02-.83 1.02-.83.54-.35 1.29-.35 1.29-.35.82 0 1.32.33 1.32.33.5.33.79.95.79.95.51-.53 1.07-.9 1.07-.9.57-.38 1.34-.38 1.34-.38 1.23 0 1.81.82 1.81.82.58.82.58 2.25.58 2.25v4.74H508V9.64c0-.832-.223-1.14-.223-1.14-.223-.31-.715-.31-.715-.31-.57 0-1.31.74-1.31.74v5.16h-2.266V9.64c0-.832-.225-1.14-.225-1.14-.22-.31-.71-.31-.71-.31-.58 0-1.29.74-1.29.74v5.16H499V6.45zm12.2 7.64zm1.34-2.3c.53.4 1 .6 1 .6.48.2.97.2.97.2.51 0 .74-.17.74-.17.23-.17.23-.48.23-.48 0-.18-.13-.33-.13-.33-.13-.15-.35-.27-.35-.27-.22-.12-.5-.22-.5-.22-.28-.1-.57-.23-.57-.23-.35-.14-.71-.33-.71-.33-.35-.18-.64-.45-.64-.45-.29-.27-.48-.63-.48-.63-.18-.36-.18-.84-.18-.84 0-.52.21-.97.21-.97.21-.45.59-.76.59-.76.39-.31.93-.49.93-.49.54-.18 1.2-.18 1.2-.18.88 0 1.54.3 1.54.3.67.3 1.16.67 1.16.67l-1.02 1.35c-.41-.31-.81-.48-.81-.48-.4-.17-.8-.17-.8-.17-.86 0-.86.6-.86.6 0 .18.13.31.13.31.12.13.33.24.33.24.21.11.48.21.48.21l.57.2c.37.14.73.32.73.32.36.18.66.44.66.44.3.26.49.64.49.64.19.38.19.9.19.9 0 .52-.2.97-.2.97-.2.45-.6.78-.6.78-.4.33-.98.52-.98.52-.59.19-1.36.19-1.36.19-.75 0-1.55-.29-1.55-.29-.79-.3-1.38-.77-1.38-.77zm8.69 2.29zm.6-3.82c0-.94.27-1.68.27-1.68.27-.74.71-1.26.71-1.26.44-.52 1.02-.8 1.02-.8.58-.28 1.18-.28 1.18-.28.65 0 1.06.21 1.06.21.42.21.82.58.82.58l-.09-1.17V3.3h2.27v10.8h-1.85l-.15-.754H527c-.4.4-.94.67-.94.67-.54.27-1.094.27-1.094.27-.71 0-1.285-.278-1.285-.278-.57-.278-.98-.794-.98-.794-.41-.516-.63-1.255-.63-1.255-.22-.74-.22-1.68-.22-1.68zm0 0zm2.33-.03c0 1.14.37 1.66.37 1.66.36.52 1.03.52 1.03.52.37 0 .67-.16.67-.16.3-.16.58-.54.58-.54V8.6c-.31-.28-.63-.386-.63-.386-.32-.11-.63-.11-.63-.11-.54 0-.96.517-.96.517-.41.52-.41 1.61-.41 1.61zm5.9 3.85zm.56-3.82c0-.96.31-1.7.31-1.7.31-.75.83-1.26.83-1.26.51-.51 1.19-.78 1.19-.78.68-.27 1.4-.27 1.4-.27.73 0 1.4.27 1.4.27.67.27 1.19.78 1.19.78.52.51.83 1.25.83 1.25.31.74.31 1.7.31 1.7 0 .95-.31 1.7-.31 1.7-.31.74-.82 1.25-.82 1.25-.51.5-1.18.77-1.18.77-.67.27-1.39.27-1.39.27-.72 0-1.4-.27-1.4-.27-.68-.27-1.19-.78-1.19-.78-.51-.51-.82-1.26-.82-1.26-.31-.75-.31-1.7-.31-1.7zm0 0zm2.33 0c0 1 .35 1.58.35 1.58.35.58 1.05.58 1.05.58.7 0 1.05-.59 1.05-.59.36-.59.36-1.59.36-1.59 0-1-.35-1.59-.35-1.59-.35-.58-1.04-.58-1.04-.58-.71 0-1.05.58-1.05.58-.35.59-.35 1.59-.35 1.59zm8.87 3.82zm1.17 1.1c.11.03.25.06.25.06.14.03.26.03.26.03.57 0 .88-.28.88-.28.31-.28.46-.73.46-.73l.11-.4-2.94-7.44h2.28l1.1 3.28c.17.52.31 1.06.31 1.06.14.54.29 1.11.29 1.11h.06c.12-.54.25-1.09.25-1.09.13-.55.27-1.09.27-1.09l.92-3.28h2.17l-2.65 7.72c-.28.72-.58 1.27-.58 1.27-.3.54-.69.9-.69.9-.39.36-.89.54-.89.54-.5.18-1.18.18-1.18.18-.36 0-.6-.04-.6-.04-.25-.04-.48-.12-.48-.12l.4-1.72zm6.73-1.11zm.55-3.82c0-.96.31-1.7.31-1.7.31-.75.83-1.26.83-1.26.52-.51 1.2-.78 1.2-.78.68-.27 1.4-.27 1.4-.27.73 0 1.4.27 1.4.27.67.27 1.19.78 1.19.78.52.51.83 1.25.83 1.25.31.75.31 1.7.31 1.7 0 .95-.31 1.7-.31 1.7-.31.74-.82 1.25-.82 1.25-.51.5-1.18.77-1.18.77-.67.27-1.39.27-1.39.27-.72 0-1.4-.27-1.4-.27-.68-.27-1.19-.78-1.19-.78-.51-.51-.82-1.26-.82-1.26-.31-.75-.31-1.7-.31-1.7zm0 0zm2.33 0c0 1 .35 1.58.35 1.58.35.59 1.06.59 1.06.59.7 0 1.05-.59 1.05-.59.36-.59.36-1.59.36-1.59 0-1-.35-1.59-.35-1.59-.36-.59-1.05-.59-1.05-.59-.71 0-1.05.58-1.05.58-.35.58-.35 1.58-.35 1.58zm5.67 3.82zm.93-7.64h2.27v4.45c0 .83.23 1.14.23 1.14.23.31.73.31.73.31.43 0 .72-.2.72-.2.29-.2.63-.65.63-.65V6.45H566v7.65h-1.85l-.17-1.063h-.044c-.493.584-1.055.915-1.055.915-.56.33-1.34.33-1.34.33-1.24 0-1.81-.815-1.81-.815-.56-.816-.56-2.264-.56-2.264v-4.74zm11.03 7.64zm1.31-5.87h-1.05V6.55l1.17-.09.26-2.033h1.88V6.46h1.83v1.77h-1.83v3.07c0 .646.27.93.27.93.27.285.72.285.72.285.18 0 .38-.046.38-.046.2-.05.35-.11.35-.11l.35 1.65c-.31.09-.73.18-.73.18-.42.09-.97.09-.97.09-.71 0-1.21-.22-1.21-.22-.5-.22-.82-.6-.82-.6-.31-.39-.46-.94-.46-.94-.14-.55-.14-1.21-.14-1.21V8.23zm4.41 5.87zm.72-2.13c0-1.2 1.02-1.88 1.02-1.88 1.02-.68 3.28-.91 3.28-.91-.03-.51-.31-.81-.31-.81-.27-.3-.89-.3-.89-.3-.49 0-.98.18-.98.18-.49.19-1.04.51-1.04.51l-.8-1.49c.74-.45 1.55-.73 1.55-.73.81-.28 1.72-.28 1.72-.28 1.48 0 2.26.84 2.26.84.78.84.78 2.61.78 2.61v4.37h-1.85l-.17-.79h-.05c-.49.43-1.04.7-1.04.7-.54.27-1.19.27-1.19.27-.52 0-.94-.18-.94-.18-.41-.18-.7-.49-.7-.49-.29-.32-.45-.73-.45-.73-.16-.42-.16-.91-.16-.91zm0 0zm2.16-.17c0 .37.24.54.24.54.24.18.64.18.64.18.4 0 .68-.17.68-.17.28-.17.58-.48.58-.48V10.5c-1.22.17-1.68.495-1.68.495-.46.32-.46.77-.46.77zm5.34 2.29zm1-7.64H587l.155 1.34h.06c.416-.79 1-1.16 1-1.16.586-.37 1.17-.37 1.17-.37.325 0 .533.04.533.04.206.03.375.11.375.11l-.37 1.95c-.213-.07-.4-.1-.4-.1-.183-.03-.43-.03-.43-.03-.43 0-.9.31-.9.31-.47.31-.78 1.09-.78 1.09v4.45h-2.262v-7.6zm4.98 7.64zm2.39.95c0 .43.46.66.46.66.46.22 1.23.22 1.23.22.77 0 1.26-.27 1.26-.27.5-.27.5-.67.5-.67 0-.35-.3-.48-.3-.48-.3-.13-.87-.13-.87-.13h-.78c-.4 0-.65-.03-.65-.03-.25-.02-.43-.07-.43-.07-.42.37-.42.76-.42.76zm0 0zm-1.86.36c0-.93 1.1-1.54 1.1-1.54v-.06c-.31-.2-.51-.51-.51-.51-.2-.31-.2-.79-.2-.79 0-.42.25-.8.25-.8.25-.38.62-.64.62-.64V11c-.4-.277-.71-.792-.71-.792-.31-.515-.31-1.193-.31-1.193 0-.693.26-1.21.26-1.21.26-.515.7-.86.7-.86.44-.348 1.01-.517 1.01-.517.57-.17 1.19-.17 1.19-.17.68 0 1.19.186 1.19.186H598V8.1h-1.212c.11.17.18.43.18.43.07.263.07.57.07.57 0 .663-.23 1.148-.23 1.148-.23.484-.64.8-.64.8-.41.316-.957.47-.957.47-.55.154-1.18.154-1.18.154-.45 0-.93-.154-.93-.154-.15.124-.21.247-.21.247-.06.123-.06.324-.06.324 0 .29.26.43.26.43.25.14.9.14.9.14h1.23c1.42 0 2.16.45 2.16.45.75.45.75 1.48.75 1.48 0 .6-.3 1.1-.3 1.1-.3.5-.86.86-.86.86-.55.36-1.34.57-1.34.57-.78.21-1.77.21-1.77.21-.68 0-1.25-.12-1.25-.12-.58-.12-1.01-.35-1.01-.35-.44-.23-.68-.6-.68-.6-.24-.37-.24-.88-.24-.88zm0 0zm3.38-5.1c.45 0 .75-.32.75-.32.3-.32.3-.96.3-.96 0-.6-.3-.92-.3-.92-.3-.32-.75-.32-.75-.32-.45 0-.75.3-.75.3-.3.31-.3.93-.3.93 0 .64.3.96.3.96.3.31.75.31.75.31zm4.05 3.79zm.56-3.82c0-.93.31-1.67.31-1.67.31-.75.81-1.26.81-1.26.5-.52 1.15-.8 1.15-.8.64-.28 1.34-.28 1.34-.28.81 0 1.42.28 1.42.28.61.27 1.02.77 1.02.77.4.49.61 1.16.61 1.16.2.67.2 1.45.2 1.45 0 .31-.04.56-.04.56-.03.25-.06.39-.06.39h-4.58c.15.88.69 1.27.69 1.27.53.39 1.3.39 1.3.39.82 0 1.65-.51 1.65-.51l.76 1.37c-.583.4-1.3.63-1.3.63-.715.23-1.41.23-1.41.23-.814 0-1.523-.27-1.523-.27-.71-.27-1.23-.79-1.23-.79-.52-.52-.81-1.26-.81-1.26-.29-.74-.29-1.7-.29-1.7zm0 0zm4.93-.79c0-.66-.29-1.08-.29-1.08-.29-.42-.98-.42-.98-.42-.54 0-.95.36-.95.36-.41.36-.53 1.13-.53 1.13h2.76zm2.22 4.6zm1.31-5.87H606V6.54l1.173-.09.262-2.035h1.878v2.04h1.832v1.77h-1.833v3.07c0 .645.27.93.27.93.27.284.715.284.715.284.185 0 .377-.05.377-.05.193-.05.347-.11.347-.11l.36 1.65c-.3.09-.72.18-.72.18-.41.09-.97.09-.97.09-.7 0-1.21-.22-1.21-.22-.5-.22-.81-.6-.81-.6-.31-.39-.46-.93-.46-.93-.14-.55-.14-1.21-.14-1.21V8.23zm4.59 5.86zm2.37-3.55c-.08-.53.04-.96.04-.96.11-.44.33-.81.33-.81.21-.37.48-.68.48-.68l.52-.6c.25-.28.41-.55.41-.55.16-.27.16-.56.16-.56 0-.48-.28-.73-.28-.73-.28-.24-.742-.24-.742-.24-.43 0-.764.2-.764.2-.33.2-.64.51-.64.51L612.26 5c.525-.63 1.23-1.016 1.23-1.016.71-.385 1.57-.385 1.57-.385.65 0 1.21.15 1.21.15.565.15.97.47.97.47.41.32.64.82.64.82.23.5.23 1.18.23 1.18 0 .47-.17.85-.17.85-.165.37-.42.7-.42.7-.254.32-.54.62-.54.62-.283.3-.522.62-.522.62-.23.32-.37.68-.37.68-.14.36-.09.82-.09.82h-1.986zm0 0zm-.37 2.32c0-.62.38-1.03.38-1.03.38-.41.97-.41.97-.41.58 0 .98.41.98.41.4.41.4 1.02.4 1.02 0 .6-.39 1-.39 1-.4.41-.98.41-.98.41-.59 0-.97-.41-.97-.41-.39-.4-.39-1-.39-1z"/><path fill="none" stroke="#D3D3D3" stroke-miterlimit="10" d="M39.59 738h954.762M39.59 597.4h954.762M39.59 456.8h954.762M39.59 316.2h954.762M39.59 175.6h954.762M39.59 35h954.762" stroke-dasharray="5 5"/><g fill="#5C3566" stroke-opacity="0" stroke-width="0" stroke-miterlimit="10" stroke-linejoin="bevel"><defs><clipPath id="a"><path d="M39.59 35v703h954.762V35z"/></clipPath></defs><g clip-path="url(#a)"><path stroke="none" d="M54.59 738V116.548h129.127V738z"/></g></g><g fill-opacity="0" stroke-miterlimit="10"><defs><clipPath id="b"><path d="M39.59 35v703h954.762V35z"/></clipPath></defs><g clip-path="url(#b)"><path fill="none" d="M54.59 738V116.548h129.127V738z"/></g></g><g fill="#5C3566" stroke-opacity="0" stroke-width="0" stroke-miterlimit="10" stroke-linejoin="bevel"><defs><clipPath id="c"><path d="M39.59 35v703h954.762V35z"/></clipPath></defs><g clip-path="url(#c)"><path stroke="none" d="M213.717 738V493.918h129.127V738z"/></g></g><g fill-opacity="0" stroke-miterlimit="10"><defs><clipPath id="d"><path d="M39.59 35v703h954.762V35z"/></clipPath></defs><g clip-path="url(#d)"><path fill="none" d="M213.717 738V493.918h129.127V738z"/></g></g><g fill="#5C3566" stroke-opacity="0" stroke-width="0" stroke-miterlimit="10" stroke-linejoin="bevel"><defs><clipPath id="e"><path d="M39.59 35v703h954.762V35z"/></clipPath></defs><g clip-path="url(#e)"><path stroke="none" d="M372.844 738V541.16H501.97V738z"/></g></g><g fill-opacity="0" stroke-miterlimit="10"><defs><clipPath id="f"><path d="M39.59 35v703h954.762V35z"/></clipPath></defs><g clip-path="url(#f)"><path fill="none" d="M372.844 738V541.16H501.97V738z"/></g></g><g fill="#5C3566" stroke-opacity="0" stroke-width="0" stroke-miterlimit="10" stroke-linejoin="bevel"><defs><clipPath id="g"><path d="M39.59 35v703h954.762V35z"/></clipPath></defs><g clip-path="url(#g)"><path stroke="none" d="M531.97 738v-30.37H661.1V738z"/></g></g><g fill-opacity="0" stroke-miterlimit="10"><defs><clipPath id="h"><path d="M39.59 35v703h954.762V35z"/></clipPath></defs><g clip-path="url(#h)"><path fill="none" d="M531.97 738v-30.37H661.1V738z"/></g></g><g fill="#5C3566" stroke-opacity="0" stroke-width="0" stroke-miterlimit="10" stroke-linejoin="bevel"><defs><clipPath id="i"><path d="M39.59 35v703h954.762V35z"/></clipPath></defs><g clip-path="url(#i)"><path stroke="none" d="M691.098 738v-21.37h129.127V738z"/></g></g><g fill-opacity="0" stroke-miterlimit="10"><defs><clipPath id="j"><path d="M39.59 35v703h954.762V35z"/></clipPath></defs><g clip-path="url(#j)"><path fill="none" d="M691.098 738v-21.37h129.127V738z"/></g></g><g fill="#5C3566" stroke-opacity="0" stroke-width="0" stroke-miterlimit="10" stroke-linejoin="bevel"><defs><clipPath id="k"><path d="M39.59 35v703h954.762V35z"/></clipPath></defs><g clip-path="url(#k)"><path stroke="none" d="M850.225 738v-38.243h129.127V738z"/></g></g><g fill-opacity="0" stroke-miterlimit="10"><defs><clipPath id="l"><path d="M39.59 35v703h954.762V35z"/></clipPath></defs><g clip-path="url(#l)"><path fill="none" d="M850.225 738v-38.243h129.127V738z"/></g></g><path fill="none" stroke-miterlimit="10" d="M39.59 738V35" stroke-linecap="square"/><path fill="none" stroke-miterlimit="10" d="M39.59 738h2m-2-112.48h2m-2-112.48h2m-2-112.48h2m-2-112.48h2m-2-112.48h2m-2-112.48h2m-2-112.48h2m-2 787.36h5m-5-140.6h5m-5-140.6h5m-5-140.6h5m-5-140.6h5m-5-140.6h5"/><path stroke="none" d="M25.294 741.445zm2.616.126c-1.02 0-1.586-.9-1.586-.9-.568-.9-.568-2.59-.568-2.59 0-1.69.568-2.57.568-2.57.567-.88 1.586-.88 1.586-.88 1.008 0 1.575.88 1.575.88.568.89.568 2.58.568 2.58 0 1.69-.568 2.6-.568 2.6-.567.91-1.575.91-1.575.91zm0 0zm0-.69c.294 0 .53-.16.53-.16.236-.16.41-.5.41-.5.173-.34.268-.87.268-.87.094-.53.094-1.26.094-1.26 0-.73-.094-1.26-.094-1.26-.095-.52-.268-.85-.268-.85-.173-.33-.41-.49-.41-.49-.236-.16-.53-.16-.53-.16-.294 0-.536.16-.536.16-.242.16-.415.49-.415.49-.18.33-.27.86-.27.86-.1.53-.1 1.26-.1 1.26 0 1.47.36 2.14.36 2.14.36.67.95.67.95.67zM14.77 600.85zm.42-.514c.755-.754 1.344-1.363 1.344-1.363.588-.61.987-1.13.987-1.13.4-.52.61-.955.61-.955.21-.434.21-.844.21-.844 0-.576-.31-.944-.31-.944-.31-.37-.95-.37-.95-.37-.42 0-.77.24-.77.24-.35.235-.65.57-.65.57l-.49-.492c.42-.462.9-.74.9-.74.48-.28 1.14-.28 1.14-.28.94 0 1.47.543 1.47.543.54.54.54 1.44.54 1.44 0 .47-.2.95-.2.95-.2.48-.57.99-.57.99-.36.51-.86 1.06-.86 1.06-.5.56-1.09 1.18-1.09 1.18l.57-.04c.3-.02.56-.02.56-.02h1.95v.75H15.2v-.51zm4.8.517zm.682-1.355c.294.307.7.538.7.538.403.23.99.23.99.23.306 0 .574-.11.574-.11.268-.11.467-.31.467-.31.2-.2.315-.482.315-.482.116-.283.116-.63.116-.63 0-.693-.39-1.082-.39-1.082-.387-.387-1.04-.387-1.04-.387-.345 0-.592.106-.592.106-.247.11-.552.31-.552.31l-.462-.29.22-3.22h3.352v.75h-2.595l-.18 1.99c.243-.12.485-.2.485-.2.24-.07.546-.07.546-.07.43 0 .81.13.81.13.377.13.66.39.66.39.284.26.447.65.447.65.163.4.163.94.163.94 0 .55-.19.97-.19.97-.19.42-.504.71-.504.71-.315.29-.72.44-.72.44-.404.15-.845.15-.845.15-.4 0-.73-.08-.73-.08-.33-.08-.598-.2-.598-.2-.27-.12-.49-.29-.49-.29-.22-.16-.39-.34-.39-.34zm4.538 1.357zm2.616.127c-1.02 0-1.586-.903-1.586-.903-.568-.91-.568-2.6-.568-2.6 0-1.69.567-2.58.567-2.58.56-.88 1.58-.88 1.58-.88 1.01 0 1.57.88 1.57.88.56.88.56 2.57.56 2.57 0 1.69-.57 2.59-.57 2.59-.57.9-1.58.9-1.58.9zm0 0zm0-.693c.294 0 .53-.17.53-.17.236-.16.41-.51.41-.51.173-.34.268-.87.268-.87.094-.53.094-1.27.094-1.27 0-.74-.094-1.26-.094-1.26-.095-.53-.268-.86-.268-.86-.173-.33-.41-.49-.41-.49-.236-.16-.53-.16-.53-.16-.294 0-.536.16-.536.16-.242.15-.415.48-.415.48-.173.33-.268.85-.268.85-.094.52-.094 1.26-.094 1.26 0 1.47.362 2.13.362 2.13.362.67.95.67.95.67zM14.653 460.25zm.683-1.355c.294.308.7.54.7.54.403.23.99.23.99.23.306 0 .574-.11.574-.11.268-.11.467-.31.467-.31.2-.2.315-.483.315-.483.116-.284.116-.63.116-.63 0-.694-.39-1.082-.39-1.082-.388-.39-1.04-.39-1.04-.39-.345 0-.592.106-.592.106-.247.105-.552.304-.552.304l-.462-.294.22-3.226h3.35v.745H16.44l-.18 1.98c.242-.125.483-.2.483-.2.242-.072.547-.072.547-.072.43 0 .808.127.808.127.38.126.662.383.662.383.284.257.447.65.447.65.162.395.162.94.162.94 0 .548-.19.968-.19.968-.19.42-.51.71-.51.71-.32.29-.72.44-.72.44-.41.16-.85.16-.85.16-.4 0-.73-.08-.73-.08-.33-.08-.6-.2-.6-.2-.27-.12-.48-.29-.48-.29-.22-.16-.39-.34-.39-.34zm4.538 1.358zm2.616.127c-1.02 0-1.587-.9-1.587-.9-.567-.903-.567-2.595-.567-2.595 0-1.69.567-2.574.567-2.574.568-.88 1.586-.88 1.586-.88 1 0 1.57.88 1.57.88.56.89.56 2.58.56 2.58 0 1.69-.57 2.6-.57 2.6-.57.91-1.58.91-1.58.91zm0 0zm0-.69c.294 0 .53-.163.53-.163.236-.162.41-.504.41-.504.173-.34.268-.87.268-.87.094-.53.094-1.266.094-1.266 0-.738-.094-1.26-.094-1.26-.095-.528-.268-.86-.268-.86-.174-.33-.41-.49-.41-.49-.236-.16-.53-.16-.53-.16-.295 0-.536.16-.536.16-.242.158-.415.49-.415.49-.18.33-.27.855-.27.855-.1.524-.1 1.26-.1 1.26 0 1.47.36 2.137.36 2.137.36.66.95.66.95.66zm2.605.567zm2.615.126c-1.02 0-1.586-.902-1.586-.902-.567-.9-.567-2.59-.567-2.59 0-1.69.567-2.57.567-2.57.567-.88 1.586-.88 1.586-.88 1.01 0 1.576.89 1.576.89.567.88.567 2.58.567 2.58 0 1.69-.567 2.6-.567 2.6-.567.91-1.576.91-1.576.91zm0 0zm0-.692c.294 0 .53-.16.53-.16.237-.16.41-.5.41-.5.174-.34.268-.87.268-.87.095-.53.095-1.26.095-1.26 0-.73-.095-1.26-.095-1.26-.094-.52-.268-.85-.268-.85-.173-.33-.41-.48-.41-.48-.236-.16-.53-.16-.53-.16-.294 0-.536.16-.536.16-.24.16-.414.49-.414.49-.174.33-.268.86-.268.86-.095.53-.095 1.26-.095 1.26 0 1.47.363 2.14.363 2.14.362.67.95.67.95.67zM14.853 319.65zm1.86 0c.04-.945.167-1.733.167-1.733.126-.788.352-1.497.352-1.497.226-.71.578-1.37.578-1.37.352-.662.846-1.355.846-1.355h-3.34v-.74h4.316v.534c-.598.75-.97 1.45-.97 1.45-.374.69-.595 1.41-.595 1.41-.22.72-.32 1.52-.32 1.52-.1.8-.142 1.78-.142 1.78h-.893zm3.36 0zm.683-1.355c.294.31.7.54.7.54.403.23.99.23.99.23.306 0 .574-.11.574-.11.268-.11.467-.31.467-.31.2-.2.315-.48.315-.48.116-.285.116-.63.116-.63 0-.695-.39-1.083-.39-1.083-.387-.39-1.04-.39-1.04-.39-.345 0-.592.105-.592.105-.247.105-.552.304-.552.304l-.462-.29.22-3.22h3.352v.75H21.86l-.18 1.98c.242-.12.484-.2.484-.2.24-.07.546-.07.546-.07.43 0 .81.13.81.13.377.13.66.38.66.38.284.26.447.65.447.65.163.4.163.94.163.94 0 .55-.19.97-.19.97-.19.42-.504.71-.504.71-.315.29-.72.44-.72.44-.404.16-.845.16-.845.16-.39 0-.73-.08-.73-.08-.33-.08-.59-.2-.59-.2-.27-.12-.48-.29-.48-.29-.21-.16-.38-.34-.38-.34zm4.538 1.36zm2.616.126c-1.02 0-1.586-.9-1.586-.9-.568-.9-.568-2.59-.568-2.59 0-1.69.568-2.57.568-2.57.567-.88 1.586-.88 1.586-.88 1.008 0 1.575.88 1.575.88.568.89.568 2.58.568 2.58 0 1.69-.568 2.6-.568 2.6-.567.9-1.575.9-1.575.9zm0 0zm0-.69c.294 0 .53-.16.53-.16.236-.16.41-.5.41-.5.173-.34.268-.87.268-.87.094-.53.094-1.26.094-1.26 0-.74-.094-1.26-.094-1.26-.095-.53-.268-.86-.268-.86-.173-.33-.41-.49-.41-.49-.236-.16-.53-.16-.53-.16-.294 0-.536.16-.536.16-.242.16-.415.49-.415.49-.18.33-.27.86-.27.86-.1.53-.1 1.26-.1 1.26 0 1.47.36 2.14.36 2.14.36.67.95.67.95.67zM10 179.05zm.83-.715h1.533v-4.93h-1.218v-.553c.462-.085.804-.205.804-.205.34-.12.61-.29.61-.29h.66v5.988h1.38v.716h-3.78v-.71zm4.39.72zm2.616.13c-1.02 0-1.586-.902-1.586-.902-.567-.9-.567-2.593-.567-2.593 0-1.69.567-2.573.567-2.573.567-.882 1.586-.882 1.586-.882 1.01 0 1.576.884 1.576.884.567.88.567 2.57.567 2.57 0 1.69-.57 2.59-.57 2.59-.57.9-1.58.9-1.58.9zm0 0zm0-.692c.294 0 .53-.16.53-.16.237-.16.41-.504.41-.504.174-.34.268-.87.268-.87.095-.53.095-1.27.095-1.27 0-.74-.1-1.26-.1-1.26-.1-.53-.27-.86-.27-.86-.18-.33-.41-.49-.41-.49-.24-.16-.53-.16-.53-.16-.3 0-.54.16-.54.16-.24.15-.42.48-.42.48-.18.33-.27.85-.27.85-.1.53-.1 1.26-.1 1.26 0 1.47.36 2.14.36 2.14.36.67.95.67.95.67zm2.605.57zm2.62.126c-1.02 0-1.58-.91-1.58-.91-.56-.9-.56-2.59-.56-2.59 0-1.69.57-2.57.57-2.57.57-.88 1.59-.88 1.59-.88 1.01 0 1.58.88 1.58.88.57.88.57 2.57.57 2.57 0 1.69-.56 2.59-.56 2.59-.57.9-1.58.9-1.58.9zm0 0zm0-.7c.3 0 .53-.16.53-.16.24-.16.41-.51.41-.51.18-.34.27-.87.27-.87.1-.53.1-1.27.1-1.27 0-.74-.09-1.26-.09-1.26-.09-.53-.27-.86-.27-.86-.17-.33-.41-.49-.41-.49-.23-.16-.53-.16-.53-.16-.29 0-.53.16-.53.16-.24.15-.41.48-.41.48-.17.33-.27.85-.27.85-.09.52-.09 1.26-.09 1.26 0 1.47.36 2.14.36 2.14.36.66.95.66.95.66zm2.61.57zm2.62.12c-1.02 0-1.58-.91-1.58-.91-.56-.91-.56-2.6-.56-2.6 0-1.69.57-2.58.57-2.58.57-.89 1.59-.89 1.59-.89 1.01 0 1.58.88 1.58.88.57.88.57 2.57.57 2.57 0 1.69-.57 2.59-.57 2.59-.56.9-1.57.9-1.57.9zm0 0zm0-.7c.3 0 .53-.17.53-.17.24-.16.41-.5.41-.5.18-.34.27-.87.27-.87.1-.53.1-1.27.1-1.27 0-.74-.09-1.26-.09-1.26-.09-.53-.26-.86-.26-.86-.17-.33-.41-.49-.41-.49-.23-.16-.53-.16-.53-.16-.29 0-.53.16-.53.16-.24.15-.41.48-.41.48-.17.33-.27.86-.27.86-.09.52-.09 1.26-.09 1.26 0 1.47.36 2.14.36 2.14.36.67.95.67.95.67zM10 38.44zm.83-.714h1.533V32.8h-1.218v-.557c.462-.084.804-.204.804-.204.34-.12.61-.29.61-.29h.66v5.98h1.38v.71h-3.78v-.72zm4.39.72zm.42-.52c.757-.76 1.345-1.368 1.345-1.368.59-.61.988-1.13.988-1.13.4-.52.61-.95.61-.95.21-.433.21-.842.21-.842 0-.58-.316-.945-.316-.945-.315-.36-.956-.36-.956-.36-.42 0-.77.24-.77.24-.35.24-.65.57-.65.57l-.49-.49c.42-.46.9-.74.9-.74.47-.28 1.14-.28 1.14-.28.94 0 1.47.54 1.47.54.54.54.54 1.44.54 1.44 0 .47-.2.95-.2.95-.2.48-.57.99-.57.99-.36.51-.86 1.06-.86 1.06-.5.55-1.1 1.17-1.1 1.17l.57-.04c.3-.02.56-.02.56-.02H20v.75h-4.33v-.51zm4.8.512zm.684-1.35c.294.308.698.54.698.54.405.23.993.23.993.23.305 0 .572-.11.572-.11.268-.11.468-.31.468-.31.2-.2.315-.48.315-.48.116-.285.116-.63.116-.63 0-.695-.39-1.08-.39-1.08-.388-.39-1.04-.39-1.04-.39-.346 0-.593.103-.593.103-.246.11-.55.31-.55.31l-.463-.3.22-3.23h3.35v.75h-2.593l-.18 1.99c.243-.12.484-.2.484-.2.25-.07.55-.07.55-.07.43 0 .81.13.81.13.38.12.66.38.66.38.29.26.45.65.45.65.17.39.17.94.17.94 0 .55-.19.97-.19.97-.19.42-.5.71-.5.71-.31.29-.72.44-.72.44-.4.15-.84.15-.84.15-.4 0-.73-.07-.73-.07-.33-.08-.6-.2-.6-.2-.26-.12-.48-.29-.48-.29-.21-.16-.38-.34-.38-.34zm4.538 1.358zm2.615.127c-1.02 0-1.586-.9-1.586-.9-.56-.9-.56-2.595-.56-2.595 0-1.69.57-2.576.57-2.576.57-.88 1.59-.88 1.59-.88 1.01 0 1.58.88 1.58.88.57.883.57 2.574.57 2.574 0 1.69-.56 2.59-.56 2.59-.57.905-1.58.905-1.58.905zm0 0zm0-.69c.294 0 .53-.16.53-.16.237-.16.41-.505.41-.505.174-.34.268-.87.268-.87.095-.53.095-1.27.095-1.27 0-.736-.095-1.26-.095-1.26-.094-.526-.267-.857-.267-.857-.174-.33-.41-.49-.41-.49-.236-.16-.53-.16-.53-.16-.295 0-.536.16-.536.16-.242.16-.415.49-.415.49-.174.33-.268.86-.268.86-.1.53-.1 1.26-.1 1.26 0 1.47.36 2.14.36 2.14.36.67.95.67.95.67z"/><path fill="none" stroke-miterlimit="10" d="M39.59 738h954.762" stroke-linecap="square"/><path stroke="none" d="M95.152 758zm.945-6.89h.872v6.144h3.01V758h-3.89v-6.89zm4.16 6.89zm1.302-6.155c-.26 0-.43-.158-.43-.158-.18-.158-.18-.4-.18-.4 0-.25.17-.404.17-.404.17-.152.42-.152.42-.152.25 0 .42.16.42.16.17.16.17.41.17.41 0 .24-.18.4-.18.4-.18.16-.43.16-.43.16zm0 0zm-.45 1.05h.86V758h-.86v-5.105zm1.73 5.105zm.86-5.105h.71l.07.735h.03c.37-.367.77-.614.77-.614.4-.247.94-.247.94-.247.81 0 1.18.5 1.18.5.37.5.37 1.49.37 1.49V758h-.86v-3.12c0-.724-.23-1.045-.23-1.045-.23-.32-.74-.32-.74-.32-.4 0-.71.2-.71.2-.31.2-.7.588-.7.588V758h-.86v-5.105zm4.88 5.105zm.78-5.105h.87v3.12c0 .724.22 1.045.22 1.045.22.32.73.32.73.32.4 0 .7-.205.7-.205.3-.204.67-.656.67-.656v-3.63h.86V758h-.72l-.07-.798h-.03c-.36.42-.75.672-.75.672-.4.252-.93.252-.93.252-.82 0-1.2-.504-1.2-.504-.37-.504-.37-1.492-.37-1.492v-3.235zM114.3 758zm1.818-2.668l-1.544-2.437h.935l.68 1.124c.11.21.24.42.24.42.12.21.26.42.26.42h.04l.23-.43.23-.43.62-1.13h.9l-1.55 2.53 1.66 2.57h-.94l-.75-1.19-.28-.46-.29-.45h-.04c-.14.22-.26.44-.26.44-.13.22-.26.47-.26.47l-.69 1.19h-.9zm2.868 2.668zm.682-4.317c0-.305.184-.49.184-.49.184-.182.447-.182.447-.182.25 0 .43.19.43.19.18.19.18.49.18.49 0 .28-.19.47-.19.47-.19.19-.44.19-.44.19-.27 0-.45-.18-.45-.18-.19-.18-.19-.46-.19-.46zm0 0zm0 3.792c0-.305.184-.49.184-.49.184-.182.447-.182.447-.182.25 0 .43.183.43.183.18.184.18.49.18.49 0 .282-.19.466-.19.466-.19.184-.44.184-.44.184-.27 0-.45-.184-.45-.184-.19-.184-.19-.467-.19-.467zm4.055.525zm.83-.714h1.534v-4.937h-1.22v-.56c.463-.09.805-.21.805-.21.34-.12.614-.29.614-.29h.662v5.99h1.387v.72h-3.782v-.72zm4.39.714zm.83-.714h1.534v-4.937h-1.218v-.56c.46-.09.8-.21.8-.21.34-.12.61-.29.61-.29h.66v5.99h1.39v.72h-3.78v-.72zm4.39.714zm2.617.126c-1.02 0-1.586-.903-1.586-.903-.567-.904-.567-2.595-.567-2.595 0-1.69.567-2.573.567-2.573.567-.883 1.586-.883 1.586-.883 1.008 0 1.575.883 1.575.883.568.882.568 2.573.568 2.573 0 1.69-.568 2.595-.568 2.595-.567.903-1.575.903-1.575.903zm0 0zm0-.693c.294 0 .53-.163.53-.163.237-.163.41-.504.41-.504.173-.342.268-.872.268-.872.094-.53.094-1.266.094-1.266 0-.735-.094-1.26-.094-1.26-.095-.525-.268-.856-.268-.856-.173-.33-.41-.49-.41-.49-.236-.156-.53-.156-.53-.156-.294 0-.536.157-.536.157-.24.158-.415.49-.415.49-.18.33-.27.855-.27.855-.1.525-.1 1.26-.1 1.26 0 1.47.36 2.138.36 2.138.36.667.95.667.95.667zm2.605.567zm.683-1.355c.294.305.698.536.698.536.405.24.993.24.993.24.3 0 .57-.11.57-.11.27-.11.47-.31.47-.31.19-.2.31-.48.31-.48.11-.28.11-.63.11-.63 0-.69-.39-1.08-.39-1.08-.39-.39-1.04-.39-1.04-.39-.35 0-.6.11-.6.11-.25.11-.55.31-.55.31l-.47-.29.22-3.22h3.35v.75h-2.6l-.18 1.99c.24-.13.48-.2.48-.2.24-.07.54-.07.54-.07.43 0 .81.13.81.13.37.13.66.39.66.39.28.26.44.65.44.65.16.4.16.94.16.94 0 .55-.19.97-.19.97-.19.42-.51.71-.51.71-.32.29-.72.44-.72.44-.41.15-.85.15-.85.15-.4 0-.73-.08-.73-.08-.33-.08-.6-.2-.6-.2-.27-.12-.48-.28-.48-.28-.22-.16-.38-.34-.38-.34zM252.93 758zm.86-5.105h.715l.073.735h.032c.336-.367.73-.614.73-.614.393-.247.856-.247.856-.247.588 0 .92.25.92.25.33.26.487.72.487.72.4-.44.804-.71.804-.71.404-.27.877-.27.877-.27.788 0 1.17.5 1.17.5.384.5.384 1.49.384 1.49V758h-.86v-3.12c0-.724-.232-1.045-.232-1.045-.23-.32-.714-.32-.714-.32-.578 0-1.282.788-1.282.788V758h-.86v-3.12c0-.724-.232-1.045-.232-1.045-.23-.32-.725-.32-.725-.32-.578 0-1.28.788-1.28.788V758h-.863v-5.105zm7.847 5.105zm.61-1.323c0-.84.75-1.287.75-1.287.75-.447 2.39-.625 2.39-.625 0-.242-.047-.473-.047-.473-.048-.23-.168-.41-.168-.41-.12-.178-.32-.29-.32-.29-.2-.11-.516-.11-.516-.11-.45 0-.835.17-.835.17-.38.167-.68.377-.68.377l-.34-.6c.36-.23.87-.45.87-.45.52-.22 1.14-.22 1.14-.22.94 0 1.36.57 1.36.57.42.57.42 1.53.42 1.53V758h-.71l-.07-.61h-.02c-.37.306-.79.52-.79.52-.42.216-.9.216-.9.216-.65 0-1.08-.378-1.08-.378-.42-.378-.42-1.07-.42-1.07zm0 0zm.85-.064c0 .442.257.63.257.63.258.19.636.19.636.19.367 0 .698-.173.698-.173.33-.174.7-.51.7-.51v-1.418c-.642.084-1.083.2-1.083.2-.44.115-.71.273-.71.273-.267.157-.382.362-.382.362-.116.205-.116.446-.116.446zm3.918 1.387zm.483-2.542c0-.64.2-1.14.2-1.14.2-.5.535-.845.535-.845.337-.347.783-.525.783-.525.446-.18.94-.18.94-.18.504 0 .867.185.867.185.362.184.625.425.625.425l-.43.557c-.232-.2-.48-.326-.48-.326-.246-.13-.55-.13-.55-.13-.347 0-.64.14-.64.14-.295.14-.505.4-.505.4-.21.26-.33.62-.33.62-.122.36-.122.8-.122.8 0 .44.12.8.12.8.12.35.32.61.32.61.21.25.5.4.5.4.3.14.64.14.64.14.37 0 .67-.15.67-.15.3-.16.53-.37.53-.37l.39.56c-.35.3-.77.48-.77.48-.42.18-.88.18-.88.18-.5 0-.94-.18-.94-.18-.44-.18-.76-.52-.76-.52-.32-.34-.5-.84-.5-.84-.18-.5-.18-1.13-.18-1.13zm4.307 2.542zm3.487.126c-.65 0-1.192-.252-1.192-.252-.54-.252-.93-.72-.93-.72-.388-.467-.604-1.134-.604-1.134-.215-.667-.215-1.497-.215-1.497 0-.83.22-1.486.22-1.486.22-.657.61-1.114.61-1.114.39-.456.93-.698.93-.698.54-.242 1.19-.242 1.19-.242.65 0 1.2.247 1.2.247.54.247.94.704.94.704.4.457.61 1.113.61 1.113.22.657.22 1.476.22 1.476 0 .83-.21 1.497-.21 1.497-.21.667-.61 1.135-.61 1.135-.39.467-.93.72-.93.72-.54.25-1.19.25-1.19.25zm0 0zm0-.767c.463 0 .835-.2.835-.2.373-.2.64-.58.64-.58.27-.38.416-.9.416-.9.147-.52.147-1.17.147-1.17 0-.64-.147-1.16-.147-1.16-.147-.52-.415-.87-.415-.87-.268-.36-.64-.56-.64-.56-.373-.19-.836-.19-.836-.19-.462 0-.835.19-.835.19-.373.19-.64.55-.64.55-.27.35-.416.87-.416.87-.14.51-.14 1.15-.14 1.15 0 .65.15 1.17.15 1.17.15.52.42.89.42.89.27.37.64.57.64.57.38.2.84.2.84.2zm3.488.64zm.966-1.51c.368.39.867.62.867.62.5.23 1.034.23 1.034.23.683 0 1.06-.31 1.06-.31.38-.31.38-.82.38-.82 0-.26-.09-.45-.09-.45-.09-.19-.24-.32-.24-.32-.154-.13-.364-.24-.364-.24-.21-.11-.45-.22-.45-.22l-.99-.43c-.24-.11-.493-.26-.493-.26-.252-.15-.45-.36-.45-.36-.2-.21-.327-.5-.327-.5-.126-.29-.126-.66-.126-.66 0-.39.163-.73.163-.73.163-.34.45-.59.45-.59.29-.25.684-.39.684-.39.394-.14.867-.14.867-.14.62 0 1.15.23 1.15.23.53.23.9.61.9.61l-.47.56c-.31-.31-.7-.48-.7-.48-.38-.17-.86-.17-.86-.17-.57 0-.93.27-.93.27-.35.27-.35.74-.35.74 0 .25.1.43.1.43.1.17.27.3.27.3.17.13.37.23.37.23.2.1.41.19.41.19l.98.42c.3.12.56.29.56.29.26.16.45.38.45.38.19.21.3.5.3.5.11.29.11.66.11.66 0 .41-.16.76-.16.76-.16.36-.47.622-.47.622-.3.27-.73.42-.73.42-.43.15-.98.15-.98.15-.72 0-1.34-.27-1.34-.27-.62-.27-1.07-.74-1.07-.74zm4.644 1.51zm.682-4.32c0-.31.184-.49.184-.49.183-.18.446-.18.446-.18.252 0 .436.19.436.19.184.18.184.49.184.49 0 .28-.184.46-.184.46-.184.18-.436.18-.436.18-.263 0-.446-.19-.446-.19-.184-.19-.184-.47-.184-.47zm0 0zm0 3.79c0-.31.184-.49.184-.49.183-.18.446-.18.446-.18.252 0 .436.18.436.18.184.18.184.49.184.49 0 .28-.184.46-.184.46-.184.18-.436.18-.436.18-.263 0-.446-.19-.446-.19-.184-.18-.184-.47-.184-.47zm4.054.52zm3.194-2.55v-1.94c0-.28.015-.65.015-.65.016-.38.037-.65.037-.65h-.042c-.126.24-.262.47-.262.47-.137.23-.284.47-.284.47l-1.565 2.29h2.1zm0 0zm1.733.69h-.914V758h-.82v-1.85h-3.02v-.566l2.86-4.286h.96v4.16h.91v.693zm.294 1.85zm.714-1.38c.31.31.71.55.71.55.41.24 1.01.24 1.01.24.61 0 1-.33 1-.33.39-.34.39-.9.39-.9 0-.3-.11-.54-.11-.54-.11-.25-.36-.43-.36-.43-.25-.18-.66-.28-.66-.28-.41-.1-1-.1-1-.1v-.67c.54 0 .9-.1.9-.1.37-.1.59-.27.59-.27.23-.16.32-.4.32-.4.1-.23.1-.49.1-.49 0-.49-.31-.78-.31-.78-.31-.28-.85-.28-.85-.28-.42 0-.77.19-.77.19-.35.19-.65.49-.65.49l-.46-.55c.39-.37.86-.61.86-.61.47-.24 1.07-.24 1.07-.24.44 0 .81.12.81.12.37.11.64.33.64.33.27.21.42.53.42.53.15.31.15.72.15.72 0 .61-.34 1-.34 1-.33.39-.88.6-.88.6v.04c.3.08.57.22.57.22.27.14.46.36.46.36.2.21.31.5.31.5.12.28.12.63.12.63 0 .44-.17.8-.17.8-.17.36-.47.6-.47.6-.3.25-.7.38-.7.38-.4.13-.86.13-.86.13-.4 0-.73-.08-.73-.08-.33-.08-.6-.21-.6-.21-.27-.13-.49-.3-.49-.3-.21-.17-.38-.36-.38-.36zm4.51 1.38zm3.2-2.54v-1.94c0-.28.02-.65.02-.65.02-.37.04-.65.04-.65h-.04c-.12.24-.26.47-.26.47l-.28.47-1.56 2.29h2.1zm0 0zm1.74.69h-.91V758h-.82v-1.85h-3.01v-.566l2.87-4.286h.97v4.16h.92v.693zM407.56 758zm.24-6.89h.902l.72 3.75c.096.566.2 1.113.2 1.113.106.546.2 1.113.2 1.113h.043c.115-.567.24-1.12.24-1.12.127-.55.243-1.107.243-1.107l.952-3.75h.79l.956 3.75c.125.54.25 1.1.25 1.1.127.55.253 1.12.253 1.12h.04l.19-1.12c.09-.55.2-1.11.2-1.11l.72-3.75h.84l-1.43 6.89h-1.05l-1.04-4.15c-.09-.4-.17-.78-.17-.78l-.17-.79h-.04c-.09.4-.18.78-.18.78-.09.38-.18.78-.18.78l-1.02 4.15h-1.04zm8.013 6.89zm1.31-6.155c-.25 0-.42-.158-.42-.158-.17-.158-.17-.4-.17-.4 0-.25.17-.404.17-.404.17-.152.425-.152.425-.152.253 0 .426.16.426.16.17.16.17.41.17.41 0 .24-.174.4-.174.4-.175.16-.43.16-.43.16zm0 0zm-.44 1.05h.86V758h-.86v-5.105zM418.4 758zm.86-5.105h.715l.074.735h.03c.36-.367.77-.614.77-.614.4-.247.94-.247.94-.247.81 0 1.18.5 1.18.5.37.5.37 1.49.37 1.49V758h-.86v-3.12c0-.724-.23-1.045-.23-1.045-.23-.32-.74-.32-.74-.32-.4 0-.71.2-.71.2-.31.2-.69.588-.69.588V758h-.86v-5.105zm4.885 5.105zm.495-2.542c0-.62.18-1.12.18-1.12.185-.498.49-.844.49-.844.304-.347.704-.536.704-.536.4-.19.84-.19.84-.19.442 0 .768.158.768.158.326.158.66.43.66.43l-.04-.87v-1.965h.87V758h-.712l-.073-.6h-.03c-.305.295-.7.51-.7.51-.392.216-.844.216-.844.216-.967 0-1.54-.693-1.54-.693-.572-.693-.572-1.975-.572-1.975zm0 0zm.89-.01c0 .924.366 1.44.366 1.44.368.513 1.04.513 1.04.513.357 0 .672-.17.672-.17.312-.17.63-.53.63-.53v-2.67c-.328-.29-.628-.41-.628-.41-.3-.12-.614-.12-.614-.12-.307 0-.575.14-.575.14-.26.15-.46.4-.46.4-.2.26-.31.62-.31.62-.11.36-.11.8-.11.8zm4.44 2.552zm.483-2.542c0-.64.194-1.14.194-1.14.193-.5.52-.845.52-.845.325-.347.75-.525.75-.525.426-.18.9-.18.9-.18.47 0 .896.18.896.18.426.178.752.525.752.525.325.346.52.845.52.845.194.5.194 1.14.194 1.14 0 .63-.19 1.13-.19 1.13-.2.498-.52.84-.52.84-.33.34-.76.52-.76.52-.43.178-.9.178-.9.178-.47 0-.9-.18-.9-.18-.43-.177-.75-.52-.75-.52-.33-.34-.52-.84-.52-.84-.2-.498-.2-1.128-.2-1.128zm0 0zm.893 0c0 .44.105.798.105.798.11.357.3.615.3.615.2.26.47.4.47.4.28.15.6.15.6.15.33 0 .6-.14.6-.14.28-.14.47-.4.47-.4.2-.25.3-.61.3-.61.11-.35.11-.8.11-.8 0-.44-.1-.8-.1-.8-.1-.36-.3-.62-.3-.62-.19-.26-.46-.4-.46-.4-.27-.14-.6-.14-.6-.14-.32 0-.59.14-.59.14-.27.14-.47.41-.47.41-.19.26-.3.63-.3.63-.1.37-.1.81-.1.81zM435.62 758zm.253-5.105h.882l.757 2.952c.084.367.157.714.157.714l.14.71h.04l.16-.71c.08-.35.18-.71.18-.71l.79-2.95h.84l.8 2.95.18.72c.09.35.17.71.17.71h.04l.16-.7c.07-.34.15-.71.15-.71l.74-2.95h.82l-1.37 5.1h-1.05l-.73-2.74c-.1-.37-.18-.72-.18-.72l-.17-.74h-.04l-.17.75c-.08.37-.19.73-.19.73l-.71 2.73h-1.01zm7.29 5.105zm.725-1.155c.332.273.684.44.684.44.352.17.814.17.814.17.503 0 .755-.232.755-.232.26-.23.26-.567.26-.567 0-.2-.1-.347-.1-.347-.1-.15-.26-.26-.26-.26-.16-.11-.37-.2-.37-.2l-.42-.17c-.27-.1-.54-.22-.54-.22-.27-.12-.48-.3-.48-.3-.22-.18-.35-.41-.35-.41-.13-.23-.13-.56-.13-.56 0-.31.12-.58.12-.58.13-.27.35-.46.35-.46.23-.19.56-.31.56-.31.33-.11.74-.11.74-.11.48 0 .89.17.89.17.4.16.7.41.7.41l-.41.54c-.26-.2-.54-.33-.54-.33-.28-.13-.62-.13-.62-.13-.48 0-.71.22-.71.22-.22.22-.22.51-.22.51 0 .18.09.31.09.31.1.13.26.23.26.23.16.1.37.18.37.18l.42.16c.28.1.56.22.56.22.28.11.5.29.5.29.22.17.36.42.36.42.148.25.148.61.148.61 0 .31-.127.59-.127.59-.12.27-.356.48-.356.48-.236.21-.59.33-.59.33-.35.12-.8.12-.8.12-.54 0-1.04-.2-1.04-.2-.49-.2-.86-.51-.86-.51zM447.56 758zm.683-4.317c0-.305.184-.49.184-.49.184-.182.446-.182.446-.182.252 0 .436.19.436.19.18.19.18.49.18.49 0 .28-.19.47-.19.47-.19.19-.44.19-.44.19-.26 0-.45-.18-.45-.18-.18-.18-.18-.46-.18-.46zm0 0zm0 3.792c0-.305.184-.49.184-.49.184-.182.446-.182.446-.182.252 0 .436.183.436.183.18.184.18.49.18.49 0 .282-.19.466-.19.466-.19.184-.44.184-.44.184-.26 0-.45-.184-.45-.184-.18-.184-.18-.467-.18-.467zm4.055.525zm.716-1.387c.305.315.71.557.71.557.403.242 1.002.242 1.002.242.608 0 .997-.33.997-.33.39-.332.39-.9.39-.9 0-.293-.112-.54-.112-.54-.11-.247-.36-.426-.36-.426-.25-.178-.66-.273-.66-.273-.41-.094-1-.094-1-.094v-.67c.54 0 .9-.1.9-.1.37-.1.59-.26.59-.26.23-.17.32-.4.32-.4.1-.23.1-.5.1-.5 0-.5-.31-.78-.31-.78-.31-.29-.84-.29-.84-.29-.42 0-.77.19-.77.19-.35.18-.65.49-.65.49l-.46-.55c.39-.37.86-.61.86-.61.47-.24 1.07-.24 1.07-.24.44 0 .81.11.81.11.37.11.64.33.64.33.27.21.42.53.42.53.15.31.15.72.15.72 0 .61-.34 1-.34 1-.33.39-.88.6-.88.6v.04c.31.07.57.21.57.21.26.14.46.35.46.35.2.21.31.5.31.5.11.28.11.63.11.63 0 .44-.17.79-.17.79-.17.35-.47.6-.47.6-.3.25-.69.38-.69.38-.4.13-.86.13-.86.13-.4 0-.73-.08-.73-.08-.33-.08-.6-.21-.6-.21-.27-.13-.49-.3-.49-.3-.21-.17-.38-.36-.38-.36zM457.52 758zm.684-1.355c.294.305.7.536.7.536.403.24.99.24.99.24.306 0 .574-.11.574-.11.266-.11.466-.31.466-.31.2-.2.315-.48.315-.48.11-.28.11-.63.11-.63 0-.69-.39-1.08-.39-1.08-.39-.39-1.04-.39-1.04-.39-.35 0-.59.11-.59.11-.25.11-.55.31-.55.31l-.46-.29.22-3.22h3.35v.75h-2.6l-.18 1.99c.24-.13.48-.2.48-.2.24-.07.55-.07.55-.07.43 0 .8.13.8.13.38.13.66.39.66.39.28.26.44.65.44.65.16.4.16.94.16.94 0 .55-.19.97-.19.97-.19.42-.51.71-.51.71-.32.29-.72.44-.72.44-.41.15-.85.15-.85.15-.4 0-.73-.08-.73-.08-.33-.08-.6-.2-.6-.2-.27-.12-.49-.28-.49-.28-.22-.16-.39-.34-.39-.34zm4.538 1.355zm2.615.126c-1.02 0-1.587-.903-1.587-.903-.566-.904-.566-2.595-.566-2.595 0-1.69.567-2.573.567-2.573.57-.883 1.59-.883 1.59-.883 1.01 0 1.58.883 1.58.883.57.882.57 2.573.57 2.573 0 1.69-.56 2.595-.56 2.595-.56.903-1.57.903-1.57.903zm0 0zm0-.693c.293 0 .53-.163.53-.163.236-.163.41-.504.41-.504.173-.342.267-.872.267-.872.095-.53.095-1.266.095-1.266 0-.735-.1-1.26-.1-1.26-.1-.525-.27-.856-.27-.856-.18-.33-.41-.49-.41-.49-.24-.156-.53-.156-.53-.156-.3 0-.54.157-.54.157-.24.158-.42.49-.42.49-.18.33-.27.855-.27.855-.1.525-.1 1.26-.1 1.26 0 1.47.36 2.138.36 2.138.36.667.95.667.95.667zM571.64 758zm3.876-2.805l-.326-1.05c-.19-.578-.357-1.15-.357-1.15-.168-.573-.336-1.17-.336-1.17h-.042c-.158.597-.326 1.17-.326 1.17-.17.572-.36 1.15-.36 1.15l-.33 1.05h2.07zm0 0zm.22.704h-2.51l-.662 2.1h-.893l2.34-6.89h.99l2.34 6.89h-.93zm1.618 2.1zm.86-5.11h.715l.07.73h.03c.37-.37.77-.62.77-.62.4-.25.94-.25.94-.25.81 0 1.18.5 1.18.5.37.5.37 1.49.37 1.49V758h-.86v-3.12c0-.724-.23-1.045-.23-1.045-.24-.32-.74-.32-.74-.32-.4 0-.71.2-.71.2-.31.2-.7.588-.7.588V758h-.86v-5.105zM583.1 758zm.493-2.542c0-.62.184-1.12.184-1.12.184-.498.49-.844.49-.844.303-.347.702-.536.702-.536.4-.19.84-.19.84-.19.44 0 .76.158.76.158.32.158.66.43.66.43l-.04-.87v-1.965h.87V758h-.72l-.08-.6h-.03c-.31.295-.7.51-.7.51-.4.216-.85.216-.85.216-.97 0-1.54-.693-1.54-.693-.57-.693-.57-1.975-.57-1.975zm0 0zm.893-.01c0 .924.368 1.44.368 1.44.368.513 1.04.513 1.04.513.357 0 .672-.17.672-.17.315-.17.63-.53.63-.53v-2.67c-.325-.29-.625-.41-.625-.41-.29-.12-.61-.12-.61-.12-.3 0-.57.14-.57.14-.26.15-.46.4-.46.4-.2.26-.31.62-.31.62-.11.36-.11.8-.11.8zM588.93 758zm.86-5.105h.715l.074.924h.03c.26-.49.63-.77.63-.77.37-.29.81-.29.81-.29.3 0 .54.1.54.1l-.17.75-.23-.07c-.11-.02-.27-.02-.27-.02-.33 0-.68.26-.68.26-.36.26-.62.91-.62.91v3.3h-.86v-5.11zm2.68 5.105zm.483-2.542c0-.64.194-1.14.194-1.14.194-.5.52-.845.52-.845.325-.347.75-.525.75-.525.426-.18.9-.18.9-.18.472 0 .897.18.897.18.426.178.75.525.75.525.327.346.52.845.52.845.196.5.196 1.14.196 1.14 0 .63-.195 1.13-.195 1.13-.194.498-.52.84-.52.84-.325.34-.75.52-.75.52-.426.178-.9.178-.9.178-.472 0-.897-.18-.897-.18-.425-.177-.75-.52-.75-.52-.327-.34-.52-.84-.52-.84-.195-.498-.195-1.128-.195-1.128zm0 0zm.893 0c0 .44.105.798.105.798.11.357.3.615.3.615.2.26.47.4.47.4.28.15.6.15.6.15.33 0 .6-.14.6-.14.28-.14.47-.4.47-.4.2-.25.3-.61.3-.61.11-.35.11-.8.11-.8 0-.44-.1-.8-.1-.8-.1-.36-.3-.62-.3-.62-.19-.26-.46-.4-.46-.4-.27-.14-.6-.14-.6-.14-.32 0-.59.14-.59.14-.27.14-.47.41-.47.41-.19.26-.3.63-.3.63-.1.37-.1.81-.1.81zm4.317 2.542zm1.302-6.155c-.252 0-.425-.158-.425-.158-.173-.158-.173-.4-.173-.4 0-.25.173-.404.173-.404.173-.152.425-.152.425-.152.252 0 .426.16.426.16.18.16.18.41.18.41 0 .24-.17.4-.17.4-.17.16-.42.16-.42.16zm0 0zm-.44 1.05h.86V758h-.86v-5.105zm1.722 5.105zm.494-2.542c0-.62.19-1.12.19-1.12.19-.498.49-.844.49-.844.31-.347.7-.536.7-.536.4-.19.84-.19.84-.19.44 0 .77.158.77.158.33.158.66.43.66.43l-.04-.87v-1.965h.87V758h-.71l-.07-.6h-.03c-.3.295-.7.51-.7.51-.39.216-.84.216-.84.216-.96 0-1.54-.693-1.54-.693-.57-.693-.57-1.975-.57-1.975zm0 0zm.9-.01c0 .924.37 1.44.37 1.44.37.513 1.04.513 1.04.513.36 0 .68-.17.68-.17.32-.17.63-.53.63-.53v-2.67c-.32-.29-.62-.41-.62-.41-.3-.12-.61-.12-.61-.12-.3 0-.57.14-.57.14-.26.15-.46.4-.46.4-.2.26-.31.62-.31.62-.11.36-.11.8-.11.8zm4.44 2.552zm.68-4.317c0-.305.19-.49.19-.49.19-.182.45-.182.45-.182.26 0 .44.19.44.19.19.19.19.49.19.49 0 .28-.18.47-.18.47-.18.19-.43.19-.43.19-.26 0-.45-.18-.45-.18-.18-.18-.18-.46-.18-.46zm0 0zm0 3.792c0-.305.19-.49.19-.49.19-.182.45-.182.45-.182.26 0 .44.183.44.183.19.184.19.49.19.49 0 .282-.18.466-.18.466-.18.184-.43.184-.43.184-.26 0-.45-.184-.45-.184-.18-.184-.18-.467-.18-.467zm4.06.525zm.69-1.355c.3.305.7.536.7.536.41.24 1 .24 1 .24.3 0 .57-.11.57-.11.27-.11.47-.31.47-.31.2-.2.31-.48.31-.48.12-.28.12-.63.12-.63 0-.69-.39-1.08-.39-1.08-.39-.39-1.04-.39-1.04-.39-.34 0-.59.11-.59.11-.24.11-.55.31-.55.31l-.46-.29.22-3.22h3.35v.75h-2.59l-.18 1.99c.24-.13.48-.2.48-.2.25-.07.55-.07.55-.07.43 0 .81.13.81.13.38.13.66.39.66.39.29.26.45.65.45.65.16.4.16.94.16.94 0 .55-.19.97-.19.97-.19.42-.5.71-.5.71-.31.29-.72.44-.72.44-.4.15-.84.15-.84.15-.4 0-.73-.08-.73-.08-.33-.08-.6-.2-.6-.2-.26-.12-.48-.28-.48-.28-.21-.16-.38-.34-.38-.34zm4.53 1.355zm3.2-2.542v-1.943c0-.273.01-.646.01-.646.02-.38.04-.65.04-.65h-.04c-.12.24-.26.47-.26.47-.13.23-.28.47-.28.47l-1.57 2.29h2.1zm0 0zm1.73.693h-.91V758h-.82v-1.85h-3.01v-.566l2.87-4.286h.97v4.16h.92v.693zM741.06 758zm1.303-6.15c-.255 0-.43-.16-.43-.16-.175-.16-.175-.4-.175-.4 0-.25.17-.403.17-.403.173-.152.425-.152.425-.152.25 0 .423.16.423.16.175.16.175.41.175.41 0 .24-.17.4-.17.4-.17.16-.42.16-.42.16zm0 0zm-.44 1.05h.86v5.1h-.86v-5.104zm1.72 5.105zm3.49.127c-.656 0-1.196-.252-1.196-.252-.54-.252-.93-.72-.93-.72-.39-.467-.6-1.134-.6-1.134-.21-.666-.21-1.496-.21-1.496 0-.83.212-1.486.212-1.486.21-.655.6-1.112.6-1.112.39-.456.93-.698.93-.698.54-.243 1.19-.243 1.19-.243.65 0 1.19.25 1.19.25.54.25.94.71.94.71.4.46.61 1.11.61 1.11.22.66.22 1.48.22 1.48 0 .83-.22 1.5-.22 1.5-.22.67-.61 1.14-.61 1.14-.39.47-.94.72-.94.72-.54.25-1.2.25-1.2.25zm0 0zm0-.767c.46 0 .83-.2.83-.2.374-.2.64-.58.64-.58.27-.38.417-.9.417-.9.145-.52.145-1.17.145-1.17 0-.64-.14-1.16-.14-1.16-.15-.515-.413-.87-.413-.87-.268-.36-.64-.554-.64-.554-.374-.19-.836-.19-.836-.19-.462 0-.835.19-.835.19-.37.2-.64.56-.64.56-.27.36-.42.87-.42.87-.14.52-.14 1.16-.14 1.16 0 .65.15 1.17.15 1.17.15.52.42.9.42.9.27.37.64.57.64.57.38.2.84.2.84.2zm3.483.64zm.97-1.51c.37.39.87.62.87.62.5.23 1.04.23 1.04.23.685 0 1.06-.31 1.06-.31.38-.31.38-.814.38-.814 0-.26-.09-.44-.09-.44-.09-.18-.24-.31-.24-.31-.15-.13-.36-.24-.36-.24l-.45-.22-.99-.43c-.24-.1-.492-.25-.492-.25-.25-.14-.45-.35-.45-.35-.2-.21-.325-.5-.325-.5-.13-.28-.13-.66-.13-.66 0-.39.16-.72.16-.72.16-.33.45-.58.45-.58.29-.24.68-.38.68-.38.39-.13.86-.13.86-.13.62 0 1.15.24 1.15.24.52.24.89.62.89.62l-.47.57c-.31-.3-.7-.48-.7-.48-.39-.17-.87-.17-.87-.17-.58 0-.93.27-.93.27-.35.27-.35.74-.35.74 0 .26.1.43.1.43.1.17.27.3.27.3.16.14.36.23.36.23.2.1.41.19.41.19l.97.42c.29.13.55.29.55.29.26.16.45.38.45.38.19.22.3.5.3.5.11.29.11.67.11.67 0 .41-.17.77-.17.77-.16.36-.46.62-.46.62-.31.27-.74.42-.74.42-.43.15-.98.15-.98.15-.73 0-1.35-.27-1.35-.27-.62-.27-1.07-.74-1.07-.74zm4.65 1.5zm.686-4.32c0-.31.18-.49.18-.49.187-.19.45-.19.45-.19.25 0 .435.185.435.185.184.184.184.49.184.49 0 .282-.18.466-.18.466-.18.188-.43.188-.43.188-.26 0-.44-.182-.44-.182-.18-.184-.18-.467-.18-.467zm0 0zm0 3.79c0-.31.18-.49.18-.49.187-.18.45-.18.45-.18.25 0 .435.18.435.18.184.18.184.49.184.49 0 .28-.18.46-.18.46-.18.185-.43.185-.43.185-.26 0-.44-.185-.44-.185-.18-.182-.18-.465-.18-.465zm4.05.52zm.71-1.388c.307.313.71.555.71.555.406.24 1 .24 1 .24.61 0 1-.33 1-.33.39-.33.39-.9.39-.9 0-.29-.11-.54-.11-.54-.11-.25-.362-.428-.362-.428-.25-.18-.66-.272-.66-.272-.41-.09-1.01-.09-1.01-.09v-.667c.54 0 .9-.093.9-.093.365-.094.59-.26.59-.26.227-.17.32-.4.32-.4.096-.23.096-.494.096-.494 0-.49-.31-.774-.31-.774-.31-.286-.844-.286-.844-.286-.42 0-.77.19-.77.19-.356.19-.66.49-.66.49l-.46-.547c.39-.37.854-.6.854-.6.47-.24 1.068-.24 1.068-.24.44 0 .81.12.81.12.37.12.64.33.64.33.265.22.41.53.41.53.15.32.15.73.15.73 0 .61-.335 1-.335 1-.33.39-.88.6-.88.6v.04c.3.08.57.22.57.22.26.15.46.36.46.36.2.22.31.5.31.5.11.29.11.63.11.63 0 .44-.17.8-.17.8-.18.36-.48.61-.48.61-.3.25-.7.38-.7.38-.4.13-.86.13-.86.13-.4 0-.73-.08-.73-.08-.33-.08-.6-.21-.6-.21-.27-.13-.49-.3-.49-.3-.21-.16-.38-.35-.38-.35zm4.51 1.385zm1.205-1.8c0 .28.11.512.11.512.11.23.306.403.306.403.193.175.455.27.455.27.264.095.568.095.568.095.59 0 .95-.323.95-.323.365-.33.365-.85.365-.85 0-.33-.14-.56-.14-.56-.14-.23-.4-.4-.4-.4-.25-.17-.58-.32-.58-.32l-.69-.29c-.4.27-.66.63-.66.63-.26.36-.26.82-.26.82zm0 0zm1.89-1.86c.338-.307.52-.64.52-.64.186-.34.186-.707.186-.707 0-.508-.307-.85-.307-.85-.305-.34-.86-.34-.86-.34-.474 0-.778.293-.778.293-.302.297-.302.79-.302.79 0 .305.127.52.127.52.126.216.342.384.342.384.216.17.49.3.49.3.28.13.587.247.587.247zm0 0zm-2.666 1.94c0-.324.11-.6.11-.6.11-.28.29-.508.29-.508.17-.228.4-.4.4-.4.23-.175.47-.3.47-.3v-.04c-.37-.266-.65-.64-.65-.64-.28-.372-.28-.91-.28-.91 0-.39.15-.703.15-.703.15-.31.4-.54.4-.54.25-.23.6-.35.6-.35.35-.12.76-.12.76-.12.44 0 .79.13.79.13.35.14.6.37.6.37.25.24.38.57.38.57.13.33.13.72.13.72 0 .26-.09.51-.09.51-.09.24-.22.45-.22.45-.13.21-.29.38-.29.38-.16.17-.32.29-.32.29v.04c.22.13.43.29.43.29.21.16.37.37.37.37.16.21.26.47.26.47.1.26.1.6.1.6 0 .38-.16.7-.16.7-.16.33-.44.57-.44.57-.28.24-.68.38-.68.38-.4.14-.88.14-.88.14-.47 0-.88-.14-.88-.14-.4-.14-.69-.38-.69-.38-.29-.24-.45-.58-.45-.58-.16-.33-.16-.73-.16-.73zM895.14 758zm3.488.126c-.652 0-1.193-.252-1.193-.252-.54-.252-.93-.72-.93-.72-.388-.467-.603-1.134-.603-1.134-.215-.667-.215-1.497-.215-1.497 0-.83.215-1.486.215-1.486.215-.657.604-1.114.604-1.114.39-.456.93-.698.93-.698.54-.242 1.192-.242 1.192-.242.65 0 1.192.247 1.192.247.54.247.935.704.935.704.394.457.61 1.113.61 1.113.214.657.214 1.476.214 1.476 0 .83-.22 1.497-.22 1.497-.22.667-.61 1.135-.61 1.135-.4.467-.94.72-.94.72-.54.25-1.2.25-1.2.25zm0 0zm0-.767c.462 0 .835-.2.835-.2.373-.2.64-.58.64-.58.27-.38.416-.9.416-.9.14-.52.14-1.17.14-1.17 0-.64-.15-1.16-.15-1.16-.15-.52-.42-.87-.42-.87-.27-.36-.64-.56-.64-.56-.38-.19-.84-.19-.84-.19-.47 0-.84.19-.84.19-.38.19-.64.55-.64.55-.27.35-.42.87-.42.87-.15.51-.15 1.15-.15 1.15 0 .65.14 1.17.14 1.17.14.52.41.89.41.89.27.37.64.57.64.57.37.2.83.2.83.2zm3.487.64zm1.01-4.4h-.758v-.66l.8-.05.104-1.43h.73v1.43h1.38v.7H904v2.83c0 .47.173.73.173.73.173.25.614.25.614.25.137 0 .294-.05.294-.05.16-.04.29-.1.29-.1l.17.65c-.21.07-.46.13-.46.13-.24.06-.49.06-.49.06-.41 0-.69-.13-.69-.13-.28-.13-.45-.35-.45-.35-.17-.22-.24-.54-.24-.54-.07-.32-.07-.7-.07-.7v-2.82zm2.54 4.4zm.862-7.48h.86v2.04l-.03 1.05c.367-.35.766-.6.766-.6.4-.25.935-.25.935-.25.81 0 1.182.5 1.182.5.373.5.373 1.49.373 1.49V758h-.86v-3.12c0-.725-.232-1.045-.232-1.045-.23-.32-.73-.32-.73-.32-.4 0-.7.2-.7.2-.3.2-.69.587-.69.587V758h-.86v-7.48zm4.853 7.48zm.483-2.55c0-.63.194-1.13.194-1.13.195-.5.515-.85.515-.85.32-.35.73-.53.73-.53.41-.19.85-.19.85-.19.484 0 .867.16.867.16.38.17.64.48.64.48.25.31.39.76.39.76.13.44.13.99.13.99 0 .28-.03.47-.03.47h-3.45c.05.83.51 1.31.51 1.31.45.48 1.19.48 1.19.48.36 0 .67-.11.67-.11.31-.11.59-.29.59-.29l.3.57c-.34.21-.75.37-.75.37-.41.15-.94.15-.94.15-.52 0-.96-.19-.96-.19-.45-.18-.78-.52-.78-.52-.33-.34-.52-.84-.52-.84-.19-.49-.19-1.12-.19-1.12zm0 0zm3.57-.39c0-.79-.33-1.2-.33-1.2-.33-.42-.93-.42-.93-.42-.272 0-.52.11-.52.11-.246.11-.446.31-.446.31-.2.2-.33.5-.33.5-.132.3-.174.69-.174.69h2.73zm1.157 2.94zm.86-5.11h.715l.074.92h.03c.26-.49.63-.77.63-.77.37-.29.81-.29.81-.29.3 0 .54.1.54.1l-.17.75c-.13-.05-.23-.07-.23-.07-.11-.02-.27-.02-.27-.02-.33 0-.68.26-.68.26-.36.26-.62.91-.62.91v3.3h-.86v-5.11zm2.785 5.1zm.683-4.32c0-.31.183-.49.183-.49.19-.19.45-.19.45-.19.25 0 .44.19.44.19.19.18.19.49.19.49 0 .28-.18.46-.18.46-.18.18-.43.18-.43.18-.26 0-.44-.19-.44-.19-.18-.18-.18-.47-.18-.47zm0 0zm0 3.79c0-.31.183-.49.183-.49.19-.18.45-.18.45-.18.25 0 .44.18.44.18.19.18.19.49.19.49 0 .28-.18.46-.18.46-.18.18-.43.18-.43.18-.26 0-.44-.19-.44-.19-.18-.19-.18-.47-.18-.47zm4.054.52zm2.815-.56c.253 0 .463-.11.463-.11.21-.11.367-.3.367-.3.158-.2.247-.46.247-.46.09-.27.09-.61.09-.61 0-.66-.305-1.04-.305-1.04-.31-.38-.94-.38-.94-.38-.32 0-.69.2-.69.2-.38.2-.71.67-.71.67.08.98.46 1.49.46 1.49.37.51 1.01.51 1.01.51zm0 0zm1.376-5.02c-.21-.25-.498-.39-.498-.39-.29-.15-.604-.15-.604-.15-.34 0-.66.14-.66.14-.31.14-.55.48-.55.48-.24.34-.39.88-.39.88-.14.54-.15 1.34-.15 1.34.32-.39.74-.61.74-.61.42-.23.83-.23.83-.23.88 0 1.4.51 1.4.51.52.52.52 1.56.52 1.56 0 .48-.15.88-.15.88-.16.39-.43.67-.43.67-.27.28-.63.44-.63.44-.36.15-.77.15-.77.15-.49 0-.91-.2-.91-.2-.42-.2-.73-.61-.73-.61-.31-.4-.48-1.01-.48-1.01-.18-.6-.18-1.41-.18-1.41 0-1.01.21-1.72.21-1.72.21-.71.57-1.16.57-1.16.36-.45.82-.65.82-.65.46-.21.96-.21.96-.21.55 0 .94.2.94.2.4.2.68.51.68.51zm1.03 5.57zm1.208-1.8c0 .28.11.51.11.51.11.23.31.4.31.4.2.17.46.27.46.27.26.09.57.09.57.09.59 0 .95-.33.95-.33.37-.33.37-.85.37-.85 0-.33-.14-.56-.14-.56-.14-.23-.4-.4-.4-.4-.25-.18-.58-.32-.58-.32-.33-.15-.68-.29-.68-.29-.4.27-.67.63-.67.63-.27.36-.27.82-.27.82zm0 0zm1.9-1.86c.34-.31.52-.64.52-.64.19-.34.19-.71.19-.71 0-.51-.3-.85-.3-.85-.3-.34-.86-.34-.86-.34-.47 0-.78.29-.78.29-.3.29-.3.79-.3.79 0 .3.13.52.13.52.13.21.34.38.34.38.22.16.5.3.5.3.28.13.58.24.58.24zm0 0zm-2.67 1.94c0-.33.11-.61.11-.61.11-.28.29-.51.29-.51.18-.23.4-.4.4-.4.23-.18.47-.3.47-.3v-.04c-.37-.27-.65-.64-.65-.64-.28-.37-.28-.91-.28-.91 0-.39.15-.7.15-.7.15-.31.4-.54.4-.54.26-.22.6-.35.6-.35.35-.12.76-.12.76-.12.45 0 .79.13.79.13.35.13.6.37.6.37.25.23.38.56.38.56.13.33.13.72.13.72 0 .26-.08.5-.08.5-.09.24-.22.45-.22.45-.13.21-.29.37-.29.37-.16.17-.32.28-.32.28v.04c.22.13.43.29.43.29.21.16.38.37.38.37.17.2.27.46.27.46.1.26.1.6.1.6 0 .37-.15.7-.15.7-.16.32-.44.56-.44.56-.29.24-.68.38-.68.38-.4.13-.88.13-.88.13-.47 0-.88-.14-.88-.14-.4-.14-.69-.38-.69-.38-.29-.25-.46-.59-.46-.59-.17-.34-.17-.74-.17-.74z"/></svg>