<svg xmlns="http://www.w3.org/2000/svg" stroke="#000" viewBox="0 0 1024 768" font-size="1"><path fill="#FFF" stroke="none" d="M0 0v768h1024V0z"/><path stroke="none" d="M457.914 14.102zm1.186-10.04h6.283V5.97h-4.02v2.018h3.42v1.894h-3.42v2.31h4.174v1.91H459.1V4.062zm7.253 10.04zm1-7.64h1.85l.153.987h.062c.477-.48 1.016-.83 1.016-.83.54-.35 1.294-.35 1.294-.35.816 0 1.316.33 1.316.33.5.33.794.95.794.95.508-.53 1.07-.9 1.07-.9.562-.38 1.332-.38 1.332-.38 1.232 0 1.81.82 1.81.82.577.82.577 2.25.577 2.25v4.75h-2.264V9.65c0-.832-.223-1.14-.223-1.14-.223-.31-.716-.31-.716-.31-.57 0-1.31.74-1.31.74v5.16h-2.263V9.65c0-.832-.22-1.14-.22-1.14-.22-.31-.71-.31-.71-.31-.58 0-1.29.74-1.29.74v5.16h-2.26V6.46zm12.198 7.64zm.73-2.126c0-1.2 1.02-1.88 1.02-1.88 1.02-.676 3.28-.907 3.28-.907-.03-.51-.31-.81-.31-.81-.27-.3-.89-.3-.89-.3-.49 0-.98.18-.98.18-.49.18-1.04.51-1.04.51l-.8-1.5c.74-.45 1.55-.73 1.55-.73.81-.28 1.72-.28 1.72-.28 1.48 0 2.26.84 2.26.84.78.84.78 2.61.78 2.61v4.38H485l-.17-.79h-.046c-.493.43-1.04.7-1.04.7-.546.27-1.193.27-1.193.27-.52 0-.94-.18-.94-.18-.41-.18-.71-.5-.71-.5-.29-.32-.45-.73-.45-.73-.16-.42-.16-.91-.16-.91zm0 0zm2.16-.17c0 .37.24.548.24.548.24.177.64.177.64.177.4 0 .68-.17.68-.17.28-.16.59-.47.59-.47v-1.34c-1.21.17-1.68.5-1.68.5-.46.33-.46.77-.46.77zm5.35 2.296zm2.12-8.762c-.57 0-.94-.332-.94-.332-.37-.33-.37-.855-.37-.855 0-.524.37-.847.37-.847.37-.323.94-.323.94-.323.59 0 .95.323.95.323.36.323.36.847.36.847 0 .524-.36.855-.36.855-.36.33-.95.33-.95.33zm0 0zm-1.12 1.123h2.27v7.64h-2.26v-7.64zm3.25 7.64zm1-10.797h2.27v8.516c0 .355.13.493.13.493.14.14.27.14.27.14h.14l.15-.032.28 1.68c-.18.076-.47.13-.47.13-.28.053-.67.053-.67.053-.58 0-.98-.184-.98-.184-.4-.185-.64-.516-.64-.516-.23-.33-.34-.8-.34-.8-.11-.47-.11-1.056-.11-1.056V3.306zm6.61 10.796zm3.27.6v2.233h-2.26V6.463h1.85l.16.755h.06c.45-.4 1.01-.67 1.01-.67.56-.27 1.16-.27 1.16-.27.7 0 1.25.277 1.25.277.56.278.94.786.94.786.39.51.59 1.23.59 1.23.21.72.21 1.6.21 1.6 0 .99-.27 1.75-.27 1.75-.27.77-.72 1.3-.72 1.3-.45.54-1.03.81-1.03.81-.57.28-1.19.28-1.19.28-.49 0-.95-.21-.95-.21-.46-.21-.86-.59-.86-.59zm0 0zm0-2.756c.31.277.62.385.62.385.31.11.6.11.6.11.59 0 1-.53 1-.53.42-.53.42-1.72.42-1.72 0-2.06-1.32-2.06-1.32-2.06-.66 0-1.31.7-1.31.7v3.13zm5.56 2.156zm1-7.64h1.85l.16 1.34h.07c.42-.785 1-1.154 1-1.154.59-.37 1.17-.37 1.17-.37.33 0 .53.04.53.04.21.037.38.114.38.114l-.37 1.956c-.21-.062-.4-.092-.4-.092-.18-.03-.43-.03-.43-.03-.43 0-.9.307-.9.307-.47.308-.77 1.093-.77 1.093v4.436h-2.27v-7.64zm4.98 7.64zm.56-3.82c0-.955.31-1.7.31-1.7.31-.748.83-1.257.83-1.257.52-.508 1.19-.777 1.19-.777.68-.27 1.4-.27 1.4-.27.73 0 1.4.27 1.4.27.67.27 1.19.777 1.19.777.52.51.83 1.256.83 1.256.31.75.31 1.71.31 1.71 0 .96-.3 1.7-.3 1.7-.31.75-.83 1.26-.83 1.26-.51.51-1.18.78-1.18.78-.67.27-1.39.27-1.39.27-.72 0-1.4-.27-1.4-.27-.68-.27-1.19-.77-1.19-.77-.51-.51-.82-1.25-.82-1.25-.303-.75-.303-1.7-.303-1.7zm0 0zm2.33 0c0 1 .35 1.586.35 1.586.35.586 1.06.586 1.06.586.7 0 1.05-.586 1.05-.586.36-.585.36-1.586.36-1.586 0-1-.35-1.586-.35-1.586-.35-.585-1.05-.585-1.05-.585-.71 0-1.05.59-1.05.59-.34.59-.34 1.59-.34 1.59zm5.55 3.82zm.19-7.64h2.28l.98 3.605c.16.57.3 1.162.3 1.162l.3 1.19h.06l.28-1.2c.15-.6.3-1.17.3-1.17l1-3.61h2.18l-2.49 7.64h-2.62zm7.87 7.64zm2.12-8.763c-.57 0-.94-.34-.94-.34-.37-.33-.37-.86-.37-.86 0-.53.37-.85.37-.85.37-.33.94-.33.94-.33.59 0 .95.32.95.32.36.32.36.84.36.84 0 .52-.36.85-.36.85-.36.33-.95.33-.95.33zm0 0zm-1.12 1.12h2.26v7.64h-2.26V6.46zm3.25 7.64zm.6-3.82c0-.94.27-1.68.27-1.68.27-.74.71-1.26.71-1.26.44-.52 1.02-.8 1.02-.8.58-.28 1.18-.28 1.18-.28.65 0 1.06.21 1.06.21.42.21.82.58.82.58l-.09-1.17V3.3H543v10.8h-1.85l-.153-.754h-.06c-.402.4-.94.67-.94.67-.54.27-1.094.27-1.094.27-.71 0-1.284-.278-1.284-.278-.58-.278-.99-.794-.99-.794-.41-.516-.63-1.255-.63-1.255-.22-.74-.22-1.68-.22-1.68zm0 0zm2.32-.03c0 1.14.36 1.66.36 1.66.37.52 1.03.52 1.03.52.37 0 .67-.16.67-.16.3-.16.58-.54.58-.54V8.62c-.3-.278-.63-.386-.63-.386-.32-.108-.63-.108-.63-.108-.54 0-.95.516-.95.516-.41.516-.41 1.61-.41 1.61zm5.9 3.85zm.55-3.82c0-.93.31-1.67.31-1.67.31-.75.81-1.26.81-1.26.5-.52 1.15-.8 1.15-.8.65-.28 1.34-.28 1.34-.28.82 0 1.43.28 1.43.28.61.27 1.02.77 1.02.77.41.49.61 1.16.61 1.16.2.67.2 1.45.2 1.45 0 .31-.03.56-.03.56-.04.25-.07.39-.07.39h-4.57c.16.88.69 1.27.69 1.27.53.39 1.3.39 1.3.39.82 0 1.65-.51 1.65-.51l.76 1.37c-.58.4-1.3.63-1.3.63-.71.23-1.41.23-1.41.23-.81 0-1.52-.27-1.52-.27-.71-.27-1.23-.79-1.23-.79-.52-.52-.82-1.26-.82-1.26-.29-.74-.29-1.7-.29-1.7zm0 0zm4.93-.79c0-.66-.29-1.08-.29-1.08-.29-.42-.98-.42-.98-.42-.54 0-.94.36-.94.36-.41.36-.53 1.13-.53 1.13h2.76zm2.5 4.6zm.6-3.82c0-.94.27-1.68.27-1.68.27-.74.71-1.26.71-1.26.44-.52 1.02-.8 1.02-.8.58-.28 1.18-.28 1.18-.28.65 0 1.07.21 1.07.21.42.21.82.58.82.58l-.1-1.17V3.3h2.26v10.8H558l-.16-.754h-.06c-.4.4-.94.67-.94.67-.54.27-1.092.27-1.092.27-.71 0-1.29-.278-1.29-.278-.576-.278-.984-.794-.984-.794-.41-.516-.637-1.255-.637-1.255-.22-.74-.22-1.68-.22-1.68zm0 0zm2.33-.03c0 1.14.36 1.66.36 1.66.36.52 1.02.52 1.02.52.37 0 .67-.16.67-.16.3-.16.58-.54.58-.54v-3.1c-.31-.28-.63-.39-.63-.39-.32-.11-.63-.11-.63-.11-.54 0-.95.51-.95.51-.42.51-.42 1.61-.42 1.61zm5.9 3.85zm2.37-3.56c-.07-.53.04-.96.04-.96.12-.43.33-.8.33-.8.22-.37.49-.68.49-.68l.52-.6c.25-.29.41-.56.41-.56.16-.27.16-.57.16-.57 0-.48-.29-.72-.29-.72-.28-.25-.74-.25-.74-.25-.43 0-.76.2-.76.2-.33.2-.64.51-.64.51l-1.3-1.1c.53-.63 1.24-1.02 1.24-1.02.71-.39 1.57-.39 1.57-.39.65 0 1.21.15 1.21.15.56.15.97.47.97.47.41.32.64.82.64.82.23.5.23 1.18.23 1.18 0 .47-.17.85-.17.85-.17.37-.42.7-.42.7-.26.32-.54.62-.54.62-.29.3-.53.62-.53.62-.24.32-.38.68-.38.68-.14.36-.1.82-.1.82h-1.99zm0 0zm-.37 2.32c0-.62.39-1.03.39-1.03.38-.41.97-.41.97-.41.58 0 .98.41.98.41.4.4.4 1.02.4 1.02 0 .6-.39 1-.39 1-.393.41-.98.41-.98.41-.584 0-.97-.41-.97-.41-.384-.41-.384-1.01-.384-1.01z"/><path fill="#5C3566" stroke="none" d="M846 394c0 184.463-149.537 334-334 334S178 578.463 178 394c0-183.083 147.39-332.043 330.463-333.98L512 394z"/><path fill="none" stroke="#FFF" stroke-opacity=".1" stroke-miterlimit="10" d="M846 394c0 184.463-149.537 334-334 334S178 578.463 178 394c0-183.083 147.39-332.043 330.463-333.98L512 394z" stroke-linejoin="bevel"/><path fill="none" stroke-miterlimit="10" d="M273.563 634.975l-10.55 10.663h-39.075"/><path stroke="none" d="M223.937 642.245zm2.06-2.668l-2.07-4.223h.935l.893 1.943c.168.378.325.746.325.746.158.368.336.756.336.756h.042c.18-.39.358-.76.358-.76.178-.37.336-.75.336-.75l.882-1.95h.914l-2.07 4.22v2.67h-.882v-2.67zm2.51 2.668zm.483-2.542c0-.63.194-1.13.194-1.13.195-.498.515-.845.515-.845.32-.347.73-.53.73-.53.41-.184.85-.184.85-.184.48 0 .86.168.86.168.38.168.64.483.64.483.26.315.39.756.39.756.13.45.13.99.13.99 0 .29-.03.47-.03.47h-3.45c.05.83.51 1.32.51 1.32.46.49 1.19.49 1.19.49.36 0 .67-.11.67-.11.31-.11.59-.29.59-.29l.3.57c-.34.21-.75.37-.75.37-.41.16-.94.16-.94.16-.52 0-.96-.18-.96-.18-.45-.18-.78-.52-.78-.52-.33-.34-.52-.83-.52-.83-.19-.49-.19-1.12-.19-1.12zm0 0zm3.57-.39c0-.787-.33-1.202-.33-1.202-.33-.41-.93-.41-.93-.41-.272 0-.52.11-.52.11-.246.11-.446.32-.446.32-.2.21-.33.51-.33.51-.132.3-.174.69-.174.69h2.73zm1.157 2.932zm.725-1.156c.336.27.688.44.688.44.352.17.814.17.814.17.504 0 .756-.24.756-.24.252-.23.252-.57.252-.57 0-.2-.105-.35-.105-.35-.105-.15-.268-.26-.268-.26-.17-.11-.38-.2-.38-.2l-.42-.17c-.28-.1-.55-.22-.55-.22-.28-.12-.49-.3-.49-.3-.22-.18-.35-.41-.35-.41-.14-.23-.14-.56-.14-.56 0-.31.12-.57.12-.57.12-.27.34-.46.34-.46.22-.2.55-.31.55-.31.32-.11.73-.11.73-.11.48 0 .89.16.89.16.4.17.69.41.69.41l-.41.55c-.26-.2-.55-.33-.55-.33-.29-.13-.62-.13-.62-.13-.49 0-.71.22-.71.22-.23.22-.23.51-.23.51 0 .18.09.31.09.31.09.13.25.23.25.23.16.1.36.18.36.18l.43.16.55.22c.27.11.5.29.5.29.22.17.36.42.36.42.14.25.14.61.14.61 0 .31-.12.59-.12.59-.12.27-.36.48-.36.48-.24.21-.59.33-.59.33-.35.12-.81.12-.81.12-.55 0-1.04-.2-1.04-.2-.5-.2-.86-.51-.86-.51zm3.676 1.15zm.683-4.32c0-.31.19-.49.19-.49.19-.19.45-.19.45-.19.26 0 .44.18.44.18.19.18.19.49.19.49 0 .28-.18.46-.18.46-.18.18-.43.18-.43.18-.26 0-.44-.19-.44-.19-.18-.19-.18-.47-.18-.47zm0 0zm0 3.79c0-.31.19-.49.19-.49.19-.19.45-.19.45-.19.26 0 .44.18.44.18.19.18.19.49.19.49 0 .28-.18.46-.18.46-.18.18-.43.18-.43.18-.26 0-.44-.19-.44-.19-.18-.19-.18-.47-.18-.47zm4.06.52zm2.47-3.26c.33 0 .7-.21.7-.21.37-.21.71-.69.71-.69-.08-.99-.46-1.49-.46-1.49-.38-.51-1.02-.51-1.02-.51-.24 0-.45.1-.45.1-.21.1-.37.3-.37.3-.15.19-.24.46-.24.46-.09.27-.09.6-.09.6 0 .66.31 1.04.31 1.04.31.38.94.38.94.38zm0 0zm-1.45 2.13c.21.24.5.39.5.39.29.14.61.14.61.14.36 0 .68-.15.68-.15.32-.15.56-.49.56-.49.24-.34.39-.89.39-.89.15-.55.16-1.36.16-1.36-.31.4-.73.63-.73.63-.42.23-.84.23-.84.23-.87 0-1.39-.52-1.39-.52-.51-.52-.51-1.56-.51-1.56 0-.48.16-.88.16-.88.16-.4.43-.68.43-.68.27-.29.63-.44.63-.44.36-.16.76-.16.76-.16.5 0 .92.2.92.2.43.2.74.6.74.6.31.41.49 1.01.49 1.01.17.6.17 1.41.17 1.41 0 1.01-.21 1.72-.21 1.72-.21.71-.56 1.16-.56 1.16-.36.44-.81.65-.81.65-.45.2-.96.2-.96.2-.53 0-.94-.2-.94-.2-.4-.2-.68-.5-.68-.5zm4.2 1.12zm2.47-3.26c.33 0 .7-.21.7-.21.38-.21.71-.69.71-.69-.08-.99-.46-1.49-.46-1.49-.37-.51-1.02-.51-1.02-.51-.24 0-.45.1-.45.1-.21.1-.37.3-.37.3-.15.19-.24.46-.24.46-.09.27-.09.59-.09.59 0 .66.31 1.04.31 1.04.3.38.94.38.94.38zm0 0zm-1.45 2.13c.21.24.5.39.5.39.29.14.61.14.61.14.36 0 .67-.15.67-.15.32-.15.56-.49.56-.49.24-.34.39-.89.39-.89.15-.55.16-1.36.16-1.36-.31.4-.73.63-.73.63-.42.23-.84.23-.84.23-.87 0-1.39-.52-1.39-.52-.51-.52-.51-1.56-.51-1.56 0-.48.16-.88.16-.88.16-.39.43-.67.43-.67.27-.29.63-.44.63-.44.37-.16.76-.16.76-.16.5 0 .92.2.92.2.43.2.74.6.74.6.31.4.48 1.01.48 1.01.18.6.18 1.41.18 1.41 0 1.01-.21 1.72-.21 1.72-.21.71-.56 1.15-.56 1.15-.35.44-.81.65-.81.65-.45.2-.96.2-.96.2-.53 0-.94-.2-.94-.2-.4-.2-.67-.51-.67-.51zm4.2 1.12zm2.47-3.26c.33 0 .7-.21.7-.21.37-.21.71-.69.71-.69-.08-.99-.46-1.49-.46-1.49-.38-.51-1.02-.51-1.02-.51-.24 0-.45.11-.45.11-.21.1-.37.3-.37.3-.16.19-.25.46-.25.46-.09.27-.09.6-.09.6 0 .66.31 1.04.31 1.04.31.38.94.38.94.38zm0 0zm-1.45 2.13c.21.24.5.39.5.39.29.14.61.14.61.14.36 0 .68-.15.68-.15.32-.15.56-.49.56-.49.24-.34.39-.89.39-.89.15-.55.16-1.36.16-1.36-.31.39-.73.63-.73.63-.42.23-.84.23-.84.23-.87 0-1.38-.52-1.38-.52-.51-.52-.51-1.56-.51-1.56 0-.48.16-.88.16-.88.16-.39.43-.68.43-.68.27-.28.63-.44.63-.44.36-.16.76-.16.76-.16.49 0 .92.2.92.2.42.2.73.61.73.61.31.4.49 1.01.49 1.01.17.6.17 1.41.17 1.41 0 1-.21 1.71-.21 1.71-.21.71-.57 1.16-.57 1.16-.35.45-.81.65-.81.65-.46.21-.96.21-.96.21-.54 0-.94-.2-.94-.2-.4-.2-.68-.51-.68-.51z"/><path fill="#AD7FA8" stroke="none" d="M508.463 60.02c184.453-1.955 335.565 145.99 337.518 330.443.02 1.18.02 2.358.02 3.537H512z"/><path fill="none" stroke="#FFF" stroke-opacity=".1" stroke-miterlimit="10" d="M508.463 60.02c184.453-1.955 335.565 145.99 337.518 330.443.02 1.18.02 2.358.02 3.537H512z" stroke-linejoin="bevel"/><path fill="none" stroke-miterlimit="10" d="M750.437 153.025l10.55-10.663h36.523"/><path stroke="none" d="M765.987 138.97zm.945-6.89h.904l2.49 4.326.745 1.43h.05c-.03-.526-.07-1.088-.07-1.088-.03-.562-.03-1.108-.03-1.108v-3.56h.83v6.89h-.9l-2.5-4.34-.74-1.417h-.04c.05.525.08 1.066.08 1.066.04.54.04 1.08.04 1.08v3.6h-.83v-6.89zm5.85 6.89zm.484-2.542c0-.64.195-1.14.195-1.14.2-.5.52-.846.52-.846.33-.346.76-.525.76-.525.43-.18.9-.18.9-.18.48 0 .9.18.9.18.43.18.75.525.75.525.33.347.52.846.52.846.2.5.2 1.14.2 1.14 0 .63-.19 1.13-.19 1.13-.19.498-.52.84-.52.84-.32.34-.75.52-.75.52-.42.178-.89.178-.89.178-.47 0-.9-.18-.9-.18-.42-.178-.75-.52-.75-.52-.32-.34-.52-.84-.52-.84-.19-.498-.19-1.13-.19-1.13zm0 0zm.893 0c0 .44.1.798.1.798.1.357.3.614.3.614.19.258.46.4.46.4.27.14.6.14.6.14.32 0 .59-.14.59-.14.27-.142.47-.4.47-.4.19-.257.3-.614.3-.614.1-.357.1-.798.1-.798 0-.442-.11-.804-.11-.804-.11-.362-.3-.625-.3-.625-.2-.27-.47-.41-.47-.41-.28-.14-.6-.14-.6-.14-.33 0-.6.14-.6.14-.28.14-.47.4-.47.4-.2.26-.3.62-.3.62-.11.36-.11.8-.11.8zm4.31 2.542zm.68-4.318c0-.304.18-.488.18-.488.18-.184.44-.184.44-.184.25 0 .43.184.43.184.18.184.18.488.18.488 0 .284-.19.468-.19.468-.18.183-.44.183-.44.183-.26 0-.44-.183-.44-.183-.19-.184-.19-.468-.19-.468zm0 0zm0 3.792c0-.304.18-.488.18-.488.18-.184.44-.184.44-.184.25 0 .43.184.43.184.18.184.18.488.18.488 0 .284-.19.468-.19.468-.18.183-.44.183-.44.183-.26 0-.44-.183-.44-.183-.19-.184-.19-.468-.19-.468zm4.05.526zm.71-1.387c.3.315.71.557.71.557.4.24 1 .24 1 .24.61 0 .99-.33.99-.33.39-.33.39-.898.39-.898 0-.294-.11-.54-.11-.54-.11-.248-.36-.426-.36-.426-.25-.18-.66-.273-.66-.273-.41-.095-1.01-.095-1.01-.095v-.662c.54 0 .9-.094.9-.094.36-.095.59-.263.59-.263.22-.17.32-.4.32-.4.09-.23.09-.5.09-.5 0-.5-.31-.78-.31-.78-.31-.29-.85-.29-.85-.29-.42 0-.77.19-.77.19-.35.19-.66.49-.66.49l-.46-.55c.38-.37.85-.61.85-.61.46-.24 1.06-.24 1.06-.24.44 0 .81.11.81.11.36.11.63.33.63.33.26.21.41.53.41.53.14.31.14.72.14.72 0 .61-.34 1-.34 1-.34.39-.88.6-.88.6v.04c.3.07.56.21.56.21.26.14.46.35.46.35.2.21.31.5.31.5.11.28.11.63.11.63 0 .44-.17.8-.17.8-.18.35-.47.6-.47.6-.3.24-.7.37-.7.37-.4.13-.86.13-.86.13-.4 0-.73-.08-.73-.08-.33-.08-.61-.21-.61-.21-.27-.13-.49-.3-.49-.3-.22-.17-.38-.36-.38-.36zm4.5 1.387zm.71-1.387c.3.315.71.557.71.557.4.24 1 .24 1 .24.61 0 1-.33 1-.33.38-.33.38-.898.38-.898 0-.294-.11-.54-.11-.54-.11-.248-.36-.426-.36-.426-.25-.18-.66-.273-.66-.273-.41-.095-1.01-.095-1.01-.095v-.662c.53 0 .89-.094.89-.094.36-.095.59-.263.59-.263.23-.17.32-.4.32-.4.1-.23.1-.5.1-.5 0-.5-.31-.78-.31-.78-.31-.29-.85-.29-.85-.29-.42 0-.77.19-.77.19-.36.19-.66.49-.66.49l-.46-.55c.39-.37.86-.61.86-.61.46-.24 1.06-.24 1.06-.24.44 0 .81.11.81.11.37.11.63.33.63.33.26.21.41.53.41.53.15.31.15.72.15.72 0 .61-.34 1-.34 1-.33.39-.88.6-.88.6v.04c.3.07.57.21.57.21.26.14.46.35.46.35.2.21.31.5.31.5.11.28.11.63.11.63 0 .44-.18.8-.18.8-.18.35-.48.6-.48.6-.3.24-.7.37-.7.37-.4.13-.86.13-.86.13-.4 0-.73-.08-.73-.08-.33-.08-.6-.21-.6-.21-.27-.13-.49-.3-.49-.3-.21-.17-.38-.36-.38-.36zm4.5 1.387zm2.81-.557c.25 0 .46-.105.46-.105.21-.105.37-.3.37-.3.16-.194.24-.462.24-.462.09-.268.09-.604.09-.604 0-.662-.31-1.04-.31-1.04-.3-.378-.93-.378-.93-.378-.32 0-.69.205-.69.205-.38.2-.71.67-.71.67.08.99.45 1.49.45 1.49.37.51 1.01.51 1.01.51zm0 0zm1.37-5.02c-.21-.243-.5-.385-.5-.385-.29-.142-.6-.142-.6-.142-.35 0-.66.148-.66.148-.32.147-.56.483-.56.483-.24.336-.39.877-.39.877-.15.54-.16 1.34-.16 1.34.32-.39.74-.615.74-.615.42-.23.83-.23.83-.23.87 0 1.39.51 1.39.51.52.51.52 1.55.52 1.55 0 .48-.16.87-.16.87-.16.39-.43.67-.43.67-.27.28-.63.44-.63.44-.36.16-.77.16-.77.16-.5 0-.92-.2-.92-.2-.42-.2-.73-.61-.73-.61-.31-.41-.49-1.01-.49-1.01-.18-.61-.18-1.42-.18-1.42 0-1.01.21-1.72.21-1.72.21-.71.56-1.16.56-1.16.36-.45.82-.65.82-.65.45-.21.96-.21.96-.21.54 0 .94.21.94.21.39.2.67.51.67.51z"/></svg>