<svg xmlns="http://www.w3.org/2000/svg" stroke="#000" viewBox="0 0 1024 768" font-size="1"><path fill="#FFF" stroke="none" d="M0 0v768h1024V0z"/><path stroke="none" d="M343.98 14.102zm1.187-10.04h2.264v3.864h3.47V4.06h2.28v10.042h-2.28v-4.19h-3.46v4.19h-2.26V4.062zm9.194 10.04zm.56-3.82c0-.955.31-1.7.31-1.7.31-.748.83-1.257.83-1.257.52-.508 1.2-.777 1.2-.777.68-.27 1.41-.27 1.41-.27.73 0 1.4.27 1.4.27.67.27 1.19.777 1.19.777.52.51.83 1.256.83 1.256.31.75.31 1.71.31 1.71 0 .96-.31 1.7-.31 1.7-.31.75-.82 1.26-.82 1.26-.51.51-1.18.78-1.18.78-.67.27-1.39.27-1.39.27-.72 0-1.4-.27-1.4-.27-.67-.27-1.19-.77-1.19-.77-.51-.51-.82-1.25-.82-1.25-.31-.74-.31-1.7-.31-1.7zm0 0zm2.33 0c0 1 .35 1.586.35 1.586.35.586 1.06.586 1.06.586.7 0 1.05-.586 1.05-.586.36-.585.36-1.586.36-1.586 0-1-.35-1.586-.35-1.586-.35-.585-1.05-.585-1.05-.585-.71 0-1.05.59-1.05.59-.34.59-.34 1.59-.34 1.59zm5.55 3.82zm.37-7.64h2.25l.74 3.543c.1.57.17 1.124.17 1.124.08.55.17 1.14.17 1.14h.06c.11-.59.21-1.16.21-1.16.1-.57.24-1.11.24-1.11l.85-3.54h1.96l.86 3.54c.14.57.25 1.12.25 1.12l.23 1.14h.06c.11-.59.18-1.14.18-1.14.07-.56.18-1.13.18-1.13l.73-3.54h2.1l-1.83 7.64h-2.65l-.69-3.05c-.12-.54-.22-1.08-.22-1.08-.09-.54-.2-1.16-.2-1.16h-.06c-.11.61-.19 1.15-.19 1.15-.09.54-.19 1.08-.19 1.08l-.68 3.05h-2.59zm14.79 7.64zm.6-3.82c0-.94.27-1.678.27-1.678.27-.74.71-1.255.71-1.255.44-.52 1.02-.8 1.02-.8.58-.28 1.18-.28 1.18-.28.65 0 1.07.21 1.07.21.42.21.82.58.82.58l-.09-1.17V3.3h2.27v10.8h-1.85l-.15-.754h-.06c-.4.4-.94.67-.94.67-.54.27-1.09.27-1.09.27-.71 0-1.28-.278-1.28-.278-.57-.278-.98-.794-.98-.794-.41-.516-.63-1.255-.63-1.255-.22-.74-.22-1.68-.22-1.68zm0 0zm2.33-.03c0 1.14.36 1.663.36 1.663.36.523 1.03.523 1.03.523.37 0 .67-.154.67-.154.3-.154.58-.54.58-.54V8.62c-.31-.278-.63-.386-.63-.386-.32-.108-.63-.108-.63-.108-.54 0-.96.516-.96.516-.41.516-.41 1.61-.41 1.61zm5.9 3.85zm.55-3.82c0-.955.31-1.7.31-1.7.31-.748.83-1.257.83-1.257.52-.508 1.2-.777 1.2-.777.68-.27 1.4-.27 1.4-.27.73 0 1.4.27 1.4.27.67.27 1.19.777 1.19.777.51.51.82 1.256.82 1.256.31.75.31 1.71.31 1.71 0 .96-.31 1.7-.31 1.7-.31.75-.82 1.26-.82 1.26-.51.51-1.18.78-1.18.78-.67.27-1.4.27-1.4.27-.72 0-1.4-.27-1.4-.27-.68-.27-1.19-.77-1.19-.77-.52-.51-.83-1.25-.83-1.25-.31-.74-.31-1.7-.31-1.7zm0 0zm2.33 0c0 1 .35 1.586.35 1.586.35.586 1.06.586 1.06.586.69 0 1.05-.586 1.05-.586.36-.585.36-1.586.36-1.586 0-1-.35-1.586-.35-1.586-.35-.585-1.05-.585-1.05-.585-.71 0-1.06.59-1.06.59-.34.59-.34 1.59-.34 1.59zm8.87 3.82zm1.17 1.108c.11.03.25.062.25.062.14.03.26.03.26.03.57 0 .88-.276.88-.276.31-.278.47-.724.47-.724l.11-.4-2.94-7.44H401l1.093 3.28c.17.525.308 1.064.308 1.064.14.54.29 1.11.29 1.11h.06l.26-1.087c.13-.55.27-1.09.27-1.09l.92-3.28h2.17l-2.64 7.71c-.28.72-.58 1.27-.58 1.27-.3.54-.69.91-.69.91-.39.36-.89.54-.89.54-.5.18-1.17.18-1.17.18-.35 0-.6-.04-.6-.04-.24-.04-.48-.12-.48-.12l.4-1.73zm6.73-1.108zm.56-3.82c0-.955.31-1.7.31-1.7.31-.748.83-1.257.83-1.257.52-.508 1.2-.777 1.2-.777.68-.27 1.4-.27 1.4-.27.73 0 1.4.27 1.4.27.67.27 1.19.777 1.19.777.51.51.82 1.256.82 1.256.31.75.31 1.71.31 1.71 0 .96-.31 1.7-.31 1.7-.31.75-.82 1.26-.82 1.26-.51.51-1.18.78-1.18.78-.67.27-1.39.27-1.39.27-.72 0-1.4-.27-1.4-.27-.68-.27-1.19-.77-1.19-.77-.51-.51-.82-1.25-.82-1.25-.31-.74-.31-1.7-.31-1.7zm0 0zm2.33 0c0 1 .35 1.586.35 1.586.35.586 1.06.586 1.06.586.69 0 1.05-.586 1.05-.586.36-.585.36-1.586.36-1.586 0-1-.35-1.586-.35-1.586-.36-.585-1.05-.585-1.05-.585-.71 0-1.06.59-1.06.59-.35.59-.35 1.59-.35 1.59zm5.67 3.82zm.93-7.64h2.27v4.452c0 .83.23 1.14.23 1.14.23.307.73.307.73.307.43 0 .73-.2.73-.2.3-.2.63-.64.63-.64V6.47h2.27v7.63h-1.85l-.17-1.063h-.04c-.49.584-1.06.915-1.06.915-.56.33-1.34.33-1.34.33-1.25 0-1.81-.815-1.81-.815-.56-.816-.56-2.264-.56-2.264v-4.74zm11.03 7.64zm2.13-8.763c-.57 0-.94-.34-.94-.34-.37-.33-.37-.86-.37-.86 0-.53.37-.85.37-.85.37-.33.94-.33.94-.33.59 0 .95.32.95.32.36.32.36.84.36.84 0 .52-.36.85-.36.85-.36.33-.95.33-.95.33zm0 0zm-1.12 1.12h2.27v7.64h-2.26V6.46zm3.25 7.64zm1-7.64h1.85l.16.97h.06c.49-.46 1.08-.81 1.08-.81.59-.35 1.37-.35 1.37-.35 1.25 0 1.81.81 1.81.81.57.81.57 2.26.57 2.26v4.75h-2.27V9.65c0-.832-.22-1.14-.22-1.14-.22-.31-.72-.31-.72-.31-.43 0-.74.195-.74.195-.3.192-.67.547-.67.547v5.16h-2.26v-7.64zm7.8 7.64zm1.31-5.87h-1.04V6.55l1.17-.092.26-2.032h1.88V6.46h1.83v1.77h-1.83v3.07c0 .646.27.93.27.93.27.285.71.285.71.285.19 0 .38-.046.38-.046.19-.05.35-.11.35-.11l.35 1.65c-.31.09-.73.18-.73.18-.42.09-.97.09-.97.09-.71 0-1.21-.22-1.21-.22-.5-.22-.81-.6-.81-.6-.32-.39-.46-.94-.46-.94-.14-.55-.14-1.21-.14-1.21V8.23zm4.44 5.87zm.56-3.82c0-.93.31-1.67.31-1.67.31-.75.81-1.26.81-1.26.5-.52 1.15-.8 1.15-.8.65-.28 1.34-.28 1.34-.28.82 0 1.42.28 1.42.28.61.27 1.02.77 1.02.77.41.49.61 1.16.61 1.16.2.67.2 1.45.2 1.45 0 .31-.03.56-.03.56-.03.25-.06.39-.06.39h-4.58c.15.88.69 1.27.69 1.27.53.39 1.3.39 1.3.39.82 0 1.65-.51 1.65-.51l.75 1.37c-.58.4-1.3.63-1.3.63-.71.23-1.41.23-1.41.23-.81 0-1.52-.27-1.52-.27-.71-.27-1.23-.79-1.23-.79-.52-.52-.81-1.26-.81-1.26-.29-.74-.29-1.69-.29-1.69zm0 0zm4.93-.79c0-.66-.29-1.08-.29-1.08-.29-.42-.98-.42-.98-.42-.54 0-.94.36-.94.36-.41.36-.53 1.13-.53 1.13h2.76zm2.5 4.61zm1-7.64h1.85l.15 1.34h.06c.42-.79 1-1.16 1-1.16.59-.37 1.17-.37 1.17-.37.32 0 .53.04.53.04.21.03.38.11.38.11l-.37 1.95c-.22-.06-.4-.09-.4-.09-.19-.03-.43-.03-.43-.03-.43 0-.9.3-.9.3-.47.3-.78 1.09-.78 1.09v4.44h-2.26V6.46zm4.68 7.64zm.72-2.13c0-1.2 1.02-1.88 1.02-1.88 1.02-.68 3.28-.91 3.28-.91-.03-.51-.31-.81-.31-.81-.28-.3-.89-.3-.89-.3-.49 0-.98.18-.98.18-.49.18-1.04.51-1.04.51l-.8-1.5c.74-.45 1.55-.73 1.55-.73.81-.28 1.72-.28 1.72-.28 1.48 0 2.26.84 2.26.84.78.84.78 2.61.78 2.61v4.38h-1.85l-.17-.79h-.04c-.49.43-1.04.7-1.04.7-.55.27-1.19.27-1.19.27-.52 0-.94-.18-.94-.18-.42-.18-.71-.5-.71-.5-.29-.32-.45-.73-.45-.73-.16-.41-.16-.9-.16-.9zm0 0zm2.16-.17c0 .37.24.55.24.55.24.17.64.17.64.17.4 0 .68-.17.68-.17.28-.17.59-.48.59-.48v-1.34c-1.22.17-1.68.49-1.68.49-.46.32-.46.77-.46.77zm5.34 2.29zm.56-3.82c0-.96.32-1.7.32-1.7.33-.75.87-1.26.87-1.26.55-.51 1.27-.78 1.27-.78.73-.27 1.51-.27 1.51-.27.71 0 1.28.24 1.28.24.57.24.96.64.96.64l-1.03 1.4c-.54-.45-1.06-.45-1.06-.45-.83 0-1.31.59-1.31.59-.48.58-.48 1.58-.48 1.58 0 1 .48 1.58.48 1.58.48.58 1.22.58 1.22.58.42 0 .75-.17.75-.17.34-.17.62-.39.62-.39l.91 1.43c-.55.49-1.23.72-1.23.72-.68.23-1.31.23-1.31.23-.8 0-1.48-.27-1.48-.27-.68-.27-1.19-.78-1.19-.78-.51-.51-.8-1.25-.8-1.25-.29-.75-.29-1.7-.29-1.7zm6.64 3.82zm1.31-5.87h-1.05V6.55l1.17-.09.26-2.033h1.88v2.03h1.83v1.77h-1.83v3.07c0 .645.27.93.27.93.27.284.71.284.71.284.19 0 .38-.04.38-.04.2-.05.35-.11.35-.11l.35 1.65c-.31.09-.72.18-.72.18-.41.09-.97.09-.97.09-.71 0-1.21-.21-1.21-.21-.5-.21-.81-.6-.81-.6-.31-.38-.46-.93-.46-.93-.14-.54-.14-1.2-.14-1.2v-3.1zm7.79 5.87zm.37-7.64h2.25l.74 3.54c.09.57.16 1.12.16 1.12.08.55.17 1.14.17 1.14h.06c.11-.59.21-1.16.21-1.16.1-.57.24-1.11.24-1.11l.85-3.54h1.96l.87 3.54c.14.57.24 1.12.24 1.12l.23 1.14h.07c.11-.59.18-1.14.18-1.14.07-.56.18-1.13.18-1.13l.72-3.54h2.1l-1.83 7.64H491l-.693-3.05c-.122-.54-.215-1.08-.215-1.08-.092-.54-.2-1.16-.2-1.16h-.062c-.107.61-.192 1.15-.192 1.15-.084.54-.192 1.08-.192 1.08l-.677 3.05h-2.59zm11.58 7.64zm2.1-8.76c-.57 0-.94-.34-.94-.34-.37-.33-.37-.86-.37-.86 0-.52.37-.85.37-.85.37-.33.94-.33.94-.33.59 0 .95.32.95.32.37.32.37.85.37.85 0 .52-.36.85-.36.85-.36.33-.94.33-.94.33zm0 0zm-1.12 1.12h2.27v7.64h-2.26V6.46zm3.25 7.64zm1.31-5.87h-1.05V6.55l1.17-.092.27-2.033h1.88v2.03h1.84v1.77h-1.83v3.07c0 .646.27.93.27.93.27.285.72.285.72.285.18 0 .38-.046.38-.046.19-.05.34-.11.34-.11l.35 1.65c-.31.09-.72.18-.72.18-.42.09-.97.09-.97.09-.71 0-1.21-.22-1.21-.22-.5-.22-.81-.6-.81-.6-.31-.39-.46-.936-.46-.936-.14-.544-.14-1.206-.14-1.206V8.23zM506 14.1zm1-10.798h2.265v2.65l-.11 1.37c.43-.386 1-.717 1-.717.57-.332 1.355-.332 1.355-.332 1.245 0 1.81.816 1.81.816.56.82.56 2.27.56 2.27v4.74h-2.266V9.65c0-.834-.223-1.14-.223-1.14-.22-.31-.71-.31-.71-.31-.43 0-.74.193-.74.193-.3.192-.67.547-.67.547v5.16H507V3.305zm11 10.796zm1.31-5.87h-1.048V6.55l1.17-.09.262-2.033h1.88V6.46h1.83v1.77h-1.83v3.07c0 .646.262.93.262.93.27.285.716.285.716.285.184 0 .377-.046.377-.046.19-.05.34-.11.34-.11l.35 1.65c-.31.09-.73.18-.73.18-.42.09-.97.09-.97.09-.71 0-1.21-.22-1.21-.22-.5-.22-.82-.6-.82-.6-.32-.39-.46-.94-.46-.94-.15-.55-.15-1.21-.15-1.21V8.23zm4.59 5.87zm1-10.797h2.263v2.65l-.108 1.37c.43-.38 1-.71 1-.71.57-.33 1.354-.33 1.354-.33 1.24 0 1.81.82 1.81.82.56.82.56 2.27.56 2.27v4.74h-2.27V9.65c0-.834-.23-1.14-.23-1.14-.22-.31-.71-.31-.71-.31-.43 0-.74.193-.74.193-.31.192-.68.547-.68.547v5.16h-2.26V3.305zm7.792 10.8zm.554-3.82c0-.92.31-1.67.31-1.67.31-.75.81-1.26.81-1.26.5-.51 1.15-.79 1.15-.79.648-.27 1.34-.27 1.34-.27.817 0 1.425.28 1.425.28.61.28 1.02.77 1.02.77.41.5.61 1.17.61 1.17.2.67.2 1.46.2 1.46 0 .31-.03.56-.03.56-.03.26-.06.39-.06.39h-4.57c.16.88.69 1.27.69 1.27.53.4 1.3.4 1.3.4.82 0 1.65-.5 1.65-.5l.76 1.37c-.58.4-1.3.64-1.3.64-.72.23-1.41.23-1.41.23-.82 0-1.52-.27-1.52-.27-.71-.27-1.23-.79-1.23-.79-.52-.51-.81-1.25-.81-1.25-.29-.74-.29-1.7-.29-1.7zm0 0zm4.93-.78c0-.66-.29-1.07-.29-1.07-.293-.41-.99-.41-.99-.41-.54 0-.943.36-.943.36-.408.37-.53 1.14-.53 1.14h2.755zm5.7 4.61zm1.188-10.04h2.263v3.86h3.467V4.06h2.28v10.042h-2.28v-4.19h-3.464v4.19h-2.264V4.062zm9.193 10.04zm.726-2.12c0-1.2 1.017-1.88 1.017-1.88 1.017-.67 3.28-.9 3.28-.9-.03-.51-.307-.81-.307-.81-.278-.3-.894-.3-.894-.3-.5 0-.99.19-.99.19-.5.19-1.05.51-1.05.51l-.8-1.49c.73-.44 1.54-.72 1.54-.72.81-.27 1.71-.27 1.71-.27 1.47 0 2.25.84 2.25.84.78.84.78 2.61.78 2.61v4.37h-1.85l-.17-.78h-.05c-.5.43-1.04.7-1.04.7-.55.27-1.2.27-1.2.27-.53 0-.94-.17-.94-.17-.42-.18-.71-.49-.71-.49-.29-.32-.46-.73-.46-.73-.17-.41-.17-.91-.17-.91zm0 0zm2.157-.17c0 .37.24.55.24.55.238.18.638.18.638.18.4 0 .68-.17.68-.17.277-.17.585-.48.585-.48v-1.34c-1.215.17-1.68.49-1.68.49-.46.33-.46.77-.46.77zm5.344 2.3zm1.34-2.29c.525.4 1 .6 1 .6.48.2.97.2.97.2.51 0 .74-.17.74-.17.23-.17.23-.48.23-.48 0-.19-.13-.33-.13-.33-.13-.15-.353-.27-.353-.27-.22-.13-.5-.23-.5-.23-.27-.1-.57-.22-.57-.22-.35-.14-.7-.32-.7-.32-.35-.18-.65-.45-.65-.45-.29-.27-.48-.63-.48-.63-.18-.36-.18-.84-.18-.84 0-.52.21-.97.21-.97.21-.44.6-.75.6-.75.39-.3.93-.48.93-.48.54-.17 1.21-.17 1.21-.17.88 0 1.54.3 1.54.3.66.3 1.16.67 1.16.67l-1.02 1.36c-.42-.3-.82-.47-.82-.47-.4-.17-.8-.17-.8-.17-.86 0-.86.6-.86.6 0 .19.13.32.13.32.13.13.33.24.33.24.21.11.48.21.48.21l.57.21c.37.14.73.32.73.32.36.18.66.44.66.44.3.26.49.64.49.64.19.38.19.9.19.9 0 .52-.2.97-.2.97-.2.45-.6.78-.6.78-.4.33-.98.53-.98.53-.59.19-1.36.19-1.36.19-.75 0-1.55-.29-1.55-.29-.79-.29-1.38-.77-1.38-.77zm5.483 2.3zm1-10.8h2.202V9.5h.06l2.41-3.034h2.46l-2.68 3.148 2.88 4.498h-2.45l-1.73-2.972-.97 1.094v1.88h-2.2V3.31zm7 10.8zm.554-3.82c0-.92.31-1.67.31-1.67.31-.75.81-1.26.81-1.26.5-.52 1.15-.79 1.15-.79.65-.28 1.34-.28 1.34-.28.82 0 1.43.28 1.43.28.61.28 1.02.77 1.02.77.4.49.6 1.16.6 1.16.2.67.2 1.46.2 1.46 0 .31-.03.57-.03.57-.03.26-.06.4-.06.4h-4.57c.16.88.69 1.27.69 1.27.53.39 1.3.39 1.3.39.82 0 1.65-.51 1.65-.51l.76 1.37c-.58.4-1.3.64-1.3.64-.72.23-1.41.23-1.41.23-.82 0-1.52-.27-1.52-.27-.71-.27-1.23-.78-1.23-.78-.53-.51-.82-1.25-.82-1.25-.29-.74-.29-1.69-.29-1.69zm0 0zm4.93-.78c0-.66-.29-1.08-.29-1.08-.29-.42-.99-.42-.99-.42-.54 0-.94.36-.94.36-.41.37-.53 1.14-.53 1.14h2.76zm2.5 4.61zm1-10.79h2.27v8.52c0 .35.13.49.13.49.13.14.27.14.27.14h.13l.15-.03.28 1.68c-.18.08-.47.13-.47.13-.28.06-.67.06-.67.06-.58 0-.98-.18-.98-.18-.4-.18-.64-.51-.64-.51-.24-.33-.35-.8-.35-.8-.1-.47-.1-1.05-.1-1.05V3.31zm3.4 10.79zm1-10.79h2.27v8.52c0 .36.13.49.13.49.13.14.27.14.27.14h.13l.15-.03.28 1.68c-.18.08-.47.13-.47.13-.28.06-.67.06-.67.06-.58 0-.98-.18-.98-.18-.4-.18-.64-.51-.64-.51-.24-.33-.34-.8-.34-.8-.11-.47-.11-1.06-.11-1.06V3.31zm6.6 10.8zm.56-3.82c0-.95.33-1.7.33-1.7.33-.75.87-1.26.87-1.26.55-.51 1.27-.78 1.27-.78.73-.27 1.51-.27 1.51-.27.71 0 1.28.24 1.28.24.57.24.96.64.96.64l-1.03 1.4c-.54-.44-1.06-.44-1.06-.44-.83 0-1.31.58-1.31.58-.48.58-.48 1.58-.48 1.58 0 1 .48 1.59.48 1.59.48.59 1.22.59 1.22.59.41 0 .75-.17.75-.17.34-.17.62-.38.62-.38l.91 1.43c-.55.5-1.23.73-1.23.73-.68.23-1.31.23-1.31.23-.8 0-1.48-.27-1.48-.27-.69-.27-1.2-.78-1.2-.78-.5-.51-.8-1.26-.8-1.26-.29-.74-.29-1.7-.29-1.7zm6.21 3.82zm.56-3.82c0-.95.31-1.7.31-1.7.31-.75.83-1.26.83-1.26.52-.51 1.2-.78 1.2-.78.68-.27 1.4-.27 1.4-.27.73 0 1.4.27 1.4.27.67.27 1.19.78 1.19.78.52.51.83 1.26.83 1.26.31.74.31 1.7.31 1.7 0 .95-.3 1.7-.3 1.7-.31.74-.82 1.25-.82 1.25-.51.5-1.18.77-1.18.77-.67.27-1.4.27-1.4.27-.72 0-1.4-.27-1.4-.27-.68-.27-1.19-.77-1.19-.77-.51-.51-.82-1.26-.82-1.26-.31-.74-.31-1.7-.31-1.7zm0 0zm2.33 0c0 1 .35 1.59.35 1.59.35.59 1.06.59 1.06.59.7 0 1.05-.58 1.05-.58.36-.59.36-1.59.36-1.59 0-1-.35-1.58-.35-1.58-.35-.59-1.05-.59-1.05-.59-.71 0-1.05.58-1.05.58-.34.58-.34 1.58-.34 1.58zm5.67 3.82zm1-7.64h1.85l.16.99h.07c.48-.48 1.02-.82 1.02-.82.54-.35 1.29-.35 1.29-.35.82 0 1.32.33 1.32.33.5.33.79.95.79.95.51-.52 1.07-.9 1.07-.9.56-.37 1.33-.37 1.33-.37 1.23 0 1.81.82 1.81.82.57.82.57 2.25.57 2.25v4.75h-2.26v-4.5c0-.83-.22-1.14-.22-1.14-.22-.31-.72-.31-.72-.31-.57 0-1.31.74-1.31.74v5.16h-2.26V9.65c0-.834-.22-1.14-.22-1.14-.22-.31-.71-.31-.71-.31-.59 0-1.3.74-1.3.74v5.16h-2.26V6.46zm12.2 7.64zm1-7.64h1.85l.16.99h.06c.48-.48 1.01-.82 1.01-.82.54-.34 1.29-.34 1.29-.34.81 0 1.32.33 1.32.33.5.33.8.95.8.95.51-.52 1.07-.9 1.07-.9.56-.38 1.33-.38 1.33-.38 1.24 0 1.81.82 1.81.82.58.82.58 2.25.58 2.25v4.75h-2.26v-4.5c0-.83-.22-1.14-.22-1.14-.22-.31-.71-.31-.71-.31-.57 0-1.31.74-1.31.74v5.16h-2.26V9.65c0-.834-.22-1.14-.22-1.14-.22-.31-.71-.31-.71-.31-.58 0-1.29.74-1.29.74v5.16h-2.26V6.46zm12.2 7.64zm.93-7.64h2.27v4.45c0 .83.23 1.14.23 1.14.23.31.73.31.73.31.43 0 .73-.2.73-.2.3-.2.64-.65.64-.65v-5.1h2.27v7.64h-1.85l-.17-1.06h-.05c-.49.59-1.05.92-1.05.92-.56.33-1.35.33-1.35.33-1.25 0-1.81-.81-1.81-.81-.56-.81-.56-2.26-.56-2.26V6.47zm7.82 7.64zm1-7.64h1.85l.16.97h.06c.5-.46 1.08-.81 1.08-.81.59-.35 1.37-.35 1.37-.35 1.25 0 1.81.82 1.81.82.56.82.56 2.27.56 2.27v4.74h-2.26v-4.5c0-.83-.22-1.14-.22-1.14-.22-.31-.71-.31-.71-.31-.43 0-.74.2-.74.2-.31.19-.68.55-.68.55v5.16h-2.26V6.46zm7.81 7.64zm2.13-8.76c-.57 0-.94-.33-.94-.33-.37-.33-.37-.85-.37-.85 0-.52.37-.84.37-.84.37-.32.94-.32.94-.32.59 0 .95.33.95.33.36.32.36.84.36.84 0 .53-.36.86-.36.86-.36.33-.95.33-.95.33zm0 0zm-1.13 1.12h2.27v7.64h-2.26V6.46zm3.25 7.64zm1.31-5.87h-1.04v-1.7l1.17-.09.27-2.03h1.88V6.5h1.83v1.77h-1.83v3.06c0 .65.27.93.27.93.27.29.72.29.72.29.19 0 .38-.04.38-.04.2-.05.35-.11.35-.11l.36 1.65c-.31.09-.72.18-.72.18-.41.09-.97.09-.97.09-.71 0-1.21-.21-1.21-.21-.5-.21-.81-.6-.81-.6-.31-.38-.46-.93-.46-.93-.14-.546-.14-1.21-.14-1.21v-3.1zm4.59 5.87zm1.17 1.11c.11.03.25.06.25.06.14.03.26.03.26.03.57 0 .88-.28.88-.28.31-.28.46-.73.46-.73l.11-.4-2.94-7.44h2.28l1.1 3.28c.17.52.31 1.06.31 1.06.14.54.29 1.11.29 1.11h.06l.26-1.09c.13-.54.27-1.08.27-1.08l.92-3.28h2.17l-2.65 7.71c-.27.72-.58 1.27-.58 1.27-.3.55-.69.91-.69.91-.39.36-.89.55-.89.55-.5.19-1.18.19-1.18.19-.35 0-.6-.04-.6-.04-.25-.04-.48-.11-.48-.11l.4-1.73zm6.86-1.11zm2.38-3.56c-.07-.53.04-.96.04-.96.12-.43.33-.8.33-.8.22-.37.49-.68.49-.68l.52-.59c.25-.29.41-.56.41-.56.17-.27.17-.56.17-.56 0-.47-.28-.72-.28-.72-.28-.24-.74-.24-.74-.24-.43 0-.76.2-.76.2-.33.2-.64.51-.64.51l-1.3-1.15c.52-.63 1.23-1.01 1.23-1.01.71-.38 1.57-.38 1.57-.38.65 0 1.21.15 1.21.15.56.15.97.47.97.47.41.32.64.82.64.82.23.5.23 1.18.23 1.18 0 .47-.17.85-.17.85-.17.37-.42.7-.42.7-.25.32-.54.62-.54.62-.28.3-.52.62-.52.62-.24.32-.38.68-.38.68-.14.36-.09.82-.09.82h-1.99zm0 0zm-.37 2.32c0-.62.39-1.03.39-1.03.38-.41.97-.41.97-.41.58 0 .98.41.98.41.4.41.4 1.03.4 1.03 0 .6-.39 1.01-.39 1.01-.39.41-.98.41-.98.41-.58 0-.97-.41-.97-.41-.38-.4-.38-1-.38-1z"/><path fill="none" stroke="#D3D3D3" stroke-miterlimit="10" d="M39.59 738h954.804M39.59 562.25h954.804M39.59 386.5h954.804M39.59 210.75h954.804M39.59 35h954.804" stroke-dasharray="5 5"/><g fill="#5C3566" stroke-opacity="0" stroke-width="0" stroke-miterlimit="10" stroke-linejoin="bevel"><defs><clipPath id="a"><path d="M39.59 35v703h954.804V35z"/></clipPath></defs><g clip-path="url(#a)"><path stroke="none" d="M54.59 738V169.976h106.4V738z"/></g></g><g fill-opacity="0" stroke-miterlimit="10"><defs><clipPath id="b"><path d="M39.59 35v703h954.804V35z"/></clipPath></defs><g clip-path="url(#b)"><path fill="none" d="M54.59 738V169.976h106.4V738z"/></g></g><g fill="#5C3566" stroke-opacity="0" stroke-width="0" stroke-miterlimit="10" stroke-linejoin="bevel"><defs><clipPath id="c"><path d="M39.59 35v703h954.804V35z"/></clipPath></defs><g clip-path="url(#c)"><path stroke="none" d="M190.99 738V432.898h106.4V738z"/></g></g><g fill-opacity="0" stroke-miterlimit="10"><defs><clipPath id="d"><path d="M39.59 35v703h954.804V35z"/></clipPath></defs><g clip-path="url(#d)"><path fill="none" d="M190.99 738V432.898h106.4V738z"/></g></g><g fill="#5C3566" stroke-opacity="0" stroke-width="0" stroke-miterlimit="10" stroke-linejoin="bevel"><defs><clipPath id="e"><path d="M39.59 35v703h954.804V35z"/></clipPath></defs><g clip-path="url(#e)"><path stroke="none" d="M327.39 738V434.304h106.402V738z"/></g></g><g fill-opacity="0" stroke-miterlimit="10"><defs><clipPath id="f"><path d="M39.59 35v703h954.804V35z"/></clipPath></defs><g clip-path="url(#f)"><path fill="none" d="M327.39 738V434.304h106.402V738z"/></g></g><g fill="#5C3566" stroke-opacity="0" stroke-width="0" stroke-miterlimit="10" stroke-linejoin="bevel"><defs><clipPath id="g"><path d="M39.59 35v703h954.804V35z"/></clipPath></defs><g clip-path="url(#g)"><path stroke="none" d="M463.792 738V458.206h106.4V738z"/></g></g><g fill-opacity="0" stroke-miterlimit="10"><defs><clipPath id="h"><path d="M39.59 35v703h954.804V35z"/></clipPath></defs><g clip-path="url(#h)"><path fill="none" d="M463.792 738V458.206h106.4V738z"/></g></g><g fill="#5C3566" stroke-opacity="0" stroke-width="0" stroke-miterlimit="10" stroke-linejoin="bevel"><defs><clipPath id="i"><path d="M39.59 35v703h954.804V35z"/></clipPath></defs><g clip-path="url(#i)"><path stroke="none" d="M600.192 738V466.642h106.4V738z"/></g></g><g fill-opacity="0" stroke-miterlimit="10"><defs><clipPath id="j"><path d="M39.59 35v703h954.804V35z"/></clipPath></defs><g clip-path="url(#j)"><path fill="none" d="M600.192 738V466.642h106.4V738z"/></g></g><g fill="#5C3566" stroke-opacity="0" stroke-width="0" stroke-miterlimit="10" stroke-linejoin="bevel"><defs><clipPath id="k"><path d="M39.59 35v703h954.804V35z"/></clipPath></defs><g clip-path="url(#k)"><path stroke="none" d="M736.593 738V595.994h106.4V738z"/></g></g><g fill-opacity="0" stroke-miterlimit="10"><defs><clipPath id="l"><path d="M39.59 35v703h954.804V35z"/></clipPath></defs><g clip-path="url(#l)"><path fill="none" d="M736.593 738V595.994h106.4V738z"/></g></g><g fill="#5C3566" stroke-opacity="0" stroke-width="0" stroke-miterlimit="10" stroke-linejoin="bevel"><defs><clipPath id="m"><path d="M39.59 35v703h954.804V35z"/></clipPath></defs><g clip-path="url(#m)"><path stroke="none" d="M872.993 738v-69.597h106.4V738z"/></g></g><g fill-opacity="0" stroke-miterlimit="10"><defs><clipPath id="n"><path d="M39.59 35v703h954.804V35z"/></clipPath></defs><g clip-path="url(#n)"><path fill="none" d="M872.993 738v-69.597h106.4V738z"/></g></g><path fill="none" stroke-miterlimit="10" d="M39.59 738V35" stroke-linecap="square"/><path fill="none" stroke-miterlimit="10" d="M39.59 738h2m-2-70.3h2m-2-70.3h2m-2-70.3h2m-2-70.3h2m-2-70.3h2m-2-70.3h2m-2-70.3h2m-2-70.3h2m-2-70.3h2m-2-70.3h2m-2 703h5m-5-175.75h5m-5-175.75h5m-5-175.75h5M39.59 35h5"/><path stroke="none" d="M25.294 741.445zm2.616.126c-1.02 0-1.586-.9-1.586-.9-.568-.9-.568-2.59-.568-2.59 0-1.69.568-2.57.568-2.57.567-.88 1.586-.88 1.586-.88 1.008 0 1.575.88 1.575.88.568.89.568 2.58.568 2.58 0 1.69-.568 2.6-.568 2.6-.567.91-1.575.91-1.575.91zm0 0zm0-.69c.294 0 .53-.16.53-.16.236-.16.41-.5.41-.5.173-.34.268-.87.268-.87.094-.53.094-1.26.094-1.26 0-.73-.094-1.26-.094-1.26-.095-.52-.268-.85-.268-.85-.173-.33-.41-.49-.41-.49-.236-.16-.53-.16-.53-.16-.294 0-.536.16-.536.16-.242.16-.415.49-.415.49-.18.33-.27.86-.27.86-.1.53-.1 1.26-.1 1.26 0 1.47.36 2.14.36 2.14.36.67.95.67.95.67zM14.77 565.7zm.42-.514c.755-.754 1.344-1.363 1.344-1.363.588-.61.987-1.13.987-1.13.4-.52.61-.955.61-.955.21-.434.21-.844.21-.844 0-.576-.31-.944-.31-.944-.31-.37-.95-.37-.95-.37-.42 0-.77.24-.77.24-.35.235-.65.57-.65.57l-.49-.492c.42-.462.9-.74.9-.74.48-.28 1.14-.28 1.14-.28.94 0 1.47.543 1.47.543.54.54.54 1.44.54 1.44 0 .47-.2.95-.2.95-.2.48-.57.99-.57.99-.36.51-.86 1.06-.86 1.06-.5.56-1.09 1.18-1.09 1.18l.57-.04c.3-.02.56-.02.56-.02h1.95v.75H15.2v-.51zm4.8.517zm.682-1.355c.294.307.7.538.7.538.403.23.99.23.99.23.306 0 .574-.11.574-.11.268-.11.467-.31.467-.31.2-.2.315-.482.315-.482.116-.283.116-.63.116-.63 0-.693-.39-1.082-.39-1.082-.387-.387-1.04-.387-1.04-.387-.345 0-.592.106-.592.106-.247.11-.552.31-.552.31l-.462-.29.22-3.22h3.352v.75h-2.595l-.18 1.99c.243-.12.485-.2.485-.2.24-.07.546-.07.546-.07.43 0 .81.13.81.13.377.13.66.39.66.39.284.26.447.65.447.65.163.4.163.94.163.94 0 .55-.19.97-.19.97-.19.42-.504.71-.504.71-.315.29-.72.44-.72.44-.404.15-.845.15-.845.15-.4 0-.73-.08-.73-.08-.33-.08-.598-.2-.598-.2-.27-.12-.49-.29-.49-.29-.22-.16-.39-.34-.39-.34zm4.538 1.357zm2.616.127c-1.02 0-1.586-.903-1.586-.903-.568-.91-.568-2.6-.568-2.6 0-1.69.567-2.58.567-2.58.56-.88 1.58-.88 1.58-.88 1.01 0 1.57.88 1.57.88.56.88.56 2.57.56 2.57 0 1.69-.57 2.59-.57 2.59-.57.9-1.58.9-1.58.9zm0 0zm0-.693c.294 0 .53-.17.53-.17.236-.16.41-.51.41-.51.173-.34.268-.87.268-.87.094-.53.094-1.27.094-1.27 0-.74-.094-1.26-.094-1.26-.095-.53-.268-.86-.268-.86-.173-.33-.41-.49-.41-.49-.236-.16-.53-.16-.53-.16-.294 0-.536.16-.536.16-.242.15-.415.48-.415.48-.173.33-.268.85-.268.85-.094.52-.094 1.26-.094 1.26 0 1.47.362 2.13.362 2.13.362.67.95.67.95.67zM14.653 389.95zm.683-1.355c.294.308.7.54.7.54.403.23.99.23.99.23.306 0 .574-.11.574-.11.268-.11.467-.31.467-.31.2-.2.315-.483.315-.483.116-.284.116-.63.116-.63 0-.694-.39-1.082-.39-1.082-.388-.39-1.04-.39-1.04-.39-.345 0-.592.106-.592.106-.247.105-.552.304-.552.304l-.462-.294.22-3.226h3.35v.745H16.44l-.18 1.98c.242-.126.483-.2.483-.2.242-.072.547-.072.547-.072.43 0 .808.127.808.127.38.126.662.383.662.383.284.257.447.65.447.65.162.395.162.94.162.94 0 .548-.19.968-.19.968-.19.42-.51.71-.51.71-.32.29-.72.44-.72.44-.41.16-.85.16-.85.16-.4 0-.73-.08-.73-.08-.33-.08-.6-.2-.6-.2-.27-.12-.48-.29-.48-.29-.22-.16-.39-.34-.39-.34zm4.538 1.358zm2.616.127c-1.02 0-1.587-.9-1.587-.9-.567-.903-.567-2.595-.567-2.595 0-1.69.567-2.574.567-2.574.568-.88 1.586-.88 1.586-.88 1 0 1.57.88 1.57.88.56.89.56 2.58.56 2.58 0 1.69-.57 2.6-.57 2.6-.57.91-1.58.91-1.58.91zm0 0zm0-.69c.294 0 .53-.163.53-.163.236-.162.41-.504.41-.504.173-.34.268-.87.268-.87.094-.53.094-1.266.094-1.266 0-.738-.094-1.26-.094-1.26-.095-.528-.268-.86-.268-.86-.174-.33-.41-.49-.41-.49-.236-.16-.53-.16-.53-.16-.295 0-.536.16-.536.16-.242.158-.415.49-.415.49-.18.33-.27.855-.27.855-.1.524-.1 1.26-.1 1.26 0 1.47.36 2.137.36 2.137.36.66.95.66.95.66zm2.605.567zm2.615.126c-1.02 0-1.586-.902-1.586-.902-.567-.9-.567-2.59-.567-2.59 0-1.69.567-2.57.567-2.57.567-.88 1.586-.88 1.586-.88 1.01 0 1.576.89 1.576.89.567.88.567 2.58.567 2.58 0 1.69-.567 2.6-.567 2.6-.567.91-1.576.91-1.576.91zm0 0zm0-.692c.294 0 .53-.16.53-.16.237-.16.41-.5.41-.5.174-.34.268-.87.268-.87.095-.53.095-1.26.095-1.26 0-.73-.095-1.26-.095-1.26-.094-.52-.268-.85-.268-.85-.173-.33-.41-.48-.41-.48-.236-.16-.53-.16-.53-.16-.294 0-.536.16-.536.16-.24.16-.414.49-.414.49-.174.33-.268.86-.268.86-.095.53-.095 1.26-.095 1.26 0 1.47.363 2.14.363 2.14.362.67.95.67.95.67zM14.853 214.2zm1.86 0c.04-.945.167-1.733.167-1.733.126-.788.352-1.497.352-1.497.226-.71.578-1.37.578-1.37.352-.662.846-1.355.846-1.355h-3.34v-.74h4.316v.534c-.598.75-.97 1.45-.97 1.45-.374.69-.595 1.41-.595 1.41-.22.72-.32 1.52-.32 1.52-.1.8-.142 1.78-.142 1.78h-.893zm3.36 0zm.683-1.355c.294.31.7.54.7.54.403.23.99.23.99.23.306 0 .574-.11.574-.11.268-.11.467-.31.467-.31.2-.2.315-.48.315-.48.116-.285.116-.63.116-.63 0-.695-.39-1.084-.39-1.084-.387-.38-1.04-.38-1.04-.38-.345 0-.592.11-.592.11-.247.11-.552.31-.552.31l-.462-.29.22-3.22h3.352v.74H21.86l-.18 1.99c.242-.12.484-.2.484-.2.24-.07.546-.07.546-.07.43 0 .81.13.81.13.377.13.66.38.66.38.284.26.447.66.447.66.163.39.163.94.163.94 0 .55-.19.97-.19.97-.19.42-.504.71-.504.71-.315.29-.72.44-.72.44-.404.16-.845.16-.845.16-.39 0-.73-.07-.73-.07-.33-.08-.59-.2-.59-.2-.27-.13-.48-.29-.48-.29-.21-.16-.38-.34-.38-.34zm4.538 1.36zm2.616.126c-1.02 0-1.586-.9-1.586-.9-.568-.9-.568-2.59-.568-2.59 0-1.69.568-2.57.568-2.57.567-.88 1.586-.88 1.586-.88 1.008 0 1.575.88 1.575.88.568.89.568 2.58.568 2.58 0 1.69-.568 2.6-.568 2.6-.567.91-1.575.91-1.575.91zm0 0zm0-.69c.294 0 .53-.16.53-.16.236-.16.41-.5.41-.5.173-.34.268-.87.268-.87.094-.53.094-1.26.094-1.26 0-.74-.094-1.26-.094-1.26-.095-.53-.268-.86-.268-.86-.173-.33-.41-.49-.41-.49-.236-.16-.53-.16-.53-.16-.294 0-.536.16-.536.16-.242.16-.415.49-.415.49-.18.33-.27.86-.27.86-.1.53-.1 1.26-.1 1.26 0 1.47.36 2.14.36 2.14.36.67.95.67.95.67zM10 38.45zm.83-.715h1.533V32.8h-1.218v-.557c.462-.084.804-.204.804-.204.34-.12.61-.29.61-.29h.66v5.98h1.38v.71h-3.78v-.72zm4.39.72zm2.616.13c-1.02 0-1.586-.902-1.586-.902-.567-.9-.567-2.593-.567-2.593 0-1.69.567-2.573.567-2.573.567-.882 1.586-.882 1.586-.882 1.01 0 1.576.884 1.576.884.567.88.567 2.57.567 2.57 0 1.69-.57 2.59-.57 2.59-.57.9-1.58.9-1.58.9zm0 0zm0-.692c.294 0 .53-.16.53-.16.237-.16.41-.504.41-.504.174-.34.268-.87.268-.87.095-.53.095-1.27.095-1.27 0-.74-.1-1.26-.1-1.26-.1-.53-.27-.86-.27-.86-.18-.33-.41-.49-.41-.49-.24-.16-.53-.16-.53-.16-.3 0-.54.16-.54.16-.24.15-.42.48-.42.48-.18.33-.27.85-.27.85-.1.53-.1 1.26-.1 1.26 0 1.47.36 2.14.36 2.14.36.67.95.67.95.67zm2.605.57zm2.62.126c-1.02 0-1.58-.91-1.58-.91-.56-.9-.56-2.59-.56-2.59 0-1.69.57-2.57.57-2.57.57-.88 1.59-.88 1.59-.88 1.01 0 1.58.88 1.58.88.57.88.57 2.57.57 2.57 0 1.69-.56 2.59-.56 2.59-.57.9-1.58.9-1.58.9zm0 0zm0-.7c.3 0 .53-.16.53-.16.24-.16.41-.51.41-.51.18-.34.27-.87.27-.87.1-.53.1-1.27.1-1.27 0-.74-.09-1.26-.09-1.26-.09-.53-.27-.86-.27-.86-.17-.33-.41-.49-.41-.49-.23-.16-.53-.16-.53-.16-.29 0-.53.16-.53.16-.24.15-.41.48-.41.48-.17.33-.27.85-.27.85-.09.52-.09 1.26-.09 1.26 0 1.47.36 2.14.36 2.14.36.66.95.66.95.66zm2.61.57zm2.62.12c-1.02 0-1.58-.91-1.58-.91-.56-.91-.56-2.6-.56-2.6 0-1.69.57-2.58.57-2.58.57-.89 1.59-.89 1.59-.89 1.01 0 1.58.88 1.58.88.57.88.57 2.57.57 2.57 0 1.69-.57 2.59-.57 2.59-.56.9-1.57.9-1.57.9zm0 0zm0-.7c.3 0 .53-.17.53-.17.24-.16.41-.5.41-.5.18-.34.27-.87.27-.87.1-.53.1-1.27.1-1.27 0-.74-.09-1.26-.09-1.26-.09-.53-.26-.86-.26-.86-.17-.33-.41-.49-.41-.49-.23-.16-.53-.16-.53-.16-.29 0-.53.16-.53.16-.24.15-.41.48-.41.48-.17.33-.27.86-.27.86-.1.53-.1 1.26-.1 1.26 0 1.47.36 2.14.36 2.14.36.67.95.67.95.67z"/><path fill="none" stroke-miterlimit="10" d="M39.59 738h954.804" stroke-linecap="square"/><path stroke="none" d="M83.778 758zm1.817-3.624h1.156c.81 0 1.24-.33 1.24-.33.43-.332.43-1.004.43-1.004 0-.683-.43-.956-.43-.956-.43-.273-1.24-.273-1.24-.273H85.6v2.563zm0 0zm2.91 3.624l-1.66-2.91h-1.25V758h-.872v-6.89h2.154c.525 0 .97.1.97.1.448.1.768.33.768.33.32.23.5.6.5.6.178.366.178.902.178.902 0 .81-.42 1.292-.42 1.292-.42.483-1.124.662-1.124.662L89.49 758h-.987zm1.27 0zm.484-2.542c0-.63.19-1.13.19-1.13.19-.498.51-.845.51-.845.32-.346.73-.53.73-.53.41-.184.85-.184.85-.184.48 0 .87.16.87.16.38.17.64.48.64.48.26.31.39.75.39.75.13.44.13.98.13.98 0 .28-.03.47-.03.47H91.1c.05.83.51 1.31.51 1.31.456.48 1.19.48 1.19.48.37 0 .68-.11.68-.11.31-.11.59-.29.59-.29l.3.56c-.333.21-.743.37-.743.37-.41.16-.934.16-.934.16-.515 0-.96-.19-.96-.19-.447-.19-.778-.53-.778-.53-.33-.34-.52-.84-.52-.84-.19-.5-.19-1.13-.19-1.13zm0 0zm3.57-.39c0-.786-.33-1.2-.33-1.2-.33-.416-.93-.416-.93-.416-.28 0-.52.11-.52.11-.25.11-.45.315-.45.315-.2.205-.33.504-.33.504-.14.3-.18.69-.18.69h2.73zM94.98 758zm.494-2.542c0-.62.183-1.12.183-1.12.184-.498.49-.844.49-.844.303-.347.703-.536.703-.536.4-.19.84-.19.84-.19.44 0 .767.158.767.158.327.158.664.43.664.43l-.04-.87v-1.965h.87V758h-.71l-.07-.6h-.03c-.3.295-.7.51-.7.51-.4.216-.85.216-.85.216-.96 0-1.54-.693-1.54-.693-.57-.693-.57-1.975-.57-1.975zm0 0zm.892-.01c0 .924.367 1.44.367 1.44.37.513 1.04.513 1.04.513.36 0 .674-.17.674-.17.315-.17.63-.53.63-.53v-2.67c-.325-.29-.624-.41-.624-.41-.3-.12-.616-.12-.616-.12-.303 0-.57.14-.57.14-.268.15-.468.4-.468.4-.2.26-.32.62-.32.62-.12.36-.12.8-.12.8zM100.81 758zm.494-2.542c0-.62.182-1.12.182-1.12.183-.498.49-.844.49-.844.302-.347.7-.536.7-.536.4-.19.84-.19.84-.19.443 0 .77.158.77.158.324.158.66.43.66.43l-.04-.87v-1.965h.87V758h-.714l-.075-.6h-.03c-.306.295-.7.51-.7.51-.393.216-.845.216-.845.216-.964 0-1.536-.693-1.536-.693-.574-.693-.574-1.975-.574-1.975zm0 0zm.89-.01c0 .924.37 1.44.37 1.44.367.513 1.04.513 1.04.513.356 0 .67-.17.67-.17.316-.17.63-.53.63-.53v-2.67c-.324-.29-.623-.41-.623-.41-.3-.12-.61-.12-.61-.12-.3 0-.57.14-.57.14-.27.15-.47.4-.47.4-.2.26-.31.62-.31.62-.11.36-.11.8-.11.8zM106.64 758zm1.303-6.155c-.252 0-.425-.158-.425-.158-.174-.158-.174-.4-.174-.4 0-.25.172-.404.172-.404.173-.152.425-.152.425-.152.26 0 .43.16.43.16.17.16.17.41.17.41 0 .24-.17.4-.17.4-.17.16-.42.16-.42.16zm0 0zm-.44 1.05h.86V758h-.86v-5.105zM109.23 758zm1.008-4.4h-.756v-.653l.798-.052.105-1.43h.725v1.43h1.376v.704h-1.376v2.83c0 .47.173.73.173.73.174.25.615.25.615.25.136 0 .294-.04.294-.04.157-.05.283-.1.283-.1l.17.65c-.212.07-.458.13-.458.13-.247.05-.49.05-.49.05-.408 0-.687-.13-.687-.13-.278-.13-.45-.35-.45-.35-.175-.22-.248-.54-.248-.54-.074-.32-.074-.7-.074-.7v-2.82zm2.542 4.4zm.683-4.317c0-.305.184-.49.184-.49.184-.182.446-.182.446-.182.252 0 .436.19.436.19.18.19.18.49.18.49 0 .28-.19.47-.19.47-.19.19-.44.19-.44.19-.26 0-.45-.18-.45-.18-.19-.18-.19-.46-.19-.46zm0 0zm0 3.792c0-.305.184-.49.184-.49.184-.182.446-.182.446-.182.252 0 .436.183.436.183.18.184.18.49.18.49 0 .282-.19.466-.19.466-.19.184-.44.184-.44.184-.26 0-.45-.184-.45-.184-.19-.184-.19-.467-.19-.467zm4.055.525zm1.207-1.796c0 .283.11.515.11.515.11.23.305.4.305.4.195.17.457.27.457.27.263.09.567.09.567.09.59 0 .95-.33.95-.33.363-.33.363-.85.363-.85 0-.33-.147-.56-.147-.56-.147-.23-.4-.41-.4-.41-.25-.18-.582-.32-.582-.32-.33-.15-.688-.29-.688-.29-.4.27-.667.63-.667.63-.268.36-.268.82-.268.82zm0 0zm1.89-1.86c.337-.304.52-.64.52-.64.185-.336.185-.704.185-.704 0-.504-.305-.846-.305-.846-.304-.34-.86-.34-.86-.34-.474 0-.778.293-.778.293-.305.294-.305.788-.305.788 0 .304.126.52.126.52.126.215.342.383.342.383.215.168.493.3.493.3.28.13.583.246.583.246zm0 0zm-2.667 1.944c0-.326.11-.604.11-.604.11-.28.284-.504.284-.504.173-.226.4-.4.4-.4.225-.173.467-.3.467-.3v-.04c-.37-.264-.66-.637-.66-.637-.29-.372-.29-.908-.29-.908 0-.39.14-.704.14-.704.14-.31.4-.54.4-.54.25-.22.6-.35.6-.35.34-.12.75-.12.75-.12.44 0 .79.13.79.13.34.14.59.37.59.37.25.24.38.57.38.57.13.33.13.72.13.72 0 .26-.09.51-.09.51-.09.24-.22.45-.22.45-.13.21-.3.38-.3.38-.17.17-.32.28-.32.28v.04c.22.13.43.29.43.29.21.16.37.37.37.37.16.21.26.47.26.47.1.27.1.6.1.6 0 .38-.16.71-.16.71-.16.33-.44.57-.44.57-.29.25-.69.38-.69.38-.4.14-.89.14-.89.14-.48 0-.88-.14-.88-.14-.41-.13-.7-.38-.7-.38-.29-.24-.46-.58-.46-.58-.17-.33-.17-.73-.17-.73zm4.79 1.712zm2.616.126c-1.02 0-1.586-.903-1.586-.903-.568-.904-.568-2.595-.568-2.595 0-1.69.567-2.573.567-2.573.568-.883 1.587-.883 1.587-.883 1.008 0 1.575.883 1.575.883.56.882.56 2.573.56 2.573 0 1.69-.57 2.595-.57 2.595-.57.903-1.58.903-1.58.903zm0 0zm0-.693c.294 0 .53-.163.53-.163.236-.163.41-.504.41-.504.173-.342.268-.872.268-.872.094-.53.094-1.266.094-1.266 0-.735-.094-1.26-.094-1.26-.095-.525-.268-.856-.268-.856-.173-.33-.41-.49-.41-.49-.236-.156-.53-.156-.53-.156-.294 0-.536.157-.536.157-.242.158-.415.49-.415.49-.173.33-.268.855-.268.855-.094.525-.094 1.26-.094 1.26 0 1.47.37 2.138.37 2.138.36.667.95.667.95.667zm2.605.567zm1.2-1.796c0 .283.11.515.11.515.11.23.3.4.3.4.19.17.45.27.45.27.26.09.57.09.57.09.59 0 .95-.33.95-.33.36-.33.36-.85.36-.85 0-.33-.15-.56-.15-.56-.15-.23-.4-.41-.4-.41-.25-.18-.59-.32-.59-.32-.33-.15-.69-.29-.69-.29-.4.27-.67.63-.67.63-.27.36-.27.82-.27.82zm0 0zm1.89-1.86c.33-.304.52-.64.52-.64.18-.336.18-.704.18-.704 0-.504-.31-.846-.31-.846-.31-.34-.86-.34-.86-.34-.47 0-.78.293-.78.293-.31.294-.31.788-.31.788 0 .304.12.52.12.52.12.215.34.383.34.383.21.168.49.3.49.3.28.13.58.246.58.246zm0 0zm-2.67 1.944c0-.326.11-.604.11-.604.11-.28.28-.504.28-.504.17-.226.4-.4.4-.4.22-.173.46-.3.46-.3v-.04c-.37-.264-.65-.637-.65-.637-.29-.372-.29-.908-.29-.908 0-.39.14-.704.14-.704.14-.31.4-.54.4-.54.25-.22.59-.35.59-.35.34-.12.75-.12.75-.12.44 0 .78.13.78.13.35.14.59.37.59.37.24.24.37.57.37.57.13.33.13.72.13.72 0 .26-.09.51-.09.51-.09.24-.22.45-.22.45-.13.21-.3.38-.3.38-.16.17-.32.28-.32.28v.04c.22.13.43.29.43.29.21.16.37.37.37.37.16.21.26.47.26.47.1.27.1.6.1.6 0 .38-.16.71-.16.71-.16.33-.44.57-.44.57-.29.25-.68.38-.68.38-.4.14-.89.14-.89.14-.47 0-.88-.14-.88-.14-.41-.13-.7-.38-.7-.38-.29-.24-.46-.58-.46-.58-.16-.33-.16-.73-.16-.73zM218.66 758zm2.375-6.155h-2.08v-.736h5.042v.73h-2.08V758h-.882v-6.155zm2.9 6.155zm.25-5.105h.883l.756 2.952c.084.367.158.714.158.714.074.35.147.71.147.71h.04l.17-.71c.08-.35.17-.71.17-.71l.79-2.95h.84l.8 2.95.18.72c.09.35.17.71.17.71h.04c.08-.35.15-.7.15-.7l.16-.71.74-2.95h.82l-1.37 5.1h-1.05l-.74-2.74c-.1-.37-.18-.72-.18-.72-.08-.35-.18-.74-.18-.74h-.04l-.17.75c-.09.37-.19.73-.19.73l-.71 2.73h-1zm7.29 5.105zm1.303-6.155c-.252 0-.425-.158-.425-.158-.173-.158-.173-.4-.173-.4 0-.25.173-.404.173-.404.173-.152.425-.152.425-.152.252 0 .426.16.426.16.173.16.173.41.173.41 0 .24-.173.4-.173.4-.174.16-.426.16-.426.16zm0 0zm-.44 1.05h.86V758h-.86v-5.105zM234.06 758zm1.008-4.4h-.756v-.653l.798-.052.105-1.43h.725v1.43h1.376v.704h-1.376v2.83c0 .47.173.73.173.73.174.25.615.25.615.25.136 0 .294-.04.294-.04.157-.05.283-.1.283-.1l.17.65c-.212.07-.458.13-.458.13-.247.05-.49.05-.49.05-.408 0-.687-.13-.687-.13-.278-.13-.45-.35-.45-.35-.175-.22-.248-.54-.248-.54-.074-.32-.074-.7-.074-.7v-2.82zm2.542 4.4zm1.01-4.4h-.758v-.653l.8-.052.104-1.43h.724v1.43h1.376v.704h-1.376v2.83c0 .47.174.73.174.73.173.25.614.25.614.25.137 0 .294-.04.294-.04.158-.05.284-.1.284-.1l.168.65c-.21.07-.457.13-.457.13-.247.05-.488.05-.488.05-.41 0-.69-.13-.69-.13-.28-.13-.45-.35-.45-.35-.18-.22-.25-.54-.25-.54-.08-.32-.08-.7-.08-.7v-2.82zm2.436 4.4zm.483-2.542c0-.63.19-1.13.19-1.13.19-.498.51-.845.51-.845.32-.346.73-.53.73-.53.41-.184.85-.184.85-.184.48 0 .86.16.86.16.38.17.64.48.64.48.26.31.39.75.39.75.13.44.13.98.13.98 0 .28-.03.47-.03.47h-3.45c.05.83.51 1.31.51 1.31.45.48 1.19.48 1.19.48.37 0 .68-.11.68-.11.31-.11.59-.29.59-.29l.31.56c-.34.21-.75.37-.75.37-.41.16-.94.16-.94.16-.52 0-.96-.19-.96-.19-.45-.19-.78-.53-.78-.53-.33-.34-.52-.84-.52-.84-.19-.5-.19-1.13-.19-1.13zm0 0zm3.57-.39c0-.786-.33-1.2-.33-1.2-.34-.416-.93-.416-.93-.416-.28 0-.52.11-.52.11-.25.11-.45.315-.45.315-.2.205-.33.504-.33.504-.13.3-.18.69-.18.69h2.73zm1.15 2.932zm.86-5.105h.71l.07.924h.03c.26-.49.63-.77.63-.77.37-.29.81-.29.81-.29.3 0 .54.1.54.1l-.17.75-.23-.07c-.11-.02-.27-.02-.27-.02-.33 0-.68.26-.68.26-.35.26-.61.91-.61.91v3.3h-.86v-5.11zm2.79 5.105zm.68-4.317c0-.305.18-.49.18-.49.18-.182.44-.182.44-.182.25 0 .43.19.43.19.18.19.18.49.18.49 0 .28-.19.47-.19.47-.19.19-.44.19-.44.19-.26 0-.45-.18-.45-.18-.19-.18-.19-.46-.19-.46zm0 0zm0 3.792c0-.305.18-.49.18-.49.18-.182.44-.182.44-.182.25 0 .43.183.43.183.18.184.18.49.18.49 0 .282-.19.466-.19.466-.19.184-.44.184-.44.184-.26 0-.45-.184-.45-.184-.19-.184-.19-.467-.19-.467zm4.05.525zm3.19-2.542v-1.943c0-.273.02-.646.02-.646.01-.38.04-.65.04-.65h-.05c-.13.24-.27.47-.27.47l-.29.47-1.57 2.29h2.1zm0 0zm1.74.693h-.92V758h-.82v-1.85h-3.02v-.566l2.86-4.286h.96v4.16h.91v.693zm.29 1.85zm.71-1.38c.3.32.71.56.71.56.4.25 1 .25 1 .25.61 0 .99-.33.99-.33.39-.33.39-.9.39-.9 0-.29-.12-.54-.12-.54-.11-.24-.36-.42-.36-.42-.25-.18-.66-.27-.66-.27-.41-.09-1.01-.09-1.01-.09v-.66c.53 0 .9-.1.9-.1.36-.09.59-.26.59-.26.22-.17.32-.4.32-.4.09-.23.09-.49.09-.49 0-.5-.31-.78-.31-.78-.31-.28-.85-.28-.85-.28-.42 0-.78.19-.78.19-.35.19-.66.5-.66.5l-.47-.55c.39-.37.85-.61.85-.61.46-.24 1.06-.24 1.06-.24.44 0 .81.12.81.12.36.12.63.33.63.33.27.22.42.53.42.53.15.32.15.73.15.73 0 .61-.34 1-.34 1-.34.39-.89.6-.89.6v.04c.3.08.57.22.57.22.26.14.46.36.46.36.2.22.31.5.31.5.11.29.11.63.11.63 0 .44-.17.8-.17.8-.17.36-.47.61-.47.61-.3.25-.7.38-.7.38-.4.13-.87.13-.87.13-.4 0-.73-.08-.73-.08-.33-.08-.6-.21-.6-.21-.28-.13-.49-.3-.49-.3-.22-.16-.38-.35-.38-.35zm4.5 1.38zm3.19-2.54v-1.94c0-.27.01-.64.01-.64.01-.38.03-.65.03-.65h-.04c-.13.24-.27.47-.27.47-.13.23-.28.48-.28.48l-1.56 2.29h2.1zm0 0zm1.73.7h-.91V758h-.82v-1.85h-3.02v-.566l2.86-4.286h.96v4.16h.92v.693zm93.67 1.84zm.94-6.89h.87V758h-.88v-6.89zm1.81 6.89zm1.81-3.62h1.15c.81 0 1.24-.33 1.24-.33.43-.33.43-1 .43-1 0-.68-.43-.95-.43-.95-.43-.27-1.24-.27-1.24-.27h-1.16v2.57zm0 0zm2.91 3.63l-1.66-2.91h-1.25v2.9h-.88v-6.89h2.15c.52 0 .97.1.97.1.45.1.77.33.77.33.32.23.49.6.49.6.18.37.18.91.18.91 0 .81-.42 1.29-.42 1.29-.42.49-1.13.66-1.13.66l1.75 3.01h-.99zm1.37 0zm.54-3.44c0-.83.23-1.49.23-1.49.23-.66.64-1.12.64-1.12.41-.47.97-.71.97-.71.56-.25 1.22-.25 1.22-.25.63 0 1.1.26 1.1.26.47.25.78.59.78.59l-.5.55c-.27-.29-.6-.47-.6-.47-.33-.17-.77-.17-.77-.17-.5 0-.9.2-.9.2-.4.19-.68.56-.68.56-.28.37-.44.88-.44.88-.16.52-.16 1.16-.16 1.16 0 .65.15 1.17.15 1.17.15.52.42.89.42.89.27.37.67.57.67.57.39.2.89.2.89.2.5 0 .88-.2.88-.2.37-.2.71-.57.71-.57l.49.54c-.41.47-.93.74-.93.74-.52.26-1.18.26-1.18.26-.65 0-1.2-.24-1.2-.24-.55-.25-.96-.7-.96-.7-.41-.46-.63-1.13-.63-1.13-.23-.67-.23-1.51-.23-1.51zm5.46 3.45zm.68-4.31c0-.3.18-.49.18-.49.18-.18.44-.18.44-.18.26 0 .44.19.44.19.18.19.18.49.18.49 0 .28-.19.47-.19.47-.19.19-.44.19-.44.19-.27 0-.45-.18-.45-.18-.18-.18-.18-.46-.18-.46zm0 0zm0 3.79c0-.3.18-.49.18-.49.18-.18.44-.18.44-.18.26 0 .44.18.44.18.18.19.18.49.18.49 0 .29-.19.47-.19.47-.19.19-.44.19-.44.19-.27 0-.45-.18-.45-.18-.18-.18-.18-.46-.18-.46zm4.05.53zm3.19-2.54v-1.94c0-.27.01-.64.01-.64.01-.38.03-.65.03-.65h-.04c-.13.24-.26.47-.26.47l-.29.47-1.56 2.29h2.1zm0 0zm1.73.69h-.92V758h-.82v-1.85h-3.02v-.566l2.86-4.286h.97v4.16h.91v.693zm.29 1.85zm.71-1.38c.3.32.71.56.71.56.4.25 1 .25 1 .25.61 0 1-.33 1-.33.39-.33.39-.9.39-.9 0-.29-.11-.54-.11-.54-.11-.25-.37-.42-.37-.42-.25-.18-.66-.27-.66-.27-.41-.09-1.01-.09-1.01-.09v-.66c.53 0 .9-.1.9-.1.36-.09.58-.26.58-.26.22-.16.32-.4.32-.4.09-.23.09-.49.09-.49 0-.49-.31-.78-.31-.78-.31-.28-.85-.28-.85-.28-.42 0-.77.19-.77.19-.35.19-.65.5-.65.5l-.46-.55c.39-.37.85-.6.85-.6.47-.24 1.07-.24 1.07-.24.44 0 .81.12.81.12.37.11.64.33.64.33.27.21.41.53.41.53.14.31.14.72.14.72 0 .61-.34 1-.34 1-.34.39-.88.6-.88.6v.04c.3.08.56.22.56.22.26.14.46.35.46.35.2.21.31.5.31.5.11.28.11.63.11.63 0 .44-.17.8-.17.8-.17.36-.47.61-.47.61-.3.25-.7.38-.7.38-.4.13-.86.13-.86.13-.4 0-.73-.08-.73-.08-.33-.07-.6-.21-.6-.21-.27-.13-.49-.29-.49-.29-.21-.17-.38-.36-.38-.36zm4.51 1.38zm.42-.51c.76-.75 1.34-1.36 1.34-1.36.59-.61.99-1.13.99-1.13.4-.52.61-.95.61-.95.21-.43.21-.84.21-.84 0-.58-.32-.95-.32-.95-.32-.37-.96-.37-.96-.37-.42 0-.78.24-.78.24-.36.24-.65.57-.65.57l-.5-.49c.42-.46.89-.74.89-.74.47-.28 1.13-.28 1.13-.28.93 0 1.47.54 1.47.54.53.54.53 1.44.53 1.44 0 .48-.21.95-.21.95-.21.48-.57.99-.57.99-.36.51-.86 1.06-.86 1.06-.5.56-1.1 1.18-1.1 1.18l.56-.04c.29-.02.56-.02.56-.02h1.94v.75h-4.33v-.51zm106.8.52zm.97-1.5c.36.39.86.63.86.63.49.24 1.03.24 1.03.24.68 0 1.06-.31 1.06-.31.38-.31.38-.82.38-.82 0-.26-.09-.45-.09-.45-.09-.18-.24-.31-.24-.31-.15-.13-.36-.23-.36-.23l-.46-.22-.99-.43c-.24-.11-.5-.25-.5-.25-.25-.14-.45-.35-.45-.35-.2-.21-.33-.5-.33-.5-.13-.29-.13-.67-.13-.67 0-.39.16-.73.16-.73.17-.33.45-.58.45-.58.29-.24.69-.38.69-.38.4-.14.87-.14.87-.14.62 0 1.14.24 1.14.24.52.24.89.62.89.62l-.47.57c-.31-.31-.7-.48-.7-.48-.38-.17-.86-.17-.86-.17-.58 0-.93.26-.93.26-.35.27-.35.74-.35.74 0 .26.1.43.1.43.1.18.27.31.27.31.17.13.37.23.37.23.2.1.41.18.41.18l.97.42c.29.13.55.29.55.29.26.16.45.38.45.38.19.21.3.5.3.5.11.29.11.67.11.67 0 .41-.16.76-.16.76-.16.35-.47.62-.47.62-.3.27-.73.42-.73.42-.43.15-.98.15-.98.15-.73 0-1.35-.27-1.35-.27-.62-.27-1.07-.75-1.07-.75zm4.64 1.5zm3.48.13c-.65 0-1.19-.25-1.19-.25-.54-.25-.93-.72-.93-.72-.38-.46-.6-1.13-.6-1.13-.21-.67-.21-1.5-.21-1.5 0-.83.22-1.48.22-1.48.21-.65.6-1.11.6-1.11.39-.45.93-.7.93-.7.54-.24 1.19-.24 1.19-.24.65 0 1.19.25 1.19.25.54.25.93.71.93.71.39.46.61 1.11.61 1.11.21.66.21 1.48.21 1.48 0 .83-.22 1.5-.22 1.5-.22.67-.61 1.14-.61 1.14-.4.47-.94.72-.94.72-.54.25-1.2.25-1.2.25zm0 0zm0-.77c.46 0 .84-.2.84-.2.37-.2.64-.58.64-.58.27-.37.41-.89.41-.89.15-.52.15-1.17.15-1.17 0-.64-.14-1.15-.14-1.15-.15-.51-.41-.87-.41-.87-.27-.35-.64-.55-.64-.55-.38-.19-.84-.19-.84-.19-.47 0-.84.19-.84.19-.37.2-.64.55-.64.55-.27.36-.42.87-.42.87-.15.52-.15 1.16-.15 1.16 0 .65.15 1.17.15 1.17.15.52.41.89.41.89.27.38.64.58.64.58.37.2.83.2.83.2zm3.49.64zm.68-4.32c0-.31.19-.49.19-.49.18-.18.44-.18.44-.18.25 0 .43.18.43.18.18.18.18.49.18.49 0 .28-.19.46-.19.46-.19.18-.44.18-.44.18-.26 0-.45-.18-.45-.18-.19-.18-.19-.47-.19-.47zm0 0zm0 3.79c0-.31.19-.49.19-.49.18-.18.44-.18.44-.18.25 0 .43.18.43.18.18.18.18.49.18.49 0 .28-.19.47-.19.47-.19.19-.44.19-.44.19-.26 0-.45-.18-.45-.18-.19-.18-.19-.46-.19-.46zm4.06.52zm.71-1.39c.3.32.71.56.71.56.4.24 1 .24 1 .24.61 0 1-.33 1-.33.39-.33.39-.9.39-.9 0-.29-.11-.54-.11-.54-.11-.24-.37-.42-.37-.42-.25-.18-.66-.27-.66-.27-.41-.09-1.01-.09-1.01-.09v-.66c.53 0 .9-.1.9-.1.36-.09.58-.26.58-.26.22-.17.32-.4.32-.4.09-.23.09-.49.09-.49 0-.49-.31-.78-.31-.78-.31-.28-.85-.28-.85-.28-.42 0-.77.19-.77.19-.35.19-.66.49-.66.49l-.46-.54c.39-.36.85-.6.85-.6.47-.24 1.07-.24 1.07-.24.44 0 .81.12.81.12.36.12.63.33.63.33.26.22.41.53.41.53.15.32.15.73.15.73 0 .61-.34 1-.34 1-.34.39-.88.6-.88.6v.04c.31.08.57.22.57.22.26.14.46.36.46.36.2.22.31.5.31.5.11.28.11.63.11.63 0 .44-.17.8-.17.8-.17.36-.47.61-.47.61-.3.25-.7.38-.7.38-.4.13-.86.13-.86.13-.4 0-.73-.08-.73-.08-.33-.08-.6-.21-.6-.21-.27-.13-.49-.3-.49-.3-.21-.17-.38-.36-.38-.36zm4.51 1.39zm2.46-3.25c.32 0 .7-.2.7-.2.37-.21.7-.69.7-.69-.09-.99-.47-1.49-.47-1.49-.38-.51-1.02-.51-1.02-.51-.24 0-.45.1-.45.1-.22.11-.37.3-.37.3-.16.2-.25.47-.25.47-.09.27-.09.6-.09.6 0 .66.31 1.04.31 1.04.3.38.93.38.93.38zm0 0zm-1.45 2.13c.21.25.5.39.5.39.28.15.6.15.6.15.35 0 .67-.15.67-.15.31-.14.55-.49.55-.49.24-.34.38-.88.38-.88.14-.55.16-1.35.16-1.35-.32.4-.74.63-.74.63-.42.23-.84.23-.84.23-.87 0-1.39-.52-1.39-.52-.52-.51-.52-1.55-.52-1.55 0-.48.15-.88.15-.88.16-.39.42-.68.42-.68.27-.28.63-.44.63-.44.36-.15.76-.15.76-.15.49 0 .92.2.92.2.42.2.73.61.73.61.31.41.48 1.01.48 1.01.17.6.17 1.41.17 1.41 0 1.01-.21 1.72-.21 1.72-.21.71-.56 1.16-.56 1.16-.36.45-.81.65-.81.65-.46.21-.96.21-.96.21-.54 0-.94-.2-.94-.2-.41-.2-.68-.5-.68-.5zm4.22 1.11zm1.21-1.79c0 .29.11.52.11.52.11.23.31.4.31.4.19.17.45.27.45.27.26.09.56.09.56.09.59 0 .95-.33.95-.33.36-.33.36-.85.36-.85 0-.33-.15-.56-.15-.56-.15-.23-.4-.41-.4-.41-.25-.18-.59-.32-.59-.32-.33-.15-.69-.29-.69-.29-.4.27-.67.63-.67.63-.27.36-.27.82-.27.82zm0 0zm1.89-1.86c.34-.3.52-.64.52-.64.19-.33.19-.7.19-.7 0-.5-.31-.84-.31-.84-.31-.34-.86-.34-.86-.34-.48 0-.78.3-.78.3-.3.29-.3.79-.3.79 0 .31.12.52.12.52.12.22.34.39.34.39.21.17.49.3.49.3.27.13.58.25.58.25zm0 0zm-2.67 1.95c0-.32.11-.6.11-.6.11-.28.28-.51.28-.51.17-.22.4-.4.4-.4.22-.17.46-.3.46-.3v-.04c-.37-.26-.65-.63-.65-.63-.29-.37-.29-.91-.29-.91 0-.39.15-.7.15-.7.15-.31.4-.54.4-.54.25-.22.6-.35.6-.35.34-.12.75-.12.75-.12.44 0 .79.13.79.13.35.14.59.37.59.37.24.24.38.57.38.57.13.33.13.72.13.72 0 .26-.09.51-.09.51-.09.24-.22.45-.22.45-.13.21-.3.38-.3.38-.16.17-.32.28-.32.28v.04c.22.13.43.29.43.29.21.16.37.37.37.37.16.21.26.47.26.47.1.27.1.6.1.6 0 .38-.16.71-.16.71-.16.33-.44.57-.44.57-.29.25-.69.38-.69.38-.4.14-.88.14-.88.14-.48 0-.88-.14-.88-.14-.41-.13-.7-.38-.7-.38-.29-.25-.46-.58-.46-.58-.17-.33-.17-.73-.17-.73zm102.31 1.71zm.94-6.89h3.97v.74h-3.1v2.17h2.61v.75h-2.62v2.5h3.2v.74h-4.08v-6.89zm4.59 6.89zm.86-5.1h.71l.07.73h.03c.33-.36.73-.61.73-.61.39-.25.85-.25.85-.25.59 0 .92.25.92.25.33.26.49.72.49.72.4-.44.8-.71.8-.71.4-.27.87-.27.87-.27.79 0 1.17.5 1.17.5.38.5.38 1.49.38 1.49V758h-.8v-3.12c0-.724-.23-1.045-.23-1.045-.23-.32-.72-.32-.72-.32-.58 0-1.28.788-1.28.788V758h-.87v-3.12c0-.724-.24-1.045-.24-1.045-.23-.32-.73-.32-.73-.32-.58 0-1.28.788-1.28.788V758h-.86v-5.105zm7.84 5.1zm.61-1.32c0-.84.75-1.29.75-1.29.75-.44 2.39-.62 2.39-.62 0-.24-.05-.47-.05-.47-.05-.23-.17-.41-.17-.41-.12-.17-.32-.29-.32-.29-.2-.11-.52-.11-.52-.11-.45 0-.84.17-.84.17-.39.17-.69.38-.69.38l-.35-.6c.35-.23.87-.45.87-.45.51-.22 1.13-.22 1.13-.22.93 0 1.35.57 1.35.57.42.57.42 1.53.42 1.53v3.1h-.71l-.08-.61h-.02c-.37.31-.79.52-.79.52-.43.22-.9.22-.9.22-.65 0-1.08-.38-1.08-.38-.43-.38-.43-1.07-.43-1.07zm0 0zm.85-.06c0 .44.25.63.25.63.26.19.63.19.63.19.36 0 .7-.17.7-.17.33-.17.69-.51.69-.51v-1.42c-.64.09-1.09.2-1.09.2-.44.12-.71.27-.71.27-.27.16-.38.37-.38.37-.12.21-.12.45-.12.45zm3.92 1.39zm1.3-6.15c-.25 0-.43-.15-.43-.15-.18-.16-.18-.4-.18-.4 0-.25.17-.4.17-.4.17-.15.42-.15.42-.15.25 0 .42.16.42.16.17.16.17.41.17.41 0 .24-.17.4-.17.4-.17.16-.42.16-.42.16zm0 0zm-.44 1.05h.86v5.1h-.86v-5.11zm1.72 5.11zm.86-7.48h.86v6.52c0 .21.07.29.07.29.07.09.17.09.17.09h.08l.11-.02.11.65c-.09.05-.2.07-.2.07-.12.02-.3.02-.3.02-.5 0-.71-.29-.71-.29-.21-.29-.21-.86-.21-.86v-6.45zm1.81 7.48zm.68-4.32c0-.3.18-.49.18-.49.18-.18.44-.18.44-.18.25 0 .43.19.43.19.19.19.19.49.19.49 0 .28-.19.47-.19.47-.18.19-.43.19-.43.19-.26 0-.44-.18-.44-.18-.19-.18-.19-.46-.19-.46zm0 0zm0 3.79c0-.3.18-.49.18-.49.18-.18.44-.18.44-.18.25 0 .43.19.43.19.19.18.19.49.19.49 0 .28-.19.47-.19.47-.18.19-.43.19-.43.19-.26 0-.44-.19-.44-.19-.19-.18-.19-.46-.19-.46zm4.05.53zm.71-1.38c.3.32.71.56.71.56.4.24 1 .24 1 .24.61 0 1-.33 1-.33.39-.33.39-.9.39-.9 0-.29-.11-.54-.11-.54-.11-.25-.36-.43-.36-.43-.26-.18-.67-.27-.67-.27-.41-.09-1.01-.09-1.01-.09v-.67c.53 0 .9-.1.9-.1.36-.1.58-.26.58-.26.22-.17.32-.4.32-.4.09-.23.09-.5.09-.5 0-.5-.31-.78-.31-.78-.31-.29-.85-.29-.85-.29-.42 0-.77.19-.77.19-.36.18-.66.49-.66.49l-.47-.55c.39-.37.86-.61.86-.61.47-.24 1.06-.24 1.06-.24.44 0 .81.12.81.12.36.12.63.33.63.33.27.22.41.53.41.53.14.32.14.73.14.73 0 .61-.34 1-.34 1-.34.39-.88.6-.88.6v.04c.3.08.57.22.57.22.26.14.46.35.46.35.2.22.31.5.31.5.11.28.11.63.11.63 0 .44-.17.8-.17.8-.17.36-.47.6-.47.6-.3.25-.7.38-.7.38-.4.13-.86.13-.86.13-.4 0-.73-.08-.73-.08-.33-.07-.61-.21-.61-.21-.28-.13-.49-.29-.49-.29-.22-.17-.38-.36-.38-.36zm4.51 1.39zm1.21-1.8c0 .28.11.51.11.51.11.23.3.4.3.4.2.17.46.27.46.27.26.09.57.09.57.09.58 0 .95-.33.95-.33.36-.33.36-.85.36-.85 0-.33-.15-.56-.15-.56-.15-.23-.4-.41-.4-.41-.25-.18-.58-.32-.58-.32-.33-.15-.69-.29-.69-.29-.4.27-.67.63-.67.63-.27.36-.27.82-.27.82zm0 0zm1.89-1.86c.33-.3.52-.64.52-.64.18-.34.18-.7.18-.7 0-.5-.3-.84-.3-.84-.31-.34-.86-.34-.86-.34-.48 0-.78.29-.78.29-.31.3-.31.79-.31.79 0 .3.13.52.13.52.13.22.34.38.34.38.22.17.5.3.5.3.27.13.58.25.58.25zm0 0zm-2.67 1.94c0-.32.11-.6.11-.6.11-.28.28-.5.28-.5.17-.22.4-.4.4-.4.23-.17.47-.3.47-.3v-.04c-.37-.26-.65-.63-.65-.63-.29-.38-.29-.91-.29-.91 0-.39.15-.71.15-.71.15-.31.4-.54.4-.54.25-.22.6-.35.6-.35.34-.12.75-.12.75-.12.44 0 .79.13.79.13.34.14.59.37.59.37.25.24.38.57.38.57.13.33.13.72.13.72 0 .26-.09.51-.09.51-.09.24-.22.45-.22.45-.13.21-.3.38-.3.38-.16.17-.32.28-.32.28v.04c.22.13.43.29.43.29.21.16.37.37.37.37.16.21.26.47.26.47.1.27.1.6.1.6 0 .38-.16.71-.16.71-.16.33-.44.57-.44.57-.28.25-.68.38-.68.38-.4.14-.89.14-.89.14-.47 0-.88-.14-.88-.14-.41-.13-.69-.38-.69-.38-.29-.24-.46-.58-.46-.58-.17-.33-.17-.73-.17-.73zm4.8 1.72zm2.81-.55c.25 0 .46-.11.46-.11.21-.1.36-.3.36-.3.16-.19.25-.46.25-.46.09-.27.09-.6.09-.6 0-.66-.3-1.04-.3-1.04-.31-.38-.94-.38-.94-.38-.32 0-.69.21-.69.21-.38.2-.71.67-.71.67.08.98.46 1.49.46 1.49.37.51 1.01.51 1.01.51zm0 0zm1.38-5.02c-.21-.25-.5-.39-.5-.39-.29-.15-.6-.15-.6-.15-.35 0-.66.14-.66.14-.31.14-.56.48-.56.48-.24.33-.39.87-.39.87-.15.54-.16 1.34-.16 1.34.31-.39.73-.62.73-.62.42-.23.83-.23.83-.23.87 0 1.39.52 1.39.52.52.52.52 1.56.52 1.56 0 .49-.16.88-.16.88-.16.39-.43.68-.43.68-.28.29-.63.45-.63.45-.36.16-.77.16-.77.16-.5 0-.92-.2-.92-.2-.42-.2-.73-.6-.73-.6-.31-.4-.49-1.01-.49-1.01-.17-.6-.17-1.41-.17-1.41 0-1.01.21-1.72.21-1.72.21-.71.57-1.15.57-1.15.36-.45.81-.65.81-.65.46-.21.96-.21.96-.21.55 0 .94.21.94.21.4.2.68.51.68.51zm92.55 5.57zm.96-1.51c.36.39.86.62.86.62.5.24 1.04.24 1.04.24.68 0 1.06-.31 1.06-.31.38-.31.38-.82.38-.82 0-.26-.09-.45-.09-.45-.09-.19-.24-.32-.24-.32-.15-.13-.36-.24-.36-.24-.21-.11-.45-.22-.45-.22l-.99-.43c-.24-.11-.49-.26-.49-.26-.25-.15-.45-.36-.45-.36-.2-.21-.32-.5-.32-.5-.13-.29-.13-.67-.13-.67 0-.39.16-.73.16-.73.16-.34.45-.59.45-.59.29-.25.68-.39.68-.39.39-.14.86-.14.86-.14.62 0 1.14.24 1.14.24.52.24.89.62.89.62l-.48.57c-.32-.3-.7-.48-.7-.48-.39-.17-.87-.17-.87-.17-.57 0-.93.27-.93.27-.35.27-.35.74-.35.74 0 .26.1.43.1.43.1.17.27.3.27.3.17.14.37.23.37.23.2.1.41.19.41.19l.98.42c.29.13.56.29.56.29.26.16.45.38.45.38.19.22.3.51.3.51.11.29.11.67.11.67 0 .41-.16.77-.16.77-.16.36-.47.62-.47.62-.31.27-.74.42-.74.42-.43.15-.98.15-.98.15-.72 0-1.34-.27-1.34-.27-.62-.27-1.07-.75-1.07-.75zm4.64 1.5zm.86-7.48h.86v6.51c0 .21.08.3.08.3.08.09.17.09.17.09h.08l.11-.02.12.65c-.08.05-.2.07-.2.07-.11.02-.29.02-.29.02-.5 0-.71-.3-.71-.3-.21-.29-.21-.86-.21-.86v-6.45zm1.82 7.48zm.61-1.32c0-.84.75-1.28.75-1.28.75-.45 2.39-.63 2.39-.63 0-.24-.05-.47-.05-.47-.05-.23-.17-.41-.17-.41-.12-.17-.32-.29-.32-.29-.2-.11-.52-.11-.52-.11-.45 0-.84.17-.84.17-.39.17-.69.38-.69.38l-.35-.6c.35-.23.87-.45.87-.45.51-.22 1.13-.22 1.13-.22.93 0 1.35.57 1.35.57.42.57.42 1.53.42 1.53v3.1h-.72l-.08-.61h-.02c-.37.31-.8.52-.8.52-.43.22-.9.22-.9.22-.65 0-1.08-.37-1.08-.37-.43-.38-.43-1.07-.43-1.07zm0 0zm.85-.06c0 .44.26.63.26.63.25.19.63.19.63.19.36 0 .7-.17.7-.17.33-.17.7-.51.7-.51v-1.42c-.64.09-1.08.2-1.08.2-.45.12-.71.28-.71.28-.27.16-.39.36-.39.36-.11.2-.11.44-.11.44zm3.92 1.39zm.48-2.54c0-.64.2-1.14.2-1.14.2-.5.53-.85.53-.85.34-.35.79-.53.79-.53.45-.18.94-.18.94-.18.51 0 .87.19.87.19.37.19.63.43.63.43l-.43.56c-.23-.2-.48-.33-.48-.33-.24-.13-.55-.13-.55-.13-.34 0-.64.14-.64.14-.29.14-.5.4-.5.4-.21.26-.33.62-.33.62-.12.36-.12.8-.12.8 0 .44.11.8.11.8.11.35.32.61.32.61.2.25.5.4.5.4.29.14.64.14.64.14.36 0 .66-.15.66-.15.3-.16.53-.37.53-.37l.39.56c-.35.3-.77.48-.77.48-.43.18-.89.18-.89.18-.5 0-.95-.18-.95-.18-.44-.18-.76-.52-.76-.52-.32-.34-.51-.84-.51-.84-.18-.5-.18-1.13-.18-1.13zm4.31 2.54zm.86-7.48h.85v5.06h.03l2.17-2.69h.96l-1.71 2.05 1.95 3.06h-.94l-1.49-2.46-.95 1.12v1.3h-.85v-7.48zm4.34 7.48zm.68-4.32c0-.3.18-.49.18-.49.18-.18.44-.18.44-.18.25 0 .43.19.43.19.18.19.18.49.18.49 0 .28-.18.47-.18.47-.19.19-.44.19-.44.19-.26 0-.45-.18-.45-.18-.19-.18-.19-.46-.19-.46zm0 0zm0 3.79c0-.3.18-.49.18-.49.18-.18.44-.18.44-.18.25 0 .43.18.43.18.18.18.18.49.18.49 0 .28-.18.46-.18.46-.19.19-.44.19-.44.19-.26 0-.45-.19-.45-.19-.19-.18-.19-.46-.19-.46zm4.05.53zm.42-.52c.75-.75 1.34-1.36 1.34-1.36.59-.61.99-1.13.99-1.13.4-.52.61-.96.61-.96.21-.44.21-.85.21-.85 0-.58-.32-.95-.32-.95-.32-.37-.96-.37-.96-.37-.42 0-.78.23-.78.23-.36.23-.66.57-.66.57l-.49-.5c.42-.46.89-.74.89-.74.47-.28 1.13-.28 1.13-.28.94 0 1.47.54 1.47.54.54.54.54 1.43.54 1.43 0 .47-.21.95-.21.95-.21.48-.57.98-.57.98-.37.51-.86 1.06-.86 1.06-.5.55-1.1 1.17-1.1 1.17l.57-.04c.29-.02.55-.02.55-.02h1.94v.75H797v-.52zm4.8.52zm2.61.13c-1.02 0-1.59-.9-1.59-.9-.57-.9-.57-2.6-.57-2.6 0-1.69.56-2.57.56-2.57.56-.89 1.58-.89 1.58-.89 1.01 0 1.57.89 1.57.89.57.88.57 2.573.57 2.573 0 1.69-.56 2.593-.56 2.593-.56.91-1.57.91-1.57.91zm0 0zm0-.69c.29 0 .53-.16.53-.16.23-.16.41-.5.41-.5.17-.34.27-.87.27-.87.09-.53.09-1.27.09-1.27 0-.73-.1-1.26-.1-1.26-.1-.52-.27-.85-.27-.85-.17-.33-.41-.49-.41-.49-.24-.16-.53-.16-.53-.16-.3 0-.54.16-.54.16-.24.16-.42.49-.42.49-.17.33-.27.86-.27.86-.09.52-.09 1.26-.09 1.26 0 1.47.36 2.14.36 2.14.37.66.96.66.96.66zm2.6.57zm.42-.51c.75-.76 1.34-1.365 1.34-1.365.59-.61.99-1.13.99-1.13.4-.52.61-.96.61-.96.21-.434.21-.844.21-.844 0-.58-.31-.95-.31-.95-.31-.37-.95-.37-.95-.37-.42 0-.77.23-.77.23-.36.23-.65.57-.65.57l-.5-.5c.42-.46.89-.74.89-.74.47-.28 1.13-.28 1.13-.28.94 0 1.47.54 1.47.54.54.54.54 1.43.54 1.43 0 .47-.21.95-.21.95-.2.48-.56.98-.56.98-.36.51-.86 1.06-.86 1.06-.5.55-1.1 1.17-1.1 1.17l.57-.04c.3-.02.56-.02.56-.02h1.95v.75h-4.33v-.52zm99.11.515zm3.48.12c-.65 0-1.19-.25-1.19-.25-.54-.25-.93-.72-.93-.72-.39-.466-.6-1.133-.6-1.133-.22-.67-.22-1.5-.22-1.5 0-.83.22-1.49.22-1.49.21-.66.6-1.114.6-1.114.39-.46.93-.7.93-.7.54-.24 1.19-.24 1.19-.24.65 0 1.19.243 1.19.243.54.25.94.705.94.705.39.46.61 1.115.61 1.115.22.66.22 1.48.22 1.48 0 .83-.22 1.496-.22 1.496-.21.67-.61 1.134-.61 1.134-.39.47-.93.72-.93.72-.54.25-1.19.25-1.19.25zm0 0zm0-.766c.46 0 .83-.2.83-.2.37-.2.64-.58.64-.58.27-.38.42-.9.42-.9.15-.52.15-1.17.15-1.17 0-.64-.15-1.16-.15-1.16-.15-.52-.42-.87-.42-.87-.27-.36-.64-.56-.64-.56-.38-.19-.84-.19-.84-.19-.46 0-.84.19-.84.19-.37.19-.64.55-.64.55-.27.35-.42.87-.42.87-.15.51-.15 1.15-.15 1.15 0 .65.14 1.17.14 1.17.15.52.42.89.42.89.26.37.64.57.64.57.37.2.83.2.83.2zm3.49.64zm1.01-4.4h-.76V753l.8-.05.1-1.43h.72v1.43h1.37v.7h-1.38v2.83c0 .47.17.73.17.73.17.25.61.25.61.25.13 0 .29-.05.29-.05.16-.04.28-.1.28-.1l.16.65c-.21.07-.45.13-.45.13-.25.06-.49.06-.49.06-.41 0-.69-.13-.69-.13-.28-.124-.45-.35-.45-.35-.18-.22-.25-.53-.25-.53-.07-.313-.07-.692-.07-.692v-2.82zm2.54 4.4zm.86-7.48h.86v2.04l-.03 1.05c.36-.35.76-.6.76-.6.4-.25.93-.25.93-.25.81 0 1.18.5 1.18.5.37.5.37 1.49.37 1.49v3.2h-.86v-3.12c0-.724-.23-1.044-.23-1.044-.23-.32-.74-.32-.74-.32-.4 0-.7.2-.7.2-.31.2-.7.586-.7.586V758h-.86v-7.48zm4.85 7.48zm.48-2.55c0-.63.19-1.13.19-1.13.19-.5.51-.85.51-.85.32-.35.73-.53.73-.53.41-.19.85-.19.85-.19.48 0 .86.16.86.16.38.17.64.48.64.48.26.31.39.76.39.76.14.44.14.99.14.99 0 .28-.03.47-.03.47h-3.45c.06.83.51 1.31.51 1.31.46.48 1.2.48 1.2.48.37 0 .68-.11.68-.11.31-.11.59-.29.59-.29l.31.57c-.34.21-.75.37-.75.37-.41.15-.94.15-.94.15-.52 0-.96-.18-.96-.18-.45-.18-.78-.52-.78-.52-.33-.34-.52-.84-.52-.84-.19-.49-.19-1.12-.19-1.12zm0 0zm3.57-.39c0-.79-.33-1.2-.33-1.2-.33-.42-.93-.42-.93-.42-.28 0-.52.11-.52.11-.25.11-.45.31-.45.31-.2.2-.33.5-.33.5-.13.3-.18.69-.18.69h2.73zm1.15 2.93zm.86-5.11h.71l.07.92h.03c.26-.49.63-.77.63-.77.37-.29.81-.29.81-.29.31 0 .55.1.55.1l-.17.76c-.12-.04-.23-.07-.23-.07-.1-.02-.26-.02-.26-.02-.32 0-.67.26-.67.26-.35.26-.62.91-.62.91v3.3h-.86v-5.1zm2.78 5.1zm.68-4.32c0-.31.18-.49.18-.49.18-.19.44-.19.44-.19.26 0 .44.18.44.18.18.18.18.49.18.49 0 .28-.18.46-.18.46-.18.18-.43.18-.43.18-.27 0-.45-.18-.45-.18-.19-.18-.19-.47-.19-.47zm0 0zm0 3.79c0-.31.18-.49.18-.49.18-.18.44-.18.44-.18.26 0 .44.18.44.18.18.18.18.49.18.49 0 .28-.18.46-.18.46-.18.18-.43.18-.43.18-.27 0-.45-.18-.45-.18-.19-.19-.19-.47-.19-.47zm4.05.52zm2.47-3.26c.33 0 .7-.21.7-.21.37-.21.71-.69.71-.69-.09-.99-.47-1.49-.47-1.49-.38-.51-1.02-.51-1.02-.51-.24 0-.46.1-.46.1-.22.11-.38.3-.38.3-.16.197-.25.47-.25.47-.09.27-.09.6-.09.6 0 .66.3 1.04.3 1.04.31.38.94.38.94.38zm0 0zm-1.45 2.13c.21.24.5.39.5.39.29.14.6.14.6.14.35 0 .67-.15.67-.15.31-.15.56-.49.56-.49.24-.34.39-.89.39-.89.14-.54.16-1.35.16-1.35-.32.4-.74.63-.74.63-.42.23-.84.23-.84.23-.87 0-1.39-.51-1.39-.51-.52-.513-.52-1.553-.52-1.553 0-.48.16-.87.16-.87.16-.4.43-.68.43-.68.26-.28.63-.44.63-.44.36-.16.76-.16.76-.16.49 0 .92.2.92.2.42.2.73.6.73.6.31.4.48 1.005.48 1.005.17.61.17 1.42.17 1.42 0 1.01-.21 1.72-.21 1.72-.21.71-.57 1.15-.57 1.15-.36.45-.81.65-.81.65-.46.21-.96.21-.96.21-.54 0-.94-.2-.94-.2-.4-.2-.68-.51-.68-.51zm4.2 1.13zm2.47-3.26c.32 0 .7-.21.7-.21.37-.21.71-.69.71-.69-.09-.99-.47-1.49-.47-1.49-.38-.51-1.02-.51-1.02-.51-.24 0-.46.11-.46.11-.22.1-.38.3-.38.3-.16.19-.25.47-.25.47-.09.27-.09.6-.09.6 0 .66.3 1.04.3 1.04.3.37.93.37.93.37zm0 0zm-1.45 2.13c.21.24.5.39.5.39.29.15.6.15.6.15.36 0 .68-.15.68-.15.32-.15.56-.49.56-.49.25-.34.39-.89.39-.89.15-.55.16-1.36.16-1.36-.31.4-.73.63-.73.63-.42.23-.84.23-.84.23-.88 0-1.39-.51-1.39-.51-.52-.52-.52-1.56-.52-1.56 0-.483.16-.88.16-.88.16-.39.42-.68.42-.68.27-.28.63-.44.63-.44.36-.16.76-.16.76-.16.49 0 .92.2.92.2.42.2.73.607.73.607.31.4.48 1.01.48 1.01.17.6.17 1.41.17 1.41 0 1.01-.21 1.72-.21 1.72-.21.71-.57 1.15-.57 1.15-.36.45-.82.65-.82.65-.46.21-.96.21-.96.21-.54 0-.94-.2-.94-.2-.4-.2-.68-.506-.68-.506z"/></svg>