<svg xmlns="http://www.w3.org/2000/svg" stroke="#000" viewBox="0 0 1024 768" font-size="1"><path fill="#FFF" stroke="none" d="M0 0v768h1024V0z"/><path stroke="none" d="M375.198 14.102zm1.186-10.04h2.264V14.1h-2.264V4.062zm6.653 10.04zm5.313-9.04c-.43-.154-.785-.154-.785-.154-.416 0-.647.254-.647.254-.23.254-.23.84-.23.84v.46h1.37v1.772h-1.37v5.868h-2.265V8.234h-1.016v-1.68l1.016-.076v-.415c0-.6.146-1.14.146-1.14.14-.54.48-.94.48-.94.34-.4.88-.63.88-.63.54-.232 1.31-.232 1.31-.232.47 0 .87.1.87.1.39.09.65.19.65.19zm-.062 9.04zm2.126-8.763c-.57 0-.94-.34-.94-.34-.37-.33-.37-.86-.37-.86 0-.53.37-.85.37-.85.37-.33.94-.33.94-.33.585 0 .947.32.947.32.37.32.37.84.37.84 0 .52-.36.85-.36.85-.36.33-.94.33-.94.33zm0 0zm-1.124 1.12h2.262v7.64h-2.264V6.46zm3.25 7.64zm1-7.64h1.847l.154.97h.07c.49-.47 1.08-.81 1.08-.81.59-.35 1.37-.35 1.37-.35 1.25 0 1.81.81 1.81.81.57.81.57 2.26.57 2.26v4.75h-2.26V9.65c0-.832-.22-1.14-.22-1.14-.22-.31-.71-.31-.71-.31-.43 0-.74.195-.74.195-.3.192-.67.547-.67.547v5.16h-2.26v-7.64zm7.807 7.64zm.6-3.82c0-.94.27-1.68.27-1.68.27-.74.71-1.26.71-1.26.437-.52 1.015-.8 1.015-.8.577-.28 1.178-.28 1.178-.28.648 0 1.064.21 1.064.21.415.21.816.58.816.58l-.093-1.17V3.3h2.264v10.8h-1.84l-.15-.754h-.06c-.4.4-.94.67-.94.67-.54.27-1.09.27-1.09.27-.71 0-1.28-.278-1.28-.278-.58-.278-.99-.794-.99-.794-.41-.516-.63-1.255-.63-1.255-.22-.74-.22-1.68-.22-1.68zm0 0zm2.326-.03c0 1.13.362 1.66.362 1.66.362.52 1.024.52 1.024.52.37 0 .67-.16.67-.16.3-.16.57-.54.57-.54V8.62c-.31-.278-.63-.386-.63-.386-.33-.108-.63-.108-.63-.108-.54 0-.96.516-.96.516-.42.516-.42 1.61-.42 1.61zm9.102 3.85zm1.31-5.87h-1.048V6.55l1.17-.092.262-2.032h1.88V6.46h1.83v1.77h-1.83v3.07c0 .646.26.93.26.93.27.285.71.285.71.285.18 0 .38-.046.38-.046.19-.05.34-.11.34-.11l.35 1.65c-.31.09-.73.18-.73.18-.42.09-.97.09-.97.09-.71 0-1.21-.22-1.21-.22-.5-.22-.82-.6-.82-.6-.32-.39-.47-.94-.47-.94-.15-.55-.15-1.21-.15-1.21V8.23zm4.588 5.87zm1-10.8h2.265v2.65l-.11 1.37c.432-.39 1.002-.72 1.002-.72.57-.33 1.355-.33 1.355-.33 1.248 0 1.81.81 1.81.81.562.81.562 2.26.562 2.26v4.75h-2.265V9.65c0-.833-.223-1.14-.223-1.14-.23-.31-.72-.31-.72-.31-.43 0-.74.194-.74.194-.31.192-.68.547-.68.547v5.16h-2.27V3.31zm7.794 10.79zm.724-2.13c0-1.2 1.02-1.88 1.02-1.88 1.02-.68 3.28-.91 3.28-.91-.03-.51-.31-.81-.31-.81-.27-.3-.89-.3-.89-.3-.49 0-.98.18-.98.18-.49.18-1.04.5-1.04.5l-.8-1.5c.74-.45 1.55-.73 1.55-.73.81-.28 1.72-.28 1.72-.28 1.48 0 2.26.84 2.26.84.78.84.78 2.61.78 2.61v4.38h-1.85l-.17-.79h-.04c-.49.43-1.04.7-1.04.7-.55.27-1.19.27-1.19.27-.52 0-.94-.18-.94-.18-.42-.18-.71-.5-.71-.5-.29-.31-.45-.73-.45-.73-.16-.41-.16-.9-.16-.9zm0 0zm2.16-.17c0 .37.24.55.24.55.24.17.64.17.64.17.4 0 .68-.17.68-.17.28-.17.59-.48.59-.48v-1.34c-1.21.17-1.68.49-1.68.49-.46.32-.46.77-.46.77zm5.35 2.29zm1.31-5.87h-1.05V6.55l1.18-.09.26-2.033h1.88v2.03h1.83v1.77h-1.83v3.07c0 .646.27.93.27.93.27.285.72.285.72.285.19 0 .38-.046.38-.046.19-.05.35-.11.35-.11l.36 1.65c-.31.09-.72.182-.72.182-.41.092-.97.092-.97.092-.71 0-1.21-.215-1.21-.215-.5-.216-.81-.6-.81-.6-.32-.386-.46-.933-.46-.933-.15-.546-.15-1.208-.15-1.208v-3.09zm7.79 5.87zm1.19-10.04h2.27v3.87h3.47V4.06h2.28v10.042h-2.28v-4.19h-3.46v4.19h-2.27V4.062zm9.2 10.04zm.73-2.13c0-1.2 1.02-1.88 1.02-1.88 1.02-.68 3.28-.91 3.28-.91-.03-.51-.3-.81-.3-.81-.28-.3-.89-.3-.89-.3-.49 0-.98.18-.98.18-.49.18-1.05.51-1.05.51l-.8-1.5c.74-.45 1.55-.73 1.55-.73.8-.27 1.71-.27 1.71-.27 1.48 0 2.26.84 2.26.84.78.84.78 2.61.78 2.61v4.38h-1.85l-.17-.79H461c-.494.43-1.04.7-1.04.7-.547.27-1.194.27-1.194.27-.524 0-.94-.18-.94-.18-.415-.18-.71-.5-.71-.5-.29-.32-.452-.73-.452-.73-.16-.41-.16-.9-.16-.9zm0 0zm2.16-.17c0 .37.24.55.24.55.24.17.64.17.64.17.4 0 .68-.17.68-.17.28-.17.59-.48.59-.48v-1.34c-1.21.17-1.68.49-1.68.49-.46.32-.46.77-.46.77zm5.34 2.3zm1.34-2.3c.53.4 1 .6 1 .6.48.2.97.2.97.2.51 0 .74-.17.74-.17.23-.17.23-.48.23-.48 0-.19-.13-.33-.13-.33-.13-.15-.35-.27-.35-.27-.22-.13-.5-.23-.5-.23-.27-.1-.57-.23-.57-.23-.35-.14-.71-.33-.71-.33-.35-.19-.64-.46-.64-.46-.29-.27-.47-.63-.47-.63-.18-.37-.18-.84-.18-.84 0-.53.21-.97.21-.97.21-.45.6-.76.6-.76.39-.31.93-.48.93-.48.54-.18 1.2-.18 1.2-.18.88 0 1.54.3 1.54.3.67.3 1.16.67 1.16.67l-1.02 1.36c-.42-.31-.82-.48-.82-.48-.4-.17-.8-.17-.8-.17-.86 0-.86.6-.86.6 0 .18.13.31.13.31.13.13.33.24.33.24.21.1.48.2.48.2l.57.21c.37.13.73.31.73.31.37.18.67.44.67.44.3.26.49.64.49.64.19.38.19.9.19.9 0 .52-.2.97-.2.97-.2.45-.6.78-.6.78-.4.33-.99.52-.99.52-.58.2-1.35.2-1.35.2-.75 0-1.55-.29-1.55-.29-.79-.29-1.38-.77-1.38-.77zm5.48 2.29zm1-10.8h2.21v6.19h.06l2.42-3.03H479l-2.69 3.15 2.88 4.49h-2.446L475 11.12l-.97 1.094v1.88h-2.206V3.3zm7.01 10.79zm.56-3.82c0-.92.31-1.67.31-1.67.31-.75.81-1.26.81-1.26.5-.52 1.15-.8 1.15-.8.65-.28 1.34-.28 1.34-.28.82 0 1.43.28 1.43.28.61.27 1.02.77 1.02.77.41.49.61 1.16.61 1.16.2.67.2 1.45.2 1.45 0 .31-.03.56-.03.56-.03.25-.06.39-.06.39h-4.58c.16.88.69 1.27.69 1.27.53.39 1.3.39 1.3.39.82 0 1.65-.51 1.65-.51l.76 1.37c-.59.4-1.31.63-1.31.63-.72.23-1.41.23-1.41.23-.82 0-1.53-.27-1.53-.27-.71-.27-1.23-.79-1.23-.79-.52-.52-.81-1.26-.81-1.26-.29-.74-.29-1.7-.29-1.7zm0 0zm4.93-.78c0-.66-.29-1.08-.29-1.08-.29-.42-.98-.42-.98-.42-.54 0-.95.36-.95.36-.41.36-.53 1.13-.53 1.13h2.76zm2.5 4.6zm1-10.79h2.27v8.52c0 .35.13.49.13.49.14.14.27.14.27.14h.13l.15-.04.28 1.68c-.18.08-.47.13-.47.13-.28.05-.67.05-.67.05-.58 0-.98-.18-.98-.18-.4-.19-.64-.52-.64-.52-.24-.33-.35-.8-.35-.8-.11-.47-.11-1.06-.11-1.06V3.3zm3.41 10.8zm1-10.8h2.26v8.52c0 .35.13.49.13.49.13.14.27.14.27.14h.13l.15-.03.28 1.68c-.18.08-.47.13-.47.13-.28.05-.67.05-.67.05-.58 0-.98-.18-.98-.18-.4-.18-.64-.51-.64-.51-.24-.33-.34-.8-.34-.8-.11-.47-.11-1.06-.11-1.06V3.3zm6.6 10.8zm1-10.8h2.27v8.52c0 .35.13.49.13.49.13.14.27.14.27.14h.13l.15-.03.28 1.68c-.18.07-.47.13-.47.13-.28.05-.67.05-.67.05-.58 0-.98-.19-.98-.19-.4-.19-.64-.52-.64-.52-.23-.33-.34-.8-.34-.8-.11-.47-.11-1.06-.11-1.06V3.3zm3.4 10.8zm2.13-8.76c-.57 0-.94-.34-.94-.34-.37-.33-.37-.86-.37-.86 0-.52.37-.85.37-.85.37-.33.94-.33.94-.33.59 0 .95.32.95.32.36.32.36.84.36.84 0 .53-.36.86-.36.86-.36.33-.95.33-.95.33zm0 0zm-1.12 1.11h2.26v7.64h-2.26v-7.6zm3.25 7.64zm1-10.8h2.26v2.65l-.06 1.17c.45-.4.96-.63.96-.63.52-.23 1.06-.23 1.06-.23.69 0 1.24.28 1.24.28.56.28.95.78.95.78.4.5.6 1.22.6 1.22.21.72.21 1.6.21 1.6 0 .98-.27 1.75-.27 1.75-.27.77-.72 1.3-.72 1.3-.45.53-1.03.81-1.03.81-.58.27-1.2.27-1.2.27-.5 0-1.02-.25-1.02-.25-.51-.25-.96-.74-.96-.74h-.06l-.19.8h-1.77V3.3zm0 0zm2.26 8.64c.31.27.62.38.62.38.3.1.6.1.6.1.58 0 1-.53 1-.53.41-.54.41-1.72.41-1.72 0-2.07-1.33-2.07-1.33-2.07-.67 0-1.31.69-1.31.69v3.12zm5.56 2.15zm1-7.64h1.85l.16 1.34h.06c.41-.79 1-1.16 1-1.16.58-.37 1.17-.37 1.17-.37.32 0 .53.04.53.04.2.04.37.12.37.12l-.37 1.95c-.22-.06-.4-.09-.4-.09-.19-.03-.44-.03-.44-.03-.43 0-.9.31-.9.31-.47.31-.78 1.1-.78 1.1v4.43h-2.25v-7.6zm4.69 7.64zm.72-2.13c0-1.2 1.01-1.88 1.01-1.88 1.02-.68 3.28-.91 3.28-.91-.03-.51-.31-.81-.31-.81-.28-.3-.89-.3-.89-.3-.5 0-.99.19-.99.19-.5.18-1.05.51-1.05.51l-.8-1.5c.74-.45 1.55-.73 1.55-.73.8-.27 1.71-.27 1.71-.27 1.48 0 2.26.84 2.26.84.78.84.78 2.61.78 2.61v4.37h-1.85l-.17-.79h-.04c-.49.43-1.04.7-1.04.7-.54.27-1.19.27-1.19.27-.52 0-.94-.18-.94-.18-.41-.18-.7-.49-.7-.49-.29-.31-.45-.73-.45-.73-.16-.41-.16-.9-.16-.9zm0 0zm2.15-.17c0 .37.24.55.24.55.24.18.64.18.64.18.4 0 .67-.17.67-.17.28-.17.59-.48.59-.48V10.5c-1.21.17-1.68.49-1.68.49-.46.32-.46.77-.46.77zm5.34 2.3zm1-7.64h1.85l.15 1.34h.07c.42-.79 1-1.16 1-1.16.59-.37 1.17-.37 1.17-.37.33 0 .53.04.53.04.21.04.38.11.38.11L536 8.34c-.215-.06-.4-.09-.4-.09-.185-.03-.43-.03-.43-.03-.433 0-.9.31-.9.31-.47.31-.78 1.1-.78 1.1v4.43h-2.26v-7.6zm5.13 7.64zm2.12-8.77c-.57 0-.94-.34-.94-.34-.37-.33-.37-.86-.37-.86 0-.53.37-.85.37-.85.37-.32.94-.32.94-.32.59 0 .95.32.95.32.36.33.36.85.36.85 0 .53-.36.86-.36.86-.36.33-.95.33-.95.33zm0 0zm-1.12 1.12h2.26v7.64h-2.26v-7.6zm3.25 7.64zm.55-3.82c0-.93.31-1.68.31-1.68.31-.75.81-1.26.81-1.26.5-.52 1.15-.8 1.15-.8.65-.28 1.34-.28 1.34-.28.82 0 1.43.28 1.43.28.61.28 1.02.77 1.02.77.41.5.61 1.17.61 1.17.2.67.2 1.45.2 1.45 0 .31-.03.57-.03.57-.03.25-.07.39-.07.39h-4.57c.16.88.69 1.27.69 1.27.53.39 1.3.39 1.3.39.82 0 1.65-.51 1.65-.51l.75 1.37c-.58.4-1.3.63-1.3.63-.71.23-1.41.23-1.41.23-.81 0-1.52-.26-1.52-.26-.71-.27-1.23-.79-1.23-.79-.52-.52-.81-1.25-.81-1.25-.29-.74-.29-1.7-.29-1.7zm0 0zm4.93-.79c0-.66-.29-1.08-.29-1.08-.29-.42-.98-.42-.98-.42-.54 0-.95.36-.95.36-.41.36-.53 1.13-.53 1.13h2.76zm2.5 4.6zm1.34-2.3c.53.4 1 .6 1 .6.48.2.97.2.97.2.51 0 .74-.17.74-.17.23-.17.23-.48.23-.48 0-.19-.13-.33-.13-.33-.13-.15-.35-.27-.35-.27-.22-.12-.5-.22-.5-.22-.27-.1-.57-.22-.57-.22-.35-.14-.71-.32-.71-.32-.35-.19-.64-.46-.64-.46-.29-.27-.47-.63-.47-.63-.18-.37-.18-.84-.18-.84 0-.53.21-.97.21-.97.21-.45.6-.76.6-.76.38-.31.92-.48.92-.48.54-.18 1.2-.18 1.2-.18.88 0 1.54.3 1.54.3.67.3 1.16.67 1.16.67l-1.01 1.36c-.42-.31-.82-.48-.82-.48-.4-.17-.8-.17-.8-.17-.87 0-.87.6-.87.6 0 .18.12.31.12.31.12.13.33.24.33.24.21.1.48.2.48.2l.56.21c.37.14.73.32.73.32.36.17.66.44.66.44.3.26.48.64.48.64.19.37.19.9.19.9 0 .52-.2.97-.2.97-.2.44-.6.78-.6.78-.4.33-.99.52-.99.52-.58.2-1.35.2-1.35.2-.75 0-1.55-.3-1.55-.3-.79-.29-1.38-.77-1.38-.77zm8.69 2.29zm3.27.6v2.23h-2.27V6.46h1.85l.16.756h.06c.45-.4 1.01-.67 1.01-.67.57-.27 1.17-.27 1.17-.27.69 0 1.25.277 1.25.277.56.278.94.786.94.786.39.51.59 1.22.59 1.22.21.71.21 1.59.21 1.59 0 .98-.27 1.75-.27 1.75-.27.76-.72 1.29-.72 1.29-.45.53-1.03.81-1.03.81-.58.27-1.19.27-1.19.27-.49 0-.95-.21-.95-.21-.47-.21-.87-.6-.87-.6zm0 0zm0-2.76c.31.27.62.38.62.38.31.11.6.11.6.11.59 0 1-.53 1-.53.42-.53.42-1.72.42-1.72 0-2.07-1.32-2.07-1.32-2.07-.66 0-1.31.69-1.31.69v3.13zm5.56 2.15zm.56-3.82c0-.93.31-1.67.31-1.67.31-.75.81-1.27.81-1.27.5-.51 1.15-.79 1.15-.79.65-.28 1.34-.28 1.34-.28.82 0 1.42.28 1.42.28.61.27 1.02.77 1.02.77.41.49.61 1.16.61 1.16.2.67.2 1.45.2 1.45 0 .3-.03.56-.03.56-.03.25-.06.39-.06.39h-4.58c.15.88.68 1.27.68 1.27.53.39 1.3.39 1.3.39.82 0 1.65-.51 1.65-.51l.76 1.37c-.58.4-1.3.63-1.3.63-.71.23-1.41.23-1.41.23-.81 0-1.52-.27-1.52-.27-.71-.27-1.23-.79-1.23-.79-.52-.52-.81-1.26-.81-1.26-.3-.74-.3-1.69-.3-1.69zm0 0zm4.93-.79c0-.66-.29-1.08-.29-1.08-.29-.42-.98-.42-.98-.42-.54 0-.94.36-.94.36-.41.36-.53 1.13-.53 1.13h2.76zm2.5 4.6zm1-7.64h1.85l.15 1.34h.06c.42-.79 1-1.16 1-1.16.59-.37 1.17-.37 1.17-.37.33 0 .54.04.54.04.21.03.38.11.38.11l-.38 1.97c-.22-.06-.4-.09-.4-.09-.18-.03-.43-.03-.43-.03-.43 0-.9.31-.9.31-.47.31-.78 1.09-.78 1.09v4.44h-2.26v-7.6zm5.13 7.64zm5.31-9.04c-.43-.16-.78-.16-.78-.16-.41 0-.64.25-.64.25-.23.25-.23.84-.23.84v.46h1.37v1.8h-1.37v5.87h-2.27v-5.8h-1.02V6.55l1.02-.077v-.415c0-.6.15-1.14.15-1.14.15-.54.49-.94.49-.94.34-.4.88-.63.88-.63.54-.232 1.31-.232 1.31-.232.48 0 .87.095.87.095.39.1.65.19.65.19zm-.21 9.04zm.56-3.82c0-.96.31-1.7.31-1.7.31-.75.82-1.26.82-1.26.52-.51 1.2-.78 1.2-.78.68-.27 1.4-.27 1.4-.27.73 0 1.4.27 1.4.27.67.27 1.18.78 1.18.78.51.51.82 1.25.82 1.25.31.75.31 1.71.31 1.71 0 .96-.31 1.7-.31 1.7-.31.74-.82 1.25-.82 1.25-.51.5-1.18.77-1.18.77-.67.27-1.39.27-1.39.27-.72 0-1.4-.27-1.4-.27-.68-.27-1.19-.78-1.19-.78-.51-.51-.82-1.26-.82-1.26-.31-.75-.31-1.71-.31-1.71zm0 0zm2.32 0c0 1 .35 1.58.35 1.58.35.58 1.06.58 1.06.58.69 0 1.05-.59 1.05-.59.35-.59.35-1.59.35-1.59 0-1-.36-1.59-.36-1.59-.35-.58-1.04-.58-1.04-.58-.71 0-1.06.58-1.06.58-.34.58-.34 1.58-.34 1.58zm5.66 3.82zm1-7.64h1.85l.16 1.34h.06c.42-.79 1-1.16 1-1.16.59-.37 1.17-.37 1.17-.37.33 0 .54.04.54.04.21.03.38.11.38.11L601 8.28c-.21-.06-.4-.09-.4-.09-.18-.03-.43-.03-.43-.03-.43 0-.9.31-.9.31-.47.31-.78 1.09-.78 1.09V14h-2.26V6.4zm5.13 7.64zm1-7.64h1.85l.16.98h.06c.48-.48 1.02-.82 1.02-.82.54-.35 1.3-.35 1.3-.35.82 0 1.32.33 1.32.33.5.33.8.95.8.95.51-.52 1.07-.9 1.07-.9.56-.38 1.33-.38 1.33-.38 1.23 0 1.81.82 1.81.82.58.83.58 2.26.58 2.26v4.76h-2.27v-4.4c0-.84-.22-1.14-.22-1.14-.22-.31-.72-.31-.72-.31-.57 0-1.31.74-1.31.74v5.16h-2.26V9.65c0-.833-.23-1.14-.23-1.14-.23-.31-.72-.31-.72-.31-.59 0-1.3.74-1.3.74v5.16h-2.27V6.46zm15.4 7.64zm.37-7.64h2.25l.74 3.54c.09.57.17 1.12.17 1.12.08.56.17 1.14.17 1.14h.06l.21-1.15c.1-.57.24-1.11.24-1.11l.85-3.54h1.96l.86 3.54c.14.57.25 1.12.25 1.12l.23 1.14h.06c.11-.59.18-1.14.18-1.14.07-.55.18-1.12.18-1.12l.73-3.54h2.09L627.51 14h-2.65l-.7-3.048c-.12-.54-.22-1.08-.22-1.08l-.2-1.15h-.06l-.19 1.152c-.08.54-.19 1.08-.19 1.08l-.68 3.05H620zM629.57 14zm.556-3.82c0-.924.31-1.67.31-1.67.31-.75.81-1.263.81-1.263.5-.51 1.15-.79 1.15-.79.65-.274 1.34-.274 1.34-.274.82 0 1.43.28 1.43.28.61.28 1.02.77 1.02.77.41.49.61 1.16.61 1.16.2.67.2 1.46.2 1.46 0 .31-.03.56-.03.56-.03.25-.06.39-.06.39h-4.58c.16.87.69 1.27.69 1.27.53.39 1.3.39 1.3.39.82 0 1.65-.51 1.65-.51l.754 1.37c-.58.4-1.3.63-1.3.63-.72.23-1.41.23-1.41.23-.82 0-1.52-.265-1.52-.265-.71-.27-1.24-.79-1.24-.79-.52-.52-.81-1.258-.81-1.258-.296-.74-.296-1.69-.296-1.69zm0 0zm4.91-.77c0-.664-.29-1.08-.29-1.08-.29-.42-.985-.42-.985-.42-.54 0-.95.36-.95.36-.4.36-.53 1.13-.53 1.13H635zm2.5 4.6zm1-10.8h2.26v8.52c0 .36.13.49.13.49.13.14.27.14.27.14h.13l.15-.03.28 1.68c-.19.08-.47.13-.47.13-.29.06-.67.06-.67.06-.59 0-.99-.186-.99-.186-.4-.185-.64-.516-.64-.516-.23-.33-.34-.8-.34-.8-.11-.47-.11-1.06-.11-1.06V3.3zm3.4 10.8zm1-10.79h2.26v8.52c0 .356.13.49.13.49.13.14.27.14.27.14h.13l.14-.03.28 1.68c-.185.078-.47.13-.47.13-.28.055-.67.055-.67.055-.585 0-.985-.186-.985-.186-.4-.19-.64-.52-.64-.52-.24-.33-.34-.8-.34-.8-.1-.47-.1-1.06-.1-1.06V3.3zm3.4 10.8zm.94-1.23c0-.614.39-1.022.39-1.022.39-.41.97-.41.97-.41.58 0 .98.41.98.41.4.41.4 1.024.4 1.024 0 .6-.4 1-.4 1-.39.4-.973.4-.973.4-.59 0-.98-.4-.98-.4-.4-.41-.4-1.01-.4-1.01z"/><path fill="none" stroke="#D3D3D3" stroke-miterlimit="10" d="M52.8 738h922.16M52.8 562.25h922.16M52.8 386.5h922.16M52.8 210.75h922.16M52.8 35h922.16" stroke-dasharray="5 5"/><g fill="#5C3566" stroke-opacity="0" stroke-width="0" stroke-miterlimit="10" stroke-linejoin="bevel"><defs><clipPath id="a"><path d="M52.8 35v703h922.16V35z"/></clipPath></defs><g clip-path="url(#a)"><path stroke="none" d="M67.8 738v-4.394h154.43V738z"/></g></g><g fill-opacity="0" stroke-miterlimit="10"><defs><clipPath id="b"><path d="M52.8 35v703h922.16V35z"/></clipPath></defs><g clip-path="url(#b)"><path fill="none" d="M67.8 738v-4.394h154.43V738z"/></g></g><g fill="#5C3566" stroke-opacity="0" stroke-width="0" stroke-miterlimit="10" stroke-linejoin="bevel"><defs><clipPath id="c"><path d="M52.8 35v703h922.16V35z"/></clipPath></defs><g clip-path="url(#c)"><path stroke="none" d="M252.232 738v-27.24h154.432V738z"/></g></g><g fill-opacity="0" stroke-miterlimit="10"><defs><clipPath id="d"><path d="M52.8 35v703h922.16V35z"/></clipPath></defs><g clip-path="url(#d)"><path fill="none" d="M252.232 738v-27.24h154.432V738z"/></g></g><g fill="#5C3566" stroke-opacity="0" stroke-width="0" stroke-miterlimit="10" stroke-linejoin="bevel"><defs><clipPath id="e"><path d="M52.8 35v703h922.16V35z"/></clipPath></defs><g clip-path="url(#e)"><path stroke="none" d="M436.664 738V366.29h154.433V738z"/></g></g><g fill-opacity="0" stroke-miterlimit="10"><defs><clipPath id="f"><path d="M52.8 35v703h922.16V35z"/></clipPath></defs><g clip-path="url(#f)"><path fill="none" d="M436.664 738V366.29h154.433V738z"/></g></g><g fill="#5C3566" stroke-opacity="0" stroke-width="0" stroke-miterlimit="10" stroke-linejoin="bevel"><defs><clipPath id="g"><path d="M52.8 35v703h922.16V35z"/></clipPath></defs><g clip-path="url(#g)"><path stroke="none" d="M621.096 738V166.812H775.53V738z"/></g></g><g fill-opacity="0" stroke-miterlimit="10"><defs><clipPath id="h"><path d="M52.8 35v703h922.16V35z"/></clipPath></defs><g clip-path="url(#h)"><path fill="none" d="M621.096 738V166.812H775.53V738z"/></g></g><g fill="#5C3566" stroke-opacity="0" stroke-width="0" stroke-miterlimit="10" stroke-linejoin="bevel"><defs><clipPath id="i"><path d="M52.8 35v703h922.16V35z"/></clipPath></defs><g clip-path="url(#i)"><path stroke="none" d="M805.53 738v-68.543h154.43V738z"/></g></g><g fill-opacity="0" stroke-miterlimit="10"><defs><clipPath id="j"><path d="M52.8 35v703h922.16V35z"/></clipPath></defs><g clip-path="url(#j)"><path fill="none" d="M805.53 738v-68.543h154.43V738z"/></g></g><path fill="none" stroke-miterlimit="10" d="M52.8 738V35" stroke-linecap="square"/><path fill="none" stroke-miterlimit="10" d="M52.8 738h2m-2-87.875h2m-2-87.875h2m-2-87.875h2m-2-87.875h2m-2-87.875h2m-2-87.875h2m-2-87.875h2M52.8 35h2m-2 703h5m-5-175.75h5m-5-175.75h5m-5-175.75h5M52.8 35h5"/><path stroke="none" d="M38.503 741.445zm2.616.126c-1.02 0-1.59-.9-1.59-.9-.57-.9-.57-2.59-.57-2.59 0-1.69.57-2.57.57-2.57.56-.88 1.58-.88 1.58-.88 1 0 1.57.88 1.57.88.57.89.57 2.58.57 2.58 0 1.69-.57 2.6-.57 2.6-.57.91-1.58.91-1.58.91zm0 0zm0-.69c.29 0 .53-.16.53-.16.23-.16.41-.5.41-.5.17-.34.26-.87.26-.87.09-.53.09-1.26.09-1.26 0-.73-.1-1.26-.1-1.26-.1-.52-.27-.85-.27-.85-.18-.33-.41-.49-.41-.49-.24-.16-.53-.16-.53-.16-.3 0-.54.16-.54.16-.24.16-.42.49-.42.49-.18.33-.27.86-.27.86-.1.53-.1 1.26-.1 1.26 0 1.47.36 2.14.36 2.14.36.67.95.67.95.67zM27.97 565.7zm.42-.514c.756-.754 1.345-1.363 1.345-1.363.59-.61.987-1.13.987-1.13.4-.52.61-.955.61-.955.21-.434.21-.844.21-.844 0-.576-.317-.944-.317-.944-.313-.37-.954-.37-.954-.37-.42 0-.77.24-.77.24-.35.235-.65.57-.65.57l-.49-.492c.42-.462.9-.74.9-.74.47-.28 1.13-.28 1.13-.28.94 0 1.47.543 1.47.543.54.54.54 1.44.54 1.44 0 .47-.2.95-.2.95-.2.48-.57.99-.57.99-.36.51-.86 1.06-.86 1.06-.49.56-1.09 1.18-1.09 1.18l.57-.04c.3-.02.56-.02.56-.02h1.95v.75H28.4v-.51zm4.8.517zm2.616.126c-1.02 0-1.586-.91-1.586-.91-.567-.9-.567-2.6-.567-2.6 0-1.69.57-2.58.57-2.58.565-.88 1.584-.88 1.584-.88 1.01 0 1.576.88 1.576.88.57.88.57 2.57.57 2.57 0 1.69-.568 2.59-.568 2.59-.567.9-1.576.9-1.576.9zm0 0zm0-.7c.294 0 .53-.16.53-.16.237-.16.41-.5.41-.5.174-.34.27-.87.27-.87.094-.53.094-1.27.094-1.27 0-.74-.095-1.26-.095-1.26-.093-.53-.267-.86-.267-.86-.173-.33-.41-.49-.41-.49-.236-.16-.53-.16-.53-.16-.294 0-.536.16-.536.16-.24.15-.415.48-.415.48-.174.33-.268.85-.268.85-.1.52-.1 1.26-.1 1.26 0 1.47.37 2.14.37 2.14.36.66.95.66.95.66zm2.605.57zm2.62.13c-1.02 0-1.58-.9-1.58-.9-.57-.9-.57-2.6-.57-2.6 0-1.69.57-2.58.57-2.58.57-.88 1.59-.88 1.59-.88 1.01 0 1.58.88 1.58.88.57.88.57 2.57.57 2.57 0 1.69-.57 2.59-.57 2.59-.56.9-1.57.9-1.57.9zm0 0zm0-.69c.3 0 .53-.16.53-.16.24-.17.41-.51.41-.51.18-.34.27-.87.27-.87.09-.53.09-1.27.09-1.27 0-.74-.09-1.26-.09-1.26-.1-.53-.27-.86-.27-.86-.17-.33-.41-.49-.41-.49-.23-.16-.53-.16-.53-.16-.29 0-.53.16-.53.16-.24.15-.41.48-.41.48-.17.33-.27.85-.27.85-.09.52-.09 1.26-.09 1.26 0 1.47.37 2.14.37 2.14.36.67.95.67.95.67zM27.78 389.95zm3.192-2.54v-1.945c0-.272.015-.645.015-.645.014-.372.035-.645.035-.645h-.044c-.125.24-.26.475-.26.475-.137.232-.284.473-.284.473l-1.565 2.29h2.1zm0 0zm1.733.692h-.913v1.846h-.818v-1.85h-3.01v-.57l2.866-4.288h.966v4.16h.915v.693zm.295 1.846zm2.61.124c-1.015 0-1.583-.9-1.583-.9-.567-.903-.567-2.595-.567-2.595 0-1.69.566-2.57.566-2.57.57-.88 1.587-.88 1.587-.88 1.01 0 1.577.88 1.577.88.563.88.563 2.573.563 2.573 0 1.69-.57 2.592-.57 2.592-.568.903-1.576.903-1.576.903zm0 0zm0-.69c.298 0 .53-.163.53-.163.24-.17.41-.51.41-.51.177-.34.27-.87.27-.87.096-.53.096-1.27.096-1.27 0-.74-.093-1.26-.093-1.26-.093-.53-.266-.86-.266-.86-.174-.33-.41-.49-.41-.49-.236-.16-.53-.16-.53-.16-.295 0-.536.16-.536.16-.24.15-.41.49-.41.49-.17.33-.26.85-.26.85-.09.52-.09 1.26-.09 1.26 0 1.47.37 2.14.37 2.14.37.66.95.66.95.66zm2.608.567zm2.615.12c-1.02 0-1.584-.9-1.584-.9-.57-.9-.57-2.6-.57-2.6 0-1.69.56-2.57.56-2.57.56-.89 1.58-.89 1.58-.89 1.01 0 1.57.88 1.57.88.57.88.57 2.57.57 2.57 0 1.69-.57 2.59-.57 2.59-.57.9-1.58.9-1.58.9zm0 0zm0-.69c.296 0 .53-.16.53-.16.24-.17.41-.51.41-.51.176-.34.27-.87.27-.87.096-.53.096-1.27.096-1.27 0-.74-.1-1.26-.1-1.26-.09-.53-.27-.86-.27-.86-.18-.33-.41-.49-.41-.49-.24-.16-.53-.16-.53-.16-.3 0-.54.16-.54.16-.24.15-.42.49-.42.49-.18.33-.27.85-.27.85-.1.52-.1 1.26-.1 1.26 0 1.47.36 2.14.36 2.14.36.67.95.67.95.67zM28.1 214.2zm2.817-.556c.25 0 .46-.106.46-.106.21-.105.37-.3.37-.3.155-.194.245-.462.245-.462.09-.267.09-.603.09-.603 0-.66-.306-1.04-.306-1.04-.305-.38-.936-.38-.936-.38-.314 0-.686.207-.686.207-.373.205-.71.677-.71.677.085.99.457 1.498.457 1.498.38.51 1.02.51 1.02.51zm0 0zm1.374-5.022c-.21-.242-.5-.384-.5-.384-.28-.142-.6-.142-.6-.142-.34 0-.66.15-.66.15-.31.146-.56.482-.56.482-.24.336-.39.877-.39.877-.14.54-.15 1.34-.15 1.34.32-.39.74-.615.74-.615.42-.226.83-.226.83-.226.87 0 1.39.513 1.39.513.52.514.52 1.554.52 1.554 0 .48-.15.88-.15.88-.16.4-.43.68-.43.68-.27.29-.63.44-.63.44-.36.16-.77.16-.77.16-.49 0-.91-.2-.91-.2-.42-.2-.73-.6-.73-.6-.31-.4-.48-1.01-.48-1.01-.18-.6-.18-1.41-.18-1.41 0-1.01.21-1.72.21-1.72.21-.71.57-1.15.57-1.15.36-.44.82-.65.82-.65.46-.2.96-.2.96-.2.55 0 .94.21.94.21.4.21.68.51.68.51zm1.03 5.577zm2.62.12c-1.02 0-1.58-.9-1.58-.9-.56-.91-.56-2.6-.56-2.6 0-1.69.57-2.58.57-2.58.57-.88 1.59-.88 1.59-.88 1.01 0 1.58.88 1.58.88.57.88.57 2.57.57 2.57 0 1.69-.56 2.59-.56 2.59-.56.9-1.57.9-1.57.9zm0 0zm0-.69c.3 0 .53-.17.53-.17.24-.17.41-.51.41-.51.18-.34.27-.87.27-.87.1-.53.1-1.27.1-1.27 0-.74-.09-1.26-.09-1.26-.09-.53-.27-.86-.27-.86-.17-.33-.41-.49-.41-.49-.23-.16-.53-.16-.53-.16-.29 0-.53.16-.53.16-.24.15-.41.48-.41.48-.17.33-.26.86-.26.86-.09.52-.09 1.26-.09 1.26 0 1.47.37 2.14.37 2.14.36.67.95.67.95.67zm2.61.56zm2.62.12c-1.01 0-1.58-.9-1.58-.9-.57-.91-.57-2.6-.57-2.6 0-1.69.57-2.58.57-2.58.57-.88 1.59-.88 1.59-.88 1.01 0 1.58.88 1.58.88.57.88.57 2.57.57 2.57 0 1.69-.56 2.59-.56 2.59-.56.9-1.57.9-1.57.9zm0 0zm0-.69c.3 0 .53-.17.53-.17.24-.16.41-.5.41-.5.18-.34.27-.87.27-.87.1-.53.1-1.27.1-1.27 0-.74-.09-1.26-.09-1.26-.09-.53-.27-.86-.27-.86-.17-.33-.41-.49-.41-.49-.23-.16-.53-.16-.53-.16-.29 0-.53.16-.53.16-.24.16-.41.49-.41.49-.17.33-.27.85-.27.85-.09.52-.09 1.26-.09 1.26 0 1.47.36 2.14.36 2.14.36.66.95.66.95.66zM28.03 38.44zm1.208-1.794c0 .28.11.51.11.51.11.23.305.41.305.41.195.176.457.27.457.27.263.095.567.095.567.095.59 0 .95-.32.95-.32.363-.33.363-.85.363-.85 0-.33-.147-.56-.147-.56-.147-.23-.4-.41-.4-.41-.25-.17-.582-.31-.582-.31l-.68-.29c-.4.28-.66.64-.66.64-.27.36-.27.83-.27.83zm0 0zm1.89-1.86c.337-.31.52-.64.52-.64.185-.34.185-.71.185-.71 0-.503-.305-.844-.305-.844-.304-.343-.86-.343-.86-.343-.474 0-.778.29-.778.29-.305.29-.305.79-.305.79 0 .3.126.52.126.52.13.21.35.38.35.38.22.17.5.3.5.3.28.13.59.25.59.25zm0 0zm-2.668 1.94c0-.327.11-.606.11-.606.113-.28.286-.505.286-.505.173-.22.4-.4.4-.4.225-.17.467-.3.467-.3v-.04c-.368-.26-.652-.63-.652-.63-.28-.37-.28-.91-.28-.91 0-.39.15-.7.15-.7.15-.316.4-.54.4-.54.25-.227.6-.35.6-.35.35-.128.76-.128.76-.128.44 0 .79.13.79.13.35.13.6.37.6.37.25.24.38.57.38.57.14.33.14.72.14.72 0 .27-.09.51-.09.51-.09.24-.22.45-.22.45-.13.21-.29.375-.29.375-.16.167-.32.283-.32.283v.043c.22.127.43.29.43.29.21.16.38.367.38.367.17.2.27.466.27.466.1.26.1.6.1.6 0 .38-.16.71-.16.71-.16.32-.44.56-.44.56-.28.25-.68.38-.68.38-.4.14-.88.14-.88.14-.47 0-.88-.13-.88-.13-.4-.13-.69-.38-.69-.38-.29-.24-.45-.58-.45-.58-.17-.33-.17-.73-.17-.73zm4.79 1.71zm2.618.126c-1.02 0-1.586-.902-1.586-.902-.567-.903-.567-2.595-.567-2.595 0-1.69.567-2.57.567-2.57.568-.88 1.587-.88 1.587-.88 1 0 1.57.88 1.57.88.56.88.56 2.577.56 2.577 0 1.693-.57 2.596-.57 2.596-.57.903-1.58.903-1.58.903zm0 0zm0-.692c.294 0 .53-.163.53-.163.236-.16.41-.504.41-.504.173-.34.268-.87.268-.87.094-.53.094-1.27.094-1.27 0-.74-.095-1.26-.095-1.26-.095-.53-.268-.86-.268-.86-.174-.33-.41-.49-.41-.49-.236-.16-.53-.16-.53-.16-.295 0-.536.16-.536.16-.24.156-.41.487-.41.487-.17.33-.27.856-.27.856-.09.52-.09 1.26-.09 1.26 0 1.47.36 2.13.36 2.13.36.67.95.67.95.67zm2.605.567zm2.615.126c-1.02 0-1.586-.9-1.586-.9-.566-.91-.566-2.6-.566-2.6 0-1.69.567-2.578.567-2.578.568-.88 1.587-.88 1.587-.88 1.01 0 1.576.88 1.576.88.567.88.567 2.572.567 2.572 0 1.7-.567 2.6-.567 2.6-.567.9-1.576.9-1.576.9zm0 0zm0-.69c.294 0 .53-.17.53-.17.237-.16.41-.507.41-.507.174-.34.268-.87.268-.87.095-.53.095-1.27.095-1.27 0-.74-.09-1.26-.09-1.26-.09-.53-.27-.86-.27-.86-.17-.33-.41-.49-.41-.49-.23-.16-.53-.16-.53-.16-.29 0-.53.16-.53.16-.24.16-.41.49-.41.49-.17.33-.27.855-.27.855-.09.53-.09 1.26-.09 1.26 0 1.47.37 2.14.37 2.14.36.67.95.67.95.67z"/><path fill="none" stroke-miterlimit="10" d="M52.8 738h922.16" stroke-linecap="square"/><path stroke="none" d="M102.216 758zm.967-1.502c.367.39.866.625.866.625.49.236 1.03.236 1.03.236.68 0 1.06-.31 1.06-.31.38-.31.38-.82.38-.82 0-.26-.09-.45-.09-.45-.09-.19-.24-.32-.24-.32-.15-.13-.36-.24-.36-.24-.21-.11-.46-.22-.46-.22l-.99-.43c-.24-.11-.5-.26-.5-.26-.25-.15-.45-.36-.45-.36-.2-.21-.33-.5-.33-.5-.13-.29-.13-.67-.13-.67 0-.39.16-.73.16-.73.16-.34.45-.59.45-.59.29-.25.68-.39.68-.39.39-.14.87-.14.87-.14.62 0 1.14.23 1.14.23.53.24.89.61.89.61l-.48.56c-.32-.31-.7-.48-.7-.48-.38-.17-.87-.17-.87-.17-.58 0-.93.26-.93.26-.36.27-.36.74-.36.74 0 .25.1.42.1.42.1.17.27.3.27.3.17.14.37.23.37.23.2.1.41.19.41.19l.98.42c.29.13.55.29.55.29.26.16.45.38.45.38.19.21.3.5.3.5.11.29.11.66.11.66 0 .41-.16.76-.16.76-.16.35-.47.62-.47.62-.31.26-.74.42-.74.42-.43.15-.98.15-.98.15-.72 0-1.34-.27-1.34-.27-.62-.27-1.08-.75-1.08-.75zm4.642 1.502zm1.01-4.4h-.757v-.653l.798-.052.105-1.43h.73v1.43h1.38v.704h-1.37v2.83c0 .47.18.73.18.73.18.25.62.25.62.25.14 0 .3-.04.3-.04.16-.05.29-.1.29-.1l.17.65c-.21.07-.45.13-.45.13-.24.05-.49.05-.49.05-.41 0-.69-.13-.69-.13-.28-.13-.45-.35-.45-.35-.17-.22-.24-.54-.24-.54-.07-.32-.07-.7-.07-.7v-2.82zm2.54 4.4zm.862-5.105h.715l.073.924h.03c.264-.49.637-.77.637-.77.373-.29.814-.29.814-.29.305 0 .546.1.546.1l-.168.75c-.126-.04-.23-.07-.23-.07-.106-.02-.264-.02-.264-.02-.325 0-.677.26-.677.26-.352.26-.615.91-.615.91v3.3h-.86v-5.11zm2.68 5.105zm.482-2.542c0-.64.19-1.14.19-1.14.19-.5.52-.845.52-.845.32-.347.75-.525.75-.525.42-.18.9-.18.9-.18.47 0 .89.18.89.18.42.178.75.525.75.525.32.346.52.845.52.845.19.5.19 1.14.19 1.14 0 .63-.2 1.13-.2 1.13-.2.498-.52.84-.52.84-.33.34-.75.52-.75.52-.43.178-.9.178-.9.178-.47 0-.9-.18-.9-.18-.43-.177-.75-.52-.75-.52-.33-.34-.52-.84-.52-.84-.2-.498-.2-1.128-.2-1.128zm0 0zm.89 0c0 .44.1.798.1.798.1.357.3.615.3.615.19.26.46.4.46.4.27.15.6.15.6.15.32 0 .6-.14.6-.14.27-.14.46-.4.46-.4.19-.25.3-.61.3-.61.1-.35.1-.8.1-.8 0-.44-.11-.8-.11-.8-.11-.36-.3-.62-.3-.62-.2-.26-.47-.4-.47-.4-.28-.14-.6-.14-.6-.14-.33 0-.6.14-.6.14-.28.14-.47.41-.47.41-.2.26-.3.63-.3.63-.11.37-.11.81-.11.81zm4.32 2.542zm.86-5.105h.71l.07.735h.03c.36-.367.77-.614.77-.614.4-.247.94-.247.94-.247.81 0 1.18.5 1.18.5.37.5.37 1.49.37 1.49V758h-.86v-3.12c0-.724-.24-1.045-.24-1.045-.23-.32-.74-.32-.74-.32-.4 0-.71.2-.71.2-.31.2-.69.588-.69.588V758h-.86v-5.105zm4.88 5.105zm1.23.86c0 .41.39.653.39.653.39.24 1.08.24 1.08.24.36 0 .66-.088.66-.088.3-.09.51-.23.51-.23.21-.143.32-.332.32-.332.11-.19.11-.39.11-.39 0-.356-.26-.492-.26-.492-.27-.13-.77-.13-.77-.13h-.88c-.15 0-.32-.01-.32-.01-.18-.01-.34-.07-.34-.07-.28.2-.4.42-.4.42-.13.22-.13.44-.13.44zm0 0zm-.76.117c0-.326.2-.62.2-.62.2-.294.54-.535.54-.535v-.042c-.19-.116-.32-.32-.32-.32-.13-.206-.13-.51-.13-.51 0-.326.18-.568.18-.568.18-.24.37-.378.37-.378v-.042c-.25-.21-.46-.562-.46-.562-.21-.352-.21-.814-.21-.814 0-.42.15-.756.15-.756.15-.336.41-.573.41-.573.26-.236.61-.362.61-.362.35-.126.74-.126.74-.126.21 0 .39.03.39.03.18.03.33.09.33.09h1.77v.66h-1.05c.17.18.3.45.3.45.12.27.12.6.12.6 0 .41-.15.74-.15.74-.15.33-.4.55-.4.55-.25.22-.59.35-.59.35-.34.12-.73.12-.73.12-.19 0-.39-.05-.39-.05-.2-.05-.38-.13-.38-.13-.14.11-.23.25-.23.25-.1.14-.1.35-.1.35 0 .24.19.4.19.4.19.16.71.16.71.16h.98c.89 0 1.34.29 1.34.29.45.28.45.92.45.92 0 .35-.18.67-.18.67-.18.32-.52.56-.52.56-.34.24-.82.38-.82.38-.47.14-1.07.14-1.07.14-.48 0-.86-.09-.86-.09-.39-.09-.67-.27-.67-.27-.28-.18-.43-.43-.43-.43-.16-.25-.16-.59-.16-.59zm0 0zm2.11-3.172c.22 0 .41-.084.41-.084.19-.08.34-.24.34-.24.15-.16.23-.38.23-.38.08-.22.08-.51.08-.51 0-.56-.32-.87-.32-.87-.32-.31-.77-.31-.77-.31-.45 0-.77.31-.77.31-.32.31-.32.88-.32.88 0 .29.08.51.08.51.08.23.24.39.24.39.15.16.34.24.34.24.19.09.41.09.41.09zm2.71 2.195zm.86-7.48h.86v6.514c0 .21.07.294.07.294.07.084.17.084.17.084h.08l.11-.02.11.65c-.09.042-.2.063-.2.063-.12.02-.3.02-.3.02-.5 0-.71-.293-.71-.293-.21-.294-.21-.86-.21-.86v-6.45zm1.81 7.48zm.51 1.408l.19.047.2.026c.44 0 .72-.31.72-.31.28-.31.43-.78.43-.78l.11-.38-2.05-5.11h.89l1.04 2.83.25.71c.13.37.25.73.25.73h.04c.11-.34.22-.72.22-.72.1-.38.21-.71.21-.71l.91-2.82h.84l-1.92 5.53c-.14.38-.31.7-.31.7-.17.33-.4.56-.4.56-.23.24-.53.38-.53.38-.3.14-.69.14-.69.14-.18 0-.33-.02-.33-.02-.15-.02-.28-.08-.28-.08l.17-.68zm6.52-1.408zm.49-2.542c0-.62.18-1.12.18-1.12.18-.498.49-.844.49-.844.3-.347.7-.536.7-.536.4-.19.84-.19.84-.19.44 0 .76.158.76.158.32.158.66.43.66.43l-.04-.87v-1.965h.87V758h-.72l-.08-.6h-.03c-.31.295-.7.51-.7.51-.4.216-.85.216-.85.216-.97 0-1.54-.693-1.54-.693-.57-.693-.57-1.975-.57-1.975zm0 0zm.89-.01c0 .924.37 1.44.37 1.44.36.513 1.04.513 1.04.513.35 0 .67-.17.67-.17.31-.17.63-.53.63-.53v-2.67c-.33-.29-.63-.41-.63-.41-.3-.12-.61-.12-.61-.12-.3 0-.57.14-.57.14-.27.15-.47.4-.47.4-.2.26-.31.62-.31.62-.12.36-.12.8-.12.8zm4.45 2.552zm1.3-6.155c-.26 0-.43-.158-.43-.158-.18-.158-.18-.4-.18-.4 0-.25.17-.404.17-.404.17-.152.42-.152.42-.152.25 0 .42.16.42.16.17.16.17.41.17.41 0 .24-.18.4-.18.4-.18.16-.43.16-.43.16zm0 0zm-.44 1.05h.86V758h-.86v-5.105zm1.72 5.105zm.72-1.155c.33.273.68.44.68.44.35.17.81.17.81.17.5 0 .75-.232.75-.232.25-.23.25-.567.25-.567 0-.2-.11-.347-.11-.347-.11-.15-.27-.26-.27-.26-.16-.11-.37-.2-.37-.2l-.42-.17c-.28-.1-.55-.22-.55-.22-.28-.12-.49-.3-.49-.3-.22-.18-.35-.41-.35-.41-.14-.23-.14-.56-.14-.56 0-.31.12-.58.12-.58.12-.27.34-.46.34-.46.22-.19.55-.31.55-.31.32-.11.73-.11.73-.11.48 0 .89.17.89.17.4.16.7.41.7.41l-.41.54c-.26-.2-.54-.33-.54-.33-.29-.13-.62-.13-.62-.13-.49 0-.71.22-.71.22-.23.22-.23.51-.23.51 0 .18.09.31.09.31.09.13.25.23.25.23.16.1.36.18.36.18l.42.16c.27.1.55.22.55.22.28.11.5.29.5.29.22.17.36.42.36.42.14.25.14.61.14.61 0 .31-.12.59-.12.59-.12.27-.36.48-.36.48-.23.21-.59.33-.59.33-.35.12-.8.12-.8.12-.55 0-1.04-.2-1.04-.2-.49-.2-.86-.51-.86-.51zm3.68 1.155zm.61-1.323c0-.84.75-1.287.75-1.287.75-.447 2.39-.625 2.39-.625 0-.242-.05-.473-.05-.473-.05-.23-.17-.41-.17-.41-.12-.178-.32-.29-.32-.29-.2-.11-.52-.11-.52-.11-.46 0-.84.17-.84.17-.39.167-.69.377-.69.377l-.35-.6c.35-.23.87-.45.87-.45.51-.22 1.13-.22 1.13-.22.93 0 1.35.57 1.35.57.42.57.42 1.53.42 1.53V758h-.71l-.08-.61h-.02c-.37.306-.8.52-.8.52-.43.216-.9.216-.9.216-.65 0-1.08-.378-1.08-.378-.42-.378-.42-1.07-.42-1.07zm0 0zm.85-.064c0 .442.25.63.25.63.26.19.63.19.63.19.36 0 .7-.173.7-.173.33-.174.7-.51.7-.51v-1.418c-.64.084-1.08.2-1.08.2-.44.115-.71.273-.71.273-.27.157-.39.362-.39.362-.12.205-.12.446-.12.446zm3.91 1.387zm1.23.86c0 .41.39.653.39.653.39.24 1.09.24 1.09.24.36 0 .66-.088.66-.088.3-.09.51-.23.51-.23.21-.143.32-.332.32-.332.11-.19.11-.39.11-.39 0-.356-.27-.492-.27-.492-.26-.13-.77-.13-.77-.13h-.89c-.15 0-.32-.01-.32-.01-.18-.01-.35-.07-.35-.07-.28.2-.4.42-.4.42-.13.22-.13.44-.13.44zm0 0zm-.76.117c0-.326.2-.62.2-.62.2-.294.55-.535.55-.535v-.042c-.19-.116-.32-.32-.32-.32-.14-.206-.14-.51-.14-.51 0-.326.18-.568.18-.568.18-.24.38-.378.38-.378v-.042c-.26-.21-.46-.562-.46-.562-.21-.352-.21-.814-.21-.814 0-.42.15-.756.15-.756.15-.336.41-.573.41-.573.26-.236.61-.362.61-.362.35-.126.74-.126.74-.126.21 0 .39.03.39.03.19.03.33.09.33.09h1.78v.66h-1.05c.18.18.3.45.3.45.12.27.12.6.12.6 0 .41-.15.74-.15.74-.15.33-.4.55-.4.55-.25.22-.6.35-.6.35-.34.12-.73.12-.73.12-.19 0-.39-.05-.39-.05-.2-.05-.38-.13-.38-.13-.14.11-.23.25-.23.25-.1.14-.1.35-.1.35 0 .24.19.4.19.4.19.16.71.16.71.16h.99c.89 0 1.34.29 1.34.29.45.28.45.92.45.92 0 .35-.18.67-.18.67-.18.32-.52.56-.52.56-.34.24-.81.38-.81.38-.48.14-1.08.14-1.08.14-.48 0-.86-.09-.86-.09-.39-.09-.67-.27-.67-.27-.28-.18-.43-.43-.43-.43-.16-.25-.16-.59-.16-.59zm0 0zm2.11-3.172c.22 0 .41-.084.41-.084.19-.08.34-.24.34-.24.15-.16.24-.38.24-.38.08-.22.08-.51.08-.51 0-.56-.32-.87-.32-.87-.32-.31-.77-.31-.77-.31-.45 0-.76.31-.76.31-.32.31-.32.88-.32.88 0 .29.08.51.08.51.08.23.23.39.23.39.16.16.35.24.35.24.2.09.42.09.42.09zm2.71 2.195zm.86-5.105h.71l.07.924h.03c.26-.49.64-.77.64-.77.37-.29.81-.29.81-.29.3 0 .54.1.54.1l-.17.75c-.12-.04-.23-.07-.23-.07-.1-.02-.26-.02-.26-.02-.33 0-.68.26-.68.26-.35.26-.61.91-.61.91v3.3h-.86v-5.11zm2.68 5.105zm.48-2.542c0-.63.19-1.13.19-1.13.19-.498.51-.845.51-.845.32-.346.73-.53.73-.53.41-.184.85-.184.85-.184.48 0 .86.16.86.16.38.17.64.48.64.48.26.31.39.75.39.75.13.44.13.98.13.98 0 .28-.03.47-.03.47h-3.44c.05.83.51 1.31.51 1.31.45.48 1.19.48 1.19.48.37 0 .68-.11.68-.11.31-.11.59-.29.59-.29l.31.56c-.34.21-.75.37-.75.37-.41.16-.94.16-.94.16-.51 0-.96-.19-.96-.19-.45-.19-.78-.53-.78-.53-.33-.34-.52-.84-.52-.84-.19-.5-.19-1.13-.19-1.13zm0 0zm3.57-.39c0-.786-.33-1.2-.33-1.2-.34-.416-.93-.416-.93-.416-.28 0-.52.11-.52.11-.25.11-.45.315-.45.315-.2.205-.33.504-.33.504-.13.3-.18.69-.18.69h2.73zm1.16 2.932zm.48-2.542c0-.63.19-1.13.19-1.13.19-.498.51-.845.51-.845.32-.346.73-.53.73-.53.41-.184.85-.184.85-.184.48 0 .87.16.87.16.38.17.64.48.64.48.26.31.39.75.39.75.13.44.13.98.13.98 0 .28-.03.47-.03.47h-3.44c.05.83.51 1.31.51 1.31.46.48 1.19.48 1.19.48.37 0 .68-.11.68-.11.31-.11.59-.29.59-.29l.3.56c-.34.21-.75.37-.75.37-.41.16-.93.16-.93.16-.52 0-.96-.19-.96-.19-.45-.19-.78-.53-.78-.53-.33-.34-.52-.84-.52-.84-.19-.5-.19-1.13-.19-1.13zm0 0zm3.57-.39c0-.786-.33-1.2-.33-1.2-.34-.416-.93-.416-.93-.416-.28 0-.52.11-.52.11-.25.11-.45.315-.45.315-.2.205-.33.504-.33.504-.13.3-.17.69-.17.69h2.73zM178.8 758zm.683-4.317c0-.305.184-.49.184-.49.183-.182.445-.182.445-.182.252 0 .436.19.436.19.187.19.187.49.187.49 0 .28-.184.47-.184.47-.18.19-.43.19-.43.19-.26 0-.44-.18-.44-.18-.18-.18-.18-.46-.18-.46zm0 0zm0 3.792c0-.305.184-.49.184-.49.183-.182.445-.182.445-.182.252 0 .436.183.436.183.187.184.187.49.187.49 0 .282-.184.466-.184.466-.18.184-.43.184-.43.184-.26 0-.44-.184-.44-.184-.18-.184-.18-.467-.18-.467zm4.055.525zm.684-1.355c.294.305.698.536.698.536.405.24.994.24.994.24.304 0 .572-.11.572-.11.268-.11.468-.31.468-.31.2-.2.315-.48.315-.48.11-.28.11-.63.11-.63 0-.69-.39-1.08-.39-1.08-.39-.39-1.04-.39-1.04-.39-.35 0-.59.11-.59.11-.25.11-.55.31-.55.31l-.47-.29.22-3.22h3.35v.75h-2.6l-.18 1.99c.24-.13.48-.2.48-.2.24-.07.54-.07.54-.07.43 0 .81.13.81.13.38.13.66.39.66.39.28.26.45.65.45.65.16.4.16.94.16.94 0 .55-.19.97-.19.97-.19.42-.51.71-.51.71-.31.29-.72.44-.72.44-.4.15-.84.15-.84.15-.4 0-.73-.08-.73-.08-.33-.08-.6-.2-.6-.2-.27-.12-.49-.28-.49-.28-.22-.16-.39-.34-.39-.34zM303.596 758zm.946-6.89h1.723c1.597 0 2.427.882 2.427.882.83.882.83 2.53.83 2.53 0 .82-.21 1.466-.21 1.466-.21.646-.62 1.093-.62 1.093-.41.45-1.01.69-1.01.69-.598.24-1.375.24-1.375.24h-1.765v-6.89zm0 0zm1.66 6.176c1.208 0 1.812-.725 1.812-.725.604-.72.604-2.03.604-2.03 0-1.31-.604-2-.604-2-.604-.69-1.812-.69-1.812-.69h-.788v5.46h.788zm3.855.714zm1.303-6.155c-.252 0-.426-.158-.426-.158-.173-.158-.173-.4-.173-.4 0-.25.18-.404.18-.404.18-.152.43-.152.43-.152.26 0 .43.16.43.16.18.16.18.41.18.41 0 .24-.17.4-.17.4-.17.16-.42.16-.42.16zm0 0zm-.442 1.05h.862V758h-.86v-5.105zM312.64 758zm.727-1.155c.336.273.688.44.688.44.352.17.814.17.814.17.5 0 .75-.232.75-.232.25-.23.25-.567.25-.567 0-.2-.11-.347-.11-.347-.11-.15-.27-.26-.27-.26-.17-.11-.38-.2-.38-.2l-.42-.17c-.28-.1-.55-.22-.55-.22-.28-.12-.49-.3-.49-.3-.22-.18-.36-.41-.36-.41-.14-.23-.14-.56-.14-.56 0-.31.12-.58.12-.58.12-.27.35-.46.35-.46.22-.19.55-.31.55-.31.32-.11.73-.11.73-.11.48 0 .88.17.88.17.4.16.69.41.69.41l-.41.54c-.27-.2-.55-.33-.55-.33-.29-.13-.62-.13-.62-.13-.49 0-.71.22-.71.22-.23.22-.23.51-.23.51 0 .18.09.31.09.31.09.13.25.23.25.23.15.1.36.18.36.18l.42.16c.28.1.55.22.55.22.28.11.5.29.5.29.22.17.36.42.36.42.14.25.14.61.14.61 0 .31-.12.59-.12.59-.12.27-.36.48-.36.48-.24.21-.59.33-.59.33-.36.12-.81.12-.81.12-.55 0-1.04-.2-1.04-.2-.5-.2-.86-.51-.86-.51zm3.676 1.155zm.61-1.323c0-.84.75-1.287.75-1.287.752-.447 2.39-.625 2.39-.625 0-.242-.047-.473-.047-.473-.047-.23-.168-.41-.168-.41-.12-.178-.32-.29-.32-.29-.2-.11-.515-.11-.515-.11-.452 0-.835.17-.835.17-.383.167-.688.377-.688.377l-.348-.6c.357-.23.872-.45.872-.45.515-.22 1.135-.22 1.135-.22.93 0 1.35.57 1.35.57.42.57.42 1.53.42 1.53V758h-.72l-.08-.61h-.02c-.37.306-.8.52-.8.52-.43.216-.9.216-.9.216-.65 0-1.08-.378-1.08-.378-.43-.378-.43-1.07-.43-1.07zm0 0zm.85-.064c0 .442.258.63.258.63.26.19.64.19.64.19.37 0 .7-.173.7-.173.33-.174.7-.51.7-.51v-1.418c-.64.084-1.08.2-1.08.2-.44.115-.71.273-.71.273-.27.157-.38.362-.38.362-.11.205-.11.446-.11.446zm3.92 1.387zm1.228.86c0 .41.4.653.4.653.4.24 1.09.24 1.09.24.37 0 .67-.088.67-.088.3-.09.51-.23.51-.23.21-.143.33-.332.33-.332.12-.19.12-.39.12-.39 0-.356-.26-.492-.26-.492-.26-.13-.77-.13-.77-.13h-.88c-.14 0-.32-.01-.32-.01-.17-.01-.34-.07-.34-.07-.27.2-.4.42-.4.42-.12.22-.12.44-.12.44zm0 0zm-.75.117c0-.326.2-.62.2-.62.2-.294.55-.535.55-.535v-.042c-.19-.116-.32-.32-.32-.32-.13-.206-.13-.51-.13-.51 0-.326.18-.568.18-.568.18-.24.38-.378.38-.378v-.042c-.25-.21-.45-.562-.45-.562-.2-.352-.2-.814-.2-.814 0-.42.15-.756.15-.756.15-.336.42-.573.42-.573.27-.236.62-.362.62-.362.35-.126.74-.126.74-.126.21 0 .4.03.4.03.18.03.33.09.33.09h1.78v.66h-1.05c.18.18.3.45.3.45.12.27.12.6.12.6 0 .41-.15.74-.15.74-.14.33-.4.55-.4.55-.25.22-.59.35-.59.35-.34.12-.73.12-.73.12-.19 0-.39-.05-.39-.05-.2-.05-.37-.13-.37-.13-.13.11-.23.25-.23.25-.09.14-.09.35-.09.35 0 .24.19.4.19.4.19.16.72.16.72.16h.99c.9 0 1.34.29 1.34.29.45.28.45.92.45.92 0 .35-.18.67-.18.67-.18.32-.51.56-.51.56-.33.24-.81.38-.81.38-.47.14-1.07.14-1.07.14-.47 0-.86-.09-.86-.09-.39-.09-.67-.27-.67-.27-.28-.18-.43-.43-.43-.43-.15-.25-.15-.59-.15-.59zm0 0zm2.11-3.172c.22 0 .42-.084.42-.084.2-.08.35-.24.35-.24.15-.16.24-.38.24-.38.09-.22.09-.51.09-.51 0-.56-.32-.87-.32-.87-.31-.31-.76-.31-.76-.31-.45 0-.76.31-.76.31-.31.31-.31.88-.31.88 0 .29.09.51.09.51.09.23.24.39.24.39.15.16.35.24.35.24.2.09.42.09.42.09zm2.71 2.195zm.86-5.105h.72l.08.924h.03c.27-.49.64-.77.64-.77.38-.29.82-.29.82-.29.31 0 .55.1.55.1l-.16.75-.23-.07c-.11-.02-.26-.02-.26-.02-.32 0-.68.26-.68.26-.35.26-.61.91-.61.91v3.3h-.86v-5.11zm2.68 5.105zm.49-2.542c0-.63.2-1.13.2-1.13.2-.498.52-.845.52-.845.32-.346.73-.53.73-.53.41-.184.85-.184.85-.184.49 0 .87.16.87.16.39.17.64.48.64.48.26.31.4.75.4.75.14.44.14.98.14.98 0 .28-.03.47-.03.47h-3.45c.05.83.51 1.31.51 1.31.46.48 1.19.48 1.19.48.37 0 .68-.11.68-.11.31-.11.59-.29.59-.29l.31.56c-.33.21-.74.37-.74.37-.41.16-.93.16-.93.16-.51 0-.96-.19-.96-.19-.44-.19-.78-.53-.78-.53-.33-.34-.52-.84-.52-.84-.19-.5-.19-1.13-.19-1.13zm0 0zm3.57-.39c0-.786-.33-1.2-.33-1.2-.33-.416-.93-.416-.93-.416-.27 0-.52.11-.52.11-.24.11-.44.315-.44.315-.2.205-.33.504-.33.504-.13.3-.17.69-.17.69h2.73zm1.15 2.932zm.49-2.542c0-.63.19-1.13.19-1.13.2-.498.52-.845.52-.845.32-.346.73-.53.73-.53.41-.184.85-.184.85-.184.48 0 .86.16.86.16.39.17.64.48.64.48.26.31.4.75.4.75.14.44.14.98.14.98 0 .28-.03.47-.03.47h-3.44c.05.83.51 1.31.51 1.31.46.48 1.19.48 1.19.48.37 0 .68-.11.68-.11.31-.11.6-.29.6-.29l.31.56c-.33.21-.74.37-.74.37-.41.16-.93.16-.93.16-.51 0-.96-.19-.96-.19-.44-.19-.78-.53-.78-.53-.33-.34-.52-.84-.52-.84-.19-.5-.19-1.13-.19-1.13zm0 0zm3.57-.39c0-.786-.33-1.2-.33-1.2-.33-.416-.93-.416-.93-.416-.27 0-.52.11-.52.11-.25.11-.45.315-.45.315-.2.205-.33.504-.33.504-.13.3-.17.69-.17.69h2.73zm1.15 2.932zm.69-4.317c0-.305.19-.49.19-.49.19-.182.45-.182.45-.182.26 0 .44.19.44.19.19.19.19.49.19.49 0 .28-.18.47-.18.47-.18.19-.43.19-.43.19-.26 0-.44-.18-.44-.18-.18-.18-.18-.46-.18-.46zm0 0zm0 3.792c0-.305.19-.49.19-.49.19-.182.45-.182.45-.182.26 0 .44.183.44.183.19.184.19.49.19.49 0 .282-.18.466-.18.466-.18.184-.43.184-.43.184-.26 0-.44-.184-.44-.184-.18-.184-.18-.467-.18-.467zm4.06.525zm.72-1.387c.31.315.71.557.71.557.41.242 1.01.242 1.01.242.61 0 1-.33 1-.33.39-.332.39-.9.39-.9 0-.293-.11-.54-.11-.54-.11-.247-.36-.426-.36-.426-.25-.178-.66-.273-.66-.273-.41-.094-1.01-.094-1.01-.094v-.67c.54 0 .9-.1.9-.1.36-.1.59-.26.59-.26.23-.17.32-.4.32-.4.1-.23.1-.5.1-.5 0-.5-.31-.78-.31-.78-.31-.29-.85-.29-.85-.29-.42 0-.77.19-.77.19-.35.18-.65.49-.65.49l-.46-.55c.39-.37.86-.61.86-.61.47-.24 1.07-.24 1.07-.24.44 0 .81.11.81.11.37.11.64.33.64.33.27.21.42.53.42.53.15.31.15.72.15.72 0 .61-.33 1-.33 1-.33.39-.88.6-.88.6v.04c.31.07.57.21.57.21.26.14.46.35.46.35.2.21.31.5.31.5.11.28.11.63.11.63 0 .44-.17.79-.17.79-.17.35-.47.6-.47.6-.3.25-.7.38-.7.38-.4.13-.86.13-.86.13-.39 0-.73-.08-.73-.08-.33-.08-.6-.21-.6-.21-.27-.13-.48-.3-.48-.3-.22-.17-.39-.36-.39-.36zm4.5 1.387zm.83-.714H354v-4.937h-1.22v-.56c.46-.09.803-.21.803-.21.342-.12.615-.29.615-.29h.662v5.99h1.386v.72h-3.78v-.72zm135.6.714zm.95-6.89h.91l2.49 4.327.74 1.43h.04c-.03-.527-.07-1.09-.07-1.09-.04-.56-.04-1.107-.04-1.107v-3.56h.83V758H493l-2.5-4.338-.75-1.418h-.04l.08 1.066c.034.54.034 1.087.034 1.087V758H489v-6.89zm5.85 6.89zm.49-2.542c0-.63.19-1.13.19-1.13.19-.498.51-.845.51-.845.32-.346.73-.53.73-.53.41-.184.85-.184.85-.184.49 0 .87.16.87.16.39.17.64.48.64.48.26.31.4.75.4.75.14.44.14.98.14.98 0 .28-.03.47-.03.47h-3.44c.05.83.51 1.31.51 1.31.46.48 1.19.48 1.19.48.37 0 .68-.11.68-.11.31-.11.59-.29.59-.29l.3.56c-.34.21-.75.37-.75.37-.41.16-.94.16-.94.16-.52 0-.96-.19-.96-.19-.45-.19-.78-.53-.78-.53-.33-.34-.52-.84-.52-.84-.19-.5-.19-1.13-.19-1.13zm0 0zm3.57-.39c0-.786-.33-1.2-.33-1.2-.33-.416-.93-.416-.93-.416-.28 0-.52.11-.52.11-.25.11-.45.315-.45.315-.2.205-.33.504-.33.504-.13.3-.18.69-.18.69h2.73zm1.15 2.932zm.78-5.105h.88v3.12c0 .724.23 1.045.23 1.045.23.32.73.32.73.32.4 0 .71-.205.71-.205.31-.204.67-.656.67-.656v-3.63h.86V758h-.71l-.07-.798h-.03c-.36.42-.75.672-.75.672-.39.252-.93.252-.93.252-.82 0-1.19-.504-1.19-.504-.37-.504-.37-1.492-.37-1.492v-3.235zM505.8 758zm1.01-4.4h-.757v-.653l.796-.052.1-1.43h.72v1.43h1.37v.704h-1.38v2.83c0 .47.17.73.17.73.17.25.61.25.61.25.14 0 .29-.04.29-.04.15-.05.28-.1.28-.1l.17.65c-.21.07-.46.13-.46.13-.24.05-.49.05-.49.05-.4 0-.68-.13-.68-.13-.28-.13-.45-.35-.45-.35-.18-.22-.25-.54-.25-.54-.08-.32-.08-.7-.08-.7v-2.82zm2.54 4.4zm.863-5.105h.71l.07.924h.03c.26-.49.636-.77.636-.77.37-.29.81-.29.81-.29.3 0 .55.1.55.1l-.17.75-.23-.07c-.11-.02-.26-.02-.26-.02-.33 0-.68.26-.68.26-.35.26-.62.91-.62.91v3.3h-.86v-5.11zm2.52 5.105zm.61-1.323c0-.84.75-1.287.75-1.287.75-.447 2.39-.625 2.39-.625 0-.242-.05-.473-.05-.473-.046-.23-.167-.41-.167-.41-.12-.178-.32-.29-.32-.29-.2-.11-.514-.11-.514-.11-.45 0-.83.17-.83.17-.387.167-.69.377-.69.377l-.35-.6c.357-.23.87-.45.87-.45.516-.22 1.136-.22 1.136-.22.936 0 1.356.57 1.356.57.42.57.42 1.53.42 1.53V758h-.72l-.08-.61h-.02c-.37.306-.79.52-.79.52-.43.216-.9.216-.9.216-.65 0-1.08-.378-1.08-.378-.424-.378-.424-1.07-.424-1.07zm0 0zm.85-.064c0 .442.256.63.256.63.26.19.63.19.63.19.37 0 .7-.173.7-.173.33-.174.7-.51.7-.51v-1.418c-.64.084-1.08.2-1.08.2-.44.115-.71.273-.71.273-.27.157-.39.362-.39.362-.12.205-.12.446-.12.446zM518.1 758zm.86-7.48h.863v6.514c0 .21.074.294.074.294.07.084.165.084.165.084h.08l.11-.02.12.65c-.08.042-.2.063-.2.063-.11.02-.29.02-.29.02-.49 0-.7-.293-.7-.293-.21-.294-.21-.86-.21-.86v-6.45zm1.82 7.48zm.683-4.317c0-.305.184-.49.184-.49.185-.182.447-.182.447-.182.25 0 .436.19.436.19.18.19.18.49.18.49 0 .28-.183.47-.183.47-.186.19-.438.19-.438.19-.27 0-.45-.18-.45-.18-.19-.18-.19-.46-.19-.46zm0 0zm0 3.792c0-.305.184-.49.184-.49.185-.182.447-.182.447-.182.25 0 .436.183.436.183.18.184.18.49.18.49 0 .282-.183.466-.183.466-.186.184-.438.184-.438.184-.27 0-.45-.184-.45-.184-.19-.184-.19-.467-.19-.467zm4.055.525zm3.19-2.542v-1.943c0-.273.018-.646.018-.646.017-.38.038-.65.038-.65h-.04c-.12.24-.26.47-.26.47-.13.23-.28.47-.28.47l-1.56 2.29h2.1zm0 0zm1.735.693h-.91V758h-.82v-1.85h-3.015v-.566l2.868-4.286h.968v4.16h.918v.693zm.297 1.85zm.42-.51c.756-.75 1.344-1.36 1.344-1.36.59-.61.99-1.13.99-1.13.4-.52.61-.95.61-.95.21-.43.21-.84.21-.84 0-.58-.31-.94-.31-.94-.31-.36-.95-.36-.95-.36-.42 0-.78.24-.78.24-.35.24-.65.58-.65.58l-.49-.49c.42-.46.89-.74.89-.74.48-.27 1.14-.27 1.14-.27.93 0 1.47.54 1.47.54.538.55.538 1.44.538 1.44 0 .48-.21.95-.21.95-.206.48-.57.99-.57.99-.36.51-.86 1.06-.86 1.06-.5.56-1.1 1.17-1.1 1.17l.57-.04c.296-.02.56-.02.56-.02h1.94v.74h-4.328v-.51zm4.8.52zm.714-1.38c.31.32.71.56.71.56.41.25 1 .25 1 .25.61 0 1-.33 1-.33.39-.33.39-.9.39-.9 0-.29-.11-.54-.11-.54-.11-.25-.36-.43-.36-.43-.25-.17-.66-.27-.66-.27-.41-.09-1-.09-1-.09v-.66c.54 0 .9-.09.9-.09.36-.09.59-.26.59-.26.23-.17.32-.4.32-.4.09-.23.09-.49.09-.49 0-.49-.31-.78-.31-.78-.31-.28-.84-.28-.84-.28-.42 0-.77.19-.77.19-.35.19-.66.49-.66.49l-.46-.55c.39-.37.86-.6.86-.6.47-.24 1.07-.24 1.07-.24.44 0 .81.12.81.12.37.12.638.33.638.33.27.22.417.53.417.53.15.32.15.73.15.73 0 .61-.34 1-.34 1-.34.39-.89.6-.89.6v.04c.31.08.57.22.57.22.26.14.46.36.46.36.2.21.31.5.31.5.11.28.11.63.11.63 0 .44-.17.79-.17.79-.17.36-.47.61-.47.61-.3.25-.7.38-.7.38-.4.13-.86.13-.86.13-.4 0-.73-.08-.73-.08-.33-.08-.61-.21-.61-.21-.27-.13-.49-.3-.49-.3-.22-.16-.38-.35-.38-.35zM675.88 758zm3.875-2.805l-.326-1.05c-.19-.578-.36-1.15-.36-1.15-.17-.573-.34-1.17-.34-1.17h-.04c-.16.597-.33 1.17-.33 1.17-.17.572-.36 1.15-.36 1.15l-.33 1.05h2.07zm0 0zm.22.704h-2.51l-.662 2.1h-.89l2.33-6.89h.983l2.332 6.89h-.935zm1.618 2.1zm1.23.86c0 .41.395.65.395.65.394.24 1.087.24 1.087.24.37 0 .67-.09.67-.09.3-.09.51-.23.51-.23.21-.15.325-.33.325-.33.116-.19.116-.39.116-.39 0-.36-.263-.49-.263-.49-.263-.14-.767-.14-.767-.14h-.884c-.148 0-.32-.02-.32-.02-.175-.02-.343-.07-.343-.07-.28.2-.4.42-.4.42-.13.22-.13.44-.13.44zm0 0zm-.755.11c0-.33.2-.62.2-.62.2-.3.545-.54.545-.54v-.04c-.19-.12-.32-.32-.32-.32-.13-.21-.13-.51-.13-.51 0-.33.174-.57.174-.57.18-.24.38-.38.38-.38v-.05c-.254-.21-.458-.56-.458-.56-.21-.35-.21-.82-.21-.82 0-.42.15-.76.15-.76.15-.34.41-.57.41-.57.26-.24.61-.36.61-.36.35-.13.74-.13.74-.13.21 0 .39.03.39.03.18.04.33.09.33.09h1.77v.66h-1.05c.18.18.3.45.3.45.12.27.12.6.12.6 0 .41-.15.74-.15.74-.15.33-.4.55-.4.55-.26.22-.6.35-.6.35-.34.12-.73.12-.73.12-.19 0-.39-.05-.39-.05-.2-.05-.38-.13-.38-.13-.14.11-.23.25-.23.25-.1.14-.1.35-.1.35 0 .24.19.4.19.4.19.15.72.15.72.15h.98c.9 0 1.34.29 1.34.29.45.29.45.93.45.93 0 .36-.18.68-.18.68-.18.32-.51.56-.51.56-.34.24-.82.38-.82.38-.47.14-1.07.14-1.07.14-.47 0-.86-.09-.86-.09-.39-.09-.67-.27-.67-.27-.28-.18-.43-.43-.43-.43-.15-.25-.15-.59-.15-.59zm0 0zm2.11-3.17c.222 0 .416-.09.416-.09.19-.09.34-.24.34-.24.155-.16.24-.39.24-.39.083-.23.083-.51.083-.51 0-.57-.315-.88-.315-.88-.316-.31-.767-.31-.767-.31-.45 0-.766.31-.766.31-.32.31-.32.87-.32.87 0 .28.08.51.08.51.08.22.23.38.23.38.15.15.34.24.34.24.19.08.41.08.41.08zm2.71 2.19zm.862-5.11h.715l.076.92h.04c.26-.49.64-.77.64-.77.38-.29.82-.29.82-.29.31 0 .55.1.55.1l-.16.76c-.12-.04-.23-.07-.23-.07-.1-.02-.26-.02-.26-.02-.32 0-.68.26-.68.26-.35.26-.61.91-.61.91v3.3h-.86v-5.11zm2.68 5.1zm.482-2.55c0-.63.193-1.13.193-1.13.2-.5.52-.85.52-.85.32-.35.73-.53.73-.53.41-.19.85-.19.85-.19.484 0 .868.16.868.16.384.16.64.48.64.48.26.31.395.75.395.75.137.44.137.99.137.99 0 .28-.03.47-.03.47h-3.445c.05.83.51 1.31.51 1.31.454.48 1.19.48 1.19.48.367 0 .677-.11.677-.11.31-.11.594-.29.594-.29l.31.57c-.33.21-.74.37-.74.37-.41.16-.93.16-.93.16-.51 0-.96-.19-.96-.19-.44-.19-.77-.53-.77-.53-.33-.34-.52-.84-.52-.84-.19-.49-.19-1.12-.19-1.12zm0 0zm3.57-.39c0-.79-.335-1.2-.335-1.2-.33-.42-.93-.42-.93-.42-.273 0-.52.11-.52.11-.247.11-.446.32-.446.32-.2.2-.33.5-.33.5-.13.3-.17.69-.17.69h2.73zm1.15 2.93zm.484-2.54c0-.63.195-1.13.195-1.13.2-.5.52-.85.52-.85.32-.35.73-.53.73-.53.41-.18.85-.18.85-.18.49 0 .87.16.87.16.39.17.64.48.64.48.26.31.4.76.4.76.14.44.14.99.14.99 0 .28-.03.47-.03.47h-3.44c.06.83.51 1.31.51 1.31.46.48 1.2.48 1.2.48.36 0 .67-.11.67-.11.31-.11.6-.29.6-.29l.31.57c-.33.21-.74.36-.74.36-.41.15-.93.15-.93.15-.51 0-.96-.19-.96-.19-.44-.18-.77-.52-.77-.52-.33-.34-.52-.84-.52-.84-.19-.49-.19-1.12-.19-1.12zm0 0zm3.572-.39c0-.79-.332-1.2-.332-1.2-.33-.42-.93-.42-.93-.42-.273 0-.52.11-.52.11-.247.11-.446.31-.446.31-.2.2-.33.5-.33.5-.133.3-.175.69-.175.69h2.73zm1.154 2.93zm.68-4.32c0-.31.184-.49.184-.49.183-.19.446-.19.446-.19.253 0 .437.18.437.18.18.18.18.49.18.49 0 .28-.19.46-.19.46-.19.18-.44.18-.44.18-.27 0-.45-.18-.45-.18-.19-.19-.19-.47-.19-.47zm0 0zm0 3.79c0-.31.184-.49.184-.49.183-.18.446-.18.446-.18.253 0 .437.18.437.18.18.18.18.49.18.49 0 .28-.19.46-.19.46-.19.18-.44.18-.44.18-.27 0-.45-.19-.45-.19-.19-.19-.19-.47-.19-.47zm4.054.52zm2.816-.56c.253 0 .463-.11.463-.11.21-.11.366-.3.366-.3.16-.2.25-.46.25-.46.09-.27.09-.61.09-.61 0-.66-.3-1.04-.3-1.04-.3-.38-.93-.38-.93-.38-.31 0-.69.2-.69.2-.37.2-.71.68-.71.68.09.98.46 1.49.46 1.49.38.51 1.02.51 1.02.51zm0 0zm1.377-5.02c-.21-.24-.5-.39-.5-.39-.29-.15-.61-.15-.61-.15-.35 0-.67.14-.67.14-.32.15-.56.48-.56.48-.24.34-.39.88-.39.88-.15.54-.16 1.34-.16 1.34.31-.39.73-.61.73-.61.42-.23.83-.23.83-.23.87 0 1.39.52 1.39.52.52.51.52 1.55.52 1.55 0 .48-.16.87-.16.87-.16.39-.43.68-.43.68-.28.28-.63.44-.63.44-.36.16-.77.16-.77.16-.5 0-.92-.2-.92-.2-.42-.2-.73-.61-.73-.61-.31-.41-.49-1.01-.49-1.01-.18-.61-.18-1.41-.18-1.41 0-1.01.21-1.72.21-1.72.21-.71.56-1.16.56-1.16.36-.45.81-.65.81-.65.45-.21.96-.21.96-.21.54 0 .94.2.94.2.39.2.68.51.68.51zm1.03 5.57zm.68-1.36c.29.31.7.54.7.54.4.23.99.23.99.23.3 0 .57-.11.57-.11.26-.11.46-.31.46-.31.2-.2.31-.49.31-.49.11-.29.11-.63.11-.63 0-.7-.39-1.08-.39-1.08-.39-.39-1.04-.39-1.04-.39-.35 0-.6.1-.6.1-.25.1-.55.3-.55.3l-.47-.3.22-3.23h3.35v.75h-2.6l-.18 1.98c.24-.13.48-.2.48-.2.24-.08.54-.08.54-.08.43 0 .81.12.81.12.38.12.66.38.66.38.28.25.45.65.45.65.16.39.16.94.16.94 0 .54-.19.97-.19.97-.19.42-.51.71-.51.71-.32.29-.72.44-.72.44-.41.15-.85.15-.85.15-.4 0-.73-.08-.73-.08-.33-.08-.6-.21-.6-.21-.27-.13-.48-.29-.48-.29-.21-.17-.38-.35-.38-.35zm4.54 1.36zm2.61.12c-1.02 0-1.59-.91-1.59-.91-.57-.91-.57-2.6-.57-2.6 0-1.69.56-2.58.56-2.58.56-.89 1.58-.89 1.58-.89 1.01 0 1.58.88 1.58.88.56.88.56 2.57.56 2.57 0 1.69-.57 2.59-.57 2.59-.57.9-1.58.9-1.58.9zm0 0zm0-.7c.29 0 .53-.17.53-.17.24-.16.41-.5.41-.5.17-.34.27-.87.27-.87.09-.53.09-1.27.09-1.27 0-.74-.1-1.26-.1-1.26-.09-.53-.27-.86-.27-.86-.18-.33-.41-.49-.41-.49-.24-.16-.53-.16-.53-.16-.3 0-.54.16-.54.16-.24.16-.42.49-.42.49-.18.33-.27.86-.27.86-.1.52-.1 1.26-.1 1.26 0 1.47.36 2.14.36 2.14.36.66.95.66.95.66zm125.07.56zm.97-1.5c.36.39.86.62.86.62.49.23 1.03.23 1.03.23.68 0 1.06-.31 1.06-.31.38-.31.38-.81.38-.81 0-.26-.09-.45-.09-.45-.09-.19-.25-.32-.25-.32-.15-.13-.36-.24-.36-.24-.21-.11-.46-.22-.46-.22l-.99-.43c-.24-.11-.49-.26-.49-.26-.26-.14-.46-.35-.46-.35-.2-.21-.33-.5-.33-.5-.13-.29-.13-.67-.13-.67 0-.39.16-.73.16-.73.16-.34.45-.59.45-.59.29-.25.68-.39.68-.39.39-.14.86-.14.86-.14.62 0 1.15.23 1.15.23.52.23.89.61.89.61l-.47.57c-.32-.3-.7-.48-.7-.48-.38-.17-.87-.17-.87-.17-.58 0-.93.27-.93.27-.35.26-.35.74-.35.74 0 .25.1.42.1.42.1.17.27.3.27.3.17.13.37.23.37.23.2.1.41.19.41.19l.98.42c.29.12.56.29.56.29.26.16.45.38.45.38.19.22.3.51.3.51.11.29.11.67.11.67 0 .41-.16.76-.16.76-.17.35-.47.62-.47.62-.31.26-.74.42-.74.42-.43.15-.98.15-.98.15-.73 0-1.35-.27-1.35-.27-.62-.28-1.07-.75-1.07-.75zm4.64 1.5zm1.01-4.4h-.76v-.65l.8-.05.1-1.43h.72v1.43h1.37v.7h-1.38v2.83c0 .47.17.73.17.73.17.26.61.26.61.26.13 0 .29-.04.29-.04.16-.04.28-.1.28-.1l.17.65c-.21.08-.46.13-.46.13-.25.06-.49.06-.49.06-.41 0-.69-.12-.69-.12-.28-.13-.46-.35-.46-.35-.18-.22-.25-.54-.25-.54-.07-.31-.07-.69-.07-.69v-2.82zm2.54 4.4zm.86-5.1h.71l.07.92h.03c.26-.49.63-.77.63-.77.37-.28.81-.28.81-.28.3 0 .54.1.54.1l-.17.75c-.13-.04-.23-.06-.23-.06-.11-.02-.27-.02-.27-.02-.33 0-.68.26-.68.26-.35.26-.62.91-.62.91v3.3h-.86v-5.11zm2.68 5.1zm.48-2.54c0-.64.19-1.14.19-1.14.19-.5.52-.85.52-.85.32-.35.75-.53.75-.53.42-.18.9-.18.9-.18.47 0 .89.18.89.18.42.18.75.52.75.52.32.34.52.84.52.84.19.5.19 1.14.19 1.14 0 .63-.2 1.13-.2 1.13-.2.5-.52.84-.52.84-.33.34-.75.52-.75.52-.43.18-.9.18-.9.18-.47 0-.9-.18-.9-.18-.43-.18-.75-.52-.75-.52-.33-.34-.52-.84-.52-.84-.2-.5-.2-1.13-.2-1.13zm0 0zm.89 0c0 .44.1.79.1.79.1.35.3.61.3.61.19.26.46.4.46.4.27.14.6.14.6.14.32 0 .59-.15.59-.15.27-.14.47-.4.47-.4.19-.26.3-.62.3-.62.1-.36.1-.8.1-.8 0-.44-.11-.81-.11-.81-.11-.36-.3-.62-.3-.62-.2-.26-.47-.4-.47-.4-.27-.14-.6-.14-.6-.14-.33 0-.6.14-.6.14-.28.14-.47.4-.47.4-.2.26-.3.62-.3.62-.11.36-.11.8-.11.8zm4.33 2.56zm.86-5.11h.71l.07.73h.03c.36-.37.77-.62.77-.62.4-.25.94-.25.94-.25.81 0 1.18.5 1.18.5.37.5.37 1.49.37 1.49v3.3h-.86v-3.12c0-.73-.24-1.05-.24-1.05-.23-.32-.74-.32-.74-.32-.4 0-.71.2-.71.2-.31.2-.7.59-.7.59v3.7h-.86v-5.11zm4.88 5.1zm1.23.86c0 .41.39.65.39.65.39.24 1.08.24 1.08.24.36 0 .66-.09.66-.09.3-.09.51-.23.51-.23.21-.14.32-.33.32-.33.11-.19.11-.39.11-.39 0-.36-.26-.49-.26-.49-.27-.13-.77-.13-.77-.13h-.88c-.14 0-.32-.01-.32-.01-.17-.01-.34-.07-.34-.07-.27.2-.4.42-.4.42-.12.22-.12.44-.12.44zm0 0zm-.76.11c0-.33.2-.62.2-.62.2-.3.54-.54.54-.54v-.05c-.19-.12-.32-.32-.32-.32-.13-.21-.13-.51-.13-.51 0-.33.17-.57.17-.57.18-.24.37-.38.37-.38v-.04c-.25-.21-.46-.57-.46-.57-.2-.35-.2-.81-.2-.81 0-.42.15-.76.15-.76.15-.34.42-.57.42-.57.26-.24.62-.36.62-.36.35-.13.74-.13.74-.13.21 0 .4.03.4.03.18.03.33.09.33.09h1.77v.66h-1.05c.18.18.3.45.3.45.12.27.12.6.12.6 0 .41-.15.74-.15.74-.15.33-.4.55-.4.55-.25.22-.59.35-.59.35-.34.13-.73.13-.73.13-.19 0-.39-.05-.39-.05-.2-.05-.38-.13-.38-.13-.14.11-.23.25-.23.25-.09.14-.09.35-.09.35 0 .24.19.4.19.4.19.16.71.16.71.16h.98c.89 0 1.34.29 1.34.29.44.29.44.93.44.93 0 .35-.18.68-.18.68-.17.32-.51.56-.51.56-.33.24-.81.38-.81.38-.48.15-1.08.15-1.08.15-.48 0-.87-.09-.87-.09-.39-.09-.67-.27-.67-.27-.28-.18-.43-.43-.43-.43-.16-.25-.16-.59-.16-.59zm0 0zm2.11-3.17c.22 0 .41-.09.41-.09.19-.08.34-.24.34-.24.15-.16.23-.38.23-.38.08-.22.08-.51.08-.51 0-.56-.32-.87-.32-.87-.32-.31-.77-.31-.77-.31-.46 0-.77.31-.77.31-.32.31-.32.88-.32.88 0 .28.09.51.09.51.08.22.23.38.23.38.15.16.35.24.35.24.19.09.42.09.42.09zm2.71 2.19zm.86-7.48h.86V757c0 .21.07.29.07.29.07.083.17.083.17.083h.08l.11-.02.11.65c-.09.04-.2.06-.2.06-.12.02-.3.02-.3.02-.5 0-.71-.295-.71-.295-.21-.294-.21-.86-.21-.86v-6.45zm1.81 7.48zm.51 1.41l.19.04.2.02c.44 0 .72-.31.72-.31.28-.31.43-.78.43-.78l.11-.38-2.05-5.11h.89l1.04 2.83.24.71c.13.37.24.73.24.73h.04c.11-.34.22-.72.22-.72.1-.38.21-.71.21-.71l.91-2.82h.84l-1.93 5.52c-.14.37-.3.7-.3.7-.17.32-.4.56-.4.56-.23.23-.53.37-.53.37-.3.13-.69.13-.69.13-.18 0-.32-.03-.32-.03-.15-.03-.28-.08-.28-.08l.16-.68zm6.52-1.41zm.61-1.33c0-.84.75-1.29.75-1.29.75-.45 2.39-.62 2.39-.62 0-.24-.05-.47-.05-.47-.05-.23-.17-.41-.17-.41-.12-.18-.32-.29-.32-.29-.2-.11-.52-.11-.52-.11-.45 0-.84.17-.84.17-.39.16-.69.37-.69.37l-.35-.6c.35-.23.87-.45.87-.45.51-.22 1.13-.22 1.13-.22.93 0 1.35.57 1.35.57.42.57.42 1.53.42 1.53v3.2h-.72l-.07-.61h-.02c-.37.3-.8.52-.8.52-.42.21-.9.21-.9.21-.65 0-1.08-.38-1.08-.38-.43-.38-.43-1.07-.43-1.07zm0 0zm.85-.06c0 .44.25.63.25.63.26.19.64.19.64.19.36 0 .7-.18.7-.18.33-.17.7-.51.7-.51v-1.41c-.64.08-1.09.2-1.09.2-.44.11-.71.27-.71.27-.26.15-.38.36-.38.36-.11.2-.11.44-.11.44zm3.92 1.38zm1.23.86c0 .41.39.65.39.65.39.24 1.08.24 1.08.24.37 0 .67-.09.67-.09.3-.09.51-.23.51-.23.21-.14.33-.33.33-.33.11-.19.11-.39.11-.39 0-.36-.27-.49-.27-.49-.27-.13-.77-.13-.77-.13h-.88c-.15 0-.32-.01-.32-.01-.18-.01-.34-.07-.34-.07-.28.2-.4.42-.4.42-.13.22-.13.44-.13.44zm0 0zm-.76.12c0-.33.2-.62.2-.62.2-.3.54-.54.54-.54v-.04c-.19-.12-.32-.32-.32-.32-.13-.21-.13-.51-.13-.51 0-.33.17-.57.17-.57.18-.24.38-.38.38-.38v-.04c-.26-.21-.46-.56-.46-.56-.21-.35-.21-.82-.21-.82 0-.42.15-.76.15-.76.15-.34.41-.58.41-.58.26-.24.61-.36.61-.36.35-.13.74-.13.74-.13.21 0 .39.03.39.03.18.03.33.09.33.09h1.77v.66h-1.05c.18.18.3.45.3.45.12.27.12.6.12.6 0 .41-.15.74-.15.74-.14.33-.4.55-.4.55-.25.23-.59.35-.59.35-.34.13-.73.13-.73.13-.19 0-.39-.04-.39-.04-.2-.05-.38-.13-.38-.13-.14.11-.23.25-.23.25-.1.14-.1.35-.1.35 0 .24.19.4.19.4.18.16.71.16.71.16h.99c.89 0 1.34.29 1.34.29.45.28.45.92.45.92 0 .35-.18.68-.18.68-.18.32-.52.56-.52.56-.34.24-.81.38-.81.38-.48.15-1.08.15-1.08.15-.48 0-.86-.09-.86-.09-.39-.09-.67-.27-.67-.27-.28-.18-.43-.43-.43-.43-.16-.25-.16-.59-.16-.59zm0 0zm2.11-3.17c.22 0 .41-.09.41-.09.19-.08.34-.24.34-.24.15-.16.23-.38.23-.38.08-.22.08-.51.08-.51 0-.56-.32-.87-.32-.87-.32-.31-.77-.31-.77-.31-.45 0-.77.31-.77.31-.32.31-.32.88-.32.88 0 .28.08.51.08.51.08.23.23.38.23.38.15.16.34.24.34.24.19.08.41.08.41.08zm2.71 2.19zm.86-5.11h.71l.08.93h.03c.26-.49.63-.77.63-.77.37-.29.81-.29.81-.29.3 0 .54.1.54.1l-.17.75-.23-.07c-.11-.02-.26-.02-.26-.02-.33 0-.68.26-.68.26-.35.26-.62.91-.62.91v3.3h-.86v-5.11zm2.68 5.11zm.48-2.55c0-.63.19-1.13.19-1.13.19-.5.51-.85.51-.85.32-.35.73-.53.73-.53.41-.19.85-.19.85-.19.48 0 .86.16.86.16.38.17.64.48.64.48.26.31.39.75.39.75.13.44.13.99.13.99 0 .28-.03.47-.03.47h-3.44c.05.83.51 1.32.51 1.32.46.48 1.19.48 1.19.48.36 0 .67-.11.67-.11.31-.11.59-.29.59-.29l.3.57c-.34.21-.75.37-.75.37-.41.16-.94.16-.94.16-.52 0-.97-.19-.97-.19-.44-.18-.77-.52-.77-.52-.33-.34-.52-.83-.52-.83-.19-.5-.19-1.13-.19-1.13zm0 0zm3.57-.39c0-.79-.33-1.2-.33-1.2-.33-.42-.93-.42-.93-.42-.28 0-.52.11-.52.11-.25.11-.45.31-.45.31-.2.21-.33.5-.33.5-.13.3-.17.69-.17.69h2.73zm1.16 2.93zm.48-2.54c0-.63.19-1.13.19-1.13.19-.5.51-.85.51-.85.32-.34.73-.53.73-.53.41-.18.85-.18.85-.18.48 0 .86.16.86.16.39.17.64.48.64.48.26.31.4.75.4.75.13.44.13.98.13.98 0 .28-.03.47-.03.47h-3.44c.05.83.51 1.31.51 1.31.45.48 1.19.48 1.19.48.37 0 .68-.11.68-.11.31-.11.59-.29.59-.29l.3.57c-.34.21-.75.37-.75.37-.41.16-.93.16-.93.16-.52 0-.96-.19-.96-.19-.45-.19-.78-.53-.78-.53-.34-.34-.52-.83-.52-.83-.19-.49-.19-1.12-.19-1.12zm0 0zm3.57-.39c0-.79-.33-1.2-.33-1.2-.33-.42-.93-.42-.93-.42-.28 0-.52.11-.52.11-.25.11-.45.31-.45.31-.2.2-.33.5-.33.5-.14.3-.18.69-.18.69h2.73zm1.16 2.93zm.68-4.32c0-.31.18-.49.18-.49.18-.18.44-.18.44-.18.25 0 .43.19.43.19.18.19.18.49.18.49 0 .28-.19.47-.19.47-.18.19-.44.19-.44.19-.26 0-.45-.18-.45-.18-.18-.18-.18-.47-.18-.47zm0 0zm0 3.79c0-.31.18-.49.18-.49.18-.18.44-.18.44-.18.25 0 .43.18.43.18.18.18.18.49.18.49 0 .28-.19.46-.19.46-.18.18-.44.18-.44.18-.26 0-.45-.18-.45-.18-.18-.19-.18-.47-.18-.47zm4.05.52zm1.86 0c.04-.95.16-1.73.16-1.73.12-.79.35-1.49.35-1.49.22-.71.57-1.37.57-1.37.35-.66.84-1.36.84-1.36h-3.34v-.74h4.31v.53c-.6.76-.97 1.45-.97 1.45-.37.69-.59 1.41-.59 1.41-.22.72-.32 1.53-.32 1.53-.1.8-.14 1.78-.14 1.78h-.9zm3.36 0zm1.21-1.8c0 .28.11.51.11.51.11.23.3.4.3.4.19.17.45.27.45.27.26.09.56.09.56.09.59 0 .95-.33.95-.33.36-.33.36-.85.36-.85 0-.33-.14-.56-.14-.56-.15-.23-.4-.41-.4-.41-.25-.17-.58-.32-.58-.32-.33-.14-.69-.29-.69-.29-.4.27-.67.63-.67.63-.27.36-.27.83-.27.83zm0 0zm1.89-1.86c.33-.31.52-.64.52-.64.18-.34.18-.71.18-.71 0-.5-.31-.84-.31-.84-.31-.34-.86-.34-.86-.34-.48 0-.78.29-.78.29-.31.3-.31.79-.31.79 0 .3.12.52.12.52.12.212.34.38.34.38.21.17.49.3.49.3.28.13.58.25.58.25zm0 0zm-2.67 1.94c0-.33.11-.61.11-.61.11-.28.28-.5.28-.5.17-.23.4-.4.4-.4.22-.17.46-.3.46-.3v-.04c-.37-.26-.65-.64-.65-.64-.29-.37-.29-.91-.29-.91 0-.39.15-.708.15-.708.15-.31.4-.54.4-.54.25-.22.6-.35.6-.35.34-.12.75-.12.75-.12.44 0 .78.13.78.13.35.14.59.37.59.37.25.24.38.57.38.57.13.33.13.72.13.72 0 .26-.09.51-.09.51-.09.24-.22.45-.22.45-.13.21-.29.38-.29.38-.16.17-.32.28-.32.28v.04c.22.13.43.29.43.29.21.16.38.37.38.37.16.21.26.47.26.47.1.266.1.6.1.6 0 .38-.16.706-.16.706-.16.326-.44.57-.44.57-.29.24-.68.38-.68.38-.4.13-.88.13-.88.13-.47 0-.88-.14-.88-.14-.41-.13-.7-.38-.7-.38-.29-.245-.46-.58-.46-.58-.17-.34-.17-.74-.17-.74z"/></svg>