<svg xmlns="http://www.w3.org/2000/svg" stroke="#000" viewBox="0 0 1024 768" font-size="1"><path fill="#FFF" stroke="none" d="M0 0v768h1024V0z"/><path stroke="none" d="M286.9 14.102zm1.186-10.04h2.264V14.1h-2.264V4.062zm6.653 10.04zm.55-3.82c0-.955.32-1.7.32-1.7.32-.748.87-1.257.87-1.257.54-.508 1.27-.777 1.27-.777.72-.27 1.51-.27 1.51-.27.71 0 1.28.24 1.28.24.57.238.95.638.95.638l-1.03 1.4c-.54-.445-1.07-.445-1.07-.445-.83 0-1.31.59-1.31.59-.48.59-.48 1.59-.48 1.59 0 1 .48 1.59.48 1.59.48.59 1.22.59 1.22.59.41 0 .75-.17.75-.17.33-.17.61-.38.61-.38l.91 1.43c-.55.5-1.23.73-1.23.73-.68.23-1.31.23-1.31.23-.8 0-1.49-.27-1.49-.27-.69-.27-1.2-.77-1.2-.77-.51-.51-.8-1.26-.8-1.26-.3-.75-.3-1.7-.3-1.7zm6.48 3.82zm.72-2.126c0-1.2 1.01-1.88 1.01-1.88 1.01-.676 3.28-.907 3.28-.907-.03-.51-.31-.81-.31-.81-.28-.3-.9-.3-.9-.3-.5 0-.99.18-.99.18-.5.18-1.05.51-1.05.51l-.8-1.5c.74-.45 1.54-.73 1.54-.73.81-.28 1.71-.28 1.71-.28 1.48 0 2.25.84 2.25.84.77.84.77 2.61.77 2.61v4.38h-1.84l-.17-.79c-.5.43-1.04.7-1.04.7-.55.27-1.2.27-1.2.27-.53 0-.94-.18-.94-.18-.42-.18-.71-.5-.71-.5-.3-.32-.46-.73-.46-.73-.16-.42-.16-.91-.16-.91zm0 0zm2.15-.17c0 .37.24.548.24.548.24.177.64.177.64.177.4 0 .67-.17.67-.17.27-.16.58-.47.58-.47v-1.34c-1.22.17-1.68.5-1.68.5-.47.33-.47.77-.47.77zm5.35 2.297zm1-7.64h1.85l.15.97h.06c.49-.46 1.08-.807 1.08-.807.58-.347 1.37-.347 1.37-.347 1.24 0 1.81.81 1.81.81.56.81.56 2.26.56 2.26v4.75h-2.27V9.65c0-.832-.22-1.14-.22-1.14-.22-.31-.71-.31-.71-.31-.43 0-.74.195-.74.195-.31.192-.68.547-.68.547v5.16H311v-7.64zm11.01 7.64zm.55-3.82c0-.924.31-1.67.31-1.67.31-.748.81-1.263.81-1.263.5-.517 1.14-.795 1.14-.795.65-.277 1.34-.277 1.34-.277.82 0 1.43.278 1.43.278.61.277 1.02.77 1.02.77.4.492.6 1.162.6 1.162.2.67.2 1.455.2 1.455 0 .308-.03.563-.03.563-.03.254-.06.392-.06.392h-4.58c.15.878.68 1.27.68 1.27.53.393 1.3.393 1.3.393.82 0 1.65-.5 1.65-.5l.75 1.37c-.58.4-1.3.63-1.3.63-.72.23-1.41.23-1.41.23-.82 0-1.52-.27-1.52-.27-.71-.27-1.23-.78-1.23-.78-.53-.51-.82-1.25-.82-1.25-.3-.74-.3-1.69-.3-1.69zm0 0zm4.93-.785c0-.662-.29-1.078-.29-1.078-.3-.417-.99-.417-.99-.417-.54 0-.95.362-.95.362-.41.362-.53 1.132-.53 1.132h2.75zm2.32 4.605zm.73-2.126c0-1.2 1.02-1.88 1.02-1.88 1.01-.676 3.28-.907 3.28-.907-.03-.51-.31-.81-.31-.81-.28-.3-.9-.3-.9-.3-.49 0-.99.185-.99.185-.5.185-1.05.508-1.05.508l-.8-1.494c.74-.45 1.55-.73 1.55-.73.81-.28 1.71-.28 1.71-.28 1.48 0 2.26.84 2.26.84.78.84.78 2.61.78 2.61v4.38h-1.85l-.17-.79h-.05c-.5.43-1.04.7-1.04.7-.55.27-1.2.27-1.2.27-.52 0-.94-.18-.94-.18-.41-.18-.71-.5-.71-.5-.29-.32-.45-.73-.45-.73-.16-.42-.16-.91-.16-.91zm0 0zm2.16-.17c0 .37.24.548.24.548.24.177.64.177.64.177.4 0 .68-.17.68-.17.27-.168.58-.476.58-.476v-1.34c-1.22.17-1.68.493-1.68.493-.47.32-.47.77-.47.77zm5.34 2.296zm1.34-2.295c.52.4 1 .6 1 .6.48.2.97.2.97.2.51 0 .74-.17.74-.17.23-.168.23-.476.23-.476 0-.184-.13-.33-.13-.33-.13-.146-.36-.27-.36-.27-.23-.123-.5-.223-.5-.223-.28-.1-.57-.23-.57-.23-.36-.14-.71-.33-.71-.33-.36-.19-.65-.46-.65-.46-.3-.27-.48-.63-.48-.63-.19-.37-.19-.84-.19-.84 0-.53.2-.97.2-.97.21-.45.59-.76.59-.76.38-.31.92-.49.92-.49.54-.18 1.2-.18 1.2-.18.88 0 1.54.3 1.54.3.66.3 1.15.67 1.15.67l-1 1.36c-.42-.31-.82-.48-.82-.48-.4-.17-.8-.17-.8-.17-.86 0-.86.6-.86.6 0 .18.12.31.12.31.12.13.33.24.33.24.21.1.47.2.47.2l.56.21c.37.14.73.31.73.31.36.17.66.44.66.44.3.26.48.64.48.64.18.37.18.9.18.9 0 .52-.2.97-.2.97-.2.44-.6.77-.6.77-.4.33-.99.52-.99.52-.59.19-1.36.19-1.36.19-.76 0-1.55-.29-1.55-.29-.79-.3-1.38-.77-1.38-.77zm5.48 2.295zM347 5.34c-.57 0-.94-.332-.94-.332-.37-.33-.37-.855-.37-.855 0-.524.37-.847.37-.847.37-.323.94-.323.94-.323.584 0 .946.323.946.323.36.323.36.847.36.847 0 .524-.36.855-.36.855-.36.33-.946.33-.946.33zm0 0zm-1.125 1.123h2.266v7.64h-2.26v-7.64zm3.25 7.64zm1-10.797h2.267v8.516c0 .355.13.493.13.493.13.14.27.14.27.14h.13l.147-.032.27 1.68c-.19.076-.47.13-.47.13-.29.053-.67.053-.67.053-.59 0-.99-.184-.99-.184-.4-.185-.64-.516-.64-.516-.24-.33-.35-.8-.35-.8-.11-.47-.11-1.056-.11-1.056V3.306zm3.406 10.796zm1.17 1.108c.11.03.25.062.25.062.14.03.26.03.26.03.57 0 .88-.276.88-.276.31-.278.46-.724.46-.724l.11-.4-2.94-7.44H356l1.094 3.28c.17.525.308 1.064.308 1.064.14.54.294 1.11.294 1.11h.064c.122-.54.253-1.087.253-1.087.13-.55.27-1.09.27-1.09l.924-3.28h2.17l-2.65 7.71c-.276.72-.577 1.27-.577 1.27-.3.54-.693.91-.693.91-.39.36-.894.54-.894.54-.5.18-1.18.18-1.18.18-.354 0-.6-.04-.6-.04-.247-.04-.48-.12-.48-.12l.4-1.73zm10.06-1.108zm1-7.64h1.85l.16 1.34h.06c.42-.785 1-1.154 1-1.154.59-.37 1.17-.37 1.17-.37.33 0 .53.04.53.04.21.037.38.114.38.114l-.37 1.956c-.21-.062-.4-.092-.4-.092-.18-.03-.43-.03-.43-.03-.43 0-.9.307-.9.307-.47.308-.78 1.093-.78 1.093v4.436h-2.26v-7.64zm4.98 7.64zm.56-3.82c0-.924.31-1.67.31-1.67.31-.748.81-1.263.81-1.263.5-.52 1.15-.8 1.15-.8.65-.28 1.34-.28 1.34-.28.82 0 1.43.28 1.43.28.61.27 1.02.77 1.02.77.41.49.61 1.16.61 1.16.2.67.2 1.45.2 1.45 0 .31-.03.56-.03.56-.03.25-.06.39-.06.39h-4.58c.16.88.69 1.27.69 1.27.54.39 1.31.39 1.31.39.82 0 1.65-.51 1.65-.51l.76 1.37c-.58.4-1.3.63-1.3.63-.71.23-1.41.23-1.41.23-.81 0-1.52-.27-1.52-.27-.71-.27-1.23-.79-1.23-.79-.52-.52-.82-1.26-.82-1.26-.29-.74-.29-1.69-.29-1.69zm0 0zm4.93-.785c0-.662-.29-1.078-.29-1.078-.29-.42-.98-.42-.98-.42-.54 0-.95.36-.95.36-.4.36-.53 1.13-.53 1.13h2.76zm2.33 4.605zm.73-2.126c0-1.2 1.02-1.88 1.02-1.88 1.02-.676 3.28-.907 3.28-.907-.03-.51-.31-.81-.31-.81-.27-.3-.89-.3-.89-.3-.49 0-.98.18-.98.18-.49.18-1.04.51-1.04.51l-.8-1.5c.74-.45 1.55-.73 1.55-.73.81-.28 1.72-.28 1.72-.28 1.48 0 2.26.84 2.26.84.78.84.78 2.61.78 2.61v4.38H384l-.17-.79h-.044c-.49.43-1.04.7-1.04.7-.546.27-1.19.27-1.19.27-.525 0-.94-.18-.94-.18-.417-.18-.71-.5-.71-.5-.296-.32-.458-.73-.458-.73-.166-.42-.166-.91-.166-.91zm0 0zm2.16-.17c0 .37.24.548.24.548.24.177.64.177.64.177.4 0 .68-.17.68-.17.28-.16.59-.47.59-.47v-1.34c-1.21.17-1.68.5-1.68.5-.46.33-.46.77-.46.77zm5.35 2.296zm1.34-2.295c.52.4 1 .6 1 .6.48.2.97.2.97.2.51 0 .74-.17.74-.17.23-.168.23-.476.23-.476 0-.18-.13-.33-.13-.33-.13-.14-.35-.27-.35-.27-.22-.12-.5-.22-.5-.22-.27-.1-.57-.22-.57-.22-.35-.14-.71-.32-.71-.32-.35-.18-.64-.45-.64-.45-.29-.27-.48-.63-.48-.63-.19-.36-.19-.84-.19-.84 0-.52.21-.97.21-.97.21-.44.59-.75.59-.75.39-.3.93-.48.93-.48.54-.17 1.2-.17 1.2-.17.88 0 1.54.3 1.54.3.66.3 1.16.67 1.16.67l-1.02 1.36c-.42-.31-.82-.48-.82-.48-.4-.17-.8-.17-.8-.17-.86 0-.86.61-.86.61 0 .19.13.32.13.32.12.13.33.24.33.24.21.11.48.21.48.21l.56.21c.37.14.73.32.73.32.36.18.66.44.66.44.3.26.49.64.49.64.18.38.18.9.18.9 0 .52-.2.97-.2.97-.2.45-.6.78-.6.78-.4.33-.99.52-.99.52-.58.19-1.35.19-1.35.19-.75 0-1.54-.29-1.54-.29-.79-.29-1.38-.77-1.38-.77zm5.48 2.295zm.55-3.82c0-.955.31-1.7.31-1.7.31-.748.82-1.257.82-1.257.52-.508 1.2-.777 1.2-.777.68-.27 1.41-.27 1.41-.27.72 0 1.39.27 1.39.27.67.27 1.19.777 1.19.777.52.51.82 1.256.82 1.256.31.75.31 1.71.31 1.71 0 .96-.31 1.7-.31 1.7-.31.75-.82 1.26-.82 1.26-.51.51-1.18.78-1.18.78-.67.27-1.39.27-1.39.27-.72 0-1.4-.27-1.4-.27-.68-.27-1.19-.77-1.19-.77-.51-.51-.82-1.25-.82-1.25-.31-.74-.31-1.7-.31-1.7zm0 0zm2.33 0c0 1 .35 1.586.35 1.586.35.586 1.06.586 1.06.586.69 0 1.04-.586 1.04-.586.36-.585.36-1.586.36-1.586 0-1-.35-1.586-.35-1.586-.35-.585-1.05-.585-1.05-.585-.71 0-1.05.59-1.05.59-.34.59-.34 1.59-.34 1.59zm5.67 3.82zm1-7.64H405l.153.97h.06c.494-.46 1.08-.807 1.08-.807.585-.347 1.37-.347 1.37-.347 1.247 0 1.81.816 1.81.816.56.817.56 2.264.56 2.264v4.744h-2.265v-4.45c0-.833-.223-1.14-.223-1.14-.22-.31-.715-.31-.715-.31-.43 0-.74.194-.74.194-.307.192-.676.547-.676.547v5.16h-2.265v-7.64zm11.02 7.64zm.73-2.126c0-1.2 1.02-1.88 1.02-1.88 1.02-.676 3.28-.907 3.28-.907-.03-.51-.3-.81-.3-.81-.28-.3-.89-.3-.89-.3-.49 0-.99.18-.99.18-.49.18-1.04.51-1.04.51l-.8-1.5c.74-.45 1.55-.73 1.55-.73.81-.28 1.72-.28 1.72-.28 1.48 0 2.26.84 2.26.84.78.84.78 2.61.78 2.61v4.38h-1.85l-.17-.79h-.04c-.49.43-1.04.7-1.04.7-.55.27-1.19.27-1.19.27-.52 0-.94-.18-.94-.18-.41-.18-.71-.5-.71-.5-.29-.32-.45-.73-.45-.73-.16-.42-.16-.91-.16-.91zm0 0zm2.16-.17c0 .37.24.548.24.548.24.177.64.177.64.177.4 0 .68-.17.68-.17.28-.16.59-.47.59-.47v-1.34c-1.22.17-1.68.5-1.68.5-.46.33-.46.77-.46.77zm5.35 2.296zm1-10.796h2.27v2.65l-.06 1.17c.45-.4.96-.624.96-.624.52-.224 1.06-.224 1.06-.224.7 0 1.25.277 1.25.277.55.278.95.778.95.778.4.5.6 1.217.6 1.217.21.716.21 1.594.21 1.594 0 .985-.27 1.755-.27 1.755-.27.77-.72 1.3-.72 1.3-.45.53-1.03.81-1.03.81-.58.27-1.19.27-1.19.27-.51 0-1.02-.25-1.02-.25-.52-.25-.96-.74-.96-.74h-.06l-.19.8h-1.77V3.3zm0 0zm2.27 8.64c.31.277.62.385.62.385.31.11.6.11.6.11.59 0 1-.53 1-.53.42-.53.42-1.72.42-1.72 0-2.06-1.32-2.06-1.32-2.06-.67 0-1.31.7-1.31.7v3.13zm5.56 2.156zm.56-3.82c0-.955.31-1.7.31-1.7.31-.748.83-1.257.83-1.257.52-.508 1.19-.777 1.19-.777.68-.27 1.41-.27 1.41-.27.72 0 1.39.27 1.39.27.67.27 1.19.777 1.19.777.52.51.83 1.256.83 1.256.31.75.31 1.71.31 1.71 0 .96-.31 1.7-.31 1.7-.3.75-.82 1.26-.82 1.26-.51.51-1.18.78-1.18.78-.67.27-1.39.27-1.39.27-.72 0-1.4-.27-1.4-.27-.68-.27-1.19-.77-1.19-.77-.52-.51-.82-1.25-.82-1.25-.31-.74-.31-1.7-.31-1.7zm0 0zm2.33 0c0 1 .35 1.586.35 1.586.35.586 1.06.586 1.06.586.69 0 1.05-.586 1.05-.586.35-.585.35-1.586.35-1.586 0-1-.35-1.586-.35-1.586-.35-.585-1.05-.585-1.05-.585-.71 0-1.05.59-1.05.59-.34.59-.34 1.59-.34 1.59zm5.67 3.82zm.92-7.64H443v4.452c0 .83.23 1.14.23 1.14.23.307.72.307.72.307.43 0 .72-.2.72-.2.296-.2.63-.64.63-.64V6.47h2.27v7.63h-1.85l-.17-1.063h-.05c-.49.584-1.05.915-1.05.915-.57.33-1.35.33-1.35.33-1.25 0-1.81-.815-1.81-.815-.56-.816-.56-2.264-.56-2.264v-4.74zm7.82 7.64zm1.31-5.868h-1.05v-1.68l1.17-.09.26-2.034h1.88v2.033h1.83v1.77h-1.83V11.3c0 .646.27.93.27.93.27.285.72.285.72.285.19 0 .38-.046.38-.046.19-.05.35-.11.35-.11l.35 1.65c-.31.09-.72.18-.72.18-.41.09-.97.09-.97.09-.71 0-1.21-.22-1.21-.22-.5-.22-.81-.6-.81-.6-.32-.39-.47-.94-.47-.94-.14-.55-.14-1.21-.14-1.21V8.23zm7.79 5.868zm1.31-5.868h-1.05v-1.68l1.17-.09.26-2.034h1.88v2.033h1.8v1.77h-1.83V11.3c0 .646.27.93.27.93.27.285.72.285.72.285.19 0 .38-.046.38-.046.2-.05.35-.11.35-.11l.36 1.65c-.31.09-.72.18-.72.18-.41.09-.97.09-.97.09-.71 0-1.21-.22-1.21-.22-.5-.22-.81-.6-.81-.6-.31-.39-.46-.94-.46-.94-.14-.55-.14-1.21-.14-1.21V8.23zm4.59 5.868zm1-10.796h2.26v2.65l-.11 1.37c.43-.386 1-.717 1-.717.57-.34 1.36-.34 1.36-.34 1.24 0 1.81.81 1.81.81.56.81.56 2.26.56 2.26v4.75h-2.27V9.65c0-.832-.22-1.14-.22-1.14-.22-.31-.71-.31-.71-.31-.43 0-.74.195-.74.195-.3.192-.67.547-.67.547v5.16h-2.26V3.305zm7.79 10.796zm.56-3.82c0-.924.31-1.67.31-1.67.31-.748.81-1.263.81-1.263.5-.52 1.15-.8 1.15-.8.65-.28 1.34-.28 1.34-.28.82 0 1.42.28 1.42.28.61.27 1.02.77 1.02.77.41.49.61 1.16.61 1.16.2.67.2 1.45.2 1.45 0 .31-.03.56-.03.56-.03.25-.06.39-.06.39h-4.57c.15.88.68 1.27.68 1.27.53.39 1.3.39 1.3.39.82 0 1.65-.51 1.65-.51l.75 1.37c-.58.4-1.3.63-1.3.63-.72.23-1.41.23-1.41.23-.82 0-1.53-.27-1.53-.27-.71-.27-1.23-.79-1.23-.79-.52-.52-.82-1.26-.82-1.26-.29-.74-.29-1.69-.29-1.69zm0 0zm4.93-.785c0-.662-.29-1.078-.29-1.078-.29-.42-.99-.42-.99-.42-.54 0-.95.36-.95.36-.41.36-.53 1.13-.53 1.13h2.76zm5.7 4.605zm3.27.6v2.233h-2.27V6.463h1.85l.16.755h.06c.45-.4 1.01-.67 1.01-.67.56-.27 1.16-.27 1.16-.27.7 0 1.25.277 1.25.277.56.278.94.786.94.786.39.51.59 1.23.59 1.23.21.72.21 1.6.21 1.6 0 .99-.27 1.75-.27 1.75-.27.77-.72 1.3-.72 1.3-.46.54-1.03.81-1.03.81-.58.28-1.19.28-1.19.28-.49 0-.96-.21-.96-.21-.47-.21-.87-.59-.87-.59zm0 0zm0-2.756c.31.277.62.385.62.385.31.11.6.11.6.11.59 0 1-.53 1-.53.42-.53.42-1.72.42-1.72 0-2.06-1.32-2.06-1.32-2.06-.66 0-1.31.7-1.31.7v3.13zm5.56 2.156zm.55-3.82c0-.924.31-1.67.31-1.67.31-.748.81-1.263.81-1.263.5-.52 1.14-.8 1.14-.8.65-.28 1.34-.28 1.34-.28.82 0 1.43.28 1.43.28.61.27 1.02.77 1.02.77.41.49.61 1.16.61 1.16.2.67.2 1.45.2 1.45 0 .31-.03.56-.03.56-.03.25-.06.39-.06.39h-4.57c.16.88.69 1.27.69 1.27.53.39 1.3.39 1.3.39.82 0 1.65-.51 1.65-.51l.75 1.37c-.58.4-1.3.63-1.3.63-.71.23-1.41.23-1.41.23-.81 0-1.52-.27-1.52-.27-.71-.27-1.23-.79-1.23-.79-.52-.52-.82-1.26-.82-1.26-.29-.74-.29-1.69-.29-1.69zm0 0zm4.93-.785c0-.662-.29-1.078-.29-1.078-.29-.42-.99-.42-.99-.42-.54 0-.95.36-.95.36-.41.36-.53 1.13-.53 1.13h2.76zm2.49 4.605zm1-7.64h1.85l.16 1.34h.06c.42-.785 1-1.154 1-1.154.59-.37 1.17-.37 1.17-.37.33 0 .53.04.53.04.21.037.38.114.38.114l-.37 1.956c-.21-.062-.4-.092-.4-.092-.18-.03-.43-.03-.43-.03-.43 0-.9.307-.9.307-.47.308-.77 1.093-.77 1.093v4.436h-2.27v-7.64zm5.13 7.64zm5.32-9.04c-.43-.154-.78-.154-.78-.154-.42 0-.65.254-.65.254-.23.254-.23.84-.23.84v.46h1.37v1.772h-1.37v5.868h-2.27V8.234h-1.02v-1.68l1.02-.076v-.415c0-.6.14-1.14.14-1.14.14-.54.48-.94.48-.94.34-.4.88-.63.88-.63.54-.232 1.31-.232 1.31-.232.48 0 .87.1.87.1.39.09.66.19.66.19zm-.21 9.04zm.55-3.82c0-.955.31-1.7.31-1.7.31-.748.83-1.257.83-1.257.52-.508 1.2-.777 1.2-.777.678-.27 1.4-.27 1.4-.27.726 0 1.396.27 1.396.27.67.27 1.18.777 1.18.777.52.51.825 1.256.825 1.256.31.75.31 1.71.31 1.71 0 .96-.31 1.7-.31 1.7-.31.75-.83 1.26-.83 1.26-.515.51-1.185.78-1.185.78-.67.27-1.398.27-1.398.27-.72 0-1.4-.27-1.4-.27-.68-.27-1.19-.77-1.19-.77-.51-.51-.82-1.25-.82-1.25-.31-.74-.31-1.7-.31-1.7zm0 0zm2.33 0c0 1 .35 1.586.35 1.586.35.586 1.05.586 1.05.586.7 0 1.05-.586 1.05-.586.36-.585.36-1.586.36-1.586 0-1-.36-1.586-.36-1.586-.35-.585-1.05-.585-1.05-.585-.71 0-1.05.59-1.05.59-.34.59-.34 1.59-.34 1.59zm5.67 3.82zm1.01-7.64h1.85l.16 1.34h.06c.42-.785 1-1.154 1-1.154.59-.37 1.17-.37 1.17-.37.326 0 .534.04.534.04.21.037.38.114.38.114l-.37 1.956c-.22-.062-.4-.092-.4-.092-.19-.03-.43-.03-.43-.03-.44 0-.9.307-.9.307-.47.308-.78 1.093-.78 1.093v4.436h-2.26v-7.64zm5.13 7.64zm1-7.64h1.85l.16.987h.06c.48-.48 1.02-.83 1.02-.83.54-.35 1.29-.35 1.29-.35.82 0 1.32.33 1.32.33.5.33.79.95.79.95.51-.53 1.07-.9 1.07-.9.56-.38 1.33-.38 1.33-.38 1.23 0 1.81.82 1.81.82.58.82.58 2.25.58 2.25v4.75h-2.26V9.65c0-.832-.225-1.14-.225-1.14-.22-.31-.712-.31-.712-.31-.57 0-1.3.74-1.3.74v5.16h-2.27V9.65c0-.832-.22-1.14-.22-1.14-.22-.31-.72-.31-.72-.31-.58 0-1.29.74-1.29.74v5.16h-2.26V6.46zm12.2 7.64zm.728-2.126c0-1.2 1.02-1.88 1.02-1.88 1.016-.676 3.28-.907 3.28-.907-.03-.51-.31-.81-.31-.81-.275-.3-.89-.3-.89-.3-.49 0-.98.18-.98.18-.49.18-1.044.51-1.044.51l-.8-1.5c.74-.45 1.55-.73 1.55-.73.81-.28 1.72-.28 1.72-.28 1.473 0 2.25.84 2.25.84.78.84.78 2.61.78 2.61v4.38h-1.86l-.17-.79h-.046c-.49.43-1.04.7-1.04.7-.55.27-1.19.27-1.19.27-.53 0-.94-.18-.94-.18-.42-.18-.71-.5-.71-.5-.3-.32-.46-.73-.46-.73-.16-.42-.16-.91-.16-.91zm0 0zm2.16-.17c0 .37.24.548.24.548.24.177.64.177.64.177.4 0 .68-.17.68-.17.28-.16.59-.47.59-.47v-1.34c-1.22.17-1.68.5-1.68.5-.46.33-.46.77-.46.77zm5.34 2.296zm1-7.64h1.85l.16.97h.06c.5-.46 1.08-.807 1.08-.807.59-.347 1.37-.347 1.37-.347 1.25 0 1.81.816 1.81.816.56.817.56 2.264.56 2.264v4.744h-2.26v-4.45c0-.833-.22-1.14-.22-1.14-.23-.31-.72-.31-.72-.31-.43 0-.74.194-.74.194-.31.192-.68.547-.68.547v5.16h-2.26v-7.64zm7.81 7.64zm.56-3.82c0-.955.32-1.7.32-1.7.326-.748.87-1.257.87-1.257.55-.508 1.27-.777 1.27-.777.73-.27 1.51-.27 1.51-.27.71 0 1.28.24 1.28.24.57.238.96.638.96.638l-1.03 1.4c-.54-.445-1.06-.445-1.06-.445-.834 0-1.31.59-1.31.59-.48.59-.48 1.59-.48 1.59 0 1 .49 1.59.49 1.59.49.59 1.23.59 1.23.59.41 0 .75-.17.75-.17.34-.17.62-.38.62-.38l.91 1.43c-.557.5-1.23.73-1.23.73-.68.23-1.31.23-1.31.23-.8 0-1.49-.27-1.49-.27-.68-.27-1.19-.77-1.19-.77-.51-.51-.8-1.26-.8-1.26-.3-.75-.3-1.7-.3-1.7zm6.21 3.82zm.55-3.82c0-.924.3-1.67.3-1.67.31-.748.81-1.263.81-1.263.5-.52 1.15-.8 1.15-.8.64-.28 1.34-.28 1.34-.28.81 0 1.42.28 1.42.28.61.27 1.02.77 1.02.77.41.49.61 1.16.61 1.16.2.67.2 1.45.2 1.45 0 .31-.03.56-.03.56-.03.25-.06.39-.06.39H566c.15.88.68 1.27.68 1.27.53.39 1.3.39 1.3.39.81 0 1.65-.51 1.65-.51l.75 1.37c-.59.4-1.3.63-1.3.63-.72.23-1.41.23-1.41.23-.817 0-1.52-.27-1.52-.27-.71-.27-1.24-.79-1.24-.79-.52-.52-.81-1.26-.81-1.26-.29-.74-.29-1.69-.29-1.69zm0 0zm4.92-.785c0-.662-.29-1.078-.29-1.078-.29-.42-.99-.42-.99-.42-.54 0-.95.36-.95.36-.41.36-.53 1.13-.53 1.13h2.75zm5.7 4.605zm.55-3.82c0-.955.305-1.7.305-1.7.31-.748.83-1.257.83-1.257.516-.508 1.194-.777 1.194-.777.68-.27 1.4-.27 1.4-.27.73 0 1.4.27 1.4.27.67.27 1.19.777 1.19.777.513.51.82 1.256.82 1.256.31.75.31 1.71.31 1.71 0 .96-.31 1.7-.31 1.7-.31.75-.82 1.26-.82 1.26-.52.51-1.19.78-1.19.78-.67.27-1.39.27-1.39.27-.72 0-1.4-.27-1.4-.27-.68-.27-1.19-.77-1.19-.77-.52-.51-.825-1.25-.825-1.25-.31-.74-.31-1.7-.31-1.7zm0 0zm2.32 0c0 1 .345 1.586.345 1.586.346.586 1.054.586 1.054.586.69 0 1.05-.586 1.05-.586.35-.585.35-1.586.35-1.586 0-1-.35-1.586-.35-1.586-.35-.585-1.046-.585-1.046-.585-.7 0-1.05.59-1.05.59-.342.59-.342 1.59-.342 1.59zm5.59 3.82zm5.31-9.04c-.43-.154-.78-.154-.78-.154-.413 0-.644.254-.644.254-.23.254-.23.84-.23.84v.46h1.37v1.772h-1.37v5.868h-2.27V8.234h-1.02v-1.68l1.02-.076v-.415c0-.6.145-1.14.145-1.14.14-.54.48-.94.48-.94.34-.4.88-.63.88-.63.54-.232 1.31-.232 1.31-.232.48 0 .87.1.87.1.39.09.66.19.66.19zm3.147 9.04zm1-7.64h1.85l.15.987h.06c.48-.48 1.02-.83 1.02-.83.54-.35 1.298-.35 1.298-.35.82 0 1.32.33 1.32.33.5.33.79.95.79.95.51-.53 1.07-.9 1.07-.9.56-.38 1.33-.38 1.33-.38 1.23 0 1.81.82 1.81.82.58.82.58 2.25.58 2.25v4.75h-2.27V9.65c0-.832-.22-1.14-.22-1.14-.227-.31-.72-.31-.72-.31-.57 0-1.31.74-1.31.74v5.16h-2.26V9.65c0-.832-.223-1.14-.223-1.14-.224-.31-.72-.31-.72-.31-.58 0-1.29.74-1.29.74v5.16h-2.26V6.46zm12.2 7.64zm1.17 1.108c.11.03.25.062.25.062.14.03.26.03.26.03.57 0 .88-.276.88-.276.307-.278.46-.724.46-.724l.11-.4-2.943-7.44H607l1.093 3.28c.17.525.31 1.064.31 1.064.14.54.29 1.11.29 1.11h.066c.12-.54.25-1.087.25-1.087.13-.55.27-1.09.27-1.09l.92-3.28h2.17l-2.65 7.71c-.28.72-.58 1.27-.58 1.27-.31.54-.7.91-.7.91-.4.36-.9.54-.9.54-.5.18-1.18.18-1.18.18-.36 0-.6-.04-.6-.04-.25-.04-.48-.12-.48-.12l.4-1.73zm10.06-1.108zm1.18-10.04h2.27v3.864h3.468V4.06h2.28v10.042h-2.28v-4.19h-3.46v4.19h-2.26V4.062zm9.2 10.04zm.727-2.126c0-1.2 1.02-1.88 1.02-1.88 1.02-.676 3.28-.907 3.28-.907-.03-.51-.307-.81-.307-.81-.28-.3-.896-.3-.896-.3-.49 0-.98.18-.98.18-.49.18-1.04.51-1.04.51l-.8-1.5c.74-.45 1.55-.73 1.55-.73.81-.28 1.72-.28 1.72-.28 1.48 0 2.26.84 2.26.84.78.84.78 2.61.78 2.61v4.38h-1.87l-.17-.79h-.04c-.49.43-1.04.7-1.04.7-.55.27-1.19.27-1.19.27-.52 0-.93-.18-.93-.18-.42-.18-.71-.5-.71-.5-.29-.32-.45-.73-.45-.73-.17-.42-.17-.91-.17-.91zm0 0zm2.16-.17c0 .37.24.548.24.548.24.177.64.177.64.177.4 0 .68-.17.68-.17.274-.16.58-.47.58-.47v-1.34c-1.22.17-1.68.5-1.68.5-.46.33-.46.77-.46.77zm5.344 2.296zm1.34-2.295c.523.4 1 .6 1 .6.48.2.97.2.97.2.51 0 .74-.17.74-.17.23-.168.23-.476.23-.476 0-.18-.13-.33-.13-.33-.13-.14-.35-.27-.35-.27-.22-.12-.5-.22-.5-.22-.28-.1-.57-.22-.57-.22-.356-.14-.71-.32-.71-.32-.35-.18-.647-.45-.647-.45-.3-.27-.48-.63-.48-.63-.19-.36-.19-.84-.19-.84 0-.52.2-.97.2-.97.21-.44.59-.75.59-.75.39-.3.93-.48.93-.48.54-.17 1.2-.17 1.2-.17.88 0 1.54.3 1.54.3.663.3 1.16.67 1.16.67l-1.03 1.36c-.41-.31-.81-.48-.81-.48-.4-.17-.8-.17-.8-.17-.86 0-.86.61-.86.61 0 .18.13.32.13.32.12.13.33.24.33.24.21.11.48.21.48.21l.56.21c.37.14.73.32.73.32.36.18.66.44.66.44.3.26.485.64.485.64.185.38.185.9.185.9 0 .53-.2.97-.2.97-.2.45-.6.78-.6.78-.4.33-.99.53-.99.53-.58.19-1.35.19-1.35.19-.757 0-1.55-.29-1.55-.29-.797-.29-1.38-.77-1.38-.77zm5.48 2.295zm1-10.796h2.2v6.19h.06l2.42-3.033h2.47l-2.68 3.142 2.88 4.497h-2.45l-1.74-2.972-.97 1.09v1.88h-2.2V3.304zm7.01 10.796zm.554-3.82c0-.924.31-1.67.31-1.67.31-.748.81-1.263.81-1.263.5-.52 1.15-.8 1.15-.8.64-.28 1.34-.28 1.34-.28.81 0 1.42.28 1.42.28.61.27 1.01.77 1.01.77.41.49.61 1.16.61 1.16.2.67.2 1.45.2 1.45 0 .31-.033.56-.033.56-.03.25-.06.39-.06.39h-4.57c.16.88.69 1.27.69 1.27.53.39 1.3.39 1.3.39.815 0 1.65-.51 1.65-.51l.75 1.37c-.58.4-1.3.63-1.3.63-.71.23-1.41.23-1.41.23-.81 0-1.52-.27-1.52-.27-.71-.27-1.24-.79-1.24-.79-.52-.52-.81-1.26-.81-1.26-.29-.74-.29-1.69-.29-1.69zm0 0zm4.93-.785c0-.662-.3-1.078-.3-1.078-.3-.42-.99-.42-.99-.42-.54 0-.95.36-.95.36-.41.36-.53 1.13-.53 1.13h2.756zm2.49 4.605zm1-10.796h2.26v8.516c0 .355.13.493.13.493.13.14.27.14.27.14h.13l.15-.032.276 1.68c-.19.076-.47.13-.47.13-.29.053-.67.053-.67.053-.59 0-.99-.184-.99-.184-.4-.185-.64-.516-.64-.516-.24-.33-.35-.8-.35-.8-.106-.47-.106-1.056-.106-1.056V3.306zm3.4 10.796zm1-10.796h2.26v8.516c0 .355.13.493.13.493.13.14.27.14.27.14h.13l.15-.032.28 1.68c-.19.076-.47.13-.47.13-.29.053-.67.053-.67.053-.59 0-.99-.184-.99-.184-.4-.185-.64-.516-.64-.516-.24-.33-.35-.8-.35-.8-.103-.47-.103-1.056-.103-1.056V3.306zm6.606 10.796zm3.26.6v2.233h-2.26V6.463h1.8l.153.755h.065c.443-.4 1.01-.67 1.01-.67.56-.27 1.16-.27 1.16-.27.69 0 1.25.277 1.25.277.55.278.935.786.935.786.384.51.59 1.23.59 1.23.207.72.207 1.6.207 1.6 0 .99-.27 1.75-.27 1.75-.266.77-.72 1.3-.72 1.3-.454.54-1.03.81-1.03.81-.58.28-1.195.28-1.195.28-.495 0-.957-.21-.957-.21-.464-.21-.864-.59-.864-.59zm0 0zm0-2.756c.31.277.62.385.62.385.31.11.6.11.6.11.58 0 1-.53 1-.53.42-.53.42-1.72.42-1.72 0-2.06-1.327-2.06-1.327-2.06-.66 0-1.306.7-1.306.7v3.13zm5.56 2.156zm1-7.64h1.85l.15 1.34h.06c.42-.785 1.01-1.154 1.01-1.154.59-.37 1.17-.37 1.17-.37.33 0 .535.04.535.04.205.037.374.114.374.114l-.37 1.956c-.21-.062-.4-.092-.4-.092-.18-.03-.43-.03-.43-.03-.43 0-.9.307-.9.307-.47.308-.78 1.093-.78 1.093v4.436H679v-7.64zm4.976 7.64zm.55-3.82c0-.955.31-1.7.31-1.7.31-.748.824-1.257.824-1.257.52-.508 1.2-.777 1.2-.777.68-.27 1.4-.27 1.4-.27.73 0 1.4.27 1.4.27.67.27 1.19.777 1.19.777.52.51.823 1.256.823 1.256.31.75.31 1.71.31 1.71 0 .96-.31 1.7-.31 1.7-.31.75-.82 1.26-.82 1.26-.513.51-1.183.78-1.183.78-.67.27-1.395.27-1.395.27-.72 0-1.4-.27-1.4-.27-.68-.27-1.19-.77-1.19-.77-.517-.51-.82-1.25-.82-1.25-.31-.74-.31-1.7-.31-1.7zm0 0zm2.33 0c0 1 .35 1.586.35 1.586.35.586 1.055.586 1.055.586.69 0 1.05-.586 1.05-.586.35-.585.35-1.586.35-1.586 0-1-.35-1.586-.35-1.586-.357-.585-1.05-.585-1.05-.585-.708 0-1.05.59-1.05.59-.35.59-.35 1.59-.35 1.59zm5.67 3.82zm2.39.954c0 .432.462.655.462.655.463.23 1.233.23 1.233.23.77 0 1.26-.27 1.26-.27.49-.27.49-.67.49-.67 0-.35-.3-.47-.3-.47-.3-.12-.87-.12-.87-.12h-.78c-.4 0-.65-.02-.65-.02-.24-.02-.43-.07-.43-.07-.41.37-.41.76-.41.76zm0 0zm-1.86.355c0-.92 1.09-1.54 1.09-1.54v-.06c-.307-.2-.507-.51-.507-.51-.2-.3-.2-.78-.2-.78 0-.41.24-.79.24-.79.244-.37.61-.64.61-.64v-.06c-.4-.28-.72-.79-.72-.79-.32-.51-.32-1.19-.32-1.19 0-.69.26-1.21.26-1.21.26-.51.7-.86.7-.86.44-.35 1.01-.51 1.01-.51.57-.17 1.19-.17 1.19-.17.68 0 1.19.19 1.19.19h2.79v1.64h-1.22c.11.17.18.44.18.44.07.27.07.57.07.57 0 .67-.23 1.15-.23 1.15-.23.48-.64.8-.64.8-.41.31-.95.47-.95.47-.54.15-1.18.15-1.18.15-.44 0-.92-.15-.92-.15-.15.13-.22.25-.22.25-.06.12-.06.33-.06.33 0 .29.26.43.26.43.25.14.9.14.9.14h1.23c1.416 0 2.16.45 2.16.45.75.46.75 1.49.75 1.49 0 .6-.3 1.1-.3 1.1-.3.5-.86.86-.86.86-.555.36-1.34.57-1.34.57-.79.21-1.77.21-1.77.21-.68 0-1.26-.12-1.26-.12-.58-.11-1.015-.35-1.015-.35-.44-.23-.69-.6-.69-.6-.245-.37-.245-.87-.245-.87zm0 0zm3.37-5.09c.45 0 .75-.31.75-.31.3-.31.3-.96.3-.96 0-.6-.3-.91-.3-.91-.3-.31-.74-.31-.74-.31-.45 0-.75.31-.75.31-.3.31-.3.93-.3.93 0 .65.3.96.3.96.3.32.744.32.744.32zm4.33 3.79zm1-7.64h1.85l.15 1.34h.065c.41-.78 1-1.15 1-1.15.58-.37 1.17-.37 1.17-.37.32 0 .53.04.53.04.21.04.38.12.38.12l-.37 1.96c-.22-.06-.4-.09-.4-.09-.19-.03-.43-.03-.43-.03-.43 0-.9.31-.9.31-.47.31-.77 1.1-.77 1.1v4.44H701.8V6.47zm4.68 7.64zm.73-2.12c0-1.2 1.02-1.88 1.02-1.88 1.02-.67 3.28-.9 3.28-.9-.03-.51-.308-.81-.308-.81-.277-.3-.89-.3-.89-.3-.496 0-.99.19-.99.19-.496.19-1.05.51-1.05.51l-.8-1.49c.74-.45 1.546-.72 1.546-.72.81-.27 1.72-.27 1.72-.27 1.48 0 2.26.84 2.26.84.78.84.78 2.61.78 2.61v4.37h-1.87l-.17-.78h-.05c-.497.43-1.04.7-1.04.7-.55.27-1.197.27-1.197.27-.52 0-.94-.18-.94-.18-.41-.18-.71-.49-.71-.49-.29-.32-.45-.73-.45-.73-.16-.41-.16-.9-.16-.9zm0 0zm2.16-.17c0 .37.24.55.24.55.24.18.64.18.64.18.4 0 .675-.17.675-.17.28-.16.59-.47.59-.47v-1.34c-1.213.17-1.68.5-1.68.5-.46.33-.46.77-.46.77zm5.344 2.3zm1-7.64h1.85l.16.99h.06c.48-.48 1.02-.82 1.02-.82.54-.34 1.3-.34 1.3-.34.81 0 1.31.33 1.31.33.5.33.8.95.8.95.503-.52 1.07-.9 1.07-.9.56-.38 1.33-.38 1.33-.38 1.23 0 1.81.83 1.81.83.574.82.574 2.26.574 2.26v4.74h-2.27V9.65c0-.833-.23-1.14-.23-1.14-.22-.31-.715-.31-.715-.31-.57 0-1.31.74-1.31.74v5.16h-2.26V9.65c0-.833-.22-1.14-.22-1.14-.228-.31-.72-.31-.72-.31-.586 0-1.295.74-1.295.74v5.16h-2.27V6.46zm12.2 7.64zm1.34-2.29c.52.4 1 .6 1 .6.48.2.97.2.97.2.51 0 .74-.17.74-.17.23-.17.23-.47.23-.47 0-.18-.13-.33-.13-.33-.13-.14-.35-.27-.35-.27-.22-.12-.5-.22-.5-.22-.27-.1-.57-.22-.57-.22-.35-.14-.702-.32-.702-.32-.352-.18-.65-.45-.65-.45-.29-.27-.48-.63-.48-.63-.18-.36-.18-.84-.18-.84 0-.52.21-.97.21-.97.21-.45.59-.75.59-.75.388-.31.927-.48.927-.48.54-.18 1.2-.18 1.2-.18.88 0 1.54.3 1.54.3.66.3 1.15.67 1.15.67l-1.03 1.35c-.42-.31-.82-.48-.82-.48-.4-.17-.8-.17-.8-.17-.86 0-.86.6-.86.6 0 .19.13.32.13.32.12.13.33.24.33.24.21.11.48.21.48.21l.56.21c.37.14.73.32.73.32.36.18.66.44.66.44.3.26.48.64.48.64.19.38.19.9.19.9 0 .53-.2.97-.2.97-.2.45-.6.78-.6.78-.4.33-.983.53-.983.53-.59.19-1.36.19-1.36.19-.75 0-1.55-.29-1.55-.29-.79-.29-1.38-.77-1.38-.77zm5.48 2.3zm.94-1.23c0-.61.39-1.02.39-1.02.4-.41.98-.41.98-.41.59 0 .98.41.98.41.39.41.39 1.02.39 1.02 0 .6-.39 1.01-.39 1.01-.39.41-.98.41-.98.41-.58 0-.98-.41-.98-.41-.39-.41-.39-1.01-.39-1.01z"/><path fill="none" stroke="#D3D3D3" stroke-miterlimit="10" d="M58.062 738h916.952M58.062 597.4h916.952M58.062 456.8h916.952M58.062 316.2h916.952M58.062 175.6h916.952M58.062 35h916.952" stroke-dasharray="5 5"/><g fill="#5C3566" stroke-opacity="0" stroke-width="0" stroke-miterlimit="10" stroke-linejoin="bevel"><defs><clipPath id="a"><path d="M58.062 35v703h916.952V35z"/></clipPath></defs><g clip-path="url(#a)"><path stroke="none" d="M73.062 738V574.904h153.39V738z"/></g></g><g fill-opacity="0" stroke-miterlimit="10"><defs><clipPath id="b"><path d="M58.062 35v703h916.952V35z"/></clipPath></defs><g clip-path="url(#b)"><path fill="none" d="M73.062 738V574.904h153.39V738z"/></g></g><g fill="#5C3566" stroke-opacity="0" stroke-width="0" stroke-miterlimit="10" stroke-linejoin="bevel"><defs><clipPath id="c"><path d="M58.062 35v703h916.952V35z"/></clipPath></defs><g clip-path="url(#c)"><path stroke="none" d="M256.452 738V237.464h153.39V738z"/></g></g><g fill-opacity="0" stroke-miterlimit="10"><defs><clipPath id="d"><path d="M58.062 35v703h916.952V35z"/></clipPath></defs><g clip-path="url(#d)"><path fill="none" d="M256.452 738V237.464h153.39V738z"/></g></g><g fill="#5C3566" stroke-opacity="0" stroke-width="0" stroke-miterlimit="10" stroke-linejoin="bevel"><defs><clipPath id="e"><path d="M58.062 35v703h916.952V35z"/></clipPath></defs><g clip-path="url(#e)"><path stroke="none" d="M439.843 738V51.872h153.39V738z"/></g></g><g fill-opacity="0" stroke-miterlimit="10"><defs><clipPath id="f"><path d="M58.062 35v703h916.952V35z"/></clipPath></defs><g clip-path="url(#f)"><path fill="none" d="M439.843 738V51.872h153.39V738z"/></g></g><g fill="#5C3566" stroke-opacity="0" stroke-width="0" stroke-miterlimit="10" stroke-linejoin="bevel"><defs><clipPath id="g"><path d="M58.062 35v703h916.952V35z"/></clipPath></defs><g clip-path="url(#g)"><path stroke="none" d="M623.233 738V437.116h153.39V738z"/></g></g><g fill-opacity="0" stroke-miterlimit="10"><defs><clipPath id="h"><path d="M58.062 35v703h916.952V35z"/></clipPath></defs><g clip-path="url(#h)"><path fill="none" d="M623.233 738V437.116h153.39V738z"/></g></g><g fill="#5C3566" stroke-opacity="0" stroke-width="0" stroke-miterlimit="10" stroke-linejoin="bevel"><defs><clipPath id="i"><path d="M58.062 35v703h916.952V35z"/></clipPath></defs><g clip-path="url(#i)"><path stroke="none" d="M806.623 738v-46.398h153.39V738z"/></g></g><g fill-opacity="0" stroke-miterlimit="10"><defs><clipPath id="j"><path d="M58.062 35v703h916.952V35z"/></clipPath></defs><g clip-path="url(#j)"><path fill="none" d="M806.623 738v-46.398h153.39V738z"/></g></g><path fill="none" stroke-miterlimit="10" d="M58.062 738V35" stroke-linecap="square"/><path fill="none" stroke-miterlimit="10" d="M58.062 738h2m-2-70.3h2m-2-70.3h2m-2-70.3h2m-2-70.3h2m-2-70.3h2m-2-70.3h2m-2-70.3h2m-2-70.3h2m-2-70.3h2m-2-70.3h2m-2 703h5m-5-140.6h5m-5-140.6h5m-5-140.6h5m-5-140.6h5m-5-140.6h5"/><path stroke="none" d="M43.766 741.445zm2.615.126c-1.01 0-1.58-.9-1.58-.9-.56-.9-.56-2.59-.56-2.59 0-1.69.57-2.57.57-2.57.57-.88 1.59-.88 1.59-.88 1.01 0 1.58.88 1.58.88.57.89.57 2.58.57 2.58 0 1.69-.56 2.6-.56 2.6-.57.91-1.58.91-1.58.91zm0 0zm0-.69c.3 0 .54-.16.54-.16.24-.16.41-.5.41-.5.18-.34.27-.87.27-.87.1-.53.1-1.26.1-1.26 0-.73-.09-1.26-.09-1.26-.09-.52-.27-.85-.27-.85-.17-.33-.41-.49-.41-.49-.23-.16-.53-.16-.53-.16-.29 0-.53.16-.53.16-.24.16-.41.49-.41.49-.17.33-.26.86-.26.86-.09.53-.09 1.26-.09 1.26 0 1.47.37 2.14.37 2.14.37.67.95.67.95.67zM33.7 600.85zm.83-.714h1.534V595.2h-1.22v-.558c.463-.084.805-.204.805-.204.34-.12.61-.29.61-.29h.66v5.988h1.39v.715h-3.78v-.71zm4.39.717zm2.616.126c-1.02 0-1.586-.91-1.586-.91-.567-.9-.567-2.6-.567-2.6 0-1.69.567-2.58.567-2.58.567-.88 1.586-.88 1.586-.88 1.01 0 1.574.88 1.574.88.567.88.567 2.57.567 2.57 0 1.69-.563 2.59-.563 2.59-.566.9-1.575.9-1.575.9zm0 0zm0-.7c.294 0 .53-.16.53-.16.237-.16.41-.5.41-.5.174-.34.268-.87.268-.87.096-.53.096-1.27.096-1.27 0-.74-.093-1.26-.093-1.26-.096-.53-.27-.86-.27-.86-.174-.33-.41-.49-.41-.49-.236-.16-.53-.16-.53-.16-.295 0-.536.16-.536.16-.24.15-.41.48-.41.48-.17.33-.27.85-.27.85-.09.52-.09 1.26-.09 1.26 0 1.47.37 2.14.37 2.14.36.66.95.66.95.66zm2.605.57zm2.62.13c-1.02 0-1.58-.9-1.58-.9-.56-.9-.56-2.6-.56-2.6 0-1.69.57-2.58.57-2.58.57-.88 1.59-.88 1.59-.88 1.01 0 1.58.88 1.58.88.57.88.57 2.57.57 2.57 0 1.69-.56 2.59-.56 2.59-.56.9-1.57.9-1.57.9zm0 0zm0-.69c.3 0 .53-.16.53-.16.24-.17.41-.51.41-.51.17-.34.27-.87.27-.87.1-.53.1-1.27.1-1.27 0-.74-.09-1.26-.09-1.26-.09-.53-.26-.86-.26-.86-.18-.33-.41-.49-.41-.49-.24-.16-.53-.16-.53-.16-.3 0-.54.16-.54.16-.24.15-.41.48-.41.48-.17.33-.27.85-.27.85-.09.52-.09 1.26-.09 1.26 0 1.47.36 2.14.36 2.14.37.67.95.67.95.67zM33.24 460.24zm.42-.513c.757-.755 1.345-1.364 1.345-1.364.588-.61.988-1.13.988-1.13.4-.52.61-.96.61-.96.21-.437.21-.846.21-.846 0-.58-.316-.946-.316-.946-.315-.37-.956-.37-.956-.37-.42 0-.77.24-.77.24-.35.24-.65.58-.65.58l-.49-.49c.42-.46.9-.74.9-.74.47-.28 1.14-.28 1.14-.28.94 0 1.47.55 1.47.55.54.54.54 1.43.54 1.43 0 .47-.2.95-.2.95-.2.48-.57.99-.57.99-.36.51-.86 1.06-.86 1.06-.5.56-1.1 1.18-1.1 1.18l.57-.04c.3-.02.56-.02.56-.02H38v.75h-4.33v-.51zm4.8.516zm2.617.12c-1.02 0-1.586-.9-1.586-.9-.56-.905-.56-2.597-.56-2.597 0-1.69.57-2.57.57-2.57.57-.88 1.59-.88 1.59-.88 1.01 0 1.58.88 1.58.88.57.884.57 2.576.57 2.576 0 1.69-.56 2.593-.56 2.593-.57.907-1.57.907-1.57.907zm0 0zm0-.69c.294 0 .53-.165.53-.165.237-.163.41-.505.41-.505.173-.34.268-.87.268-.87.094-.53.094-1.264.094-1.264 0-.74-.1-1.26-.1-1.26-.1-.53-.27-.86-.27-.86-.18-.33-.41-.49-.41-.49-.24-.16-.53-.16-.53-.16-.3 0-.54.16-.54.16-.24.15-.42.48-.42.48-.18.33-.27.85-.27.85-.1.53-.1 1.26-.1 1.26 0 1.47.36 2.14.36 2.14.36.67.95.67.95.67zm2.605.565zm2.615.125c-1.02 0-1.586-.9-1.586-.9-.56-.9-.56-2.594-.56-2.594 0-1.69.57-2.58.57-2.58.57-.88 1.59-.88 1.59-.88 1.01 0 1.58.88 1.58.88.57.88.57 2.57.57 2.57 0 1.69-.56 2.59-.56 2.59-.57.9-1.58.9-1.58.9zm0 0zm0-.69c.294 0 .53-.16.53-.16.237-.16.41-.504.41-.504.174-.34.268-.87.268-.87.095-.53.095-1.27.095-1.27 0-.74-.095-1.26-.095-1.26-.094-.53-.268-.86-.268-.86-.173-.33-.41-.49-.41-.49-.236-.16-.53-.16-.53-.16-.294 0-.535.16-.535.16-.242.15-.415.48-.415.48-.174.33-.268.85-.268.85-.1.53-.1 1.26-.1 1.26 0 1.47.36 2.14.36 2.14.36.67.95.67.95.67zM33.137 319.64zm.713-1.385c.304.31.71.552.71.552.403.24 1.002.24 1.002.24.61 0 .998-.33.998-.33.39-.33.39-.898.39-.898 0-.3-.112-.54-.112-.54-.11-.25-.362-.43-.362-.43-.252-.18-.662-.28-.662-.28-.41-.1-1.008-.1-1.008-.1v-.67c.535 0 .898-.1.898-.1.362-.1.588-.27.588-.27.226-.17.32-.4.32-.4.095-.23.095-.5.095-.5 0-.5-.31-.78-.31-.78-.31-.28-.846-.28-.846-.28-.42 0-.77.19-.77.19-.35.19-.65.49-.65.49l-.46-.55c.39-.37.86-.6.86-.6.47-.24 1.07-.24 1.07-.24.44 0 .81.11.81.11.37.11.64.33.64.33.27.21.42.53.42.53.15.31.15.72.15.72 0 .61-.34 1-.34 1-.33.39-.88.6-.88.6v.04c.31.07.57.21.57.21.26.14.46.36.46.36.2.21.31.5.31.5.11.28.11.63.11.63 0 .44-.17.8-.17.8-.17.35-.47.6-.47.6-.3.25-.7.38-.7.38-.4.13-.86.13-.86.13-.4 0-.73-.08-.73-.08-.33-.08-.6-.21-.6-.21-.27-.13-.48-.3-.48-.3-.21-.17-.38-.36-.38-.36zm4.506 1.38zm2.616.128c-1.02 0-1.586-.9-1.586-.9-.568-.908-.568-2.6-.568-2.6 0-1.69.568-2.572.568-2.572.567-.88 1.586-.88 1.586-.88 1.008 0 1.575.88 1.575.88.567.89.567 2.58.567 2.58 0 1.69-.567 2.6-.567 2.6-.567.9-1.575.9-1.575.9zm0 0zm0-.69c.294 0 .53-.168.53-.168.236-.162.41-.504.41-.504.173-.34.268-.87.268-.87.094-.53.094-1.26.094-1.26 0-.73-.094-1.26-.094-1.26-.095-.52-.268-.85-.268-.85-.173-.33-.41-.48-.41-.48-.236-.16-.53-.16-.53-.16-.295 0-.536.16-.536.16-.242.16-.415.49-.415.49-.17.33-.26.86-.26.86-.09.53-.09 1.26-.09 1.26 0 1.47.36 2.14.36 2.14.37.67.96.67.96.67zm2.605.562zm2.615.126c-1.02 0-1.586-.9-1.586-.9-.567-.9-.567-2.59-.567-2.59 0-1.69.56-2.57.56-2.57.56-.88 1.58-.88 1.58-.88 1.01 0 1.57.88 1.57.88.56.89.56 2.58.56 2.58 0 1.69-.57 2.59-.57 2.59-.57.9-1.58.9-1.58.9zm0 0zm0-.69c.294 0 .53-.16.53-.16.237-.16.41-.5.41-.5.174-.34.268-.87.268-.87.095-.53.095-1.26.095-1.26 0-.73-.095-1.26-.095-1.26-.094-.52-.268-.85-.268-.85-.173-.33-.41-.49-.41-.49-.236-.16-.53-.16-.53-.16-.294 0-.536.16-.536.16-.24.16-.414.49-.414.49-.174.33-.268.86-.268.86-.095.53-.095 1.26-.095 1.26 0 1.47.36 2.14.36 2.14.36.67.95.67.95.67zM33.04 179.05zm3.194-2.54v-1.943c0-.28.016-.65.016-.65.016-.38.037-.65.037-.65h-.042c-.126.24-.263.47-.263.47-.136.234-.283.476-.283.476l-1.57 2.29h2.1zm0 0zm1.733.694h-.914v1.848h-.82v-1.85H33.22v-.57l2.867-4.29h.967v4.16h.913v.7zm.295 1.848zm2.615.126c-1.02 0-1.586-.9-1.586-.9-.56-.9-.56-2.592-.56-2.592 0-1.69.57-2.57.57-2.57.57-.88 1.59-.88 1.59-.88 1.01 0 1.58.88 1.58.88.57.887.57 2.58.57 2.58 0 1.69-.56 2.593-.56 2.593-.57.9-1.58.9-1.58.9zm0 0zm0-.69c.294 0 .53-.16.53-.16.237-.162.41-.504.41-.504.174-.34.268-.87.268-.87.095-.53.095-1.268.095-1.268 0-.74-.095-1.26-.095-1.26-.094-.53-.268-.86-.268-.86-.173-.33-.41-.49-.41-.49-.236-.16-.53-.16-.53-.16-.294 0-.536.16-.536.16-.24.15-.41.48-.41.48-.17.33-.26.857-.26.857-.09.52-.09 1.26-.09 1.26 0 1.47.37 2.14.37 2.14.37.67.95.67.95.67zm2.605.57zm2.616.126c-1.02 0-1.586-.904-1.586-.904-.568-.902-.568-2.594-.568-2.594 0-1.69.568-2.58.568-2.58.567-.88 1.586-.88 1.586-.88 1.008 0 1.575.883 1.575.883.568.88.568 2.57.568 2.57 0 1.69-.56 2.59-.56 2.59-.56.91-1.57.91-1.57.91zm0 0zm0-.694c.294 0 .53-.162.53-.162.237-.16.41-.5.41-.5.173-.34.268-.87.268-.87.094-.53.094-1.264.094-1.264 0-.734-.094-1.26-.094-1.26-.095-.524-.268-.855-.268-.855-.173-.33-.41-.49-.41-.49-.236-.16-.53-.16-.53-.16-.294 0-.536.16-.536.16-.242.15-.415.48-.415.48-.173.33-.268.85-.268.85-.1.52-.1 1.26-.1 1.26 0 1.47.36 2.14.36 2.14.36.67.95.67.95.67zM33.125 38.446zm.683-1.355c.294.31.698.54.698.54.405.23.993.23.993.23.3 0 .57-.11.57-.11.27-.11.47-.31.47-.31.19-.2.31-.48.31-.48.11-.28.11-.63.11-.63 0-.69-.39-1.08-.39-1.08-.39-.39-1.04-.39-1.04-.39-.35 0-.6.11-.6.11-.25.11-.55.31-.55.31l-.47-.29.22-3.22h3.35v.75H34.9l-.18 1.98c.24-.13.485-.2.485-.2.242-.07.546-.07.546-.07.44 0 .81.13.81.13.38.13.67.39.67.39.29.26.45.65.45.65.16.4.16.94.16.94 0 .55-.19.97-.19.97-.19.42-.5.71-.5.71-.31.29-.72.44-.72.44-.4.15-.84.15-.84.15-.4 0-.73-.07-.73-.07-.33-.08-.6-.21-.6-.21-.26-.13-.48-.29-.48-.29-.21-.16-.38-.34-.38-.34zm4.538 1.36zm2.615.13c-1.01 0-1.58-.9-1.58-.9-.56-.9-.56-2.59-.56-2.59 0-1.69.57-2.57.57-2.57.57-.88 1.59-.88 1.59-.88 1.01 0 1.58.88 1.58.88.57.89.57 2.58.57 2.58 0 1.69-.56 2.6-.56 2.6-.57.91-1.58.91-1.58.91zm0 0zm0-.69c.3 0 .54-.16.54-.16.24-.16.41-.5.41-.5.18-.34.27-.87.27-.87.1-.53.1-1.26.1-1.26 0-.73-.09-1.26-.09-1.26-.09-.52-.27-.85-.27-.85-.17-.33-.41-.49-.41-.49-.23-.16-.53-.16-.53-.16-.29 0-.53.16-.53.16-.24.16-.41.49-.41.49-.17.33-.27.86-.27.86-.09.53-.09 1.26-.09 1.26 0 1.47.37 2.14.37 2.14.37.67.95.67.95.67zm2.61.57zm2.62.13c-1.02 0-1.58-.9-1.58-.9-.57-.9-.57-2.59-.57-2.59 0-1.69.57-2.57.57-2.57.57-.88 1.59-.88 1.59-.88 1.01 0 1.58.89 1.58.89.57.89.57 2.58.57 2.58 0 1.69-.57 2.6-.57 2.6-.56.91-1.57.91-1.57.91zm0 0zm0-.69c.3 0 .53-.16.53-.16.24-.16.41-.5.41-.5.18-.34.27-.87.27-.87.1-.53.1-1.26.1-1.26 0-.73-.09-1.26-.09-1.26-.09-.52-.26-.85-.26-.85-.17-.33-.41-.48-.41-.48-.23-.16-.53-.16-.53-.16-.29 0-.53.16-.53.16-.24.16-.41.49-.41.49-.17.33-.27.86-.27.86-.09.53-.09 1.26-.09 1.26 0 1.47.36 2.14.36 2.14.37.67.95.67.95.67z"/><path fill="none" stroke-miterlimit="10" d="M58.062 738h916.952" stroke-linecap="square"/><path stroke="none" d="M101.695 758zm.967-1.502c.367.39.866.625.866.625.5.236 1.035.236 1.035.236.683 0 1.06-.31 1.06-.31.38-.31.38-.82.38-.82 0-.26-.09-.45-.09-.45-.09-.19-.242-.32-.242-.32-.15-.13-.36-.24-.36-.24-.21-.11-.45-.22-.45-.22l-.98-.43c-.24-.11-.49-.26-.49-.26-.25-.15-.45-.36-.45-.36-.2-.21-.32-.5-.32-.5-.12-.29-.12-.67-.12-.67 0-.39.16-.73.16-.73.17-.34.46-.59.46-.59.29-.25.68-.39.68-.39.4-.14.87-.14.87-.14.62 0 1.15.23 1.15.23.53.24.9.61.9.61l-.47.56c-.31-.31-.7-.48-.7-.48-.38-.17-.86-.17-.86-.17-.57 0-.93.26-.93.26-.35.27-.35.74-.35.74 0 .25.1.42.1.42.1.17.27.3.27.3.17.14.37.23.37.23.2.1.41.19.41.19l.98.42c.3.13.56.29.56.29.26.16.45.38.45.38.19.21.3.5.3.5.11.29.11.66.11.66 0 .41-.17.76-.17.76-.16.35-.47.62-.47.62-.31.26-.74.42-.74.42-.43.15-.97.15-.97.15-.72 0-1.34-.27-1.34-.27-.62-.27-1.07-.75-1.07-.75zm4.642 1.502zm1.01-4.4h-.757v-.653l.798-.052.105-1.43h.725v1.43h1.376v.704h-1.37v2.83c0 .47.18.73.18.73.18.25.62.25.62.25.14 0 .3-.04.3-.04.16-.05.29-.1.29-.1l.17.65c-.21.07-.45.13-.45.13-.24.05-.48.05-.48.05-.41 0-.69-.13-.69-.13-.28-.13-.45-.35-.45-.35-.17-.22-.25-.54-.25-.54-.07-.32-.07-.7-.07-.7v-2.82zm2.54 4.4zm.862-5.105h.715l.08.924h.03c.27-.49.64-.77.64-.77.38-.29.82-.29.82-.29.31 0 .55.1.55.1l-.16.75c-.12-.04-.23-.07-.23-.07-.1-.02-.26-.02-.26-.02-.32 0-.68.26-.68.26-.35.26-.61.91-.61.91v3.3h-.86v-5.11zm2.68 5.105zm.482-2.542c0-.64.194-1.14.194-1.14.194-.5.52-.845.52-.845.326-.347.75-.525.75-.525.427-.18.9-.18.9-.18.472 0 .897.18.897.18.42.178.75.525.75.525.32.346.52.845.52.845.19.5.19 1.14.19 1.14 0 .63-.2 1.13-.2 1.13-.2.498-.52.84-.52.84-.33.34-.75.52-.75.52-.43.178-.9.178-.9.178-.47 0-.9-.18-.9-.18-.43-.177-.75-.52-.75-.52-.33-.34-.52-.84-.52-.84-.2-.498-.2-1.128-.2-1.128zm0 0zm.893 0c0 .44.11.798.11.798.11.357.3.615.3.615.2.26.47.4.47.4.28.15.6.15.6.15.33 0 .6-.14.6-.14.28-.14.47-.4.47-.4.2-.25.3-.61.3-.61.11-.35.11-.8.11-.8 0-.44-.1-.8-.1-.8-.1-.36-.3-.62-.3-.62-.19-.26-.47-.4-.47-.4-.27-.14-.6-.14-.6-.14-.32 0-.59.14-.59.14-.27.14-.47.41-.47.41-.19.26-.3.63-.3.63-.1.37-.1.81-.1.81zm4.32 2.542zm.86-5.105h.72l.08.735h.03c.37-.367.77-.614.77-.614.41-.247.94-.247.94-.247.81 0 1.19.5 1.19.5.37.5.37 1.49.37 1.49V758h-.86v-3.12c0-.724-.23-1.045-.23-1.045-.23-.32-.73-.32-.73-.32-.4 0-.7.2-.7.2-.3.2-.69.588-.69.588V758h-.86v-5.105zm4.89 5.105zm1.23.86c0 .41.4.653.4.653.4.24 1.09.24 1.09.24.37 0 .67-.088.67-.088.3-.09.51-.23.51-.23.21-.143.33-.332.33-.332.12-.19.12-.39.12-.39 0-.356-.26-.492-.26-.492-.26-.13-.76-.13-.76-.13h-.88c-.14 0-.32-.01-.32-.01-.17-.01-.34-.07-.34-.07-.27.2-.4.42-.4.42-.12.22-.12.44-.12.44zm0 0zm-.75.117c0-.326.2-.62.2-.62.2-.294.55-.535.55-.535v-.042c-.19-.116-.32-.32-.32-.32-.13-.206-.13-.51-.13-.51 0-.326.18-.568.18-.568.18-.24.38-.378.38-.378v-.042c-.25-.21-.45-.562-.45-.562-.2-.352-.2-.814-.2-.814 0-.42.15-.756.15-.756.16-.336.42-.573.42-.573.27-.236.62-.362.62-.362.35-.126.74-.126.74-.126.21 0 .4.03.4.03.19.03.33.09.33.09h1.78v.66h-1.05c.18.18.3.45.3.45.12.27.12.6.12.6 0 .41-.14.74-.14.74-.15.33-.4.55-.4.55-.25.22-.59.35-.59.35-.34.12-.73.12-.73.12-.19 0-.39-.05-.39-.05-.2-.05-.38-.13-.38-.13-.13.11-.23.25-.23.25-.09.14-.09.35-.09.35 0 .24.19.4.19.4.19.16.71.16.71.16h.99c.89 0 1.34.29 1.34.29.45.28.45.92.45.92 0 .35-.18.67-.18.67-.18.32-.51.56-.51.56-.33.24-.81.38-.81.38-.48.14-1.08.14-1.08.14-.47 0-.86-.09-.86-.09-.39-.09-.67-.27-.67-.27-.28-.18-.43-.43-.43-.43-.15-.25-.15-.59-.15-.59zm0 0zm2.11-3.172c.22 0 .42-.084.42-.084.2-.08.35-.24.35-.24.16-.16.24-.38.24-.38.09-.22.09-.51.09-.51 0-.56-.31-.87-.31-.87-.31-.31-.76-.31-.76-.31-.45 0-.76.31-.76.31-.31.31-.31.88-.31.88 0 .29.09.51.09.51.08.23.23.39.23.39.15.16.35.24.35.24.2.09.42.09.42.09zm2.71 2.195zm.86-7.48h.86v6.514c0 .21.08.294.08.294.08.084.17.084.17.084h.08l.11-.02.12.65c-.08.042-.2.063-.2.063-.11.02-.29.02-.29.02-.49 0-.7-.293-.7-.293-.21-.294-.21-.86-.21-.86v-6.45zm1.82 7.48zm.52 1.408l.19.047.2.026c.44 0 .72-.31.72-.31.28-.31.44-.78.44-.78l.12-.38-2.04-5.11h.89l1.04 2.83.25.71c.13.37.25.73.25.73h.04c.12-.34.23-.72.23-.72.1-.38.21-.71.21-.71l.91-2.82h.84l-1.92 5.53c-.13.38-.3.7-.3.7-.17.33-.4.56-.4.56-.23.24-.52.38-.52.38-.29.14-.68.14-.68.14-.18 0-.32-.02-.32-.02-.15-.02-.27-.08-.27-.08l.17-.68zm6.51-1.408zm.5-2.542c0-.62.18-1.12.18-1.12.19-.498.49-.844.49-.844.31-.347.71-.536.71-.536.4-.19.84-.19.84-.19.44 0 .77.158.77.158.33.158.67.43.67.43l-.04-.87v-1.965h.87V758h-.71l-.07-.6H145c-.307.295-.7.51-.7.51-.394.216-.846.216-.846.216-.967 0-1.54-.693-1.54-.693-.572-.693-.572-1.975-.572-1.975zm0 0zm.89-.01c0 .924.37 1.44.37 1.44.37.513 1.04.513 1.04.513.36 0 .67-.17.67-.17.32-.17.63-.53.63-.53v-2.67c-.32-.29-.62-.41-.62-.41-.3-.12-.61-.12-.61-.12-.3 0-.57.14-.57.14-.27.15-.47.4-.47.4-.2.26-.31.62-.31.62-.11.36-.11.8-.11.8zm4.44 2.552zm1.3-6.155c-.25 0-.42-.158-.42-.158-.17-.158-.17-.4-.17-.4 0-.25.17-.404.17-.404.18-.152.43-.152.43-.152.25 0 .43.16.43.16.18.16.18.41.18.41 0 .24-.17.4-.17.4-.17.16-.43.16-.43.16zm0 0zm-.44 1.05h.86V758h-.86v-5.105zm1.72 5.105zm.73-1.155c.34.273.69.44.69.44.35.17.82.17.82.17.51 0 .76-.232.76-.232.26-.23.26-.567.26-.567 0-.2-.1-.347-.1-.347-.1-.15-.26-.26-.26-.26-.16-.11-.37-.2-.37-.2l-.42-.17c-.27-.1-.55-.22-.55-.22-.27-.12-.49-.3-.49-.3-.21-.18-.35-.41-.35-.41-.14-.23-.14-.56-.14-.56 0-.31.12-.58.12-.58.12-.27.35-.46.35-.46.23-.19.56-.31.56-.31.32-.11.73-.11.73-.11.49 0 .89.17.89.17.41.16.7.41.7.41l-.41.54c-.26-.2-.54-.33-.54-.33-.28-.13-.62-.13-.62-.13-.48 0-.71.22-.71.22-.23.22-.23.51-.23.51 0 .18.1.31.1.31.1.13.25.23.25.23.16.1.37.18.37.18l.43.16c.27.1.55.22.55.22.28.11.5.29.5.29.22.17.36.42.36.42.15.25.15.61.15.61 0 .31-.12.59-.12.59-.12.27-.36.48-.36.48-.24.21-.59.33-.59.33-.35.12-.81.12-.81.12-.54 0-1.04-.2-1.04-.2-.49-.2-.86-.51-.86-.51zm3.67 1.155zm.61-1.323c0-.84.75-1.287.75-1.287.75-.447 2.39-.625 2.39-.625 0-.242-.04-.473-.04-.473-.05-.23-.17-.41-.17-.41-.12-.178-.32-.29-.32-.29-.2-.11-.51-.11-.51-.11-.45 0-.84.17-.84.17-.39.167-.69.377-.69.377l-.35-.6c.35-.23.87-.45.87-.45.51-.22 1.13-.22 1.13-.22.94 0 1.36.57 1.36.57.42.57.42 1.53.42 1.53V758h-.71l-.07-.61h-.02c-.37.306-.79.52-.79.52-.42.216-.89.216-.89.216-.65 0-1.07-.378-1.07-.378-.42-.378-.42-1.07-.42-1.07zm0 0zm.85-.064c0 .442.26.63.26.63.26.19.64.19.64.19.37 0 .7-.173.7-.173.33-.174.7-.51.7-.51v-1.418c-.64.084-1.08.2-1.08.2-.44.115-.71.273-.71.273-.26.157-.38.362-.38.362-.11.205-.11.446-.11.446zm3.92 1.387zm1.23.86c0 .41.4.653.4.653.4.24 1.09.24 1.09.24.37 0 .67-.088.67-.088.3-.09.51-.23.51-.23.21-.143.33-.332.33-.332.12-.19.12-.39.12-.39 0-.356-.26-.492-.26-.492-.26-.13-.76-.13-.76-.13h-.88c-.15 0-.32-.01-.32-.01-.17-.01-.34-.07-.34-.07-.27.2-.39.42-.39.42-.12.22-.12.44-.12.44zm0 0zm-.75.117c0-.326.2-.62.2-.62.2-.294.55-.535.55-.535v-.042c-.19-.116-.32-.32-.32-.32-.13-.206-.13-.51-.13-.51 0-.326.18-.568.18-.568.18-.24.38-.378.38-.378v-.042c-.25-.21-.46-.562-.46-.562-.2-.352-.2-.814-.2-.814 0-.42.15-.756.15-.756.16-.336.42-.573.42-.573.27-.236.62-.362.62-.362.36-.126.74-.126.74-.126.21 0 .4.03.4.03.19.03.33.09.33.09h1.78v.66h-1.05c.18.18.3.45.3.45.12.27.12.6.12.6 0 .41-.14.74-.14.74-.14.33-.4.55-.4.55-.25.22-.59.35-.59.35-.34.12-.73.12-.73.12-.18 0-.38-.05-.38-.05-.2-.05-.38-.13-.38-.13-.13.11-.23.25-.23.25-.09.14-.09.35-.09.35 0 .24.19.4.19.4.19.16.71.16.71.16h.99c.89 0 1.34.29 1.34.29.45.28.45.92.45.92 0 .35-.18.67-.18.67-.18.32-.52.56-.52.56-.33.24-.81.38-.81.38-.48.14-1.07.14-1.07.14-.47 0-.86-.09-.86-.09-.39-.09-.67-.27-.67-.27-.28-.18-.43-.43-.43-.43-.15-.25-.15-.59-.15-.59zm0 0zm2.11-3.172c.23 0 .42-.084.42-.084.2-.08.35-.24.35-.24.15-.16.24-.38.24-.38.09-.22.09-.51.09-.51 0-.56-.31-.87-.31-.87-.31-.31-.76-.31-.76-.31-.45 0-.76.31-.76.31-.31.31-.31.88-.31.88 0 .29.09.51.09.51.09.23.24.39.24.39.15.16.35.24.35.24.2.09.42.09.42.09zm2.71 2.195zm.87-5.105h.72l.08.924h.04c.26-.49.64-.77.64-.77.38-.29.82-.29.82-.29.3 0 .55.1.55.1l-.17.75-.23-.07c-.11-.02-.26-.02-.26-.02-.33 0-.68.26-.68.26-.35.26-.62.91-.62.91v3.3h-.86v-5.11zm2.67 5.105zm.49-2.542c0-.63.2-1.13.2-1.13.19-.498.51-.845.51-.845.32-.346.73-.53.73-.53.41-.184.85-.184.85-.184.48 0 .87.16.87.16.38.17.64.48.64.48.26.31.39.75.39.75.14.44.14.98.14.98 0 .28-.03.47-.03.47h-3.45c.06.83.51 1.31.51 1.31.46.48 1.2.48 1.2.48.37 0 .68-.11.68-.11.31-.11.6-.29.6-.29l.31.56c-.34.21-.74.37-.74.37-.41.16-.93.16-.93.16-.51 0-.96-.19-.96-.19-.45-.19-.78-.53-.78-.53-.33-.34-.52-.84-.52-.84-.19-.5-.19-1.13-.19-1.13zm0 0zm3.57-.39c0-.786-.33-1.2-.33-1.2-.33-.416-.93-.416-.93-.416-.27 0-.52.11-.52.11-.25.11-.44.315-.44.315-.2.205-.33.504-.33.504-.13.3-.17.69-.17.69h2.73zm1.15 2.932zm.49-2.542c0-.63.2-1.13.2-1.13.19-.498.51-.845.51-.845.32-.346.73-.53.73-.53.41-.184.85-.184.85-.184.48 0 .87.16.87.16.38.17.64.48.64.48.25.31.39.75.39.75.14.44.14.98.14.98 0 .28-.03.47-.03.47h-3.45c.06.83.51 1.31.51 1.31.46.48 1.2.48 1.2.48.37 0 .68-.11.68-.11.31-.11.6-.29.6-.29l.31.56c-.34.21-.75.37-.75.37-.41.16-.94.16-.94.16-.52 0-.96-.19-.96-.19-.45-.19-.78-.53-.78-.53-.33-.34-.52-.84-.52-.84-.19-.5-.19-1.13-.19-1.13zm0 0zm3.57-.39c0-.786-.33-1.2-.33-1.2-.33-.416-.93-.416-.93-.416-.27 0-.52.11-.52.11-.25.11-.44.315-.44.315-.2.205-.34.504-.34.504-.13.3-.17.69-.17.69h2.73zM178.3 758zm.685-4.317c0-.305.185-.49.185-.49.182-.182.444-.182.444-.182.25 0 .433.19.433.19.183.19.183.49.183.49 0 .28-.184.47-.184.47-.18.19-.433.19-.433.19-.26 0-.444-.18-.444-.18-.19-.18-.19-.46-.19-.46zm0 0zm0 3.792c0-.305.185-.49.185-.49.182-.182.444-.182.444-.182.25 0 .433.183.433.183.183.184.183.49.183.49 0 .282-.184.466-.184.466-.18.184-.433.184-.433.184-.26 0-.444-.184-.444-.184-.19-.184-.19-.467-.19-.467zm4.056.525zm.82-.714h1.53v-4.937h-1.22v-.56c.46-.09.81-.21.81-.21.34-.12.61-.29.61-.29h.66v5.99h1.39v.72h-3.78v-.72zm4.39.714zm.83-.714h1.53v-4.937h-1.22v-.56c.47-.09.81-.21.81-.21.34-.12.62-.29.62-.29h.66v5.99h1.39v.72h-3.78v-.72zm4.39.714zm2.81-.557c.26 0 .47-.105.47-.105.21-.105.37-.3.37-.3.16-.193.25-.46.25-.46.09-.27.09-.605.09-.605 0-.662-.31-1.04-.31-1.04-.3-.378-.93-.378-.93-.378-.31 0-.68.204-.68.204-.37.2-.71.67-.71.67.08.98.46 1.49.46 1.49.37.51 1.02.51 1.02.51zm0 0zm1.38-5.02c-.21-.242-.5-.384-.5-.384-.29-.15-.61-.15-.61-.15-.34 0-.66.14-.66.14-.31.14-.55.48-.55.48-.24.33-.39.87-.39.87-.14.54-.15 1.34-.15 1.34.32-.39.74-.62.74-.62.42-.23.83-.23.83-.23.87 0 1.39.51 1.39.51.52.51.52 1.55.52 1.55 0 .48-.16.88-.16.88-.15.39-.43.67-.43.67-.27.28-.63.44-.63.44-.35.15-.76.15-.76.15-.49 0-.91-.2-.91-.2-.42-.2-.73-.61-.73-.61-.31-.4-.49-1.01-.49-1.01-.18-.6-.18-1.41-.18-1.41 0-1.01.21-1.72.21-1.72.21-.71.57-1.15.57-1.15.36-.45.82-.65.82-.65.46-.21.97-.21.97-.21.55 0 .94.2.94.2.4.2.68.51.68.51zM304.6 758zm.943-6.89h1.723c1.598 0 2.428.882 2.428.882.83.882.83 2.53.83 2.53 0 .82-.21 1.466-.21 1.466-.21.646-.62 1.093-.62 1.093-.41.45-1.007.69-1.007.69-.6.24-1.38.24-1.38.24h-1.764v-6.89zm0 0zm1.66 6.176c1.208 0 1.81-.725 1.81-.725.6-.72.6-2.03.6-2.03 0-1.31-.61-2-.61-2-.61-.69-1.82-.69-1.82-.69h-.79v5.46h.78zm3.855.714zm1.303-6.155c-.25 0-.42-.158-.42-.158-.18-.158-.18-.4-.18-.4 0-.25.17-.404.17-.404.17-.152.42-.152.42-.152.25 0 .42.16.42.16.17.16.17.41.17.41 0 .24-.18.4-.18.4-.17.16-.42.16-.42.16zm0 0zm-.44 1.05h.86V758h-.86v-5.105zm1.72 5.105zm.73-1.155c.34.273.69.44.69.44.35.17.82.17.82.17.51 0 .76-.232.76-.232.25-.23.25-.567.25-.567 0-.2-.1-.347-.1-.347-.1-.15-.27-.26-.27-.26-.16-.11-.37-.2-.37-.2l-.42-.17c-.27-.1-.54-.22-.54-.22-.27-.12-.49-.3-.49-.3-.21-.18-.35-.41-.35-.41-.14-.23-.14-.56-.14-.56 0-.31.12-.58.12-.58.13-.27.35-.46.35-.46.23-.19.55-.31.55-.31.33-.11.74-.11.74-.11.49 0 .89.17.89.17.41.16.7.41.7.41l-.41.54c-.26-.2-.54-.33-.54-.33-.28-.13-.62-.13-.62-.13-.48 0-.71.22-.71.22-.23.22-.23.51-.23.51 0 .18.1.31.1.31.1.13.25.23.25.23.16.1.36.18.36.18l.43.16c.27.1.55.22.55.22.28.11.5.29.5.29.22.17.36.42.36.42.14.25.14.61.14.61 0 .31-.12.59-.12.59-.12.27-.35.48-.35.48-.23.21-.59.33-.59.33-.35.12-.8.12-.8.12-.54 0-1.04-.2-1.04-.2-.49-.2-.86-.51-.86-.51zm3.68 1.155zm.61-1.323c0-.84.75-1.287.75-1.287.76-.447 2.39-.625 2.39-.625 0-.242-.04-.473-.04-.473-.04-.23-.16-.41-.16-.41-.12-.178-.32-.29-.32-.29-.2-.11-.51-.11-.51-.11-.45 0-.83.17-.83.17-.38.167-.69.377-.69.377l-.34-.6c.36-.23.88-.45.88-.45.52-.22 1.13-.22 1.13-.22.94 0 1.36.57 1.36.57.42.57.42 1.53.42 1.53V758h-.71l-.07-.61h-.02c-.36.306-.79.52-.79.52-.42.216-.9.216-.9.216-.65 0-1.08-.378-1.08-.378-.42-.378-.42-1.07-.42-1.07zm0 0zm.85-.064c0 .442.26.63.26.63.26.19.64.19.64.19.37 0 .7-.173.7-.173.33-.174.7-.51.7-.51v-1.418c-.64.084-1.08.2-1.08.2-.44.115-.71.273-.71.273-.27.157-.38.362-.38.362-.11.205-.11.446-.11.446zm3.92 1.387zm1.23.86c0 .41.4.653.4.653.4.24 1.09.24 1.09.24.37 0 .67-.088.67-.088.3-.09.51-.23.51-.23.21-.143.33-.332.33-.332.12-.19.12-.39.12-.39 0-.356-.26-.492-.26-.492-.26-.13-.76-.13-.76-.13h-.88c-.15 0-.32-.01-.32-.01-.18-.01-.34-.07-.34-.07-.28.2-.4.42-.4.42-.13.22-.13.44-.13.44zm0 0zm-.75.117c0-.326.2-.62.2-.62.2-.294.55-.535.55-.535v-.042c-.19-.116-.32-.32-.32-.32-.13-.206-.13-.51-.13-.51 0-.326.18-.568.18-.568.18-.24.38-.378.38-.378v-.042c-.25-.21-.45-.562-.45-.562-.2-.352-.2-.814-.2-.814 0-.42.16-.756.16-.756.15-.336.41-.573.41-.573.26-.236.62-.362.62-.362.35-.126.74-.126.74-.126.21 0 .4.03.4.03.18.03.33.09.33.09h1.78v.66h-1.05c.18.18.3.45.3.45.12.27.12.6.12.6 0 .41-.14.74-.14.74-.15.33-.4.55-.4.55-.25.22-.59.35-.59.35-.34.12-.73.12-.73.12-.19 0-.39-.05-.39-.05-.2-.05-.38-.13-.38-.13-.13.11-.23.25-.23.25-.09.14-.09.35-.09.35 0 .24.19.4.19.4.19.16.72.16.72.16h.99c.9 0 1.34.29 1.34.29.45.28.45.92.45.92 0 .35-.18.67-.18.67-.18.32-.51.56-.51.56-.33.24-.81.38-.81.38-.47.14-1.07.14-1.07.14-.47 0-.86-.09-.86-.09-.39-.09-.67-.27-.67-.27-.28-.18-.43-.43-.43-.43-.15-.25-.15-.59-.15-.59zm0 0zm2.11-3.172c.22 0 .42-.084.42-.084.2-.08.35-.24.35-.24.16-.16.24-.38.24-.38.09-.22.09-.51.09-.51 0-.56-.31-.87-.31-.87-.31-.31-.77-.31-.77-.31-.45 0-.76.31-.76.31-.31.31-.31.88-.31.88 0 .29.09.51.09.51.09.23.24.39.24.39.16.16.35.24.35.24.19.09.41.09.41.09zm2.71 2.195zm.86-5.105h.72l.08.924h.03c.26-.49.64-.77.64-.77.37-.29.82-.29.82-.29.3 0 .54.1.54.1l-.17.75c-.12-.04-.23-.07-.23-.07-.1-.02-.26-.02-.26-.02-.32 0-.67.26-.67.26-.35.26-.61.91-.61.91v3.3h-.86v-5.11zm2.68 5.105zm.49-2.542c0-.63.2-1.13.2-1.13.2-.498.52-.845.52-.845.32-.346.73-.53.73-.53.41-.184.85-.184.85-.184.48 0 .87.16.87.16.38.17.64.48.64.48.26.31.39.75.39.75.14.44.14.98.14.98 0 .28-.03.47-.03.47h-3.45c.05.83.51 1.31.51 1.31.46.48 1.19.48 1.19.48.36 0 .67-.11.67-.11.31-.11.6-.29.6-.29l.31.56c-.33.21-.74.37-.74.37-.41.16-.93.16-.93.16-.52 0-.96-.19-.96-.19-.45-.19-.78-.53-.78-.53-.33-.34-.52-.84-.52-.84-.19-.5-.19-1.13-.19-1.13zm0 0zm3.57-.39c0-.786-.33-1.2-.33-1.2-.33-.416-.93-.416-.93-.416-.27 0-.52.11-.52.11-.24.11-.44.315-.44.315-.2.205-.33.504-.33.504-.13.3-.17.69-.17.69h2.73zm1.15 2.932zm.49-2.542c0-.63.2-1.13.2-1.13.2-.498.52-.845.52-.845.32-.346.73-.53.73-.53.41-.184.85-.184.85-.184.48 0 .87.16.87.16.38.17.64.48.64.48.25.31.39.75.39.75.14.44.14.98.14.98 0 .28-.03.47-.03.47h-3.45c.05.83.51 1.31.51 1.31.46.48 1.19.48 1.19.48.37 0 .68-.11.68-.11.31-.11.59-.29.59-.29l.31.56c-.33.21-.74.37-.74.37-.41.16-.93.16-.93.16-.51 0-.96-.19-.96-.19-.44-.19-.77-.53-.77-.53-.33-.34-.52-.84-.52-.84-.19-.5-.19-1.13-.19-1.13zm0 0zm3.57-.39c0-.786-.33-1.2-.33-1.2-.33-.416-.93-.416-.93-.416-.27 0-.52.11-.52.11-.24.11-.44.315-.44.315-.2.205-.33.504-.33.504-.13.3-.17.69-.17.69h2.73zm1.15 2.932zm.69-4.317c0-.305.19-.49.19-.49.18-.182.45-.182.45-.182.25 0 .44.19.44.19.19.19.19.49.19.49 0 .28-.19.47-.19.47-.18.19-.44.19-.44.19-.26 0-.45-.18-.45-.18-.18-.18-.18-.46-.18-.46zm0 0zm0 3.792c0-.305.19-.49.19-.49.18-.182.45-.182.45-.182.25 0 .44.183.44.183.19.184.19.49.19.49 0 .282-.19.466-.19.466-.18.184-.44.184-.44.184-.26 0-.45-.184-.45-.184-.18-.184-.18-.467-.18-.467zm4.06.525zm.72-1.387c.31.315.71.557.71.557.41.242 1.01.242 1.01.242.61 0 1-.33 1-.33.39-.332.39-.9.39-.9 0-.293-.11-.54-.11-.54-.11-.247-.36-.426-.36-.426-.25-.178-.66-.273-.66-.273-.41-.094-1.01-.094-1.01-.094v-.67c.54 0 .9-.1.9-.1.36-.1.59-.26.59-.26.23-.17.32-.4.32-.4.1-.23.1-.5.1-.5 0-.5-.31-.78-.31-.78-.31-.29-.85-.29-.85-.29-.42 0-.77.19-.77.19-.35.18-.66.49-.66.49l-.46-.55c.39-.37.86-.61.86-.61.47-.24 1.07-.24 1.07-.24.44 0 .81.11.81.11.37.11.64.33.64.33.27.21.41.53.41.53.15.31.15.72.15.72 0 .61-.34 1-.34 1-.33.39-.88.6-.88.6v.04c.31.07.57.21.57.21.27.14.46.35.46.35.2.21.31.5.31.5.12.28.12.63.12.63 0 .44-.18.79-.18.79-.17.35-.47.6-.47.6-.3.25-.7.38-.7.38-.4.13-.86.13-.86.13-.4 0-.73-.08-.73-.08-.33-.08-.6-.21-.6-.21-.27-.13-.49-.3-.49-.3-.21-.17-.38-.36-.38-.36zm4.51 1.387zm.69-1.355c.3.305.7.536.7.536.41.24.99.24.99.24.31 0 .58-.11.58-.11.27-.11.47-.31.47-.31.2-.2.32-.48.32-.48.12-.28.12-.63.12-.63 0-.69-.39-1.08-.39-1.08-.39-.39-1.04-.39-1.04-.39-.35 0-.59.11-.59.11-.24.11-.55.31-.55.31l-.46-.29.22-3.22h3.35v.75h-2.59l-.18 1.99c.25-.13.49-.2.49-.2.24-.07.55-.07.55-.07.43 0 .81.13.81.13.38.13.66.39.66.39.29.26.45.65.45.65.17.4.17.94.17.94 0 .55-.19.97-.19.97-.19.42-.5.71-.5.71-.32.29-.72.44-.72.44-.41.15-.85.15-.85.15-.4 0-.73-.08-.73-.08-.33-.08-.59-.2-.59-.2-.27-.12-.48-.28-.48-.28-.21-.16-.38-.34-.38-.34zM357.9 758zm2.82-.557c.25 0 .46-.105.46-.105.21-.105.37-.3.37-.3.155-.193.244-.46.244-.46.09-.27.09-.605.09-.605 0-.662-.31-1.04-.31-1.04-.305-.378-.935-.378-.935-.378-.32 0-.69.204-.69.204-.37.2-.71.67-.71.67.08.98.46 1.49.46 1.49.37.51 1.01.51 1.01.51zm0 0zm1.374-5.02c-.21-.242-.5-.384-.5-.384-.29-.15-.61-.15-.61-.15-.34 0-.66.14-.66.14-.31.14-.56.48-.56.48-.24.33-.39.87-.39.87-.14.54-.15 1.34-.15 1.34.316-.39.736-.62.736-.62.42-.23.83-.23.83-.23.874 0 1.394.51 1.394.51.52.51.52 1.55.52 1.55 0 .48-.16.88-.16.88-.16.39-.43.67-.43.67-.275.28-.63.44-.63.44-.36.15-.77.15-.77.15-.495 0-.915-.2-.915-.2-.42-.2-.73-.61-.73-.61-.31-.4-.49-1.01-.49-1.01-.18-.6-.18-1.41-.18-1.41 0-1.01.21-1.72.21-1.72.21-.71.57-1.15.57-1.15.35-.45.81-.65.81-.65.45-.21.96-.21.96-.21.54 0 .94.2.94.2.39.2.68.51.68.51zM490.67 758zm.947-6.89h.903l2.49 4.327.745 1.43h.042c-.03-.527-.068-1.09-.068-1.09-.04-.56-.04-1.107-.04-1.107v-3.56h.83V758h-.91l-2.5-4.338-.75-1.418h-.04l.08 1.066c.03.54.03 1.087.03 1.087V758h-.83v-6.89zm5.85 6.89zm.484-2.542c0-.63.2-1.13.2-1.13.2-.498.52-.845.52-.845.32-.346.73-.53.73-.53.41-.184.85-.184.85-.184.49 0 .87.16.87.16.39.17.64.48.64.48.26.31.4.75.4.75.14.44.14.98.14.98 0 .28-.03.47-.03.47h-3.45c.06.83.51 1.31.51 1.31.46.48 1.2.48 1.2.48.37 0 .68-.11.68-.11.31-.11.6-.29.6-.29l.31.56c-.34.21-.75.37-.75.37-.41.16-.93.16-.93.16-.51 0-.96-.19-.96-.19-.44-.19-.77-.53-.77-.53-.33-.34-.52-.84-.52-.84-.19-.5-.19-1.13-.19-1.13zm0 0zm3.58-.39c0-.786-.33-1.2-.33-1.2-.33-.416-.93-.416-.93-.416-.27 0-.52.11-.52.11-.24.11-.44.315-.44.315-.2.205-.33.504-.33.504-.13.3-.17.69-.17.69h2.73zm1.15 2.932zm.79-5.105h.87v3.12c0 .724.23 1.045.23 1.045.23.32.73.32.73.32.4 0 .71-.205.71-.205.31-.204.67-.656.67-.656v-3.63h.86V758h-.71l-.07-.798h-.03c-.35.42-.75.672-.75.672-.39.252-.93.252-.93.252-.82 0-1.19-.504-1.19-.504-.37-.504-.37-1.492-.37-1.492v-3.235zM508.4 758zm1.008-4.4h-.75v-.653l.8-.052.104-1.43h.724v1.43h1.376v.704h-1.377v2.83c0 .47.172.73.172.73.175.25.616.25.616.25.14 0 .3-.04.3-.04.157-.05.283-.1.283-.1l.17.65c-.21.07-.457.13-.457.13-.25.05-.49.05-.49.05-.41 0-.69-.13-.69-.13-.28-.13-.45-.35-.45-.35-.18-.22-.25-.54-.25-.54-.08-.32-.08-.7-.08-.7v-2.82zm2.55 4.4zm.86-5.105h.714l.072.924h.033c.26-.49.633-.77.633-.77.374-.29.815-.29.815-.29.305 0 .547.1.547.1l-.17.75c-.124-.04-.23-.07-.23-.07-.103-.02-.26-.02-.26-.02-.327 0-.68.26-.68.26-.35.26-.614.91-.614.91v3.3h-.86v-5.11zm2.52 5.105zm.61-1.323c0-.84.75-1.287.75-1.287.75-.447 2.39-.625 2.39-.625 0-.242-.047-.473-.047-.473-.04-.23-.17-.41-.17-.41-.12-.178-.32-.29-.32-.29-.2-.11-.51-.11-.51-.11-.45 0-.83.17-.83.17-.38.167-.69.377-.69.377l-.34-.6c.36-.23.87-.45.87-.45.52-.22 1.14-.22 1.14-.22.94 0 1.36.57 1.36.57.42.57.42 1.53.42 1.53V758h-.71l-.07-.61h-.02c-.37.306-.79.52-.79.52-.42.216-.9.216-.9.216-.65 0-1.07-.378-1.07-.378-.43-.378-.43-1.07-.43-1.07zm0 0zm.85-.064c0 .442.258.63.258.63.258.19.637.19.637.19.367 0 .698-.173.698-.173.33-.174.7-.51.7-.51v-1.418c-.64.084-1.08.2-1.08.2-.44.115-.71.273-.71.273-.26.157-.38.362-.38.362-.11.205-.11.446-.11.446zm3.92 1.387zm.86-7.48h.86v6.514c0 .21.075.294.075.294.073.084.168.084.168.084h.08l.11-.02.12.65c-.08.042-.2.063-.2.063-.11.02-.29.02-.29.02-.49 0-.7-.293-.7-.293-.21-.294-.21-.86-.21-.86v-6.45zm1.817 7.48zm.684-4.317c0-.305.18-.49.18-.49.18-.182.45-.182.45-.182.25 0 .43.19.43.19.18.19.18.49.18.49 0 .28-.19.47-.19.47-.19.19-.44.19-.44.19-.26 0-.45-.18-.45-.18-.19-.18-.19-.46-.19-.46zm0 0zm0 3.792c0-.305.18-.49.18-.49.18-.182.45-.182.45-.182.25 0 .43.183.43.183.18.184.18.49.18.49 0 .282-.19.466-.19.466-.19.184-.44.184-.44.184-.26 0-.45-.184-.45-.184-.19-.184-.19-.467-.19-.467zm4.05.525zm3.19-2.542v-1.943c0-.273.02-.646.02-.646.01-.38.04-.65.04-.65h-.04c-.13.24-.27.47-.27.47l-.29.47-1.56 2.29h2.1zm0 0zm1.73.693h-.92V758h-.82v-1.85h-3.03v-.566l2.86-4.286h.97v4.16h.91v.693zm.29 1.85zm1.2-1.79c0 .29.11.52.11.52.11.23.3.41.3.41.19.18.45.27.45.27.26.1.57.1.57.1.59 0 .95-.32.95-.32.36-.32.36-.85.36-.85 0-.33-.15-.56-.15-.56-.15-.23-.4-.4-.4-.4-.25-.17-.58-.31-.58-.31-.33-.14-.69-.29-.69-.29-.4.28-.67.64-.67.64-.27.37-.27.83-.27.83zm0 0zm1.89-1.86c.33-.3.52-.64.52-.64.18-.33.18-.7.18-.7 0-.5-.31-.84-.31-.84-.31-.34-.86-.34-.86-.34-.48 0-.78.3-.78.3-.31.3-.31.79-.31.79 0 .31.13.52.13.52.12.22.34.38.34.38.21.17.49.3.49.3.28.13.58.25.58.25zm0 0zm-2.67 1.95c0-.32.11-.6.11-.6.11-.28.28-.5.28-.5.17-.22.4-.4.4-.4.22-.17.46-.3.46-.3v-.04c-.37-.26-.65-.63-.65-.63-.29-.37-.29-.91-.29-.91 0-.39.14-.7.14-.7.15-.31.4-.54.4-.54.25-.22.6-.35.6-.35.35-.12.76-.12.76-.12.44 0 .79.13.79.13.35.13.6.37.6.37.24.23.37.57.37.57.13.33.13.72.13.72 0 .27-.09.51-.09.51-.09.24-.22.45-.22.45-.13.21-.29.38-.29.38-.16.17-.32.28-.32.28v.05c.22.13.43.29.43.29.21.16.37.37.37.37.16.21.26.47.26.47.1.27.1.6.1.6 0 .38-.16.71-.16.71-.16.33-.44.57-.44.57-.28.24-.68.38-.68.38-.4.14-.89.14-.89.14-.47 0-.88-.13-.88-.13-.41-.13-.69-.38-.69-.38-.29-.25-.46-.58-.46-.58-.17-.34-.17-.74-.17-.74zm4.79 1.71zm1.21-1.79c0 .29.11.52.11.52.11.23.3.41.3.41.19.18.45.27.45.27.26.1.56.1.56.1.58 0 .95-.32.95-.32.36-.32.36-.85.36-.85 0-.32-.15-.55-.15-.55-.15-.23-.4-.4-.4-.4-.25-.18-.58-.32-.58-.32l-.69-.29c-.4.28-.67.64-.67.64-.27.36-.27.83-.27.83zm0 0zm1.89-1.86c.33-.3.52-.64.52-.64.18-.33.18-.7.18-.7 0-.5-.31-.84-.31-.84-.31-.34-.86-.34-.86-.34-.47 0-.78.3-.78.3-.3.3-.3.79-.3.79 0 .31.12.52.12.52.12.22.34.39.34.39.21.17.49.3.49.3.28.13.59.25.59.25zm0 0zM539 756.3c0-.327.11-.605.11-.605.11-.28.284-.503.284-.503.174-.225.4-.4.4-.4.225-.172.467-.3.467-.3v-.04c-.36-.263-.65-.636-.65-.636-.28-.37-.28-.907-.28-.907 0-.39.15-.71.15-.71.15-.32.4-.54.4-.54.25-.23.6-.35.6-.35.35-.13.76-.13.76-.13.44 0 .79.13.79.13.34.13.59.37.59.37.25.23.38.56.38.56.13.33.13.72.13.72 0 .26-.09.5-.09.5-.09.24-.22.45-.22.45-.13.21-.29.38-.29.38-.16.17-.32.28-.32.28v.04c.22.12.43.29.43.29.21.16.38.36.38.36.16.2.26.46.26.46.1.26.1.6.1.6 0 .38-.16.7-.16.7-.16.33-.44.57-.44.57-.28.24-.68.38-.68.38-.4.13-.88.13-.88.13-.47 0-.87-.14-.87-.14-.41-.14-.7-.38-.7-.38-.29-.25-.46-.59-.46-.59-.17-.34-.17-.74-.17-.74zm138.405 1.7zm3.876-2.804l-.32-1.05c-.19-.578-.36-1.15-.36-1.15-.17-.573-.34-1.17-.34-1.17h-.04c-.16.597-.33 1.17-.33 1.17-.16.572-.35 1.15-.35 1.15l-.33 1.05h2.07zm0 0zm.22.704h-2.51l-.66 2.1h-.89l2.33-6.89h.99l2.33 6.89h-.93zm1.62 2.1zm1.23.86c0 .41.4.65.4.65.4.24 1.09.24 1.09.24.37 0 .67-.09.67-.09.3-.09.51-.23.51-.23.21-.15.33-.33.33-.33.12-.19.12-.39.12-.39 0-.36-.26-.49-.26-.49-.26-.14-.76-.14-.76-.14h-.88c-.14 0-.32-.02-.32-.02-.17-.02-.34-.07-.34-.07-.27.2-.4.42-.4.42-.12.22-.12.44-.12.44zm0 0zm-.75.11c0-.33.2-.62.2-.62.2-.3.55-.54.55-.54v-.04c-.19-.12-.32-.32-.32-.32-.13-.21-.13-.51-.13-.51 0-.33.18-.57.18-.57.18-.24.38-.38.38-.38v-.044c-.25-.21-.45-.56-.45-.56-.2-.35-.2-.814-.2-.814 0-.42.16-.756.16-.756.15-.335.42-.572.42-.572.27-.234.62-.36.62-.36.36-.125.74-.125.74-.125.21 0 .4.03.4.03.19.04.33.09.33.09h1.78v.66h-1.05c.18.18.3.45.3.45.12.27.12.6.12.6 0 .41-.15.74-.15.74-.15.33-.4.55-.4.55-.25.22-.59.35-.59.35-.34.12-.73.12-.73.12-.19 0-.39-.05-.39-.05-.2-.05-.37-.13-.37-.13-.14.11-.23.25-.23.25-.09.14-.09.35-.09.35 0 .24.19.4.19.4.19.16.71.16.71.16h.99c.89 0 1.34.29 1.34.29.44.29.44.93.44.93 0 .36-.18.68-.18.68-.18.32-.52.56-.52.56-.33.24-.81.38-.81.38-.48.14-1.07.14-1.07.14-.47 0-.86-.09-.86-.09-.39-.09-.67-.27-.67-.27-.27-.18-.43-.43-.43-.43-.15-.25-.15-.59-.15-.59zm0 0zm2.11-3.17c.22 0 .42-.09.42-.09.2-.087.35-.24.35-.24.16-.16.24-.388.24-.388.09-.226.09-.51.09-.51 0-.567-.31-.877-.31-.877-.31-.31-.77-.31-.77-.31-.45 0-.76.31-.76.31-.32.31-.32.875-.32.875 0 .284.09.51.09.51.09.225.24.383.24.383.16.157.35.24.35.24.2.085.42.085.42.085zm2.71 2.19zm.86-5.11h.72l.08.924h.03c.27-.484.64-.767.64-.767.38-.284.82-.284.82-.284.3 0 .55.104.55.104l-.17.76c-.12-.04-.23-.063-.23-.063-.1-.02-.26-.02-.26-.02-.32 0-.67.26-.67.26-.35.262-.61.913-.61.913V758h-.86v-5.105zm2.68 5.105zm.49-2.543c0-.63.2-1.13.2-1.13.2-.5.52-.846.52-.846.32-.347.73-.53.73-.53.41-.185.85-.185.85-.185.49 0 .87.17.87.17.39.17.64.48.64.48.26.32.4.76.4.76.14.44.14.99.14.99 0 .29-.03.47-.03.47h-3.45c.06.83.51 1.31.51 1.31.46.48 1.19.48 1.19.48.37 0 .68-.11.68-.11.31-.11.6-.29.6-.29l.31.57c-.33.21-.74.37-.74.37-.41.16-.93.16-.93.16-.51 0-.96-.18-.96-.18-.45-.18-.78-.52-.78-.52-.33-.34-.52-.83-.52-.83-.19-.49-.19-1.12-.19-1.12zm0 0zm3.57-.39c0-.787-.33-1.2-.33-1.2-.33-.417-.93-.417-.93-.417-.27 0-.52.11-.52.11-.24.11-.44.318-.44.318-.2.204-.33.503-.33.503-.13.3-.17.69-.17.69h2.73zm1.16 2.93zm.49-2.542c0-.63.19-1.13.19-1.13.2-.497.52-.844.52-.844.32-.344.73-.53.73-.53.41-.182.85-.182.85-.182.49 0 .87.167.87.167.38.17.64.49.64.49.25.32.39.76.39.76.14.44.14.99.14.99 0 .29-.03.48-.03.48h-3.45c.05.83.51 1.32.51 1.32.46.49 1.19.49 1.19.49.37 0 .68-.11.68-.11.31-.11.59-.29.59-.29l.31.57c-.34.21-.75.37-.75.37-.41.16-.93.16-.93.16-.51 0-.96-.18-.96-.18-.45-.18-.78-.52-.78-.52-.33-.34-.52-.83-.52-.83-.19-.49-.19-1.12-.19-1.12zm0 0zm3.57-.39c0-.785-.33-1.2-.33-1.2-.33-.415-.93-.415-.93-.415-.27 0-.52.11-.52.11-.25.11-.45.315-.45.315-.2.207-.33.506-.33.506-.13.3-.17.69-.17.69h2.73zm1.16 2.933zm.68-4.318c0-.306.19-.49.19-.49.19-.183.45-.183.45-.183.25 0 .44.184.44.184.18.184.18.49.18.49 0 .28-.18.466-.18.466-.18.184-.43.184-.43.184-.26 0-.45-.183-.45-.183-.18-.184-.18-.467-.18-.467zm0 0zm0 3.79c0-.305.19-.49.19-.49.19-.182.45-.182.45-.182.25 0 .44.182.44.182.18.184.18.49.18.49 0 .282-.18.466-.18.466-.18.19-.43.19-.43.19-.26 0-.45-.18-.45-.18-.18-.18-.18-.46-.18-.46zm4.06.525zm.42-.514c.76-.754 1.35-1.363 1.35-1.363.59-.61.99-1.13.99-1.13.4-.52.61-.953.61-.953.21-.435.21-.845.21-.845 0-.58-.31-.944-.31-.944-.32-.36-.96-.36-.96-.36-.42 0-.77.24-.77.24-.36.24-.65.58-.65.58l-.49-.49c.42-.46.9-.74.9-.74.47-.28 1.13-.28 1.13-.28.93 0 1.47.54 1.47.54.54.55.54 1.44.54 1.44 0 .48-.2.95-.2.95-.2.48-.57.99-.57.99-.36.51-.86 1.06-.86 1.06-.5.56-1.1 1.17-1.1 1.17l.57-.04c.3-.02.56-.02.56-.02h1.94v.75h-4.33v-.51zm4.8.517zm.83-.712h1.54v-4.93h-1.22v-.55c.46-.08.8-.2.8-.2.34-.12.62-.29.62-.29h.66v5.99h1.39v.72h-3.78v-.71zm4.39.72zm3.2-2.54v-1.95c0-.27.02-.64.02-.64.02-.37.04-.64.04-.64h-.04l-.26.48-.28.48-1.56 2.29h2.1zm0 0zm1.74.7h-.91V758h-.82v-1.85h-3.02v-.566l2.87-4.286h.97v4.16h.92v.693zM844.33 758zm.967-1.502c.368.39.867.625.867.625.5.236 1.035.236 1.035.236.68 0 1.06-.31 1.06-.31.38-.31.38-.82.38-.82 0-.26-.09-.45-.09-.45-.09-.19-.25-.32-.25-.32-.15-.13-.36-.24-.36-.24-.21-.11-.45-.22-.45-.22l-.99-.43c-.24-.11-.5-.26-.5-.26-.25-.15-.45-.36-.45-.36-.2-.21-.32-.5-.32-.5-.13-.29-.13-.67-.13-.67 0-.39.16-.73.16-.73.16-.34.45-.59.45-.59.29-.25.68-.39.68-.39.39-.14.86-.14.86-.14.62 0 1.14.23 1.14.23.52.24.89.61.89.61l-.47.56c-.32-.31-.7-.48-.7-.48-.38-.17-.87-.17-.87-.17-.58 0-.93.26-.93.26-.35.27-.35.74-.35.74 0 .25.1.42.1.42.1.17.26.3.26.3.17.14.37.23.37.23.2.1.41.19.41.19l.97.42c.29.13.56.29.56.29.26.16.45.38.45.38.19.21.3.5.3.5.11.29.11.66.11.66 0 .41-.17.76-.17.76-.16.35-.47.62-.47.62-.31.26-.74.42-.74.42-.43.15-.98.15-.98.15-.73 0-1.35-.27-1.35-.27-.62-.27-1.07-.75-1.07-.75zM849.94 758zm1.01-4.4h-.757v-.653l.8-.052.104-1.43h.725v1.43h1.376v.704h-1.376v2.83c0 .47.173.73.173.73.173.25.614.25.614.25.13 0 .29-.04.29-.04.15-.05.28-.1.28-.1l.17.65c-.21.07-.46.13-.46.13-.25.05-.49.05-.49.05-.41 0-.69-.13-.69-.13-.28-.13-.45-.35-.45-.35-.18-.22-.25-.54-.25-.54-.08-.32-.08-.7-.08-.7v-2.82zm2.542 4.4zm.86-5.105h.716l.073.924h.04c.27-.49.64-.77.64-.77.38-.29.82-.29.82-.29.31 0 .55.1.55.1l-.17.75c-.12-.04-.23-.07-.23-.07-.1-.02-.26-.02-.26-.02-.32 0-.68.26-.68.26-.35.26-.61.91-.61.91v3.3h-.86v-5.11zm2.68 5.105zm.483-2.542c0-.64.194-1.14.194-1.14.19-.5.52-.845.52-.845.32-.347.75-.525.75-.525.42-.18.89-.18.89-.18.47 0 .9.18.9.18.42.178.75.525.75.525.32.346.52.845.52.845.19.5.19 1.14.19 1.14 0 .63-.2 1.13-.2 1.13-.2.498-.52.84-.52.84-.33.34-.75.52-.75.52-.43.178-.9.178-.9.178-.48 0-.9-.18-.9-.18-.43-.177-.75-.52-.75-.52-.33-.34-.52-.84-.52-.84-.2-.498-.2-1.128-.2-1.128zm0 0zm.893 0c0 .44.105.798.105.798.105.357.3.615.3.615.193.26.467.4.467.4.273.15.598.15.598.15.326 0 .6-.14.6-.14.272-.14.466-.4.466-.4.195-.25.3-.61.3-.61.105-.35.105-.8.105-.8 0-.44-.11-.8-.11-.8-.11-.36-.3-.62-.3-.62-.2-.26-.47-.4-.47-.4-.28-.14-.6-.14-.6-.14-.33 0-.6.14-.6.14-.28.14-.47.41-.47.41-.2.26-.3.63-.3.63-.11.37-.11.81-.11.81zm4.317 2.542zm.86-5.105h.716l.08.735h.03c.37-.367.77-.614.77-.614.41-.247.94-.247.94-.247.81 0 1.18.5 1.18.5.38.5.38 1.49.38 1.49V758h-.86v-3.12c0-.724-.23-1.045-.23-1.045-.23-.32-.73-.32-.73-.32-.4 0-.7.2-.7.2-.3.2-.69.588-.69.588V758h-.86v-5.105zM868.47 758zm1.23.86c0 .41.395.653.395.653.394.24 1.087.24 1.087.24.37 0 .668-.088.668-.088.3-.09.51-.23.51-.23.21-.143.325-.332.325-.332.116-.19.116-.39.116-.39 0-.356-.26-.492-.26-.492-.26-.13-.76-.13-.76-.13h-.88c-.14 0-.32-.01-.32-.01-.17-.01-.34-.07-.34-.07-.27.2-.4.42-.4.42-.12.22-.12.44-.12.44zm0 0zm-.756.117c0-.326.2-.62.2-.62.2-.294.546-.535.546-.535v-.042c-.19-.116-.32-.32-.32-.32-.132-.206-.132-.51-.132-.51 0-.326.178-.568.178-.568.18-.24.378-.378.378-.378v-.042c-.252-.21-.456-.562-.456-.562-.205-.352-.205-.814-.205-.814 0-.42.152-.756.152-.756.152-.336.415-.573.415-.573.262-.236.614-.362.614-.362.352-.126.74-.126.74-.126.21 0 .395.03.395.03.18.03.33.09.33.09h1.77v.66h-1.05c.18.18.3.45.3.45.12.27.12.6.12.6 0 .41-.15.74-.15.74-.15.33-.4.55-.4.55-.25.22-.6.35-.6.35-.34.12-.73.12-.73.12-.19 0-.39-.05-.39-.05-.2-.05-.38-.13-.38-.13-.14.11-.23.25-.23.25-.1.14-.1.35-.1.35 0 .24.19.4.19.4.19.16.71.16.71.16h.98c.89 0 1.34.29 1.34.29.44.28.44.92.44.92 0 .35-.18.67-.18.67-.18.32-.52.56-.52.56-.34.24-.82.38-.82.38-.48.14-1.08.14-1.08.14-.48 0-.86-.09-.86-.09-.39-.09-.67-.27-.67-.27-.28-.18-.43-.43-.43-.43-.15-.25-.15-.59-.15-.59zm0 0zm2.112-3.172c.22 0 .415-.084.415-.084.2-.08.35-.24.35-.24.16-.16.24-.38.24-.38.09-.22.09-.51.09-.51 0-.56-.31-.87-.31-.87-.31-.31-.76-.31-.76-.31-.45 0-.76.31-.76.31-.31.31-.31.88-.31.88 0 .29.09.51.09.51.09.23.24.39.24.39.15.16.35.24.35.24.2.09.42.09.42.09zm2.71 2.195zm.86-7.48h.863v6.514c0 .21.07.294.07.294.07.084.17.084.17.084h.08l.11-.02.11.65c-.09.042-.2.063-.2.063-.12.02-.3.02-.3.02-.5 0-.71-.293-.71-.293-.21-.294-.21-.86-.21-.86v-6.45zm1.818 7.48zm.515 1.408l.19.047.2.026c.44 0 .71-.31.71-.31.28-.31.43-.78.43-.78l.11-.38-2.05-5.11h.89l1.04 2.83.24.71c.13.37.25.73.25.73h.04c.11-.34.22-.72.22-.72.1-.38.21-.71.21-.71l.91-2.82h.84l-1.92 5.53c-.14.38-.3.7-.3.7-.17.33-.4.56-.4.56-.23.24-.53.38-.53.38-.3.14-.68.14-.68.14-.18 0-.33-.02-.33-.02-.15-.02-.28-.08-.28-.08l.16-.68zm6.51-1.408zm.61-1.323c0-.84.75-1.287.75-1.287.75-.447 2.39-.625 2.39-.625 0-.242-.05-.473-.05-.473-.05-.23-.17-.41-.17-.41-.12-.178-.32-.29-.32-.29-.2-.11-.52-.11-.52-.11-.45 0-.84.17-.84.17-.39.167-.69.377-.69.377l-.35-.6c.36-.23.87-.45.87-.45.51-.22 1.13-.22 1.13-.22.93 0 1.35.57 1.35.57.42.57.42 1.53.42 1.53V758h-.71l-.08-.61h-.02c-.37.306-.8.52-.8.52-.43.216-.9.216-.9.216-.65 0-1.08-.378-1.08-.378-.42-.378-.42-1.07-.42-1.07zm0 0zm.85-.064c0 .442.25.63.25.63.26.19.63.19.63.19.36 0 .7-.173.7-.173.33-.174.7-.51.7-.51v-1.418c-.64.084-1.09.2-1.09.2-.45.115-.71.273-.71.273-.27.157-.39.362-.39.362-.12.205-.12.446-.12.446zm3.92 1.387zm1.22.86c0 .41.39.653.39.653.39.24 1.08.24 1.08.24.36 0 .66-.088.66-.088.3-.09.51-.23.51-.23.21-.143.32-.332.32-.332.11-.19.11-.39.11-.39 0-.356-.27-.492-.27-.492-.27-.13-.77-.13-.77-.13h-.88c-.15 0-.32-.01-.32-.01-.18-.01-.34-.07-.34-.07-.27.2-.4.42-.4.42-.13.22-.13.44-.13.44zm0 0zm-.76.117c0-.326.2-.62.2-.62.2-.294.54-.535.54-.535v-.042c-.19-.116-.32-.32-.32-.32-.13-.206-.13-.51-.13-.51 0-.326.17-.568.17-.568.18-.24.38-.378.38-.378v-.042c-.26-.21-.46-.562-.46-.562-.21-.352-.21-.814-.21-.814 0-.42.15-.756.15-.756.15-.336.41-.573.41-.573.26-.236.61-.362.61-.362.35-.126.74-.126.74-.126.21 0 .39.03.39.03.18.03.33.09.33.09h1.78v.66h-1.05c.18.18.3.45.3.45.12.27.12.6.12.6 0 .41-.15.74-.15.74-.15.33-.4.55-.4.55-.26.22-.6.35-.6.35-.34.12-.73.12-.73.12-.19 0-.39-.05-.39-.05-.2-.05-.38-.13-.38-.13-.14.11-.23.25-.23.25-.1.14-.1.35-.1.35 0 .24.19.4.19.4.19.16.71.16.71.16h.99c.89 0 1.34.29 1.34.29.44.28.44.92.44.92 0 .35-.18.67-.18.67-.18.32-.51.56-.51.56-.34.24-.82.38-.82.38-.48.14-1.08.14-1.08.14-.48 0-.86-.09-.86-.09-.39-.09-.67-.27-.67-.27-.28-.18-.43-.43-.43-.43-.15-.25-.15-.59-.15-.59zm0 0zm2.11-3.172c.22 0 .41-.084.41-.084.19-.08.34-.24.34-.24.15-.16.23-.38.23-.38.08-.22.08-.51.08-.51 0-.56-.32-.87-.32-.87-.32-.31-.77-.31-.77-.31-.45 0-.77.31-.77.31-.32.31-.32.88-.32.88 0 .29.08.51.08.51.08.23.24.39.24.39.15.16.34.24.34.24.19.09.41.09.41.09zm2.71 2.195zm.86-5.105h.71l.07.924h.03c.26-.49.63-.77.63-.77.37-.29.81-.29.81-.29.3 0 .54.1.54.1l-.17.75-.23-.07c-.11-.02-.26-.02-.26-.02-.33 0-.68.26-.68.26-.35.26-.62.91-.62.91v3.3H895v-5.11zm2.68 5.105zm.48-2.542c0-.63.19-1.13.19-1.13.19-.498.51-.845.51-.845.32-.346.73-.53.73-.53.41-.184.85-.184.85-.184.48 0 .87.16.87.16.38.17.64.48.64.48.26.31.39.75.39.75.13.44.13.98.13.98 0 .28-.03.47-.03.47H899c.05.83.51 1.31.51 1.31.455.48 1.19.48 1.19.48.366 0 .676-.11.676-.11.31-.11.593-.29.593-.29l.3.56c-.34.21-.75.37-.75.37-.41.16-.94.16-.94.16-.52 0-.97-.19-.97-.19-.45-.19-.78-.53-.78-.53-.33-.34-.52-.84-.52-.84-.19-.5-.19-1.13-.19-1.13zm0 0zm3.57-.39c0-.786-.33-1.2-.33-1.2-.33-.416-.93-.416-.93-.416-.28 0-.52.11-.52.11-.25.11-.45.315-.45.315-.2.205-.33.504-.33.504-.13.3-.18.69-.18.69h2.73zm1.16 2.932zm.48-2.542c0-.63.19-1.13.19-1.13.19-.498.51-.845.51-.845.32-.346.73-.53.73-.53.41-.184.85-.184.85-.184.48 0 .87.16.87.16.38.17.64.48.64.48.26.31.39.75.39.75.13.44.13.98.13.98 0 .28-.03.47-.03.47h-3.44c.05.83.51 1.31.51 1.31.45.48 1.19.48 1.19.48.36 0 .67-.11.67-.11.31-.11.59-.29.59-.29l.3.56c-.34.21-.75.37-.75.37-.41.16-.94.16-.94.16-.51 0-.96-.19-.96-.19-.45-.19-.78-.53-.78-.53-.33-.34-.52-.84-.52-.84-.19-.5-.19-1.13-.19-1.13zm0 0zm3.57-.39c0-.786-.33-1.2-.33-1.2-.34-.416-.93-.416-.93-.416-.28 0-.52.11-.52.11-.25.11-.45.315-.45.315-.2.205-.33.504-.33.504-.13.3-.18.69-.18.69h2.73zM908.1 758zm.684-4.317c0-.305.184-.49.184-.49.18-.182.444-.182.444-.182.252 0 .436.19.436.19.185.19.185.49.185.49 0 .28-.184.47-.184.47-.19.19-.44.19-.44.19-.27 0-.45-.18-.45-.18-.19-.18-.19-.46-.19-.46zm0 0zm0 3.792c0-.305.184-.49.184-.49.18-.182.444-.182.444-.182.252 0 .436.183.436.183.185.184.185.49.185.49 0 .282-.184.466-.184.466-.19.184-.44.184-.44.184-.27 0-.45-.184-.45-.184-.19-.184-.19-.467-.19-.467zm4.055.525zm.71-1.387c.3.315.71.557.71.557.4.242 1 .242 1 .242.61 0 1-.33 1-.33.39-.332.39-.9.39-.9 0-.293-.11-.54-.11-.54-.11-.247-.36-.426-.36-.426-.25-.178-.66-.273-.66-.273-.41-.094-1.01-.094-1.01-.094v-.67c.53 0 .9-.1.9-.1.36-.1.58-.26.58-.26.22-.17.32-.4.32-.4.09-.23.09-.5.09-.5 0-.5-.31-.78-.31-.78-.31-.29-.85-.29-.85-.29-.42 0-.78.19-.78.19-.35.18-.66.49-.66.49l-.47-.55c.38-.37.85-.61.85-.61.46-.24 1.06-.24 1.06-.24.44 0 .81.11.81.11.37.11.64.33.64.33.27.21.41.53.41.53.14.31.14.72.14.72 0 .61-.34 1-.34 1-.34.39-.88.6-.88.6v.04c.3.07.56.21.56.21.26.14.46.35.46.35.2.21.31.5.31.5.11.28.11.63.11.63 0 .44-.18.79-.18.79-.18.35-.48.6-.48.6-.3.25-.7.38-.7.38-.4.13-.86.13-.86.13-.4 0-.73-.08-.73-.08-.33-.08-.6-.21-.6-.21-.27-.13-.49-.3-.49-.3-.21-.17-.38-.36-.38-.36zm4.51 1.387zm.71-1.387c.3.315.71.557.71.557.4.242 1 .242 1 .242.61 0 .99-.33.99-.33.39-.332.39-.9.39-.9 0-.293-.11-.54-.11-.54-.11-.247-.37-.426-.37-.426-.25-.178-.66-.273-.66-.273-.41-.094-1.01-.094-1.01-.094v-.67c.54 0 .9-.1.9-.1.37-.1.59-.26.59-.26.23-.17.32-.4.32-.4.1-.23.1-.5.1-.5 0-.5-.31-.78-.31-.78-.31-.29-.85-.29-.85-.29-.42 0-.77.19-.77.19-.35.18-.66.49-.66.49l-.46-.55c.39-.37.85-.61.85-.61.47-.24 1.06-.24 1.06-.24.44 0 .81.11.81.11.36.11.63.33.63.33.26.21.41.53.41.53.14.31.14.72.14.72 0 .61-.34 1-.34 1-.34.39-.89.6-.89.6v.04c.3.07.56.21.56.21.26.14.46.35.46.35.2.21.31.5.31.5.11.28.11.63.11.63 0 .44-.17.79-.17.79-.17.35-.47.6-.47.6-.3.25-.7.38-.7.38-.4.13-.86.13-.86.13-.4 0-.73-.08-.73-.08-.33-.08-.61-.21-.61-.21-.27-.13-.49-.3-.49-.3-.22-.17-.39-.36-.39-.36z"/></svg>