<svg xmlns="http://www.w3.org/2000/svg" stroke="#000" viewBox="0 0 1024 768" font-size="1"><path fill="#FFF" stroke="none" d="M0 0v768h1024V0z"/><path stroke="none" d="M337.282 14.102zm1.186-10.04h2.264V14.1h-2.264V4.062zm6.653 10.04zm.56-3.82c0-.955.33-1.7.33-1.7.33-.748.87-1.257.87-1.257.55-.508 1.27-.777 1.27-.777.73-.27 1.51-.27 1.51-.27.71 0 1.28.24 1.28.24.57.238.96.638.96.638l-1.03 1.4c-.54-.445-1.06-.445-1.06-.445-.83 0-1.31.59-1.31.59-.47.59-.47 1.59-.47 1.59 0 1 .49 1.59.49 1.59.49.59 1.23.59 1.23.59.42 0 .76-.17.76-.17.34-.17.62-.38.62-.38l.91 1.43c-.56.5-1.24.73-1.24.73-.68.23-1.31.23-1.31.23-.8 0-1.49-.27-1.49-.27-.68-.27-1.19-.77-1.19-.77-.51-.51-.8-1.26-.8-1.26-.29-.75-.29-1.7-.29-1.7zm6.49 3.82zm.73-2.126c0-1.2 1.02-1.88 1.02-1.88 1.02-.676 3.28-.907 3.28-.907-.03-.51-.31-.81-.31-.81-.27-.3-.89-.3-.89-.3-.49 0-.98.18-.98.18-.49.18-1.04.51-1.04.51l-.8-1.5c.74-.45 1.55-.73 1.55-.73.81-.28 1.72-.28 1.72-.28 1.48 0 2.26.84 2.26.84.78.84.78 2.61.78 2.61v4.38h-1.85l-.17-.79h-.04c-.49.43-1.04.7-1.04.7-.54.27-1.19.27-1.19.27-.53 0-.94-.18-.94-.18-.42-.18-.71-.5-.71-.5-.29-.32-.46-.73-.46-.73-.16-.42-.16-.91-.16-.91zm0 0zm2.16-.17c0 .37.24.548.24.548.24.177.64.177.64.177.4 0 .68-.17.68-.17.28-.16.59-.47.59-.47v-1.34c-1.22.17-1.68.5-1.68.5-.46.33-.46.77-.46.77zm5.34 2.296zm1-7.64h1.85l.16.97h.06c.49-.46 1.08-.807 1.08-.807.59-.347 1.37-.347 1.37-.347 1.25 0 1.81.816 1.81.816.56.817.56 2.264.56 2.264v4.744h-2.26v-4.45c0-.833-.22-1.14-.22-1.14-.22-.31-.71-.31-.71-.31-.43 0-.74.194-.74.194-.31.192-.68.547-.68.547v5.16h-2.27v-7.64zm11.02 7.64zm5.31-9.04c-.43-.154-.78-.154-.78-.154-.42 0-.65.254-.65.254-.23.254-.23.84-.23.84v.46h1.37v1.772h-1.37v5.868h-2.27V8.234h-1.01v-1.68l1.02-.076v-.415c0-.6.15-1.14.15-1.14.15-.54.48-.94.48-.94.34-.4.87-.63.87-.63.54-.232 1.31-.232 1.31-.232.48 0 .87.1.87.1.39.09.66.19.66.19zm-.06 9.04zm2.13-8.762c-.57 0-.94-.34-.94-.34-.37-.33-.37-.86-.37-.86 0-.53.37-.85.37-.85.37-.33.94-.33.94-.33.59 0 .95.32.95.32.36.32.36.844.36.844 0 .524-.36.855-.36.855-.36.33-.95.33-.95.33zm0 0zm-1.12 1.12h2.27v7.64h-2.26V6.46zm3.25 7.64zm1-7.64h1.85l.16.97h.06c.5-.46 1.08-.81 1.08-.81.59-.35 1.37-.35 1.37-.35 1.25 0 1.81.81 1.81.81.56.81.56 2.26.56 2.26v4.75h-2.26V9.65c0-.832-.22-1.14-.22-1.14-.22-.31-.71-.31-.71-.31-.43 0-.74.195-.74.195-.31.192-.68.547-.68.547v5.16h-2.27v-7.64zm7.81 7.64zm.6-3.82c0-.94.27-1.68.27-1.68.27-.74.71-1.26.71-1.26.44-.52 1.02-.8 1.02-.8.58-.28 1.18-.28 1.18-.28.65 0 1.07.21 1.07.21.42.21.82.58.82.58l-.09-1.17V3.3h2.27v10.8h-1.85l-.15-.754h-.06c-.4.4-.94.67-.94.67-.54.27-1.09.27-1.09.27-.71 0-1.28-.278-1.28-.278-.57-.278-.98-.794-.98-.794-.41-.516-.63-1.255-.63-1.255-.22-.74-.22-1.68-.22-1.68zm0 0zm2.33-.03c0 1.14.36 1.66.36 1.66.36.52 1.03.52 1.03.52.37 0 .67-.16.67-.16.3-.16.58-.54.58-.54V8.62c-.31-.278-.63-.386-.63-.386-.32-.108-.63-.108-.63-.108-.54 0-.95.516-.95.516-.42.516-.42 1.61-.42 1.61zm9.1 3.85zm1.19-10.04h2.26v3.86h3.47V4.06h2.28v10.042h-2.28v-4.19h-3.47v4.19h-2.26V4.062zm9.19 10.04zm.73-2.13c0-1.2 1.02-1.88 1.02-1.88 1.02-.68 3.28-.91 3.28-.91-.03-.51-.31-.81-.31-.81-.27-.3-.89-.3-.89-.3-.49 0-.98.18-.98.18-.49.18-1.04.51-1.04.51l-.8-1.5c.74-.45 1.55-.73 1.55-.73.81-.28 1.72-.28 1.72-.28 1.48 0 2.26.84 2.26.84.78.84.78 2.61.78 2.61v4.38h-1.85l-.17-.786h-.04c-.49.434-1.04.7-1.04.7-.54.27-1.19.27-1.19.27-.52 0-.94-.175-.94-.175-.41-.18-.71-.49-.71-.49-.29-.32-.45-.73-.45-.73-.16-.42-.16-.91-.16-.91zm0 0zm2.15-.17c0 .37.24.55.24.55.24.17.64.17.64.17.4 0 .68-.17.68-.17.28-.17.58-.48.58-.48v-1.34c-1.21.17-1.67.49-1.67.49-.46.32-.46.77-.46.77zm5.35 2.29zm1.34-2.3c.53.4 1 .6 1 .6.48.2.97.2.97.2.51 0 .74-.17.74-.17.23-.17.23-.48.23-.48 0-.183-.13-.33-.13-.33-.13-.145-.35-.27-.35-.27-.22-.12-.5-.22-.5-.22-.27-.1-.57-.225-.57-.225-.35-.14-.71-.32-.71-.32-.35-.18-.64-.45-.64-.45-.29-.27-.47-.63-.47-.63-.18-.365-.18-.84-.18-.84 0-.526.21-.97.21-.97.21-.45.59-.76.59-.76.38-.305.92-.48.92-.48.54-.18 1.2-.18 1.2-.18.88 0 1.54.3 1.54.3.66.3 1.16.67 1.16.67l-1.03 1.36c-.41-.307-.81-.477-.81-.477-.4-.17-.8-.17-.8-.17-.86 0-.86.6-.86.6 0 .185.13.316.13.316.12.13.33.24.33.24.21.1.48.2.48.2l.56.21c.37.14.73.31.73.31.36.17.66.44.66.44.3.26.49.64.49.64.19.37.19.9.19.9 0 .52-.2.97-.2.97-.2.44-.6.78-.6.78-.4.33-.99.52-.99.52-.58.19-1.35.19-1.35.19-.76 0-1.55-.29-1.55-.29-.79-.3-1.38-.77-1.38-.77zm5.48 2.29zm1-10.793h2.2v6.19h.06l2.42-3.033h2.47l-2.68 3.14 2.88 4.5h-2.45l-1.73-2.974-.97 1.09v1.88h-2.21V3.307zm7 10.8zm.56-3.82c0-.925.31-1.67.31-1.67.31-.75.81-1.264.81-1.264.5-.52 1.15-.798 1.15-.798.65-.27 1.34-.27 1.34-.27.82 0 1.42.28 1.42.28.61.28 1.02.77 1.02.77.41.49.61 1.16.61 1.16.2.67.2 1.46.2 1.46 0 .31-.03.562-.03.562-.03.254-.06.39-.06.39h-4.57c.16.88.69 1.27.69 1.27.53.394 1.3.394 1.3.394.82 0 1.65-.51 1.65-.51l.76 1.37c-.59.4-1.3.64-1.3.64-.72.23-1.41.23-1.41.23-.82 0-1.53-.26-1.53-.26-.71-.27-1.23-.79-1.23-.79-.52-.51-.81-1.25-.81-1.25-.29-.74-.29-1.69-.29-1.69zm0 0zm4.93-.786c0-.66-.29-1.07-.29-1.07-.29-.42-.98-.42-.98-.42-.54 0-.95.36-.95.36-.41.37-.53 1.14-.53 1.14h2.75zm2.5 4.61zm1-10.79h2.27v8.52c0 .36.13.5.13.5.13.14.27.14.27.14h.13l.14-.03.28 1.68c-.19.08-.47.13-.47.13-.29.05-.67.05-.67.05-.59 0-.99-.18-.99-.18-.4-.18-.64-.51-.64-.51-.24-.33-.35-.8-.35-.8-.1-.47-.1-1.06-.1-1.06V3.31zm3.41 10.8zm1-10.79h2.27v8.52c0 .36.13.5.13.5.14.14.27.14.27.14h.14l.15-.03.28 1.68c-.18.08-.47.13-.47.13-.28.05-.67.05-.67.05-.58 0-.98-.18-.98-.18-.4-.18-.64-.52-.64-.52-.24-.33-.34-.8-.34-.8-.11-.47-.11-1.06-.11-1.06V3.3zm6.61 10.8zm1-10.79h2.26v8.52c0 .36.13.5.13.5.14.14.27.14.27.14h.13l.15-.04.28 1.68c-.18.08-.47.13-.47.13-.28.05-.67.05-.67.05-.58 0-.98-.18-.98-.18-.4-.18-.64-.51-.64-.51-.23-.33-.34-.8-.34-.8-.11-.47-.11-1.05-.11-1.05V3.3zm3.4 10.79zm2.13-8.76c-.57 0-.94-.33-.94-.33-.37-.33-.37-.86-.37-.86 0-.52.37-.85.37-.85.37-.32.94-.32.94-.32.59 0 .95.32.95.32.37.33.37.85.37.85 0 .53-.36.86-.36.86-.36.33-.94.33-.94.33zm0 0zm-1.13 1.12h2.27v7.64h-2.26V6.46zm3.25 7.64zm1-10.8h2.27v2.65l-.06 1.17c.45-.4.96-.62.96-.62.52-.22 1.06-.22 1.06-.22.7 0 1.25.28 1.25.28.56.28.95.78.95.78.39.5.6 1.22.6 1.22.21.72.21 1.6.21 1.6 0 .98-.27 1.75-.27 1.75-.27.77-.72 1.3-.72 1.3-.45.53-1.03.81-1.03.81-.58.28-1.19.28-1.19.28-.51 0-1.02-.25-1.02-.25-.51-.25-.96-.74-.96-.74h-.06l-.18.8h-1.77V3.3zm0 0zm2.27 8.64c.31.28.62.39.62.39.31.11.6.11.6.11.59 0 1.01-.53 1.01-.53.42-.53.42-1.71.42-1.71 0-2.06-1.32-2.06-1.32-2.06-.68 0-1.31.7-1.31.7v3.12zm5.56 2.16zm1-7.64h1.85l.15 1.34h.06c.42-.78 1-1.15 1-1.15.59-.37 1.17-.37 1.17-.37.33 0 .53.04.53.04.21.04.38.11.38.11l-.37 1.96c-.21-.06-.4-.09-.4-.09-.18-.03-.43-.03-.43-.03-.43 0-.9.31-.9.31-.47.31-.78 1.09-.78 1.09v4.44h-2.26V6.46zm4.68 7.64zm.73-2.13c0-1.2 1.02-1.88 1.02-1.88 1.02-.67 3.28-.9 3.28-.9-.03-.51-.3-.81-.3-.81-.27-.3-.89-.3-.89-.3-.49 0-.98.19-.98.19-.49.19-1.05.51-1.05.51l-.8-1.49c.74-.44 1.55-.72 1.55-.72.81-.28 1.72-.28 1.72-.28 1.48 0 2.26.84 2.26.84.78.84.78 2.61.78 2.61v4.37h-1.85l-.17-.79h-.04c-.49.44-1.04.7-1.04.7-.55.27-1.2.27-1.2.27-.52 0-.94-.17-.94-.17-.41-.18-.71-.49-.71-.49-.29-.32-.45-.73-.45-.73-.16-.41-.16-.9-.16-.9zm0 0zm2.16-.17c0 .37.24.55.24.55.24.18.64.18.64.18.4 0 .68-.17.68-.17.28-.17.59-.47.59-.47v-1.34c-1.21.17-1.68.5-1.68.5-.46.32-.46.77-.46.77zm5.35 2.3zm1-7.64h1.85l.16 1.34h.06c.42-.79 1-1.16 1-1.16.59-.37 1.17-.37 1.17-.37.33 0 .54.04.54.04.21.04.38.12.38.12l-.37 1.96c-.21-.06-.4-.09-.4-.09-.18-.03-.43-.03-.43-.03-.43 0-.9.31-.9.31-.47.31-.78 1.09-.78 1.09v4.44h-2.26V6.46zm5.13 7.64zm2.13-8.76c-.57 0-.94-.34-.94-.34-.37-.33-.37-.85-.37-.85 0-.52.37-.84.37-.84.37-.32.94-.32.94-.32.58 0 .95.33.95.33.37.33.37.85.37.85 0 .53-.37.86-.37.86-.36.33-.95.33-.95.33zm0 0zm-1.13 1.12H497v7.64h-2.26V6.46zm3.25 7.64zm.56-3.82c0-.93.31-1.67.31-1.67.31-.75.81-1.26.81-1.26.5-.52 1.15-.8 1.15-.8.65-.27 1.34-.27 1.34-.27.82 0 1.43.28 1.43.28.61.28 1.02.77 1.02.77.41.5.61 1.17.61 1.17.2.67.2 1.45.2 1.45 0 .3-.03.56-.03.56-.03.25-.06.39-.06.39h-4.58c.16.88.69 1.27.69 1.27.53.39 1.3.39 1.3.39.82 0 1.65-.51 1.65-.51l.76 1.37c-.58.4-1.3.63-1.3.63-.72.23-1.41.23-1.41.23-.82 0-1.52-.26-1.52-.26-.71-.27-1.23-.79-1.23-.79-.52-.51-.81-1.25-.81-1.25-.29-.74-.29-1.69-.29-1.69zm0 0zm4.93-.79c0-.66-.29-1.08-.29-1.08-.3-.42-.99-.42-.99-.42-.54 0-.94.36-.94.36-.41.37-.53 1.14-.53 1.14h2.76zm2.48 4.61zm1.34-2.29c.53.4 1.01.6 1.01.6.48.2.97.2.97.2.51 0 .74-.17.74-.17.23-.17.23-.47.23-.47 0-.19-.13-.33-.13-.33-.13-.15-.36-.27-.36-.27-.23-.13-.5-.23-.5-.23-.28-.1-.57-.23-.57-.23-.36-.14-.71-.32-.71-.32-.36-.19-.65-.46-.65-.46-.29-.27-.48-.63-.48-.63-.19-.36-.19-.84-.19-.84 0-.52.21-.97.21-.97.21-.45.59-.76.59-.76.39-.3.93-.48.93-.48.54-.18 1.2-.18 1.2-.18.88 0 1.54.3 1.54.3.67.3 1.16.67 1.16.67l-1.01 1.36c-.42-.31-.82-.48-.82-.48-.4-.17-.8-.17-.8-.17-.86 0-.86.6-.86.6 0 .19.12.32.12.32.12.13.33.24.33.24.21.11.48.21.48.21l.56.21c.37.14.73.32.73.32.36.17.66.43.66.43.3.26.49.64.49.64.19.38.19.9.19.9 0 .52-.2.97-.2.97-.2.45-.6.78-.6.78-.4.33-.99.53-.99.53-.59.19-1.36.19-1.36.19-.75 0-1.55-.29-1.55-.29-.79-.3-1.38-.77-1.38-.77zm8.69 2.3zm5.31-9.04c-.43-.15-.78-.15-.78-.15-.41 0-.64.26-.64.26-.23.26-.23.84-.23.84v.46H521v1.77h-1.37v5.86h-2.268V8.23h-1.02V6.55l1.016-.077V6.06c0-.6.146-1.14.146-1.14.15-.54.49-.94.49-.94.34-.4.876-.63.876-.63.54-.23 1.31-.23 1.31-.23.478 0 .87.1.87.1.39.09.655.19.655.19zm-.21 9.04zm.56-3.82c0-.95.31-1.7.31-1.7.31-.74.83-1.25.83-1.25.52-.51 1.2-.78 1.2-.78.68-.27 1.4-.27 1.4-.27.73 0 1.4.27 1.4.27.67.27 1.19.78 1.19.78.52.51.82 1.26.82 1.26.31.74.31 1.7.31 1.7 0 .95-.3 1.7-.3 1.7-.31.74-.82 1.25-.82 1.25-.52.51-1.18.78-1.18.78-.67.27-1.39.27-1.39.27-.72 0-1.4-.27-1.4-.27-.67-.27-1.19-.78-1.19-.78-.51-.51-.82-1.25-.82-1.25-.3-.75-.3-1.7-.3-1.7zm0 0zm2.33 0c0 1 .35 1.59.35 1.59.35.59 1.06.59 1.06.59.7 0 1.05-.58 1.05-.58.36-.58.36-1.58.36-1.58 0-1-.35-1.58-.35-1.58-.35-.58-1.04-.58-1.04-.58-.71 0-1.06.58-1.06.58-.34.58-.34 1.58-.34 1.58zm5.67 3.82zm1-7.64h1.85l.16 1.34h.06c.42-.78 1-1.15 1-1.15.59-.37 1.17-.37 1.17-.37.33 0 .54.04.54.04.21.04.38.12.38.12l-.37 1.96c-.21-.06-.4-.09-.4-.09-.18-.03-.43-.03-.43-.03-.43 0-.9.31-.9.31-.47.31-.78 1.1-.78 1.1v4.43h-2.27V6.46zm8.34 7.64zm1.31-5.86h-1.05v-1.7l1.17-.09.27-2.03h1.88v2.03h1.83v1.77h-1.84v3.07c0 .65.27.93.27.93.27.29.72.29.72.29.19 0 .38-.04.38-.04.19-.05.34-.11.34-.11l.36 1.65c-.31.09-.72.18-.72.18-.41.09-.97.09-.97.09-.71 0-1.21-.22-1.21-.22-.5-.21-.81-.6-.81-.6-.31-.38-.46-.93-.46-.93-.15-.54-.15-1.2-.15-1.2v-3.1zm4.59 5.87zm1-10.8h2.27v2.65L548 7.32c.43-.386 1-.717 1-.717.57-.33 1.36-.33 1.36-.33 1.25 0 1.81.82 1.81.82.564.82.564 2.27.564 2.27v4.74h-2.267V9.65c0-.834-.22-1.14-.22-1.14-.22-.31-.71-.31-.71-.31-.43 0-.74.193-.74.193-.31.192-.68.547-.68.547v5.16h-2.263V3.305zm7.78 10.79zm.56-3.82c0-.92.31-1.67.31-1.67.31-.75.81-1.26.81-1.26.5-.52 1.15-.79 1.15-.79.65-.27 1.34-.27 1.34-.27.82 0 1.43.27 1.43.27.6.28 1.01.77 1.01.77.4.49.61 1.16.61 1.16.2.67.2 1.46.2 1.46 0 .31-.04.56-.04.56-.03.26-.06.4-.06.4h-4.57c.15.88.68 1.27.68 1.27.53.4 1.3.4 1.3.4.81 0 1.65-.5 1.65-.5l.75 1.37c-.58.4-1.3.64-1.3.64-.72.23-1.41.23-1.41.23-.82 0-1.52-.27-1.52-.27-.71-.27-1.23-.78-1.23-.78-.52-.52-.82-1.26-.82-1.26-.29-.74-.29-1.69-.29-1.69zm0 0zm4.93-.78c0-.66-.29-1.08-.29-1.08-.3-.41-.99-.41-.99-.41-.54 0-.95.36-.95.36-.41.36-.53 1.13-.53 1.13h2.76zm5.7 4.61zm1.31-5.87h-1.05v-1.7l1.17-.09.26-2.03h1.88v2.03h1.83v1.77h-1.83v3.07c0 .65.27.93.27.93.27.29.71.29.71.29.19 0 .38-.04.38-.04.2-.05.35-.11.35-.11l.35 1.65c-.3.09-.72.18-.72.18-.42.09-.97.09-.97.09-.71 0-1.21-.22-1.21-.22-.5-.22-.81-.6-.81-.6-.32-.39-.46-.94-.46-.94-.15-.55-.15-1.21-.15-1.21v-3.1zm4.59 5.87zm1-10.8H574v2.65l-.108 1.37c.43-.38 1-.71 1-.71.57-.33 1.35-.33 1.35-.33 1.24 0 1.81.82 1.81.82.56.82.56 2.27.56 2.27v4.74h-2.26V9.65c0-.834-.23-1.14-.23-1.14-.22-.31-.714-.31-.714-.31-.43 0-.74.193-.74.193-.31.192-.68.547-.68.547v5.16h-2.27V3.305zm7.79 10.8zm2.13-8.76c-.57 0-.94-.33-.94-.33-.37-.33-.37-.85-.37-.85 0-.52.37-.85.37-.85.37-.32.94-.32.94-.32.59 0 .95.33.95.33.36.32.36.85.36.85 0 .52-.36.85-.36.85-.36.33-.94.33-.94.33zm0 0zm-1.13 1.12h2.26v7.64h-2.27V6.46zm3.25 7.64zm1-7.64h1.85l.15.97h.06c.5-.46 1.08-.81 1.08-.81.59-.35 1.37-.35 1.37-.35 1.25 0 1.81.82 1.81.82.56.82.56 2.27.56 2.27v4.74h-2.26V9.65c0-.834-.22-1.14-.22-1.14-.22-.31-.71-.31-.71-.31-.43 0-.74.193-.74.193-.31.192-.68.547-.68.547v5.16h-2.26V6.46zm7.81 7.64zm2.39.95c0 .43.46.66.46.66.47.22 1.24.22 1.24.22.77 0 1.27-.27 1.27-.27.49-.27.49-.67.49-.67 0-.35-.3-.48-.3-.48-.3-.12-.87-.12-.87-.12h-.79c-.4 0-.64-.02-.64-.02-.24-.03-.43-.07-.43-.07-.41.37-.41.75-.41.75zm0 0zm-1.86.36c0-.92 1.1-1.54 1.1-1.54v-.06c-.31-.2-.51-.51-.51-.51-.2-.31-.2-.78-.2-.78 0-.42.24-.8.24-.8.25-.38.62-.64.62-.64V11c-.4-.277-.72-.792-.72-.792-.32-.516-.32-1.194-.32-1.194 0-.696.26-1.21.26-1.21.27-.518.7-.86.7-.86.44-.35 1.01-.52 1.01-.52.57-.17 1.19-.17 1.19-.17.68 0 1.18.185 1.18.185h2.79V8.1h-1.21c.11.17.18.43.18.43.07.26.07.57.07.57 0 .66-.23 1.147-.23 1.147-.23.48-.64.8-.64.8-.41.31-.95.47-.95.47-.54.15-1.18.15-1.18.15-.44 0-.92-.16-.92-.16-.15.12-.21.24-.21.24-.06.123-.06.324-.06.324 0 .29.26.43.26.43.26.14.9.14.9.14h1.24c1.42 0 2.17.46 2.17.46.75.46.75 1.49.75 1.49 0 .6-.3 1.1-.3 1.1-.3.5-.86.86-.86.86-.56.37-1.34.57-1.34.57-.79.21-1.77.21-1.77.21-.68 0-1.26-.11-1.26-.11-.58-.12-1.02-.35-1.02-.35-.44-.23-.68-.6-.68-.6-.25-.37-.25-.87-.25-.87zm0 0zm3.38-5.1c.44 0 .74-.31.74-.31.3-.31.3-.96.3-.96 0-.6-.3-.91-.3-.91-.3-.31-.74-.31-.74-.31-.45 0-.75.31-.75.31-.3.31-.3.92-.3.92 0 .65.3.96.3.96.3.32.75.32.75.32zm4.33 3.79zm1.34-2.29c.53.4 1 .6 1 .6.48.2.97.2.97.2.51 0 .74-.17.74-.17.23-.17.23-.47.23-.47 0-.18-.13-.33-.13-.33-.13-.14-.35-.27-.35-.27-.23-.12-.51-.22-.51-.22-.28-.1-.57-.22-.57-.22-.36-.14-.71-.32-.71-.32-.36-.19-.65-.46-.65-.46-.29-.27-.48-.63-.48-.63-.18-.36-.18-.84-.18-.84 0-.52.21-.97.21-.97.21-.45.59-.75.59-.75.38-.31.92-.49.92-.49.54-.18 1.2-.18 1.2-.18.88 0 1.54.3 1.54.3.66.3 1.15.67 1.15.67l-1.01 1.35c-.42-.31-.82-.48-.82-.48-.4-.17-.8-.17-.8-.17-.86 0-.86.6-.86.6 0 .19.12.32.12.32.12.13.33.24.33.24.21.11.48.21.48.21l.56.21c.37.14.73.32.73.32.36.18.66.44.66.44.3.26.49.64.49.64.19.38.19.9.19.9 0 .52-.2.97-.2.97-.2.45-.6.78-.6.78-.4.33-.99.52-.99.52-.58.19-1.35.19-1.35.19-.754 0-1.55-.29-1.55-.29-.79-.29-1.38-.77-1.38-.77zm8.69 2.3zm1.31-5.86h-1.05v-1.7l1.17-.09.26-2.03h1.88v2.03h1.83v1.77h-1.84v3.07c0 .65.27.93.27.93.27.29.72.29.72.29.19 0 .38-.04.38-.04.2-.05.35-.11.35-.11l.36 1.65c-.31.09-.72.18-.72.18-.41.09-.97.09-.97.09-.71 0-1.21-.21-1.21-.21-.5-.21-.81-.6-.81-.6-.32-.38-.46-.93-.46-.93-.15-.54-.15-1.21-.15-1.21v-3.1zm4.59 5.87zm1-10.79H620V6l-.1 1.37c.43-.39 1-.72 1-.72.57-.33 1.36-.33 1.36-.33 1.25 0 1.81.813 1.81.813.56.82.56 2.264.56 2.264v4.74h-2.26V9.65c0-.834-.22-1.14-.22-1.14-.224-.31-.717-.31-.717-.31-.43 0-.74.193-.74.193-.31.192-.68.547-.68.547v5.16h-2.27V3.305zm7.79 10.79zm.72-2.13c0-1.2 1.01-1.88 1.01-1.88 1.02-.67 3.28-.9 3.28-.9-.03-.51-.31-.81-.31-.81-.28-.3-.89-.3-.89-.3-.5 0-.99.19-.99.19-.5.18-1.05.51-1.05.51l-.8-1.49c.74-.45 1.55-.73 1.55-.73.81-.27 1.71-.27 1.71-.27 1.48 0 2.25.84 2.25.84.78.84.78 2.61.78 2.61v4.36h-1.85l-.17-.79h-.05c-.49.43-1.04.7-1.04.7-.54.27-1.19.27-1.19.27-.52 0-.94-.17-.94-.17-.42-.18-.71-.49-.71-.49-.29-.31-.45-.73-.45-.73-.16-.41-.16-.9-.16-.9zm0 0zm2.15-.17c0 .37.24.55.24.55.24.18.64.18.64.18.4 0 .68-.17.68-.17.28-.17.58-.48.58-.48v-1.34c-1.21.17-1.67.49-1.67.49-.46.32-.46.77-.46.77zm5.34 2.3zm1.31-5.86H634v-1.7l1.17-.09.26-2.03h1.88V6.5h1.833v1.77h-1.84v3.07c0 .645.27.93.27.93.27.284.714.284.714.284.184 0 .38-.044.38-.044.19-.05.342-.11.342-.11l.35 1.65c-.3.09-.72.18-.72.18-.41.09-.97.09-.97.09-.71 0-1.21-.21-1.21-.21-.5-.21-.81-.6-.81-.6-.31-.38-.46-.93-.46-.93-.14-.54-.14-1.21-.14-1.21v-3.1zm7.79 5.86zM644 4.06h2.27V14.1H644V4.062zm6.66 10.04zm1-7.64h1.85l.16.97h.06c.497-.46 1.08-.807 1.08-.807.587-.35 1.37-.35 1.37-.35 1.25 0 1.81.82 1.81.82.56.82.56 2.27.56 2.27v4.74h-2.26V9.65c0-.833-.224-1.14-.224-1.14-.22-.31-.71-.31-.71-.31-.43 0-.74.194-.74.194-.31.192-.68.547-.68.547v5.16h-2.27V6.46zm7.81 7.64zm.56-3.82c0-.92.31-1.67.31-1.67.31-.748.81-1.26.81-1.26.5-.52 1.15-.798 1.15-.798.646-.28 1.34-.28 1.34-.28.816 0 1.424.28 1.424.28.61.27 1.014.77 1.014.77.41.49.61 1.16.61 1.16.2.67.2 1.45.2 1.45 0 .31-.03.56-.03.56-.03.25-.06.39-.06.39h-4.58c.152.88.683 1.27.683 1.27.53.39 1.3.39 1.3.39.82 0 1.65-.51 1.65-.51l.76 1.37c-.59.4-1.3.63-1.3.63-.71.23-1.41.23-1.41.23-.81 0-1.52-.27-1.52-.27-.71-.27-1.23-.79-1.23-.79-.53-.52-.82-1.26-.82-1.26-.29-.74-.29-1.7-.29-1.7zm0 0zm4.93-.78c0-.66-.29-1.08-.29-1.08-.297-.42-.99-.42-.99-.42-.54 0-.947.37-.947.37-.407.36-.53 1.13-.53 1.13h2.756zm2.5 4.61zm.554-3.82c0-.928.31-1.67.31-1.67.304-.75.81-1.267.81-1.267.5-.52 1.142-.79 1.142-.79.648-.28 1.34-.28 1.34-.28.817 0 1.425.28 1.425.28.61.28 1.02.77 1.02.77.41.49.61 1.16.61 1.16.2.67.2 1.46.2 1.46 0 .31-.03.57-.03.57-.03.26-.06.4-.06.4h-4.58c.16.88.69 1.27.69 1.27.53.396 1.3.396 1.3.396.82 0 1.65-.51 1.65-.51l.75 1.37c-.58.4-1.3.63-1.3.63-.71.23-1.41.23-1.41.23-.81 0-1.52-.27-1.52-.27-.7-.27-1.23-.79-1.23-.79-.52-.52-.81-1.26-.81-1.26-.3-.73-.3-1.68-.3-1.68zm0 0zm4.93-.79c0-.66-.296-1.08-.296-1.08-.297-.42-.99-.42-.99-.42-.54 0-.946.36-.946.36-.4.36-.53 1.13-.53 1.13h2.76zm2.49 4.6zm.6-3.82c0-.94.27-1.68.27-1.68.27-.74.71-1.26.71-1.26.435-.52 1.012-.8 1.012-.8.578-.28 1.178-.28 1.178-.28.65 0 1.065.22 1.065.22.42.22.82.59.82.59l-.1-1.17V3.3h2.27v10.8h-1.85l-.16-.754h-.06c-.4.4-.94.67-.94.67-.54.27-1.09.27-1.09.27-.71 0-1.29-.278-1.29-.278-.58-.278-.99-.794-.99-.794-.41-.516-.64-1.255-.64-1.255-.23-.74-.23-1.68-.23-1.68zm0 0zm2.323-.03c0 1.14.36 1.66.36 1.66.36.52 1.024.52 1.024.52.37 0 .67-.15.67-.15.3-.16.58-.54.58-.54V8.62c-.31-.278-.63-.386-.63-.386-.32-.108-.63-.108-.63-.108-.54 0-.95.516-.95.516-.42.516-.42 1.61-.42 1.61zm5.9 3.85zm.936-1.23c0-.62.393-1.03.393-1.03.394-.41.98-.41.98-.41.584 0 .977.41.977.41.396.41.396 1.02.396 1.02 0 .6-.4 1.01-.4 1.01-.39.41-.98.41-.98.41-.59 0-.98-.41-.98-.41-.4-.41-.4-1.01-.4-1.01z"/><path fill="none" stroke="#D3D3D3" stroke-miterlimit="10" d="M55.41 738h916.94M55.41 562.25h916.94M55.41 386.5h916.94M55.41 210.75h916.94M55.41 35h916.94" stroke-dasharray="5 5"/><g fill="#5C3566" stroke-opacity="0" stroke-width="0" stroke-miterlimit="10" stroke-linejoin="bevel"><defs><clipPath id="a"><path d="M55.41 35v703h916.94V35z"/></clipPath></defs><g clip-path="url(#a)"><path stroke="none" d="M70.41 738v-13.18h153.388V738z"/></g></g><g fill-opacity="0" stroke-miterlimit="10"><defs><clipPath id="b"><path d="M55.41 35v703h916.94V35z"/></clipPath></defs><g clip-path="url(#b)"><path fill="none" d="M70.41 738v-13.18h153.388V738z"/></g></g><g fill="#5C3566" stroke-opacity="0" stroke-width="0" stroke-miterlimit="10" stroke-linejoin="bevel"><defs><clipPath id="c"><path d="M55.41 35v703h916.94V35z"/></clipPath></defs><g clip-path="url(#c)"><path stroke="none" d="M253.798 738v-82.603h153.388V738z"/></g></g><g fill-opacity="0" stroke-miterlimit="10"><defs><clipPath id="d"><path d="M55.41 35v703h916.94V35z"/></clipPath></defs><g clip-path="url(#d)"><path fill="none" d="M253.798 738v-82.603h153.388V738z"/></g></g><g fill="#5C3566" stroke-opacity="0" stroke-width="0" stroke-miterlimit="10" stroke-linejoin="bevel"><defs><clipPath id="e"><path d="M55.41 35v703h916.94V35z"/></clipPath></defs><g clip-path="url(#e)"><path stroke="none" d="M437.186 738V460.315h153.388V738z"/></g></g><g fill-opacity="0" stroke-miterlimit="10"><defs><clipPath id="f"><path d="M55.41 35v703h916.94V35z"/></clipPath></defs><g clip-path="url(#f)"><path fill="none" d="M437.186 738V460.315h153.388V738z"/></g></g><g fill="#5C3566" stroke-opacity="0" stroke-width="0" stroke-miterlimit="10" stroke-linejoin="bevel"><defs><clipPath id="g"><path d="M55.41 35v703h916.94V35z"/></clipPath></defs><g clip-path="url(#g)"><path stroke="none" d="M620.574 738V150.995h153.39V738z"/></g></g><g fill-opacity="0" stroke-miterlimit="10"><defs><clipPath id="h"><path d="M55.41 35v703h916.94V35z"/></clipPath></defs><g clip-path="url(#h)"><path fill="none" d="M620.574 738V150.995h153.39V738z"/></g></g><g fill="#5C3566" stroke-opacity="0" stroke-width="0" stroke-miterlimit="10" stroke-linejoin="bevel"><defs><clipPath id="i"><path d="M55.41 35v703h916.94V35z"/></clipPath></defs><g clip-path="url(#i)"><path stroke="none" d="M803.963 738V634.308H957.35V738z"/></g></g><g fill-opacity="0" stroke-miterlimit="10"><defs><clipPath id="j"><path d="M55.41 35v703h916.94V35z"/></clipPath></defs><g clip-path="url(#j)"><path fill="none" d="M803.963 738V634.308H957.35V738z"/></g></g><path fill="none" stroke-miterlimit="10" d="M55.41 738V35" stroke-linecap="square"/><path fill="none" stroke-miterlimit="10" d="M55.41 738h2m-2-87.875h2m-2-87.875h2m-2-87.875h2m-2-87.875h2m-2-87.875h2m-2-87.875h2m-2-87.875h2M55.41 35h2m-2 703h5m-5-175.75h5m-5-175.75h5m-5-175.75h5M55.41 35h5"/><path stroke="none" d="M41.113 741.445zm2.616.126c-1.02 0-1.59-.9-1.59-.9-.57-.9-.57-2.59-.57-2.59 0-1.69.56-2.57.56-2.57.56-.88 1.58-.88 1.58-.88 1 0 1.57.88 1.57.88.56.89.56 2.58.56 2.58 0 1.69-.57 2.6-.57 2.6-.57.91-1.58.91-1.58.91zm0 0zm0-.69c.29 0 .53-.16.53-.16.23-.16.41-.5.41-.5.17-.34.26-.87.26-.87.09-.53.09-1.26.09-1.26 0-.73-.1-1.26-.1-1.26-.1-.52-.27-.85-.27-.85-.18-.33-.41-.49-.41-.49-.24-.16-.53-.16-.53-.16-.3 0-.54.16-.54.16-.24.16-.42.49-.42.49-.18.33-.27.86-.27.86-.1.53-.1 1.26-.1 1.26 0 1.47.36 2.14.36 2.14.36.67.95.67.95.67zM30.58 565.7zm.42-.514c.757-.754 1.345-1.363 1.345-1.363.59-.61.987-1.13.987-1.13.4-.52.61-.955.61-.955.21-.434.21-.844.21-.844 0-.576-.316-.944-.316-.944-.316-.37-.956-.37-.956-.37-.423 0-.78.24-.78.24-.357.235-.65.57-.65.57l-.495-.492c.42-.462.894-.74.894-.74.47-.28 1.13-.28 1.13-.28.93 0 1.47.543 1.47.543.53.54.53 1.44.53 1.44 0 .47-.21.95-.21.95-.21.48-.57.99-.57.99-.37.51-.86 1.06-.86 1.06-.5.56-1.1 1.18-1.1 1.18l.56-.04c.29-.02.56-.02.56-.02h1.94v.75H31v-.51zm4.8.517zm2.616.126c-1.02 0-1.586-.91-1.586-.91-.567-.9-.567-2.6-.567-2.6 0-1.69.57-2.58.57-2.58.565-.88 1.584-.88 1.584-.88 1.01 0 1.576.88 1.576.88.57.88.57 2.57.57 2.57 0 1.69-.568 2.59-.568 2.59-.567.9-1.576.9-1.576.9zm0 0zm0-.7c.294 0 .53-.16.53-.16.237-.16.41-.5.41-.5.174-.34.27-.87.27-.87.094-.53.094-1.27.094-1.27 0-.74-.095-1.26-.095-1.26-.093-.53-.266-.86-.266-.86-.18-.33-.41-.49-.41-.49-.24-.16-.53-.16-.53-.16-.3 0-.54.16-.54.16-.25.15-.42.48-.42.48-.18.33-.27.85-.27.85-.1.52-.1 1.26-.1 1.26 0 1.47.36 2.14.36 2.14.36.66.95.66.95.66zm2.605.57zm2.62.13c-1.02 0-1.58-.9-1.58-.9-.56-.9-.56-2.6-.56-2.6 0-1.69.57-2.58.57-2.58.57-.88 1.59-.88 1.59-.88 1.01 0 1.57.88 1.57.88.57.88.57 2.57.57 2.57 0 1.69-.56 2.59-.56 2.59-.57.9-1.57.9-1.57.9zm0 0zm0-.69c.3 0 .53-.16.53-.16.24-.17.41-.51.41-.51.18-.34.27-.87.27-.87.1-.53.1-1.27.1-1.27 0-.74-.09-1.26-.09-1.26-.09-.53-.27-.86-.27-.86-.17-.33-.41-.49-.41-.49-.23-.16-.53-.16-.53-.16-.29 0-.53.16-.53.16-.24.15-.41.48-.41.48-.17.33-.27.85-.27.85-.09.52-.09 1.26-.09 1.26 0 1.47.37 2.14.37 2.14.36.67.95.67.95.67zM30.39 389.95zm3.19-2.54v-1.945c0-.272.016-.645.016-.645.015-.372.036-.645.036-.645h-.042c-.125.24-.26.475-.26.475-.138.232-.285.473-.285.473l-1.564 2.29h2.11zm0 0zm1.733.692h-.91v1.846h-.82v-1.85H30.57v-.57l2.867-4.288h.966v4.16h.92v.693zm.295 1.846zm2.61.124c-1.02 0-1.586-.9-1.586-.9-.57-.903-.57-2.595-.57-2.595 0-1.69.57-2.57.57-2.57.565-.88 1.584-.88 1.584-.88 1.01 0 1.575.88 1.575.88.57.88.57 2.573.57 2.573 0 1.69-.57 2.592-.57 2.592-.57.903-1.57.903-1.57.903zm0 0zm0-.69c.294 0 .53-.163.53-.163.237-.17.41-.51.41-.51.173-.34.27-.87.27-.87.093-.53.093-1.27.093-1.27 0-.74-.09-1.26-.09-1.26-.09-.53-.26-.86-.26-.86-.17-.33-.41-.49-.41-.49-.23-.16-.53-.16-.53-.16-.29 0-.53.16-.53.16-.24.15-.41.49-.41.49-.17.33-.26.85-.26.85-.09.52-.09 1.26-.09 1.26 0 1.47.36 2.14.36 2.14.37.66.95.66.95.66zm2.605.567zm2.612.12c-1.02 0-1.586-.9-1.586-.9-.57-.9-.57-2.6-.57-2.6 0-1.69.56-2.57.56-2.57.56-.89 1.58-.89 1.58-.89 1.01 0 1.57.88 1.57.88.56.88.56 2.57.56 2.57 0 1.69-.57 2.59-.57 2.59-.57.9-1.58.9-1.58.9zm0 0zm0-.69c.294 0 .53-.16.53-.16.237-.17.41-.51.41-.51.174-.34.27-.87.27-.87.093-.53.093-1.27.093-1.27 0-.74-.095-1.26-.095-1.26-.095-.53-.27-.86-.27-.86-.172-.33-.41-.49-.41-.49-.234-.16-.53-.16-.53-.16-.293 0-.534.16-.534.16-.25.15-.42.49-.42.49-.18.33-.27.85-.27.85-.1.52-.1 1.26-.1 1.26 0 1.47.36 2.14.36 2.14.36.67.95.67.95.67zM30.71 214.2zm2.816-.556c.25 0 .46-.106.46-.106.21-.105.368-.3.368-.3.157-.194.246-.462.246-.462.09-.267.09-.603.09-.603 0-.66-.304-1.04-.304-1.04-.305-.38-.935-.38-.935-.38-.31 0-.68.207-.68.207-.37.205-.71.677-.71.677.09.99.46 1.498.46 1.498.38.51 1.02.51 1.02.51zm0 0zm1.375-5.022c-.21-.242-.5-.384-.5-.384-.28-.142-.6-.142-.6-.142-.35 0-.66.15-.66.15-.31.146-.55.482-.55.482-.24.336-.39.877-.39.877-.14.54-.15 1.34-.15 1.34.32-.39.74-.615.74-.615.42-.226.83-.226.83-.226.87 0 1.39.513 1.39.513.52.514.52 1.554.52 1.554 0 .48-.16.88-.16.88-.15.4-.43.68-.43.68-.27.29-.63.44-.63.44-.36.16-.77.16-.77.16-.49 0-.91-.2-.91-.2-.42-.2-.73-.6-.73-.6-.31-.4-.49-1.01-.49-1.01-.18-.6-.18-1.41-.18-1.41 0-1.01.22-1.72.22-1.72.21-.71.57-1.15.57-1.15.36-.44.81-.65.81-.65.46-.2.96-.2.96-.2.55 0 .94.21.94.21.4.21.68.51.68.51zm1.03 5.577zm2.62.12c-1.02 0-1.58-.9-1.58-.9-.57-.91-.57-2.6-.57-2.6 0-1.69.57-2.58.57-2.58.57-.88 1.59-.88 1.59-.88 1.01 0 1.58.88 1.58.88.57.88.57 2.57.57 2.57 0 1.69-.56 2.59-.56 2.59-.57.9-1.57.9-1.57.9zm0 0zm0-.69c.3 0 .53-.17.53-.17.24-.17.41-.51.41-.51.18-.34.27-.87.27-.87.1-.53.1-1.27.1-1.27 0-.74-.09-1.26-.09-1.26-.09-.53-.26-.86-.26-.86-.17-.33-.41-.49-.41-.49-.23-.16-.53-.16-.53-.16-.29 0-.53.16-.53.16-.24.15-.41.48-.41.48-.17.33-.27.86-.27.86-.09.52-.09 1.26-.09 1.26 0 1.47.36 2.14.36 2.14.36.67.95.67.95.67zm2.61.56zm2.62.12c-1.02 0-1.58-.9-1.58-.9-.56-.91-.56-2.6-.56-2.6 0-1.69.57-2.58.57-2.58.57-.88 1.59-.88 1.59-.88 1.01 0 1.58.88 1.58.88.57.88.57 2.57.57 2.57 0 1.69-.56 2.59-.56 2.59-.56.9-1.57.9-1.57.9zm0 0zm0-.69c.3 0 .53-.17.53-.17.24-.16.41-.5.41-.5.18-.34.27-.87.27-.87.1-.53.1-1.27.1-1.27 0-.74-.09-1.26-.09-1.26-.1-.53-.27-.86-.27-.86-.17-.33-.41-.49-.41-.49-.24-.16-.53-.16-.53-.16-.29 0-.54.16-.54.16-.24.16-.41.49-.41.49-.17.33-.27.85-.27.85-.09.52-.09 1.26-.09 1.26 0 1.47.37 2.14.37 2.14.36.66.95.66.95.66zM30.64 38.44zm1.21-1.794c0 .28.11.51.11.51.11.23.304.41.304.41.194.176.456.27.456.27.263.095.568.095.568.095.588 0 .95-.32.95-.32.363-.33.363-.85.363-.85 0-.33-.14-.56-.14-.56-.15-.23-.4-.41-.4-.41-.25-.17-.58-.31-.58-.31l-.68-.29c-.4.28-.66.64-.66.64-.27.36-.27.83-.27.83zm0 0zm1.89-1.86c.336-.31.52-.64.52-.64.183-.34.183-.71.183-.71 0-.503-.304-.844-.304-.844-.31-.343-.87-.343-.87-.343-.47 0-.78.29-.78.29-.31.29-.31.79-.31.79 0 .3.12.52.12.52.12.21.34.38.34.38.21.17.49.3.49.3.28.13.58.25.58.25zm0 0zm-2.67 1.94c0-.326.112-.605.112-.605.11-.28.283-.5.283-.5.174-.22.4-.4.4-.4.225-.17.467-.3.467-.3v-.04c-.368-.26-.65-.63-.65-.63-.285-.37-.285-.91-.285-.91 0-.39.147-.7.147-.7.147-.32.4-.54.4-.54.25-.23.598-.35.598-.35.347-.13.756-.13.756-.13.442 0 .788.13.788.13.347.13.594.37.594.37.246.23.378.57.378.57.13.33.13.72.13.72 0 .26-.088.5-.088.5-.09.24-.22.45-.22.45-.132.21-.295.37-.295.37-.163.17-.32.28-.32.28v.05c.22.13.43.29.43.29.21.16.373.37.373.37.163.2.263.47.263.47.1.27.1.6.1.6 0 .38-.15.71-.15.71-.15.32-.44.56-.44.56-.28.25-.68.38-.68.38-.4.14-.88.14-.88.14-.47 0-.87-.13-.87-.13-.4-.13-.69-.38-.69-.38-.29-.25-.45-.58-.45-.58-.17-.34-.17-.73-.17-.73zm4.79 1.71zm2.617.127c-1.02 0-1.586-.903-1.586-.903-.56-.903-.56-2.595-.56-2.595 0-1.69.57-2.57.57-2.57.57-.88 1.59-.88 1.59-.88 1.01 0 1.58.88 1.58.88.57.88.57 2.576.57 2.576 0 1.7-.56 2.6-.56 2.6-.57.91-1.58.91-1.58.91zm0 0zm0-.693c.294 0 .53-.163.53-.163.237-.16.41-.504.41-.504.173-.34.268-.87.268-.87.095-.53.095-1.27.095-1.27 0-.74-.095-1.26-.095-1.26-.095-.53-.268-.86-.268-.86-.173-.33-.41-.488-.41-.488-.236-.16-.53-.16-.53-.16-.294 0-.536.16-.536.16-.24.154-.41.485-.41.485-.17.33-.27.856-.27.856-.09.524-.09 1.26-.09 1.26 0 1.47.36 2.137.36 2.137.37.67.95.67.95.67zm2.605.567zm2.615.126c-1.018 0-1.586-.9-1.586-.9-.56-.91-.56-2.6-.56-2.6 0-1.69.57-2.577.57-2.577.57-.88 1.59-.88 1.59-.88 1.01 0 1.58.88 1.58.88.57.88.57 2.57.57 2.57 0 1.69-.56 2.59-.56 2.59-.57.9-1.58.9-1.58.9zm0 0zm0-.69c.295 0 .53-.17.53-.17.237-.16.41-.506.41-.506.174-.34.27-.87.27-.87.093-.53.093-1.265.093-1.265 0-.736-.094-1.26-.094-1.26-.095-.526-.268-.857-.268-.857-.174-.33-.41-.49-.41-.49-.236-.16-.53-.16-.53-.16-.295 0-.536.16-.536.16-.242.16-.415.49-.415.49-.173.33-.268.856-.268.856-.1.53-.1 1.26-.1 1.26 0 1.47.36 2.14.36 2.14.36.67.95.67.95.67z"/><path fill="none" stroke-miterlimit="10" d="M55.41 738h916.94" stroke-linecap="square"/><path stroke="none" d="M101.694 758zm.966-1.502c.368.39.867.625.867.625.5.236 1.035.236 1.035.236.683 0 1.06-.31 1.06-.31.38-.31.38-.82.38-.82 0-.26-.09-.45-.09-.45-.09-.19-.242-.32-.242-.32-.152-.13-.362-.24-.362-.24-.21-.11-.452-.22-.452-.22l-.987-.43c-.25-.11-.5-.26-.5-.26-.25-.15-.45-.36-.45-.36-.2-.21-.33-.5-.33-.5-.13-.29-.13-.67-.13-.67 0-.39.16-.73.16-.73.16-.34.45-.59.45-.59.29-.25.68-.39.68-.39.39-.14.86-.14.86-.14.62 0 1.14.23 1.14.23.52.24.89.61.89.61l-.48.56c-.32-.31-.7-.48-.7-.48-.39-.17-.87-.17-.87-.17-.58 0-.93.26-.93.26-.35.27-.35.74-.35.74 0 .25.1.42.1.42.1.17.26.3.26.3.16.14.36.23.36.23.2.1.41.19.41.19l.97.42c.3.13.56.29.56.29.26.16.45.38.45.38.19.21.3.5.3.5.11.29.11.66.11.66 0 .41-.16.76-.16.76-.16.35-.47.62-.47.62-.31.26-.74.42-.74.42-.43.15-.98.15-.98.15-.73 0-1.35-.27-1.35-.27-.62-.27-1.07-.75-1.07-.75zm4.643 1.502zm1.01-4.4h-.757v-.653l.798-.052.105-1.43h.72v1.43h1.37v.704h-1.38v2.83c0 .47.17.73.17.73.17.25.61.25.61.25.14 0 .29-.04.29-.04.16-.05.28-.1.28-.1l.16.65c-.21.07-.46.13-.46.13-.25.05-.49.05-.49.05-.41 0-.69-.13-.69-.13-.28-.13-.45-.35-.45-.35-.17-.22-.25-.54-.25-.54-.07-.32-.07-.7-.07-.7v-2.82zm2.54 4.4zm.862-5.105h.714l.07.924h.03c.26-.49.63-.77.63-.77.37-.29.81-.29.81-.29.3 0 .54.1.54.1l-.17.75-.23-.07c-.11-.02-.27-.02-.27-.02-.33 0-.68.26-.68.26-.35.26-.61.91-.61.91v3.3h-.86v-5.11zm2.68 5.105zm.482-2.542c0-.64.194-1.14.194-1.14.2-.5.52-.845.52-.845.33-.347.76-.525.76-.525.43-.18.9-.18.9-.18.48 0 .9.18.9.18.43.178.75.525.75.525.33.346.52.845.52.845.2.5.2 1.14.2 1.14 0 .63-.19 1.13-.19 1.13-.19.498-.52.84-.52.84-.32.34-.75.52-.75.52-.42.178-.9.178-.9.178-.47 0-.89-.18-.89-.18-.42-.177-.75-.52-.75-.52-.32-.34-.52-.84-.52-.84-.19-.498-.19-1.128-.19-1.128zm0 0zm.893 0c0 .44.105.798.105.798.105.357.3.615.3.615.193.26.467.4.467.4.273.15.598.15.598.15.326 0 .6-.14.6-.14.272-.14.466-.4.466-.4.195-.25.3-.61.3-.61.105-.35.105-.8.105-.8 0-.44-.1-.8-.1-.8-.1-.36-.3-.62-.3-.62-.19-.26-.46-.4-.46-.4-.27-.14-.6-.14-.6-.14-.32 0-.59.14-.59.14-.27.14-.47.41-.47.41-.19.26-.3.63-.3.63-.1.37-.1.81-.1.81zm4.317 2.542zm.86-5.105h.716l.073.735h.032c.367-.367.772-.614.772-.614.404-.247.94-.247.94-.247.81 0 1.18.5 1.18.5.374.5.374 1.49.374 1.49V758h-.86v-3.12c0-.724-.232-1.045-.232-1.045-.23-.32-.735-.32-.735-.32-.4 0-.704.2-.704.2-.305.2-.693.588-.693.588V758h-.862v-5.105zm4.886 5.105zm1.23.86c0 .41.393.653.393.653.394.24 1.087.24 1.087.24.367 0 .667-.088.667-.088.3-.09.51-.23.51-.23.21-.143.325-.332.325-.332.116-.19.116-.39.116-.39 0-.356-.26-.492-.26-.492-.26-.13-.76-.13-.76-.13h-.88c-.15 0-.32-.01-.32-.01-.17-.01-.34-.07-.34-.07-.27.2-.4.42-.4.42-.12.22-.12.44-.12.44zm0 0zm-.758.117c0-.326.2-.62.2-.62.2-.294.546-.535.546-.535v-.042c-.18-.116-.32-.32-.32-.32-.13-.206-.13-.51-.13-.51 0-.326.18-.568.18-.568.18-.24.38-.378.38-.378v-.042c-.25-.21-.45-.562-.45-.562-.2-.352-.2-.814-.2-.814 0-.42.15-.756.15-.756.16-.336.42-.573.42-.573.26-.236.62-.362.62-.362.35-.126.74-.126.74-.126.21 0 .4.03.4.03.19.03.34.09.34.09h1.78v.66h-1.05c.18.18.3.45.3.45.12.27.12.6.12.6 0 .41-.14.74-.14.74-.15.33-.4.55-.4.55-.25.22-.59.35-.59.35-.34.12-.73.12-.73.12-.19 0-.39-.05-.39-.05-.2-.05-.38-.13-.38-.13-.13.11-.23.25-.23.25-.09.14-.09.35-.09.35 0 .24.19.4.19.4.19.16.71.16.71.16h.99c.9 0 1.34.29 1.34.29.45.28.45.92.45.92 0 .35-.17.67-.17.67-.18.32-.51.56-.51.56-.34.24-.81.38-.81.38-.48.14-1.07.14-1.07.14-.47 0-.86-.09-.86-.09-.39-.09-.67-.27-.67-.27-.28-.18-.43-.43-.43-.43-.15-.25-.15-.59-.15-.59zm0 0zm2.112-3.172c.22 0 .415-.084.415-.084.194-.08.346-.24.346-.24.153-.16.237-.38.237-.38.084-.22.084-.51.084-.51 0-.56-.32-.87-.32-.87-.32-.31-.77-.31-.77-.31-.45 0-.77.31-.77.31-.32.31-.32.88-.32.88 0 .29.08.51.08.51.08.23.23.39.23.39.15.16.34.24.34.24.19.09.41.09.41.09zm2.71 2.195zm.86-7.48h.863v6.514c0 .21.073.294.073.294.073.084.168.084.168.084h.08l.11-.02.12.65c-.08.042-.2.063-.2.063-.11.02-.29.02-.29.02-.49 0-.7-.293-.7-.293-.21-.294-.21-.86-.21-.86v-6.45zm1.82 7.48zm.513 1.408l.19.047.2.026c.44 0 .718-.31.718-.31.28-.31.436-.78.436-.78l.116-.38-2.048-5.11h.892l1.04 2.83.247.71c.14.37.25.73.25.73h.04c.12-.34.22-.72.22-.72.11-.38.21-.71.21-.71l.92-2.82h.84l-1.92 5.53c-.14.38-.3.7-.3.7-.17.33-.4.56-.4.56-.23.24-.52.38-.52.38-.29.14-.68.14-.68.14-.18 0-.32-.02-.32-.02-.14-.02-.27-.08-.27-.08l.17-.68zm6.513-1.408zm.494-2.542c0-.62.183-1.12.183-1.12.184-.498.49-.844.49-.844.303-.347.703-.536.703-.536.4-.19.84-.19.84-.19.44 0 .767.158.767.158.325.158.66.43.66.43l-.04-.87v-1.965h.87V758h-.713l-.074-.6h-.03c-.306.295-.7.51-.7.51-.393.216-.845.216-.845.216-.967 0-1.54-.693-1.54-.693-.572-.693-.572-1.975-.572-1.975zm0 0zm.892-.01c0 .924.36 1.44.36 1.44.37.513 1.04.513 1.04.513.35 0 .67-.17.67-.17.31-.17.63-.53.63-.53v-2.67c-.33-.29-.63-.41-.63-.41-.3-.12-.62-.12-.62-.12-.31 0-.58.14-.58.14-.27.15-.47.4-.47.4-.2.26-.32.62-.32.62-.12.36-.12.8-.12.8zm4.44 2.552zm1.3-6.155c-.25 0-.43-.158-.43-.158-.18-.158-.18-.4-.18-.4 0-.25.17-.404.17-.404.17-.152.42-.152.42-.152.25 0 .42.16.42.16.17.16.17.41.17.41 0 .24-.18.4-.18.4-.18.16-.43.16-.43.16zm0 0zm-.44 1.05h.86V758h-.86v-5.105zm1.72 5.105zm.72-1.155c.33.273.69.44.69.44.35.17.81.17.81.17.5 0 .75-.232.75-.232.25-.23.25-.567.25-.567 0-.2-.11-.347-.11-.347-.11-.15-.27-.26-.27-.26-.17-.11-.38-.2-.38-.2l-.42-.17c-.28-.1-.55-.22-.55-.22-.27-.12-.49-.3-.49-.3-.22-.18-.35-.41-.35-.41-.14-.23-.14-.56-.14-.56 0-.31.12-.58.12-.58.12-.27.34-.46.34-.46.22-.19.55-.31.55-.31.32-.11.73-.11.73-.11.48 0 .89.17.89.17.4.16.7.41.7.41l-.41.54c-.26-.2-.55-.33-.55-.33-.29-.13-.62-.13-.62-.13-.49 0-.71.22-.71.22-.23.22-.23.51-.23.51 0 .18.09.31.09.31.1.13.25.23.25.23.15.1.36.18.36.18l.42.16c.27.1.55.22.55.22.28.11.5.29.5.29.22.17.36.42.36.42.15.25.15.61.15.61 0 .31-.12.59-.12.59-.13.27-.36.48-.36.48-.24.21-.59.33-.59.33-.35.12-.81.12-.81.12-.55 0-1.04-.2-1.04-.2-.49-.2-.86-.51-.86-.51zm3.68 1.155zm.61-1.323c0-.84.75-1.287.75-1.287.75-.447 2.39-.625 2.39-.625 0-.242-.05-.473-.05-.473-.05-.23-.17-.41-.17-.41-.12-.178-.32-.29-.32-.29-.2-.11-.52-.11-.52-.11-.45 0-.84.17-.84.17-.39.167-.69.377-.69.377l-.35-.6c.36-.23.87-.45.87-.45.51-.22 1.13-.22 1.13-.22.93 0 1.35.57 1.35.57.42.57.42 1.53.42 1.53V758h-.72l-.08-.61h-.02c-.37.306-.79.52-.79.52-.43.216-.9.216-.9.216-.65 0-1.08-.378-1.08-.378-.43-.378-.43-1.07-.43-1.07zm0 0zm.85-.064c0 .442.25.63.25.63.26.19.63.19.63.19.37 0 .7-.173.7-.173.33-.174.7-.51.7-.51v-1.418c-.64.084-1.08.2-1.08.2-.44.115-.71.273-.71.273-.27.157-.39.362-.39.362-.12.205-.12.446-.12.446zm3.92 1.387zm1.23.86c0 .41.39.653.39.653.39.24 1.08.24 1.08.24.37 0 .66-.088.66-.088.3-.09.51-.23.51-.23.21-.143.32-.332.32-.332.11-.19.11-.39.11-.39 0-.356-.26-.492-.26-.492-.26-.13-.77-.13-.77-.13h-.88c-.15 0-.32-.01-.32-.01-.18-.01-.34-.07-.34-.07-.28.2-.4.42-.4.42-.13.22-.13.44-.13.44zm0 0zm-.76.117c0-.326.2-.62.2-.62.2-.294.54-.535.54-.535v-.042c-.19-.116-.32-.32-.32-.32-.14-.206-.14-.51-.14-.51 0-.326.18-.568.18-.568.18-.24.38-.378.38-.378v-.042c-.26-.21-.46-.562-.46-.562-.21-.352-.21-.814-.21-.814 0-.42.15-.756.15-.756.15-.336.41-.573.41-.573.26-.236.61-.362.61-.362.35-.126.74-.126.74-.126.21 0 .39.03.39.03.18.03.33.09.33.09h1.78v.66h-1.05c.18.18.3.45.3.45.12.27.12.6.12.6 0 .41-.15.74-.15.74-.15.33-.4.55-.4.55-.26.22-.6.35-.6.35-.34.12-.73.12-.73.12-.19 0-.39-.05-.39-.05-.2-.05-.38-.13-.38-.13-.14.11-.23.25-.23.25-.1.14-.1.35-.1.35 0 .24.19.4.19.4.18.16.71.16.71.16h.99c.89 0 1.34.29 1.34.29.44.28.44.92.44.92 0 .35-.18.67-.18.67-.18.32-.52.56-.52.56-.34.24-.81.38-.81.38-.48.14-1.08.14-1.08.14-.47 0-.86-.09-.86-.09-.39-.09-.67-.27-.67-.27-.28-.18-.43-.43-.43-.43-.16-.25-.16-.59-.16-.59zm0 0zm2.11-3.172c.22 0 .41-.084.41-.084.19-.08.34-.24.34-.24.15-.16.23-.38.23-.38.08-.22.08-.51.08-.51 0-.56-.32-.87-.32-.87-.32-.31-.77-.31-.77-.31-.45 0-.77.31-.77.31-.32.31-.32.88-.32.88 0 .29.08.51.08.51.08.23.23.39.23.39.15.16.34.24.34.24.19.09.41.09.41.09zm2.71 2.195zm.86-5.105h.71l.07.924h.03c.26-.49.63-.77.63-.77.37-.29.81-.29.81-.29.3 0 .54.1.54.1l-.17.75-.23-.07c-.11-.02-.26-.02-.26-.02-.33 0-.68.26-.68.26-.35.26-.62.91-.62.91v3.3h-.86v-5.11zm2.68 5.105zm.48-2.542c0-.63.19-1.13.19-1.13.19-.498.51-.845.51-.845.32-.346.73-.53.73-.53.41-.184.85-.184.85-.184.48 0 .87.16.87.16.38.17.64.48.64.48.25.31.39.75.39.75.13.44.13.98.13.98 0 .28-.03.47-.03.47h-3.45c.05.83.51 1.31.51 1.31.45.48 1.19.48 1.19.48.37 0 .68-.11.68-.11.31-.11.59-.29.59-.29l.3.56c-.34.21-.75.37-.75.37-.41.16-.94.16-.94.16-.52 0-.96-.19-.96-.19-.45-.19-.78-.53-.78-.53-.33-.34-.52-.84-.52-.84-.19-.5-.19-1.13-.19-1.13zm0 0zm3.57-.39c0-.786-.33-1.2-.33-1.2-.33-.416-.93-.416-.93-.416-.28 0-.52.11-.52.11-.25.11-.45.315-.45.315-.2.205-.33.504-.33.504-.13.3-.18.69-.18.69h2.73zm1.16 2.932zm.48-2.542c0-.63.19-1.13.19-1.13.19-.498.51-.845.51-.845.32-.346.73-.53.73-.53.41-.184.85-.184.85-.184.48 0 .87.16.87.16.38.17.64.48.64.48.25.31.39.75.39.75.13.44.13.98.13.98 0 .28-.03.47-.03.47h-3.44c.05.83.51 1.31.51 1.31.45.48 1.19.48 1.19.48.37 0 .67-.11.67-.11.31-.11.59-.29.59-.29l.31.56c-.34.21-.75.37-.75.37-.41.16-.94.16-.94.16-.52 0-.96-.19-.96-.19-.45-.19-.78-.53-.78-.53-.33-.34-.52-.84-.52-.84-.19-.5-.19-1.13-.19-1.13zm0 0zm3.57-.39c0-.786-.33-1.2-.33-1.2-.33-.416-.93-.416-.93-.416-.28 0-.52.11-.52.11-.25.11-.45.315-.45.315-.2.205-.33.504-.33.504-.13.3-.18.69-.18.69h2.73zm1.16 2.932zm.68-4.317c0-.305.18-.49.18-.49.18-.182.44-.182.44-.182.25 0 .43.19.43.19.18.19.18.49.18.49 0 .28-.19.47-.19.47-.19.19-.44.19-.44.19-.26 0-.45-.18-.45-.18-.19-.18-.19-.46-.19-.46zm0 0zm0 3.792c0-.305.18-.49.18-.49.18-.182.44-.182.44-.182.25 0 .43.183.43.183.18.184.18.49.18.49 0 .282-.19.466-.19.466-.19.184-.44.184-.44.184-.26 0-.45-.184-.45-.184-.19-.184-.19-.467-.19-.467zM183 758zm.83-.714h1.533v-4.937h-1.21v-.56c.46-.09.81-.21.81-.21.34-.12.614-.29.614-.29h.66v5.99h1.39v.72h-3.78v-.72zm4.39.714zm.683-1.355c.3.305.7.536.7.536.41.24 1 .24 1 .24.31 0 .58-.11.58-.11.266-.11.466-.31.466-.31.2-.2.31-.48.31-.48.11-.28.11-.63.11-.63 0-.69-.39-1.08-.39-1.08-.39-.39-1.04-.39-1.04-.39-.35 0-.59.11-.59.11-.25.11-.55.31-.55.31l-.47-.29.22-3.22h3.35v.75H190l-.18 1.99c.24-.13.482-.2.482-.2.24-.07.544-.07.544-.07.43 0 .81.13.81.13.38.13.66.39.66.39.287.26.45.65.45.65.164.4.164.94.164.94 0 .55-.19.97-.19.97-.19.42-.505.71-.505.71-.315.29-.72.44-.72.44-.406.15-.847.15-.847.15-.4 0-.73-.08-.73-.08-.33-.08-.6-.2-.6-.2-.266-.12-.48-.28-.48-.28-.216-.16-.384-.34-.384-.34zM304.49 758zm.945-6.89h1.72c1.598 0 2.428.882 2.428.882.83.882.83 2.53.83 2.53 0 .82-.21 1.466-.21 1.466-.21.646-.62 1.093-.62 1.093-.41.45-1.007.69-1.007.69-.6.24-1.378.24-1.378.24h-1.765v-6.89zm0 0zm1.66 6.176c1.207 0 1.81-.725 1.81-.725.605-.72.605-2.03.605-2.03 0-1.31-.604-2-.604-2-.602-.69-1.81-.69-1.81-.69h-.79v5.46h.79zm3.854.714zm1.3-6.155c-.26 0-.43-.158-.43-.158-.17-.158-.17-.4-.17-.4 0-.25.17-.404.17-.404.17-.152.43-.152.43-.152.25 0 .42.16.42.16.17.16.17.41.17.41 0 .24-.18.4-.18.4-.18.16-.43.16-.43.16zm0 0zm-.44 1.05h.86V758h-.86v-5.105zm1.72 5.105zm.72-1.155c.34.273.69.44.69.44.35.17.81.17.81.17.5 0 .75-.232.75-.232.25-.23.25-.567.25-.567 0-.2-.11-.347-.11-.347-.11-.15-.27-.26-.27-.26-.16-.11-.37-.2-.37-.2l-.42-.17c-.28-.1-.55-.22-.55-.22-.27-.12-.49-.3-.49-.3-.22-.18-.36-.41-.36-.41-.14-.23-.14-.56-.14-.56 0-.31.12-.58.12-.58.12-.27.35-.46.35-.46.23-.19.55-.31.55-.31.32-.11.73-.11.73-.11.48 0 .89.17.89.17.41.16.7.41.7.41l-.41.54c-.26-.2-.55-.33-.55-.33-.29-.13-.62-.13-.62-.13-.49 0-.71.22-.71.22-.23.22-.23.51-.23.51 0 .18.09.31.09.31.09.13.25.23.25.23.16.1.36.18.36.18l.42.16c.27.1.55.22.55.22.27.11.5.29.5.29.22.17.36.42.36.42.14.25.14.61.14.61 0 .31-.12.59-.12.59-.13.27-.36.48-.36.48-.24.21-.59.33-.59.33-.36.12-.81.12-.81.12-.55 0-1.04-.2-1.04-.2-.5-.2-.86-.51-.86-.51zm3.68 1.155zm.61-1.323c0-.84.75-1.287.75-1.287.75-.447 2.39-.625 2.39-.625 0-.242-.05-.473-.05-.473-.05-.23-.17-.41-.17-.41-.12-.178-.32-.29-.32-.29-.2-.11-.52-.11-.52-.11-.46 0-.84.17-.84.17-.38.167-.69.377-.69.377l-.35-.6c.36-.23.87-.45.87-.45.51-.22 1.13-.22 1.13-.22.93 0 1.35.57 1.35.57.42.57.42 1.53.42 1.53V758h-.72l-.08-.61h-.02c-.37.306-.8.52-.8.52-.43.216-.9.216-.9.216-.65 0-1.08-.378-1.08-.378-.43-.378-.43-1.07-.43-1.07zm0 0zm.85-.064c0 .442.26.63.26.63.25.19.63.19.63.19.37 0 .7-.173.7-.173.33-.174.69-.51.69-.51v-1.418c-.65.084-1.09.2-1.09.2-.44.115-.71.273-.71.273-.27.157-.38.362-.38.362-.12.205-.12.446-.12.446zm3.92 1.387zm1.22.86c0 .41.39.653.39.653.39.24 1.09.24 1.09.24.37 0 .67-.088.67-.088.3-.09.51-.23.51-.23.21-.143.32-.332.32-.332.11-.19.11-.39.11-.39 0-.356-.27-.492-.27-.492-.26-.13-.77-.13-.77-.13h-.88c-.15 0-.32-.01-.32-.01-.17-.01-.34-.07-.34-.07-.27.2-.4.42-.4.42-.13.22-.13.44-.13.44zm0 0zm-.76.117c0-.326.2-.62.2-.62.2-.294.54-.535.54-.535v-.042c-.19-.116-.32-.32-.32-.32-.13-.206-.13-.51-.13-.51 0-.326.17-.568.17-.568.18-.24.38-.378.38-.378v-.042c-.26-.21-.46-.562-.46-.562-.21-.352-.21-.814-.21-.814 0-.42.15-.756.15-.756.15-.336.41-.573.41-.573.26-.236.61-.362.61-.362.35-.126.74-.126.74-.126.21 0 .4.03.4.03.18.03.33.09.33.09h1.77v.66h-1.05c.18.18.3.45.3.45.12.27.12.6.12.6 0 .41-.15.74-.15.74-.15.33-.4.55-.4.55-.25.22-.59.35-.59.35-.34.12-.73.12-.73.12-.19 0-.39-.05-.39-.05-.2-.05-.38-.13-.38-.13-.14.11-.23.25-.23.25-.09.14-.09.35-.09.35 0 .24.19.4.19.4.19.16.71.16.71.16h.98c.89 0 1.34.29 1.34.29.44.28.44.92.44.92 0 .35-.18.67-.18.67-.18.32-.52.56-.52.56-.34.24-.82.38-.82.38-.48.14-1.08.14-1.08.14-.47 0-.86-.09-.86-.09-.39-.09-.66-.27-.66-.27-.28-.18-.43-.43-.43-.43-.15-.25-.15-.59-.15-.59zm0 0zm2.11-3.172c.22 0 .41-.084.41-.084.19-.08.34-.24.34-.24.15-.16.24-.38.24-.38.08-.22.08-.51.08-.51 0-.56-.32-.87-.32-.87-.32-.31-.77-.31-.77-.31-.45 0-.77.31-.77.31-.31.31-.31.88-.31.88 0 .29.08.51.08.51.08.23.24.39.24.39.15.16.34.24.34.24.2.09.42.09.42.09zM328.6 758zm.863-5.105h.714l.073.924h.032c.263-.49.635-.77.635-.77.373-.29.815-.29.815-.29.304 0 .546.1.546.1l-.168.75c-.127-.04-.232-.07-.232-.07-.105-.02-.262-.02-.262-.02-.326 0-.678.26-.678.26-.352.26-.614.91-.614.91v3.3h-.86v-5.11zM332.14 758zm.484-2.542c0-.63.195-1.13.195-1.13.19-.498.51-.845.51-.845.32-.346.73-.53.73-.53.41-.184.85-.184.85-.184.48 0 .87.16.87.16.38.17.64.48.64.48.25.31.39.75.39.75.13.44.13.98.13.98 0 .28-.03.47-.03.47h-3.45c.05.83.51 1.31.51 1.31.45.48 1.19.48 1.19.48.36 0 .67-.11.67-.11.31-.11.59-.29.59-.29l.3.56c-.34.21-.75.37-.75.37-.41.16-.93.16-.93.16-.52 0-.96-.19-.96-.19-.45-.19-.78-.53-.78-.53-.33-.34-.52-.84-.52-.84-.19-.5-.19-1.13-.19-1.13zm0 0zm3.572-.39c0-.786-.33-1.2-.33-1.2-.332-.416-.93-.416-.93-.416-.274 0-.52.11-.52.11-.247.11-.447.315-.447.315-.2.205-.34.504-.34.504-.13.3-.18.69-.18.69h2.73zM337.35 758zm.484-2.542c0-.63.195-1.13.195-1.13.19-.498.51-.845.51-.845.32-.346.73-.53.73-.53.41-.184.85-.184.85-.184.48 0 .86.16.86.16.38.17.64.48.64.48.26.31.39.75.39.75.13.44.13.98.13.98 0 .28-.03.47-.03.47h-3.45c.05.83.51 1.31.51 1.31.45.48 1.19.48 1.19.48.36 0 .67-.11.67-.11.31-.11.59-.29.59-.29l.3.56c-.34.21-.75.37-.75.37-.41.16-.94.16-.94.16-.52 0-.96-.19-.96-.19-.45-.19-.78-.53-.78-.53-.33-.34-.52-.84-.52-.84-.19-.5-.19-1.13-.19-1.13zm0 0zm3.572-.39c0-.786-.33-1.2-.33-1.2-.332-.416-.93-.416-.93-.416-.274 0-.52.11-.52.11-.247.11-.447.315-.447.315-.2.205-.34.504-.34.504-.13.3-.18.69-.18.69h2.73zM342.56 758zm.684-4.317c0-.305.184-.49.184-.49.184-.182.446-.182.446-.182.252 0 .436.19.436.19.184.19.184.49.184.49 0 .28-.184.47-.184.47-.184.19-.436.19-.436.19-.262 0-.446-.18-.446-.18-.184-.18-.184-.46-.184-.46zm0 0zm0 3.792c0-.305.184-.49.184-.49.184-.182.446-.182.446-.182.252 0 .436.183.436.183.184.184.184.49.184.49 0 .282-.184.466-.184.466-.184.184-.436.184-.436.184-.262 0-.446-.184-.446-.184-.184-.184-.184-.467-.184-.467zm4.055.525zm2.46-3.256c.32 0 .7-.205.7-.205.37-.21.71-.69.71-.69-.09-.99-.46-1.49-.46-1.49-.38-.51-1.02-.51-1.02-.51-.24 0-.46.1-.46.1-.22.1-.38.3-.38.3-.16.19-.25.46-.25.46-.09.27-.09.6-.09.6 0 .66.3 1.04.3 1.04.3.37.93.37.93.37zm0 0zm-1.45 2.132c.21.242.5.39.5.39.29.146.6.146.6.146.35 0 .67-.147.67-.147.31-.147.55-.49.55-.49.24-.34.38-.886.38-.886.14-.55.15-1.36.15-1.36-.32.4-.74.63-.74.63-.42.23-.84.23-.84.23-.88 0-1.39-.52-1.39-.52-.52-.52-.52-1.56-.52-1.56 0-.49.16-.88.16-.88.16-.4.42-.68.42-.68.27-.28.63-.44.63-.44.36-.16.76-.16.76-.16.49 0 .92.2.92.2.42.2.73.6.73.6.31.4.48 1.01.48 1.01.17.6.17 1.41.17 1.41 0 1.01-.21 1.72-.21 1.72-.21.71-.57 1.15-.57 1.15-.36.44-.82.65-.82.65-.46.2-.96.2-.96.2-.54 0-.94-.2-.94-.2-.41-.2-.68-.51-.68-.51zm4.21 1.124zm3.19-2.542v-1.943c0-.273.01-.646.01-.646.01-.38.03-.65.03-.65h-.04c-.13.24-.26.47-.26.47-.13.23-.28.47-.28.47l-1.57 2.29h2.1zm0 0zm1.73.693h-.92V758h-.82v-1.85h-3.01v-.566l2.86-4.286h.96v4.16h.91v.693zM488.01 758zm.946-6.89h.903l2.49 4.327.74 1.43h.04c-.03-.527-.07-1.09-.07-1.09-.04-.56-.04-1.107-.04-1.107v-3.56h.83V758h-.91l-2.5-4.338-.75-1.418h-.05l.08 1.066c.03.54.03 1.087.03 1.087V758h-.83v-6.89zm5.85 6.89zm.484-2.542c0-.63.194-1.13.194-1.13.194-.498.515-.845.515-.845.32-.346.73-.53.73-.53.41-.184.85-.184.85-.184.48 0 .86.16.86.16.38.17.64.48.64.48.26.31.39.75.39.75.13.44.13.98.13.98 0 .28-.03.47-.03.47h-3.45c.05.83.51 1.31.51 1.31.45.48 1.19.48 1.19.48.37 0 .68-.11.68-.11.31-.11.59-.29.59-.29l.3.56c-.34.21-.75.37-.75.37-.41.16-.94.16-.94.16-.52 0-.96-.19-.96-.19-.45-.19-.78-.53-.78-.53-.33-.34-.52-.84-.52-.84-.19-.5-.19-1.13-.19-1.13zm0 0zm3.57-.39c0-.786-.33-1.2-.33-1.2-.33-.416-.93-.416-.93-.416-.272 0-.52.11-.52.11-.246.11-.446.315-.446.315-.2.205-.33.504-.33.504-.132.3-.174.69-.174.69h2.73zm1.157 2.932zm.788-5.105h.87v3.12c0 .724.227 1.045.227 1.045.226.32.73.32.73.32.4 0 .704-.205.704-.205.305-.204.672-.656.672-.656v-3.63h.862V758h-.715l-.073-.798h-.032c-.357.42-.75.672-.75.672-.395.252-.93.252-.93.252-.82 0-1.193-.504-1.193-.504-.373-.504-.373-1.492-.373-1.492v-3.235zM505.73 758zm1.006-4.4h-.756v-.653l.8-.052.104-1.43h.725v1.43h1.37v.704h-1.38v2.83c0 .47.17.73.17.73.17.25.61.25.61.25.13 0 .29-.04.29-.04.16-.05.28-.1.28-.1l.16.65c-.21.07-.46.13-.46.13-.25.05-.49.05-.49.05-.41 0-.69-.13-.69-.13-.28-.13-.45-.35-.45-.35-.18-.22-.25-.54-.25-.54-.08-.32-.08-.7-.08-.7v-2.82zm2.542 4.4zm.86-5.105h.715l.074.924h.03c.263-.49.636-.77.636-.77.372-.29.814-.29.814-.29.304 0 .546.1.546.1l-.168.75c-.126-.04-.23-.07-.23-.07-.106-.02-.264-.02-.264-.02-.32 0-.67.26-.67.26-.35.26-.61.91-.61.91v3.3h-.86v-5.11zM512.66 758zm.61-1.323c0-.84.75-1.287.75-1.287.75-.447 2.39-.625 2.39-.625 0-.242-.048-.473-.048-.473-.047-.23-.168-.41-.168-.41-.12-.178-.32-.29-.32-.29-.2-.11-.515-.11-.515-.11-.45 0-.84.17-.84.17-.39.167-.69.377-.69.377l-.35-.6c.35-.23.87-.45.87-.45.51-.22 1.13-.22 1.13-.22.93 0 1.35.57 1.35.57.42.57.42 1.53.42 1.53V758h-.72l-.08-.61h-.02c-.37.306-.8.52-.8.52-.43.216-.9.216-.9.216-.65 0-1.08-.378-1.08-.378-.42-.378-.42-1.07-.42-1.07zm0 0zm.85-.064c0 .442.257.63.257.63.257.19.635.19.635.19.367 0 .698-.173.698-.173.33-.174.7-.51.7-.51v-1.418c-.642.084-1.083.2-1.083.2-.44.115-.71.273-.71.273-.267.157-.383.362-.383.362-.115.205-.115.446-.115.446zm3.92 1.387zm.86-7.48h.863v6.514c0 .21.073.294.073.294.074.084.168.084.168.084h.08l.11-.02.115.65c-.09.042-.2.063-.2.063-.12.02-.3.02-.3.02-.5 0-.71-.293-.71-.293-.21-.294-.21-.86-.21-.86v-6.45zm1.818 7.48zm.683-4.317c0-.305.19-.49.19-.49.19-.182.45-.182.45-.182.26 0 .44.19.44.19.19.19.19.49.19.49 0 .28-.18.47-.18.47-.18.19-.43.19-.43.19-.26 0-.44-.18-.44-.18-.18-.18-.18-.46-.18-.46zm0 0zm0 3.792c0-.305.19-.49.19-.49.19-.182.45-.182.45-.182.26 0 .44.183.44.183.19.184.19.49.19.49 0 .282-.18.466-.18.466-.18.184-.43.184-.43.184-.26 0-.44-.184-.44-.184-.18-.184-.18-.467-.18-.467zm4.06.525zm.72-1.387c.31.315.71.557.71.557.41.242 1.01.242 1.01.242.61 0 1-.33 1-.33.39-.332.39-.9.39-.9 0-.293-.11-.54-.11-.54-.11-.247-.36-.426-.36-.426-.25-.178-.66-.273-.66-.273-.41-.094-1.01-.094-1.01-.094v-.67c.54 0 .9-.1.9-.1.37-.1.59-.26.59-.26.23-.17.32-.4.32-.4.1-.23.1-.5.1-.5 0-.5-.31-.78-.31-.78-.31-.29-.84-.29-.84-.29-.42 0-.77.19-.77.19-.35.18-.65.49-.65.49l-.46-.55c.39-.37.86-.61.86-.61.47-.24 1.07-.24 1.07-.24.44 0 .81.11.81.11.37.11.64.33.64.33.27.21.42.53.42.53.15.31.15.72.15.72 0 .61-.34 1-.34 1-.33.39-.88.6-.88.6v.04c.31.07.57.21.57.21.27.14.47.35.47.35.2.21.31.5.31.5.11.28.11.63.11.63 0 .44-.17.79-.17.79-.18.35-.47.6-.47.6-.3.25-.7.38-.7.38-.39.13-.86.13-.86.13-.4 0-.73-.08-.73-.08-.33-.08-.6-.21-.6-.21-.27-.13-.49-.3-.49-.3-.21-.17-.38-.36-.38-.36zm4.5 1.387zm.83-.714h1.54v-4.937h-1.22v-.56c.47-.09.81-.21.81-.21.34-.12.61-.29.61-.29h.66v5.99h1.39v.72h-3.78v-.72zm4.39.714zm2.82-.557c.25 0 .46-.105.46-.105.21-.105.37-.3.37-.3.16-.193.25-.46.25-.46.09-.27.09-.605.09-.605 0-.662-.3-1.04-.3-1.04-.3-.378-.93-.378-.93-.378-.31 0-.69.204-.69.204-.37.2-.71.67-.71.67.09.98.46 1.49.46 1.49.37.51 1.01.51 1.01.51zm0 0zm1.38-5.02c-.21-.242-.5-.384-.5-.384-.29-.15-.6-.15-.6-.15-.34 0-.66.14-.66.14-.31.14-.55.48-.55.48-.24.33-.39.87-.39.87-.14.54-.15 1.34-.15 1.34.32-.39.74-.62.74-.62.42-.23.83-.23.83-.23.87 0 1.39.51 1.39.51.52.51.52 1.55.52 1.55 0 .48-.16.88-.16.88-.16.39-.43.67-.43.67-.27.28-.63.44-.63.44-.36.15-.77.15-.77.15-.49 0-.91-.2-.91-.2-.42-.2-.73-.61-.73-.61-.31-.4-.48-1.01-.48-1.01-.18-.6-.18-1.41-.18-1.41 0-1.01.21-1.72.21-1.72.21-.71.57-1.15.57-1.15.36-.45.82-.65.82-.65.46-.21.96-.21.96-.21.55 0 .94.2.94.2.4.2.68.51.68.51zM674.82 758zm3.876-2.805l-.325-1.05c-.19-.578-.35-1.15-.35-1.15-.17-.573-.33-1.17-.33-1.17h-.04c-.15.597-.32 1.17-.32 1.17-.17.572-.35 1.15-.35 1.15l-.32 1.05h2.07zm0 0zm.22.704h-2.51l-.66 2.1h-.894l2.33-6.89h.987l2.33 6.89h-.94zm1.62 2.1zm1.23.86c0 .41.392.65.392.65.394.24 1.087.24 1.087.24.368 0 .667-.09.667-.09.3-.09.51-.23.51-.23.21-.15.324-.33.324-.33.117-.19.117-.39.117-.39 0-.36-.262-.49-.262-.49-.26-.14-.76-.14-.76-.14h-.88c-.14 0-.32-.02-.32-.02-.17-.02-.34-.07-.34-.07-.27.2-.4.42-.4.42-.12.22-.12.44-.12.44zm0 0zm-.758.11c0-.33.2-.62.2-.62.2-.3.546-.54.546-.54v-.04c-.19-.12-.322-.32-.322-.32-.13-.21-.13-.51-.13-.51 0-.33.177-.57.177-.57.18-.24.38-.38.38-.38v-.05c-.26-.21-.46-.56-.46-.56-.21-.35-.21-.82-.21-.82 0-.42.15-.76.15-.76.15-.34.41-.57.41-.57.26-.24.61-.36.61-.36.35-.13.74-.13.74-.13.21 0 .39.03.39.03.18.04.33.09.33.09h1.77v.66h-1.05c.18.18.3.45.3.45.12.27.12.6.12.6 0 .41-.15.74-.15.74-.15.33-.4.55-.4.55-.25.22-.59.35-.59.35-.34.12-.73.12-.73.12-.19 0-.39-.05-.39-.05-.2-.05-.38-.13-.38-.13-.14.11-.23.25-.23.25-.1.14-.1.35-.1.35 0 .24.19.4.19.4.18.15.71.15.71.15h.98c.89 0 1.34.29 1.34.29.44.29.44.93.44.93 0 .36-.18.68-.18.68-.18.32-.52.56-.52.56-.34.24-.82.38-.82.38-.48.14-1.08.14-1.08.14-.47 0-.86-.09-.86-.09-.39-.09-.67-.27-.67-.27-.28-.18-.43-.43-.43-.43-.15-.25-.15-.59-.15-.59zm0 0zm2.11-3.17c.222 0 .416-.09.416-.09.193-.09.346-.24.346-.24.152-.16.236-.39.236-.39.085-.23.085-.51.085-.51 0-.57-.31-.88-.31-.88-.31-.31-.76-.31-.76-.31-.45 0-.76.31-.76.31-.31.31-.31.87-.31.87 0 .28.09.51.09.51.09.22.24.38.24.38.16.15.35.24.35.24.19.08.41.08.41.08zm2.71 2.19zm.863-5.11h.72l.08.92h.03c.26-.49.64-.77.64-.77.37-.29.82-.29.82-.29.31 0 .55.1.55.1l-.17.76-.23-.07c-.1-.02-.26-.02-.26-.02-.33 0-.68.26-.68.26-.35.26-.61.91-.61.91v3.3h-.86v-5.11zm2.68 5.1zm.49-2.55c0-.63.2-1.13.2-1.13.2-.5.52-.85.52-.85.32-.35.73-.53.73-.53.41-.19.85-.19.85-.19.48 0 .87.16.87.16.39.16.64.48.64.48.26.31.4.75.4.75.14.44.14.99.14.99 0 .28-.03.47-.03.47h-3.45c.06.83.51 1.31.51 1.31.46.48 1.2.48 1.2.48.37 0 .68-.11.68-.11.31-.11.59-.29.59-.29l.31.57c-.34.21-.75.37-.75.37-.41.16-.93.16-.93.16-.51 0-.96-.19-.96-.19-.45-.19-.78-.53-.78-.53-.33-.34-.52-.84-.52-.84-.19-.49-.19-1.12-.19-1.12zm0 0zm3.57-.39c0-.79-.33-1.2-.33-1.2-.33-.42-.93-.42-.93-.42-.27 0-.52.11-.52.11-.25.11-.44.32-.44.32-.2.2-.33.5-.33.5-.13.3-.17.69-.17.69h2.73zm1.16 2.93zm.49-2.54c0-.63.2-1.13.2-1.13.2-.5.52-.85.52-.85.32-.35.73-.53.73-.53.41-.18.85-.18.85-.18.49 0 .87.16.87.16.39.17.64.48.64.48.26.31.4.76.4.76.14.44.14.99.14.99 0 .28-.03.47-.03.47h-3.44c.05.83.51 1.31.51 1.31.46.48 1.19.48 1.19.48.37 0 .68-.11.68-.11.31-.11.6-.29.6-.29l.31.57c-.33.21-.74.36-.74.36-.41.15-.93.15-.93.15-.51 0-.96-.19-.96-.19-.45-.18-.78-.52-.78-.52-.33-.34-.52-.84-.52-.84-.19-.49-.19-1.12-.19-1.12zm0 0zm3.57-.39c0-.79-.33-1.2-.33-1.2-.33-.42-.93-.42-.93-.42-.27 0-.52.11-.52.11-.25.11-.44.31-.44.31-.2.2-.33.5-.33.5-.13.3-.17.69-.17.69h2.73zm1.16 2.93zm.69-4.32c0-.31.19-.49.19-.49.19-.19.45-.19.45-.19.25 0 .44.18.44.18.19.18.19.49.19.49 0 .28-.18.46-.18.46-.18.18-.44.18-.44.18-.26 0-.44-.18-.44-.18-.18-.19-.18-.47-.18-.47zm0 0zm0 3.79c0-.31.19-.49.19-.49.19-.18.45-.18.45-.18.25 0 .44.18.44.18.19.18.19.49.19.49 0 .28-.18.46-.18.46-.18.18-.44.18-.44.18-.26 0-.44-.19-.44-.19-.18-.19-.18-.47-.18-.47zm4.06.52zm2.82-.56c.26 0 .47-.11.47-.11.21-.11.37-.3.37-.3.16-.2.25-.46.25-.46.09-.27.09-.61.09-.61 0-.66-.3-1.04-.3-1.04-.3-.38-.93-.38-.93-.38-.31 0-.68.2-.68.2-.37.2-.71.68-.71.68.08.98.46 1.49.46 1.49.37.51 1.02.51 1.02.51zm0 0zm1.38-5.02c-.21-.24-.5-.39-.5-.39-.29-.15-.6-.15-.6-.15-.34 0-.66.14-.66.14-.31.15-.55.48-.55.48-.24.34-.39.88-.39.88-.15.54-.16 1.34-.16 1.34.32-.39.74-.61.74-.61.42-.23.83-.23.83-.23.87 0 1.39.52 1.39.52.52.51.52 1.55.52 1.55 0 .48-.16.87-.16.87-.15.39-.43.68-.43.68-.27.28-.63.44-.63.44-.35.16-.76.16-.76.16-.49 0-.91-.2-.91-.2-.42-.2-.73-.61-.73-.61-.31-.41-.49-1.01-.49-1.01-.17-.61-.17-1.41-.17-1.41 0-1.01.21-1.72.21-1.72.21-.71.56-1.16.56-1.16.36-.45.81-.65.81-.65.46-.21.96-.21.96-.21.55 0 .94.2.94.2.4.2.68.51.68.51zm1.03 5.57zm2.82-.56c.26 0 .47-.11.47-.11.21-.11.37-.3.37-.3.16-.19.25-.46.25-.46.09-.27.09-.61.09-.61 0-.66-.3-1.04-.3-1.04-.31-.38-.94-.38-.94-.38-.31 0-.68.2-.68.2-.37.2-.71.68-.71.68.08.99.46 1.5.46 1.5.38.51 1.02.51 1.02.51zm0 0zm1.38-5.02c-.21-.24-.49-.39-.49-.39-.29-.14-.6-.14-.6-.14-.34 0-.66.14-.66.14-.31.15-.56.48-.56.48-.24.34-.39.88-.39.88-.14.54-.15 1.34-.15 1.34.31-.39.73-.62.73-.62.42-.23.83-.23.83-.23.87 0 1.39.52 1.39.52.52.52.52 1.56.52 1.56 0 .48-.16.88-.16.88-.16.39-.43.67-.43.67-.28.28-.63.44-.63.44-.36.15-.77.15-.77.15-.49 0-.91-.2-.91-.2-.42-.2-.73-.6-.73-.6-.31-.41-.48-1.01-.48-1.01-.18-.61-.18-1.42-.18-1.42 0-1.01.21-1.72.21-1.72.21-.71.57-1.16.57-1.16.36-.45.81-.65.81-.65.46-.21.96-.21.96-.21.55 0 .94.2.94.2.4.21.68.51.68.51zm1.03 5.57zm1.21-1.8c0 .28.11.51.11.51.11.23.31.4.31.4.2.18.46.27.46.27.26.1.56.1.56.1.59 0 .95-.33.95-.33.36-.33.36-.85.36-.85 0-.33-.14-.56-.14-.56-.14-.23-.4-.4-.4-.4-.25-.17-.58-.32-.58-.32l-.69-.29c-.4.27-.66.63-.66.63-.27.36-.27.82-.27.82zm0 0zm1.89-1.86c.34-.31.52-.64.52-.64.19-.34.19-.71.19-.71 0-.5-.3-.84-.3-.84-.3-.34-.86-.34-.86-.34-.47 0-.78.29-.78.29-.31.29-.31.79-.31.79 0 .3.13.52.13.52.13.21.34.38.34.38.22.16.49.3.49.3.28.13.58.24.58.24zm0 0zm-2.66 1.94c0-.33.11-.6.11-.6.11-.28.28-.51.28-.51.18-.23.4-.4.4-.4.23-.17.47-.3.47-.3v-.04c-.37-.26-.65-.64-.65-.64-.28-.37-.28-.91-.28-.91 0-.39.15-.7.15-.7.15-.32.4-.54.4-.54.26-.23.6-.35.6-.35.35-.13.76-.13.76-.13.44 0 .79.13.79.13.35.13.59.37.59.37.25.23.38.56.38.56.13.33.13.72.13.72 0 .26-.08.5-.08.5-.09.24-.22.45-.22.45-.13.21-.29.37-.29.37-.16.17-.32.28-.32.28v.04c.22.13.43.29.43.29.21.16.38.37.38.37.16.2.26.46.26.46.1.27.1.6.1.6 0 .38-.15.71-.15.71-.15.32-.44.56-.44.56-.28.24-.68.38-.68.38-.4.13-.88.13-.88.13-.47 0-.88-.14-.88-.14-.4-.14-.69-.39-.69-.39-.29-.25-.46-.59-.46-.59-.17-.33-.17-.73-.17-.73zm123.6 1.73zm.97-1.5c.37.39.87.62.87.62.5.24 1.04.24 1.04.24.68 0 1.06-.31 1.06-.31.38-.31.38-.82.38-.82 0-.26-.09-.45-.09-.45-.09-.19-.24-.32-.24-.32-.15-.13-.36-.24-.36-.24-.21-.11-.45-.22-.45-.22l-.98-.43c-.24-.11-.49-.26-.49-.26-.25-.15-.45-.36-.45-.36-.2-.21-.32-.5-.32-.5-.13-.29-.13-.67-.13-.67 0-.39.16-.73.16-.73.17-.34.45-.59.45-.59.29-.25.69-.39.69-.39.4-.14.87-.14.87-.14.62 0 1.15.23 1.15.23.53.23.89.61.89.61l-.47.57c-.31-.3-.7-.48-.7-.48-.38-.17-.86-.17-.86-.17-.58 0-.93.27-.93.27-.35.27-.35.74-.35.74 0 .25.1.42.1.42.1.17.27.3.27.3.17.13.37.23.37.23.2.1.41.19.41.19l.98.42c.29.13.56.29.56.29.27.16.46.38.46.38.19.21.3.5.3.5.11.29.11.66.11.66 0 .41-.16.77-.16.77-.16.35-.47.62-.47.62-.3.26-.73.42-.73.42-.43.15-.98.15-.98.15-.72 0-1.34-.27-1.34-.27-.62-.28-1.07-.75-1.07-.75zm4.65 1.5zm1.01-4.4h-.76v-.65l.8-.06.11-1.43h.73v1.43h1.38v.7h-1.38v2.83c0 .47.18.73.18.73.18.25.62.25.62.25.13 0 .29-.04.29-.04.16-.05.28-.1.28-.1l.17.65c-.21.07-.46.13-.46.13-.24.06-.49.06-.49.06-.4 0-.68-.12-.68-.12-.28-.13-.45-.35-.45-.35-.18-.22-.25-.54-.25-.54-.08-.32-.08-.7-.08-.7v-2.82zm2.54 4.4zm.86-5.11h.71l.07.92h.03c.26-.49.63-.77.63-.77.37-.29.82-.29.82-.29.31 0 .55.1.55.1l-.16.75c-.13-.04-.23-.06-.23-.06-.1-.02-.26-.02-.26-.02-.33 0-.68.26-.68.26-.35.26-.61.91-.61.91v3.3h-.86v-5.11zm2.66 5.11zm.48-2.54c0-.64.2-1.14.2-1.14.19-.5.52-.85.52-.85.33-.35.75-.53.75-.53.43-.18.9-.18.9-.18.47 0 .9.18.9.18.42.17.75.52.75.52.32.34.52.84.52.84.19.5.19 1.14.19 1.14 0 .63-.2 1.13-.2 1.13-.2.5-.52.84-.52.84-.33.34-.75.52-.75.52-.43.18-.9.18-.9.18-.47 0-.9-.18-.9-.18-.43-.18-.75-.52-.75-.52-.33-.34-.52-.84-.52-.84-.2-.5-.2-1.13-.2-1.13zm0 0zm.89 0c0 .44.11.8.11.8.1.35.3.61.3.61.19.26.46.4.46.4.27.15.6.15.6.15.32 0 .59-.14.59-.14.27-.14.47-.4.47-.4.19-.25.3-.61.3-.61.1-.35.1-.8.1-.8 0-.44-.1-.8-.1-.8-.1-.36-.3-.62-.3-.62-.19-.26-.47-.4-.47-.4-.27-.14-.6-.14-.6-.14-.33 0-.6.14-.6.14-.27.14-.47.4-.47.4-.2.26-.3.62-.3.62-.11.36-.11.8-.11.8zm4.3 2.57zm.86-5.11h.72l.07.73h.03c.37-.37.78-.62.78-.62.41-.24.94-.24.94-.24.81 0 1.18.5 1.18.5.38.5.38 1.49.38 1.49V758h-.86v-3.12c0-.724-.23-1.045-.23-1.045-.23-.32-.73-.32-.73-.32-.4 0-.7.2-.7.2-.3.2-.69.588-.69.588V758h-.86v-5.105zm4.89 5.1zm1.23.86c0 .41.39.65.39.65.39.24 1.08.24 1.08.24.37 0 .66-.09.66-.09.3-.09.51-.23.51-.23.21-.15.32-.34.32-.34.11-.19.11-.39.11-.39 0-.36-.27-.49-.27-.49-.26-.13-.77-.13-.77-.13h-.88c-.15 0-.32-.01-.32-.01-.17-.01-.34-.07-.34-.07-.28.2-.4.42-.4.42-.13.22-.13.44-.13.44zm0 0zm-.76.11c0-.33.2-.62.2-.62.19-.3.54-.54.54-.54v-.04c-.19-.12-.32-.32-.32-.32-.13-.21-.13-.51-.13-.51 0-.33.18-.57.18-.57.17-.24.37-.38.37-.38v-.05c-.26-.21-.46-.56-.46-.56-.21-.35-.21-.82-.21-.82 0-.42.15-.76.15-.76.15-.33.41-.57.41-.57.26-.24.61-.36.61-.36.35-.12.74-.12.74-.12.21 0 .39.03.39.03.18.03.33.09.33.09h1.77v.66h-1.05c.18.18.3.45.3.45.12.27.12.6.12.6 0 .41-.15.74-.15.74-.15.33-.4.55-.4.55-.25.22-.59.35-.59.35-.34.12-.73.12-.73.12-.19 0-.39-.05-.39-.05-.2-.05-.38-.13-.38-.13-.14.11-.23.25-.23.25-.09.14-.09.35-.09.35 0 .24.19.4.19.4.19.16.71.16.71.16h.99c.89 0 1.34.29 1.34.29.44.28.44.92.44.92 0 .35-.18.67-.18.67-.18.32-.52.56-.52.56-.33.24-.81.38-.81.38-.47.14-1.07.14-1.07.14-.47 0-.86-.09-.86-.09-.39-.09-.66-.27-.66-.27-.28-.18-.43-.43-.43-.43-.15-.25-.15-.59-.15-.59zm0 0zm2.11-3.17c.22 0 .41-.09.41-.09.19-.08.34-.24.34-.24.15-.16.23-.38.23-.38.08-.22.08-.51.08-.51 0-.56-.32-.87-.32-.87-.32-.31-.77-.31-.77-.31-.45 0-.77.31-.77.31-.32.31-.32.88-.32.88 0 .29.08.51.08.51.08.23.24.39.24.39.15.16.34.24.34.24.19.09.41.09.41.09zm2.71 2.19zm.86-7.48h.86V757c0 .21.07.294.07.294.07.083.17.083.17.083h.07l.11-.02.11.65c-.09.04-.2.064-.2.064-.12.02-.3.02-.3.02-.5 0-.71-.29-.71-.29-.21-.29-.21-.86-.21-.86v-6.45zm1.81 7.48zm.51 1.41l.19.05.2.02c.44 0 .72-.31.72-.31.27-.31.43-.78.43-.78l.11-.38-2.05-5.11h.89l1.04 2.83c.11.34.24.71.24.71.13.37.24.73.24.73h.04c.11-.34.22-.72.22-.72.1-.38.21-.71.21-.71l.91-2.82h.84l-1.92 5.53c-.13.38-.3.7-.3.7-.17.33-.4.56-.4.56-.23.24-.52.38-.52.38-.29.14-.68.14-.68.14-.18 0-.33-.02-.33-.02-.15-.02-.28-.08-.28-.08l.17-.68zm6.52-1.41zm.61-1.32c0-.84.75-1.29.75-1.29.75-.45 2.39-.63 2.39-.63 0-.25-.05-.48-.05-.48-.05-.23-.17-.41-.17-.41-.12-.18-.32-.29-.32-.29-.2-.11-.52-.11-.52-.11-.45 0-.84.17-.84.17-.39.17-.69.38-.69.38l-.35-.6c.35-.23.87-.45.87-.45.51-.22 1.13-.22 1.13-.22.93 0 1.35.57 1.35.57.42.57.42 1.53.42 1.53V758h-.71l-.07-.61h-.02c-.37.306-.8.52-.8.52-.43.216-.9.216-.9.216-.65 0-1.08-.378-1.08-.378-.43-.378-.43-1.07-.43-1.07zm0 0zm.85-.07c0 .44.25.63.25.63.26.19.63.19.63.19.36 0 .7-.18.7-.18.33-.17.7-.51.7-.51v-1.42c-.64.09-1.08.2-1.08.2-.44.12-.71.28-.71.28-.26.15-.38.36-.38.36-.11.2-.11.44-.11.44zm3.92 1.38zm1.23.86c0 .41.39.65.39.65.39.24 1.09.24 1.09.24.36 0 .66-.09.66-.09.3-.09.51-.23.51-.23.21-.15.32-.33.32-.33.11-.19.11-.39.11-.39 0-.36-.27-.49-.27-.49-.27-.13-.77-.13-.77-.13h-.88c-.15 0-.32-.01-.32-.01-.18-.01-.34-.07-.34-.07-.28.2-.4.42-.4.42-.13.22-.13.44-.13.44zm0 0zm-.76.12c0-.33.2-.62.2-.62.2-.3.54-.54.54-.54v-.04c-.19-.12-.32-.32-.32-.32-.13-.21-.13-.51-.13-.51 0-.33.18-.57.18-.57.17-.24.37-.38.37-.38v-.04c-.25-.21-.46-.56-.46-.56-.21-.36-.21-.82-.21-.82 0-.42.15-.76.15-.76.15-.34.41-.58.41-.58.26-.24.61-.37.61-.37.35-.12.74-.12.74-.12.21 0 .39.03.39.03.18.03.33.09.33.09h1.77v.66h-1.05c.18.18.3.45.3.45.12.27.12.6.12.6 0 .41-.15.74-.15.74-.15.33-.4.55-.4.55-.25.22-.59.35-.59.35-.34.12-.73.12-.73.12-.19 0-.39-.05-.39-.05-.2-.05-.38-.13-.38-.13-.14.11-.23.25-.23.25-.1.14-.1.35-.1.35 0 .24.19.4.19.4.19.16.71.16.71.16h.99c.9 0 1.34.29 1.34.29.45.28.45.92.45.92 0 .35-.18.67-.18.67-.18.32-.51.56-.51.56-.34.24-.82.38-.82.38-.47.14-1.07.14-1.07.14-.47 0-.86-.09-.86-.09-.39-.09-.67-.27-.67-.27-.27-.18-.43-.43-.43-.43-.15-.25-.15-.59-.15-.59zm0 0zm2.11-3.18c.22 0 .41-.09.41-.09.19-.08.34-.24.34-.24.15-.16.23-.38.23-.38.08-.22.08-.51.08-.51 0-.56-.32-.87-.32-.87-.31-.31-.77-.31-.77-.31-.45 0-.77.31-.77.31-.32.31-.32.88-.32.88 0 .29.08.51.08.51.08.23.24.39.24.39.15.16.35.24.35.24.2.09.42.09.42.09zm2.72 2.19zm.86-5.11h.71l.07.93h.03c.26-.49.63-.77.63-.77.37-.29.81-.29.81-.29.3 0 .54.1.54.1l-.17.75-.23-.07c-.11-.02-.27-.02-.27-.02-.33 0-.68.26-.68.26-.35.26-.62.91-.62.91v3.3h-.86v-5.11zm2.67 5.11zm.48-2.54c0-.63.19-1.13.19-1.13.19-.5.51-.85.51-.85.32-.35.73-.53.73-.53.41-.19.85-.19.85-.19.49 0 .87.16.87.16.39.17.64.48.64.48.26.31.4.75.4.75.14.44.14.98.14.98 0 .28-.03.47-.03.47h-3.45c.05.83.51 1.31.51 1.31.46.48 1.19.48 1.19.48.37 0 .68-.11.68-.11.31-.11.59-.29.59-.29l.31.56c-.34.21-.75.37-.75.37-.41.16-.94.16-.94.16-.51 0-.96-.19-.96-.19-.45-.19-.78-.53-.78-.53-.33-.34-.52-.84-.52-.84-.19-.5-.19-1.13-.19-1.13zm0 0zm3.57-.39c0-.79-.33-1.2-.33-1.2-.33-.42-.93-.42-.93-.42-.28 0-.52.11-.52.11-.25.11-.45.32-.45.32-.2.2-.33.5-.33.5-.13.3-.18.69-.18.69h2.73zm1.16 2.93zm.48-2.54c0-.63.19-1.13.19-1.13.19-.5.51-.85.51-.85.32-.35.73-.53.73-.53.41-.19.85-.19.85-.19.48 0 .86.16.86.16.39.17.64.48.64.48.26.31.4.75.4.75.14.44.14.98.14.98 0 .28-.03.47-.03.47h-3.44c.05.83.51 1.31.51 1.31.46.48 1.19.48 1.19.48.37 0 .68-.11.68-.11.31-.11.59-.29.59-.29l.31.56c-.34.21-.75.37-.75.37-.41.16-.93.16-.93.16-.52 0-.96-.19-.96-.19-.45-.19-.78-.53-.78-.53-.33-.34-.52-.835-.52-.835-.19-.5-.19-1.13-.19-1.13zm0 0zm3.57-.39c0-.79-.33-1.2-.33-1.2-.33-.42-.93-.42-.93-.42-.28 0-.52.11-.52.11-.25.11-.45.32-.45.32-.2.2-.33.5-.33.5-.13.3-.18.69-.18.69h2.73zm1.16 2.93zm.68-4.32c0-.31.18-.49.18-.49.18-.18.44-.18.44-.18.25 0 .43.19.43.19.19.19.19.49.19.49 0 .28-.18.47-.18.47-.18.19-.43.19-.43.19-.26 0-.44-.18-.44-.18-.18-.18-.18-.46-.18-.46zm0 0zm0 3.79c0-.31.18-.49.18-.49.18-.18.44-.18.44-.18.25 0 .43.18.43.18.19.18.19.49.19.49 0 .28-.18.46-.18.46-.18.18-.43.18-.43.18-.26 0-.44-.184-.44-.184-.18-.18-.18-.465-.18-.465zm4.05.52zm.83-.72h1.53v-4.93h-1.22v-.56c.46-.09.8-.21.8-.21.34-.12.61-.29.61-.29h.66v5.99h1.38v.72h-3.78v-.72zm4.39.71zm.83-.71h1.53v-4.93h-1.22v-.56c.46-.09.8-.21.8-.21.34-.12.61-.29.61-.29h.66v5.99h1.39v.72h-3.78v-.72zm4.39.715zm1.21-1.79c0 .28.11.516.11.516.11.23.3.4.3.4.19.17.45.27.45.27.26.09.57.09.57.09.59 0 .95-.33.95-.33.36-.33.36-.85.36-.85 0-.33-.15-.56-.15-.56-.14-.23-.4-.41-.4-.41-.25-.18-.58-.32-.58-.32-.33-.15-.68-.29-.68-.29-.4.27-.67.63-.67.63-.27.36-.27.82-.27.82zm0 0zm1.89-1.86c.33-.3.52-.64.52-.64.18-.335.18-.7.18-.7 0-.506-.31-.848-.31-.848-.31-.34-.86-.34-.86-.34-.48 0-.78.29-.78.29-.31.296-.31.79-.31.79 0 .3.13.52.13.52.13.215.34.38.34.38.22.17.5.3.5.3.28.13.58.25.58.25zm0 0zm-2.67 1.945c0-.322.11-.6.11-.6.11-.28.28-.506.28-.506.17-.23.4-.4.4-.4.22-.18.46-.3.46-.3v-.04c-.36-.27-.65-.64-.65-.64-.28-.37-.28-.91-.28-.91 0-.39.15-.71.15-.71.15-.31.4-.54.4-.54.26-.22.6-.35.6-.35.35-.12.76-.12.76-.12.44 0 .79.13.79.13.35.14.6.37.6.37.25.24.38.57.38.57.13.33.13.72.13.72 0 .26-.08.51-.08.51-.09.24-.22.45-.22.45-.14.21-.3.38-.3.38-.16.17-.32.28-.32.28v.04c.22.13.43.29.43.29.21.16.37.37.37.37.16.21.26.47.26.47.1.27.1.6.1.6 0 .38-.16.71-.16.71-.15.33-.44.57-.44.57-.28.25-.68.38-.68.38-.4.14-.88.14-.88.14-.47 0-.88-.14-.88-.14-.4-.13-.69-.38-.69-.38-.29-.24-.45-.58-.45-.58-.17-.33-.17-.73-.17-.73z"/></svg>