<svg xmlns="http://www.w3.org/2000/svg" stroke="#000" viewBox="0 0 1024 768" font-size="1"><path fill="#FFF" stroke="none" d="M0 0v768h1024V0z"/><path stroke="none" d="M308.453 14.102zm1.186-10.04h2.26V14.1h-2.27V4.062zm6.65 10.04zm.72-2.126c0-1.2 1.01-1.88 1.01-1.88 1.01-.676 3.28-.907 3.28-.907-.03-.51-.31-.81-.31-.81-.28-.3-.9-.3-.9-.3-.5 0-.99.18-.99.18-.49.18-1.05.51-1.05.51l-.8-1.5c.74-.45 1.54-.73 1.54-.73.81-.28 1.72-.28 1.72-.28 1.48 0 2.25.84 2.25.84.78.84.78 2.61.78 2.61v4.38h-1.84l-.17-.79h-.05c-.49.43-1.04.7-1.04.7-.55.27-1.2.27-1.2.27-.53 0-.94-.18-.94-.18-.42-.18-.71-.5-.71-.5-.3-.32-.46-.73-.46-.73-.16-.42-.16-.91-.16-.91zm0 0zm2.15-.17c0 .37.24.548.24.548.24.177.64.177.64.177.4 0 .67-.17.67-.17.27-.16.58-.47.58-.47v-1.34c-1.22.17-1.68.5-1.68.5-.46.33-.46.77-.46.77zm5.34 2.296zm1-7.64h1.85l.15.987h.06c.47-.48 1.01-.83 1.01-.83.54-.35 1.29-.35 1.29-.35.81 0 1.31.33 1.31.33.5.33.79.95.79.95.51-.53 1.07-.9 1.07-.9.56-.38 1.33-.38 1.33-.38 1.23 0 1.81.82 1.81.82.58.82.58 2.25.58 2.25v4.75h-2.26V9.65c0-.832-.23-1.14-.23-1.14-.23-.31-.72-.31-.72-.31-.57 0-1.31.74-1.31.74v5.16H330V9.65c0-.832-.22-1.14-.22-1.14-.226-.31-.718-.31-.718-.31-.585 0-1.293.74-1.293.74v5.16h-2.27V6.46zm15.4 7.64zm1.34-2.295c.52.4 1 .6 1 .6.47.2.97.2.97.2.51 0 .74-.17.74-.17.23-.168.23-.476.23-.476 0-.18-.13-.33-.13-.33-.13-.14-.36-.27-.36-.27-.23-.12-.5-.22-.5-.22-.28-.1-.57-.22-.57-.22-.36-.14-.71-.32-.71-.32-.36-.18-.65-.45-.65-.45-.3-.27-.48-.63-.48-.63-.19-.36-.19-.84-.19-.84 0-.52.21-.97.21-.97.2-.44.59-.75.59-.75.38-.3.92-.48.92-.48.54-.17 1.2-.17 1.2-.17.88 0 1.54.3 1.54.3.66.3 1.15.67 1.15.67l-1 1.36c-.42-.31-.82-.48-.82-.48-.4-.17-.8-.17-.8-.17-.87 0-.87.61-.87.61 0 .19.12.32.12.32.12.13.33.24.33.24.21.1.48.2.48.2l.56.21c.37.14.73.32.73.32.36.18.66.44.66.44.3.26.48.64.48.64.18.38.18.9.18.9 0 .53-.2.97-.2.97-.2.45-.6.78-.6.78-.4.33-.99.53-.99.53-.59.19-1.36.19-1.36.19-.75 0-1.55-.29-1.55-.29-.8-.29-1.38-.77-1.38-.77zm5.48 2.295zm.72-2.126c0-1.2 1.01-1.88 1.01-1.88 1.01-.676 3.28-.907 3.28-.907-.03-.51-.31-.81-.31-.81-.28-.3-.89-.3-.89-.3-.5 0-.99.18-.99.18-.5.18-1.05.51-1.05.51l-.8-1.5c.74-.45 1.54-.73 1.54-.73.81-.28 1.71-.28 1.71-.28 1.48 0 2.26.84 2.26.84.78.84.78 2.61.78 2.61v4.38h-1.85l-.17-.79h-.05c-.5.43-1.04.7-1.04.7-.55.27-1.2.27-1.2.27-.52 0-.94-.18-.94-.18-.41-.18-.7-.5-.7-.5-.3-.32-.46-.73-.46-.73-.16-.42-.16-.91-.16-.91zm0 0zm2.15-.17c0 .37.23.548.23.548.24.177.64.177.64.177.4 0 .68-.17.68-.17.28-.16.58-.47.58-.47v-1.34c-1.22.17-1.68.5-1.68.5-.46.33-.46.77-.46.77zm5.34 2.296zm1.31-5.868h-1.05v-1.68l1.17-.09.26-2.034h1.88v2.033h1.83v1.77h-1.83V11.3c0 .646.27.93.27.93.27.285.71.285.71.285.18 0 .37-.046.37-.046.19-.05.34-.11.34-.11l.35 1.65c-.31.09-.73.18-.73.18-.42.09-.97.09-.97.09-.71 0-1.21-.22-1.21-.22-.5-.22-.82-.6-.82-.6-.31-.39-.46-.94-.46-.94-.15-.55-.15-1.21-.15-1.21V8.23zm4.59 5.868zm2.12-8.763c-.57 0-.94-.34-.94-.34-.37-.33-.37-.86-.37-.86 0-.53.37-.85.37-.85.37-.33.94-.33.94-.33.58 0 .95.32.95.32.36.32.36.84.36.84 0 .52-.36.85-.36.85-.37.33-.95.33-.95.33zm0 0zm-1.13 1.12h2.26v7.64h-2.27V6.46zm3.25 7.64zm1.34-2.3c.52.4 1 .6 1 .6.48.2.97.2.97.2.51 0 .74-.17.74-.17.23-.17.23-.48.23-.48 0-.19-.13-.33-.13-.33-.13-.15-.36-.27-.36-.27-.22-.13-.5-.23-.5-.23-.28-.1-.57-.23-.57-.23-.35-.14-.71-.33-.71-.33-.35-.19-.64-.46-.64-.46-.3-.27-.48-.63-.48-.63-.19-.37-.19-.84-.19-.84 0-.53.21-.97.21-.97.21-.45.59-.76.59-.76.38-.31.92-.48.92-.48.54-.18 1.2-.18 1.2-.18.88 0 1.54.3 1.54.3.66.3 1.15.67 1.15.67l-1.01 1.36c-.41-.31-.81-.48-.81-.48-.41-.17-.81-.17-.81-.17-.87 0-.87.6-.87.6 0 .18.13.31.13.31.12.13.33.24.33.24.21.1.48.2.48.2l.56.21c.37.14.73.32.73.32.36.18.66.44.66.44.3.26.49.64.49.64.19.37.19.9.19.9 0 .52-.2.97-.2.97-.2.44-.6.78-.6.78-.4.33-.98.52-.98.52-.59.19-1.36.19-1.36.19-.75 0-1.55-.29-1.55-.29-.8-.3-1.38-.77-1.38-.77zm5.48 2.29zm5.31-9.04c-.43-.16-.79-.16-.79-.16-.42 0-.65.25-.65.25-.23.25-.23.84-.23.84v.46h1.37v1.78h-1.37v5.87h-2.26V8.23h-1.01V6.55l1.02-.076v-.42c0-.6.14-1.14.14-1.14.14-.54.48-.94.48-.94.34-.4.88-.63.88-.63.54-.24 1.31-.24 1.31-.24.47 0 .87.097.87.097.39.1.65.19.65.19zm-.06 9.04zm2.12-8.76c-.57 0-.94-.33-.94-.33-.37-.33-.37-.86-.37-.86 0-.53.37-.85.37-.85.37-.33.94-.33.94-.33.58 0 .94.32.94.32.36.32.36.85.36.85 0 .52-.37.85-.37.85-.36.33-.95.33-.95.33zm0 0zm-1.13 1.12h2.26v7.64h-2.26V6.46zm3.25 7.64zm.55-3.82c0-.93.31-1.67.31-1.67.31-.75.81-1.26.81-1.26.5-.52 1.15-.8 1.15-.8.64-.28 1.34-.28 1.34-.28.81 0 1.42.28 1.42.28.6.27 1.01.77 1.01.77.41.49.61 1.16.61 1.16.2.67.2 1.45.2 1.45 0 .3-.03.56-.03.56-.03.25-.06.39-.06.39h-4.57c.15.88.68 1.27.68 1.27.53.39 1.3.39 1.3.39.82 0 1.65-.51 1.65-.51l.76 1.37c-.59.4-1.3.63-1.3.63-.72.23-1.41.23-1.41.23-.82 0-1.53-.27-1.53-.27-.71-.27-1.23-.79-1.23-.79-.53-.52-.82-1.26-.82-1.26-.3-.74-.3-1.69-.3-1.69zm0 0zm4.93-.79c0-.66-.29-1.08-.29-1.08-.3-.42-.99-.42-.99-.42-.54 0-.95.36-.95.36-.41.36-.54 1.13-.54 1.13h2.76zm2.49 4.6zm.6-3.82c0-.94.27-1.68.27-1.68.27-.74.71-1.26.71-1.26.44-.52 1.02-.8 1.02-.8.58-.28 1.18-.28 1.18-.28.64 0 1.06.21 1.06.21.41.21.81.58.81.58l-.09-1.17V3.3h2.27v10.8h-1.85l-.16-.754h-.06c-.4.4-.94.67-.94.67-.54.27-1.09.27-1.09.27-.71 0-1.29-.278-1.29-.278-.58-.278-.99-.794-.99-.794-.41-.516-.63-1.255-.63-1.255-.23-.74-.23-1.68-.23-1.68zm0 0zm2.33-.03c0 1.14.36 1.66.36 1.66.36.52 1.02.52 1.02.52.37 0 .67-.16.67-.16.3-.16.57-.54.57-.54v-3.1c-.31-.28-.63-.39-.63-.39-.32-.11-.63-.11-.63-.11-.54 0-.95.51-.95.51-.42.51-.42 1.61-.42 1.61zm9.1 3.85zm.37-7.64H405l.76 3.56c.09.57.17 1.12.17 1.12.08.55.17 1.14.17 1.14h.06c.11-.59.21-1.16.21-1.16.1-.57.24-1.11.24-1.11l.846-3.54h1.956l.86 3.54c.14.57.25 1.12.25 1.12l.23 1.14h.07c.11-.59.18-1.14.18-1.14.07-.56.18-1.13.18-1.13l.73-3.54h2.097l-1.84 7.64h-2.65l-.69-3.05c-.12-.54-.22-1.08-.22-1.08l-.2-1.16h-.06c-.11.61-.2 1.15-.2 1.15-.09.54-.19 1.07-.19 1.07l-.68 3.05h-2.58zm11.58 7.64zm2.12-8.77c-.57 0-.94-.33-.94-.33-.37-.33-.37-.86-.37-.86 0-.53.37-.85.37-.85.37-.33.94-.33.94-.33.58 0 .94.32.94.32.36.33.36.85.36.85 0 .52-.36.85-.36.85-.36.33-.95.33-.95.33zm0 0zm-1.12 1.12h2.26v7.64h-2.26V6.46zm3.25 7.64zm1.31-5.87h-1.05V6.55l1.17-.093.26-2.033h1.88V6.46H424v1.77h-1.83v3.07c0 .646.27.93.27.93.27.285.72.285.72.285.185 0 .38-.046.38-.046.19-.05.344-.11.344-.11l.353 1.65c-.31.09-.724.18-.724.18-.415.09-.97.09-.97.09-.71 0-1.21-.22-1.21-.22-.5-.22-.815-.6-.815-.6-.32-.39-.46-.94-.46-.94-.15-.55-.15-1.21-.15-1.21V8.23zm4.59 5.87zm1.02-10.78h2.26v2.65l-.11 1.37c.43-.39 1-.72 1-.72.57-.33 1.36-.33 1.36-.33 1.25 0 1.81.81 1.81.81.57.81.57 2.26.57 2.26v4.74h-2.27V9.64c0-.832-.22-1.14-.22-1.14-.22-.31-.72-.31-.72-.31-.43 0-.74.195-.74.195-.31.19-.68.544-.68.544v5.16h-2.26V3.3zm10.99 10.8zm1.19-10.04h2.26v3.87h3.47V4.06h2.28v10.042h-2.28v-4.19h-3.47v4.19h-2.26V4.062zm9.19 10.04zm.73-2.13c0-1.2 1.02-1.88 1.02-1.88 1.02-.68 3.28-.91 3.28-.91-.03-.51-.3-.81-.3-.81-.28-.3-.89-.3-.89-.3-.5 0-.99.18-.99.18-.49.19-1.05.51-1.05.51l-.8-1.49c.74-.44 1.54-.72 1.54-.72.81-.27 1.72-.27 1.72-.27 1.48 0 2.26.84 2.26.84.78.84.78 2.61.78 2.61v4.37h-1.85l-.17-.78h-.05c-.49.43-1.04.7-1.04.7-.54.27-1.19.27-1.19.27-.52 0-.94-.18-.94-.18-.41-.18-.71-.5-.71-.5-.29-.32-.45-.73-.45-.73-.16-.42-.16-.91-.16-.91zm0 0zm2.16-.17c0 .37.24.54.24.54.24.18.64.18.64.18.4 0 .68-.17.68-.17.27-.17.58-.47.58-.47v-1.34c-1.21.17-1.68.5-1.68.5-.46.33-.46.77-.46.77zm5.35 2.29zm1.34-2.3c.52.4 1 .6 1 .6.48.2.97.2.97.2.51 0 .74-.17.74-.17.23-.17.23-.48.23-.48 0-.19-.13-.33-.13-.33-.13-.15-.35-.27-.35-.27-.23-.13-.5-.23-.5-.23-.28-.1-.57-.23-.57-.23-.36-.14-.71-.33-.71-.33-.36-.19-.65-.46-.65-.46-.3-.27-.48-.63-.48-.63-.19-.37-.19-.84-.19-.84 0-.53.2-.97.2-.97.21-.45.6-.76.6-.76.38-.31.92-.49.92-.49.54-.18 1.2-.18 1.2-.18.88 0 1.54.3 1.54.3.66.3 1.15.67 1.15.67l-1.01 1.38c-.42-.31-.82-.48-.82-.48-.4-.17-.8-.17-.8-.17-.86 0-.86.6-.86.6 0 .18.12.31.12.31.12.13.33.24.33.24.21.1.48.2.48.2l.56.2c.37.14.73.32.73.32.36.17.66.43.66.43.3.26.48.64.48.64.18.38.18.9.18.9 0 .52-.2.97-.2.97-.2.45-.6.78-.6.78-.4.33-.99.52-.99.52-.59.2-1.36.2-1.36.2-.76 0-1.55-.29-1.55-.29-.8-.29-1.38-.77-1.38-.77zm5.48 2.29zm1-10.8h2.2v6.19h.06l2.42-3.04h2.46l-2.68 3.15 2.88 4.49h-2.45l-1.72-2.97-.97 1.09v1.88h-2.21V3.3zm7.01 10.79zm.55-3.82c0-.93.3-1.67.3-1.67.31-.75.81-1.27.81-1.27.5-.52 1.15-.8 1.15-.8.65-.28 1.34-.28 1.34-.28.82 0 1.42.28 1.42.28.61.28 1.01.77 1.01.77.41.49.61 1.16.61 1.16.2.67.2 1.46.2 1.46 0 .31-.03.56-.03.56-.03.25-.07.39-.07.39h-4.57c.15.88.69 1.27.69 1.27.53.39 1.3.39 1.3.39.82 0 1.65-.51 1.65-.51l.76 1.37c-.59.4-1.3.63-1.3.63-.72.23-1.41.23-1.41.23-.82 0-1.53-.27-1.53-.27-.7-.27-1.23-.79-1.23-.79-.52-.52-.81-1.26-.81-1.26-.3-.74-.3-1.7-.3-1.7zm0 0zm4.92-.79c0-.66-.29-1.08-.29-1.08-.29-.42-.98-.42-.98-.42-.54 0-.95.36-.95.36-.41.36-.53 1.13-.53 1.13h2.75zm2.49 4.61zm1-10.8h2.27v8.52c0 .35.13.49.13.49.13.14.27.14.27.14h.13l.15-.04.28 1.68c-.19.08-.47.13-.47.13-.29.05-.67.05-.67.05-.59 0-.99-.18-.99-.18-.4-.18-.64-.52-.64-.52-.24-.33-.35-.8-.35-.8-.11-.47-.11-1.06-.11-1.06V3.3zm3.4 10.79zm1-10.8h2.26v8.52c0 .35.13.49.13.49.13.14.27.14.27.14h.13l.15-.04.27 1.68c-.18.08-.47.13-.47.13-.28.06-.67.06-.67.06-.58 0-.98-.19-.98-.19-.41-.19-.64-.52-.64-.52-.24-.33-.35-.8-.35-.8-.11-.47-.11-1.06-.11-1.06V3.3zm3.41 10.81zM488 5.55l-.077-2.05h2.28l-.08 2.05-.44 3.067h-1.23zm3.373 8.52zm1.34-2.3c.52.4 1 .6 1 .6.48.2.97.2.97.2.51 0 .74-.17.74-.17.23-.17.23-.48.23-.48 0-.185-.13-.33-.13-.33-.13-.147-.355-.27-.355-.27-.23-.124-.5-.224-.5-.224-.28-.1-.57-.224-.57-.224-.36-.14-.71-.32-.71-.32-.36-.18-.65-.45-.65-.45-.3-.27-.48-.63-.48-.63-.19-.363-.19-.84-.19-.84 0-.53.2-.97.2-.97.21-.45.59-.76.59-.76.39-.3.93-.48.93-.48.54-.18 1.2-.18 1.2-.18.88 0 1.54.3 1.54.3.66.3 1.15.67 1.15.67l-1 1.38c-.42-.31-.82-.48-.82-.48-.4-.17-.8-.17-.8-.17-.86 0-.86.6-.86.6 0 .184.122.315.122.315.125.13.33.24.33.24.21.11.48.21.48.21l.56.2c.37.14.734.31.734.31.36.175.66.44.66.44.3.26.48.64.48.64.19.38.19.9.19.9 0 .52-.2.97-.2.97-.2.45-.6.78-.6.78-.4.33-.99.52-.99.52-.58.2-1.35.2-1.35.2-.75 0-1.543-.29-1.543-.29-.79-.29-1.37-.77-1.37-.77zm8.684 2.29zm1-10.79h2.266v2.65l-.07 1.17c.44-.4.96-.624.96-.624.513-.226 1.05-.226 1.05-.226.696 0 1.25.28 1.25.28.555.27.948.77.948.77.39.5.6 1.22.6 1.22.21.72.21 1.59.21 1.59 0 .99-.27 1.76-.27 1.76-.27.77-.72 1.3-.72 1.3-.45.54-1.03.81-1.03.81-.58.28-1.19.28-1.19.28-.51 0-1.02-.25-1.02-.25-.51-.24-.96-.74-.96-.74h-.06l-.18.8h-1.77V3.31zm0 0zm2.266 8.64c.3.277.61.385.61.385.31.105.6.105.6.105.58 0 1-.53 1-.53.41-.54.41-1.72.41-1.72 0-2.07-1.325-2.07-1.325-2.07-.68 0-1.31.7-1.31.7v3.13zm5.56 2.156zm.92-7.64h2.26v4.45c0 .83.23 1.14.23 1.14.23.31.72.31.72.31.43 0 .724-.2.724-.2.29-.2.63-.646.63-.646V6.46h2.262v7.64h-1.85l-.17-1.063h-.05c-.49.584-1.05.915-1.05.915-.56.33-1.35.33-1.35.33-1.25 0-1.81-.815-1.81-.815-.56-.816-.56-2.264-.56-2.264v-4.74zm7.82 7.64zm2.12-8.765c-.57 0-.94-.33-.94-.33-.37-.33-.37-.85-.37-.85 0-.52.37-.85.37-.85.37-.32.94-.32.94-.32.585 0 .947.32.947.32.36.32.36.85.36.85 0 .52-.36.85-.36.85-.36.33-.95.33-.95.33zm0 0zm-1.13 1.12h2.268v7.64h-2.26v-7.6zm3.25 7.64zm1-10.8h2.27v8.52c0 .36.13.5.13.5.136.14.27.14.27.14h.13l.15-.03.28 1.68c-.19.08-.47.13-.47.13-.29.05-.67.05-.67.05-.59 0-.99-.19-.99-.19-.4-.18-.64-.51-.64-.51-.238-.33-.346-.8-.346-.8-.11-.47-.11-1.06-.11-1.06V3.3zm3.408 10.8zm.6-3.82c0-.94.27-1.68.27-1.68.27-.74.71-1.25.71-1.25.44-.51 1.02-.79 1.02-.79.58-.27 1.18-.27 1.18-.27.65 0 1.06.22 1.06.22.42.22.82.58.82.58l-.09-1.17V3.3h2.27v10.796h-1.85l-.15-.754h-.07c-.4.4-.94.67-.94.67-.54.27-1.09.27-1.09.27-.7 0-1.28-.278-1.28-.278-.58-.278-.98-.794-.98-.794-.41-.516-.64-1.255-.64-1.255-.22-.74-.22-1.68-.22-1.68zm0 0zm2.33-.03c0 1.14.36 1.66.36 1.66.37.52 1.03.52 1.03.52.37 0 .67-.15.67-.15.3-.15.58-.54.58-.54V8.6c-.3-.28-.63-.386-.63-.386-.32-.11-.63-.11-.63-.11-.54 0-.95.52-.95.52-.42.52-.42 1.61-.42 1.61zm9.1 3.85zm1.31-5.87h-1.04V6.55l1.17-.09.27-2.034h1.88V6.46h1.83v1.77h-1.83v3.07c0 .646.27.93.27.93.27.285.72.285.72.285.19 0 .38-.046.38-.046.19-.05.35-.11.35-.11l.35 1.65c-.31.09-.72.18-.72.18-.41.09-.97.09-.97.09-.71 0-1.21-.22-1.21-.22-.5-.22-.81-.6-.81-.6-.32-.39-.47-.94-.47-.94-.14-.55-.14-1.21-.14-1.21V8.23zm4.44 5.87zm.55-3.82c0-.95.31-1.7.31-1.7.31-.74.83-1.25.83-1.25.52-.51 1.2-.78 1.2-.78.68-.27 1.4-.27 1.4-.27.72 0 1.39.27 1.39.27.67.27 1.19.78 1.19.78.52.51.83 1.26.83 1.26.31.75.31 1.7.31 1.7 0 .96-.31 1.7-.31 1.7-.3.75-.82 1.26-.82 1.26-.52.51-1.19.78-1.19.78-.67.27-1.39.27-1.39.27-.73 0-1.4-.27-1.4-.27-.68-.27-1.19-.78-1.19-.78-.51-.51-.82-1.26-.82-1.26-.31-.75-.31-1.71-.31-1.71zm0 0zm2.33 0c0 1 .35 1.59.35 1.59.35.58 1.06.58 1.06.58.7 0 1.05-.59 1.05-.59.35-.58.35-1.58.35-1.58 0-1-.35-1.59-.35-1.59-.35-.59-1.04-.59-1.04-.59-.71 0-1.05.59-1.05.59-.35.58-.35 1.58-.35 1.58zm5.67 3.82zm.56-3.82c0-.95.31-1.7.31-1.7.31-.74.83-1.25.83-1.25.52-.51 1.19-.78 1.19-.78.68-.27 1.4-.27 1.4-.27.73 0 1.4.27 1.4.27.67.27 1.19.78 1.19.78.52.51.83 1.26.83 1.26.3.75.3 1.7.3 1.7 0 .96-.31 1.7-.31 1.7-.31.75-.83 1.26-.83 1.26-.51.51-1.18.78-1.18.78-.67.27-1.39.27-1.39.27-.73 0-1.4-.27-1.4-.27-.68-.27-1.2-.78-1.2-.78-.51-.51-.82-1.26-.82-1.26-.31-.75-.31-1.71-.31-1.71zm0 0zm2.33 0c0 1 .35 1.59.35 1.59.35.58 1.06.58 1.06.58.69 0 1.05-.59 1.05-.59.36-.58.36-1.58.36-1.58 0-1-.35-1.59-.35-1.59-.35-.59-1.05-.59-1.05-.59-.71 0-1.05.59-1.05.59-.35.58-.35 1.58-.35 1.58zm5.67 3.82zm1-10.79h2.27v8.52c0 .36.13.5.13.5.13.14.27.14.27.14h.13l.15-.03.28 1.68c-.19.08-.47.13-.47.13-.29.06-.67.06-.67.06-.59 0-.99-.19-.99-.19-.4-.19-.64-.52-.64-.52-.24-.33-.35-.8-.35-.8-.11-.47-.11-1.06-.11-1.06V3.3zm3.41 10.8zm1.34-2.29c.52.4 1 .6 1 .6.48.2.97.2.97.2.51 0 .74-.17.74-.17.23-.17.23-.48.23-.48 0-.19-.13-.33-.13-.33-.13-.15-.35-.27-.35-.27-.22-.13-.5-.23-.5-.23-.28-.1-.57-.22-.57-.22-.35-.14-.71-.32-.71-.32-.35-.18-.64-.45-.64-.45-.29-.27-.48-.63-.48-.63-.18-.36-.18-.84-.18-.84 0-.52.21-.97.21-.97.21-.45.59-.76.59-.76.39-.3.93-.48.93-.48.54-.17 1.2-.17 1.2-.17.88 0 1.54.3 1.54.3.67.3 1.16.67 1.16.67l-1.01 1.36c-.42-.31-.82-.48-.82-.48-.4-.17-.8-.17-.8-.17-.87 0-.87.6-.87.6 0 .18.13.32.13.32.12.13.33.24.33.24.21.11.48.21.48.21l.57.21c.37.14.73.32.73.32.36.18.66.44.66.44.3.26.49.64.49.64.19.38.19.9.19.9 0 .52-.2.97-.2.97-.2.45-.6.78-.6.78-.4.33-.99.52-.99.52-.59.19-1.36.19-1.36.19-.76 0-1.55-.29-1.55-.29-.79-.29-1.38-.77-1.38-.77zm8.69 2.29zm3.14 2.75c-.97-1.58-1.5-3.29-1.5-3.29-.53-1.71-.53-3.74-.53-3.74 0-2.03.53-3.74.53-3.74.54-1.71 1.51-3.29 1.51-3.29l1.42.59c-.85 1.51-1.23 3.16-1.23 3.16-.38 1.64-.38 3.29-.38 3.29 0 1.65.39 3.29.39 3.29.38 1.65 1.23 3.16 1.23 3.16l-1.42.59zm2.16-2.75zm1-10.79h2.27v8.52c0 .36.13.5.13.5.13.14.27.14.27.14h.13l.14-.03.28 1.68c-.19.07-.47.13-.47.13-.29.05-.67.05-.67.05-.59 0-.99-.18-.99-.18-.4-.18-.64-.51-.64-.51-.24-.33-.35-.8-.35-.8-.1-.47-.1-1.06-.1-1.06V3.3zm3.4 10.8zm2.13-8.76c-.57 0-.94-.33-.94-.33-.37-.33-.37-.85-.37-.85 0-.52.37-.84.37-.84.37-.32.94-.32.94-.32.59 0 .95.32.95.32.36.32.36.85.36.85 0 .52-.36.86-.36.86-.36.33-.94.33-.94.33zm0 0zm-1.13 1.13h2.27v7.64h-2.26V6.45zm3.25 7.64zm1-10.79h2.2v6.19h.06l2.42-3.03h2.46l-2.66 3.15 2.88 4.5h-2.45l-1.72-2.97-.97 1.1v1.88h-2.2V3.31zm7.01 10.8zm.55-3.82c0-.92.31-1.67.31-1.67.31-.75.81-1.26.81-1.26.5-.52 1.15-.8 1.15-.8.64-.28 1.34-.28 1.34-.28.81 0 1.42.28 1.42.28.61.28 1.01.77 1.01.77.41.49.61 1.16.61 1.16.2.67.2 1.46.2 1.46 0 .31-.03.56-.03.56-.03.26-.06.39-.06.39h-4.57c.16.88.69 1.27.69 1.27.53.4 1.3.4 1.3.4.82 0 1.65-.51 1.65-.51l.76 1.37c-.59.4-1.3.63-1.3.63-.71.23-1.41.23-1.41.23-.81 0-1.52-.27-1.52-.27-.71-.27-1.23-.78-1.23-.78-.52-.52-.82-1.26-.82-1.26-.29-.74-.29-1.69-.29-1.69zm0 0zm4.93-.78c0-.66-.29-1.08-.29-1.08-.29-.42-.99-.42-.99-.42-.54 0-.95.36-.95.36-.41.36-.53 1.13-.53 1.13h2.76zm5.7 4.61zm.71-4.96c0-1.24.39-2.22.39-2.22.38-.97 1.04-1.65 1.04-1.65.65-.68 1.52-1.03 1.52-1.03.87-.35 1.84-.35 1.84-.35.94 0 1.7.39 1.7.39.76.39 1.27.92 1.27.92l-1.25 1.4c-.38-.35-.78-.55-.78-.55-.39-.2-.91-.2-.91-.2-.52 0-.98.22-.98.22-.45.22-.79.64-.79.64-.34.42-.53 1.02-.53 1.02-.19.6-.19 1.36-.19 1.36 0 1.55.66 2.41.66 2.41.67.85 1.77.85 1.77.85.62 0 1.08-.25 1.08-.25.46-.24.83-.64.83-.64l1.25 1.37c-.63.74-1.44 1.11-1.44 1.11-.81.37-1.74.37-1.74.37-.97 0-1.83-.33-1.83-.33-.86-.33-1.51-.98-1.51-.98-.64-.65-1.01-1.61-1.01-1.61-.37-.96-.37-2.22-.37-2.22zm8.26 4.96zm.72-2.12c0-1.2 1.01-1.88 1.01-1.88 1.02-.67 3.28-.9 3.28-.9-.03-.51-.31-.81-.31-.81-.28-.3-.89-.3-.89-.3-.49 0-.98.19-.98.19-.5.18-1.05.5-1.05.5l-.8-1.49c.74-.44 1.55-.72 1.55-.72.81-.28 1.72-.28 1.72-.28 1.48 0 2.26.84 2.26.84.78.84.78 2.61.78 2.61v4.37h-1.85l-.17-.79h-.05c-.5.43-1.04.7-1.04.7-.55.27-1.2.27-1.2.27-.52 0-.94-.17-.94-.17-.41-.18-.7-.5-.7-.5-.29-.32-.45-.74-.45-.74-.16-.42-.16-.91-.16-.91zm0 0zm2.15-.17c0 .37.24.55.24.55.24.18.64.18.64.18.4 0 .68-.17.68-.17.28-.16.58-.47.58-.47v-1.34c-1.21.17-1.67.5-1.67.5-.46.32-.46.77-.46.77zm5.34 2.3zm1-10.8h2.27v2.65l-.06 1.17c.45-.4.96-.62.96-.62.52-.22 1.06-.22 1.06-.22.7 0 1.25.28 1.25.28.56.28.95.78.95.78.4.5.6 1.22.6 1.22.21.71.21 1.59.21 1.59 0 .98-.27 1.75-.27 1.75-.27.77-.72 1.3-.72 1.3-.46.53-1.04.81-1.04.81-.58.28-1.19.28-1.19.28-.51 0-1.02-.24-1.02-.24-.51-.25-.96-.74-.96-.74h-.06l-.18.8h-1.77V3.31zm0 0zm2.27 8.64c.31.28.62.39.62.39.31.11.6.11.6.11.59 0 1-.53 1-.53.42-.53.42-1.72.42-1.72 0-2.06-1.32-2.06-1.32-2.06-.67 0-1.3.69-1.3.69v3.13zm5.39 2.16zm.72-2.13c0-1.2 1.02-1.88 1.02-1.88 1.02-.67 3.28-.9 3.28-.9-.03-.51-.3-.81-.3-.81-.28-.3-.89-.3-.89-.3-.49 0-.98.19-.98.19-.49.19-1.04.51-1.04.51l-.8-1.49c.74-.45 1.54-.72 1.54-.72.81-.27 1.72-.27 1.72-.27 1.48 0 2.26.84 2.26.84.78.84.78 2.61.78 2.61v4.37h-1.85l-.17-.79h-.04c-.49.43-1.04.7-1.04.7-.55.27-1.19.27-1.19.27-.52 0-.94-.18-.94-.18-.41-.17-.7-.49-.7-.49-.29-.31-.46-.73-.46-.73-.16-.41-.16-.9-.16-.9zm0 0zm2.16-.17c0 .37.24.55.24.55.24.18.64.18.64.18.4 0 .68-.17.68-.17.28-.17.59-.48.59-.48v-1.34c-1.21.17-1.68.49-1.68.49-.46.33-.46.77-.46.77zm5.35 2.3zm1.01-10.8h2.26v8.52c0 .36.13.5.13.5.14.14.27.14.27.14h.14l.15-.04.28 1.68c-.18.08-.47.13-.47.13-.28.05-.67.05-.67.05-.58 0-.98-.18-.98-.18-.4-.18-.64-.52-.64-.52-.24-.33-.35-.8-.35-.8-.11-.47-.11-1.06-.11-1.06V3.3zm6.61 10.8zm.56-3.82c0-.95.3-1.7.3-1.7.31-.75.83-1.25.83-1.25.52-.51 1.2-.78 1.2-.78.68-.27 1.4-.27 1.4-.27.72 0 1.39.27 1.39.27.67.27 1.19.78 1.19.78.52.51.82 1.26.82 1.26.31.75.31 1.7.31 1.7 0 .96-.31 1.7-.31 1.7-.31.75-.83 1.26-.83 1.26-.51.5-1.18.77-1.18.77-.67.27-1.4.27-1.4.27-.72 0-1.4-.27-1.4-.27-.68-.27-1.19-.78-1.19-.78-.51-.51-.82-1.25-.82-1.25-.31-.75-.31-1.7-.31-1.7zm0 0zm2.32 0c0 1 .35 1.59.35 1.59.35.59 1.06.59 1.06.59.7 0 1.05-.59 1.05-.59.35-.58.35-1.58.35-1.58 0-1-.35-1.58-.35-1.58-.35-.58-1.05-.58-1.05-.58-.71 0-1.05.59-1.05.59-.35.59-.35 1.59-.35 1.59zm5.67 3.82zm1.01-7.64h1.85l.16 1.34h.06c.42-.78 1-1.15 1-1.15.59-.37 1.17-.37 1.17-.37.32 0 .53.04.53.04.21.04.38.12.38.12l-.37 1.96c-.21-.06-.4-.09-.4-.09-.18-.03-.43-.03-.43-.03-.43 0-.9.31-.9.31-.47.31-.77 1.1-.77 1.1v4.44h-2.26V6.46zm8.33 7.64zm1.83-2.82c.54.47 1.19.76 1.19.76.66.3 1.29.3 1.29.3.71 0 1.05-.26 1.05-.26.35-.26.35-.71.35-.71 0-.23-.1-.4-.1-.4-.1-.17-.29-.3-.29-.3-.19-.13-.46-.25-.46-.25l-.59-.26-1.31-.55c-.38-.15-.74-.4-.74-.4-.36-.25-.64-.58-.64-.58-.29-.33-.46-.77-.46-.77-.17-.44-.17-.99-.17-.99 0-.62.26-1.16.26-1.16.26-.54.74-.95.74-.95.48-.41 1.13-.64 1.13-.64.66-.23 1.44-.23 1.44-.23.88 0 1.74.34 1.74.34.86.34 1.5.99 1.5.99l-1.15 1.44c-.49-.39-.98-.59-.98-.59-.49-.21-1.09-.21-1.09-.21-.58 0-.93.24-.93.24-.35.24-.35.67-.35.67 0 .23.12.4.12.4.12.16.32.29.32.29.21.13.49.25.49.25l.6.26 1.3.53c.93.37 1.46 1.01 1.46 1.01.53.65.53 1.71.53 1.71 0 .63-.25 1.19-.25 1.19-.25.56-.74.98-.74.98-.48.42-1.19.68-1.19.68-.71.25-1.6.25-1.6.25-.99 0-1.97-.36-1.97-.36-.98-.36-1.75-1.09-1.75-1.09zm6.73 2.82zm1.31-5.87h-1.05v-1.7l1.17-.09.27-2.03h1.88v2.03h1.83v1.77h-1.83v3.07c0 .65.26.93.26.93.27.29.72.29.72.29.19 0 .38-.04.38-.04.2-.05.35-.11.35-.11l.36 1.65c-.31.09-.72.18-.72.18-.41.09-.97.09-.97.09-.71 0-1.21-.22-1.21-.22-.5-.22-.81-.6-.81-.6-.32-.39-.46-.94-.46-.94-.15-.55-.15-1.21-.15-1.21V8.23zm4.4 5.87zm.73-2.12c0-1.2 1.02-1.88 1.02-1.88 1.02-.68 3.28-.91 3.28-.91-.03-.51-.31-.81-.31-.81-.28-.3-.89-.3-.89-.3-.5 0-.99.19-.99.19-.49.18-1.05.51-1.05.51l-.8-1.49c.74-.45 1.55-.73 1.55-.73.81-.28 1.72-.28 1.72-.28 1.48 0 2.26.84 2.26.84.77.84.77 2.61.77 2.61v4.37h-1.85l-.17-.78h-.04c-.49.43-1.04.7-1.04.7-.55.27-1.19.27-1.19.27-.52 0-.94-.18-.94-.18-.42-.18-.71-.49-.71-.49-.29-.32-.46-.73-.46-.73-.16-.42-.16-.91-.16-.91zm0 0zm2.16-.17c0 .37.24.55.24.55.24.17.64.17.64.17.4 0 .68-.17.68-.17.28-.16.58-.47.58-.47v-1.34c-1.21.17-1.68.49-1.68.49-.46.32-.46.77-.46.77zm5.35 2.29zm.56-3.82c0-.95.32-1.7.32-1.7.32-.74.87-1.25.87-1.25.55-.51 1.27-.78 1.27-.78.72-.27 1.51-.27 1.51-.27.71 0 1.28.24 1.28.24.57.24.96.64.96.64l-1.03 1.4c-.54-.44-1.06-.44-1.06-.44-.83 0-1.31.59-1.31.59-.47.59-.47 1.59-.47 1.59 0 1 .49 1.59.49 1.59.48.59 1.22.59 1.22.59.41 0 .75-.17.75-.17.34-.17.61-.39.61-.39l.91 1.43c-.56.49-1.24.72-1.24.72-.67.23-1.31.23-1.31.23-.8 0-1.48-.27-1.48-.27-.68-.27-1.19-.78-1.19-.78-.51-.51-.8-1.25-.8-1.25-.29-.75-.29-1.71-.29-1.71zm6.63 3.82zm1-10.79h2.21V9.5h.06l2.43-3h2.46l-2.68 3.14 2.88 4.496h-2.45l-1.72-2.98-.97 1.09v1.88h-2.2V3.3zm7.44 10.8zm.74 2.17c.86-1.51 1.25-3.15 1.25-3.15.39-1.65.39-3.29.39-3.29 0-1.65-.38-3.3-.38-3.3-.38-1.65-1.25-3.16-1.25-3.16l1.42-.58c.97 1.59 1.5 3.3 1.5 3.3.53 1.71.53 3.74.53 3.74 0 2.04-.53 3.75-.53 3.75-.53 1.71-1.5 3.29-1.5 3.29l-1.42-.59zm4.56-2.17zm.94-1.23c0-.61.39-1.02.39-1.02.39-.41.98-.41.98-.41.58 0 .98.41.98.41.4.41.4 1.02.4 1.02 0 .6-.39 1.01-.39 1.01-.39.41-.98.41-.98.41-.59 0-.98-.41-.98-.41-.39-.41-.39-1.01-.39-1.01z"/><path fill="none" stroke="#D3D3D3" stroke-miterlimit="10" d="M55.404 738H972.35M55.404 562.25H972.35M55.404 386.5H972.35M55.404 210.75H972.35M55.404 35H972.35" stroke-dasharray="5 5"/><g fill="#5C3566" stroke-opacity="0" stroke-width="0" stroke-miterlimit="10" stroke-linejoin="bevel"><defs><clipPath id="a"><path d="M55.404 35v703H972.35V35z"/></clipPath></defs><g clip-path="url(#a)"><path stroke="none" d="M70.404 738v-25.484h153.39V738z"/></g></g><g fill-opacity="0" stroke-miterlimit="10"><defs><clipPath id="b"><path d="M55.404 35v703H972.35V35z"/></clipPath></defs><g clip-path="url(#b)"><path fill="none" d="M70.404 738v-25.484h153.39V738z"/></g></g><g fill="#5C3566" stroke-opacity="0" stroke-width="0" stroke-miterlimit="10" stroke-linejoin="bevel"><defs><clipPath id="c"><path d="M55.404 35v703H972.35V35z"/></clipPath></defs><g clip-path="url(#c)"><path stroke="none" d="M253.794 738V632.55h153.39V738z"/></g></g><g fill-opacity="0" stroke-miterlimit="10"><defs><clipPath id="d"><path d="M55.404 35v703H972.35V35z"/></clipPath></defs><g clip-path="url(#d)"><path fill="none" d="M253.794 738V632.55h153.39V738z"/></g></g><g fill="#5C3566" stroke-opacity="0" stroke-width="0" stroke-miterlimit="10" stroke-linejoin="bevel"><defs><clipPath id="e"><path d="M55.404 35v703H972.35V35z"/></clipPath></defs><g clip-path="url(#e)"><path stroke="none" d="M437.183 738V502.495h153.39V738z"/></g></g><g fill-opacity="0" stroke-miterlimit="10"><defs><clipPath id="f"><path d="M55.404 35v703H972.35V35z"/></clipPath></defs><g clip-path="url(#f)"><path fill="none" d="M437.183 738V502.495h153.39V738z"/></g></g><g fill="#5C3566" stroke-opacity="0" stroke-width="0" stroke-miterlimit="10" stroke-linejoin="bevel"><defs><clipPath id="g"><path d="M55.404 35v703H972.35V35z"/></clipPath></defs><g clip-path="url(#g)"><path stroke="none" d="M620.572 738V184.388h153.39V738z"/></g></g><g fill-opacity="0" stroke-miterlimit="10"><defs><clipPath id="h"><path d="M55.404 35v703H972.35V35z"/></clipPath></defs><g clip-path="url(#h)"><path fill="none" d="M620.572 738V184.388h153.39V738z"/></g></g><g fill="#5C3566" stroke-opacity="0" stroke-width="0" stroke-miterlimit="10" stroke-linejoin="bevel"><defs><clipPath id="i"><path d="M55.404 35v703H972.35V35z"/></clipPath></defs><g clip-path="url(#i)"><path stroke="none" d="M803.962 738V590.37h153.39V738z"/></g></g><g fill-opacity="0" stroke-miterlimit="10"><defs><clipPath id="j"><path d="M55.404 35v703H972.35V35z"/></clipPath></defs><g clip-path="url(#j)"><path fill="none" d="M803.962 738V590.37h153.39V738z"/></g></g><path fill="none" stroke-miterlimit="10" d="M55.404 738V35" stroke-linecap="square"/><path fill="none" stroke-miterlimit="10" d="M55.404 738h2m-2-87.875h2m-2-87.875h2m-2-87.875h2m-2-87.875h2m-2-87.875h2m-2-87.875h2m-2-87.875h2m-2-87.875h2m-2 703h5m-5-175.75h5m-5-175.75h5m-5-175.75h5m-5-175.75h5"/><path stroke="none" d="M41.108 741.445zm2.616.126c-1.02 0-1.586-.9-1.586-.9-.568-.9-.568-2.59-.568-2.59 0-1.69.568-2.57.568-2.57.567-.88 1.586-.88 1.586-.88 1.008 0 1.575.88 1.575.88.56.89.56 2.58.56 2.58 0 1.69-.57 2.6-.57 2.6-.57.91-1.58.91-1.58.91zm0 0zm0-.69c.294 0 .53-.16.53-.16.236-.16.41-.5.41-.5.173-.34.268-.87.268-.87.094-.53.094-1.26.094-1.26 0-.73-.094-1.26-.094-1.26-.095-.52-.268-.85-.268-.85-.173-.33-.41-.49-.41-.49-.236-.16-.53-.16-.53-.16-.294 0-.536.16-.536.16-.242.16-.415.49-.415.49-.173.33-.268.86-.268.86-.094.53-.094 1.26-.094 1.26 0 1.47.37 2.14.37 2.14.36.67.95.67.95.67zM30.584 565.7zm.42-.514c.755-.755 1.344-1.364 1.344-1.364.588-.61.987-1.13.987-1.13.4-.52.61-.956.61-.956.21-.435.21-.845.21-.845 0-.58-.316-.94-.316-.94-.32-.37-.96-.37-.96-.37-.42 0-.78.24-.78.24-.36.24-.65.58-.65.58l-.5-.49c.42-.46.89-.74.89-.74.47-.28 1.13-.28 1.13-.28.93 0 1.47.55 1.47.55.53.54.53 1.43.53 1.43 0 .47-.21.95-.21.95-.21.48-.57.99-.57.99-.37.51-.86 1.06-.86 1.06-.5.55-1.1 1.17-1.1 1.17l.57-.04c.29-.02.55-.02.55-.02h1.95v.75H31v-.51zm4.8.516zm2.615.125c-1.02 0-1.59-.902-1.59-.902-.57-.903-.57-2.595-.57-2.595 0-1.69.56-2.573.56-2.573.56-.882 1.58-.882 1.58-.882 1 0 1.57.882 1.57.882.56.882.56 2.574.56 2.574 0 1.69-.57 2.6-.57 2.6-.57.91-1.58.91-1.58.91zm0 0zm0-.692c.29 0 .53-.163.53-.163.23-.163.41-.505.41-.505.17-.34.26-.87.26-.87.09-.53.09-1.266.09-1.266 0-.74-.1-1.26-.1-1.26-.1-.53-.27-.86-.27-.86-.18-.33-.41-.48-.41-.48-.24-.16-.53-.16-.53-.16-.3 0-.54.16-.54.16-.24.16-.42.49-.42.49-.18.33-.27.86-.27.86-.1.53-.1 1.26-.1 1.26 0 1.47.36 2.14.36 2.14.36.67.95.67.95.67zm2.6.567zm2.61.125c-1.02 0-1.59-.902-1.59-.902-.57-.902-.57-2.594-.57-2.594 0-1.69.56-2.57.56-2.57.57-.88 1.59-.88 1.59-.88 1 0 1.57.89 1.57.89.56.88.56 2.58.56 2.58 0 1.69-.57 2.6-.57 2.6-.57.91-1.58.91-1.58.91zm0 0zm0-.692c.29 0 .53-.162.53-.162.23-.16.41-.5.41-.5.17-.34.26-.87.26-.87.09-.53.09-1.267.09-1.267 0-.735-.1-1.26-.1-1.26-.1-.525-.27-.856-.27-.856-.17-.33-.41-.487-.41-.487-.24-.16-.53-.16-.53-.16-.3 0-.54.16-.54.16-.24.155-.42.486-.42.486-.17.33-.27.85-.27.85-.09.52-.09 1.26-.09 1.26 0 1.47.36 2.14.36 2.14.36.67.95.67.95.67zm-13.25-175.19zm3.19-2.54v-1.944c0-.27.01-.64.01-.64.02-.37.04-.64.04-.64h-.05l-.26.48c-.14.24-.29.48-.29.48l-1.57 2.29h2.1zm0 0zm1.73.693h-.92v1.848h-.82v-1.848h-3.01v-.568l2.87-4.287h.96v4.16h.91v.693zm.29 1.848zm2.61.126c-1.02 0-1.59-.9-1.59-.9-.57-.904-.57-2.596-.57-2.596 0-1.69.56-2.573.56-2.573.57-.88 1.58-.88 1.58-.88 1.01 0 1.57.88 1.57.88.57.883.57 2.575.57 2.575 0 1.69-.57 2.594-.57 2.594-.57.902-1.58.902-1.58.902zm0 0zm0-.69c.29 0 .53-.164.53-.164.23-.162.41-.504.41-.504.17-.34.26-.87.26-.87.09-.53.09-1.266.09-1.266 0-.736-.09-1.26-.09-1.26-.1-.526-.27-.857-.27-.857-.18-.33-.41-.49-.41-.49-.24-.16-.53-.16-.53-.16-.3 0-.54.16-.54.16-.24.16-.42.49-.42.49-.18.33-.27.86-.27.86-.1.53-.1 1.26-.1 1.26 0 1.47.36 2.14.36 2.14.36.67.95.67.95.67zm2.6.566zm2.61.126c-1.02 0-1.59-.902-1.59-.902-.57-.903-.57-2.595-.57-2.595 0-1.69.56-2.573.56-2.573.56-.882 1.58-.882 1.58-.882 1.01 0 1.57.882 1.57.882.56.882.56 2.574.56 2.574 0 1.69-.56 2.594-.56 2.594-.57.903-1.58.903-1.58.903zm0 0zm0-.692c.29 0 .53-.163.53-.163.23-.17.41-.51.41-.51.17-.34.26-.87.26-.87.09-.53.09-1.27.09-1.27 0-.74-.1-1.26-.1-1.26-.1-.53-.27-.86-.27-.86-.18-.33-.41-.49-.41-.49-.24-.16-.53-.16-.53-.16-.3 0-.54.16-.54.16-.24.15-.42.49-.42.49-.17.33-.27.85-.27.85-.1.52-.1 1.26-.1 1.26 0 1.47.36 2.14.36 2.14.36.67.95.67.95.67zm-12.7-175.187zm2.81-.556c.25 0 .46-.11.46-.11.21-.11.37-.3.37-.3.16-.2.24-.46.24-.46.09-.27.09-.61.09-.61 0-.66-.3-1.04-.3-1.04-.3-.38-.93-.38-.93-.38-.31 0-.68.2-.68.2-.37.2-.71.67-.71.67.09.99.46 1.5.46 1.5.38.51 1.02.51 1.02.51zm0 0zm1.37-5.03c-.21-.24-.5-.39-.5-.39-.29-.14-.61-.14-.61-.14-.35 0-.66.15-.66.15-.32.14-.56.48-.56.48-.25.33-.39.87-.39.87-.15.54-.16 1.34-.16 1.34.31-.39.73-.62.73-.62.42-.23.83-.23.83-.23.87 0 1.39.51 1.39.51.52.51.52 1.55.52 1.55 0 .48-.16.87-.16.87-.16.39-.43.68-.43.68-.28.28-.63.44-.63.44-.36.16-.77.16-.77.16-.5 0-.92-.2-.92-.2-.42-.2-.73-.61-.73-.61-.31-.4-.49-1.01-.49-1.01-.18-.61-.18-1.42-.18-1.42 0-1.01.21-1.72.21-1.72.21-.71.57-1.16.57-1.16.35-.44.81-.65.81-.65.45-.2.96-.2.96-.2.54 0 .94.2.94.2.39.21.68.51.68.51zm1.03 5.57zm2.61.12c-1.02 0-1.59-.91-1.59-.91-.57-.91-.57-2.6-.57-2.6 0-1.69.56-2.58.56-2.58.56-.88 1.58-.88 1.58-.88 1.01 0 1.57.88 1.57.88.56.88.56 2.57.56 2.57 0 1.69-.57 2.59-.57 2.59-.57.9-1.58.9-1.58.9zm0 0zm0-.7c.29 0 .53-.17.53-.17.23-.16.41-.5.41-.5.17-.34.27-.87.27-.87.09-.53.09-1.27.09-1.27 0-.73-.1-1.26-.1-1.26-.1-.52-.27-.86-.27-.86-.18-.33-.41-.49-.41-.49-.24-.16-.53-.16-.53-.16-.3 0-.54.16-.54.16-.25.16-.42.49-.42.49-.18.33-.27.85-.27.85-.1.52-.1 1.26-.1 1.26 0 1.47.36 2.14.36 2.14.36.67.95.67.95.67zm2.6.56zm2.61.13c-1.02 0-1.59-.9-1.59-.9-.57-.91-.57-2.6-.57-2.6 0-1.69.57-2.58.57-2.58.56-.88 1.58-.88 1.58-.88 1.01 0 1.57.88 1.57.88.57.88.57 2.57.57 2.57 0 1.69-.57 2.59-.57 2.59-.56.9-1.57.9-1.57.9zm0 0zm0-.69c.29 0 .53-.17.53-.17.24-.16.41-.51.41-.51.17-.34.27-.87.27-.87.09-.53.09-1.27.09-1.27 0-.74-.1-1.26-.1-1.26-.1-.53-.27-.86-.27-.86-.17-.33-.41-.49-.41-.49-.24-.16-.53-.16-.53-.16-.29 0-.54.16-.54.16-.24.15-.42.49-.42.49-.18.33-.27.86-.27.86-.1.52-.1 1.26-.1 1.26 0 1.47.36 2.13.36 2.13.36.67.95.67.95.67zM30.63 38.44zm1.21-1.797c0 .282.11.513.11.513.11.23.308.41.308.41.197.174.46.27.46.27.262.093.566.093.566.093.59 0 .95-.33.95-.33.363-.33.363-.85.363-.85 0-.33-.15-.56-.15-.56-.15-.23-.4-.41-.4-.41-.25-.17-.59-.32-.59-.32l-.69-.29c-.4.27-.66.63-.66.63-.26.36-.26.82-.26.82zm0 0zm1.89-1.86c.34-.306.52-.64.52-.64.188-.338.188-.706.188-.706 0-.505-.303-.846-.303-.846-.304-.34-.86-.34-.86-.34-.474 0-.778.3-.778.3-.307.3-.307.79-.307.79 0 .31.13.52.13.52.13.22.34.39.34.39.22.17.5.3.5.3.28.13.59.25.59.25zm0 0zm-2.664 1.942c0-.325.11-.604.11-.604.11-.28.28-.5.28-.5.175-.22.4-.4.4-.4.227-.17.47-.3.47-.3v-.04c-.368-.26-.65-.63-.65-.63-.285-.37-.285-.91-.285-.91 0-.39.15-.7.15-.7.14-.31.39-.54.39-.54.25-.22.6-.35.6-.35.34-.12.75-.12.75-.12.44 0 .79.13.79.13.34.13.59.37.59.37.24.24.38.57.38.57.13.33.13.72.13.72 0 .27-.09.51-.09.51-.09.24-.22.45-.22.45-.13.21-.3.38-.3.38-.17.17-.32.29-.32.29v.05c.22.13.43.29.43.29.21.16.37.37.37.37.16.2.26.47.26.47.1.26.1.6.1.6 0 .38-.16.7-.16.7-.16.32-.44.56-.44.56-.29.24-.69.38-.69.38-.4.13-.88.13-.88.13-.47 0-.88-.13-.88-.13-.4-.13-.69-.38-.69-.38-.28-.24-.45-.58-.45-.58-.17-.33-.17-.73-.17-.73zm4.79 1.712zm2.613.125c-1.02 0-1.59-.902-1.59-.902-.57-.903-.57-2.595-.57-2.595 0-1.69.57-2.57.57-2.57.56-.88 1.58-.88 1.58-.88 1.01 0 1.57.88 1.57.88.56.88.56 2.575.56 2.575 0 1.693-.56 2.596-.56 2.596-.57.903-1.58.903-1.58.903zm0 0zm0-.692c.29 0 .53-.163.53-.163.23-.16.41-.502.41-.502.17-.34.27-.87.27-.87.09-.53.09-1.27.09-1.27 0-.74-.1-1.26-.1-1.26-.09-.53-.26-.86-.26-.86-.17-.33-.41-.488-.41-.488-.24-.16-.53-.16-.53-.16-.3 0-.54.16-.54.16-.24.154-.42.485-.42.485-.17.33-.26.856-.26.856-.09.527-.09 1.26-.09 1.26 0 1.47.36 2.14.36 2.14.37.67.96.67.96.67zm2.6.567zm2.61.128c-1.02 0-1.59-.9-1.59-.9-.57-.91-.57-2.6-.57-2.6 0-1.69.56-2.577.56-2.577.56-.88 1.58-.88 1.58-.88 1.01 0 1.57.88 1.57.88.56.884.56 2.575.56 2.575 0 1.692-.57 2.595-.57 2.595-.57.9-1.58.9-1.58.9zm0 0zm0-.69c.29 0 .53-.17.53-.17.23-.16.41-.506.41-.506.17-.34.27-.87.27-.87.09-.53.09-1.27.09-1.27 0-.74-.1-1.26-.1-1.26-.1-.53-.27-.86-.27-.86-.18-.33-.41-.49-.41-.49-.24-.16-.53-.16-.53-.16-.3 0-.54.16-.54.16-.24.16-.42.49-.42.49-.18.33-.27.85-.27.85-.09.52-.09 1.26-.09 1.26 0 1.47.36 2.14.36 2.14.36.66.95.66.95.66z"/><path fill="none" stroke-miterlimit="10" d="M55.404 738H972.35" stroke-linecap="square"/><path stroke="none" d="M101.695 758zm.966-1.502c.37.39.87.625.87.625.5.236 1.04.236 1.04.236.69 0 1.06-.31 1.06-.31.38-.31.38-.82.38-.82 0-.26-.09-.45-.09-.45-.09-.19-.24-.32-.24-.32-.15-.13-.36-.24-.36-.24-.21-.11-.45-.22-.45-.22l-.98-.43c-.24-.11-.49-.26-.49-.26-.25-.15-.45-.36-.45-.36-.2-.21-.33-.5-.33-.5-.12-.29-.12-.67-.12-.67 0-.39.17-.73.17-.73.17-.34.45-.59.45-.59.29-.25.69-.39.69-.39.39-.14.87-.14.87-.14.62 0 1.15.23 1.15.23.53.24.9.61.9.61l-.47.56c-.31-.31-.69-.48-.69-.48-.38-.17-.87-.17-.87-.17-.57 0-.93.26-.93.26-.35.27-.35.74-.35.74 0 .25.1.42.1.42.1.17.27.3.27.3.17.14.37.23.37.23.2.1.41.19.41.19l.98.42c.29.13.56.29.56.29.27.16.46.38.46.38.19.21.3.5.3.5.11.29.11.66.11.66 0 .41-.16.76-.16.76-.16.35-.46.62-.46.62-.3.26-.73.42-.73.42-.43.15-.97.15-.97.15-.72 0-1.34-.27-1.34-.27-.62-.27-1.07-.75-1.07-.75zm4.65 1.502zm1.01-4.4h-.75v-.653l.8-.052.11-1.43h.73v1.43h1.38v.704h-1.38v2.83c0 .47.17.73.17.73.18.25.62.25.62.25.14 0 .29-.04.29-.04.16-.05.29-.1.29-.1l.17.65c-.21.07-.46.13-.46.13-.24.05-.48.05-.48.05-.41 0-.69-.13-.69-.13-.27-.13-.45-.35-.45-.35-.17-.22-.24-.54-.24-.54-.07-.32-.07-.7-.07-.7v-2.82zm2.54 4.4zm.87-5.105h.72l.08.924h.03c.26-.49.64-.77.64-.77.38-.29.82-.29.82-.29.31 0 .55.1.55.1l-.17.75c-.12-.04-.23-.07-.23-.07-.1-.02-.26-.02-.26-.02-.33 0-.68.26-.68.26-.35.26-.61.91-.61.91v3.3h-.86v-5.11zM114.4 758zm.482-2.542c0-.64.194-1.14.194-1.14.194-.5.52-.845.52-.845.325-.347.75-.525.75-.525.426-.18.9-.18.9-.18.472 0 .897.18.897.18.427.178.75.525.75.525.33.346.52.845.52.845.197.5.197 1.14.197 1.14 0 .63-.194 1.13-.194 1.13-.193.498-.52.84-.52.84-.325.34-.75.52-.75.52-.425.178-.9.178-.9.178-.47 0-.896-.18-.896-.18-.426-.177-.75-.52-.75-.52-.327-.34-.52-.84-.52-.84-.196-.498-.196-1.128-.196-1.128zm0 0zm.892 0c0 .44.106.798.106.798.105.357.3.615.3.615.194.26.467.4.467.4.273.15.6.15.6.15.324 0 .598-.14.598-.14.274-.14.468-.4.468-.4.197-.25.3-.61.3-.61.107-.35.107-.8.107-.8 0-.44-.104-.8-.104-.8-.104-.36-.3-.62-.3-.62-.192-.26-.465-.4-.465-.4-.27-.14-.6-.14-.6-.14-.32 0-.59.14-.59.14-.27.14-.47.41-.47.41-.19.26-.3.63-.3.63-.1.37-.1.81-.1.81zm4.32 2.542zm.86-5.105h.714l.074.735h.03c.37-.367.773-.614.773-.614.406-.247.94-.247.94-.247.81 0 1.183.5 1.183.5.373.5.373 1.49.373 1.49V758h-.86v-3.12c0-.724-.23-1.045-.23-1.045-.23-.32-.73-.32-.73-.32-.4 0-.7.2-.7.2-.3.2-.69.588-.69.588V758h-.86v-5.105zm4.884 5.105zm1.23.86c0 .41.393.653.393.653.39.24 1.09.24 1.09.24.37 0 .67-.088.67-.088.3-.09.51-.23.51-.23.21-.143.33-.332.33-.332.12-.19.12-.39.12-.39 0-.356-.26-.492-.26-.492-.26-.13-.76-.13-.76-.13h-.88c-.14 0-.32-.01-.32-.01-.17-.01-.34-.07-.34-.07-.27.2-.4.42-.4.42-.12.22-.12.44-.12.44zm0 0zm-.757.117c0-.326.2-.62.2-.62.2-.294.55-.535.55-.535v-.042c-.19-.116-.32-.32-.32-.32-.13-.206-.13-.51-.13-.51 0-.326.18-.568.18-.568.18-.24.38-.378.38-.378v-.042c-.25-.21-.45-.562-.45-.562-.2-.352-.2-.814-.2-.814 0-.42.15-.756.15-.756.16-.336.42-.573.42-.573.27-.236.62-.362.62-.362.36-.126.74-.126.74-.126.21 0 .4.03.4.03.19.03.33.09.33.09h1.78v.66h-1.05c.18.18.3.45.3.45.12.27.12.6.12.6 0 .41-.15.74-.15.74-.14.33-.4.55-.4.55-.25.22-.59.35-.59.35-.34.12-.73.12-.73.12-.19 0-.39-.05-.39-.05-.2-.05-.38-.13-.38-.13-.13.11-.23.25-.23.25-.09.14-.09.35-.09.35 0 .24.19.4.19.4.19.16.72.16.72.16h.99c.89 0 1.34.29 1.34.29.45.28.45.92.45.92 0 .35-.17.67-.17.67-.18.32-.51.56-.51.56-.33.24-.81.38-.81.38-.48.14-1.08.14-1.08.14-.47 0-.86-.09-.86-.09-.39-.09-.67-.27-.67-.27-.28-.18-.43-.43-.43-.43-.15-.25-.15-.59-.15-.59zm0 0zm2.11-3.172c.22 0 .42-.084.42-.084.2-.08.35-.24.35-.24.15-.16.24-.38.24-.38.09-.22.09-.51.09-.51 0-.56-.31-.87-.31-.87-.31-.31-.76-.31-.76-.31-.45 0-.76.31-.76.31-.31.31-.31.88-.31.88 0 .29.09.51.09.51.08.23.24.39.24.39.16.16.35.24.35.24.2.09.42.09.42.09zm2.71 2.195zm.86-7.48h.86v6.514c0 .21.08.294.08.294.08.084.17.084.17.084h.08l.11-.02.12.65c-.08.042-.2.063-.2.063-.11.02-.29.02-.29.02-.49 0-.7-.293-.7-.293-.21-.294-.21-.86-.21-.86v-6.45zm1.82 7.48zm.52 1.408l.19.047.2.026c.44 0 .72-.31.72-.31.28-.31.44-.78.44-.78l.12-.38-2.04-5.11h.9l1.04 2.83.25.71c.13.37.25.73.25.73h.04c.12-.34.22-.72.22-.72.11-.38.21-.71.21-.71l.92-2.82h.84l-1.92 5.53c-.13.38-.3.7-.3.7-.17.33-.4.56-.4.56-.23.24-.52.38-.52.38-.29.14-.68.14-.68.14-.17 0-.32-.02-.32-.02-.15-.02-.27-.08-.27-.08l.17-.68zm6.51-1.408zm.5-2.542c0-.62.19-1.12.19-1.12.19-.498.49-.844.49-.844.31-.347.71-.536.71-.536.4-.19.84-.19.84-.19.45 0 .77.158.77.158.33.158.66.43.66.43l-.04-.87v-1.965h.87V758h-.71l-.07-.6H145c-.306.295-.7.51-.7.51-.395.216-.847.216-.847.216-.966 0-1.54-.693-1.54-.693-.57-.693-.57-1.975-.57-1.975zm0 0zm.9-.01c0 .924.37 1.44.37 1.44.37.513 1.04.513 1.04.513.36 0 .68-.17.68-.17.31-.17.63-.53.63-.53v-2.67c-.33-.29-.63-.41-.63-.41-.3-.12-.61-.12-.61-.12-.3 0-.57.14-.57.14-.27.15-.47.4-.47.4-.2.26-.31.62-.31.62-.11.36-.11.8-.11.8zm4.44 2.552zm1.31-6.155c-.25 0-.42-.158-.42-.158-.17-.158-.17-.4-.17-.4 0-.25.17-.404.17-.404.18-.152.43-.152.43-.152.25 0 .43.16.43.16.17.16.17.41.17.41 0 .24-.17.4-.17.4-.17.16-.42.16-.42.16zm0 0zm-.44 1.05h.86V758h-.86v-5.105zm1.72 5.105zm.73-1.155c.33.273.68.44.68.44.35.17.82.17.82.17.51 0 .76-.232.76-.232.26-.23.26-.567.26-.567 0-.2-.1-.347-.1-.347-.1-.15-.27-.26-.27-.26-.16-.11-.37-.2-.37-.2l-.42-.17c-.27-.1-.55-.22-.55-.22-.27-.12-.48-.3-.48-.3-.21-.18-.35-.41-.35-.41-.13-.23-.13-.56-.13-.56 0-.31.12-.58.12-.58.13-.27.35-.46.35-.46.23-.19.55-.31.55-.31.33-.11.74-.11.74-.11.48 0 .89.17.89.17.41.16.7.41.7.41l-.41.54c-.26-.2-.55-.33-.55-.33-.29-.13-.62-.13-.62-.13-.49 0-.71.22-.71.22-.23.22-.23.51-.23.51 0 .18.1.31.1.31.09.13.25.23.25.23.15.1.36.18.36.18l.42.16c.28.1.55.22.55.22.28.11.5.29.5.29.22.17.37.42.37.42.14.25.14.61.14.61 0 .31-.12.59-.12.59-.12.27-.36.48-.36.48-.23.21-.59.33-.59.33-.35.12-.8.12-.8.12-.55 0-1.04-.2-1.04-.2-.49-.2-.86-.51-.86-.51zm3.67 1.155zm.61-1.323c0-.84.75-1.287.75-1.287.75-.447 2.39-.625 2.39-.625 0-.242-.05-.473-.05-.473-.05-.23-.17-.41-.17-.41-.12-.178-.32-.29-.32-.29-.2-.11-.52-.11-.52-.11-.45 0-.83.17-.83.17-.38.167-.69.377-.69.377l-.35-.6c.36-.23.87-.45.87-.45.52-.22 1.14-.22 1.14-.22.94 0 1.36.57 1.36.57.42.57.42 1.53.42 1.53V758h-.71l-.07-.61h-.02c-.37.306-.79.52-.79.52-.43.216-.9.216-.9.216-.65 0-1.08-.378-1.08-.378-.42-.378-.42-1.07-.42-1.07zm0 0zm.85-.064c0 .442.25.63.25.63.26.19.64.19.64.19.37 0 .7-.173.7-.173.33-.174.7-.51.7-.51v-1.418c-.64.084-1.08.2-1.08.2-.44.115-.71.273-.71.273-.26.157-.38.362-.38.362-.11.205-.11.446-.11.446zm3.92 1.387zm1.22.86c0 .41.39.653.39.653.4.24 1.09.24 1.09.24.37 0 .67-.088.67-.088.3-.09.51-.23.51-.23.21-.143.33-.332.33-.332.11-.19.11-.39.11-.39 0-.356-.26-.492-.26-.492-.27-.13-.77-.13-.77-.13h-.88c-.15 0-.32-.01-.32-.01-.17-.01-.34-.07-.34-.07-.27.2-.4.42-.4.42-.13.22-.13.44-.13.44zm0 0zm-.76.117c0-.326.2-.62.2-.62.2-.294.55-.535.55-.535v-.042c-.19-.116-.32-.32-.32-.32-.13-.206-.13-.51-.13-.51 0-.326.18-.568.18-.568.18-.24.38-.378.38-.378v-.042c-.25-.21-.46-.562-.46-.562-.2-.352-.2-.814-.2-.814 0-.42.16-.756.16-.756.16-.336.42-.573.42-.573.26-.236.62-.362.62-.362.35-.126.74-.126.74-.126.21 0 .4.03.4.03.18.03.33.09.33.09h1.78v.66h-1.05c.18.18.3.45.3.45.12.27.12.6.12.6 0 .41-.15.74-.15.74-.14.33-.4.55-.4.55-.25.22-.59.35-.59.35-.34.12-.73.12-.73.12-.19 0-.39-.05-.39-.05-.2-.05-.38-.13-.38-.13-.13.11-.23.25-.23.25-.09.14-.09.35-.09.35 0 .24.19.4.19.4.19.16.72.16.72.16h.99c.89 0 1.34.29 1.34.29.45.28.45.92.45.92 0 .35-.18.67-.18.67-.18.32-.51.56-.51.56-.33.24-.81.38-.81.38-.48.14-1.07.14-1.07.14-.47 0-.86-.09-.86-.09-.39-.09-.67-.27-.67-.27-.28-.18-.43-.43-.43-.43-.15-.25-.15-.59-.15-.59zm0 0zm2.11-3.172c.22 0 .42-.084.42-.084.2-.08.35-.24.35-.24.16-.16.24-.38.24-.38.09-.22.09-.51.09-.51 0-.56-.31-.87-.31-.87-.31-.31-.76-.31-.76-.31-.45 0-.77.31-.77.31-.32.31-.32.88-.32.88 0 .29.08.51.08.51.08.23.24.39.24.39.15.16.35.24.35.24.2.09.42.09.42.09zm2.71 2.195zm.86-5.105h.72l.08.924h.03c.27-.49.64-.77.64-.77.38-.29.82-.29.82-.29.31 0 .55.1.55.1l-.17.75c-.12-.04-.23-.07-.23-.07-.1-.02-.26-.02-.26-.02-.32 0-.67.26-.67.26-.35.26-.62.91-.62.91v3.3h-.86v-5.11zm2.68 5.105zm.49-2.542c0-.63.19-1.13.19-1.13.2-.498.52-.845.52-.845.32-.346.73-.53.73-.53.41-.184.85-.184.85-.184.49 0 .87.16.87.16.39.17.64.48.64.48.26.31.4.75.4.75.14.44.14.98.14.98 0 .28-.03.47-.03.47h-3.44c.06.83.51 1.31.51 1.31.46.48 1.19.48 1.19.48.37 0 .68-.11.68-.11.31-.11.6-.29.6-.29l.3.56c-.33.21-.74.37-.74.37-.41.16-.93.16-.93.16-.51 0-.96-.19-.96-.19-.44-.19-.77-.53-.77-.53-.33-.34-.52-.84-.52-.84-.19-.5-.19-1.13-.19-1.13zm0 0zm3.57-.39c0-.786-.33-1.2-.33-1.2-.33-.416-.93-.416-.93-.416-.27 0-.52.11-.52.11-.25.11-.45.315-.45.315-.2.205-.33.504-.33.504-.13.3-.17.69-.17.69h2.73zm1.16 2.932zm.48-2.542c0-.63.2-1.13.2-1.13.19-.498.51-.845.51-.845.32-.346.73-.53.73-.53.41-.184.85-.184.85-.184.48 0 .87.16.87.16.39.17.64.48.64.48.26.31.4.75.4.75.14.44.14.98.14.98 0 .28-.03.47-.03.47h-3.44c.05.83.51 1.31.51 1.31.46.48 1.19.48 1.19.48.37 0 .68-.11.68-.11.31-.11.59-.29.59-.29l.3.56c-.33.21-.74.37-.74.37-.41.16-.94.16-.94.16-.52 0-.96-.19-.96-.19-.45-.19-.78-.53-.78-.53-.33-.34-.52-.84-.52-.84-.19-.5-.19-1.13-.19-1.13zm0 0zm3.57-.39c0-.786-.33-1.2-.33-1.2-.33-.416-.93-.416-.93-.416-.27 0-.52.11-.52.11-.24.11-.44.315-.44.315-.2.205-.33.504-.33.504-.14.3-.18.69-.18.69h2.73zM178.3 758zm.685-4.317c0-.305.183-.49.183-.49.18-.182.44-.182.44-.182.25 0 .435.19.435.19.186.19.186.49.186.49 0 .28-.19.47-.19.47-.18.19-.43.19-.43.19-.26 0-.45-.18-.45-.18-.18-.18-.18-.46-.18-.46zm0 0zm0 3.792c0-.305.183-.49.183-.49.18-.182.44-.182.44-.182.25 0 .435.183.435.183.186.184.186.49.186.49 0 .282-.19.466-.19.466-.18.184-.43.184-.43.184-.26 0-.45-.184-.45-.184-.18-.184-.18-.467-.18-.467zm4.054.525zm.42-.515c.75-.756 1.34-1.365 1.34-1.365.59-.61.99-1.13.99-1.13.4-.52.61-.955.61-.955.21-.436.21-.846.21-.846 0-.58-.32-.95-.32-.95-.32-.37-.96-.37-.96-.37-.42 0-.78.23-.78.23-.35.23-.65.57-.65.57l-.49-.5c.42-.46.89-.74.89-.74.47-.28 1.13-.28 1.13-.28.93 0 1.47.54 1.47.54.53.54.53 1.43.53 1.43 0 .47-.21.95-.21.95-.21.48-.57.98-.57.98-.37.51-.86 1.06-.86 1.06-.5.55-1.1 1.17-1.1 1.17l.56-.04c.3-.02.56-.02.56-.02h1.94v.75h-4.33v-.52zm4.8.515zm2.47-3.256c.32 0 .69-.205.69-.205.37-.21.71-.69.71-.69-.09-.99-.47-1.49-.47-1.49-.38-.51-1.02-.51-1.02-.51-.24 0-.46.1-.46.1-.22.1-.38.3-.38.3-.16.19-.25.46-.25.46-.09.27-.09.6-.09.6 0 .66.3 1.04.3 1.04.3.37.93.37.93.37zm0 0zm-1.45 2.132c.21.242.5.39.5.39.28.146.6.146.6.146.36 0 .67-.147.67-.147.32-.147.56-.49.56-.49.24-.34.39-.886.39-.886.15-.55.16-1.36.16-1.36-.31.4-.73.63-.73.63-.42.23-.84.23-.84.23-.87 0-1.39-.52-1.39-.52-.52-.52-.52-1.56-.52-1.56 0-.49.15-.88.15-.88.16-.4.42-.68.42-.68.26-.28.63-.44.63-.44.36-.16.76-.16.76-.16.49 0 .92.2.92.2.42.2.73.6.73.6.31.4.48 1.01.48 1.01.17.6.17 1.41.17 1.41 0 1.01-.21 1.72-.21 1.72-.21.71-.57 1.15-.57 1.15-.35.44-.81.65-.81.65-.46.2-.96.2-.96.2-.54 0-.94-.2-.94-.2-.4-.2-.68-.51-.68-.51zM301.95 758zm.945-6.89h1.72c1.59 0 2.42.882 2.42.882.83.882.83 2.53.83 2.53 0 .82-.21 1.466-.21 1.466-.21.646-.62 1.093-.62 1.093-.41.45-1.01.69-1.01.69-.6.24-1.377.24-1.377.24h-1.76v-6.89zm0 0zm1.66 6.176c1.2 0 1.81-.725 1.81-.725.6-.72.6-2.03.6-2.03 0-1.31-.61-2-.61-2-.603-.69-1.81-.69-1.81-.69h-.79v5.46h.79zm3.85.714zm1.3-6.155c-.25 0-.43-.158-.43-.158-.172-.158-.172-.4-.172-.4 0-.25.173-.404.173-.404.175-.152.427-.152.427-.152.254 0 .428.16.428.16.18.16.18.41.18.41 0 .24-.17.4-.17.4-.17.16-.42.16-.42.16zm0 0zm-.44 1.05h.86V758h-.86v-5.105zm1.72 5.105zm.722-1.155c.335.273.69.44.69.44.35.17.812.17.812.17.5 0 .75-.232.75-.232.25-.23.25-.567.25-.567 0-.2-.11-.347-.11-.347-.11-.15-.27-.26-.27-.26-.17-.11-.38-.2-.38-.2l-.42-.17c-.27-.1-.55-.22-.55-.22-.27-.12-.49-.3-.49-.3-.22-.18-.35-.41-.35-.41-.14-.23-.14-.56-.14-.56 0-.31.12-.58.12-.58.12-.27.34-.46.34-.46.23-.19.55-.31.55-.31.32-.11.73-.11.73-.11.49 0 .89.17.89.17.4.16.7.41.7.41l-.41.54c-.26-.2-.55-.33-.55-.33-.28-.13-.62-.13-.62-.13-.48 0-.71.22-.71.22-.23.22-.23.51-.23.51 0 .18.09.31.09.31.1.13.25.23.25.23.15.1.36.18.36.18l.42.16c.27.1.55.22.55.22.28.11.5.29.5.29.22.17.36.42.36.42.14.25.14.61.14.61 0 .31-.12.59-.12.59-.12.27-.36.48-.36.48-.24.21-.59.33-.59.33-.35.12-.81.12-.81.12-.55 0-1.04-.2-1.04-.2-.5-.2-.86-.51-.86-.51zM315.4 758zm.608-1.323c0-.84.75-1.287.75-1.287.753-.447 2.39-.625 2.39-.625 0-.242-.046-.473-.046-.473-.047-.23-.168-.41-.168-.41-.12-.178-.32-.29-.32-.29-.2-.11-.515-.11-.515-.11-.46 0-.84.17-.84.17-.39.167-.69.377-.69.377l-.35-.6c.35-.23.87-.45.87-.45.51-.22 1.13-.22 1.13-.22.93 0 1.35.57 1.35.57.42.57.42 1.53.42 1.53V758h-.72l-.08-.61h-.02c-.37.306-.8.52-.8.52-.43.216-.9.216-.9.216-.65 0-1.08-.378-1.08-.378-.43-.378-.43-1.07-.43-1.07zm0 0zm.85-.064c0 .442.26.63.26.63.256.19.634.19.634.19.368 0 .7-.173.7-.173.33-.174.697-.51.697-.51v-1.418c-.65.084-1.09.2-1.09.2-.44.115-.71.273-.71.273-.27.157-.38.362-.38.362-.12.205-.12.446-.12.446zm3.92 1.387zm1.228.86c0 .41.394.653.394.653.394.24 1.087.24 1.087.24.368 0 .667-.088.667-.088.3-.09.51-.23.51-.23.21-.143.325-.332.325-.332.11-.19.11-.39.11-.39 0-.356-.27-.492-.27-.492-.26-.13-.77-.13-.77-.13h-.88c-.15 0-.32-.01-.32-.01-.18-.01-.34-.07-.34-.07-.28.2-.4.42-.4.42-.13.22-.13.44-.13.44zm0 0zm-.756.117c0-.326.2-.62.2-.62.2-.294.546-.535.546-.535v-.042c-.19-.116-.32-.32-.32-.32-.132-.206-.132-.51-.132-.51 0-.326.18-.568.18-.568.177-.24.377-.378.377-.378v-.042c-.25-.21-.45-.562-.45-.562-.2-.352-.2-.814-.2-.814 0-.42.15-.756.15-.756.16-.336.42-.573.42-.573.27-.236.62-.362.62-.362.36-.126.74-.126.74-.126.21 0 .4.03.4.03.19.03.33.09.33.09h1.78v.66h-1.05c.18.18.3.45.3.45.12.27.12.6.12.6 0 .41-.14.74-.14.74-.14.33-.4.55-.4.55-.25.22-.59.35-.59.35-.34.12-.73.12-.73.12-.19 0-.38-.05-.38-.05-.2-.05-.38-.13-.38-.13-.13.11-.23.25-.23.25-.09.14-.09.35-.09.35 0 .24.19.4.19.4.19.16.72.16.72.16h.99c.9 0 1.34.29 1.34.29.45.28.45.92.45.92 0 .35-.18.67-.18.67-.18.32-.51.56-.51.56-.34.24-.81.38-.81.38-.47.14-1.07.14-1.07.14-.47 0-.86-.09-.86-.09-.39-.09-.67-.27-.67-.27-.28-.18-.43-.43-.43-.43-.15-.25-.15-.59-.15-.59zm0 0zm2.11-3.172c.222 0 .416-.084.416-.084.194-.08.347-.24.347-.24.152-.16.236-.38.236-.38.08-.22.08-.51.08-.51 0-.56-.32-.87-.32-.87-.32-.31-.77-.31-.77-.31-.45 0-.77.31-.77.31-.32.31-.32.88-.32.88 0 .29.08.51.08.51.08.23.23.39.23.39.15.16.34.24.34.24.19.09.41.09.41.09zm2.71 2.195zm.863-5.105h.714l.073.924h.032c.263-.49.635-.77.635-.77.373-.29.815-.29.815-.29.304 0 .546.1.546.1l-.168.75c-.126-.04-.23-.07-.23-.07-.106-.02-.264-.02-.264-.02-.326 0-.678.26-.678.26-.35.26-.614.91-.614.91v3.3h-.86v-5.11zM329.61 758zm.484-2.542c0-.63.195-1.13.195-1.13.19-.498.51-.845.51-.845.32-.346.73-.53.73-.53.41-.184.85-.184.85-.184.48 0 .87.16.87.16.38.17.64.48.64.48.25.31.39.75.39.75.13.44.13.98.13.98 0 .28-.03.47-.03.47h-3.45c.05.83.51 1.31.51 1.31.45.48 1.19.48 1.19.48.36 0 .67-.11.67-.11.31-.11.59-.29.59-.29l.3.56c-.34.21-.75.37-.75.37-.41.16-.93.16-.93.16-.52 0-.96-.19-.96-.19-.45-.19-.78-.53-.78-.53-.33-.34-.52-.84-.52-.84-.19-.5-.19-1.13-.19-1.13zm0 0zm3.572-.39c0-.786-.33-1.2-.33-1.2-.332-.416-.93-.416-.93-.416-.274 0-.52.11-.52.11-.247.11-.447.315-.447.315-.2.205-.34.504-.34.504-.13.3-.18.69-.18.69h2.73zM334.82 758zm.485-2.542c0-.63.194-1.13.194-1.13.19-.498.51-.845.51-.845.32-.346.73-.53.73-.53.41-.184.85-.184.85-.184.48 0 .86.16.86.16.38.17.64.48.64.48.26.31.39.75.39.75.13.44.13.98.13.98 0 .28-.03.47-.03.47h-3.45c.05.83.51 1.31.51 1.31.45.48 1.19.48 1.19.48.36 0 .67-.11.67-.11.31-.11.59-.29.59-.29l.3.56c-.34.21-.75.37-.75.37-.41.16-.94.16-.94.16-.52 0-.96-.19-.96-.19-.45-.19-.78-.53-.78-.53-.33-.34-.52-.84-.52-.84-.19-.5-.19-1.13-.19-1.13zm0 0zm3.57-.39c0-.786-.33-1.2-.33-1.2-.33-.416-.93-.416-.93-.416-.273 0-.52.11-.52.11-.246.11-.446.315-.446.315-.2.205-.34.504-.34.504-.13.3-.18.69-.18.69h2.73zM340.03 758zm.685-4.317c0-.305.184-.49.184-.49.18-.182.44-.182.44-.182.25 0 .43.19.43.19.18.19.18.49.18.49 0 .28-.19.47-.19.47-.18.19-.44.19-.44.19-.27 0-.45-.18-.45-.18-.19-.18-.19-.46-.19-.46zm0 0zm0 3.792c0-.305.184-.49.184-.49.18-.182.44-.182.44-.182.25 0 .43.183.43.183.18.184.18.49.18.49 0 .282-.19.466-.19.466-.18.184-.44.184-.44.184-.27 0-.45-.184-.45-.184-.19-.184-.19-.467-.19-.467zm4.055.525zm.83-.714h1.532v-4.937h-1.218v-.56c.462-.09.803-.21.803-.21.342-.12.615-.29.615-.29h.662v5.99h1.386v.72h-3.78v-.72zm4.39.714zm.42-.515c.756-.756 1.344-1.365 1.344-1.365.588-.61.987-1.13.987-1.13.4-.52.61-.955.61-.955.21-.436.21-.846.21-.846 0-.58-.31-.95-.31-.95-.31-.37-.95-.37-.95-.37-.42 0-.77.23-.77.23-.35.23-.65.57-.65.57l-.49-.5c.42-.46.9-.74.9-.74.48-.28 1.14-.28 1.14-.28.93 0 1.47.54 1.47.54.54.54.54 1.43.54 1.43 0 .47-.2.95-.2.95-.2.48-.56.98-.56.98-.36.51-.86 1.06-.86 1.06-.5.55-1.1 1.17-1.1 1.17l.57-.04c.29-.02.55-.02.55-.02h1.94v.75h-4.32v-.52zm4.8.515zm2.615.126c-1.018 0-1.586-.903-1.586-.903-.57-.904-.57-2.595-.57-2.595 0-1.69.56-2.573.56-2.573.56-.883 1.58-.883 1.58-.883 1.01 0 1.57.883 1.57.883.56.882.56 2.573.56 2.573 0 1.69-.57 2.595-.57 2.595-.57.903-1.57.903-1.57.903zm0 0zm0-.693c.295 0 .53-.163.53-.163.237-.163.41-.504.41-.504.174-.342.27-.872.27-.872.093-.53.093-1.266.093-1.266 0-.735-.094-1.26-.094-1.26-.095-.525-.268-.856-.268-.856-.174-.33-.41-.49-.41-.49-.236-.156-.53-.156-.53-.156-.295 0-.536.157-.536.157-.242.158-.415.49-.415.49-.173.33-.268.855-.268.855-.095.525-.095 1.26-.095 1.26 0 1.47.363 2.138.363 2.138.362.667.95.667.95.667zM488.01 758zm.946-6.89h.904l2.49 4.327.745 1.43h.042c-.03-.527-.068-1.09-.068-1.09-.04-.56-.04-1.107-.04-1.107v-3.56h.83V758h-.91l-2.5-4.338-.75-1.418h-.04l.08 1.066c.03.54.03 1.087.03 1.087V758h-.83v-6.89zm5.85 6.89zm.484-2.542c0-.63.195-1.13.195-1.13.194-.498.514-.845.514-.845.32-.346.73-.53.73-.53.41-.184.85-.184.85-.184.48 0 .86.16.86.16.38.17.64.48.64.48.26.31.39.75.39.75.13.44.13.98.13.98 0 .28-.03.47-.03.47h-3.45c.05.83.51 1.31.51 1.31.45.48 1.19.48 1.19.48.36 0 .67-.11.67-.11.31-.11.59-.29.59-.29l.3.56c-.34.21-.75.37-.75.37-.41.16-.94.16-.94.16-.52 0-.96-.19-.96-.19-.45-.19-.78-.53-.78-.53-.33-.34-.52-.84-.52-.84-.19-.5-.19-1.13-.19-1.13zm0 0zm3.572-.39c0-.786-.33-1.2-.33-1.2-.332-.416-.93-.416-.93-.416-.274 0-.52.11-.52.11-.247.11-.447.315-.447.315-.2.205-.33.504-.33.504-.132.3-.174.69-.174.69h2.74zm1.155 2.932zm.788-5.105h.872v3.12c0 .724.226 1.045.226 1.045.225.32.73.32.73.32.4 0 .704-.205.704-.205.304-.204.672-.656.672-.656v-3.63h.86V758h-.72l-.08-.798h-.03c-.36.42-.75.672-.75.672-.4.252-.93.252-.93.252-.82 0-1.2-.504-1.2-.504-.38-.504-.38-1.492-.38-1.492v-3.235zm4.927 5.105zm1.008-4.4h-.756v-.653l.798-.052.105-1.43h.725v1.43h1.376v.704h-1.376v2.83c0 .47.173.73.173.73.173.25.615.25.615.25.136 0 .294-.04.294-.04.157-.05.283-.1.283-.1l.168.65c-.21.07-.456.13-.456.13-.25.05-.49.05-.49.05-.41 0-.69-.13-.69-.13-.28-.13-.45-.35-.45-.35-.18-.22-.25-.54-.25-.54-.08-.32-.08-.7-.08-.7v-2.82zm2.542 4.4zm.86-5.105h.716l.073.924h.04c.26-.49.64-.77.64-.77.38-.29.82-.29.82-.29.31 0 .55.1.55.1l-.17.75c-.12-.04-.23-.07-.23-.07-.1-.02-.26-.02-.26-.02-.32 0-.68.26-.68.26-.35.26-.61.91-.61.91v3.3h-.86v-5.11zm2.522 5.105zm.61-1.323c0-.84.75-1.287.75-1.287.752-.447 2.39-.625 2.39-.625 0-.242-.047-.473-.047-.473-.047-.23-.168-.41-.168-.41-.13-.178-.32-.29-.32-.29-.2-.11-.52-.11-.52-.11-.45 0-.84.17-.84.17-.39.167-.69.377-.69.377l-.35-.6c.35-.23.87-.45.87-.45.51-.22 1.13-.22 1.13-.22.93 0 1.35.57 1.35.57.42.57.42 1.53.42 1.53V758h-.72l-.07-.61h-.02c-.37.306-.8.52-.8.52-.43.216-.9.216-.9.216-.65 0-1.08-.378-1.08-.378-.43-.378-.43-1.07-.43-1.07zm0 0zm.85-.064c0 .442.258.63.258.63.257.19.635.19.635.19.368 0 .7-.173.7-.173.33-.174.697-.51.697-.51v-1.418c-.64.084-1.082.2-1.082.2-.44.115-.71.273-.71.273-.266.157-.382.362-.382.362-.115.205-.115.446-.115.446zm3.918 1.387zm.862-7.48h.86v6.514c0 .21.075.294.075.294.07.084.16.084.16.084h.08l.11-.02.11.65c-.09.042-.2.063-.2.063-.12.02-.3.02-.3.02-.5 0-.71-.293-.71-.293-.21-.294-.21-.86-.21-.86v-6.45zm1.817 7.48zm.69-4.317c0-.305.19-.49.19-.49.19-.182.45-.182.45-.182.25 0 .44.19.44.19.19.19.19.49.19.49 0 .28-.18.47-.18.47-.18.19-.43.19-.43.19-.26 0-.44-.18-.44-.18-.18-.18-.18-.46-.18-.46zm0 0zm0 3.792c0-.305.19-.49.19-.49.19-.182.45-.182.45-.182.25 0 .44.183.44.183.19.184.19.49.19.49 0 .282-.18.466-.18.466-.18.184-.43.184-.43.184-.26 0-.44-.184-.44-.184-.18-.184-.18-.467-.18-.467zm4.06.525zm.42-.515c.76-.756 1.35-1.365 1.35-1.365.59-.61.99-1.13.99-1.13.4-.52.61-.955.61-.955.21-.436.21-.846.21-.846 0-.58-.31-.95-.31-.95-.31-.37-.95-.37-.95-.37-.42 0-.77.23-.77.23-.36.23-.65.57-.65.57l-.49-.5c.42-.46.89-.74.89-.74.47-.28 1.14-.28 1.14-.28.94 0 1.47.54 1.47.54.54.54.54 1.43.54 1.43 0 .47-.2.95-.2.95-.21.48-.57.98-.57.98-.36.51-.86 1.06-.86 1.06-.5.55-1.1 1.17-1.1 1.17l.57-.04c.29-.02.56-.02.56-.02h1.95v.75h-4.33v-.52zm4.8.515zm2.82-.557c.25 0 .46-.105.46-.105.21-.105.37-.3.37-.3.16-.193.25-.46.25-.46.09-.27.09-.605.09-.605 0-.662-.3-1.04-.3-1.04-.3-.378-.93-.378-.93-.378-.31 0-.68.204-.68.204-.37.2-.71.67-.71.67.09.98.46 1.49.46 1.49.37.51 1.02.51 1.02.51zm0 0zm1.38-5.02c-.21-.242-.5-.384-.5-.384-.28-.15-.6-.15-.6-.15-.34 0-.66.14-.66.14-.31.14-.56.48-.56.48-.24.33-.39.87-.39.87-.14.54-.15 1.34-.15 1.34.32-.39.74-.62.74-.62.42-.23.83-.23.83-.23.87 0 1.39.51 1.39.51.52.51.52 1.55.52 1.55 0 .48-.15.88-.15.88-.16.39-.43.67-.43.67-.27.28-.63.44-.63.44-.36.15-.77.15-.77.15-.49 0-.91-.2-.91-.2-.42-.2-.73-.61-.73-.61-.31-.4-.48-1.01-.48-1.01-.18-.6-.18-1.41-.18-1.41 0-1.01.21-1.72.21-1.72.21-.71.57-1.15.57-1.15.36-.45.82-.65.82-.65.46-.21.96-.21.96-.21.55 0 .94.2.94.2.4.2.68.51.68.51zM535.9 758zm1.208-1.796c0 .283.11.515.11.515.11.23.305.4.305.4.194.17.457.27.457.27.262.09.567.09.567.09.588 0 .95-.33.95-.33.363-.33.363-.85.363-.85 0-.33-.147-.56-.147-.56-.147-.23-.4-.41-.4-.41-.252-.18-.583-.32-.583-.32-.33-.15-.688-.29-.688-.29-.4.27-.667.63-.667.63-.267.36-.267.82-.267.82zm0 0zm1.89-1.86c.336-.304.52-.64.52-.64.184-.336.184-.704.184-.704 0-.504-.304-.846-.304-.846-.305-.34-.862-.34-.862-.34-.472 0-.777.293-.777.293-.31.294-.31.788-.31.788 0 .304.12.52.12.52.12.215.34.383.34.383.21.168.49.3.49.3.28.13.58.246.58.246zm0 0zm-2.668 1.944c0-.326.11-.604.11-.604.11-.28.284-.504.284-.504.174-.226.4-.4.4-.4.225-.173.467-.3.467-.3v-.04c-.36-.264-.65-.637-.65-.637-.28-.372-.28-.908-.28-.908 0-.39.15-.704.15-.704.15-.31.4-.54.4-.54.25-.22.6-.35.6-.35.35-.12.76-.12.76-.12.44 0 .79.13.79.13.35.14.6.37.6.37.25.24.38.57.38.57.13.33.13.72.13.72 0 .26-.09.51-.09.51-.09.24-.22.45-.22.45-.13.21-.29.38-.29.38-.16.17-.32.28-.32.28v.04c.22.13.43.29.43.29.21.16.37.37.37.37.17.21.27.47.27.47.1.27.1.6.1.6 0 .38-.16.71-.16.71-.15.33-.44.57-.44.57-.28.25-.68.38-.68.38-.4.14-.88.14-.88.14-.47 0-.87-.14-.87-.14-.41-.13-.69-.38-.69-.38-.29-.24-.45-.58-.45-.58-.17-.33-.17-.73-.17-.73zM674.83 758zm3.876-2.805l-.326-1.05c-.19-.578-.357-1.15-.357-1.15-.168-.573-.336-1.17-.336-1.17h-.042c-.157.597-.325 1.17-.325 1.17-.17.572-.358 1.15-.358 1.15l-.325 1.05h2.07zm0 0zm.22.704h-2.51l-.662 2.1h-.893l2.34-6.89h.99l2.34 6.89h-.93zm1.618 2.1zm1.23.86c0 .41.393.65.393.65.394.24 1.087.24 1.087.24.368 0 .667-.09.667-.09.3-.09.51-.23.51-.23.21-.15.33-.33.33-.33.12-.19.12-.39.12-.39 0-.36-.26-.49-.26-.49-.26-.14-.76-.14-.76-.14h-.88c-.14 0-.32-.02-.32-.02-.17-.02-.34-.07-.34-.07-.27.2-.4.42-.4.42-.12.22-.12.44-.12.44zm0 0zm-.757.11c0-.33.2-.62.2-.62.2-.3.546-.54.546-.54v-.04c-.19-.12-.32-.32-.32-.32-.132-.21-.132-.51-.132-.51 0-.33.18-.57.18-.57.18-.24.38-.38.38-.38v-.05c-.25-.21-.45-.56-.45-.56-.2-.35-.2-.82-.2-.82 0-.42.15-.76.15-.76.16-.34.42-.57.42-.57.27-.24.62-.36.62-.36.36-.13.74-.13.74-.13.21 0 .4.03.4.03.19.04.33.09.33.09h1.78v.66h-1.05c.18.18.3.45.3.45.12.27.12.6.12.6 0 .41-.14.74-.14.74-.14.33-.39.55-.39.55-.25.22-.59.35-.59.35-.34.12-.73.12-.73.12-.19 0-.39-.05-.39-.05-.2-.05-.38-.13-.38-.13-.13.11-.23.25-.23.25-.09.14-.09.35-.09.35 0 .24.19.4.19.4.19.15.71.15.71.15h.99c.9 0 1.34.29 1.34.29.45.29.45.93.45.93 0 .36-.18.68-.18.68-.18.32-.51.56-.51.56-.33.24-.81.38-.81.38-.48.14-1.07.14-1.07.14-.47 0-.86-.09-.86-.09-.39-.09-.67-.27-.67-.27-.28-.18-.43-.43-.43-.43-.15-.25-.15-.59-.15-.59zm0 0zm2.11-3.17c.222 0 .416-.09.416-.09.194-.09.347-.24.347-.24.152-.16.236-.39.236-.39.084-.23.084-.51.084-.51 0-.57-.315-.88-.315-.88-.315-.31-.767-.31-.767-.31-.452 0-.767.31-.767.31-.31.31-.31.87-.31.87 0 .28.09.51.09.51.09.22.24.38.24.38.16.15.35.24.35.24.2.08.42.08.42.08zm2.71 2.19zm.863-5.11h.714l.073.92h.032c.26-.49.63-.77.63-.77.37-.29.81-.29.81-.29.3 0 .54.1.54.1l-.17.76-.23-.07c-.11-.02-.27-.02-.27-.02-.33 0-.68.26-.68.26-.36.26-.62.91-.62.91v3.3h-.86v-5.11zm2.678 5.1zm.483-2.55c0-.63.2-1.13.2-1.13.2-.5.52-.85.52-.85.32-.35.73-.53.73-.53.41-.19.85-.19.85-.19.49 0 .87.16.87.16.38.16.64.48.64.48.26.31.4.75.4.75.14.44.14.99.14.99 0 .28-.03.47-.03.47h-3.44c.05.83.51 1.31.51 1.31.46.48 1.19.48 1.19.48.37 0 .68-.11.68-.11.31-.11.6-.29.6-.29l.31.57c-.33.21-.74.37-.74.37-.41.16-.93.16-.93.16-.51 0-.96-.19-.96-.19-.44-.19-.77-.53-.77-.53-.33-.34-.52-.84-.52-.84-.19-.49-.19-1.12-.19-1.12zm0 0zm3.58-.39c0-.79-.33-1.2-.33-1.2-.33-.42-.93-.42-.93-.42-.27 0-.52.11-.52.11-.24.11-.44.32-.44.32-.2.2-.33.5-.33.5-.13.3-.17.69-.17.69h2.73zm1.15 2.93zm.49-2.55c0-.63.2-1.13.2-1.13.2-.5.52-.85.52-.85.32-.35.73-.53.73-.53.41-.19.85-.19.85-.19.49 0 .87.17.87.17.39.16.64.48.64.48.26.31.4.75.4.75.14.44.14.98.14.98 0 .28-.03.47-.03.47h-3.44c.06.83.51 1.31.51 1.31.46.48 1.19.48 1.19.48.37 0 .68-.11.68-.11.31-.11.6-.29.6-.29l.31.57c-.33.21-.74.37-.74.37-.41.16-.93.16-.93.16-.51 0-.96-.19-.96-.19-.45-.18-.78-.53-.78-.53-.33-.34-.52-.84-.52-.84-.19-.5-.19-1.13-.19-1.13zm0 0zm3.57-.39c0-.79-.33-1.2-.33-1.2-.33-.42-.93-.42-.93-.42-.27 0-.52.11-.52.11-.24.11-.44.32-.44.32-.2.2-.33.5-.33.5-.13.3-.17.69-.17.69h2.73zm1.15 2.94zm.69-4.32c0-.3.19-.49.19-.49.19-.18.45-.18.45-.18.26 0 .44.19.44.19.19.19.19.49.19.49 0 .28-.18.47-.18.47-.18.19-.43.19-.43.19-.26 0-.44-.19-.44-.19-.18-.18-.18-.46-.18-.46zm0 0zm0 3.79c0-.31.19-.49.19-.49.19-.18.45-.18.45-.18.26 0 .44.18.44.18.19.18.19.49.19.49 0 .28-.18.46-.18.46-.18.18-.43.18-.43.18-.26 0-.44-.18-.44-.18-.18-.19-.18-.47-.18-.47zm4.06.52zm2.81-.56c.25 0 .46-.1.46-.1.21-.11.37-.3.37-.3.16-.2.25-.46.25-.46.09-.27.09-.61.09-.61 0-.66-.31-1.04-.31-1.04-.3-.38-.93-.38-.93-.38-.31 0-.69.2-.69.2-.37.2-.71.67-.71.67.09.98.46 1.49.46 1.49.38.51 1.02.51 1.02.51zm0 0zm1.37-5.02c-.21-.24-.5-.38-.5-.38-.28-.15-.6-.15-.6-.15-.34 0-.66.14-.66.14-.31.15-.55.48-.55.48-.24.33-.39.88-.39.88-.14.54-.15 1.34-.15 1.34.32-.39.74-.62.74-.62.42-.23.83-.23.83-.23.87 0 1.39.51 1.39.51.52.51.52 1.55.52 1.55 0 .48-.15.88-.15.88-.16.39-.43.68-.43.68-.27.28-.63.44-.63.44-.36.15-.76.15-.76.15-.49 0-.91-.2-.91-.2-.42-.2-.73-.6-.73-.6-.31-.4-.49-1.01-.49-1.01-.18-.6-.18-1.41-.18-1.41 0-1.01.21-1.72.21-1.72.21-.71.57-1.16.57-1.16.36-.45.82-.65.82-.65.46-.21.96-.21.96-.21.55 0 .94.2.94.2.39.2.68.51.68.51zm1.03 5.58zm.72-1.39c.31.31.71.55.71.55.41.24 1.01.24 1.01.24.61 0 1-.33 1-.33.39-.34.39-.9.39-.9 0-.3-.11-.54-.11-.54-.11-.25-.36-.43-.36-.43-.25-.18-.66-.28-.66-.28-.41-.1-1.01-.1-1.01-.1v-.67c.54 0 .9-.1.9-.1.36-.09.59-.26.59-.26.23-.17.32-.4.32-.4.1-.23.1-.49.1-.49 0-.49-.31-.78-.31-.78-.31-.29-.84-.29-.84-.29-.42 0-.77.19-.77.19-.35.19-.66.49-.66.49l-.46-.55c.39-.37.86-.61.86-.61.47-.24 1.06-.24 1.06-.24.44 0 .81.11.81.11.37.11.64.33.64.33.27.22.41.53.41.53.15.32.15.73.15.73 0 .61-.33 1-.33 1-.34.39-.88.6-.88.6v.04c.3.08.56.22.56.22.26.14.46.36.46.36.2.21.31.5.31.5.11.28.11.63.11.63 0 .44-.17.79-.17.79-.17.35-.47.6-.47.6-.3.24-.7.38-.7.38-.4.13-.86.13-.86.13-.4 0-.73-.08-.73-.08-.33-.08-.6-.21-.6-.21-.27-.13-.48-.3-.48-.3-.22-.17-.38-.36-.38-.36zm4.51 1.38zm2.62.13c-1.02 0-1.58-.91-1.58-.91-.56-.9-.56-2.59-.56-2.59 0-1.69.57-2.58.57-2.58.57-.88 1.59-.88 1.59-.88 1.01 0 1.58.88 1.58.88.57.88.57 2.57.57 2.57 0 1.69-.57 2.59-.57 2.59-.56.9-1.57.9-1.57.9zm0 0zm0-.7c.3 0 .53-.16.53-.16.24-.17.41-.51.41-.51.18-.34.27-.87.27-.87.09-.53.09-1.27.09-1.27 0-.74-.1-1.26-.1-1.26-.09-.53-.26-.86-.26-.86-.17-.33-.41-.49-.41-.49-.24-.15-.53-.15-.53-.15-.3 0-.54.16-.54.16-.24.16-.41.49-.41.49-.17.33-.27.86-.27.86-.09.52-.09 1.26-.09 1.26 0 1.47.36 2.14.36 2.14.36.66.95.66.95.66zM839 758zm.967-1.502c.37.39.867.625.867.625.5.236 1.03.236 1.03.236.683 0 1.06-.31 1.06-.31.38-.31.38-.82.38-.82 0-.26-.09-.45-.09-.45-.09-.19-.24-.32-.24-.32-.15-.13-.36-.24-.36-.24-.21-.11-.45-.22-.45-.22l-.99-.43c-.24-.11-.49-.26-.49-.26-.254-.15-.454-.36-.454-.36-.2-.21-.325-.5-.325-.5-.123-.29-.123-.67-.123-.67 0-.39.163-.73.163-.73.162-.34.45-.59.45-.59.29-.25.683-.39.683-.39.395-.14.867-.14.867-.14.62 0 1.142.23 1.142.23.523.24.89.61.89.61l-.472.56c-.316-.31-.7-.48-.7-.48-.382-.17-.866-.17-.866-.17-.58 0-.93.26-.93.26-.35.27-.35.74-.35.74 0 .25.1.42.1.42.09.17.26.3.26.3.17.14.36.23.36.23.2.1.41.19.41.19l.98.42c.29.13.55.29.55.29.26.16.45.38.45.38.19.21.3.5.3.5.11.29.11.66.11.66 0 .41-.17.76-.17.76-.17.35-.47.62-.47.62-.31.26-.74.42-.74.42-.43.15-.98.15-.98.15-.72 0-1.34-.27-1.34-.27-.62-.27-1.07-.75-1.07-.75zM844.61 758zm1.01-4.4h-.757v-.653l.8-.052.104-1.43h.727v1.43h1.377v.704h-1.37v2.83c0 .47.18.73.18.73.18.25.62.25.62.25.14 0 .3-.04.3-.04.16-.05.29-.1.29-.1l.17.65c-.21.07-.45.13-.45.13-.24.05-.48.05-.48.05-.41 0-.69-.13-.69-.13-.28-.13-.45-.35-.45-.35-.17-.22-.25-.54-.25-.54-.07-.32-.07-.7-.07-.7v-2.82zm2.54 4.4zm.863-5.105h.714l.077.924h.03c.264-.49.637-.77.637-.77.38-.29.82-.29.82-.29.31 0 .55.1.55.1l-.17.75c-.12-.04-.23-.07-.23-.07-.1-.02-.26-.02-.26-.02-.32 0-.67.26-.67.26-.35.26-.61.91-.61.91v3.3h-.86v-5.11zm2.68 5.105zm.482-2.542c0-.64.19-1.14.19-1.14.194-.5.52-.845.52-.845.326-.347.75-.525.75-.525.427-.18.9-.18.9-.18.472 0 .897.18.897.18.43.178.753.525.753.525.327.346.52.845.52.845.196.5.196 1.14.196 1.14 0 .63-.19 1.13-.19 1.13-.19.498-.52.84-.52.84-.32.34-.75.52-.75.52-.42.178-.9.178-.9.178-.47 0-.9-.18-.9-.18-.42-.177-.75-.52-.75-.52-.33-.34-.52-.84-.52-.84-.19-.498-.19-1.128-.19-1.128zm0 0zm.89 0c0 .44.104.798.104.798.1.357.3.615.3.615.19.26.46.4.46.4.27.15.6.15.6.15.32 0 .6-.14.6-.14.27-.14.46-.4.46-.4.19-.25.3-.61.3-.61.1-.35.1-.8.1-.8 0-.44-.11-.8-.11-.8-.11-.36-.3-.62-.3-.62-.2-.26-.47-.4-.47-.4-.28-.14-.6-.14-.6-.14-.33 0-.6.14-.6.14-.28.14-.47.41-.47.41-.2.26-.3.63-.3.63-.11.37-.11.81-.11.81zM857.4 758zm.86-5.105h.716l.073.735h.03c.36-.367.77-.614.77-.614.4-.247.94-.247.94-.247.81 0 1.18.5 1.18.5.37.5.37 1.49.37 1.49V758h-.86v-3.12c0-.724-.23-1.045-.23-1.045-.23-.32-.74-.32-.74-.32-.4 0-.71.2-.71.2-.31.2-.7.588-.7.588V758h-.86v-5.105zm4.886 5.105zm1.23.86c0 .41.393.653.393.653.39.24 1.08.24 1.08.24.36 0 .66-.088.66-.088.3-.09.51-.23.51-.23.21-.143.32-.332.32-.332.11-.19.11-.39.11-.39 0-.356-.26-.492-.26-.492-.26-.13-.77-.13-.77-.13h-.88c-.15 0-.32-.01-.32-.01-.18-.01-.34-.07-.34-.07-.28.2-.4.42-.4.42-.13.22-.13.44-.13.44zm0 0zm-.758.117c0-.326.2-.62.2-.62.2-.294.546-.535.546-.535v-.042c-.19-.116-.32-.32-.32-.32-.13-.206-.13-.51-.13-.51 0-.326.177-.568.177-.568.18-.24.38-.378.38-.378v-.042c-.25-.21-.45-.562-.45-.562-.2-.352-.2-.814-.2-.814 0-.42.15-.756.15-.756.16-.336.42-.573.42-.573.26-.236.62-.362.62-.362.35-.126.74-.126.74-.126.21 0 .4.03.4.03.19.03.33.09.33.09h1.78v.66h-1.05c.18.18.3.45.3.45.12.27.12.6.12.6 0 .41-.14.74-.14.74-.15.33-.4.55-.4.55-.25.22-.59.35-.59.35-.34.12-.73.12-.73.12-.19 0-.39-.05-.39-.05-.2-.05-.38-.13-.38-.13-.14.11-.23.25-.23.25-.09.14-.09.35-.09.35 0 .24.19.4.19.4.19.16.72.16.72.16h.99c.9 0 1.34.29 1.34.29.45.28.45.92.45.92 0 .35-.18.67-.18.67-.17.32-.51.56-.51.56-.34.24-.82.38-.82.38-.47.14-1.07.14-1.07.14-.47 0-.86-.09-.86-.09-.38-.09-.66-.27-.66-.27-.28-.18-.43-.43-.43-.43-.15-.25-.15-.59-.15-.59zm0 0zm2.112-3.172c.22 0 .415-.084.415-.084.194-.08.346-.24.346-.24.16-.16.24-.38.24-.38.09-.22.09-.51.09-.51 0-.56-.31-.87-.31-.87-.31-.31-.76-.31-.76-.31-.45 0-.76.31-.76.31-.31.31-.31.88-.31.88 0 .29.09.51.09.51.09.23.24.39.24.39.16.16.35.24.35.24.2.09.42.09.42.09zm2.71 2.195zm.86-7.48h.863v6.514c0 .21.073.294.073.294.073.084.168.084.168.084h.08l.11-.02.115.65c-.09.042-.2.063-.2.063-.12.02-.3.02-.3.02-.5 0-.71-.293-.71-.293-.21-.294-.21-.86-.21-.86v-6.45zm1.818 7.48zm.515 1.408l.19.047.2.026c.44 0 .718-.31.718-.31.28-.31.44-.78.44-.78l.12-.38-2.05-5.11h.9l1.04 2.83.25.71c.13.37.25.73.25.73h.05c.12-.34.22-.72.22-.72.11-.38.21-.71.21-.71l.91-2.82h.84l-1.92 5.53c-.13.38-.3.7-.3.7-.17.33-.4.56-.4.56-.23.24-.53.38-.53.38-.29.14-.68.14-.68.14-.18 0-.32-.02-.32-.02-.14-.02-.27-.08-.27-.08l.17-.68zm6.513-1.408zm.61-1.323c0-.84.75-1.287.75-1.287.75-.447 2.39-.625 2.39-.625 0-.242-.048-.473-.048-.473-.047-.23-.168-.41-.168-.41-.12-.178-.32-.29-.32-.29-.2-.11-.515-.11-.515-.11-.45 0-.835.17-.835.17-.383.167-.688.377-.688.377l-.346-.6c.357-.23.87-.45.87-.45.516-.22 1.136-.22 1.136-.22.935 0 1.355.57 1.355.57.42.57.42 1.53.42 1.53V758h-.714l-.074-.61h-.03c-.37.306-.8.52-.8.52-.43.216-.9.216-.9.216-.65 0-1.08-.378-1.08-.378-.43-.378-.43-1.07-.43-1.07zm0 0zm.85-.064c0 .442.257.63.257.63.258.19.636.19.636.19.36 0 .69-.173.69-.173.33-.174.7-.51.7-.51v-1.418c-.64.084-1.09.2-1.09.2-.44.115-.71.273-.71.273-.27.157-.39.362-.39.362-.12.205-.12.446-.12.446zm3.918 1.387zm1.23.86c0 .41.393.653.393.653.394.24 1.087.24 1.087.24.368 0 .667-.088.667-.088.3-.09.51-.23.51-.23.21-.143.33-.332.33-.332.12-.19.12-.39.12-.39 0-.356-.26-.492-.26-.492-.26-.13-.76-.13-.76-.13h-.88c-.14 0-.32-.01-.32-.01-.17-.01-.34-.07-.34-.07-.27.2-.4.42-.4.42-.12.22-.12.44-.12.44zm0 0zm-.758.117c0-.326.2-.62.2-.62.2-.294.546-.535.546-.535v-.042c-.19-.116-.32-.32-.32-.32-.13-.206-.13-.51-.13-.51 0-.326.177-.568.177-.568.17-.24.37-.378.37-.378v-.042c-.25-.21-.46-.562-.46-.562-.21-.352-.21-.814-.21-.814 0-.42.15-.756.15-.756.15-.336.41-.573.41-.573.26-.236.61-.362.61-.362.35-.126.74-.126.74-.126.21 0 .39.03.39.03.18.03.33.09.33.09h1.78v.66h-1.05c.18.18.3.45.3.45.12.27.12.6.12.6 0 .41-.15.74-.15.74-.15.33-.4.55-.4.55-.25.22-.59.35-.59.35-.34.12-.73.12-.73.12-.19 0-.39-.05-.39-.05-.2-.05-.38-.13-.38-.13-.14.11-.23.25-.23.25-.1.14-.1.35-.1.35 0 .24.19.4.19.4.19.16.71.16.71.16h.99c.89 0 1.34.29 1.34.29.45.28.45.92.45.92 0 .35-.18.67-.18.67-.18.32-.51.56-.51.56-.34.24-.82.38-.82.38-.48.14-1.08.14-1.08.14-.48 0-.86-.09-.86-.09-.39-.09-.67-.27-.67-.27-.28-.18-.43-.43-.43-.43-.16-.25-.16-.59-.16-.59zm0 0zm2.112-3.172c.22 0 .415-.084.415-.084.194-.08.346-.24.346-.24.15-.16.23-.38.23-.38.08-.22.08-.51.08-.51 0-.56-.32-.87-.32-.87-.32-.31-.77-.31-.77-.31-.45 0-.77.31-.77.31-.32.31-.32.88-.32.88 0 .29.08.51.08.51.08.23.23.39.23.39.15.16.34.24.34.24.19.09.42.09.42.09zm2.71 2.195zm.86-5.105h.716l.073.924h.032c.26-.49.63-.77.63-.77.37-.29.81-.29.81-.29.3 0 .54.1.54.1l-.17.75-.23-.07c-.11-.02-.27-.02-.27-.02-.33 0-.68.26-.68.26-.36.26-.62.91-.62.91v3.3h-.86v-5.11zm2.68 5.105zm.483-2.542c0-.63.2-1.13.2-1.13.2-.498.52-.845.52-.845.32-.346.73-.53.73-.53.41-.184.85-.184.85-.184.49 0 .87.16.87.16.38.17.64.48.64.48.26.31.4.75.4.75.14.44.14.98.14.98 0 .28-.03.47-.03.47h-3.45c.05.83.51 1.31.51 1.31.46.48 1.19.48 1.19.48.37 0 .68-.11.68-.11.31-.11.6-.29.6-.29l.3.56c-.33.21-.74.37-.74.37-.41.16-.93.16-.93.16-.51 0-.96-.19-.96-.19-.44-.19-.77-.53-.77-.53-.33-.34-.52-.84-.52-.84-.19-.5-.19-1.13-.19-1.13zm0 0zm3.58-.39c0-.786-.33-1.2-.33-1.2-.33-.416-.93-.416-.93-.416-.27 0-.52.11-.52.11-.24.11-.44.315-.44.315-.2.205-.33.504-.33.504-.13.3-.17.69-.17.69h2.73zm1.15 2.932zm.49-2.542c0-.63.2-1.13.2-1.13.2-.498.52-.845.52-.845.32-.346.73-.53.73-.53.41-.184.85-.184.85-.184.49 0 .87.16.87.16.39.17.64.48.64.48.26.31.4.75.4.75.14.44.14.98.14.98 0 .28-.03.47-.03.47h-3.44c.05.83.51 1.31.51 1.31.46.48 1.19.48 1.19.48.37 0 .68-.11.68-.11.31-.11.6-.29.6-.29l.31.56c-.34.21-.74.37-.74.37-.41.16-.94.16-.94.16-.51 0-.96-.19-.96-.19-.44-.19-.77-.53-.77-.53-.33-.34-.52-.84-.52-.84-.19-.5-.19-1.13-.19-1.13zm0 0zm3.58-.39c0-.786-.33-1.2-.33-1.2-.33-.416-.93-.416-.93-.416-.27 0-.52.11-.52.11-.25.11-.44.315-.44.315-.2.205-.33.504-.33.504-.13.3-.17.69-.17.69h2.74zm1.15 2.932zm.69-4.317c0-.305.19-.49.19-.49.19-.182.45-.182.45-.182.26 0 .44.19.44.19.19.19.19.49.19.49 0 .28-.18.47-.18.47-.18.19-.43.19-.43.19-.26 0-.44-.18-.44-.18-.18-.18-.18-.46-.18-.46zm0 0zm0 3.792c0-.305.19-.49.19-.49.19-.182.45-.182.45-.182.26 0 .44.183.44.183.19.184.19.49.19.49 0 .282-.18.466-.18.466-.18.184-.43.184-.43.184-.26 0-.44-.184-.44-.184-.18-.184-.18-.467-.18-.467zm4.06.525zm.83-.714h1.54v-4.937h-1.22v-.56c.47-.09.81-.21.81-.21.34-.12.62-.29.62-.29h.66v5.99h1.39v.72h-3.79v-.72zm4.39.714zm2.82-.557c.26 0 .47-.105.47-.105.21-.105.37-.3.37-.3.16-.193.25-.46.25-.46.09-.27.09-.605.09-.605 0-.662-.3-1.04-.3-1.04-.3-.378-.93-.378-.93-.378-.31 0-.69.204-.69.204-.37.2-.71.67-.71.67.09.98.46 1.49.46 1.49.37.51 1.01.51 1.01.51zm0 0zm1.38-5.02c-.21-.242-.5-.384-.5-.384-.28-.15-.6-.15-.6-.15-.34 0-.66.14-.66.14-.31.14-.55.48-.55.48-.24.33-.39.87-.39.87-.14.54-.15 1.34-.15 1.34.32-.39.74-.62.74-.62.42-.23.83-.23.83-.23.87 0 1.39.51 1.39.51.52.51.52 1.55.52 1.55 0 .48-.15.88-.15.88-.16.39-.43.67-.43.67-.27.28-.63.44-.63.44-.35.15-.76.15-.76.15-.49 0-.91-.2-.91-.2-.42-.2-.73-.61-.73-.61-.31-.4-.49-1.01-.49-1.01-.18-.6-.18-1.41-.18-1.41 0-1.01.21-1.72.21-1.72.21-.71.57-1.15.57-1.15.35-.45.81-.65.81-.65.46-.21.96-.21.96-.21.54 0 .94.2.94.2.39.2.68.51.68.51zm1.03 5.577zm1.21-1.796c0 .283.11.515.11.515.11.23.31.4.31.4.2.17.46.27.46.27.27.09.57.09.57.09.59 0 .95-.33.95-.33.36-.33.36-.85.36-.85 0-.33-.14-.56-.14-.56-.15-.23-.4-.41-.4-.41-.25-.18-.58-.32-.58-.32-.33-.15-.69-.29-.69-.29-.4.27-.67.63-.67.63-.27.36-.27.82-.27.82zm0 0zm1.89-1.86c.34-.304.52-.64.52-.64.19-.336.19-.704.19-.704 0-.504-.3-.846-.3-.846-.3-.34-.86-.34-.86-.34-.47 0-.77.293-.77.293-.3.294-.3.788-.3.788 0 .304.13.52.13.52.13.215.35.383.35.383.22.168.5.3.5.3.28.13.58.246.58.246zm0 0zm-2.67 1.944c0-.326.11-.604.11-.604.11-.28.29-.504.29-.504.18-.226.4-.4.4-.4.23-.173.47-.3.47-.3v-.04c-.37-.264-.65-.637-.65-.637-.28-.372-.28-.908-.28-.908 0-.39.15-.704.15-.704.15-.31.4-.54.4-.54.25-.22.6-.35.6-.35.35-.12.76-.12.76-.12.44 0 .79.13.79.13.35.14.6.37.6.37.25.24.38.57.38.57.13.33.13.72.13.72 0 .26-.09.51-.09.51-.09.24-.22.45-.22.45-.13.21-.29.38-.29.38-.16.17-.32.28-.32.28v.04c.22.13.43.29.43.29.21.16.38.37.38.37.17.21.27.47.27.47.1.27.1.6.1.6 0 .38-.16.71-.16.71-.16.33-.44.57-.44.57-.28.25-.68.38-.68.38-.4.14-.88.14-.88.14-.47 0-.88-.14-.88-.14-.4-.13-.69-.38-.69-.38-.29-.24-.45-.58-.45-.58-.17-.33-.17-.73-.17-.73z"/></svg>