<svg xmlns="http://www.w3.org/2000/svg" stroke="#000" viewBox="0 0 1024 768" font-size="1"><path fill="#FFF" stroke="none" d="M0 0v768h1024V0z"/><path stroke="none" d="M373.88 14.102zm1.187-10.04h2.264V14.1h-2.26V4.062zm6.653 10.04zm.724-2.126c0-1.2 1.016-1.88 1.016-1.88 1.017-.676 3.28-.907 3.28-.907-.03-.51-.307-.81-.307-.81-.277-.3-.893-.3-.893-.3-.493 0-.986.18-.986.18-.493.18-1.047.51-1.047.51l-.8-1.5c.738-.45 1.547-.73 1.547-.73.808-.28 1.717-.28 1.717-.28 1.48 0 2.26.84 2.26.84.78.84.78 2.61.78 2.61v4.38h-1.85l-.17-.79h-.04c-.49.43-1.04.7-1.04.7-.54.27-1.19.27-1.19.27-.52 0-.94-.18-.94-.18-.41-.18-.7-.5-.7-.5-.29-.32-.45-.73-.45-.73-.16-.42-.16-.91-.16-.91zm0 0zm2.156-.17c0 .37.24.548.24.548.238.177.638.177.638.177.4 0 .677-.17.677-.17.278-.16.586-.47.586-.47v-1.34c-1.21.17-1.67.5-1.67.5-.46.33-.46.77-.46.77zm5.344 2.296zm1-7.64h1.85l.153.987h.062c.47-.48 1.01-.83 1.01-.83.54-.35 1.29-.35 1.29-.35.81 0 1.31.33 1.31.33.5.33.79.95.79.95.5-.53 1.07-.9 1.07-.9.56-.38 1.33-.38 1.33-.38 1.23 0 1.81.82 1.81.82.58.82.58 2.25.58 2.25v4.75h-2.27V9.65c0-.832-.23-1.14-.23-1.14-.22-.31-.72-.31-.72-.31-.57 0-1.31.74-1.31.74v5.16h-2.27V9.65c0-.832-.23-1.14-.23-1.14-.23-.31-.72-.31-.72-.31-.59 0-1.29.74-1.29.74v5.16h-2.27V6.46zm15.4 7.64zm1.34-2.295c.525.4 1.002.6 1.002.6.478.2.97.2.97.2.51 0 .74-.17.74-.17.23-.168.23-.476.23-.476 0-.18-.13-.33-.13-.33-.13-.14-.354-.27-.354-.27-.224-.12-.5-.22-.5-.22-.278-.1-.57-.22-.57-.22-.355-.14-.71-.32-.71-.32-.353-.18-.646-.45-.646-.45-.293-.27-.477-.63-.477-.63-.19-.36-.19-.84-.19-.84 0-.52.21-.97.21-.97.21-.44.59-.75.59-.75.38-.3.92-.48.92-.48.54-.17 1.2-.17 1.2-.17.88 0 1.54.3 1.54.3.66.3 1.15.67 1.15.67l-1.02 1.36c-.42-.31-.82-.48-.82-.48-.4-.17-.8-.17-.8-.17-.87 0-.87.61-.87.61 0 .19.12.32.12.32.12.13.33.24.33.24.21.11.48.21.48.21l.56.21c.37.14.73.32.73.32.36.18.66.44.66.44.3.26.48.64.48.64.18.38.18.9.18.9 0 .53-.2.97-.2.97-.2.45-.6.78-.6.78-.4.33-.99.53-.99.53-.59.19-1.36.19-1.36.19-.76 0-1.55-.29-1.55-.29-.79-.29-1.38-.77-1.38-.77zm5.484 2.295zm.724-2.126c0-1.2 1.016-1.88 1.016-1.88 1.016-.676 3.28-.907 3.28-.907-.03-.51-.308-.81-.308-.81-.277-.3-.893-.3-.893-.3-.493 0-.985.18-.985.18-.493.18-1.048.51-1.048.51l-.8-1.5c.74-.45 1.547-.73 1.547-.73.81-.28 1.72-.28 1.72-.28 1.48 0 2.26.84 2.26.84.78.84.78 2.61.78 2.61v4.38h-1.85l-.17-.79h-.04c-.49.43-1.04.7-1.04.7-.54.27-1.19.27-1.19.27-.52 0-.94-.18-.94-.18-.41-.18-.71-.5-.71-.5-.29-.32-.45-.73-.45-.73-.16-.42-.16-.91-.16-.91zm0 0zm2.156-.17c0 .37.238.548.238.548.24.177.64.177.64.177.4 0 .677-.17.677-.17.277-.16.585-.47.585-.47v-1.34c-1.216.17-1.678.5-1.678.5-.462.33-.462.77-.462.77zm5.344 2.296zm1.31-5.868h-1.05v-1.68l1.172-.09.262-2.034h1.88v2.033h1.83v1.77h-1.83V11.3c0 .646.268.93.268.93.27.285.716.285.716.285.185 0 .377-.046.377-.046.193-.05.347-.11.347-.11l.354 1.65c-.308.09-.724.18-.724.18-.415.09-.97.09-.97.09-.708 0-1.21-.22-1.21-.22-.5-.22-.815-.6-.815-.6-.32-.39-.47-.94-.47-.94-.15-.55-.15-1.21-.15-1.21V8.23zm4.588 5.868zm2.125-8.763c-.57 0-.94-.34-.94-.34-.37-.33-.37-.86-.37-.86 0-.53.37-.85.37-.85.37-.33.94-.33.94-.33.585 0 .947.32.947.32.362.32.362.84.362.84 0 .52-.362.85-.362.85-.362.33-.947.33-.947.33zm0 0zm-1.125 1.12h2.266v7.64h-2.264V6.46zm3.25 7.64zm1.34-2.3c.525.4 1 .6 1 .6.48.2.973.2.973.2.508 0 .74-.17.74-.17.23-.17.23-.48.23-.48 0-.19-.13-.33-.13-.33-.132-.15-.355-.27-.355-.27-.224-.13-.5-.23-.5-.23-.278-.1-.57-.23-.57-.23-.355-.14-.71-.33-.71-.33-.353-.19-.646-.46-.646-.46-.29-.27-.476-.63-.476-.63-.185-.37-.185-.84-.185-.84 0-.53.21-.97.21-.97.21-.45.6-.76.6-.76.39-.31.93-.48.93-.48.54-.18 1.2-.18 1.2-.18.88 0 1.54.3 1.54.3.67.3 1.16.67 1.16.67l-1.02 1.36c-.41-.31-.81-.48-.81-.48-.4-.17-.8-.17-.8-.17-.86 0-.86.6-.86.6 0 .18.13.31.13.31.13.13.34.24.34.24.21.1.48.2.48.2l.56.21c.37.14.73.32.73.32.36.18.66.44.66.44.3.26.49.64.49.64.19.37.19.9.19.9 0 .52-.2.97-.2.97-.2.44-.6.78-.6.78-.4.33-.98.52-.98.52-.58.19-1.35.19-1.35.19-.75 0-1.54-.29-1.54-.29-.79-.3-1.37-.77-1.37-.77zm5.484 2.29zm5.313-9.04c-.43-.16-.785-.16-.785-.16-.415 0-.646.25-.646.25-.23.25-.23.84-.23.84v.46h1.37v1.78h-1.37v5.87h-2.265V8.23h-1.01V6.55l1.02-.076v-.42c0-.6.15-1.14.15-1.14.15-.54.49-.94.49-.94.34-.4.88-.63.88-.63.54-.24 1.31-.24 1.31-.24.48 0 .87.097.87.097.39.1.66.19.66.19zm-.06 9.04zm2.124-8.77c-.57 0-.94-.33-.94-.33-.37-.33-.37-.86-.37-.86 0-.53.37-.85.37-.85.37-.33.94-.33.94-.33.59 0 .95.32.95.32.36.32.36.84.36.84 0 .52-.36.85-.36.85-.36.33-.94.33-.94.33zm0 0zm-1.12 1.12h2.27v7.64h-2.26V6.46zm3.25 7.64zm.56-3.82c0-.93.31-1.67.31-1.67.31-.75.81-1.26.81-1.26.5-.52 1.15-.8 1.15-.8.65-.28 1.34-.28 1.34-.28.82 0 1.43.28 1.43.28.61.28 1.02.77 1.02.77.41.49.61 1.16.61 1.16.2.67.2 1.45.2 1.45 0 .31-.03.56-.03.56-.03.25-.06.39-.06.39h-4.57c.16.88.69 1.27.69 1.27.54.39 1.31.39 1.31.39.82 0 1.65-.51 1.65-.51l.76 1.37c-.58.4-1.3.63-1.3.63-.71.23-1.41.23-1.41.23-.81 0-1.52-.27-1.52-.27-.71-.27-1.23-.79-1.23-.79-.53-.51-.82-1.25-.82-1.25-.29-.74-.29-1.7-.29-1.7zm0 0zm4.93-.79c0-.66-.29-1.08-.29-1.08-.3-.41-.99-.41-.99-.41-.54 0-.95.36-.95.36-.4.36-.53 1.13-.53 1.13h2.76zm2.5 4.6zm.6-3.82c0-.94.27-1.68.27-1.68.27-.74.71-1.26.71-1.26.44-.52 1.02-.8 1.02-.8.58-.28 1.18-.28 1.18-.28.65 0 1.06.21 1.06.21.42.21.82.58.82.58l-.09-1.17V3.3h2.27v10.8h-1.85l-.15-.754h-.06c-.4.4-.94.67-.94.67-.54.27-1.09.27-1.09.27-.71 0-1.29-.278-1.29-.278-.58-.278-.99-.794-.99-.794-.41-.516-.63-1.255-.63-1.255-.22-.74-.22-1.68-.22-1.68zm0 0zm2.33-.03c0 1.14.36 1.66.36 1.66.36.52 1.03.52 1.03.52.37 0 .67-.16.67-.16.3-.16.58-.54.58-.54V8.6c-.3-.28-.63-.387-.63-.387-.32-.11-.63-.11-.63-.11-.54 0-.95.516-.95.516-.41.51-.41 1.61-.41 1.61zm9.1 3.85zm.37-7.64h2.25l.74 3.54c.09.57.17 1.12.17 1.12.08.55.17 1.14.17 1.14h.07c.11-.59.21-1.16.21-1.16.1-.57.24-1.11.24-1.11l.85-3.54h1.96l.86 3.54c.14.57.25 1.12.25 1.12l.23 1.14h.07c.1-.59.17-1.14.17-1.14.07-.56.18-1.13.18-1.13l.73-3.54h2.1l-1.83 7.64H475l-.69-3.05c-.124-.54-.216-1.08-.216-1.08-.09-.54-.2-1.15-.2-1.15h-.06c-.11.61-.19 1.15-.19 1.15-.085.54-.193 1.07-.193 1.07l-.68 3.05h-2.59zm11.58 7.64zm2.13-8.77c-.57 0-.94-.33-.94-.33-.37-.33-.37-.86-.37-.86 0-.53.37-.85.37-.85.37-.32.94-.32.94-.32.59 0 .95.32.95.32.37.32.37.85.37.85 0 .52-.36.85-.36.85-.36.33-.94.33-.94.33zm0 0zm-1.13 1.13h2.27v7.64h-2.26V6.46zm3.25 7.64zm1.31-5.87h-1.04V6.55l1.17-.09.26-2.034h1.88v2.04h1.84v1.77h-1.83v3.06c0 .646.27.93.27.93.27.285.72.285.72.285.18 0 .37-.04.37-.04.2-.05.35-.11.35-.11l.35 1.65c-.3.09-.72.18-.72.18-.41.09-.97.09-.97.09-.71 0-1.21-.21-1.21-.21-.5-.21-.81-.6-.81-.6-.32-.38-.46-.93-.46-.93-.14-.54-.14-1.2-.14-1.2v-3.1zm4.59 5.87zm1-10.8h2.27v2.65l-.1 1.37c.43-.39 1-.72 1-.72.57-.33 1.36-.33 1.36-.33 1.25 0 1.81.81 1.81.81.56.81.56 2.26.56 2.26v4.74h-2.27V9.64c0-.833-.22-1.14-.22-1.14-.22-.31-.71-.31-.71-.31-.43 0-.73.194-.73.194-.31.193-.67.548-.67.548v5.16H491V3.3zm11 10.8zm1.19-10.04h2.27V7.9h3.47V4.06h2.28v10.042h-2.28v-4.19h-3.46v4.19h-2.26V4.062zm9.2 10.04zm.73-2.13c0-1.2 1.01-1.88 1.01-1.88 1.02-.68 3.28-.91 3.28-.91-.03-.51-.31-.81-.31-.81-.27-.3-.89-.3-.89-.3-.49 0-.98.19-.98.19-.49.19-1.04.51-1.04.51l-.8-1.49c.74-.45 1.55-.72 1.55-.72.81-.28 1.72-.28 1.72-.28 1.48 0 2.26.84 2.26.84.78.84.78 2.61.78 2.61v4.37h-1.85l-.17-.79h-.04c-.49.43-1.04.7-1.04.7-.55.27-1.19.27-1.19.27-.52 0-.94-.17-.94-.17-.41-.18-.7-.5-.7-.5-.29-.32-.45-.73-.45-.73-.16-.42-.16-.91-.16-.91zm0 0zm2.15-.17c0 .37.24.55.24.55.24.18.64.18.64.18.4 0 .68-.17.68-.17.28-.17.58-.47.58-.47v-1.34c-1.21.17-1.68.49-1.68.49-.46.32-.46.77-.46.77zm5.34 2.29zm1.34-2.3c.53.4 1 .6 1 .6.48.2.97.2.97.2.51 0 .74-.17.74-.17.23-.17.23-.48.23-.48 0-.19-.13-.33-.13-.33-.13-.15-.35-.27-.35-.27-.22-.13-.5-.23-.5-.23-.27-.1-.57-.22-.57-.22-.35-.14-.71-.33-.71-.33-.35-.19-.65-.46-.65-.46-.29-.27-.47-.63-.47-.63-.18-.37-.18-.84-.18-.84 0-.53.21-.97.21-.97.21-.45.6-.76.6-.76.39-.31.93-.49.93-.49.54-.18 1.2-.18 1.2-.18.88 0 1.54.3 1.54.3.66.3 1.15.67 1.15.67l-1.05 1.39c-.41-.31-.81-.48-.81-.48-.4-.17-.8-.17-.8-.17-.86 0-.86.6-.86.6 0 .18.13.31.13.31.12.13.33.24.33.24.21.11.48.21.48.21l.56.21c.37.14.73.31.73.31.36.18.66.44.66.44.3.27.48.64.48.64.18.38.18.9.18.9 0 .53-.2.97-.2.97-.2.45-.6.78-.6.78-.4.33-.99.53-.99.53-.59.2-1.36.2-1.36.2-.76 0-1.55-.29-1.55-.29-.8-.29-1.38-.77-1.38-.77zm5.48 2.29zm1-10.8h2.21v6.19h.06l2.42-3.04h2.47l-2.68 3.14 2.88 4.49h-2.45l-1.72-2.97-.97 1.09v1.88h-2.2V3.3zm7.01 10.8zm.56-3.82c0-.93.31-1.67.31-1.67.31-.75.81-1.27.81-1.27.5-.52 1.15-.79 1.15-.79.64-.27 1.34-.27 1.34-.27.81 0 1.42.27 1.42.27.61.27 1.02.77 1.02.77.41.49.61 1.16.61 1.16.2.67.2 1.45.2 1.45 0 .31-.03.56-.03.56-.03.25-.06.39-.06.39h-4.57c.15.88.68 1.27.68 1.27.54.39 1.31.39 1.31.39.82 0 1.65-.51 1.65-.51l.76 1.37c-.58.4-1.3.63-1.3.63-.71.23-1.41.23-1.41.23-.81 0-1.52-.27-1.52-.27-.71-.27-1.23-.79-1.23-.79-.52-.52-.82-1.26-.82-1.26-.29-.74-.29-1.7-.29-1.7zm0 0zm4.93-.79c0-.66-.29-1.08-.29-1.08-.29-.42-.98-.42-.98-.42-.54 0-.95.36-.95.36-.41.36-.53 1.13-.53 1.13h2.76zm2.5 4.6zm1-10.8h2.26v8.52c0 .35.13.49.13.49.13.14.27.14.27.14h.13l.15-.04.28 1.68c-.19.08-.47.13-.47.13-.29.05-.67.05-.67.05-.59 0-.99-.19-.99-.19-.4-.19-.64-.52-.64-.52-.23-.33-.34-.8-.34-.8-.11-.47-.11-1.06-.11-1.06V3.3zm3.4 10.8zm1-10.8h2.27v8.52c0 .35.13.49.13.49.14.14.27.14.27.14h.13l.15-.04.28 1.68c-.18.08-.47.13-.47.13-.28.05-.67.05-.67.05-.58 0-.98-.19-.98-.19-.4-.19-.64-.52-.64-.52-.24-.33-.34-.8-.34-.8-.1-.47-.1-1.06-.1-1.06V3.3zm6.61 10.8zm.73-2.13c0-1.2 1.02-1.88 1.02-1.88 1.02-.68 3.28-.91 3.28-.91-.03-.51-.31-.81-.31-.81-.27-.3-.89-.3-.89-.3-.49 0-.98.18-.98.18-.49.19-1.05.51-1.05.51l-.8-1.49c.74-.45 1.55-.73 1.55-.73.81-.27 1.72-.27 1.72-.27 1.48 0 2.25.84 2.25.84.78.84.78 2.61.78 2.61v4.38h-1.85l-.17-.79h-.04c-.5.43-1.04.7-1.04.7-.55.27-1.2.27-1.2.27-.53 0-.94-.18-.94-.18-.42-.18-.71-.49-.71-.49-.29-.32-.46-.73-.46-.73-.16-.42-.16-.91-.16-.91zm0 0zm2.16-.17c0 .37.24.55.24.55.24.18.64.18.64.18.4 0 .68-.17.68-.17.28-.17.59-.48.59-.48V10.5c-1.22.17-1.68.494-1.68.494-.46.323-.46.77-.46.77zm5.35 2.29zm1.34-2.3c.53.4 1 .6 1 .6.48.2.97.2.97.2.51 0 .74-.17.74-.17.23-.17.23-.48.23-.48 0-.19-.13-.33-.13-.33-.13-.15-.35-.27-.35-.27-.23-.13-.5-.23-.5-.23-.28-.1-.57-.22-.57-.22-.36-.14-.71-.33-.71-.33-.36-.18-.65-.45-.65-.45-.29-.27-.48-.63-.48-.63-.18-.37-.18-.84-.18-.84 0-.53.21-.97.21-.97.21-.45.6-.76.6-.76.38-.31.92-.49.92-.49.54-.18 1.2-.18 1.2-.18.88 0 1.54.3 1.54.3.66.3 1.16.67 1.16.67l-1.02 1.38c-.41-.31-.81-.48-.81-.48-.4-.17-.8-.17-.8-.17-.86 0-.86.6-.86.6 0 .18.13.31.13.31.12.13.33.24.33.24.2.1.47.2.47.2l.57.2c.37.13.73.31.73.31.36.18.67.44.67.44.3.26.48.64.48.64.18.38.18.9.18.9 0 .52-.2.97-.2.97-.2.45-.6.78-.6.78-.4.33-.99.52-.99.52-.59.2-1.36.2-1.36.2-.76 0-1.55-.29-1.55-.29-.79-.29-1.38-.77-1.38-.77zm8.69 2.29zm.73-2.13c0-1.2 1.02-1.88 1.02-1.88 1.02-.68 3.28-.91 3.28-.91-.03-.51-.31-.81-.31-.81-.28-.3-.89-.3-.89-.3-.49 0-.99.18-.99.18-.49.18-1.05.51-1.05.51l-.8-1.5c.74-.44 1.55-.72 1.55-.72.81-.28 1.72-.28 1.72-.28 1.48 0 2.26.84 2.26.84.78.84.78 2.61.78 2.61V14h-1.85l-.17-.79h-.04c-.49.43-1.04.7-1.04.7-.55.27-1.19.27-1.19.27-.52 0-.94-.18-.94-.18-.41-.18-.7-.49-.7-.49-.29-.32-.45-.73-.45-.73-.16-.42-.16-.91-.16-.91zm0 0zm2.16-.17c0 .37.24.55.24.55.24.17.64.17.64.17.4 0 .67-.17.67-.17.28-.16.59-.47.59-.47v-1.3c-1.21.17-1.68.5-1.68.5-.46.32-.46.77-.46.77zm8.55 2.29zm1-10.79h2.26v8.52c0 .36.13.5.13.5.14.14.27.14.27.14h.14l.15-.03.27 1.68c-.18.08-.47.13-.47.13-.28.05-.67.05-.67.05-.58 0-.98-.19-.98-.19-.4-.19-.64-.52-.64-.52-.23-.33-.34-.8-.34-.8-.11-.47-.11-1.06-.11-1.06V3.3zm3.4 10.8zm.73-2.13c0-1.2 1.02-1.88 1.02-1.88 1.02-.68 3.28-.91 3.28-.91-.03-.51-.31-.81-.31-.81-.27-.3-.89-.3-.89-.3-.49 0-.98.19-.98.19-.49.18-1.04.51-1.04.51l-.8-1.5c.74-.45 1.55-.73 1.55-.73.81-.28 1.72-.28 1.72-.28 1.48 0 2.26.84 2.26.84.78.84.78 2.61.78 2.61V14H595l-.17-.79h-.05c-.49.43-1.04.7-1.04.7-.545.27-1.19.27-1.19.27-.523 0-.94-.18-.94-.18-.415-.18-.707-.49-.707-.49-.29-.314-.457-.73-.457-.73-.16-.416-.16-.91-.16-.91zm0 0zm2.16-.17c0 .37.24.55.24.55.24.18.64.18.64.18.4 0 .68-.17.68-.17.28-.17.59-.48.59-.48v-1.3c-1.21.17-1.68.49-1.68.49-.46.32-.46.77-.46.77zm5.35 2.3zm1-7.64h1.85l.16.97h.06c.5-.46 1.08-.81 1.08-.81.59-.34 1.37-.34 1.37-.34 1.25 0 1.81.82 1.81.82.56.82.56 2.26.56 2.26v4.75h-2.26v-4.4c0-.84-.22-1.14-.22-1.14-.22-.31-.71-.31-.71-.31-.43 0-.74.19-.74.19-.3.19-.67.54-.67.54v5.16h-2.27V6.46zm7.81 7.64zm2.39.95c0 .43.47.66.47.66.46.22 1.23.22 1.23.22.77 0 1.26-.27 1.26-.27.49-.27.49-.67.49-.67 0-.35-.3-.48-.3-.48-.3-.12-.87-.12-.87-.12h-.78c-.4 0-.64-.03-.64-.03-.25-.03-.44-.07-.44-.07-.41.37-.41.75-.41.75zm0 0zm-1.86.36c0-.92 1.1-1.54 1.1-1.54v-.06c-.31-.2-.51-.51-.51-.51-.2-.31-.2-.79-.2-.79 0-.42.25-.79.25-.79.25-.38.62-.64.62-.64-.4-.28-.72-.8-.72-.8-.32-.52-.32-1.2-.32-1.2 0-.69.26-1.21.26-1.21.26-.52.7-.86.7-.86.44-.35 1.01-.52 1.01-.52.57-.17 1.19-.17 1.19-.17.68 0 1.19.182 1.19.182h2.79V8.1h-1.22c.11.17.18.432.18.432.07.262.07.57.07.57 0 .662-.23 1.147-.23 1.147-.23.48-.64.8-.64.8-.41.31-.95.47-.95.47-.54.15-1.18.15-1.18.15-.44 0-.92-.16-.92-.16-.15.12-.21.24-.21.24-.06.12-.06.32-.06.32 0 .29.26.43.26.43.25.14.9.14.9.14h1.23c1.42 0 2.16.45 2.16.45.75.45.75 1.48.75 1.48 0 .6-.3 1.1-.3 1.1-.3.5-.85.86-.85.86-.56.36-1.34.57-1.34.57-.79.2-1.77.2-1.77.2-.68 0-1.26-.11-1.26-.11-.58-.12-1.01-.35-1.01-.35-.44-.24-.683-.61-.683-.61-.24-.37-.24-.88-.24-.88zm0 0zm3.37-5.1c.45 0 .75-.32.75-.32.3-.32.3-.96.3-.96 0-.6-.3-.92-.3-.92-.3-.32-.74-.32-.74-.32-.44 0-.74.31-.74.31-.3.31-.3.92-.3.92 0 .64.3.96.3.96.3.31.75.31.75.31zm4.33 3.79zm.93-7.64H618v4.45c0 .83.23 1.14.23 1.14.23.31.72.31.72.31.43 0 .725-.2.725-.2.29-.2.63-.65.63-.65v-5h2.262v7.64h-1.85l-.17-1.07h-.05c-.49.58-1.05.91-1.05.91-.56.33-1.35.33-1.35.33-1.25 0-1.81-.82-1.81-.82-.56-.818-.56-2.26-.56-2.26v-4.7zm7.82 7.64zm.72-2.13c0-1.2 1.02-1.88 1.02-1.88 1.02-.68 3.28-.91 3.28-.91-.03-.51-.31-.81-.31-.81-.27-.3-.89-.3-.89-.3-.49 0-.98.18-.98.18-.5.19-1.05.51-1.05.51l-.8-1.5c.74-.45 1.54-.73 1.54-.73.81-.28 1.72-.28 1.72-.28 1.48 0 2.26.84 2.26.84.77.84.77 2.61.77 2.61V14H629l-.17-.79h-.045c-.49.43-1.04.7-1.04.7-.544.27-1.19.27-1.19.27-.525 0-.94-.18-.94-.18-.416-.18-.71-.49-.71-.49-.29-.312-.453-.73-.453-.73-.16-.42-.16-.91-.16-.91zm0 0zm2.16-.17c0 .37.24.55.24.55.24.18.64.18.64.18.4 0 .68-.17.68-.17.27-.17.58-.48.58-.48v-1.3c-1.21.17-1.68.49-1.68.49-.46.32-.46.77-.46.77zm5.35 2.3zm2.39.95c0 .43.46.65.46.65.46.22 1.23.22 1.23.22.77 0 1.27-.27 1.27-.27.49-.27.49-.67.49-.67 0-.36-.3-.48-.3-.48-.3-.12-.87-.12-.87-.12h-.782c-.4 0-.642-.03-.642-.03-.25-.02-.43-.07-.43-.07-.42.37-.42.76-.42.76zm0 0zm-1.86.35c0-.93 1.09-1.54 1.09-1.54v-.06c-.31-.2-.51-.51-.51-.51-.2-.31-.2-.79-.2-.79 0-.41.25-.79.25-.79.244-.37.614-.64.614-.64-.4-.28-.71-.79-.71-.79-.315-.52-.315-1.2-.315-1.2 0-.69.26-1.21.26-1.21.26-.51.7-.86.7-.86.44-.35 1.01-.52 1.01-.52.57-.17 1.19-.17 1.19-.17.68 0 1.18.18 1.18.18h2.79V8.1h-1.21c.1.17.17.43.17.43.07.26.07.57.07.57 0 .66-.23 1.14-.23 1.14-.23.485-.64.8-.64.8-.41.317-.96.47-.96.47-.54.155-1.174.155-1.174.155-.45 0-.923-.155-.923-.155-.16.12-.22.243-.22.243-.06.123-.06.324-.06.324 0 .29.25.43.25.43.25.14.9.14.9.14h1.23c1.41 0 2.16.452 2.16.452.75.45.75 1.48.75 1.48 0 .6-.3 1.1-.3 1.1-.3.5-.86.86-.86.86-.55.36-1.34.57-1.34.57-.78.21-1.77.21-1.77.21-.68 0-1.25-.12-1.25-.12-.58-.12-1.02-.35-1.02-.35-.44-.24-.687-.61-.687-.61-.247-.37-.247-.88-.247-.88zm0 0zm3.37-5.1c.45 0 .75-.32.75-.32.3-.32.3-.96.3-.96 0-.6-.3-.92-.3-.92-.3-.32-.75-.32-.75-.32-.45 0-.75.31-.75.31-.3.31-.3.92-.3.92 0 .65.3.96.3.96.3.32.74.32.74.32zm4.05 3.79zm.558-3.82c0-.93.31-1.68.31-1.68.31-.74.81-1.26.81-1.26.5-.52 1.15-.79 1.15-.79.65-.28 1.34-.28 1.34-.28.82 0 1.43.28 1.43.28.61.27 1.02.77 1.02.77.41.49.61 1.16.61 1.16.2.67.2 1.45.2 1.45 0 .31-.03.56-.03.56-.03.26-.06.392-.06.392h-4.59c.16.88.69 1.27.69 1.27.53.39 1.3.39 1.3.39.82 0 1.65-.5 1.65-.5l.757 1.37c-.59.4-1.3.63-1.3.63-.72.23-1.41.23-1.41.23-.82 0-1.53-.27-1.53-.27-.71-.27-1.23-.78-1.23-.78-.53-.52-.82-1.26-.82-1.26-.29-.74-.29-1.7-.29-1.7zm0 0zm4.93-.79c0-.66-.29-1.08-.29-1.08-.29-.42-.98-.42-.98-.42-.54 0-.95.36-.95.36-.41.36-.53 1.13-.53 1.13h2.76zm2.497 4.6zm.94-1.23c0-.62.39-1.03.39-1.03.39-.41.978-.41.978-.41.59 0 .98.41.98.41.4.41.4 1.02.4 1.02 0 .6-.39 1.01-.39 1.01-.39.41-.974.41-.974.41-.59 0-.98-.4-.98-.4-.4-.41-.4-1.01-.4-1.01z"/><path fill="none" stroke="#D3D3D3" stroke-miterlimit="10" d="M52.83 738h919.453M52.83 562.25h919.453M52.83 386.5h919.453M52.83 210.75h919.453M52.83 35h919.453" stroke-dasharray="5 5"/><g fill="#5C3566" stroke-opacity="0" stroke-width="0" stroke-miterlimit="10" stroke-linejoin="bevel"><defs><clipPath id="a"><path d="M52.83 35v703h919.453V35z"/></clipPath></defs><g clip-path="url(#a)"><path stroke="none" d="M67.83 738v-6.15h153.89V738z"/></g></g><g fill-opacity="0" stroke-miterlimit="10"><defs><clipPath id="b"><path d="M52.83 35v703h919.453V35z"/></clipPath></defs><g clip-path="url(#b)"><path fill="none" d="M67.83 738v-6.15h153.89V738z"/></g></g><g fill="#5C3566" stroke-opacity="0" stroke-width="0" stroke-miterlimit="10" stroke-linejoin="bevel"><defs><clipPath id="c"><path d="M52.83 35v703h919.453V35z"/></clipPath></defs><g clip-path="url(#c)"><path stroke="none" d="M251.72 738v-30.756h153.892V738z"/></g></g><g fill-opacity="0" stroke-miterlimit="10"><defs><clipPath id="d"><path d="M52.83 35v703h919.453V35z"/></clipPath></defs><g clip-path="url(#d)"><path fill="none" d="M251.72 738v-30.756h153.892V738z"/></g></g><g fill="#5C3566" stroke-opacity="0" stroke-width="0" stroke-miterlimit="10" stroke-linejoin="bevel"><defs><clipPath id="e"><path d="M52.83 35v703h919.453V35z"/></clipPath></defs><g clip-path="url(#e)"><path stroke="none" d="M435.612 738v-73.815h153.89V738z"/></g></g><g fill-opacity="0" stroke-miterlimit="10"><defs><clipPath id="f"><path d="M52.83 35v703h919.453V35z"/></clipPath></defs><g clip-path="url(#f)"><path fill="none" d="M435.612 738v-73.815h153.89V738z"/></g></g><g fill="#5C3566" stroke-opacity="0" stroke-width="0" stroke-miterlimit="10" stroke-linejoin="bevel"><defs><clipPath id="g"><path d="M52.83 35v703h919.453V35z"/></clipPath></defs><g clip-path="url(#g)"><path stroke="none" d="M619.502 738V206.356h153.89V738z"/></g></g><g fill-opacity="0" stroke-miterlimit="10"><defs><clipPath id="h"><path d="M52.83 35v703h919.453V35z"/></clipPath></defs><g clip-path="url(#h)"><path fill="none" d="M619.502 738V206.356h153.89V738z"/></g></g><g fill="#5C3566" stroke-opacity="0" stroke-width="0" stroke-miterlimit="10" stroke-linejoin="bevel"><defs><clipPath id="i"><path d="M52.83 35v703h919.453V35z"/></clipPath></defs><g clip-path="url(#i)"><path stroke="none" d="M803.392 738V303.897h153.89V738z"/></g></g><g fill-opacity="0" stroke-miterlimit="10"><defs><clipPath id="j"><path d="M52.83 35v703h919.453V35z"/></clipPath></defs><g clip-path="url(#j)"><path fill="none" d="M803.392 738V303.897h153.89V738z"/></g></g><path fill="none" stroke-miterlimit="10" d="M52.83 738V35" stroke-linecap="square"/><path fill="none" stroke-miterlimit="10" d="M52.83 738h2m-2-87.875h2m-2-87.875h2m-2-87.875h2m-2-87.875h2m-2-87.875h2m-2-87.875h2m-2-87.875h2M52.83 35h2m-2 703h5m-5-175.75h5m-5-175.75h5m-5-175.75h5M52.83 35h5"/><path stroke="none" d="M38.535 741.445zm2.615.126c-1.02 0-1.586-.9-1.586-.9-.567-.9-.567-2.59-.567-2.59 0-1.69.567-2.57.567-2.57.567-.88 1.586-.88 1.586-.88 1.01 0 1.576.88 1.576.88.567.89.567 2.58.567 2.58 0 1.69-.567 2.6-.567 2.6-.567.91-1.576.91-1.576.91zm0 0zm0-.69c.294 0 .53-.16.53-.16.237-.16.41-.5.41-.5.174-.34.268-.87.268-.87.095-.53.095-1.26.095-1.26 0-.73-.095-1.26-.095-1.26-.094-.52-.268-.85-.268-.85-.173-.33-.41-.49-.41-.49-.236-.16-.53-.16-.53-.16-.294 0-.536.16-.536.16-.24.16-.414.49-.414.49-.174.33-.268.86-.268.86-.095.53-.095 1.26-.095 1.26 0 1.47.363 2.14.363 2.14.362.67.95.67.95.67zM28.01 565.7zm.42-.514c.756-.754 1.344-1.363 1.344-1.363.588-.61.987-1.13.987-1.13.4-.52.61-.955.61-.955.21-.434.21-.844.21-.844 0-.576-.31-.944-.31-.944-.31-.37-.95-.37-.95-.37-.42 0-.77.24-.77.24-.36.235-.65.57-.65.57l-.49-.492c.42-.462.89-.74.89-.74.48-.28 1.14-.28 1.14-.28.94 0 1.47.543 1.47.543.54.54.54 1.44.54 1.44 0 .47-.2.95-.2.95-.2.48-.56.99-.56.99-.36.51-.86 1.06-.86 1.06-.5.56-1.1 1.18-1.1 1.18l.57-.04c.3-.02.56-.02.56-.02h1.94v.75h-4.33v-.51zm4.8.517zm2.616.126c-1.02 0-1.586-.91-1.586-.91-.568-.9-.568-2.6-.568-2.6 0-1.69.567-2.58.567-2.58.56-.88 1.58-.88 1.58-.88 1.01 0 1.57.88 1.57.88.56.88.56 2.57.56 2.57 0 1.69-.57 2.59-.57 2.59-.57.9-1.58.9-1.58.9zm0 0zm0-.7c.294 0 .53-.16.53-.16.236-.16.41-.5.41-.5.173-.34.268-.87.268-.87.094-.53.094-1.27.094-1.27 0-.74-.094-1.26-.094-1.26-.095-.53-.268-.86-.268-.86-.174-.33-.41-.49-.41-.49-.236-.16-.53-.16-.53-.16-.295 0-.536.16-.536.16-.242.15-.415.48-.415.48-.173.33-.268.85-.268.85-.094.52-.094 1.26-.094 1.26 0 1.47.362 2.14.362 2.14.362.66.95.66.95.66zm2.605.57zm2.62.13c-1.02 0-1.58-.9-1.58-.9-.56-.9-.56-2.6-.56-2.6 0-1.69.57-2.58.57-2.58.57-.88 1.59-.88 1.59-.88 1.01 0 1.58.88 1.58.88.57.88.57 2.57.57 2.57 0 1.69-.56 2.59-.56 2.59-.57.9-1.58.9-1.58.9zm0 0zm0-.69c.3 0 .53-.16.53-.16.24-.17.41-.51.41-.51.18-.34.27-.87.27-.87.1-.53.1-1.27.1-1.27 0-.74-.09-1.26-.09-1.26-.09-.53-.27-.86-.27-.86-.17-.33-.41-.49-.41-.49-.23-.16-.53-.16-.53-.16-.29 0-.53.16-.53.16-.24.15-.41.48-.41.48-.17.33-.26.85-.26.85-.09.52-.09 1.26-.09 1.26 0 1.47.37 2.14.37 2.14.36.67.95.67.95.67zM27.81 389.95zm3.195-2.54v-1.943c0-.272.016-.645.016-.645.01-.374.03-.647.03-.647h-.04c-.12.24-.26.475-.26.475-.13.233-.28.474-.28.474l-1.56 2.29H31zm0 0zm1.733.694h-.914v1.846h-.82v-1.85H27.99v-.57l2.868-4.286h.966v4.16h.914v.693zm.295 1.846zm2.62.126c-1.02 0-1.585-.9-1.585-.9-.566-.903-.566-2.595-.566-2.595 0-1.69.567-2.57.567-2.57.56-.88 1.58-.88 1.58-.88 1.01 0 1.57.88 1.57.88.56.89.56 2.58.56 2.58 0 1.69-.57 2.59-.57 2.59-.57.91-1.58.91-1.58.91zm0 0zm0-.69c.295 0 .53-.163.53-.163.238-.164.41-.506.41-.506.175-.34.27-.87.27-.87.094-.53.094-1.266.094-1.266 0-.73-.095-1.26-.095-1.26-.094-.52-.27-.85-.27-.85-.172-.33-.41-.49-.41-.49-.235-.16-.53-.16-.53-.16-.293 0-.535.16-.535.16-.24.16-.414.49-.414.49-.174.33-.27.86-.27.86-.093.53-.093 1.26-.093 1.26 0 1.47.362 2.14.362 2.14.36.67.95.67.95.67zm2.606.567zm2.61.124c-1.02 0-1.59-.902-1.59-.902-.57-.902-.57-2.594-.57-2.594 0-1.69.56-2.57.56-2.57.57-.88 1.58-.88 1.58-.88 1.01 0 1.57.89 1.57.89.56.89.56 2.58.56 2.58 0 1.69-.57 2.6-.57 2.6-.57.91-1.58.91-1.58.91zm0 0zm0-.692c.29 0 .53-.162.53-.162.23-.163.41-.505.41-.505.17-.34.27-.87.27-.87.09-.53.09-1.266.09-1.266 0-.74-.1-1.26-.1-1.26-.1-.53-.27-.86-.27-.86-.18-.33-.41-.488-.41-.488-.24-.16-.53-.16-.53-.16-.3 0-.54.16-.54.16-.24.156-.42.487-.42.487-.18.33-.27.86-.27.86-.09.53-.09 1.26-.09 1.26 0 1.47.36 2.14.36 2.14.36.67.95.67.95.67zM28.13 214.2zm2.82-.557c.257 0 .467-.11.467-.11.21-.105.36-.3.36-.3.16-.194.25-.46.25-.46.09-.27.09-.605.09-.605 0-.662-.305-1.04-.305-1.04-.306-.378-.936-.378-.936-.378-.316 0-.69.203-.69.203-.373.206-.71.678-.71.678.085.99.46 1.5.46 1.5.372.51 1.013.51 1.013.51zm0 0zm1.38-5.026c-.21-.242-.5-.384-.5-.384-.29-.14-.602-.14-.602-.14-.346 0-.66.15-.66.15-.316.145-.558.48-.558.48-.24.337-.39.878-.39.878-.14.54-.16 1.34-.16 1.34.32-.39.74-.61.74-.61.42-.22.83-.22.83-.22.87 0 1.39.52 1.39.52.52.52.52 1.56.52 1.56 0 .49-.16.88-.16.88-.16.4-.43.68-.43.68-.27.29-.63.44-.63.44-.36.16-.77.16-.77.16-.49 0-.91-.2-.91-.2-.42-.2-.73-.6-.73-.6-.31-.4-.49-1.01-.49-1.01-.17-.6-.17-1.41-.17-1.41 0-1.01.21-1.72.21-1.72.21-.71.567-1.15.567-1.15.356-.44.813-.65.813-.65.458-.2.96-.2.96-.2.546 0 .94.21.94.21.394.21.678.51.678.51zm1.03 5.577zm2.616.13c-1.02 0-1.587-.904-1.587-.904-.57-.903-.57-2.595-.57-2.595 0-1.69.56-2.573.56-2.573.56-.883 1.58-.883 1.58-.883 1.01 0 1.57.88 1.57.88.57.88.57 2.57.57 2.57 0 1.69-.57 2.59-.57 2.59-.57.9-1.58.9-1.58.9zm0 0zm0-.694c.293 0 .53-.163.53-.163.235-.16.41-.503.41-.503.172-.34.267-.87.267-.87.097-.53.097-1.266.097-1.266 0-.736-.094-1.26-.094-1.26-.1-.526-.27-.857-.27-.857-.177-.33-.41-.48-.41-.48-.24-.16-.53-.16-.53-.16-.3 0-.54.16-.54.16-.243.16-.416.49-.416.49-.173.33-.268.86-.268.86-.097.53-.097 1.26-.097 1.26 0 1.47.36 2.14.36 2.14.363.67.952.67.952.67zm2.604.567zm2.615.127c-1.02 0-1.587-.9-1.587-.9-.568-.905-.568-2.597-.568-2.597 0-1.69.568-2.572.568-2.572.567-.88 1.586-.88 1.586-.88 1.01 0 1.575.88 1.575.88.56.885.56 2.577.56 2.577 0 1.69-.57 2.594-.57 2.594-.57.9-1.58.9-1.58.9zm0 0zm0-.69c.293 0 .53-.165.53-.165.236-.17.41-.51.41-.51.173-.34.267-.87.267-.87.098-.53.098-1.27.098-1.27 0-.74-.094-1.26-.094-1.26-.092-.53-.266-.86-.266-.86-.174-.33-.41-.49-.41-.49-.237-.16-.53-.16-.53-.16-.295 0-.537.16-.537.16-.24.15-.415.48-.415.48-.17.33-.262.85-.262.85-.097.52-.097 1.26-.097 1.26 0 1.47.36 2.14.36 2.14.36.67.95.67.95.67zm-13.13-175.19zm1.204-1.797c0 .282.11.513.11.513.11.23.3.408.3.408.19.174.45.268.45.268.26.095.56.095.56.095.58 0 .95-.32.95-.32.36-.32.36-.85.36-.85 0-.32-.15-.55-.15-.55-.15-.23-.4-.4-.4-.4-.25-.17-.58-.31-.58-.31-.33-.14-.69-.29-.69-.29-.4.28-.67.64-.67.64-.27.37-.27.83-.27.83zm0 0zm1.89-1.86c.33-.306.52-.64.52-.64.18-.338.18-.706.18-.706 0-.5-.31-.84-.31-.84-.31-.34-.86-.34-.86-.34-.48 0-.78.3-.78.3-.31.3-.31.79-.31.79 0 .31.12.52.12.52.12.22.34.39.34.39.21.17.49.3.49.3.28.13.58.25.58.25zm0 0zm-2.67 1.943c0-.33.11-.61.11-.61.11-.28.28-.508.28-.508.17-.223.4-.4.4-.4.22-.17.46-.3.46-.3v-.04c-.37-.26-.65-.633-.65-.633-.29-.38-.29-.91-.29-.91 0-.39.14-.71.14-.71.14-.32.4-.54.4-.54.25-.23.6-.35.6-.35.34-.13.75-.13.75-.13.44 0 .78.13.78.13.34.13.59.37.59.37.24.23.38.56.38.56.13.33.13.72.13.72 0 .26-.09.5-.09.5-.09.24-.22.45-.22.45-.13.21-.3.37-.3.37-.16.17-.32.28-.32.28v.04c.22.12.43.29.43.29.21.16.37.36.37.36.16.2.26.47.26.47.1.26.1.6.1.6 0 .38-.16.7-.16.7-.16.32-.44.56-.44.56-.29.24-.69.38-.69.38-.4.13-.89.13-.89.13-.47 0-.88-.14-.88-.14-.41-.14-.69-.38-.69-.38-.29-.25-.46-.58-.46-.58-.17-.34-.17-.74-.17-.74zm4.79 1.71zm2.61.12c-1.02 0-1.59-.9-1.59-.9-.57-.905-.57-2.597-.57-2.597 0-1.69.56-2.57.56-2.57.57-.88 1.58-.88 1.58-.88 1.01 0 1.57.88 1.57.88.57.88.57 2.572.57 2.572 0 1.692-.56 2.595-.56 2.595-.56.9-1.57.9-1.57.9zm0 0zm0-.69c.29 0 .53-.165.53-.165.23-.16.41-.504.41-.504.17-.34.27-.87.27-.87.09-.53.09-1.27.09-1.27 0-.73-.09-1.26-.09-1.26-.09-.52-.27-.85-.27-.85-.17-.33-.41-.48-.41-.48-.23-.16-.53-.16-.53-.16-.29 0-.53.16-.53.16-.24.16-.41.49-.41.49-.18.33-.27.86-.27.86-.1.53-.1 1.26-.1 1.26 0 1.47.36 2.14.36 2.14.36.67.95.67.95.67zm2.6.565zm2.61.126c-1.02 0-1.59-.9-1.59-.9-.57-.9-.57-2.6-.57-2.6 0-1.69.57-2.57.57-2.57.56-.88 1.58-.88 1.58-.88 1 0 1.57.88 1.57.88.57.89.57 2.58.57 2.58 0 1.7-.57 2.6-.57 2.6-.57.9-1.57.9-1.57.9zm0 0zm0-.69c.29 0 .53-.16.53-.16.23-.16.41-.5.41-.5.17-.34.26-.87.26-.87.09-.53.09-1.26.09-1.26 0-.73-.1-1.26-.1-1.26-.1-.52-.27-.85-.27-.85-.18-.33-.41-.49-.41-.49-.24-.16-.53-.16-.53-.16-.3 0-.54.16-.54.16-.24.16-.42.49-.42.49-.18.33-.27.86-.27.86-.1.53-.1 1.26-.1 1.26 0 1.47.36 2.14.36 2.14.36.67.95.67.95.67z"/><path fill="none" stroke-miterlimit="10" d="M52.83 738h919.453" stroke-linecap="square"/><path stroke="none" d="M101.945 758zm.967-1.502c.367.39.866.625.866.625.5.236 1.035.236 1.035.236.683 0 1.06-.31 1.06-.31.38-.31.38-.82.38-.82 0-.26-.09-.45-.09-.45-.09-.19-.242-.32-.242-.32-.15-.13-.36-.24-.36-.24-.21-.11-.45-.22-.45-.22l-.98-.43c-.24-.11-.49-.26-.49-.26-.25-.15-.45-.36-.45-.36-.2-.21-.32-.5-.32-.5-.12-.29-.12-.67-.12-.67 0-.39.16-.73.16-.73.17-.34.46-.59.46-.59.29-.25.68-.39.68-.39.4-.14.87-.14.87-.14.62 0 1.15.23 1.15.23.53.24.9.61.9.61l-.47.56c-.31-.31-.7-.48-.7-.48-.38-.17-.86-.17-.86-.17-.57 0-.93.26-.93.26-.35.27-.35.74-.35.74 0 .25.1.42.1.42.1.17.27.3.27.3.17.14.37.23.37.23.2.1.41.19.41.19l.98.42c.3.13.56.29.56.29.26.16.45.38.45.38.19.21.3.5.3.5.11.29.11.66.11.66 0 .41-.17.76-.17.76-.16.35-.47.62-.47.62-.31.26-.74.42-.74.42-.43.15-.97.15-.97.15-.72 0-1.34-.27-1.34-.27-.62-.27-1.07-.75-1.07-.75zm4.642 1.502zm1.01-4.4h-.757v-.653l.798-.052.105-1.43h.725v1.43h1.376v.704h-1.37v2.83c0 .47.18.73.18.73.18.25.62.25.62.25.14 0 .3-.04.3-.04.16-.05.29-.1.29-.1l.17.65c-.21.07-.45.13-.45.13-.24.05-.48.05-.48.05-.41 0-.69-.13-.69-.13-.28-.13-.45-.35-.45-.35-.17-.22-.25-.54-.25-.54-.07-.32-.07-.7-.07-.7v-2.82zm2.54 4.4zm.862-5.105h.715l.08.924h.03c.27-.49.64-.77.64-.77.38-.29.82-.29.82-.29.31 0 .55.1.55.1l-.16.75c-.12-.04-.23-.07-.23-.07-.1-.02-.26-.02-.26-.02-.32 0-.68.26-.68.26-.35.26-.61.91-.61.91v3.3H112v-5.11zm2.68 5.105zm.482-2.542c0-.64.194-1.14.194-1.14.194-.5.52-.845.52-.845.326-.347.75-.525.75-.525.427-.18.9-.18.9-.18.472 0 .897.18.897.18.42.178.75.525.75.525.32.346.52.845.52.845.19.5.19 1.14.19 1.14 0 .63-.2 1.13-.2 1.13-.2.498-.52.84-.52.84-.33.34-.75.52-.75.52-.43.178-.9.178-.9.178-.47 0-.9-.18-.9-.18-.43-.177-.75-.52-.75-.52-.33-.34-.52-.84-.52-.84-.2-.498-.2-1.128-.2-1.128zm0 0zm.893 0c0 .44.11.798.11.798.11.357.3.615.3.615.2.26.47.4.47.4.28.15.6.15.6.15.33 0 .6-.14.6-.14.28-.14.47-.4.47-.4.2-.25.3-.61.3-.61.11-.35.11-.8.11-.8 0-.44-.1-.8-.1-.8-.1-.36-.3-.62-.3-.62-.19-.26-.47-.4-.47-.4-.27-.14-.6-.14-.6-.14-.32 0-.59.14-.59.14-.27.14-.47.41-.47.41-.19.26-.3.63-.3.63-.1.37-.1.81-.1.81zm4.32 2.542zm.86-5.105h.72l.08.735h.03c.37-.367.77-.614.77-.614.41-.247.94-.247.94-.247.81 0 1.19.5 1.19.5.37.5.37 1.49.37 1.49V758h-.86v-3.12c0-.724-.23-1.045-.23-1.045-.23-.32-.73-.32-.73-.32-.4 0-.7.2-.7.2-.3.2-.69.588-.69.588V758h-.86v-5.105zm4.89 5.105zm1.23.86c0 .41.4.653.4.653.4.24 1.09.24 1.09.24.37 0 .67-.088.67-.088.3-.09.51-.23.51-.23.21-.143.33-.332.33-.332.12-.19.12-.39.12-.39 0-.356-.26-.492-.26-.492-.26-.13-.76-.13-.76-.13h-.88c-.14 0-.32-.01-.32-.01-.17-.01-.34-.07-.34-.07-.27.2-.4.42-.4.42-.12.22-.12.44-.12.44zm0 0zm-.75.117c0-.326.2-.62.2-.62.2-.294.55-.535.55-.535v-.042c-.19-.116-.32-.32-.32-.32-.13-.206-.13-.51-.13-.51 0-.326.18-.568.18-.568.18-.24.38-.378.38-.378v-.042c-.25-.21-.45-.562-.45-.562-.2-.352-.2-.814-.2-.814 0-.42.15-.756.15-.756.16-.336.42-.573.42-.573.27-.236.62-.362.62-.362.35-.126.74-.126.74-.126.21 0 .4.03.4.03.19.03.33.09.33.09h1.78v.66h-1.05c.18.18.3.45.3.45.12.27.12.6.12.6 0 .41-.14.74-.14.74-.15.33-.4.55-.4.55-.25.22-.59.35-.59.35-.34.12-.73.12-.73.12-.19 0-.39-.05-.39-.05-.2-.05-.38-.13-.38-.13-.13.11-.23.25-.23.25-.09.14-.09.35-.09.35 0 .24.19.4.19.4.19.16.71.16.71.16h.99c.89 0 1.34.29 1.34.29.45.28.45.92.45.92 0 .35-.18.67-.18.67-.18.32-.51.56-.51.56-.33.24-.81.38-.81.38-.48.14-1.08.14-1.08.14-.47 0-.86-.09-.86-.09-.39-.09-.67-.27-.67-.27-.28-.18-.43-.43-.43-.43-.15-.25-.15-.59-.15-.59zm0 0zm2.11-3.172c.22 0 .42-.084.42-.084.2-.08.35-.24.35-.24.16-.16.24-.38.24-.38.09-.22.09-.51.09-.51 0-.56-.31-.87-.31-.87-.31-.31-.76-.31-.76-.31-.45 0-.76.31-.76.31-.31.31-.31.88-.31.88 0 .29.09.51.09.51.08.23.23.39.23.39.15.16.35.24.35.24.2.09.42.09.42.09zm2.71 2.195zm.86-7.48h.86v6.514c0 .21.08.294.08.294.08.084.17.084.17.084h.08l.11-.02.12.65c-.08.042-.2.063-.2.063-.11.02-.29.02-.29.02-.49 0-.7-.293-.7-.293-.21-.294-.21-.86-.21-.86v-6.45zm1.82 7.48zm.52 1.408l.19.047.2.026c.44 0 .72-.31.72-.31.28-.31.44-.78.44-.78l.12-.38-2.04-5.11h.89l1.04 2.83.25.71c.13.37.25.73.25.73h.04c.12-.34.23-.72.23-.72.1-.38.21-.71.21-.71l.91-2.82h.84l-1.92 5.53c-.13.38-.3.71-.3.71-.17.33-.4.57-.4.57-.23.24-.52.37-.52.37-.29.14-.68.14-.68.14-.18 0-.32-.02-.32-.02-.15-.02-.27-.08-.27-.08l.17-.68zM141.1 758zm.493-2.542c0-.62.18-1.12.18-1.12.186-.498.49-.844.49-.844.305-.347.704-.536.704-.536.4-.19.84-.19.84-.19.44 0 .768.158.768.158.328.158.664.43.664.43l-.05-.87v-1.965h.87V758h-.72l-.07-.6h-.03c-.31.295-.7.51-.7.51-.4.216-.85.216-.85.216-.97 0-1.54-.693-1.54-.693-.57-.693-.57-1.975-.57-1.975zm0 0zm.89-.01c0 .924.37 1.44.37 1.44.367.513 1.04.513 1.04.513.356 0 .67-.17.67-.17.316-.17.63-.53.63-.53v-2.67c-.324-.29-.623-.41-.623-.41-.3-.12-.615-.12-.615-.12-.304 0-.57.14-.57.14-.27.15-.47.4-.47.4-.2.26-.314.62-.314.62-.11.36-.11.8-.11.8zm4.44 2.552zm1.3-6.155c-.25 0-.423-.158-.423-.158-.174-.158-.174-.4-.174-.4 0-.25.172-.404.172-.404.174-.152.426-.152.426-.152.25 0 .43.16.43.16.174.16.174.41.174.41 0 .24-.174.4-.174.4-.175.16-.427.16-.427.16zm0 0zm-.44 1.05h.86V758h-.86v-5.105zM149.5 758zm.725-1.155c.336.273.687.44.687.44.352.17.815.17.815.17.504 0 .756-.232.756-.232.253-.23.253-.567.253-.567 0-.2-.105-.347-.105-.347-.1-.15-.26-.26-.26-.26-.16-.11-.37-.2-.37-.2l-.42-.17c-.27-.1-.54-.22-.54-.22-.27-.12-.49-.3-.49-.3-.21-.18-.35-.41-.35-.41-.14-.23-.14-.56-.14-.56 0-.31.12-.58.12-.58.12-.27.35-.46.35-.46.23-.19.55-.31.55-.31.33-.11.74-.11.74-.11.49 0 .89.17.89.17.41.16.7.41.7.41l-.41.54c-.26-.2-.55-.33-.55-.33-.28-.13-.62-.13-.62-.13-.48 0-.71.22-.71.22-.22.22-.22.51-.22.51 0 .18.1.31.1.31.1.13.25.23.25.23.16.1.37.18.37.18l.43.16c.27.1.55.22.55.22.28.11.5.29.5.29.22.17.36.42.36.42.14.25.14.61.14.61 0 .31-.12.59-.12.59-.12.27-.36.48-.36.48-.23.21-.59.33-.59.33-.35.12-.8.12-.8.12-.54 0-1.04-.2-1.04-.2-.49-.2-.86-.51-.86-.51zM153.9 758zm.61-1.323c0-.84.75-1.287.75-1.287.75-.447 2.39-.625 2.39-.625 0-.242-.047-.473-.047-.473-.048-.23-.168-.41-.168-.41-.12-.178-.32-.29-.32-.29-.2-.11-.516-.11-.516-.11-.45 0-.84.17-.84.17-.39.167-.69.377-.69.377l-.35-.6c.35-.23.87-.45.87-.45.51-.22 1.13-.22 1.13-.22.93 0 1.35.57 1.35.57.42.57.42 1.53.42 1.53V758h-.72l-.07-.61h-.02c-.37.306-.8.52-.8.52-.43.216-.9.216-.9.216-.65 0-1.08-.378-1.08-.378-.43-.378-.43-1.07-.43-1.07zm0 0zm.85-.064c0 .442.257.63.257.63.258.19.636.19.636.19.367 0 .698-.173.698-.173.33-.174.7-.51.7-.51v-1.418c-.64.084-1.08.2-1.08.2-.44.115-.71.273-.71.273-.26.157-.38.362-.38.362-.11.205-.11.446-.11.446zm3.92 1.387zm1.227.86c0 .41.394.653.394.653.4.24 1.09.24 1.09.24.37 0 .67-.088.67-.088.3-.09.51-.23.51-.23.21-.143.33-.332.33-.332.12-.19.12-.39.12-.39 0-.356-.26-.492-.26-.492-.26-.13-.76-.13-.76-.13h-.88c-.14 0-.32-.01-.32-.01-.17-.01-.34-.07-.34-.07-.27.2-.39.42-.39.42-.12.22-.12.44-.12.44zm0 0zm-.756.117c0-.326.2-.62.2-.62.2-.294.55-.535.55-.535v-.042c-.19-.116-.32-.32-.32-.32-.13-.206-.13-.51-.13-.51 0-.326.18-.568.18-.568.18-.24.38-.378.38-.378v-.042c-.25-.21-.46-.562-.46-.562-.2-.352-.2-.814-.2-.814 0-.42.15-.756.15-.756.16-.336.42-.573.42-.573.27-.236.62-.362.62-.362.36-.126.74-.126.74-.126.21 0 .4.03.4.03.19.03.33.09.33.09h1.78v.66h-1.05c.18.18.3.45.3.45.12.27.12.6.12.6 0 .41-.14.74-.14.74-.14.33-.4.55-.4.55-.25.22-.59.35-.59.35-.34.12-.73.12-.73.12-.18 0-.38-.05-.38-.05-.2-.05-.38-.13-.38-.13-.13.11-.23.25-.23.25-.09.14-.09.35-.09.35 0 .24.19.4.19.4.19.16.72.16.72.16h.99c.89 0 1.34.29 1.34.29.45.28.45.92.45.92 0 .35-.18.67-.18.67-.18.32-.52.56-.52.56-.33.24-.81.38-.81.38-.48.14-1.08.14-1.08.14-.47 0-.86-.09-.86-.09-.39-.09-.67-.27-.67-.27-.28-.18-.43-.43-.43-.43-.15-.25-.15-.59-.15-.59zm0 0zm2.11-3.172c.23 0 .42-.084.42-.084.2-.08.35-.24.35-.24.15-.16.24-.38.24-.38.09-.22.09-.51.09-.51 0-.56-.31-.87-.31-.87-.31-.31-.76-.31-.76-.31-.45 0-.76.31-.76.31-.31.31-.31.88-.31.88 0 .29.09.51.09.51.09.23.24.39.24.39.15.16.35.24.35.24.19.09.42.09.42.09zm2.71 2.195zm.87-5.105h.72l.08.924h.04c.26-.49.64-.77.64-.77.38-.29.82-.29.82-.29.31 0 .55.1.55.1l-.17.75c-.12-.04-.23-.07-.23-.07-.1-.02-.26-.02-.26-.02-.33 0-.68.26-.68.26-.35.26-.61.91-.61.91v3.3h-.86v-5.11zm2.67 5.105zm.49-2.542c0-.63.2-1.13.2-1.13.19-.498.51-.845.51-.845.32-.346.73-.53.73-.53.41-.184.85-.184.85-.184.48 0 .87.16.87.16.38.17.64.48.64.48.26.31.39.75.39.75.14.44.14.98.14.98 0 .28-.03.47-.03.47h-3.44c.06.83.51 1.31.51 1.31.46.48 1.2.48 1.2.48.37 0 .68-.11.68-.11.31-.11.6-.29.6-.29l.31.56c-.33.21-.74.37-.74.37-.41.16-.93.16-.93.16-.51 0-.96-.19-.96-.19-.45-.19-.78-.53-.78-.53-.33-.34-.52-.84-.52-.84-.19-.5-.19-1.13-.19-1.13zm0 0zm3.57-.39c0-.786-.33-1.2-.33-1.2-.33-.416-.93-.416-.93-.416-.27 0-.52.11-.52.11-.25.11-.44.315-.44.315-.2.205-.33.504-.33.504-.13.3-.17.69-.17.69h2.73zm1.15 2.932zm.49-2.542c0-.63.2-1.13.2-1.13.19-.498.51-.845.51-.845.32-.346.73-.53.73-.53.41-.184.85-.184.85-.184.48 0 .87.16.87.16.38.17.64.48.64.48.25.31.39.75.39.75.14.44.14.98.14.98 0 .28-.03.47-.03.47h-3.44c.06.83.51 1.31.51 1.31.46.48 1.19.48 1.19.48.37 0 .68-.11.68-.11.31-.11.59-.29.59-.29l.31.56c-.34.21-.74.37-.74.37-.41.16-.93.16-.93.16-.51 0-.96-.19-.96-.19-.45-.19-.78-.53-.78-.53-.33-.34-.52-.84-.52-.84-.19-.5-.19-1.13-.19-1.13zm0 0zm3.57-.39c0-.786-.33-1.2-.33-1.2-.33-.416-.93-.416-.93-.416-.27 0-.52.11-.52.11-.25.11-.44.315-.44.315-.2.205-.34.504-.34.504-.13.3-.17.69-.17.69h2.73zm1.15 2.932zm.69-4.317c0-.305.19-.49.19-.49.19-.182.45-.182.45-.182.25 0 .44.19.44.19.19.19.19.49.19.49 0 .28-.18.47-.18.47-.18.19-.43.19-.43.19-.26 0-.44-.18-.44-.18-.18-.18-.18-.46-.18-.46zm0 0zm0 3.792c0-.305.19-.49.19-.49.19-.182.45-.182.45-.182.25 0 .44.183.44.183.19.184.19.49.19.49 0 .282-.18.466-.18.466-.18.184-.43.184-.43.184-.26 0-.44-.184-.44-.184-.18-.184-.18-.467-.18-.467zm4.06.525zm1.85 0c.04-.945.17-1.733.17-1.733.12-.788.35-1.497.35-1.497.22-.71.58-1.37.58-1.37.35-.663.84-1.356.84-1.356h-3.34v-.746h4.32v.536c-.6.756-.97 1.45-.97 1.45-.37.693-.59 1.412-.59 1.412-.22.72-.32 1.524-.32 1.524-.1.803-.14 1.78-.14 1.78h-.89zm117.63 0zm.95-6.89h1.73c1.6 0 2.43.882 2.43.882.83.882.83 2.53.83 2.53 0 .82-.21 1.466-.21 1.466-.21.646-.62 1.093-.62 1.093-.41.45-1.01.69-1.01.69-.6.24-1.38.24-1.38.24h-1.76v-6.89zm0 0zm1.66 6.176c1.21 0 1.81-.725 1.81-.725.61-.72.61-2.03.61-2.03 0-1.31-.6-2-.6-2-.6-.69-1.81-.69-1.81-.69h-.78v5.46h.79zm3.86.714zm1.31-6.155c-.25 0-.42-.158-.42-.158-.17-.158-.17-.4-.17-.4 0-.25.18-.404.18-.404.17-.152.43-.152.43-.152.25 0 .43.16.43.16.18.16.18.41.18.41 0 .24-.17.4-.17.4-.17.16-.42.16-.42.16zm0 0zm-.44 1.05h.87V758h-.86v-5.105zm1.7 5.105zm.73-1.155c.34.273.69.44.69.44.35.17.81.17.81.17.51 0 .76-.232.76-.232.25-.23.25-.567.25-.567 0-.2-.1-.347-.1-.347-.1-.15-.27-.26-.27-.26-.16-.11-.37-.2-.37-.2l-.42-.17c-.27-.1-.54-.22-.54-.22-.27-.12-.49-.3-.49-.3-.21-.18-.35-.41-.35-.41-.14-.23-.14-.56-.14-.56 0-.31.12-.58.12-.58.12-.27.35-.46.35-.46.23-.19.56-.31.56-.31.33-.11.73-.11.73-.11.49 0 .89.17.89.17.41.16.7.41.7.41l-.41.54c-.26-.2-.54-.33-.54-.33-.28-.13-.62-.13-.62-.13-.48 0-.71.22-.71.22-.22.22-.22.51-.22.51 0 .18.1.31.1.31.1.13.25.23.25.23.16.1.37.18.37.18l.43.16c.28.1.55.22.55.22.28.11.5.29.5.29.22.17.37.42.37.42.14.25.14.61.14.61 0 .31-.12.59-.12.59-.12.27-.36.48-.36.48-.23.21-.58.33-.58.33-.35.12-.8.12-.8.12-.55 0-1.04-.2-1.04-.2-.5-.2-.86-.51-.86-.51zm3.68 1.155zm.61-1.323c0-.84.75-1.287.75-1.287.75-.447 2.39-.625 2.39-.625 0-.242-.05-.473-.05-.473-.04-.23-.16-.41-.16-.41-.12-.178-.32-.29-.32-.29-.2-.11-.51-.11-.51-.11-.45 0-.84.17-.84.17-.38.167-.68.377-.68.377l-.35-.6c.35-.23.87-.45.87-.45.51-.22 1.13-.22 1.13-.22.93 0 1.35.57 1.35.57.42.57.42 1.53.42 1.53V758h-.72l-.08-.61c-.37.306-.79.52-.79.52-.43.216-.9.216-.9.216-.65 0-1.08-.378-1.08-.378-.42-.378-.42-1.07-.42-1.07zm0 0zm.85-.064c0 .442.26.63.26.63.26.19.64.19.64.19.37 0 .7-.173.7-.173.33-.174.7-.51.7-.51v-1.418c-.64.084-1.08.2-1.08.2-.44.115-.71.273-.71.273-.27.157-.38.362-.38.362-.11.205-.11.446-.11.446zm3.92 1.387zm1.23.86c0 .41.39.653.39.653.39.24 1.08.24 1.08.24.36 0 .66-.088.66-.088.3-.09.51-.23.51-.23.21-.143.32-.332.32-.332.11-.19.11-.39.11-.39 0-.356-.26-.492-.26-.492-.27-.13-.77-.13-.77-.13H324c-.147 0-.32-.01-.32-.01-.173-.01-.34-.07-.34-.07-.275.2-.4.42-.4.42-.127.22-.127.44-.127.44zm0 0zm-.76.117c0-.326.2-.62.2-.62.19-.294.54-.535.54-.535v-.042c-.19-.116-.32-.32-.32-.32-.13-.206-.13-.51-.13-.51 0-.326.18-.568.18-.568.18-.24.38-.378.38-.378v-.042c-.26-.21-.46-.562-.46-.562-.21-.352-.21-.814-.21-.814 0-.42.15-.756.15-.756.15-.336.41-.573.41-.573.26-.236.61-.362.61-.362.35-.126.74-.126.74-.126.21 0 .39.03.39.03.19.03.33.09.33.09h1.78v.66h-1.05c.18.18.3.45.3.45.12.27.12.6.12.6 0 .41-.14.74-.14.74-.14.33-.4.55-.4.55-.25.22-.59.35-.59.35-.34.12-.73.12-.73.12-.19 0-.38-.05-.38-.05-.2-.05-.38-.13-.38-.13-.13.11-.23.25-.23.25-.09.14-.09.35-.09.35 0 .24.19.4.19.4.19.16.71.16.71.16h.99c.9 0 1.34.29 1.34.29.45.28.45.92.45.92 0 .35-.18.67-.18.67-.18.32-.51.56-.51.56-.33.24-.81.38-.81.38-.47.14-1.07.14-1.07.14-.47 0-.86-.09-.86-.09-.39-.09-.67-.27-.67-.27-.28-.18-.43-.43-.43-.43-.15-.25-.15-.59-.15-.59zm0 0zm2.11-3.172c.22 0 .41-.084.41-.084.19-.08.35-.24.35-.24.15-.16.23-.38.23-.38.08-.22.08-.51.08-.51 0-.56-.32-.87-.32-.87-.32-.31-.77-.31-.77-.31-.45 0-.77.31-.77.31-.31.31-.31.88-.31.88 0 .29.08.51.08.51.09.23.24.39.24.39.15.16.35.24.35.24.19.09.41.09.41.09zm2.71 2.195zm.86-5.105h.71l.07.924h.03c.26-.49.63-.77.63-.77.37-.29.81-.29.81-.29.3 0 .55.1.55.1l-.17.75-.23-.07c-.1-.02-.26-.02-.26-.02-.32 0-.68.26-.68.26-.35.26-.61.91-.61.91v3.3h-.86v-5.11zm2.68 5.105zm.48-2.542c0-.63.19-1.13.19-1.13.19-.498.51-.845.51-.845.32-.346.73-.53.73-.53.41-.184.85-.184.85-.184.48 0 .87.16.87.16.38.17.64.48.64.48.26.31.39.75.39.75.13.44.13.98.13.98 0 .28-.03.47-.03.47h-3.45c.06.83.51 1.31.51 1.31.46.48 1.19.48 1.19.48.37 0 .68-.11.68-.11.31-.11.6-.29.6-.29l.31.56c-.33.21-.74.37-.74.37-.41.16-.94.16-.94.16-.51 0-.96-.19-.96-.19-.44-.19-.78-.53-.78-.53-.33-.34-.52-.84-.52-.84-.19-.5-.19-1.13-.19-1.13zm0 0zm3.57-.39c0-.786-.33-1.2-.33-1.2-.33-.416-.93-.416-.93-.416-.27 0-.52.11-.52.11-.25.11-.45.315-.45.315-.2.205-.33.504-.33.504-.14.3-.18.69-.18.69h2.73zm1.16 2.932zm.48-2.542c0-.63.19-1.13.19-1.13.19-.498.51-.845.51-.845.32-.346.73-.53.73-.53.41-.184.85-.184.85-.184.48 0 .86.16.86.16.39.17.64.48.64.48.26.31.4.75.4.75.14.44.14.98.14.98 0 .28-.03.47-.03.47h-3.44c.05.83.51 1.31.51 1.31.46.48 1.19.48 1.19.48.37 0 .68-.11.68-.11.31-.11.59-.29.59-.29l.31.56c-.33.21-.74.37-.74.37-.41.16-.94.16-.94.16-.51 0-.96-.19-.96-.19-.44-.19-.78-.53-.78-.53-.33-.34-.52-.84-.52-.84-.19-.5-.19-1.13-.19-1.13zm0 0zm3.57-.39c0-.786-.33-1.2-.33-1.2-.33-.416-.93-.416-.93-.416-.28 0-.52.11-.52.11-.25.11-.45.315-.45.315-.2.205-.33.504-.33.504-.13.3-.18.69-.18.69h2.73zm1.16 2.932zm.68-4.317c0-.305.18-.49.18-.49.18-.182.44-.182.44-.182.26 0 .44.19.44.19.19.19.19.49.19.49 0 .28-.18.47-.18.47-.18.19-.43.19-.43.19-.26 0-.44-.18-.44-.18-.18-.18-.18-.46-.18-.46zm0 0zm0 3.792c0-.305.18-.49.18-.49.18-.182.44-.182.44-.182.26 0 .44.183.44.183.19.184.19.49.19.49 0 .282-.18.466-.18.466-.18.184-.43.184-.43.184-.26 0-.44-.184-.44-.184-.18-.184-.18-.467-.18-.467zm4.05.525zm.71-1.387c.3.315.71.557.71.557.4.242 1 .242 1 .242.61 0 .99-.33.99-.33.39-.332.39-.9.39-.9 0-.293-.11-.54-.11-.54-.11-.247-.37-.426-.37-.426-.25-.178-.66-.273-.66-.273-.41-.094-1.01-.094-1.01-.094v-.67c.54 0 .9-.1.9-.1.37-.1.59-.26.59-.26.23-.17.32-.4.32-.4.1-.23.1-.5.1-.5 0-.5-.31-.78-.31-.78-.31-.29-.84-.29-.84-.29-.42 0-.77.19-.77.19-.35.18-.66.49-.66.49l-.46-.55c.39-.37.86-.61.86-.61.47-.24 1.06-.24 1.06-.24.45 0 .81.11.81.11.37.11.64.33.64.33.27.21.41.53.41.53.15.31.15.72.15.72 0 .61-.33 1-.33 1-.33.39-.88.6-.88.6v.04c.31.07.57.21.57.21.26.14.46.35.46.35.2.21.31.5.31.5.11.28.11.63.11.63 0 .44-.17.79-.17.79-.17.35-.47.6-.47.6-.3.25-.7.38-.7.38-.39.13-.86.13-.86.13-.4 0-.73-.08-.73-.08-.33-.08-.6-.21-.6-.21-.27-.13-.49-.3-.49-.3-.22-.17-.38-.36-.38-.36zM350.8 758zm.68-1.355c.296.305.7.536.7.536.404.24.993.24.993.24.304 0 .572-.11.572-.11.268-.11.467-.31.467-.31.2-.2.316-.48.316-.48.115-.28.115-.63.115-.63 0-.69-.39-1.08-.39-1.08-.387-.39-1.04-.39-1.04-.39-.345 0-.592.11-.592.11-.24.11-.55.31-.55.31l-.46-.29.22-3.22h3.35v.75h-2.59l-.18 1.99c.24-.13.49-.2.49-.2.24-.07.55-.07.55-.07.43 0 .81.13.81.13.38.13.66.39.66.39.29.26.45.65.45.65.17.4.17.94.17.94 0 .55-.19.97-.19.97-.19.42-.5.71-.5.71-.31.29-.72.44-.72.44-.4.15-.84.15-.84.15-.4 0-.73-.08-.73-.08-.33-.08-.6-.2-.6-.2-.27-.12-.48-.28-.48-.28-.21-.16-.38-.34-.38-.34zM489.232 758zm.945-6.89h.904l2.49 4.327.75 1.43h.04c-.03-.527-.07-1.09-.07-1.09-.03-.56-.03-1.107-.03-1.107v-3.56h.83V758h-.9l-2.5-4.338-.74-1.418h-.04c.05.525.08 1.066.08 1.066.04.54.04 1.087.04 1.087V758h-.83v-6.89zm5.85 6.89zm.485-2.542c0-.63.194-1.13.194-1.13.194-.498.515-.845.515-.845.32-.346.73-.53.73-.53.41-.184.85-.184.85-.184.49 0 .87.16.87.16.39.17.64.48.64.48.26.31.4.75.4.75.14.44.14.98.14.98 0 .28-.03.47-.03.47h-3.44c.06.83.51 1.31.51 1.31.46.48 1.19.48 1.19.48.37 0 .68-.11.68-.11.31-.11.59-.29.59-.29l.31.56c-.33.21-.74.37-.74.37-.41.16-.93.16-.93.16-.51 0-.96-.19-.96-.19-.45-.19-.78-.53-.78-.53-.33-.34-.52-.84-.52-.84-.19-.5-.19-1.13-.19-1.13zm0 0zm3.57-.39c0-.786-.33-1.2-.33-1.2-.33-.416-.93-.416-.93-.416-.273 0-.52.11-.52.11-.246.11-.446.315-.446.315-.2.205-.33.504-.33.504-.132.3-.174.69-.174.69h2.73zM501.24 758zm.788-5.105h.872v3.12c0 .724.226 1.045.226 1.045.226.32.73.32.73.32.4 0 .704-.205.704-.205.304-.204.672-.656.672-.656v-3.63h.86V758h-.713l-.08-.798h-.03c-.36.42-.75.672-.75.672-.4.252-.93.252-.93.252-.82 0-1.2-.504-1.2-.504-.38-.504-.38-1.492-.38-1.492v-3.235zm4.927 5.105zm1.008-4.4h-.755v-.653l.798-.052.105-1.43h.73v1.43h1.38v.704h-1.37v2.83c0 .47.18.73.18.73.18.25.62.25.62.25.14 0 .3-.04.3-.04.16-.05.28-.1.28-.1l.17.65c-.21.07-.45.13-.45.13-.25.05-.49.05-.49.05-.41 0-.69-.13-.69-.13-.28-.13-.45-.35-.45-.35-.17-.22-.24-.54-.24-.54-.07-.32-.07-.7-.07-.7v-2.82zm2.543 4.4zm.862-5.105h.714l.072.924h.032c.262-.49.635-.77.635-.77.38-.29.82-.29.82-.29.31 0 .55.1.55.1l-.16.75c-.12-.04-.23-.07-.23-.07-.1-.02-.26-.02-.26-.02-.32 0-.68.26-.68.26-.35.26-.61.91-.61.91v3.3h-.86v-5.11zm2.52 5.105zm.61-1.323c0-.84.75-1.287.75-1.287.752-.447 2.39-.625 2.39-.625 0-.242-.047-.473-.047-.473-.04-.23-.16-.41-.16-.41-.12-.178-.32-.29-.32-.29-.2-.11-.51-.11-.51-.11-.45 0-.83.17-.83.17-.38.167-.69.377-.69.377l-.34-.6c.36-.23.87-.45.87-.45.52-.22 1.14-.22 1.14-.22.94 0 1.36.57 1.36.57.42.57.42 1.53.42 1.53V758h-.71l-.07-.61h-.02c-.36.306-.79.52-.79.52-.42.216-.9.216-.9.216-.65 0-1.07-.378-1.07-.378-.42-.378-.42-1.07-.42-1.07zm0 0zm.85-.064c0 .442.258.63.258.63.257.19.635.19.635.19.37 0 .7-.173.7-.173.33-.174.7-.51.7-.51v-1.418c-.64.084-1.08.2-1.08.2-.44.115-.71.273-.71.273-.27.157-.38.362-.38.362-.11.205-.11.446-.11.446zm3.92 1.387zm.86-7.48h.86v6.514c0 .21.075.294.075.294.073.084.168.084.168.084h.08l.11-.02.12.65c-.08.042-.2.063-.2.063-.11.02-.29.02-.29.02-.49 0-.7-.293-.7-.293-.21-.294-.21-.86-.21-.86v-6.45zm1.817 7.48zm.683-4.317c0-.305.184-.49.184-.49.183-.182.445-.182.445-.182.252 0 .436.19.436.19.185.19.185.49.185.49 0 .28-.184.47-.184.47-.183.19-.435.19-.435.19-.27 0-.45-.18-.45-.18-.19-.18-.19-.46-.19-.46zm0 0zm0 3.792c0-.305.184-.49.184-.49.183-.182.445-.182.445-.182.252 0 .436.183.436.183.185.184.185.49.185.49 0 .282-.184.466-.184.466-.183.184-.435.184-.435.184-.27 0-.45-.184-.45-.184-.19-.184-.19-.467-.19-.467zm4.055.525zm1.208-1.796c0 .283.11.515.11.515.11.23.31.4.31.4.2.17.46.27.46.27.26.09.57.09.57.09.59 0 .95-.33.95-.33.37-.33.37-.85.37-.85 0-.33-.14-.56-.14-.56-.15-.23-.4-.41-.4-.41-.25-.18-.58-.32-.58-.32-.33-.15-.69-.29-.69-.29-.4.27-.67.63-.67.63-.26.36-.26.82-.26.82zm0 0zm1.89-1.86c.34-.304.52-.64.52-.64.19-.336.19-.704.19-.704 0-.504-.3-.846-.3-.846-.3-.34-.86-.34-.86-.34-.47 0-.78.293-.78.293-.3.294-.3.788-.3.788 0 .304.13.52.13.52.13.215.34.383.34.383.22.168.5.3.5.3.28.13.59.246.59.246zm0 0zm-2.66 1.944c0-.326.11-.604.11-.604.11-.28.29-.504.29-.504.18-.226.4-.4.4-.4.23-.173.47-.3.47-.3v-.04c-.36-.264-.65-.637-.65-.637-.28-.372-.28-.908-.28-.908 0-.39.15-.704.15-.704.15-.31.4-.54.4-.54.25-.22.6-.35.6-.35.35-.12.76-.12.76-.12.44 0 .79.13.79.13.35.14.6.37.6.37.25.24.38.57.38.57.13.33.13.72.13.72 0 .26-.08.51-.08.51-.09.24-.22.45-.22.45-.13.21-.29.38-.29.38-.16.17-.32.28-.32.28v.04c.22.13.43.29.43.29.21.16.38.37.38.37.16.21.26.47.26.47.1.27.1.6.1.6 0 .38-.16.71-.16.71-.15.33-.44.57-.44.57-.28.25-.68.38-.68.38-.4.14-.88.14-.88.14-.47 0-.88-.14-.88-.14-.4-.13-.69-.38-.69-.38-.29-.24-.45-.58-.45-.58-.16-.33-.16-.73-.16-.73zM531.9 758zm3.193-2.542v-1.943c0-.273.016-.646.016-.646.01-.38.03-.65.03-.65h-.04c-.13.24-.27.47-.27.47l-.29.47-1.57 2.29h2.1zm0 0zm1.734.693h-.914V758h-.82v-1.85h-3.014v-.566l2.86-4.286h.96v4.16h.91v.693zM674.03 758zm3.877-2.805l-.326-1.05c-.18-.578-.35-1.15-.35-1.15-.17-.573-.33-1.17-.33-1.17h-.04c-.15.597-.32 1.17-.32 1.17-.16.572-.35 1.15-.35 1.15l-.32 1.05h2.07zm0 0zm.22.704h-2.51l-.662 2.1h-.892l2.33-6.89h.99l2.33 6.89h-.934zm1.618 2.1zm1.23.86c0 .41.393.65.393.65.394.24 1.087.24 1.087.24.368 0 .667-.09.667-.09.3-.09.51-.23.51-.23.21-.15.326-.33.326-.33.115-.19.115-.39.115-.39 0-.36-.262-.49-.262-.49-.26-.14-.76-.14-.76-.14h-.88c-.14 0-.32-.02-.32-.02-.17-.02-.34-.07-.34-.07-.27.2-.4.42-.4.42-.12.22-.12.44-.12.44zm0 0zm-.757.11c0-.33.2-.62.2-.62.2-.3.546-.54.546-.54v-.04c-.19-.12-.32-.32-.32-.32-.132-.21-.132-.51-.132-.51 0-.33.18-.57.18-.57.177-.24.377-.38.377-.38v-.05c-.26-.21-.46-.56-.46-.56-.21-.35-.21-.82-.21-.82 0-.42.15-.76.15-.76.15-.34.41-.57.41-.57.26-.24.61-.36.61-.36.35-.13.74-.13.74-.13.21 0 .39.03.39.03.18.04.33.09.33.09h1.77v.66h-1.05c.18.18.3.45.3.45.12.27.12.6.12.6 0 .41-.15.74-.15.74-.15.33-.4.55-.4.55-.25.22-.6.35-.6.35-.34.12-.73.12-.73.12-.19 0-.39-.05-.39-.05-.2-.05-.38-.13-.38-.13-.14.11-.23.25-.23.25-.1.14-.1.35-.1.35 0 .24.19.4.19.4.19.15.71.15.71.15h.98c.9 0 1.34.29 1.34.29.45.29.45.93.45.93 0 .36-.18.68-.18.68-.18.32-.52.56-.52.56-.34.24-.81.38-.81.38-.48.14-1.08.14-1.08.14-.47 0-.86-.09-.86-.09-.39-.09-.67-.27-.67-.27-.28-.18-.43-.43-.43-.43-.15-.25-.15-.59-.15-.59zm0 0zm2.11-3.17c.222 0 .416-.09.416-.09.195-.09.347-.24.347-.24.16-.16.24-.39.24-.39.09-.23.09-.51.09-.51 0-.57-.31-.88-.31-.88-.31-.31-.76-.31-.76-.31-.45 0-.76.31-.76.31-.31.31-.31.87-.31.87 0 .28.09.51.09.51.09.22.24.38.24.38.15.15.35.24.35.24.2.08.42.08.42.08zm2.712 2.2zm.86-5.11h.715l.074.92h.03c.26-.49.63-.77.63-.77.37-.29.81-.29.81-.29.3 0 .54.1.54.1l-.17.75c-.13-.04-.23-.06-.23-.06-.11-.02-.27-.02-.27-.02-.33 0-.68.26-.68.26-.36.26-.62.91-.62.91v3.3h-.86v-5.11zm2.68 5.1zm.483-2.55c0-.63.194-1.13.194-1.13.194-.5.515-.85.515-.85.32-.35.73-.53.73-.53.41-.19.85-.19.85-.19.484 0 .867.16.867.16.38.17.64.48.64.48.25.31.39.75.39.75.13.44.13.99.13.99 0 .28-.03.47-.03.47h-3.45c.05.83.51 1.31.51 1.31.45.48 1.19.48 1.19.48.37 0 .68-.11.68-.11.31-.11.59-.29.59-.29l.3.57c-.34.21-.75.36-.75.36-.41.16-.94.16-.94.16-.52 0-.96-.18-.96-.18-.45-.19-.78-.53-.78-.53-.33-.34-.52-.84-.52-.84-.19-.49-.19-1.12-.19-1.12zm0 0zm3.57-.39c0-.79-.33-1.2-.33-1.2-.33-.42-.93-.42-.93-.42-.273 0-.52.11-.52.11-.246.11-.446.31-.446.31-.2.2-.33.5-.33.5-.132.3-.174.69-.174.69h2.73zm1.157 2.94zm.483-2.55c0-.63.194-1.13.194-1.13.194-.5.515-.85.515-.85.32-.35.73-.53.73-.53.41-.19.85-.19.85-.19.484 0 .867.16.867.16.38.17.64.48.64.48.25.31.39.75.39.75.13.44.13.98.13.98 0 .28-.03.47-.03.47h-3.45c.05.83.51 1.31.51 1.31.45.48 1.19.48 1.19.48.37 0 .68-.11.68-.11.31-.11.59-.29.59-.29l.3.57c-.34.21-.75.37-.75.37-.41.16-.94.16-.94.16-.52 0-.96-.19-.96-.19-.45-.19-.78-.53-.78-.53-.33-.34-.52-.84-.52-.84-.19-.5-.19-1.13-.19-1.13zm0 0zm3.57-.39c0-.79-.33-1.2-.33-1.2-.33-.42-.93-.42-.93-.42-.273 0-.52.11-.52.11-.246.11-.446.31-.446.31-.2.2-.33.5-.33.5-.132.3-.174.69-.174.69h2.73zM699 758zm.682-4.317c0-.305.184-.49.184-.49.184-.182.447-.182.447-.182.252 0 .436.19.436.19.18.19.18.49.18.49 0 .28-.19.47-.19.47-.19.19-.44.19-.44.19-.27 0-.45-.18-.45-.18-.19-.18-.19-.46-.19-.46zm0 0zm0 3.792c0-.305.184-.49.184-.49.184-.182.447-.182.447-.182.252 0 .436.183.436.183.18.184.18.49.18.49 0 .282-.19.466-.19.466-.19.184-.44.184-.44.184-.27 0-.45-.184-.45-.184-.19-.184-.19-.467-.19-.467zm4.055.525zm2.815-.557c.252 0 .462-.105.462-.105.21-.105.368-.3.368-.3.158-.193.247-.46.247-.46.08-.27.08-.605.08-.605 0-.662-.31-1.04-.31-1.04-.31-.378-.94-.378-.94-.378-.32 0-.69.204-.69.204-.37.2-.71.67-.71.67.08.98.45 1.49.45 1.49.37.51 1.01.51 1.01.51zm0 0zm1.376-5.02c-.21-.242-.5-.384-.5-.384-.288-.15-.603-.15-.603-.15-.346 0-.662.14-.662.14-.315.14-.556.48-.556.48-.242.33-.39.87-.39.87-.146.54-.157 1.34-.157 1.34.316-.39.736-.62.736-.62.42-.23.83-.23.83-.23.87 0 1.39.51 1.39.51.52.51.52 1.55.52 1.55 0 .48-.156.88-.156.88-.158.39-.43.67-.43.67-.274.28-.63.44-.63.44-.358.15-.768.15-.768.15-.494 0-.914-.2-.914-.2-.42-.2-.73-.61-.73-.61-.31-.4-.488-1.01-.488-1.01-.18-.6-.18-1.41-.18-1.41 0-1.01.21-1.72.21-1.72.21-.71.568-1.15.568-1.15.357-.45.814-.65.814-.65.457-.21.962-.21.962-.21.546 0 .94.2.94.2.394.2.677.51.677.51zm1.03 5.577zm2.615.126c-1.02 0-1.586-.903-1.586-.903-.567-.904-.567-2.595-.567-2.595 0-1.69.567-2.573.567-2.573.567-.883 1.586-.883 1.586-.883 1.008 0 1.576.883 1.576.883.56.882.56 2.573.56 2.573 0 1.69-.57 2.595-.57 2.595-.57.903-1.58.903-1.58.903zm0 0zm0-.693c.294 0 .53-.163.53-.163.237-.163.41-.504.41-.504.174-.342.268-.872.268-.872.1-.53.1-1.266.1-1.266 0-.735-.09-1.26-.09-1.26-.09-.525-.26-.856-.26-.856-.17-.33-.41-.49-.41-.49-.23-.156-.53-.156-.53-.156-.29 0-.53.157-.53.157-.24.158-.41.49-.41.49-.17.33-.26.855-.26.855-.09.525-.09 1.26-.09 1.26 0 1.47.36 2.138.36 2.138.37.667.95.667.95.667zm2.605.567zm.683-1.355c.3.305.7.536.7.536.41.24 1 .24 1 .24.31 0 .58-.11.58-.11.27-.11.47-.31.47-.31.2-.2.32-.48.32-.48.12-.28.12-.63.12-.63 0-.69-.39-1.08-.39-1.08-.39-.39-1.04-.39-1.04-.39-.34 0-.59.11-.59.11-.24.11-.55.31-.55.31l-.46-.29.22-3.22h3.35v.75H716l-.18 1.99c.24-.13.48-.2.48-.2.24-.07.547-.07.547-.07.43 0 .81.13.81.13.376.13.66.39.66.39.284.26.446.65.446.65.166.4.166.94.166.94 0 .55-.19.97-.19.97-.19.42-.5.71-.5.71-.32.29-.72.44-.72.44-.41.15-.85.15-.85.15-.4 0-.73-.08-.73-.08-.33-.08-.6-.2-.6-.2-.27-.12-.48-.28-.48-.28-.21-.16-.38-.34-.38-.34zM838.62 758zm.966-1.502c.368.39.867.625.867.625.5.236 1.035.236 1.035.236.682 0 1.06-.31 1.06-.31.38-.31.38-.82.38-.82 0-.26-.09-.45-.09-.45-.09-.19-.242-.32-.242-.32-.152-.13-.363-.24-.363-.24-.21-.11-.45-.22-.45-.22l-.99-.43c-.24-.11-.492-.26-.492-.26-.25-.15-.45-.36-.45-.36-.2-.21-.32-.5-.32-.5-.12-.29-.12-.67-.12-.67 0-.39.17-.73.17-.73.17-.34.46-.59.46-.59.29-.25.69-.39.69-.39.4-.14.87-.14.87-.14.62 0 1.15.23 1.15.23.53.24.9.61.9.61l-.47.56c-.31-.31-.7-.48-.7-.48-.39-.17-.87-.17-.87-.17-.58 0-.93.26-.93.26-.35.27-.35.74-.35.74 0 .25.1.42.1.42.1.17.27.3.27.3.17.14.37.23.37.23.2.1.41.19.41.19l.98.42c.3.13.56.29.56.29.27.16.46.38.46.38.19.21.3.5.3.5.11.29.11.66.11.66 0 .41-.16.76-.16.76-.16.35-.46.62-.46.62-.3.26-.73.42-.73.42-.43.15-.97.15-.97.15-.73 0-1.35-.27-1.35-.27-.62-.27-1.07-.75-1.07-.75zM844.23 758zm1.008-4.4h-.757v-.653l.8-.052.11-1.43h.73v1.43h1.38v.704h-1.37v2.83c0 .47.17.73.17.73.18.25.62.25.62.25.14 0 .3-.04.3-.04.16-.05.29-.1.29-.1l.17.65c-.21.07-.45.13-.45.13-.24.05-.49.05-.49.05-.41 0-.68-.13-.68-.13-.28-.13-.45-.35-.45-.35-.17-.22-.24-.54-.24-.54-.07-.32-.07-.7-.07-.7v-2.82zm2.542 4.4zm.86-5.105h.715l.074.924h.03c.26-.49.63-.77.63-.77.37-.29.81-.29.81-.29.3 0 .54.1.54.1l-.17.75-.23-.07c-.11-.02-.27-.02-.27-.02-.33 0-.68.26-.68.26-.36.26-.62.91-.62.91v3.3h-.86v-5.11zm2.68 5.105zm.483-2.542c0-.64.194-1.14.194-1.14.194-.5.52-.845.52-.845.326-.347.75-.525.75-.525.426-.18.9-.18.9-.18.472 0 .897.18.897.18.426.178.75.525.75.525.327.346.52.845.52.845.196.5.196 1.14.196 1.14 0 .63-.195 1.13-.195 1.13-.194.498-.52.84-.52.84-.325.34-.75.52-.75.52-.426.178-.9.178-.9.178-.472 0-.897-.18-.897-.18-.425-.177-.75-.52-.75-.52-.327-.34-.52-.84-.52-.84-.195-.498-.195-1.128-.195-1.128zm0 0zm.893 0c0 .44.105.798.105.798.11.357.3.615.3.615.2.26.47.4.47.4.28.15.6.15.6.15.33 0 .6-.14.6-.14.28-.14.47-.4.47-.4.2-.25.3-.61.3-.61.11-.35.11-.8.11-.8 0-.44-.1-.8-.1-.8-.1-.36-.3-.62-.3-.62-.19-.26-.46-.4-.46-.4-.27-.14-.6-.14-.6-.14-.32 0-.59.14-.59.14-.27.14-.47.41-.47.41-.19.26-.3.63-.3.63-.1.37-.1.81-.1.81zm4.317 2.542zm.86-5.105h.715l.074.735h.03c.37-.367.774-.614.774-.614.404-.247.94-.247.94-.247.81 0 1.18.5 1.18.5.374.5.374 1.49.374 1.49V758h-.86v-3.12c0-.724-.232-1.045-.232-1.045-.23-.32-.735-.32-.735-.32-.4 0-.704.2-.704.2-.31.2-.7.588-.7.588V758h-.86v-5.105zM862.76 758zm1.228.86c0 .41.393.653.393.653.4.24 1.09.24 1.09.24.37 0 .67-.088.67-.088.3-.09.51-.23.51-.23.21-.143.33-.332.33-.332.12-.19.12-.39.12-.39 0-.356-.26-.492-.26-.492-.26-.13-.76-.13-.76-.13h-.88c-.14 0-.32-.01-.32-.01-.17-.01-.34-.07-.34-.07-.27.2-.4.42-.4.42-.12.22-.12.44-.12.44zm0 0zm-.757.117c0-.326.2-.62.2-.62.2-.294.55-.535.55-.535v-.042c-.19-.116-.32-.32-.32-.32-.13-.206-.13-.51-.13-.51 0-.326.18-.568.18-.568.18-.24.38-.378.38-.378v-.042c-.25-.21-.45-.562-.45-.562-.2-.352-.2-.814-.2-.814 0-.42.16-.756.16-.756.15-.336.42-.573.42-.573.27-.236.62-.362.62-.362.35-.126.74-.126.74-.126.21 0 .4.03.4.03.18.03.33.09.33.09h1.77v.66h-1.05c.18.18.3.45.3.45.12.27.12.6.12.6 0 .41-.15.74-.15.74-.14.33-.4.55-.4.55-.25.22-.59.35-.59.35-.34.12-.73.12-.73.12-.19 0-.39-.05-.39-.05-.2-.05-.37-.13-.37-.13-.14.11-.23.25-.23.25-.09.14-.09.35-.09.35 0 .24.19.4.19.4.19.16.72.16.72.16h.99c.9 0 1.34.29 1.34.29.45.28.45.92.45.92 0 .35-.18.67-.18.67-.17.32-.51.56-.51.56-.34.24-.81.38-.81.38-.48.14-1.08.14-1.08.14-.47 0-.86-.09-.86-.09-.39-.09-.66-.27-.66-.27-.28-.18-.43-.43-.43-.43-.15-.25-.15-.59-.15-.59zm0 0zm2.12-3.172c.22 0 .42-.084.42-.084.2-.08.35-.24.35-.24.15-.16.24-.38.24-.38.09-.22.09-.51.09-.51 0-.56-.31-.87-.31-.87-.31-.31-.77-.31-.77-.31-.45 0-.76.31-.76.31-.31.31-.31.88-.31.88 0 .29.09.51.09.51.08.23.24.39.24.39.15.16.35.24.35.24.2.09.42.09.42.09zm2.71 2.195zm.86-7.48h.86v6.514c0 .21.08.294.08.294.08.084.17.084.17.084h.08l.11-.02.12.65c-.08.042-.2.063-.2.063-.11.02-.29.02-.29.02-.49 0-.7-.293-.7-.293-.21-.294-.21-.86-.21-.86v-6.45zm1.82 7.48zm.52 1.408l.19.047.2.026c.44 0 .72-.31.72-.31.28-.31.44-.78.44-.78l.12-.38-2.05-5.11h.89l1.04 2.83.25.71c.13.37.25.73.25.73h.04c.12-.34.22-.72.22-.72.11-.38.21-.71.21-.71l.92-2.82h.84l-1.92 5.53c-.13.38-.3.7-.3.7-.17.33-.4.56-.4.56-.23.24-.52.38-.52.38-.29.14-.68.14-.68.14-.18 0-.32-.02-.32-.02-.14-.02-.27-.08-.27-.08l.17-.68zm6.51-1.408zm.61-1.323c0-.84.75-1.287.75-1.287.75-.447 2.39-.625 2.39-.625 0-.242-.05-.473-.05-.473-.04-.23-.16-.41-.16-.41-.12-.178-.32-.29-.32-.29-.2-.11-.51-.11-.51-.11-.45 0-.83.17-.83.17-.38.167-.68.377-.68.377l-.34-.6c.36-.23.87-.45.87-.45.52-.22 1.14-.22 1.14-.22.94 0 1.36.57 1.36.57.42.57.42 1.53.42 1.53V758h-.71l-.07-.61h-.02c-.37.306-.79.52-.79.52-.42.216-.9.216-.9.216-.65 0-1.07-.378-1.07-.378-.42-.378-.42-1.07-.42-1.07zm0 0zm.85-.064c0 .442.26.63.26.63.26.19.64.19.64.19.37 0 .7-.173.7-.173.33-.174.7-.51.7-.51v-1.418c-.64.084-1.08.2-1.08.2-.44.115-.71.273-.71.273-.26.157-.38.362-.38.362-.11.205-.11.446-.11.446zm3.92 1.387zm1.23.86c0 .41.4.653.4.653.4.24 1.09.24 1.09.24.37 0 .67-.088.67-.088.3-.09.51-.23.51-.23.21-.143.33-.332.33-.332.11-.19.11-.39.11-.39 0-.356-.26-.492-.26-.492-.26-.13-.77-.13-.77-.13h-.88c-.14 0-.32-.01-.32-.01-.17-.01-.34-.07-.34-.07-.27.2-.4.42-.4.42-.12.22-.12.44-.12.44zm0 0zm-.75.117c0-.326.2-.62.2-.62.2-.294.55-.535.55-.535v-.042c-.19-.116-.32-.32-.32-.32-.13-.206-.13-.51-.13-.51 0-.326.18-.568.18-.568.18-.24.38-.378.38-.378v-.042c-.25-.21-.45-.562-.45-.562-.2-.352-.2-.814-.2-.814 0-.42.15-.756.15-.756.15-.336.42-.573.42-.573.27-.236.62-.362.62-.362.35-.126.74-.126.74-.126.21 0 .4.03.4.03.19.03.33.09.33.09h1.78v.66h-1.05c.18.18.3.45.3.45.12.27.12.6.12.6 0 .41-.14.74-.14.74-.14.33-.4.55-.4.55-.25.22-.59.35-.59.35-.34.12-.73.12-.73.12-.19 0-.39-.05-.39-.05-.2-.05-.38-.13-.38-.13-.14.11-.23.25-.23.25-.09.14-.09.35-.09.35 0 .24.19.4.19.4.19.16.71.16.71.16h.99c.89 0 1.34.29 1.34.29.45.28.45.92.45.92 0 .35-.18.67-.18.67-.18.32-.51.56-.51.56-.34.24-.82.38-.82.38-.48.14-1.08.14-1.08.14-.47 0-.86-.09-.86-.09-.39-.09-.67-.27-.67-.27-.28-.18-.43-.43-.43-.43-.15-.25-.15-.59-.15-.59zm0 0zm2.11-3.172c.22 0 .42-.084.42-.084.2-.08.35-.24.35-.24.16-.16.24-.38.24-.38.08-.22.08-.51.08-.51 0-.56-.31-.87-.31-.87-.31-.31-.76-.31-.76-.31-.45 0-.76.31-.76.31-.31.31-.31.88-.31.88 0 .29.09.51.09.51.09.23.24.39.24.39.15.16.35.24.35.24.2.09.42.09.42.09zm2.71 2.195zm.87-5.105h.72l.08.924h.03c.27-.49.64-.77.64-.77.37-.29.82-.29.82-.29.31 0 .55.1.55.1l-.17.75c-.12-.04-.23-.07-.23-.07-.1-.02-.26-.02-.26-.02-.32 0-.68.26-.68.26-.35.26-.61.91-.61.91v3.3h-.86v-5.11zM892 758zm.48-2.542c0-.63.194-1.13.194-1.13.195-.498.515-.845.515-.845.32-.346.73-.53.73-.53.41-.184.85-.184.85-.184.48 0 .86.16.86.16.38.17.64.48.64.48.26.31.39.75.39.75.13.44.13.98.13.98 0 .28-.04.47-.04.47h-3.45c.05.83.51 1.31.51 1.31.45.48 1.19.48 1.19.48.37 0 .68-.11.68-.11.31-.11.59-.29.59-.29l.3.56c-.34.21-.75.37-.75.37-.41.16-.94.16-.94.16-.51 0-.96-.19-.96-.19-.44-.19-.77-.53-.77-.53-.33-.34-.52-.84-.52-.84-.19-.5-.19-1.13-.19-1.13zm0 0zm3.57-.39c0-.786-.33-1.2-.33-1.2-.33-.416-.93-.416-.93-.416-.27 0-.52.11-.52.11-.246.11-.446.315-.446.315-.2.205-.33.504-.33.504-.132.3-.174.69-.174.69h2.73zM897.2 758zm.486-2.542c0-.63.19-1.13.19-1.13.19-.498.51-.845.51-.845.32-.346.73-.53.73-.53.41-.184.85-.184.85-.184.484 0 .87.16.87.16.38.17.64.48.64.48.26.31.394.75.394.75.137.44.137.98.137.98 0 .28-.03.47-.03.47h-3.445c.05.83.51 1.31.51 1.31.455.48 1.19.48 1.19.48.364 0 .674-.11.674-.11.31-.11.595-.29.595-.29l.3.56c-.33.21-.74.37-.74.37-.41.16-.93.16-.93.16-.51 0-.96-.19-.96-.19-.44-.19-.77-.53-.77-.53-.33-.34-.52-.84-.52-.84-.19-.5-.19-1.13-.19-1.13zm0 0zm3.57-.39c0-.786-.33-1.2-.33-1.2-.333-.416-.93-.416-.93-.416-.275 0-.52.11-.52.11-.25.11-.45.315-.45.315-.2.205-.33.504-.33.504-.13.3-.173.69-.173.69h2.73zM902.4 758zm.683-4.317c0-.305.184-.49.184-.49.183-.182.446-.182.446-.182.25 0 .433.19.433.19.184.19.184.49.184.49 0 .28-.185.47-.185.47-.184.19-.436.19-.436.19-.27 0-.45-.18-.45-.18-.19-.18-.19-.46-.19-.46zm0 0zm0 3.792c0-.305.184-.49.184-.49.183-.182.446-.182.446-.182.25 0 .433.183.433.183.184.184.184.49.184.49 0 .282-.185.466-.185.466-.184.184-.436.184-.436.184-.27 0-.45-.184-.45-.184-.19-.184-.19-.467-.19-.467zm4.054.525zm3.194-2.542v-1.943c0-.273.02-.646.02-.646.02-.38.04-.65.04-.65h-.04c-.12.24-.26.47-.26.47l-.28.47-1.56 2.29h2.11zm0 0zm1.74.693h-.91V758h-.81v-1.85h-3.01v-.566l2.87-4.286h.97v4.16h.92v.693zm.3 1.85zm2.46-3.25c.33 0 .7-.2.7-.2.37-.2.71-.69.71-.69-.09-.98-.46-1.49-.46-1.49-.38-.5-1.02-.5-1.02-.5-.24 0-.46.11-.46.11-.21.11-.37.3-.37.3-.15.2-.24.47-.24.47-.09.28-.09.6-.09.6 0 .66.31 1.04.31 1.04.31.38.94.38.94.38zm0 0zm-1.45 2.13c.21.24.5.39.5.39.29.15.6.15.6.15.36 0 .68-.14.68-.14.32-.14.56-.49.56-.49.24-.34.39-.88.39-.88.15-.54.16-1.35.16-1.35-.31.4-.73.63-.73.63-.42.23-.84.23-.84.23-.87 0-1.38-.51-1.38-.51-.51-.51-.51-1.55-.51-1.55 0-.48.16-.87.16-.87.15-.39.42-.68.42-.68.27-.28.63-.44.63-.44.36-.16.76-.16.76-.16.5 0 .92.2.92.2.43.2.74.61.74.61.31.41.48 1.01.48 1.01.18.61.18 1.42.18 1.42 0 1.01-.21 1.72-.21 1.72-.21.71-.57 1.16-.57 1.16-.35.45-.81.65-.81.65-.46.21-.96.21-.96.21-.54 0-.94-.2-.94-.2-.4-.2-.68-.5-.68-.5zm4.21 1.12zm3.19-2.54v-1.94c0-.27.02-.64.02-.64.01-.37.04-.65.04-.65h-.04c-.12.24-.26.47-.26.47-.13.24-.28.48-.28.48l-1.57 2.29h2.1zm0 0zm1.73.7h-.91V758h-.82v-1.85h-3.01v-.566l2.87-4.286h.97v4.16h.92v.693z"/></svg>