<svg xmlns="http://www.w3.org/2000/svg" stroke="#000" viewBox="0 0 1024 768" font-size="1"><path fill="#FFF" stroke="none" d="M0 0v768h1024V0z"/><path stroke="none" d="M388.535 14.102zm.215-10.04h2.326l.693 4.696c.09.785.2 1.578.2 1.578l.2 1.594h.06l.3-1.594c.14-.793.3-1.578.3-1.578l1.08-4.697h1.92l1.08 4.7c.15.77.3 1.57.3 1.57l.3 1.61h.06c.11-.81.21-1.6.21-1.6.1-.78.21-1.57.21-1.57l.69-4.69h2.17l-1.78 10.04h-2.85l-.99-4.56c-.12-.58-.22-1.17-.22-1.17-.1-.59-.18-1.14-.18-1.14h-.06l-.19 1.15c-.1.6-.23 1.18-.23 1.18l-.94 4.56h-2.8zm12.305 10.04zm1.002-10.796h2.263v2.65l-.107 1.37c.43-.386 1-.717 1-.717.57-.34 1.356-.34 1.356-.34 1.24 0 1.8.81 1.8.81.56.81.56 2.26.56 2.26v4.75h-2.27V9.65c0-.832-.23-1.14-.23-1.14-.23-.31-.72-.31-.72-.31-.43 0-.74.195-.74.195-.31.192-.68.547-.68.547v5.16h-2.27V3.305zm7.792 10.796zm2.12-8.763c-.57 0-.94-.34-.94-.34-.37-.33-.37-.86-.37-.86 0-.53.37-.85.37-.85.37-.33.94-.33.94-.33.58 0 .94.32.94.32.36.32.36.84.36.84 0 .52-.37.85-.37.85-.36.33-.95.33-.95.33zm0 0zm-1.12 1.12h2.26v7.64h-2.27V6.46zm3.25 7.64zm.55-3.82c0-.96.32-1.71.32-1.71.32-.75.87-1.26.87-1.26.54-.51 1.27-.78 1.27-.78.72-.27 1.51-.27 1.51-.27.71 0 1.28.24 1.28.24.57.24.95.64.95.64l-1.04 1.4c-.54-.45-1.06-.45-1.06-.45-.83 0-1.31.58-1.31.58-.48.58-.48 1.59-.48 1.59 0 1 .48 1.58.48 1.58.48.58 1.22.58 1.22.58.41 0 .75-.17.75-.17.34-.17.61-.39.61-.39l.91 1.43c-.56.49-1.24.73-1.24.73-.68.23-1.31.23-1.31.23-.8 0-1.49-.27-1.49-.27-.69-.27-1.2-.78-1.2-.78-.51-.51-.8-1.26-.8-1.26-.29-.75-.29-1.71-.29-1.71zm6.64 3.82zm1-10.8h2.26v2.65l-.11 1.37c.43-.39 1-.72 1-.72.57-.33 1.35-.33 1.35-.33 1.24 0 1.81.81 1.81.81.56.81.56 2.26.56 2.26v4.75h-2.26V9.65c0-.833-.23-1.14-.23-1.14-.23-.31-.72-.31-.72-.31-.43 0-.74.194-.74.194-.31.192-.68.547-.68.547v5.16h-2.27V3.31zm11 10.79zm1.18-10.04h2.26v3.87h3.46V4.06h2.28v10.042h-2.28v-4.19h-3.47v4.19h-2.27V4.062zm9.19 10.04zm.72-2.13c0-1.2 1.01-1.88 1.01-1.88 1.01-.68 3.28-.91 3.28-.91-.04-.51-.31-.81-.31-.81-.28-.3-.9-.3-.9-.3-.5 0-.99.18-.99.18-.49.18-1.05.5-1.05.5l-.8-1.49c.74-.45 1.55-.73 1.55-.73.8-.28 1.71-.28 1.71-.28 1.48 0 2.25.84 2.25.84.78.84.78 2.61.78 2.61v4.38h-1.85l-.17-.79h-.05c-.5.43-1.04.7-1.04.7-.55.27-1.2.27-1.2.27-.53 0-.94-.18-.94-.18-.42-.18-.71-.49-.71-.49-.3-.32-.46-.73-.46-.73-.16-.41-.16-.9-.16-.9zm0 0zm2.15-.17c0 .37.24.55.24.55.24.17.64.17.64.17.4 0 .68-.17.68-.17.27-.17.58-.48.58-.48v-1.34c-1.22.17-1.68.49-1.68.49-.47.32-.47.77-.47.77zm5.34 2.29zm1.34-2.3c.52.4 1 .6 1 .6.48.2.97.2.97.2.51 0 .74-.17.74-.17.23-.17.23-.48.23-.48 0-.19-.13-.33-.13-.33-.13-.15-.35-.27-.35-.27-.23-.12-.5-.22-.5-.22-.28-.1-.57-.23-.57-.23-.36-.14-.71-.33-.71-.33-.36-.18-.65-.45-.65-.45-.3-.27-.48-.63-.48-.63-.19-.37-.19-.84-.19-.84 0-.53.21-.97.21-.97.2-.45.59-.76.59-.76.38-.31.92-.49.92-.49.54-.18 1.2-.18 1.2-.18.87 0 1.54.3 1.54.3.66.3 1.15.67 1.15.67l-1 1.36c-.42-.31-.82-.48-.82-.48-.4-.17-.8-.17-.8-.17-.86 0-.86.6-.86.6 0 .18.12.31.12.31.12.13.33.24.33.24.21.11.48.21.48.21l.56.21c.37.13.73.31.73.31.36.18.66.44.66.44.3.26.48.64.48.64.18.38.18.9.18.9 0 .52-.2.97-.2.97-.2.45-.6.78-.6.78-.4.33-.99.52-.99.52-.58.19-1.35.19-1.35.19-.75 0-1.55-.29-1.55-.29-.79-.29-1.37-.77-1.37-.77zm5.48 2.29zm1-10.8h2.2v6.19h.06l2.42-3.04h2.46l-2.66 3.16 2.88 4.5h-2.45l-1.72-2.97-.97 1.09v1.88h-2.2V3.3zm7 10.8zm.55-3.82c0-.93.31-1.67.31-1.67.31-.75.81-1.27.81-1.27.5-.52 1.14-.8 1.14-.8.64-.28 1.34-.28 1.34-.28.81 0 1.42.27 1.42.27.61.28 1.01.77 1.01.77.41.49.61 1.16.61 1.16.2.67.2 1.45.2 1.45 0 .31-.03.57-.03.57-.03.26-.06.39-.06.39h-4.58c.15.88.68 1.27.68 1.27.53.4 1.3.4 1.3.4.82 0 1.65-.51 1.65-.51l.75 1.37c-.58.4-1.3.63-1.3.63-.72.23-1.41.23-1.41.23-.81 0-1.52-.27-1.52-.27-.71-.27-1.23-.79-1.23-.79-.52-.52-.81-1.25-.81-1.25-.3-.74-.3-1.7-.3-1.7zm0 0zm4.93-.79c0-.66-.29-1.08-.29-1.08-.29-.42-.98-.42-.98-.42-.54 0-.95.36-.95.36-.41.36-.53 1.13-.53 1.13h2.75zm2.49 4.6zm1-10.79h2.26v8.52c0 .36.13.49.13.49.13.14.27.14.27.14h.13l.14-.03.28 1.68c-.18.07-.47.13-.47.13-.28.05-.67.05-.67.05-.58 0-.98-.19-.98-.19-.4-.19-.64-.52-.64-.52-.24-.33-.35-.8-.35-.8-.11-.47-.11-1.06-.11-1.06V3.3zm3.41 10.8zm1-10.8h2.26v8.52c0 .35.13.49.13.49.13.14.27.14.27.14h.13l.14-.04.27 1.68c-.19.08-.47.13-.47.13-.29.05-.67.05-.67.05-.59 0-.99-.19-.99-.19-.4-.19-.64-.52-.64-.52-.24-.33-.35-.8-.35-.8-.1-.47-.1-1.06-.1-1.06V3.3zm6.61 10.79zm.55-3.82c0-.95.33-1.7.33-1.7.32-.75.87-1.26.87-1.26.54-.51 1.27-.78 1.27-.78.72-.27 1.51-.27 1.51-.27.71 0 1.27.24 1.27.24.57.23.95.63.95.63l-1.03 1.4c-.54-.45-1.06-.45-1.06-.45-.83 0-1.31.59-1.31.59-.48.58-.48 1.58-.48 1.58 0 1 .49 1.59.49 1.59.48.58 1.22.58 1.22.58.42 0 .76-.17.76-.17.34-.17.62-.38.62-.38l.91 1.43c-.56.49-1.24.72-1.24.72-.68.23-1.31.23-1.31.23-.8 0-1.48-.27-1.48-.27-.69-.27-1.2-.78-1.2-.78-.51-.51-.8-1.26-.8-1.26-.29-.75-.29-1.7-.29-1.7zm6.21 3.82zm.56-3.82c0-.95.31-1.7.31-1.7.31-.75.82-1.26.82-1.26.51-.51 1.19-.78 1.19-.78.68-.27 1.4-.27 1.4-.27.72 0 1.39.27 1.39.27.67.27 1.18.77 1.18.77.52.51.82 1.26.82 1.26.31.75.31 1.7.31 1.7 0 .95-.31 1.7-.31 1.7-.31.75-.83 1.26-.83 1.26-.52.5-1.19.77-1.19.77-.67.27-1.4.27-1.4.27-.72 0-1.4-.27-1.4-.27-.68-.27-1.2-.78-1.2-.78-.52-.51-.82-1.26-.82-1.26-.31-.75-.31-1.7-.31-1.7zm0 0zm2.33 0c0 1 .34 1.59.34 1.59.34.58 1.05.58 1.05.58.69 0 1.05-.58 1.05-.58.35-.59.35-1.59.35-1.59 0-1-.35-1.58-.35-1.58-.36-.59-1.05-.59-1.05-.59-.71 0-1.06.59-1.06.59-.35.59-.35 1.59-.35 1.59zm5.67 3.82zm1-7.64h1.85l.15.99h.06c.48-.48 1.01-.83 1.01-.83.54-.35 1.29-.35 1.29-.35.81 0 1.32.33 1.32.33.5.33.79.94.79.94.51-.52 1.07-.9 1.07-.9.56-.38 1.33-.38 1.33-.38 1.23 0 1.81.82 1.81.82.58.82.58 2.25.58 2.25v4.74H512v-4.4c0-.84-.23-1.14-.23-1.14-.22-.31-.713-.31-.713-.31-.57 0-1.307.74-1.307.74v5.16h-2.26V9.65c0-.833-.22-1.14-.22-1.14-.22-.31-.716-.31-.716-.31-.58 0-1.29.74-1.29.74v5.16h-2.26V6.46zm12.19 7.64zm3.26.6v2.24h-2.26V6.46h1.85l.15.75h.06c.45-.4 1.01-.67 1.01-.67.56-.27 1.16-.27 1.16-.27.69 0 1.25.28 1.25.28.55.278.94.786.94.786.38.51.59 1.23.59 1.23.21.72.21 1.6.21 1.6 0 .99-.27 1.75-.27 1.75-.27.766-.72 1.3-.72 1.3-.46.53-1.03.81-1.03.81-.58.275-1.2.275-1.2.275-.49 0-.96-.21-.96-.21-.46-.21-.86-.59-.86-.59zm0 0zm0-2.76c.3.28.61.38.61.38.31.11.6.11.6.11.58 0 1-.53 1-.53.42-.53.42-1.72.42-1.72 0-2.06-1.32-2.06-1.32-2.06-.67 0-1.31.69-1.31.69v3.12zm5.56 2.15zm2.12-8.76c-.57 0-.94-.33-.94-.33-.37-.33-.37-.86-.37-.86 0-.52.37-.85.37-.85.37-.32.94-.32.94-.32.58 0 .95.32.95.32.36.32.36.85.36.85 0 .52-.36.86-.36.86-.36.33-.95.33-.95.33zm0 0zm-1.12 1.12h2.26v7.64H525v-7.6zm3.25 7.64zm1-10.8h2.26v8.52c0 .35.13.49.13.49.13.14.27.14.27.14h.13l.14-.04.27 1.68c-.19.07-.47.13-.47.13-.29.05-.67.05-.67.05-.59 0-.99-.19-.99-.19-.4-.18-.64-.51-.64-.51-.24-.33-.35-.8-.35-.8-.11-.47-.11-1.06-.11-1.06V3.3zm3.4 10.8zm.55-3.82c0-.93.31-1.67.31-1.67.31-.75.81-1.27.81-1.27.5-.52 1.14-.8 1.14-.8.64-.28 1.34-.28 1.34-.28.81 0 1.42.28 1.42.28.61.27 1.01.77 1.01.77.41.49.61 1.16.61 1.16.2.67.2 1.45.2 1.45 0 .31-.03.56-.03.56-.03.25-.06.39-.06.39h-4.57c.15.88.68 1.27.68 1.27.53.39 1.3.39 1.3.39.82 0 1.65-.51 1.65-.51l.75 1.37c-.59.4-1.3.63-1.3.63-.72.23-1.41.23-1.41.23-.82 0-1.53-.267-1.53-.267-.71-.27-1.23-.79-1.23-.79-.52-.52-.81-1.258-.81-1.258-.3-.74-.3-1.69-.3-1.69zm0 0zm4.93-.79c0-.66-.3-1.08-.3-1.08-.29-.42-.99-.42-.99-.42-.54 0-.94.36-.94.36-.41.36-.53 1.13-.53 1.13h2.75zm2.49 4.6zm1-7.64h1.85l.15 1.34h.06c.42-.79 1-1.16 1-1.16.59-.37 1.17-.37 1.17-.37.32 0 .53.04.53.04.21.04.38.11.38.11l-.37 1.96c-.22-.07-.4-.1-.4-.1-.19-.03-.43-.03-.43-.03-.43 0-.9.31-.9.31-.47.31-.78 1.09-.78 1.09v4.43h-2.26v-7.6zm4.97 7.64zm1.34-2.3c.52.4 1 .6 1 .6.48.2.97.2.97.2.51 0 .74-.17.74-.17.23-.17.23-.48.23-.48 0-.18-.13-.33-.13-.33-.13-.15-.36-.27-.36-.27-.22-.12-.5-.22-.5-.22-.28-.1-.57-.22-.57-.22-.35-.14-.71-.32-.71-.32-.35-.19-.64-.46-.64-.46-.29-.27-.48-.63-.48-.63-.19-.37-.19-.84-.19-.84 0-.53.21-.97.21-.97.2-.45.59-.76.59-.76.38-.31.92-.48.92-.48.54-.18 1.2-.18 1.2-.18.88 0 1.54.3 1.54.3.66.3 1.16.67 1.16.67l-1.01 1.36c-.42-.31-.82-.48-.82-.48-.4-.17-.8-.17-.8-.17-.87 0-.87.6-.87.6 0 .18.12.31.12.31.12.13.33.24.33.24.21.11.47.21.47.21l.56.21c.37.13.73.31.73.31.36.17.66.43.66.43.3.26.48.64.48.64.19.37.19.9.19.9 0 .52-.2.97-.2.97-.2.44-.6.77-.6.77-.4.33-.99.53-.99.53-.59.19-1.36.19-1.36.19-.76 0-1.55-.29-1.55-.29-.8-.29-1.38-.77-1.38-.77zm8.68 2.29zm.6-3.82c0-.94.27-1.68.27-1.68.27-.74.71-1.26.71-1.26.44-.52 1.02-.8 1.02-.8.58-.28 1.18-.28 1.18-.28.64 0 1.06.22 1.06.22.41.22.81.58.81.58l-.1-1.17V3.3h2.26v10.8h-1.84l-.16-.754h-.07c-.4.4-.94.67-.94.67-.54.27-1.09.27-1.09.27-.71 0-1.29-.278-1.29-.278-.58-.278-.99-.794-.99-.794-.41-.516-.63-1.255-.63-1.255-.22-.74-.22-1.68-.22-1.68zm0 0zm2.33-.03c0 1.14.36 1.66.36 1.66.36.52 1.02.52 1.02.52.36 0 .67-.16.67-.16.3-.16.57-.54.57-.54V8.6c-.31-.275-.63-.383-.63-.383-.33-.11-.64-.11-.64-.11-.54 0-.96.52-.96.52-.41.517-.41 1.61-.41 1.61zm5.9 3.85zm.55-3.82c0-.95.31-1.7.31-1.7.31-.75.82-1.26.82-1.26.52-.51 1.2-.78 1.2-.78.68-.27 1.4-.27 1.4-.27.72 0 1.39.27 1.39.27.67.27 1.19.77 1.19.77.51.51.82 1.26.82 1.26.3.75.3 1.7.3 1.7 0 .96-.31 1.7-.31 1.7-.31.75-.82 1.25-.82 1.25-.52.502-1.19.772-1.19.772-.67.27-1.4.27-1.4.27-.73 0-1.4-.27-1.4-.27-.68-.27-1.2-.78-1.2-.78-.52-.51-.83-1.25-.83-1.25-.31-.746-.31-1.7-.31-1.7zm0 0zm2.33 0c0 1 .35 1.59.35 1.59.34.58 1.05.58 1.05.58.7 0 1.05-.59 1.05-.59.36-.59.36-1.59.36-1.59 0-1-.36-1.59-.36-1.59-.35-.59-1.05-.59-1.05-.59-.71 0-1.06.58-1.06.58-.35.59-.35 1.59-.35 1.59zm8.87 3.82zm1.17 1.11l.24.06c.14.03.26.03.26.03.57 0 .88-.28.88-.28.31-.28.46-.73.46-.73l.11-.4-2.94-7.44h2.28l1.09 3.28c.17.52.3 1.06.3 1.06.14.54.29 1.11.29 1.11h.06l.26-1.09c.13-.55.27-1.09.27-1.09l.92-3.28h2.17l-2.65 7.71c-.28.725-.58 1.27-.58 1.27-.3.55-.69.91-.69.91-.39.36-.89.547-.89.547-.5.18-1.18.18-1.18.18-.36 0-.6-.04-.6-.04-.25-.035-.48-.11-.48-.11l.4-1.725zm6.73-1.11zm.55-3.82c0-.95.3-1.7.3-1.7.31-.75.82-1.26.82-1.26.52-.51 1.19-.78 1.19-.78.68-.27 1.4-.27 1.4-.27.72 0 1.39.27 1.39.27.67.27 1.18.78 1.18.78.51.51.82 1.25.82 1.25.3.74.3 1.7.3 1.7 0 .95-.31 1.7-.31 1.7-.31.75-.83 1.252-.83 1.252-.52.503-1.19.773-1.19.773-.67.27-1.4.27-1.4.27-.726 0-1.4-.27-1.4-.27-.68-.27-1.197-.78-1.197-.78-.52-.51-.827-1.26-.827-1.26-.31-.74-.31-1.7-.31-1.7zm0 0zm2.32 0c0 1 .34 1.59.34 1.59.34.58 1.05.58 1.05.58.69 0 1.05-.59 1.05-.59.35-.58.35-1.59.35-1.59 0-1-.35-1.58-.35-1.58-.36-.588-1.05-.588-1.05-.588-.71 0-1.06.59-1.06.59-.34.59-.34 1.59-.34 1.59zm5.66 3.82zm.92-7.64h2.26v4.45c0 .83.23 1.14.23 1.14.23.31.72.31.72.31.43 0 .73-.2.73-.2.3-.2.63-.65.63-.65v-5h2.27v7.63h-1.84l-.17-1.06h-.05c-.5.58-1.06.91-1.06.91-.57.33-1.35.33-1.35.33-1.25 0-1.81-.82-1.81-.82-.56-.82-.56-2.27-.56-2.27v-4.7zm11.02 7.64zm.92-7.64h2.26v4.45c0 .83.23 1.14.23 1.14.23.31.72.31.72.31.43 0 .72-.2.72-.2.29-.2.63-.65.63-.65v-5h2.26v7.63h-1.84l-.17-1.06h-.05c-.5.58-1.06.91-1.06.91-.56.33-1.35.33-1.35.33-1.25 0-1.81-.82-1.81-.82-.56-.82-.56-2.27-.56-2.27v-4.7zm7.82 7.64zm1.34-2.29c.52.4 1 .6 1 .6.48.2.97.2.97.2.51 0 .74-.17.74-.17.23-.17.23-.48.23-.48 0-.19-.13-.33-.13-.33-.13-.15-.36-.27-.36-.27-.23-.12-.5-.22-.5-.22-.28-.1-.57-.22-.57-.22-.36-.14-.71-.33-.71-.33-.36-.19-.65-.46-.65-.46-.3-.27-.48-.63-.48-.63-.18-.36-.18-.84-.18-.84 0-.52.21-.97.21-.97.21-.44.59-.75.59-.75.39-.31.93-.48.93-.48.54-.18 1.2-.18 1.2-.18.88 0 1.54.3 1.54.3.66.3 1.15.67 1.15.67l-1.02 1.36c-.42-.31-.82-.48-.82-.48-.4-.17-.8-.17-.8-.17-.86 0-.86.6-.86.6 0 .18.12.31.12.31.12.13.33.24.33.24.21.11.48.21.48.21l.56.21c.37.14.73.32.73.32.36.17.66.44.66.44.3.26.48.64.48.64.19.37.19.9.19.9 0 .52-.2.97-.2.97-.2.44-.6.77-.6.77-.4.33-.99.52-.99.52-.59.19-1.36.19-1.36.19-.758 0-1.55-.298-1.55-.298-.79-.29-1.38-.77-1.38-.77zm5.48 2.29zm.55-3.82c0-.93.31-1.67.31-1.67.31-.75.81-1.26.81-1.26.5-.52 1.15-.79 1.15-.79.65-.28 1.34-.28 1.34-.28.81 0 1.42.28 1.42.28.61.28 1.01.77 1.01.77.41.49.61 1.16.61 1.16.2.67.2 1.45.2 1.45 0 .31-.03.56-.03.56-.03.26-.06.39-.06.39h-4.57c.16.875.69 1.27.69 1.27.53.39 1.3.39 1.3.39.82 0 1.65-.51 1.65-.51l.75 1.37c-.58.4-1.3.63-1.3.63-.72.23-1.41.23-1.41.23-.82 0-1.52-.27-1.52-.27-.71-.27-1.24-.785-1.24-.785-.528-.51-.82-1.25-.82-1.25-.29-.74-.29-1.69-.29-1.69zm0 0zm4.93-.79c0-.67-.29-1.08-.29-1.08-.3-.42-.99-.42-.99-.42-.54 0-.95.36-.95.36-.41.36-.53 1.13-.53 1.13h2.75zm2.5 4.6zm2.37-3.56c-.08-.53.03-.96.03-.96.11-.43.33-.8.33-.8.21-.37.48-.68.48-.68l.52-.59c.24-.29.4-.56.4-.56.16-.27.16-.56.16-.56 0-.47-.29-.72-.29-.72-.29-.25-.75-.25-.75-.25-.43 0-.76.2-.76.2-.33.2-.64.51-.64.51L629.83 5c.522-.63 1.23-1.016 1.23-1.016.71-.385 1.57-.385 1.57-.385.648 0 1.21.15 1.21.15.562.15.97.47.97.47.41.32.64.82.64.82.23.5.23 1.18.23 1.18 0 .47-.17.85-.17.85-.168.37-.422.7-.422.7-.254.32-.54.62-.54.62-.284.3-.523.62-.523.62-.24.32-.377.68-.377.68-.14.36-.093.82-.093.82h-1.986zm0 0zm-.37 2.32c0-.62.38-1.02.38-1.02.38-.41.97-.41.97-.41.58 0 .98.41.98.41.39.4.39 1.02.39 1.02 0 .6-.39 1.01-.39 1.01-.39.41-.98.41-.98.41-.59 0-.97-.41-.97-.41-.39-.41-.39-1.01-.39-1.01z"/><path fill="none" stroke="#D3D3D3" stroke-miterlimit="10" d="M39.59 738h954.694M39.59 597.4h954.694M39.59 456.8h954.694M39.59 316.2h954.694M39.59 175.6h954.694M39.59 35h954.694" stroke-dasharray="5 5"/><g fill="#5C3566" stroke-opacity="0" stroke-width="0" stroke-miterlimit="10" stroke-linejoin="bevel"><defs><clipPath id="a"><path d="M39.59 35v703h954.694V35z"/></clipPath></defs><g clip-path="url(#a)"><path stroke="none" d="M54.59 738V48.498h160.94V738z"/></g></g><g fill-opacity="0" stroke-miterlimit="10"><defs><clipPath id="b"><path d="M39.59 35v703h954.694V35z"/></clipPath></defs><g clip-path="url(#b)"><path fill="none" d="M54.59 738V48.498h160.94V738z"/></g></g><g fill="#5C3566" stroke-opacity="0" stroke-width="0" stroke-miterlimit="10" stroke-linejoin="bevel"><defs><clipPath id="c"><path d="M39.59 35v703h954.694V35z"/></clipPath></defs><g clip-path="url(#c)"><path stroke="none" d="M245.53 738v-2.25h160.938V738z"/></g></g><g fill-opacity="0" stroke-miterlimit="10"><defs><clipPath id="d"><path d="M39.59 35v703h954.694V35z"/></clipPath></defs><g clip-path="url(#d)"><path fill="none" d="M245.53 738v-2.25h160.938V738z"/></g></g><g fill="#5C3566" stroke-opacity="0" stroke-width="0" stroke-miterlimit="10" stroke-linejoin="bevel"><defs><clipPath id="e"><path d="M39.59 35v703h954.694V35z"/></clipPath></defs><g clip-path="url(#e)"><path stroke="none" d="M436.468 738v-1.687h160.938V738z"/></g></g><g fill-opacity="0" stroke-miterlimit="10"><defs><clipPath id="f"><path d="M39.59 35v703h954.694V35z"/></clipPath></defs><g clip-path="url(#f)"><path fill="none" d="M436.468 738v-1.687h160.938V738z"/></g></g><g fill="#5C3566" stroke-opacity="0" stroke-width="0" stroke-miterlimit="10" stroke-linejoin="bevel"><defs><clipPath id="g"><path d="M39.59 35v703h954.694V35z"/></clipPath></defs><g clip-path="url(#g)"><path stroke="none" d="M627.406 738v-1.125h160.94V738z"/></g></g><g fill-opacity="0" stroke-miterlimit="10"><defs><clipPath id="h"><path d="M39.59 35v703h954.694V35z"/></clipPath></defs><g clip-path="url(#h)"><path fill="none" d="M627.406 738v-1.125h160.94V738z"/></g></g><g fill="#5C3566" stroke-opacity="0" stroke-width="0" stroke-miterlimit="10" stroke-linejoin="bevel"><defs><clipPath id="i"><path d="M39.59 35v703h954.694V35z"/></clipPath></defs><g clip-path="url(#i)"><path stroke="none" d="M818.345 738v-52.866h160.94V738z"/></g></g><g fill-opacity="0" stroke-miterlimit="10"><defs><clipPath id="j"><path d="M39.59 35v703h954.694V35z"/></clipPath></defs><g clip-path="url(#j)"><path fill="none" d="M818.345 738v-52.866h160.94V738z"/></g></g><path fill="none" stroke-miterlimit="10" d="M39.59 738V35" stroke-linecap="square"/><path fill="none" stroke-miterlimit="10" d="M39.59 738h2m-2-112.48h2m-2-112.48h2m-2-112.48h2m-2-112.48h2m-2-112.48h2m-2-112.48h2m-2-112.48h2m-2 787.36h5m-5-140.6h5m-5-140.6h5m-5-140.6h5m-5-140.6h5m-5-140.6h5"/><path stroke="none" d="M25.294 741.445zm2.616.126c-1.02 0-1.586-.9-1.586-.9-.568-.9-.568-2.59-.568-2.59 0-1.69.568-2.57.568-2.57.567-.88 1.586-.88 1.586-.88 1.008 0 1.575.88 1.575.88.568.89.568 2.58.568 2.58 0 1.69-.568 2.6-.568 2.6-.567.91-1.575.91-1.575.91zm0 0zm0-.69c.294 0 .53-.16.53-.16.236-.16.41-.5.41-.5.173-.34.268-.87.268-.87.094-.53.094-1.26.094-1.26 0-.73-.094-1.26-.094-1.26-.095-.52-.268-.85-.268-.85-.173-.33-.41-.49-.41-.49-.236-.16-.53-.16-.53-.16-.294 0-.536.16-.536.16-.242.16-.415.49-.415.49-.18.33-.27.86-.27.86-.1.53-.1 1.26-.1 1.26 0 1.47.36 2.14.36 2.14.36.67.95.67.95.67zM14.77 600.85zm.42-.514c.755-.754 1.344-1.363 1.344-1.363.588-.61.987-1.13.987-1.13.4-.52.61-.955.61-.955.21-.434.21-.844.21-.844 0-.576-.31-.944-.31-.944-.31-.37-.95-.37-.95-.37-.42 0-.77.24-.77.24-.35.235-.65.57-.65.57l-.49-.492c.42-.462.9-.74.9-.74.48-.28 1.14-.28 1.14-.28.94 0 1.47.543 1.47.543.54.54.54 1.44.54 1.44 0 .47-.2.95-.2.95-.2.48-.57.99-.57.99-.36.51-.86 1.06-.86 1.06-.5.56-1.09 1.18-1.09 1.18l.57-.04c.3-.02.56-.02.56-.02h1.95v.75H15.2v-.51zm4.8.517zm.682-1.355c.294.307.7.538.7.538.403.23.99.23.99.23.306 0 .574-.11.574-.11.268-.11.467-.31.467-.31.2-.2.315-.482.315-.482.116-.283.116-.63.116-.63 0-.693-.39-1.082-.39-1.082-.387-.387-1.04-.387-1.04-.387-.345 0-.592.106-.592.106-.247.11-.552.31-.552.31l-.462-.29.22-3.22h3.352v.75h-2.595l-.18 1.99c.243-.12.485-.2.485-.2.24-.07.546-.07.546-.07.43 0 .81.13.81.13.377.13.66.39.66.39.284.26.447.65.447.65.163.4.163.94.163.94 0 .55-.19.97-.19.97-.19.42-.504.71-.504.71-.315.29-.72.44-.72.44-.404.15-.845.15-.845.15-.4 0-.73-.08-.73-.08-.33-.08-.598-.2-.598-.2-.27-.12-.49-.29-.49-.29-.22-.16-.39-.34-.39-.34zm4.538 1.357zm2.616.127c-1.02 0-1.586-.903-1.586-.903-.568-.91-.568-2.6-.568-2.6 0-1.69.567-2.58.567-2.58.56-.88 1.58-.88 1.58-.88 1.01 0 1.57.88 1.57.88.56.88.56 2.57.56 2.57 0 1.69-.57 2.59-.57 2.59-.57.9-1.58.9-1.58.9zm0 0zm0-.693c.294 0 .53-.17.53-.17.236-.16.41-.51.41-.51.173-.34.268-.87.268-.87.094-.53.094-1.27.094-1.27 0-.74-.094-1.26-.094-1.26-.095-.53-.268-.86-.268-.86-.173-.33-.41-.49-.41-.49-.236-.16-.53-.16-.53-.16-.294 0-.536.16-.536.16-.242.15-.415.48-.415.48-.173.33-.268.85-.268.85-.094.52-.094 1.26-.094 1.26 0 1.47.362 2.13.362 2.13.362.67.95.67.95.67zM14.653 460.25zm.683-1.355c.294.308.7.54.7.54.403.23.99.23.99.23.306 0 .574-.11.574-.11.268-.11.467-.31.467-.31.2-.2.315-.483.315-.483.116-.284.116-.63.116-.63 0-.694-.39-1.082-.39-1.082-.388-.39-1.04-.39-1.04-.39-.345 0-.592.106-.592.106-.247.105-.552.304-.552.304l-.462-.294.22-3.226h3.35v.745H16.44l-.18 1.98c.242-.125.483-.2.483-.2.242-.072.547-.072.547-.072.43 0 .808.127.808.127.38.126.662.383.662.383.284.257.447.65.447.65.162.395.162.94.162.94 0 .548-.19.968-.19.968-.19.42-.51.71-.51.71-.32.29-.72.44-.72.44-.41.16-.85.16-.85.16-.4 0-.73-.08-.73-.08-.33-.08-.6-.2-.6-.2-.27-.12-.48-.29-.48-.29-.22-.16-.39-.34-.39-.34zm4.538 1.358zm2.616.127c-1.02 0-1.587-.9-1.587-.9-.567-.903-.567-2.595-.567-2.595 0-1.69.567-2.574.567-2.574.568-.88 1.586-.88 1.586-.88 1 0 1.57.88 1.57.88.56.89.56 2.58.56 2.58 0 1.69-.57 2.6-.57 2.6-.57.91-1.58.91-1.58.91zm0 0zm0-.69c.294 0 .53-.163.53-.163.236-.162.41-.504.41-.504.173-.34.268-.87.268-.87.094-.53.094-1.266.094-1.266 0-.738-.094-1.26-.094-1.26-.095-.528-.268-.86-.268-.86-.174-.33-.41-.49-.41-.49-.236-.16-.53-.16-.53-.16-.295 0-.536.16-.536.16-.242.158-.415.49-.415.49-.18.33-.27.855-.27.855-.1.524-.1 1.26-.1 1.26 0 1.47.36 2.137.36 2.137.36.66.95.66.95.66zm2.605.567zm2.615.126c-1.02 0-1.586-.902-1.586-.902-.567-.9-.567-2.59-.567-2.59 0-1.69.567-2.57.567-2.57.567-.88 1.586-.88 1.586-.88 1.01 0 1.576.89 1.576.89.567.88.567 2.58.567 2.58 0 1.69-.567 2.6-.567 2.6-.567.91-1.576.91-1.576.91zm0 0zm0-.692c.294 0 .53-.16.53-.16.237-.16.41-.5.41-.5.174-.34.268-.87.268-.87.095-.53.095-1.26.095-1.26 0-.73-.095-1.26-.095-1.26-.094-.52-.268-.85-.268-.85-.173-.33-.41-.48-.41-.48-.236-.16-.53-.16-.53-.16-.294 0-.536.16-.536.16-.24.16-.414.49-.414.49-.174.33-.268.86-.268.86-.095.53-.095 1.26-.095 1.26 0 1.47.363 2.14.363 2.14.362.67.95.67.95.67zM14.853 319.65zm1.86 0c.04-.945.167-1.733.167-1.733.126-.788.352-1.497.352-1.497.226-.71.578-1.37.578-1.37.352-.662.846-1.355.846-1.355h-3.34v-.74h4.316v.534c-.598.75-.97 1.45-.97 1.45-.374.69-.595 1.41-.595 1.41-.22.72-.32 1.52-.32 1.52-.1.8-.142 1.78-.142 1.78h-.893zm3.36 0zm.683-1.355c.294.31.7.54.7.54.403.23.99.23.99.23.306 0 .574-.11.574-.11.268-.11.467-.31.467-.31.2-.2.315-.48.315-.48.116-.285.116-.63.116-.63 0-.695-.39-1.083-.39-1.083-.387-.39-1.04-.39-1.04-.39-.345 0-.592.105-.592.105-.247.105-.552.304-.552.304l-.462-.29.22-3.22h3.352v.75H21.86l-.18 1.98c.242-.12.484-.2.484-.2.24-.07.546-.07.546-.07.43 0 .81.13.81.13.377.13.66.38.66.38.284.26.447.65.447.65.163.4.163.94.163.94 0 .55-.19.97-.19.97-.19.42-.504.71-.504.71-.315.29-.72.44-.72.44-.404.16-.845.16-.845.16-.39 0-.73-.08-.73-.08-.33-.08-.59-.2-.59-.2-.27-.12-.48-.29-.48-.29-.21-.16-.38-.34-.38-.34zm4.538 1.36zm2.616.126c-1.02 0-1.586-.9-1.586-.9-.568-.9-.568-2.59-.568-2.59 0-1.69.568-2.57.568-2.57.567-.88 1.586-.88 1.586-.88 1.008 0 1.575.88 1.575.88.568.89.568 2.58.568 2.58 0 1.69-.568 2.6-.568 2.6-.567.9-1.575.9-1.575.9zm0 0zm0-.69c.294 0 .53-.16.53-.16.236-.16.41-.5.41-.5.173-.34.268-.87.268-.87.094-.53.094-1.26.094-1.26 0-.74-.094-1.26-.094-1.26-.095-.53-.268-.86-.268-.86-.173-.33-.41-.49-.41-.49-.236-.16-.53-.16-.53-.16-.294 0-.536.16-.536.16-.242.16-.415.49-.415.49-.18.33-.27.86-.27.86-.1.53-.1 1.26-.1 1.26 0 1.47.36 2.14.36 2.14.36.67.95.67.95.67zM10 179.05zm.83-.715h1.533v-4.93h-1.218v-.553c.462-.085.804-.205.804-.205.34-.12.61-.29.61-.29h.66v5.988h1.38v.716h-3.78v-.71zm4.39.72zm2.616.13c-1.02 0-1.586-.902-1.586-.902-.567-.9-.567-2.593-.567-2.593 0-1.69.567-2.573.567-2.573.567-.882 1.586-.882 1.586-.882 1.01 0 1.576.884 1.576.884.567.88.567 2.57.567 2.57 0 1.69-.57 2.59-.57 2.59-.57.9-1.58.9-1.58.9zm0 0zm0-.692c.294 0 .53-.16.53-.16.237-.16.41-.504.41-.504.174-.34.268-.87.268-.87.095-.53.095-1.27.095-1.27 0-.74-.1-1.26-.1-1.26-.1-.53-.27-.86-.27-.86-.18-.33-.41-.49-.41-.49-.24-.16-.53-.16-.53-.16-.3 0-.54.16-.54.16-.24.15-.42.48-.42.48-.18.33-.27.85-.27.85-.1.53-.1 1.26-.1 1.26 0 1.47.36 2.14.36 2.14.36.67.95.67.95.67zm2.605.57zm2.62.126c-1.02 0-1.58-.91-1.58-.91-.56-.9-.56-2.59-.56-2.59 0-1.69.57-2.57.57-2.57.57-.88 1.59-.88 1.59-.88 1.01 0 1.58.88 1.58.88.57.88.57 2.57.57 2.57 0 1.69-.56 2.59-.56 2.59-.57.9-1.58.9-1.58.9zm0 0zm0-.7c.3 0 .53-.16.53-.16.24-.16.41-.51.41-.51.18-.34.27-.87.27-.87.1-.53.1-1.27.1-1.27 0-.74-.09-1.26-.09-1.26-.09-.53-.27-.86-.27-.86-.17-.33-.41-.49-.41-.49-.23-.16-.53-.16-.53-.16-.29 0-.53.16-.53.16-.24.15-.41.48-.41.48-.17.33-.27.85-.27.85-.09.52-.09 1.26-.09 1.26 0 1.47.36 2.14.36 2.14.36.66.95.66.95.66zm2.61.57zm2.62.12c-1.02 0-1.58-.91-1.58-.91-.56-.91-.56-2.6-.56-2.6 0-1.69.57-2.58.57-2.58.57-.89 1.59-.89 1.59-.89 1.01 0 1.58.88 1.58.88.57.88.57 2.57.57 2.57 0 1.69-.57 2.59-.57 2.59-.56.9-1.57.9-1.57.9zm0 0zm0-.7c.3 0 .53-.17.53-.17.24-.16.41-.5.41-.5.18-.34.27-.87.27-.87.1-.53.1-1.27.1-1.27 0-.74-.09-1.26-.09-1.26-.09-.53-.26-.86-.26-.86-.17-.33-.41-.49-.41-.49-.23-.16-.53-.16-.53-.16-.29 0-.53.16-.53.16-.24.15-.41.48-.41.48-.17.33-.27.86-.27.86-.09.52-.09 1.26-.09 1.26 0 1.47.36 2.14.36 2.14.36.67.95.67.95.67zM10 38.44zm.83-.714h1.533V32.8h-1.218v-.557c.462-.084.804-.204.804-.204.34-.12.61-.29.61-.29h.66v5.98h1.38v.71h-3.78v-.72zm4.39.72zm.42-.52c.757-.76 1.345-1.368 1.345-1.368.59-.61.988-1.13.988-1.13.4-.52.61-.95.61-.95.21-.433.21-.842.21-.842 0-.58-.316-.945-.316-.945-.315-.36-.956-.36-.956-.36-.42 0-.77.24-.77.24-.35.24-.65.57-.65.57l-.49-.49c.42-.46.9-.74.9-.74.47-.28 1.14-.28 1.14-.28.94 0 1.47.54 1.47.54.54.54.54 1.44.54 1.44 0 .47-.2.95-.2.95-.2.48-.57.99-.57.99-.36.51-.86 1.06-.86 1.06-.5.55-1.1 1.17-1.1 1.17l.57-.04c.3-.02.56-.02.56-.02H20v.75h-4.33v-.51zm4.8.512zm.684-1.35c.294.308.698.54.698.54.405.23.993.23.993.23.305 0 .572-.11.572-.11.268-.11.468-.31.468-.31.2-.2.315-.48.315-.48.116-.285.116-.63.116-.63 0-.695-.39-1.08-.39-1.08-.388-.39-1.04-.39-1.04-.39-.346 0-.593.103-.593.103-.246.11-.55.31-.55.31l-.463-.3.22-3.23h3.35v.75h-2.593l-.18 1.99c.243-.12.484-.2.484-.2.25-.07.55-.07.55-.07.43 0 .81.13.81.13.38.12.66.38.66.38.29.26.45.65.45.65.17.39.17.94.17.94 0 .55-.19.97-.19.97-.19.42-.5.71-.5.71-.31.29-.72.44-.72.44-.4.15-.84.15-.84.15-.4 0-.73-.07-.73-.07-.33-.08-.6-.2-.6-.2-.26-.12-.48-.29-.48-.29-.21-.16-.38-.34-.38-.34zm4.538 1.358zm2.615.127c-1.02 0-1.586-.9-1.586-.9-.56-.9-.56-2.595-.56-2.595 0-1.69.57-2.576.57-2.576.57-.88 1.59-.88 1.59-.88 1.01 0 1.58.88 1.58.88.57.883.57 2.574.57 2.574 0 1.69-.56 2.59-.56 2.59-.57.905-1.58.905-1.58.905zm0 0zm0-.69c.294 0 .53-.16.53-.16.237-.16.41-.505.41-.505.174-.34.268-.87.268-.87.095-.53.095-1.27.095-1.27 0-.736-.095-1.26-.095-1.26-.094-.526-.267-.857-.267-.857-.174-.33-.41-.49-.41-.49-.236-.16-.53-.16-.53-.16-.295 0-.536.16-.536.16-.242.16-.415.49-.415.49-.174.33-.268.86-.268.86-.1.53-.1 1.26-.1 1.26 0 1.47.36 2.14.36 2.14.36.67.95.67.95.67z"/><path fill="none" stroke-miterlimit="10" d="M39.59 738h954.694" stroke-linecap="square"/><path stroke="none" d="M113.07 758zm.545-3.445c0-.83.237-1.492.237-1.492.236-.662.66-1.124.66-1.124.427-.47 1.005-.71 1.005-.71.577-.25 1.27-.25 1.27-.25.715 0 1.193.27 1.193.27.478.27.782.58.782.58l-.493.55c-.27-.27-.61-.46-.61-.46-.34-.19-.87-.19-.87-.19-.53 0-.95.19-.95.19-.42.19-.72.55-.72.55-.3.36-.46.88-.46.88-.16.51-.16 1.15-.16 1.15 0 .65.15 1.17.15 1.17.15.52.44.89.44.89.29.36.71.56.71.56.42.2.98.2.98.2.36 0 .69-.11.69-.11.33-.11.54-.3.54-.3v-1.8h-1.46v-.72h2.26v2.9c-.34.34-.89.57-.89.57-.56.22-1.25.22-1.25.22-.69 0-1.25-.24-1.25-.24-.57-.25-.98-.7-.98-.7-.41-.46-.64-1.13-.64-1.13-.23-.67-.23-1.51-.23-1.51zM119.55 758zm.946-6.89h.87v2.888h3.205v-2.89h.89V758h-.88v-3.246h-3.2V758h-.87v-6.89zM126.4 758zm.545-3.445c0-.83.23-1.492.23-1.492.232-.662.642-1.124.642-1.124.41-.47.972-.71.972-.71.56-.25 1.22-.25 1.22-.25.63 0 1.1.26 1.1.26.47.25.78.59.78.59l-.5.55c-.28-.3-.61-.47-.61-.47-.33-.18-.77-.18-.77-.18-.5 0-.9.19-.9.19-.4.19-.69.55-.69.55-.29.36-.44.88-.44.88-.16.51-.16 1.15-.16 1.15 0 .65.15 1.17.15 1.17.15.52.42.89.42.89.27.36.67.56.67.56.39.2.89.2.89.2.5 0 .87-.2.87-.2.37-.2.71-.57.71-.57l.49.53c-.41.48-.93.74-.93.74-.52.26-1.18.26-1.18.26-.65 0-1.21-.24-1.21-.24-.55-.24-.96-.7-.96-.7-.4-.46-.63-1.12-.63-1.12-.23-.67-.23-1.51-.23-1.51zm5.452 3.445zm.683-4.317c0-.305.183-.49.183-.49.184-.182.447-.182.447-.182.252 0 .436.19.436.19.184.19.184.49.184.49 0 .28-.184.47-.184.47-.184.19-.436.19-.436.19-.263 0-.447-.18-.447-.18-.183-.18-.183-.46-.183-.46zm0 0zm0 3.792c0-.305.183-.49.183-.49.184-.182.447-.182.447-.182.252 0 .436.183.436.183.184.184.184.49.184.49 0 .282-.184.466-.184.466-.184.184-.436.184-.436.184-.263 0-.447-.184-.447-.184-.183-.184-.183-.467-.183-.467zm4.054.525zm.83-.714h1.534v-4.937h-1.22v-.56c.463-.09.805-.21.805-.21.34-.12.614-.29.614-.29h.662v5.99h1.38v.72h-3.78v-.72zm4.39.714zm.42-.515c.757-.756 1.346-1.365 1.346-1.365.588-.61.987-1.13.987-1.13.4-.52.61-.955.61-.955.21-.436.21-.846.21-.846 0-.58-.316-.95-.316-.95-.31-.37-.95-.37-.95-.37-.42 0-.77.23-.77.23-.35.23-.65.57-.65.57l-.49-.5c.42-.46.9-.74.9-.74.48-.28 1.14-.28 1.14-.28.94 0 1.47.54 1.47.54.54.54.54 1.43.54 1.43 0 .47-.2.95-.2.95-.2.48-.57.98-.57.98-.36.51-.86 1.06-.86 1.06-.5.55-1.09 1.17-1.09 1.17l.57-.04c.29-.02.56-.02.56-.02h1.95v.75h-4.33v-.52zm4.8.515zm.422-.515c.756-.756 1.344-1.365 1.344-1.365.588-.61.988-1.13.988-1.13.4-.52.61-.955.61-.955.21-.436.21-.846.21-.846 0-.58-.316-.95-.316-.95-.315-.37-.956-.37-.956-.37-.42 0-.778.23-.778.23-.357.23-.65.57-.65.57l-.494-.5c.42-.46.892-.74.892-.74.473-.28 1.135-.28 1.135-.28.94 0 1.48.54 1.48.54.54.54.54 1.43.54 1.43 0 .47-.2.95-.2.95-.2.48-.56.98-.56.98-.36.51-.86 1.06-.86 1.06-.5.55-1.1 1.17-1.1 1.17l.57-.04c.3-.02.56-.02.56-.02h1.95v.75H148v-.52zm4.8.515zm2.815-.557c.26 0 .47-.105.47-.105.21-.105.37-.3.37-.3.16-.193.25-.46.25-.46.09-.27.09-.605.09-.605 0-.662-.3-1.04-.3-1.04-.3-.378-.93-.378-.93-.378-.31 0-.68.204-.68.204-.37.2-.71.67-.71.67.09.98.46 1.49.46 1.49.37.51 1.01.51 1.01.51zm0 0zm1.38-5.02c-.21-.242-.5-.384-.5-.384-.29-.15-.6-.15-.6-.15-.34 0-.66.14-.66.14-.31.14-.56.48-.56.48-.24.33-.39.87-.39.87-.14.54-.15 1.34-.15 1.34.32-.39.74-.62.74-.62.42-.23.83-.23.83-.23.87 0 1.39.51 1.39.51.52.51.52 1.55.52 1.55 0 .48-.15.88-.15.88-.16.39-.43.67-.43.67-.27.28-.63.44-.63.44-.36.15-.77.15-.77.15-.49 0-.91-.2-.91-.2-.42-.2-.73-.61-.73-.61-.31-.4-.49-1.01-.49-1.01-.18-.6-.18-1.41-.18-1.41 0-1.01.21-1.72.21-1.72.21-.71.57-1.15.57-1.15.36-.45.82-.65.82-.65.46-.21.96-.21.96-.21.55 0 .94.2.94.2.4.2.68.51.68.51zM312.67 758zm.946-6.89h.87v6.144h3.013V758h-3.89v-6.89zm4.156 6.89zm.945-6.89h.874v2.888h3.2v-2.89h.88V758h-.88v-3.246h-3.2V758h-.87v-6.89zm5.905 6.89zm.545-3.445c0-.83.23-1.492.23-1.492.233-.662.643-1.124.643-1.124.41-.47.972-.71.972-.71.562-.25 1.223-.25 1.223-.25.63 0 1.103.26 1.103.26.47.25.776.59.776.59l-.494.55c-.273-.3-.604-.47-.604-.47-.33-.18-.77-.18-.77-.18-.495 0-.89.19-.89.19-.4.19-.687.55-.687.55-.29.36-.44.88-.44.88-.16.51-.16 1.15-.16 1.15 0 .65.15 1.17.15 1.17.15.52.42.89.42.89.27.36.67.56.67.56.39.2.89.2.89.2.5 0 .87-.2.87-.2.37-.2.71-.57.71-.57l.49.53c-.41.48-.93.74-.93.74-.52.26-1.18.26-1.18.26-.65 0-1.21-.24-1.21-.24-.56-.24-.96-.7-.96-.7-.4-.46-.63-1.12-.63-1.12-.23-.67-.23-1.51-.23-1.51zm5.45 3.445zm.684-4.317c0-.305.18-.49.18-.49.19-.182.45-.182.45-.182.25 0 .44.19.44.19.19.19.19.49.19.49 0 .28-.18.47-.18.47-.18.19-.43.19-.43.19-.26 0-.44-.18-.44-.18-.18-.18-.18-.46-.18-.46zm0 0zm0 3.792c0-.305.18-.49.18-.49.19-.182.45-.182.45-.182.25 0 .44.183.44.183.19.184.19.49.19.49 0 .282-.18.466-.18.466-.18.184-.43.184-.43.184-.26 0-.44-.184-.44-.184-.18-.184-.18-.467-.18-.467zm4.05.525zm3.2-2.542v-1.943c0-.273.02-.646.02-.646.02-.38.04-.65.04-.65h-.04c-.12.24-.26.47-.26.47l-.28.47-1.56 2.29h2.1zm0 0zm1.74.693h-.91V758h-.82v-1.85h-3.01v-.566l2.87-4.286h.97v4.16h.92v.693zM503.45 758zm.955-1.416c.23.41.525.593.525.593.294.184.662.184.662.184.556 0 .83-.34.83-.34.272-.34.272-1.13.272-1.13v-4.78h.882v4.87c0 .44-.11.84-.11.84-.11.4-.336.69-.336.69-.226.3-.588.47-.588.47-.362.17-.867.17-.867.17-1.29 0-1.9-1.1-1.9-1.1zm4.086 1.418zm.95-6.89h.87V754h3.21v-2.89h.88V758h-.88v-3.246h-3.2V758h-.87v-6.89zm5.91 6.89zm.55-3.444c0-.83.24-1.492.24-1.492.23-.662.64-1.124.64-1.124.41-.467.97-.71.97-.71.56-.25 1.23-.25 1.23-.25.63 0 1.1.26 1.1.26.48.255.78.59.78.59l-.49.558c-.27-.293-.6-.466-.6-.466-.33-.174-.77-.174-.77-.174-.49 0-.89.196-.89.196-.4.195-.68.557-.68.557-.28.366-.44.88-.44.88-.16.517-.16 1.158-.16 1.158 0 .65.16 1.17.16 1.17.15.52.43.89.43.89.27.37.67.57.67.57.39.2.89.2.89.2.5 0 .87-.2.87-.2.37-.2.71-.56.71-.56l.49.54c-.41.48-.92.74-.92.74-.51.26-1.17.26-1.17.26-.65 0-1.2-.24-1.2-.24-.55-.24-.95-.7-.95-.7-.4-.45-.63-1.12-.63-1.12-.22-.67-.22-1.51-.22-1.51zm5.45 3.442zm.69-4.316c0-.305.19-.49.19-.49.19-.182.45-.182.45-.182.25 0 .44.188.44.188.19.184.19.49.19.49 0 .282-.18.466-.18.466-.18.185-.43.185-.43.185-.27 0-.45-.18-.45-.18-.18-.18-.18-.46-.18-.46zm0 0zm0 3.792c0-.305.19-.49.19-.49.19-.182.45-.182.45-.182.25 0 .44.183.44.183.19.184.19.49.19.49 0 .282-.18.466-.18.466-.18.184-.43.184-.43.184-.27 0-.45-.184-.45-.184-.18-.184-.18-.467-.18-.467zm4.06.525zm.72-1.38c.3.32.71.56.71.56.4.25 1 .25 1 .25.61 0 1-.33 1-.33.39-.33.39-.9.39-.9 0-.29-.11-.54-.11-.54-.11-.24-.36-.42-.36-.42-.25-.18-.66-.27-.66-.27-.41-.09-1.01-.09-1.01-.09v-.66c.54 0 .9-.09.9-.09.36-.09.59-.26.59-.26.23-.17.32-.4.32-.4.1-.23.1-.49.1-.49 0-.49-.31-.78-.31-.78-.31-.28-.85-.28-.85-.28-.42 0-.77.19-.77.19-.35.19-.66.49-.66.49l-.46-.54c.39-.37.86-.6.86-.6.47-.24 1.07-.24 1.07-.24.44 0 .81.11.81.11.37.12.64.33.64.33.27.22.42.53.42.53.15.32.15.73.15.73 0 .61-.33 1-.33 1-.33.39-.88.6-.88.6v.04c.31.07.57.22.57.22.27.15.47.36.47.36.2.21.31.5.31.5.11.28.11.63.11.63 0 .44-.17.8-.17.8-.17.36-.47.6-.47.6-.3.25-.7.38-.7.38-.4.13-.86.13-.86.13-.4 0-.73-.08-.73-.08-.33-.08-.6-.21-.6-.21-.27-.13-.48-.3-.48-.3-.22-.17-.39-.35-.39-.35zM693.78 758zm.913-6.89h.872v4.064c0 .62.126 1.04.126 1.04.13.42.35.672.35.672.22.253.51.363.51.363.3.11.63.11.63.11.35 0 .64-.11.64-.11.3-.11.52-.37.52-.37.22-.25.35-.67.35-.67.13-.42.13-1.04.13-1.04v-4.07h.84v4.04c0 .83-.19 1.39-.19 1.39-.18.57-.52.92-.52.92-.33.35-.78.5-.78.5-.45.15-.97.15-.97.15-.52 0-.98-.15-.98-.15-.46-.15-.79-.51-.79-.51-.33-.36-.52-.92-.52-.92-.19-.57-.19-1.4-.19-1.4v-4.04zm5.86 6.89zm.947-6.89h.87v2.888h3.205v-2.89h.883V758h-.883v-3.246h-3.204V758h-.87v-6.89zm5.903 6.89zm.546-3.445c0-.83.23-1.492.23-1.492.23-.662.64-1.124.64-1.124.41-.47.97-.71.97-.71.56-.25 1.22-.25 1.22-.25.63 0 1.1.26 1.1.26.47.25.77.59.77.59l-.5.55c-.28-.3-.61-.47-.61-.47-.34-.18-.78-.18-.78-.18-.5 0-.9.19-.9.19-.4.19-.68.55-.68.55-.29.36-.44.88-.44.88-.16.51-.16 1.15-.16 1.15 0 .65.15 1.17.15 1.17.15.52.42.89.42.89.27.36.67.56.67.56.39.2.89.2.89.2.5 0 .87-.2.87-.2.37-.2.71-.57.71-.57l.49.53c-.41.48-.93.74-.93.74-.52.26-1.18.26-1.18.26-.65 0-1.2-.24-1.2-.24-.55-.24-.96-.7-.96-.7-.4-.46-.63-1.12-.63-1.12-.22-.67-.22-1.51-.22-1.51zM713.4 758zm.684-4.317c0-.305.183-.49.183-.49.184-.182.447-.182.447-.182.252 0 .436.19.436.19.184.19.184.49.184.49 0 .28-.184.47-.184.47-.184.19-.436.19-.436.19-.263 0-.447-.18-.447-.18-.183-.18-.183-.46-.183-.46zm0 0zm0 3.792c0-.305.183-.49.183-.49.184-.182.447-.182.447-.182.252 0 .436.183.436.183.184.184.184.49.184.49 0 .282-.184.466-.184.466-.184.184-.436.184-.436.184-.263 0-.447-.184-.447-.184-.183-.184-.183-.467-.183-.467zm4.054.525zm.42-.515c.757-.756 1.345-1.365 1.345-1.365.588-.61.987-1.13.987-1.13.4-.52.61-.955.61-.955.21-.436.21-.846.21-.846 0-.58-.316-.95-.316-.95-.315-.37-.955-.37-.955-.37-.43 0-.78.23-.78.23-.36.23-.65.57-.65.57l-.5-.5c.42-.46.89-.74.89-.74.47-.28 1.13-.28 1.13-.28.93 0 1.47.54 1.47.54.53.54.53 1.43.53 1.43 0 .47-.21.95-.21.95-.21.48-.57.98-.57.98-.36.51-.86 1.06-.86 1.06-.5.55-1.1 1.17-1.1 1.17l.57-.04c.29-.02.55-.02.55-.02h1.94v.75h-4.33v-.52zm160.54.515zm3.487.126c-.65 0-1.192-.252-1.192-.252-.54-.252-.93-.72-.93-.72-.388-.467-.604-1.134-.604-1.134-.22-.667-.22-1.497-.22-1.497 0-.83.21-1.486.21-1.486.21-.657.6-1.114.6-1.114.39-.456.93-.698.93-.698.54-.242 1.19-.242 1.19-.242.65 0 1.19.247 1.19.247.54.247.93.704.93.704.39.457.61 1.113.61 1.113.21.657.21 1.476.21 1.476 0 .83-.22 1.497-.22 1.497-.22.667-.61 1.135-.61 1.135-.4.467-.94.72-.94.72-.54.25-1.2.25-1.2.25zm0 0zm0-.767c.462 0 .835-.2.835-.2.373-.2.64-.58.64-.58.27-.38.416-.9.416-.9.147-.52.147-1.17.147-1.17 0-.64-.147-1.16-.147-1.16-.147-.52-.415-.87-.415-.87-.26-.36-.64-.56-.64-.56-.37-.19-.83-.19-.83-.19-.46 0-.83.19-.83.19-.37.19-.64.55-.64.55-.27.35-.41.87-.41.87-.14.51-.14 1.15-.14 1.15 0 .65.15 1.17.15 1.17.15.52.42.89.42.89.27.37.64.57.64.57.38.2.84.2.84.2zm3.488.64zm1.008-4.4h-.75v-.66l.8-.05.11-1.43h.73v1.43h1.38v.7h-1.37v2.83c0 .47.17.73.17.73.18.25.62.25.62.25.14 0 .3-.05.3-.05.16-.04.29-.1.29-.1l.17.65c-.21.07-.46.13-.46.13-.25.06-.49.06-.49.06-.41 0-.69-.13-.69-.13-.28-.13-.45-.35-.45-.35-.17-.22-.25-.54-.25-.54-.07-.32-.07-.7-.07-.7v-2.82zm2.55 4.4zm.86-7.48h.87v2.04l-.03 1.05c.37-.35.77-.6.77-.6.4-.25.94-.25.94-.25.81 0 1.18.5 1.18.5.38.5.38 1.49.38 1.49V758h-.86v-3.12c0-.725-.23-1.045-.23-1.045-.23-.32-.73-.32-.73-.32-.4 0-.7.2-.7.2-.3.2-.69.587-.69.587V758h-.86v-7.48zm4.86 7.48zm.49-2.55c0-.63.2-1.13.2-1.13.2-.5.52-.85.52-.85.32-.35.73-.53.73-.53.41-.19.85-.19.85-.19.48 0 .87.16.87.16.38.17.64.48.64.48.26.31.4.76.4.76.14.44.14.99.14.99 0 .28-.03.47-.03.47h-3.45c.05.83.51 1.31.51 1.31.46.48 1.19.48 1.19.48.37 0 .68-.11.68-.11.31-.11.6-.29.6-.29l.3.57c-.34.21-.75.37-.75.37-.41.15-.93.15-.93.15-.51 0-.96-.19-.96-.19-.44-.18-.77-.52-.77-.52-.33-.34-.52-.84-.52-.84-.19-.49-.19-1.12-.19-1.12zm0 0zm3.57-.39c0-.79-.33-1.2-.33-1.2-.33-.42-.93-.42-.93-.42-.27 0-.52.11-.52.11-.24.11-.44.31-.44.31-.2.2-.33.5-.33.5-.13.3-.17.69-.17.69h2.73zm1.15 2.94zm.86-5.11h.72l.08.92h.03c.26-.49.64-.77.64-.77.37-.28.82-.28.82-.28.3 0 .54.1.54.1l-.17.75c-.12-.05-.23-.07-.23-.07-.1-.02-.26-.02-.26-.02-.33 0-.68.26-.68.26-.35.26-.61.91-.61.91v3.3h-.86v-5.11zm2.78 5.1zm.69-4.32c0-.31.19-.49.19-.49.19-.19.45-.19.45-.19.26 0 .44.19.44.19.19.18.19.49.19.49 0 .28-.18.46-.18.46-.19.18-.44.18-.44.18-.26 0-.45-.19-.45-.19-.18-.19-.18-.47-.18-.47zm0 0zm0 3.79c0-.31.19-.49.19-.49.19-.18.45-.18.45-.18.26 0 .44.18.44.18.19.18.19.49.19.49 0 .28-.18.46-.18.46-.19.18-.44.18-.44.18-.26 0-.45-.19-.45-.19-.18-.19-.18-.47-.18-.47zm4.06.52zm2.47-3.26c.33 0 .7-.21.7-.21.37-.21.71-.69.71-.69-.08-.99-.46-1.49-.46-1.49-.38-.51-1.02-.51-1.02-.51-.24 0-.45.1-.45.1-.22.1-.37.3-.37.3-.16.19-.24.46-.24.46-.09.27-.09.6-.09.6 0 .66.31 1.04.31 1.04.31.37.94.37.94.37zm0 0zm-1.45 2.13c.21.24.5.39.5.39.29.14.61.14.61.14.36 0 .67-.15.67-.15.32-.15.56-.49.56-.49.24-.34.39-.89.39-.89.14-.55.15-1.36.15-1.36-.31.4-.73.63-.73.63-.42.23-.84.23-.84.23-.87 0-1.38-.52-1.38-.52-.51-.51-.51-1.55-.51-1.55 0-.49.16-.88.16-.88.16-.4.43-.68.43-.68.27-.29.63-.44.63-.44.37-.16.76-.16.76-.16.49 0 .92.2.92.2.42.2.73.6.73.6.31.4.48 1.01.48 1.01.17.6.17 1.41.17 1.41 0 1.01-.21 1.72-.21 1.72-.21.71-.56 1.15-.56 1.15-.36.45-.81.65-.81.65-.45.21-.96.21-.96.21-.53 0-.94-.2-.94-.2-.4-.2-.67-.51-.67-.51zm4.21 1.13zm3.19-2.54v-1.94c0-.28.02-.65.02-.65.01-.38.03-.65.03-.65h-.04c-.13.24-.26.47-.26.47l-.29.47-1.56 2.29h2.1zm0 0zm1.74.69h-.91V758h-.82v-1.85h-3.01v-.566l2.86-4.286h.97v4.16h.92v.693z"/></svg>