<svg xmlns="http://www.w3.org/2000/svg" stroke="#000" viewBox="0 0 800 600" font-size="1">
  <path fill="#FFF" stroke="none" stroke-opacity="0" stroke-width="0" stroke-miterlimit="10" d="M0 0v600h800V0z" stroke-linejoin="bevel"/>
  <path stroke="none" stroke-opacity="0" stroke-width="0" stroke-miterlimit="10" d="M315.4 14.1zm1.18-10.04h2.27v3.87h3.46V4.06h2.3V14.1h-2.3V9.9h-3.45v4.2h-2.27V4.06zm9.2 10.04zm.72-2.12c0-1.2 1.02-1.88 1.02-1.88 1-.68 3.28-.9 3.28-.9-.03-.52-.3-.82-.3-.82-.3-.3-.9-.3-.9-.3-.5 0-1 .18-1 .18-.48.2-1.04.5-1.04.5l-.8-1.48c.74-.45 1.55-.72 1.55-.72.82-.28 1.73-.28 1.73-.28 1.48 0 2.25.84 2.25.84.78.84.78 2.6.78 2.6v4.38h-1.85l-.16-.78H331c-.5.43-1.04.7-1.04.7-.55.27-1.2.27-1.2.27-.52 0-.93-.2-.93-.2-.42-.17-.7-.48-.7-.48-.3-.32-.47-.73-.47-.73-.16-.43-.16-.92-.16-.92zm0 0zm2.16-.17c0 .38.24.55.24.55.24.18.64.18.64.18.4 0 .67-.17.67-.17.3-.17.6-.48.6-.48v-1.34c-1.22.17-1.68.5-1.68.5-.46.32-.46.77-.46.77zm5.34 2.3zm1.34-2.3c.53.4 1 .6 1 .6.48.2.97.2.97.2.52 0 .75-.16.75-.16.23-.17.23-.48.23-.48 0-.18-.13-.33-.13-.33-.13-.15-.35-.27-.35-.27-.23-.12-.5-.22-.5-.22-.28-.1-.57-.23-.57-.23-.36-.12-.7-.3-.7-.3-.37-.2-.66-.46-.66-.46-.3-.27-.48-.64-.48-.64-.2-.36-.2-.83-.2-.83 0-.53.22-.97.22-.97.2-.45.6-.76.6-.76.38-.3.9-.48.9-.48.55-.18 1.22-.18 1.22-.18.87 0 1.54.3 1.54.3.66.3 1.15.67 1.15.67L339.3 8.6c-.4-.3-.8-.47-.8-.47-.4-.17-.8-.17-.8-.17-.86 0-.86.6-.86.6 0 .18.12.3.12.3.12.14.33.25.33.25.2.12.47.22.47.22l.56.2c.37.15.73.32.73.32.36.18.66.44.66.44.3.26.5.64.5.64.17.38.17.9.17.9 0 .53-.2.97-.2.97-.2.44-.6.77-.6.77-.4.33-1 .52-1 .52-.58.2-1.35.2-1.35.2-.75 0-1.55-.3-1.55-.3-.8-.3-1.38-.78-1.38-.78zm5.48 2.3zm1-10.8h2.2v6.2h.07l2.4-3.04h2.47L346.3 9.6l2.87 4.5h-2.45L345 11.13l-.97 1.1v1.87h-2.2V3.3zm7 10.8zm.57-3.82c0-.92.3-1.67.3-1.67.3-.74.8-1.25.8-1.25.5-.52 1.15-.8 1.15-.8.65-.27 1.34-.27 1.34-.27.8 0 1.4.28 1.4.28.62.27 1.03.77 1.03.77.4.5.6 1.16.6 1.16.2.66.2 1.44.2 1.44 0 .3-.02.57-.02.57-.02.26-.05.4-.05.4h-4.58c.16.88.7 1.27.7 1.27.52.4 1.3.4 1.3.4.8 0 1.64-.52 1.64-.52l.76 1.37c-.58.4-1.3.64-1.3.64-.72.23-1.4.23-1.4.23-.82 0-1.53-.28-1.53-.28-.7-.27-1.23-.8-1.23-.8-.53-.5-.82-1.24-.82-1.24-.3-.74-.3-1.7-.3-1.7zm0 0zm4.9-.78c0-.67-.28-1.08-.28-1.08-.3-.42-.98-.42-.98-.42-.54 0-.95.36-.95.36-.42.37-.54 1.14-.54 1.14h2.75zm2.5 4.6zm1-10.8h2.27v8.52c0 .36.14.5.14.5.14.13.27.13.27.13h.14l.15-.03.28 1.68c-.2.08-.47.13-.47.13-.3.06-.67.06-.67.06-.6 0-1-.2-1-.2-.4-.18-.63-.5-.63-.5-.24-.35-.35-.82-.35-.82-.1-.46-.1-1.05-.1-1.05V3.3zm3.4 10.8zm1.02-10.8h2.26v8.52c0 .36.13.5.13.5.14.13.28.13.28.13h.13l.16-.03.27 1.68c-.18.08-.47.13-.47.13-.28.06-.67.06-.67.06-.6 0-1-.2-1-.2-.4-.18-.63-.5-.63-.5-.24-.35-.35-.82-.35-.82-.1-.46-.1-1.05-.1-1.05V3.3zm6.6 10.8zm.22-10.04h2.32l.7 4.7.2 1.58.2 1.6h.06l.3-1.6c.14-.8.3-1.58.3-1.58l1.08-4.7h1.92l1.08 4.7.3 1.56.3 1.6h.06l.2-1.6.22-1.56.7-4.7h2.16l-1.78 10.04h-2.85l-.98-4.56c-.12-.58-.22-1.17-.22-1.17l-.18-1.15h-.06l-.2 1.15c-.1.6-.22 1.17-.22 1.17l-.94 4.56h-2.8zm12.3 10.04zm.56-3.82c0-.92.3-1.67.3-1.67.3-.74.8-1.25.8-1.25.5-.52 1.16-.8 1.16-.8.65-.27 1.34-.27 1.34-.27.82 0 1.42.28 1.42.28.6.27 1.02.77 1.02.77.4.5.6 1.16.6 1.16.2.66.2 1.44.2 1.44 0 .3-.02.57-.02.57l-.06.4h-4.58c.16.88.7 1.27.7 1.27.52.4 1.3.4 1.3.4.8 0 1.64-.52 1.64-.52l.75 1.37c-.58.4-1.3.64-1.3.64-.7.23-1.4.23-1.4.23-.82 0-1.53-.28-1.53-.28-.7-.27-1.23-.8-1.23-.8-.52-.5-.8-1.24-.8-1.24-.3-.74-.3-1.7-.3-1.7zm0 0zm4.92-.78c0-.67-.3-1.08-.3-1.08-.28-.42-.97-.42-.97-.42-.54 0-.95.36-.95.36-.4.37-.53 1.14-.53 1.14h2.76zm2.5 4.6zm.55-3.82c0-.92.3-1.67.3-1.67.32-.74.82-1.25.82-1.25.5-.52 1.14-.8 1.14-.8.64-.27 1.34-.27 1.34-.27.8 0 1.42.28 1.42.28.6.27 1.02.77 1.02.77.4.5.6 1.16.6 1.16.2.66.2 1.44.2 1.44 0 .3-.02.57-.02.57-.03.26-.07.4-.07.4h-4.57c.15.88.7 1.27.7 1.27.52.4 1.3.4 1.3.4.8 0 1.64-.52 1.64-.52l.75 1.37c-.6.4-1.3.64-1.3.64-.72.23-1.4.23-1.4.23-.83 0-1.54-.28-1.54-.28-.7-.27-1.22-.8-1.22-.8-.52-.5-.8-1.24-.8-1.24-.3-.74-.3-1.7-.3-1.7zm0 0zm4.93-.78c0-.67-.3-1.08-.3-1.08-.28-.42-.98-.42-.98-.42-.53 0-.94.36-.94.36-.4.37-.53 1.14-.53 1.14h2.75zm2.5 4.6zm1-10.8h2.2v6.2h.06l2.42-3.04h2.46l-2.68 3.14 2.88 4.5h-2.44l-1.73-2.97-.97 1.1v1.87h-2.2V3.3zm7.44 10.8zm1-10.8H409v8.52c0 .36.13.5.13.5.13.13.27.13.27.13h.13l.15-.03.28 1.68c-.2.08-.47.13-.47.13-.3.06-.68.06-.68.06-.6 0-1-.2-1-.2-.4-.18-.63-.5-.63-.5-.25-.35-.35-.82-.35-.82-.1-.46-.1-1.05-.1-1.05V3.3zm3.4 10.8zm1.17 1.1l.26.07c.14.03.26.03.26.03.57 0 .88-.27.88-.27.3-.28.46-.73.46-.73l.1-.4-2.93-7.44h2.28l1.1 3.28c.17.53.3 1.07.3 1.07l.3 1.1h.06l.25-1.07.28-1.1.93-3.27H418l-2.65 7.72c-.28.72-.58 1.27-.58 1.27-.3.55-.7.9-.7.9-.38.37-.88.55-.88.55-.5.2-1.18.2-1.18.2-.37 0-.6-.05-.6-.05-.26-.04-.5-.1-.5-.1l.4-1.74zm10.07-1.1zm.55-3.82c0-.95.3-1.7.3-1.7.32-.75.83-1.25.83-1.25.52-.5 1.2-.78 1.2-.78.68-.27 1.4-.27 1.4-.27.72 0 1.4.27 1.4.27.66.27 1.18.78 1.18.78.5.5.82 1.25.82 1.25.3.75.3 1.7.3 1.7 0 .96-.3 1.7-.3 1.7-.3.75-.82 1.26-.82 1.26-.52.5-1.2.78-1.2.78-.66.27-1.38.27-1.38.27-.72 0-1.4-.28-1.4-.28-.68-.27-1.2-.78-1.2-.78-.5-.5-.82-1.26-.82-1.26-.3-.74-.3-1.7-.3-1.7zm0 0zm2.33 0c0 1 .34 1.6.34 1.6.34.57 1.05.57 1.05.57.7 0 1.05-.58 1.05-.58.35-.6.35-1.6.35-1.6 0-1-.35-1.57-.35-1.57-.36-.6-1.05-.6-1.05-.6-.7 0-1.06.6-1.06.6-.35.58-.35 1.58-.35 1.58zm5.67 3.82zm3.26.6v2.24h-2.26V6.46h1.84l.16.76h.06c.45-.4 1-.67 1-.67.57-.27 1.17-.27 1.17-.27.7 0 1.25.28 1.25.28.55.27.94.78.94.78.38.5.6 1.23.6 1.23.2.7.2 1.6.2 1.6 0 .97-.27 1.74-.27 1.74-.27.77-.72 1.3-.72 1.3-.46.53-1.04.8-1.04.8-.56.3-1.18.3-1.18.3-.5 0-.95-.22-.95-.22-.47-.2-.87-.6-.87-.6zm0 0zm0-2.75c.3.27.62.38.62.38.3.1.6.1.6.1.58 0 1-.52 1-.52.4-.52.4-1.7.4-1.7 0-2.07-1.3-2.07-1.3-2.07-.67 0-1.32.7-1.32.7v3.12zm5.56 2.15zm.55-3.82c0-.92.3-1.67.3-1.67.3-.74.8-1.25.8-1.25.5-.52 1.16-.8 1.16-.8.64-.27 1.34-.27 1.34-.27.8 0 1.42.28 1.42.28.6.27 1.02.77 1.02.77.4.5.6 1.16.6 1.16.2.66.2 1.44.2 1.44 0 .3-.02.57-.02.57-.03.26-.07.4-.07.4h-4.57c.15.88.7 1.27.7 1.27.52.4 1.3.4 1.3.4.8 0 1.64-.52 1.64-.52l.75 1.37c-.6.4-1.3.64-1.3.64-.72.23-1.4.23-1.4.23-.83 0-1.54-.28-1.54-.28-.7-.27-1.23-.8-1.23-.8-.52-.5-.8-1.24-.8-1.24-.3-.74-.3-1.7-.3-1.7zm0 0zm4.92-.78c0-.67-.3-1.08-.3-1.08-.28-.42-.98-.42-.98-.42-.53 0-.94.36-.94.36-.4.37-.53 1.14-.53 1.14h2.75zm2.5 4.6zm1-7.64h1.85l.15.97h.06c.5-.46 1.08-.8 1.08-.8.58-.35 1.37-.35 1.37-.35 1.25 0 1.8.8 1.8.8.57.83.57 2.28.57 2.28v4.74h-2.26V9.65c0-.83-.23-1.14-.23-1.14-.2-.3-.7-.3-.7-.3-.43 0-.74.2-.74.2-.3.2-.68.54-.68.54v5.16h-2.26V6.46zm11 7.64zm1-7.64h1.86l.15 1.34h.06c.4-.78 1-1.15 1-1.15.58-.37 1.17-.37 1.17-.37.32 0 .53.04.53.04.2.04.37.1.37.1l-.37 1.97c-.2-.07-.4-.1-.4-.1-.18-.04-.43-.04-.43-.04-.43 0-.9.3-.9.3-.47.32-.78 1.1-.78 1.1v4.44h-2.27V6.46zm4.7 7.64zm.72-2.12c0-1.2 1-1.88 1-1.88 1.03-.68 3.3-.9 3.3-.9-.04-.52-.32-.82-.32-.82-.27-.3-.9-.3-.9-.3-.48 0-.97.18-.97.18-.5.2-1.05.5-1.05.5l-.8-1.48c.74-.45 1.55-.72 1.55-.72.8-.28 1.7-.28 1.7-.28 1.5 0 2.27.84 2.27.84.78.84.78 2.6.78 2.6v4.38h-1.85l-.17-.78h-.05c-.5.43-1.04.7-1.04.7-.55.27-1.2.27-1.2.27-.52 0-.94-.2-.94-.2-.42-.17-.7-.48-.7-.48-.3-.32-.46-.73-.46-.73-.16-.43-.16-.92-.16-.92zm0 0zm2.15-.17c0 .38.23.55.23.55.24.18.64.18.64.18.4 0 .68-.17.68-.17.27-.17.58-.48.58-.48v-1.34c-1.2.17-1.68.5-1.68.5-.46.32-.46.77-.46.77zm5.34 2.3zm1.3-5.87h-1.04V6.56l1.17-.1.26-2.03h1.88v2.03h1.84v1.77h-1.83v3.07c0 .65.28.93.28.93.27.3.7.3.7.3.2 0 .4-.06.4-.06l.34-.1.35 1.64c-.3.1-.72.2-.72.2-.42.1-.97.1-.97.1-.7 0-1.2-.23-1.2-.23-.5-.2-.83-.6-.83-.6-.3-.38-.46-.93-.46-.93-.15-.55-.15-1.2-.15-1.2v-3.1zm4.44 5.87zm.55-3.82c0-.92.3-1.67.3-1.67.32-.74.82-1.25.82-1.25.5-.52 1.15-.8 1.15-.8.65-.27 1.34-.27 1.34-.27.8 0 1.42.28 1.42.28.6.27 1.02.77 1.02.77.4.5.6 1.16.6 1.16.2.66.2 1.44.2 1.44 0 .3-.02.57-.02.57l-.06.4h-4.58c.16.88.7 1.27.7 1.27.52.4 1.3.4 1.3.4.8 0 1.64-.52 1.64-.52l.75 1.37c-.57.4-1.3.64-1.3.64-.7.23-1.4.23-1.4.23-.82 0-1.52-.28-1.52-.28-.7-.27-1.24-.8-1.24-.8-.52-.5-.8-1.24-.8-1.24-.3-.74-.3-1.7-.3-1.7zm0 0zm4.93-.78c0-.67-.3-1.08-.3-1.08-.28-.42-.98-.42-.98-.42-.53 0-.94.36-.94.36-.4.37-.53 1.14-.53 1.14h2.76z" stroke-linejoin="bevel"/>
  <path fill="none" fill-opacity="0" stroke="#D3D3D3" stroke-miterlimit="10" d="M34.37 35v505M184.54 35v505M334.7 35v505M484.88 35v505M635.05 35v505M785.22 35v505M34.37 540h750.85M34.37 439h750.85M34.37 338h750.85M34.37 237h750.85M34.37 136h750.85M34.37 35h750.85" stroke-dasharray="5 5"/>
  <g fill="#5C3566" fill-opacity=".5" stroke-opacity="0" stroke-width="0" stroke-miterlimit="10" stroke-linejoin="bevel">
    <defs>
      <clipPath id="a">
        <path d="M34.37 35v505h750.85V35z"/>
      </clipPath>
    </defs>
    <g clip-path="url(#a)">
      <path stroke="none" d="M34.37 540H800.2V233.9l-15.02-7.74-15 .18-15.02-15.28-15.02-3.77-15 14.82-15.03-4.57-15.02-9.8-15 2.3-15.02-2.25-15.02 1.72-15-.85-15.03-5.12L605 215.2l-15-4.6-15.02-17.42-15.02 14.56-15.02-2.8-15 2.26-15.03 10.3-15-11.85-15.02 8.6-15.02-23.3-15.02 18.23-15-17.84-15.03 12-15 16.36-15.02-9.25-15.02 10.86-15.02-9.37-15.02-17.72-15 11.65-15.03-10.57-15.03 2-15-12.8-15.03-3-15.02-5.62-15 38.7-15.03-38.63-15.03 37.3-15 35.42-15.03-56.25-15.02-39.35-15.02 48.07-15-31.45-15.03 15.47-15.02-29.22-15 11.54-15.03-9.02-15.02-9.82-15 16.7-15.03-58.18V540z"/>
    </g>
  </g>
  <g fill-opacity="0" stroke="#5C3566" stroke-width="2" stroke-miterlimit="10" stroke-linejoin="round" stroke-linecap="round">
    <defs>
      <clipPath id="b">
        <path d="M34.37 35v505h750.85V35z"/>
      </clipPath>
    </defs>
    <g clip-path="url(#b)">
      <path fill="none" d="M34.37 107.14l15.02 58.18 15-16.7 15.02 9.82 15.02 9.02 15-11.54 15.03 29.22 15.02-15.47 15 31.45 15.02-48.07 15.02 39.35 15.02 56.25 15-35.4 15.03-37.32 15 38.63 15.02-38.7 15.02 5.62 15.02 3 15 12.8 15.03-2 15 10.57 15.02-11.64 15.02 17.73 15.02 9.38 15.02-10.85 15 9.25 15.03-16.37 15.03-12 15 17.85 15.03-18.22 15.02 23.3 15-8.6 15.03 11.85 15.03-10.3 15-2.26 15.03 2.8 15.02-14.56 15.02 17.4 15 4.63 15.03-11.65 15.02 5.12 15 .85 15.03-1.72 15.02 2.26 15-2.3 15.03 9.8 15.02 4.56 15-14.83 15.03 3.76 15.02 15.28 15-.18 15.03 7.73"/>
    </g>
  </g>
  <path fill="none" fill-opacity="0" stroke-miterlimit="10" d="M34.37 540V35" stroke-linecap="square"/>
  <path fill="none" fill-opacity="0" stroke-miterlimit="10" d="M34.37 540h2M34.37 529.9h2M34.37 519.8h2M34.37 509.7h2M34.37 499.6h2M34.37 489.5h2M34.37 479.4h2M34.37 469.3h2M34.37 459.2h2M34.37 449.1h2M34.37 439h2M34.37 428.9h2M34.37 418.8h2M34.37 408.7h2M34.37 398.6h2M34.37 388.5h2M34.37 378.4h2M34.37 368.3h2M34.37 358.2h2M34.37 348.1h2M34.37 338h2M34.37 327.9h2M34.37 317.8h2M34.37 307.7h2M34.37 297.6h2M34.37 287.5h2M34.37 277.4h2M34.37 267.3h2M34.37 257.2h2M34.37 247.1h2M34.37 237h2M34.37 226.9h2M34.37 216.8h2M34.37 206.7h2M34.37 196.6h2M34.37 186.5h2M34.37 176.4h2M34.37 166.3h2M34.37 156.2h2M34.37 146.1h2M34.37 136h2M34.37 125.9h2M34.37 115.8h2M34.37 105.7h2M34.37 95.6h2M34.37 85.5h2M34.37 75.4h2M34.37 65.3h2M34.37 55.2h2M34.37 45.1h2M34.37 35h2M34.37 540h5M34.37 439h5M34.37 338h5M34.37 237h5M34.37 136h5M34.37 35h5"/>
  <path stroke="none" stroke-opacity="0" stroke-width="0" stroke-miterlimit="10" d="M20.07 543.45zm2.62.12c-1.03 0-1.6-.9-1.6-.9-.56-.9-.56-2.6-.56-2.6 0-1.7.56-2.57.56-2.57.57-.88 1.6-.88 1.6-.88 1 0 1.56.88 1.56.88.57.88.57 2.57.57 2.57 0 1.7-.57 2.6-.57 2.6-.56.9-1.57.9-1.57.9zm0 0zm0-.7c.28 0 .52-.15.52-.15.24-.17.4-.5.4-.5.18-.35.28-.88.28-.88.1-.53.1-1.27.1-1.27 0-.73-.1-1.26-.1-1.26-.1-.5-.27-.84-.27-.84-.17-.33-.4-.5-.4-.5-.25-.15-.54-.15-.54-.15-.3 0-.55.17-.55.17-.24.16-.4.5-.4.5-.18.32-.28.84-.28.84-.1.54-.1 1.27-.1 1.27 0 1.47.37 2.14.37 2.14.36.68.95.68.95.68zM14.77 442.45zm.42-.52l1.33-1.36c.6-.6 1-1.13 1-1.13.4-.52.6-.96.6-.96.2-.44.2-.85.2-.85 0-.57-.3-.94-.3-.94-.32-.38-.96-.38-.96-.38-.42 0-.78.24-.78.24-.37.23-.66.57-.66.57l-.5-.5c.43-.46.9-.73.9-.73.47-.28 1.13-.28 1.13-.28.94 0 1.48.54 1.48.54.53.54.53 1.43.53 1.43 0 .47-.2.94-.2.94-.2.48-.57 1-.57 1-.35.5-.85 1.05-.85 1.05l-1.1 1.16.57-.04.55-.02h1.95v.75H15.2v-.52zm4.8.52zm2.6.12c-1 0-1.58-.9-1.58-.9-.57-.9-.57-2.6-.57-2.6 0-1.7.57-2.57.57-2.57.57-.88 1.6-.88 1.6-.88 1 0 1.56.88 1.56.88.57.88.57 2.57.57 2.57 0 1.7-.57 2.6-.57 2.6-.57.9-1.57.9-1.57.9zm0 0zm0-.7c.3 0 .54-.15.54-.15.23-.17.4-.5.4-.5.18-.35.27-.88.27-.88.1-.53.1-1.27.1-1.27 0-.73-.1-1.26-.1-1.26-.08-.5-.25-.84-.25-.84-.18-.33-.4-.5-.4-.5-.25-.15-.54-.15-.54-.15-.3 0-.53.17-.53.17-.24.16-.42.5-.42.5-.17.32-.26.84-.26.84-.1.54-.1 1.27-.1 1.27 0 1.47.35 2.14.35 2.14.37.68.96.68.96.68zM14.57 341.45zm3.2-2.55v-1.94-.65l.05-.63h-.05c-.12.24-.26.47-.26.47l-.27.47-1.57 2.3h2.1zm0 0zm1.73.7h-.92v1.85h-.82v-1.85h-3v-.57l2.86-4.3h.96v4.17h.92v.7zm.3 1.85zm2.6.12c-1 0-1.58-.9-1.58-.9-.57-.9-.57-2.6-.57-2.6 0-1.7.57-2.57.57-2.57.57-.88 1.6-.88 1.6-.88 1 0 1.56.88 1.56.88.57.88.57 2.57.57 2.57 0 1.7-.57 2.6-.57 2.6-.57.9-1.57.9-1.57.9zm0 0zm0-.7c.3 0 .54-.15.54-.15.23-.17.4-.5.4-.5.18-.35.27-.88.27-.88.1-.53.1-1.27.1-1.27 0-.73-.1-1.26-.1-1.26-.08-.5-.25-.84-.25-.84-.18-.33-.4-.5-.4-.5-.25-.15-.54-.15-.54-.15-.3 0-.53.17-.53.17-.24.16-.42.5-.42.5-.17.32-.26.84-.26.84-.1.54-.1 1.27-.1 1.27 0 1.47.35 2.14.35 2.14.37.68.96.68.96.68zM14.9 240.45zm2.8-.56c.26 0 .47-.12.47-.12.2-.1.37-.3.37-.3.16-.2.25-.46.25-.46.08-.27.08-.6.08-.6 0-.66-.3-1.04-.3-1.04-.3-.38-.94-.38-.94-.38-.32 0-.7.2-.7.2-.36.2-.7.68-.7.68.08 1 .46 1.5.46 1.5.37.5 1 .5 1 .5zm0 0zm1.4-5.03c-.22-.24-.5-.4-.5-.4-.3-.13-.62-.13-.62-.13-.34 0-.66.15-.66.15-.3.14-.56.47-.56.47-.24.34-.38.88-.38.88-.15.54-.16 1.34-.16 1.34.3-.4.73-.63.73-.63.42-.22.83-.22.83-.22.88 0 1.4.5 1.4.5.52.53.52 1.57.52 1.57 0 .48-.16.88-.16.88-.16.4-.43.67-.43.67-.27.3-.62.44-.62.44-.36.17-.77.17-.77.17-.48 0-.9-.2-.9-.2-.42-.2-.73-.6-.73-.6-.3-.4-.5-1-.5-1-.17-.6-.17-1.42-.17-1.42 0-1 .2-1.72.2-1.72.22-.7.58-1.16.58-1.16.35-.44.8-.65.8-.65.47-.2.97-.2.97-.2.55 0 .94.2.94.2.4.2.67.5.67.5zm1.02 5.58zm2.6.12c-1 0-1.57-.9-1.57-.9-.57-.9-.57-2.6-.57-2.6 0-1.7.57-2.57.57-2.57.56-.88 1.58-.88 1.58-.88 1 0 1.58.88 1.58.88.57.88.57 2.57.57 2.57 0 1.7-.56 2.6-.56 2.6-.56.9-1.57.9-1.57.9zm0 0zm0-.7c.3 0 .54-.15.54-.15.24-.17.4-.5.4-.5.18-.35.28-.88.28-.88.1-.53.1-1.27.1-1.27 0-.73-.1-1.26-.1-1.26-.1-.5-.27-.84-.27-.84-.17-.33-.4-.5-.4-.5-.24-.15-.54-.15-.54-.15-.3 0-.53.17-.53.17-.25.16-.42.5-.42.5-.17.32-.27.84-.27.84-.08.54-.08 1.27-.08 1.27 0 1.47.36 2.14.36 2.14.36.68.95.68.95.68zM14.82 139.45zm1.2-1.8c0 .28.12.5.12.5.1.25.3.42.3.42.2.17.46.27.46.27.26.1.57.1.57.1.6 0 .95-.33.95-.33.36-.32.36-.85.36-.85 0-.32-.15-.55-.15-.55-.14-.23-.4-.4-.4-.4-.25-.18-.58-.32-.58-.32l-.7-.3c-.4.28-.65.64-.65.64-.27.37-.27.83-.27.83zm0 0zm1.9-1.86c.34-.3.52-.65.52-.65.18-.34.18-.7.18-.7 0-.5-.3-.85-.3-.85-.3-.34-.86-.34-.86-.34-.47 0-.78.3-.78.3-.3.3-.3.78-.3.78 0 .3.12.52.12.52.13.22.34.38.34.38.22.17.5.3.5.3l.58.25zm0 0zm-2.67 1.93c0-.32.1-.6.1-.6.12-.28.3-.5.3-.5.17-.23.4-.4.4-.4.22-.18.46-.3.46-.3v-.05c-.35-.26-.64-.63-.64-.63-.28-.37-.28-.9-.28-.9 0-.4.14-.7.14-.7.15-.33.4-.55.4-.55.26-.23.6-.36.6-.36.35-.12.76-.12.76-.12.44 0 .8.13.8.13.33.13.58.37.58.37.25.23.38.56.38.56.13.33.13.72.13.72 0 .27-.1.5-.1.5-.08.25-.2.46-.2.46-.14.2-.3.38-.3.38-.17.17-.32.28-.32.28v.04c.22.13.43.3.43.3.2.15.37.36.37.36.16.2.26.47.26.47.1.25.1.6.1.6 0 .36-.15.7-.15.7-.15.3-.44.56-.44.56-.27.24-.67.37-.67.37-.4.14-.88.14-.88.14-.48 0-.88-.14-.88-.14-.4-.13-.7-.38-.7-.38-.28-.25-.45-.58-.45-.58-.17-.34-.17-.74-.17-.74zm4.8 1.72zm2.6.12c-1 0-1.58-.9-1.58-.9-.57-.9-.57-2.6-.57-2.6 0-1.7.57-2.57.57-2.57.57-.88 1.6-.88 1.6-.88 1 0 1.56.88 1.56.88.57.88.57 2.57.57 2.57 0 1.7-.57 2.6-.57 2.6-.56.9-1.57.9-1.57.9zm0 0zm0-.7c.3 0 .54-.15.54-.15.22-.17.4-.5.4-.5.17-.35.27-.88.27-.88.1-.53.1-1.27.1-1.27 0-.73-.1-1.26-.1-1.26-.1-.5-.27-.84-.27-.84-.18-.33-.4-.5-.4-.5-.25-.15-.54-.15-.54-.15-.3 0-.54.17-.54.17-.24.16-.4.5-.4.5-.2.32-.28.84-.28.84-.1.54-.1 1.27-.1 1.27 0 1.47.37 2.14.37 2.14.37.68.96.68.96.68zM10 38.45zm.83-.72h1.53V32.8h-1.22v-.56c.47-.1.8-.2.8-.2.35-.13.62-.3.62-.3h.66v6h1.4v.7h-3.8v-.7zm4.4.72zm2.6.12c-1 0-1.58-.9-1.58-.9-.57-.9-.57-2.6-.57-2.6 0-1.7.57-2.57.57-2.57.57-.88 1.6-.88 1.6-.88 1 0 1.56.88 1.56.88.58.88.58 2.57.58 2.57 0 1.7-.57 2.6-.57 2.6-.56.9-1.56.9-1.56.9zm0 0zm0-.7c.3 0 .54-.15.54-.15.23-.17.4-.5.4-.5.18-.35.27-.88.27-.88.1-.53.1-1.27.1-1.27 0-.73-.1-1.26-.1-1.26-.1-.5-.26-.84-.26-.84-.18-.33-.4-.5-.4-.5-.25-.15-.54-.15-.54-.15-.3 0-.54.17-.54.17-.24.16-.4.5-.4.5-.2.32-.28.84-.28.84-.1.54-.1 1.27-.1 1.27 0 1.47.37 2.14.37 2.14.35.68.94.68.94.68zm2.6.58zm2.63.12c-1.02 0-1.6-.9-1.6-.9-.56-.9-.56-2.6-.56-2.6 0-1.7.57-2.57.57-2.57.57-.88 1.6-.88 1.6-.88 1 0 1.56.88 1.56.88.57.88.57 2.57.57 2.57 0 1.7-.57 2.6-.57 2.6-.56.9-1.57.9-1.57.9zm0 0zm0-.7c.3 0 .53-.15.53-.15.22-.17.4-.5.4-.5.17-.35.26-.88.26-.88.1-.53.1-1.27.1-1.27 0-.73-.1-1.26-.1-1.26-.1-.5-.26-.84-.26-.84-.18-.33-.4-.5-.4-.5-.25-.15-.54-.15-.54-.15-.3 0-.54.17-.54.17-.24.16-.4.5-.4.5-.2.32-.28.84-.28.84-.1.54-.1 1.27-.1 1.27 0 1.47.37 2.14.37 2.14.37.68.96.68.96.68z" stroke-linejoin="bevel"/>
  <path fill="none" fill-opacity="0" stroke-miterlimit="10" d="M34.37 540h750.85" stroke-linecap="square"/>
  <path fill="none" fill-opacity="0" stroke-miterlimit="10" d="M34.37 540v-2M785.22 540v-2M34.37 540v-5M184.54 540v-5M334.7 540v-5M484.88 540v-5M635.05 540v-5M785.22 540v-5"/>
  <path stroke="none" stroke-opacity="0" stroke-width="0" stroke-miterlimit="10" d="M32.48 560zm.83-.7h1.54v-4.95h-1.22v-.56c.47-.1.8-.2.8-.2.35-.13.62-.3.62-.3h.66v6h1.4v.7h-3.8v-.7zM180.04 560zm.83-.7h1.53v-4.95h-1.22v-.56c.46-.1.8-.2.8-.2.35-.13.62-.3.62-.3h.66v6h1.4v.7h-3.8v-.7zm4.4.7zm.82-.7h1.52v-4.95h-1.22v-.56c.47-.1.8-.2.8-.2.35-.13.62-.3.62-.3h.66v6h1.4v.7h-3.8v-.7zM329.98 560zm.42-.5l1.35-1.38c.58-.6.98-1.13.98-1.13.4-.53.6-.97.6-.97.22-.43.22-.84.22-.84 0-.6-.3-.96-.3-.96-.33-.36-.97-.36-.97-.36-.42 0-.78.23-.78.23-.35.25-.65.58-.65.58l-.5-.5c.43-.45.9-.73.9-.73.47-.28 1.14-.28 1.14-.28.92 0 1.46.54 1.46.54.53.55.53 1.45.53 1.45 0 .47-.2.95-.2.95-.22.48-.58 1-.58 1-.36.5-.86 1.05-.86 1.05-.5.55-1.1 1.17-1.1 1.17l.57-.04c.3-.03.56-.03.56-.03h1.93v.75h-4.33v-.5zm4.8.5zm.83-.7h1.54v-4.95h-1.22v-.56c.46-.1.8-.2.8-.2.34-.13.6-.3.6-.3h.68v6h1.38v.7h-3.77v-.7zM480.1 560zm.7-1.4c.32.33.72.57.72.57.4.24 1 .24 1 .24.6 0 1-.32 1-.32.4-.33.4-.9.4-.9 0-.3-.12-.54-.12-.54-.1-.25-.36-.42-.36-.42-.25-.18-.66-.28-.66-.28-.4-.1-1-.1-1-.1v-.65c.52 0 .9-.1.9-.1.35-.1.57-.27.57-.27.23-.17.32-.4.32-.4.1-.23.1-.5.1-.5 0-.5-.3-.77-.3-.77-.32-.28-.86-.28-.86-.28-.4 0-.76.2-.76.2-.35.17-.66.48-.66.48l-.46-.55c.4-.36.86-.6.86-.6.47-.23 1.07-.23 1.07-.23.44 0 .8.12.8.12.37.1.64.32.64.32.26.2.4.53.4.53.15.3.15.72.15.72 0 .6-.33 1-.33 1-.34.4-.9.6-.9.6v.04c.32.1.58.23.58.23.26.14.46.35.46.35.2.22.3.5.3.5.12.3.12.63.12.63 0 .46-.17.8-.17.8-.16.37-.46.62-.46.62-.3.24-.7.37-.7.37-.4.13-.86.13-.86.13-.4 0-.73-.08-.73-.08-.33-.08-.6-.2-.6-.2-.28-.14-.5-.3-.5-.3-.2-.18-.38-.37-.38-.37zm4.52 1.4zm.83-.7h1.53v-4.95h-1.22v-.56c.47-.1.8-.2.8-.2.35-.13.62-.3.62-.3h.66v6h1.4v.7h-3.8v-.7zM630.22 560zm3.2-2.54v-1.95-.63l.05-.65h-.05l-.26.48-.28.47-1.57 2.3h2.1zm0 0zm1.73.7h-.92V560h-.82v-1.85h-3v-.57l2.87-4.28h.96v4.16h.92v.7zm.3 1.84zm.82-.7h1.53v-4.95h-1.2v-.56c.45-.1.8-.2.8-.2.33-.13.6-.3.6-.3h.66v6h1.4v.7h-3.8v-.7zM780.43 560zm.68-1.36c.3.3.7.54.7.54.42.23 1 .23 1 .23.3 0 .58-.1.58-.1.26-.1.46-.3.46-.3.2-.2.32-.5.32-.5.12-.28.12-.62.12-.62 0-.7-.4-1.08-.4-1.08-.38-.4-1.03-.4-1.03-.4-.35 0-.6.1-.6.1-.24.12-.55.32-.55.32l-.46-.3.22-3.22h3.35v.74h-2.58l-.18 2c.24-.14.48-.2.48-.2.24-.08.55-.08.55-.08.43 0 .8.12.8.12.38.13.67.4.67.4.28.24.44.64.44.64.17.4.17.94.17.94 0 .54-.2.96-.2.96-.18.42-.5.7-.5.7-.3.3-.72.45-.72.45-.4.16-.84.16-.84.16-.4 0-.74-.08-.74-.08-.33-.08-.6-.2-.6-.2-.27-.13-.48-.3-.48-.3-.22-.16-.4-.34-.4-.34zm4.55 1.36zm.83-.7H788v-4.95h-1.2v-.56c.46-.1.8-.2.8-.2.34-.13.6-.3.6-.3h.68v6h1.38v.7h-3.78v-.7zM380.52 566.6zm.94-6.88h.87v6.9h-.87v-6.9zm1.82 6.9zm.72-1.17c.34.27.7.44.7.44.34.16.8.16.8.16.5 0 .76-.23.76-.23.26-.23.26-.57.26-.57 0-.2-.1-.34-.1-.34-.1-.15-.28-.26-.28-.26-.16-.1-.37-.2-.37-.2l-.42-.16-.55-.22c-.27-.12-.5-.3-.5-.3-.2-.17-.34-.4-.34-.4-.13-.23-.13-.55-.13-.55 0-.3.12-.58.12-.58.12-.26.34-.46.34-.46.22-.2.54-.3.54-.3.33-.12.74-.12.74-.12.48 0 .9.16.9.16.4.17.7.4.7.4l-.42.56c-.27-.2-.55-.33-.55-.33-.27-.12-.6-.12-.6-.12-.5 0-.72.22-.72.22-.22.22-.22.5-.22.5 0 .2.1.32.1.32.08.12.24.22.24.22.16.1.36.18.36.18l.43.17.54.22c.28.1.5.28.5.28.22.17.36.42.36.42.14.25.14.6.14.6 0 .33-.12.6-.12.6-.12.27-.35.48-.35.48-.24.2-.6.33-.6.33-.34.13-.8.13-.8.13-.54 0-1.03-.2-1.03-.2-.5-.2-.87-.5-.87-.5zm3.68 1.16zm.73-1.15c.34.27.7.44.7.44.35.16.8.16.8.16.5 0 .76-.23.76-.23.26-.23.26-.57.26-.57 0-.2-.1-.34-.1-.34-.1-.15-.28-.26-.28-.26-.16-.1-.37-.2-.37-.2l-.42-.16-.55-.22c-.27-.12-.48-.3-.48-.3-.22-.17-.36-.4-.36-.4-.13-.23-.13-.55-.13-.55 0-.3.12-.58.12-.58.12-.26.34-.46.34-.46.22-.2.55-.3.55-.3.32-.12.73-.12.73-.12.48 0 .9.16.9.16.4.17.7.4.7.4l-.42.56c-.26-.2-.55-.33-.55-.33-.27-.12-.6-.12-.6-.12-.5 0-.72.22-.72.22-.22.22-.22.5-.22.5 0 .2.1.32.1.32.1.12.24.22.24.22.16.1.37.18.37.18l.42.17.54.22c.28.1.5.28.5.28.22.17.36.42.36.42.15.25.15.6.15.6 0 .33-.12.6-.12.6-.13.27-.36.48-.36.48-.24.2-.6.33-.6.33-.34.13-.8.13-.8.13-.54 0-1.03-.2-1.03-.2-.5-.2-.86-.5-.86-.5zm3.68 1.16zm.8-5.1h.86v3.12c0 .73.23 1.05.23 1.05.22.32.73.32.73.32.4 0 .7-.22.7-.22.3-.2.67-.65.67-.65v-3.63h.87v5.1h-.72l-.07-.8h-.03c-.36.43-.76.68-.76.68-.4.25-.92.25-.92.25-.82 0-1.2-.5-1.2-.5-.37-.5-.37-1.5-.37-1.5v-3.23zm4.92 5.1zm.48-2.53c0-.64.2-1.13.2-1.13.2-.5.5-.85.5-.85.33-.36.74-.54.74-.54.4-.18.85-.18.85-.18.48 0 .87.16.87.16.38.17.64.5.64.5.25.3.4.74.4.74.13.44.13 1 .13 1 0 .27-.02.46-.02.46h-3.45c.05.83.5 1.32.5 1.32.47.48 1.2.48 1.2.48.37 0 .68-.1.68-.1.32-.12.6-.3.6-.3l.3.57c-.33.22-.74.38-.74.38-.4.15-.93.15-.93.15-.52 0-.96-.18-.96-.18-.45-.18-.78-.53-.78-.53-.34-.34-.53-.83-.53-.83-.2-.5-.2-1.13-.2-1.13zm0 0zm3.57-.4c0-.78-.33-1.2-.33-1.2-.33-.4-.93-.4-.93-.4-.28 0-.53.1-.53.1-.25.1-.45.3-.45.3-.2.22-.33.52-.33.52-.14.3-.18.68-.18.68h2.73zm3.28 2.94zm.86-5.1h.7l.08.74h.03c.38-.37.78-.62.78-.62.4-.24.94-.24.94-.24.8 0 1.18.5 1.18.5.38.5.38 1.5.38 1.5v3.23h-.87v-3.1c0-.74-.22-1.06-.22-1.06-.23-.32-.73-.32-.73-.32-.4 0-.7.2-.7.2-.3.2-.7.6-.7.6v3.7H406v-5.12zm4.87 5.1zm.8-5.1h.86v3.12c0 .73.23 1.05.23 1.05.23.32.73.32.73.32.4 0 .7-.22.7-.22.3-.2.67-.65.67-.65v-3.63h.86v5.1H415l-.06-.8h-.03c-.35.43-.74.68-.74.68-.4.25-.93.25-.93.25-.82 0-1.2-.5-1.2-.5-.37-.5-.37-1.5-.37-1.5v-3.23zm4.92 5.1zm.85-5.1h.7l.1.74h.02c.34-.37.73-.62.73-.62.4-.24.86-.24.86-.24.58 0 .9.25.9.25.35.26.5.72.5.72.4-.44.8-.7.8-.7.4-.27.88-.27.88-.27.8 0 1.17.5 1.17.5.4.5.4 1.5.4 1.5v3.23h-.86v-3.1c0-.74-.23-1.06-.23-1.06-.23-.32-.7-.32-.7-.32-.6 0-1.3.8-1.3.8v3.7h-.85v-3.13c0-.74-.23-1.06-.23-1.06-.23-.32-.73-.32-.73-.32-.58 0-1.3.8-1.3.8v3.7h-.85v-5.12zm7.85 5.1zm.86-7.47h.86v2.04l-.02.92c.35-.3.75-.52.75-.52.4-.2.85-.2.85-.2.5 0 .87.18.87.18.38.18.63.53.63.53.26.33.4.8.4.8.12.48.12 1.07.12 1.07 0 .65-.18 1.17-.18 1.17-.17.5-.48.87-.48.87-.3.37-.7.55-.7.55-.4.18-.84.18-.84.18-.36 0-.74-.16-.74-.16-.4-.16-.72-.47-.72-.47h-.04l-.07.5h-.7v-7.47zm0 0zm.86 6.34c.34.3.67.42.67.42.32.1.57.1.57.1.3 0 .58-.13.58-.13.27-.15.46-.4.46-.4.2-.26.32-.64.32-.64.1-.38.1-.85.1-.85 0-.42-.06-.77-.06-.77-.08-.33-.24-.58-.24-.58-.16-.25-.42-.38-.42-.38-.26-.14-.62-.14-.62-.14-.6 0-1.36.7-1.36.7v2.67zm4.1 1.14zm.5-2.53c0-.64.18-1.13.18-1.13.2-.5.52-.85.52-.85.32-.36.73-.54.73-.54.4-.18.85-.18.85-.18.48 0 .87.16.87.16.38.17.64.5.64.5.26.3.4.74.4.74.14.44.14 1 .14 1 0 .27-.03.46-.03.46h-3.44c.05.83.5 1.32.5 1.32.47.48 1.2.48 1.2.48.37 0 .68-.1.68-.1.3-.12.6-.3.6-.3l.3.57c-.34.22-.75.38-.75.38-.42.15-.94.15-.94.15-.52 0-.96-.18-.96-.18-.45-.18-.78-.53-.78-.53-.33-.34-.52-.83-.52-.83-.2-.5-.2-1.13-.2-1.13zm0 0zm3.56-.4c0-.78-.33-1.2-.33-1.2-.33-.4-.93-.4-.93-.4-.27 0-.52.1-.52.1-.25.1-.45.3-.45.3-.2.22-.33.52-.33.52-.13.3-.17.68-.17.68h2.73zm1.16 2.94zm.86-5.1h.7l.1.93h.02c.26-.5.63-.77.63-.77.38-.28.82-.28.82-.28.3 0 .54.1.54.1l-.16.76-.23-.07c-.1-.02-.25-.02-.25-.02-.32 0-.68.27-.68.27-.35.26-.6.9-.6.9v3.3h-.87v-5.12z" stroke-linejoin="bevel"/>
  <path fill="#5C3566" fill-opacity=".5" stroke="none" stroke-opacity="0" stroke-width="0" stroke-miterlimit="10" d="M10 580v10h20v-10z" stroke-linejoin="bevel"/>
  <path stroke="none" stroke-opacity="0" stroke-width="0" stroke-miterlimit="10" d="M35.07 586.6zm3.5.13c-.66 0-1.2-.25-1.2-.25-.54-.25-.93-.72-.93-.72-.4-.47-.6-1.13-.6-1.13-.22-.67-.22-1.5-.22-1.5 0-.83.22-1.5.22-1.5.2-.64.6-1.1.6-1.1.4-.46.93-.7.93-.7.54-.24 1.2-.24 1.2-.24.64 0 1.18.24 1.18.24.54.24.94.7.94.7.38.46.6 1.1.6 1.1.2.67.2 1.5.2 1.5 0 .82-.2 1.5-.2 1.5-.22.65-.6 1.12-.6 1.12-.4.47-.95.72-.95.72-.54.25-1.2.25-1.2.25zm0 0zm0-.76c.45 0 .83-.2.83-.2.37-.2.64-.58.64-.58.26-.38.4-.9.4-.9.16-.52.16-1.17.16-1.17 0-.64-.15-1.16-.15-1.16-.15-.5-.4-.87-.4-.87-.28-.35-.65-.55-.65-.55-.38-.2-.84-.2-.84-.2-.46 0-.83.2-.83.2-.38.2-.64.55-.64.55-.28.36-.43.87-.43.87-.15.52-.15 1.16-.15 1.16 0 .65.15 1.17.15 1.17.15.52.4.9.4.9.28.37.66.57.66.57.37.2.83.2.83.2zm3.48.64zm1.72.44v1.72h-.86v-7.26h.72l.08.6h.03c.35-.3.76-.5.76-.5.4-.22.86-.22.86-.22.5 0 .87.18.87.18.38.18.63.53.63.53.25.33.38.8.38.8.13.48.13 1.08.13 1.08 0 .65-.17 1.16-.17 1.16-.18.5-.5.87-.5.87-.3.37-.7.55-.7.55-.4.18-.83.18-.83.18-.36 0-.7-.15-.7-.15-.36-.16-.72-.44-.72-.44zm0 0zm0-1.57c.35.3.67.42.67.42.33.1.58.1.58.1.32 0 .58-.13.58-.13.27-.15.47-.4.47-.4.2-.26.3-.64.3-.64.1-.38.1-.85.1-.85 0-.42-.06-.77-.06-.77-.07-.33-.23-.58-.23-.58-.16-.25-.42-.38-.42-.38-.26-.14-.6-.14-.6-.14-.34 0-.67.18-.67.18-.33.18-.7.5-.7.5v2.7zm4.1 1.14zm.5-2.53c0-.64.2-1.13.2-1.13.18-.5.5-.85.5-.85.32-.36.73-.54.73-.54.4-.18.85-.18.85-.18.48 0 .87.16.87.16.38.17.64.5.64.5.26.3.4.74.4.74.13.44.13 1 .13 1 0 .27-.04.46-.04.46H49.2c.06.83.52 1.32.52 1.32.46.48 1.2.48 1.2.48.36 0 .67-.1.67-.1.3-.12.58-.3.58-.3l.3.57c-.33.22-.74.38-.74.38-.4.15-.93.15-.93.15-.5 0-.95-.18-.95-.18-.45-.18-.78-.53-.78-.53-.33-.34-.52-.83-.52-.83-.2-.5-.2-1.13-.2-1.13zm0 0zm3.56-.4c0-.78-.33-1.2-.33-1.2-.33-.4-.93-.4-.93-.4-.27 0-.52.1-.52.1-.24.1-.44.3-.44.3-.2.22-.33.52-.33.52-.13.3-.17.68-.17.68h2.73zm1.16 2.94zm.85-5.1h.7l.1.74h.02c.37-.37.77-.62.77-.62.4-.24.94-.24.94-.24.8 0 1.18.5 1.18.5.38.5.38 1.5.38 1.5v3.23h-.87v-3.1c0-.74-.23-1.06-.23-1.06-.23-.32-.73-.32-.73-.32-.4 0-.7.2-.7.2-.3.2-.7.6-.7.6v3.7h-.85v-5.12zm7 5.1zm.87-5.1h.7l.08.93h.04c.26-.5.63-.77.63-.77.37-.28.82-.28.82-.28.3 0 .53.1.53.1l-.17.76-.23-.07c-.1-.02-.26-.02-.26-.02-.33 0-.68.27-.68.27-.36.26-.62.9-.62.9v3.3h-.86v-5.12zm2.52 5.1zm.6-1.32c0-.84.76-1.28.76-1.28.75-.45 2.4-.63 2.4-.63 0-.24-.06-.47-.06-.47-.05-.23-.17-.4-.17-.4-.12-.2-.32-.3-.32-.3-.2-.1-.5-.1-.5-.1-.46 0-.85.16-.85.16-.38.17-.7.38-.7.38l-.33-.6c.36-.23.87-.45.87-.45.5-.22 1.13-.22 1.13-.22.94 0 1.36.57 1.36.57.42.57.42 1.53.42 1.53v3.13h-.7l-.1-.6c-.38.3-.8.52-.8.52-.43.2-.9.2-.9.2-.65 0-1.08-.36-1.08-.36-.42-.38-.42-1.08-.42-1.08zm0 0zm.86-.06c0 .44.26.63.26.63.25.2.63.2.63.2.36 0 .7-.18.7-.18.32-.18.7-.5.7-.5v-1.43c-.65.08-1.1.2-1.1.2-.43.1-.7.27-.7.27-.27.17-.4.37-.4.37-.1.2-.1.45-.1.45zm3.92 1.4zm1-4.4h-.75v-.67l.8-.05.1-1.43h.73v1.43h1.37v.7H71.6v2.84c0 .47.17.73.17.73.17.26.6.26.6.26.15 0 .3-.04.3-.04l.3-.1.16.64c-.2.08-.46.14-.46.14-.24.05-.5.05-.5.05-.4 0-.67-.12-.67-.12-.28-.12-.45-.34-.45-.34-.18-.22-.25-.54-.25-.54-.08-.3-.08-.7-.08-.7v-2.8zm2.44 4.4zm.48-2.55c0-.64.2-1.13.2-1.13.2-.5.5-.85.5-.85.33-.36.74-.54.74-.54.4-.18.85-.18.85-.18.5 0 .87.16.87.16.38.17.64.5.64.5.26.3.4.74.4.74.13.44.13 1 .13 1 0 .27-.03.46-.03.46H74.5c.05.83.5 1.32.5 1.32.46.48 1.2.48 1.2.48.37 0 .68-.1.68-.1.3-.12.6-.3.6-.3l.3.57c-.34.22-.75.38-.75.38-.4.15-.94.15-.94.15-.52 0-.97-.18-.97-.18-.45-.18-.78-.53-.78-.53-.33-.34-.52-.83-.52-.83-.2-.5-.2-1.13-.2-1.13zm0 0zm3.58-.4c0-.78-.33-1.2-.33-1.2-.35-.4-.94-.4-.94-.4-.28 0-.52.1-.52.1-.25.1-.45.3-.45.3-.2.22-.34.52-.34.52-.13.3-.17.68-.17.68h2.72z" stroke-linejoin="bevel"/>
</svg>
