<svg xmlns="http://www.w3.org/2000/svg" stroke="#000" viewBox="0 0 800 600" font-size="1">
  <path fill="#FFF" stroke="none" stroke-opacity="0" stroke-width="0" stroke-miterlimit="10" d="M0 0v600h800V0z" stroke-linejoin="bevel"/>
  <path stroke="none" stroke-opacity="0" stroke-width="0" stroke-miterlimit="10" d="M316.74 14.1zm1.18-10.04h2.27v3.87h3.45V4.06h2.28V14.1h-2.28V9.9h-3.46v4.2h-2.28V4.06zm9.2 10.04zm.72-2.12c0-1.2 1.02-1.88 1.02-1.88 1-.68 3.28-.9 3.28-.9-.03-.52-.3-.82-.3-.82-.3-.3-.9-.3-.9-.3-.5 0-1 .18-1 .18-.48.2-1.04.5-1.04.5l-.8-1.48c.74-.45 1.55-.72 1.55-.72.8-.28 1.72-.28 1.72-.28 1.48 0 2.25.84 2.25.84.78.84.78 2.6.78 2.6v4.38h-1.85l-.17-.78h-.04c-.5.43-1.04.7-1.04.7-.55.27-1.2.27-1.2.27-.52 0-.93-.2-.93-.2-.42-.17-.7-.48-.7-.48-.3-.32-.47-.73-.47-.73-.16-.43-.16-.92-.16-.92zm0 0zm2.16-.17c0 .38.24.55.24.55.23.18.64.18.64.18.4 0 .67-.17.67-.17.28-.17.6-.48.6-.48v-1.34c-1.23.17-1.7.5-1.7.5-.45.32-.45.77-.45.77zm5.34 2.3zm1.34-2.3c.52.4 1 .6 1 .6.48.2.97.2.97.2.5 0 .74-.16.74-.16.22-.17.22-.48.22-.48 0-.18-.13-.33-.13-.33-.14-.15-.36-.27-.36-.27-.23-.12-.5-.22-.5-.22-.28-.1-.57-.23-.57-.23-.36-.12-.7-.3-.7-.3-.37-.2-.66-.46-.66-.46-.28-.27-.47-.64-.47-.64-.18-.36-.18-.83-.18-.83 0-.53.2-.97.2-.97.22-.45.6-.76.6-.76.4-.3.92-.48.92-.48.54-.18 1.2-.18 1.2-.18.88 0 1.55.3 1.55.3.66.3 1.15.67 1.15.67l-1.02 1.35c-.4-.3-.8-.47-.8-.47-.4-.17-.8-.17-.8-.17-.88 0-.88.6-.88.6 0 .18.13.3.13.3.12.14.33.25.33.25.2.12.48.22.48.22l.57.2c.37.15.73.32.73.32.36.18.66.44.66.44.3.26.5.64.5.64.17.38.17.9.17.9 0 .53-.2.97-.2.97-.2.44-.6.77-.6.77-.4.33-.98.52-.98.52-.6.2-1.36.2-1.36.2-.76 0-1.56-.3-1.56-.3-.8-.3-1.38-.78-1.38-.78zm5.48 2.3zm1-10.8h2.2v6.2h.07l2.42-3.04h2.46l-2.67 3.14 2.88 4.5h-2.44l-1.72-2.97-.97 1.1v1.87h-2.2V3.3zm7 10.8zm.57-3.82c0-.92.3-1.67.3-1.67.3-.74.8-1.25.8-1.25.5-.52 1.16-.8 1.16-.8.64-.27 1.33-.27 1.33-.27.82 0 1.42.28 1.42.28.6.27 1.02.77 1.02.77.4.5.6 1.16.6 1.16.2.66.2 1.44.2 1.44 0 .3-.02.57-.02.57l-.06.4h-4.6c.17.88.7 1.27.7 1.27.53.4 1.3.4 1.3.4.82 0 1.65-.52 1.65-.52l.75 1.37c-.58.4-1.3.64-1.3.64-.72.23-1.4.23-1.4.23-.82 0-1.53-.28-1.53-.28-.7-.27-1.23-.8-1.23-.8-.53-.5-.82-1.24-.82-1.24-.3-.74-.3-1.7-.3-1.7zm0 0zm4.92-.78c0-.67-.3-1.08-.3-1.08-.28-.42-.97-.42-.97-.42-.54 0-.95.36-.95.36-.4.37-.53 1.14-.53 1.14h2.75zm2.5 4.6zm1-10.8h2.26v8.52c0 .36.15.5.15.5.13.13.26.13.26.13h.15l.14-.03.27 1.68c-.2.08-.47.13-.47.13-.3.06-.67.06-.67.06-.6 0-1-.2-1-.2-.4-.18-.63-.5-.63-.5-.23-.35-.34-.82-.34-.82-.1-.46-.1-1.05-.1-1.05V3.3zm3.4 10.8zm1-10.8h2.27v8.52c0 .36.13.5.13.5.13.13.27.13.27.13h.13l.15-.03.27 1.68c-.18.08-.47.13-.47.13-.28.06-.67.06-.67.06-.58 0-.98-.2-.98-.2-.4-.18-.64-.5-.64-.5-.23-.35-.34-.82-.34-.82-.1-.46-.1-1.05-.1-1.05V3.3zm6.6 10.8zm.23-10.04h2.32l.7 4.7.2 1.58.2 1.6h.06l.3-1.6c.14-.8.3-1.58.3-1.58l1.08-4.7h1.92l1.08 4.7.3 1.56.3 1.6h.06l.2-1.6.22-1.56.7-4.7h2.16L380.7 14.1h-2.85l-1-4.56-.2-1.17-.2-1.15h-.05l-.2 1.15c-.1.6-.22 1.17-.22 1.17l-.94 4.56h-2.8zm12.3 10.04zm.56-3.82c0-.92.3-1.67.3-1.67.3-.74.8-1.25.8-1.25.5-.52 1.16-.8 1.16-.8.65-.27 1.34-.27 1.34-.27.82 0 1.42.28 1.42.28.6.27 1.02.77 1.02.77.4.5.6 1.16.6 1.16.2.66.2 1.44.2 1.44 0 .3-.02.57-.02.57l-.06.4h-4.58c.16.88.7 1.27.7 1.27.52.4 1.3.4 1.3.4.8 0 1.64-.52 1.64-.52l.75 1.37c-.57.4-1.3.64-1.3.64-.7.23-1.4.23-1.4.23-.8 0-1.52-.28-1.52-.28-.7-.27-1.23-.8-1.23-.8-.53-.5-.82-1.24-.82-1.24-.3-.74-.3-1.7-.3-1.7zm0 0zm4.92-.78c0-.67-.3-1.08-.3-1.08-.28-.42-.97-.42-.97-.42-.55 0-.96.36-.96.36-.4.37-.53 1.14-.53 1.14h2.76zm2.5 4.6zm.55-3.82c0-.92.32-1.67.32-1.67.3-.74.8-1.25.8-1.25.5-.52 1.16-.8 1.16-.8.64-.27 1.34-.27 1.34-.27.8 0 1.42.28 1.42.28.6.27 1.02.77 1.02.77.4.5.6 1.16.6 1.16.2.66.2 1.44.2 1.44 0 .3-.02.57-.02.57-.03.26-.07.4-.07.4h-4.57c.15.88.7 1.27.7 1.27.52.4 1.3.4 1.3.4.8 0 1.64-.52 1.64-.52l.75 1.37c-.6.4-1.3.64-1.3.64-.73.23-1.42.23-1.42.23-.82 0-1.53-.28-1.53-.28-.7-.27-1.23-.8-1.23-.8-.52-.5-.8-1.24-.8-1.24-.3-.74-.3-1.7-.3-1.7zm0 0zm4.94-.78c0-.67-.3-1.08-.3-1.08-.28-.42-.98-.42-.98-.42-.53 0-.94.36-.94.36-.4.37-.53 1.14-.53 1.14h2.74zm2.5 4.6zm1-10.8h2.2v6.2h.06l2.42-3.04h2.46L404.1 9.6l2.88 4.5h-2.44l-1.73-2.97-.96 1.1v1.87h-2.2V3.3zm7.44 10.8zm1-10.8h2.26v8.52c0 .36.13.5.13.5.13.13.27.13.27.13h.13l.15-.03.28 1.68c-.2.08-.47.13-.47.13-.3.06-.67.06-.67.06-.6 0-1-.2-1-.2-.4-.18-.63-.5-.63-.5-.24-.35-.34-.82-.34-.82-.12-.46-.12-1.05-.12-1.05V3.3zm3.4 10.8zm1.17 1.1c.1.04.25.07.25.07.14.03.26.03.26.03.57 0 .88-.27.88-.27.3-.28.46-.73.46-.73l.1-.4-2.93-7.44h2.27l1.1 3.28c.17.53.3 1.07.3 1.07l.3 1.1h.06l.25-1.07.27-1.1.93-3.27h2.17l-2.65 7.72c-.28.72-.58 1.27-.58 1.27-.3.55-.7.9-.7.9-.4.37-.9.55-.9.55-.5.2-1.17.2-1.17.2-.36 0-.6-.05-.6-.05-.25-.04-.48-.1-.48-.1l.4-1.74zm10.06-1.1zm.56-3.82c0-.95.33-1.7.33-1.7.3-.75.86-1.25.86-1.25.54-.5 1.27-.78 1.27-.78.72-.27 1.5-.27 1.5-.27.7 0 1.28.24 1.28.24.58.24.97.64.97.64l-1.03 1.4c-.54-.45-1.07-.45-1.07-.45-.83 0-1.3.6-1.3.6-.48.58-.48 1.58-.48 1.58 0 1 .47 1.6.47 1.6.5.57 1.23.57 1.23.57.4 0 .75-.17.75-.17.34-.17.62-.38.62-.38l.9 1.43c-.55.5-1.23.73-1.23.73-.67.23-1.3.23-1.3.23-.8 0-1.5-.28-1.5-.28-.68-.27-1.18-.78-1.18-.78-.5-.5-.8-1.26-.8-1.26-.3-.74-.3-1.7-.3-1.7zm6.64 3.82zm1-10.8h2.26v8.52c0 .36.14.5.14.5.13.13.27.13.27.13h.13l.14-.03.28 1.68c-.2.08-.47.13-.47.13-.3.06-.67.06-.67.06-.6 0-1-.2-1-.2-.4-.18-.62-.5-.62-.5-.24-.35-.35-.82-.35-.82-.1-.46-.1-1.05-.1-1.05V3.3zm3.4 10.8zm2.13-8.76c-.57 0-.94-.33-.94-.33-.38-.32-.38-.85-.38-.85 0-.52.37-.84.37-.84.36-.32.93-.32.93-.32.58 0 .95.33.95.33.36.33.36.85.36.85 0 .53-.36.86-.36.86-.37.34-.95.34-.95.34zm0 0zm-1.12 1.12h2.27v7.64h-2.26V6.46zm3.25 7.64zm.56-3.82c0-.95.33-1.7.33-1.7.33-.75.87-1.25.87-1.25.55-.5 1.27-.78 1.27-.78.73-.27 1.5-.27 1.5-.27.72 0 1.3.24 1.3.24.56.24.95.64.95.64l-1.04 1.4c-.54-.45-1.06-.45-1.06-.45-.83 0-1.3.6-1.3.6-.5.58-.5 1.58-.5 1.58 0 1 .5 1.6.5 1.6.48.57 1.22.57 1.22.57.42 0 .76-.17.76-.17.34-.17.6-.38.6-.38l.92 1.43c-.55.5-1.23.73-1.23.73-.7.23-1.32.23-1.32.23-.8 0-1.48-.28-1.48-.28-.7-.27-1.2-.78-1.2-.78-.5-.5-.8-1.26-.8-1.26-.3-.74-.3-1.7-.3-1.7zm6.65 3.82zm1-10.8h2.2v6.2h.06l2.43-3.04h2.46l-2.7 3.14 2.9 4.5h-2.45l-1.73-2.97-.97 1.1v1.87h-2.2V3.3zm10.64 10.8zm1-7.64h1.84l.15 1.34h.05c.42-.78 1-1.15 1-1.15.6-.37 1.18-.37 1.18-.37.32 0 .53.04.53.04.2.04.37.1.37.1l-.37 1.97c-.2-.07-.4-.1-.4-.1-.18-.04-.43-.04-.43-.04-.43 0-.9.3-.9.3-.47.32-.78 1.1-.78 1.1v4.44h-2.26V6.46zm4.67 7.64zm.73-2.12c0-1.2 1-1.88 1-1.88 1.03-.68 3.3-.9 3.3-.9-.04-.52-.32-.82-.32-.82-.27-.3-.9-.3-.9-.3-.48 0-.97.18-.97.18-.5.2-1.04.5-1.04.5l-.8-1.48c.74-.45 1.55-.72 1.55-.72.8-.28 1.72-.28 1.72-.28 1.48 0 2.26.84 2.26.84.78.84.78 2.6.78 2.6v4.38h-1.85l-.16-.78h-.05c-.5.43-1.05.7-1.05.7-.54.27-1.2.27-1.2.27-.5 0-.93-.2-.93-.2-.4-.17-.7-.48-.7-.48-.3-.32-.46-.73-.46-.73-.16-.43-.16-.92-.16-.92zm0 0zm2.15-.17c0 .38.24.55.24.55.23.18.63.18.63.18.4 0 .68-.17.68-.17.28-.17.6-.48.6-.48v-1.34c-1.22.17-1.7.5-1.7.5-.45.32-.45.77-.45.77zm5.35 2.3zm1.3-5.87h-1.04V6.56l1.17-.1.26-2.03h1.87v2.03h1.83v1.77h-1.83v3.07c0 .65.27.93.27.93.27.3.7.3.7.3.2 0 .4-.06.4-.06l.34-.1.35 1.64c-.3.1-.72.2-.72.2-.4.1-.96.1-.96.1-.7 0-1.2-.23-1.2-.23-.5-.2-.83-.6-.83-.6-.3-.38-.45-.93-.45-.93-.14-.55-.14-1.2-.14-1.2v-3.1zm4.44 5.87zm.56-3.82c0-.92.3-1.67.3-1.67.3-.74.8-1.25.8-1.25.5-.52 1.16-.8 1.16-.8.65-.27 1.34-.27 1.34-.27.8 0 1.42.28 1.42.28.6.27 1.02.77 1.02.77.4.5.6 1.16.6 1.16.2.66.2 1.44.2 1.44 0 .3-.02.57-.02.57l-.06.4h-4.58c.16.88.7 1.27.7 1.27.52.4 1.3.4 1.3.4.8 0 1.64-.52 1.64-.52l.75 1.37c-.58.4-1.3.64-1.3.64-.72.23-1.4.23-1.4.23-.83 0-1.53-.28-1.53-.28-.7-.27-1.24-.8-1.24-.8-.52-.5-.8-1.24-.8-1.24-.3-.74-.3-1.7-.3-1.7zm0 0zm4.92-.78c0-.67-.3-1.08-.3-1.08-.28-.42-.98-.42-.98-.42-.53 0-.94.36-.94.36-.4.37-.53 1.14-.53 1.14h2.75z" stroke-linejoin="bevel"/>
  <path fill="none" fill-opacity="0" stroke="#D3D3D3" stroke-miterlimit="10" d="M29.8 35v505M180.88 35v505M331.97 35v505M483.05 35v505M634.13 35v505M785.22 35v505M29.8 540h755.42M29.8 413.75h755.42M29.8 287.5h755.42M29.8 161.25h755.42M29.8 35h755.42" stroke-dasharray="5 5"/>
  <g fill="#5C3566" fill-opacity=".5" stroke-opacity="0" stroke-width="0" stroke-miterlimit="10" stroke-linejoin="bevel">
    <defs>
      <clipPath id="a">
        <path d="M29.8 35v505h755.42V35z"/>
      </clipPath>
    </defs>
    <g clip-path="url(#a)">
      <path stroke="none" d="M29.8 540H800.32V369.66l-15.1 6.14-15.1-5.05L755 331.12l-15.1 12.42-15.12 45.32-15.1-47.2-15.1 3.33-15.12-29.76-15.1-.36-15.12 54.16-15.1-38.12-15.12-3.26-15.1 24.76-15.1-31.03-15.12 29.95-15.1 36.92-15.12-102.77-15.1 75.47-15.1-22.53-15.12 46.54-15.1-20.4-15.12-26.16-15.1 55.06-15.12-93.9-15.1 27.12-15.1 42.34-15.12-5.38-15.1-38.16-15.12 24.05-15.1-10.12-15.1 34.12-15.12-46.62-15.1 26.45-15.12-8.65-15.1-54.1-15.12 2.1-15.1 22.83-15.1-10.44-15.12-54.75L196 370.05l-15.12-26.8-15.1-8.2-15.1-19.3-15.12-19.83-15.1 5.23-15.12-36.77-15.1-34.83-15.1 142.12L60 287.5l-15.1 8.14L29.8 89.1V540z"/>
    </g>
  </g>
  <g fill-opacity="0" stroke="#5C3566" stroke-width="2" stroke-miterlimit="10" stroke-linejoin="round" stroke-linecap="round">
    <defs>
      <clipPath id="b">
        <path d="M29.8 35v505h755.42V35z"/>
      </clipPath>
    </defs>
    <g clip-path="url(#b)">
      <path fill="none" d="M29.8 89.1l15.1 206.55 15.12-8.15 15.1 84.17 15.1-142.12 15.12 34.83 15.1 36.77 15.12-5.23 15.1 19.82 15.12 19.3 15.1 8.2 15.1 26.8 15.12-119.67 15.1 54.75 15.12 10.44 15.1-22.82 15.1-2.1 15.12 54.1 15.1 8.64 15.12-26.45 15.1 46.62 15.1-34.12 15.12 10.12 15.1-24.05 15.12 38.16 15.1 5.38 15.12-42.34 15.1-27.1 15.1 93.88 15.12-55.06 15.1 26.16 15.12 20.4 15.1-46.54 15.1 22.53 15.12-75.47 15.1 102.77 15.12-36.92 15.1-29.96 15.12 31.02 15.1-24.76 15.1 3.26 15.12 38.12 15.1-54.16 15.12.36 15.1 29.75 15.1-3.33 15.12 47.2 15.1-45.33L755 331.12l15.1 39.63 15.12 5.05 15.1-6.14"/>
    </g>
  </g>
  <path fill="none" fill-opacity="0" stroke-miterlimit="10" d="M29.8 540V35" stroke-linecap="square"/>
  <path fill="none" fill-opacity="0" stroke-miterlimit="10" d="M29.8 540h2M29.8 527.38h2M29.8 514.75h2M29.8 502.13h2M29.8 489.5h2M29.8 476.88h2M29.8 464.25h2M29.8 451.63h2M29.8 439h2M29.8 426.38h2M29.8 413.75h2M29.8 401.13h2M29.8 388.5h2M29.8 375.88h2M29.8 363.25h2M29.8 350.63h2M29.8 338h2M29.8 325.38h2M29.8 312.75h2M29.8 300.13h2M29.8 287.5h2M29.8 274.88h2M29.8 262.25h2M29.8 249.63h2M29.8 237h2M29.8 224.38h2M29.8 211.75h2M29.8 199.13h2M29.8 186.5h2M29.8 173.88h2M29.8 161.25h2M29.8 148.63h2M29.8 136h2M29.8 123.38h2M29.8 110.75h2M29.8 98.13h2M29.8 85.5h2M29.8 72.88h2M29.8 60.25h2M29.8 47.63h2M29.8 35h2M29.8 540h5M29.8 413.75h5M29.8 287.5h5M29.8 161.25h5M29.8 35h5"/>
  <path stroke="none" stroke-opacity="0" stroke-width="0" stroke-miterlimit="10" d="M15.5 543.45zm2.62.12c-1.02 0-1.6-.9-1.6-.9-.55-.9-.55-2.6-.55-2.6 0-1.7.56-2.57.56-2.57.57-.88 1.6-.88 1.6-.88 1 0 1.57.88 1.57.88.56.88.56 2.57.56 2.57 0 1.7-.56 2.6-.56 2.6-.57.9-1.58.9-1.58.9zm0 0zm0-.7c.3 0 .53-.15.53-.15.24-.17.4-.5.4-.5.18-.35.28-.88.28-.88.1-.53.1-1.27.1-1.27 0-.73-.1-1.26-.1-1.26-.1-.5-.27-.84-.27-.84-.17-.33-.4-.5-.4-.5-.25-.15-.54-.15-.54-.15-.3 0-.54.17-.54.17-.24.16-.4.5-.4.5-.18.32-.28.84-.28.84-.1.54-.1 1.27-.1 1.27 0 1.47.37 2.14.37 2.14.36.68.95.68.95.68zM10.2 417.2zm.42-.52l1.34-1.36c.6-.6 1-1.13 1-1.13.4-.53.6-.97.6-.97.2-.44.2-.85.2-.85 0-.57-.3-.94-.3-.94-.32-.37-.96-.37-.96-.37-.42 0-.78.24-.78.24-.35.24-.65.58-.65.58l-.5-.5c.43-.46.9-.73.9-.73.47-.28 1.14-.28 1.14-.28.94 0 1.48.54 1.48.54.53.55.53 1.44.53 1.44 0 .48-.2.95-.2.95-.2.47-.56.98-.56.98-.36.5-.86 1.06-.86 1.06-.5.55-1.1 1.17-1.1 1.17.27 0 .57-.03.57-.03l.55-.02h1.95v.75h-4.33v-.52zm4.8.52zm2.62.12c-1.02 0-1.6-.9-1.6-.9-.56-.9-.56-2.6-.56-2.6 0-1.7.57-2.57.57-2.57.57-.88 1.6-.88 1.6-.88 1 0 1.56.88 1.56.88.58.88.58 2.57.58 2.57 0 1.7-.57 2.6-.57 2.6-.56.9-1.56.9-1.56.9zm0 0zm0-.7c.3 0 .53-.15.53-.15.23-.17.4-.5.4-.5.18-.35.27-.88.27-.88.1-.54.1-1.28.1-1.28 0-.73-.1-1.26-.1-1.26-.1-.52-.26-.85-.26-.85-.18-.32-.4-.48-.4-.48-.25-.16-.54-.16-.54-.16-.3 0-.54.16-.54.16-.24.16-.4.5-.4.5-.2.32-.28.84-.28.84-.1.53-.1 1.26-.1 1.26 0 1.47.37 2.14.37 2.14.35.67.94.67.94.67zM10 290.95zm3.2-2.55v-1.94-.65l.05-.63h-.05c-.12.24-.26.47-.26.47l-.28.47-1.57 2.3h2.1zm0 0zm1.73.7H14v1.85h-.8v-1.85h-3.02v-.57l2.87-4.3H14v4.17h.93v.7zm.3 1.85zm2.6.12c-1 0-1.58-.9-1.58-.9-.57-.9-.57-2.6-.57-2.6 0-1.7.57-2.57.57-2.57.57-.88 1.6-.88 1.6-.88 1 0 1.56.88 1.56.88.58.88.58 2.57.58 2.57 0 1.7-.57 2.6-.57 2.6-.56.9-1.56.9-1.56.9zm0 0zm0-.7c.3 0 .54-.15.54-.15.23-.17.4-.5.4-.5.18-.35.27-.88.27-.88.1-.53.1-1.27.1-1.27 0-.73-.1-1.26-.1-1.26-.1-.5-.26-.84-.26-.84-.18-.33-.4-.5-.4-.5-.25-.15-.54-.15-.54-.15-.3 0-.54.17-.54.17-.24.16-.4.5-.4.5-.2.32-.28.84-.28.84-.1.54-.1 1.27-.1 1.27 0 1.47.37 2.14.37 2.14.35.68.94.68.94.68zM10.33 164.7zm2.8-.56c.26 0 .47-.1.47-.1.2-.1.37-.3.37-.3.16-.2.25-.47.25-.47.1-.27.1-.6.1-.6 0-.66-.32-1.04-.32-1.04-.3-.38-.93-.38-.93-.38-.32 0-.7.2-.7.2-.36.2-.7.68-.7.68.08 1 .46 1.5.46 1.5.37.5 1 .5 1 .5zm0 0zm1.4-5.02c-.22-.24-.5-.4-.5-.4-.3-.13-.62-.13-.62-.13-.33 0-.65.14-.65.14-.3.15-.55.48-.55.48-.25.34-.4.88-.4.88-.14.54-.15 1.34-.15 1.34.3-.4.73-.62.73-.62.42-.22.83-.22.83-.22.9 0 1.4.5 1.4.5.53.53.53 1.57.53 1.57 0 .48-.16.88-.16.88-.16.4-.43.67-.43.67-.28.3-.63.44-.63.44-.35.16-.76.16-.76.16-.5 0-.9-.2-.9-.2-.43-.2-.74-.6-.74-.6-.3-.4-.5-1-.5-1-.17-.6-.17-1.42-.17-1.42 0-1 .2-1.72.2-1.72.22-.7.58-1.16.58-1.16.36-.44.82-.65.82-.65.46-.2.96-.2.96-.2.55 0 .94.2.94.2.4.2.68.5.68.5zm1.02 5.58zm2.6.12c-1 0-1.57-.9-1.57-.9-.57-.9-.57-2.6-.57-2.6 0-1.7.58-2.57.58-2.57.56-.88 1.58-.88 1.58-.88 1 0 1.58.88 1.58.88.56.88.56 2.57.56 2.57 0 1.7-.56 2.6-.56 2.6-.57.9-1.58.9-1.58.9zm0 0zm0-.7c.3 0 .54-.15.54-.15.23-.17.4-.5.4-.5.18-.35.27-.88.27-.88.1-.54.1-1.28.1-1.28 0-.73-.1-1.26-.1-1.26-.1-.52-.27-.85-.27-.85-.17-.32-.4-.48-.4-.48-.24-.16-.54-.16-.54-.16-.3 0-.53.16-.53.16-.25.16-.42.5-.42.5-.16.32-.26.84-.26.84-.1.53-.1 1.26-.1 1.26 0 1.47.37 2.14.37 2.14.37.67.96.67.96.67zM10.25 38.45zm1.2-1.8c0 .28.12.5.12.5.1.24.3.42.3.42.2.17.46.27.46.27.26.1.57.1.57.1.6 0 .95-.33.95-.33.36-.32.36-.85.36-.85 0-.32-.13-.55-.13-.55-.15-.23-.4-.4-.4-.4-.26-.18-.6-.32-.6-.32l-.68-.3c-.4.28-.67.64-.67.64-.27.37-.27.83-.27.83zm0 0zm1.9-1.86c.34-.3.52-.65.52-.65.18-.34.18-.7.18-.7 0-.5-.3-.85-.3-.85-.3-.34-.86-.34-.86-.34-.48 0-.8.3-.8.3-.3.3-.3.78-.3.78 0 .3.13.52.13.52.13.22.34.38.34.38.22.17.5.3.5.3l.58.25zm0 0zm-2.67 1.93c0-.32.1-.6.1-.6.12-.28.3-.5.3-.5.17-.23.4-.4.4-.4.22-.18.46-.3.46-.3v-.05c-.36-.26-.65-.63-.65-.63-.3-.37-.3-.9-.3-.9 0-.4.16-.7.16-.7.14-.33.4-.55.4-.55.25-.23.6-.36.6-.36.34-.12.75-.12.75-.12.45 0 .8.13.8.13.34.13.6.37.6.37.24.23.37.56.37.56.13.33.13.72.13.72 0 .27-.1.5-.1.5-.08.25-.2.46-.2.46-.14.2-.3.38-.3.38-.17.17-.32.28-.32.28v.04c.22.13.43.3.43.3.22.15.38.36.38.36.16.2.26.47.26.47.1.25.1.6.1.6 0 .36-.16.7-.16.7-.15.3-.44.56-.44.56-.28.24-.68.37-.68.37-.4.14-.88.14-.88.14-.47 0-.88-.14-.88-.14-.4-.13-.7-.38-.7-.38-.28-.25-.45-.58-.45-.58-.17-.34-.17-.74-.17-.74zm4.8 1.72zm2.6.12c-1 0-1.58-.9-1.58-.9-.57-.9-.57-2.6-.57-2.6 0-1.7.57-2.57.57-2.57.57-.88 1.6-.88 1.6-.88 1 0 1.56.88 1.56.88.57.88.57 2.57.57 2.57 0 1.7-.57 2.6-.57 2.6-.56.9-1.57.9-1.57.9zm0 0zm0-.7c.3 0 .54-.15.54-.15.23-.17.4-.5.4-.5.18-.35.28-.88.28-.88.1-.53.1-1.27.1-1.27 0-.73-.1-1.26-.1-1.26-.1-.5-.27-.84-.27-.84-.17-.33-.4-.5-.4-.5-.25-.15-.54-.15-.54-.15-.3 0-.55.17-.55.17-.24.16-.4.5-.4.5-.2.32-.28.84-.28.84-.1.54-.1 1.27-.1 1.27 0 1.47.37 2.14.37 2.14.36.68.95.68.95.68z" stroke-linejoin="bevel"/>
  <path fill="none" fill-opacity="0" stroke-miterlimit="10" d="M29.8 540h755.42" stroke-linecap="square"/>
  <path fill="none" fill-opacity="0" stroke-miterlimit="10" d="M29.8 540v-2M785.22 540v-2M29.8 540v-5M180.88 540v-5M331.97 540v-5M483.05 540v-5M634.13 540v-5M785.22 540v-5"/>
  <path stroke="none" stroke-opacity="0" stroke-width="0" stroke-miterlimit="10" d="M27.9 560zm.84-.7h1.53v-4.95h-1.22v-.56c.47-.1.8-.2.8-.2.35-.13.62-.3.62-.3h.66v6h1.4v.7h-3.8v-.7zM176.38 560zm.83-.7h1.55v-4.95h-1.22v-.56c.46-.1.8-.2.8-.2.34-.13.62-.3.62-.3h.66v6h1.4v.7h-3.8v-.7zm4.4.7zm.83-.7h1.54v-4.95h-1.22v-.56c.46-.1.8-.2.8-.2.34-.13.62-.3.62-.3h.66v6h1.38v.7h-3.77v-.7zM327.24 560zm.42-.5l1.34-1.38c.6-.6 1-1.13 1-1.13.4-.53.6-.97.6-.97.2-.43.2-.84.2-.84 0-.6-.3-.96-.3-.96-.32-.36-.96-.36-.96-.36-.42 0-.78.23-.78.23-.35.25-.65.58-.65.58l-.48-.5c.42-.45.9-.73.9-.73.46-.28 1.12-.28 1.12-.28.94 0 1.48.54 1.48.54.53.55.53 1.45.53 1.45 0 .47-.2.95-.2.95-.2.48-.57 1-.57 1-.36.5-.86 1.05-.86 1.05-.5.55-1.1 1.17-1.1 1.17l.57-.04c.28-.03.54-.03.54-.03H332v.75h-4.34v-.5zm4.8.5zm.83-.7h1.52v-4.95h-1.22v-.56c.47-.1.8-.2.8-.2.35-.13.62-.3.62-.3h.66v6h1.4v.7h-3.8v-.7zM478.27 560zm.7-1.4c.32.33.72.57.72.57.4.24 1 .24 1 .24.6 0 1-.32 1-.32.38-.33.38-.9.38-.9 0-.3-.1-.54-.1-.54-.12-.25-.37-.42-.37-.42-.24-.18-.65-.28-.65-.28-.4-.1-1-.1-1-.1v-.65c.53 0 .9-.1.9-.1.35-.1.58-.27.58-.27.22-.17.32-.4.32-.4.1-.23.1-.5.1-.5 0-.5-.32-.77-.32-.77-.3-.28-.84-.28-.84-.28-.43 0-.8.2-.8.2-.34.17-.64.48-.64.48l-.47-.55c.38-.36.85-.6.85-.6.47-.23 1.07-.23 1.07-.23.44 0 .8.12.8.12.37.1.64.32.64.32.27.2.42.53.42.53.14.3.14.72.14.72 0 .6-.33 1-.33 1-.35.4-.9.6-.9.6v.04c.3.1.57.23.57.23.26.14.46.35.46.35.2.22.3.5.3.5.12.3.12.63.12.63 0 .46-.17.8-.17.8-.17.37-.47.62-.47.62-.3.24-.7.37-.7.37-.4.13-.85.13-.85.13-.4 0-.73-.08-.73-.08-.33-.08-.6-.2-.6-.2-.28-.14-.5-.3-.5-.3-.2-.18-.38-.37-.38-.37zm4.52 1.4zm.82-.7h1.53v-4.95h-1.2v-.56c.45-.1.8-.2.8-.2.33-.13.6-.3.6-.3h.67v6h1.38v.7h-3.78v-.7zM629.3 560zm3.2-2.54v-1.95-.63l.05-.65h-.04l-.25.48-.3.47-1.55 2.3h2.1zm0 0zm1.73.7h-.9V560h-.83v-1.85h-3.02v-.57l2.87-4.28h.97v4.16h.9v.7zm.3 1.84zm.83-.7h1.53v-4.95h-1.23v-.56c.46-.1.8-.2.8-.2.35-.13.62-.3.62-.3h.65v6h1.4v.7h-3.8v-.7zM780.43 560zm.68-1.36c.3.3.7.54.7.54.42.23 1 .23 1 .23.3 0 .58-.1.58-.1.26-.1.46-.3.46-.3.2-.2.32-.5.32-.5.12-.28.12-.62.12-.62 0-.7-.4-1.08-.4-1.08-.38-.4-1.03-.4-1.03-.4-.35 0-.6.1-.6.1-.24.12-.55.32-.55.32l-.46-.3.22-3.22h3.35v.74h-2.58l-.18 2c.24-.14.48-.2.48-.2.24-.08.55-.08.55-.08.43 0 .8.12.8.12.38.13.67.4.67.4.28.24.44.64.44.64.17.4.17.94.17.94 0 .54-.2.96-.2.96-.18.42-.5.7-.5.7-.3.3-.72.45-.72.45-.4.16-.84.16-.84.16-.4 0-.74-.08-.74-.08-.33-.08-.6-.2-.6-.2-.27-.13-.48-.3-.48-.3-.22-.16-.4-.34-.4-.34zm4.55 1.36zm.83-.7H788v-4.95h-1.2v-.56c.46-.1.8-.2.8-.2.34-.13.6-.3.6-.3h.68v6h1.38v.7h-3.78v-.7zM378.23 566.6zm.95-6.88h.87v6.9h-.87v-6.9zm1.82 6.9zm.72-1.17c.34.27.7.44.7.44.34.16.8.16.8.16.5 0 .76-.23.76-.23.25-.23.25-.57.25-.57 0-.2-.1-.34-.1-.34-.1-.15-.27-.26-.27-.26l-.38-.2-.42-.16-.54-.22c-.27-.12-.5-.3-.5-.3-.2-.17-.34-.4-.34-.4-.14-.23-.14-.55-.14-.55 0-.3.12-.58.12-.58.12-.26.35-.46.35-.46.23-.2.56-.3.56-.3.33-.12.74-.12.74-.12.48 0 .88.16.88.16.4.17.7.4.7.4l-.4.56c-.27-.2-.55-.33-.55-.33-.3-.12-.62-.12-.62-.12-.48 0-.7.22-.7.22-.23.22-.23.5-.23.5 0 .2.1.32.1.32.1.12.25.22.25.22.16.1.36.18.36.18l.43.17.56.22c.28.1.5.28.5.28.22.17.36.42.36.42.14.25.14.6.14.6 0 .33-.12.6-.12.6-.12.27-.36.48-.36.48-.23.2-.6.33-.6.33-.34.13-.8.13-.8.13-.54 0-1.03-.2-1.03-.2-.5-.2-.86-.5-.86-.5zm3.68 1.16zm.72-1.15c.34.27.7.44.7.44.34.16.8.16.8.16.5 0 .76-.23.76-.23.25-.23.25-.57.25-.57 0-.2-.1-.34-.1-.34-.1-.15-.27-.26-.27-.26-.16-.1-.37-.2-.37-.2l-.43-.16c-.28-.1-.55-.22-.55-.22-.27-.12-.5-.3-.5-.3-.2-.17-.34-.4-.34-.4-.14-.23-.14-.55-.14-.55 0-.3.12-.58.12-.58.12-.26.35-.46.35-.46.24-.2.56-.3.56-.3.33-.12.74-.12.74-.12.48 0 .88.16.88.16.4.17.7.4.7.4l-.4.56c-.27-.2-.55-.33-.55-.33-.3-.12-.62-.12-.62-.12-.48 0-.7.22-.7.22-.23.22-.23.5-.23.5 0 .2.1.32.1.32.1.12.25.22.25.22.16.1.36.18.36.18l.43.17.56.22c.28.1.5.28.5.28.22.17.36.42.36.42.14.25.14.6.14.6 0 .33-.12.6-.12.6-.12.27-.36.48-.36.48-.23.2-.58.33-.58.33-.36.13-.8.13-.8.13-.55 0-1.05-.2-1.05-.2-.5-.2-.86-.5-.86-.5zm3.68 1.16zm.8-5.1h.86v3.12c0 .73.22 1.05.22 1.05.23.32.73.32.73.32.4 0 .72-.22.72-.22.3-.2.67-.65.67-.65v-3.63h.85v5.1h-.7l-.1-.8h-.02c-.36.43-.75.68-.75.68-.4.25-.93.25-.93.25-.82 0-1.2-.5-1.2-.5-.36-.5-.36-1.5-.36-1.5v-3.23zm4.9 5.1zm.5-2.53c0-.64.2-1.13.2-1.13.18-.5.5-.85.5-.85.32-.36.73-.54.73-.54.4-.18.86-.18.86-.18.47 0 .85.16.85.16.4.17.64.5.64.5.25.3.4.74.4.74.12.44.12 1 .12 1 0 .27-.03.46-.03.46h-3.45c.05.83.5 1.32.5 1.32.46.48 1.2.48 1.2.48.37 0 .68-.1.68-.1.3-.12.6-.3.6-.3l.3.57c-.34.22-.75.38-.75.38-.4.15-.94.15-.94.15-.5 0-.96-.18-.96-.18-.44-.18-.78-.53-.78-.53-.33-.34-.52-.83-.52-.83-.18-.5-.18-1.13-.18-1.13zm0 0zm3.57-.4c0-.78-.33-1.2-.33-1.2-.34-.4-.93-.4-.93-.4-.27 0-.5.1-.5.1-.26.1-.46.3-.46.3-.2.22-.33.52-.33.52-.12.3-.16.68-.16.68h2.73zm3.27 2.94zm.87-5.1h.72l.07.74h.02c.37-.37.78-.62.78-.62.4-.24.94-.24.94-.24.8 0 1.18.5 1.18.5.37.5.37 1.5.37 1.5v3.23h-.87v-3.1c0-.74-.23-1.06-.23-1.06-.23-.32-.74-.32-.74-.32-.4 0-.7.2-.7.2-.3.2-.7.6-.7.6v3.7h-.85v-5.12zm4.9 5.1zm.78-5.1h.87v3.12c0 .73.23 1.05.23 1.05.22.32.73.32.73.32.4 0 .7-.22.7-.22.3-.2.68-.65.68-.65v-3.63h.86v5.1h-.7l-.1-.8h-.02c-.35.43-.75.68-.75.68-.4.25-.93.25-.93.25-.82 0-1.2-.5-1.2-.5-.36-.5-.36-1.5-.36-1.5v-3.23zm4.92 5.1zm.87-5.1h.7l.08.74h.03c.34-.37.73-.62.73-.62.4-.24.87-.24.87-.24.6 0 .92.25.92.25.32.26.48.72.48.72.4-.44.8-.7.8-.7.4-.27.88-.27.88-.27.8 0 1.17.5 1.17.5.38.5.38 1.5.38 1.5v3.23h-.85v-3.1c0-.74-.23-1.06-.23-1.06-.23-.32-.7-.32-.7-.32-.6 0-1.3.8-1.3.8v3.7h-.86v-3.13c0-.74-.23-1.06-.23-1.06-.23-.32-.72-.32-.72-.32-.57 0-1.27.8-1.27.8v3.7h-.86v-5.12zm7.84 5.1zm.87-7.47h.86v2.04l-.02.92c.36-.3.77-.52.77-.52.4-.2.84-.2.84-.2.5 0 .88.18.88.18.38.18.64.53.64.53.25.33.4.8.4.8.12.48.12 1.07.12 1.07 0 .65-.18 1.17-.18 1.17-.18.5-.48.87-.48.87-.3.37-.7.55-.7.55-.4.18-.85.18-.85.18-.36 0-.74-.16-.74-.16-.4-.16-.73-.47-.73-.47h-.03l-.07.5h-.7v-7.47zm0 0zm.86 6.34c.34.3.67.42.67.42.33.1.58.1.58.1.32 0 .6-.13.6-.13.26-.15.45-.4.45-.4.2-.26.3-.64.3-.64.1-.38.1-.85.1-.85 0-.42-.06-.77-.06-.77-.07-.33-.23-.58-.23-.58-.17-.25-.43-.38-.43-.38-.24-.14-.6-.14-.6-.14-.62 0-1.37.7-1.37.7v2.67zm4.1 1.14zm.5-2.53c0-.64.2-1.13.2-1.13.18-.5.5-.85.5-.85.32-.36.73-.54.73-.54.4-.18.85-.18.85-.18.5 0 .88.16.88.16.38.17.64.5.64.5.26.3.4.74.4.74.13.44.13 1 .13 1 0 .27-.03.46-.03.46h-3.44c.05.83.5 1.32.5 1.32.46.48 1.2.48 1.2.48.37 0 .68-.1.68-.1.3-.12.6-.3.6-.3l.3.57c-.34.22-.75.38-.75.38-.4.15-.93.15-.93.15-.5 0-.96-.18-.96-.18-.43-.18-.77-.53-.77-.53-.33-.34-.52-.83-.52-.83-.17-.5-.17-1.13-.17-1.13zm0 0zm3.57-.4c0-.78-.33-1.2-.33-1.2-.34-.4-.93-.4-.93-.4-.28 0-.52.1-.52.1-.25.1-.45.3-.45.3-.2.22-.33.52-.33.52-.13.3-.17.68-.17.68h2.73zm1.15 2.94zm.86-5.1h.73l.07.93h.03c.27-.5.64-.77.64-.77.37-.28.8-.28.8-.28.32 0 .56.1.56.1l-.17.76-.23-.07c-.1-.02-.26-.02-.26-.02-.33 0-.68.27-.68.27-.36.26-.63.9-.63.9v3.3h-.86v-5.12z" stroke-linejoin="bevel"/>
  <path fill="#5C3566" fill-opacity=".5" stroke="none" stroke-opacity="0" stroke-width="0" stroke-miterlimit="10" d="M10 580v10h20v-10z" stroke-linejoin="bevel"/>
  <path stroke="none" stroke-opacity="0" stroke-width="0" stroke-miterlimit="10" d="M35.07 586.6zm.55-3.44c0-.83.23-1.5.23-1.5.23-.65.64-1.1.64-1.1.4-.48.96-.72.96-.72.57-.25 1.23-.25 1.23-.25.62 0 1.1.25 1.1.25.46.26.77.6.77.6l-.5.55c-.27-.3-.6-.47-.6-.47-.33-.17-.77-.17-.77-.17-.5 0-.9.2-.9.2-.4.2-.68.55-.68.55-.28.37-.44.9-.44.9-.16.5-.16 1.14-.16 1.14 0 .65.16 1.17.16 1.17.15.53.42.9.42.9.27.37.67.57.67.57.4.2.9.2.9.2.5 0 .86-.2.86-.2.38-.2.7-.57.7-.57l.5.54c-.4.47-.92.73-.92.73-.5.26-1.17.26-1.17.26-.65 0-1.2-.24-1.2-.24-.55-.25-.95-.7-.95-.7-.4-.46-.63-1.13-.63-1.13-.23-.67-.23-1.5-.23-1.5zm5.45 3.45zm.86-7.47h.86v6.5c0 .22.07.3.07.3.07.1.17.1.17.1h.07l.12-.03.12.65c-.08.04-.2.06-.2.06-.1.03-.3.03-.3.03-.5 0-.7-.3-.7-.3-.2-.3-.2-.85-.2-.85v-6.45zm1.82 7.48zm1.3-6.15c-.25 0-.42-.16-.42-.16-.18-.16-.18-.4-.18-.4 0-.26.18-.4.18-.4.17-.16.42-.16.42-.16.25 0 .43.15.43.15.17.14.17.4.17.4 0 .24-.17.4-.17.4-.18.15-.43.15-.43.15zm0 0zm-.44 1.05h.87v5.1h-.86v-5.1zm1.73 5.1zm.5-2.53c0-.65.2-1.14.2-1.14.2-.5.52-.85.52-.85.34-.35.8-.53.8-.53.43-.17.93-.17.93-.17.5 0 .86.18.86.18.36.18.63.43.63.43l-.43.54c-.24-.2-.48-.32-.48-.32-.25-.13-.55-.13-.55-.13-.34 0-.63.13-.63.13-.3.14-.5.4-.5.4-.22.27-.34.63-.34.63-.12.36-.12.8-.12.8 0 .45.13.8.13.8.1.36.32.62.32.62.2.26.5.4.5.4.3.14.64.14.64.14.35 0 .65-.15.65-.15.3-.16.53-.37.53-.37l.4.57c-.35.3-.78.48-.78.48-.43.18-.9.18-.9.18-.5 0-.93-.18-.93-.18-.44-.17-.76-.52-.76-.52-.32-.34-.5-.84-.5-.84-.18-.5-.18-1.13-.18-1.13zm4.3 2.54zm.86-7.47h.84v5.06h.03l2.17-2.7H56l-1.7 2.05 1.93 3.06h-.95l-1.5-2.45-.94 1.1v1.36H52v-7.47zm6.45 7.48zm.86-5.1h.72l.07.93h.03c.26-.5.63-.77.63-.77.37-.28.82-.28.82-.28.3 0 .54.1.54.1l-.17.76-.23-.07c-.1-.02-.26-.02-.26-.02-.33 0-.68.27-.68.27-.35.26-.6.9-.6.9v3.3h-.87v-5.12zm2.53 5.1zm.6-1.32c0-.84.76-1.28.76-1.28.74-.45 2.38-.63 2.38-.63 0-.24-.05-.47-.05-.47-.05-.23-.17-.4-.17-.4-.12-.2-.32-.3-.32-.3-.2-.1-.5-.1-.5-.1-.46 0-.85.16-.85.16-.4.17-.7.38-.7.38l-.34-.6c.35-.23.87-.45.87-.45.5-.22 1.13-.22 1.13-.22.94 0 1.36.57 1.36.57.42.57.42 1.53.42 1.53v3.13h-.72l-.07-.6h-.02c-.37.3-.8.52-.8.52-.42.2-.9.2-.9.2-.64 0-1.07-.36-1.07-.36-.42-.38-.42-1.08-.42-1.08zm0 0zm.86-.06c0 .44.25.63.25.63.25.2.63.2.63.2.37 0 .7-.18.7-.18.33-.18.7-.5.7-.5v-1.43c-.64.08-1.08.2-1.08.2-.45.1-.7.27-.7.27-.28.17-.4.37-.4.37-.1.2-.1.45-.1.45zm3.9 1.4zm1-4.4h-.74v-.67l.8-.05.1-1.43h.73v1.43h1.36v.7H69.1v2.84c0 .47.16.73.16.73.17.26.6.26.6.26.15 0 .3-.04.3-.04l.3-.1.16.64c-.2.08-.46.14-.46.14-.24.05-.5.05-.5.05-.4 0-.67-.12-.67-.12-.3-.12-.47-.34-.47-.34-.17-.22-.24-.54-.24-.54-.1-.3-.1-.7-.1-.7v-2.8zm2.45 4.4zm.48-2.55c0-.64.2-1.13.2-1.13.2-.5.5-.85.5-.85.33-.36.74-.54.74-.54.4-.18.85-.18.85-.18.5 0 .87.16.87.16.37.17.63.5.63.5.26.3.4.74.4.74.13.44.13 1 .13 1 0 .27-.03.46-.03.46H72c.04.83.5 1.32.5 1.32.45.48 1.2.48 1.2.48.35 0 .66-.1.66-.1.3-.12.6-.3.6-.3l.3.57c-.33.22-.74.38-.74.38-.4.15-.94.15-.94.15-.5 0-.96-.18-.96-.18-.45-.18-.78-.53-.78-.53-.33-.34-.52-.83-.52-.83-.2-.5-.2-1.13-.2-1.13zm0 0zm3.58-.4c0-.78-.33-1.2-.33-1.2-.33-.4-.92-.4-.92-.4-.28 0-.52.1-.52.1-.25.1-.45.3-.45.3-.2.22-.33.52-.33.52-.13.3-.18.68-.18.68h2.74z" stroke-linejoin="bevel"/>
</svg>
