<svg xmlns="http://www.w3.org/2000/svg" stroke="#000" viewBox="0 0 800 600" font-size="1">
  <path fill="#FFF" stroke="none" stroke-opacity="0" stroke-width="0" stroke-miterlimit="10" d="M0 0v600h800V0z" stroke-linejoin="bevel"/>
  <path stroke="none" stroke-opacity="0" stroke-width="0" stroke-miterlimit="10" d="M313.83 14.1zm1.2-10.04h2.25v3.87h3.47V4.06h2.28V14.1h-2.28V9.9h-3.47v4.2h-2.26V4.06zm9.18 10.04zm.74-2.12c0-1.2 1-1.88 1-1.88 1.03-.68 3.3-.9 3.3-.9-.04-.52-.3-.82-.3-.82-.3-.3-.9-.3-.9-.3-.5 0-1 .18-1 .18-.48.2-1.04.5-1.04.5l-.8-1.48c.74-.45 1.55-.72 1.55-.72.8-.28 1.72-.28 1.72-.28 1.47 0 2.25.84 2.25.84.78.84.78 2.6.78 2.6v4.38h-1.85l-.17-.78h-.04c-.5.43-1.04.7-1.04.7-.55.27-1.2.27-1.2.27-.52 0-.94-.2-.94-.2-.4-.17-.7-.48-.7-.48-.3-.32-.46-.73-.46-.73-.16-.43-.16-.92-.16-.92zm0 0zm2.15-.17c0 .38.23.55.23.55.24.18.64.18.64.18.4 0 .68-.17.68-.17.28-.17.6-.48.6-.48v-1.34c-1.23.17-1.7.5-1.7.5-.46.32-.46.77-.46.77zm5.34 2.3zm1.34-2.3c.52.4 1 .6 1 .6.48.2.97.2.97.2.5 0 .74-.16.74-.16.22-.17.22-.48.22-.48 0-.18-.13-.33-.13-.33-.14-.15-.37-.27-.37-.27-.22-.12-.5-.22-.5-.22l-.57-.23c-.35-.12-.7-.3-.7-.3-.36-.2-.65-.46-.65-.46-.28-.27-.47-.64-.47-.64-.18-.36-.18-.83-.18-.83 0-.53.2-.97.2-.97.2-.45.6-.76.6-.76.38-.3.92-.48.92-.48.54-.18 1.2-.18 1.2-.18.88 0 1.54.3 1.54.3.68.3 1.17.67 1.17.67l-1.02 1.35c-.4-.3-.8-.47-.8-.47-.42-.17-.82-.17-.82-.17-.86 0-.86.6-.86.6 0 .18.13.3.13.3.12.14.33.25.33.25.2.12.47.22.47.22l.57.2c.37.15.73.32.73.32.36.18.66.44.66.44.3.26.48.64.48.64.2.38.2.9.2.9 0 .53-.2.97-.2.97-.2.44-.6.77-.6.77-.4.33-1 .52-1 .52-.58.2-1.35.2-1.35.2-.77 0-1.56-.3-1.56-.3-.8-.3-1.38-.78-1.38-.78zm5.48 2.3zm1-10.8h2.2v6.2h.07l2.4-3.04h2.48l-2.67 3.14 2.88 4.5h-2.44l-1.73-2.97-.97 1.1v1.87h-2.2V3.3zm7 10.8zm.56-3.82c0-.92.3-1.67.3-1.67.32-.74.82-1.25.82-1.25.5-.52 1.15-.8 1.15-.8.63-.27 1.33-.27 1.33-.27.8 0 1.42.28 1.42.28.6.27 1.02.77 1.02.77.4.5.6 1.16.6 1.16.2.66.2 1.44.2 1.44 0 .3-.02.57-.02.57l-.07.4H350c.16.88.7 1.27.7 1.27.53.4 1.3.4 1.3.4.8 0 1.64-.52 1.64-.52l.76 1.37c-.6.4-1.3.64-1.3.64-.72.23-1.4.23-1.4.23-.83 0-1.54-.28-1.54-.28-.7-.27-1.23-.8-1.23-.8-.52-.5-.8-1.24-.8-1.24-.3-.74-.3-1.7-.3-1.7zm0 0zm4.93-.78c0-.67-.3-1.08-.3-1.08-.28-.42-.98-.42-.98-.42-.54 0-.94.36-.94.36-.4.37-.54 1.14-.54 1.14h2.75zm2.5 4.6zm1-10.8h2.26v8.52c0 .36.14.5.14.5.13.13.27.13.27.13h.14l.15-.03.27 1.68c-.2.08-.47.13-.47.13-.3.06-.67.06-.67.06-.6 0-1-.2-1-.2-.4-.18-.63-.5-.63-.5-.24-.35-.34-.82-.34-.82-.1-.46-.1-1.05-.1-1.05V3.3zm3.4 10.8zm1-10.8h2.27v8.52c0 .36.13.5.13.5.13.13.27.13.27.13h.13l.14-.03.27 1.68c-.18.08-.47.13-.47.13-.28.06-.67.06-.67.06-.58 0-.98-.2-.98-.2-.4-.18-.64-.5-.64-.5-.23-.35-.34-.82-.34-.82-.1-.46-.1-1.05-.1-1.05V3.3zm6.6 10.8zm.22-10.04h2.33l.7 4.7.2 1.58.2 1.6h.05l.3-1.6.3-1.58 1.08-4.7h1.93l1.08 4.7.3 1.56.3 1.6h.06l.2-1.6.2-1.56.7-4.7h2.18l-1.8 10.04h-2.84l-.98-4.56c-.13-.58-.23-1.17-.23-1.17-.1-.6-.17-1.15-.17-1.15h-.06l-.2 1.15c-.1.6-.22 1.17-.22 1.17l-.94 4.56h-2.8zm12.3 10.04zm.56-3.82c0-.92.3-1.67.3-1.67.32-.74.82-1.25.82-1.25.5-.52 1.15-.8 1.15-.8.64-.27 1.34-.27 1.34-.27.8 0 1.42.28 1.42.28.6.27 1.02.77 1.02.77.4.5.6 1.16.6 1.16.2.66.2 1.44.2 1.44 0 .3-.02.57-.02.57-.03.26-.07.4-.07.4h-4.58c.15.88.7 1.27.7 1.27.52.4 1.3.4 1.3.4.8 0 1.63-.52 1.63-.52l.76 1.37c-.58.4-1.3.64-1.3.64-.7.23-1.4.23-1.4.23-.82 0-1.53-.28-1.53-.28-.7-.27-1.23-.8-1.23-.8-.52-.5-.8-1.24-.8-1.24-.3-.74-.3-1.7-.3-1.7zm0 0zm4.93-.78c0-.67-.3-1.08-.3-1.08C384.7 8 384 8 384 8c-.54 0-.94.36-.94.36-.4.37-.53 1.14-.53 1.14h2.76zm2.5 4.6zm.55-3.82c0-.92.32-1.67.32-1.67.3-.74.8-1.25.8-1.25.5-.52 1.15-.8 1.15-.8.65-.27 1.34-.27 1.34-.27.83 0 1.44.28 1.44.28.6.27 1.02.77 1.02.77.4.5.6 1.16.6 1.16.2.66.2 1.44.2 1.44 0 .3-.03.57-.03.57l-.06.4h-4.57c.15.88.68 1.27.68 1.27.53.4 1.3.4 1.3.4.82 0 1.65-.52 1.65-.52l.76 1.37c-.6.4-1.3.64-1.3.64-.73.23-1.42.23-1.42.23-.82 0-1.53-.28-1.53-.28-.7-.27-1.23-.8-1.23-.8-.52-.5-.82-1.24-.82-1.24-.3-.74-.3-1.7-.3-1.7zm0 0zm4.94-.78c0-.67-.3-1.08-.3-1.08-.3-.42-.98-.42-.98-.42-.54 0-.95.36-.95.36-.4.37-.52 1.14-.52 1.14h2.76zm2.5 4.6zm1-10.8h2.2v6.2h.06l2.42-3.04h2.46L401.2 9.6l2.88 4.5h-2.45l-1.72-2.97-.96 1.1v1.87h-2.2V3.3zm7.43 10.8zm1-10.8h2.27v8.52c0 .36.13.5.13.5.13.13.27.13.27.13h.13l.15-.03.27 1.68c-.2.08-.48.13-.48.13-.28.06-.67.06-.67.06-.58 0-.98-.2-.98-.2-.4-.18-.64-.5-.64-.5-.24-.35-.35-.82-.35-.82-.1-.46-.1-1.05-.1-1.05V3.3zm3.4 10.8zm1.18 1.1c.1.04.24.07.24.07.13.03.26.03.26.03.57 0 .87-.27.87-.27.3-.28.47-.73.47-.73l.1-.4-2.94-7.44h2.28l1.1 3.28c.16.53.3 1.07.3 1.07l.3 1.1h.06l.25-1.07.27-1.1.93-3.27h2.17l-2.65 7.72c-.28.72-.58 1.27-.58 1.27-.3.55-.7.9-.7.9-.4.37-.9.55-.9.55-.5.2-1.17.2-1.17.2-.36 0-.6-.05-.6-.05-.25-.04-.48-.1-.48-.1l.4-1.74zm10.05-1.1zm1-7.64h1.85l.16 1.34h.07c.42-.78 1-1.15 1-1.15.6-.37 1.17-.37 1.17-.37.32 0 .53.04.53.04.2.04.38.1.38.1l-.37 1.97c-.22-.07-.4-.1-.4-.1-.2-.04-.43-.04-.43-.04-.43 0-.9.3-.9.3-.47.32-.78 1.1-.78 1.1v4.44h-2.26V6.46zm4.98 7.64zm.55-3.82c0-.92.3-1.67.3-1.67.32-.74.82-1.25.82-1.25.5-.52 1.15-.8 1.15-.8.65-.27 1.34-.27 1.34-.27.8 0 1.42.28 1.42.28.6.27 1.02.77 1.02.77.4.5.6 1.16.6 1.16.2.66.2 1.44.2 1.44 0 .3-.02.57-.02.57l-.06.4h-4.58c.16.88.7 1.27.7 1.27.52.4 1.3.4 1.3.4.8 0 1.64-.52 1.64-.52l.75 1.37c-.57.4-1.3.64-1.3.64-.7.23-1.4.23-1.4.23-.82 0-1.52-.28-1.52-.28-.7-.27-1.24-.8-1.24-.8-.52-.5-.8-1.24-.8-1.24-.3-.74-.3-1.7-.3-1.7zm0 0zm4.93-.78c0-.67-.3-1.08-.3-1.08C430.7 8 430 8 430 8c-.53 0-.94.36-.94.36-.4.37-.53 1.14-.53 1.14h2.76zm2.5 4.6zm.55-3.82c0-.95.34-1.7.34-1.7.32-.75.87-1.25.87-1.25.55-.5 1.28-.78 1.28-.78.72-.27 1.5-.27 1.5-.27.7 0 1.28.24 1.28.24.57.24.96.64.96.64l-1.03 1.4c-.55-.45-1.08-.45-1.08-.45-.83 0-1.3.6-1.3.6-.48.58-.48 1.58-.48 1.58 0 1 .48 1.6.48 1.6.5.57 1.23.57 1.23.57.4 0 .75-.17.75-.17.34-.17.62-.38.62-.38l.9 1.43c-.55.5-1.23.73-1.23.73-.68.23-1.3.23-1.3.23-.82 0-1.5-.28-1.5-.28-.7-.27-1.2-.78-1.2-.78-.5-.5-.8-1.26-.8-1.26-.3-.74-.3-1.7-.3-1.7zm6.65 3.82zm2.12-8.76c-.56 0-.93-.33-.93-.33-.37-.32-.37-.85-.37-.85 0-.52.37-.84.37-.84.37-.32.93-.32.93-.32.6 0 .95.33.95.33.36.33.36.85.36.85 0 .53-.36.86-.36.86-.36.34-.95.34-.95.34zm0 0zm-1.12 1.12h2.26v7.64h-2.25V6.46zm3.25 7.64zm3.27.6v2.24h-2.27V6.46h1.85l.15.76h.06c.45-.4 1-.67 1-.67.58-.27 1.18-.27 1.18-.27.7 0 1.24.28 1.24.28.56.27.94.78.94.78.4.5.6 1.23.6 1.23.2.7.2 1.6.2 1.6 0 .97-.27 1.74-.27 1.74-.27.77-.72 1.3-.72 1.3-.45.53-1.03.8-1.03.8-.58.3-1.2.3-1.2.3-.5 0-.95-.22-.95-.22-.46-.2-.86-.6-.86-.6zm0 0zm0-2.75c.3.27.6.38.6.38.32.1.6.1.6.1.6 0 1-.52 1-.52.43-.52.43-1.7.43-1.7 0-2.07-1.33-2.07-1.33-2.07-.66 0-1.3.7-1.3.7v3.12zm5.55 2.15zm2.13-8.76c-.57 0-.94-.33-.94-.33-.36-.32-.36-.85-.36-.85 0-.52.37-.84.37-.84.38-.32.95-.32.95-.32.6 0 .95.33.95.33.36.33.36.85.36.85 0 .53-.36.86-.36.86-.36.34-.95.34-.95.34zm0 0zm-1.12 1.12h2.26v7.64h-2.27V6.46zm3.25 7.64zm.55-3.82c0-.92.3-1.67.3-1.67.32-.74.82-1.25.82-1.25.5-.52 1.14-.8 1.14-.8.64-.27 1.33-.27 1.33-.27.82 0 1.43.28 1.43.28.6.27 1 .77 1 .77.42.5.62 1.16.62 1.16.2.66.2 1.44.2 1.44 0 .3-.03.57-.03.57l-.06.4H461c.15.88.68 1.27.68 1.27.53.4 1.3.4 1.3.4.82 0 1.65-.52 1.65-.52l.76 1.37c-.58.4-1.3.64-1.3.64-.7.23-1.4.23-1.4.23-.82 0-1.53-.28-1.53-.28-.7-.27-1.23-.8-1.23-.8-.53-.5-.82-1.24-.82-1.24-.3-.74-.3-1.7-.3-1.7zm0 0zm4.93-.78c0-.67-.3-1.08-.3-1.08-.3-.42-.98-.42-.98-.42-.54 0-.95.36-.95.36-.4.37-.53 1.14-.53 1.14h2.76zm2.5 4.6zm1-7.64h1.84l.16.97h.06c.5-.46 1.08-.8 1.08-.8.58-.35 1.37-.35 1.37-.35 1.24 0 1.8.8 1.8.8.57.83.57 2.28.57 2.28v4.74h-2.27V9.65c0-.83-.22-1.14-.22-1.14-.22-.3-.72-.3-.72-.3-.43 0-.74.2-.74.2-.3.2-.68.54-.68.54v5.16h-2.27V6.46zm7.8 7.64zm1.3-5.87h-1.04V6.56l1.17-.1.26-2.03h1.87v2.03h1.84v1.77h-1.84v3.07c0 .65.27.93.27.93.27.3.72.3.72.3.18 0 .38-.06.38-.06l.34-.1.36 1.64c-.3.1-.73.2-.73.2-.4.1-.97.1-.97.1-.7 0-1.2-.23-1.2-.23-.5-.2-.82-.6-.82-.6-.32-.38-.46-.93-.46-.93-.15-.55-.15-1.2-.15-1.2v-3.1zm4.6 5.87zm1.34-2.3c.52.4 1 .6 1 .6.48.2.97.2.97.2.5 0 .74-.16.74-.16.24-.17.24-.48.24-.48 0-.18-.13-.33-.13-.33-.12-.15-.34-.27-.34-.27-.23-.12-.5-.22-.5-.22-.28-.1-.57-.23-.57-.23-.37-.12-.72-.3-.72-.3-.36-.2-.65-.46-.65-.46-.3-.27-.48-.64-.48-.64-.18-.36-.18-.83-.18-.83 0-.53.2-.97.2-.97.2-.45.6-.76.6-.76.38-.3.92-.48.92-.48.53-.18 1.2-.18 1.2-.18.87 0 1.53.3 1.53.3.67.3 1.16.67 1.16.67l-1.03 1.35c-.4-.3-.8-.47-.8-.47-.4-.17-.8-.17-.8-.17-.88 0-.88.6-.88.6 0 .18.12.3.12.3.12.14.33.25.33.25.2.12.48.22.48.22l.56.2.72.32c.36.18.66.44.66.44.3.26.5.64.5.64.17.38.17.9.17.9 0 .53-.2.97-.2.97-.2.44-.6.77-.6.77-.4.33-1 .52-1 .52-.57.2-1.34.2-1.34.2-.75 0-1.54-.3-1.54-.3-.8-.3-1.38-.78-1.38-.78z" stroke-linejoin="bevel"/>
  <path fill="none" fill-opacity="0" stroke="#D3D3D3" stroke-miterlimit="10" d="M39.6 35v505M188.72 35v505M337.84 35v505M486.97 35v505M636.1 35v505M785.22 35v505M39.6 540H785.2M39.6 439H785.2M39.6 338H785.2M39.6 237H785.2M39.6 136H785.2M39.6 35H785.2" stroke-dasharray="5 5"/>
  <g fill="#5C3566" fill-opacity=".5" stroke-opacity="0" stroke-width="0" stroke-miterlimit="10" stroke-linejoin="bevel">
    <defs>
      <clipPath id="a">
        <path d="M39.6 35v505H785.2V35z"/>
      </clipPath>
    </defs>
    <g clip-path="url(#a)">
      <path stroke="none" d="M39.6 540H800.05V131.96l-14.9 7.68-14.92 8.48-14.9 3.64-14.92 9.7-14.9 4.84-14.93 14.14-14.9 5.25-14.92 9.7-14.9 9.28-14.93 5.66-14.9 11.3-14.92 8.5-14.9 12.1-14.93 7.28-14.9 9.3-14.92 18.98-14.9 7.68-14.93 8.08-14.9 16.16-14.92 24.64-14.9 6.47-14.93 6.87-14.9 6.06-14.92 4.84-14.9 4.45-14.93 2.42-14.9 2.43-14.92 5.25-14.9.4-14.93 2.43-14.9 1.2-14.92 2.03-14.9 3.24-14.93 5.25-14.9 5.65-14.92 10.1-14.9 100.2-14.93 1.6-14.9.4-14.92 2.84-14.9.4H173.8l-14.9.4-14.92.4-14.9.4-14.93 1.22-14.9 4.04-14.92 6.46-14.9 2.02-14.93 3.64-14.9 9.7V540z"/>
    </g>
  </g>
  <g fill-opacity="0" stroke="#5C3566" stroke-width="2" stroke-miterlimit="10" stroke-linejoin="round" stroke-linecap="round">
    <defs>
      <clipPath id="b">
        <path d="M39.6 35v505H785.2V35z"/>
      </clipPath>
    </defs>
    <g clip-path="url(#b)">
      <path fill="none" d="M39.6 537.17l14.9-9.7 14.92-3.63 14.9-2.02 14.92-6.46 14.9-4.04 14.93-1.22 14.9-.4 14.92-.4 14.9-.4h14.92l14.9-.4 14.92-2.84 14.9-.4 14.93-1.62 14.9-100.2 14.92-10.1 14.9-5.65 14.92-5.26 14.9-3.23 14.92-2 14.9-1.22 14.93-2.43 14.9-.4 14.92-5.25 14.9-2.43 14.92-2.42 14.9-4.45 14.92-4.84 14.9-6.06 14.93-6.87 14.9-6.47 14.92-24.64 14.9-16.16 14.92-8.08 14.9-7.68 14.92-18.98 14.9-9.3 14.93-7.27 14.9-12.12 14.92-8.48 14.9-11.3 14.92-5.67 14.9-9.3 14.92-9.7 14.9-5.24 14.93-14.14 14.9-4.85 14.92-9.7 14.9-3.63 14.92-8.48 14.9-7.68"/>
    </g>
  </g>
  <path fill="none" fill-opacity="0" stroke-miterlimit="10" d="M39.6 540V35" stroke-linecap="square"/>
  <path fill="none" fill-opacity="0" stroke-miterlimit="10" d="M39.6 540h2M39.6 459.2h2M39.6 378.4h2M39.6 297.6h2M39.6 216.8h2M39.6 136h2M39.6 55.2h2M39.6-25.6h2M39.6 540h5M39.6 439h5M39.6 338h5M39.6 237h5M39.6 136h5M39.6 35h5"/>
  <path stroke="none" stroke-opacity="0" stroke-width="0" stroke-miterlimit="10" d="M25.3 543.45zm2.6.12c-1 0-1.58-.9-1.58-.9-.56-.9-.56-2.6-.56-2.6 0-1.7.56-2.57.56-2.57.57-.88 1.6-.88 1.6-.88 1 0 1.57.88 1.57.88.55.88.55 2.57.55 2.57 0 1.7-.56 2.6-.56 2.6-.58.9-1.6.9-1.6.9zm0 0zm0-.7c.3 0 .54-.15.54-.15.24-.17.4-.5.4-.5.18-.35.28-.88.28-.88.1-.53.1-1.27.1-1.27 0-.73-.1-1.26-.1-1.26-.1-.5-.27-.84-.27-.84-.17-.33-.4-.5-.4-.5-.25-.15-.54-.15-.54-.15-.28 0-.53.17-.53.17-.24.16-.4.5-.4.5-.18.32-.28.84-.28.84-.1.54-.1 1.27-.1 1.27 0 1.47.36 2.14.36 2.14.36.68.95.68.95.68zM14.77 442.45zm.42-.52l1.33-1.36c.6-.6 1-1.13 1-1.13.4-.52.6-.96.6-.96.2-.44.2-.85.2-.85 0-.57-.3-.94-.3-.94-.32-.38-.96-.38-.96-.38-.42 0-.78.24-.78.24-.37.23-.66.57-.66.57l-.5-.5c.43-.46.9-.73.9-.73.47-.28 1.13-.28 1.13-.28.94 0 1.48.54 1.48.54.53.54.53 1.43.53 1.43 0 .47-.2.94-.2.94-.2.48-.57 1-.57 1-.35.5-.85 1.05-.85 1.05l-1.1 1.16.57-.04.55-.02h1.95v.75H15.2v-.52zm4.8.52zm.67-1.36c.3.3.7.53.7.53.4.23 1 .23 1 .23.3 0 .57-.1.57-.1.26-.12.46-.32.46-.32.2-.2.32-.5.32-.5.1-.27.1-.62.1-.62 0-.7-.37-1.08-.37-1.08-.4-.4-1.04-.4-1.04-.4-.34 0-.6.12-.6.12-.23.1-.54.3-.54.3l-.46-.3.22-3.22h3.35v.75h-2.6l-.17 1.97c.24-.12.48-.2.48-.2.24-.07.55-.07.55-.07.43 0 .8.13.8.13.38.12.67.38.67.38.28.27.44.66.44.66.17.4.17.94.17.94 0 .55-.18.97-.18.97-.2.42-.5.7-.5.7-.32.3-.73.45-.73.45-.4.15-.85.15-.85.15-.4 0-.73-.08-.73-.08l-.6-.2c-.27-.14-.48-.3-.48-.3-.22-.16-.4-.34-.4-.34zm4.54 1.35zm2.63.12c-1.02 0-1.6-.9-1.6-.9-.56-.9-.56-2.6-.56-2.6 0-1.7.57-2.57.57-2.57.57-.88 1.6-.88 1.6-.88 1 0 1.56.88 1.56.88.57.88.57 2.57.57 2.57 0 1.7-.57 2.6-.57 2.6-.57.9-1.57.9-1.57.9zm0 0zm0-.7c.3 0 .53-.15.53-.15.23-.17.4-.5.4-.5.18-.35.27-.88.27-.88.1-.53.1-1.27.1-1.27 0-.73-.1-1.26-.1-1.26-.1-.5-.26-.84-.26-.84-.18-.33-.4-.5-.4-.5-.25-.15-.54-.15-.54-.15-.3 0-.54.17-.54.17-.25.16-.42.5-.42.5-.18.32-.27.84-.27.84-.1.54-.1 1.27-.1 1.27 0 1.47.38 2.14.38 2.14.36.68.95.68.95.68zM14.65 341.45zm.7-1.36c.28.3.68.53.68.53.4.23 1 .23 1 .23.3 0 .57-.1.57-.1.27-.12.47-.32.47-.32.2-.2.3-.5.3-.5.13-.27.13-.62.13-.62 0-.7-.4-1.08-.4-1.08-.38-.4-1.03-.4-1.03-.4-.35 0-.6.12-.6.12-.24.1-.55.3-.55.3l-.46-.3.22-3.22h3.35v.75h-2.6l-.17 1.97c.24-.12.48-.2.48-.2.25-.07.55-.07.55-.07.42 0 .8.13.8.13.38.12.66.38.66.38.28.27.45.66.45.66.17.4.17.94.17.94 0 .55-.2.97-.2.97-.18.42-.5.7-.5.7-.3.3-.7.45-.7.45-.42.15-.86.15-.86.15-.4 0-.72-.08-.72-.08l-.6-.2c-.27-.14-.48-.3-.48-.3-.22-.16-.38-.34-.38-.34zm4.52 1.35zm2.62.12c-1.03 0-1.6-.9-1.6-.9-.56-.9-.56-2.6-.56-2.6 0-1.7.56-2.57.56-2.57.57-.88 1.6-.88 1.6-.88 1 0 1.57.88 1.57.88.56.88.56 2.57.56 2.57 0 1.7-.56 2.6-.56 2.6-.57.9-1.58.9-1.58.9zm0 0zm0-.7c.28 0 .52-.15.52-.15.24-.17.4-.5.4-.5.18-.35.28-.88.28-.88.1-.53.1-1.27.1-1.27 0-.73-.1-1.26-.1-1.26-.1-.5-.27-.84-.27-.84-.17-.33-.4-.5-.4-.5-.25-.15-.54-.15-.54-.15-.3 0-.55.17-.55.17-.24.16-.4.5-.4.5-.18.32-.28.84-.28.84-.1.54-.1 1.27-.1 1.27 0 1.47.37 2.14.37 2.14.36.68.95.68.95.68zm2.6.58zm2.6.12c-1 0-1.58-.9-1.58-.9-.56-.9-.56-2.6-.56-2.6 0-1.7.56-2.57.56-2.57.57-.88 1.6-.88 1.6-.88 1 0 1.57.88 1.57.88.55.88.55 2.57.55 2.57 0 1.7-.56 2.6-.56 2.6-.58.9-1.6.9-1.6.9zm0 0zm0-.7c.3 0 .54-.15.54-.15.24-.17.4-.5.4-.5.18-.35.28-.88.28-.88.1-.53.1-1.27.1-1.27 0-.73-.1-1.26-.1-1.26-.1-.5-.27-.84-.27-.84-.17-.33-.4-.5-.4-.5-.25-.15-.54-.15-.54-.15-.28 0-.53.17-.53.17-.24.16-.4.5-.4.5-.18.32-.28.84-.28.84-.1.54-.1 1.27-.1 1.27 0 1.47.36 2.14.36 2.14.36.68.95.68.95.68zM14.85 240.45zm1.86 0c.05-.95.18-1.74.18-1.74.13-.78.35-1.48.35-1.48.23-.7.58-1.38.58-1.38.36-.66.86-1.35.86-1.35h-3.34v-.76h4.3v.54c-.6.76-.96 1.45-.96 1.45-.37.7-.6 1.4-.6 1.4-.2.73-.3 1.53-.3 1.53-.1.8-.15 1.8-.15 1.8h-.9zm3.37 0zm.7-1.36c.28.3.68.53.68.53.4.23 1 .23 1 .23.3 0 .57-.1.57-.1.27-.12.47-.32.47-.32.2-.2.3-.5.3-.5.12-.27.12-.62.12-.62 0-.7-.4-1.08-.4-1.08-.38-.4-1.03-.4-1.03-.4-.36 0-.6.12-.6.12-.25.1-.56.3-.56.3l-.46-.3.22-3.22h3.35v.75h-2.6l-.17 1.97c.24-.12.48-.2.48-.2.25-.07.55-.07.55-.07.44 0 .82.13.82.13.38.12.66.38.66.38.28.27.45.66.45.66.16.4.16.94.16.94 0 .55-.2.97-.2.97-.2.42-.5.7-.5.7-.32.3-.72.45-.72.45-.4.15-.85.15-.85.15-.4 0-.73-.08-.73-.08l-.6-.2c-.27-.14-.48-.3-.48-.3-.22-.16-.38-.34-.38-.34zm4.52 1.35zm2.6.12c-1 0-1.58-.9-1.58-.9-.56-.9-.56-2.6-.56-2.6 0-1.7.56-2.57.56-2.57.57-.88 1.6-.88 1.6-.88 1 0 1.57.88 1.57.88.55.88.55 2.57.55 2.57 0 1.7-.56 2.6-.56 2.6-.58.9-1.6.9-1.6.9zm0 0zm0-.7c.3 0 .54-.15.54-.15.24-.17.4-.5.4-.5.18-.35.28-.88.28-.88.1-.53.1-1.27.1-1.27 0-.73-.1-1.26-.1-1.26-.1-.5-.27-.84-.27-.84-.17-.33-.4-.5-.4-.5-.25-.15-.54-.15-.54-.15-.28 0-.53.17-.53.17-.24.16-.4.5-.4.5-.18.32-.28.84-.28.84-.1.54-.1 1.27-.1 1.27 0 1.47.36 2.14.36 2.14.36.68.95.68.95.68zM10 139.45zm.83-.72h1.53v-4.94h-1.22v-.56c.47-.1.8-.2.8-.2.35-.13.62-.3.62-.3h.66v6h1.4v.7h-3.8v-.7zm4.4.72zm2.6.12c-1 0-1.58-.9-1.58-.9-.57-.9-.57-2.6-.57-2.6 0-1.7.57-2.57.57-2.57.57-.88 1.6-.88 1.6-.88 1 0 1.56.88 1.56.88.58.88.58 2.57.58 2.57 0 1.7-.57 2.6-.57 2.6-.56.9-1.56.9-1.56.9zm0 0zm0-.7c.3 0 .54-.15.54-.15.23-.17.4-.5.4-.5.18-.35.27-.88.27-.88.1-.53.1-1.27.1-1.27 0-.73-.1-1.26-.1-1.26-.1-.5-.26-.84-.26-.84-.18-.33-.4-.5-.4-.5-.25-.15-.54-.15-.54-.15-.3 0-.54.17-.54.17-.24.16-.4.5-.4.5-.2.32-.28.84-.28.84-.1.54-.1 1.27-.1 1.27 0 1.47.37 2.14.37 2.14.35.68.94.68.94.68zm2.6.58zm2.63.12c-1.02 0-1.6-.9-1.6-.9-.56-.9-.56-2.6-.56-2.6 0-1.7.57-2.57.57-2.57.57-.88 1.6-.88 1.6-.88 1 0 1.56.88 1.56.88.57.88.57 2.57.57 2.57 0 1.7-.57 2.6-.57 2.6-.56.9-1.57.9-1.57.9zm0 0zm0-.7c.3 0 .53-.15.53-.15.22-.17.4-.5.4-.5.17-.35.26-.88.26-.88.1-.53.1-1.27.1-1.27 0-.73-.1-1.26-.1-1.26-.1-.5-.26-.84-.26-.84-.18-.33-.4-.5-.4-.5-.25-.15-.54-.15-.54-.15-.3 0-.54.17-.54.17-.24.16-.4.5-.4.5-.2.32-.28.84-.28.84-.1.54-.1 1.27-.1 1.27 0 1.47.37 2.14.37 2.14.37.68.96.68.96.68zm2.6.58zm2.62.12c-1.02 0-1.6-.9-1.6-.9-.56-.9-.56-2.6-.56-2.6 0-1.7.57-2.57.57-2.57.56-.88 1.58-.88 1.58-.88 1 0 1.57.88 1.57.88.57.88.57 2.57.57 2.57 0 1.7-.57 2.6-.57 2.6-.56.9-1.57.9-1.57.9zm0 0zm0-.7c.3 0 .53-.15.53-.15.24-.17.42-.5.42-.5.17-.35.27-.88.27-.88.08-.53.08-1.27.08-1.27 0-.73-.1-1.26-.1-1.26-.1-.5-.26-.84-.26-.84-.18-.33-.4-.5-.4-.5-.25-.15-.54-.15-.54-.15-.3 0-.54.17-.54.17-.24.16-.4.5-.4.5-.2.32-.28.84-.28.84-.1.54-.1 1.27-.1 1.27 0 1.47.37 2.14.37 2.14.36.68.95.68.95.68zM10 38.45zm.83-.72h1.53V32.8h-1.22v-.56c.47-.1.8-.2.8-.2.35-.13.62-.3.62-.3h.66v6h1.4v.7h-3.8v-.7zm4.4.72zm.4-.52L17 36.57c.57-.6.97-1.13.97-1.13.4-.52.6-.96.6-.96.22-.44.22-.85.22-.85 0-.57-.32-.94-.32-.94-.32-.38-.96-.38-.96-.38-.42 0-.78.24-.78.24-.35.23-.65.57-.65.57l-.5-.5c.42-.46.9-.73.9-.73.46-.28 1.13-.28 1.13-.28.93 0 1.47.54 1.47.54.53.54.53 1.43.53 1.43 0 .47-.2.94-.2.94-.2.48-.57 1-.57 1-.36.5-.86 1.05-.86 1.05l-1.1 1.16.57-.04.56-.02h1.94v.75h-4.33v-.52zm4.8.52zm.7-1.36c.3.3.7.53.7.53.4.23.98.23.98.23.32 0 .6-.1.6-.1.26-.12.45-.32.45-.32.2-.2.32-.5.32-.5.12-.27.12-.62.12-.62 0-.7-.4-1.08-.4-1.08-.4-.4-1.04-.4-1.04-.4-.35 0-.6.12-.6.12-.24.1-.55.3-.55.3l-.45-.3.22-3.22h3.35v.75h-2.6l-.17 1.97c.24-.12.48-.2.48-.2.24-.07.55-.07.55-.07.43 0 .8.13.8.13.38.12.67.38.67.38.28.27.44.66.44.66.16.4.16.94.16.94 0 .55-.2.97-.2.97-.18.42-.5.7-.5.7-.3.3-.72.45-.72.45-.4.15-.84.15-.84.15-.4 0-.73-.08-.73-.08l-.6-.2c-.27-.14-.48-.3-.48-.3-.23-.16-.4-.34-.4-.34zm4.53 1.35zm2.62.12c-1.02 0-1.6-.9-1.6-.9-.56-.9-.56-2.6-.56-2.6 0-1.7.57-2.57.57-2.57.56-.88 1.58-.88 1.58-.88 1 0 1.57.88 1.57.88.57.88.57 2.57.57 2.57 0 1.7-.57 2.6-.57 2.6-.56.9-1.57.9-1.57.9zm0 0zm0-.7c.3 0 .53-.15.53-.15.24-.17.42-.5.42-.5.17-.35.27-.88.27-.88.08-.53.08-1.27.08-1.27 0-.73-.1-1.26-.1-1.26-.1-.5-.26-.84-.26-.84-.18-.33-.4-.5-.4-.5-.25-.15-.54-.15-.54-.15-.3 0-.54.17-.54.17-.24.16-.4.5-.4.5-.2.32-.28.84-.28.84-.1.54-.1 1.27-.1 1.27 0 1.47.37 2.14.37 2.14.36.68.95.68.95.68z" stroke-linejoin="bevel"/>
  <path fill="none" fill-opacity="0" stroke-miterlimit="10" d="M39.6 540H785.2" stroke-linecap="square"/>
  <path fill="none" fill-opacity="0" stroke-miterlimit="10" d="M39.6 540v-2M785.22 540v-2M39.6 540v-5M188.72 540v-5M337.84 540v-5M486.97 540v-5M636.1 540v-5M785.22 540v-5"/>
  <path stroke="none" stroke-opacity="0" stroke-width="0" stroke-miterlimit="10" d="M37.7 560zm.83-.7h1.53v-4.95h-1.22v-.56c.47-.1.8-.2.8-.2.35-.13.62-.3.62-.3h.66v6h1.4v.7h-3.8v-.7zM184.2 560zm.84-.7h1.54v-4.95h-1.22v-.56c.46-.1.8-.2.8-.2.34-.13.62-.3.62-.3h.66v6h1.4v.7h-3.8v-.7zm4.4.7zm.82-.7h1.54v-4.95h-1.22v-.56c.46-.1.8-.2.8-.2.34-.13.62-.3.62-.3h.66v6h1.4v.7h-3.8v-.7zM333.1 560zm.43-.5l1.35-1.38c.6-.6 1-1.13 1-1.13.38-.53.6-.97.6-.97.2-.43.2-.84.2-.84 0-.6-.3-.96-.3-.96-.33-.36-.97-.36-.97-.36-.4 0-.76.23-.76.23-.36.25-.65.58-.65.58l-.5-.5c.4-.45.88-.73.88-.73.48-.28 1.14-.28 1.14-.28.93 0 1.47.54 1.47.54.53.55.53 1.45.53 1.45 0 .47-.2.95-.2.95-.2.48-.58 1-.58 1-.36.5-.86 1.05-.86 1.05-.5.55-1.1 1.17-1.1 1.17l.56-.04c.3-.03.56-.03.56-.03h1.94v.75h-4.33v-.5zm4.8.5zm.83-.7h1.54v-4.95h-1.22v-.56c.46-.1.8-.2.8-.2.34-.13.62-.3.62-.3h.66v6h1.4v.7h-3.8v-.7zM482.2 560zm.7-1.4c.3.33.7.57.7.57.4.24 1 .24 1 .24.62 0 1-.32 1-.32.4-.33.4-.9.4-.9 0-.3-.1-.54-.1-.54-.12-.25-.37-.42-.37-.42-.26-.18-.67-.28-.67-.28-.4-.1-1-.1-1-.1v-.65c.53 0 .9-.1.9-.1.36-.1.58-.27.58-.27.23-.17.32-.4.32-.4.1-.23.1-.5.1-.5 0-.5-.3-.77-.3-.77-.32-.28-.86-.28-.86-.28-.42 0-.77.2-.77.2-.35.17-.66.48-.66.48l-.46-.55c.4-.36.87-.6.87-.6.46-.23 1.06-.23 1.06-.23.44 0 .8.12.8.12.38.1.65.32.65.32.27.2.4.53.4.53.16.3.16.72.16.72 0 .6-.34 1-.34 1-.33.4-.88.6-.88.6v.04c.3.1.57.23.57.23.25.14.45.35.45.35.2.22.3.5.3.5.12.3.12.63.12.63 0 .46-.17.8-.17.8-.18.37-.48.62-.48.62-.3.24-.7.37-.7.37-.4.13-.86.13-.86.13-.4 0-.73-.08-.73-.08-.33-.08-.6-.2-.6-.2-.27-.14-.5-.3-.5-.3-.2-.18-.37-.37-.37-.37zm4.5 1.4zm.84-.7h1.53v-4.95h-1.22v-.56c.46-.1.8-.2.8-.2.35-.13.62-.3.62-.3h.66v6h1.4v.7h-3.8v-.7zM631.26 560zm3.2-2.54v-1.95-.63l.05-.65h-.03l-.27.48-.28.47-1.56 2.3h2.1zm0 0zm1.73.7h-.92V560h-.82v-1.85h-3.02v-.57l2.87-4.28h.98v4.16h.9v.7zm.28 1.84zm.83-.7h1.55v-4.95h-1.22v-.56c.46-.1.8-.2.8-.2.34-.13.62-.3.62-.3h.66v6h1.4v.7h-3.8v-.7zM780.43 560zm.68-1.36c.3.3.7.54.7.54.42.23 1 .23 1 .23.3 0 .58-.1.58-.1.26-.1.46-.3.46-.3.2-.2.32-.5.32-.5.12-.28.12-.62.12-.62 0-.7-.4-1.08-.4-1.08-.38-.4-1.03-.4-1.03-.4-.35 0-.6.1-.6.1-.24.12-.55.32-.55.32l-.46-.3.22-3.22h3.35v.74h-2.58l-.18 2c.24-.14.48-.2.48-.2.24-.08.55-.08.55-.08.43 0 .8.12.8.12.38.13.67.4.67.4.28.24.44.64.44.64.17.4.17.94.17.94 0 .54-.2.96-.2.96-.18.42-.5.7-.5.7-.3.3-.72.45-.72.45-.4.16-.84.16-.84.16-.4 0-.74-.08-.74-.08-.33-.08-.6-.2-.6-.2-.27-.13-.48-.3-.48-.3-.22-.16-.4-.34-.4-.34zm4.55 1.36zm.83-.7H788v-4.95h-1.2v-.56c.46-.1.8-.2.8-.2.34-.13.6-.3.6-.3h.68v6h1.38v.7h-3.78v-.7zM383.13 566.6zm.94-6.88h.87v6.9h-.87v-6.9zm1.82 6.9zm.72-1.17c.33.27.68.44.68.44.35.16.82.16.82.16.5 0 .75-.23.75-.23.26-.23.26-.57.26-.57 0-.2-.1-.34-.1-.34-.1-.15-.28-.26-.28-.26-.16-.1-.37-.2-.37-.2l-.42-.16-.55-.22c-.26-.12-.48-.3-.48-.3-.2-.17-.35-.4-.35-.4-.13-.23-.13-.55-.13-.55 0-.3.12-.58.12-.58.12-.26.34-.46.34-.46.23-.2.56-.3.56-.3.32-.12.73-.12.73-.12.47 0 .88.16.88.16.4.17.7.4.7.4l-.4.56c-.28-.2-.56-.33-.56-.33-.28-.12-.62-.12-.62-.12-.48 0-.7.22-.7.22-.23.22-.23.5-.23.5 0 .2.1.32.1.32.1.12.24.22.24.22.17.1.38.18.38.18l.42.17.55.22c.28.1.5.28.5.28.22.17.36.42.36.42.16.25.16.6.16.6 0 .33-.13.6-.13.6-.12.27-.35.48-.35.48-.24.2-.6.33-.6.33-.34.13-.8.13-.8.13-.54 0-1.03-.2-1.03-.2-.5-.2-.87-.5-.87-.5zm3.67 1.16zm.72-1.15c.33.27.68.44.68.44.36.16.82.16.82.16.5 0 .75-.23.75-.23.26-.23.26-.57.26-.57 0-.2-.1-.34-.1-.34-.1-.15-.28-.26-.28-.26-.16-.1-.37-.2-.37-.2l-.42-.16-.55-.22c-.26-.12-.47-.3-.47-.3-.22-.17-.36-.4-.36-.4-.13-.23-.13-.55-.13-.55 0-.3.12-.58.12-.58.12-.26.35-.46.35-.46.23-.2.56-.3.56-.3.32-.12.73-.12.73-.12.48 0 .88.16.88.16.4.17.7.4.7.4l-.4.56c-.27-.2-.56-.33-.56-.33-.28-.12-.62-.12-.62-.12-.48 0-.7.22-.7.22-.23.22-.23.5-.23.5 0 .2.1.32.1.32.1.12.24.22.24.22.17.1.38.18.38.18l.42.17c.28.1.55.22.55.22.28.1.5.28.5.28.22.17.36.42.36.42.16.25.16.6.16.6 0 .33-.12.6-.12.6-.13.27-.36.48-.36.48-.24.2-.6.33-.6.33-.34.13-.8.13-.8.13-.54 0-1.03-.2-1.03-.2-.5-.2-.86-.5-.86-.5zm3.67 1.16zm.78-5.1h.87v3.12c0 .73.23 1.05.23 1.05.22.32.73.32.73.32.4 0 .7-.22.7-.22.32-.2.68-.65.68-.65v-3.63h.87v5.1h-.72l-.07-.8h-.03c-.36.43-.75.68-.75.68-.4.25-.93.25-.93.25-.82 0-1.2-.5-1.2-.5-.37-.5-.37-1.5-.37-1.5v-3.23zm4.93 5.1zm.5-2.53c0-.64.18-1.13.18-1.13.2-.5.52-.85.52-.85.32-.36.73-.54.73-.54.4-.18.85-.18.85-.18.48 0 .87.16.87.16.38.17.64.5.64.5.24.3.38.74.38.74.14.44.14 1 .14 1 0 .27-.03.46-.03.46h-3.46c.05.83.5 1.32.5 1.32.47.48 1.2.48 1.2.48.37 0 .68-.1.68-.1.3-.12.6-.3.6-.3l.3.57c-.34.22-.75.38-.75.38-.4.15-.93.15-.93.15-.52 0-.96-.18-.96-.18-.45-.18-.78-.53-.78-.53-.33-.34-.52-.83-.52-.83-.2-.5-.2-1.13-.2-1.13zm0 0zm3.56-.4c0-.78-.33-1.2-.33-1.2-.33-.4-.93-.4-.93-.4-.27 0-.52.1-.52.1-.25.1-.45.3-.45.3-.2.22-.33.52-.33.52-.13.3-.17.68-.17.68h2.73zm3.28 2.94zm.86-5.1h.7l.1.74h.02c.37-.37.77-.62.77-.62.4-.24.93-.24.93-.24.8 0 1.18.5 1.18.5.4.5.4 1.5.4 1.5v3.23h-.87v-3.1c0-.74-.24-1.06-.24-1.06-.24-.32-.74-.32-.74-.32-.4 0-.7.2-.7.2-.3.2-.7.6-.7.6v3.7h-.86v-5.12zm4.88 5.1zm.8-5.1h.86v3.12c0 .73.23 1.05.23 1.05.23.32.73.32.73.32.4 0 .7-.22.7-.22.3-.2.68-.65.68-.65v-3.63h.86v5.1h-.72l-.07-.8h-.03c-.36.43-.75.68-.75.68-.4.25-.93.25-.93.25-.82 0-1.2-.5-1.2-.5-.37-.5-.37-1.5-.37-1.5v-3.23zm4.92 5.1zm.86-5.1h.7l.1.74h.02c.34-.37.73-.62.73-.62.4-.24.87-.24.87-.24.58 0 .9.25.9.25.35.26.5.72.5.72.4-.44.8-.7.8-.7.4-.27.88-.27.88-.27.8 0 1.18.5 1.18.5.38.5.38 1.5.38 1.5v3.23h-.85v-3.1c0-.74-.23-1.06-.23-1.06-.23-.32-.72-.32-.72-.32-.58 0-1.28.8-1.28.8v3.7h-.86v-3.13c0-.74-.23-1.06-.23-1.06-.23-.32-.73-.32-.73-.32-.57 0-1.28.8-1.28.8v3.7h-.86v-5.12zm7.85 5.1zm.87-7.47h.86v2.04l-.02.92c.36-.3.76-.52.76-.52.4-.2.85-.2.85-.2.5 0 .88.18.88.18.38.18.63.53.63.53.27.33.4.8.4.8.13.48.13 1.07.13 1.07 0 .65-.18 1.17-.18 1.17-.17.5-.48.87-.48.87-.3.37-.7.55-.7.55-.4.18-.84.18-.84.18-.36 0-.74-.16-.74-.16-.4-.16-.73-.47-.73-.47h-.03l-.08.5h-.7v-7.47zm0 0zm.86 6.34c.34.3.67.42.67.42.33.1.58.1.58.1.3 0 .58-.13.58-.13.27-.15.46-.4.46-.4.2-.26.3-.64.3-.64.12-.38.12-.85.12-.85 0-.42-.07-.77-.07-.77-.08-.33-.24-.58-.24-.58-.16-.25-.42-.38-.42-.38-.25-.14-.6-.14-.6-.14-.62 0-1.37.7-1.37.7v2.67zm4.1 1.14zm.5-2.53c0-.64.18-1.13.18-1.13.2-.5.53-.85.53-.85.32-.36.73-.54.73-.54.4-.18.85-.18.85-.18.5 0 .88.16.88.16.38.17.64.5.64.5.25.3.4.74.4.74.13.44.13 1 .13 1 0 .27-.03.46-.03.46h-3.45c.05.83.5 1.32.5 1.32.47.48 1.2.48 1.2.48.37 0 .68-.1.68-.1.3-.12.6-.3.6-.3l.3.57c-.34.22-.75.38-.75.38-.4.15-.93.15-.93.15-.52 0-.96-.18-.96-.18-.44-.18-.77-.53-.77-.53-.33-.34-.52-.83-.52-.83-.18-.5-.18-1.13-.18-1.13zm0 0zm3.56-.4c0-.78-.34-1.2-.34-1.2-.33-.4-.93-.4-.93-.4-.27 0-.52.1-.52.1-.24.1-.44.3-.44.3-.2.22-.33.52-.33.52-.13.3-.17.68-.17.68h2.73zm1.15 2.94zm.86-5.1h.72l.08.93h.03c.26-.5.63-.77.63-.77.38-.28.82-.28.82-.28.3 0 .54.1.54.1l-.16.76-.24-.07c-.1-.02-.26-.02-.26-.02-.32 0-.68.27-.68.27-.35.26-.6.9-.6.9v3.3h-.87v-5.12z" stroke-linejoin="bevel"/>
  <path fill="#5C3566" fill-opacity=".5" stroke="none" stroke-opacity="0" stroke-width="0" stroke-miterlimit="10" d="M10 580v10h20v-10z" stroke-linejoin="bevel"/>
  <path stroke="none" stroke-opacity="0" stroke-width="0" stroke-miterlimit="10" d="M35.07 586.6zm.95-6.88h.9l2.5 4.32.74 1.43h.04l-.07-1.08c-.04-.58-.04-1.12-.04-1.12v-3.56h.82v6.9h-.9l-2.5-4.35-.74-1.42h-.05c.05.53.08 1.07.08 1.07.05.54.05 1.08.05 1.08v3.6h-.83v-6.88zm5.85 6.9zm.8-5.12h.86v3.12c0 .73.23 1.05.23 1.05.22.32.73.32.73.32.38 0 .7-.22.7-.22.3-.2.66-.65.66-.65v-3.63h.86v5.1h-.7l-.1-.8h-.02c-.35.43-.75.68-.75.68-.4.25-.93.25-.93.25-.82 0-1.2-.5-1.2-.5-.36-.5-.36-1.5-.36-1.5v-3.23zm4.9 5.1zm.88-5.1h.7l.08.74h.03c.34-.37.73-.62.73-.62.4-.24.85-.24.85-.24.6 0 .92.25.92.25.33.26.5.72.5.72.4-.44.8-.7.8-.7.4-.27.87-.27.87-.27.8 0 1.17.5 1.17.5.4.5.4 1.5.4 1.5v3.23h-.87v-3.1c0-.74-.23-1.06-.23-1.06-.23-.32-.7-.32-.7-.32-.6 0-1.3.8-1.3.8v3.7h-.86v-3.13c0-.74-.23-1.06-.23-1.06-.22-.32-.7-.32-.7-.32-.6 0-1.3.8-1.3.8v3.7h-.85v-5.12zm7.84 5.1zm.85-7.47H58v2.96c.34-.3.75-.52.75-.52.4-.2.84-.2.84-.2.48 0 .86.18.86.18.38.18.64.53.64.53.25.33.4.8.4.8.12.48.12 1.07.12 1.07 0 .65-.18 1.17-.18 1.17-.18.5-.48.87-.48.87-.3.37-.7.55-.7.55-.4.18-.85.18-.85.18-.35 0-.73-.16-.73-.16-.38-.16-.72-.47-.72-.47h-.03l-.07.5h-.7v-7.47zm0 0zm.86 6.34c.35.3.68.42.68.42.33.1.58.1.58.1.32 0 .6-.13.6-.13.26-.15.45-.4.45-.4.2-.26.3-.64.3-.64.12-.38.12-.85.12-.85 0-.42-.07-.77-.07-.77-.07-.33-.23-.58-.23-.58-.17-.25-.43-.38-.43-.38-.26-.14-.62-.14-.62-.14-.62 0-1.37.7-1.37.7v2.67zm4.12 1.14zm.48-2.53c0-.64.2-1.13.2-1.13.2-.5.5-.85.5-.85.33-.36.74-.54.74-.54.4-.18.85-.18.85-.18.48 0 .86.16.86.16.38.17.64.5.64.5.26.3.4.74.4.74.13.44.13 1 .13 1 0 .27-.03.46-.03.46h-3.44c.05.83.5 1.32.5 1.32.46.48 1.2.48 1.2.48.37 0 .68-.1.68-.1.3-.12.6-.3.6-.3l.3.57c-.34.22-.75.38-.75.38-.42.15-.95.15-.95.15-.5 0-.96-.18-.96-.18-.46-.18-.8-.53-.8-.53-.32-.34-.5-.83-.5-.83-.2-.5-.2-1.13-.2-1.13zm0 0zm3.58-.4c0-.78-.33-1.2-.33-1.2-.34-.4-.93-.4-.93-.4-.28 0-.52.1-.52.1-.25.1-.45.3-.45.3-.2.22-.33.52-.33.52-.13.3-.17.68-.17.68h2.73zm1.15 2.94zm.86-5.1h.7l.08.93H69c.28-.5.65-.77.65-.77.37-.28.8-.28.8-.28.32 0 .56.1.56.1l-.16.76-.23-.07c-.1-.02-.25-.02-.25-.02-.33 0-.68.27-.68.27-.35.26-.62.9-.62.9v3.3h-.86v-5.12zm4.9 5.1zm.48-2.53c0-.65.2-1.14.2-1.14.2-.5.52-.85.52-.85.32-.35.75-.53.75-.53.42-.17.9-.17.9-.17.47 0 .9.17.9.17.42.18.74.53.74.53.32.35.5.85.5.85.2.5.2 1.14.2 1.14 0 .63-.2 1.12-.2 1.12-.18.5-.5.83-.5.83-.33.35-.76.52-.76.52-.42.18-.9.18-.9.18-.47 0-.9-.18-.9-.18-.42-.17-.74-.52-.74-.52-.33-.34-.52-.84-.52-.84-.2-.5-.2-1.13-.2-1.13zm0 0zm.9 0c0 .44.1.8.1.8.1.35.3.6.3.6.2.27.47.4.47.4.27.15.6.15.6.15.32 0 .6-.14.6-.14.27-.14.46-.4.46-.4.2-.26.3-.62.3-.62.12-.35.12-.8.12-.8 0-.44-.1-.8-.1-.8-.1-.36-.3-.62-.3-.62-.2-.27-.48-.4-.48-.4-.27-.15-.6-.15-.6-.15-.32 0-.6.13-.6.13-.27.14-.46.4-.46.4-.2.27-.3.63-.3.63-.1.36-.1.8-.1.8zm4.3 2.54zm3.17-6.77c-.28-.12-.57-.12-.57-.12-.72 0-.72 1-.72 1v.8h1.08v.7h-1.08v4.4h-.86v-4.4h-.7v-.65l.7-.05v-.8c0-.8.36-1.25.36-1.25.37-.45 1.13-.45 1.13-.45.23 0 .45.05.45.05l.4.12zm2.03 6.78zm.86-5.1h.72l.07.93h.03c.26-.5.64-.77.64-.77.37-.28.8-.28.8-.28.32 0 .56.1.56.1l-.17.76-.24-.07c-.1-.02-.26-.02-.26-.02-.33 0-.68.27-.68.27-.35.26-.62.9-.62.9v3.3h-.86v-5.12zm2.68 5.1zm.48-2.53c0-.64.2-1.13.2-1.13.2-.5.5-.85.5-.85.33-.36.74-.54.74-.54.4-.18.85-.18.85-.18.48 0 .86.16.86.16.38.17.64.5.64.5.26.3.4.74.4.74.13.44.13 1 .13 1 0 .27-.03.46-.03.46h-3.44c.05.83.5 1.32.5 1.32.46.48 1.2.48 1.2.48.36 0 .67-.1.67-.1.3-.12.6-.3.6-.3l.3.57c-.33.22-.74.38-.74.38-.42.15-.95.15-.95.15-.5 0-.96-.18-.96-.18-.46-.18-.8-.53-.8-.53-.32-.34-.5-.83-.5-.83-.2-.5-.2-1.13-.2-1.13zm0 0zm3.58-.4c0-.78-.34-1.2-.34-1.2-.33-.4-.92-.4-.92-.4-.28 0-.52.1-.52.1-.25.1-.45.3-.45.3-.2.22-.33.52-.33.52-.13.3-.18.68-.18.68h2.74zm1.15 2.94zm.48-2.53c0-.65.2-1.14.2-1.14.2-.5.55-.85.55-.85.34-.35.78-.53.78-.53.45-.17.94-.17.94-.17.5 0 .87.18.87.18.36.18.62.43.62.43l-.43.54c-.23-.2-.47-.32-.47-.32-.25-.13-.56-.13-.56-.13-.34 0-.64.13-.64.13-.3.14-.5.4-.5.4-.2.27-.33.63-.33.63-.12.36-.12.8-.12.8 0 .45.12.8.12.8.12.36.32.62.32.62.2.26.5.4.5.4.3.14.64.14.64.14.37 0 .67-.15.67-.15.3-.16.53-.37.53-.37l.4.57c-.36.3-.78.48-.78.48-.43.18-.9.18-.9.18-.5 0-.94-.18-.94-.18-.44-.17-.76-.52-.76-.52-.32-.34-.5-.84-.5-.84-.2-.5-.2-1.13-.2-1.13zm4.32 2.54zm1.3-6.15c-.25 0-.42-.16-.42-.16-.18-.16-.18-.4-.18-.4 0-.26.18-.4.18-.4.17-.16.42-.16.42-.16.26 0 .43.15.43.15.17.14.17.4.17.4 0 .24-.17.4-.17.4-.17.15-.43.15-.43.15zm0 0zm-.44 1.05h.86v5.1h-.86v-5.1zm1.73 5.1zm1.73.44v1.72h-.86v-7.26h.7l.08.6h.04c.33-.3.75-.5.75-.5.4-.22.86-.22.86-.22.5 0 .9.18.9.18.36.18.62.53.62.53.25.33.38.8.38.8.13.48.13 1.08.13 1.08 0 .65-.18 1.16-.18 1.16-.18.5-.48.87-.48.87-.3.37-.7.55-.7.55-.4.18-.85.18-.85.18-.35 0-.7-.15-.7-.15-.36-.16-.7-.44-.7-.44zm0 0zm0-1.57c.34.3.67.42.67.42.33.1.58.1.58.1.3 0 .58-.13.58-.13.27-.15.46-.4.46-.4.2-.26.3-.64.3-.64.12-.38.12-.85.12-.85 0-.42-.08-.77-.08-.77-.07-.33-.23-.58-.23-.58-.16-.25-.42-.38-.42-.38-.25-.14-.6-.14-.6-.14-.33 0-.66.18-.66.18-.33.18-.7.5-.7.5v2.7zm4.1 1.14zm1.3-6.15c-.24 0-.42-.16-.42-.16-.16-.16-.16-.4-.16-.4 0-.26.17-.4.17-.4.2-.16.44-.16.44-.16.25 0 .42.15.42.15.18.14.18.4.18.4 0 .24-.18.4-.18.4-.17.15-.42.15-.42.15zm0 0zm-.43 1.05h.86v5.1h-.86v-5.1zm1.72 5.1zm.48-2.53c0-.64.2-1.13.2-1.13.2-.5.5-.85.5-.85.33-.36.74-.54.74-.54.4-.18.85-.18.85-.18.48 0 .86.16.86.16.38.17.64.5.64.5.26.3.4.74.4.74.13.44.13 1 .13 1 0 .27-.03.46-.03.46h-3.45c.06.83.5 1.32.5 1.32.47.48 1.2.48 1.2.48.37 0 .68-.1.68-.1.3-.12.6-.3.6-.3l.3.57c-.34.22-.75.38-.75.38-.4.15-.93.15-.93.15-.52 0-.96-.18-.96-.18-.46-.18-.8-.53-.8-.53-.32-.34-.5-.83-.5-.83-.2-.5-.2-1.13-.2-1.13zm0 0zm3.57-.4c0-.78-.33-1.2-.33-1.2-.33-.4-.93-.4-.93-.4-.26 0-.5.1-.5.1-.25.1-.45.3-.45.3-.2.22-.33.52-.33.52-.14.3-.18.68-.18.68h2.73zm1.16 2.94zm.86-5.1h.7l.08.74h.03c.38-.37.78-.62.78-.62.4-.24.94-.24.94-.24.8 0 1.18.5 1.18.5.38.5.38 1.5.38 1.5v3.23h-.86v-3.1c0-.74-.24-1.06-.24-1.06-.23-.32-.73-.32-.73-.32-.4 0-.7.2-.7.2-.3.2-.7.6-.7.6v3.7h-.86v-5.12zm4.87 5.1zm1-4.4h-.74v-.65l.8-.05.1-1.43h.73v1.43h1.37v.7h-1.38v2.84c0 .47.18.73.18.73.17.26.6.26.6.26.15 0 .3-.04.3-.04l.3-.1.16.64c-.22.08-.47.14-.47.14-.25.05-.5.05-.5.05-.4 0-.67-.12-.67-.12-.28-.12-.46-.34-.46-.34-.17-.22-.24-.54-.24-.54-.08-.3-.08-.7-.08-.7v-2.8zm2.56 4.4zm.72-1.15c.34.27.7.44.7.44.34.16.8.16.8.16.5 0 .76-.23.76-.23.26-.23.26-.57.26-.57 0-.2-.1-.34-.1-.34-.1-.15-.27-.26-.27-.26l-.4-.2-.4-.16c-.28-.1-.55-.22-.55-.22-.27-.12-.5-.3-.5-.3-.2-.17-.34-.4-.34-.4-.13-.23-.13-.55-.13-.55 0-.3.12-.58.12-.58.1-.26.34-.46.34-.46.22-.2.55-.3.55-.3.32-.12.73-.12.73-.12.48 0 .88.16.88.16.42.17.7.4.7.4l-.4.56c-.26-.2-.54-.33-.54-.33-.3-.12-.62-.12-.62-.12-.5 0-.7.22-.7.22-.24.22-.24.5-.24.5 0 .2.1.32.1.32.1.12.25.22.25.22.16.1.36.18.36.18l.44.17.55.22c.27.1.5.28.5.28.2.17.35.42.35.42.14.25.14.6.14.6 0 .33-.13.6-.13.6-.12.27-.36.48-.36.48-.22.2-.58.33-.58.33-.35.13-.8.13-.8.13-.55 0-1.04-.2-1.04-.2-.5-.2-.86-.5-.86-.5z" stroke-linejoin="bevel"/>
</svg>
