<?xml version="1.0"?>

<svg viewBox="0 0 100 100" height="100%" width="100%" xmlns="http://www.w3.org/2000/svg">
  <path d="M49.9 1.2C22.3 1.2 0 23.6 0 51.2c0 22.0 14.3 40.8 34.1 47.4 2.5 0.4 3.4 -1.0 3.4 -2.4 0 -1.1 -0.0 -4.3 -0.0 -8.5 -13.9 3.0 -16.8 -6.7 -16.8 -6.7 -2.2 -5.7 -5.5 -7.3 -5.5 -7.3 -4.5 -3.1 0.3 -3.0 0.3 -3.0 5.0 0.3 7.6 5.1 7.6 5.1 4.4 7.6 11.7 5.4 14.5 4.1 0.4 -3.2 1.7 -5.4 3.1 -6.6 -11.1 -1.2 -22.7 -5.5 -22.7 -24.7 0 -5.4 1.9 -9.9 5.1 -13.4 -0.5 -1.2 -2.2 -6.3 0.4 -13.2 0 0 4.1 -1.3 13.7 5.1 3.9 -1.1 8.2 -1.6 12.5 -1.6 4.2 0.0 8.5 0.5 12.5 1.6 9.5 -6.4 13.7 -5.1 13.7 -5.1 2.7 6.8 1.0 11.9 0.4 13.2 3.2 3.4 5.1 7.9 5.1 13.4 0 19.2 -11.6 23.4 -22.8 24.6 1.7 1.5 3.3 4.5 3.3 9.2 0 6.6 -0.0 12.0 -0.0 13.7 0 1.3 0.8 2.8 3.4 2.4C85.6 92.0 100 73.3 100 51.2 100 23.6 77.6 1.2 49.9 1.2" fill="#b0b0b0"/>
</svg>
