<?xml version="1.0" encoding="utf-8"?>
<svg height="100%" viewBox="9 2 56 56" width="100%" xmlns="http://www.w3.org/2000/svg">
  <path d="
      M 37.341 2.633
      c -5.232 0 -9.96 1.209 -14.193 3.624
      c -4.231 2.413 -7.523 5.729 -9.884 9.949
      c -2.363 4.219 -3.541 8.841 -3.533 13.853
      c 0 7.234 2.432 13.54 7.297 18.931
      c 4.866 5.389 11.588 8.085 20.166 8.079
      c 9.538 -0.006 16.926 -3.617 22.151 -10.845
      l -9.653 -7.004
      c -3.056 3.964 -7.324 5.947 -12.798 5.954
      c -4.43 0 -8.008 -1.391 -10.736 -4.181
      c -2.728 -2.786 -4.091 -6.377 -4.091 -10.781
      c -0.005 -4.526 1.408 -8.239 4.239 -11.14
      c 2.822 -2.9 6.529 -4.352 11.105 -4.359
      c 2.517 0 4.707 0.416 6.582 1.236
      c 1.652 0.73 3.321 1.99 5.007 3.726
      c -2.79 1.613 -4.827 2.784 -4.827 2.784
      L 64.12 33.804
      c 0 0 0.019 -22.195 0.421 -23.495
      c -0.352 0.352 -2.47 1.671 -5.225 3.316
      c -2.372 -3.386 -5.337 -6.037 -8.922 -7.932
      c -3.841 -2.043 -8.181 -3.061 -13.009 -3.061
    "/>
</svg>
