<?xml version="1.0" encoding="UTF-8"?>
<!DOCTYPE svg PUBLIC "-//W3C//DTD SVG 1.1//EN"
    "http://www.w3.org/Graphics/SVG/1.1/DTD/svg11.dtd"><svg xmlns="http://www.w3.org/2000/svg" height="600.0000" stroke-opacity="1" viewBox="0 0 800 600" font-size="1" width="800.0000" xmlns:xlink="http://www.w3.org/1999/xlink" stroke="rgb(0,0,0)" version="1.1"><defs></defs><g stroke-linejoin="bevel" stroke-opacity="0.0" fill-opacity="1.0" stroke="rgb(0,0,0)" stroke-width="0.0" fill="rgb(255,255,255)" stroke-linecap="butt" stroke-miterlimit="10.0"><path d="M 0.0000,0.0000 v 600.0000 h 800.0000 v -600.0000 Z"/></g><g stroke-linejoin="bevel" stroke-opacity="0.0" fill-opacity="1.0" stroke="rgb(0,0,0)" stroke-width="0.0" fill="rgb(0,0,0)" stroke-linecap="butt" stroke-miterlimit="10.0"><path d="M 287.0611,14.1016 ZM 287.2767,4.0606 h 2.3255 l 0.6930,4.6971 c 0.0924,0.7854 0.2002,1.5785 0.2002 1.5785c 0.1078,0.7931 0.2002,1.5939 0.2002 1.5939h 0.0616 c 0.1540,-0.8008 0.3003,-1.5939 0.3003 -1.5939c 0.1463,-0.7931 0.3003,-1.5785 0.3003 -1.5785l 1.0780,-4.6971 h 1.9251 l 1.0780,4.6971 c 0.1540,0.7700 0.3003,1.5631 0.3003 1.5631c 0.1463,0.7931 0.3003,1.6093 0.3003 1.6093h 0.0616 c 0.1078,-0.8162 0.2079,-1.6016 0.2079 -1.6016c 0.1001,-0.7854 0.2079,-1.5708 0.2079 -1.5708l 0.6930,-4.6971 h 2.1715 l -1.7864,10.0411 h -2.8491 l -0.9856,-4.5585 c -0.1232,-0.5852 -0.2233,-1.1781 -0.2233 -1.1781c -0.1001,-0.5929 -0.1771,-1.1473 -0.1771 -1.1473h -0.0616 c -0.0924,0.5544 -0.1925,1.1473 -0.1925 1.1473c -0.1001,0.5929 -0.2233,1.1781 -0.2233 1.1781l -0.9394,4.5585 h -2.8029 ZM 299.5816,14.1016 ZM 300.5826,3.3060 h 2.2639 v 2.6489 l -0.1078,1.3706 c 0.4312,-0.3850 1.0010,-0.7161 1.0010 -0.7161c 0.5698,-0.3311 1.3552,-0.3311 1.3552 -0.3311c 1.2474,0.0000 1.8095,0.8162 1.8095 0.8162c 0.5621,0.8162 0.5621,2.2639 0.5621 2.2639v 4.7433 h -2.2639 v -4.4507 c 0.0000,-0.8316 -0.2233,-1.1396 -0.2233 -1.1396c -0.2233,-0.3080 -0.7161,-0.3080 -0.7161 -0.3080c -0.4312,-0.0000 -0.7392,0.1925 -0.7392 0.1925c -0.3080,0.1925 -0.6776,0.5467 -0.6776 0.5467v 5.1591 h -2.2639 v -10.7957 ZM 308.3753,14.1016 ZM 309.0991,11.9764 c 0.0000,-1.2012 1.0164,-1.8789 1.0164 -1.8789c 1.0164,-0.6776 3.2803,-0.9086 3.2803 -0.9086c -0.0308,-0.5082 -0.3080,-0.8085 -0.3080 -0.8085c -0.2772,-0.3003 -0.8932,-0.3003 -0.8932 -0.3003c -0.4928,-0.0000 -0.9856,0.1848 -0.9856 0.1848c -0.4928,0.1848 -1.0472,0.5082 -1.0472 0.5082l -0.8008,-1.4938 c 0.7392,-0.4466 1.5477,-0.7238 1.5477 -0.7238c 0.8085,-0.2772 1.7171,-0.2772 1.7171 -0.2772c 1.4784,0.0000 2.2562,0.8393 2.2562 0.8393c 0.7777,0.8393 0.7777,2.6104 0.7777 2.6104v 4.3737 h -1.8480 l -0.1694,-0.7854 h -0.0462 c -0.4928,0.4312 -1.0395,0.7007 -1.0395 0.7007c -0.5467,0.2695 -1.1935,0.2695 -1.1935 0.2695c -0.5236,-0.0000 -0.9394,-0.1771 -0.9394 -0.1771c -0.4158,-0.1771 -0.7084,-0.4928 -0.7084 -0.4928c -0.2926,-0.3157 -0.4543,-0.7315 -0.4543 -0.7315c -0.1617,-0.4158 -0.1617,-0.9086 -0.1617 -0.9086ZM 309.0991,11.9764 ZM 311.2551,11.8070 c 0.0000,0.3696 0.2387,0.5467 0.2387 0.5467c 0.2387,0.1771 0.6391,0.1771 0.6391 0.1771c 0.4004,0.0000 0.6776,-0.1694 0.6776 -0.1694c 0.2772,-0.1694 0.5852,-0.4774 0.5852 -0.4774v -1.3398 c -1.2166,0.1694 -1.6786,0.4928 -1.6786 0.4928c -0.4620,0.3234 -0.4620,0.7700 -0.4620 0.7700ZM 316.5991,14.1016 ZM 317.9081,8.2341 h -1.0472 v -1.6786 l 1.1704,-0.0924 l 0.2618,-2.0329 h 1.8789 v 2.0329 h 1.8326 v 1.7710 h -1.8326 v 3.0647 c 0.0000,0.6468 0.2695,0.9317 0.2695 0.9317c 0.2695,0.2849 0.7161,0.2849 0.7161 0.2849c 0.1848,0.0000 0.3773,-0.0462 0.3773 -0.0462c 0.1925,-0.0462 0.3465,-0.1078 0.3465 -0.1078l 0.3542,1.6478 c -0.3080,0.0924 -0.7238,0.1848 -0.7238 0.1848c -0.4158,0.0924 -0.9702,0.0924 -0.9702 0.0924c -0.7084,-0.0000 -1.2089,-0.2156 -1.2089 -0.2156c -0.5005,-0.2156 -0.8162,-0.6006 -0.8162 -0.6006c -0.3157,-0.3850 -0.4620,-0.9317 -0.4620 -0.9317c -0.1463,-0.5467 -0.1463,-1.2089 -0.1463 -1.2089v -3.0955 ZM 325.7007,14.1016 ZM 327.8260,5.3388 c -0.5698,-0.0000 -0.9394,-0.3311 -0.9394 -0.3311c -0.3696,-0.3311 -0.3696,-0.8547 -0.3696 -0.8547c 0.0000,-0.5236 0.3696,-0.8470 0.3696 -0.8470c 0.3696,-0.3234 0.9394,-0.3234 0.9394 -0.3234c 0.5852,0.0000 0.9471,0.3234 0.9471 0.3234c 0.3619,0.3234 0.3619,0.8470 0.3619 0.8470c 0.0000,0.5236 -0.3619,0.8547 -0.3619 0.8547c -0.3619,0.3311 -0.9471,0.3311 -0.9471 0.3311ZM 327.8260,5.3388 ZM 326.7017,6.4630 h 2.2639 v 7.6386 h -2.2639 v -7.6386 ZM 329.9512,14.1016 ZM 331.2911,11.8070 c 0.5236,0.4004 1.0010,0.6006 1.0010 0.6006c 0.4774,0.2002 0.9702,0.2002 0.9702 0.2002c 0.5082,0.0000 0.7392,-0.1694 0.7392 -0.1694c 0.2310,-0.1694 0.2310,-0.4774 0.2310 -0.4774c 0.0000,-0.1848 -0.1309,-0.3311 -0.1309 -0.3311c -0.1309,-0.1463 -0.3542,-0.2695 -0.3542 -0.2695c -0.2233,-0.1232 -0.5005,-0.2233 -0.5005 -0.2233c -0.2772,-0.1001 -0.5698,-0.2233 -0.5698 -0.2233c -0.3542,-0.1386 -0.7084,-0.3234 -0.7084 -0.3234c -0.3542,-0.1848 -0.6468,-0.4543 -0.6468 -0.4543c -0.2926,-0.2695 -0.4774,-0.6314 -0.4774 -0.6314c -0.1848,-0.3619 -0.1848,-0.8393 -0.1848 -0.8393c 0.0000,-0.5236 0.2079,-0.9702 0.2079 -0.9702c 0.2079,-0.4466 0.5929,-0.7546 0.5929 -0.7546c 0.3850,-0.3080 0.9240,-0.4851 0.9240 -0.4851c 0.5390,-0.1771 1.2012,-0.1771 1.2012 -0.1771c 0.8778,0.0000 1.5400,0.3003 1.5400 0.3003c 0.6622,0.3003 1.1550,0.6699 1.1550 0.6699l -1.0164,1.3552 c -0.4158,-0.3080 -0.8162,-0.4774 -0.8162 -0.4774c -0.4004,-0.1694 -0.8008,-0.1694 -0.8008 -0.1694c -0.8624,-0.0000 -0.8624,0.6006 -0.8624 0.6006c 0.0000,0.1848 0.1232,0.3157 0.1232 0.3157c 0.1232,0.1309 0.3311,0.2387 0.3311 0.2387c 0.2079,0.1078 0.4774,0.2079 0.4774 0.2079c 0.2695,0.1001 0.5621,0.2079 0.5621 0.2079c 0.3696,0.1386 0.7315,0.3157 0.7315 0.3157c 0.3619,0.1771 0.6622,0.4389 0.6622 0.4389c 0.3003,0.2618 0.4851,0.6391 0.4851 0.6391c 0.1848,0.3773 0.1848,0.9009 0.1848 0.9009c 0.0000,0.5236 -0.2002,0.9702 -0.2002 0.9702c -0.2002,0.4466 -0.6006,0.7777 -0.6006 0.7777c -0.4004,0.3311 -0.9856,0.5236 -0.9856 0.5236c -0.5852,0.1925 -1.3552,0.1925 -1.3552 0.1925c -0.7546,-0.0000 -1.5477,-0.2926 -1.5477 -0.2926c -0.7931,-0.2926 -1.3783,-0.7700 -1.3783 -0.7700ZM 339.9769,14.1016 ZM 341.1473,15.2105 c 0.1078,0.0308 0.2464,0.0616 0.2464 0.0616c 0.1386,0.0308 0.2618,0.0308 0.2618 0.0308c 0.5698,0.0000 0.8778,-0.2772 0.8778 -0.2772c 0.3080,-0.2772 0.4620,-0.7238 0.4620 -0.7238l 0.1078,-0.4004 l -2.9415,-7.4384 h 2.2793 l 1.0934,3.2803 c 0.1694,0.5236 0.3080,1.0626 0.3080 1.0626c 0.1386,0.5390 0.2926,1.1088 0.2926 1.1088h 0.0616 c 0.1232,-0.5390 0.2541,-1.0857 0.2541 -1.0857c 0.1309,-0.5467 0.2695,-1.0857 0.2695 -1.0857l 0.9240,-3.2803 h 2.1715 l -2.6489,7.7156 c -0.2772,0.7238 -0.5775,1.2705 -0.5775 1.2705c -0.3003,0.5467 -0.6930,0.9086 -0.6930 0.9086c -0.3927,0.3619 -0.8932,0.5467 -0.8932 0.5467c -0.5005,0.1848 -1.1781,0.1848 -1.1781 0.1848c -0.3542,-0.0000 -0.6006,-0.0385 -0.6006 -0.0385c -0.2464,-0.0385 -0.4774,-0.1155 -0.4774 -0.1155l 0.4004,-1.7248 h 0.0000 ZM 347.8773,14.1016 ZM 348.4317,10.2823 c 0.0000,-0.9548 0.3080,-1.7017 0.3080 -1.7017c 0.3080,-0.7469 0.8239,-1.2551 0.8239 -1.2551c 0.5159,-0.5082 1.1935,-0.7777 1.1935 -0.7777c 0.6776,-0.2695 1.4014,-0.2695 1.4014 -0.2695c 0.7238,0.0000 1.3937,0.2695 1.3937 0.2695c 0.6699,0.2695 1.1858,0.7777 1.1858 0.7777c 0.5159,0.5082 0.8239,1.2551 0.8239 1.2551c 0.3080,0.7469 0.3080,1.7017 0.3080 1.7017c 0.0000,0.9548 -0.3080,1.7017 -0.3080 1.7017c -0.3080,0.7469 -0.8239,1.2551 -0.8239 1.2551c -0.5159,0.5082 -1.1858,0.7777 -1.1858 0.7777c -0.6699,0.2695 -1.3937,0.2695 -1.3937 0.2695c -0.7238,-0.0000 -1.4014,-0.2695 -1.4014 -0.2695c -0.6776,-0.2695 -1.1935,-0.7777 -1.1935 -0.7777c -0.5159,-0.5082 -0.8239,-1.2551 -0.8239 -1.2551c -0.3080,-0.7469 -0.3080,-1.7017 -0.3080 -1.7017ZM 348.4317,10.2823 ZM 350.7572,10.2823 c 0.0000,1.0010 0.3465,1.5862 0.3465 1.5862c 0.3465,0.5852 1.0549,0.5852 1.0549 0.5852c 0.6930,0.0000 1.0472,-0.5852 1.0472 -0.5852c 0.3542,-0.5852 0.3542,-1.5862 0.3542 -1.5862c 0.0000,-1.0010 -0.3542,-1.5862 -0.3542 -1.5862c -0.3542,-0.5852 -1.0472,-0.5852 -1.0472 -0.5852c -0.7084,-0.0000 -1.0549,0.5852 -1.0549 0.5852c -0.3465,0.5852 -0.3465,1.5862 -0.3465 1.5862ZM 356.4245,14.1016 ZM 357.3486,6.4630 h 2.2639 v 4.4507 c 0.0000,0.8316 0.2310,1.1396 0.2310 1.1396c 0.2310,0.3080 0.7238,0.3080 0.7238 0.3080c 0.4312,0.0000 0.7238,-0.2002 0.7238 -0.2002c 0.2926,-0.2002 0.6314,-0.6468 0.6314 -0.6468v -5.0513 h 2.2639 v 7.6386 h -1.8480 l -0.1694,-1.0626 h -0.0462 c -0.4928,0.5852 -1.0549,0.9163 -1.0549 0.9163c -0.5621,0.3311 -1.3475,0.3311 -1.3475 0.3311c -1.2474,-0.0000 -1.8095,-0.8162 -1.8095 -0.8162c -0.5621,-0.8162 -0.5621,-2.2639 -0.5621 -2.2639v -4.7433 ZM 365.1720,14.1016 ZM 366.1730,6.4630 h 1.8480 l 0.1540,1.3398 h 0.0616 c 0.4158,-0.7854 1.0010,-1.1550 1.0010 -1.1550c 0.5852,-0.3696 1.1704,-0.3696 1.1704 -0.3696c 0.3234,0.0000 0.5313,0.0385 0.5313 0.0385c 0.2079,0.0385 0.3773,0.1155 0.3773 0.1155l -0.3696,1.9559 c -0.2156,-0.0616 -0.4004,-0.0924 -0.4004 -0.0924c -0.1848,-0.0308 -0.4312,-0.0308 -0.4312 -0.0308c -0.4312,-0.0000 -0.9009,0.3080 -0.9009 0.3080c -0.4697,0.3080 -0.7777,1.0934 -0.7777 1.0934v 4.4353 h -2.2639 v -7.6386 ZM 374.5046,14.1016 ZM 375.0590,10.2823 c 0.0000,-0.9240 0.3080,-1.6709 0.3080 -1.6709c 0.3080,-0.7469 0.8085,-1.2628 0.8085 -1.2628c 0.5005,-0.5159 1.1473,-0.7931 1.1473 -0.7931c 0.6468,-0.2772 1.3398,-0.2772 1.3398 -0.2772c 0.8162,0.0000 1.4245,0.2772 1.4245 0.2772c 0.6083,0.2772 1.0164,0.7700 1.0164 0.7700c 0.4081,0.4928 0.6083,1.1627 0.6083 1.1627c 0.2002,0.6699 0.2002,1.4553 0.2002 1.4553c 0.0000,0.3080 -0.0308,0.5621 -0.0308 0.5621c -0.0308,0.2541 -0.0616,0.3927 -0.0616 0.3927h -4.5739 c 0.1540,0.8778 0.6853,1.2705 0.6853 1.2705c 0.5313,0.3927 1.3013,0.3927 1.3013 0.3927c 0.8162,0.0000 1.6478,-0.5082 1.6478 -0.5082l 0.7546,1.3706 c -0.5852,0.4004 -1.3013,0.6314 -1.3013 0.6314c -0.7161,0.2310 -1.4091,0.2310 -1.4091 0.2310c -0.8162,-0.0000 -1.5246,-0.2695 -1.5246 -0.2695c -0.7084,-0.2695 -1.2320,-0.7854 -1.2320 -0.7854c -0.5236,-0.5159 -0.8162,-1.2551 -0.8162 -1.2551c -0.2926,-0.7392 -0.2926,-1.6940 -0.2926 -1.6940ZM 375.0590,10.2823 ZM 379.9872,9.4969 c 0.0000,-0.6622 -0.2926,-1.0780 -0.2926 -1.0780c -0.2926,-0.4158 -0.9856,-0.4158 -0.9856 -0.4158c -0.5390,-0.0000 -0.9471,0.3619 -0.9471 0.3619c -0.4081,0.3619 -0.5313,1.1319 -0.5313 1.1319h 2.7567 ZM 382.4820,14.1016 ZM 383.4831,6.4630 h 1.8480 l 0.1540,0.9856 h 0.0616 c 0.4774,-0.4774 1.0164,-0.8239 1.0164 -0.8239c 0.5390,-0.3465 1.2936,-0.3465 1.2936 -0.3465c 0.8162,0.0000 1.3167,0.3311 1.3167 0.3311c 0.5005,0.3311 0.7931,0.9471 0.7931 0.9471c 0.5082,-0.5236 1.0703,-0.9009 1.0703 -0.9009c 0.5621,-0.3773 1.3321,-0.3773 1.3321 -0.3773c 1.2320,0.0000 1.8095,0.8239 1.8095 0.8239c 0.5775,0.8239 0.5775,2.2562 0.5775 2.2562v 4.7433 h -2.2639 v -4.4507 c 0.0000,-0.8316 -0.2233,-1.1396 -0.2233 -1.1396c -0.2233,-0.3080 -0.7161,-0.3080 -0.7161 -0.3080c -0.5698,-0.0000 -1.3090,0.7392 -1.3090 0.7392v 5.1591 h -2.2639 v -4.4507 c 0.0000,-0.8316 -0.2233,-1.1396 -0.2233 -1.1396c -0.2233,-0.3080 -0.7161,-0.3080 -0.7161 -0.3080c -0.5852,-0.0000 -1.2936,0.7392 -1.2936 0.7392v 5.1591 h -2.2639 v -7.6386 ZM 395.6802,14.1016 ZM 398.9451,14.7023 v 2.2331 h -2.2639 v -10.4723 h 1.8480 l 0.1540,0.7546 h 0.0616 c 0.4466,-0.4004 1.0087,-0.6699 1.0087 -0.6699c 0.5621,-0.2695 1.1627,-0.2695 1.1627 -0.2695c 0.6930,0.0000 1.2474,0.2772 1.2474 0.2772c 0.5544,0.2772 0.9394,0.7854 0.9394 0.7854c 0.3850,0.5082 0.5929,1.2243 0.5929 1.2243c 0.2079,0.7161 0.2079,1.5939 0.2079 1.5939c 0.0000,0.9856 -0.2695,1.7479 -0.2695 1.7479c -0.2695,0.7623 -0.7238,1.2936 -0.7238 1.2936c -0.4543,0.5313 -1.0318,0.8085 -1.0318 0.8085c -0.5775,0.2772 -1.1935,0.2772 -1.1935 0.2772c -0.4928,-0.0000 -0.9548,-0.2079 -0.9548 -0.2079c -0.4620,-0.2079 -0.8624,-0.5929 -0.8624 -0.5929ZM 398.9451,14.7023 ZM 398.9451,11.9456 c 0.3080,0.2772 0.6160,0.3850 0.6160 0.3850c 0.3080,0.1078 0.6006,0.1078 0.6006 0.1078c 0.5852,0.0000 1.0010,-0.5313 1.0010 -0.5313c 0.4158,-0.5313 0.4158,-1.7171 0.4158 -1.7171c 0.0000,-2.0637 -1.3244,-2.0637 -1.3244 -2.0637c -0.6622,-0.0000 -1.3090,0.6930 -1.3090 0.6930v 3.1263 ZM 404.5046,14.1016 ZM 405.5056,3.3060 h 2.2639 v 8.5164 c 0.0000,0.3542 0.1309,0.4928 0.1309 0.4928c 0.1309,0.1386 0.2695,0.1386 0.2695 0.1386h 0.1309 c 0.0000,0.0000 0.1463,-0.0308 0.1463 -0.0308l 0.2772,1.6786 c -0.1848,0.0770 -0.4697,0.1309 -0.4697 0.1309c -0.2849,0.0539 -0.6699,0.0539 -0.6699 0.0539c -0.5852,-0.0000 -0.9856,-0.1848 -0.9856 -0.1848c -0.4004,-0.1848 -0.6391,-0.5159 -0.6391 -0.5159c -0.2387,-0.3311 -0.3465,-0.8008 -0.3465 -0.8008c -0.1078,-0.4697 -0.1078,-1.0549 -0.1078 -1.0549v -8.4240 ZM 408.9091,14.1016 ZM 409.4636,10.2823 c 0.0000,-0.9548 0.3080,-1.7017 0.3080 -1.7017c 0.3080,-0.7469 0.8239,-1.2551 0.8239 -1.2551c 0.5159,-0.5082 1.1935,-0.7777 1.1935 -0.7777c 0.6776,-0.2695 1.4014,-0.2695 1.4014 -0.2695c 0.7238,0.0000 1.3937,0.2695 1.3937 0.2695c 0.6699,0.2695 1.1858,0.7777 1.1858 0.7777c 0.5159,0.5082 0.8239,1.2551 0.8239 1.2551c 0.3080,0.7469 0.3080,1.7017 0.3080 1.7017c 0.0000,0.9548 -0.3080,1.7017 -0.3080 1.7017c -0.3080,0.7469 -0.8239,1.2551 -0.8239 1.2551c -0.5159,0.5082 -1.1858,0.7777 -1.1858 0.7777c -0.6699,0.2695 -1.3937,0.2695 -1.3937 0.2695c -0.7238,-0.0000 -1.4014,-0.2695 -1.4014 -0.2695c -0.6776,-0.2695 -1.1935,-0.7777 -1.1935 -0.7777c -0.5159,-0.5082 -0.8239,-1.2551 -0.8239 -1.2551c -0.3080,-0.7469 -0.3080,-1.7017 -0.3080 -1.7017ZM 409.4636,10.2823 ZM 411.7890,10.2823 c 0.0000,1.0010 0.3465,1.5862 0.3465 1.5862c 0.3465,0.5852 1.0549,0.5852 1.0549 0.5852c 0.6930,0.0000 1.0472,-0.5852 1.0472 -0.5852c 0.3542,-0.5852 0.3542,-1.5862 0.3542 -1.5862c 0.0000,-1.0010 -0.3542,-1.5862 -0.3542 -1.5862c -0.3542,-0.5852 -1.0472,-0.5852 -1.0472 -0.5852c -0.7084,-0.0000 -1.0549,0.5852 -1.0549 0.5852c -0.3465,0.5852 -0.3465,1.5862 -0.3465 1.5862ZM 417.3332,14.1016 ZM 418.5036,15.2105 c 0.1078,0.0308 0.2464,0.0616 0.2464 0.0616c 0.1386,0.0308 0.2618,0.0308 0.2618 0.0308c 0.5698,0.0000 0.8778,-0.2772 0.8778 -0.2772c 0.3080,-0.2772 0.4620,-0.7238 0.4620 -0.7238l 0.1078,-0.4004 l -2.9415,-7.4384 h 2.2793 l 1.0934,3.2803 c 0.1694,0.5236 0.3080,1.0626 0.3080 1.0626c 0.1386,0.5390 0.2926,1.1088 0.2926 1.1088h 0.0616 c 0.1232,-0.5390 0.2541,-1.0857 0.2541 -1.0857c 0.1309,-0.5467 0.2695,-1.0857 0.2695 -1.0857l 0.9240,-3.2803 h 2.1715 l -2.6489,7.7156 c -0.2772,0.7238 -0.5775,1.2705 -0.5775 1.2705c -0.3003,0.5467 -0.6930,0.9086 -0.6930 0.9086c -0.3927,0.3619 -0.8932,0.5467 -0.8932 0.5467c -0.5005,0.1848 -1.1781,0.1848 -1.1781 0.1848c -0.3542,-0.0000 -0.6006,-0.0385 -0.6006 -0.0385c -0.2464,-0.0385 -0.4774,-0.1155 -0.4774 -0.1155l 0.4004,-1.7248 h 0.0000 ZM 425.3568,14.1016 ZM 426.3578,6.4630 h 1.8480 l 0.1540,0.9856 h 0.0616 c 0.4774,-0.4774 1.0164,-0.8239 1.0164 -0.8239c 0.5390,-0.3465 1.2936,-0.3465 1.2936 -0.3465c 0.8162,0.0000 1.3167,0.3311 1.3167 0.3311c 0.5005,0.3311 0.7931,0.9471 0.7931 0.9471c 0.5082,-0.5236 1.0703,-0.9009 1.0703 -0.9009c 0.5621,-0.3773 1.3321,-0.3773 1.3321 -0.3773c 1.2320,0.0000 1.8095,0.8239 1.8095 0.8239c 0.5775,0.8239 0.5775,2.2562 0.5775 2.2562v 4.7433 h -2.2639 v -4.4507 c 0.0000,-0.8316 -0.2233,-1.1396 -0.2233 -1.1396c -0.2233,-0.3080 -0.7161,-0.3080 -0.7161 -0.3080c -0.5698,-0.0000 -1.3090,0.7392 -1.3090 0.7392v 5.1591 h -2.2639 v -4.4507 c 0.0000,-0.8316 -0.2233,-1.1396 -0.2233 -1.1396c -0.2233,-0.3080 -0.7161,-0.3080 -0.7161 -0.3080c -0.5852,-0.0000 -1.2936,0.7392 -1.2936 0.7392v 5.1591 h -2.2639 v -7.6386 ZM 438.5549,14.1016 ZM 439.1093,10.2823 c 0.0000,-0.9240 0.3080,-1.6709 0.3080 -1.6709c 0.3080,-0.7469 0.8085,-1.2628 0.8085 -1.2628c 0.5005,-0.5159 1.1473,-0.7931 1.1473 -0.7931c 0.6468,-0.2772 1.3398,-0.2772 1.3398 -0.2772c 0.8162,0.0000 1.4245,0.2772 1.4245 0.2772c 0.6083,0.2772 1.0164,0.7700 1.0164 0.7700c 0.4081,0.4928 0.6083,1.1627 0.6083 1.1627c 0.2002,0.6699 0.2002,1.4553 0.2002 1.4553c 0.0000,0.3080 -0.0308,0.5621 -0.0308 0.5621c -0.0308,0.2541 -0.0616,0.3927 -0.0616 0.3927h -4.5739 c 0.1540,0.8778 0.6853,1.2705 0.6853 1.2705c 0.5313,0.3927 1.3013,0.3927 1.3013 0.3927c 0.8162,0.0000 1.6478,-0.5082 1.6478 -0.5082l 0.7546,1.3706 c -0.5852,0.4004 -1.3013,0.6314 -1.3013 0.6314c -0.7161,0.2310 -1.4091,0.2310 -1.4091 0.2310c -0.8162,-0.0000 -1.5246,-0.2695 -1.5246 -0.2695c -0.7084,-0.2695 -1.2320,-0.7854 -1.2320 -0.7854c -0.5236,-0.5159 -0.8162,-1.2551 -0.8162 -1.2551c -0.2926,-0.7392 -0.2926,-1.6940 -0.2926 -1.6940ZM 439.1093,10.2823 ZM 444.0375,9.4969 c 0.0000,-0.6622 -0.2926,-1.0780 -0.2926 -1.0780c -0.2926,-0.4158 -0.9856,-0.4158 -0.9856 -0.4158c -0.5390,-0.0000 -0.9471,0.3619 -0.9471 0.3619c -0.4081,0.3619 -0.5313,1.1319 -0.5313 1.1319h 2.7567 ZM 446.5323,14.1016 ZM 447.5334,6.4630 h 1.8480 l 0.1540,0.9702 h 0.0616 c 0.4928,-0.4620 1.0780,-0.8085 1.0780 -0.8085c 0.5852,-0.3465 1.3706,-0.3465 1.3706 -0.3465c 1.2474,0.0000 1.8095,0.8162 1.8095 0.8162c 0.5621,0.8162 0.5621,2.2639 0.5621 2.2639v 4.7433 h -2.2639 v -4.4507 c 0.0000,-0.8316 -0.2233,-1.1396 -0.2233 -1.1396c -0.2233,-0.3080 -0.7161,-0.3080 -0.7161 -0.3080c -0.4312,-0.0000 -0.7392,0.1925 -0.7392 0.1925c -0.3080,0.1925 -0.6776,0.5467 -0.6776 0.5467v 5.1591 h -2.2639 v -7.6386 ZM 455.3414,14.1016 ZM 456.6504,8.2341 h -1.0472 v -1.6786 l 1.1704,-0.0924 l 0.2618,-2.0329 h 1.8789 v 2.0329 h 1.8326 v 1.7710 h -1.8326 v 3.0647 c 0.0000,0.6468 0.2695,0.9317 0.2695 0.9317c 0.2695,0.2849 0.7161,0.2849 0.7161 0.2849c 0.1848,0.0000 0.3773,-0.0462 0.3773 -0.0462c 0.1925,-0.0462 0.3465,-0.1078 0.3465 -0.1078l 0.3542,1.6478 c -0.3080,0.0924 -0.7238,0.1848 -0.7238 0.1848c -0.4158,0.0924 -0.9702,0.0924 -0.9702 0.0924c -0.7084,-0.0000 -1.2089,-0.2156 -1.2089 -0.2156c -0.5005,-0.2156 -0.8162,-0.6006 -0.8162 -0.6006c -0.3157,-0.3850 -0.4620,-0.9317 -0.4620 -0.9317c -0.1463,-0.5467 -0.1463,-1.2089 -0.1463 -1.2089v -3.0955 ZM 464.4430,14.1016 ZM 465.7829,11.8070 c 0.5236,0.4004 1.0010,0.6006 1.0010 0.6006c 0.4774,0.2002 0.9702,0.2002 0.9702 0.2002c 0.5082,0.0000 0.7392,-0.1694 0.7392 -0.1694c 0.2310,-0.1694 0.2310,-0.4774 0.2310 -0.4774c 0.0000,-0.1848 -0.1309,-0.3311 -0.1309 -0.3311c -0.1309,-0.1463 -0.3542,-0.2695 -0.3542 -0.2695c -0.2233,-0.1232 -0.5005,-0.2233 -0.5005 -0.2233c -0.2772,-0.1001 -0.5698,-0.2233 -0.5698 -0.2233c -0.3542,-0.1386 -0.7084,-0.3234 -0.7084 -0.3234c -0.3542,-0.1848 -0.6468,-0.4543 -0.6468 -0.4543c -0.2926,-0.2695 -0.4774,-0.6314 -0.4774 -0.6314c -0.1848,-0.3619 -0.1848,-0.8393 -0.1848 -0.8393c 0.0000,-0.5236 0.2079,-0.9702 0.2079 -0.9702c 0.2079,-0.4466 0.5929,-0.7546 0.5929 -0.7546c 0.3850,-0.3080 0.9240,-0.4851 0.9240 -0.4851c 0.5390,-0.1771 1.2012,-0.1771 1.2012 -0.1771c 0.8778,0.0000 1.5400,0.3003 1.5400 0.3003c 0.6622,0.3003 1.1550,0.6699 1.1550 0.6699l -1.0164,1.3552 c -0.4158,-0.3080 -0.8162,-0.4774 -0.8162 -0.4774c -0.4004,-0.1694 -0.8008,-0.1694 -0.8008 -0.1694c -0.8624,-0.0000 -0.8624,0.6006 -0.8624 0.6006c 0.0000,0.1848 0.1232,0.3157 0.1232 0.3157c 0.1232,0.1309 0.3311,0.2387 0.3311 0.2387c 0.2079,0.1078 0.4774,0.2079 0.4774 0.2079c 0.2695,0.1001 0.5621,0.2079 0.5621 0.2079c 0.3696,0.1386 0.7315,0.3157 0.7315 0.3157c 0.3619,0.1771 0.6622,0.4389 0.6622 0.4389c 0.3003,0.2618 0.4851,0.6391 0.4851 0.6391c 0.1848,0.3773 0.1848,0.9009 0.1848 0.9009c 0.0000,0.5236 -0.2002,0.9702 -0.2002 0.9702c -0.2002,0.4466 -0.6006,0.7777 -0.6006 0.7777c -0.4004,0.3311 -0.9856,0.5236 -0.9856 0.5236c -0.5852,0.1925 -1.3552,0.1925 -1.3552 0.1925c -0.7546,-0.0000 -1.5477,-0.2926 -1.5477 -0.2926c -0.7931,-0.2926 -1.3783,-0.7700 -1.3783 -0.7700ZM 471.2654,14.1016 ZM 472.5744,8.2341 h -1.0472 v -1.6786 l 1.1704,-0.0924 l 0.2618,-2.0329 h 1.8789 v 2.0329 h 1.8326 v 1.7710 h -1.8326 v 3.0647 c 0.0000,0.6468 0.2695,0.9317 0.2695 0.9317c 0.2695,0.2849 0.7161,0.2849 0.7161 0.2849c 0.1848,0.0000 0.3773,-0.0462 0.3773 -0.0462c 0.1925,-0.0462 0.3465,-0.1078 0.3465 -0.1078l 0.3542,1.6478 c -0.3080,0.0924 -0.7238,0.1848 -0.7238 0.1848c -0.4158,0.0924 -0.9702,0.0924 -0.9702 0.0924c -0.7084,-0.0000 -1.2089,-0.2156 -1.2089 -0.2156c -0.5005,-0.2156 -0.8162,-0.6006 -0.8162 -0.6006c -0.3157,-0.3850 -0.4620,-0.9317 -0.4620 -0.9317c -0.1463,-0.5467 -0.1463,-1.2089 -0.1463 -1.2089v -3.0955 ZM 476.9790,14.1016 ZM 477.7028,11.9764 c 0.0000,-1.2012 1.0164,-1.8789 1.0164 -1.8789c 1.0164,-0.6776 3.2803,-0.9086 3.2803 -0.9086c -0.0308,-0.5082 -0.3080,-0.8085 -0.3080 -0.8085c -0.2772,-0.3003 -0.8932,-0.3003 -0.8932 -0.3003c -0.4928,-0.0000 -0.9856,0.1848 -0.9856 0.1848c -0.4928,0.1848 -1.0472,0.5082 -1.0472 0.5082l -0.8008,-1.4938 c 0.7392,-0.4466 1.5477,-0.7238 1.5477 -0.7238c 0.8085,-0.2772 1.7171,-0.2772 1.7171 -0.2772c 1.4784,0.0000 2.2562,0.8393 2.2562 0.8393c 0.7777,0.8393 0.7777,2.6104 0.7777 2.6104v 4.3737 h -1.8480 l -0.1694,-0.7854 h -0.0462 c -0.4928,0.4312 -1.0395,0.7007 -1.0395 0.7007c -0.5467,0.2695 -1.1935,0.2695 -1.1935 0.2695c -0.5236,-0.0000 -0.9394,-0.1771 -0.9394 -0.1771c -0.4158,-0.1771 -0.7084,-0.4928 -0.7084 -0.4928c -0.2926,-0.3157 -0.4543,-0.7315 -0.4543 -0.7315c -0.1617,-0.4158 -0.1617,-0.9086 -0.1617 -0.9086ZM 477.7028,11.9764 ZM 479.8588,11.8070 c 0.0000,0.3696 0.2387,0.5467 0.2387 0.5467c 0.2387,0.1771 0.6391,0.1771 0.6391 0.1771c 0.4004,0.0000 0.6776,-0.1694 0.6776 -0.1694c 0.2772,-0.1694 0.5852,-0.4774 0.5852 -0.4774v -1.3398 c -1.2166,0.1694 -1.6786,0.4928 -1.6786 0.4928c -0.4620,0.3234 -0.4620,0.7700 -0.4620 0.7700ZM 485.2028,14.1016 ZM 486.5118,8.2341 h -1.0472 v -1.6786 l 1.1704,-0.0924 l 0.2618,-2.0329 h 1.8789 v 2.0329 h 1.8326 v 1.7710 h -1.8326 v 3.0647 c 0.0000,0.6468 0.2695,0.9317 0.2695 0.9317c 0.2695,0.2849 0.7161,0.2849 0.7161 0.2849c 0.1848,0.0000 0.3773,-0.0462 0.3773 -0.0462c 0.1925,-0.0462 0.3465,-0.1078 0.3465 -0.1078l 0.3542,1.6478 c -0.3080,0.0924 -0.7238,0.1848 -0.7238 0.1848c -0.4158,0.0924 -0.9702,0.0924 -0.9702 0.0924c -0.7084,-0.0000 -1.2089,-0.2156 -1.2089 -0.2156c -0.5005,-0.2156 -0.8162,-0.6006 -0.8162 -0.6006c -0.3157,-0.3850 -0.4620,-0.9317 -0.4620 -0.9317c -0.1463,-0.5467 -0.1463,-1.2089 -0.1463 -1.2089v -3.0955 ZM 491.1011,14.1016 ZM 492.0252,6.4630 h 2.2639 v 4.4507 c 0.0000,0.8316 0.2310,1.1396 0.2310 1.1396c 0.2310,0.3080 0.7238,0.3080 0.7238 0.3080c 0.4312,0.0000 0.7238,-0.2002 0.7238 -0.2002c 0.2926,-0.2002 0.6314,-0.6468 0.6314 -0.6468v -5.0513 h 2.2639 v 7.6386 h -1.8480 l -0.1694,-1.0626 h -0.0462 c -0.4928,0.5852 -1.0549,0.9163 -1.0549 0.9163c -0.5621,0.3311 -1.3475,0.3311 -1.3475 0.3311c -1.2474,-0.0000 -1.8095,-0.8162 -1.8095 -0.8162c -0.5621,-0.8162 -0.5621,-2.2639 -0.5621 -2.2639v -4.7433 ZM 499.8486,14.1016 ZM 501.1884,11.8070 c 0.5236,0.4004 1.0010,0.6006 1.0010 0.6006c 0.4774,0.2002 0.9702,0.2002 0.9702 0.2002c 0.5082,0.0000 0.7392,-0.1694 0.7392 -0.1694c 0.2310,-0.1694 0.2310,-0.4774 0.2310 -0.4774c 0.0000,-0.1848 -0.1309,-0.3311 -0.1309 -0.3311c -0.1309,-0.1463 -0.3542,-0.2695 -0.3542 -0.2695c -0.2233,-0.1232 -0.5005,-0.2233 -0.5005 -0.2233c -0.2772,-0.1001 -0.5698,-0.2233 -0.5698 -0.2233c -0.3542,-0.1386 -0.7084,-0.3234 -0.7084 -0.3234c -0.3542,-0.1848 -0.6468,-0.4543 -0.6468 -0.4543c -0.2926,-0.2695 -0.4774,-0.6314 -0.4774 -0.6314c -0.1848,-0.3619 -0.1848,-0.8393 -0.1848 -0.8393c 0.0000,-0.5236 0.2079,-0.9702 0.2079 -0.9702c 0.2079,-0.4466 0.5929,-0.7546 0.5929 -0.7546c 0.3850,-0.3080 0.9240,-0.4851 0.9240 -0.4851c 0.5390,-0.1771 1.2012,-0.1771 1.2012 -0.1771c 0.8778,0.0000 1.5400,0.3003 1.5400 0.3003c 0.6622,0.3003 1.1550,0.6699 1.1550 0.6699l -1.0164,1.3552 c -0.4158,-0.3080 -0.8162,-0.4774 -0.8162 -0.4774c -0.4004,-0.1694 -0.8008,-0.1694 -0.8008 -0.1694c -0.8624,-0.0000 -0.8624,0.6006 -0.8624 0.6006c 0.0000,0.1848 0.1232,0.3157 0.1232 0.3157c 0.1232,0.1309 0.3311,0.2387 0.3311 0.2387c 0.2079,0.1078 0.4774,0.2079 0.4774 0.2079c 0.2695,0.1001 0.5621,0.2079 0.5621 0.2079c 0.3696,0.1386 0.7315,0.3157 0.7315 0.3157c 0.3619,0.1771 0.6622,0.4389 0.6622 0.4389c 0.3003,0.2618 0.4851,0.6391 0.4851 0.6391c 0.1848,0.3773 0.1848,0.9009 0.1848 0.9009c 0.0000,0.5236 -0.2002,0.9702 -0.2002 0.9702c -0.2002,0.4466 -0.6006,0.7777 -0.6006 0.7777c -0.4004,0.3311 -0.9856,0.5236 -0.9856 0.5236c -0.5852,0.1925 -1.3552,0.1925 -1.3552 0.1925c -0.7546,-0.0000 -1.5477,-0.2926 -1.5477 -0.2926c -0.7931,-0.2926 -1.3783,-0.7700 -1.3783 -0.7700ZM 506.6709,14.1016 ZM 509.0426,10.5441 c -0.0770,-0.5236 0.0385,-0.9548 0.0385 -0.9548c 0.1155,-0.4312 0.3311,-0.8008 0.3311 -0.8008c 0.2156,-0.3696 0.4851,-0.6776 0.4851 -0.6776c 0.2695,-0.3080 0.5159,-0.5929 0.5159 -0.5929c 0.2464,-0.2849 0.4081,-0.5544 0.4081 -0.5544c 0.1617,-0.2695 0.1617,-0.5621 0.1617 -0.5621c 0.0000,-0.4774 -0.2849,-0.7238 -0.2849 -0.7238c -0.2849,-0.2464 -0.7469,-0.2464 -0.7469 -0.2464c -0.4312,-0.0000 -0.7623,0.2002 -0.7623 0.2002c -0.3311,0.2002 -0.6391,0.5082 -0.6391 0.5082l -1.2474,-1.1396 c 0.5236,-0.6314 1.2320,-1.0164 1.2320 -1.0164c 0.7084,-0.3850 1.5708,-0.3850 1.5708 -0.3850c 0.6468,0.0000 1.2089,0.1540 1.2089 0.1540c 0.5621,0.1540 0.9702,0.4774 0.9702 0.4774c 0.4081,0.3234 0.6391,0.8239 0.6391 0.8239c 0.2310,0.5005 0.2310,1.1781 0.2310 1.1781c 0.0000,0.4774 -0.1694,0.8547 -0.1694 0.8547c -0.1694,0.3773 -0.4235,0.7007 -0.4235 0.7007c -0.2541,0.3234 -0.5390,0.6237 -0.5390 0.6237c -0.2849,0.3003 -0.5236,0.6237 -0.5236 0.6237c -0.2387,0.3234 -0.3773,0.6853 -0.3773 0.6853c -0.1386,0.3619 -0.0924,0.8239 -0.0924 0.8239h -1.9867 ZM 509.0426,10.5441 ZM 508.6730,12.8696 c 0.0000,-0.6160 0.3850,-1.0241 0.3850 -1.0241c 0.3850,-0.4081 0.9702,-0.4081 0.9702 -0.4081c 0.5852,0.0000 0.9779,0.4081 0.9779 0.4081c 0.3927,0.4081 0.3927,1.0241 0.3927 1.0241c 0.0000,0.6006 -0.3927,1.0087 -0.3927 1.0087c -0.3927,0.4081 -0.9779,0.4081 -0.9779 0.4081c -0.5852,-0.0000 -0.9702,-0.4081 -0.9702 -0.4081c -0.3850,-0.4081 -0.3850,-1.0087 -0.3850 -1.0087Z"/></g><g stroke-linejoin="miter" stroke-opacity="1.0" fill-opacity="0.0" stroke="rgb(211,211,211)" stroke-width="0.9999999999999997" fill="rgb(0,0,0)" stroke-dashoffset="0.0" stroke-linecap="butt" stroke-miterlimit="10.0" stroke-dasharray="4.999999999999998,4.999999999999998"><path d="M 39.5903,570.0000 h 735.4254 "/></g><g stroke-linejoin="miter" stroke-opacity="1.0" fill-opacity="0.0" stroke="rgb(211,211,211)" stroke-width="0.9999999999999997" fill="rgb(0,0,0)" stroke-dashoffset="0.0" stroke-linecap="butt" stroke-miterlimit="10.0" stroke-dasharray="4.999999999999998,4.999999999999998"><path d="M 39.5903,436.2500 h 735.4254 "/></g><g stroke-linejoin="miter" stroke-opacity="1.0" fill-opacity="0.0" stroke="rgb(211,211,211)" stroke-width="0.9999999999999997" fill="rgb(0,0,0)" stroke-dashoffset="0.0" stroke-linecap="butt" stroke-miterlimit="10.0" stroke-dasharray="4.999999999999998,4.999999999999998"><path d="M 39.5903,302.5000 h 735.4254 "/></g><g stroke-linejoin="miter" stroke-opacity="1.0" fill-opacity="0.0" stroke="rgb(211,211,211)" stroke-width="0.9999999999999997" fill="rgb(0,0,0)" stroke-dashoffset="0.0" stroke-linecap="butt" stroke-miterlimit="10.0" stroke-dasharray="4.999999999999998,4.999999999999998"><path d="M 39.5903,168.7500 h 735.4254 "/></g><g stroke-linejoin="miter" stroke-opacity="1.0" fill-opacity="0.0" stroke="rgb(211,211,211)" stroke-width="0.9999999999999997" fill="rgb(0,0,0)" stroke-dashoffset="0.0" stroke-linecap="butt" stroke-miterlimit="10.0" stroke-dasharray="4.999999999999998,4.999999999999998"><path d="M 39.5903,35.0000 h 735.4254 "/></g><g stroke-linejoin="bevel" stroke-opacity="0.0" fill-opacity="1.0" stroke="rgb(0,0,0)" stroke-width="0.0" fill="rgb(92,53,102)" stroke-linecap="butt" stroke-miterlimit="10.0"><defs><clipPath id="myClip1"><path d="M 39.5903,35.0000 v 535.0000 h 735.4254 v -535.0000 Z"/></clipPath></defs><g clip-path="url(#myClip1)"><path d="M 54.5903,570.0000 v -468.6600 h 92.5709 v 468.6600 Z"/></g></g><g stroke-linejoin="miter" stroke-opacity="1.0" fill-opacity="0.0" stroke="rgb(0,0,0)" stroke-width="0.9999999999999997" fill="rgb(0,0,0)" stroke-linecap="butt" stroke-miterlimit="10.0"><defs><clipPath id="myClip2"><path d="M 39.5903,35.0000 v 535.0000 h 735.4254 v -535.0000 Z"/></clipPath></defs><g clip-path="url(#myClip2)"><path d="M 54.5903,570.0000 v -468.6600 h 92.5709 v 468.6600 Z"/></g></g><g stroke-linejoin="bevel" stroke-opacity="0.0" fill-opacity="1.0" stroke="rgb(0,0,0)" stroke-width="0.0" fill="rgb(92,53,102)" stroke-linecap="butt" stroke-miterlimit="10.0"><defs><clipPath id="myClip3"><path d="M 39.5903,35.0000 v 535.0000 h 735.4254 v -535.0000 Z"/></clipPath></defs><g clip-path="url(#myClip3)"><path d="M 177.1612,570.0000 v -47.0800 h 92.5709 v 47.0800 Z"/></g></g><g stroke-linejoin="miter" stroke-opacity="1.0" fill-opacity="0.0" stroke="rgb(0,0,0)" stroke-width="0.9999999999999997" fill="rgb(0,0,0)" stroke-linecap="butt" stroke-miterlimit="10.0"><defs><clipPath id="myClip4"><path d="M 39.5903,35.0000 v 535.0000 h 735.4254 v -535.0000 Z"/></clipPath></defs><g clip-path="url(#myClip4)"><path d="M 177.1612,570.0000 v -47.0800 h 92.5709 v 47.0800 Z"/></g></g><g stroke-linejoin="bevel" stroke-opacity="0.0" fill-opacity="1.0" stroke="rgb(0,0,0)" stroke-width="0.0" fill="rgb(92,53,102)" stroke-linecap="butt" stroke-miterlimit="10.0"><defs><clipPath id="myClip5"><path d="M 39.5903,35.0000 v 535.0000 h 735.4254 v -535.0000 Z"/></clipPath></defs><g clip-path="url(#myClip5)"><path d="M 299.7321,570.0000 v -65.8050 h 92.5709 v 65.8050 Z"/></g></g><g stroke-linejoin="miter" stroke-opacity="1.0" fill-opacity="0.0" stroke="rgb(0,0,0)" stroke-width="0.9999999999999997" fill="rgb(0,0,0)" stroke-linecap="butt" stroke-miterlimit="10.0"><defs><clipPath id="myClip6"><path d="M 39.5903,35.0000 v 535.0000 h 735.4254 v -535.0000 Z"/></clipPath></defs><g clip-path="url(#myClip6)"><path d="M 299.7321,570.0000 v -65.8050 h 92.5709 v 65.8050 Z"/></g></g><g stroke-linejoin="bevel" stroke-opacity="0.0" fill-opacity="1.0" stroke="rgb(0,0,0)" stroke-width="0.0" fill="rgb(92,53,102)" stroke-linecap="butt" stroke-miterlimit="10.0"><defs><clipPath id="myClip7"><path d="M 39.5903,35.0000 v 535.0000 h 735.4254 v -535.0000 Z"/></clipPath></defs><g clip-path="url(#myClip7)"><path d="M 422.3030,570.0000 v -35.8450 h 92.5709 v 35.8450 Z"/></g></g><g stroke-linejoin="miter" stroke-opacity="1.0" fill-opacity="0.0" stroke="rgb(0,0,0)" stroke-width="0.9999999999999997" fill="rgb(0,0,0)" stroke-linecap="butt" stroke-miterlimit="10.0"><defs><clipPath id="myClip8"><path d="M 39.5903,35.0000 v 535.0000 h 735.4254 v -535.0000 Z"/></clipPath></defs><g clip-path="url(#myClip8)"><path d="M 422.3030,570.0000 v -35.8450 h 92.5709 v 35.8450 Z"/></g></g><g stroke-linejoin="bevel" stroke-opacity="0.0" fill-opacity="1.0" stroke="rgb(0,0,0)" stroke-width="0.0" fill="rgb(92,53,102)" stroke-linecap="butt" stroke-miterlimit="10.0"><defs><clipPath id="myClip9"><path d="M 39.5903,35.0000 v 535.0000 h 735.4254 v -535.0000 Z"/></clipPath></defs><g clip-path="url(#myClip9)"><path d="M 544.8739,570.0000 v -27.8200 h 92.5709 v 27.8200 Z"/></g></g><g stroke-linejoin="miter" stroke-opacity="1.0" fill-opacity="0.0" stroke="rgb(0,0,0)" stroke-width="0.9999999999999997" fill="rgb(0,0,0)" stroke-linecap="butt" stroke-miterlimit="10.0"><defs><clipPath id="myClip10"><path d="M 39.5903,35.0000 v 535.0000 h 735.4254 v -535.0000 Z"/></clipPath></defs><g clip-path="url(#myClip10)"><path d="M 544.8739,570.0000 v -27.8200 h 92.5709 v 27.8200 Z"/></g></g><g stroke-linejoin="bevel" stroke-opacity="0.0" fill-opacity="1.0" stroke="rgb(0,0,0)" stroke-width="0.0" fill="rgb(92,53,102)" stroke-linecap="butt" stroke-miterlimit="10.0"><defs><clipPath id="myClip11"><path d="M 39.5903,35.0000 v 535.0000 h 735.4254 v -535.0000 Z"/></clipPath></defs><g clip-path="url(#myClip11)"><path d="M 667.4449,570.0000 v -2.1400 h 92.5709 v 2.1400 Z"/></g></g><g stroke-linejoin="miter" stroke-opacity="1.0" fill-opacity="0.0" stroke="rgb(0,0,0)" stroke-width="0.9999999999999997" fill="rgb(0,0,0)" stroke-linecap="butt" stroke-miterlimit="10.0"><defs><clipPath id="myClip12"><path d="M 39.5903,35.0000 v 535.0000 h 735.4254 v -535.0000 Z"/></clipPath></defs><g clip-path="url(#myClip12)"><path d="M 667.4449,570.0000 v -2.1400 h 92.5709 v 2.1400 Z"/></g></g><g stroke-linejoin="miter" stroke-opacity="1.0" fill-opacity="0.0" stroke="rgb(0,0,0)" stroke-width="0.9999999999999997" fill="rgb(0,0,0)" stroke-linecap="square" stroke-miterlimit="10.0"><path d="M 39.5903,570.0000 v -535.0000 "/></g><g stroke-linejoin="miter" stroke-opacity="1.0" fill-opacity="0.0" stroke="rgb(0,0,0)" stroke-width="0.9999999999999997" fill="rgb(0,0,0)" stroke-linecap="butt" stroke-miterlimit="10.0"><path d="M 39.5903,570.0000 h 2.0000 "/></g><g stroke-linejoin="miter" stroke-opacity="1.0" fill-opacity="0.0" stroke="rgb(0,0,0)" stroke-width="0.9999999999999997" fill="rgb(0,0,0)" stroke-linecap="butt" stroke-miterlimit="10.0"><path d="M 39.5903,516.5000 h 2.0000 "/></g><g stroke-linejoin="miter" stroke-opacity="1.0" fill-opacity="0.0" stroke="rgb(0,0,0)" stroke-width="0.9999999999999997" fill="rgb(0,0,0)" stroke-linecap="butt" stroke-miterlimit="10.0"><path d="M 39.5903,463.0000 h 2.0000 "/></g><g stroke-linejoin="miter" stroke-opacity="1.0" fill-opacity="0.0" stroke="rgb(0,0,0)" stroke-width="0.9999999999999997" fill="rgb(0,0,0)" stroke-linecap="butt" stroke-miterlimit="10.0"><path d="M 39.5903,409.5000 h 2.0000 "/></g><g stroke-linejoin="miter" stroke-opacity="1.0" fill-opacity="0.0" stroke="rgb(0,0,0)" stroke-width="0.9999999999999997" fill="rgb(0,0,0)" stroke-linecap="butt" stroke-miterlimit="10.0"><path d="M 39.5903,356.0000 h 2.0000 "/></g><g stroke-linejoin="miter" stroke-opacity="1.0" fill-opacity="0.0" stroke="rgb(0,0,0)" stroke-width="0.9999999999999997" fill="rgb(0,0,0)" stroke-linecap="butt" stroke-miterlimit="10.0"><path d="M 39.5903,302.5000 h 2.0000 "/></g><g stroke-linejoin="miter" stroke-opacity="1.0" fill-opacity="0.0" stroke="rgb(0,0,0)" stroke-width="0.9999999999999997" fill="rgb(0,0,0)" stroke-linecap="butt" stroke-miterlimit="10.0"><path d="M 39.5903,249.0000 h 2.0000 "/></g><g stroke-linejoin="miter" stroke-opacity="1.0" fill-opacity="0.0" stroke="rgb(0,0,0)" stroke-width="0.9999999999999997" fill="rgb(0,0,0)" stroke-linecap="butt" stroke-miterlimit="10.0"><path d="M 39.5903,195.5000 h 2.0000 "/></g><g stroke-linejoin="miter" stroke-opacity="1.0" fill-opacity="0.0" stroke="rgb(0,0,0)" stroke-width="0.9999999999999997" fill="rgb(0,0,0)" stroke-linecap="butt" stroke-miterlimit="10.0"><path d="M 39.5903,142.0000 h 2.0000 "/></g><g stroke-linejoin="miter" stroke-opacity="1.0" fill-opacity="0.0" stroke="rgb(0,0,0)" stroke-width="0.9999999999999997" fill="rgb(0,0,0)" stroke-linecap="butt" stroke-miterlimit="10.0"><path d="M 39.5903,88.5000 h 2.0000 "/></g><g stroke-linejoin="miter" stroke-opacity="1.0" fill-opacity="0.0" stroke="rgb(0,0,0)" stroke-width="0.9999999999999997" fill="rgb(0,0,0)" stroke-linecap="butt" stroke-miterlimit="10.0"><path d="M 39.5903,35.0000 h 2.0000 "/></g><g stroke-linejoin="miter" stroke-opacity="1.0" fill-opacity="0.0" stroke="rgb(0,0,0)" stroke-width="0.9999999999999997" fill="rgb(0,0,0)" stroke-linecap="butt" stroke-miterlimit="10.0"><path d="M 39.5903,570.0000 h 5.0000 "/></g><g stroke-linejoin="miter" stroke-opacity="1.0" fill-opacity="0.0" stroke="rgb(0,0,0)" stroke-width="0.9999999999999997" fill="rgb(0,0,0)" stroke-linecap="butt" stroke-miterlimit="10.0"><path d="M 39.5903,436.2500 h 5.0000 "/></g><g stroke-linejoin="miter" stroke-opacity="1.0" fill-opacity="0.0" stroke="rgb(0,0,0)" stroke-width="0.9999999999999997" fill="rgb(0,0,0)" stroke-linecap="butt" stroke-miterlimit="10.0"><path d="M 39.5903,302.5000 h 5.0000 "/></g><g stroke-linejoin="miter" stroke-opacity="1.0" fill-opacity="0.0" stroke="rgb(0,0,0)" stroke-width="0.9999999999999997" fill="rgb(0,0,0)" stroke-linecap="butt" stroke-miterlimit="10.0"><path d="M 39.5903,168.7500 h 5.0000 "/></g><g stroke-linejoin="miter" stroke-opacity="1.0" fill-opacity="0.0" stroke="rgb(0,0,0)" stroke-width="0.9999999999999997" fill="rgb(0,0,0)" stroke-linecap="butt" stroke-miterlimit="10.0"><path d="M 39.5903,35.0000 h 5.0000 "/></g><g stroke-linejoin="bevel" stroke-opacity="0.0" fill-opacity="1.0" stroke="rgb(0,0,0)" stroke-width="0.0" fill="rgb(0,0,0)" stroke-linecap="butt" stroke-miterlimit="10.0"><path d="M 25.2941,573.4454 ZM 27.9097,573.5714 c -1.0189,-0.0000 -1.5861,-0.9034 -1.5861 -0.9034c -0.5672,-0.9034 -0.5672,-2.5945 -0.5672 -2.5945c 0.0000,-1.6912 0.5672,-2.5735 0.5672 -2.5735c 0.5672,-0.8824 1.5861,-0.8824 1.5861 -0.8824c 1.0084,0.0000 1.5756,0.8824 1.5756 0.8824c 0.5672,0.8824 0.5672,2.5735 0.5672 2.5735c 0.0000,1.6912 -0.5672,2.5945 -0.5672 2.5945c -0.5672,0.9034 -1.5756,0.9034 -1.5756 0.9034ZM 27.9097,573.5714 ZM 27.9097,572.8782 c 0.2941,0.0000 0.5305,-0.1628 0.5305 -0.1628c 0.2363,-0.1628 0.4097,-0.5042 0.4097 -0.5042c 0.1733,-0.3414 0.2679,-0.8718 0.2679 -0.8718c 0.0945,-0.5305 0.0945,-1.2658 0.0945 -1.2658c 0.0000,-0.7353 -0.0945,-1.2605 -0.0945 -1.2605c -0.0945,-0.5252 -0.2679,-0.8561 -0.2679 -0.8561c -0.1733,-0.3309 -0.4097,-0.4884 -0.4097 -0.4884c -0.2363,-0.1576 -0.5305,-0.1576 -0.5305 -0.1576c -0.2941,-0.0000 -0.5357,0.1576 -0.5357 0.1576c -0.2416,0.1576 -0.4149,0.4884 -0.4149 0.4884c -0.1733,0.3309 -0.2679,0.8561 -0.2679 0.8561c -0.0945,0.5252 -0.0945,1.2605 -0.0945 1.2605c 0.0000,1.4706 0.3624,2.1376 0.3624 2.1376c 0.3624,0.6670 0.9506,0.6670 0.9506 0.6670Z"/></g><g stroke-linejoin="bevel" stroke-opacity="0.0" fill-opacity="1.0" stroke="rgb(0,0,0)" stroke-width="0.0" fill="rgb(0,0,0)" stroke-linecap="butt" stroke-miterlimit="10.0"><path d="M 14.7689,439.6954 ZM 15.1891,439.1807 c 0.7563,-0.7563 1.3445,-1.3655 1.3445 -1.3655c 0.5882,-0.6092 0.9874,-1.1292 0.9874 -1.1292c 0.3992,-0.5200 0.6092,-0.9559 0.6092 -0.9559c 0.2101,-0.4359 0.2101,-0.8456 0.2101 -0.8456c 0.0000,-0.5777 -0.3151,-0.9454 -0.3151 -0.9454c -0.3151,-0.3676 -0.9559,-0.3676 -0.9559 -0.3676c -0.4202,-0.0000 -0.7773,0.2363 -0.7773 0.2363c -0.3571,0.2363 -0.6513,0.5725 -0.6513 0.5725l -0.4937,-0.4937 c 0.4202,-0.4622 0.8929,-0.7405 0.8929 -0.7405c 0.4727,-0.2784 1.1345,-0.2784 1.1345 -0.2784c 0.9349,0.0000 1.4706,0.5410 1.4706 0.5410c 0.5357,0.5410 0.5357,1.4338 0.5357 1.4338c 0.0000,0.4727 -0.2048,0.9506 -0.2048 0.9506c -0.2048,0.4779 -0.5672,0.9874 -0.5672 0.9874c -0.3624,0.5095 -0.8613,1.0609 -0.8613 1.0609c -0.4989,0.5515 -1.0977,1.1712 -1.0977 1.1712c 0.2731,-0.0210 0.5672,-0.0420 0.5672 -0.0420c 0.2941,-0.0210 0.5567,-0.0210 0.5567 -0.0210h 1.9433 v 0.7458 h -4.3277 v -0.5147 ZM 19.9895,439.6954 ZM 20.6723,438.3403 c 0.2941,0.3046 0.6985,0.5357 0.6985 0.5357c 0.4044,0.2311 0.9926,0.2311 0.9926 0.2311c 0.3046,0.0000 0.5725,-0.1103 0.5725 -0.1103c 0.2679,-0.1103 0.4674,-0.3099 0.4674 -0.3099c 0.1996,-0.1996 0.3151,-0.4832 0.3151 -0.4832c 0.1155,-0.2836 0.1155,-0.6303 0.1155 -0.6303c 0.0000,-0.6933 -0.3887,-1.0819 -0.3887 -1.0819c -0.3887,-0.3887 -1.0399,-0.3887 -1.0399 -0.3887c -0.3466,-0.0000 -0.5935,0.1050 -0.5935 0.1050c -0.2468,0.1050 -0.5515,0.3046 -0.5515 0.3046l -0.4622,-0.2941 l 0.2206,-3.2248 h 3.3508 v 0.7458 h -2.5945 l -0.1786,1.9853 c 0.2416,-0.1261 0.4832,-0.1996 0.4832 -0.1996c 0.2416,-0.0735 0.5462,-0.0735 0.5462 -0.0735c 0.4307,0.0000 0.8088,0.1261 0.8088 0.1261c 0.3782,0.1261 0.6618,0.3834 0.6618 0.3834c 0.2836,0.2574 0.4464,0.6513 0.4464 0.6513c 0.1628,0.3939 0.1628,0.9401 0.1628 0.9401c 0.0000,0.5462 -0.1891,0.9664 -0.1891 0.9664c -0.1891,0.4202 -0.5042,0.7090 -0.5042 0.7090c -0.3151,0.2889 -0.7195,0.4412 -0.7195 0.4412c -0.4044,0.1523 -0.8456,0.1523 -0.8456 0.1523c -0.3992,-0.0000 -0.7300,-0.0788 -0.7300 -0.0788c -0.3309,-0.0788 -0.5987,-0.2048 -0.5987 -0.2048c -0.2679,-0.1261 -0.4832,-0.2889 -0.4832 -0.2889c -0.2153,-0.1628 -0.3834,-0.3414 -0.3834 -0.3414ZM 25.2101,439.6954 ZM 27.8256,439.8214 c -1.0189,-0.0000 -1.5861,-0.9034 -1.5861 -0.9034c -0.5672,-0.9034 -0.5672,-2.5945 -0.5672 -2.5945c 0.0000,-1.6912 0.5672,-2.5735 0.5672 -2.5735c 0.5672,-0.8824 1.5861,-0.8824 1.5861 -0.8824c 1.0084,0.0000 1.5756,0.8824 1.5756 0.8824c 0.5672,0.8824 0.5672,2.5735 0.5672 2.5735c 0.0000,1.6912 -0.5672,2.5945 -0.5672 2.5945c -0.5672,0.9034 -1.5756,0.9034 -1.5756 0.9034ZM 27.8256,439.8214 ZM 27.8256,439.1282 c 0.2941,0.0000 0.5305,-0.1628 0.5305 -0.1628c 0.2363,-0.1628 0.4097,-0.5042 0.4097 -0.5042c 0.1733,-0.3414 0.2679,-0.8718 0.2679 -0.8718c 0.0945,-0.5305 0.0945,-1.2658 0.0945 -1.2658c 0.0000,-0.7353 -0.0945,-1.2605 -0.0945 -1.2605c -0.0945,-0.5252 -0.2679,-0.8561 -0.2679 -0.8561c -0.1733,-0.3309 -0.4097,-0.4884 -0.4097 -0.4884c -0.2363,-0.1576 -0.5305,-0.1576 -0.5305 -0.1576c -0.2941,-0.0000 -0.5357,0.1576 -0.5357 0.1576c -0.2416,0.1576 -0.4149,0.4884 -0.4149 0.4884c -0.1733,0.3309 -0.2679,0.8561 -0.2679 0.8561c -0.0945,0.5252 -0.0945,1.2605 -0.0945 1.2605c 0.0000,1.4706 0.3624,2.1376 0.3624 2.1376c 0.3624,0.6670 0.9506,0.6670 0.9506 0.6670Z"/></g><g stroke-linejoin="bevel" stroke-opacity="0.0" fill-opacity="1.0" stroke="rgb(0,0,0)" stroke-width="0.0" fill="rgb(0,0,0)" stroke-linecap="butt" stroke-miterlimit="10.0"><path d="M 14.6534,305.9454 ZM 15.3361,304.5903 c 0.2941,0.3046 0.6985,0.5357 0.6985 0.5357c 0.4044,0.2311 0.9926,0.2311 0.9926 0.2311c 0.3046,0.0000 0.5725,-0.1103 0.5725 -0.1103c 0.2679,-0.1103 0.4674,-0.3099 0.4674 -0.3099c 0.1996,-0.1996 0.3151,-0.4832 0.3151 -0.4832c 0.1155,-0.2836 0.1155,-0.6303 0.1155 -0.6303c 0.0000,-0.6933 -0.3887,-1.0819 -0.3887 -1.0819c -0.3887,-0.3887 -1.0399,-0.3887 -1.0399 -0.3887c -0.3466,-0.0000 -0.5935,0.1050 -0.5935 0.1050c -0.2468,0.1050 -0.5515,0.3046 -0.5515 0.3046l -0.4622,-0.2941 l 0.2206,-3.2248 h 3.3508 v 0.7458 h -2.5945 l -0.1786,1.9853 c 0.2416,-0.1261 0.4832,-0.1996 0.4832 -0.1996c 0.2416,-0.0735 0.5462,-0.0735 0.5462 -0.0735c 0.4307,0.0000 0.8088,0.1261 0.8088 0.1261c 0.3782,0.1261 0.6618,0.3834 0.6618 0.3834c 0.2836,0.2574 0.4464,0.6513 0.4464 0.6513c 0.1628,0.3939 0.1628,0.9401 0.1628 0.9401c 0.0000,0.5462 -0.1891,0.9664 -0.1891 0.9664c -0.1891,0.4202 -0.5042,0.7090 -0.5042 0.7090c -0.3151,0.2889 -0.7195,0.4412 -0.7195 0.4412c -0.4044,0.1523 -0.8456,0.1523 -0.8456 0.1523c -0.3992,-0.0000 -0.7300,-0.0788 -0.7300 -0.0788c -0.3309,-0.0788 -0.5987,-0.2048 -0.5987 -0.2048c -0.2679,-0.1261 -0.4832,-0.2889 -0.4832 -0.2889c -0.2153,-0.1628 -0.3834,-0.3414 -0.3834 -0.3414ZM 19.8739,305.9454 ZM 22.4895,306.0714 c -1.0189,-0.0000 -1.5861,-0.9034 -1.5861 -0.9034c -0.5672,-0.9034 -0.5672,-2.5945 -0.5672 -2.5945c 0.0000,-1.6912 0.5672,-2.5735 0.5672 -2.5735c 0.5672,-0.8824 1.5861,-0.8824 1.5861 -0.8824c 1.0084,0.0000 1.5756,0.8824 1.5756 0.8824c 0.5672,0.8824 0.5672,2.5735 0.5672 2.5735c 0.0000,1.6912 -0.5672,2.5945 -0.5672 2.5945c -0.5672,0.9034 -1.5756,0.9034 -1.5756 0.9034ZM 22.4895,306.0714 ZM 22.4895,305.3782 c 0.2941,0.0000 0.5305,-0.1628 0.5305 -0.1628c 0.2363,-0.1628 0.4097,-0.5042 0.4097 -0.5042c 0.1733,-0.3414 0.2679,-0.8718 0.2679 -0.8718c 0.0945,-0.5305 0.0945,-1.2658 0.0945 -1.2658c 0.0000,-0.7353 -0.0945,-1.2605 -0.0945 -1.2605c -0.0945,-0.5252 -0.2679,-0.8561 -0.2679 -0.8561c -0.1733,-0.3309 -0.4097,-0.4884 -0.4097 -0.4884c -0.2363,-0.1576 -0.5305,-0.1576 -0.5305 -0.1576c -0.2941,-0.0000 -0.5357,0.1576 -0.5357 0.1576c -0.2416,0.1576 -0.4149,0.4884 -0.4149 0.4884c -0.1733,0.3309 -0.2679,0.8561 -0.2679 0.8561c -0.0945,0.5252 -0.0945,1.2605 -0.0945 1.2605c 0.0000,1.4706 0.3624,2.1376 0.3624 2.1376c 0.3624,0.6670 0.9506,0.6670 0.9506 0.6670ZM 25.0945,305.9454 ZM 27.7101,306.0714 c -1.0189,-0.0000 -1.5861,-0.9034 -1.5861 -0.9034c -0.5672,-0.9034 -0.5672,-2.5945 -0.5672 -2.5945c 0.0000,-1.6912 0.5672,-2.5735 0.5672 -2.5735c 0.5672,-0.8824 1.5861,-0.8824 1.5861 -0.8824c 1.0084,0.0000 1.5756,0.8824 1.5756 0.8824c 0.5672,0.8824 0.5672,2.5735 0.5672 2.5735c 0.0000,1.6912 -0.5672,2.5945 -0.5672 2.5945c -0.5672,0.9034 -1.5756,0.9034 -1.5756 0.9034ZM 27.7101,306.0714 ZM 27.7101,305.3782 c 0.2941,0.0000 0.5305,-0.1628 0.5305 -0.1628c 0.2363,-0.1628 0.4097,-0.5042 0.4097 -0.5042c 0.1733,-0.3414 0.2679,-0.8718 0.2679 -0.8718c 0.0945,-0.5305 0.0945,-1.2658 0.0945 -1.2658c 0.0000,-0.7353 -0.0945,-1.2605 -0.0945 -1.2605c -0.0945,-0.5252 -0.2679,-0.8561 -0.2679 -0.8561c -0.1733,-0.3309 -0.4097,-0.4884 -0.4097 -0.4884c -0.2363,-0.1576 -0.5305,-0.1576 -0.5305 -0.1576c -0.2941,-0.0000 -0.5357,0.1576 -0.5357 0.1576c -0.2416,0.1576 -0.4149,0.4884 -0.4149 0.4884c -0.1733,0.3309 -0.2679,0.8561 -0.2679 0.8561c -0.0945,0.5252 -0.0945,1.2605 -0.0945 1.2605c 0.0000,1.4706 0.3624,2.1376 0.3624 2.1376c 0.3624,0.6670 0.9506,0.6670 0.9506 0.6670Z"/></g><g stroke-linejoin="bevel" stroke-opacity="0.0" fill-opacity="1.0" stroke="rgb(0,0,0)" stroke-width="0.0" fill="rgb(0,0,0)" stroke-linecap="butt" stroke-miterlimit="10.0"><path d="M 14.8529,172.1954 ZM 16.7122,172.1954 c 0.0420,-0.9454 0.1681,-1.7332 0.1681 -1.7332c 0.1261,-0.7878 0.3519,-1.4968 0.3519 -1.4968c 0.2258,-0.7090 0.5777,-1.3708 0.5777 -1.3708c 0.3519,-0.6618 0.8456,-1.3550 0.8456 -1.3550h -3.3403 v -0.7458 h 4.3172 v 0.5357 c -0.5987,0.7563 -0.9716,1.4496 -0.9716 1.4496c -0.3729,0.6933 -0.5935,1.4128 -0.5935 1.4128c -0.2206,0.7195 -0.3204,1.5231 -0.3204 1.5231c -0.0998,0.8036 -0.1418,1.7805 -0.1418 1.7805h -0.8929 h 0.0000 ZM 20.0735,172.1954 ZM 20.7563,170.8403 c 0.2941,0.3046 0.6985,0.5357 0.6985 0.5357c 0.4044,0.2311 0.9926,0.2311 0.9926 0.2311c 0.3046,0.0000 0.5725,-0.1103 0.5725 -0.1103c 0.2679,-0.1103 0.4674,-0.3099 0.4674 -0.3099c 0.1996,-0.1996 0.3151,-0.4832 0.3151 -0.4832c 0.1155,-0.2836 0.1155,-0.6303 0.1155 -0.6303c 0.0000,-0.6933 -0.3887,-1.0819 -0.3887 -1.0819c -0.3887,-0.3887 -1.0399,-0.3887 -1.0399 -0.3887c -0.3466,-0.0000 -0.5935,0.1050 -0.5935 0.1050c -0.2468,0.1050 -0.5515,0.3046 -0.5515 0.3046l -0.4622,-0.2941 l 0.2206,-3.2248 h 3.3508 v 0.7458 h -2.5945 l -0.1786,1.9853 c 0.2416,-0.1261 0.4832,-0.1996 0.4832 -0.1996c 0.2416,-0.0735 0.5462,-0.0735 0.5462 -0.0735c 0.4307,0.0000 0.8088,0.1261 0.8088 0.1261c 0.3782,0.1261 0.6618,0.3834 0.6618 0.3834c 0.2836,0.2574 0.4464,0.6513 0.4464 0.6513c 0.1628,0.3939 0.1628,0.9401 0.1628 0.9401c 0.0000,0.5462 -0.1891,0.9664 -0.1891 0.9664c -0.1891,0.4202 -0.5042,0.7090 -0.5042 0.7090c -0.3151,0.2889 -0.7195,0.4412 -0.7195 0.4412c -0.4044,0.1523 -0.8456,0.1523 -0.8456 0.1523c -0.3992,-0.0000 -0.7300,-0.0788 -0.7300 -0.0788c -0.3309,-0.0788 -0.5987,-0.2048 -0.5987 -0.2048c -0.2679,-0.1261 -0.4832,-0.2889 -0.4832 -0.2889c -0.2153,-0.1628 -0.3834,-0.3414 -0.3834 -0.3414ZM 25.2941,172.1954 ZM 27.9097,172.3214 c -1.0189,-0.0000 -1.5861,-0.9034 -1.5861 -0.9034c -0.5672,-0.9034 -0.5672,-2.5945 -0.5672 -2.5945c 0.0000,-1.6912 0.5672,-2.5735 0.5672 -2.5735c 0.5672,-0.8824 1.5861,-0.8824 1.5861 -0.8824c 1.0084,0.0000 1.5756,0.8824 1.5756 0.8824c 0.5672,0.8824 0.5672,2.5735 0.5672 2.5735c 0.0000,1.6912 -0.5672,2.5945 -0.5672 2.5945c -0.5672,0.9034 -1.5756,0.9034 -1.5756 0.9034ZM 27.9097,172.3214 ZM 27.9097,171.6282 c 0.2941,0.0000 0.5305,-0.1628 0.5305 -0.1628c 0.2363,-0.1628 0.4097,-0.5042 0.4097 -0.5042c 0.1733,-0.3414 0.2679,-0.8718 0.2679 -0.8718c 0.0945,-0.5305 0.0945,-1.2658 0.0945 -1.2658c 0.0000,-0.7353 -0.0945,-1.2605 -0.0945 -1.2605c -0.0945,-0.5252 -0.2679,-0.8561 -0.2679 -0.8561c -0.1733,-0.3309 -0.4097,-0.4884 -0.4097 -0.4884c -0.2363,-0.1576 -0.5305,-0.1576 -0.5305 -0.1576c -0.2941,-0.0000 -0.5357,0.1576 -0.5357 0.1576c -0.2416,0.1576 -0.4149,0.4884 -0.4149 0.4884c -0.1733,0.3309 -0.2679,0.8561 -0.2679 0.8561c -0.0945,0.5252 -0.0945,1.2605 -0.0945 1.2605c 0.0000,1.4706 0.3624,2.1376 0.3624 2.1376c 0.3624,0.6670 0.9506,0.6670 0.9506 0.6670Z"/></g><g stroke-linejoin="bevel" stroke-opacity="0.0" fill-opacity="1.0" stroke="rgb(0,0,0)" stroke-width="0.0" fill="rgb(0,0,0)" stroke-linecap="butt" stroke-miterlimit="10.0"><path d="M 10.0000,38.4454 ZM 10.8298,37.7311 h 1.5336 v -4.9370 h -1.2185 v -0.5567 c 0.4622,-0.0840 0.8036,-0.2048 0.8036 -0.2048c 0.3414,-0.1208 0.6145,-0.2889 0.6145 -0.2889h 0.6618 v 5.9874 h 1.3866 v 0.7143 h -3.7815 v -0.7143 ZM 15.2206,38.4454 ZM 17.8361,38.5714 c -1.0189,-0.0000 -1.5861,-0.9034 -1.5861 -0.9034c -0.5672,-0.9034 -0.5672,-2.5945 -0.5672 -2.5945c 0.0000,-1.6912 0.5672,-2.5735 0.5672 -2.5735c 0.5672,-0.8824 1.5861,-0.8824 1.5861 -0.8824c 1.0084,0.0000 1.5756,0.8824 1.5756 0.8824c 0.5672,0.8824 0.5672,2.5735 0.5672 2.5735c 0.0000,1.6912 -0.5672,2.5945 -0.5672 2.5945c -0.5672,0.9034 -1.5756,0.9034 -1.5756 0.9034ZM 17.8361,38.5714 ZM 17.8361,37.8782 c 0.2941,0.0000 0.5305,-0.1628 0.5305 -0.1628c 0.2363,-0.1628 0.4097,-0.5042 0.4097 -0.5042c 0.1733,-0.3414 0.2679,-0.8718 0.2679 -0.8718c 0.0945,-0.5305 0.0945,-1.2658 0.0945 -1.2658c 0.0000,-0.7353 -0.0945,-1.2605 -0.0945 -1.2605c -0.0945,-0.5252 -0.2679,-0.8561 -0.2679 -0.8561c -0.1733,-0.3309 -0.4097,-0.4884 -0.4097 -0.4884c -0.2363,-0.1576 -0.5305,-0.1576 -0.5305 -0.1576c -0.2941,-0.0000 -0.5357,0.1576 -0.5357 0.1576c -0.2416,0.1576 -0.4149,0.4884 -0.4149 0.4884c -0.1733,0.3309 -0.2679,0.8561 -0.2679 0.8561c -0.0945,0.5252 -0.0945,1.2605 -0.0945 1.2605c 0.0000,1.4706 0.3624,2.1376 0.3624 2.1376c 0.3624,0.6670 0.9506,0.6670 0.9506 0.6670ZM 20.4412,38.4454 ZM 23.0567,38.5714 c -1.0189,-0.0000 -1.5861,-0.9034 -1.5861 -0.9034c -0.5672,-0.9034 -0.5672,-2.5945 -0.5672 -2.5945c 0.0000,-1.6912 0.5672,-2.5735 0.5672 -2.5735c 0.5672,-0.8824 1.5861,-0.8824 1.5861 -0.8824c 1.0084,0.0000 1.5756,0.8824 1.5756 0.8824c 0.5672,0.8824 0.5672,2.5735 0.5672 2.5735c 0.0000,1.6912 -0.5672,2.5945 -0.5672 2.5945c -0.5672,0.9034 -1.5756,0.9034 -1.5756 0.9034ZM 23.0567,38.5714 ZM 23.0567,37.8782 c 0.2941,0.0000 0.5305,-0.1628 0.5305 -0.1628c 0.2363,-0.1628 0.4097,-0.5042 0.4097 -0.5042c 0.1733,-0.3414 0.2679,-0.8718 0.2679 -0.8718c 0.0945,-0.5305 0.0945,-1.2658 0.0945 -1.2658c 0.0000,-0.7353 -0.0945,-1.2605 -0.0945 -1.2605c -0.0945,-0.5252 -0.2679,-0.8561 -0.2679 -0.8561c -0.1733,-0.3309 -0.4097,-0.4884 -0.4097 -0.4884c -0.2363,-0.1576 -0.5305,-0.1576 -0.5305 -0.1576c -0.2941,-0.0000 -0.5357,0.1576 -0.5357 0.1576c -0.2416,0.1576 -0.4149,0.4884 -0.4149 0.4884c -0.1733,0.3309 -0.2679,0.8561 -0.2679 0.8561c -0.0945,0.5252 -0.0945,1.2605 -0.0945 1.2605c 0.0000,1.4706 0.3624,2.1376 0.3624 2.1376c 0.3624,0.6670 0.9506,0.6670 0.9506 0.6670ZM 25.6618,38.4454 ZM 28.2773,38.5714 c -1.0189,-0.0000 -1.5861,-0.9034 -1.5861 -0.9034c -0.5672,-0.9034 -0.5672,-2.5945 -0.5672 -2.5945c 0.0000,-1.6912 0.5672,-2.5735 0.5672 -2.5735c 0.5672,-0.8824 1.5861,-0.8824 1.5861 -0.8824c 1.0084,0.0000 1.5756,0.8824 1.5756 0.8824c 0.5672,0.8824 0.5672,2.5735 0.5672 2.5735c 0.0000,1.6912 -0.5672,2.5945 -0.5672 2.5945c -0.5672,0.9034 -1.5756,0.9034 -1.5756 0.9034ZM 28.2773,38.5714 ZM 28.2773,37.8782 c 0.2941,0.0000 0.5305,-0.1628 0.5305 -0.1628c 0.2363,-0.1628 0.4097,-0.5042 0.4097 -0.5042c 0.1733,-0.3414 0.2679,-0.8718 0.2679 -0.8718c 0.0945,-0.5305 0.0945,-1.2658 0.0945 -1.2658c 0.0000,-0.7353 -0.0945,-1.2605 -0.0945 -1.2605c -0.0945,-0.5252 -0.2679,-0.8561 -0.2679 -0.8561c -0.1733,-0.3309 -0.4097,-0.4884 -0.4097 -0.4884c -0.2363,-0.1576 -0.5305,-0.1576 -0.5305 -0.1576c -0.2941,-0.0000 -0.5357,0.1576 -0.5357 0.1576c -0.2416,0.1576 -0.4149,0.4884 -0.4149 0.4884c -0.1733,0.3309 -0.2679,0.8561 -0.2679 0.8561c -0.0945,0.5252 -0.0945,1.2605 -0.0945 1.2605c 0.0000,1.4706 0.3624,2.1376 0.3624 2.1376c 0.3624,0.6670 0.9506,0.6670 0.9506 0.6670Z"/></g><g stroke-linejoin="miter" stroke-opacity="1.0" fill-opacity="0.0" stroke="rgb(0,0,0)" stroke-width="0.9999999999999997" fill="rgb(0,0,0)" stroke-linecap="square" stroke-miterlimit="10.0"><path d="M 39.5903,570.0000 h 735.4254 "/></g><g stroke-linejoin="bevel" stroke-opacity="0.0" fill-opacity="1.0" stroke="rgb(0,0,0)" stroke-width="0.0" fill="rgb(0,0,0)" stroke-linecap="butt" stroke-miterlimit="10.0"><path d="M 82.4147,590.0000 ZM 83.3600,583.1092 h 3.9706 v 0.7353 h -3.0987 v 2.3319 h 2.6261 v 0.7353 h -2.6261 v 3.0882 h -0.8718 v -6.8908 ZM 87.4357,590.0000 ZM 88.2235,584.8950 h 0.8718 v 3.1197 c 0.0000,0.7248 0.2258,1.0452 0.2258 1.0452c 0.2258,0.3204 0.7300,0.3204 0.7300 0.3204c 0.3992,0.0000 0.7038,-0.2048 0.7038 -0.2048c 0.3046,-0.2048 0.6723,-0.6565 0.6723 -0.6565v -3.6239 h 0.8613 v 5.1050 h -0.7143 l -0.0735,-0.7983 h -0.0315 c -0.3571,0.4202 -0.7511,0.6723 -0.7511 0.6723c -0.3939,0.2521 -0.9296,0.2521 -0.9296 0.2521c -0.8193,-0.0000 -1.1922,-0.5042 -1.1922 -0.5042c -0.3729,-0.5042 -0.3729,-1.4916 -0.3729 -1.4916v -3.2353 ZM 93.1499,590.0000 ZM 94.0113,582.5210 h 0.8613 v 6.5126 c 0.0000,0.2101 0.0735,0.2941 0.0735 0.2941c 0.0735,0.0840 0.1681,0.0840 0.1681 0.0840h 0.0788 c 0.0000,0.0000 0.1103,-0.0210 0.1103 -0.0210l 0.1155,0.6513 c -0.0840,0.0420 -0.1996,0.0630 -0.1996 0.0630c -0.1155,0.0210 -0.2941,0.0210 -0.2941 0.0210c -0.4937,-0.0000 -0.7038,-0.2941 -0.7038 -0.2941c -0.2101,-0.2941 -0.2101,-0.8613 -0.2101 -0.8613v -6.4496 ZM 95.8285,590.0000 ZM 96.6899,582.5210 h 0.8613 v 6.5126 c 0.0000,0.2101 0.0735,0.2941 0.0735 0.2941c 0.0735,0.0840 0.1681,0.0840 0.1681 0.0840h 0.0788 c 0.0000,0.0000 0.1103,-0.0210 0.1103 -0.0210l 0.1155,0.6513 c -0.0840,0.0420 -0.1996,0.0630 -0.1996 0.0630c -0.1155,0.0210 -0.2941,0.0210 -0.2941 0.0210c -0.4937,-0.0000 -0.7038,-0.2941 -0.7038 -0.2941c -0.2101,-0.2941 -0.2101,-0.8613 -0.2101 -0.8613v -6.4496 ZM 100.6289,590.0000 ZM 101.6373,585.5987 h -0.7563 v -0.6513 l 0.7983,-0.0525 l 0.1050,-1.4286 h 0.7248 v 1.4286 h 1.3761 v 0.7038 h -1.3761 v 2.8361 c 0.0000,0.4727 0.1733,0.7300 0.1733 0.7300c 0.1733,0.2574 0.6145,0.2574 0.6145 0.2574c 0.1366,0.0000 0.2941,-0.0420 0.2941 -0.0420c 0.1576,-0.0420 0.2836,-0.0945 0.2836 -0.0945l 0.1681,0.6513 c -0.2101,0.0735 -0.4569,0.1313 -0.4569 0.1313c -0.2468,0.0578 -0.4884,0.0578 -0.4884 0.0578c -0.4097,-0.0000 -0.6880,-0.1261 -0.6880 -0.1261c -0.2784,-0.1261 -0.4517,-0.3466 -0.4517 -0.3466c -0.1733,-0.2206 -0.2468,-0.5357 -0.2468 -0.5357c -0.0735,-0.3151 -0.0735,-0.6933 -0.0735 -0.6933v -2.8256 ZM 104.1794,590.0000 ZM 105.4819,583.8445 c -0.2521,-0.0000 -0.4254,-0.1576 -0.4254 -0.1576c -0.1733,-0.1576 -0.1733,-0.3992 -0.1733 -0.3992c 0.0000,-0.2521 0.1733,-0.4044 0.1733 -0.4044c 0.1733,-0.1523 0.4254,-0.1523 0.4254 -0.1523c 0.2521,0.0000 0.4254,0.1523 0.4254 0.1523c 0.1733,0.1523 0.1733,0.4044 0.1733 0.4044c 0.0000,0.2416 -0.1733,0.3992 -0.1733 0.3992c -0.1733,0.1576 -0.4254,0.1576 -0.4254 0.1576ZM 105.4819,583.8445 ZM 105.0407,584.8950 h 0.8613 v 5.1050 h -0.8613 v -5.1050 ZM 106.7634,590.0000 ZM 107.6247,584.8950 h 0.7143 l 0.0735,0.7353 h 0.0315 c 0.3361,-0.3676 0.7300,-0.6145 0.7300 -0.6145c 0.3939,-0.2468 0.8561,-0.2468 0.8561 -0.2468c 0.5882,0.0000 0.9191,0.2574 0.9191 0.2574c 0.3309,0.2574 0.4884,0.7195 0.4884 0.7195c 0.3992,-0.4412 0.8036,-0.7090 0.8036 -0.7090c 0.4044,-0.2679 0.8771,-0.2679 0.8771 -0.2679c 0.7878,0.0000 1.1712,0.5042 1.1712 0.5042c 0.3834,0.5042 0.3834,1.4916 0.3834 1.4916v 3.2353 h -0.8613 v -3.1197 c 0.0000,-0.7248 -0.2311,-1.0452 -0.2311 -1.0452c -0.2311,-0.3204 -0.7143,-0.3204 -0.7143 -0.3204c -0.5777,-0.0000 -1.2815,0.7878 -1.2815 0.7878v 3.6975 h -0.8613 v -3.1197 c 0.0000,-0.7248 -0.2311,-1.0452 -0.2311 -1.0452c -0.2311,-0.3204 -0.7248,-0.3204 -0.7248 -0.3204c -0.5777,-0.0000 -1.2815,0.7878 -1.2815 0.7878v 3.6975 h -0.8613 v -5.1050 ZM 115.4714,590.0000 ZM 115.9546,587.4580 c 0.0000,-0.6303 0.1943,-1.1292 0.1943 -1.1292c 0.1943,-0.4989 0.5147,-0.8456 0.5147 -0.8456c 0.3204,-0.3466 0.7300,-0.5305 0.7300 -0.5305c 0.4097,-0.1838 0.8508,-0.1838 0.8508 -0.1838c 0.4832,0.0000 0.8666,0.1681 0.8666 0.1681c 0.3834,0.1681 0.6408,0.4832 0.6408 0.4832c 0.2574,0.3151 0.3939,0.7563 0.3939 0.7563c 0.1366,0.4412 0.1366,0.9874 0.1366 0.9874c 0.0000,0.2836 -0.0315,0.4727 -0.0315 0.4727h -3.4454 c 0.0525,0.8298 0.5095,1.3130 0.5095 1.3130c 0.4569,0.4832 1.1922,0.4832 1.1922 0.4832c 0.3676,0.0000 0.6775,-0.1103 0.6775 -0.1103c 0.3099,-0.1103 0.5935,-0.2889 0.5935 -0.2889l 0.3046,0.5672 c -0.3361,0.2101 -0.7458,0.3676 -0.7458 0.3676c -0.4097,0.1576 -0.9349,0.1576 -0.9349 0.1576c -0.5147,-0.0000 -0.9611,-0.1838 -0.9611 -0.1838c -0.4464,-0.1838 -0.7773,-0.5252 -0.7773 -0.5252c -0.3309,-0.3414 -0.5200,-0.8351 -0.5200 -0.8351c -0.1891,-0.4937 -0.1891,-1.1239 -0.1891 -1.1239ZM 115.9546,587.4580 ZM 119.5260,587.0693 c 0.0000,-0.7878 -0.3309,-1.2027 -0.3309 -1.2027c -0.3309,-0.4149 -0.9296,-0.4149 -0.9296 -0.4149c -0.2731,-0.0000 -0.5200,0.1103 -0.5200 0.1103c -0.2468,0.1103 -0.4464,0.3151 -0.4464 0.3151c -0.1996,0.2048 -0.3309,0.5042 -0.3309 0.5042c -0.1313,0.2994 -0.1733,0.6880 -0.1733 0.6880h 2.7311 Z"/></g><g stroke-linejoin="bevel" stroke-opacity="0.0" fill-opacity="1.0" stroke="rgb(0,0,0)" stroke-width="0.0" fill="rgb(0,0,0)" stroke-linecap="butt" stroke-miterlimit="10.0"><path d="M 203.9456,590.0000 ZM 204.8910,583.1092 h 2.1113 c 0.5672,0.0000 1.0399,0.1050 1.0399 0.1050c 0.4727,0.1050 0.8036,0.3414 0.8036 0.3414c 0.3309,0.2363 0.5147,0.6250 0.5147 0.6250c 0.1838,0.3887 0.1838,0.9559 0.1838 0.9559c 0.0000,0.5462 -0.1838,0.9454 -0.1838 0.9454c -0.1838,0.3992 -0.5200,0.6618 -0.5200 0.6618c -0.3361,0.2626 -0.8036,0.3939 -0.8036 0.3939c -0.4674,0.1313 -1.0347,0.1313 -1.0347 0.1313h -1.2395 v 2.7311 h -0.8718 v -6.8908 ZM 204.8910,583.1092 ZM 206.8973,586.5546 c 0.9034,0.0000 1.3393,-0.3414 1.3393 -0.3414c 0.4359,-0.3414 0.4359,-1.0767 0.4359 -1.0767c 0.0000,-0.7458 -0.4412,-1.0347 -0.4412 -1.0347c -0.4412,-0.2889 -1.3340,-0.2889 -1.3340 -0.2889h -1.1345 v 2.7416 h 1.1345 ZM 209.5444,590.0000 ZM 210.1536,588.6765 c 0.0000,-0.8403 0.7511,-1.2868 0.7511 -1.2868c 0.7511,-0.4464 2.3897,-0.6250 2.3897 -0.6250c 0.0000,-0.2416 -0.0473,-0.4727 -0.0473 -0.4727c -0.0473,-0.2311 -0.1681,-0.4097 -0.1681 -0.4097c -0.1208,-0.1786 -0.3204,-0.2889 -0.3204 -0.2889c -0.1996,-0.1103 -0.5147,-0.1103 -0.5147 -0.1103c -0.4517,-0.0000 -0.8351,0.1681 -0.8351 0.1681c -0.3834,0.1681 -0.6880,0.3782 -0.6880 0.3782l -0.3466,-0.5987 c 0.3571,-0.2311 0.8718,-0.4464 0.8718 -0.4464c 0.5147,-0.2153 1.1345,-0.2153 1.1345 -0.2153c 0.9349,0.0000 1.3550,0.5725 1.3550 0.5725c 0.4202,0.5725 0.4202,1.5284 0.4202 1.5284v 3.1303 h -0.7143 l -0.0735,-0.6092 h -0.0210 c -0.3676,0.3046 -0.7931,0.5200 -0.7931 0.5200c -0.4254,0.2153 -0.8981,0.2153 -0.8981 0.2153c -0.6513,-0.0000 -1.0767,-0.3782 -1.0767 -0.3782c -0.4254,-0.3782 -0.4254,-1.0714 -0.4254 -1.0714ZM 210.1536,588.6765 ZM 211.0045,588.6134 c 0.0000,0.4412 0.2574,0.6303 0.2574 0.6303c 0.2574,0.1891 0.6355,0.1891 0.6355 0.1891c 0.3676,0.0000 0.6985,-0.1733 0.6985 -0.1733c 0.3309,-0.1733 0.6985,-0.5095 0.6985 -0.5095v -1.4181 c -0.6408,0.0840 -1.0819,0.1996 -1.0819 0.1996c -0.4412,0.1155 -0.7090,0.2731 -0.7090 0.2731c -0.2679,0.1576 -0.3834,0.3624 -0.3834 0.3624c -0.1155,0.2048 -0.1155,0.4464 -0.1155 0.4464ZM 214.9225,590.0000 ZM 215.7839,584.8950 h 0.7143 l 0.0735,0.9244 h 0.0315 c 0.2626,-0.4832 0.6355,-0.7668 0.6355 -0.7668c 0.3729,-0.2836 0.8141,-0.2836 0.8141 -0.2836c 0.3046,0.0000 0.5462,0.1050 0.5462 0.1050l -0.1681,0.7563 c -0.1261,-0.0420 -0.2311,-0.0630 -0.2311 -0.0630c -0.1050,-0.0210 -0.2626,-0.0210 -0.2626 -0.0210c -0.3256,-0.0000 -0.6775,0.2626 -0.6775 0.2626c -0.3519,0.2626 -0.6145,0.9139 -0.6145 0.9139v 3.2773 h -0.8613 v -5.1050 ZM 218.5675,590.0000 ZM 219.5759,585.5987 h -0.7563 v -0.6513 l 0.7983,-0.0525 l 0.1050,-1.4286 h 0.7248 v 1.4286 h 1.3761 v 0.7038 h -1.3761 v 2.8361 c 0.0000,0.4727 0.1733,0.7300 0.1733 0.7300c 0.1733,0.2574 0.6145,0.2574 0.6145 0.2574c 0.1366,0.0000 0.2941,-0.0420 0.2941 -0.0420c 0.1576,-0.0420 0.2836,-0.0945 0.2836 -0.0945l 0.1681,0.6513 c -0.2101,0.0735 -0.4569,0.1313 -0.4569 0.1313c -0.2468,0.0578 -0.4884,0.0578 -0.4884 0.0578c -0.4097,-0.0000 -0.6880,-0.1261 -0.6880 -0.1261c -0.2784,-0.1261 -0.4517,-0.3466 -0.4517 -0.3466c -0.1733,-0.2206 -0.2468,-0.5357 -0.2468 -0.5357c -0.0735,-0.3151 -0.0735,-0.6933 -0.0735 -0.6933v -2.8256 ZM 224.2398,590.0000 ZM 225.2482,585.5987 h -0.7563 v -0.6513 l 0.7983,-0.0525 l 0.1050,-1.4286 h 0.7248 v 1.4286 h 1.3761 v 0.7038 h -1.3761 v 2.8361 c 0.0000,0.4727 0.1733,0.7300 0.1733 0.7300c 0.1733,0.2574 0.6145,0.2574 0.6145 0.2574c 0.1366,0.0000 0.2941,-0.0420 0.2941 -0.0420c 0.1576,-0.0420 0.2836,-0.0945 0.2836 -0.0945l 0.1681,0.6513 c -0.2101,0.0735 -0.4569,0.1313 -0.4569 0.1313c -0.2468,0.0578 -0.4884,0.0578 -0.4884 0.0578c -0.4097,-0.0000 -0.6880,-0.1261 -0.6880 -0.1261c -0.2784,-0.1261 -0.4517,-0.3466 -0.4517 -0.3466c -0.1733,-0.2206 -0.2468,-0.5357 -0.2468 -0.5357c -0.0735,-0.3151 -0.0735,-0.6933 -0.0735 -0.6933v -2.8256 ZM 227.7902,590.0000 ZM 229.0927,583.8445 c -0.2521,-0.0000 -0.4254,-0.1576 -0.4254 -0.1576c -0.1733,-0.1576 -0.1733,-0.3992 -0.1733 -0.3992c 0.0000,-0.2521 0.1733,-0.4044 0.1733 -0.4044c 0.1733,-0.1523 0.4254,-0.1523 0.4254 -0.1523c 0.2521,0.0000 0.4254,0.1523 0.4254 0.1523c 0.1733,0.1523 0.1733,0.4044 0.1733 0.4044c 0.0000,0.2416 -0.1733,0.3992 -0.1733 0.3992c -0.1733,0.1576 -0.4254,0.1576 -0.4254 0.1576ZM 229.0927,583.8445 ZM 228.6515,584.8950 h 0.8613 v 5.1050 h -0.8613 v -5.1050 ZM 230.3742,590.0000 ZM 231.2356,584.8950 h 0.7143 l 0.0735,0.7353 h 0.0315 c 0.3361,-0.3676 0.7300,-0.6145 0.7300 -0.6145c 0.3939,-0.2468 0.8561,-0.2468 0.8561 -0.2468c 0.5882,0.0000 0.9191,0.2574 0.9191 0.2574c 0.3309,0.2574 0.4884,0.7195 0.4884 0.7195c 0.3992,-0.4412 0.8036,-0.7090 0.8036 -0.7090c 0.4044,-0.2679 0.8771,-0.2679 0.8771 -0.2679c 0.7878,0.0000 1.1712,0.5042 1.1712 0.5042c 0.3834,0.5042 0.3834,1.4916 0.3834 1.4916v 3.2353 h -0.8613 v -3.1197 c 0.0000,-0.7248 -0.2311,-1.0452 -0.2311 -1.0452c -0.2311,-0.3204 -0.7143,-0.3204 -0.7143 -0.3204c -0.5777,-0.0000 -1.2815,0.7878 -1.2815 0.7878v 3.6975 h -0.8613 v -3.1197 c 0.0000,-0.7248 -0.2311,-1.0452 -0.2311 -1.0452c -0.2311,-0.3204 -0.7248,-0.3204 -0.7248 -0.3204c -0.5777,-0.0000 -1.2815,0.7878 -1.2815 0.7878v 3.6975 h -0.8613 v -5.1050 ZM 239.0822,590.0000 ZM 239.5654,587.4580 c 0.0000,-0.6303 0.1943,-1.1292 0.1943 -1.1292c 0.1943,-0.4989 0.5147,-0.8456 0.5147 -0.8456c 0.3204,-0.3466 0.7300,-0.5305 0.7300 -0.5305c 0.4097,-0.1838 0.8508,-0.1838 0.8508 -0.1838c 0.4832,0.0000 0.8666,0.1681 0.8666 0.1681c 0.3834,0.1681 0.6408,0.4832 0.6408 0.4832c 0.2574,0.3151 0.3939,0.7563 0.3939 0.7563c 0.1366,0.4412 0.1366,0.9874 0.1366 0.9874c 0.0000,0.2836 -0.0315,0.4727 -0.0315 0.4727h -3.4454 c 0.0525,0.8298 0.5095,1.3130 0.5095 1.3130c 0.4569,0.4832 1.1922,0.4832 1.1922 0.4832c 0.3676,0.0000 0.6775,-0.1103 0.6775 -0.1103c 0.3099,-0.1103 0.5935,-0.2889 0.5935 -0.2889l 0.3046,0.5672 c -0.3361,0.2101 -0.7458,0.3676 -0.7458 0.3676c -0.4097,0.1576 -0.9349,0.1576 -0.9349 0.1576c -0.5147,-0.0000 -0.9611,-0.1838 -0.9611 -0.1838c -0.4464,-0.1838 -0.7773,-0.5252 -0.7773 -0.5252c -0.3309,-0.3414 -0.5200,-0.8351 -0.5200 -0.8351c -0.1891,-0.4937 -0.1891,-1.1239 -0.1891 -1.1239ZM 239.5654,587.4580 ZM 243.1368,587.0693 c 0.0000,-0.7878 -0.3309,-1.2027 -0.3309 -1.2027c -0.3309,-0.4149 -0.9296,-0.4149 -0.9296 -0.4149c -0.2731,-0.0000 -0.5200,0.1103 -0.5200 0.1103c -0.2468,0.1103 -0.4464,0.3151 -0.4464 0.3151c -0.1996,0.2048 -0.3309,0.5042 -0.3309 0.5042c -0.1313,0.2994 -0.1733,0.6880 -0.1733 0.6880h 2.7311 Z"/></g><g stroke-linejoin="bevel" stroke-opacity="0.0" fill-opacity="1.0" stroke="rgb(0,0,0)" stroke-width="0.0" fill="rgb(0,0,0)" stroke-linecap="butt" stroke-miterlimit="10.0"><path d="M 315.3348,590.0000 ZM 316.3012,588.4979 c 0.3676,0.3887 0.8666,0.6250 0.8666 0.6250c 0.4989,0.2363 1.0347,0.2363 1.0347 0.2363c 0.6828,0.0000 1.0609,-0.3099 1.0609 -0.3099c 0.3782,-0.3099 0.3782,-0.8141 0.3782 -0.8141c 0.0000,-0.2626 -0.0893,-0.4464 -0.0893 -0.4464c -0.0893,-0.1838 -0.2416,-0.3151 -0.2416 -0.3151c -0.1523,-0.1313 -0.3624,-0.2363 -0.3624 -0.2363c -0.2101,-0.1050 -0.4517,-0.2206 -0.4517 -0.2206l -0.9874,-0.4307 c -0.2416,-0.1050 -0.4937,-0.2521 -0.4937 -0.2521c -0.2521,-0.1471 -0.4517,-0.3571 -0.4517 -0.3571c -0.1996,-0.2101 -0.3256,-0.4989 -0.3256 -0.4989c -0.1261,-0.2889 -0.1261,-0.6670 -0.1261 -0.6670c 0.0000,-0.3887 0.1628,-0.7248 0.1628 -0.7248c 0.1628,-0.3361 0.4517,-0.5830 0.4517 -0.5830c 0.2889,-0.2468 0.6828,-0.3834 0.6828 -0.3834c 0.3939,-0.1366 0.8666,-0.1366 0.8666 -0.1366c 0.6197,0.0000 1.1450,0.2363 1.1450 0.2363c 0.5252,0.2363 0.8929,0.6145 0.8929 0.6145l -0.4727,0.5672 c -0.3151,-0.3046 -0.6985,-0.4779 -0.6985 -0.4779c -0.3834,-0.1733 -0.8666,-0.1733 -0.8666 -0.1733c -0.5777,-0.0000 -0.9296,0.2679 -0.9296 0.2679c -0.3519,0.2679 -0.3519,0.7405 -0.3519 0.7405c 0.0000,0.2521 0.0998,0.4254 0.0998 0.4254c 0.0998,0.1733 0.2679,0.3046 0.2679 0.3046c 0.1681,0.1313 0.3676,0.2311 0.3676 0.2311c 0.1996,0.0998 0.4097,0.1838 0.4097 0.1838l 0.9769,0.4202 c 0.2941,0.1261 0.5567,0.2889 0.5567 0.2889c 0.2626,0.1628 0.4517,0.3782 0.4517 0.3782c 0.1891,0.2153 0.2994,0.5042 0.2994 0.5042c 0.1103,0.2889 0.1103,0.6670 0.1103 0.6670c 0.0000,0.4097 -0.1628,0.7668 -0.1628 0.7668c -0.1628,0.3571 -0.4674,0.6250 -0.4674 0.6250c -0.3046,0.2679 -0.7353,0.4202 -0.7353 0.4202c -0.4307,0.1523 -0.9769,0.1523 -0.9769 0.1523c -0.7248,-0.0000 -1.3445,-0.2731 -1.3445 -0.2731c -0.6197,-0.2731 -1.0714,-0.7458 -1.0714 -0.7458ZM 320.9441,590.0000 ZM 321.4273,587.4580 c 0.0000,-0.6303 0.1943,-1.1292 0.1943 -1.1292c 0.1943,-0.4989 0.5147,-0.8456 0.5147 -0.8456c 0.3204,-0.3466 0.7300,-0.5305 0.7300 -0.5305c 0.4097,-0.1838 0.8508,-0.1838 0.8508 -0.1838c 0.4832,0.0000 0.8666,0.1681 0.8666 0.1681c 0.3834,0.1681 0.6408,0.4832 0.6408 0.4832c 0.2574,0.3151 0.3939,0.7563 0.3939 0.7563c 0.1366,0.4412 0.1366,0.9874 0.1366 0.9874c 0.0000,0.2836 -0.0315,0.4727 -0.0315 0.4727h -3.4454 c 0.0525,0.8298 0.5095,1.3130 0.5095 1.3130c 0.4569,0.4832 1.1922,0.4832 1.1922 0.4832c 0.3676,0.0000 0.6775,-0.1103 0.6775 -0.1103c 0.3099,-0.1103 0.5935,-0.2889 0.5935 -0.2889l 0.3046,0.5672 c -0.3361,0.2101 -0.7458,0.3676 -0.7458 0.3676c -0.4097,0.1576 -0.9349,0.1576 -0.9349 0.1576c -0.5147,-0.0000 -0.9611,-0.1838 -0.9611 -0.1838c -0.4464,-0.1838 -0.7773,-0.5252 -0.7773 -0.5252c -0.3309,-0.3414 -0.5200,-0.8351 -0.5200 -0.8351c -0.1891,-0.4937 -0.1891,-1.1239 -0.1891 -1.1239ZM 321.4273,587.4580 ZM 324.9987,587.0693 c 0.0000,-0.7878 -0.3309,-1.2027 -0.3309 -1.2027c -0.3309,-0.4149 -0.9296,-0.4149 -0.9296 -0.4149c -0.2731,-0.0000 -0.5200,0.1103 -0.5200 0.1103c -0.2468,0.1103 -0.4464,0.3151 -0.4464 0.3151c -0.1996,0.2048 -0.3309,0.5042 -0.3309 0.5042c -0.1313,0.2994 -0.1733,0.6880 -0.1733 0.6880h 2.7311 ZM 326.1541,590.0000 ZM 327.0155,582.5210 h 0.8613 v 6.5126 c 0.0000,0.2101 0.0735,0.2941 0.0735 0.2941c 0.0735,0.0840 0.1681,0.0840 0.1681 0.0840h 0.0788 c 0.0000,0.0000 0.1103,-0.0210 0.1103 -0.0210l 0.1155,0.6513 c -0.0840,0.0420 -0.1996,0.0630 -0.1996 0.0630c -0.1155,0.0210 -0.2941,0.0210 -0.2941 0.0210c -0.4937,-0.0000 -0.7038,-0.2941 -0.7038 -0.2941c -0.2101,-0.2941 -0.2101,-0.8613 -0.2101 -0.8613v -6.4496 ZM 328.8327,590.0000 ZM 331.9945,583.2248 c -0.2836,-0.1261 -0.5777,-0.1261 -0.5777 -0.1261c -0.7143,-0.0000 -0.7143,0.9874 -0.7143 0.9874v 0.8088 h 1.0819 v 0.7038 h -1.0819 v 4.4013 h -0.8613 v -4.4013 h -0.6933 v -0.6513 l 0.6933,-0.0525 v -0.8088 c 0.0000,-0.7878 0.3624,-1.2395 0.3624 -1.2395c 0.3624,-0.4517 1.1292,-0.4517 1.1292 -0.4517c 0.2416,0.0000 0.4569,0.0473 0.4569 0.0473c 0.2153,0.0473 0.3939,0.1208 0.3939 0.1208ZM 334.0218,590.0000 ZM 334.5050,587.4580 c 0.0000,-0.6303 0.1943,-1.1292 0.1943 -1.1292c 0.1943,-0.4989 0.5147,-0.8456 0.5147 -0.8456c 0.3204,-0.3466 0.7300,-0.5305 0.7300 -0.5305c 0.4097,-0.1838 0.8508,-0.1838 0.8508 -0.1838c 0.4832,0.0000 0.8666,0.1681 0.8666 0.1681c 0.3834,0.1681 0.6408,0.4832 0.6408 0.4832c 0.2574,0.3151 0.3939,0.7563 0.3939 0.7563c 0.1366,0.4412 0.1366,0.9874 0.1366 0.9874c 0.0000,0.2836 -0.0315,0.4727 -0.0315 0.4727h -3.4454 c 0.0525,0.8298 0.5095,1.3130 0.5095 1.3130c 0.4569,0.4832 1.1922,0.4832 1.1922 0.4832c 0.3676,0.0000 0.6775,-0.1103 0.6775 -0.1103c 0.3099,-0.1103 0.5935,-0.2889 0.5935 -0.2889l 0.3046,0.5672 c -0.3361,0.2101 -0.7458,0.3676 -0.7458 0.3676c -0.4097,0.1576 -0.9349,0.1576 -0.9349 0.1576c -0.5147,-0.0000 -0.9611,-0.1838 -0.9611 -0.1838c -0.4464,-0.1838 -0.7773,-0.5252 -0.7773 -0.5252c -0.3309,-0.3414 -0.5200,-0.8351 -0.5200 -0.8351c -0.1891,-0.4937 -0.1891,-1.1239 -0.1891 -1.1239ZM 334.5050,587.4580 ZM 338.0764,587.0693 c 0.0000,-0.7878 -0.3309,-1.2027 -0.3309 -1.2027c -0.3309,-0.4149 -0.9296,-0.4149 -0.9296 -0.4149c -0.2731,-0.0000 -0.5200,0.1103 -0.5200 0.1103c -0.2468,0.1103 -0.4464,0.3151 -0.4464 0.3151c -0.1996,0.2048 -0.3309,0.5042 -0.3309 0.5042c -0.1313,0.2994 -0.1733,0.6880 -0.1733 0.6880h 2.7311 ZM 339.2319,590.0000 ZM 340.0932,584.8950 h 0.7143 l 0.0735,0.7353 h 0.0315 c 0.3361,-0.3676 0.7300,-0.6145 0.7300 -0.6145c 0.3939,-0.2468 0.8561,-0.2468 0.8561 -0.2468c 0.5882,0.0000 0.9191,0.2574 0.9191 0.2574c 0.3309,0.2574 0.4884,0.7195 0.4884 0.7195c 0.3992,-0.4412 0.8036,-0.7090 0.8036 -0.7090c 0.4044,-0.2679 0.8771,-0.2679 0.8771 -0.2679c 0.7878,0.0000 1.1712,0.5042 1.1712 0.5042c 0.3834,0.5042 0.3834,1.4916 0.3834 1.4916v 3.2353 h -0.8613 v -3.1197 c 0.0000,-0.7248 -0.2311,-1.0452 -0.2311 -1.0452c -0.2311,-0.3204 -0.7143,-0.3204 -0.7143 -0.3204c -0.5777,-0.0000 -1.2815,0.7878 -1.2815 0.7878v 3.6975 h -0.8613 v -3.1197 c 0.0000,-0.7248 -0.2311,-1.0452 -0.2311 -1.0452c -0.2311,-0.3204 -0.7248,-0.3204 -0.7248 -0.3204c -0.5777,-0.0000 -1.2815,0.7878 -1.2815 0.7878v 3.6975 h -0.8613 v -5.1050 ZM 347.9399,590.0000 ZM 349.6626,590.4307 v 1.7227 h -0.8613 v -7.2584 h 0.7143 l 0.0735,0.5882 h 0.0315 c 0.3466,-0.2941 0.7616,-0.5042 0.7616 -0.5042c 0.4149,-0.2101 0.8666,-0.2101 0.8666 -0.2101c 0.4937,0.0000 0.8718,0.1838 0.8718 0.1838c 0.3782,0.1838 0.6303,0.5252 0.6303 0.5252c 0.2521,0.3414 0.3834,0.8193 0.3834 0.8193c 0.1313,0.4779 0.1313,1.0767 0.1313 1.0767c 0.0000,0.6513 -0.1786,1.1607 -0.1786 1.1607c -0.1786,0.5095 -0.4832,0.8666 -0.4832 0.8666c -0.3046,0.3571 -0.7038,0.5410 -0.7038 0.5410c -0.3992,0.1838 -0.8403,0.1838 -0.8403 0.1838c -0.3571,-0.0000 -0.7090,-0.1576 -0.7090 -0.1576c -0.3519,-0.1576 -0.7090,-0.4307 -0.7090 -0.4307ZM 349.6626,590.4307 ZM 349.6626,588.8655 c 0.3466,0.2941 0.6723,0.4149 0.6723 0.4149c 0.3256,0.1208 0.5777,0.1208 0.5777 0.1208c 0.3151,0.0000 0.5830,-0.1418 0.5830 -0.1418c 0.2679,-0.1418 0.4622,-0.3992 0.4622 -0.3992c 0.1943,-0.2574 0.3046,-0.6355 0.3046 -0.6355c 0.1103,-0.3782 0.1103,-0.8508 0.1103 -0.8508c 0.0000,-0.4202 -0.0735,-0.7668 -0.0735 -0.7668c -0.0735,-0.3466 -0.2363,-0.5935 -0.2363 -0.5935c -0.1628,-0.2468 -0.4202,-0.3834 -0.4202 -0.3834c -0.2574,-0.1366 -0.6145,-0.1366 -0.6145 -0.1366c -0.3256,-0.0000 -0.6565,0.1786 -0.6565 0.1786c -0.3309,0.1786 -0.7090,0.5147 -0.7090 0.5147v 2.6786 ZM 353.7697,590.0000 ZM 354.6310,582.5210 h 0.8613 v 6.5126 c 0.0000,0.2101 0.0735,0.2941 0.0735 0.2941c 0.0735,0.0840 0.1681,0.0840 0.1681 0.0840h 0.0788 c 0.0000,0.0000 0.1103,-0.0210 0.1103 -0.0210l 0.1155,0.6513 c -0.0840,0.0420 -0.1996,0.0630 -0.1996 0.0630c -0.1155,0.0210 -0.2941,0.0210 -0.2941 0.0210c -0.4937,-0.0000 -0.7038,-0.2941 -0.7038 -0.2941c -0.2101,-0.2941 -0.2101,-0.8613 -0.2101 -0.8613v -6.4496 ZM 356.4483,590.0000 ZM 356.9315,587.4580 c 0.0000,-0.6408 0.1943,-1.1397 0.1943 -1.1397c 0.1943,-0.4989 0.5200,-0.8456 0.5200 -0.8456c 0.3256,-0.3466 0.7511,-0.5252 0.7511 -0.5252c 0.4254,-0.1786 0.8981,-0.1786 0.8981 -0.1786c 0.4727,0.0000 0.8981,0.1786 0.8981 0.1786c 0.4254,0.1786 0.7511,0.5252 0.7511 0.5252c 0.3256,0.3466 0.5200,0.8456 0.5200 0.8456c 0.1943,0.4989 0.1943,1.1397 0.1943 1.1397c 0.0000,0.6303 -0.1943,1.1292 -0.1943 1.1292c -0.1943,0.4989 -0.5200,0.8403 -0.5200 0.8403c -0.3256,0.3414 -0.7511,0.5200 -0.7511 0.5200c -0.4254,0.1786 -0.8981,0.1786 -0.8981 0.1786c -0.4727,-0.0000 -0.8981,-0.1786 -0.8981 -0.1786c -0.4254,-0.1786 -0.7511,-0.5200 -0.7511 -0.5200c -0.3256,-0.3414 -0.5200,-0.8403 -0.5200 -0.8403c -0.1943,-0.4989 -0.1943,-1.1292 -0.1943 -1.1292ZM 356.9315,587.4580 ZM 357.8243,587.4580 c 0.0000,0.4412 0.1050,0.7983 0.1050 0.7983c 0.1050,0.3571 0.2994,0.6145 0.2994 0.6145c 0.1943,0.2574 0.4674,0.3992 0.4674 0.3992c 0.2731,0.1418 0.5987,0.1418 0.5987 0.1418c 0.3256,0.0000 0.5987,-0.1418 0.5987 -0.1418c 0.2731,-0.1418 0.4674,-0.3992 0.4674 -0.3992c 0.1943,-0.2574 0.2994,-0.6145 0.2994 -0.6145c 0.1050,-0.3571 0.1050,-0.7983 0.1050 -0.7983c 0.0000,-0.4412 -0.1050,-0.8036 -0.1050 -0.8036c -0.1050,-0.3624 -0.2994,-0.6250 -0.2994 -0.6250c -0.1943,-0.2626 -0.4674,-0.4044 -0.4674 -0.4044c -0.2731,-0.1418 -0.5987,-0.1418 -0.5987 -0.1418c -0.3256,-0.0000 -0.5987,0.1418 -0.5987 0.1418c -0.2731,0.1418 -0.4674,0.4044 -0.4674 0.4044c -0.1943,0.2626 -0.2994,0.6250 -0.2994 0.6250c -0.1050,0.3624 -0.1050,0.8036 -0.1050 0.8036ZM 362.0995,590.0000 ZM 362.6142,591.4076 l 0.1891,0.0473 c 0.0000,0.0000 0.1996,0.0263 0.1996 0.0263c 0.4412,0.0000 0.7195,-0.3099 0.7195 -0.3099c 0.2784,-0.3099 0.4359,-0.7826 0.4359 -0.7826l 0.1155,-0.3782 l -2.0483,-5.1155 h 0.8929 l 1.0399,2.8256 c 0.1155,0.3361 0.2468,0.7090 0.2468 0.7090c 0.1313,0.3729 0.2468,0.7300 0.2468 0.7300h 0.0420 c 0.1155,-0.3466 0.2206,-0.7248 0.2206 -0.7248c 0.1050,-0.3782 0.2101,-0.7143 0.2101 -0.7143l 0.9139,-2.8256 h 0.8403 l -1.9223,5.5252 c -0.1366,0.3782 -0.3046,0.7038 -0.3046 0.7038c -0.1681,0.3256 -0.3992,0.5620 -0.3992 0.5620c -0.2311,0.2363 -0.5252,0.3729 -0.5252 0.3729c -0.2941,0.1366 -0.6828,0.1366 -0.6828 0.1366c -0.1786,-0.0000 -0.3256,-0.0263 -0.3256 -0.0263c -0.1471,-0.0263 -0.2731,-0.0788 -0.2731 -0.0788l 0.1681,-0.6828 h 0.0000 ZM 366.9630,590.0000 ZM 367.4462,587.4580 c 0.0000,-0.6303 0.1943,-1.1292 0.1943 -1.1292c 0.1943,-0.4989 0.5147,-0.8456 0.5147 -0.8456c 0.3204,-0.3466 0.7300,-0.5305 0.7300 -0.5305c 0.4097,-0.1838 0.8508,-0.1838 0.8508 -0.1838c 0.4832,0.0000 0.8666,0.1681 0.8666 0.1681c 0.3834,0.1681 0.6408,0.4832 0.6408 0.4832c 0.2574,0.3151 0.3939,0.7563 0.3939 0.7563c 0.1366,0.4412 0.1366,0.9874 0.1366 0.9874c 0.0000,0.2836 -0.0315,0.4727 -0.0315 0.4727h -3.4454 c 0.0525,0.8298 0.5095,1.3130 0.5095 1.3130c 0.4569,0.4832 1.1922,0.4832 1.1922 0.4832c 0.3676,0.0000 0.6775,-0.1103 0.6775 -0.1103c 0.3099,-0.1103 0.5935,-0.2889 0.5935 -0.2889l 0.3046,0.5672 c -0.3361,0.2101 -0.7458,0.3676 -0.7458 0.3676c -0.4097,0.1576 -0.9349,0.1576 -0.9349 0.1576c -0.5147,-0.0000 -0.9611,-0.1838 -0.9611 -0.1838c -0.4464,-0.1838 -0.7773,-0.5252 -0.7773 -0.5252c -0.3309,-0.3414 -0.5200,-0.8351 -0.5200 -0.8351c -0.1891,-0.4937 -0.1891,-1.1239 -0.1891 -1.1239ZM 367.4462,587.4580 ZM 371.0176,587.0693 c 0.0000,-0.7878 -0.3309,-1.2027 -0.3309 -1.2027c -0.3309,-0.4149 -0.9296,-0.4149 -0.9296 -0.4149c -0.2731,-0.0000 -0.5200,0.1103 -0.5200 0.1103c -0.2468,0.1103 -0.4464,0.3151 -0.4464 0.3151c -0.1996,0.2048 -0.3309,0.5042 -0.3309 0.5042c -0.1313,0.2994 -0.1733,0.6880 -0.1733 0.6880h 2.7311 ZM 372.1731,590.0000 ZM 372.6668,587.4580 c 0.0000,-0.6197 0.1838,-1.1187 0.1838 -1.1187c 0.1838,-0.4989 0.4884,-0.8456 0.4884 -0.8456c 0.3046,-0.3466 0.7038,-0.5357 0.7038 -0.5357c 0.3992,-0.1891 0.8403,-0.1891 0.8403 -0.1891c 0.4412,0.0000 0.7668,0.1576 0.7668 0.1576c 0.3256,0.1576 0.6618,0.4307 0.6618 0.4307l -0.0420,-0.8718 v -1.9643 h 0.8718 v 7.4790 h -0.7143 l -0.0735,-0.5987 h -0.0315 c -0.3046,0.2941 -0.6985,0.5095 -0.6985 0.5095c -0.3939,0.2153 -0.8456,0.2153 -0.8456 0.2153c -0.9664,-0.0000 -1.5389,-0.6933 -1.5389 -0.6933c -0.5725,-0.6933 -0.5725,-1.9748 -0.5725 -1.9748ZM 372.6668,587.4580 ZM 373.5596,587.4475 c 0.0000,0.9244 0.3676,1.4391 0.3676 1.4391c 0.3676,0.5147 1.0399,0.5147 1.0399 0.5147c 0.3571,0.0000 0.6723,-0.1733 0.6723 -0.1733c 0.3151,-0.1733 0.6303,-0.5305 0.6303 -0.5305v -2.6681 c -0.3256,-0.2941 -0.6250,-0.4149 -0.6250 -0.4149c -0.2994,-0.1208 -0.6145,-0.1208 -0.6145 -0.1208c -0.3046,-0.0000 -0.5725,0.1418 -0.5725 0.1418c -0.2679,0.1418 -0.4674,0.3992 -0.4674 0.3992c -0.1996,0.2574 -0.3151,0.6145 -0.3151 0.6145c -0.1155,0.3571 -0.1155,0.7983 -0.1155 0.7983Z"/></g><g stroke-linejoin="bevel" stroke-opacity="0.0" fill-opacity="1.0" stroke="rgb(0,0,0)" stroke-width="0.0" fill="rgb(0,0,0)" stroke-linecap="butt" stroke-miterlimit="10.0"><path d="M 451.5297,590.0000 ZM 452.4751,583.1092 h 0.8718 v 6.1450 h 3.0147 v 0.7458 h -3.8866 v -6.8908 ZM 456.5087,590.0000 ZM 456.9919,587.4580 c 0.0000,-0.6408 0.1943,-1.1397 0.1943 -1.1397c 0.1943,-0.4989 0.5200,-0.8456 0.5200 -0.8456c 0.3256,-0.3466 0.7511,-0.5252 0.7511 -0.5252c 0.4254,-0.1786 0.8981,-0.1786 0.8981 -0.1786c 0.4727,0.0000 0.8981,0.1786 0.8981 0.1786c 0.4254,0.1786 0.7511,0.5252 0.7511 0.5252c 0.3256,0.3466 0.5200,0.8456 0.5200 0.8456c 0.1943,0.4989 0.1943,1.1397 0.1943 1.1397c 0.0000,0.6303 -0.1943,1.1292 -0.1943 1.1292c -0.1943,0.4989 -0.5200,0.8403 -0.5200 0.8403c -0.3256,0.3414 -0.7511,0.5200 -0.7511 0.5200c -0.4254,0.1786 -0.8981,0.1786 -0.8981 0.1786c -0.4727,-0.0000 -0.8981,-0.1786 -0.8981 -0.1786c -0.4254,-0.1786 -0.7511,-0.5200 -0.7511 -0.5200c -0.3256,-0.3414 -0.5200,-0.8403 -0.5200 -0.8403c -0.1943,-0.4989 -0.1943,-1.1292 -0.1943 -1.1292ZM 456.9919,587.4580 ZM 457.8847,587.4580 c 0.0000,0.4412 0.1050,0.7983 0.1050 0.7983c 0.1050,0.3571 0.2994,0.6145 0.2994 0.6145c 0.1943,0.2574 0.4674,0.3992 0.4674 0.3992c 0.2731,0.1418 0.5987,0.1418 0.5987 0.1418c 0.3256,0.0000 0.5987,-0.1418 0.5987 -0.1418c 0.2731,-0.1418 0.4674,-0.3992 0.4674 -0.3992c 0.1943,-0.2574 0.2994,-0.6145 0.2994 -0.6145c 0.1050,-0.3571 0.1050,-0.7983 0.1050 -0.7983c 0.0000,-0.4412 -0.1050,-0.8036 -0.1050 -0.8036c -0.1050,-0.3624 -0.2994,-0.6250 -0.2994 -0.6250c -0.1943,-0.2626 -0.4674,-0.4044 -0.4674 -0.4044c -0.2731,-0.1418 -0.5987,-0.1418 -0.5987 -0.1418c -0.3256,-0.0000 -0.5987,0.1418 -0.5987 0.1418c -0.2731,0.1418 -0.4674,0.4044 -0.4674 0.4044c -0.1943,0.2626 -0.2994,0.6250 -0.2994 0.6250c -0.1050,0.3624 -0.1050,0.8036 -0.1050 0.8036ZM 462.2019,590.0000 ZM 462.6851,587.4580 c 0.0000,-0.6408 0.1943,-1.1397 0.1943 -1.1397c 0.1943,-0.4989 0.5200,-0.8456 0.5200 -0.8456c 0.3256,-0.3466 0.7511,-0.5252 0.7511 -0.5252c 0.4254,-0.1786 0.8981,-0.1786 0.8981 -0.1786c 0.4727,0.0000 0.8981,0.1786 0.8981 0.1786c 0.4254,0.1786 0.7511,0.5252 0.7511 0.5252c 0.3256,0.3466 0.5200,0.8456 0.5200 0.8456c 0.1943,0.4989 0.1943,1.1397 0.1943 1.1397c 0.0000,0.6303 -0.1943,1.1292 -0.1943 1.1292c -0.1943,0.4989 -0.5200,0.8403 -0.5200 0.8403c -0.3256,0.3414 -0.7511,0.5200 -0.7511 0.5200c -0.4254,0.1786 -0.8981,0.1786 -0.8981 0.1786c -0.4727,-0.0000 -0.8981,-0.1786 -0.8981 -0.1786c -0.4254,-0.1786 -0.7511,-0.5200 -0.7511 -0.5200c -0.3256,-0.3414 -0.5200,-0.8403 -0.5200 -0.8403c -0.1943,-0.4989 -0.1943,-1.1292 -0.1943 -1.1292ZM 462.6851,587.4580 ZM 463.5780,587.4580 c 0.0000,0.4412 0.1050,0.7983 0.1050 0.7983c 0.1050,0.3571 0.2994,0.6145 0.2994 0.6145c 0.1943,0.2574 0.4674,0.3992 0.4674 0.3992c 0.2731,0.1418 0.5987,0.1418 0.5987 0.1418c 0.3256,0.0000 0.5987,-0.1418 0.5987 -0.1418c 0.2731,-0.1418 0.4674,-0.3992 0.4674 -0.3992c 0.1943,-0.2574 0.2994,-0.6145 0.2994 -0.6145c 0.1050,-0.3571 0.1050,-0.7983 0.1050 -0.7983c 0.0000,-0.4412 -0.1050,-0.8036 -0.1050 -0.8036c -0.1050,-0.3624 -0.2994,-0.6250 -0.2994 -0.6250c -0.1943,-0.2626 -0.4674,-0.4044 -0.4674 -0.4044c -0.2731,-0.1418 -0.5987,-0.1418 -0.5987 -0.1418c -0.3256,-0.0000 -0.5987,0.1418 -0.5987 0.1418c -0.2731,0.1418 -0.4674,0.4044 -0.4674 0.4044c -0.1943,0.2626 -0.2994,0.6250 -0.2994 0.6250c -0.1050,0.3624 -0.1050,0.8036 -0.1050 0.8036ZM 467.8952,590.0000 ZM 468.7566,582.5210 h 0.8508 v 5.0630 h 0.0315 l 2.1744,-2.6891 h 0.9559 l -1.7122,2.0483 l 1.9433,3.0567 h -0.9454 l -1.4916,-2.4580 l -0.9559,1.1134 v 1.3445 h -0.8508 v -7.4790 ZM 473.0948,590.0000 ZM 474.3973,583.8445 c -0.2521,-0.0000 -0.4254,-0.1576 -0.4254 -0.1576c -0.1733,-0.1576 -0.1733,-0.3992 -0.1733 -0.3992c 0.0000,-0.2521 0.1733,-0.4044 0.1733 -0.4044c 0.1733,-0.1523 0.4254,-0.1523 0.4254 -0.1523c 0.2521,0.0000 0.4254,0.1523 0.4254 0.1523c 0.1733,0.1523 0.1733,0.4044 0.1733 0.4044c 0.0000,0.2416 -0.1733,0.3992 -0.1733 0.3992c -0.1733,0.1576 -0.4254,0.1576 -0.4254 0.1576ZM 474.3973,583.8445 ZM 473.9561,584.8950 h 0.8613 v 5.1050 h -0.8613 v -5.1050 ZM 475.6788,590.0000 ZM 476.5402,584.8950 h 0.7143 l 0.0735,0.7353 h 0.0315 c 0.3676,-0.3676 0.7721,-0.6145 0.7721 -0.6145c 0.4044,-0.2468 0.9401,-0.2468 0.9401 -0.2468c 0.8088,0.0000 1.1817,0.5042 1.1817 0.5042c 0.3729,0.5042 0.3729,1.4916 0.3729 1.4916v 3.2353 h -0.8613 v -3.1197 c 0.0000,-0.7248 -0.2311,-1.0452 -0.2311 -1.0452c -0.2311,-0.3204 -0.7353,-0.3204 -0.7353 -0.3204c -0.3992,-0.0000 -0.7038,0.1996 -0.7038 0.1996c -0.3046,0.1996 -0.6933,0.5882 -0.6933 0.5882v 3.6975 h -0.8613 v -5.1050 ZM 481.4246,590.0000 ZM 482.6536,590.8613 c 0.0000,0.4097 0.3939,0.6513 0.3939 0.6513c 0.3939,0.2416 1.0872,0.2416 1.0872 0.2416c 0.3676,0.0000 0.6670,-0.0893 0.6670 -0.0893c 0.2994,-0.0893 0.5095,-0.2311 0.5095 -0.2311c 0.2101,-0.1418 0.3256,-0.3309 0.3256 -0.3309c 0.1155,-0.1891 0.1155,-0.3887 0.1155 -0.3887c 0.0000,-0.3571 -0.2626,-0.4937 -0.2626 -0.4937c -0.2626,-0.1366 -0.7668,-0.1366 -0.7668 -0.1366h -0.8824 c -0.1471,-0.0000 -0.3204,-0.0158 -0.3204 -0.0158c -0.1733,-0.0158 -0.3414,-0.0683 -0.3414 -0.0683c -0.2731,0.1996 -0.3992,0.4202 -0.3992 0.4202c -0.1261,0.2206 -0.1261,0.4412 -0.1261 0.4412ZM 482.6536,590.8613 ZM 481.8973,590.9769 c 0.0000,-0.3256 0.1996,-0.6197 0.1996 -0.6197c 0.1996,-0.2941 0.5462,-0.5357 0.5462 -0.5357v -0.0420 c -0.1891,-0.1155 -0.3204,-0.3204 -0.3204 -0.3204c -0.1313,-0.2048 -0.1313,-0.5095 -0.1313 -0.5095c 0.0000,-0.3256 0.1786,-0.5672 0.1786 -0.5672c 0.1786,-0.2416 0.3782,-0.3782 0.3782 -0.3782v -0.0420 c -0.2521,-0.2101 -0.4569,-0.5620 -0.4569 -0.5620c -0.2048,-0.3519 -0.2048,-0.8141 -0.2048 -0.8141c 0.0000,-0.4202 0.1523,-0.7563 0.1523 -0.7563c 0.1523,-0.3361 0.4149,-0.5725 0.4149 -0.5725c 0.2626,-0.2363 0.6145,-0.3624 0.6145 -0.3624c 0.3519,-0.1261 0.7405,-0.1261 0.7405 -0.1261c 0.2101,0.0000 0.3939,0.0368 0.3939 0.0368c 0.1838,0.0368 0.3309,0.0893 0.3309 0.0893h 1.7752 v 0.6618 h -1.0504 c 0.1786,0.1786 0.2994,0.4517 0.2994 0.4517c 0.1208,0.2731 0.1208,0.5987 0.1208 0.5987c 0.0000,0.4097 -0.1471,0.7405 -0.1471 0.7405c -0.1471,0.3309 -0.3992,0.5567 -0.3992 0.5567c -0.2521,0.2258 -0.5935,0.3519 -0.5935 0.3519c -0.3414,0.1261 -0.7300,0.1261 -0.7300 0.1261c -0.1891,-0.0000 -0.3887,-0.0473 -0.3887 -0.0473c -0.1996,-0.0473 -0.3782,-0.1313 -0.3782 -0.1313c -0.1366,0.1155 -0.2311,0.2574 -0.2311 0.2574c -0.0945,0.1418 -0.0945,0.3519 -0.0945 0.3519c 0.0000,0.2416 0.1891,0.3992 0.1891 0.3992c 0.1891,0.1576 0.7143,0.1576 0.7143 0.1576h 0.9874 c 0.8929,0.0000 1.3393,0.2889 1.3393 0.2889c 0.4464,0.2889 0.4464,0.9296 0.4464 0.9296c 0.0000,0.3571 -0.1786,0.6775 -0.1786 0.6775c -0.1786,0.3204 -0.5147,0.5620 -0.5147 0.5620c -0.3361,0.2416 -0.8141,0.3834 -0.8141 0.3834c -0.4779,0.1418 -1.0767,0.1418 -1.0767 0.1418c -0.4727,-0.0000 -0.8613,-0.0893 -0.8613 -0.0893c -0.3887,-0.0893 -0.6670,-0.2679 -0.6670 -0.2679c -0.2784,-0.1786 -0.4307,-0.4307 -0.4307 -0.4307c -0.1523,-0.2521 -0.1523,-0.5882 -0.1523 -0.5882ZM 481.8973,590.9769 ZM 484.0087,587.8046 c 0.2206,0.0000 0.4149,-0.0840 0.4149 -0.0840c 0.1943,-0.0840 0.3466,-0.2416 0.3466 -0.2416c 0.1523,-0.1576 0.2363,-0.3834 0.2363 -0.3834c 0.0840,-0.2258 0.0840,-0.5095 0.0840 -0.5095c 0.0000,-0.5672 -0.3151,-0.8771 -0.3151 -0.8771c -0.3151,-0.3099 -0.7668,-0.3099 -0.7668 -0.3099c -0.4517,-0.0000 -0.7668,0.3099 -0.7668 0.3099c -0.3151,0.3099 -0.3151,0.8771 -0.3151 0.8771c 0.0000,0.2836 0.0840,0.5095 0.0840 0.5095c 0.0840,0.2258 0.2363,0.3834 0.2363 0.3834c 0.1523,0.1576 0.3466,0.2416 0.3466 0.2416c 0.1943,0.0840 0.4149,0.0840 0.4149 0.0840Z"/></g><g stroke-linejoin="bevel" stroke-opacity="0.0" fill-opacity="1.0" stroke="rgb(0,0,0)" stroke-width="0.0" fill="rgb(0,0,0)" stroke-linecap="butt" stroke-miterlimit="10.0"><path d="M 566.1699,590.0000 ZM 567.1153,583.1092 h 0.9034 l 2.4895,4.3277 l 0.7458,1.4286 h 0.0420 c -0.0315,-0.5252 -0.0683,-1.0872 -0.0683 -1.0872c -0.0368,-0.5620 -0.0368,-1.1082 -0.0368 -1.1082v -3.5609 h 0.8298 v 6.8908 h -0.9034 l -2.5000,-4.3382 l -0.7458,-1.4181 h -0.0420 c 0.0420,0.5252 0.0788,1.0662 0.0788 1.0662c 0.0368,0.5410 0.0368,1.0872 0.0368 1.0872v 3.6029 h -0.8298 v -6.8908 ZM 572.9661,590.0000 ZM 573.4493,587.4580 c 0.0000,-0.6408 0.1943,-1.1397 0.1943 -1.1397c 0.1943,-0.4989 0.5200,-0.8456 0.5200 -0.8456c 0.3256,-0.3466 0.7511,-0.5252 0.7511 -0.5252c 0.4254,-0.1786 0.8981,-0.1786 0.8981 -0.1786c 0.4727,0.0000 0.8981,0.1786 0.8981 0.1786c 0.4254,0.1786 0.7511,0.5252 0.7511 0.5252c 0.3256,0.3466 0.5200,0.8456 0.5200 0.8456c 0.1943,0.4989 0.1943,1.1397 0.1943 1.1397c 0.0000,0.6303 -0.1943,1.1292 -0.1943 1.1292c -0.1943,0.4989 -0.5200,0.8403 -0.5200 0.8403c -0.3256,0.3414 -0.7511,0.5200 -0.7511 0.5200c -0.4254,0.1786 -0.8981,0.1786 -0.8981 0.1786c -0.4727,-0.0000 -0.8981,-0.1786 -0.8981 -0.1786c -0.4254,-0.1786 -0.7511,-0.5200 -0.7511 -0.5200c -0.3256,-0.3414 -0.5200,-0.8403 -0.5200 -0.8403c -0.1943,-0.4989 -0.1943,-1.1292 -0.1943 -1.1292ZM 573.4493,587.4580 ZM 574.3422,587.4580 c 0.0000,0.4412 0.1050,0.7983 0.1050 0.7983c 0.1050,0.3571 0.2994,0.6145 0.2994 0.6145c 0.1943,0.2574 0.4674,0.3992 0.4674 0.3992c 0.2731,0.1418 0.5987,0.1418 0.5987 0.1418c 0.3256,0.0000 0.5987,-0.1418 0.5987 -0.1418c 0.2731,-0.1418 0.4674,-0.3992 0.4674 -0.3992c 0.1943,-0.2574 0.2994,-0.6145 0.2994 -0.6145c 0.1050,-0.3571 0.1050,-0.7983 0.1050 -0.7983c 0.0000,-0.4412 -0.1050,-0.8036 -0.1050 -0.8036c -0.1050,-0.3624 -0.2994,-0.6250 -0.2994 -0.6250c -0.1943,-0.2626 -0.4674,-0.4044 -0.4674 -0.4044c -0.2731,-0.1418 -0.5987,-0.1418 -0.5987 -0.1418c -0.3256,-0.0000 -0.5987,0.1418 -0.5987 0.1418c -0.2731,0.1418 -0.4674,0.4044 -0.4674 0.4044c -0.1943,0.2626 -0.2994,0.6250 -0.2994 0.6250c -0.1050,0.3624 -0.1050,0.8036 -0.1050 0.8036ZM 578.6594,590.0000 ZM 579.6678,585.5987 h -0.7563 v -0.6513 l 0.7983,-0.0525 l 0.1050,-1.4286 h 0.7248 v 1.4286 h 1.3761 v 0.7038 h -1.3761 v 2.8361 c 0.0000,0.4727 0.1733,0.7300 0.1733 0.7300c 0.1733,0.2574 0.6145,0.2574 0.6145 0.2574c 0.1366,0.0000 0.2941,-0.0420 0.2941 -0.0420c 0.1576,-0.0420 0.2836,-0.0945 0.2836 -0.0945l 0.1681,0.6513 c -0.2101,0.0735 -0.4569,0.1313 -0.4569 0.1313c -0.2468,0.0578 -0.4884,0.0578 -0.4884 0.0578c -0.4097,-0.0000 -0.6880,-0.1261 -0.6880 -0.1261c -0.2784,-0.1261 -0.4517,-0.3466 -0.4517 -0.3466c -0.1733,-0.2206 -0.2468,-0.5357 -0.2468 -0.5357c -0.0735,-0.3151 -0.0735,-0.6933 -0.0735 -0.6933v -2.8256 ZM 584.3317,590.0000 ZM 585.1930,582.5210 h 0.8613 v 6.5126 c 0.0000,0.2101 0.0735,0.2941 0.0735 0.2941c 0.0735,0.0840 0.1681,0.0840 0.1681 0.0840h 0.0788 c 0.0000,0.0000 0.1103,-0.0210 0.1103 -0.0210l 0.1155,0.6513 c -0.0840,0.0420 -0.1996,0.0630 -0.1996 0.0630c -0.1155,0.0210 -0.2941,0.0210 -0.2941 0.0210c -0.4937,-0.0000 -0.7038,-0.2941 -0.7038 -0.2941c -0.2101,-0.2941 -0.2101,-0.8613 -0.2101 -0.8613v -6.4496 ZM 587.0102,590.0000 ZM 587.4934,587.4580 c 0.0000,-0.6408 0.1943,-1.1397 0.1943 -1.1397c 0.1943,-0.4989 0.5200,-0.8456 0.5200 -0.8456c 0.3256,-0.3466 0.7511,-0.5252 0.7511 -0.5252c 0.4254,-0.1786 0.8981,-0.1786 0.8981 -0.1786c 0.4727,0.0000 0.8981,0.1786 0.8981 0.1786c 0.4254,0.1786 0.7511,0.5252 0.7511 0.5252c 0.3256,0.3466 0.5200,0.8456 0.5200 0.8456c 0.1943,0.4989 0.1943,1.1397 0.1943 1.1397c 0.0000,0.6303 -0.1943,1.1292 -0.1943 1.1292c -0.1943,0.4989 -0.5200,0.8403 -0.5200 0.8403c -0.3256,0.3414 -0.7511,0.5200 -0.7511 0.5200c -0.4254,0.1786 -0.8981,0.1786 -0.8981 0.1786c -0.4727,-0.0000 -0.8981,-0.1786 -0.8981 -0.1786c -0.4254,-0.1786 -0.7511,-0.5200 -0.7511 -0.5200c -0.3256,-0.3414 -0.5200,-0.8403 -0.5200 -0.8403c -0.1943,-0.4989 -0.1943,-1.1292 -0.1943 -1.1292ZM 587.4934,587.4580 ZM 588.3863,587.4580 c 0.0000,0.4412 0.1050,0.7983 0.1050 0.7983c 0.1050,0.3571 0.2994,0.6145 0.2994 0.6145c 0.1943,0.2574 0.4674,0.3992 0.4674 0.3992c 0.2731,0.1418 0.5987,0.1418 0.5987 0.1418c 0.3256,0.0000 0.5987,-0.1418 0.5987 -0.1418c 0.2731,-0.1418 0.4674,-0.3992 0.4674 -0.3992c 0.1943,-0.2574 0.2994,-0.6145 0.2994 -0.6145c 0.1050,-0.3571 0.1050,-0.7983 0.1050 -0.7983c 0.0000,-0.4412 -0.1050,-0.8036 -0.1050 -0.8036c -0.1050,-0.3624 -0.2994,-0.6250 -0.2994 -0.6250c -0.1943,-0.2626 -0.4674,-0.4044 -0.4674 -0.4044c -0.2731,-0.1418 -0.5987,-0.1418 -0.5987 -0.1418c -0.3256,-0.0000 -0.5987,0.1418 -0.5987 0.1418c -0.2731,0.1418 -0.4674,0.4044 -0.4674 0.4044c -0.1943,0.2626 -0.2994,0.6250 -0.2994 0.6250c -0.1050,0.3624 -0.1050,0.8036 -0.1050 0.8036ZM 592.7035,590.0000 ZM 593.1867,587.4580 c 0.0000,-0.6408 0.1943,-1.1397 0.1943 -1.1397c 0.1943,-0.4989 0.5200,-0.8456 0.5200 -0.8456c 0.3256,-0.3466 0.7511,-0.5252 0.7511 -0.5252c 0.4254,-0.1786 0.8981,-0.1786 0.8981 -0.1786c 0.4727,0.0000 0.8981,0.1786 0.8981 0.1786c 0.4254,0.1786 0.7511,0.5252 0.7511 0.5252c 0.3256,0.3466 0.5200,0.8456 0.5200 0.8456c 0.1943,0.4989 0.1943,1.1397 0.1943 1.1397c 0.0000,0.6303 -0.1943,1.1292 -0.1943 1.1292c -0.1943,0.4989 -0.5200,0.8403 -0.5200 0.8403c -0.3256,0.3414 -0.7511,0.5200 -0.7511 0.5200c -0.4254,0.1786 -0.8981,0.1786 -0.8981 0.1786c -0.4727,-0.0000 -0.8981,-0.1786 -0.8981 -0.1786c -0.4254,-0.1786 -0.7511,-0.5200 -0.7511 -0.5200c -0.3256,-0.3414 -0.5200,-0.8403 -0.5200 -0.8403c -0.1943,-0.4989 -0.1943,-1.1292 -0.1943 -1.1292ZM 593.1867,587.4580 ZM 594.0796,587.4580 c 0.0000,0.4412 0.1050,0.7983 0.1050 0.7983c 0.1050,0.3571 0.2994,0.6145 0.2994 0.6145c 0.1943,0.2574 0.4674,0.3992 0.4674 0.3992c 0.2731,0.1418 0.5987,0.1418 0.5987 0.1418c 0.3256,0.0000 0.5987,-0.1418 0.5987 -0.1418c 0.2731,-0.1418 0.4674,-0.3992 0.4674 -0.3992c 0.1943,-0.2574 0.2994,-0.6145 0.2994 -0.6145c 0.1050,-0.3571 0.1050,-0.7983 0.1050 -0.7983c 0.0000,-0.4412 -0.1050,-0.8036 -0.1050 -0.8036c -0.1050,-0.3624 -0.2994,-0.6250 -0.2994 -0.6250c -0.1943,-0.2626 -0.4674,-0.4044 -0.4674 -0.4044c -0.2731,-0.1418 -0.5987,-0.1418 -0.5987 -0.1418c -0.3256,-0.0000 -0.5987,0.1418 -0.5987 0.1418c -0.2731,0.1418 -0.4674,0.4044 -0.4674 0.4044c -0.1943,0.2626 -0.2994,0.6250 -0.2994 0.6250c -0.1050,0.3624 -0.1050,0.8036 -0.1050 0.8036ZM 598.3968,590.0000 ZM 599.2581,582.5210 h 0.8508 v 5.0630 h 0.0315 l 2.1744,-2.6891 h 0.9559 l -1.7122,2.0483 l 1.9433,3.0567 h -0.9454 l -1.4916,-2.4580 l -0.9559,1.1134 v 1.3445 h -0.8508 v -7.4790 ZM 603.5964,590.0000 ZM 604.8989,583.8445 c -0.2521,-0.0000 -0.4254,-0.1576 -0.4254 -0.1576c -0.1733,-0.1576 -0.1733,-0.3992 -0.1733 -0.3992c 0.0000,-0.2521 0.1733,-0.4044 0.1733 -0.4044c 0.1733,-0.1523 0.4254,-0.1523 0.4254 -0.1523c 0.2521,0.0000 0.4254,0.1523 0.4254 0.1523c 0.1733,0.1523 0.1733,0.4044 0.1733 0.4044c 0.0000,0.2416 -0.1733,0.3992 -0.1733 0.3992c -0.1733,0.1576 -0.4254,0.1576 -0.4254 0.1576ZM 604.8989,583.8445 ZM 604.4577,584.8950 h 0.8613 v 5.1050 h -0.8613 v -5.1050 ZM 606.1804,590.0000 ZM 607.0418,584.8950 h 0.7143 l 0.0735,0.7353 h 0.0315 c 0.3676,-0.3676 0.7721,-0.6145 0.7721 -0.6145c 0.4044,-0.2468 0.9401,-0.2468 0.9401 -0.2468c 0.8088,0.0000 1.1817,0.5042 1.1817 0.5042c 0.3729,0.5042 0.3729,1.4916 0.3729 1.4916v 3.2353 h -0.8613 v -3.1197 c 0.0000,-0.7248 -0.2311,-1.0452 -0.2311 -1.0452c -0.2311,-0.3204 -0.7353,-0.3204 -0.7353 -0.3204c -0.3992,-0.0000 -0.7038,0.1996 -0.7038 0.1996c -0.3046,0.1996 -0.6933,0.5882 -0.6933 0.5882v 3.6975 h -0.8613 v -5.1050 ZM 611.9262,590.0000 ZM 613.1552,590.8613 c 0.0000,0.4097 0.3939,0.6513 0.3939 0.6513c 0.3939,0.2416 1.0872,0.2416 1.0872 0.2416c 0.3676,0.0000 0.6670,-0.0893 0.6670 -0.0893c 0.2994,-0.0893 0.5095,-0.2311 0.5095 -0.2311c 0.2101,-0.1418 0.3256,-0.3309 0.3256 -0.3309c 0.1155,-0.1891 0.1155,-0.3887 0.1155 -0.3887c 0.0000,-0.3571 -0.2626,-0.4937 -0.2626 -0.4937c -0.2626,-0.1366 -0.7668,-0.1366 -0.7668 -0.1366h -0.8824 c -0.1471,-0.0000 -0.3204,-0.0158 -0.3204 -0.0158c -0.1733,-0.0158 -0.3414,-0.0683 -0.3414 -0.0683c -0.2731,0.1996 -0.3992,0.4202 -0.3992 0.4202c -0.1261,0.2206 -0.1261,0.4412 -0.1261 0.4412ZM 613.1552,590.8613 ZM 612.3989,590.9769 c 0.0000,-0.3256 0.1996,-0.6197 0.1996 -0.6197c 0.1996,-0.2941 0.5462,-0.5357 0.5462 -0.5357v -0.0420 c -0.1891,-0.1155 -0.3204,-0.3204 -0.3204 -0.3204c -0.1313,-0.2048 -0.1313,-0.5095 -0.1313 -0.5095c 0.0000,-0.3256 0.1786,-0.5672 0.1786 -0.5672c 0.1786,-0.2416 0.3782,-0.3782 0.3782 -0.3782v -0.0420 c -0.2521,-0.2101 -0.4569,-0.5620 -0.4569 -0.5620c -0.2048,-0.3519 -0.2048,-0.8141 -0.2048 -0.8141c 0.0000,-0.4202 0.1523,-0.7563 0.1523 -0.7563c 0.1523,-0.3361 0.4149,-0.5725 0.4149 -0.5725c 0.2626,-0.2363 0.6145,-0.3624 0.6145 -0.3624c 0.3519,-0.1261 0.7405,-0.1261 0.7405 -0.1261c 0.2101,0.0000 0.3939,0.0368 0.3939 0.0368c 0.1838,0.0368 0.3309,0.0893 0.3309 0.0893h 1.7752 v 0.6618 h -1.0504 c 0.1786,0.1786 0.2994,0.4517 0.2994 0.4517c 0.1208,0.2731 0.1208,0.5987 0.1208 0.5987c 0.0000,0.4097 -0.1471,0.7405 -0.1471 0.7405c -0.1471,0.3309 -0.3992,0.5567 -0.3992 0.5567c -0.2521,0.2258 -0.5935,0.3519 -0.5935 0.3519c -0.3414,0.1261 -0.7300,0.1261 -0.7300 0.1261c -0.1891,-0.0000 -0.3887,-0.0473 -0.3887 -0.0473c -0.1996,-0.0473 -0.3782,-0.1313 -0.3782 -0.1313c -0.1366,0.1155 -0.2311,0.2574 -0.2311 0.2574c -0.0945,0.1418 -0.0945,0.3519 -0.0945 0.3519c 0.0000,0.2416 0.1891,0.3992 0.1891 0.3992c 0.1891,0.1576 0.7143,0.1576 0.7143 0.1576h 0.9874 c 0.8929,0.0000 1.3393,0.2889 1.3393 0.2889c 0.4464,0.2889 0.4464,0.9296 0.4464 0.9296c 0.0000,0.3571 -0.1786,0.6775 -0.1786 0.6775c -0.1786,0.3204 -0.5147,0.5620 -0.5147 0.5620c -0.3361,0.2416 -0.8141,0.3834 -0.8141 0.3834c -0.4779,0.1418 -1.0767,0.1418 -1.0767 0.1418c -0.4727,-0.0000 -0.8613,-0.0893 -0.8613 -0.0893c -0.3887,-0.0893 -0.6670,-0.2679 -0.6670 -0.2679c -0.2784,-0.1786 -0.4307,-0.4307 -0.4307 -0.4307c -0.1523,-0.2521 -0.1523,-0.5882 -0.1523 -0.5882ZM 612.3989,590.9769 ZM 614.5102,587.8046 c 0.2206,0.0000 0.4149,-0.0840 0.4149 -0.0840c 0.1943,-0.0840 0.3466,-0.2416 0.3466 -0.2416c 0.1523,-0.1576 0.2363,-0.3834 0.2363 -0.3834c 0.0840,-0.2258 0.0840,-0.5095 0.0840 -0.5095c 0.0000,-0.5672 -0.3151,-0.8771 -0.3151 -0.8771c -0.3151,-0.3099 -0.7668,-0.3099 -0.7668 -0.3099c -0.4517,-0.0000 -0.7668,0.3099 -0.7668 0.3099c -0.3151,0.3099 -0.3151,0.8771 -0.3151 0.8771c 0.0000,0.2836 0.0840,0.5095 0.0840 0.5095c 0.0840,0.2258 0.2363,0.3834 0.2363 0.3834c 0.1523,0.1576 0.3466,0.2416 0.3466 0.2416c 0.1943,0.0840 0.4149,0.0840 0.4149 0.0840Z"/></g><g stroke-linejoin="bevel" stroke-opacity="0.0" fill-opacity="1.0" stroke="rgb(0,0,0)" stroke-width="0.0" fill="rgb(0,0,0)" stroke-linecap="butt" stroke-miterlimit="10.0"><path d="M 698.7461,590.0000 ZM 700.5633,586.3761 h 1.1555 c 0.8088,0.0000 1.2395,-0.3309 1.2395 -0.3309c 0.4307,-0.3309 0.4307,-1.0032 0.4307 -1.0032c 0.0000,-0.6828 -0.4307,-0.9559 -0.4307 -0.9559c -0.4307,-0.2731 -1.2395,-0.2731 -1.2395 -0.2731h -1.1555 v 2.5630 ZM 700.5633,586.3761 ZM 703.4730,590.0000 l -1.6597,-2.9097 h -1.2500 v 2.9097 h -0.8718 v -6.8908 h 2.1534 c 0.5252,0.0000 0.9716,0.0998 0.9716 0.0998c 0.4464,0.0998 0.7668,0.3309 0.7668 0.3309c 0.3204,0.2311 0.4989,0.5987 0.4989 0.5987c 0.1786,0.3676 0.1786,0.9034 0.1786 0.9034c 0.0000,0.8088 -0.4202,1.2920 -0.4202 1.2920c -0.4202,0.4832 -1.1239,0.6618 -1.1239 0.6618l 1.7437,3.0042 h -0.9874 ZM 704.7440,590.0000 ZM 705.2272,587.4580 c 0.0000,-0.6303 0.1943,-1.1292 0.1943 -1.1292c 0.1943,-0.4989 0.5147,-0.8456 0.5147 -0.8456c 0.3204,-0.3466 0.7300,-0.5305 0.7300 -0.5305c 0.4097,-0.1838 0.8508,-0.1838 0.8508 -0.1838c 0.4832,0.0000 0.8666,0.1681 0.8666 0.1681c 0.3834,0.1681 0.6408,0.4832 0.6408 0.4832c 0.2574,0.3151 0.3939,0.7563 0.3939 0.7563c 0.1366,0.4412 0.1366,0.9874 0.1366 0.9874c 0.0000,0.2836 -0.0315,0.4727 -0.0315 0.4727h -3.4454 c 0.0525,0.8298 0.5095,1.3130 0.5095 1.3130c 0.4569,0.4832 1.1922,0.4832 1.1922 0.4832c 0.3676,0.0000 0.6775,-0.1103 0.6775 -0.1103c 0.3099,-0.1103 0.5935,-0.2889 0.5935 -0.2889l 0.3046,0.5672 c -0.3361,0.2101 -0.7458,0.3676 -0.7458 0.3676c -0.4097,0.1576 -0.9349,0.1576 -0.9349 0.1576c -0.5147,-0.0000 -0.9611,-0.1838 -0.9611 -0.1838c -0.4464,-0.1838 -0.7773,-0.5252 -0.7773 -0.5252c -0.3309,-0.3414 -0.5200,-0.8351 -0.5200 -0.8351c -0.1891,-0.4937 -0.1891,-1.1239 -0.1891 -1.1239ZM 705.2272,587.4580 ZM 708.7986,587.0693 c 0.0000,-0.7878 -0.3309,-1.2027 -0.3309 -1.2027c -0.3309,-0.4149 -0.9296,-0.4149 -0.9296 -0.4149c -0.2731,-0.0000 -0.5200,0.1103 -0.5200 0.1103c -0.2468,0.1103 -0.4464,0.3151 -0.4464 0.3151c -0.1996,0.2048 -0.3309,0.5042 -0.3309 0.5042c -0.1313,0.2994 -0.1733,0.6880 -0.1733 0.6880h 2.7311 ZM 709.8070,590.0000 ZM 710.8154,585.5987 h -0.7563 v -0.6513 l 0.7983,-0.0525 l 0.1050,-1.4286 h 0.7248 v 1.4286 h 1.3761 v 0.7038 h -1.3761 v 2.8361 c 0.0000,0.4727 0.1733,0.7300 0.1733 0.7300c 0.1733,0.2574 0.6145,0.2574 0.6145 0.2574c 0.1366,0.0000 0.2941,-0.0420 0.2941 -0.0420c 0.1576,-0.0420 0.2836,-0.0945 0.2836 -0.0945l 0.1681,0.6513 c -0.2101,0.0735 -0.4569,0.1313 -0.4569 0.1313c -0.2468,0.0578 -0.4884,0.0578 -0.4884 0.0578c -0.4097,-0.0000 -0.6880,-0.1261 -0.6880 -0.1261c -0.2784,-0.1261 -0.4517,-0.3466 -0.4517 -0.3466c -0.1733,-0.2206 -0.2468,-0.5357 -0.2468 -0.5357c -0.0735,-0.3151 -0.0735,-0.6933 -0.0735 -0.6933v -2.8256 ZM 713.3574,590.0000 ZM 714.6599,583.8445 c -0.2521,-0.0000 -0.4254,-0.1576 -0.4254 -0.1576c -0.1733,-0.1576 -0.1733,-0.3992 -0.1733 -0.3992c 0.0000,-0.2521 0.1733,-0.4044 0.1733 -0.4044c 0.1733,-0.1523 0.4254,-0.1523 0.4254 -0.1523c 0.2521,0.0000 0.4254,0.1523 0.4254 0.1523c 0.1733,0.1523 0.1733,0.4044 0.1733 0.4044c 0.0000,0.2416 -0.1733,0.3992 -0.1733 0.3992c -0.1733,0.1576 -0.4254,0.1576 -0.4254 0.1576ZM 714.6599,583.8445 ZM 714.2187,584.8950 h 0.8613 v 5.1050 h -0.8613 v -5.1050 ZM 715.9414,590.0000 ZM 716.8028,584.8950 h 0.7143 l 0.0735,0.9244 h 0.0315 c 0.2626,-0.4832 0.6355,-0.7668 0.6355 -0.7668c 0.3729,-0.2836 0.8141,-0.2836 0.8141 -0.2836c 0.3046,0.0000 0.5462,0.1050 0.5462 0.1050l -0.1681,0.7563 c -0.1261,-0.0420 -0.2311,-0.0630 -0.2311 -0.0630c -0.1050,-0.0210 -0.2626,-0.0210 -0.2626 -0.0210c -0.3256,-0.0000 -0.6775,0.2626 -0.6775 0.2626c -0.3519,0.2626 -0.6145,0.9139 -0.6145 0.9139v 3.2773 h -0.8613 v -5.1050 ZM 719.4814,590.0000 ZM 719.9645,587.4580 c 0.0000,-0.6303 0.1943,-1.1292 0.1943 -1.1292c 0.1943,-0.4989 0.5147,-0.8456 0.5147 -0.8456c 0.3204,-0.3466 0.7300,-0.5305 0.7300 -0.5305c 0.4097,-0.1838 0.8508,-0.1838 0.8508 -0.1838c 0.4832,0.0000 0.8666,0.1681 0.8666 0.1681c 0.3834,0.1681 0.6408,0.4832 0.6408 0.4832c 0.2574,0.3151 0.3939,0.7563 0.3939 0.7563c 0.1366,0.4412 0.1366,0.9874 0.1366 0.9874c 0.0000,0.2836 -0.0315,0.4727 -0.0315 0.4727h -3.4454 c 0.0525,0.8298 0.5095,1.3130 0.5095 1.3130c 0.4569,0.4832 1.1922,0.4832 1.1922 0.4832c 0.3676,0.0000 0.6775,-0.1103 0.6775 -0.1103c 0.3099,-0.1103 0.5935,-0.2889 0.5935 -0.2889l 0.3046,0.5672 c -0.3361,0.2101 -0.7458,0.3676 -0.7458 0.3676c -0.4097,0.1576 -0.9349,0.1576 -0.9349 0.1576c -0.5147,-0.0000 -0.9611,-0.1838 -0.9611 -0.1838c -0.4464,-0.1838 -0.7773,-0.5252 -0.7773 -0.5252c -0.3309,-0.3414 -0.5200,-0.8351 -0.5200 -0.8351c -0.1891,-0.4937 -0.1891,-1.1239 -0.1891 -1.1239ZM 719.9645,587.4580 ZM 723.5360,587.0693 c 0.0000,-0.7878 -0.3309,-1.2027 -0.3309 -1.2027c -0.3309,-0.4149 -0.9296,-0.4149 -0.9296 -0.4149c -0.2731,-0.0000 -0.5200,0.1103 -0.5200 0.1103c -0.2468,0.1103 -0.4464,0.3151 -0.4464 0.3151c -0.1996,0.2048 -0.3309,0.5042 -0.3309 0.5042c -0.1313,0.2994 -0.1733,0.6880 -0.1733 0.6880h 2.7311 ZM 724.6914,590.0000 ZM 725.1851,587.4580 c 0.0000,-0.6197 0.1838,-1.1187 0.1838 -1.1187c 0.1838,-0.4989 0.4884,-0.8456 0.4884 -0.8456c 0.3046,-0.3466 0.7038,-0.5357 0.7038 -0.5357c 0.3992,-0.1891 0.8403,-0.1891 0.8403 -0.1891c 0.4412,0.0000 0.7668,0.1576 0.7668 0.1576c 0.3256,0.1576 0.6618,0.4307 0.6618 0.4307l -0.0420,-0.8718 v -1.9643 h 0.8718 v 7.4790 h -0.7143 l -0.0735,-0.5987 h -0.0315 c -0.3046,0.2941 -0.6985,0.5095 -0.6985 0.5095c -0.3939,0.2153 -0.8456,0.2153 -0.8456 0.2153c -0.9664,-0.0000 -1.5389,-0.6933 -1.5389 -0.6933c -0.5725,-0.6933 -0.5725,-1.9748 -0.5725 -1.9748ZM 725.1851,587.4580 ZM 726.0780,587.4475 c 0.0000,0.9244 0.3676,1.4391 0.3676 1.4391c 0.3676,0.5147 1.0399,0.5147 1.0399 0.5147c 0.3571,0.0000 0.6723,-0.1733 0.6723 -0.1733c 0.3151,-0.1733 0.6303,-0.5305 0.6303 -0.5305v -2.6681 c -0.3256,-0.2941 -0.6250,-0.4149 -0.6250 -0.4149c -0.2994,-0.1208 -0.6145,-0.1208 -0.6145 -0.1208c -0.3046,-0.0000 -0.5725,0.1418 -0.5725 0.1418c -0.2679,0.1418 -0.4674,0.3992 -0.4674 0.3992c -0.1996,0.2574 -0.3151,0.6145 -0.3151 0.6145c -0.1155,0.3571 -0.1155,0.7983 -0.1155 0.7983Z"/></g></svg>