<svg xmlns="http://www.w3.org/2000/svg" viewBox="-365.73 -21.66 1429.56 476.52">
  <path fill="#14A2B7" d="M304.9 80.2H40.1C17.9 80.2 0 62.2 0 40.1S17.9 0 40.1 0h264.8C327 0 345 17.9 345 40.1s-18 40.1-40.1 40.1z"/>
  <path fill="#F15745" d="M658 80.2H481.4c-22.1 0-40.1-17.9-40.1-40.1S459.3 0 481.4 0H658c22.1 0 40 17.9 40 40.1s-17.9 40.1-40 40.1z"/>
  <path fill="#93BC3F" d="M393.2 256.7H40.1C17.9 256.7 0 238.8 0 216.6s17.9-40.1 40.1-40.1h353.1c22.1 0 40.1 17.9 40.1 40.1s-18 40.1-40.1 40.1z"/>
  <path fill="#454A52" d="M658 256.7h-88.3c-22.1 0-40.1-17.9-40.1-40.1s17.9-40.1 40.1-40.1H658c22.1 0 40.1 17.9 40.1 40.1s-18 40.1-40.1 40.1z"/>
  <circle cx="40.1" cy="393.2" r="40.1" fill="#454A52"/>
  <path fill="#FACB34" d="M658 433.2H216.6c-22.1 0-40.1-17.9-40.1-40.1 0-22.1 17.9-40.1 40.1-40.1H658c22.1 0 40.1 17.9 40.1 40.1-.1 22.2-18 40.1-40.1 40.1z"/>
</svg>
