<?xml version="1.0" encoding="utf-8"?>

<svg xmlns="http://www.w3.org/2000/svg" viewBox="610 320 700 440">
  <path d="M1168 323l-25 25c-2.6 2.6-8.8 7-8.8 11 0 3.5 4.6 6.8 6.8 9 6.8 7 13.2 14.2 20 21l60 60 17 17c2.3 2.3 6 5 7 8 1.5 3.6-2.8 6.8-5 9l-19 19c-22.2 22.2-43.8 44.8-66 67l-16 16c-2 2-5.5 4.8-4.7 8 1 3.5 5.3 6.6 7.7 9 6.2 6.2 11.8 12.8 18 19 2.2 2.2 5.4 6.5 9 5.7 3.8-1 7.3-6 10-8.7l24-24c25.2-25.2 49.8-50.8 75-76 10-10 26.7-21.6 30.4-36 5-20-16-34.7-28.4-47-22-22-44.8-43.3-66-66-9.4-10.2-19-20-29-30-5.5-5.5-10.7-11.5-17-16m-353 63c9.6 13.6 24.7 25 37 36.2 4.8 4.4 9.7 12 16 14.2 6.2 2.3 15.5.6 22 .6h217c-12-13-25.8-25.2-39-37.2-4.6-4-9-11-15-13.2-6.2-2.3-15.5-.6-22-.6H815m-63 66c-34.8 34.8-69.2 70.2-104 105l-24 24c-5.6 5.6-11.5 11.6-12 20-1 21.3 20.4 35.4 34 49 35.5 35.5 70.5 71.5 106 107 10-7 18.4-17.4 27-26 2.4-2.4 7.8-6.2 7.8-10 0-3.5-4.6-6.8-6.8-9l-21-21c-19-19.3-37.8-38.8-57-58-9.3-9.3-18.3-20.4-29-28 28.5-28.5 56.5-57.5 85-86l22-22c2.2-2.2 6.8-5.5 6.8-9 0-3.8-5.4-7.6-7.8-10-8.6-8.6-17-19-27-26m62 114h216c6.5 0 15.8 1.7 22-.6 6.8-2.5 14-11.3 19-16.4 7.8-7.8 16-15.4 24-23 4.2-4 8.6-7.2 12-12H891c-6.5 0-15.8-1.7-22 .6-7.4 2.7-14.5 12-20 17.4-11.2 11.2-26 21-35 34m0 77c3.3 4.6 8 8 12 12 8.8 8.7 17.7 17.5 27 25.7 4.5 4 9.4 10.6 15 12.7 6.2 2.3 15.5.6 22 .6h216c-9.4-13.4-24.3-23.6-36-35-5.2-5-11-13-18-15.4-6.6-2.3-16-.6-23-.6H814z"/>
</svg>
