<?xml version="1.0" encoding="utf-8"?>

<svg xmlns="http://www.w3.org/2000/svg" viewBox="75 365 191 111">
  <path fill="#4971A9" d="M116.4,457.5v0.4c0,9.8,7.9,17.7,17.7,17.7c9.8,0,17.7-7.9,17.7-17.7v-19.5L116.4,457.5z"/>
  <path fill="#4971A9" d="M223.4,457.6c-0.3-3.8-1.9-7.3-4.6-10l0-0.1l-31.8-28.1L156.1,436l39.9,35.5c3,2.6,6.8,4,10.8,4l0,0
    c0.5,0,1,0,1.4-0.1c4.4-0.4,8.4-2.5,11.2-5.8C222.4,466.3,223.7,462,223.4,457.6z"/>
  <path fill="#4971A9" d="M151.8,385.6v-1.9c0-0.1,0-0.3,0-0.4c0-9.8-8-17.7-17.7-17.7c-9.8,0-17.7,7.9-17.7,17.7V405L151.8,385.6z"
    />
  <path fill="#F58A1F" d="M116.4,412.6l82.7-45.1c2.4-1.3,5.1-1.9,7.8-1.9c1.7,0,3.4,0.3,5.1,0.8c8.7,2.8,13.4,12.1,10.6,20.8
    c-1.2,3.6-3.5,6.7-6.7,8.8l0,0.1l-1,0.6l-98.5,53.2V412.6z"/>
</svg>
