<?xml version="1.0" encoding="UTF-8"?>
<!DOCTYPE svg PUBLIC "-//W3C//DTD SVG 1.1//EN"
    "http://www.w3.org/Graphics/SVG/1.1/DTD/svg11.dtd"><svg xmlns="http://www.w3.org/2000/svg" height="600.0000" stroke-opacity="1" viewBox="0 0 800 600" font-size="1" width="800.0000" xmlns:xlink="http://www.w3.org/1999/xlink" stroke="rgb(0,0,0)" version="1.1"><defs></defs><g stroke-linejoin="bevel" stroke-opacity="0.0" fill-opacity="1.0" stroke="rgb(0,0,0)" stroke-width="0.0" fill="rgb(255,255,255)" stroke-linecap="butt" stroke-miterlimit="10.0"><path d="M 0.0000,0.0000 v 600.0000 h 800.0000 v -600.0000 Z"/></g><g stroke-linejoin="bevel" stroke-opacity="0.0" fill-opacity="1.0" stroke="rgb(0,0,0)" stroke-width="0.0" fill="rgb(0,0,0)" stroke-linecap="butt" stroke-miterlimit="10.0"><path d="M 231.2115,14.1016 ZM 232.3973,4.0606 h 2.2639 v 3.8655 h 3.4651 v -3.8655 h 2.2793 v 10.0411 h -2.2793 v -4.1889 h -3.4651 v 4.1889 h -2.2639 v -10.0411 ZM 241.5914,14.1016 ZM 242.1458,10.2823 c 0.0000,-0.9548 0.3080,-1.7017 0.3080 -1.7017c 0.3080,-0.7469 0.8239,-1.2551 0.8239 -1.2551c 0.5159,-0.5082 1.1935,-0.7777 1.1935 -0.7777c 0.6776,-0.2695 1.4014,-0.2695 1.4014 -0.2695c 0.7238,0.0000 1.3937,0.2695 1.3937 0.2695c 0.6699,0.2695 1.1858,0.7777 1.1858 0.7777c 0.5159,0.5082 0.8239,1.2551 0.8239 1.2551c 0.3080,0.7469 0.3080,1.7017 0.3080 1.7017c 0.0000,0.9548 -0.3080,1.7017 -0.3080 1.7017c -0.3080,0.7469 -0.8239,1.2551 -0.8239 1.2551c -0.5159,0.5082 -1.1858,0.7777 -1.1858 0.7777c -0.6699,0.2695 -1.3937,0.2695 -1.3937 0.2695c -0.7238,-0.0000 -1.4014,-0.2695 -1.4014 -0.2695c -0.6776,-0.2695 -1.1935,-0.7777 -1.1935 -0.7777c -0.5159,-0.5082 -0.8239,-1.2551 -0.8239 -1.2551c -0.3080,-0.7469 -0.3080,-1.7017 -0.3080 -1.7017ZM 242.1458,10.2823 ZM 244.4713,10.2823 c 0.0000,1.0010 0.3465,1.5862 0.3465 1.5862c 0.3465,0.5852 1.0549,0.5852 1.0549 0.5852c 0.6930,0.0000 1.0472,-0.5852 1.0472 -0.5852c 0.3542,-0.5852 0.3542,-1.5862 0.3542 -1.5862c 0.0000,-1.0010 -0.3542,-1.5862 -0.3542 -1.5862c -0.3542,-0.5852 -1.0472,-0.5852 -1.0472 -0.5852c -0.7084,-0.0000 -1.0549,0.5852 -1.0549 0.5852c -0.3465,0.5852 -0.3465,1.5862 -0.3465 1.5862ZM 250.0154,14.1016 ZM 250.3850,6.4630 h 2.2485 l 0.7392,3.5421 c 0.0924,0.5698 0.1694,1.1242 0.1694 1.1242c 0.0770,0.5544 0.1694,1.1396 0.1694 1.1396h 0.0616 c 0.1078,-0.5852 0.2079,-1.1550 0.2079 -1.1550c 0.1001,-0.5698 0.2387,-1.1088 0.2387 -1.1088l 0.8470,-3.5421 h 1.9559 l 0.8624,3.5421 c 0.1386,0.5698 0.2464,1.1242 0.2464 1.1242c 0.1078,0.5544 0.2310,1.1396 0.2310 1.1396h 0.0616 c 0.1078,-0.5852 0.1771,-1.1396 0.1771 -1.1396c 0.0693,-0.5544 0.1771,-1.1242 0.1771 -1.1242l 0.7238,-3.5421 h 2.0945 l -1.8326,7.6386 h -2.6489 l -0.6930,-3.0493 c -0.1232,-0.5390 -0.2156,-1.0780 -0.2156 -1.0780c -0.0924,-0.5390 -0.2002,-1.1550 -0.2002 -1.1550h -0.0616 c -0.1078,0.6160 -0.1925,1.1550 -0.1925 1.1550c -0.0847,0.5390 -0.1925,1.0780 -0.1925 1.0780l -0.6776,3.0493 h -2.5873 ZM 265.1694,14.1016 ZM 270.4825,5.0616 c -0.4312,-0.1540 -0.7854,-0.1540 -0.7854 -0.1540c -0.4158,-0.0000 -0.6468,0.2541 -0.6468 0.2541c -0.2310,0.2541 -0.2310,0.8393 -0.2310 0.8393v 0.4620 h 1.3706 v 1.7710 h -1.3706 v 5.8676 h -2.2639 v -5.8676 h -1.0164 v -1.6786 l 1.0164,-0.0770 v -0.4158 c 0.0000,-0.6006 0.1463,-1.1396 0.1463 -1.1396c 0.1463,-0.5390 0.4851,-0.9394 0.4851 -0.9394c 0.3388,-0.4004 0.8778,-0.6314 0.8778 -0.6314c 0.5390,-0.2310 1.3090,-0.2310 1.3090 -0.2310c 0.4774,0.0000 0.8701,0.0924 0.8701 0.0924c 0.3927,0.0924 0.6545,0.1848 0.6545 0.1848ZM 270.4209,14.1016 ZM 271.4220,6.4630 h 1.8480 l 0.1540,1.3398 h 0.0616 c 0.4158,-0.7854 1.0010,-1.1550 1.0010 -1.1550c 0.5852,-0.3696 1.1704,-0.3696 1.1704 -0.3696c 0.3234,0.0000 0.5313,0.0385 0.5313 0.0385c 0.2079,0.0385 0.3773,0.1155 0.3773 0.1155l -0.3696,1.9559 c -0.2156,-0.0616 -0.4004,-0.0924 -0.4004 -0.0924c -0.1848,-0.0308 -0.4312,-0.0308 -0.4312 -0.0308c -0.4312,-0.0000 -0.9009,0.3080 -0.9009 0.3080c -0.4697,0.3080 -0.7777,1.0934 -0.7777 1.0934v 4.4353 h -2.2639 v -7.6386 ZM 276.3963,14.1016 ZM 276.9507,10.2823 c 0.0000,-0.9240 0.3080,-1.6709 0.3080 -1.6709c 0.3080,-0.7469 0.8085,-1.2628 0.8085 -1.2628c 0.5005,-0.5159 1.1473,-0.7931 1.1473 -0.7931c 0.6468,-0.2772 1.3398,-0.2772 1.3398 -0.2772c 0.8162,0.0000 1.4245,0.2772 1.4245 0.2772c 0.6083,0.2772 1.0164,0.7700 1.0164 0.7700c 0.4081,0.4928 0.6083,1.1627 0.6083 1.1627c 0.2002,0.6699 0.2002,1.4553 0.2002 1.4553c 0.0000,0.3080 -0.0308,0.5621 -0.0308 0.5621c -0.0308,0.2541 -0.0616,0.3927 -0.0616 0.3927h -4.5739 c 0.1540,0.8778 0.6853,1.2705 0.6853 1.2705c 0.5313,0.3927 1.3013,0.3927 1.3013 0.3927c 0.8162,0.0000 1.6478,-0.5082 1.6478 -0.5082l 0.7546,1.3706 c -0.5852,0.4004 -1.3013,0.6314 -1.3013 0.6314c -0.7161,0.2310 -1.4091,0.2310 -1.4091 0.2310c -0.8162,-0.0000 -1.5246,-0.2695 -1.5246 -0.2695c -0.7084,-0.2695 -1.2320,-0.7854 -1.2320 -0.7854c -0.5236,-0.5159 -0.8162,-1.2551 -0.8162 -1.2551c -0.2926,-0.7392 -0.2926,-1.6940 -0.2926 -1.6940ZM 276.9507,10.2823 ZM 281.8789,9.4969 c 0.0000,-0.6622 -0.2926,-1.0780 -0.2926 -1.0780c -0.2926,-0.4158 -0.9856,-0.4158 -0.9856 -0.4158c -0.5390,-0.0000 -0.9471,0.3619 -0.9471 0.3619c -0.4081,0.3619 -0.5313,1.1319 -0.5313 1.1319h 2.7567 ZM 284.3737,14.1016 ZM 284.9743,10.2823 c 0.0000,-0.9394 0.2695,-1.6786 0.2695 -1.6786c 0.2695,-0.7392 0.7084,-1.2551 0.7084 -1.2551c 0.4389,-0.5159 1.0164,-0.7931 1.0164 -0.7931c 0.5775,-0.2772 1.1781,-0.2772 1.1781 -0.2772c 0.6314,0.0000 1.1088,0.2233 1.1088 0.2233c 0.4774,0.2233 0.9240,0.7161 0.9240 0.7161h 0.0616 l 0.1848,-0.7546 h 1.7710 v 10.4723 h -2.2639 v -2.3255 l 0.0924,-1.1704 c -0.3850,0.3696 -0.8932,0.6083 -0.8932 0.6083c -0.5082,0.2387 -1.0318,0.2387 -1.0318 0.2387c -0.7084,-0.0000 -1.2859,-0.2772 -1.2859 -0.2772c -0.5775,-0.2772 -0.9856,-0.7931 -0.9856 -0.7931c -0.4081,-0.5159 -0.6314,-1.2551 -0.6314 -1.2551c -0.2233,-0.7392 -0.2233,-1.6786 -0.2233 -1.6786ZM 284.9743,10.2823 ZM 287.2998,10.2515 c 0.0000,1.1396 0.3619,1.6632 0.3619 1.6632c 0.3619,0.5236 1.0241,0.5236 1.0241 0.5236c 0.3696,0.0000 0.6699,-0.1540 0.6699 -0.1540c 0.3003,-0.1540 0.5775,-0.5390 0.5775 -0.5390v -3.1263 c -0.3080,-0.2772 -0.6314,-0.3850 -0.6314 -0.3850c -0.3234,-0.1078 -0.6314,-0.1078 -0.6314 -0.1078c -0.5390,-0.0000 -0.9548,0.5159 -0.9548 0.5159c -0.4158,0.5159 -0.4158,1.6093 -0.4158 1.6093ZM 293.1828,14.1016 ZM 294.1068,6.4630 h 2.2639 v 4.4507 c 0.0000,0.8316 0.2310,1.1396 0.2310 1.1396c 0.2310,0.3080 0.7238,0.3080 0.7238 0.3080c 0.4312,0.0000 0.7238,-0.2002 0.7238 -0.2002c 0.2926,-0.2002 0.6314,-0.6468 0.6314 -0.6468v -5.0513 h 2.2639 v 7.6386 h -1.8480 l -0.1694,-1.0626 h -0.0462 c -0.4928,0.5852 -1.0549,0.9163 -1.0549 0.9163c -0.5621,0.3311 -1.3475,0.3311 -1.3475 0.3311c -1.2474,-0.0000 -1.8095,-0.8162 -1.8095 -0.8162c -0.5621,-0.8162 -0.5621,-2.2639 -0.5621 -2.2639v -4.7433 ZM 301.9302,14.1016 ZM 302.4846,10.2823 c 0.0000,-0.9240 0.3080,-1.6709 0.3080 -1.6709c 0.3080,-0.7469 0.8085,-1.2628 0.8085 -1.2628c 0.5005,-0.5159 1.1473,-0.7931 1.1473 -0.7931c 0.6468,-0.2772 1.3398,-0.2772 1.3398 -0.2772c 0.8162,0.0000 1.4245,0.2772 1.4245 0.2772c 0.6083,0.2772 1.0164,0.7700 1.0164 0.7700c 0.4081,0.4928 0.6083,1.1627 0.6083 1.1627c 0.2002,0.6699 0.2002,1.4553 0.2002 1.4553c 0.0000,0.3080 -0.0308,0.5621 -0.0308 0.5621c -0.0308,0.2541 -0.0616,0.3927 -0.0616 0.3927h -4.5739 c 0.1540,0.8778 0.6853,1.2705 0.6853 1.2705c 0.5313,0.3927 1.3013,0.3927 1.3013 0.3927c 0.8162,0.0000 1.6478,-0.5082 1.6478 -0.5082l 0.7546,1.3706 c -0.5852,0.4004 -1.3013,0.6314 -1.3013 0.6314c -0.7161,0.2310 -1.4091,0.2310 -1.4091 0.2310c -0.8162,-0.0000 -1.5246,-0.2695 -1.5246 -0.2695c -0.7084,-0.2695 -1.2320,-0.7854 -1.2320 -0.7854c -0.5236,-0.5159 -0.8162,-1.2551 -0.8162 -1.2551c -0.2926,-0.7392 -0.2926,-1.6940 -0.2926 -1.6940ZM 302.4846,10.2823 ZM 307.4127,9.4969 c 0.0000,-0.6622 -0.2926,-1.0780 -0.2926 -1.0780c -0.2926,-0.4158 -0.9856,-0.4158 -0.9856 -0.4158c -0.5390,-0.0000 -0.9471,0.3619 -0.9471 0.3619c -0.4081,0.3619 -0.5313,1.1319 -0.5313 1.1319h 2.7567 ZM 309.9076,14.1016 ZM 310.9086,6.4630 h 1.8480 l 0.1540,0.9702 h 0.0616 c 0.4928,-0.4620 1.0780,-0.8085 1.0780 -0.8085c 0.5852,-0.3465 1.3706,-0.3465 1.3706 -0.3465c 1.2474,0.0000 1.8095,0.8162 1.8095 0.8162c 0.5621,0.8162 0.5621,2.2639 0.5621 2.2639v 4.7433 h -2.2639 v -4.4507 c 0.0000,-0.8316 -0.2233,-1.1396 -0.2233 -1.1396c -0.2233,-0.3080 -0.7161,-0.3080 -0.7161 -0.3080c -0.4312,-0.0000 -0.7392,0.1925 -0.7392 0.1925c -0.3080,0.1925 -0.6776,0.5467 -0.6776 0.5467v 5.1591 h -2.2639 v -7.6386 ZM 318.7166,14.1016 ZM 320.0257,8.2341 h -1.0472 v -1.6786 l 1.1704,-0.0924 l 0.2618,-2.0329 h 1.8789 v 2.0329 h 1.8326 v 1.7710 h -1.8326 v 3.0647 c 0.0000,0.6468 0.2695,0.9317 0.2695 0.9317c 0.2695,0.2849 0.7161,0.2849 0.7161 0.2849c 0.1848,0.0000 0.3773,-0.0462 0.3773 -0.0462c 0.1925,-0.0462 0.3465,-0.1078 0.3465 -0.1078l 0.3542,1.6478 c -0.3080,0.0924 -0.7238,0.1848 -0.7238 0.1848c -0.4158,0.0924 -0.9702,0.0924 -0.9702 0.0924c -0.7084,-0.0000 -1.2089,-0.2156 -1.2089 -0.2156c -0.5005,-0.2156 -0.8162,-0.6006 -0.8162 -0.6006c -0.3157,-0.3850 -0.4620,-0.9317 -0.4620 -0.9317c -0.1463,-0.5467 -0.1463,-1.2089 -0.1463 -1.2089v -3.0955 ZM 324.6150,14.1016 ZM 325.6160,3.3060 h 2.2639 v 8.5164 c 0.0000,0.3542 0.1309,0.4928 0.1309 0.4928c 0.1309,0.1386 0.2695,0.1386 0.2695 0.1386h 0.1309 c 0.0000,0.0000 0.1463,-0.0308 0.1463 -0.0308l 0.2772,1.6786 c -0.1848,0.0770 -0.4697,0.1309 -0.4697 0.1309c -0.2849,0.0539 -0.6699,0.0539 -0.6699 0.0539c -0.5852,-0.0000 -0.9856,-0.1848 -0.9856 -0.1848c -0.4004,-0.1848 -0.6391,-0.5159 -0.6391 -0.5159c -0.2387,-0.3311 -0.3465,-0.8008 -0.3465 -0.8008c -0.1078,-0.4697 -0.1078,-1.0549 -0.1078 -1.0549v -8.4240 ZM 329.0195,14.1016 ZM 330.1899,15.2105 c 0.1078,0.0308 0.2464,0.0616 0.2464 0.0616c 0.1386,0.0308 0.2618,0.0308 0.2618 0.0308c 0.5698,0.0000 0.8778,-0.2772 0.8778 -0.2772c 0.3080,-0.2772 0.4620,-0.7238 0.4620 -0.7238l 0.1078,-0.4004 l -2.9415,-7.4384 h 2.2793 l 1.0934,3.2803 c 0.1694,0.5236 0.3080,1.0626 0.3080 1.0626c 0.1386,0.5390 0.2926,1.1088 0.2926 1.1088h 0.0616 c 0.1232,-0.5390 0.2541,-1.0857 0.2541 -1.0857c 0.1309,-0.5467 0.2695,-1.0857 0.2695 -1.0857l 0.9240,-3.2803 h 2.1715 l -2.6489,7.7156 c -0.2772,0.7238 -0.5775,1.2705 -0.5775 1.2705c -0.3003,0.5467 -0.6930,0.9086 -0.6930 0.9086c -0.3927,0.3619 -0.8932,0.5467 -0.8932 0.5467c -0.5005,0.1848 -1.1781,0.1848 -1.1781 0.1848c -0.3542,-0.0000 -0.6006,-0.0385 -0.6006 -0.0385c -0.2464,-0.0385 -0.4774,-0.1155 -0.4774 -0.1155l 0.4004,-1.7248 h 0.0000 ZM 340.2464,14.1016 ZM 340.8470,10.2823 c 0.0000,-0.9394 0.2695,-1.6786 0.2695 -1.6786c 0.2695,-0.7392 0.7084,-1.2551 0.7084 -1.2551c 0.4389,-0.5159 1.0164,-0.7931 1.0164 -0.7931c 0.5775,-0.2772 1.1781,-0.2772 1.1781 -0.2772c 0.6468,0.0000 1.0626,0.2156 1.0626 0.2156c 0.4158,0.2156 0.8162,0.5852 0.8162 0.5852l -0.0924,-1.1704 v -2.6027 h 2.2639 v 10.7957 h -1.8480 l -0.1540,-0.7546 h -0.0616 c -0.4004,0.4004 -0.9394,0.6699 -0.9394 0.6699c -0.5390,0.2695 -1.0934,0.2695 -1.0934 0.2695c -0.7084,-0.0000 -1.2859,-0.2772 -1.2859 -0.2772c -0.5775,-0.2772 -0.9856,-0.7931 -0.9856 -0.7931c -0.4081,-0.5159 -0.6314,-1.2551 -0.6314 -1.2551c -0.2233,-0.7392 -0.2233,-1.6786 -0.2233 -1.6786ZM 340.8470,10.2823 ZM 343.1725,10.2515 c 0.0000,1.1396 0.3619,1.6632 0.3619 1.6632c 0.3619,0.5236 1.0241,0.5236 1.0241 0.5236c 0.3696,0.0000 0.6699,-0.1540 0.6699 -0.1540c 0.3003,-0.1540 0.5775,-0.5390 0.5775 -0.5390v -3.1263 c -0.3080,-0.2772 -0.6314,-0.3850 -0.6314 -0.3850c -0.3234,-0.1078 -0.6314,-0.1078 -0.6314 -0.1078c -0.5390,-0.0000 -0.9548,0.5159 -0.9548 0.5159c -0.4158,0.5159 -0.4158,1.6093 -0.4158 1.6093ZM 349.0708,14.1016 ZM 349.6253,10.2823 c 0.0000,-0.9548 0.3080,-1.7017 0.3080 -1.7017c 0.3080,-0.7469 0.8239,-1.2551 0.8239 -1.2551c 0.5159,-0.5082 1.1935,-0.7777 1.1935 -0.7777c 0.6776,-0.2695 1.4014,-0.2695 1.4014 -0.2695c 0.7238,0.0000 1.3937,0.2695 1.3937 0.2695c 0.6699,0.2695 1.1858,0.7777 1.1858 0.7777c 0.5159,0.5082 0.8239,1.2551 0.8239 1.2551c 0.3080,0.7469 0.3080,1.7017 0.3080 1.7017c 0.0000,0.9548 -0.3080,1.7017 -0.3080 1.7017c -0.3080,0.7469 -0.8239,1.2551 -0.8239 1.2551c -0.5159,0.5082 -1.1858,0.7777 -1.1858 0.7777c -0.6699,0.2695 -1.3937,0.2695 -1.3937 0.2695c -0.7238,-0.0000 -1.4014,-0.2695 -1.4014 -0.2695c -0.6776,-0.2695 -1.1935,-0.7777 -1.1935 -0.7777c -0.5159,-0.5082 -0.8239,-1.2551 -0.8239 -1.2551c -0.3080,-0.7469 -0.3080,-1.7017 -0.3080 -1.7017ZM 349.6253,10.2823 ZM 351.9507,10.2823 c 0.0000,1.0010 0.3465,1.5862 0.3465 1.5862c 0.3465,0.5852 1.0549,0.5852 1.0549 0.5852c 0.6930,0.0000 1.0472,-0.5852 1.0472 -0.5852c 0.3542,-0.5852 0.3542,-1.5862 0.3542 -1.5862c 0.0000,-1.0010 -0.3542,-1.5862 -0.3542 -1.5862c -0.3542,-0.5852 -1.0472,-0.5852 -1.0472 -0.5852c -0.7084,-0.0000 -1.0549,0.5852 -1.0549 0.5852c -0.3465,0.5852 -0.3465,1.5862 -0.3465 1.5862ZM 360.8214,14.1016 ZM 361.9918,15.2105 c 0.1078,0.0308 0.2464,0.0616 0.2464 0.0616c 0.1386,0.0308 0.2618,0.0308 0.2618 0.0308c 0.5698,0.0000 0.8778,-0.2772 0.8778 -0.2772c 0.3080,-0.2772 0.4620,-0.7238 0.4620 -0.7238l 0.1078,-0.4004 l -2.9415,-7.4384 h 2.2793 l 1.0934,3.2803 c 0.1694,0.5236 0.3080,1.0626 0.3080 1.0626c 0.1386,0.5390 0.2926,1.1088 0.2926 1.1088h 0.0616 c 0.1232,-0.5390 0.2541,-1.0857 0.2541 -1.0857c 0.1309,-0.5467 0.2695,-1.0857 0.2695 -1.0857l 0.9240,-3.2803 h 2.1715 l -2.6489,7.7156 c -0.2772,0.7238 -0.5775,1.2705 -0.5775 1.2705c -0.3003,0.5467 -0.6930,0.9086 -0.6930 0.9086c -0.3927,0.3619 -0.8932,0.5467 -0.8932 0.5467c -0.5005,0.1848 -1.1781,0.1848 -1.1781 0.1848c -0.3542,-0.0000 -0.6006,-0.0385 -0.6006 -0.0385c -0.2464,-0.0385 -0.4774,-0.1155 -0.4774 -0.1155l 0.4004,-1.7248 h 0.0000 ZM 368.7218,14.1016 ZM 369.2762,10.2823 c 0.0000,-0.9548 0.3080,-1.7017 0.3080 -1.7017c 0.3080,-0.7469 0.8239,-1.2551 0.8239 -1.2551c 0.5159,-0.5082 1.1935,-0.7777 1.1935 -0.7777c 0.6776,-0.2695 1.4014,-0.2695 1.4014 -0.2695c 0.7238,0.0000 1.3937,0.2695 1.3937 0.2695c 0.6699,0.2695 1.1858,0.7777 1.1858 0.7777c 0.5159,0.5082 0.8239,1.2551 0.8239 1.2551c 0.3080,0.7469 0.3080,1.7017 0.3080 1.7017c 0.0000,0.9548 -0.3080,1.7017 -0.3080 1.7017c -0.3080,0.7469 -0.8239,1.2551 -0.8239 1.2551c -0.5159,0.5082 -1.1858,0.7777 -1.1858 0.7777c -0.6699,0.2695 -1.3937,0.2695 -1.3937 0.2695c -0.7238,-0.0000 -1.4014,-0.2695 -1.4014 -0.2695c -0.6776,-0.2695 -1.1935,-0.7777 -1.1935 -0.7777c -0.5159,-0.5082 -0.8239,-1.2551 -0.8239 -1.2551c -0.3080,-0.7469 -0.3080,-1.7017 -0.3080 -1.7017ZM 369.2762,10.2823 ZM 371.6016,10.2823 c 0.0000,1.0010 0.3465,1.5862 0.3465 1.5862c 0.3465,0.5852 1.0549,0.5852 1.0549 0.5852c 0.6930,0.0000 1.0472,-0.5852 1.0472 -0.5852c 0.3542,-0.5852 0.3542,-1.5862 0.3542 -1.5862c 0.0000,-1.0010 -0.3542,-1.5862 -0.3542 -1.5862c -0.3542,-0.5852 -1.0472,-0.5852 -1.0472 -0.5852c -0.7084,-0.0000 -1.0549,0.5852 -1.0549 0.5852c -0.3465,0.5852 -0.3465,1.5862 -0.3465 1.5862ZM 377.2690,14.1016 ZM 378.1930,6.4630 h 2.2639 v 4.4507 c 0.0000,0.8316 0.2310,1.1396 0.2310 1.1396c 0.2310,0.3080 0.7238,0.3080 0.7238 0.3080c 0.4312,0.0000 0.7238,-0.2002 0.7238 -0.2002c 0.2926,-0.2002 0.6314,-0.6468 0.6314 -0.6468v -5.0513 h 2.2639 v 7.6386 h -1.8480 l -0.1694,-1.0626 h -0.0462 c -0.4928,0.5852 -1.0549,0.9163 -1.0549 0.9163c -0.5621,0.3311 -1.3475,0.3311 -1.3475 0.3311c -1.2474,-0.0000 -1.8095,-0.8162 -1.8095 -0.8162c -0.5621,-0.8162 -0.5621,-2.2639 -0.5621 -2.2639v -4.7433 ZM 389.2197,14.1016 ZM 390.1437,6.4630 h 2.2639 v 4.4507 c 0.0000,0.8316 0.2310,1.1396 0.2310 1.1396c 0.2310,0.3080 0.7238,0.3080 0.7238 0.3080c 0.4312,0.0000 0.7238,-0.2002 0.7238 -0.2002c 0.2926,-0.2002 0.6314,-0.6468 0.6314 -0.6468v -5.0513 h 2.2639 v 7.6386 h -1.8480 l -0.1694,-1.0626 h -0.0462 c -0.4928,0.5852 -1.0549,0.9163 -1.0549 0.9163c -0.5621,0.3311 -1.3475,0.3311 -1.3475 0.3311c -1.2474,-0.0000 -1.8095,-0.8162 -1.8095 -0.8162c -0.5621,-0.8162 -0.5621,-2.2639 -0.5621 -2.2639v -4.7433 ZM 397.9671,14.1016 ZM 399.3070,11.8070 c 0.5236,0.4004 1.0010,0.6006 1.0010 0.6006c 0.4774,0.2002 0.9702,0.2002 0.9702 0.2002c 0.5082,0.0000 0.7392,-0.1694 0.7392 -0.1694c 0.2310,-0.1694 0.2310,-0.4774 0.2310 -0.4774c 0.0000,-0.1848 -0.1309,-0.3311 -0.1309 -0.3311c -0.1309,-0.1463 -0.3542,-0.2695 -0.3542 -0.2695c -0.2233,-0.1232 -0.5005,-0.2233 -0.5005 -0.2233c -0.2772,-0.1001 -0.5698,-0.2233 -0.5698 -0.2233c -0.3542,-0.1386 -0.7084,-0.3234 -0.7084 -0.3234c -0.3542,-0.1848 -0.6468,-0.4543 -0.6468 -0.4543c -0.2926,-0.2695 -0.4774,-0.6314 -0.4774 -0.6314c -0.1848,-0.3619 -0.1848,-0.8393 -0.1848 -0.8393c 0.0000,-0.5236 0.2079,-0.9702 0.2079 -0.9702c 0.2079,-0.4466 0.5929,-0.7546 0.5929 -0.7546c 0.3850,-0.3080 0.9240,-0.4851 0.9240 -0.4851c 0.5390,-0.1771 1.2012,-0.1771 1.2012 -0.1771c 0.8778,0.0000 1.5400,0.3003 1.5400 0.3003c 0.6622,0.3003 1.1550,0.6699 1.1550 0.6699l -1.0164,1.3552 c -0.4158,-0.3080 -0.8162,-0.4774 -0.8162 -0.4774c -0.4004,-0.1694 -0.8008,-0.1694 -0.8008 -0.1694c -0.8624,-0.0000 -0.8624,0.6006 -0.8624 0.6006c 0.0000,0.1848 0.1232,0.3157 0.1232 0.3157c 0.1232,0.1309 0.3311,0.2387 0.3311 0.2387c 0.2079,0.1078 0.4774,0.2079 0.4774 0.2079c 0.2695,0.1001 0.5621,0.2079 0.5621 0.2079c 0.3696,0.1386 0.7315,0.3157 0.7315 0.3157c 0.3619,0.1771 0.6622,0.4389 0.6622 0.4389c 0.3003,0.2618 0.4851,0.6391 0.4851 0.6391c 0.1848,0.3773 0.1848,0.9009 0.1848 0.9009c 0.0000,0.5236 -0.2002,0.9702 -0.2002 0.9702c -0.2002,0.4466 -0.6006,0.7777 -0.6006 0.7777c -0.4004,0.3311 -0.9856,0.5236 -0.9856 0.5236c -0.5852,0.1925 -1.3552,0.1925 -1.3552 0.1925c -0.7546,-0.0000 -1.5477,-0.2926 -1.5477 -0.2926c -0.7931,-0.2926 -1.3783,-0.7700 -1.3783 -0.7700ZM 404.7895,14.1016 ZM 405.3439,10.2823 c 0.0000,-0.9240 0.3080,-1.6709 0.3080 -1.6709c 0.3080,-0.7469 0.8085,-1.2628 0.8085 -1.2628c 0.5005,-0.5159 1.1473,-0.7931 1.1473 -0.7931c 0.6468,-0.2772 1.3398,-0.2772 1.3398 -0.2772c 0.8162,0.0000 1.4245,0.2772 1.4245 0.2772c 0.6083,0.2772 1.0164,0.7700 1.0164 0.7700c 0.4081,0.4928 0.6083,1.1627 0.6083 1.1627c 0.2002,0.6699 0.2002,1.4553 0.2002 1.4553c 0.0000,0.3080 -0.0308,0.5621 -0.0308 0.5621c -0.0308,0.2541 -0.0616,0.3927 -0.0616 0.3927h -4.5739 c 0.1540,0.8778 0.6853,1.2705 0.6853 1.2705c 0.5313,0.3927 1.3013,0.3927 1.3013 0.3927c 0.8162,0.0000 1.6478,-0.5082 1.6478 -0.5082l 0.7546,1.3706 c -0.5852,0.4004 -1.3013,0.6314 -1.3013 0.6314c -0.7161,0.2310 -1.4091,0.2310 -1.4091 0.2310c -0.8162,-0.0000 -1.5246,-0.2695 -1.5246 -0.2695c -0.7084,-0.2695 -1.2320,-0.7854 -1.2320 -0.7854c -0.5236,-0.5159 -0.8162,-1.2551 -0.8162 -1.2551c -0.2926,-0.7392 -0.2926,-1.6940 -0.2926 -1.6940ZM 405.3439,10.2823 ZM 410.2721,9.4969 c 0.0000,-0.6622 -0.2926,-1.0780 -0.2926 -1.0780c -0.2926,-0.4158 -0.9856,-0.4158 -0.9856 -0.4158c -0.5390,-0.0000 -0.9471,0.3619 -0.9471 0.3619c -0.4081,0.3619 -0.5313,1.1319 -0.5313 1.1319h 2.7567 ZM 415.9702,14.1016 ZM 417.1561,4.0606 h 2.2639 v 3.8655 h 3.4651 v -3.8655 h 2.2793 v 10.0411 h -2.2793 v -4.1889 h -3.4651 v 4.1889 h -2.2639 v -10.0411 ZM 426.3501,14.1016 ZM 427.0739,11.9764 c 0.0000,-1.2012 1.0164,-1.8789 1.0164 -1.8789c 1.0164,-0.6776 3.2803,-0.9086 3.2803 -0.9086c -0.0308,-0.5082 -0.3080,-0.8085 -0.3080 -0.8085c -0.2772,-0.3003 -0.8932,-0.3003 -0.8932 -0.3003c -0.4928,-0.0000 -0.9856,0.1848 -0.9856 0.1848c -0.4928,0.1848 -1.0472,0.5082 -1.0472 0.5082l -0.8008,-1.4938 c 0.7392,-0.4466 1.5477,-0.7238 1.5477 -0.7238c 0.8085,-0.2772 1.7171,-0.2772 1.7171 -0.2772c 1.4784,0.0000 2.2562,0.8393 2.2562 0.8393c 0.7777,0.8393 0.7777,2.6104 0.7777 2.6104v 4.3737 h -1.8480 l -0.1694,-0.7854 h -0.0462 c -0.4928,0.4312 -1.0395,0.7007 -1.0395 0.7007c -0.5467,0.2695 -1.1935,0.2695 -1.1935 0.2695c -0.5236,-0.0000 -0.9394,-0.1771 -0.9394 -0.1771c -0.4158,-0.1771 -0.7084,-0.4928 -0.7084 -0.4928c -0.2926,-0.3157 -0.4543,-0.7315 -0.4543 -0.7315c -0.1617,-0.4158 -0.1617,-0.9086 -0.1617 -0.9086ZM 427.0739,11.9764 ZM 429.2300,11.8070 c 0.0000,0.3696 0.2387,0.5467 0.2387 0.5467c 0.2387,0.1771 0.6391,0.1771 0.6391 0.1771c 0.4004,0.0000 0.6776,-0.1694 0.6776 -0.1694c 0.2772,-0.1694 0.5852,-0.4774 0.5852 -0.4774v -1.3398 c -1.2166,0.1694 -1.6786,0.4928 -1.6786 0.4928c -0.4620,0.3234 -0.4620,0.7700 -0.4620 0.7700ZM 434.5739,14.1016 ZM 435.9138,11.8070 c 0.5236,0.4004 1.0010,0.6006 1.0010 0.6006c 0.4774,0.2002 0.9702,0.2002 0.9702 0.2002c 0.5082,0.0000 0.7392,-0.1694 0.7392 -0.1694c 0.2310,-0.1694 0.2310,-0.4774 0.2310 -0.4774c 0.0000,-0.1848 -0.1309,-0.3311 -0.1309 -0.3311c -0.1309,-0.1463 -0.3542,-0.2695 -0.3542 -0.2695c -0.2233,-0.1232 -0.5005,-0.2233 -0.5005 -0.2233c -0.2772,-0.1001 -0.5698,-0.2233 -0.5698 -0.2233c -0.3542,-0.1386 -0.7084,-0.3234 -0.7084 -0.3234c -0.3542,-0.1848 -0.6468,-0.4543 -0.6468 -0.4543c -0.2926,-0.2695 -0.4774,-0.6314 -0.4774 -0.6314c -0.1848,-0.3619 -0.1848,-0.8393 -0.1848 -0.8393c 0.0000,-0.5236 0.2079,-0.9702 0.2079 -0.9702c 0.2079,-0.4466 0.5929,-0.7546 0.5929 -0.7546c 0.3850,-0.3080 0.9240,-0.4851 0.9240 -0.4851c 0.5390,-0.1771 1.2012,-0.1771 1.2012 -0.1771c 0.8778,0.0000 1.5400,0.3003 1.5400 0.3003c 0.6622,0.3003 1.1550,0.6699 1.1550 0.6699l -1.0164,1.3552 c -0.4158,-0.3080 -0.8162,-0.4774 -0.8162 -0.4774c -0.4004,-0.1694 -0.8008,-0.1694 -0.8008 -0.1694c -0.8624,-0.0000 -0.8624,0.6006 -0.8624 0.6006c 0.0000,0.1848 0.1232,0.3157 0.1232 0.3157c 0.1232,0.1309 0.3311,0.2387 0.3311 0.2387c 0.2079,0.1078 0.4774,0.2079 0.4774 0.2079c 0.2695,0.1001 0.5621,0.2079 0.5621 0.2079c 0.3696,0.1386 0.7315,0.3157 0.7315 0.3157c 0.3619,0.1771 0.6622,0.4389 0.6622 0.4389c 0.3003,0.2618 0.4851,0.6391 0.4851 0.6391c 0.1848,0.3773 0.1848,0.9009 0.1848 0.9009c 0.0000,0.5236 -0.2002,0.9702 -0.2002 0.9702c -0.2002,0.4466 -0.6006,0.7777 -0.6006 0.7777c -0.4004,0.3311 -0.9856,0.5236 -0.9856 0.5236c -0.5852,0.1925 -1.3552,0.1925 -1.3552 0.1925c -0.7546,-0.0000 -1.5477,-0.2926 -1.5477 -0.2926c -0.7931,-0.2926 -1.3783,-0.7700 -1.3783 -0.7700ZM 441.3963,14.1016 ZM 442.3973,3.3060 h 2.2023 v 6.1910 h 0.0616 l 2.4179,-3.0339 h 2.4641 l -2.6797,3.1417 l 2.8799,4.4969 h -2.4487 l -1.7248,-2.9723 l -0.9702,1.0934 v 1.8789 h -2.2023 v -10.7957 ZM 449.4045,14.1016 ZM 449.9589,10.2823 c 0.0000,-0.9240 0.3080,-1.6709 0.3080 -1.6709c 0.3080,-0.7469 0.8085,-1.2628 0.8085 -1.2628c 0.5005,-0.5159 1.1473,-0.7931 1.1473 -0.7931c 0.6468,-0.2772 1.3398,-0.2772 1.3398 -0.2772c 0.8162,0.0000 1.4245,0.2772 1.4245 0.2772c 0.6083,0.2772 1.0164,0.7700 1.0164 0.7700c 0.4081,0.4928 0.6083,1.1627 0.6083 1.1627c 0.2002,0.6699 0.2002,1.4553 0.2002 1.4553c 0.0000,0.3080 -0.0308,0.5621 -0.0308 0.5621c -0.0308,0.2541 -0.0616,0.3927 -0.0616 0.3927h -4.5739 c 0.1540,0.8778 0.6853,1.2705 0.6853 1.2705c 0.5313,0.3927 1.3013,0.3927 1.3013 0.3927c 0.8162,0.0000 1.6478,-0.5082 1.6478 -0.5082l 0.7546,1.3706 c -0.5852,0.4004 -1.3013,0.6314 -1.3013 0.6314c -0.7161,0.2310 -1.4091,0.2310 -1.4091 0.2310c -0.8162,-0.0000 -1.5246,-0.2695 -1.5246 -0.2695c -0.7084,-0.2695 -1.2320,-0.7854 -1.2320 -0.7854c -0.5236,-0.5159 -0.8162,-1.2551 -0.8162 -1.2551c -0.2926,-0.7392 -0.2926,-1.6940 -0.2926 -1.6940ZM 449.9589,10.2823 ZM 454.8871,9.4969 c 0.0000,-0.6622 -0.2926,-1.0780 -0.2926 -1.0780c -0.2926,-0.4158 -0.9856,-0.4158 -0.9856 -0.4158c -0.5390,-0.0000 -0.9471,0.3619 -0.9471 0.3619c -0.4081,0.3619 -0.5313,1.1319 -0.5313 1.1319h 2.7567 ZM 457.3819,14.1016 ZM 458.3830,3.3060 h 2.2639 v 8.5164 c 0.0000,0.3542 0.1309,0.4928 0.1309 0.4928c 0.1309,0.1386 0.2695,0.1386 0.2695 0.1386h 0.1309 c 0.0000,0.0000 0.1463,-0.0308 0.1463 -0.0308l 0.2772,1.6786 c -0.1848,0.0770 -0.4697,0.1309 -0.4697 0.1309c -0.2849,0.0539 -0.6699,0.0539 -0.6699 0.0539c -0.5852,-0.0000 -0.9856,-0.1848 -0.9856 -0.1848c -0.4004,-0.1848 -0.6391,-0.5159 -0.6391 -0.5159c -0.2387,-0.3311 -0.3465,-0.8008 -0.3465 -0.8008c -0.1078,-0.4697 -0.1078,-1.0549 -0.1078 -1.0549v -8.4240 ZM 461.7864,14.1016 ZM 462.7875,3.3060 h 2.2639 v 8.5164 c 0.0000,0.3542 0.1309,0.4928 0.1309 0.4928c 0.1309,0.1386 0.2695,0.1386 0.2695 0.1386h 0.1309 c 0.0000,0.0000 0.1463,-0.0308 0.1463 -0.0308l 0.2772,1.6786 c -0.1848,0.0770 -0.4697,0.1309 -0.4697 0.1309c -0.2849,0.0539 -0.6699,0.0539 -0.6699 0.0539c -0.5852,-0.0000 -0.9856,-0.1848 -0.9856 -0.1848c -0.4004,-0.1848 -0.6391,-0.5159 -0.6391 -0.5159c -0.2387,-0.3311 -0.3465,-0.8008 -0.3465 -0.8008c -0.1078,-0.4697 -0.1078,-1.0549 -0.1078 -1.0549v -8.4240 ZM 466.1910,14.1016 ZM 468.5626,10.5441 c -0.0770,-0.5236 0.0385,-0.9548 0.0385 -0.9548c 0.1155,-0.4312 0.3311,-0.8008 0.3311 -0.8008c 0.2156,-0.3696 0.4851,-0.6776 0.4851 -0.6776c 0.2695,-0.3080 0.5159,-0.5929 0.5159 -0.5929c 0.2464,-0.2849 0.4081,-0.5544 0.4081 -0.5544c 0.1617,-0.2695 0.1617,-0.5621 0.1617 -0.5621c 0.0000,-0.4774 -0.2849,-0.7238 -0.2849 -0.7238c -0.2849,-0.2464 -0.7469,-0.2464 -0.7469 -0.2464c -0.4312,-0.0000 -0.7623,0.2002 -0.7623 0.2002c -0.3311,0.2002 -0.6391,0.5082 -0.6391 0.5082l -1.2474,-1.1396 c 0.5236,-0.6314 1.2320,-1.0164 1.2320 -1.0164c 0.7084,-0.3850 1.5708,-0.3850 1.5708 -0.3850c 0.6468,0.0000 1.2089,0.1540 1.2089 0.1540c 0.5621,0.1540 0.9702,0.4774 0.9702 0.4774c 0.4081,0.3234 0.6391,0.8239 0.6391 0.8239c 0.2310,0.5005 0.2310,1.1781 0.2310 1.1781c 0.0000,0.4774 -0.1694,0.8547 -0.1694 0.8547c -0.1694,0.3773 -0.4235,0.7007 -0.4235 0.7007c -0.2541,0.3234 -0.5390,0.6237 -0.5390 0.6237c -0.2849,0.3003 -0.5236,0.6237 -0.5236 0.6237c -0.2387,0.3234 -0.3773,0.6853 -0.3773 0.6853c -0.1386,0.3619 -0.0924,0.8239 -0.0924 0.8239h -1.9867 ZM 468.5626,10.5441 ZM 468.1930,12.8696 c 0.0000,-0.6160 0.3850,-1.0241 0.3850 -1.0241c 0.3850,-0.4081 0.9702,-0.4081 0.9702 -0.4081c 0.5852,0.0000 0.9779,0.4081 0.9779 0.4081c 0.3927,0.4081 0.3927,1.0241 0.3927 1.0241c 0.0000,0.6006 -0.3927,1.0087 -0.3927 1.0087c -0.3927,0.4081 -0.9779,0.4081 -0.9779 0.4081c -0.5852,-0.0000 -0.9702,-0.4081 -0.9702 -0.4081c -0.3850,-0.4081 -0.3850,-1.0087 -0.3850 -1.0087ZM 476.5246,14.1016 ZM 479.6663,16.8583 c -0.9702,-1.5862 -1.5015,-3.2957 -1.5015 -3.2957c -0.5313,-1.7094 -0.5313,-3.7423 -0.5313 -3.7423c 0.0000,-2.0329 0.5313,-3.7423 0.5313 -3.7423c 0.5313,-1.7094 1.5015,-3.2957 1.5015 -3.2957l 1.4168,0.5852 c -0.8470,1.5092 -1.2320,3.1571 -1.2320 3.1571c -0.3850,1.6478 -0.3850,3.2957 -0.3850 3.2957c 0.0000,1.6478 0.3850,3.2957 0.3850 3.2957c 0.3850,1.6478 1.2320,3.1571 1.2320 3.1571l -1.4168,0.5852 h 0.0000 ZM 481.8224,14.1016 ZM 483.1622,11.8070 c 0.5236,0.4004 1.0010,0.6006 1.0010 0.6006c 0.4774,0.2002 0.9702,0.2002 0.9702 0.2002c 0.5082,0.0000 0.7392,-0.1694 0.7392 -0.1694c 0.2310,-0.1694 0.2310,-0.4774 0.2310 -0.4774c 0.0000,-0.1848 -0.1309,-0.3311 -0.1309 -0.3311c -0.1309,-0.1463 -0.3542,-0.2695 -0.3542 -0.2695c -0.2233,-0.1232 -0.5005,-0.2233 -0.5005 -0.2233c -0.2772,-0.1001 -0.5698,-0.2233 -0.5698 -0.2233c -0.3542,-0.1386 -0.7084,-0.3234 -0.7084 -0.3234c -0.3542,-0.1848 -0.6468,-0.4543 -0.6468 -0.4543c -0.2926,-0.2695 -0.4774,-0.6314 -0.4774 -0.6314c -0.1848,-0.3619 -0.1848,-0.8393 -0.1848 -0.8393c 0.0000,-0.5236 0.2079,-0.9702 0.2079 -0.9702c 0.2079,-0.4466 0.5929,-0.7546 0.5929 -0.7546c 0.3850,-0.3080 0.9240,-0.4851 0.9240 -0.4851c 0.5390,-0.1771 1.2012,-0.1771 1.2012 -0.1771c 0.8778,0.0000 1.5400,0.3003 1.5400 0.3003c 0.6622,0.3003 1.1550,0.6699 1.1550 0.6699l -1.0164,1.3552 c -0.4158,-0.3080 -0.8162,-0.4774 -0.8162 -0.4774c -0.4004,-0.1694 -0.8008,-0.1694 -0.8008 -0.1694c -0.8624,-0.0000 -0.8624,0.6006 -0.8624 0.6006c 0.0000,0.1848 0.1232,0.3157 0.1232 0.3157c 0.1232,0.1309 0.3311,0.2387 0.3311 0.2387c 0.2079,0.1078 0.4774,0.2079 0.4774 0.2079c 0.2695,0.1001 0.5621,0.2079 0.5621 0.2079c 0.3696,0.1386 0.7315,0.3157 0.7315 0.3157c 0.3619,0.1771 0.6622,0.4389 0.6622 0.4389c 0.3003,0.2618 0.4851,0.6391 0.4851 0.6391c 0.1848,0.3773 0.1848,0.9009 0.1848 0.9009c 0.0000,0.5236 -0.2002,0.9702 -0.2002 0.9702c -0.2002,0.4466 -0.6006,0.7777 -0.6006 0.7777c -0.4004,0.3311 -0.9856,0.5236 -0.9856 0.5236c -0.5852,0.1925 -1.3552,0.1925 -1.3552 0.1925c -0.7546,-0.0000 -1.5477,-0.2926 -1.5477 -0.2926c -0.7931,-0.2926 -1.3783,-0.7700 -1.3783 -0.7700ZM 488.6448,14.1016 ZM 490.7700,5.3388 c -0.5698,-0.0000 -0.9394,-0.3311 -0.9394 -0.3311c -0.3696,-0.3311 -0.3696,-0.8547 -0.3696 -0.8547c 0.0000,-0.5236 0.3696,-0.8470 0.3696 -0.8470c 0.3696,-0.3234 0.9394,-0.3234 0.9394 -0.3234c 0.5852,0.0000 0.9471,0.3234 0.9471 0.3234c 0.3619,0.3234 0.3619,0.8470 0.3619 0.8470c 0.0000,0.5236 -0.3619,0.8547 -0.3619 0.8547c -0.3619,0.3311 -0.9471,0.3311 -0.9471 0.3311ZM 490.7700,5.3388 ZM 489.6458,6.4630 h 2.2639 v 7.6386 h -2.2639 v -7.6386 ZM 492.8953,14.1016 ZM 493.8963,6.4630 h 1.8480 l 0.1540,0.9702 h 0.0616 c 0.4928,-0.4620 1.0780,-0.8085 1.0780 -0.8085c 0.5852,-0.3465 1.3706,-0.3465 1.3706 -0.3465c 1.2474,0.0000 1.8095,0.8162 1.8095 0.8162c 0.5621,0.8162 0.5621,2.2639 0.5621 2.2639v 4.7433 h -2.2639 v -4.4507 c 0.0000,-0.8316 -0.2233,-1.1396 -0.2233 -1.1396c -0.2233,-0.3080 -0.7161,-0.3080 -0.7161 -0.3080c -0.4312,-0.0000 -0.7392,0.1925 -0.7392 0.1925c -0.3080,0.1925 -0.6776,0.5467 -0.6776 0.5467v 5.1591 h -2.2639 v -7.6386 ZM 501.7043,14.1016 ZM 504.0914,15.0565 c 0.0000,0.4312 0.4620,0.6545 0.4620 0.6545c 0.4620,0.2233 1.2320,0.2233 1.2320 0.2233c 0.7700,0.0000 1.2628,-0.2695 1.2628 -0.2695c 0.4928,-0.2695 0.4928,-0.6699 0.4928 -0.6699c 0.0000,-0.3542 -0.3003,-0.4774 -0.3003 -0.4774c -0.3003,-0.1232 -0.8701,-0.1232 -0.8701 -0.1232h -0.7854 c -0.4004,-0.0000 -0.6468,-0.0231 -0.6468 -0.0231c -0.2464,-0.0231 -0.4312,-0.0693 -0.4312 -0.0693c -0.4158,0.3696 -0.4158,0.7546 -0.4158 0.7546ZM 504.0914,15.0565 ZM 502.2279,15.4107 c 0.0000,-0.9240 1.0934,-1.5400 1.0934 -1.5400v -0.0616 c -0.3080,-0.2002 -0.5082,-0.5082 -0.5082 -0.5082c -0.2002,-0.3080 -0.2002,-0.7854 -0.2002 -0.7854c 0.0000,-0.4158 0.2464,-0.7931 0.2464 -0.7931c 0.2464,-0.3773 0.6160,-0.6391 0.6160 -0.6391v -0.0616 c -0.4004,-0.2772 -0.7161,-0.7931 -0.7161 -0.7931c -0.3157,-0.5159 -0.3157,-1.1935 -0.3157 -1.1935c 0.0000,-0.6930 0.2618,-1.2089 0.2618 -1.2089c 0.2618,-0.5159 0.7007,-0.8624 0.7007 -0.8624c 0.4389,-0.3465 1.0087,-0.5159 1.0087 -0.5159c 0.5698,-0.1694 1.1858,-0.1694 1.1858 -0.1694c 0.6776,0.0000 1.1858,0.1848 1.1858 0.1848h 2.7875 v 1.6478 h -1.2166 c 0.1078,0.1694 0.1771,0.4312 0.1771 0.4312c 0.0693,0.2618 0.0693,0.5698 0.0693 0.5698c 0.0000,0.6622 -0.2310,1.1473 -0.2310 1.1473c -0.2310,0.4851 -0.6391,0.8008 -0.6391 0.8008c -0.4081,0.3157 -0.9548,0.4697 -0.9548 0.4697c -0.5467,0.1540 -1.1781,0.1540 -1.1781 0.1540c -0.4466,-0.0000 -0.9240,-0.1540 -0.9240 -0.1540c -0.1540,0.1232 -0.2156,0.2464 -0.2156 0.2464c -0.0616,0.1232 -0.0616,0.3234 -0.0616 0.3234c 0.0000,0.2926 0.2541,0.4312 0.2541 0.4312c 0.2541,0.1386 0.9009,0.1386 0.9009 0.1386h 1.2320 c 1.4168,0.0000 2.1638,0.4543 2.1638 0.4543c 0.7469,0.4543 0.7469,1.4861 0.7469 1.4861c 0.0000,0.6006 -0.3003,1.1011 -0.3003 1.1011c -0.3003,0.5005 -0.8547,0.8624 -0.8547 0.8624c -0.5544,0.3619 -1.3398,0.5698 -1.3398 0.5698c -0.7854,0.2079 -1.7710,0.2079 -1.7710 0.2079c -0.6776,-0.0000 -1.2551,-0.1155 -1.2551 -0.1155c -0.5775,-0.1155 -1.0164,-0.3465 -1.0164 -0.3465c -0.4389,-0.2310 -0.6853,-0.6006 -0.6853 -0.6006c -0.2464,-0.3696 -0.2464,-0.8778 -0.2464 -0.8778ZM 502.2279,15.4107 ZM 505.6006,10.3131 c 0.4466,0.0000 0.7469,-0.3157 0.7469 -0.3157c 0.3003,-0.3157 0.3003,-0.9625 0.3003 -0.9625c 0.0000,-0.6006 -0.3003,-0.9163 -0.3003 -0.9163c -0.3003,-0.3157 -0.7469,-0.3157 -0.7469 -0.3157c -0.4466,-0.0000 -0.7469,0.3080 -0.7469 0.3080c -0.3003,0.3080 -0.3003,0.9240 -0.3003 0.9240c 0.0000,0.6468 0.3003,0.9625 0.3003 0.9625c 0.3003,0.3157 0.7469,0.3157 0.7469 0.3157ZM 509.9281,14.1016 ZM 510.9292,3.3060 h 2.2639 v 8.5164 c 0.0000,0.3542 0.1309,0.4928 0.1309 0.4928c 0.1309,0.1386 0.2695,0.1386 0.2695 0.1386h 0.1309 c 0.0000,0.0000 0.1463,-0.0308 0.1463 -0.0308l 0.2772,1.6786 c -0.1848,0.0770 -0.4697,0.1309 -0.4697 0.1309c -0.2849,0.0539 -0.6699,0.0539 -0.6699 0.0539c -0.5852,-0.0000 -0.9856,-0.1848 -0.9856 -0.1848c -0.4004,-0.1848 -0.6391,-0.5159 -0.6391 -0.5159c -0.2387,-0.3311 -0.3465,-0.8008 -0.3465 -0.8008c -0.1078,-0.4697 -0.1078,-1.0549 -0.1078 -1.0549v -8.4240 ZM 514.3326,14.1016 ZM 514.8871,10.2823 c 0.0000,-0.9240 0.3080,-1.6709 0.3080 -1.6709c 0.3080,-0.7469 0.8085,-1.2628 0.8085 -1.2628c 0.5005,-0.5159 1.1473,-0.7931 1.1473 -0.7931c 0.6468,-0.2772 1.3398,-0.2772 1.3398 -0.2772c 0.8162,0.0000 1.4245,0.2772 1.4245 0.2772c 0.6083,0.2772 1.0164,0.7700 1.0164 0.7700c 0.4081,0.4928 0.6083,1.1627 0.6083 1.1627c 0.2002,0.6699 0.2002,1.4553 0.2002 1.4553c 0.0000,0.3080 -0.0308,0.5621 -0.0308 0.5621c -0.0308,0.2541 -0.0616,0.3927 -0.0616 0.3927h -4.5739 c 0.1540,0.8778 0.6853,1.2705 0.6853 1.2705c 0.5313,0.3927 1.3013,0.3927 1.3013 0.3927c 0.8162,0.0000 1.6478,-0.5082 1.6478 -0.5082l 0.7546,1.3706 c -0.5852,0.4004 -1.3013,0.6314 -1.3013 0.6314c -0.7161,0.2310 -1.4091,0.2310 -1.4091 0.2310c -0.8162,-0.0000 -1.5246,-0.2695 -1.5246 -0.2695c -0.7084,-0.2695 -1.2320,-0.7854 -1.2320 -0.7854c -0.5236,-0.5159 -0.8162,-1.2551 -0.8162 -1.2551c -0.2926,-0.7392 -0.2926,-1.6940 -0.2926 -1.6940ZM 514.8871,10.2823 ZM 519.8152,9.4969 c 0.0000,-0.6622 -0.2926,-1.0780 -0.2926 -1.0780c -0.2926,-0.4158 -0.9856,-0.4158 -0.9856 -0.4158c -0.5390,-0.0000 -0.9471,0.3619 -0.9471 0.3619c -0.4081,0.3619 -0.5313,1.1319 -0.5313 1.1319h 2.7567 ZM 525.5133,14.1016 ZM 526.8532,11.8070 c 0.5236,0.4004 1.0010,0.6006 1.0010 0.6006c 0.4774,0.2002 0.9702,0.2002 0.9702 0.2002c 0.5082,0.0000 0.7392,-0.1694 0.7392 -0.1694c 0.2310,-0.1694 0.2310,-0.4774 0.2310 -0.4774c 0.0000,-0.1848 -0.1309,-0.3311 -0.1309 -0.3311c -0.1309,-0.1463 -0.3542,-0.2695 -0.3542 -0.2695c -0.2233,-0.1232 -0.5005,-0.2233 -0.5005 -0.2233c -0.2772,-0.1001 -0.5698,-0.2233 -0.5698 -0.2233c -0.3542,-0.1386 -0.7084,-0.3234 -0.7084 -0.3234c -0.3542,-0.1848 -0.6468,-0.4543 -0.6468 -0.4543c -0.2926,-0.2695 -0.4774,-0.6314 -0.4774 -0.6314c -0.1848,-0.3619 -0.1848,-0.8393 -0.1848 -0.8393c 0.0000,-0.5236 0.2079,-0.9702 0.2079 -0.9702c 0.2079,-0.4466 0.5929,-0.7546 0.5929 -0.7546c 0.3850,-0.3080 0.9240,-0.4851 0.9240 -0.4851c 0.5390,-0.1771 1.2012,-0.1771 1.2012 -0.1771c 0.8778,0.0000 1.5400,0.3003 1.5400 0.3003c 0.6622,0.3003 1.1550,0.6699 1.1550 0.6699l -1.0164,1.3552 c -0.4158,-0.3080 -0.8162,-0.4774 -0.8162 -0.4774c -0.4004,-0.1694 -0.8008,-0.1694 -0.8008 -0.1694c -0.8624,-0.0000 -0.8624,0.6006 -0.8624 0.6006c 0.0000,0.1848 0.1232,0.3157 0.1232 0.3157c 0.1232,0.1309 0.3311,0.2387 0.3311 0.2387c 0.2079,0.1078 0.4774,0.2079 0.4774 0.2079c 0.2695,0.1001 0.5621,0.2079 0.5621 0.2079c 0.3696,0.1386 0.7315,0.3157 0.7315 0.3157c 0.3619,0.1771 0.6622,0.4389 0.6622 0.4389c 0.3003,0.2618 0.4851,0.6391 0.4851 0.6391c 0.1848,0.3773 0.1848,0.9009 0.1848 0.9009c 0.0000,0.5236 -0.2002,0.9702 -0.2002 0.9702c -0.2002,0.4466 -0.6006,0.7777 -0.6006 0.7777c -0.4004,0.3311 -0.9856,0.5236 -0.9856 0.5236c -0.5852,0.1925 -1.3552,0.1925 -1.3552 0.1925c -0.7546,-0.0000 -1.5477,-0.2926 -1.5477 -0.2926c -0.7931,-0.2926 -1.3783,-0.7700 -1.3783 -0.7700ZM 532.3357,14.1016 ZM 532.8901,10.2823 c 0.0000,-0.9240 0.3080,-1.6709 0.3080 -1.6709c 0.3080,-0.7469 0.8085,-1.2628 0.8085 -1.2628c 0.5005,-0.5159 1.1473,-0.7931 1.1473 -0.7931c 0.6468,-0.2772 1.3398,-0.2772 1.3398 -0.2772c 0.8162,0.0000 1.4245,0.2772 1.4245 0.2772c 0.6083,0.2772 1.0164,0.7700 1.0164 0.7700c 0.4081,0.4928 0.6083,1.1627 0.6083 1.1627c 0.2002,0.6699 0.2002,1.4553 0.2002 1.4553c 0.0000,0.3080 -0.0308,0.5621 -0.0308 0.5621c -0.0308,0.2541 -0.0616,0.3927 -0.0616 0.3927h -4.5739 c 0.1540,0.8778 0.6853,1.2705 0.6853 1.2705c 0.5313,0.3927 1.3013,0.3927 1.3013 0.3927c 0.8162,0.0000 1.6478,-0.5082 1.6478 -0.5082l 0.7546,1.3706 c -0.5852,0.4004 -1.3013,0.6314 -1.3013 0.6314c -0.7161,0.2310 -1.4091,0.2310 -1.4091 0.2310c -0.8162,-0.0000 -1.5246,-0.2695 -1.5246 -0.2695c -0.7084,-0.2695 -1.2320,-0.7854 -1.2320 -0.7854c -0.5236,-0.5159 -0.8162,-1.2551 -0.8162 -1.2551c -0.2926,-0.7392 -0.2926,-1.6940 -0.2926 -1.6940ZM 532.8901,10.2823 ZM 537.8183,9.4969 c 0.0000,-0.6622 -0.2926,-1.0780 -0.2926 -1.0780c -0.2926,-0.4158 -0.9856,-0.4158 -0.9856 -0.4158c -0.5390,-0.0000 -0.9471,0.3619 -0.9471 0.3619c -0.4081,0.3619 -0.5313,1.1319 -0.5313 1.1319h 2.7567 ZM 540.3131,14.1016 ZM 541.3142,3.3060 h 2.2639 v 8.5164 c 0.0000,0.3542 0.1309,0.4928 0.1309 0.4928c 0.1309,0.1386 0.2695,0.1386 0.2695 0.1386h 0.1309 c 0.0000,0.0000 0.1463,-0.0308 0.1463 -0.0308l 0.2772,1.6786 c -0.1848,0.0770 -0.4697,0.1309 -0.4697 0.1309c -0.2849,0.0539 -0.6699,0.0539 -0.6699 0.0539c -0.5852,-0.0000 -0.9856,-0.1848 -0.9856 -0.1848c -0.4004,-0.1848 -0.6391,-0.5159 -0.6391 -0.5159c -0.2387,-0.3311 -0.3465,-0.8008 -0.3465 -0.8008c -0.1078,-0.4697 -0.1078,-1.0549 -0.1078 -1.0549v -8.4240 ZM 544.7177,14.1016 ZM 545.2721,10.2823 c 0.0000,-0.9240 0.3080,-1.6709 0.3080 -1.6709c 0.3080,-0.7469 0.8085,-1.2628 0.8085 -1.2628c 0.5005,-0.5159 1.1473,-0.7931 1.1473 -0.7931c 0.6468,-0.2772 1.3398,-0.2772 1.3398 -0.2772c 0.8162,0.0000 1.4245,0.2772 1.4245 0.2772c 0.6083,0.2772 1.0164,0.7700 1.0164 0.7700c 0.4081,0.4928 0.6083,1.1627 0.6083 1.1627c 0.2002,0.6699 0.2002,1.4553 0.2002 1.4553c 0.0000,0.3080 -0.0308,0.5621 -0.0308 0.5621c -0.0308,0.2541 -0.0616,0.3927 -0.0616 0.3927h -4.5739 c 0.1540,0.8778 0.6853,1.2705 0.6853 1.2705c 0.5313,0.3927 1.3013,0.3927 1.3013 0.3927c 0.8162,0.0000 1.6478,-0.5082 1.6478 -0.5082l 0.7546,1.3706 c -0.5852,0.4004 -1.3013,0.6314 -1.3013 0.6314c -0.7161,0.2310 -1.4091,0.2310 -1.4091 0.2310c -0.8162,-0.0000 -1.5246,-0.2695 -1.5246 -0.2695c -0.7084,-0.2695 -1.2320,-0.7854 -1.2320 -0.7854c -0.5236,-0.5159 -0.8162,-1.2551 -0.8162 -1.2551c -0.2926,-0.7392 -0.2926,-1.6940 -0.2926 -1.6940ZM 545.2721,10.2823 ZM 550.2002,9.4969 c 0.0000,-0.6622 -0.2926,-1.0780 -0.2926 -1.0780c -0.2926,-0.4158 -0.9856,-0.4158 -0.9856 -0.4158c -0.5390,-0.0000 -0.9471,0.3619 -0.9471 0.3619c -0.4081,0.3619 -0.5313,1.1319 -0.5313 1.1319h 2.7567 ZM 552.6951,14.1016 ZM 553.2495,10.2823 c 0.0000,-0.9548 0.3234,-1.7017 0.3234 -1.7017c 0.3234,-0.7469 0.8701,-1.2551 0.8701 -1.2551c 0.5467,-0.5082 1.2705,-0.7777 1.2705 -0.7777c 0.7238,-0.2695 1.5092,-0.2695 1.5092 -0.2695c 0.7084,0.0000 1.2782,0.2387 1.2782 0.2387c 0.5698,0.2387 0.9548,0.6391 0.9548 0.6391l -1.0318,1.4014 c -0.5390,-0.4466 -1.0626,-0.4466 -1.0626 -0.4466c -0.8316,-0.0000 -1.3090,0.5852 -1.3090 0.5852c -0.4774,0.5852 -0.4774,1.5862 -0.4774 1.5862c 0.0000,1.0010 0.4851,1.5862 0.4851 1.5862c 0.4851,0.5852 1.2243,0.5852 1.2243 0.5852c 0.4158,0.0000 0.7546,-0.1694 0.7546 -0.1694c 0.3388,-0.1694 0.6160,-0.3850 0.6160 -0.3850l 0.9086,1.4322 c -0.5544,0.4928 -1.2320,0.7238 -1.2320 0.7238c -0.6776,0.2310 -1.3090,0.2310 -1.3090 0.2310c -0.8008,-0.0000 -1.4861,-0.2695 -1.4861 -0.2695c -0.6853,-0.2695 -1.1935,-0.7777 -1.1935 -0.7777c -0.5082,-0.5082 -0.8008,-1.2551 -0.8008 -1.2551c -0.2926,-0.7469 -0.2926,-1.7017 -0.2926 -1.7017ZM 559.8871,14.1016 ZM 561.1961,8.2341 h -1.0472 v -1.6786 l 1.1704,-0.0924 l 0.2618,-2.0329 h 1.8789 v 2.0329 h 1.8326 v 1.7710 h -1.8326 v 3.0647 c 0.0000,0.6468 0.2695,0.9317 0.2695 0.9317c 0.2695,0.2849 0.7161,0.2849 0.7161 0.2849c 0.1848,0.0000 0.3773,-0.0462 0.3773 -0.0462c 0.1925,-0.0462 0.3465,-0.1078 0.3465 -0.1078l 0.3542,1.6478 c -0.3080,0.0924 -0.7238,0.1848 -0.7238 0.1848c -0.4158,0.0924 -0.9702,0.0924 -0.9702 0.0924c -0.7084,-0.0000 -1.2089,-0.2156 -1.2089 -0.2156c -0.5005,-0.2156 -0.8162,-0.6006 -0.8162 -0.6006c -0.3157,-0.3850 -0.4620,-0.9317 -0.4620 -0.9317c -0.1463,-0.5467 -0.1463,-1.2089 -0.1463 -1.2089v -3.0955 ZM 565.7854,14.1016 ZM 566.5246,16.2731 c 0.8624,-1.5092 1.2474,-3.1571 1.2474 -3.1571c 0.3850,-1.6478 0.3850,-3.2957 0.3850 -3.2957c 0.0000,-1.6478 -0.3850,-3.2957 -0.3850 -3.2957c -0.3850,-1.6478 -1.2474,-3.1571 -1.2474 -3.1571l 1.4168,-0.5852 c 0.9702,1.5862 1.5015,3.2957 1.5015 3.2957c 0.5313,1.7094 0.5313,3.7423 0.5313 3.7423c 0.0000,2.0329 -0.5313,3.7423 -0.5313 3.7423c -0.5313,1.7094 -1.5015,3.2957 -1.5015 3.2957l -1.4168,-0.5852 h 0.0000 Z"/></g><g stroke-linejoin="miter" stroke-opacity="1.0" fill-opacity="0.0" stroke="rgb(211,211,211)" stroke-width="0.9999999999999997" fill="rgb(0,0,0)" stroke-dashoffset="0.0" stroke-linecap="butt" stroke-miterlimit="10.0" stroke-dasharray="4.999999999999998,4.999999999999998"><path d="M 35.0210,570.0000 h 741.6597 "/></g><g stroke-linejoin="miter" stroke-opacity="1.0" fill-opacity="0.0" stroke="rgb(211,211,211)" stroke-width="0.9999999999999997" fill="rgb(0,0,0)" stroke-dashoffset="0.0" stroke-linecap="butt" stroke-miterlimit="10.0" stroke-dasharray="4.999999999999998,4.999999999999998"><path d="M 35.0210,436.2500 h 741.6597 "/></g><g stroke-linejoin="miter" stroke-opacity="1.0" fill-opacity="0.0" stroke="rgb(211,211,211)" stroke-width="0.9999999999999997" fill="rgb(0,0,0)" stroke-dashoffset="0.0" stroke-linecap="butt" stroke-miterlimit="10.0" stroke-dasharray="4.999999999999998,4.999999999999998"><path d="M 35.0210,302.5000 h 741.6597 "/></g><g stroke-linejoin="miter" stroke-opacity="1.0" fill-opacity="0.0" stroke="rgb(211,211,211)" stroke-width="0.9999999999999997" fill="rgb(0,0,0)" stroke-dashoffset="0.0" stroke-linecap="butt" stroke-miterlimit="10.0" stroke-dasharray="4.999999999999998,4.999999999999998"><path d="M 35.0210,168.7500 h 741.6597 "/></g><g stroke-linejoin="miter" stroke-opacity="1.0" fill-opacity="0.0" stroke="rgb(211,211,211)" stroke-width="0.9999999999999997" fill="rgb(0,0,0)" stroke-dashoffset="0.0" stroke-linecap="butt" stroke-miterlimit="10.0" stroke-dasharray="4.999999999999998,4.999999999999998"><path d="M 35.0210,35.0000 h 741.6597 "/></g><g stroke-linejoin="bevel" stroke-opacity="0.0" fill-opacity="1.0" stroke="rgb(0,0,0)" stroke-width="0.0" fill="rgb(92,53,102)" stroke-linecap="butt" stroke-miterlimit="10.0"><defs><clipPath id="myClip1"><path d="M 35.0210,35.0000 v 535.0000 h 741.6597 v -535.0000 Z"/></clipPath></defs><g clip-path="url(#myClip1)"><path d="M 50.0210,570.0000 v -440.0375 h 118.3319 v 440.0375 Z"/></g></g><g stroke-linejoin="miter" stroke-opacity="1.0" fill-opacity="0.0" stroke="rgb(0,0,0)" stroke-width="0.9999999999999997" fill="rgb(0,0,0)" stroke-linecap="butt" stroke-miterlimit="10.0"><defs><clipPath id="myClip2"><path d="M 35.0210,35.0000 v 535.0000 h 741.6597 v -535.0000 Z"/></clipPath></defs><g clip-path="url(#myClip2)"><path d="M 50.0210,570.0000 v -440.0375 h 118.3319 v 440.0375 Z"/></g></g><g stroke-linejoin="bevel" stroke-opacity="0.0" fill-opacity="1.0" stroke="rgb(0,0,0)" stroke-width="0.0" fill="rgb(92,53,102)" stroke-linecap="butt" stroke-miterlimit="10.0"><defs><clipPath id="myClip3"><path d="M 35.0210,35.0000 v 535.0000 h 741.6597 v -535.0000 Z"/></clipPath></defs><g clip-path="url(#myClip3)"><path d="M 198.3529,570.0000 v -381.1875 h 118.3319 v 381.1875 Z"/></g></g><g stroke-linejoin="miter" stroke-opacity="1.0" fill-opacity="0.0" stroke="rgb(0,0,0)" stroke-width="0.9999999999999997" fill="rgb(0,0,0)" stroke-linecap="butt" stroke-miterlimit="10.0"><defs><clipPath id="myClip4"><path d="M 35.0210,35.0000 v 535.0000 h 741.6597 v -535.0000 Z"/></clipPath></defs><g clip-path="url(#myClip4)"><path d="M 198.3529,570.0000 v -381.1875 h 118.3319 v 381.1875 Z"/></g></g><g stroke-linejoin="bevel" stroke-opacity="0.0" fill-opacity="1.0" stroke="rgb(0,0,0)" stroke-width="0.0" fill="rgb(92,53,102)" stroke-linecap="butt" stroke-miterlimit="10.0"><defs><clipPath id="myClip5"><path d="M 35.0210,35.0000 v 535.0000 h 741.6597 v -535.0000 Z"/></clipPath></defs><g clip-path="url(#myClip5)"><path d="M 346.6849,570.0000 v -166.5187 h 118.3319 v 166.5187 Z"/></g></g><g stroke-linejoin="miter" stroke-opacity="1.0" fill-opacity="0.0" stroke="rgb(0,0,0)" stroke-width="0.9999999999999997" fill="rgb(0,0,0)" stroke-linecap="butt" stroke-miterlimit="10.0"><defs><clipPath id="myClip6"><path d="M 35.0210,35.0000 v 535.0000 h 741.6597 v -535.0000 Z"/></clipPath></defs><g clip-path="url(#myClip6)"><path d="M 346.6849,570.0000 v -166.5187 h 118.3319 v 166.5187 Z"/></g></g><g stroke-linejoin="bevel" stroke-opacity="0.0" fill-opacity="1.0" stroke="rgb(0,0,0)" stroke-width="0.0" fill="rgb(92,53,102)" stroke-linecap="butt" stroke-miterlimit="10.0"><defs><clipPath id="myClip7"><path d="M 35.0210,35.0000 v 535.0000 h 741.6597 v -535.0000 Z"/></clipPath></defs><g clip-path="url(#myClip7)"><path d="M 495.0168,570.0000 v -38.7875 h 118.3319 v 38.7875 Z"/></g></g><g stroke-linejoin="miter" stroke-opacity="1.0" fill-opacity="0.0" stroke="rgb(0,0,0)" stroke-width="0.9999999999999997" fill="rgb(0,0,0)" stroke-linecap="butt" stroke-miterlimit="10.0"><defs><clipPath id="myClip8"><path d="M 35.0210,35.0000 v 535.0000 h 741.6597 v -535.0000 Z"/></clipPath></defs><g clip-path="url(#myClip8)"><path d="M 495.0168,570.0000 v -38.7875 h 118.3319 v 38.7875 Z"/></g></g><g stroke-linejoin="bevel" stroke-opacity="0.0" fill-opacity="1.0" stroke="rgb(0,0,0)" stroke-width="0.0" fill="rgb(92,53,102)" stroke-linecap="butt" stroke-miterlimit="10.0"><defs><clipPath id="myClip9"><path d="M 35.0210,35.0000 v 535.0000 h 741.6597 v -535.0000 Z"/></clipPath></defs><g clip-path="url(#myClip9)"><path d="M 643.3487,570.0000 v -53.5000 h 118.3319 v 53.5000 Z"/></g></g><g stroke-linejoin="miter" stroke-opacity="1.0" fill-opacity="0.0" stroke="rgb(0,0,0)" stroke-width="0.9999999999999997" fill="rgb(0,0,0)" stroke-linecap="butt" stroke-miterlimit="10.0"><defs><clipPath id="myClip10"><path d="M 35.0210,35.0000 v 535.0000 h 741.6597 v -535.0000 Z"/></clipPath></defs><g clip-path="url(#myClip10)"><path d="M 643.3487,570.0000 v -53.5000 h 118.3319 v 53.5000 Z"/></g></g><g stroke-linejoin="miter" stroke-opacity="1.0" fill-opacity="0.0" stroke="rgb(0,0,0)" stroke-width="0.9999999999999997" fill="rgb(0,0,0)" stroke-linecap="square" stroke-miterlimit="10.0"><path d="M 35.0210,570.0000 v -535.0000 "/></g><g stroke-linejoin="miter" stroke-opacity="1.0" fill-opacity="0.0" stroke="rgb(0,0,0)" stroke-width="0.9999999999999997" fill="rgb(0,0,0)" stroke-linecap="butt" stroke-miterlimit="10.0"><path d="M 35.0210,570.0000 h 2.0000 "/></g><g stroke-linejoin="miter" stroke-opacity="1.0" fill-opacity="0.0" stroke="rgb(0,0,0)" stroke-width="0.9999999999999997" fill="rgb(0,0,0)" stroke-linecap="butt" stroke-miterlimit="10.0"><path d="M 35.0210,503.1250 h 2.0000 "/></g><g stroke-linejoin="miter" stroke-opacity="1.0" fill-opacity="0.0" stroke="rgb(0,0,0)" stroke-width="0.9999999999999997" fill="rgb(0,0,0)" stroke-linecap="butt" stroke-miterlimit="10.0"><path d="M 35.0210,436.2500 h 2.0000 "/></g><g stroke-linejoin="miter" stroke-opacity="1.0" fill-opacity="0.0" stroke="rgb(0,0,0)" stroke-width="0.9999999999999997" fill="rgb(0,0,0)" stroke-linecap="butt" stroke-miterlimit="10.0"><path d="M 35.0210,369.3750 h 2.0000 "/></g><g stroke-linejoin="miter" stroke-opacity="1.0" fill-opacity="0.0" stroke="rgb(0,0,0)" stroke-width="0.9999999999999997" fill="rgb(0,0,0)" stroke-linecap="butt" stroke-miterlimit="10.0"><path d="M 35.0210,302.5000 h 2.0000 "/></g><g stroke-linejoin="miter" stroke-opacity="1.0" fill-opacity="0.0" stroke="rgb(0,0,0)" stroke-width="0.9999999999999997" fill="rgb(0,0,0)" stroke-linecap="butt" stroke-miterlimit="10.0"><path d="M 35.0210,235.6250 h 2.0000 "/></g><g stroke-linejoin="miter" stroke-opacity="1.0" fill-opacity="0.0" stroke="rgb(0,0,0)" stroke-width="0.9999999999999997" fill="rgb(0,0,0)" stroke-linecap="butt" stroke-miterlimit="10.0"><path d="M 35.0210,168.7500 h 2.0000 "/></g><g stroke-linejoin="miter" stroke-opacity="1.0" fill-opacity="0.0" stroke="rgb(0,0,0)" stroke-width="0.9999999999999997" fill="rgb(0,0,0)" stroke-linecap="butt" stroke-miterlimit="10.0"><path d="M 35.0210,101.8750 h 2.0000 "/></g><g stroke-linejoin="miter" stroke-opacity="1.0" fill-opacity="0.0" stroke="rgb(0,0,0)" stroke-width="0.9999999999999997" fill="rgb(0,0,0)" stroke-linecap="butt" stroke-miterlimit="10.0"><path d="M 35.0210,35.0000 h 2.0000 "/></g><g stroke-linejoin="miter" stroke-opacity="1.0" fill-opacity="0.0" stroke="rgb(0,0,0)" stroke-width="0.9999999999999997" fill="rgb(0,0,0)" stroke-linecap="butt" stroke-miterlimit="10.0"><path d="M 35.0210,570.0000 h 5.0000 "/></g><g stroke-linejoin="miter" stroke-opacity="1.0" fill-opacity="0.0" stroke="rgb(0,0,0)" stroke-width="0.9999999999999997" fill="rgb(0,0,0)" stroke-linecap="butt" stroke-miterlimit="10.0"><path d="M 35.0210,436.2500 h 5.0000 "/></g><g stroke-linejoin="miter" stroke-opacity="1.0" fill-opacity="0.0" stroke="rgb(0,0,0)" stroke-width="0.9999999999999997" fill="rgb(0,0,0)" stroke-linecap="butt" stroke-miterlimit="10.0"><path d="M 35.0210,302.5000 h 5.0000 "/></g><g stroke-linejoin="miter" stroke-opacity="1.0" fill-opacity="0.0" stroke="rgb(0,0,0)" stroke-width="0.9999999999999997" fill="rgb(0,0,0)" stroke-linecap="butt" stroke-miterlimit="10.0"><path d="M 35.0210,168.7500 h 5.0000 "/></g><g stroke-linejoin="miter" stroke-opacity="1.0" fill-opacity="0.0" stroke="rgb(0,0,0)" stroke-width="0.9999999999999997" fill="rgb(0,0,0)" stroke-linecap="butt" stroke-miterlimit="10.0"><path d="M 35.0210,35.0000 h 5.0000 "/></g><g stroke-linejoin="bevel" stroke-opacity="0.0" fill-opacity="1.0" stroke="rgb(0,0,0)" stroke-width="0.0" fill="rgb(0,0,0)" stroke-linecap="butt" stroke-miterlimit="10.0"><path d="M 20.7248,573.4454 ZM 23.3403,573.5714 c -1.0189,-0.0000 -1.5861,-0.9034 -1.5861 -0.9034c -0.5672,-0.9034 -0.5672,-2.5945 -0.5672 -2.5945c 0.0000,-1.6912 0.5672,-2.5735 0.5672 -2.5735c 0.5672,-0.8824 1.5861,-0.8824 1.5861 -0.8824c 1.0084,0.0000 1.5756,0.8824 1.5756 0.8824c 0.5672,0.8824 0.5672,2.5735 0.5672 2.5735c 0.0000,1.6912 -0.5672,2.5945 -0.5672 2.5945c -0.5672,0.9034 -1.5756,0.9034 -1.5756 0.9034ZM 23.3403,573.5714 ZM 23.3403,572.8782 c 0.2941,0.0000 0.5305,-0.1628 0.5305 -0.1628c 0.2363,-0.1628 0.4097,-0.5042 0.4097 -0.5042c 0.1733,-0.3414 0.2679,-0.8718 0.2679 -0.8718c 0.0945,-0.5305 0.0945,-1.2658 0.0945 -1.2658c 0.0000,-0.7353 -0.0945,-1.2605 -0.0945 -1.2605c -0.0945,-0.5252 -0.2679,-0.8561 -0.2679 -0.8561c -0.1733,-0.3309 -0.4097,-0.4884 -0.4097 -0.4884c -0.2363,-0.1576 -0.5305,-0.1576 -0.5305 -0.1576c -0.2941,-0.0000 -0.5357,0.1576 -0.5357 0.1576c -0.2416,0.1576 -0.4149,0.4884 -0.4149 0.4884c -0.1733,0.3309 -0.2679,0.8561 -0.2679 0.8561c -0.0945,0.5252 -0.0945,1.2605 -0.0945 1.2605c 0.0000,1.4706 0.3624,2.1376 0.3624 2.1376c 0.3624,0.6670 0.9506,0.6670 0.9506 0.6670Z"/></g><g stroke-linejoin="bevel" stroke-opacity="0.0" fill-opacity="1.0" stroke="rgb(0,0,0)" stroke-width="0.0" fill="rgb(0,0,0)" stroke-linecap="butt" stroke-miterlimit="10.0"><path d="M 10.1996,439.6954 ZM 10.6197,439.1807 c 0.7563,-0.7563 1.3445,-1.3655 1.3445 -1.3655c 0.5882,-0.6092 0.9874,-1.1292 0.9874 -1.1292c 0.3992,-0.5200 0.6092,-0.9559 0.6092 -0.9559c 0.2101,-0.4359 0.2101,-0.8456 0.2101 -0.8456c 0.0000,-0.5777 -0.3151,-0.9454 -0.3151 -0.9454c -0.3151,-0.3676 -0.9559,-0.3676 -0.9559 -0.3676c -0.4202,-0.0000 -0.7773,0.2363 -0.7773 0.2363c -0.3571,0.2363 -0.6513,0.5725 -0.6513 0.5725l -0.4937,-0.4937 c 0.4202,-0.4622 0.8929,-0.7405 0.8929 -0.7405c 0.4727,-0.2784 1.1345,-0.2784 1.1345 -0.2784c 0.9349,0.0000 1.4706,0.5410 1.4706 0.5410c 0.5357,0.5410 0.5357,1.4338 0.5357 1.4338c 0.0000,0.4727 -0.2048,0.9506 -0.2048 0.9506c -0.2048,0.4779 -0.5672,0.9874 -0.5672 0.9874c -0.3624,0.5095 -0.8613,1.0609 -0.8613 1.0609c -0.4989,0.5515 -1.0977,1.1712 -1.0977 1.1712c 0.2731,-0.0210 0.5672,-0.0420 0.5672 -0.0420c 0.2941,-0.0210 0.5567,-0.0210 0.5567 -0.0210h 1.9433 v 0.7458 h -4.3277 v -0.5147 ZM 15.4202,439.6954 ZM 18.0357,439.8214 c -1.0189,-0.0000 -1.5861,-0.9034 -1.5861 -0.9034c -0.5672,-0.9034 -0.5672,-2.5945 -0.5672 -2.5945c 0.0000,-1.6912 0.5672,-2.5735 0.5672 -2.5735c 0.5672,-0.8824 1.5861,-0.8824 1.5861 -0.8824c 1.0084,0.0000 1.5756,0.8824 1.5756 0.8824c 0.5672,0.8824 0.5672,2.5735 0.5672 2.5735c 0.0000,1.6912 -0.5672,2.5945 -0.5672 2.5945c -0.5672,0.9034 -1.5756,0.9034 -1.5756 0.9034ZM 18.0357,439.8214 ZM 18.0357,439.1282 c 0.2941,0.0000 0.5305,-0.1628 0.5305 -0.1628c 0.2363,-0.1628 0.4097,-0.5042 0.4097 -0.5042c 0.1733,-0.3414 0.2679,-0.8718 0.2679 -0.8718c 0.0945,-0.5305 0.0945,-1.2658 0.0945 -1.2658c 0.0000,-0.7353 -0.0945,-1.2605 -0.0945 -1.2605c -0.0945,-0.5252 -0.2679,-0.8561 -0.2679 -0.8561c -0.1733,-0.3309 -0.4097,-0.4884 -0.4097 -0.4884c -0.2363,-0.1576 -0.5305,-0.1576 -0.5305 -0.1576c -0.2941,-0.0000 -0.5357,0.1576 -0.5357 0.1576c -0.2416,0.1576 -0.4149,0.4884 -0.4149 0.4884c -0.1733,0.3309 -0.2679,0.8561 -0.2679 0.8561c -0.0945,0.5252 -0.0945,1.2605 -0.0945 1.2605c 0.0000,1.4706 0.3624,2.1376 0.3624 2.1376c 0.3624,0.6670 0.9506,0.6670 0.9506 0.6670ZM 20.6408,439.6954 ZM 23.2563,439.8214 c -1.0189,-0.0000 -1.5861,-0.9034 -1.5861 -0.9034c -0.5672,-0.9034 -0.5672,-2.5945 -0.5672 -2.5945c 0.0000,-1.6912 0.5672,-2.5735 0.5672 -2.5735c 0.5672,-0.8824 1.5861,-0.8824 1.5861 -0.8824c 1.0084,0.0000 1.5756,0.8824 1.5756 0.8824c 0.5672,0.8824 0.5672,2.5735 0.5672 2.5735c 0.0000,1.6912 -0.5672,2.5945 -0.5672 2.5945c -0.5672,0.9034 -1.5756,0.9034 -1.5756 0.9034ZM 23.2563,439.8214 ZM 23.2563,439.1282 c 0.2941,0.0000 0.5305,-0.1628 0.5305 -0.1628c 0.2363,-0.1628 0.4097,-0.5042 0.4097 -0.5042c 0.1733,-0.3414 0.2679,-0.8718 0.2679 -0.8718c 0.0945,-0.5305 0.0945,-1.2658 0.0945 -1.2658c 0.0000,-0.7353 -0.0945,-1.2605 -0.0945 -1.2605c -0.0945,-0.5252 -0.2679,-0.8561 -0.2679 -0.8561c -0.1733,-0.3309 -0.4097,-0.4884 -0.4097 -0.4884c -0.2363,-0.1576 -0.5305,-0.1576 -0.5305 -0.1576c -0.2941,-0.0000 -0.5357,0.1576 -0.5357 0.1576c -0.2416,0.1576 -0.4149,0.4884 -0.4149 0.4884c -0.1733,0.3309 -0.2679,0.8561 -0.2679 0.8561c -0.0945,0.5252 -0.0945,1.2605 -0.0945 1.2605c 0.0000,1.4706 0.3624,2.1376 0.3624 2.1376c 0.3624,0.6670 0.9506,0.6670 0.9506 0.6670Z"/></g><g stroke-linejoin="bevel" stroke-opacity="0.0" fill-opacity="1.0" stroke="rgb(0,0,0)" stroke-width="0.0" fill="rgb(0,0,0)" stroke-linecap="butt" stroke-miterlimit="10.0"><path d="M 10.0000,305.9454 ZM 13.1933,303.4034 v -1.9433 c 0.0000,-0.2731 0.0158,-0.6460 0.0158 -0.6460c 0.0158,-0.3729 0.0368,-0.6460 0.0368 -0.6460h -0.0420 c -0.1261,0.2416 -0.2626,0.4727 -0.2626 0.4727c -0.1366,0.2311 -0.2836,0.4727 -0.2836 0.4727l -1.5651,2.2899 h 2.1008 ZM 13.1933,303.4034 ZM 14.9265,304.0966 h -0.9139 v 1.8487 h -0.8193 v -1.8487 h -3.0147 v -0.5672 l 2.8676,-4.2857 h 0.9664 v 4.1597 h 0.9139 v 0.6933 ZM 15.2206,305.9454 ZM 17.8361,306.0714 c -1.0189,-0.0000 -1.5861,-0.9034 -1.5861 -0.9034c -0.5672,-0.9034 -0.5672,-2.5945 -0.5672 -2.5945c 0.0000,-1.6912 0.5672,-2.5735 0.5672 -2.5735c 0.5672,-0.8824 1.5861,-0.8824 1.5861 -0.8824c 1.0084,0.0000 1.5756,0.8824 1.5756 0.8824c 0.5672,0.8824 0.5672,2.5735 0.5672 2.5735c 0.0000,1.6912 -0.5672,2.5945 -0.5672 2.5945c -0.5672,0.9034 -1.5756,0.9034 -1.5756 0.9034ZM 17.8361,306.0714 ZM 17.8361,305.3782 c 0.2941,0.0000 0.5305,-0.1628 0.5305 -0.1628c 0.2363,-0.1628 0.4097,-0.5042 0.4097 -0.5042c 0.1733,-0.3414 0.2679,-0.8718 0.2679 -0.8718c 0.0945,-0.5305 0.0945,-1.2658 0.0945 -1.2658c 0.0000,-0.7353 -0.0945,-1.2605 -0.0945 -1.2605c -0.0945,-0.5252 -0.2679,-0.8561 -0.2679 -0.8561c -0.1733,-0.3309 -0.4097,-0.4884 -0.4097 -0.4884c -0.2363,-0.1576 -0.5305,-0.1576 -0.5305 -0.1576c -0.2941,-0.0000 -0.5357,0.1576 -0.5357 0.1576c -0.2416,0.1576 -0.4149,0.4884 -0.4149 0.4884c -0.1733,0.3309 -0.2679,0.8561 -0.2679 0.8561c -0.0945,0.5252 -0.0945,1.2605 -0.0945 1.2605c 0.0000,1.4706 0.3624,2.1376 0.3624 2.1376c 0.3624,0.6670 0.9506,0.6670 0.9506 0.6670ZM 20.4412,305.9454 ZM 23.0567,306.0714 c -1.0189,-0.0000 -1.5861,-0.9034 -1.5861 -0.9034c -0.5672,-0.9034 -0.5672,-2.5945 -0.5672 -2.5945c 0.0000,-1.6912 0.5672,-2.5735 0.5672 -2.5735c 0.5672,-0.8824 1.5861,-0.8824 1.5861 -0.8824c 1.0084,0.0000 1.5756,0.8824 1.5756 0.8824c 0.5672,0.8824 0.5672,2.5735 0.5672 2.5735c 0.0000,1.6912 -0.5672,2.5945 -0.5672 2.5945c -0.5672,0.9034 -1.5756,0.9034 -1.5756 0.9034ZM 23.0567,306.0714 ZM 23.0567,305.3782 c 0.2941,0.0000 0.5305,-0.1628 0.5305 -0.1628c 0.2363,-0.1628 0.4097,-0.5042 0.4097 -0.5042c 0.1733,-0.3414 0.2679,-0.8718 0.2679 -0.8718c 0.0945,-0.5305 0.0945,-1.2658 0.0945 -1.2658c 0.0000,-0.7353 -0.0945,-1.2605 -0.0945 -1.2605c -0.0945,-0.5252 -0.2679,-0.8561 -0.2679 -0.8561c -0.1733,-0.3309 -0.4097,-0.4884 -0.4097 -0.4884c -0.2363,-0.1576 -0.5305,-0.1576 -0.5305 -0.1576c -0.2941,-0.0000 -0.5357,0.1576 -0.5357 0.1576c -0.2416,0.1576 -0.4149,0.4884 -0.4149 0.4884c -0.1733,0.3309 -0.2679,0.8561 -0.2679 0.8561c -0.0945,0.5252 -0.0945,1.2605 -0.0945 1.2605c 0.0000,1.4706 0.3624,2.1376 0.3624 2.1376c 0.3624,0.6670 0.9506,0.6670 0.9506 0.6670Z"/></g><g stroke-linejoin="bevel" stroke-opacity="0.0" fill-opacity="1.0" stroke="rgb(0,0,0)" stroke-width="0.0" fill="rgb(0,0,0)" stroke-linecap="butt" stroke-miterlimit="10.0"><path d="M 10.3256,172.1954 ZM 13.1408,171.6387 c 0.2521,0.0000 0.4622,-0.1050 0.4622 -0.1050c 0.2101,-0.1050 0.3676,-0.2994 0.3676 -0.2994c 0.1576,-0.1943 0.2468,-0.4622 0.2468 -0.4622c 0.0893,-0.2679 0.0893,-0.6040 0.0893 -0.6040c 0.0000,-0.6618 -0.3046,-1.0399 -0.3046 -1.0399c -0.3046,-0.3782 -0.9349,-0.3782 -0.9349 -0.3782c -0.3151,-0.0000 -0.6880,0.2048 -0.6880 0.2048c -0.3729,0.2048 -0.7090,0.6775 -0.7090 0.6775c 0.0840,0.9874 0.4569,1.4968 0.4569 1.4968c 0.3729,0.5095 1.0137,0.5095 1.0137 0.5095ZM 13.1408,171.6387 ZM 14.5168,166.6176 c -0.2101,-0.2416 -0.4989,-0.3834 -0.4989 -0.3834c -0.2889,-0.1418 -0.6040,-0.1418 -0.6040 -0.1418c -0.3466,-0.0000 -0.6618,0.1471 -0.6618 0.1471c -0.3151,0.1471 -0.5567,0.4832 -0.5567 0.4832c -0.2416,0.3361 -0.3887,0.8771 -0.3887 0.8771c -0.1471,0.5410 -0.1576,1.3393 -0.1576 1.3393c 0.3151,-0.3887 0.7353,-0.6145 0.7353 -0.6145c 0.4202,-0.2258 0.8298,-0.2258 0.8298 -0.2258c 0.8718,0.0000 1.3918,0.5147 1.3918 0.5147c 0.5200,0.5147 0.5200,1.5546 0.5200 1.5546c 0.0000,0.4832 -0.1576,0.8771 -0.1576 0.8771c -0.1576,0.3939 -0.4307,0.6775 -0.4307 0.6775c -0.2731,0.2836 -0.6303,0.4412 -0.6303 0.4412c -0.3571,0.1576 -0.7668,0.1576 -0.7668 0.1576c -0.4937,-0.0000 -0.9139,-0.1996 -0.9139 -0.1996c -0.4202,-0.1996 -0.7300,-0.6040 -0.7300 -0.6040c -0.3099,-0.4044 -0.4884,-1.0084 -0.4884 -1.0084c -0.1786,-0.6040 -0.1786,-1.4128 -0.1786 -1.4128c 0.0000,-1.0084 0.2101,-1.7174 0.2101 -1.7174c 0.2101,-0.7090 0.5672,-1.1555 0.5672 -1.1555c 0.3571,-0.4464 0.8141,-0.6513 0.8141 -0.6513c 0.4569,-0.2048 0.9611,-0.2048 0.9611 -0.2048c 0.5462,0.0000 0.9401,0.2048 0.9401 0.2048c 0.3939,0.2048 0.6775,0.5095 0.6775 0.5095ZM 15.5462,172.1954 ZM 18.1618,172.3214 c -1.0189,-0.0000 -1.5861,-0.9034 -1.5861 -0.9034c -0.5672,-0.9034 -0.5672,-2.5945 -0.5672 -2.5945c 0.0000,-1.6912 0.5672,-2.5735 0.5672 -2.5735c 0.5672,-0.8824 1.5861,-0.8824 1.5861 -0.8824c 1.0084,0.0000 1.5756,0.8824 1.5756 0.8824c 0.5672,0.8824 0.5672,2.5735 0.5672 2.5735c 0.0000,1.6912 -0.5672,2.5945 -0.5672 2.5945c -0.5672,0.9034 -1.5756,0.9034 -1.5756 0.9034ZM 18.1618,172.3214 ZM 18.1618,171.6282 c 0.2941,0.0000 0.5305,-0.1628 0.5305 -0.1628c 0.2363,-0.1628 0.4097,-0.5042 0.4097 -0.5042c 0.1733,-0.3414 0.2679,-0.8718 0.2679 -0.8718c 0.0945,-0.5305 0.0945,-1.2658 0.0945 -1.2658c 0.0000,-0.7353 -0.0945,-1.2605 -0.0945 -1.2605c -0.0945,-0.5252 -0.2679,-0.8561 -0.2679 -0.8561c -0.1733,-0.3309 -0.4097,-0.4884 -0.4097 -0.4884c -0.2363,-0.1576 -0.5305,-0.1576 -0.5305 -0.1576c -0.2941,-0.0000 -0.5357,0.1576 -0.5357 0.1576c -0.2416,0.1576 -0.4149,0.4884 -0.4149 0.4884c -0.1733,0.3309 -0.2679,0.8561 -0.2679 0.8561c -0.0945,0.5252 -0.0945,1.2605 -0.0945 1.2605c 0.0000,1.4706 0.3624,2.1376 0.3624 2.1376c 0.3624,0.6670 0.9506,0.6670 0.9506 0.6670ZM 20.7668,172.1954 ZM 23.3824,172.3214 c -1.0189,-0.0000 -1.5861,-0.9034 -1.5861 -0.9034c -0.5672,-0.9034 -0.5672,-2.5945 -0.5672 -2.5945c 0.0000,-1.6912 0.5672,-2.5735 0.5672 -2.5735c 0.5672,-0.8824 1.5861,-0.8824 1.5861 -0.8824c 1.0084,0.0000 1.5756,0.8824 1.5756 0.8824c 0.5672,0.8824 0.5672,2.5735 0.5672 2.5735c 0.0000,1.6912 -0.5672,2.5945 -0.5672 2.5945c -0.5672,0.9034 -1.5756,0.9034 -1.5756 0.9034ZM 23.3824,172.3214 ZM 23.3824,171.6282 c 0.2941,0.0000 0.5305,-0.1628 0.5305 -0.1628c 0.2363,-0.1628 0.4097,-0.5042 0.4097 -0.5042c 0.1733,-0.3414 0.2679,-0.8718 0.2679 -0.8718c 0.0945,-0.5305 0.0945,-1.2658 0.0945 -1.2658c 0.0000,-0.7353 -0.0945,-1.2605 -0.0945 -1.2605c -0.0945,-0.5252 -0.2679,-0.8561 -0.2679 -0.8561c -0.1733,-0.3309 -0.4097,-0.4884 -0.4097 -0.4884c -0.2363,-0.1576 -0.5305,-0.1576 -0.5305 -0.1576c -0.2941,-0.0000 -0.5357,0.1576 -0.5357 0.1576c -0.2416,0.1576 -0.4149,0.4884 -0.4149 0.4884c -0.1733,0.3309 -0.2679,0.8561 -0.2679 0.8561c -0.0945,0.5252 -0.0945,1.2605 -0.0945 1.2605c 0.0000,1.4706 0.3624,2.1376 0.3624 2.1376c 0.3624,0.6670 0.9506,0.6670 0.9506 0.6670Z"/></g><g stroke-linejoin="bevel" stroke-opacity="0.0" fill-opacity="1.0" stroke="rgb(0,0,0)" stroke-width="0.0" fill="rgb(0,0,0)" stroke-linecap="butt" stroke-miterlimit="10.0"><path d="M 10.2521,38.4454 ZM 11.4601,36.6492 c 0.0000,0.2836 0.1103,0.5147 0.1103 0.5147c 0.1103,0.2311 0.3046,0.4044 0.3046 0.4044c 0.1943,0.1733 0.4569,0.2679 0.4569 0.2679c 0.2626,0.0945 0.5672,0.0945 0.5672 0.0945c 0.5882,0.0000 0.9506,-0.3256 0.9506 -0.3256c 0.3624,-0.3256 0.3624,-0.8508 0.3624 -0.8508c 0.0000,-0.3256 -0.1471,-0.5567 -0.1471 -0.5567c -0.1471,-0.2311 -0.3992,-0.4044 -0.3992 -0.4044c -0.2521,-0.1733 -0.5830,-0.3151 -0.5830 -0.3151c -0.3309,-0.1418 -0.6880,-0.2889 -0.6880 -0.2889c -0.3992,0.2731 -0.6670,0.6355 -0.6670 0.6355c -0.2679,0.3624 -0.2679,0.8246 -0.2679 0.8246ZM 11.4601,36.6492 ZM 13.3508,34.7899 c 0.3361,-0.3046 0.5200,-0.6408 0.5200 -0.6408c 0.1838,-0.3361 0.1838,-0.7038 0.1838 -0.7038c 0.0000,-0.5042 -0.3046,-0.8456 -0.3046 -0.8456c -0.3046,-0.3414 -0.8613,-0.3414 -0.8613 -0.3414c -0.4727,-0.0000 -0.7773,0.2941 -0.7773 0.2941c -0.3046,0.2941 -0.3046,0.7878 -0.3046 0.7878c 0.0000,0.3046 0.1261,0.5200 0.1261 0.5200c 0.1261,0.2153 0.3414,0.3834 0.3414 0.3834c 0.2153,0.1681 0.4937,0.2994 0.4937 0.2994c 0.2784,0.1313 0.5830,0.2468 0.5830 0.2468ZM 13.3508,34.7899 ZM 10.6828,36.7332 c 0.0000,-0.3256 0.1103,-0.6040 0.1103 -0.6040c 0.1103,-0.2784 0.2836,-0.5042 0.2836 -0.5042c 0.1733,-0.2258 0.3992,-0.3992 0.3992 -0.3992c 0.2258,-0.1733 0.4674,-0.2994 0.4674 -0.2994v -0.0420 c -0.3676,-0.2626 -0.6513,-0.6355 -0.6513 -0.6355c -0.2836,-0.3729 -0.2836,-0.9086 -0.2836 -0.9086c 0.0000,-0.3887 0.1471,-0.7038 0.1471 -0.7038c 0.1471,-0.3151 0.3992,-0.5410 0.3992 -0.5410c 0.2521,-0.2258 0.5987,-0.3519 0.5987 -0.3519c 0.3466,-0.1261 0.7563,-0.1261 0.7563 -0.1261c 0.4412,0.0000 0.7878,0.1313 0.7878 0.1313c 0.3466,0.1313 0.5935,0.3676 0.5935 0.3676c 0.2468,0.2363 0.3782,0.5672 0.3782 0.5672c 0.1313,0.3309 0.1313,0.7195 0.1313 0.7195c 0.0000,0.2626 -0.0893,0.5042 -0.0893 0.5042c -0.0893,0.2416 -0.2206,0.4517 -0.2206 0.4517c -0.1313,0.2101 -0.2941,0.3782 -0.2941 0.3782c -0.1628,0.1681 -0.3204,0.2836 -0.3204 0.2836v 0.0420 c 0.2206,0.1261 0.4307,0.2889 0.4307 0.2889c 0.2101,0.1628 0.3729,0.3676 0.3729 0.3676c 0.1628,0.2048 0.2626,0.4674 0.2626 0.4674c 0.0998,0.2626 0.0998,0.5987 0.0998 0.5987c 0.0000,0.3782 -0.1576,0.7038 -0.1576 0.7038c -0.1576,0.3256 -0.4412,0.5672 -0.4412 0.5672c -0.2836,0.2416 -0.6828,0.3782 -0.6828 0.3782c -0.3992,0.1366 -0.8824,0.1366 -0.8824 0.1366c -0.4727,-0.0000 -0.8771,-0.1366 -0.8771 -0.1366c -0.4044,-0.1366 -0.6933,-0.3834 -0.6933 -0.3834c -0.2889,-0.2468 -0.4569,-0.5830 -0.4569 -0.5830c -0.1681,-0.3361 -0.1681,-0.7353 -0.1681 -0.7353ZM 15.4727,38.4454 ZM 18.0882,38.5714 c -1.0189,-0.0000 -1.5861,-0.9034 -1.5861 -0.9034c -0.5672,-0.9034 -0.5672,-2.5945 -0.5672 -2.5945c 0.0000,-1.6912 0.5672,-2.5735 0.5672 -2.5735c 0.5672,-0.8824 1.5861,-0.8824 1.5861 -0.8824c 1.0084,0.0000 1.5756,0.8824 1.5756 0.8824c 0.5672,0.8824 0.5672,2.5735 0.5672 2.5735c 0.0000,1.6912 -0.5672,2.5945 -0.5672 2.5945c -0.5672,0.9034 -1.5756,0.9034 -1.5756 0.9034ZM 18.0882,38.5714 ZM 18.0882,37.8782 c 0.2941,0.0000 0.5305,-0.1628 0.5305 -0.1628c 0.2363,-0.1628 0.4097,-0.5042 0.4097 -0.5042c 0.1733,-0.3414 0.2679,-0.8718 0.2679 -0.8718c 0.0945,-0.5305 0.0945,-1.2658 0.0945 -1.2658c 0.0000,-0.7353 -0.0945,-1.2605 -0.0945 -1.2605c -0.0945,-0.5252 -0.2679,-0.8561 -0.2679 -0.8561c -0.1733,-0.3309 -0.4097,-0.4884 -0.4097 -0.4884c -0.2363,-0.1576 -0.5305,-0.1576 -0.5305 -0.1576c -0.2941,-0.0000 -0.5357,0.1576 -0.5357 0.1576c -0.2416,0.1576 -0.4149,0.4884 -0.4149 0.4884c -0.1733,0.3309 -0.2679,0.8561 -0.2679 0.8561c -0.0945,0.5252 -0.0945,1.2605 -0.0945 1.2605c 0.0000,1.4706 0.3624,2.1376 0.3624 2.1376c 0.3624,0.6670 0.9506,0.6670 0.9506 0.6670ZM 20.6933,38.4454 ZM 23.3088,38.5714 c -1.0189,-0.0000 -1.5861,-0.9034 -1.5861 -0.9034c -0.5672,-0.9034 -0.5672,-2.5945 -0.5672 -2.5945c 0.0000,-1.6912 0.5672,-2.5735 0.5672 -2.5735c 0.5672,-0.8824 1.5861,-0.8824 1.5861 -0.8824c 1.0084,0.0000 1.5756,0.8824 1.5756 0.8824c 0.5672,0.8824 0.5672,2.5735 0.5672 2.5735c 0.0000,1.6912 -0.5672,2.5945 -0.5672 2.5945c -0.5672,0.9034 -1.5756,0.9034 -1.5756 0.9034ZM 23.3088,38.5714 ZM 23.3088,37.8782 c 0.2941,0.0000 0.5305,-0.1628 0.5305 -0.1628c 0.2363,-0.1628 0.4097,-0.5042 0.4097 -0.5042c 0.1733,-0.3414 0.2679,-0.8718 0.2679 -0.8718c 0.0945,-0.5305 0.0945,-1.2658 0.0945 -1.2658c 0.0000,-0.7353 -0.0945,-1.2605 -0.0945 -1.2605c -0.0945,-0.5252 -0.2679,-0.8561 -0.2679 -0.8561c -0.1733,-0.3309 -0.4097,-0.4884 -0.4097 -0.4884c -0.2363,-0.1576 -0.5305,-0.1576 -0.5305 -0.1576c -0.2941,-0.0000 -0.5357,0.1576 -0.5357 0.1576c -0.2416,0.1576 -0.4149,0.4884 -0.4149 0.4884c -0.1733,0.3309 -0.2679,0.8561 -0.2679 0.8561c -0.0945,0.5252 -0.0945,1.2605 -0.0945 1.2605c 0.0000,1.4706 0.3624,2.1376 0.3624 2.1376c 0.3624,0.6670 0.9506,0.6670 0.9506 0.6670Z"/></g><g stroke-linejoin="miter" stroke-opacity="1.0" fill-opacity="0.0" stroke="rgb(0,0,0)" stroke-width="0.9999999999999997" fill="rgb(0,0,0)" stroke-linecap="square" stroke-miterlimit="10.0"><path d="M 35.0210,570.0000 h 741.6597 "/></g><g stroke-linejoin="bevel" stroke-opacity="0.0" fill-opacity="1.0" stroke="rgb(0,0,0)" stroke-width="0.0" fill="rgb(0,0,0)" stroke-linecap="butt" stroke-miterlimit="10.0"><path d="M 98.7195,590.0000 ZM 99.6649,583.1092 h 1.7227 c 1.5966,0.0000 2.4265,0.8824 2.4265 0.8824c 0.8298,0.8824 0.8298,2.5315 0.8298 2.5315c 0.0000,0.8193 -0.2101,1.4653 -0.2101 1.4653c -0.2101,0.6460 -0.6197,1.0924 -0.6197 1.0924c -0.4097,0.4464 -1.0084,0.6828 -1.0084 0.6828c -0.5987,0.2363 -1.3761,0.2363 -1.3761 0.2363h -1.7647 v -6.8908 ZM 99.6649,583.1092 ZM 101.3246,589.2857 c 1.2080,0.0000 1.8120,-0.7248 1.8120 -0.7248c 0.6040,-0.7248 0.6040,-2.0378 0.6040 -2.0378c 0.0000,-1.3130 -0.6040,-2.0063 -0.6040 -2.0063c -0.6040,-0.6933 -1.8120,-0.6933 -1.8120 -0.6933h -0.7878 v 5.4622 h 0.7878 ZM 105.1796,590.0000 ZM 105.7889,588.6765 c 0.0000,-0.8403 0.7511,-1.2868 0.7511 -1.2868c 0.7511,-0.4464 2.3897,-0.6250 2.3897 -0.6250c 0.0000,-0.2416 -0.0473,-0.4727 -0.0473 -0.4727c -0.0473,-0.2311 -0.1681,-0.4097 -0.1681 -0.4097c -0.1208,-0.1786 -0.3204,-0.2889 -0.3204 -0.2889c -0.1996,-0.1103 -0.5147,-0.1103 -0.5147 -0.1103c -0.4517,-0.0000 -0.8351,0.1681 -0.8351 0.1681c -0.3834,0.1681 -0.6880,0.3782 -0.6880 0.3782l -0.3466,-0.5987 c 0.3571,-0.2311 0.8718,-0.4464 0.8718 -0.4464c 0.5147,-0.2153 1.1345,-0.2153 1.1345 -0.2153c 0.9349,0.0000 1.3550,0.5725 1.3550 0.5725c 0.4202,0.5725 0.4202,1.5284 0.4202 1.5284v 3.1303 h -0.7143 l -0.0735,-0.6092 h -0.0210 c -0.3676,0.3046 -0.7931,0.5200 -0.7931 0.5200c -0.4254,0.2153 -0.8981,0.2153 -0.8981 0.2153c -0.6513,-0.0000 -1.0767,-0.3782 -1.0767 -0.3782c -0.4254,-0.3782 -0.4254,-1.0714 -0.4254 -1.0714ZM 105.7889,588.6765 ZM 106.6397,588.6134 c 0.0000,0.4412 0.2574,0.6303 0.2574 0.6303c 0.2574,0.1891 0.6355,0.1891 0.6355 0.1891c 0.3676,0.0000 0.6985,-0.1733 0.6985 -0.1733c 0.3309,-0.1733 0.6985,-0.5095 0.6985 -0.5095v -1.4181 c -0.6408,0.0840 -1.0819,0.1996 -1.0819 0.1996c -0.4412,0.1155 -0.7090,0.2731 -0.7090 0.2731c -0.2679,0.1576 -0.3834,0.3624 -0.3834 0.3624c -0.1155,0.2048 -0.1155,0.4464 -0.1155 0.4464ZM 110.5578,590.0000 ZM 111.8603,583.8445 c -0.2521,-0.0000 -0.4254,-0.1576 -0.4254 -0.1576c -0.1733,-0.1576 -0.1733,-0.3992 -0.1733 -0.3992c 0.0000,-0.2521 0.1733,-0.4044 0.1733 -0.4044c 0.1733,-0.1523 0.4254,-0.1523 0.4254 -0.1523c 0.2521,0.0000 0.4254,0.1523 0.4254 0.1523c 0.1733,0.1523 0.1733,0.4044 0.1733 0.4044c 0.0000,0.2416 -0.1733,0.3992 -0.1733 0.3992c -0.1733,0.1576 -0.4254,0.1576 -0.4254 0.1576ZM 111.8603,583.8445 ZM 111.4191,584.8950 h 0.8613 v 5.1050 h -0.8613 v -5.1050 ZM 113.1418,590.0000 ZM 114.0032,582.5210 h 0.8613 v 6.5126 c 0.0000,0.2101 0.0735,0.2941 0.0735 0.2941c 0.0735,0.0840 0.1681,0.0840 0.1681 0.0840h 0.0788 c 0.0000,0.0000 0.1103,-0.0210 0.1103 -0.0210l 0.1155,0.6513 c -0.0840,0.0420 -0.1996,0.0630 -0.1996 0.0630c -0.1155,0.0210 -0.2941,0.0210 -0.2941 0.0210c -0.4937,-0.0000 -0.7038,-0.2941 -0.7038 -0.2941c -0.2101,-0.2941 -0.2101,-0.8613 -0.2101 -0.8613v -6.4496 ZM 115.8204,590.0000 ZM 116.3351,591.4076 l 0.1891,0.0473 c 0.0000,0.0000 0.1996,0.0263 0.1996 0.0263c 0.4412,0.0000 0.7195,-0.3099 0.7195 -0.3099c 0.2784,-0.3099 0.4359,-0.7826 0.4359 -0.7826l 0.1155,-0.3782 l -2.0483,-5.1155 h 0.8929 l 1.0399,2.8256 c 0.1155,0.3361 0.2468,0.7090 0.2468 0.7090c 0.1313,0.3729 0.2468,0.7300 0.2468 0.7300h 0.0420 c 0.1155,-0.3466 0.2206,-0.7248 0.2206 -0.7248c 0.1050,-0.3782 0.2101,-0.7143 0.2101 -0.7143l 0.9139,-2.8256 h 0.8403 l -1.9223,5.5252 c -0.1366,0.3782 -0.3046,0.7038 -0.3046 0.7038c -0.1681,0.3256 -0.3992,0.5620 -0.3992 0.5620c -0.2311,0.2363 -0.5252,0.3729 -0.5252 0.3729c -0.2941,0.1366 -0.6828,0.1366 -0.6828 0.1366c -0.1786,-0.0000 -0.3256,-0.0263 -0.3256 -0.0263c -0.1471,-0.0263 -0.2731,-0.0788 -0.2731 -0.0788l 0.1681,-0.6828 h 0.0000 Z"/></g><g stroke-linejoin="bevel" stroke-opacity="0.0" fill-opacity="1.0" stroke="rgb(0,0,0)" stroke-width="0.0" fill="rgb(0,0,0)" stroke-linecap="butt" stroke-miterlimit="10.0"><path d="M 241.9727,590.0000 ZM 242.2143,583.1092 h 0.9034 l 0.7248,3.7500 c 0.0945,0.5672 0.1996,1.1134 0.1996 1.1134c 0.1050,0.5462 0.1996,1.1134 0.1996 1.1134h 0.0420 c 0.1155,-0.5672 0.2416,-1.1187 0.2416 -1.1187c 0.1261,-0.5515 0.2416,-1.1082 0.2416 -1.1082l 0.9559,-3.7500 h 0.7983 l 0.9559,3.7500 c 0.1261,0.5462 0.2521,1.1029 0.2521 1.1029c 0.1261,0.5567 0.2521,1.1239 0.2521 1.1239h 0.0420 c 0.0945,-0.5672 0.1891,-1.1187 0.1891 -1.1187c 0.0945,-0.5515 0.1996,-1.1082 0.1996 -1.1082l 0.7248,-3.7500 h 0.8403 l -1.4286,6.8908 h -1.0504 l -1.0399,-4.1492 c -0.0945,-0.3992 -0.1733,-0.7826 -0.1733 -0.7826c -0.0788,-0.3834 -0.1628,-0.7826 -0.1628 -0.7826h -0.0420 c -0.0840,0.3992 -0.1733,0.7826 -0.1733 0.7826c -0.0893,0.3834 -0.1733,0.7826 -0.1733 0.7826l -1.0189,4.1492 h -1.0399 ZM 250.2290,590.0000 ZM 250.7122,587.4580 c 0.0000,-0.6303 0.1943,-1.1292 0.1943 -1.1292c 0.1943,-0.4989 0.5147,-0.8456 0.5147 -0.8456c 0.3204,-0.3466 0.7300,-0.5305 0.7300 -0.5305c 0.4097,-0.1838 0.8508,-0.1838 0.8508 -0.1838c 0.4832,0.0000 0.8666,0.1681 0.8666 0.1681c 0.3834,0.1681 0.6408,0.4832 0.6408 0.4832c 0.2574,0.3151 0.3939,0.7563 0.3939 0.7563c 0.1366,0.4412 0.1366,0.9874 0.1366 0.9874c 0.0000,0.2836 -0.0315,0.4727 -0.0315 0.4727h -3.4454 c 0.0525,0.8298 0.5095,1.3130 0.5095 1.3130c 0.4569,0.4832 1.1922,0.4832 1.1922 0.4832c 0.3676,0.0000 0.6775,-0.1103 0.6775 -0.1103c 0.3099,-0.1103 0.5935,-0.2889 0.5935 -0.2889l 0.3046,0.5672 c -0.3361,0.2101 -0.7458,0.3676 -0.7458 0.3676c -0.4097,0.1576 -0.9349,0.1576 -0.9349 0.1576c -0.5147,-0.0000 -0.9611,-0.1838 -0.9611 -0.1838c -0.4464,-0.1838 -0.7773,-0.5252 -0.7773 -0.5252c -0.3309,-0.3414 -0.5200,-0.8351 -0.5200 -0.8351c -0.1891,-0.4937 -0.1891,-1.1239 -0.1891 -1.1239ZM 250.7122,587.4580 ZM 254.2836,587.0693 c 0.0000,-0.7878 -0.3309,-1.2027 -0.3309 -1.2027c -0.3309,-0.4149 -0.9296,-0.4149 -0.9296 -0.4149c -0.2731,-0.0000 -0.5200,0.1103 -0.5200 0.1103c -0.2468,0.1103 -0.4464,0.3151 -0.4464 0.3151c -0.1996,0.2048 -0.3309,0.5042 -0.3309 0.5042c -0.1313,0.2994 -0.1733,0.6880 -0.1733 0.6880h 2.7311 ZM 255.4391,590.0000 ZM 255.9223,587.4580 c 0.0000,-0.6303 0.1943,-1.1292 0.1943 -1.1292c 0.1943,-0.4989 0.5147,-0.8456 0.5147 -0.8456c 0.3204,-0.3466 0.7300,-0.5305 0.7300 -0.5305c 0.4097,-0.1838 0.8508,-0.1838 0.8508 -0.1838c 0.4832,0.0000 0.8666,0.1681 0.8666 0.1681c 0.3834,0.1681 0.6408,0.4832 0.6408 0.4832c 0.2574,0.3151 0.3939,0.7563 0.3939 0.7563c 0.1366,0.4412 0.1366,0.9874 0.1366 0.9874c 0.0000,0.2836 -0.0315,0.4727 -0.0315 0.4727h -3.4454 c 0.0525,0.8298 0.5095,1.3130 0.5095 1.3130c 0.4569,0.4832 1.1922,0.4832 1.1922 0.4832c 0.3676,0.0000 0.6775,-0.1103 0.6775 -0.1103c 0.3099,-0.1103 0.5935,-0.2889 0.5935 -0.2889l 0.3046,0.5672 c -0.3361,0.2101 -0.7458,0.3676 -0.7458 0.3676c -0.4097,0.1576 -0.9349,0.1576 -0.9349 0.1576c -0.5147,-0.0000 -0.9611,-0.1838 -0.9611 -0.1838c -0.4464,-0.1838 -0.7773,-0.5252 -0.7773 -0.5252c -0.3309,-0.3414 -0.5200,-0.8351 -0.5200 -0.8351c -0.1891,-0.4937 -0.1891,-1.1239 -0.1891 -1.1239ZM 255.9223,587.4580 ZM 259.4937,587.0693 c 0.0000,-0.7878 -0.3309,-1.2027 -0.3309 -1.2027c -0.3309,-0.4149 -0.9296,-0.4149 -0.9296 -0.4149c -0.2731,-0.0000 -0.5200,0.1103 -0.5200 0.1103c -0.2468,0.1103 -0.4464,0.3151 -0.4464 0.3151c -0.1996,0.2048 -0.3309,0.5042 -0.3309 0.5042c -0.1313,0.2994 -0.1733,0.6880 -0.1733 0.6880h 2.7311 ZM 260.6492,590.0000 ZM 261.5105,582.5210 h 0.8508 v 5.0630 h 0.0315 l 2.1744,-2.6891 h 0.9559 l -1.7122,2.0483 l 1.9433,3.0567 h -0.9454 l -1.4916,-2.4580 l -0.9559,1.1134 v 1.3445 h -0.8508 v -7.4790 ZM 265.8487,590.0000 ZM 266.7101,582.5210 h 0.8613 v 6.5126 c 0.0000,0.2101 0.0735,0.2941 0.0735 0.2941c 0.0735,0.0840 0.1681,0.0840 0.1681 0.0840h 0.0788 c 0.0000,0.0000 0.1103,-0.0210 0.1103 -0.0210l 0.1155,0.6513 c -0.0840,0.0420 -0.1996,0.0630 -0.1996 0.0630c -0.1155,0.0210 -0.2941,0.0210 -0.2941 0.0210c -0.4937,-0.0000 -0.7038,-0.2941 -0.7038 -0.2941c -0.2101,-0.2941 -0.2101,-0.8613 -0.2101 -0.8613v -6.4496 ZM 268.5273,590.0000 ZM 269.0420,591.4076 l 0.1891,0.0473 c 0.0000,0.0000 0.1996,0.0263 0.1996 0.0263c 0.4412,0.0000 0.7195,-0.3099 0.7195 -0.3099c 0.2784,-0.3099 0.4359,-0.7826 0.4359 -0.7826l 0.1155,-0.3782 l -2.0483,-5.1155 h 0.8929 l 1.0399,2.8256 c 0.1155,0.3361 0.2468,0.7090 0.2468 0.7090c 0.1313,0.3729 0.2468,0.7300 0.2468 0.7300h 0.0420 c 0.1155,-0.3466 0.2206,-0.7248 0.2206 -0.7248c 0.1050,-0.3782 0.2101,-0.7143 0.2101 -0.7143l 0.9139,-2.8256 h 0.8403 l -1.9223,5.5252 c -0.1366,0.3782 -0.3046,0.7038 -0.3046 0.7038c -0.1681,0.3256 -0.3992,0.5620 -0.3992 0.5620c -0.2311,0.2363 -0.5252,0.3729 -0.5252 0.3729c -0.2941,0.1366 -0.6828,0.1366 -0.6828 0.1366c -0.1786,-0.0000 -0.3256,-0.0263 -0.3256 -0.0263c -0.1471,-0.0263 -0.2731,-0.0788 -0.2731 -0.0788l 0.1681,-0.6828 h 0.0000 Z"/></g><g stroke-linejoin="bevel" stroke-opacity="0.0" fill-opacity="1.0" stroke="rgb(0,0,0)" stroke-width="0.0" fill="rgb(0,0,0)" stroke-linecap="butt" stroke-miterlimit="10.0"><path d="M 388.4244,590.0000 ZM 389.3697,583.1092 h 1.0294 l 1.3340,3.6975 l 0.5042,1.4076 h 0.0420 l 0.4832,-1.4076 l 1.3235,-3.6975 h 1.0294 v 6.8908 h -0.8298 v -3.7920 c 0.0000,-0.4622 0.0368,-1.0189 0.0368 -1.0189c 0.0368,-0.5567 0.0788,-1.0189 0.0788 -1.0189h -0.0420 l -0.5567,1.5336 l -1.3235,3.6029 h -0.4937 l -1.3340,-3.6029 l -0.5462,-1.5336 h -0.0420 c 0.0315,0.4622 0.0735,1.0189 0.0735 1.0189c 0.0420,0.5567 0.0420,1.0189 0.0420 1.0189v 3.7920 h -0.8088 v -6.8908 ZM 396.0609,590.0000 ZM 396.5441,587.4580 c 0.0000,-0.6408 0.1943,-1.1397 0.1943 -1.1397c 0.1943,-0.4989 0.5200,-0.8456 0.5200 -0.8456c 0.3256,-0.3466 0.7511,-0.5252 0.7511 -0.5252c 0.4254,-0.1786 0.8981,-0.1786 0.8981 -0.1786c 0.4727,0.0000 0.8981,0.1786 0.8981 0.1786c 0.4254,0.1786 0.7511,0.5252 0.7511 0.5252c 0.3256,0.3466 0.5200,0.8456 0.5200 0.8456c 0.1943,0.4989 0.1943,1.1397 0.1943 1.1397c 0.0000,0.6303 -0.1943,1.1292 -0.1943 1.1292c -0.1943,0.4989 -0.5200,0.8403 -0.5200 0.8403c -0.3256,0.3414 -0.7511,0.5200 -0.7511 0.5200c -0.4254,0.1786 -0.8981,0.1786 -0.8981 0.1786c -0.4727,-0.0000 -0.8981,-0.1786 -0.8981 -0.1786c -0.4254,-0.1786 -0.7511,-0.5200 -0.7511 -0.5200c -0.3256,-0.3414 -0.5200,-0.8403 -0.5200 -0.8403c -0.1943,-0.4989 -0.1943,-1.1292 -0.1943 -1.1292ZM 396.5441,587.4580 ZM 397.4370,587.4580 c 0.0000,0.4412 0.1050,0.7983 0.1050 0.7983c 0.1050,0.3571 0.2994,0.6145 0.2994 0.6145c 0.1943,0.2574 0.4674,0.3992 0.4674 0.3992c 0.2731,0.1418 0.5987,0.1418 0.5987 0.1418c 0.3256,0.0000 0.5987,-0.1418 0.5987 -0.1418c 0.2731,-0.1418 0.4674,-0.3992 0.4674 -0.3992c 0.1943,-0.2574 0.2994,-0.6145 0.2994 -0.6145c 0.1050,-0.3571 0.1050,-0.7983 0.1050 -0.7983c 0.0000,-0.4412 -0.1050,-0.8036 -0.1050 -0.8036c -0.1050,-0.3624 -0.2994,-0.6250 -0.2994 -0.6250c -0.1943,-0.2626 -0.4674,-0.4044 -0.4674 -0.4044c -0.2731,-0.1418 -0.5987,-0.1418 -0.5987 -0.1418c -0.3256,-0.0000 -0.5987,0.1418 -0.5987 0.1418c -0.2731,0.1418 -0.4674,0.4044 -0.4674 0.4044c -0.1943,0.2626 -0.2994,0.6250 -0.2994 0.6250c -0.1050,0.3624 -0.1050,0.8036 -0.1050 0.8036ZM 401.7542,590.0000 ZM 402.6155,584.8950 h 0.7143 l 0.0735,0.7353 h 0.0315 c 0.3676,-0.3676 0.7721,-0.6145 0.7721 -0.6145c 0.4044,-0.2468 0.9401,-0.2468 0.9401 -0.2468c 0.8088,0.0000 1.1817,0.5042 1.1817 0.5042c 0.3729,0.5042 0.3729,1.4916 0.3729 1.4916v 3.2353 h -0.8613 v -3.1197 c 0.0000,-0.7248 -0.2311,-1.0452 -0.2311 -1.0452c -0.2311,-0.3204 -0.7353,-0.3204 -0.7353 -0.3204c -0.3992,-0.0000 -0.7038,0.1996 -0.7038 0.1996c -0.3046,0.1996 -0.6933,0.5882 -0.6933 0.5882v 3.6975 h -0.8613 v -5.1050 ZM 407.5000,590.0000 ZM 408.5084,585.5987 h -0.7563 v -0.6513 l 0.7983,-0.0525 l 0.1050,-1.4286 h 0.7248 v 1.4286 h 1.3761 v 0.7038 h -1.3761 v 2.8361 c 0.0000,0.4727 0.1733,0.7300 0.1733 0.7300c 0.1733,0.2574 0.6145,0.2574 0.6145 0.2574c 0.1366,0.0000 0.2941,-0.0420 0.2941 -0.0420c 0.1576,-0.0420 0.2836,-0.0945 0.2836 -0.0945l 0.1681,0.6513 c -0.2101,0.0735 -0.4569,0.1313 -0.4569 0.1313c -0.2468,0.0578 -0.4884,0.0578 -0.4884 0.0578c -0.4097,-0.0000 -0.6880,-0.1261 -0.6880 -0.1261c -0.2784,-0.1261 -0.4517,-0.3466 -0.4517 -0.3466c -0.1733,-0.2206 -0.2468,-0.5357 -0.2468 -0.5357c -0.0735,-0.3151 -0.0735,-0.6933 -0.0735 -0.6933v -2.8256 ZM 411.0504,590.0000 ZM 411.9118,582.5210 h 0.8613 v 2.0378 l -0.0315,1.0504 c 0.3676,-0.3466 0.7668,-0.5935 0.7668 -0.5935c 0.3992,-0.2468 0.9349,-0.2468 0.9349 -0.2468c 0.8088,0.0000 1.1817,0.5042 1.1817 0.5042c 0.3729,0.5042 0.3729,1.4916 0.3729 1.4916v 3.2353 h -0.8613 v -3.1197 c 0.0000,-0.7248 -0.2311,-1.0452 -0.2311 -1.0452c -0.2311,-0.3204 -0.7353,-0.3204 -0.7353 -0.3204c -0.3992,-0.0000 -0.7038,0.1996 -0.7038 0.1996c -0.3046,0.1996 -0.6933,0.5882 -0.6933 0.5882v 3.6975 h -0.8613 v -7.4790 ZM 416.7647,590.0000 ZM 417.6261,582.5210 h 0.8613 v 6.5126 c 0.0000,0.2101 0.0735,0.2941 0.0735 0.2941c 0.0735,0.0840 0.1681,0.0840 0.1681 0.0840h 0.0788 c 0.0000,0.0000 0.1103,-0.0210 0.1103 -0.0210l 0.1155,0.6513 c -0.0840,0.0420 -0.1996,0.0630 -0.1996 0.0630c -0.1155,0.0210 -0.2941,0.0210 -0.2941 0.0210c -0.4937,-0.0000 -0.7038,-0.2941 -0.7038 -0.2941c -0.2101,-0.2941 -0.2101,-0.8613 -0.2101 -0.8613v -6.4496 ZM 419.4433,590.0000 ZM 419.9580,591.4076 l 0.1891,0.0473 c 0.0000,0.0000 0.1996,0.0263 0.1996 0.0263c 0.4412,0.0000 0.7195,-0.3099 0.7195 -0.3099c 0.2784,-0.3099 0.4359,-0.7826 0.4359 -0.7826l 0.1155,-0.3782 l -2.0483,-5.1155 h 0.8929 l 1.0399,2.8256 c 0.1155,0.3361 0.2468,0.7090 0.2468 0.7090c 0.1313,0.3729 0.2468,0.7300 0.2468 0.7300h 0.0420 c 0.1155,-0.3466 0.2206,-0.7248 0.2206 -0.7248c 0.1050,-0.3782 0.2101,-0.7143 0.2101 -0.7143l 0.9139,-2.8256 h 0.8403 l -1.9223,5.5252 c -0.1366,0.3782 -0.3046,0.7038 -0.3046 0.7038c -0.1681,0.3256 -0.3992,0.5620 -0.3992 0.5620c -0.2311,0.2363 -0.5252,0.3729 -0.5252 0.3729c -0.2941,0.1366 -0.6828,0.1366 -0.6828 0.1366c -0.1786,-0.0000 -0.3256,-0.0263 -0.3256 -0.0263c -0.1471,-0.0263 -0.2731,-0.0788 -0.2731 -0.0788l 0.1681,-0.6828 h 0.0000 Z"/></g><g stroke-linejoin="bevel" stroke-opacity="0.0" fill-opacity="1.0" stroke="rgb(0,0,0)" stroke-width="0.0" fill="rgb(0,0,0)" stroke-linecap="butt" stroke-miterlimit="10.0"><path d="M 541.1208,590.0000 ZM 543.1796,587.3319 l -2.0693,-4.2227 h 0.9349 l 0.8929,1.9433 c 0.1681,0.3782 0.3256,0.7458 0.3256 0.7458c 0.1576,0.3676 0.3361,0.7563 0.3361 0.7563h 0.0420 c 0.1786,-0.3887 0.3571,-0.7563 0.3571 -0.7563c 0.1786,-0.3676 0.3361,-0.7458 0.3361 -0.7458l 0.8824,-1.9433 h 0.9139 l -2.0693,4.2227 v 2.6681 h -0.8824 v -2.6681 ZM 545.6901,590.0000 ZM 546.1733,587.4580 c 0.0000,-0.6303 0.1943,-1.1292 0.1943 -1.1292c 0.1943,-0.4989 0.5147,-0.8456 0.5147 -0.8456c 0.3204,-0.3466 0.7300,-0.5305 0.7300 -0.5305c 0.4097,-0.1838 0.8508,-0.1838 0.8508 -0.1838c 0.4832,0.0000 0.8666,0.1681 0.8666 0.1681c 0.3834,0.1681 0.6408,0.4832 0.6408 0.4832c 0.2574,0.3151 0.3939,0.7563 0.3939 0.7563c 0.1366,0.4412 0.1366,0.9874 0.1366 0.9874c 0.0000,0.2836 -0.0315,0.4727 -0.0315 0.4727h -3.4454 c 0.0525,0.8298 0.5095,1.3130 0.5095 1.3130c 0.4569,0.4832 1.1922,0.4832 1.1922 0.4832c 0.3676,0.0000 0.6775,-0.1103 0.6775 -0.1103c 0.3099,-0.1103 0.5935,-0.2889 0.5935 -0.2889l 0.3046,0.5672 c -0.3361,0.2101 -0.7458,0.3676 -0.7458 0.3676c -0.4097,0.1576 -0.9349,0.1576 -0.9349 0.1576c -0.5147,-0.0000 -0.9611,-0.1838 -0.9611 -0.1838c -0.4464,-0.1838 -0.7773,-0.5252 -0.7773 -0.5252c -0.3309,-0.3414 -0.5200,-0.8351 -0.5200 -0.8351c -0.1891,-0.4937 -0.1891,-1.1239 -0.1891 -1.1239ZM 546.1733,587.4580 ZM 549.7447,587.0693 c 0.0000,-0.7878 -0.3309,-1.2027 -0.3309 -1.2027c -0.3309,-0.4149 -0.9296,-0.4149 -0.9296 -0.4149c -0.2731,-0.0000 -0.5200,0.1103 -0.5200 0.1103c -0.2468,0.1103 -0.4464,0.3151 -0.4464 0.3151c -0.1996,0.2048 -0.3309,0.5042 -0.3309 0.5042c -0.1313,0.2994 -0.1733,0.6880 -0.1733 0.6880h 2.7311 ZM 550.7532,590.0000 ZM 551.3624,588.6765 c 0.0000,-0.8403 0.7511,-1.2868 0.7511 -1.2868c 0.7511,-0.4464 2.3897,-0.6250 2.3897 -0.6250c 0.0000,-0.2416 -0.0473,-0.4727 -0.0473 -0.4727c -0.0473,-0.2311 -0.1681,-0.4097 -0.1681 -0.4097c -0.1208,-0.1786 -0.3204,-0.2889 -0.3204 -0.2889c -0.1996,-0.1103 -0.5147,-0.1103 -0.5147 -0.1103c -0.4517,-0.0000 -0.8351,0.1681 -0.8351 0.1681c -0.3834,0.1681 -0.6880,0.3782 -0.6880 0.3782l -0.3466,-0.5987 c 0.3571,-0.2311 0.8718,-0.4464 0.8718 -0.4464c 0.5147,-0.2153 1.1345,-0.2153 1.1345 -0.2153c 0.9349,0.0000 1.3550,0.5725 1.3550 0.5725c 0.4202,0.5725 0.4202,1.5284 0.4202 1.5284v 3.1303 h -0.7143 l -0.0735,-0.6092 h -0.0210 c -0.3676,0.3046 -0.7931,0.5200 -0.7931 0.5200c -0.4254,0.2153 -0.8981,0.2153 -0.8981 0.2153c -0.6513,-0.0000 -1.0767,-0.3782 -1.0767 -0.3782c -0.4254,-0.3782 -0.4254,-1.0714 -0.4254 -1.0714ZM 551.3624,588.6765 ZM 552.2132,588.6134 c 0.0000,0.4412 0.2574,0.6303 0.2574 0.6303c 0.2574,0.1891 0.6355,0.1891 0.6355 0.1891c 0.3676,0.0000 0.6985,-0.1733 0.6985 -0.1733c 0.3309,-0.1733 0.6985,-0.5095 0.6985 -0.5095v -1.4181 c -0.6408,0.0840 -1.0819,0.1996 -1.0819 0.1996c -0.4412,0.1155 -0.7090,0.2731 -0.7090 0.2731c -0.2679,0.1576 -0.3834,0.3624 -0.3834 0.3624c -0.1155,0.2048 -0.1155,0.4464 -0.1155 0.4464ZM 556.1313,590.0000 ZM 556.9926,584.8950 h 0.7143 l 0.0735,0.9244 h 0.0315 c 0.2626,-0.4832 0.6355,-0.7668 0.6355 -0.7668c 0.3729,-0.2836 0.8141,-0.2836 0.8141 -0.2836c 0.3046,0.0000 0.5462,0.1050 0.5462 0.1050l -0.1681,0.7563 c -0.1261,-0.0420 -0.2311,-0.0630 -0.2311 -0.0630c -0.1050,-0.0210 -0.2626,-0.0210 -0.2626 -0.0210c -0.3256,-0.0000 -0.6775,0.2626 -0.6775 0.2626c -0.3519,0.2626 -0.6145,0.9139 -0.6145 0.9139v 3.2773 h -0.8613 v -5.1050 ZM 559.7763,590.0000 ZM 560.6376,582.5210 h 0.8613 v 6.5126 c 0.0000,0.2101 0.0735,0.2941 0.0735 0.2941c 0.0735,0.0840 0.1681,0.0840 0.1681 0.0840h 0.0788 c 0.0000,0.0000 0.1103,-0.0210 0.1103 -0.0210l 0.1155,0.6513 c -0.0840,0.0420 -0.1996,0.0630 -0.1996 0.0630c -0.1155,0.0210 -0.2941,0.0210 -0.2941 0.0210c -0.4937,-0.0000 -0.7038,-0.2941 -0.7038 -0.2941c -0.2101,-0.2941 -0.2101,-0.8613 -0.2101 -0.8613v -6.4496 ZM 562.4548,590.0000 ZM 562.9695,591.4076 l 0.1891,0.0473 c 0.0000,0.0000 0.1996,0.0263 0.1996 0.0263c 0.4412,0.0000 0.7195,-0.3099 0.7195 -0.3099c 0.2784,-0.3099 0.4359,-0.7826 0.4359 -0.7826l 0.1155,-0.3782 l -2.0483,-5.1155 h 0.8929 l 1.0399,2.8256 c 0.1155,0.3361 0.2468,0.7090 0.2468 0.7090c 0.1313,0.3729 0.2468,0.7300 0.2468 0.7300h 0.0420 c 0.1155,-0.3466 0.2206,-0.7248 0.2206 -0.7248c 0.1050,-0.3782 0.2101,-0.7143 0.2101 -0.7143l 0.9139,-2.8256 h 0.8403 l -1.9223,5.5252 c -0.1366,0.3782 -0.3046,0.7038 -0.3046 0.7038c -0.1681,0.3256 -0.3992,0.5620 -0.3992 0.5620c -0.2311,0.2363 -0.5252,0.3729 -0.5252 0.3729c -0.2941,0.1366 -0.6828,0.1366 -0.6828 0.1366c -0.1786,-0.0000 -0.3256,-0.0263 -0.3256 -0.0263c -0.1471,-0.0263 -0.2731,-0.0788 -0.2731 -0.0788l 0.1681,-0.6828 h 0.0000 Z"/></g><g stroke-linejoin="bevel" stroke-opacity="0.0" fill-opacity="1.0" stroke="rgb(0,0,0)" stroke-width="0.0" fill="rgb(0,0,0)" stroke-linecap="butt" stroke-miterlimit="10.0"><path d="M 689.1954,590.0000 ZM 691.0126,586.3761 h 1.1555 c 0.8088,0.0000 1.2395,-0.3309 1.2395 -0.3309c 0.4307,-0.3309 0.4307,-1.0032 0.4307 -1.0032c 0.0000,-0.6828 -0.4307,-0.9559 -0.4307 -0.9559c -0.4307,-0.2731 -1.2395,-0.2731 -1.2395 -0.2731h -1.1555 v 2.5630 ZM 691.0126,586.3761 ZM 693.9223,590.0000 l -1.6597,-2.9097 h -1.2500 v 2.9097 h -0.8718 v -6.8908 h 2.1534 c 0.5252,0.0000 0.9716,0.0998 0.9716 0.0998c 0.4464,0.0998 0.7668,0.3309 0.7668 0.3309c 0.3204,0.2311 0.4989,0.5987 0.4989 0.5987c 0.1786,0.3676 0.1786,0.9034 0.1786 0.9034c 0.0000,0.8088 -0.4202,1.2920 -0.4202 1.2920c -0.4202,0.4832 -1.1239,0.6618 -1.1239 0.6618l 1.7437,3.0042 h -0.9874 ZM 695.1933,590.0000 ZM 695.8025,588.6765 c 0.0000,-0.8403 0.7511,-1.2868 0.7511 -1.2868c 0.7511,-0.4464 2.3897,-0.6250 2.3897 -0.6250c 0.0000,-0.2416 -0.0473,-0.4727 -0.0473 -0.4727c -0.0473,-0.2311 -0.1681,-0.4097 -0.1681 -0.4097c -0.1208,-0.1786 -0.3204,-0.2889 -0.3204 -0.2889c -0.1996,-0.1103 -0.5147,-0.1103 -0.5147 -0.1103c -0.4517,-0.0000 -0.8351,0.1681 -0.8351 0.1681c -0.3834,0.1681 -0.6880,0.3782 -0.6880 0.3782l -0.3466,-0.5987 c 0.3571,-0.2311 0.8718,-0.4464 0.8718 -0.4464c 0.5147,-0.2153 1.1345,-0.2153 1.1345 -0.2153c 0.9349,0.0000 1.3550,0.5725 1.3550 0.5725c 0.4202,0.5725 0.4202,1.5284 0.4202 1.5284v 3.1303 h -0.7143 l -0.0735,-0.6092 h -0.0210 c -0.3676,0.3046 -0.7931,0.5200 -0.7931 0.5200c -0.4254,0.2153 -0.8981,0.2153 -0.8981 0.2153c -0.6513,-0.0000 -1.0767,-0.3782 -1.0767 -0.3782c -0.4254,-0.3782 -0.4254,-1.0714 -0.4254 -1.0714ZM 695.8025,588.6765 ZM 696.6534,588.6134 c 0.0000,0.4412 0.2574,0.6303 0.2574 0.6303c 0.2574,0.1891 0.6355,0.1891 0.6355 0.1891c 0.3676,0.0000 0.6985,-0.1733 0.6985 -0.1733c 0.3309,-0.1733 0.6985,-0.5095 0.6985 -0.5095v -1.4181 c -0.6408,0.0840 -1.0819,0.1996 -1.0819 0.1996c -0.4412,0.1155 -0.7090,0.2731 -0.7090 0.2731c -0.2679,0.1576 -0.3834,0.3624 -0.3834 0.3624c -0.1155,0.2048 -0.1155,0.4464 -0.1155 0.4464ZM 700.5714,590.0000 ZM 701.4328,584.8950 h 0.7143 l 0.0735,0.9244 h 0.0315 c 0.2626,-0.4832 0.6355,-0.7668 0.6355 -0.7668c 0.3729,-0.2836 0.8141,-0.2836 0.8141 -0.2836c 0.3046,0.0000 0.5462,0.1050 0.5462 0.1050l -0.1681,0.7563 c -0.1261,-0.0420 -0.2311,-0.0630 -0.2311 -0.0630c -0.1050,-0.0210 -0.2626,-0.0210 -0.2626 -0.0210c -0.3256,-0.0000 -0.6775,0.2626 -0.6775 0.2626c -0.3519,0.2626 -0.6145,0.9139 -0.6145 0.9139v 3.2773 h -0.8613 v -5.1050 ZM 704.1113,590.0000 ZM 704.5945,587.4580 c 0.0000,-0.6303 0.1943,-1.1292 0.1943 -1.1292c 0.1943,-0.4989 0.5147,-0.8456 0.5147 -0.8456c 0.3204,-0.3466 0.7300,-0.5305 0.7300 -0.5305c 0.4097,-0.1838 0.8508,-0.1838 0.8508 -0.1838c 0.4832,0.0000 0.8666,0.1681 0.8666 0.1681c 0.3834,0.1681 0.6408,0.4832 0.6408 0.4832c 0.2574,0.3151 0.3939,0.7563 0.3939 0.7563c 0.1366,0.4412 0.1366,0.9874 0.1366 0.9874c 0.0000,0.2836 -0.0315,0.4727 -0.0315 0.4727h -3.4454 c 0.0525,0.8298 0.5095,1.3130 0.5095 1.3130c 0.4569,0.4832 1.1922,0.4832 1.1922 0.4832c 0.3676,0.0000 0.6775,-0.1103 0.6775 -0.1103c 0.3099,-0.1103 0.5935,-0.2889 0.5935 -0.2889l 0.3046,0.5672 c -0.3361,0.2101 -0.7458,0.3676 -0.7458 0.3676c -0.4097,0.1576 -0.9349,0.1576 -0.9349 0.1576c -0.5147,-0.0000 -0.9611,-0.1838 -0.9611 -0.1838c -0.4464,-0.1838 -0.7773,-0.5252 -0.7773 -0.5252c -0.3309,-0.3414 -0.5200,-0.8351 -0.5200 -0.8351c -0.1891,-0.4937 -0.1891,-1.1239 -0.1891 -1.1239ZM 704.5945,587.4580 ZM 708.1660,587.0693 c 0.0000,-0.7878 -0.3309,-1.2027 -0.3309 -1.2027c -0.3309,-0.4149 -0.9296,-0.4149 -0.9296 -0.4149c -0.2731,-0.0000 -0.5200,0.1103 -0.5200 0.1103c -0.2468,0.1103 -0.4464,0.3151 -0.4464 0.3151c -0.1996,0.2048 -0.3309,0.5042 -0.3309 0.5042c -0.1313,0.2994 -0.1733,0.6880 -0.1733 0.6880h 2.7311 ZM 709.3214,590.0000 ZM 710.1828,582.5210 h 0.8613 v 6.5126 c 0.0000,0.2101 0.0735,0.2941 0.0735 0.2941c 0.0735,0.0840 0.1681,0.0840 0.1681 0.0840h 0.0788 c 0.0000,0.0000 0.1103,-0.0210 0.1103 -0.0210l 0.1155,0.6513 c -0.0840,0.0420 -0.1996,0.0630 -0.1996 0.0630c -0.1155,0.0210 -0.2941,0.0210 -0.2941 0.0210c -0.4937,-0.0000 -0.7038,-0.2941 -0.7038 -0.2941c -0.2101,-0.2941 -0.2101,-0.8613 -0.2101 -0.8613v -6.4496 ZM 712.0000,590.0000 ZM 712.5147,591.4076 l 0.1891,0.0473 c 0.0000,0.0000 0.1996,0.0263 0.1996 0.0263c 0.4412,0.0000 0.7195,-0.3099 0.7195 -0.3099c 0.2784,-0.3099 0.4359,-0.7826 0.4359 -0.7826l 0.1155,-0.3782 l -2.0483,-5.1155 h 0.8929 l 1.0399,2.8256 c 0.1155,0.3361 0.2468,0.7090 0.2468 0.7090c 0.1313,0.3729 0.2468,0.7300 0.2468 0.7300h 0.0420 c 0.1155,-0.3466 0.2206,-0.7248 0.2206 -0.7248c 0.1050,-0.3782 0.2101,-0.7143 0.2101 -0.7143l 0.9139,-2.8256 h 0.8403 l -1.9223,5.5252 c -0.1366,0.3782 -0.3046,0.7038 -0.3046 0.7038c -0.1681,0.3256 -0.3992,0.5620 -0.3992 0.5620c -0.2311,0.2363 -0.5252,0.3729 -0.5252 0.3729c -0.2941,0.1366 -0.6828,0.1366 -0.6828 0.1366c -0.1786,-0.0000 -0.3256,-0.0263 -0.3256 -0.0263c -0.1471,-0.0263 -0.2731,-0.0788 -0.2731 -0.0788l 0.1681,-0.6828 h 0.0000 Z"/></g></svg>