<?xml version="1.0" encoding="UTF-8"?>
<!DOCTYPE svg PUBLIC "-//W3C//DTD SVG 1.1//EN"
    "http://www.w3.org/Graphics/SVG/1.1/DTD/svg11.dtd"><svg xmlns="http://www.w3.org/2000/svg" height="600.0000" stroke-opacity="1" viewBox="0 0 800 600" font-size="1" width="800.0000" xmlns:xlink="http://www.w3.org/1999/xlink" stroke="rgb(0,0,0)" version="1.1"><defs></defs><g stroke-linejoin="bevel" stroke-opacity="0.0" fill-opacity="1.0" stroke="rgb(0,0,0)" stroke-width="0.0" fill="rgb(255,255,255)" stroke-linecap="butt" stroke-miterlimit="10.0"><path d="M 0.0000,0.0000 v 600.0000 h 800.0000 v -600.0000 Z"/></g><g stroke-linejoin="bevel" stroke-opacity="0.0" fill-opacity="1.0" stroke="rgb(0,0,0)" stroke-width="0.0" fill="rgb(0,0,0)" stroke-linecap="butt" stroke-miterlimit="10.0"><path d="M 129.9307,14.1016 ZM 130.1463,4.0606 h 2.3255 l 0.6930,4.6971 c 0.0924,0.7854 0.2002,1.5785 0.2002 1.5785c 0.1078,0.7931 0.2002,1.5939 0.2002 1.5939h 0.0616 c 0.1540,-0.8008 0.3003,-1.5939 0.3003 -1.5939c 0.1463,-0.7931 0.3003,-1.5785 0.3003 -1.5785l 1.0780,-4.6971 h 1.9251 l 1.0780,4.6971 c 0.1540,0.7700 0.3003,1.5631 0.3003 1.5631c 0.1463,0.7931 0.3003,1.6093 0.3003 1.6093h 0.0616 c 0.1078,-0.8162 0.2079,-1.6016 0.2079 -1.6016c 0.1001,-0.7854 0.2079,-1.5708 0.2079 -1.5708l 0.6930,-4.6971 h 2.1715 l -1.7864,10.0411 h -2.8491 l -0.9856,-4.5585 c -0.1232,-0.5852 -0.2233,-1.1781 -0.2233 -1.1781c -0.1001,-0.5929 -0.1771,-1.1473 -0.1771 -1.1473h -0.0616 c -0.0924,0.5544 -0.1925,1.1473 -0.1925 1.1473c -0.1001,0.5929 -0.2233,1.1781 -0.2233 1.1781l -0.9394,4.5585 h -2.8029 ZM 142.4512,14.1016 ZM 143.4523,3.3060 h 2.2639 v 2.6489 l -0.1078,1.3706 c 0.4312,-0.3850 1.0010,-0.7161 1.0010 -0.7161c 0.5698,-0.3311 1.3552,-0.3311 1.3552 -0.3311c 1.2474,0.0000 1.8095,0.8162 1.8095 0.8162c 0.5621,0.8162 0.5621,2.2639 0.5621 2.2639v 4.7433 h -2.2639 v -4.4507 c 0.0000,-0.8316 -0.2233,-1.1396 -0.2233 -1.1396c -0.2233,-0.3080 -0.7161,-0.3080 -0.7161 -0.3080c -0.4312,-0.0000 -0.7392,0.1925 -0.7392 0.1925c -0.3080,0.1925 -0.6776,0.5467 -0.6776 0.5467v 5.1591 h -2.2639 v -10.7957 ZM 151.2449,14.1016 ZM 151.9687,11.9764 c 0.0000,-1.2012 1.0164,-1.8789 1.0164 -1.8789c 1.0164,-0.6776 3.2803,-0.9086 3.2803 -0.9086c -0.0308,-0.5082 -0.3080,-0.8085 -0.3080 -0.8085c -0.2772,-0.3003 -0.8932,-0.3003 -0.8932 -0.3003c -0.4928,-0.0000 -0.9856,0.1848 -0.9856 0.1848c -0.4928,0.1848 -1.0472,0.5082 -1.0472 0.5082l -0.8008,-1.4938 c 0.7392,-0.4466 1.5477,-0.7238 1.5477 -0.7238c 0.8085,-0.2772 1.7171,-0.2772 1.7171 -0.2772c 1.4784,0.0000 2.2562,0.8393 2.2562 0.8393c 0.7777,0.8393 0.7777,2.6104 0.7777 2.6104v 4.3737 h -1.8480 l -0.1694,-0.7854 h -0.0462 c -0.4928,0.4312 -1.0395,0.7007 -1.0395 0.7007c -0.5467,0.2695 -1.1935,0.2695 -1.1935 0.2695c -0.5236,-0.0000 -0.9394,-0.1771 -0.9394 -0.1771c -0.4158,-0.1771 -0.7084,-0.4928 -0.7084 -0.4928c -0.2926,-0.3157 -0.4543,-0.7315 -0.4543 -0.7315c -0.1617,-0.4158 -0.1617,-0.9086 -0.1617 -0.9086ZM 151.9687,11.9764 ZM 154.1247,11.8070 c 0.0000,0.3696 0.2387,0.5467 0.2387 0.5467c 0.2387,0.1771 0.6391,0.1771 0.6391 0.1771c 0.4004,0.0000 0.6776,-0.1694 0.6776 -0.1694c 0.2772,-0.1694 0.5852,-0.4774 0.5852 -0.4774v -1.3398 c -1.2166,0.1694 -1.6786,0.4928 -1.6786 0.4928c -0.4620,0.3234 -0.4620,0.7700 -0.4620 0.7700ZM 159.4687,14.1016 ZM 160.7777,8.2341 h -1.0472 v -1.6786 l 1.1704,-0.0924 l 0.2618,-2.0329 h 1.8789 v 2.0329 h 1.8326 v 1.7710 h -1.8326 v 3.0647 c 0.0000,0.6468 0.2695,0.9317 0.2695 0.9317c 0.2695,0.2849 0.7161,0.2849 0.7161 0.2849c 0.1848,0.0000 0.3773,-0.0462 0.3773 -0.0462c 0.1925,-0.0462 0.3465,-0.1078 0.3465 -0.1078l 0.3542,1.6478 c -0.3080,0.0924 -0.7238,0.1848 -0.7238 0.1848c -0.4158,0.0924 -0.9702,0.0924 -0.9702 0.0924c -0.7084,-0.0000 -1.2089,-0.2156 -1.2089 -0.2156c -0.5005,-0.2156 -0.8162,-0.6006 -0.8162 -0.6006c -0.3157,-0.3850 -0.4620,-0.9317 -0.4620 -0.9317c -0.1463,-0.5467 -0.1463,-1.2089 -0.1463 -1.2089v -3.0955 ZM 168.5703,14.1016 ZM 170.6956,5.3388 c -0.5698,-0.0000 -0.9394,-0.3311 -0.9394 -0.3311c -0.3696,-0.3311 -0.3696,-0.8547 -0.3696 -0.8547c 0.0000,-0.5236 0.3696,-0.8470 0.3696 -0.8470c 0.3696,-0.3234 0.9394,-0.3234 0.9394 -0.3234c 0.5852,0.0000 0.9471,0.3234 0.9471 0.3234c 0.3619,0.3234 0.3619,0.8470 0.3619 0.8470c 0.0000,0.5236 -0.3619,0.8547 -0.3619 0.8547c -0.3619,0.3311 -0.9471,0.3311 -0.9471 0.3311ZM 170.6956,5.3388 ZM 169.5714,6.4630 h 2.2639 v 7.6386 h -2.2639 v -7.6386 ZM 172.8208,14.1016 ZM 174.1607,11.8070 c 0.5236,0.4004 1.0010,0.6006 1.0010 0.6006c 0.4774,0.2002 0.9702,0.2002 0.9702 0.2002c 0.5082,0.0000 0.7392,-0.1694 0.7392 -0.1694c 0.2310,-0.1694 0.2310,-0.4774 0.2310 -0.4774c 0.0000,-0.1848 -0.1309,-0.3311 -0.1309 -0.3311c -0.1309,-0.1463 -0.3542,-0.2695 -0.3542 -0.2695c -0.2233,-0.1232 -0.5005,-0.2233 -0.5005 -0.2233c -0.2772,-0.1001 -0.5698,-0.2233 -0.5698 -0.2233c -0.3542,-0.1386 -0.7084,-0.3234 -0.7084 -0.3234c -0.3542,-0.1848 -0.6468,-0.4543 -0.6468 -0.4543c -0.2926,-0.2695 -0.4774,-0.6314 -0.4774 -0.6314c -0.1848,-0.3619 -0.1848,-0.8393 -0.1848 -0.8393c 0.0000,-0.5236 0.2079,-0.9702 0.2079 -0.9702c 0.2079,-0.4466 0.5929,-0.7546 0.5929 -0.7546c 0.3850,-0.3080 0.9240,-0.4851 0.9240 -0.4851c 0.5390,-0.1771 1.2012,-0.1771 1.2012 -0.1771c 0.8778,0.0000 1.5400,0.3003 1.5400 0.3003c 0.6622,0.3003 1.1550,0.6699 1.1550 0.6699l -1.0164,1.3552 c -0.4158,-0.3080 -0.8162,-0.4774 -0.8162 -0.4774c -0.4004,-0.1694 -0.8008,-0.1694 -0.8008 -0.1694c -0.8624,-0.0000 -0.8624,0.6006 -0.8624 0.6006c 0.0000,0.1848 0.1232,0.3157 0.1232 0.3157c 0.1232,0.1309 0.3311,0.2387 0.3311 0.2387c 0.2079,0.1078 0.4774,0.2079 0.4774 0.2079c 0.2695,0.1001 0.5621,0.2079 0.5621 0.2079c 0.3696,0.1386 0.7315,0.3157 0.7315 0.3157c 0.3619,0.1771 0.6622,0.4389 0.6622 0.4389c 0.3003,0.2618 0.4851,0.6391 0.4851 0.6391c 0.1848,0.3773 0.1848,0.9009 0.1848 0.9009c 0.0000,0.5236 -0.2002,0.9702 -0.2002 0.9702c -0.2002,0.4466 -0.6006,0.7777 -0.6006 0.7777c -0.4004,0.3311 -0.9856,0.5236 -0.9856 0.5236c -0.5852,0.1925 -1.3552,0.1925 -1.3552 0.1925c -0.7546,-0.0000 -1.5477,-0.2926 -1.5477 -0.2926c -0.7931,-0.2926 -1.3783,-0.7700 -1.3783 -0.7700ZM 182.8465,14.1016 ZM 184.1555,8.2341 h -1.0472 v -1.6786 l 1.1704,-0.0924 l 0.2618,-2.0329 h 1.8789 v 2.0329 h 1.8326 v 1.7710 h -1.8326 v 3.0647 c 0.0000,0.6468 0.2695,0.9317 0.2695 0.9317c 0.2695,0.2849 0.7161,0.2849 0.7161 0.2849c 0.1848,0.0000 0.3773,-0.0462 0.3773 -0.0462c 0.1925,-0.0462 0.3465,-0.1078 0.3465 -0.1078l 0.3542,1.6478 c -0.3080,0.0924 -0.7238,0.1848 -0.7238 0.1848c -0.4158,0.0924 -0.9702,0.0924 -0.9702 0.0924c -0.7084,-0.0000 -1.2089,-0.2156 -1.2089 -0.2156c -0.5005,-0.2156 -0.8162,-0.6006 -0.8162 -0.6006c -0.3157,-0.3850 -0.4620,-0.9317 -0.4620 -0.9317c -0.1463,-0.5467 -0.1463,-1.2089 -0.1463 -1.2089v -3.0955 ZM 188.7449,14.1016 ZM 189.7459,3.3060 h 2.2639 v 2.6489 l -0.1078,1.3706 c 0.4312,-0.3850 1.0010,-0.7161 1.0010 -0.7161c 0.5698,-0.3311 1.3552,-0.3311 1.3552 -0.3311c 1.2474,0.0000 1.8095,0.8162 1.8095 0.8162c 0.5621,0.8162 0.5621,2.2639 0.5621 2.2639v 4.7433 h -2.2639 v -4.4507 c 0.0000,-0.8316 -0.2233,-1.1396 -0.2233 -1.1396c -0.2233,-0.3080 -0.7161,-0.3080 -0.7161 -0.3080c -0.4312,-0.0000 -0.7392,0.1925 -0.7392 0.1925c -0.3080,0.1925 -0.6776,0.5467 -0.6776 0.5467v 5.1591 h -2.2639 v -10.7957 ZM 197.5385,14.1016 ZM 198.0929,10.2823 c 0.0000,-0.9240 0.3080,-1.6709 0.3080 -1.6709c 0.3080,-0.7469 0.8085,-1.2628 0.8085 -1.2628c 0.5005,-0.5159 1.1473,-0.7931 1.1473 -0.7931c 0.6468,-0.2772 1.3398,-0.2772 1.3398 -0.2772c 0.8162,0.0000 1.4245,0.2772 1.4245 0.2772c 0.6083,0.2772 1.0164,0.7700 1.0164 0.7700c 0.4081,0.4928 0.6083,1.1627 0.6083 1.1627c 0.2002,0.6699 0.2002,1.4553 0.2002 1.4553c 0.0000,0.3080 -0.0308,0.5621 -0.0308 0.5621c -0.0308,0.2541 -0.0616,0.3927 -0.0616 0.3927h -4.5739 c 0.1540,0.8778 0.6853,1.2705 0.6853 1.2705c 0.5313,0.3927 1.3013,0.3927 1.3013 0.3927c 0.8162,0.0000 1.6478,-0.5082 1.6478 -0.5082l 0.7546,1.3706 c -0.5852,0.4004 -1.3013,0.6314 -1.3013 0.6314c -0.7161,0.2310 -1.4091,0.2310 -1.4091 0.2310c -0.8162,-0.0000 -1.5246,-0.2695 -1.5246 -0.2695c -0.7084,-0.2695 -1.2320,-0.7854 -1.2320 -0.7854c -0.5236,-0.5159 -0.8162,-1.2551 -0.8162 -1.2551c -0.2926,-0.7392 -0.2926,-1.6940 -0.2926 -1.6940ZM 198.0929,10.2823 ZM 203.0210,9.4969 c 0.0000,-0.6622 -0.2926,-1.0780 -0.2926 -1.0780c -0.2926,-0.4158 -0.9856,-0.4158 -0.9856 -0.4158c -0.5390,-0.0000 -0.9471,0.3619 -0.9471 0.3619c -0.4081,0.3619 -0.5313,1.1319 -0.5313 1.1319h 2.7567 ZM 208.7192,14.1016 ZM 210.0282,8.2341 h -1.0472 v -1.6786 l 1.1704,-0.0924 l 0.2618,-2.0329 h 1.8789 v 2.0329 h 1.8326 v 1.7710 h -1.8326 v 3.0647 c 0.0000,0.6468 0.2695,0.9317 0.2695 0.9317c 0.2695,0.2849 0.7161,0.2849 0.7161 0.2849c 0.1848,0.0000 0.3773,-0.0462 0.3773 -0.0462c 0.1925,-0.0462 0.3465,-0.1078 0.3465 -0.1078l 0.3542,1.6478 c -0.3080,0.0924 -0.7238,0.1848 -0.7238 0.1848c -0.4158,0.0924 -0.9702,0.0924 -0.9702 0.0924c -0.7084,-0.0000 -1.2089,-0.2156 -1.2089 -0.2156c -0.5005,-0.2156 -0.8162,-0.6006 -0.8162 -0.6006c -0.3157,-0.3850 -0.4620,-0.9317 -0.4620 -0.9317c -0.1463,-0.5467 -0.1463,-1.2089 -0.1463 -1.2089v -3.0955 ZM 214.4636,14.1016 ZM 215.0180,10.2823 c 0.0000,-0.9548 0.3080,-1.7017 0.3080 -1.7017c 0.3080,-0.7469 0.8239,-1.2551 0.8239 -1.2551c 0.5159,-0.5082 1.1935,-0.7777 1.1935 -0.7777c 0.6776,-0.2695 1.4014,-0.2695 1.4014 -0.2695c 0.7238,0.0000 1.3937,0.2695 1.3937 0.2695c 0.6699,0.2695 1.1858,0.7777 1.1858 0.7777c 0.5159,0.5082 0.8239,1.2551 0.8239 1.2551c 0.3080,0.7469 0.3080,1.7017 0.3080 1.7017c 0.0000,0.9548 -0.3080,1.7017 -0.3080 1.7017c -0.3080,0.7469 -0.8239,1.2551 -0.8239 1.2551c -0.5159,0.5082 -1.1858,0.7777 -1.1858 0.7777c -0.6699,0.2695 -1.3937,0.2695 -1.3937 0.2695c -0.7238,-0.0000 -1.4014,-0.2695 -1.4014 -0.2695c -0.6776,-0.2695 -1.1935,-0.7777 -1.1935 -0.7777c -0.5159,-0.5082 -0.8239,-1.2551 -0.8239 -1.2551c -0.3080,-0.7469 -0.3080,-1.7017 -0.3080 -1.7017ZM 215.0180,10.2823 ZM 217.3434,10.2823 c 0.0000,1.0010 0.3465,1.5862 0.3465 1.5862c 0.3465,0.5852 1.0549,0.5852 1.0549 0.5852c 0.6930,0.0000 1.0472,-0.5852 1.0472 -0.5852c 0.3542,-0.5852 0.3542,-1.5862 0.3542 -1.5862c 0.0000,-1.0010 -0.3542,-1.5862 -0.3542 -1.5862c -0.3542,-0.5852 -1.0472,-0.5852 -1.0472 -0.5852c -0.7084,-0.0000 -1.0549,0.5852 -1.0549 0.5852c -0.3465,0.5852 -0.3465,1.5862 -0.3465 1.5862ZM 223.0108,14.1016 ZM 224.3198,8.2341 h -1.0472 v -1.6786 l 1.1704,-0.0924 l 0.2618,-2.0329 h 1.8789 v 2.0329 h 1.8326 v 1.7710 h -1.8326 v 3.0647 c 0.0000,0.6468 0.2695,0.9317 0.2695 0.9317c 0.2695,0.2849 0.7161,0.2849 0.7161 0.2849c 0.1848,0.0000 0.3773,-0.0462 0.3773 -0.0462c 0.1925,-0.0462 0.3465,-0.1078 0.3465 -0.1078l 0.3542,1.6478 c -0.3080,0.0924 -0.7238,0.1848 -0.7238 0.1848c -0.4158,0.0924 -0.9702,0.0924 -0.9702 0.0924c -0.7084,-0.0000 -1.2089,-0.2156 -1.2089 -0.2156c -0.5005,-0.2156 -0.8162,-0.6006 -0.8162 -0.6006c -0.3157,-0.3850 -0.4620,-0.9317 -0.4620 -0.9317c -0.1463,-0.5467 -0.1463,-1.2089 -0.1463 -1.2089v -3.0955 ZM 228.7243,14.1016 ZM 229.4482,11.9764 c 0.0000,-1.2012 1.0164,-1.8789 1.0164 -1.8789c 1.0164,-0.6776 3.2803,-0.9086 3.2803 -0.9086c -0.0308,-0.5082 -0.3080,-0.8085 -0.3080 -0.8085c -0.2772,-0.3003 -0.8932,-0.3003 -0.8932 -0.3003c -0.4928,-0.0000 -0.9856,0.1848 -0.9856 0.1848c -0.4928,0.1848 -1.0472,0.5082 -1.0472 0.5082l -0.8008,-1.4938 c 0.7392,-0.4466 1.5477,-0.7238 1.5477 -0.7238c 0.8085,-0.2772 1.7171,-0.2772 1.7171 -0.2772c 1.4784,0.0000 2.2562,0.8393 2.2562 0.8393c 0.7777,0.8393 0.7777,2.6104 0.7777 2.6104v 4.3737 h -1.8480 l -0.1694,-0.7854 h -0.0462 c -0.4928,0.4312 -1.0395,0.7007 -1.0395 0.7007c -0.5467,0.2695 -1.1935,0.2695 -1.1935 0.2695c -0.5236,-0.0000 -0.9394,-0.1771 -0.9394 -0.1771c -0.4158,-0.1771 -0.7084,-0.4928 -0.7084 -0.4928c -0.2926,-0.3157 -0.4543,-0.7315 -0.4543 -0.7315c -0.1617,-0.4158 -0.1617,-0.9086 -0.1617 -0.9086ZM 229.4482,11.9764 ZM 231.6042,11.8070 c 0.0000,0.3696 0.2387,0.5467 0.2387 0.5467c 0.2387,0.1771 0.6391,0.1771 0.6391 0.1771c 0.4004,0.0000 0.6776,-0.1694 0.6776 -0.1694c 0.2772,-0.1694 0.5852,-0.4774 0.5852 -0.4774v -1.3398 c -1.2166,0.1694 -1.6786,0.4928 -1.6786 0.4928c -0.4620,0.3234 -0.4620,0.7700 -0.4620 0.7700ZM 236.9482,14.1016 ZM 237.9492,3.3060 h 2.2639 v 8.5164 c 0.0000,0.3542 0.1309,0.4928 0.1309 0.4928c 0.1309,0.1386 0.2695,0.1386 0.2695 0.1386h 0.1309 c 0.0000,0.0000 0.1463,-0.0308 0.1463 -0.0308l 0.2772,1.6786 c -0.1848,0.0770 -0.4697,0.1309 -0.4697 0.1309c -0.2849,0.0539 -0.6699,0.0539 -0.6699 0.0539c -0.5852,-0.0000 -0.9856,-0.1848 -0.9856 -0.1848c -0.4004,-0.1848 -0.6391,-0.5159 -0.6391 -0.5159c -0.2387,-0.3311 -0.3465,-0.8008 -0.3465 -0.8008c -0.1078,-0.4697 -0.1078,-1.0549 -0.1078 -1.0549v -8.4240 ZM 244.5560,14.1016 ZM 245.8958,11.8070 c 0.5236,0.4004 1.0010,0.6006 1.0010 0.6006c 0.4774,0.2002 0.9702,0.2002 0.9702 0.2002c 0.5082,0.0000 0.7392,-0.1694 0.7392 -0.1694c 0.2310,-0.1694 0.2310,-0.4774 0.2310 -0.4774c 0.0000,-0.1848 -0.1309,-0.3311 -0.1309 -0.3311c -0.1309,-0.1463 -0.3542,-0.2695 -0.3542 -0.2695c -0.2233,-0.1232 -0.5005,-0.2233 -0.5005 -0.2233c -0.2772,-0.1001 -0.5698,-0.2233 -0.5698 -0.2233c -0.3542,-0.1386 -0.7084,-0.3234 -0.7084 -0.3234c -0.3542,-0.1848 -0.6468,-0.4543 -0.6468 -0.4543c -0.2926,-0.2695 -0.4774,-0.6314 -0.4774 -0.6314c -0.1848,-0.3619 -0.1848,-0.8393 -0.1848 -0.8393c 0.0000,-0.5236 0.2079,-0.9702 0.2079 -0.9702c 0.2079,-0.4466 0.5929,-0.7546 0.5929 -0.7546c 0.3850,-0.3080 0.9240,-0.4851 0.9240 -0.4851c 0.5390,-0.1771 1.2012,-0.1771 1.2012 -0.1771c 0.8778,0.0000 1.5400,0.3003 1.5400 0.3003c 0.6622,0.3003 1.1550,0.6699 1.1550 0.6699l -1.0164,1.3552 c -0.4158,-0.3080 -0.8162,-0.4774 -0.8162 -0.4774c -0.4004,-0.1694 -0.8008,-0.1694 -0.8008 -0.1694c -0.8624,-0.0000 -0.8624,0.6006 -0.8624 0.6006c 0.0000,0.1848 0.1232,0.3157 0.1232 0.3157c 0.1232,0.1309 0.3311,0.2387 0.3311 0.2387c 0.2079,0.1078 0.4774,0.2079 0.4774 0.2079c 0.2695,0.1001 0.5621,0.2079 0.5621 0.2079c 0.3696,0.1386 0.7315,0.3157 0.7315 0.3157c 0.3619,0.1771 0.6622,0.4389 0.6622 0.4389c 0.3003,0.2618 0.4851,0.6391 0.4851 0.6391c 0.1848,0.3773 0.1848,0.9009 0.1848 0.9009c 0.0000,0.5236 -0.2002,0.9702 -0.2002 0.9702c -0.2002,0.4466 -0.6006,0.7777 -0.6006 0.7777c -0.4004,0.3311 -0.9856,0.5236 -0.9856 0.5236c -0.5852,0.1925 -1.3552,0.1925 -1.3552 0.1925c -0.7546,-0.0000 -1.5477,-0.2926 -1.5477 -0.2926c -0.7931,-0.2926 -1.3783,-0.7700 -1.3783 -0.7700ZM 251.3783,14.1016 ZM 253.5036,5.3388 c -0.5698,-0.0000 -0.9394,-0.3311 -0.9394 -0.3311c -0.3696,-0.3311 -0.3696,-0.8547 -0.3696 -0.8547c 0.0000,-0.5236 0.3696,-0.8470 0.3696 -0.8470c 0.3696,-0.3234 0.9394,-0.3234 0.9394 -0.3234c 0.5852,0.0000 0.9471,0.3234 0.9471 0.3234c 0.3619,0.3234 0.3619,0.8470 0.3619 0.8470c 0.0000,0.5236 -0.3619,0.8547 -0.3619 0.8547c -0.3619,0.3311 -0.9471,0.3311 -0.9471 0.3311ZM 253.5036,5.3388 ZM 252.3794,6.4630 h 2.2639 v 7.6386 h -2.2639 v -7.6386 ZM 255.6289,14.1016 ZM 256.2141,12.8850 l 3.2033,-4.6509 h -2.8491 v -1.7710 h 5.6674 v 1.2012 l -3.2033,4.6663 h 3.3111 v 1.7710 h -6.1294 v -1.2166 ZM 262.5590,14.1016 ZM 263.1134,10.2823 c 0.0000,-0.9240 0.3080,-1.6709 0.3080 -1.6709c 0.3080,-0.7469 0.8085,-1.2628 0.8085 -1.2628c 0.5005,-0.5159 1.1473,-0.7931 1.1473 -0.7931c 0.6468,-0.2772 1.3398,-0.2772 1.3398 -0.2772c 0.8162,0.0000 1.4245,0.2772 1.4245 0.2772c 0.6083,0.2772 1.0164,0.7700 1.0164 0.7700c 0.4081,0.4928 0.6083,1.1627 0.6083 1.1627c 0.2002,0.6699 0.2002,1.4553 0.2002 1.4553c 0.0000,0.3080 -0.0308,0.5621 -0.0308 0.5621c -0.0308,0.2541 -0.0616,0.3927 -0.0616 0.3927h -4.5739 c 0.1540,0.8778 0.6853,1.2705 0.6853 1.2705c 0.5313,0.3927 1.3013,0.3927 1.3013 0.3927c 0.8162,0.0000 1.6478,-0.5082 1.6478 -0.5082l 0.7546,1.3706 c -0.5852,0.4004 -1.3013,0.6314 -1.3013 0.6314c -0.7161,0.2310 -1.4091,0.2310 -1.4091 0.2310c -0.8162,-0.0000 -1.5246,-0.2695 -1.5246 -0.2695c -0.7084,-0.2695 -1.2320,-0.7854 -1.2320 -0.7854c -0.5236,-0.5159 -0.8162,-1.2551 -0.8162 -1.2551c -0.2926,-0.7392 -0.2926,-1.6940 -0.2926 -1.6940ZM 263.1134,10.2823 ZM 268.0416,9.4969 c 0.0000,-0.6622 -0.2926,-1.0780 -0.2926 -1.0780c -0.2926,-0.4158 -0.9856,-0.4158 -0.9856 -0.4158c -0.5390,-0.0000 -0.9471,0.3619 -0.9471 0.3619c -0.4081,0.3619 -0.5313,1.1319 -0.5313 1.1319h 2.7567 ZM 273.7397,14.1016 ZM 274.2941,10.2823 c 0.0000,-0.9548 0.3080,-1.7017 0.3080 -1.7017c 0.3080,-0.7469 0.8239,-1.2551 0.8239 -1.2551c 0.5159,-0.5082 1.1935,-0.7777 1.1935 -0.7777c 0.6776,-0.2695 1.4014,-0.2695 1.4014 -0.2695c 0.7238,0.0000 1.3937,0.2695 1.3937 0.2695c 0.6699,0.2695 1.1858,0.7777 1.1858 0.7777c 0.5159,0.5082 0.8239,1.2551 0.8239 1.2551c 0.3080,0.7469 0.3080,1.7017 0.3080 1.7017c 0.0000,0.9548 -0.3080,1.7017 -0.3080 1.7017c -0.3080,0.7469 -0.8239,1.2551 -0.8239 1.2551c -0.5159,0.5082 -1.1858,0.7777 -1.1858 0.7777c -0.6699,0.2695 -1.3937,0.2695 -1.3937 0.2695c -0.7238,-0.0000 -1.4014,-0.2695 -1.4014 -0.2695c -0.6776,-0.2695 -1.1935,-0.7777 -1.1935 -0.7777c -0.5159,-0.5082 -0.8239,-1.2551 -0.8239 -1.2551c -0.3080,-0.7469 -0.3080,-1.7017 -0.3080 -1.7017ZM 274.2941,10.2823 ZM 276.6196,10.2823 c 0.0000,1.0010 0.3465,1.5862 0.3465 1.5862c 0.3465,0.5852 1.0549,0.5852 1.0549 0.5852c 0.6930,0.0000 1.0472,-0.5852 1.0472 -0.5852c 0.3542,-0.5852 0.3542,-1.5862 0.3542 -1.5862c 0.0000,-1.0010 -0.3542,-1.5862 -0.3542 -1.5862c -0.3542,-0.5852 -1.0472,-0.5852 -1.0472 -0.5852c -0.7084,-0.0000 -1.0549,0.5852 -1.0549 0.5852c -0.3465,0.5852 -0.3465,1.5862 -0.3465 1.5862ZM 282.2100,14.1016 ZM 287.5231,5.0616 c -0.4312,-0.1540 -0.7854,-0.1540 -0.7854 -0.1540c -0.4158,-0.0000 -0.6468,0.2541 -0.6468 0.2541c -0.2310,0.2541 -0.2310,0.8393 -0.2310 0.8393v 0.4620 h 1.3706 v 1.7710 h -1.3706 v 5.8676 h -2.2639 v -5.8676 h -1.0164 v -1.6786 l 1.0164,-0.0770 v -0.4158 c 0.0000,-0.6006 0.1463,-1.1396 0.1463 -1.1396c 0.1463,-0.5390 0.4851,-0.9394 0.4851 -0.9394c 0.3388,-0.4004 0.8778,-0.6314 0.8778 -0.6314c 0.5390,-0.2310 1.3090,-0.2310 1.3090 -0.2310c 0.4774,0.0000 0.8701,0.0924 0.8701 0.0924c 0.3927,0.0924 0.6545,0.1848 0.6545 0.1848ZM 290.6648,14.1016 ZM 291.3886,11.9764 c 0.0000,-1.2012 1.0164,-1.8789 1.0164 -1.8789c 1.0164,-0.6776 3.2803,-0.9086 3.2803 -0.9086c -0.0308,-0.5082 -0.3080,-0.8085 -0.3080 -0.8085c -0.2772,-0.3003 -0.8932,-0.3003 -0.8932 -0.3003c -0.4928,-0.0000 -0.9856,0.1848 -0.9856 0.1848c -0.4928,0.1848 -1.0472,0.5082 -1.0472 0.5082l -0.8008,-1.4938 c 0.7392,-0.4466 1.5477,-0.7238 1.5477 -0.7238c 0.8085,-0.2772 1.7171,-0.2772 1.7171 -0.2772c 1.4784,0.0000 2.2562,0.8393 2.2562 0.8393c 0.7777,0.8393 0.7777,2.6104 0.7777 2.6104v 4.3737 h -1.8480 l -0.1694,-0.7854 h -0.0462 c -0.4928,0.4312 -1.0395,0.7007 -1.0395 0.7007c -0.5467,0.2695 -1.1935,0.2695 -1.1935 0.2695c -0.5236,-0.0000 -0.9394,-0.1771 -0.9394 -0.1771c -0.4158,-0.1771 -0.7084,-0.4928 -0.7084 -0.4928c -0.2926,-0.3157 -0.4543,-0.7315 -0.4543 -0.7315c -0.1617,-0.4158 -0.1617,-0.9086 -0.1617 -0.9086ZM 291.3886,11.9764 ZM 293.5447,11.8070 c 0.0000,0.3696 0.2387,0.5467 0.2387 0.5467c 0.2387,0.1771 0.6391,0.1771 0.6391 0.1771c 0.4004,0.0000 0.6776,-0.1694 0.6776 -0.1694c 0.2772,-0.1694 0.5852,-0.4774 0.5852 -0.4774v -1.3398 c -1.2166,0.1694 -1.6786,0.4928 -1.6786 0.4928c -0.4620,0.3234 -0.4620,0.7700 -0.4620 0.7700ZM 298.8886,14.1016 ZM 299.8896,3.3060 h 2.2639 v 8.5164 c 0.0000,0.3542 0.1309,0.4928 0.1309 0.4928c 0.1309,0.1386 0.2695,0.1386 0.2695 0.1386h 0.1309 c 0.0000,0.0000 0.1463,-0.0308 0.1463 -0.0308l 0.2772,1.6786 c -0.1848,0.0770 -0.4697,0.1309 -0.4697 0.1309c -0.2849,0.0539 -0.6699,0.0539 -0.6699 0.0539c -0.5852,-0.0000 -0.9856,-0.1848 -0.9856 -0.1848c -0.4004,-0.1848 -0.6391,-0.5159 -0.6391 -0.5159c -0.2387,-0.3311 -0.3465,-0.8008 -0.3465 -0.8008c -0.1078,-0.4697 -0.1078,-1.0549 -0.1078 -1.0549v -8.4240 ZM 303.2931,14.1016 ZM 304.2941,3.3060 h 2.2639 v 8.5164 c 0.0000,0.3542 0.1309,0.4928 0.1309 0.4928c 0.1309,0.1386 0.2695,0.1386 0.2695 0.1386h 0.1309 c 0.0000,0.0000 0.1463,-0.0308 0.1463 -0.0308l 0.2772,1.6786 c -0.1848,0.0770 -0.4697,0.1309 -0.4697 0.1309c -0.2849,0.0539 -0.6699,0.0539 -0.6699 0.0539c -0.5852,-0.0000 -0.9856,-0.1848 -0.9856 -0.1848c -0.4004,-0.1848 -0.6391,-0.5159 -0.6391 -0.5159c -0.2387,-0.3311 -0.3465,-0.8008 -0.3465 -0.8008c -0.1078,-0.4697 -0.1078,-1.0549 -0.1078 -1.0549v -8.4240 ZM 310.9009,14.1016 ZM 312.2100,8.2341 h -1.0472 v -1.6786 l 1.1704,-0.0924 l 0.2618,-2.0329 h 1.8789 v 2.0329 h 1.8326 v 1.7710 h -1.8326 v 3.0647 c 0.0000,0.6468 0.2695,0.9317 0.2695 0.9317c 0.2695,0.2849 0.7161,0.2849 0.7161 0.2849c 0.1848,0.0000 0.3773,-0.0462 0.3773 -0.0462c 0.1925,-0.0462 0.3465,-0.1078 0.3465 -0.1078l 0.3542,1.6478 c -0.3080,0.0924 -0.7238,0.1848 -0.7238 0.1848c -0.4158,0.0924 -0.9702,0.0924 -0.9702 0.0924c -0.7084,-0.0000 -1.2089,-0.2156 -1.2089 -0.2156c -0.5005,-0.2156 -0.8162,-0.6006 -0.8162 -0.6006c -0.3157,-0.3850 -0.4620,-0.9317 -0.4620 -0.9317c -0.1463,-0.5467 -0.1463,-1.2089 -0.1463 -1.2089v -3.0955 ZM 316.7993,14.1016 ZM 317.8003,3.3060 h 2.2639 v 2.6489 l -0.1078,1.3706 c 0.4312,-0.3850 1.0010,-0.7161 1.0010 -0.7161c 0.5698,-0.3311 1.3552,-0.3311 1.3552 -0.3311c 1.2474,0.0000 1.8095,0.8162 1.8095 0.8162c 0.5621,0.8162 0.5621,2.2639 0.5621 2.2639v 4.7433 h -2.2639 v -4.4507 c 0.0000,-0.8316 -0.2233,-1.1396 -0.2233 -1.1396c -0.2233,-0.3080 -0.7161,-0.3080 -0.7161 -0.3080c -0.4312,-0.0000 -0.7392,0.1925 -0.7392 0.1925c -0.3080,0.1925 -0.6776,0.5467 -0.6776 0.5467v 5.1591 h -2.2639 v -10.7957 ZM 325.5929,14.1016 ZM 326.1473,10.2823 c 0.0000,-0.9240 0.3080,-1.6709 0.3080 -1.6709c 0.3080,-0.7469 0.8085,-1.2628 0.8085 -1.2628c 0.5005,-0.5159 1.1473,-0.7931 1.1473 -0.7931c 0.6468,-0.2772 1.3398,-0.2772 1.3398 -0.2772c 0.8162,0.0000 1.4245,0.2772 1.4245 0.2772c 0.6083,0.2772 1.0164,0.7700 1.0164 0.7700c 0.4081,0.4928 0.6083,1.1627 0.6083 1.1627c 0.2002,0.6699 0.2002,1.4553 0.2002 1.4553c 0.0000,0.3080 -0.0308,0.5621 -0.0308 0.5621c -0.0308,0.2541 -0.0616,0.3927 -0.0616 0.3927h -4.5739 c 0.1540,0.8778 0.6853,1.2705 0.6853 1.2705c 0.5313,0.3927 1.3013,0.3927 1.3013 0.3927c 0.8162,0.0000 1.6478,-0.5082 1.6478 -0.5082l 0.7546,1.3706 c -0.5852,0.4004 -1.3013,0.6314 -1.3013 0.6314c -0.7161,0.2310 -1.4091,0.2310 -1.4091 0.2310c -0.8162,-0.0000 -1.5246,-0.2695 -1.5246 -0.2695c -0.7084,-0.2695 -1.2320,-0.7854 -1.2320 -0.7854c -0.5236,-0.5159 -0.8162,-1.2551 -0.8162 -1.2551c -0.2926,-0.7392 -0.2926,-1.6940 -0.2926 -1.6940ZM 326.1473,10.2823 ZM 331.0755,9.4969 c 0.0000,-0.6622 -0.2926,-1.0780 -0.2926 -1.0780c -0.2926,-0.4158 -0.9856,-0.4158 -0.9856 -0.4158c -0.5390,-0.0000 -0.9471,0.3619 -0.9471 0.3619c -0.4081,0.3619 -0.5313,1.1319 -0.5313 1.1319h 2.7567 ZM 336.7736,14.1016 ZM 337.9594,4.0606 h 2.2639 v 3.8655 h 3.4651 v -3.8655 h 2.2793 v 10.0411 h -2.2793 v -4.1889 h -3.4651 v 4.1889 h -2.2639 v -10.0411 ZM 347.1535,14.1016 ZM 347.8773,11.9764 c 0.0000,-1.2012 1.0164,-1.8789 1.0164 -1.8789c 1.0164,-0.6776 3.2803,-0.9086 3.2803 -0.9086c -0.0308,-0.5082 -0.3080,-0.8085 -0.3080 -0.8085c -0.2772,-0.3003 -0.8932,-0.3003 -0.8932 -0.3003c -0.4928,-0.0000 -0.9856,0.1848 -0.9856 0.1848c -0.4928,0.1848 -1.0472,0.5082 -1.0472 0.5082l -0.8008,-1.4938 c 0.7392,-0.4466 1.5477,-0.7238 1.5477 -0.7238c 0.8085,-0.2772 1.7171,-0.2772 1.7171 -0.2772c 1.4784,0.0000 2.2562,0.8393 2.2562 0.8393c 0.7777,0.8393 0.7777,2.6104 0.7777 2.6104v 4.3737 h -1.8480 l -0.1694,-0.7854 h -0.0462 c -0.4928,0.4312 -1.0395,0.7007 -1.0395 0.7007c -0.5467,0.2695 -1.1935,0.2695 -1.1935 0.2695c -0.5236,-0.0000 -0.9394,-0.1771 -0.9394 -0.1771c -0.4158,-0.1771 -0.7084,-0.4928 -0.7084 -0.4928c -0.2926,-0.3157 -0.4543,-0.7315 -0.4543 -0.7315c -0.1617,-0.4158 -0.1617,-0.9086 -0.1617 -0.9086ZM 347.8773,11.9764 ZM 350.0334,11.8070 c 0.0000,0.3696 0.2387,0.5467 0.2387 0.5467c 0.2387,0.1771 0.6391,0.1771 0.6391 0.1771c 0.4004,0.0000 0.6776,-0.1694 0.6776 -0.1694c 0.2772,-0.1694 0.5852,-0.4774 0.5852 -0.4774v -1.3398 c -1.2166,0.1694 -1.6786,0.4928 -1.6786 0.4928c -0.4620,0.3234 -0.4620,0.7700 -0.4620 0.7700ZM 355.3773,14.1016 ZM 356.7171,11.8070 c 0.5236,0.4004 1.0010,0.6006 1.0010 0.6006c 0.4774,0.2002 0.9702,0.2002 0.9702 0.2002c 0.5082,0.0000 0.7392,-0.1694 0.7392 -0.1694c 0.2310,-0.1694 0.2310,-0.4774 0.2310 -0.4774c 0.0000,-0.1848 -0.1309,-0.3311 -0.1309 -0.3311c -0.1309,-0.1463 -0.3542,-0.2695 -0.3542 -0.2695c -0.2233,-0.1232 -0.5005,-0.2233 -0.5005 -0.2233c -0.2772,-0.1001 -0.5698,-0.2233 -0.5698 -0.2233c -0.3542,-0.1386 -0.7084,-0.3234 -0.7084 -0.3234c -0.3542,-0.1848 -0.6468,-0.4543 -0.6468 -0.4543c -0.2926,-0.2695 -0.4774,-0.6314 -0.4774 -0.6314c -0.1848,-0.3619 -0.1848,-0.8393 -0.1848 -0.8393c 0.0000,-0.5236 0.2079,-0.9702 0.2079 -0.9702c 0.2079,-0.4466 0.5929,-0.7546 0.5929 -0.7546c 0.3850,-0.3080 0.9240,-0.4851 0.9240 -0.4851c 0.5390,-0.1771 1.2012,-0.1771 1.2012 -0.1771c 0.8778,0.0000 1.5400,0.3003 1.5400 0.3003c 0.6622,0.3003 1.1550,0.6699 1.1550 0.6699l -1.0164,1.3552 c -0.4158,-0.3080 -0.8162,-0.4774 -0.8162 -0.4774c -0.4004,-0.1694 -0.8008,-0.1694 -0.8008 -0.1694c -0.8624,-0.0000 -0.8624,0.6006 -0.8624 0.6006c 0.0000,0.1848 0.1232,0.3157 0.1232 0.3157c 0.1232,0.1309 0.3311,0.2387 0.3311 0.2387c 0.2079,0.1078 0.4774,0.2079 0.4774 0.2079c 0.2695,0.1001 0.5621,0.2079 0.5621 0.2079c 0.3696,0.1386 0.7315,0.3157 0.7315 0.3157c 0.3619,0.1771 0.6622,0.4389 0.6622 0.4389c 0.3003,0.2618 0.4851,0.6391 0.4851 0.6391c 0.1848,0.3773 0.1848,0.9009 0.1848 0.9009c 0.0000,0.5236 -0.2002,0.9702 -0.2002 0.9702c -0.2002,0.4466 -0.6006,0.7777 -0.6006 0.7777c -0.4004,0.3311 -0.9856,0.5236 -0.9856 0.5236c -0.5852,0.1925 -1.3552,0.1925 -1.3552 0.1925c -0.7546,-0.0000 -1.5477,-0.2926 -1.5477 -0.2926c -0.7931,-0.2926 -1.3783,-0.7700 -1.3783 -0.7700ZM 362.1997,14.1016 ZM 363.2007,3.3060 h 2.2023 v 6.1910 h 0.0616 l 2.4179,-3.0339 h 2.4641 l -2.6797,3.1417 l 2.8799,4.4969 h -2.4487 l -1.7248,-2.9723 l -0.9702,1.0934 v 1.8789 h -2.2023 v -10.7957 ZM 370.2079,14.1016 ZM 370.7623,10.2823 c 0.0000,-0.9240 0.3080,-1.6709 0.3080 -1.6709c 0.3080,-0.7469 0.8085,-1.2628 0.8085 -1.2628c 0.5005,-0.5159 1.1473,-0.7931 1.1473 -0.7931c 0.6468,-0.2772 1.3398,-0.2772 1.3398 -0.2772c 0.8162,0.0000 1.4245,0.2772 1.4245 0.2772c 0.6083,0.2772 1.0164,0.7700 1.0164 0.7700c 0.4081,0.4928 0.6083,1.1627 0.6083 1.1627c 0.2002,0.6699 0.2002,1.4553 0.2002 1.4553c 0.0000,0.3080 -0.0308,0.5621 -0.0308 0.5621c -0.0308,0.2541 -0.0616,0.3927 -0.0616 0.3927h -4.5739 c 0.1540,0.8778 0.6853,1.2705 0.6853 1.2705c 0.5313,0.3927 1.3013,0.3927 1.3013 0.3927c 0.8162,0.0000 1.6478,-0.5082 1.6478 -0.5082l 0.7546,1.3706 c -0.5852,0.4004 -1.3013,0.6314 -1.3013 0.6314c -0.7161,0.2310 -1.4091,0.2310 -1.4091 0.2310c -0.8162,-0.0000 -1.5246,-0.2695 -1.5246 -0.2695c -0.7084,-0.2695 -1.2320,-0.7854 -1.2320 -0.7854c -0.5236,-0.5159 -0.8162,-1.2551 -0.8162 -1.2551c -0.2926,-0.7392 -0.2926,-1.6940 -0.2926 -1.6940ZM 370.7623,10.2823 ZM 375.6905,9.4969 c 0.0000,-0.6622 -0.2926,-1.0780 -0.2926 -1.0780c -0.2926,-0.4158 -0.9856,-0.4158 -0.9856 -0.4158c -0.5390,-0.0000 -0.9471,0.3619 -0.9471 0.3619c -0.4081,0.3619 -0.5313,1.1319 -0.5313 1.1319h 2.7567 ZM 378.1853,14.1016 ZM 379.1863,3.3060 h 2.2639 v 8.5164 c 0.0000,0.3542 0.1309,0.4928 0.1309 0.4928c 0.1309,0.1386 0.2695,0.1386 0.2695 0.1386h 0.1309 c 0.0000,0.0000 0.1463,-0.0308 0.1463 -0.0308l 0.2772,1.6786 c -0.1848,0.0770 -0.4697,0.1309 -0.4697 0.1309c -0.2849,0.0539 -0.6699,0.0539 -0.6699 0.0539c -0.5852,-0.0000 -0.9856,-0.1848 -0.9856 -0.1848c -0.4004,-0.1848 -0.6391,-0.5159 -0.6391 -0.5159c -0.2387,-0.3311 -0.3465,-0.8008 -0.3465 -0.8008c -0.1078,-0.4697 -0.1078,-1.0549 -0.1078 -1.0549v -8.4240 ZM 382.5898,14.1016 ZM 383.5909,3.3060 h 2.2639 v 8.5164 c 0.0000,0.3542 0.1309,0.4928 0.1309 0.4928c 0.1309,0.1386 0.2695,0.1386 0.2695 0.1386h 0.1309 c 0.0000,0.0000 0.1463,-0.0308 0.1463 -0.0308l 0.2772,1.6786 c -0.1848,0.0770 -0.4697,0.1309 -0.4697 0.1309c -0.2849,0.0539 -0.6699,0.0539 -0.6699 0.0539c -0.5852,-0.0000 -0.9856,-0.1848 -0.9856 -0.1848c -0.4004,-0.1848 -0.6391,-0.5159 -0.6391 -0.5159c -0.2387,-0.3311 -0.3465,-0.8008 -0.3465 -0.8008c -0.1078,-0.4697 -0.1078,-1.0549 -0.1078 -1.0549v -8.4240 ZM 390.1976,14.1016 ZM 393.4625,14.7023 v 2.2331 h -2.2639 v -10.4723 h 1.8480 l 0.1540,0.7546 h 0.0616 c 0.4466,-0.4004 1.0087,-0.6699 1.0087 -0.6699c 0.5621,-0.2695 1.1627,-0.2695 1.1627 -0.2695c 0.6930,0.0000 1.2474,0.2772 1.2474 0.2772c 0.5544,0.2772 0.9394,0.7854 0.9394 0.7854c 0.3850,0.5082 0.5929,1.2243 0.5929 1.2243c 0.2079,0.7161 0.2079,1.5939 0.2079 1.5939c 0.0000,0.9856 -0.2695,1.7479 -0.2695 1.7479c -0.2695,0.7623 -0.7238,1.2936 -0.7238 1.2936c -0.4543,0.5313 -1.0318,0.8085 -1.0318 0.8085c -0.5775,0.2772 -1.1935,0.2772 -1.1935 0.2772c -0.4928,-0.0000 -0.9548,-0.2079 -0.9548 -0.2079c -0.4620,-0.2079 -0.8624,-0.5929 -0.8624 -0.5929ZM 393.4625,14.7023 ZM 393.4625,11.9456 c 0.3080,0.2772 0.6160,0.3850 0.6160 0.3850c 0.3080,0.1078 0.6006,0.1078 0.6006 0.1078c 0.5852,0.0000 1.0010,-0.5313 1.0010 -0.5313c 0.4158,-0.5313 0.4158,-1.7171 0.4158 -1.7171c 0.0000,-2.0637 -1.3244,-2.0637 -1.3244 -2.0637c -0.6622,-0.0000 -1.3090,0.6930 -1.3090 0.6930v 3.1263 ZM 399.0221,14.1016 ZM 400.0231,6.4630 h 1.8480 l 0.1540,1.3398 h 0.0616 c 0.4158,-0.7854 1.0010,-1.1550 1.0010 -1.1550c 0.5852,-0.3696 1.1704,-0.3696 1.1704 -0.3696c 0.3234,0.0000 0.5313,0.0385 0.5313 0.0385c 0.2079,0.0385 0.3773,0.1155 0.3773 0.1155l -0.3696,1.9559 c -0.2156,-0.0616 -0.4004,-0.0924 -0.4004 -0.0924c -0.1848,-0.0308 -0.4312,-0.0308 -0.4312 -0.0308c -0.4312,-0.0000 -0.9009,0.3080 -0.9009 0.3080c -0.4697,0.3080 -0.7777,1.0934 -0.7777 1.0934v 4.4353 h -2.2639 v -7.6386 ZM 404.9974,14.1016 ZM 405.5518,10.2823 c 0.0000,-0.9548 0.3080,-1.7017 0.3080 -1.7017c 0.3080,-0.7469 0.8239,-1.2551 0.8239 -1.2551c 0.5159,-0.5082 1.1935,-0.7777 1.1935 -0.7777c 0.6776,-0.2695 1.4014,-0.2695 1.4014 -0.2695c 0.7238,0.0000 1.3937,0.2695 1.3937 0.2695c 0.6699,0.2695 1.1858,0.7777 1.1858 0.7777c 0.5159,0.5082 0.8239,1.2551 0.8239 1.2551c 0.3080,0.7469 0.3080,1.7017 0.3080 1.7017c 0.0000,0.9548 -0.3080,1.7017 -0.3080 1.7017c -0.3080,0.7469 -0.8239,1.2551 -0.8239 1.2551c -0.5159,0.5082 -1.1858,0.7777 -1.1858 0.7777c -0.6699,0.2695 -1.3937,0.2695 -1.3937 0.2695c -0.7238,-0.0000 -1.4014,-0.2695 -1.4014 -0.2695c -0.6776,-0.2695 -1.1935,-0.7777 -1.1935 -0.7777c -0.5159,-0.5082 -0.8239,-1.2551 -0.8239 -1.2551c -0.3080,-0.7469 -0.3080,-1.7017 -0.3080 -1.7017ZM 405.5518,10.2823 ZM 407.8773,10.2823 c 0.0000,1.0010 0.3465,1.5862 0.3465 1.5862c 0.3465,0.5852 1.0549,0.5852 1.0549 0.5852c 0.6930,0.0000 1.0472,-0.5852 1.0472 -0.5852c 0.3542,-0.5852 0.3542,-1.5862 0.3542 -1.5862c 0.0000,-1.0010 -0.3542,-1.5862 -0.3542 -1.5862c -0.3542,-0.5852 -1.0472,-0.5852 -1.0472 -0.5852c -0.7084,-0.0000 -1.0549,0.5852 -1.0549 0.5852c -0.3465,0.5852 -0.3465,1.5862 -0.3465 1.5862ZM 413.5447,14.1016 ZM 414.5611,6.4630 h 2.2639 v 7.5924 c 0.0000,0.6314 -0.1309,1.1858 -0.1309 1.1858c -0.1309,0.5544 -0.4466,0.9702 -0.4466 0.9702c -0.3157,0.4158 -0.8393,0.6622 -0.8393 0.6622c -0.5236,0.2464 -1.3090,0.2464 -1.3090 0.2464c -0.4774,-0.0000 -0.7931,-0.0616 -0.7931 -0.0616c -0.3157,-0.0616 -0.5467,-0.1540 -0.5467 -0.1540l 0.4004,-1.6632 c 0.1540,0.0462 0.2926,0.0770 0.2926 0.0770c 0.1386,0.0308 0.3080,0.0308 0.3080 0.0308c 0.4466,0.0000 0.6237,-0.2926 0.6237 -0.2926c 0.1771,-0.2926 0.1771,-0.9394 0.1771 -0.9394v -7.6540 ZM 414.5611,6.4630 ZM 415.7007,5.3388 c -0.5698,-0.0000 -0.9394,-0.3311 -0.9394 -0.3311c -0.3696,-0.3311 -0.3696,-0.8547 -0.3696 -0.8547c 0.0000,-0.5236 0.3696,-0.8470 0.3696 -0.8470c 0.3696,-0.3234 0.9394,-0.3234 0.9394 -0.3234c 0.5698,0.0000 0.9394,0.3234 0.9394 0.3234c 0.3696,0.3234 0.3696,0.8470 0.3696 0.8470c 0.0000,0.5236 -0.3696,0.8547 -0.3696 0.8547c -0.3696,0.3311 -0.9394,0.3311 -0.9394 0.3311ZM 417.8260,14.1016 ZM 418.3804,10.2823 c 0.0000,-0.9240 0.3080,-1.6709 0.3080 -1.6709c 0.3080,-0.7469 0.8085,-1.2628 0.8085 -1.2628c 0.5005,-0.5159 1.1473,-0.7931 1.1473 -0.7931c 0.6468,-0.2772 1.3398,-0.2772 1.3398 -0.2772c 0.8162,0.0000 1.4245,0.2772 1.4245 0.2772c 0.6083,0.2772 1.0164,0.7700 1.0164 0.7700c 0.4081,0.4928 0.6083,1.1627 0.6083 1.1627c 0.2002,0.6699 0.2002,1.4553 0.2002 1.4553c 0.0000,0.3080 -0.0308,0.5621 -0.0308 0.5621c -0.0308,0.2541 -0.0616,0.3927 -0.0616 0.3927h -4.5739 c 0.1540,0.8778 0.6853,1.2705 0.6853 1.2705c 0.5313,0.3927 1.3013,0.3927 1.3013 0.3927c 0.8162,0.0000 1.6478,-0.5082 1.6478 -0.5082l 0.7546,1.3706 c -0.5852,0.4004 -1.3013,0.6314 -1.3013 0.6314c -0.7161,0.2310 -1.4091,0.2310 -1.4091 0.2310c -0.8162,-0.0000 -1.5246,-0.2695 -1.5246 -0.2695c -0.7084,-0.2695 -1.2320,-0.7854 -1.2320 -0.7854c -0.5236,-0.5159 -0.8162,-1.2551 -0.8162 -1.2551c -0.2926,-0.7392 -0.2926,-1.6940 -0.2926 -1.6940ZM 418.3804,10.2823 ZM 423.3085,9.4969 c 0.0000,-0.6622 -0.2926,-1.0780 -0.2926 -1.0780c -0.2926,-0.4158 -0.9856,-0.4158 -0.9856 -0.4158c -0.5390,-0.0000 -0.9471,0.3619 -0.9471 0.3619c -0.4081,0.3619 -0.5313,1.1319 -0.5313 1.1319h 2.7567 ZM 425.8034,14.1016 ZM 426.3578,10.2823 c 0.0000,-0.9548 0.3234,-1.7017 0.3234 -1.7017c 0.3234,-0.7469 0.8701,-1.2551 0.8701 -1.2551c 0.5467,-0.5082 1.2705,-0.7777 1.2705 -0.7777c 0.7238,-0.2695 1.5092,-0.2695 1.5092 -0.2695c 0.7084,0.0000 1.2782,0.2387 1.2782 0.2387c 0.5698,0.2387 0.9548,0.6391 0.9548 0.6391l -1.0318,1.4014 c -0.5390,-0.4466 -1.0626,-0.4466 -1.0626 -0.4466c -0.8316,-0.0000 -1.3090,0.5852 -1.3090 0.5852c -0.4774,0.5852 -0.4774,1.5862 -0.4774 1.5862c 0.0000,1.0010 0.4851,1.5862 0.4851 1.5862c 0.4851,0.5852 1.2243,0.5852 1.2243 0.5852c 0.4158,0.0000 0.7546,-0.1694 0.7546 -0.1694c 0.3388,-0.1694 0.6160,-0.3850 0.6160 -0.3850l 0.9086,1.4322 c -0.5544,0.4928 -1.2320,0.7238 -1.2320 0.7238c -0.6776,0.2310 -1.3090,0.2310 -1.3090 0.2310c -0.8008,-0.0000 -1.4861,-0.2695 -1.4861 -0.2695c -0.6853,-0.2695 -1.1935,-0.7777 -1.1935 -0.7777c -0.5082,-0.5082 -0.8008,-1.2551 -0.8008 -1.2551c -0.2926,-0.7469 -0.2926,-1.7017 -0.2926 -1.7017ZM 432.9954,14.1016 ZM 434.3044,8.2341 h -1.0472 v -1.6786 l 1.1704,-0.0924 l 0.2618,-2.0329 h 1.8789 v 2.0329 h 1.8326 v 1.7710 h -1.8326 v 3.0647 c 0.0000,0.6468 0.2695,0.9317 0.2695 0.9317c 0.2695,0.2849 0.7161,0.2849 0.7161 0.2849c 0.1848,0.0000 0.3773,-0.0462 0.3773 -0.0462c 0.1925,-0.0462 0.3465,-0.1078 0.3465 -0.1078l 0.3542,1.6478 c -0.3080,0.0924 -0.7238,0.1848 -0.7238 0.1848c -0.4158,0.0924 -0.9702,0.0924 -0.9702 0.0924c -0.7084,-0.0000 -1.2089,-0.2156 -1.2089 -0.2156c -0.5005,-0.2156 -0.8162,-0.6006 -0.8162 -0.6006c -0.3157,-0.3850 -0.4620,-0.9317 -0.4620 -0.9317c -0.1463,-0.5467 -0.1463,-1.2089 -0.1463 -1.2089v -3.0955 ZM 438.8937,14.1016 ZM 440.2336,11.8070 c 0.5236,0.4004 1.0010,0.6006 1.0010 0.6006c 0.4774,0.2002 0.9702,0.2002 0.9702 0.2002c 0.5082,0.0000 0.7392,-0.1694 0.7392 -0.1694c 0.2310,-0.1694 0.2310,-0.4774 0.2310 -0.4774c 0.0000,-0.1848 -0.1309,-0.3311 -0.1309 -0.3311c -0.1309,-0.1463 -0.3542,-0.2695 -0.3542 -0.2695c -0.2233,-0.1232 -0.5005,-0.2233 -0.5005 -0.2233c -0.2772,-0.1001 -0.5698,-0.2233 -0.5698 -0.2233c -0.3542,-0.1386 -0.7084,-0.3234 -0.7084 -0.3234c -0.3542,-0.1848 -0.6468,-0.4543 -0.6468 -0.4543c -0.2926,-0.2695 -0.4774,-0.6314 -0.4774 -0.6314c -0.1848,-0.3619 -0.1848,-0.8393 -0.1848 -0.8393c 0.0000,-0.5236 0.2079,-0.9702 0.2079 -0.9702c 0.2079,-0.4466 0.5929,-0.7546 0.5929 -0.7546c 0.3850,-0.3080 0.9240,-0.4851 0.9240 -0.4851c 0.5390,-0.1771 1.2012,-0.1771 1.2012 -0.1771c 0.8778,0.0000 1.5400,0.3003 1.5400 0.3003c 0.6622,0.3003 1.1550,0.6699 1.1550 0.6699l -1.0164,1.3552 c -0.4158,-0.3080 -0.8162,-0.4774 -0.8162 -0.4774c -0.4004,-0.1694 -0.8008,-0.1694 -0.8008 -0.1694c -0.8624,-0.0000 -0.8624,0.6006 -0.8624 0.6006c 0.0000,0.1848 0.1232,0.3157 0.1232 0.3157c 0.1232,0.1309 0.3311,0.2387 0.3311 0.2387c 0.2079,0.1078 0.4774,0.2079 0.4774 0.2079c 0.2695,0.1001 0.5621,0.2079 0.5621 0.2079c 0.3696,0.1386 0.7315,0.3157 0.7315 0.3157c 0.3619,0.1771 0.6622,0.4389 0.6622 0.4389c 0.3003,0.2618 0.4851,0.6391 0.4851 0.6391c 0.1848,0.3773 0.1848,0.9009 0.1848 0.9009c 0.0000,0.5236 -0.2002,0.9702 -0.2002 0.9702c -0.2002,0.4466 -0.6006,0.7777 -0.6006 0.7777c -0.4004,0.3311 -0.9856,0.5236 -0.9856 0.5236c -0.5852,0.1925 -1.3552,0.1925 -1.3552 0.1925c -0.7546,-0.0000 -1.5477,-0.2926 -1.5477 -0.2926c -0.7931,-0.2926 -1.3783,-0.7700 -1.3783 -0.7700ZM 448.9194,14.1016 ZM 450.0898,15.2105 c 0.1078,0.0308 0.2464,0.0616 0.2464 0.0616c 0.1386,0.0308 0.2618,0.0308 0.2618 0.0308c 0.5698,0.0000 0.8778,-0.2772 0.8778 -0.2772c 0.3080,-0.2772 0.4620,-0.7238 0.4620 -0.7238l 0.1078,-0.4004 l -2.9415,-7.4384 h 2.2793 l 1.0934,3.2803 c 0.1694,0.5236 0.3080,1.0626 0.3080 1.0626c 0.1386,0.5390 0.2926,1.1088 0.2926 1.1088h 0.0616 c 0.1232,-0.5390 0.2541,-1.0857 0.2541 -1.0857c 0.1309,-0.5467 0.2695,-1.0857 0.2695 -1.0857l 0.9240,-3.2803 h 2.1715 l -2.6489,7.7156 c -0.2772,0.7238 -0.5775,1.2705 -0.5775 1.2705c -0.3003,0.5467 -0.6930,0.9086 -0.6930 0.9086c -0.3927,0.3619 -0.8932,0.5467 -0.8932 0.5467c -0.5005,0.1848 -1.1781,0.1848 -1.1781 0.1848c -0.3542,-0.0000 -0.6006,-0.0385 -0.6006 -0.0385c -0.2464,-0.0385 -0.4774,-0.1155 -0.4774 -0.1155l 0.4004,-1.7248 h 0.0000 ZM 456.8198,14.1016 ZM 457.3742,10.2823 c 0.0000,-0.9548 0.3080,-1.7017 0.3080 -1.7017c 0.3080,-0.7469 0.8239,-1.2551 0.8239 -1.2551c 0.5159,-0.5082 1.1935,-0.7777 1.1935 -0.7777c 0.6776,-0.2695 1.4014,-0.2695 1.4014 -0.2695c 0.7238,0.0000 1.3937,0.2695 1.3937 0.2695c 0.6699,0.2695 1.1858,0.7777 1.1858 0.7777c 0.5159,0.5082 0.8239,1.2551 0.8239 1.2551c 0.3080,0.7469 0.3080,1.7017 0.3080 1.7017c 0.0000,0.9548 -0.3080,1.7017 -0.3080 1.7017c -0.3080,0.7469 -0.8239,1.2551 -0.8239 1.2551c -0.5159,0.5082 -1.1858,0.7777 -1.1858 0.7777c -0.6699,0.2695 -1.3937,0.2695 -1.3937 0.2695c -0.7238,-0.0000 -1.4014,-0.2695 -1.4014 -0.2695c -0.6776,-0.2695 -1.1935,-0.7777 -1.1935 -0.7777c -0.5159,-0.5082 -0.8239,-1.2551 -0.8239 -1.2551c -0.3080,-0.7469 -0.3080,-1.7017 -0.3080 -1.7017ZM 457.3742,10.2823 ZM 459.6997,10.2823 c 0.0000,1.0010 0.3465,1.5862 0.3465 1.5862c 0.3465,0.5852 1.0549,0.5852 1.0549 0.5852c 0.6930,0.0000 1.0472,-0.5852 1.0472 -0.5852c 0.3542,-0.5852 0.3542,-1.5862 0.3542 -1.5862c 0.0000,-1.0010 -0.3542,-1.5862 -0.3542 -1.5862c -0.3542,-0.5852 -1.0472,-0.5852 -1.0472 -0.5852c -0.7084,-0.0000 -1.0549,0.5852 -1.0549 0.5852c -0.3465,0.5852 -0.3465,1.5862 -0.3465 1.5862ZM 465.3670,14.1016 ZM 466.2911,6.4630 h 2.2639 v 4.4507 c 0.0000,0.8316 0.2310,1.1396 0.2310 1.1396c 0.2310,0.3080 0.7238,0.3080 0.7238 0.3080c 0.4312,0.0000 0.7238,-0.2002 0.7238 -0.2002c 0.2926,-0.2002 0.6314,-0.6468 0.6314 -0.6468v -5.0513 h 2.2639 v 7.6386 h -1.8480 l -0.1694,-1.0626 h -0.0462 c -0.4928,0.5852 -1.0549,0.9163 -1.0549 0.9163c -0.5621,0.3311 -1.3475,0.3311 -1.3475 0.3311c -1.2474,-0.0000 -1.8095,-0.8162 -1.8095 -0.8162c -0.5621,-0.8162 -0.5621,-2.2639 -0.5621 -2.2639v -4.7433 ZM 477.3178,14.1016 ZM 477.8722,10.2823 c 0.0000,-0.9548 0.3234,-1.7017 0.3234 -1.7017c 0.3234,-0.7469 0.8701,-1.2551 0.8701 -1.2551c 0.5467,-0.5082 1.2705,-0.7777 1.2705 -0.7777c 0.7238,-0.2695 1.5092,-0.2695 1.5092 -0.2695c 0.7084,0.0000 1.2782,0.2387 1.2782 0.2387c 0.5698,0.2387 0.9548,0.6391 0.9548 0.6391l -1.0318,1.4014 c -0.5390,-0.4466 -1.0626,-0.4466 -1.0626 -0.4466c -0.8316,-0.0000 -1.3090,0.5852 -1.3090 0.5852c -0.4774,0.5852 -0.4774,1.5862 -0.4774 1.5862c 0.0000,1.0010 0.4851,1.5862 0.4851 1.5862c 0.4851,0.5852 1.2243,0.5852 1.2243 0.5852c 0.4158,0.0000 0.7546,-0.1694 0.7546 -0.1694c 0.3388,-0.1694 0.6160,-0.3850 0.6160 -0.3850l 0.9086,1.4322 c -0.5544,0.4928 -1.2320,0.7238 -1.2320 0.7238c -0.6776,0.2310 -1.3090,0.2310 -1.3090 0.2310c -0.8008,-0.0000 -1.4861,-0.2695 -1.4861 -0.2695c -0.6853,-0.2695 -1.1935,-0.7777 -1.1935 -0.7777c -0.5082,-0.5082 -0.8008,-1.2551 -0.8008 -1.2551c -0.2926,-0.7469 -0.2926,-1.7017 -0.2926 -1.7017ZM 484.0785,14.1016 ZM 484.6330,10.2823 c 0.0000,-0.9548 0.3080,-1.7017 0.3080 -1.7017c 0.3080,-0.7469 0.8239,-1.2551 0.8239 -1.2551c 0.5159,-0.5082 1.1935,-0.7777 1.1935 -0.7777c 0.6776,-0.2695 1.4014,-0.2695 1.4014 -0.2695c 0.7238,0.0000 1.3937,0.2695 1.3937 0.2695c 0.6699,0.2695 1.1858,0.7777 1.1858 0.7777c 0.5159,0.5082 0.8239,1.2551 0.8239 1.2551c 0.3080,0.7469 0.3080,1.7017 0.3080 1.7017c 0.0000,0.9548 -0.3080,1.7017 -0.3080 1.7017c -0.3080,0.7469 -0.8239,1.2551 -0.8239 1.2551c -0.5159,0.5082 -1.1858,0.7777 -1.1858 0.7777c -0.6699,0.2695 -1.3937,0.2695 -1.3937 0.2695c -0.7238,-0.0000 -1.4014,-0.2695 -1.4014 -0.2695c -0.6776,-0.2695 -1.1935,-0.7777 -1.1935 -0.7777c -0.5159,-0.5082 -0.8239,-1.2551 -0.8239 -1.2551c -0.3080,-0.7469 -0.3080,-1.7017 -0.3080 -1.7017ZM 484.6330,10.2823 ZM 486.9584,10.2823 c 0.0000,1.0010 0.3465,1.5862 0.3465 1.5862c 0.3465,0.5852 1.0549,0.5852 1.0549 0.5852c 0.6930,0.0000 1.0472,-0.5852 1.0472 -0.5852c 0.3542,-0.5852 0.3542,-1.5862 0.3542 -1.5862c 0.0000,-1.0010 -0.3542,-1.5862 -0.3542 -1.5862c -0.3542,-0.5852 -1.0472,-0.5852 -1.0472 -0.5852c -0.7084,-0.0000 -1.0549,0.5852 -1.0549 0.5852c -0.3465,0.5852 -0.3465,1.5862 -0.3465 1.5862ZM 492.6258,14.1016 ZM 493.6268,6.4630 h 1.8480 l 0.1540,0.9702 h 0.0616 c 0.4928,-0.4620 1.0780,-0.8085 1.0780 -0.8085c 0.5852,-0.3465 1.3706,-0.3465 1.3706 -0.3465c 1.2474,0.0000 1.8095,0.8162 1.8095 0.8162c 0.5621,0.8162 0.5621,2.2639 0.5621 2.2639v 4.7433 h -2.2639 v -4.4507 c 0.0000,-0.8316 -0.2233,-1.1396 -0.2233 -1.1396c -0.2233,-0.3080 -0.7161,-0.3080 -0.7161 -0.3080c -0.4312,-0.0000 -0.7392,0.1925 -0.7392 0.1925c -0.3080,0.1925 -0.6776,0.5467 -0.6776 0.5467v 5.1591 h -2.2639 v -7.6386 ZM 501.4348,14.1016 ZM 502.7438,8.2341 h -1.0472 v -1.6786 l 1.1704,-0.0924 l 0.2618,-2.0329 h 1.8789 v 2.0329 h 1.8326 v 1.7710 h -1.8326 v 3.0647 c 0.0000,0.6468 0.2695,0.9317 0.2695 0.9317c 0.2695,0.2849 0.7161,0.2849 0.7161 0.2849c 0.1848,0.0000 0.3773,-0.0462 0.3773 -0.0462c 0.1925,-0.0462 0.3465,-0.1078 0.3465 -0.1078l 0.3542,1.6478 c -0.3080,0.0924 -0.7238,0.1848 -0.7238 0.1848c -0.4158,0.0924 -0.9702,0.0924 -0.9702 0.0924c -0.7084,-0.0000 -1.2089,-0.2156 -1.2089 -0.2156c -0.5005,-0.2156 -0.8162,-0.6006 -0.8162 -0.6006c -0.3157,-0.3850 -0.4620,-0.9317 -0.4620 -0.9317c -0.1463,-0.5467 -0.1463,-1.2089 -0.1463 -1.2089v -3.0955 ZM 507.3332,14.1016 ZM 508.3342,6.4630 h 1.8480 l 0.1540,1.3398 h 0.0616 c 0.4158,-0.7854 1.0010,-1.1550 1.0010 -1.1550c 0.5852,-0.3696 1.1704,-0.3696 1.1704 -0.3696c 0.3234,0.0000 0.5313,0.0385 0.5313 0.0385c 0.2079,0.0385 0.3773,0.1155 0.3773 0.1155l -0.3696,1.9559 c -0.2156,-0.0616 -0.4004,-0.0924 -0.4004 -0.0924c -0.1848,-0.0308 -0.4312,-0.0308 -0.4312 -0.0308c -0.4312,-0.0000 -0.9009,0.3080 -0.9009 0.3080c -0.4697,0.3080 -0.7777,1.0934 -0.7777 1.0934v 4.4353 h -2.2639 v -7.6386 ZM 513.4625,14.1016 ZM 515.5878,5.3388 c -0.5698,-0.0000 -0.9394,-0.3311 -0.9394 -0.3311c -0.3696,-0.3311 -0.3696,-0.8547 -0.3696 -0.8547c 0.0000,-0.5236 0.3696,-0.8470 0.3696 -0.8470c 0.3696,-0.3234 0.9394,-0.3234 0.9394 -0.3234c 0.5852,0.0000 0.9471,0.3234 0.9471 0.3234c 0.3619,0.3234 0.3619,0.8470 0.3619 0.8470c 0.0000,0.5236 -0.3619,0.8547 -0.3619 0.8547c -0.3619,0.3311 -0.9471,0.3311 -0.9471 0.3311ZM 515.5878,5.3388 ZM 514.4636,6.4630 h 2.2639 v 7.6386 h -2.2639 v -7.6386 ZM 517.7130,14.1016 ZM 518.7141,3.3060 h 2.2639 v 2.6489 l -0.0616,1.1704 c 0.4466,-0.4004 0.9625,-0.6237 0.9625 -0.6237c 0.5159,-0.2233 1.0549,-0.2233 1.0549 -0.2233c 0.6930,0.0000 1.2474,0.2772 1.2474 0.2772c 0.5544,0.2772 0.9471,0.7777 0.9471 0.7777c 0.3927,0.5005 0.6006,1.2166 0.6006 1.2166c 0.2079,0.7161 0.2079,1.5939 0.2079 1.5939c 0.0000,0.9856 -0.2695,1.7556 -0.2695 1.7556c -0.2695,0.7700 -0.7238,1.3013 -0.7238 1.3013c -0.4543,0.5313 -1.0318,0.8085 -1.0318 0.8085c -0.5775,0.2772 -1.1935,0.2772 -1.1935 0.2772c -0.5082,-0.0000 -1.0241,-0.2464 -1.0241 -0.2464c -0.5159,-0.2464 -0.9625,-0.7392 -0.9625 -0.7392h -0.0616 l -0.1848,0.8008 h -1.7710 v -10.7957 ZM 518.7141,3.3060 ZM 520.9779,11.9456 c 0.3080,0.2772 0.6160,0.3850 0.6160 0.3850c 0.3080,0.1078 0.6006,0.1078 0.6006 0.1078c 0.5852,0.0000 1.0010,-0.5313 1.0010 -0.5313c 0.4158,-0.5313 0.4158,-1.7171 0.4158 -1.7171c 0.0000,-2.0637 -1.3244,-2.0637 -1.3244 -2.0637c -0.6776,-0.0000 -1.3090,0.6930 -1.3090 0.6930v 3.1263 ZM 526.5375,14.1016 ZM 527.4615,6.4630 h 2.2639 v 4.4507 c 0.0000,0.8316 0.2310,1.1396 0.2310 1.1396c 0.2310,0.3080 0.7238,0.3080 0.7238 0.3080c 0.4312,0.0000 0.7238,-0.2002 0.7238 -0.2002c 0.2926,-0.2002 0.6314,-0.6468 0.6314 -0.6468v -5.0513 h 2.2639 v 7.6386 h -1.8480 l -0.1694,-1.0626 h -0.0462 c -0.4928,0.5852 -1.0549,0.9163 -1.0549 0.9163c -0.5621,0.3311 -1.3475,0.3311 -1.3475 0.3311c -1.2474,-0.0000 -1.8095,-0.8162 -1.8095 -0.8162c -0.5621,-0.8162 -0.5621,-2.2639 -0.5621 -2.2639v -4.7433 ZM 535.2849,14.1016 ZM 536.5939,8.2341 h -1.0472 v -1.6786 l 1.1704,-0.0924 l 0.2618,-2.0329 h 1.8789 v 2.0329 h 1.8326 v 1.7710 h -1.8326 v 3.0647 c 0.0000,0.6468 0.2695,0.9317 0.2695 0.9317c 0.2695,0.2849 0.7161,0.2849 0.7161 0.2849c 0.1848,0.0000 0.3773,-0.0462 0.3773 -0.0462c 0.1925,-0.0462 0.3465,-0.1078 0.3465 -0.1078l 0.3542,1.6478 c -0.3080,0.0924 -0.7238,0.1848 -0.7238 0.1848c -0.4158,0.0924 -0.9702,0.0924 -0.9702 0.0924c -0.7084,-0.0000 -1.2089,-0.2156 -1.2089 -0.2156c -0.5005,-0.2156 -0.8162,-0.6006 -0.8162 -0.6006c -0.3157,-0.3850 -0.4620,-0.9317 -0.4620 -0.9317c -0.1463,-0.5467 -0.1463,-1.2089 -0.1463 -1.2089v -3.0955 ZM 541.0293,14.1016 ZM 541.5837,10.2823 c 0.0000,-0.9240 0.3080,-1.6709 0.3080 -1.6709c 0.3080,-0.7469 0.8085,-1.2628 0.8085 -1.2628c 0.5005,-0.5159 1.1473,-0.7931 1.1473 -0.7931c 0.6468,-0.2772 1.3398,-0.2772 1.3398 -0.2772c 0.8162,0.0000 1.4245,0.2772 1.4245 0.2772c 0.6083,0.2772 1.0164,0.7700 1.0164 0.7700c 0.4081,0.4928 0.6083,1.1627 0.6083 1.1627c 0.2002,0.6699 0.2002,1.4553 0.2002 1.4553c 0.0000,0.3080 -0.0308,0.5621 -0.0308 0.5621c -0.0308,0.2541 -0.0616,0.3927 -0.0616 0.3927h -4.5739 c 0.1540,0.8778 0.6853,1.2705 0.6853 1.2705c 0.5313,0.3927 1.3013,0.3927 1.3013 0.3927c 0.8162,0.0000 1.6478,-0.5082 1.6478 -0.5082l 0.7546,1.3706 c -0.5852,0.4004 -1.3013,0.6314 -1.3013 0.6314c -0.7161,0.2310 -1.4091,0.2310 -1.4091 0.2310c -0.8162,-0.0000 -1.5246,-0.2695 -1.5246 -0.2695c -0.7084,-0.2695 -1.2320,-0.7854 -1.2320 -0.7854c -0.5236,-0.5159 -0.8162,-1.2551 -0.8162 -1.2551c -0.2926,-0.7392 -0.2926,-1.6940 -0.2926 -1.6940ZM 541.5837,10.2823 ZM 546.5118,9.4969 c 0.0000,-0.6622 -0.2926,-1.0780 -0.2926 -1.0780c -0.2926,-0.4158 -0.9856,-0.4158 -0.9856 -0.4158c -0.5390,-0.0000 -0.9471,0.3619 -0.9471 0.3619c -0.4081,0.3619 -0.5313,1.1319 -0.5313 1.1319h 2.7567 ZM 552.2100,14.1016 ZM 553.5190,8.2341 h -1.0472 v -1.6786 l 1.1704,-0.0924 l 0.2618,-2.0329 h 1.8789 v 2.0329 h 1.8326 v 1.7710 h -1.8326 v 3.0647 c 0.0000,0.6468 0.2695,0.9317 0.2695 0.9317c 0.2695,0.2849 0.7161,0.2849 0.7161 0.2849c 0.1848,0.0000 0.3773,-0.0462 0.3773 -0.0462c 0.1925,-0.0462 0.3465,-0.1078 0.3465 -0.1078l 0.3542,1.6478 c -0.3080,0.0924 -0.7238,0.1848 -0.7238 0.1848c -0.4158,0.0924 -0.9702,0.0924 -0.9702 0.0924c -0.7084,-0.0000 -1.2089,-0.2156 -1.2089 -0.2156c -0.5005,-0.2156 -0.8162,-0.6006 -0.8162 -0.6006c -0.3157,-0.3850 -0.4620,-0.9317 -0.4620 -0.9317c -0.1463,-0.5467 -0.1463,-1.2089 -0.1463 -1.2089v -3.0955 ZM 557.9543,14.1016 ZM 558.5087,10.2823 c 0.0000,-0.9548 0.3080,-1.7017 0.3080 -1.7017c 0.3080,-0.7469 0.8239,-1.2551 0.8239 -1.2551c 0.5159,-0.5082 1.1935,-0.7777 1.1935 -0.7777c 0.6776,-0.2695 1.4014,-0.2695 1.4014 -0.2695c 0.7238,0.0000 1.3937,0.2695 1.3937 0.2695c 0.6699,0.2695 1.1858,0.7777 1.1858 0.7777c 0.5159,0.5082 0.8239,1.2551 0.8239 1.2551c 0.3080,0.7469 0.3080,1.7017 0.3080 1.7017c 0.0000,0.9548 -0.3080,1.7017 -0.3080 1.7017c -0.3080,0.7469 -0.8239,1.2551 -0.8239 1.2551c -0.5159,0.5082 -1.1858,0.7777 -1.1858 0.7777c -0.6699,0.2695 -1.3937,0.2695 -1.3937 0.2695c -0.7238,-0.0000 -1.4014,-0.2695 -1.4014 -0.2695c -0.6776,-0.2695 -1.1935,-0.7777 -1.1935 -0.7777c -0.5159,-0.5082 -0.8239,-1.2551 -0.8239 -1.2551c -0.3080,-0.7469 -0.3080,-1.7017 -0.3080 -1.7017ZM 558.5087,10.2823 ZM 560.8342,10.2823 c 0.0000,1.0010 0.3465,1.5862 0.3465 1.5862c 0.3465,0.5852 1.0549,0.5852 1.0549 0.5852c 0.6930,0.0000 1.0472,-0.5852 1.0472 -0.5852c 0.3542,-0.5852 0.3542,-1.5862 0.3542 -1.5862c 0.0000,-1.0010 -0.3542,-1.5862 -0.3542 -1.5862c -0.3542,-0.5852 -1.0472,-0.5852 -1.0472 -0.5852c -0.7084,-0.0000 -1.0549,0.5852 -1.0549 0.5852c -0.3465,0.5852 -0.3465,1.5862 -0.3465 1.5862ZM 566.5015,14.1016 ZM 568.8732,10.5441 c -0.0770,-0.5236 0.0385,-0.9548 0.0385 -0.9548c 0.1155,-0.4312 0.3311,-0.8008 0.3311 -0.8008c 0.2156,-0.3696 0.4851,-0.6776 0.4851 -0.6776c 0.2695,-0.3080 0.5159,-0.5929 0.5159 -0.5929c 0.2464,-0.2849 0.4081,-0.5544 0.4081 -0.5544c 0.1617,-0.2695 0.1617,-0.5621 0.1617 -0.5621c 0.0000,-0.4774 -0.2849,-0.7238 -0.2849 -0.7238c -0.2849,-0.2464 -0.7469,-0.2464 -0.7469 -0.2464c -0.4312,-0.0000 -0.7623,0.2002 -0.7623 0.2002c -0.3311,0.2002 -0.6391,0.5082 -0.6391 0.5082l -1.2474,-1.1396 c 0.5236,-0.6314 1.2320,-1.0164 1.2320 -1.0164c 0.7084,-0.3850 1.5708,-0.3850 1.5708 -0.3850c 0.6468,0.0000 1.2089,0.1540 1.2089 0.1540c 0.5621,0.1540 0.9702,0.4774 0.9702 0.4774c 0.4081,0.3234 0.6391,0.8239 0.6391 0.8239c 0.2310,0.5005 0.2310,1.1781 0.2310 1.1781c 0.0000,0.4774 -0.1694,0.8547 -0.1694 0.8547c -0.1694,0.3773 -0.4235,0.7007 -0.4235 0.7007c -0.2541,0.3234 -0.5390,0.6237 -0.5390 0.6237c -0.2849,0.3003 -0.5236,0.6237 -0.5236 0.6237c -0.2387,0.3234 -0.3773,0.6853 -0.3773 0.6853c -0.1386,0.3619 -0.0924,0.8239 -0.0924 0.8239h -1.9867 ZM 568.8732,10.5441 ZM 568.5036,12.8696 c 0.0000,-0.6160 0.3850,-1.0241 0.3850 -1.0241c 0.3850,-0.4081 0.9702,-0.4081 0.9702 -0.4081c 0.5852,0.0000 0.9779,0.4081 0.9779 0.4081c 0.3927,0.4081 0.3927,1.0241 0.3927 1.0241c 0.0000,0.6006 -0.3927,1.0087 -0.3927 1.0087c -0.3927,0.4081 -0.9779,0.4081 -0.9779 0.4081c -0.5852,-0.0000 -0.9702,-0.4081 -0.9702 -0.4081c -0.3850,-0.4081 -0.3850,-1.0087 -0.3850 -1.0087ZM 576.8352,14.1016 ZM 579.9769,16.8583 c -0.9702,-1.5862 -1.5015,-3.2957 -1.5015 -3.2957c -0.5313,-1.7094 -0.5313,-3.7423 -0.5313 -3.7423c 0.0000,-2.0329 0.5313,-3.7423 0.5313 -3.7423c 0.5313,-1.7094 1.5015,-3.2957 1.5015 -3.2957l 1.4168,0.5852 c -0.8470,1.5092 -1.2320,3.1571 -1.2320 3.1571c -0.3850,1.6478 -0.3850,3.2957 -0.3850 3.2957c 0.0000,1.6478 0.3850,3.2957 0.3850 3.2957c 0.3850,1.6478 1.2320,3.1571 1.2320 3.1571l -1.4168,0.5852 h 0.0000 ZM 582.1330,14.1016 ZM 583.4728,11.8070 c 0.5236,0.4004 1.0010,0.6006 1.0010 0.6006c 0.4774,0.2002 0.9702,0.2002 0.9702 0.2002c 0.5082,0.0000 0.7392,-0.1694 0.7392 -0.1694c 0.2310,-0.1694 0.2310,-0.4774 0.2310 -0.4774c 0.0000,-0.1848 -0.1309,-0.3311 -0.1309 -0.3311c -0.1309,-0.1463 -0.3542,-0.2695 -0.3542 -0.2695c -0.2233,-0.1232 -0.5005,-0.2233 -0.5005 -0.2233c -0.2772,-0.1001 -0.5698,-0.2233 -0.5698 -0.2233c -0.3542,-0.1386 -0.7084,-0.3234 -0.7084 -0.3234c -0.3542,-0.1848 -0.6468,-0.4543 -0.6468 -0.4543c -0.2926,-0.2695 -0.4774,-0.6314 -0.4774 -0.6314c -0.1848,-0.3619 -0.1848,-0.8393 -0.1848 -0.8393c 0.0000,-0.5236 0.2079,-0.9702 0.2079 -0.9702c 0.2079,-0.4466 0.5929,-0.7546 0.5929 -0.7546c 0.3850,-0.3080 0.9240,-0.4851 0.9240 -0.4851c 0.5390,-0.1771 1.2012,-0.1771 1.2012 -0.1771c 0.8778,0.0000 1.5400,0.3003 1.5400 0.3003c 0.6622,0.3003 1.1550,0.6699 1.1550 0.6699l -1.0164,1.3552 c -0.4158,-0.3080 -0.8162,-0.4774 -0.8162 -0.4774c -0.4004,-0.1694 -0.8008,-0.1694 -0.8008 -0.1694c -0.8624,-0.0000 -0.8624,0.6006 -0.8624 0.6006c 0.0000,0.1848 0.1232,0.3157 0.1232 0.3157c 0.1232,0.1309 0.3311,0.2387 0.3311 0.2387c 0.2079,0.1078 0.4774,0.2079 0.4774 0.2079c 0.2695,0.1001 0.5621,0.2079 0.5621 0.2079c 0.3696,0.1386 0.7315,0.3157 0.7315 0.3157c 0.3619,0.1771 0.6622,0.4389 0.6622 0.4389c 0.3003,0.2618 0.4851,0.6391 0.4851 0.6391c 0.1848,0.3773 0.1848,0.9009 0.1848 0.9009c 0.0000,0.5236 -0.2002,0.9702 -0.2002 0.9702c -0.2002,0.4466 -0.6006,0.7777 -0.6006 0.7777c -0.4004,0.3311 -0.9856,0.5236 -0.9856 0.5236c -0.5852,0.1925 -1.3552,0.1925 -1.3552 0.1925c -0.7546,-0.0000 -1.5477,-0.2926 -1.5477 -0.2926c -0.7931,-0.2926 -1.3783,-0.7700 -1.3783 -0.7700ZM 588.9553,14.1016 ZM 591.0806,5.3388 c -0.5698,-0.0000 -0.9394,-0.3311 -0.9394 -0.3311c -0.3696,-0.3311 -0.3696,-0.8547 -0.3696 -0.8547c 0.0000,-0.5236 0.3696,-0.8470 0.3696 -0.8470c 0.3696,-0.3234 0.9394,-0.3234 0.9394 -0.3234c 0.5852,0.0000 0.9471,0.3234 0.9471 0.3234c 0.3619,0.3234 0.3619,0.8470 0.3619 0.8470c 0.0000,0.5236 -0.3619,0.8547 -0.3619 0.8547c -0.3619,0.3311 -0.9471,0.3311 -0.9471 0.3311ZM 591.0806,5.3388 ZM 589.9564,6.4630 h 2.2639 v 7.6386 h -2.2639 v -7.6386 ZM 593.2059,14.1016 ZM 594.2069,6.4630 h 1.8480 l 0.1540,0.9702 h 0.0616 c 0.4928,-0.4620 1.0780,-0.8085 1.0780 -0.8085c 0.5852,-0.3465 1.3706,-0.3465 1.3706 -0.3465c 1.2474,0.0000 1.8095,0.8162 1.8095 0.8162c 0.5621,0.8162 0.5621,2.2639 0.5621 2.2639v 4.7433 h -2.2639 v -4.4507 c 0.0000,-0.8316 -0.2233,-1.1396 -0.2233 -1.1396c -0.2233,-0.3080 -0.7161,-0.3080 -0.7161 -0.3080c -0.4312,-0.0000 -0.7392,0.1925 -0.7392 0.1925c -0.3080,0.1925 -0.6776,0.5467 -0.6776 0.5467v 5.1591 h -2.2639 v -7.6386 ZM 602.0149,14.1016 ZM 604.4020,15.0565 c 0.0000,0.4312 0.4620,0.6545 0.4620 0.6545c 0.4620,0.2233 1.2320,0.2233 1.2320 0.2233c 0.7700,0.0000 1.2628,-0.2695 1.2628 -0.2695c 0.4928,-0.2695 0.4928,-0.6699 0.4928 -0.6699c 0.0000,-0.3542 -0.3003,-0.4774 -0.3003 -0.4774c -0.3003,-0.1232 -0.8701,-0.1232 -0.8701 -0.1232h -0.7854 c -0.4004,-0.0000 -0.6468,-0.0231 -0.6468 -0.0231c -0.2464,-0.0231 -0.4312,-0.0693 -0.4312 -0.0693c -0.4158,0.3696 -0.4158,0.7546 -0.4158 0.7546ZM 604.4020,15.0565 ZM 602.5385,15.4107 c 0.0000,-0.9240 1.0934,-1.5400 1.0934 -1.5400v -0.0616 c -0.3080,-0.2002 -0.5082,-0.5082 -0.5082 -0.5082c -0.2002,-0.3080 -0.2002,-0.7854 -0.2002 -0.7854c 0.0000,-0.4158 0.2464,-0.7931 0.2464 -0.7931c 0.2464,-0.3773 0.6160,-0.6391 0.6160 -0.6391v -0.0616 c -0.4004,-0.2772 -0.7161,-0.7931 -0.7161 -0.7931c -0.3157,-0.5159 -0.3157,-1.1935 -0.3157 -1.1935c 0.0000,-0.6930 0.2618,-1.2089 0.2618 -1.2089c 0.2618,-0.5159 0.7007,-0.8624 0.7007 -0.8624c 0.4389,-0.3465 1.0087,-0.5159 1.0087 -0.5159c 0.5698,-0.1694 1.1858,-0.1694 1.1858 -0.1694c 0.6776,0.0000 1.1858,0.1848 1.1858 0.1848h 2.7875 v 1.6478 h -1.2166 c 0.1078,0.1694 0.1771,0.4312 0.1771 0.4312c 0.0693,0.2618 0.0693,0.5698 0.0693 0.5698c 0.0000,0.6622 -0.2310,1.1473 -0.2310 1.1473c -0.2310,0.4851 -0.6391,0.8008 -0.6391 0.8008c -0.4081,0.3157 -0.9548,0.4697 -0.9548 0.4697c -0.5467,0.1540 -1.1781,0.1540 -1.1781 0.1540c -0.4466,-0.0000 -0.9240,-0.1540 -0.9240 -0.1540c -0.1540,0.1232 -0.2156,0.2464 -0.2156 0.2464c -0.0616,0.1232 -0.0616,0.3234 -0.0616 0.3234c 0.0000,0.2926 0.2541,0.4312 0.2541 0.4312c 0.2541,0.1386 0.9009,0.1386 0.9009 0.1386h 1.2320 c 1.4168,0.0000 2.1638,0.4543 2.1638 0.4543c 0.7469,0.4543 0.7469,1.4861 0.7469 1.4861c 0.0000,0.6006 -0.3003,1.1011 -0.3003 1.1011c -0.3003,0.5005 -0.8547,0.8624 -0.8547 0.8624c -0.5544,0.3619 -1.3398,0.5698 -1.3398 0.5698c -0.7854,0.2079 -1.7710,0.2079 -1.7710 0.2079c -0.6776,-0.0000 -1.2551,-0.1155 -1.2551 -0.1155c -0.5775,-0.1155 -1.0164,-0.3465 -1.0164 -0.3465c -0.4389,-0.2310 -0.6853,-0.6006 -0.6853 -0.6006c -0.2464,-0.3696 -0.2464,-0.8778 -0.2464 -0.8778ZM 602.5385,15.4107 ZM 605.9112,10.3131 c 0.4466,0.0000 0.7469,-0.3157 0.7469 -0.3157c 0.3003,-0.3157 0.3003,-0.9625 0.3003 -0.9625c 0.0000,-0.6006 -0.3003,-0.9163 -0.3003 -0.9163c -0.3003,-0.3157 -0.7469,-0.3157 -0.7469 -0.3157c -0.4466,-0.0000 -0.7469,0.3080 -0.7469 0.3080c -0.3003,0.3080 -0.3003,0.9240 -0.3003 0.9240c 0.0000,0.6468 0.3003,0.9625 0.3003 0.9625c 0.3003,0.3157 0.7469,0.3157 0.7469 0.3157ZM 610.2387,14.1016 ZM 611.2397,3.3060 h 2.2639 v 8.5164 c 0.0000,0.3542 0.1309,0.4928 0.1309 0.4928c 0.1309,0.1386 0.2695,0.1386 0.2695 0.1386h 0.1309 c 0.0000,0.0000 0.1463,-0.0308 0.1463 -0.0308l 0.2772,1.6786 c -0.1848,0.0770 -0.4697,0.1309 -0.4697 0.1309c -0.2849,0.0539 -0.6699,0.0539 -0.6699 0.0539c -0.5852,-0.0000 -0.9856,-0.1848 -0.9856 -0.1848c -0.4004,-0.1848 -0.6391,-0.5159 -0.6391 -0.5159c -0.2387,-0.3311 -0.3465,-0.8008 -0.3465 -0.8008c -0.1078,-0.4697 -0.1078,-1.0549 -0.1078 -1.0549v -8.4240 ZM 614.6432,14.1016 ZM 615.1976,10.2823 c 0.0000,-0.9240 0.3080,-1.6709 0.3080 -1.6709c 0.3080,-0.7469 0.8085,-1.2628 0.8085 -1.2628c 0.5005,-0.5159 1.1473,-0.7931 1.1473 -0.7931c 0.6468,-0.2772 1.3398,-0.2772 1.3398 -0.2772c 0.8162,0.0000 1.4245,0.2772 1.4245 0.2772c 0.6083,0.2772 1.0164,0.7700 1.0164 0.7700c 0.4081,0.4928 0.6083,1.1627 0.6083 1.1627c 0.2002,0.6699 0.2002,1.4553 0.2002 1.4553c 0.0000,0.3080 -0.0308,0.5621 -0.0308 0.5621c -0.0308,0.2541 -0.0616,0.3927 -0.0616 0.3927h -4.5739 c 0.1540,0.8778 0.6853,1.2705 0.6853 1.2705c 0.5313,0.3927 1.3013,0.3927 1.3013 0.3927c 0.8162,0.0000 1.6478,-0.5082 1.6478 -0.5082l 0.7546,1.3706 c -0.5852,0.4004 -1.3013,0.6314 -1.3013 0.6314c -0.7161,0.2310 -1.4091,0.2310 -1.4091 0.2310c -0.8162,-0.0000 -1.5246,-0.2695 -1.5246 -0.2695c -0.7084,-0.2695 -1.2320,-0.7854 -1.2320 -0.7854c -0.5236,-0.5159 -0.8162,-1.2551 -0.8162 -1.2551c -0.2926,-0.7392 -0.2926,-1.6940 -0.2926 -1.6940ZM 615.1976,10.2823 ZM 620.1258,9.4969 c 0.0000,-0.6622 -0.2926,-1.0780 -0.2926 -1.0780c -0.2926,-0.4158 -0.9856,-0.4158 -0.9856 -0.4158c -0.5390,-0.0000 -0.9471,0.3619 -0.9471 0.3619c -0.4081,0.3619 -0.5313,1.1319 -0.5313 1.1319h 2.7567 ZM 625.8239,14.1016 ZM 627.1638,11.8070 c 0.5236,0.4004 1.0010,0.6006 1.0010 0.6006c 0.4774,0.2002 0.9702,0.2002 0.9702 0.2002c 0.5082,0.0000 0.7392,-0.1694 0.7392 -0.1694c 0.2310,-0.1694 0.2310,-0.4774 0.2310 -0.4774c 0.0000,-0.1848 -0.1309,-0.3311 -0.1309 -0.3311c -0.1309,-0.1463 -0.3542,-0.2695 -0.3542 -0.2695c -0.2233,-0.1232 -0.5005,-0.2233 -0.5005 -0.2233c -0.2772,-0.1001 -0.5698,-0.2233 -0.5698 -0.2233c -0.3542,-0.1386 -0.7084,-0.3234 -0.7084 -0.3234c -0.3542,-0.1848 -0.6468,-0.4543 -0.6468 -0.4543c -0.2926,-0.2695 -0.4774,-0.6314 -0.4774 -0.6314c -0.1848,-0.3619 -0.1848,-0.8393 -0.1848 -0.8393c 0.0000,-0.5236 0.2079,-0.9702 0.2079 -0.9702c 0.2079,-0.4466 0.5929,-0.7546 0.5929 -0.7546c 0.3850,-0.3080 0.9240,-0.4851 0.9240 -0.4851c 0.5390,-0.1771 1.2012,-0.1771 1.2012 -0.1771c 0.8778,0.0000 1.5400,0.3003 1.5400 0.3003c 0.6622,0.3003 1.1550,0.6699 1.1550 0.6699l -1.0164,1.3552 c -0.4158,-0.3080 -0.8162,-0.4774 -0.8162 -0.4774c -0.4004,-0.1694 -0.8008,-0.1694 -0.8008 -0.1694c -0.8624,-0.0000 -0.8624,0.6006 -0.8624 0.6006c 0.0000,0.1848 0.1232,0.3157 0.1232 0.3157c 0.1232,0.1309 0.3311,0.2387 0.3311 0.2387c 0.2079,0.1078 0.4774,0.2079 0.4774 0.2079c 0.2695,0.1001 0.5621,0.2079 0.5621 0.2079c 0.3696,0.1386 0.7315,0.3157 0.7315 0.3157c 0.3619,0.1771 0.6622,0.4389 0.6622 0.4389c 0.3003,0.2618 0.4851,0.6391 0.4851 0.6391c 0.1848,0.3773 0.1848,0.9009 0.1848 0.9009c 0.0000,0.5236 -0.2002,0.9702 -0.2002 0.9702c -0.2002,0.4466 -0.6006,0.7777 -0.6006 0.7777c -0.4004,0.3311 -0.9856,0.5236 -0.9856 0.5236c -0.5852,0.1925 -1.3552,0.1925 -1.3552 0.1925c -0.7546,-0.0000 -1.5477,-0.2926 -1.5477 -0.2926c -0.7931,-0.2926 -1.3783,-0.7700 -1.3783 -0.7700ZM 632.6463,14.1016 ZM 633.2007,10.2823 c 0.0000,-0.9240 0.3080,-1.6709 0.3080 -1.6709c 0.3080,-0.7469 0.8085,-1.2628 0.8085 -1.2628c 0.5005,-0.5159 1.1473,-0.7931 1.1473 -0.7931c 0.6468,-0.2772 1.3398,-0.2772 1.3398 -0.2772c 0.8162,0.0000 1.4245,0.2772 1.4245 0.2772c 0.6083,0.2772 1.0164,0.7700 1.0164 0.7700c 0.4081,0.4928 0.6083,1.1627 0.6083 1.1627c 0.2002,0.6699 0.2002,1.4553 0.2002 1.4553c 0.0000,0.3080 -0.0308,0.5621 -0.0308 0.5621c -0.0308,0.2541 -0.0616,0.3927 -0.0616 0.3927h -4.5739 c 0.1540,0.8778 0.6853,1.2705 0.6853 1.2705c 0.5313,0.3927 1.3013,0.3927 1.3013 0.3927c 0.8162,0.0000 1.6478,-0.5082 1.6478 -0.5082l 0.7546,1.3706 c -0.5852,0.4004 -1.3013,0.6314 -1.3013 0.6314c -0.7161,0.2310 -1.4091,0.2310 -1.4091 0.2310c -0.8162,-0.0000 -1.5246,-0.2695 -1.5246 -0.2695c -0.7084,-0.2695 -1.2320,-0.7854 -1.2320 -0.7854c -0.5236,-0.5159 -0.8162,-1.2551 -0.8162 -1.2551c -0.2926,-0.7392 -0.2926,-1.6940 -0.2926 -1.6940ZM 633.2007,10.2823 ZM 638.1289,9.4969 c 0.0000,-0.6622 -0.2926,-1.0780 -0.2926 -1.0780c -0.2926,-0.4158 -0.9856,-0.4158 -0.9856 -0.4158c -0.5390,-0.0000 -0.9471,0.3619 -0.9471 0.3619c -0.4081,0.3619 -0.5313,1.1319 -0.5313 1.1319h 2.7567 ZM 640.6237,14.1016 ZM 641.6247,3.3060 h 2.2639 v 8.5164 c 0.0000,0.3542 0.1309,0.4928 0.1309 0.4928c 0.1309,0.1386 0.2695,0.1386 0.2695 0.1386h 0.1309 c 0.0000,0.0000 0.1463,-0.0308 0.1463 -0.0308l 0.2772,1.6786 c -0.1848,0.0770 -0.4697,0.1309 -0.4697 0.1309c -0.2849,0.0539 -0.6699,0.0539 -0.6699 0.0539c -0.5852,-0.0000 -0.9856,-0.1848 -0.9856 -0.1848c -0.4004,-0.1848 -0.6391,-0.5159 -0.6391 -0.5159c -0.2387,-0.3311 -0.3465,-0.8008 -0.3465 -0.8008c -0.1078,-0.4697 -0.1078,-1.0549 -0.1078 -1.0549v -8.4240 ZM 645.0282,14.1016 ZM 645.5826,10.2823 c 0.0000,-0.9240 0.3080,-1.6709 0.3080 -1.6709c 0.3080,-0.7469 0.8085,-1.2628 0.8085 -1.2628c 0.5005,-0.5159 1.1473,-0.7931 1.1473 -0.7931c 0.6468,-0.2772 1.3398,-0.2772 1.3398 -0.2772c 0.8162,0.0000 1.4245,0.2772 1.4245 0.2772c 0.6083,0.2772 1.0164,0.7700 1.0164 0.7700c 0.4081,0.4928 0.6083,1.1627 0.6083 1.1627c 0.2002,0.6699 0.2002,1.4553 0.2002 1.4553c 0.0000,0.3080 -0.0308,0.5621 -0.0308 0.5621c -0.0308,0.2541 -0.0616,0.3927 -0.0616 0.3927h -4.5739 c 0.1540,0.8778 0.6853,1.2705 0.6853 1.2705c 0.5313,0.3927 1.3013,0.3927 1.3013 0.3927c 0.8162,0.0000 1.6478,-0.5082 1.6478 -0.5082l 0.7546,1.3706 c -0.5852,0.4004 -1.3013,0.6314 -1.3013 0.6314c -0.7161,0.2310 -1.4091,0.2310 -1.4091 0.2310c -0.8162,-0.0000 -1.5246,-0.2695 -1.5246 -0.2695c -0.7084,-0.2695 -1.2320,-0.7854 -1.2320 -0.7854c -0.5236,-0.5159 -0.8162,-1.2551 -0.8162 -1.2551c -0.2926,-0.7392 -0.2926,-1.6940 -0.2926 -1.6940ZM 645.5826,10.2823 ZM 650.5108,9.4969 c 0.0000,-0.6622 -0.2926,-1.0780 -0.2926 -1.0780c -0.2926,-0.4158 -0.9856,-0.4158 -0.9856 -0.4158c -0.5390,-0.0000 -0.9471,0.3619 -0.9471 0.3619c -0.4081,0.3619 -0.5313,1.1319 -0.5313 1.1319h 2.7567 ZM 653.0056,14.1016 ZM 653.5601,10.2823 c 0.0000,-0.9548 0.3234,-1.7017 0.3234 -1.7017c 0.3234,-0.7469 0.8701,-1.2551 0.8701 -1.2551c 0.5467,-0.5082 1.2705,-0.7777 1.2705 -0.7777c 0.7238,-0.2695 1.5092,-0.2695 1.5092 -0.2695c 0.7084,0.0000 1.2782,0.2387 1.2782 0.2387c 0.5698,0.2387 0.9548,0.6391 0.9548 0.6391l -1.0318,1.4014 c -0.5390,-0.4466 -1.0626,-0.4466 -1.0626 -0.4466c -0.8316,-0.0000 -1.3090,0.5852 -1.3090 0.5852c -0.4774,0.5852 -0.4774,1.5862 -0.4774 1.5862c 0.0000,1.0010 0.4851,1.5862 0.4851 1.5862c 0.4851,0.5852 1.2243,0.5852 1.2243 0.5852c 0.4158,0.0000 0.7546,-0.1694 0.7546 -0.1694c 0.3388,-0.1694 0.6160,-0.3850 0.6160 -0.3850l 0.9086,1.4322 c -0.5544,0.4928 -1.2320,0.7238 -1.2320 0.7238c -0.6776,0.2310 -1.3090,0.2310 -1.3090 0.2310c -0.8008,-0.0000 -1.4861,-0.2695 -1.4861 -0.2695c -0.6853,-0.2695 -1.1935,-0.7777 -1.1935 -0.7777c -0.5082,-0.5082 -0.8008,-1.2551 -0.8008 -1.2551c -0.2926,-0.7469 -0.2926,-1.7017 -0.2926 -1.7017ZM 660.1976,14.1016 ZM 661.5067,8.2341 h -1.0472 v -1.6786 l 1.1704,-0.0924 l 0.2618,-2.0329 h 1.8789 v 2.0329 h 1.8326 v 1.7710 h -1.8326 v 3.0647 c 0.0000,0.6468 0.2695,0.9317 0.2695 0.9317c 0.2695,0.2849 0.7161,0.2849 0.7161 0.2849c 0.1848,0.0000 0.3773,-0.0462 0.3773 -0.0462c 0.1925,-0.0462 0.3465,-0.1078 0.3465 -0.1078l 0.3542,1.6478 c -0.3080,0.0924 -0.7238,0.1848 -0.7238 0.1848c -0.4158,0.0924 -0.9702,0.0924 -0.9702 0.0924c -0.7084,-0.0000 -1.2089,-0.2156 -1.2089 -0.2156c -0.5005,-0.2156 -0.8162,-0.6006 -0.8162 -0.6006c -0.3157,-0.3850 -0.4620,-0.9317 -0.4620 -0.9317c -0.1463,-0.5467 -0.1463,-1.2089 -0.1463 -1.2089v -3.0955 ZM 666.0960,14.1016 ZM 666.8352,16.2731 c 0.8624,-1.5092 1.2474,-3.1571 1.2474 -3.1571c 0.3850,-1.6478 0.3850,-3.2957 0.3850 -3.2957c 0.0000,-1.6478 -0.3850,-3.2957 -0.3850 -3.2957c -0.3850,-1.6478 -1.2474,-3.1571 -1.2474 -3.1571l 1.4168,-0.5852 c 0.9702,1.5862 1.5015,3.2957 1.5015 3.2957c 0.5313,1.7094 0.5313,3.7423 0.5313 3.7423c 0.0000,2.0329 -0.5313,3.7423 -0.5313 3.7423c -0.5313,1.7094 -1.5015,3.2957 -1.5015 3.2957l -1.4168,-0.5852 h 0.0000 Z"/></g><g stroke-linejoin="miter" stroke-opacity="1.0" fill-opacity="0.0" stroke="rgb(211,211,211)" stroke-width="0.9999999999999997" fill="rgb(0,0,0)" stroke-dashoffset="0.0" stroke-linecap="butt" stroke-miterlimit="10.0" stroke-dasharray="4.999999999999998,4.999999999999998"><path d="M 35.0210,570.0000 h 739.5536 "/></g><g stroke-linejoin="miter" stroke-opacity="1.0" fill-opacity="0.0" stroke="rgb(211,211,211)" stroke-width="0.9999999999999997" fill="rgb(0,0,0)" stroke-dashoffset="0.0" stroke-linecap="butt" stroke-miterlimit="10.0" stroke-dasharray="4.999999999999998,4.999999999999998"><path d="M 35.0210,436.2500 h 739.5536 "/></g><g stroke-linejoin="miter" stroke-opacity="1.0" fill-opacity="0.0" stroke="rgb(211,211,211)" stroke-width="0.9999999999999997" fill="rgb(0,0,0)" stroke-dashoffset="0.0" stroke-linecap="butt" stroke-miterlimit="10.0" stroke-dasharray="4.999999999999998,4.999999999999998"><path d="M 35.0210,302.5000 h 739.5536 "/></g><g stroke-linejoin="miter" stroke-opacity="1.0" fill-opacity="0.0" stroke="rgb(211,211,211)" stroke-width="0.9999999999999997" fill="rgb(0,0,0)" stroke-dashoffset="0.0" stroke-linecap="butt" stroke-miterlimit="10.0" stroke-dasharray="4.999999999999998,4.999999999999998"><path d="M 35.0210,168.7500 h 739.5536 "/></g><g stroke-linejoin="miter" stroke-opacity="1.0" fill-opacity="0.0" stroke="rgb(211,211,211)" stroke-width="0.9999999999999997" fill="rgb(0,0,0)" stroke-dashoffset="0.0" stroke-linecap="butt" stroke-miterlimit="10.0" stroke-dasharray="4.999999999999998,4.999999999999998"><path d="M 35.0210,35.0000 h 739.5536 "/></g><g stroke-linejoin="bevel" stroke-opacity="0.0" fill-opacity="1.0" stroke="rgb(0,0,0)" stroke-width="0.0" fill="rgb(92,53,102)" stroke-linecap="butt" stroke-miterlimit="10.0"><defs><clipPath id="myClip1"><path d="M 35.0210,35.0000 v 535.0000 h 739.5536 v -535.0000 Z"/></clipPath></defs><g clip-path="url(#myClip1)"><path d="M 50.0210,570.0000 v -275.5250 h 154.8884 v 275.5250 Z"/></g></g><g stroke-linejoin="miter" stroke-opacity="1.0" fill-opacity="0.0" stroke="rgb(0,0,0)" stroke-width="0.9999999999999997" fill="rgb(0,0,0)" stroke-linecap="butt" stroke-miterlimit="10.0"><defs><clipPath id="myClip2"><path d="M 35.0210,35.0000 v 535.0000 h 739.5536 v -535.0000 Z"/></clipPath></defs><g clip-path="url(#myClip2)"><path d="M 50.0210,570.0000 v -275.5250 h 154.8884 v 275.5250 Z"/></g></g><g stroke-linejoin="bevel" stroke-opacity="0.0" fill-opacity="1.0" stroke="rgb(0,0,0)" stroke-width="0.0" fill="rgb(92,53,102)" stroke-linecap="butt" stroke-miterlimit="10.0"><defs><clipPath id="myClip3"><path d="M 35.0210,35.0000 v 535.0000 h 739.5536 v -535.0000 Z"/></clipPath></defs><g clip-path="url(#myClip3)"><path d="M 234.9094,570.0000 v -414.6250 h 154.8884 v 414.6250 Z"/></g></g><g stroke-linejoin="miter" stroke-opacity="1.0" fill-opacity="0.0" stroke="rgb(0,0,0)" stroke-width="0.9999999999999997" fill="rgb(0,0,0)" stroke-linecap="butt" stroke-miterlimit="10.0"><defs><clipPath id="myClip4"><path d="M 35.0210,35.0000 v 535.0000 h 739.5536 v -535.0000 Z"/></clipPath></defs><g clip-path="url(#myClip4)"><path d="M 234.9094,570.0000 v -414.6250 h 154.8884 v 414.6250 Z"/></g></g><g stroke-linejoin="bevel" stroke-opacity="0.0" fill-opacity="1.0" stroke="rgb(0,0,0)" stroke-width="0.0" fill="rgb(92,53,102)" stroke-linecap="butt" stroke-miterlimit="10.0"><defs><clipPath id="myClip5"><path d="M 35.0210,35.0000 v 535.0000 h 739.5536 v -535.0000 Z"/></clipPath></defs><g clip-path="url(#myClip5)"><path d="M 419.7978,570.0000 v -335.7125 h 154.8884 v 335.7125 Z"/></g></g><g stroke-linejoin="miter" stroke-opacity="1.0" fill-opacity="0.0" stroke="rgb(0,0,0)" stroke-width="0.9999999999999997" fill="rgb(0,0,0)" stroke-linecap="butt" stroke-miterlimit="10.0"><defs><clipPath id="myClip6"><path d="M 35.0210,35.0000 v 535.0000 h 739.5536 v -535.0000 Z"/></clipPath></defs><g clip-path="url(#myClip6)"><path d="M 419.7978,570.0000 v -335.7125 h 154.8884 v 335.7125 Z"/></g></g><g stroke-linejoin="bevel" stroke-opacity="0.0" fill-opacity="1.0" stroke="rgb(0,0,0)" stroke-width="0.0" fill="rgb(92,53,102)" stroke-linecap="butt" stroke-miterlimit="10.0"><defs><clipPath id="myClip7"><path d="M 35.0210,35.0000 v 535.0000 h 739.5536 v -535.0000 Z"/></clipPath></defs><g clip-path="url(#myClip7)"><path d="M 604.6862,570.0000 v -153.8125 h 154.8884 v 153.8125 Z"/></g></g><g stroke-linejoin="miter" stroke-opacity="1.0" fill-opacity="0.0" stroke="rgb(0,0,0)" stroke-width="0.9999999999999997" fill="rgb(0,0,0)" stroke-linecap="butt" stroke-miterlimit="10.0"><defs><clipPath id="myClip8"><path d="M 35.0210,35.0000 v 535.0000 h 739.5536 v -535.0000 Z"/></clipPath></defs><g clip-path="url(#myClip8)"><path d="M 604.6862,570.0000 v -153.8125 h 154.8884 v 153.8125 Z"/></g></g><g stroke-linejoin="miter" stroke-opacity="1.0" fill-opacity="0.0" stroke="rgb(0,0,0)" stroke-width="0.9999999999999997" fill="rgb(0,0,0)" stroke-linecap="square" stroke-miterlimit="10.0"><path d="M 35.0210,570.0000 v -535.0000 "/></g><g stroke-linejoin="miter" stroke-opacity="1.0" fill-opacity="0.0" stroke="rgb(0,0,0)" stroke-width="0.9999999999999997" fill="rgb(0,0,0)" stroke-linecap="butt" stroke-miterlimit="10.0"><path d="M 35.0210,570.0000 h 2.0000 "/></g><g stroke-linejoin="miter" stroke-opacity="1.0" fill-opacity="0.0" stroke="rgb(0,0,0)" stroke-width="0.9999999999999997" fill="rgb(0,0,0)" stroke-linecap="butt" stroke-miterlimit="10.0"><path d="M 35.0210,503.1250 h 2.0000 "/></g><g stroke-linejoin="miter" stroke-opacity="1.0" fill-opacity="0.0" stroke="rgb(0,0,0)" stroke-width="0.9999999999999997" fill="rgb(0,0,0)" stroke-linecap="butt" stroke-miterlimit="10.0"><path d="M 35.0210,436.2500 h 2.0000 "/></g><g stroke-linejoin="miter" stroke-opacity="1.0" fill-opacity="0.0" stroke="rgb(0,0,0)" stroke-width="0.9999999999999997" fill="rgb(0,0,0)" stroke-linecap="butt" stroke-miterlimit="10.0"><path d="M 35.0210,369.3750 h 2.0000 "/></g><g stroke-linejoin="miter" stroke-opacity="1.0" fill-opacity="0.0" stroke="rgb(0,0,0)" stroke-width="0.9999999999999997" fill="rgb(0,0,0)" stroke-linecap="butt" stroke-miterlimit="10.0"><path d="M 35.0210,302.5000 h 2.0000 "/></g><g stroke-linejoin="miter" stroke-opacity="1.0" fill-opacity="0.0" stroke="rgb(0,0,0)" stroke-width="0.9999999999999997" fill="rgb(0,0,0)" stroke-linecap="butt" stroke-miterlimit="10.0"><path d="M 35.0210,235.6250 h 2.0000 "/></g><g stroke-linejoin="miter" stroke-opacity="1.0" fill-opacity="0.0" stroke="rgb(0,0,0)" stroke-width="0.9999999999999997" fill="rgb(0,0,0)" stroke-linecap="butt" stroke-miterlimit="10.0"><path d="M 35.0210,168.7500 h 2.0000 "/></g><g stroke-linejoin="miter" stroke-opacity="1.0" fill-opacity="0.0" stroke="rgb(0,0,0)" stroke-width="0.9999999999999997" fill="rgb(0,0,0)" stroke-linecap="butt" stroke-miterlimit="10.0"><path d="M 35.0210,101.8750 h 2.0000 "/></g><g stroke-linejoin="miter" stroke-opacity="1.0" fill-opacity="0.0" stroke="rgb(0,0,0)" stroke-width="0.9999999999999997" fill="rgb(0,0,0)" stroke-linecap="butt" stroke-miterlimit="10.0"><path d="M 35.0210,35.0000 h 2.0000 "/></g><g stroke-linejoin="miter" stroke-opacity="1.0" fill-opacity="0.0" stroke="rgb(0,0,0)" stroke-width="0.9999999999999997" fill="rgb(0,0,0)" stroke-linecap="butt" stroke-miterlimit="10.0"><path d="M 35.0210,570.0000 h 5.0000 "/></g><g stroke-linejoin="miter" stroke-opacity="1.0" fill-opacity="0.0" stroke="rgb(0,0,0)" stroke-width="0.9999999999999997" fill="rgb(0,0,0)" stroke-linecap="butt" stroke-miterlimit="10.0"><path d="M 35.0210,436.2500 h 5.0000 "/></g><g stroke-linejoin="miter" stroke-opacity="1.0" fill-opacity="0.0" stroke="rgb(0,0,0)" stroke-width="0.9999999999999997" fill="rgb(0,0,0)" stroke-linecap="butt" stroke-miterlimit="10.0"><path d="M 35.0210,302.5000 h 5.0000 "/></g><g stroke-linejoin="miter" stroke-opacity="1.0" fill-opacity="0.0" stroke="rgb(0,0,0)" stroke-width="0.9999999999999997" fill="rgb(0,0,0)" stroke-linecap="butt" stroke-miterlimit="10.0"><path d="M 35.0210,168.7500 h 5.0000 "/></g><g stroke-linejoin="miter" stroke-opacity="1.0" fill-opacity="0.0" stroke="rgb(0,0,0)" stroke-width="0.9999999999999997" fill="rgb(0,0,0)" stroke-linecap="butt" stroke-miterlimit="10.0"><path d="M 35.0210,35.0000 h 5.0000 "/></g><g stroke-linejoin="bevel" stroke-opacity="0.0" fill-opacity="1.0" stroke="rgb(0,0,0)" stroke-width="0.0" fill="rgb(0,0,0)" stroke-linecap="butt" stroke-miterlimit="10.0"><path d="M 20.7248,573.4454 ZM 23.3403,573.5714 c -1.0189,-0.0000 -1.5861,-0.9034 -1.5861 -0.9034c -0.5672,-0.9034 -0.5672,-2.5945 -0.5672 -2.5945c 0.0000,-1.6912 0.5672,-2.5735 0.5672 -2.5735c 0.5672,-0.8824 1.5861,-0.8824 1.5861 -0.8824c 1.0084,0.0000 1.5756,0.8824 1.5756 0.8824c 0.5672,0.8824 0.5672,2.5735 0.5672 2.5735c 0.0000,1.6912 -0.5672,2.5945 -0.5672 2.5945c -0.5672,0.9034 -1.5756,0.9034 -1.5756 0.9034ZM 23.3403,573.5714 ZM 23.3403,572.8782 c 0.2941,0.0000 0.5305,-0.1628 0.5305 -0.1628c 0.2363,-0.1628 0.4097,-0.5042 0.4097 -0.5042c 0.1733,-0.3414 0.2679,-0.8718 0.2679 -0.8718c 0.0945,-0.5305 0.0945,-1.2658 0.0945 -1.2658c 0.0000,-0.7353 -0.0945,-1.2605 -0.0945 -1.2605c -0.0945,-0.5252 -0.2679,-0.8561 -0.2679 -0.8561c -0.1733,-0.3309 -0.4097,-0.4884 -0.4097 -0.4884c -0.2363,-0.1576 -0.5305,-0.1576 -0.5305 -0.1576c -0.2941,-0.0000 -0.5357,0.1576 -0.5357 0.1576c -0.2416,0.1576 -0.4149,0.4884 -0.4149 0.4884c -0.1733,0.3309 -0.2679,0.8561 -0.2679 0.8561c -0.0945,0.5252 -0.0945,1.2605 -0.0945 1.2605c 0.0000,1.4706 0.3624,2.1376 0.3624 2.1376c 0.3624,0.6670 0.9506,0.6670 0.9506 0.6670Z"/></g><g stroke-linejoin="bevel" stroke-opacity="0.0" fill-opacity="1.0" stroke="rgb(0,0,0)" stroke-width="0.0" fill="rgb(0,0,0)" stroke-linecap="butt" stroke-miterlimit="10.0"><path d="M 10.6513,439.6954 ZM 11.4811,438.9811 h 1.5336 v -4.9370 h -1.2185 v -0.5567 c 0.4622,-0.0840 0.8036,-0.2048 0.8036 -0.2048c 0.3414,-0.1208 0.6145,-0.2889 0.6145 -0.2889h 0.6618 v 5.9874 h 1.3866 v 0.7143 h -3.7815 v -0.7143 ZM 15.8718,439.6954 ZM 18.4874,439.8214 c -1.0189,-0.0000 -1.5861,-0.9034 -1.5861 -0.9034c -0.5672,-0.9034 -0.5672,-2.5945 -0.5672 -2.5945c 0.0000,-1.6912 0.5672,-2.5735 0.5672 -2.5735c 0.5672,-0.8824 1.5861,-0.8824 1.5861 -0.8824c 1.0084,0.0000 1.5756,0.8824 1.5756 0.8824c 0.5672,0.8824 0.5672,2.5735 0.5672 2.5735c 0.0000,1.6912 -0.5672,2.5945 -0.5672 2.5945c -0.5672,0.9034 -1.5756,0.9034 -1.5756 0.9034ZM 18.4874,439.8214 ZM 18.4874,439.1282 c 0.2941,0.0000 0.5305,-0.1628 0.5305 -0.1628c 0.2363,-0.1628 0.4097,-0.5042 0.4097 -0.5042c 0.1733,-0.3414 0.2679,-0.8718 0.2679 -0.8718c 0.0945,-0.5305 0.0945,-1.2658 0.0945 -1.2658c 0.0000,-0.7353 -0.0945,-1.2605 -0.0945 -1.2605c -0.0945,-0.5252 -0.2679,-0.8561 -0.2679 -0.8561c -0.1733,-0.3309 -0.4097,-0.4884 -0.4097 -0.4884c -0.2363,-0.1576 -0.5305,-0.1576 -0.5305 -0.1576c -0.2941,-0.0000 -0.5357,0.1576 -0.5357 0.1576c -0.2416,0.1576 -0.4149,0.4884 -0.4149 0.4884c -0.1733,0.3309 -0.2679,0.8561 -0.2679 0.8561c -0.0945,0.5252 -0.0945,1.2605 -0.0945 1.2605c 0.0000,1.4706 0.3624,2.1376 0.3624 2.1376c 0.3624,0.6670 0.9506,0.6670 0.9506 0.6670ZM 21.0924,439.6954 ZM 23.7080,439.8214 c -1.0189,-0.0000 -1.5861,-0.9034 -1.5861 -0.9034c -0.5672,-0.9034 -0.5672,-2.5945 -0.5672 -2.5945c 0.0000,-1.6912 0.5672,-2.5735 0.5672 -2.5735c 0.5672,-0.8824 1.5861,-0.8824 1.5861 -0.8824c 1.0084,0.0000 1.5756,0.8824 1.5756 0.8824c 0.5672,0.8824 0.5672,2.5735 0.5672 2.5735c 0.0000,1.6912 -0.5672,2.5945 -0.5672 2.5945c -0.5672,0.9034 -1.5756,0.9034 -1.5756 0.9034ZM 23.7080,439.8214 ZM 23.7080,439.1282 c 0.2941,0.0000 0.5305,-0.1628 0.5305 -0.1628c 0.2363,-0.1628 0.4097,-0.5042 0.4097 -0.5042c 0.1733,-0.3414 0.2679,-0.8718 0.2679 -0.8718c 0.0945,-0.5305 0.0945,-1.2658 0.0945 -1.2658c 0.0000,-0.7353 -0.0945,-1.2605 -0.0945 -1.2605c -0.0945,-0.5252 -0.2679,-0.8561 -0.2679 -0.8561c -0.1733,-0.3309 -0.4097,-0.4884 -0.4097 -0.4884c -0.2363,-0.1576 -0.5305,-0.1576 -0.5305 -0.1576c -0.2941,-0.0000 -0.5357,0.1576 -0.5357 0.1576c -0.2416,0.1576 -0.4149,0.4884 -0.4149 0.4884c -0.1733,0.3309 -0.2679,0.8561 -0.2679 0.8561c -0.0945,0.5252 -0.0945,1.2605 -0.0945 1.2605c 0.0000,1.4706 0.3624,2.1376 0.3624 2.1376c 0.3624,0.6670 0.9506,0.6670 0.9506 0.6670Z"/></g><g stroke-linejoin="bevel" stroke-opacity="0.0" fill-opacity="1.0" stroke="rgb(0,0,0)" stroke-width="0.0" fill="rgb(0,0,0)" stroke-linecap="butt" stroke-miterlimit="10.0"><path d="M 10.1996,305.9454 ZM 10.6197,305.4307 c 0.7563,-0.7563 1.3445,-1.3655 1.3445 -1.3655c 0.5882,-0.6092 0.9874,-1.1292 0.9874 -1.1292c 0.3992,-0.5200 0.6092,-0.9559 0.6092 -0.9559c 0.2101,-0.4359 0.2101,-0.8456 0.2101 -0.8456c 0.0000,-0.5777 -0.3151,-0.9454 -0.3151 -0.9454c -0.3151,-0.3676 -0.9559,-0.3676 -0.9559 -0.3676c -0.4202,-0.0000 -0.7773,0.2363 -0.7773 0.2363c -0.3571,0.2363 -0.6513,0.5725 -0.6513 0.5725l -0.4937,-0.4937 c 0.4202,-0.4622 0.8929,-0.7405 0.8929 -0.7405c 0.4727,-0.2784 1.1345,-0.2784 1.1345 -0.2784c 0.9349,0.0000 1.4706,0.5410 1.4706 0.5410c 0.5357,0.5410 0.5357,1.4338 0.5357 1.4338c 0.0000,0.4727 -0.2048,0.9506 -0.2048 0.9506c -0.2048,0.4779 -0.5672,0.9874 -0.5672 0.9874c -0.3624,0.5095 -0.8613,1.0609 -0.8613 1.0609c -0.4989,0.5515 -1.0977,1.1712 -1.0977 1.1712c 0.2731,-0.0210 0.5672,-0.0420 0.5672 -0.0420c 0.2941,-0.0210 0.5567,-0.0210 0.5567 -0.0210h 1.9433 v 0.7458 h -4.3277 v -0.5147 ZM 15.4202,305.9454 ZM 18.0357,306.0714 c -1.0189,-0.0000 -1.5861,-0.9034 -1.5861 -0.9034c -0.5672,-0.9034 -0.5672,-2.5945 -0.5672 -2.5945c 0.0000,-1.6912 0.5672,-2.5735 0.5672 -2.5735c 0.5672,-0.8824 1.5861,-0.8824 1.5861 -0.8824c 1.0084,0.0000 1.5756,0.8824 1.5756 0.8824c 0.5672,0.8824 0.5672,2.5735 0.5672 2.5735c 0.0000,1.6912 -0.5672,2.5945 -0.5672 2.5945c -0.5672,0.9034 -1.5756,0.9034 -1.5756 0.9034ZM 18.0357,306.0714 ZM 18.0357,305.3782 c 0.2941,0.0000 0.5305,-0.1628 0.5305 -0.1628c 0.2363,-0.1628 0.4097,-0.5042 0.4097 -0.5042c 0.1733,-0.3414 0.2679,-0.8718 0.2679 -0.8718c 0.0945,-0.5305 0.0945,-1.2658 0.0945 -1.2658c 0.0000,-0.7353 -0.0945,-1.2605 -0.0945 -1.2605c -0.0945,-0.5252 -0.2679,-0.8561 -0.2679 -0.8561c -0.1733,-0.3309 -0.4097,-0.4884 -0.4097 -0.4884c -0.2363,-0.1576 -0.5305,-0.1576 -0.5305 -0.1576c -0.2941,-0.0000 -0.5357,0.1576 -0.5357 0.1576c -0.2416,0.1576 -0.4149,0.4884 -0.4149 0.4884c -0.1733,0.3309 -0.2679,0.8561 -0.2679 0.8561c -0.0945,0.5252 -0.0945,1.2605 -0.0945 1.2605c 0.0000,1.4706 0.3624,2.1376 0.3624 2.1376c 0.3624,0.6670 0.9506,0.6670 0.9506 0.6670ZM 20.6408,305.9454 ZM 23.2563,306.0714 c -1.0189,-0.0000 -1.5861,-0.9034 -1.5861 -0.9034c -0.5672,-0.9034 -0.5672,-2.5945 -0.5672 -2.5945c 0.0000,-1.6912 0.5672,-2.5735 0.5672 -2.5735c 0.5672,-0.8824 1.5861,-0.8824 1.5861 -0.8824c 1.0084,0.0000 1.5756,0.8824 1.5756 0.8824c 0.5672,0.8824 0.5672,2.5735 0.5672 2.5735c 0.0000,1.6912 -0.5672,2.5945 -0.5672 2.5945c -0.5672,0.9034 -1.5756,0.9034 -1.5756 0.9034ZM 23.2563,306.0714 ZM 23.2563,305.3782 c 0.2941,0.0000 0.5305,-0.1628 0.5305 -0.1628c 0.2363,-0.1628 0.4097,-0.5042 0.4097 -0.5042c 0.1733,-0.3414 0.2679,-0.8718 0.2679 -0.8718c 0.0945,-0.5305 0.0945,-1.2658 0.0945 -1.2658c 0.0000,-0.7353 -0.0945,-1.2605 -0.0945 -1.2605c -0.0945,-0.5252 -0.2679,-0.8561 -0.2679 -0.8561c -0.1733,-0.3309 -0.4097,-0.4884 -0.4097 -0.4884c -0.2363,-0.1576 -0.5305,-0.1576 -0.5305 -0.1576c -0.2941,-0.0000 -0.5357,0.1576 -0.5357 0.1576c -0.2416,0.1576 -0.4149,0.4884 -0.4149 0.4884c -0.1733,0.3309 -0.2679,0.8561 -0.2679 0.8561c -0.0945,0.5252 -0.0945,1.2605 -0.0945 1.2605c 0.0000,1.4706 0.3624,2.1376 0.3624 2.1376c 0.3624,0.6670 0.9506,0.6670 0.9506 0.6670Z"/></g><g stroke-linejoin="bevel" stroke-opacity="0.0" fill-opacity="1.0" stroke="rgb(0,0,0)" stroke-width="0.0" fill="rgb(0,0,0)" stroke-linecap="butt" stroke-miterlimit="10.0"><path d="M 10.0945,172.1954 ZM 10.8088,170.8088 c 0.3046,0.3151 0.7090,0.5567 0.7090 0.5567c 0.4044,0.2416 1.0032,0.2416 1.0032 0.2416c 0.6092,0.0000 0.9979,-0.3309 0.9979 -0.3309c 0.3887,-0.3309 0.3887,-0.8981 0.3887 -0.8981c 0.0000,-0.2941 -0.1103,-0.5410 -0.1103 -0.5410c -0.1103,-0.2468 -0.3624,-0.4254 -0.3624 -0.4254c -0.2521,-0.1786 -0.6618,-0.2731 -0.6618 -0.2731c -0.4097,-0.0945 -1.0084,-0.0945 -1.0084 -0.0945v -0.6618 c 0.5357,0.0000 0.8981,-0.0945 0.8981 -0.0945c 0.3624,-0.0945 0.5882,-0.2626 0.5882 -0.2626c 0.2258,-0.1681 0.3204,-0.3992 0.3204 -0.3992c 0.0945,-0.2311 0.0945,-0.4937 0.0945 -0.4937c 0.0000,-0.4937 -0.3099,-0.7773 -0.3099 -0.7773c -0.3099,-0.2836 -0.8456,-0.2836 -0.8456 -0.2836c -0.4202,-0.0000 -0.7721,0.1891 -0.7721 0.1891c -0.3519,0.1891 -0.6565,0.4937 -0.6565 0.4937l -0.4622,-0.5462 c 0.3887,-0.3676 0.8561,-0.6040 0.8561 -0.6040c 0.4674,-0.2363 1.0662,-0.2363 1.0662 -0.2363c 0.4412,0.0000 0.8088,0.1155 0.8088 0.1155c 0.3676,0.1155 0.6355,0.3309 0.6355 0.3309c 0.2679,0.2153 0.4149,0.5305 0.4149 0.5305c 0.1471,0.3151 0.1471,0.7248 0.1471 0.7248c 0.0000,0.6092 -0.3361,0.9979 -0.3361 0.9979c -0.3361,0.3887 -0.8824,0.5987 -0.8824 0.5987v 0.0420 c 0.3046,0.0735 0.5672,0.2153 0.5672 0.2153c 0.2626,0.1418 0.4622,0.3571 0.4622 0.3571c 0.1996,0.2153 0.3099,0.4989 0.3099 0.4989c 0.1103,0.2836 0.1103,0.6303 0.1103 0.6303c 0.0000,0.4412 -0.1733,0.7983 -0.1733 0.7983c -0.1733,0.3571 -0.4727,0.6040 -0.4727 0.6040c -0.2994,0.2468 -0.6985,0.3782 -0.6985 0.3782c -0.3992,0.1313 -0.8613,0.1313 -0.8613 0.1313c -0.3992,-0.0000 -0.7300,-0.0788 -0.7300 -0.0788c -0.3309,-0.0788 -0.6040,-0.2101 -0.6040 -0.2101c -0.2731,-0.1313 -0.4884,-0.2994 -0.4884 -0.2994c -0.2153,-0.1681 -0.3834,-0.3571 -0.3834 -0.3571ZM 15.3151,172.1954 ZM 17.9307,172.3214 c -1.0189,-0.0000 -1.5861,-0.9034 -1.5861 -0.9034c -0.5672,-0.9034 -0.5672,-2.5945 -0.5672 -2.5945c 0.0000,-1.6912 0.5672,-2.5735 0.5672 -2.5735c 0.5672,-0.8824 1.5861,-0.8824 1.5861 -0.8824c 1.0084,0.0000 1.5756,0.8824 1.5756 0.8824c 0.5672,0.8824 0.5672,2.5735 0.5672 2.5735c 0.0000,1.6912 -0.5672,2.5945 -0.5672 2.5945c -0.5672,0.9034 -1.5756,0.9034 -1.5756 0.9034ZM 17.9307,172.3214 ZM 17.9307,171.6282 c 0.2941,0.0000 0.5305,-0.1628 0.5305 -0.1628c 0.2363,-0.1628 0.4097,-0.5042 0.4097 -0.5042c 0.1733,-0.3414 0.2679,-0.8718 0.2679 -0.8718c 0.0945,-0.5305 0.0945,-1.2658 0.0945 -1.2658c 0.0000,-0.7353 -0.0945,-1.2605 -0.0945 -1.2605c -0.0945,-0.5252 -0.2679,-0.8561 -0.2679 -0.8561c -0.1733,-0.3309 -0.4097,-0.4884 -0.4097 -0.4884c -0.2363,-0.1576 -0.5305,-0.1576 -0.5305 -0.1576c -0.2941,-0.0000 -0.5357,0.1576 -0.5357 0.1576c -0.2416,0.1576 -0.4149,0.4884 -0.4149 0.4884c -0.1733,0.3309 -0.2679,0.8561 -0.2679 0.8561c -0.0945,0.5252 -0.0945,1.2605 -0.0945 1.2605c 0.0000,1.4706 0.3624,2.1376 0.3624 2.1376c 0.3624,0.6670 0.9506,0.6670 0.9506 0.6670ZM 20.5357,172.1954 ZM 23.1513,172.3214 c -1.0189,-0.0000 -1.5861,-0.9034 -1.5861 -0.9034c -0.5672,-0.9034 -0.5672,-2.5945 -0.5672 -2.5945c 0.0000,-1.6912 0.5672,-2.5735 0.5672 -2.5735c 0.5672,-0.8824 1.5861,-0.8824 1.5861 -0.8824c 1.0084,0.0000 1.5756,0.8824 1.5756 0.8824c 0.5672,0.8824 0.5672,2.5735 0.5672 2.5735c 0.0000,1.6912 -0.5672,2.5945 -0.5672 2.5945c -0.5672,0.9034 -1.5756,0.9034 -1.5756 0.9034ZM 23.1513,172.3214 ZM 23.1513,171.6282 c 0.2941,0.0000 0.5305,-0.1628 0.5305 -0.1628c 0.2363,-0.1628 0.4097,-0.5042 0.4097 -0.5042c 0.1733,-0.3414 0.2679,-0.8718 0.2679 -0.8718c 0.0945,-0.5305 0.0945,-1.2658 0.0945 -1.2658c 0.0000,-0.7353 -0.0945,-1.2605 -0.0945 -1.2605c -0.0945,-0.5252 -0.2679,-0.8561 -0.2679 -0.8561c -0.1733,-0.3309 -0.4097,-0.4884 -0.4097 -0.4884c -0.2363,-0.1576 -0.5305,-0.1576 -0.5305 -0.1576c -0.2941,-0.0000 -0.5357,0.1576 -0.5357 0.1576c -0.2416,0.1576 -0.4149,0.4884 -0.4149 0.4884c -0.1733,0.3309 -0.2679,0.8561 -0.2679 0.8561c -0.0945,0.5252 -0.0945,1.2605 -0.0945 1.2605c 0.0000,1.4706 0.3624,2.1376 0.3624 2.1376c 0.3624,0.6670 0.9506,0.6670 0.9506 0.6670Z"/></g><g stroke-linejoin="bevel" stroke-opacity="0.0" fill-opacity="1.0" stroke="rgb(0,0,0)" stroke-width="0.0" fill="rgb(0,0,0)" stroke-linecap="butt" stroke-miterlimit="10.0"><path d="M 10.0000,38.4454 ZM 13.1933,35.9034 v -1.9433 c 0.0000,-0.2731 0.0158,-0.6460 0.0158 -0.6460c 0.0158,-0.3729 0.0368,-0.6460 0.0368 -0.6460h -0.0420 c -0.1261,0.2416 -0.2626,0.4727 -0.2626 0.4727c -0.1366,0.2311 -0.2836,0.4727 -0.2836 0.4727l -1.5651,2.2899 h 2.1008 ZM 13.1933,35.9034 ZM 14.9265,36.5966 h -0.9139 v 1.8487 h -0.8193 v -1.8487 h -3.0147 v -0.5672 l 2.8676,-4.2857 h 0.9664 v 4.1597 h 0.9139 v 0.6933 ZM 15.2206,38.4454 ZM 17.8361,38.5714 c -1.0189,-0.0000 -1.5861,-0.9034 -1.5861 -0.9034c -0.5672,-0.9034 -0.5672,-2.5945 -0.5672 -2.5945c 0.0000,-1.6912 0.5672,-2.5735 0.5672 -2.5735c 0.5672,-0.8824 1.5861,-0.8824 1.5861 -0.8824c 1.0084,0.0000 1.5756,0.8824 1.5756 0.8824c 0.5672,0.8824 0.5672,2.5735 0.5672 2.5735c 0.0000,1.6912 -0.5672,2.5945 -0.5672 2.5945c -0.5672,0.9034 -1.5756,0.9034 -1.5756 0.9034ZM 17.8361,38.5714 ZM 17.8361,37.8782 c 0.2941,0.0000 0.5305,-0.1628 0.5305 -0.1628c 0.2363,-0.1628 0.4097,-0.5042 0.4097 -0.5042c 0.1733,-0.3414 0.2679,-0.8718 0.2679 -0.8718c 0.0945,-0.5305 0.0945,-1.2658 0.0945 -1.2658c 0.0000,-0.7353 -0.0945,-1.2605 -0.0945 -1.2605c -0.0945,-0.5252 -0.2679,-0.8561 -0.2679 -0.8561c -0.1733,-0.3309 -0.4097,-0.4884 -0.4097 -0.4884c -0.2363,-0.1576 -0.5305,-0.1576 -0.5305 -0.1576c -0.2941,-0.0000 -0.5357,0.1576 -0.5357 0.1576c -0.2416,0.1576 -0.4149,0.4884 -0.4149 0.4884c -0.1733,0.3309 -0.2679,0.8561 -0.2679 0.8561c -0.0945,0.5252 -0.0945,1.2605 -0.0945 1.2605c 0.0000,1.4706 0.3624,2.1376 0.3624 2.1376c 0.3624,0.6670 0.9506,0.6670 0.9506 0.6670ZM 20.4412,38.4454 ZM 23.0567,38.5714 c -1.0189,-0.0000 -1.5861,-0.9034 -1.5861 -0.9034c -0.5672,-0.9034 -0.5672,-2.5945 -0.5672 -2.5945c 0.0000,-1.6912 0.5672,-2.5735 0.5672 -2.5735c 0.5672,-0.8824 1.5861,-0.8824 1.5861 -0.8824c 1.0084,0.0000 1.5756,0.8824 1.5756 0.8824c 0.5672,0.8824 0.5672,2.5735 0.5672 2.5735c 0.0000,1.6912 -0.5672,2.5945 -0.5672 2.5945c -0.5672,0.9034 -1.5756,0.9034 -1.5756 0.9034ZM 23.0567,38.5714 ZM 23.0567,37.8782 c 0.2941,0.0000 0.5305,-0.1628 0.5305 -0.1628c 0.2363,-0.1628 0.4097,-0.5042 0.4097 -0.5042c 0.1733,-0.3414 0.2679,-0.8718 0.2679 -0.8718c 0.0945,-0.5305 0.0945,-1.2658 0.0945 -1.2658c 0.0000,-0.7353 -0.0945,-1.2605 -0.0945 -1.2605c -0.0945,-0.5252 -0.2679,-0.8561 -0.2679 -0.8561c -0.1733,-0.3309 -0.4097,-0.4884 -0.4097 -0.4884c -0.2363,-0.1576 -0.5305,-0.1576 -0.5305 -0.1576c -0.2941,-0.0000 -0.5357,0.1576 -0.5357 0.1576c -0.2416,0.1576 -0.4149,0.4884 -0.4149 0.4884c -0.1733,0.3309 -0.2679,0.8561 -0.2679 0.8561c -0.0945,0.5252 -0.0945,1.2605 -0.0945 1.2605c 0.0000,1.4706 0.3624,2.1376 0.3624 2.1376c 0.3624,0.6670 0.9506,0.6670 0.9506 0.6670Z"/></g><g stroke-linejoin="miter" stroke-opacity="1.0" fill-opacity="0.0" stroke="rgb(0,0,0)" stroke-width="0.9999999999999997" fill="rgb(0,0,0)" stroke-linecap="square" stroke-miterlimit="10.0"><path d="M 35.0210,570.0000 h 739.5536 "/></g><g stroke-linejoin="bevel" stroke-opacity="0.0" fill-opacity="1.0" stroke="rgb(0,0,0)" stroke-width="0.0" fill="rgb(0,0,0)" stroke-linecap="butt" stroke-miterlimit="10.0"><path d="M 119.8707,590.0000 ZM 120.2278,586.1660 l 4.5063,-1.7647 v 0.7458 l -2.2164,0.8193 l -1.4076,0.5252 v 0.0420 l 1.4076,0.5252 l 2.2164,0.8193 v 0.7458 l -4.5063,-1.7647 v -0.6933 ZM 125.0913,590.0000 ZM 125.9211,589.2857 h 1.5336 v -4.9370 h -1.2185 v -0.5567 c 0.4622,-0.0840 0.8036,-0.2048 0.8036 -0.2048c 0.3414,-0.1208 0.6145,-0.2889 0.6145 -0.2889h 0.6618 v 5.9874 h 1.3866 v 0.7143 h -3.7815 v -0.7143 ZM 130.3118,590.0000 ZM 131.1732,582.5210 h 0.8508 v 5.0630 h 0.0315 l 2.1744,-2.6891 h 0.9559 l -1.7122,2.0483 l 1.9433,3.0567 h -0.9454 l -1.4916,-2.4580 l -0.9559,1.1134 v 1.3445 h -0.8508 v -7.4790 Z"/></g><g stroke-linejoin="bevel" stroke-opacity="0.0" fill-opacity="1.0" stroke="rgb(0,0,0)" stroke-width="0.0" fill="rgb(0,0,0)" stroke-linecap="butt" stroke-miterlimit="10.0"><path d="M 298.1519,590.0000 ZM 298.9817,589.2857 h 1.5336 v -4.9370 h -1.2185 v -0.5567 c 0.4622,-0.0840 0.8036,-0.2048 0.8036 -0.2048c 0.3414,-0.1208 0.6145,-0.2889 0.6145 -0.2889h 0.6618 v 5.9874 h 1.3866 v 0.7143 h -3.7815 v -0.7143 ZM 303.3725,590.0000 ZM 304.2338,582.5210 h 0.8508 v 5.0630 h 0.0315 l 2.1744,-2.6891 h 0.9559 l -1.7122,2.0483 l 1.9433,3.0567 h -0.9454 l -1.4916,-2.4580 l -0.9559,1.1134 v 1.3445 h -0.8508 v -7.4790 ZM 308.5721,590.0000 ZM 309.0028,587.0378 h 2.4160 v 0.6618 h -2.4160 v -0.6618 ZM 311.8389,590.0000 ZM 312.6687,589.2857 h 1.5336 v -4.9370 h -1.2185 v -0.5567 c 0.4622,-0.0840 0.8036,-0.2048 0.8036 -0.2048c 0.3414,-0.1208 0.6145,-0.2889 0.6145 -0.2889h 0.6618 v 5.9874 h 1.3866 v 0.7143 h -3.7815 v -0.7143 ZM 317.0595,590.0000 ZM 319.6750,590.1261 c -1.0189,-0.0000 -1.5861,-0.9034 -1.5861 -0.9034c -0.5672,-0.9034 -0.5672,-2.5945 -0.5672 -2.5945c 0.0000,-1.6912 0.5672,-2.5735 0.5672 -2.5735c 0.5672,-0.8824 1.5861,-0.8824 1.5861 -0.8824c 1.0084,0.0000 1.5756,0.8824 1.5756 0.8824c 0.5672,0.8824 0.5672,2.5735 0.5672 2.5735c 0.0000,1.6912 -0.5672,2.5945 -0.5672 2.5945c -0.5672,0.9034 -1.5756,0.9034 -1.5756 0.9034ZM 319.6750,590.1261 ZM 319.6750,589.4328 c 0.2941,0.0000 0.5305,-0.1628 0.5305 -0.1628c 0.2363,-0.1628 0.4097,-0.5042 0.4097 -0.5042c 0.1733,-0.3414 0.2679,-0.8718 0.2679 -0.8718c 0.0945,-0.5305 0.0945,-1.2658 0.0945 -1.2658c 0.0000,-0.7353 -0.0945,-1.2605 -0.0945 -1.2605c -0.0945,-0.5252 -0.2679,-0.8561 -0.2679 -0.8561c -0.1733,-0.3309 -0.4097,-0.4884 -0.4097 -0.4884c -0.2363,-0.1576 -0.5305,-0.1576 -0.5305 -0.1576c -0.2941,-0.0000 -0.5357,0.1576 -0.5357 0.1576c -0.2416,0.1576 -0.4149,0.4884 -0.4149 0.4884c -0.1733,0.3309 -0.2679,0.8561 -0.2679 0.8561c -0.0945,0.5252 -0.0945,1.2605 -0.0945 1.2605c 0.0000,1.4706 0.3624,2.1376 0.3624 2.1376c 0.3624,0.6670 0.9506,0.6670 0.9506 0.6670ZM 322.2801,590.0000 ZM 323.1414,582.5210 h 0.8508 v 5.0630 h 0.0315 l 2.1744,-2.6891 h 0.9559 l -1.7122,2.0483 l 1.9433,3.0567 h -0.9454 l -1.4916,-2.4580 l -0.9559,1.1134 v 1.3445 h -0.8508 v -7.4790 Z"/></g><g stroke-linejoin="bevel" stroke-opacity="0.0" fill-opacity="1.0" stroke="rgb(0,0,0)" stroke-width="0.0" fill="rgb(0,0,0)" stroke-linecap="butt" stroke-miterlimit="10.0"><path d="M 477.8197,590.0000 ZM 478.6496,589.2857 h 1.5336 v -4.9370 h -1.2185 v -0.5567 c 0.4622,-0.0840 0.8036,-0.2048 0.8036 -0.2048c 0.3414,-0.1208 0.6145,-0.2889 0.6145 -0.2889h 0.6618 v 5.9874 h 1.3866 v 0.7143 h -3.7815 v -0.7143 ZM 483.0403,590.0000 ZM 485.6559,590.1261 c -1.0189,-0.0000 -1.5861,-0.9034 -1.5861 -0.9034c -0.5672,-0.9034 -0.5672,-2.5945 -0.5672 -2.5945c 0.0000,-1.6912 0.5672,-2.5735 0.5672 -2.5735c 0.5672,-0.8824 1.5861,-0.8824 1.5861 -0.8824c 1.0084,0.0000 1.5756,0.8824 1.5756 0.8824c 0.5672,0.8824 0.5672,2.5735 0.5672 2.5735c 0.0000,1.6912 -0.5672,2.5945 -0.5672 2.5945c -0.5672,0.9034 -1.5756,0.9034 -1.5756 0.9034ZM 485.6559,590.1261 ZM 485.6559,589.4328 c 0.2941,0.0000 0.5305,-0.1628 0.5305 -0.1628c 0.2363,-0.1628 0.4097,-0.5042 0.4097 -0.5042c 0.1733,-0.3414 0.2679,-0.8718 0.2679 -0.8718c 0.0945,-0.5305 0.0945,-1.2658 0.0945 -1.2658c 0.0000,-0.7353 -0.0945,-1.2605 -0.0945 -1.2605c -0.0945,-0.5252 -0.2679,-0.8561 -0.2679 -0.8561c -0.1733,-0.3309 -0.4097,-0.4884 -0.4097 -0.4884c -0.2363,-0.1576 -0.5305,-0.1576 -0.5305 -0.1576c -0.2941,-0.0000 -0.5357,0.1576 -0.5357 0.1576c -0.2416,0.1576 -0.4149,0.4884 -0.4149 0.4884c -0.1733,0.3309 -0.2679,0.8561 -0.2679 0.8561c -0.0945,0.5252 -0.0945,1.2605 -0.0945 1.2605c 0.0000,1.4706 0.3624,2.1376 0.3624 2.1376c 0.3624,0.6670 0.9506,0.6670 0.9506 0.6670ZM 488.2609,590.0000 ZM 489.1222,582.5210 h 0.8508 v 5.0630 h 0.0315 l 2.1744,-2.6891 h 0.9559 l -1.7122,2.0483 l 1.9433,3.0567 h -0.9454 l -1.4916,-2.4580 l -0.9559,1.1134 v 1.3445 h -0.8508 v -7.4790 ZM 493.4605,590.0000 ZM 493.8912,587.0378 h 2.4160 v 0.6618 h -2.4160 v -0.6618 ZM 496.7273,590.0000 ZM 497.5571,589.2857 h 1.5336 v -4.9370 h -1.2185 v -0.5567 c 0.4622,-0.0840 0.8036,-0.2048 0.8036 -0.2048c 0.3414,-0.1208 0.6145,-0.2889 0.6145 -0.2889h 0.6618 v 5.9874 h 1.3866 v 0.7143 h -3.7815 v -0.7143 ZM 501.9479,590.0000 ZM 504.5634,590.1261 c -1.0189,-0.0000 -1.5861,-0.9034 -1.5861 -0.9034c -0.5672,-0.9034 -0.5672,-2.5945 -0.5672 -2.5945c 0.0000,-1.6912 0.5672,-2.5735 0.5672 -2.5735c 0.5672,-0.8824 1.5861,-0.8824 1.5861 -0.8824c 1.0084,0.0000 1.5756,0.8824 1.5756 0.8824c 0.5672,0.8824 0.5672,2.5735 0.5672 2.5735c 0.0000,1.6912 -0.5672,2.5945 -0.5672 2.5945c -0.5672,0.9034 -1.5756,0.9034 -1.5756 0.9034ZM 504.5634,590.1261 ZM 504.5634,589.4328 c 0.2941,0.0000 0.5305,-0.1628 0.5305 -0.1628c 0.2363,-0.1628 0.4097,-0.5042 0.4097 -0.5042c 0.1733,-0.3414 0.2679,-0.8718 0.2679 -0.8718c 0.0945,-0.5305 0.0945,-1.2658 0.0945 -1.2658c 0.0000,-0.7353 -0.0945,-1.2605 -0.0945 -1.2605c -0.0945,-0.5252 -0.2679,-0.8561 -0.2679 -0.8561c -0.1733,-0.3309 -0.4097,-0.4884 -0.4097 -0.4884c -0.2363,-0.1576 -0.5305,-0.1576 -0.5305 -0.1576c -0.2941,-0.0000 -0.5357,0.1576 -0.5357 0.1576c -0.2416,0.1576 -0.4149,0.4884 -0.4149 0.4884c -0.1733,0.3309 -0.2679,0.8561 -0.2679 0.8561c -0.0945,0.5252 -0.0945,1.2605 -0.0945 1.2605c 0.0000,1.4706 0.3624,2.1376 0.3624 2.1376c 0.3624,0.6670 0.9506,0.6670 0.9506 0.6670ZM 507.1685,590.0000 ZM 509.7840,590.1261 c -1.0189,-0.0000 -1.5861,-0.9034 -1.5861 -0.9034c -0.5672,-0.9034 -0.5672,-2.5945 -0.5672 -2.5945c 0.0000,-1.6912 0.5672,-2.5735 0.5672 -2.5735c 0.5672,-0.8824 1.5861,-0.8824 1.5861 -0.8824c 1.0084,0.0000 1.5756,0.8824 1.5756 0.8824c 0.5672,0.8824 0.5672,2.5735 0.5672 2.5735c 0.0000,1.6912 -0.5672,2.5945 -0.5672 2.5945c -0.5672,0.9034 -1.5756,0.9034 -1.5756 0.9034ZM 509.7840,590.1261 ZM 509.7840,589.4328 c 0.2941,0.0000 0.5305,-0.1628 0.5305 -0.1628c 0.2363,-0.1628 0.4097,-0.5042 0.4097 -0.5042c 0.1733,-0.3414 0.2679,-0.8718 0.2679 -0.8718c 0.0945,-0.5305 0.0945,-1.2658 0.0945 -1.2658c 0.0000,-0.7353 -0.0945,-1.2605 -0.0945 -1.2605c -0.0945,-0.5252 -0.2679,-0.8561 -0.2679 -0.8561c -0.1733,-0.3309 -0.4097,-0.4884 -0.4097 -0.4884c -0.2363,-0.1576 -0.5305,-0.1576 -0.5305 -0.1576c -0.2941,-0.0000 -0.5357,0.1576 -0.5357 0.1576c -0.2416,0.1576 -0.4149,0.4884 -0.4149 0.4884c -0.1733,0.3309 -0.2679,0.8561 -0.2679 0.8561c -0.0945,0.5252 -0.0945,1.2605 -0.0945 1.2605c 0.0000,1.4706 0.3624,2.1376 0.3624 2.1376c 0.3624,0.6670 0.9506,0.6670 0.9506 0.6670ZM 512.3890,590.0000 ZM 513.2504,582.5210 h 0.8508 v 5.0630 h 0.0315 l 2.1744,-2.6891 h 0.9559 l -1.7122,2.0483 l 1.9433,3.0567 h -0.9454 l -1.4916,-2.4580 l -0.9559,1.1134 v 1.3445 h -0.8508 v -7.4790 Z"/></g><g stroke-linejoin="bevel" stroke-opacity="0.0" fill-opacity="1.0" stroke="rgb(0,0,0)" stroke-width="0.0" fill="rgb(0,0,0)" stroke-linecap="butt" stroke-miterlimit="10.0"><path d="M 666.7050,590.0000 ZM 671.5684,586.8592 l -4.5063,1.7647 v -0.7458 l 2.2164,-0.8193 l 1.4076,-0.5252 v -0.0420 l -1.4076,-0.5252 l -2.2164,-0.8193 v -0.7458 l 4.5063,1.7647 v 0.6933 ZM 671.9256,590.0000 ZM 672.2827,585.0840 h 4.5063 v 0.6513 h -4.5063 v -0.6513 ZM 672.2827,585.0840 ZM 672.2827,587.3214 h 4.5063 v 0.6513 h -4.5063 v -0.6513 ZM 677.1461,590.0000 ZM 677.9760,589.2857 h 1.5336 v -4.9370 h -1.2185 v -0.5567 c 0.4622,-0.0840 0.8036,-0.2048 0.8036 -0.2048c 0.3414,-0.1208 0.6145,-0.2889 0.6145 -0.2889h 0.6618 v 5.9874 h 1.3866 v 0.7143 h -3.7815 v -0.7143 ZM 682.3667,590.0000 ZM 684.9823,590.1261 c -1.0189,-0.0000 -1.5861,-0.9034 -1.5861 -0.9034c -0.5672,-0.9034 -0.5672,-2.5945 -0.5672 -2.5945c 0.0000,-1.6912 0.5672,-2.5735 0.5672 -2.5735c 0.5672,-0.8824 1.5861,-0.8824 1.5861 -0.8824c 1.0084,0.0000 1.5756,0.8824 1.5756 0.8824c 0.5672,0.8824 0.5672,2.5735 0.5672 2.5735c 0.0000,1.6912 -0.5672,2.5945 -0.5672 2.5945c -0.5672,0.9034 -1.5756,0.9034 -1.5756 0.9034ZM 684.9823,590.1261 ZM 684.9823,589.4328 c 0.2941,0.0000 0.5305,-0.1628 0.5305 -0.1628c 0.2363,-0.1628 0.4097,-0.5042 0.4097 -0.5042c 0.1733,-0.3414 0.2679,-0.8718 0.2679 -0.8718c 0.0945,-0.5305 0.0945,-1.2658 0.0945 -1.2658c 0.0000,-0.7353 -0.0945,-1.2605 -0.0945 -1.2605c -0.0945,-0.5252 -0.2679,-0.8561 -0.2679 -0.8561c -0.1733,-0.3309 -0.4097,-0.4884 -0.4097 -0.4884c -0.2363,-0.1576 -0.5305,-0.1576 -0.5305 -0.1576c -0.2941,-0.0000 -0.5357,0.1576 -0.5357 0.1576c -0.2416,0.1576 -0.4149,0.4884 -0.4149 0.4884c -0.1733,0.3309 -0.2679,0.8561 -0.2679 0.8561c -0.0945,0.5252 -0.0945,1.2605 -0.0945 1.2605c 0.0000,1.4706 0.3624,2.1376 0.3624 2.1376c 0.3624,0.6670 0.9506,0.6670 0.9506 0.6670ZM 687.5873,590.0000 ZM 690.2029,590.1261 c -1.0189,-0.0000 -1.5861,-0.9034 -1.5861 -0.9034c -0.5672,-0.9034 -0.5672,-2.5945 -0.5672 -2.5945c 0.0000,-1.6912 0.5672,-2.5735 0.5672 -2.5735c 0.5672,-0.8824 1.5861,-0.8824 1.5861 -0.8824c 1.0084,0.0000 1.5756,0.8824 1.5756 0.8824c 0.5672,0.8824 0.5672,2.5735 0.5672 2.5735c 0.0000,1.6912 -0.5672,2.5945 -0.5672 2.5945c -0.5672,0.9034 -1.5756,0.9034 -1.5756 0.9034ZM 690.2029,590.1261 ZM 690.2029,589.4328 c 0.2941,0.0000 0.5305,-0.1628 0.5305 -0.1628c 0.2363,-0.1628 0.4097,-0.5042 0.4097 -0.5042c 0.1733,-0.3414 0.2679,-0.8718 0.2679 -0.8718c 0.0945,-0.5305 0.0945,-1.2658 0.0945 -1.2658c 0.0000,-0.7353 -0.0945,-1.2605 -0.0945 -1.2605c -0.0945,-0.5252 -0.2679,-0.8561 -0.2679 -0.8561c -0.1733,-0.3309 -0.4097,-0.4884 -0.4097 -0.4884c -0.2363,-0.1576 -0.5305,-0.1576 -0.5305 -0.1576c -0.2941,-0.0000 -0.5357,0.1576 -0.5357 0.1576c -0.2416,0.1576 -0.4149,0.4884 -0.4149 0.4884c -0.1733,0.3309 -0.2679,0.8561 -0.2679 0.8561c -0.0945,0.5252 -0.0945,1.2605 -0.0945 1.2605c 0.0000,1.4706 0.3624,2.1376 0.3624 2.1376c 0.3624,0.6670 0.9506,0.6670 0.9506 0.6670ZM 692.8079,590.0000 ZM 693.6692,582.5210 h 0.8508 v 5.0630 h 0.0315 l 2.1744,-2.6891 h 0.9559 l -1.7122,2.0483 l 1.9433,3.0567 h -0.9454 l -1.4916,-2.4580 l -0.9559,1.1134 v 1.3445 h -0.8508 v -7.4790 Z"/></g></svg>