<svg xmlns="http://www.w3.org/2000/svg" viewBox="0 0 1000 1000" enable-background="new 0 0 1000 1000">
  <path fill="#865935" d="M969.4 886.6H34c-6.6 0-12-5.4-12-12V399.2c0-6.6 5.4-12 12-12h935.4c6.6 0 12 5.4 12 12v475.4c0 6.6-5.4 12-12 12z"/>
  <path fill="#A56D3A" d="M951.4 886.6H52.2c-16.6 0-30.1-25.2-30.1-55.9V211.9h959.4v618.7c0 30.8-13.5 56-30.1 56z"/>
  <path fill="#4E3523" d="M741.3 211.5h146.6v675.1H741.3zM119.3 211.5h146.6v675.1H119.3z"/>
  <path fill="#C2874E" d="M982.7 214H22s10.1-92.1 47.7-92.1h852.9c48 0 60.1 92.1 60.1 92.1z"/>
  <path fill="#7C5E49" d="M741.3 214.7L728.8 121h136.5l22.6 93.7zM119.3 214.7l20.1-93.7H276l-10.1 93.7z"/>
  <path fill="#443A2E" stroke="#443A2E" stroke-width="2" stroke-miterlimit="10" d="M34.3 168h934.6" stroke-linecap="round"/>
  <path fill="#3A342E" d="M371.1 175.7h-62.6c-1.5 0-2.8-1.2-2.8-2.8v-8.3c0-1.5 1.2-2.8 2.8-2.8h62.6c1.5 0 2.8 1.2 2.8 2.8v8.3c0 1.5-1.3 2.8-2.8 2.8zM699.7 175.7h-62.6c-1.5 0-2.8-1.2-2.8-2.8v-8.3c0-1.5 1.2-2.8 2.8-2.8h62.6c1.5 0 2.8 1.2 2.8 2.8v8.3c-.1 1.5-1.3 2.8-2.8 2.8z"/>
  <path fill="#4E3523" d="M353.2 171.2v-45.4c0-15.9 13-28.9 28.9-28.9h241.6c15.9 0 28.9 13 28.9 28.9v45.4H684V92.7c0-15.9-13-28.9-28.9-28.9H352.2c-15.9 0-28.9 13-28.9 28.9v78.5h29.9z"/>
  <path fill="#7C5E49" d="M354 168.7v-39c0-15.9 13-28.9 28.9-28.9h241.6c15.9 0 28.9 13 28.9 28.9v39h31.5V96.6c0-15.9-13-28.9-28.9-28.9H353c-15.9 0-28.9 13-28.9 28.9v72.1H354z"/>
  <path fill="none" stroke="#443627" stroke-width="25" stroke-miterlimit="10" d="M605.7 381.6H402.9l-95.2 95.2 196.6 229.9L701 476.8z" opacity=".53"/>
  <path fill="#D63838" d="M605.1 381.6H402.3L307 476.8l196.7 229.9 196.6-229.9z"/>
  <g fill="#D02027">
    <path d="M503.7 707.3L396.8 476.2l63.9-95.2-58.4.6-95.3 94.6zM503.7 707.3l106.9-231.1-63.9-95.2 58.4.6 95.2 94.6z"/>
  </g>
  <path fill="none" stroke="#fff" stroke-width="4" stroke-miterlimit="10" d="M307 476.2h393.3M396.8 476.2l63.9-95.2M611.8 475l-63.9-94M611.8 476.2L503.7 707.3 396.8 476.2l106.9 231.1"/>
  <path fill="none" stroke="#fff" stroke-width="6" stroke-miterlimit="10" d="M605.1 381.6H402.3L307 476.8l196.7 229.9 196.6-229.9z"/>
</svg>
