<svg xmlns="http://www.w3.org/2000/svg" viewBox="0 0 1000 500">
  <path fill="#865935" d="M969.4 886.6H34c-6.6 0-12-5.4-12-12V399.2c0-6.6 5.4-12 12-12h935.4c6.6 0 12 5.4 12 12v475.4c0 6.6-5.4 12-12 12z"/>
  <path fill="#A56D3A" d="M951.4 886.6H52.2c-16.6 0-30-25.2-30-56V212h959.3v618.6c0 30.8-13.5 56-30 56z"/>
  <path fill="#4E3523" d="M741.3 211.5H888v675H741.2zm-622 0H266v675H119.2z"/>
  <path fill="#C2874E" d="M982.7 214H22s10-92 47.7-92h853c48 0 60 92 60 92z"/>
  <path fill="#7C5E49" d="M741.3 214.7L728.8 121h136.5l22.6 93.7zm-622 0l20-93.7H276l-10 93.7z"/>
  <path fill="#443A2E" stroke="#443A2E" stroke-width="2" stroke-miterlimit="10" d="M34.3 168H969" stroke-linecap="round"/>
  <path fill="#3A342E" d="M371 175.7h-62.5c-1.5 0-2.8-1.2-2.8-2.8v-9c0-2 1.2-3 2.8-3H371c1.6 0 3 1 3 3v8c0 1.2-1.4 2.5-3 2.5zm328.7 0H637c-1.4 0-2.7-1.2-2.7-2.8v-9c0-2 1.2-3 2.8-3h63c2 0 3 1 3 3v8c0 1.2-1 2.5-3 2.5z"/>
  <path fill="#4E3523" d="M353.2 171.2v-45.4c0-16 13-29 29-29h241.5c16 0 29 13 29 29v45.4H684V92.7c0-16-13-29-29-29H352.3c-16 0-29 13-29 29v78.5h30z"/>
  <path fill="#7C5E49" d="M354 168.7v-39c0-16 13-29 29-29h241.5c16 0 29 13 29 29v39H685v-72c0-16-13-29-29-29H353c-16 0-29 13-29 29v72h30z"/>
  <path fill="none" stroke="#443627" stroke-width="25" stroke-miterlimit="10" d="M605.7 381.6H403l-95.3 95.2 196.6 230 196.7-230z" opacity=".5"/>
  <path fill="#D63838" d="M605 381.6H402.4L307 476.8l196.7 230 196.6-230z"/>
  <path fill="#D02027" d="M503.7 707.3l-107-231 64-95.3-58.4.6-95.3 94.6zm0 0l107-231-64-95.3 58.4.6 96 94.6z"/>
  <path fill="none" stroke="#fff" stroke-width="4" stroke-miterlimit="10" d="M307 476.2h393.3m-303.5 0l64-95.2m151 94l-64-94m64 95.2l-108 231-107-231 107 231"/>
  <path fill="none" stroke="#fff" stroke-width="6" stroke-miterlimit="10" d="M605 381.6H402.4L307 476.8l196.7 230 196.6-230z"/>
</svg>
